<?xml version="1.0" encoding="UTF-8"?>
<svg xmlns="http://www.w3.org/2000/svg" viewBox="0 0 600 364" id="wtc-state-map-OR" role="img" aria-label="or county map">
  <title>or Counties</title>
  <g class="wtc-counties">
    <path class="wtc-county" id="wtc-county-baker" data-county="Baker" d="M440.0,130.9L441.1,132.1L441.1,136.6L436.9,136.8L435.5,138.5L437.5,142.6L436.9,144.0L432.4,144.0L426.2,146.6L423.1,146.6L424.0,149.0L434.0,151.2L436.2,154.0L432.0,157.6L432.7,161.0L429.1,162.3L428.2,165.0L429.8,167.2L426.0,169.6L424.2,173.4L425.3,174.4L440.6,174.3L445.5,173.4L445.7,171.6L449.3,169.8L450.6,167.2L453.1,166.1L454.4,163.6L456.8,162.7L480.3,162.7L481.7,164.5L486.8,166.2L486.8,171.6L503.2,171.5L505.2,169.4L501.9,165.7L503.6,163.8L503.0,160.3L507.0,157.7L509.2,154.2L511.0,149.1L514.1,144.1L521.2,141.5L522.9,138.2L525.2,136.4L527.2,132.8L525.6,129.7L526.3,127.0L530.3,123.5L500.3,123.4L482.1,123.5L481.9,128.8L468.8,128.8L467.9,126.8L464.8,124.8L461.9,124.8L460.8,126.5L457.1,128.6L455.1,128.7L447.1,125.6L445.1,127.4L441.7,127.9L440.0,130.9Z"/>
    <path class="wtc-county" id="wtc-county-benton" data-county="Benton" d="M108.8,145.6L109.0,163.4L101.5,163.4L101.9,167.9L100.6,168.8L95.5,168.9L95.7,170.7L98.1,170.6L98.1,172.6L109.4,173.1L109.4,172.7L135.0,172.6L132.7,170.1L131.0,169.7L132.5,167.9L131.9,163.5L133.4,162.8L133.0,158.9L130.1,155.9L130.3,154.8L134.7,153.8L135.4,151.0L141.6,150.0L138.7,148.3L136.7,145.7L108.8,145.6Z"/>
    <path class="wtc-county" id="wtc-county-clackamas" data-county="Clackamas" d="M154.3,108.8L154.3,112.3L155.4,112.3L156.3,111.4L162.2,112.3L161.1,117.7L159.1,120.3L161.6,121.7L164.2,124.7L171.1,127.1L174.7,132.2L183.8,135.4L224.4,135.4L225.5,134.2L221.0,131.8L219.9,127.7L221.5,126.1L225.2,126.0L229.0,124.3L228.6,121.0L226.8,121.1L223.5,115.7L227.5,114.2L226.6,112.4L227.7,110.0L226.1,107.9L226.6,105.3L221.7,103.5L219.0,99.9L168.2,99.9L167.8,101.6L161.8,101.6L161.8,107.9L155.6,107.0L154.3,108.8Z"/>
    <path class="wtc-county" id="wtc-county-clatsop" data-county="Clatsop" d="M112.1,50.5L107.7,53.2L104.3,53.2L101.7,54.9L99.2,53.4L97.7,54.3L92.6,54.8L93.3,56.8L90.2,56.1L84.2,51.9L88.4,62.2L88.2,67.9L84.6,69.9L86.2,72.2L86.2,79.9L101.5,79.9L101.5,80.6L123.6,80.2L123.9,74.8L123.4,64.1L123.6,57.5L119.4,55.3L119.7,52.4L116.8,50.0L112.1,50.5Z"/>
    <path class="wtc-county" id="wtc-county-columbia" data-county="Columbia" d="M123.6,57.5L123.4,64.1L123.9,74.8L123.6,80.2L144.1,80.2L144.1,81.9L150.5,83.8L159.4,83.8L160.7,83.3L160.2,80.1L158.7,78.3L159.4,75.8L157.8,72.0L157.6,69.0L153.6,64.7L152.0,61.4L139.0,55.1L135.8,54.9L133.0,55.9L128.7,57.6L123.6,57.5Z"/>
    <path class="wtc-county" id="wtc-county-coos" data-county="Coos" d="M70.6,214.2L68.4,221.0L64.9,228.0L63.1,230.2L59.3,233.1L60.6,235.3L59.3,240.5L57.3,244.8L57.3,247.6L54.7,254.8L68.2,254.8L70.6,256.1L71.1,257.9L75.5,261.2L74.0,263.2L74.4,268.0L75.7,268.0L76.0,272.6L78.6,271.4L84.4,271.4L84.4,270.5L88.8,268.0L88.8,265.9L95.9,265.0L95.3,262.8L95.3,252.2L99.0,252.2L99.0,246.8L102.6,246.6L102.6,236.0L98.8,236.0L98.8,225.3L95.5,225.3L95.5,220.1L91.9,220.1L91.9,214.4L70.6,214.2Z"/>
    <path class="wtc-county" id="wtc-county-crook" data-county="Crook" d="M263.0,166.0L263.0,176.7L263.4,181.6L270.5,181.9L270.5,192.6L285.1,192.8L285.1,198.1L308.0,198.1L308.0,203.4L315.5,203.4L315.5,208.8L337.7,208.8L345.3,208.9L345.3,192.7L352.6,192.7L352.8,171.2L337.7,171.2L337.7,166.1L330.2,166.1L330.2,163.0L307.5,163.2L307.5,155.3L280.3,155.4L280.3,160.7L270.3,160.7L270.3,166.1L263.0,166.0Z"/>
    <path class="wtc-county" id="wtc-county-curry" data-county="Curry" d="M54.7,254.8L50.0,261.8L52.4,268.4L54.9,268.5L58.7,273.1L60.2,278.8L57.3,286.6L57.8,293.3L59.3,296.6L58.9,298.3L62.0,302.6L61.5,304.4L63.1,308.0L66.4,310.9L71.1,313.9L95.3,314.0L93.7,311.3L95.0,308.1L93.0,305.2L95.7,303.4L96.8,300.2L93.7,294.1L91.0,291.9L82.4,291.5L81.9,288.9L83.5,288.3L84.8,282.8L91.0,282.8L93.3,279.7L93.5,277.7L95.5,275.9L95.5,273.7L99.5,269.0L101.7,265.3L97.7,264.4L95.9,265.0L88.8,265.9L88.8,268.0L84.4,270.5L84.4,271.4L78.6,271.4L76.0,272.6L75.7,268.0L74.4,268.0L74.0,263.2L75.5,261.2L71.1,257.9L70.6,256.1L68.2,254.8L54.7,254.8Z"/>
    <path class="wtc-county" id="wtc-county-deschutes" data-county="Deschutes" d="M219.0,174.0L221.0,175.8L222.1,183.9L220.1,186.9L218.1,187.9L218.8,189.5L216.6,192.3L215.9,195.6L213.9,195.4L209.3,199.0L210.2,204.8L208.6,211.1L209.9,213.2L207.7,213.9L249.0,213.8L308.2,214.2L337.9,214.2L337.7,208.8L315.5,208.8L315.5,203.4L308.0,203.4L308.0,198.1L285.1,198.1L285.1,192.8L270.5,192.6L270.5,181.9L263.4,181.6L263.0,176.7L263.0,166.0L217.5,165.9L217.7,172.5L219.0,174.0Z"/>
    <path class="wtc-county" id="wtc-county-douglas" data-county="Douglas" d="M74.4,198.6L70.6,214.2L91.9,214.4L91.9,220.1L95.5,220.1L95.5,225.3L98.8,225.3L98.8,236.0L102.6,236.0L102.6,246.6L99.0,246.8L99.0,252.2L95.3,252.2L95.3,262.8L95.9,265.0L97.7,264.4L101.7,265.3L101.7,268.0L110.1,268.0L112.6,269.9L117.2,270.5L123.0,268.0L129.2,268.5L131.9,270.3L136.7,267.0L145.4,267.3L149.2,265.9L158.7,265.7L160.0,262.5L162.2,262.9L166.0,259.3L173.3,256.6L173.3,255.7L179.3,255.7L183.1,252.2L190.4,252.2L191.3,247.8L202.0,247.8L203.7,242.6L205.5,240.2L205.3,238.6L209.3,235.9L207.3,234.1L206.6,229.8L203.9,226.8L199.7,224.8L177.6,224.7L162.0,224.9L162.0,218.3L139.4,218.6L139.4,214.5L137.6,214.5L137.4,203.8L124.5,203.8L124.5,201.9L117.0,201.9L117.0,200.6L113.4,200.7L113.4,198.3L110.1,198.3L110.3,196.9L107.7,196.9L107.9,195.0L105.2,195.0L102.6,193.6L95.0,193.6L90.4,196.6L88.8,196.4L87.5,198.7L74.4,198.6Z"/>
    <path class="wtc-county" id="wtc-county-gilliam" data-county="Gilliam" d="M291.1,82.8L297.6,87.0L301.3,88.0L302.7,90.1L304.2,89.7L306.2,91.6L306.2,93.8L308.9,97.7L305.5,97.5L306.0,99.4L303.8,98.4L301.1,99.4L301.6,102.5L298.9,103.5L297.1,112.8L298.7,115.7L301.8,116.5L303.1,121.1L300.2,123.2L300.9,124.2L334.6,124.3L344.4,124.2L346.1,123.3L346.4,117.9L338.6,117.9L338.8,112.5L331.1,112.4L331.1,96.4L331.5,78.1L327.1,79.8L320.9,81.3L318.4,83.5L314.0,83.8L306.4,85.1L301.6,85.5L294.9,82.2L291.1,82.8Z"/>
    <path class="wtc-county" id="wtc-county-grant" data-county="Grant" d="M351.7,128.7L351.7,139.3L353.0,139.3L352.8,171.2L352.6,192.7L404.5,192.6L404.5,187.2L418.7,187.7L441.1,187.7L440.6,174.3L425.3,174.4L424.2,173.4L426.0,169.6L429.8,167.2L428.2,165.0L429.1,162.3L432.7,161.0L432.0,157.6L436.2,154.0L434.0,151.2L424.0,149.0L423.1,146.6L426.2,146.6L432.4,144.0L436.9,144.0L437.5,142.6L435.5,138.5L436.9,136.8L441.1,136.6L441.1,132.1L440.0,130.9L436.6,130.8L432.7,128.9L428.2,130.7L428.0,129.3L423.1,128.6L383.2,128.6L351.7,128.7Z"/>
    <path class="wtc-county" id="wtc-county-harney" data-county="Harney" d="M337.9,214.2L337.9,240.9L335.7,240.9L335.7,257.1L335.0,257.1L334.8,267.6L370.8,267.5L370.8,305.3L371.0,314.1L373.2,314.1L412.0,314.3L442.9,314.0L443.1,296.7L441.7,296.7L441.7,257.2L440.9,257.3L440.9,230.4L440.6,228.8L440.6,204.3L441.1,202.7L441.1,187.7L418.7,187.7L404.5,187.2L404.5,192.6L352.6,192.7L345.3,192.7L345.3,208.9L337.7,208.8L337.9,214.2Z"/>
    <path class="wtc-county" id="wtc-county-hood-river" data-county="Hood River" d="M212.6,88.2L213.0,94.6L214.4,96.6L219.0,99.9L221.7,103.5L226.6,105.3L226.1,107.9L227.7,110.0L226.6,112.4L239.9,112.4L239.9,96.2L242.3,96.2L242.3,85.3L237.2,83.6L230.6,84.8L224.1,85.5L219.5,84.7L216.1,85.5L212.6,88.2Z"/>
    <path class="wtc-county" id="wtc-county-jackson" data-county="Jackson" d="M131.9,313.5L137.0,313.2L143.2,313.6L168.7,313.5L176.9,313.2L190.0,313.3L190.2,295.9L190.4,252.2L183.1,252.2L179.3,255.7L173.3,255.7L173.3,256.6L166.0,259.3L162.2,262.9L160.0,262.5L158.7,265.7L149.2,265.9L145.4,267.3L136.7,267.0L131.9,270.3L131.9,313.5Z"/>
    <path class="wtc-county" id="wtc-county-jefferson" data-county="Jefferson" d="M220.1,148.0L219.5,152.2L220.6,153.5L219.7,158.3L217.3,159.8L217.5,165.9L263.0,166.0L270.3,166.1L270.3,160.7L280.3,160.7L280.3,155.4L307.5,155.3L307.5,143.1L306.4,141.1L308.4,139.4L264.1,139.3L224.8,139.1L223.0,138.9L219.7,139.8L219.5,141.8L222.6,143.1L219.9,145.1L220.1,148.0Z"/>
    <path class="wtc-county" id="wtc-county-josephine" data-county="Josephine" d="M101.7,265.3L99.5,269.0L95.5,273.7L95.5,275.9L93.5,277.7L93.3,279.7L91.0,282.8L84.8,282.8L83.5,288.3L81.9,288.9L82.4,291.5L91.0,291.9L93.7,294.1L96.8,300.2L95.7,303.4L93.0,305.2L95.0,308.1L93.7,311.3L95.3,314.0L105.5,314.1L114.1,313.7L124.5,313.8L131.9,313.5L131.9,270.3L129.2,268.5L123.0,268.0L117.2,270.5L112.6,269.9L110.1,268.0L101.7,268.0L101.7,265.3Z"/>
    <path class="wtc-county" id="wtc-county-klamath" data-county="Klamath" d="M190.4,252.2L190.2,295.9L190.0,313.3L207.9,313.5L242.1,314.0L267.4,314.2L277.2,314.1L276.9,292.9L277.2,283.9L276.9,267.8L248.1,267.6L248.1,229.9L249.2,229.9L249.0,213.8L207.7,213.9L199.7,217.5L198.6,219.8L200.0,221.3L199.7,224.8L203.9,226.8L206.6,229.8L207.3,234.1L209.3,235.9L205.3,238.6L205.5,240.2L203.7,242.6L202.0,247.8L191.3,247.8L190.4,252.2Z"/>
    <path class="wtc-county" id="wtc-county-lake" data-county="Lake" d="M249.0,213.8L249.2,229.9L248.1,229.9L248.1,267.6L276.9,267.8L277.2,283.9L276.9,292.9L277.2,314.1L311.1,314.2L331.5,314.1L338.4,313.9L371.0,314.1L370.8,305.3L370.8,267.5L334.8,267.6L335.0,257.1L335.7,257.1L335.7,240.9L337.9,240.9L337.9,214.2L308.2,214.2L249.0,213.8Z"/>
    <path class="wtc-county" id="wtc-county-lane" data-county="Lane" d="M77.1,173.1L77.1,179.5L75.5,192.8L74.4,198.6L87.5,198.7L88.8,196.4L90.4,196.6L95.0,193.6L102.6,193.6L105.2,195.0L107.9,195.0L107.7,196.9L110.3,196.9L110.1,198.3L113.4,198.3L113.4,200.7L117.0,200.6L117.0,201.9L124.5,201.9L124.5,203.8L137.4,203.8L137.6,214.5L139.4,214.5L139.4,218.6L162.0,218.3L162.0,224.9L177.6,224.7L199.7,224.8L200.0,221.3L198.6,219.8L199.7,217.5L207.7,213.9L209.9,213.2L208.6,211.1L210.2,204.8L209.3,199.0L213.9,195.4L215.9,195.6L216.6,192.3L218.8,189.5L218.1,187.9L220.1,186.9L222.1,183.9L221.0,175.8L219.0,174.0L187.5,174.6L187.5,175.9L184.0,176.7L172.2,176.1L167.8,173.7L160.7,172.2L154.3,172.4L154.3,174.2L152.0,174.1L151.8,177.7L135.8,177.8L136.7,176.1L135.0,174.7L135.0,172.6L109.4,172.7L109.4,173.1L98.1,172.6L77.1,173.1Z"/>
    <path class="wtc-county" id="wtc-county-lincoln" data-county="Lincoln" d="M83.9,125.6L81.3,137.7L79.5,142.5L80.6,144.6L80.6,149.4L79.1,159.2L79.3,162.9L77.1,173.1L98.1,172.6L98.1,170.6L95.7,170.7L95.5,168.9L100.6,168.8L101.9,167.9L101.5,163.4L109.0,163.4L108.8,145.6L102.6,145.6L101.2,144.5L101.2,125.6L83.9,125.6Z"/>
    <path class="wtc-county" id="wtc-county-linn" data-county="Linn" d="M136.7,145.7L138.7,148.3L141.6,150.0L135.4,151.0L134.7,153.8L130.3,154.8L130.1,155.9L133.0,158.9L133.4,162.8L131.9,163.5L132.5,167.9L131.0,169.7L132.7,170.1L135.0,172.6L135.0,174.7L136.7,176.1L135.8,177.8L151.8,177.7L152.0,174.1L154.3,174.2L154.3,172.4L160.7,172.2L167.8,173.7L172.2,176.1L184.0,176.7L187.5,175.9L187.5,174.6L219.0,174.0L217.7,172.5L217.5,165.9L217.3,159.8L219.7,158.3L220.6,153.5L219.5,152.2L220.1,148.0L205.7,147.7L199.5,145.5L193.7,147.1L190.4,143.8L188.2,143.3L176.9,143.8L169.8,141.4L165.6,142.2L163.4,141.3L158.3,141.3L150.0,146.0L148.7,145.6L146.1,147.7L143.4,144.6L137.2,143.9L136.7,145.7Z"/>
    <path class="wtc-county" id="wtc-county-malheur" data-county="Malheur" d="M440.6,174.3L441.1,187.7L441.1,202.7L440.6,204.3L440.6,228.8L440.9,230.4L440.9,257.3L441.7,257.2L441.7,296.7L443.1,296.7L442.9,314.0L478.3,313.9L515.2,313.8L515.2,209.9L515.2,202.0L515.6,198.9L518.1,197.6L518.1,195.4L520.7,191.1L520.9,188.8L518.5,187.1L518.3,184.9L520.9,184.0L523.2,180.7L522.9,179.1L518.9,178.2L518.5,175.4L514.1,176.0L510.5,172.9L506.3,174.2L503.2,171.5L486.8,171.6L486.8,166.2L481.7,164.5L480.3,162.7L456.8,162.7L454.4,163.6L453.1,166.1L450.6,167.2L449.3,169.8L445.7,171.6L445.5,173.4L440.6,174.3Z"/>
    <path class="wtc-county" id="wtc-county-marion" data-county="Marion" d="M141.8,123.7L141.4,127.5L143.6,129.1L143.4,131.8L139.2,132.7L135.2,138.8L140.5,140.0L137.0,142.6L137.2,143.9L143.4,144.6L146.1,147.7L148.7,145.6L150.0,146.0L158.3,141.3L163.4,141.3L165.6,142.2L169.8,141.4L176.9,143.8L188.2,143.3L190.4,143.8L193.7,147.1L199.5,145.5L205.7,147.7L220.1,148.0L219.9,145.1L222.6,143.1L219.5,141.8L219.7,139.8L223.0,138.9L224.4,135.4L183.8,135.4L174.7,132.2L171.1,127.1L164.2,124.7L161.6,121.7L159.1,120.3L161.1,117.7L162.2,112.3L156.3,111.4L155.4,112.3L152.3,112.5L148.0,110.7L146.1,112.2L146.1,114.5L143.6,114.7L146.1,118.1L144.3,119.7L146.3,121.1L141.8,123.7Z"/>
    <path class="wtc-county" id="wtc-county-morrow" data-county="Morrow" d="M331.5,78.1L331.1,96.4L331.1,112.4L338.8,112.5L338.6,117.9L346.4,117.9L346.1,123.3L344.4,124.2L344.4,128.7L351.7,128.7L383.2,128.6L383.2,123.3L384.3,123.3L384.3,96.5L377.9,96.5L377.9,91.1L366.3,91.1L366.5,71.6L363.2,72.4L357.9,71.2L354.8,72.4L351.9,75.4L339.7,76.7L331.5,78.1Z"/>
    <path class="wtc-county" id="wtc-county-multnomah" data-county="Multnomah" d="M150.5,83.8L150.5,88.7L155.6,92.7L158.0,93.6L161.8,96.5L161.8,101.6L167.8,101.6L168.2,99.9L219.0,99.9L214.4,96.6L213.0,94.6L212.6,88.2L201.5,92.3L196.4,92.7L192.4,94.5L187.3,94.5L184.4,92.8L180.7,93.5L178.2,92.5L168.0,90.7L160.7,87.8L160.7,83.3L159.4,83.8L150.5,83.8Z"/>
    <path class="wtc-county" id="wtc-county-polk" data-county="Polk" d="M101.2,125.6L101.2,144.5L102.6,145.6L108.8,145.6L136.7,145.7L137.2,143.9L137.0,142.6L140.5,140.0L135.2,138.8L139.2,132.7L143.4,131.8L143.6,129.1L141.4,127.5L141.8,123.7L115.4,123.7L101.2,123.6L101.2,125.6Z"/>
    <path class="wtc-county" id="wtc-county-sherman" data-county="Sherman" d="M274.9,88.8L276.0,92.2L275.4,93.9L277.2,95.8L280.5,96.6L278.5,99.9L277.8,102.9L275.8,106.0L273.6,106.9L272.3,109.3L270.9,108.5L268.3,110.4L268.3,114.7L270.5,116.1L277.6,116.1L283.8,118.3L286.7,120.2L286.7,123.2L300.2,123.2L303.1,121.1L301.8,116.5L298.7,115.7L297.1,112.8L298.9,103.5L301.6,102.5L301.1,99.4L303.8,98.4L306.0,99.4L305.5,97.5L308.9,97.7L306.2,93.8L306.2,91.6L304.2,89.7L302.7,90.1L301.3,88.0L297.6,87.0L291.1,82.8L288.9,84.1L278.5,86.8L274.9,88.8Z"/>
    <path class="wtc-county" id="wtc-county-tillamook" data-county="Tillamook" d="M86.2,79.9L85.3,81.3L87.7,83.4L87.9,87.5L86.8,96.8L85.7,98.1L86.6,101.8L85.9,107.6L86.6,111.1L85.7,119.4L83.9,125.6L101.2,125.6L101.2,123.6L97.7,123.6L97.5,115.0L117.4,115.0L117.2,101.6L118.8,96.1L123.6,94.4L123.6,92.6L126.3,92.6L127.6,90.8L125.0,90.8L122.5,89.1L119.9,89.1L116.1,84.6L123.6,84.6L123.6,80.2L101.5,80.6L101.5,79.9L86.2,79.9Z"/>
    <path class="wtc-county" id="wtc-county-umatilla" data-county="Umatilla" d="M366.5,71.6L366.3,91.1L377.9,91.1L377.9,96.5L384.3,96.5L384.3,123.3L383.2,123.3L383.2,128.6L423.1,128.6L423.1,123.4L421.1,123.4L421.3,116.2L414.5,116.2L414.5,112.4L412.0,112.4L412.0,107.0L417.1,107.3L417.1,106.4L428.7,106.4L428.7,101.9L442.9,102.0L442.9,99.3L448.0,99.3L447.7,85.8L451.1,85.8L451.1,80.6L452.2,77.9L456.8,77.9L456.8,75.2L456.4,75.2L456.4,66.5L455.3,66.5L394.1,66.6L391.6,68.5L385.4,70.7L381.2,71.0L377.4,70.3L366.5,71.6Z"/>
    <path class="wtc-county" id="wtc-county-union" data-county="Union" d="M456.8,75.2L456.8,77.9L452.2,77.9L451.1,80.6L451.1,85.8L447.7,85.8L448.0,99.3L442.9,99.3L442.9,102.0L428.7,101.9L428.7,106.4L417.1,106.4L417.1,107.3L412.0,107.0L412.0,112.4L414.5,112.4L414.5,116.2L421.3,116.2L421.1,123.4L423.1,123.4L423.1,128.6L428.0,129.3L428.2,130.7L432.7,128.9L436.6,130.8L440.0,130.9L441.7,127.9L445.1,127.4L447.1,125.6L455.1,128.7L457.1,128.6L460.8,126.5L461.9,124.8L464.8,124.8L467.9,126.8L468.8,128.8L481.9,128.8L482.1,123.5L500.3,123.4L500.5,118.1L487.4,118.1L487.4,115.4L484.8,115.4L484.6,111.8L480.8,109.2L480.8,107.4L477.0,107.6L475.9,105.7L475.9,101.9L474.6,101.9L474.6,96.5L471.9,96.6L471.9,90.2L470.8,87.5L468.1,85.7L468.1,80.6L470.6,80.6L470.6,75.2L456.8,75.2Z"/>
    <path class="wtc-county" id="wtc-county-wallowa" data-county="Wallowa" d="M456.4,66.5L456.4,75.2L456.8,75.2L470.6,75.2L470.6,80.6L468.1,80.6L468.1,85.7L470.8,87.5L471.9,90.2L471.9,96.6L474.6,96.5L474.6,101.9L475.9,101.9L475.9,105.7L477.0,107.6L480.8,107.4L480.8,109.2L484.6,111.8L484.8,115.4L487.4,115.4L487.4,118.1L500.5,118.1L500.3,123.4L530.3,123.5L530.7,121.8L533.6,119.7L536.2,111.8L536.9,108.9L542.2,101.0L544.5,99.7L544.7,96.8L550.0,91.1L548.4,88.2L545.6,85.6L545.6,82.8L542.0,80.3L537.8,80.2L535.6,77.7L531.6,77.9L529.6,75.4L525.6,72.5L522.0,66.8L487.2,66.7L479.7,66.6L456.4,66.5Z"/>
    <path class="wtc-county" id="wtc-county-wasco" data-county="Wasco" d="M226.6,112.4L227.5,114.2L223.5,115.7L226.8,121.1L228.6,121.0L229.0,124.3L225.2,126.0L221.5,126.1L219.9,127.7L221.0,131.8L225.5,134.2L224.4,135.4L223.0,138.9L224.8,139.1L264.1,139.3L308.4,139.4L303.3,136.6L304.4,134.9L301.3,131.4L302.0,129.6L300.9,124.2L300.2,123.2L286.7,123.2L286.7,120.2L283.8,118.3L277.6,116.1L270.5,116.1L268.3,114.7L268.3,110.4L270.9,108.5L272.3,109.3L273.6,106.9L275.8,106.0L277.8,102.9L278.5,99.9L280.5,96.6L277.2,95.8L275.4,93.9L276.0,92.2L274.9,88.8L273.2,87.8L265.6,88.0L261.4,90.7L258.3,90.9L256.3,86.9L248.8,84.8L242.3,85.3L242.3,96.2L239.9,96.2L239.9,112.4L226.6,112.4Z"/>
    <path class="wtc-county" id="wtc-county-washington" data-county="Washington" d="M123.6,80.2L123.6,84.6L116.1,84.6L119.9,89.1L122.5,89.1L125.0,90.8L127.6,90.8L126.3,92.6L123.6,92.6L123.6,94.4L118.8,96.1L117.2,101.6L137.4,101.6L139.0,103.4L144.1,103.4L147.8,106.9L150.7,107.0L151.6,108.7L154.3,108.8L155.6,107.0L161.8,107.9L161.8,101.6L161.8,96.5L158.0,93.6L155.6,92.7L150.5,88.7L150.5,83.8L144.1,81.9L144.1,80.2L123.6,80.2Z"/>
    <path class="wtc-county" id="wtc-county-wheeler" data-county="Wheeler" d="M300.9,124.2L302.0,129.6L301.3,131.4L304.4,134.9L303.3,136.6L308.4,139.4L306.4,141.1L307.5,143.1L307.5,155.3L307.5,163.2L330.2,163.0L330.2,166.1L337.7,166.1L337.7,171.2L352.8,171.2L353.0,139.3L351.7,139.3L351.7,128.7L344.4,128.7L344.4,124.2L334.6,124.3L300.9,124.2Z"/>
    <path class="wtc-county" id="wtc-county-yamhill" data-county="Yamhill" d="M117.2,101.6L117.4,115.0L97.5,115.0L97.7,123.6L101.2,123.6L115.4,123.7L141.8,123.7L146.3,121.1L144.3,119.7L146.1,118.1L143.6,114.7L146.1,114.5L146.1,112.2L148.0,110.7L152.3,112.5L155.4,112.3L154.3,112.3L154.3,108.8L151.6,108.7L150.7,107.0L147.8,106.9L144.1,103.4L139.0,103.4L137.4,101.6L117.2,101.6Z"/>
  </g>
</svg>