<?xml version="1.0" encoding="UTF-8"?>
<svg xmlns="http://www.w3.org/2000/svg" viewBox="0 0 600 364" id="wtc-state-map-OR" role="img" aria-label="or county map">
  <title>or Counties</title>
  <g class="wtc-counties">
    <path class="wtc-county" id="wtc-county-baker" data-county="Baker" d="M440.0,233.4L441.1,232.2L441.1,227.7L436.9,227.5L435.5,225.8L437.5,221.7L436.9,220.3L432.4,220.3L426.2,217.7L423.1,217.7L424.0,215.3L434.0,213.1L436.2,210.3L432.0,206.7L432.7,203.3L429.1,202.0L428.2,199.3L429.8,197.1L426.0,194.7L424.2,190.9L425.3,189.9L440.6,190.0L445.5,190.9L445.7,192.7L449.3,194.5L450.6,197.1L453.1,198.2L454.4,200.7L456.8,201.6L480.3,201.6L481.7,199.8L486.8,198.1L486.8,192.7L503.2,192.8L505.2,194.9L501.9,198.6L503.6,200.5L503.0,204.0L507.0,206.6L509.2,210.1L511.0,215.2L514.1,220.2L521.2,222.8L522.9,226.1L525.2,227.9L527.2,231.5L525.6,234.6L526.3,237.3L530.3,240.8L500.3,240.9L482.1,240.8L481.9,235.5L468.8,235.5L467.9,237.5L464.8,239.5L461.9,239.5L460.8,237.8L457.1,235.7L455.1,235.6L447.1,238.7L445.1,236.9L441.7,236.4L440.0,233.4Z"/>
    <path class="wtc-county" id="wtc-county-benton" data-county="Benton" d="M108.8,218.7L109.0,200.9L101.5,200.9L101.9,196.4L100.6,195.5L95.5,195.4L95.7,193.6L98.1,193.7L98.1,191.6L109.4,191.2L109.4,191.5L135.0,191.6L132.7,194.2L131.0,194.6L132.5,196.4L131.9,200.8L133.4,201.5L133.0,205.3L130.1,208.4L130.3,209.5L134.7,210.4L135.4,213.3L141.6,214.3L138.7,216.0L136.7,218.6L108.8,218.7Z"/>
    <path class="wtc-county" id="wtc-county-clackamas" data-county="Clackamas" d="M154.3,255.5L154.3,252.0L155.4,252.0L156.3,252.9L162.2,252.0L161.1,246.6L159.1,243.9L161.6,242.6L164.2,239.6L171.1,237.1L174.7,232.1L183.8,228.9L224.4,228.9L225.5,230.1L221.0,232.5L219.9,236.6L221.5,238.2L225.2,238.3L229.0,240.0L228.6,243.3L226.8,243.1L223.5,248.6L227.5,250.1L226.6,251.9L227.7,254.3L226.1,256.4L226.6,259.0L221.7,260.8L219.0,264.4L168.2,264.4L167.8,262.7L161.8,262.7L161.8,256.4L155.6,257.3L154.3,255.5Z"/>
    <path class="wtc-county" id="wtc-county-clatsop" data-county="Clatsop" d="M112.1,313.8L107.7,311.1L104.3,311.1L101.7,309.4L99.2,310.9L97.7,310.0L92.6,309.5L93.3,307.4L90.2,308.2L84.2,312.4L88.4,302.1L88.2,296.3L84.6,294.4L86.2,292.0L86.2,284.3L101.5,284.3L101.5,283.7L123.6,284.1L123.9,289.4L123.4,300.2L123.6,306.8L119.4,309.0L119.7,311.9L116.8,314.3L112.1,313.8Z"/>
    <path class="wtc-county" id="wtc-county-columbia" data-county="Columbia" d="M123.6,306.8L123.4,300.2L123.9,289.4L123.6,284.1L144.1,284.1L144.1,282.4L150.5,280.5L159.4,280.5L160.7,281.0L160.2,284.2L158.7,286.0L159.4,288.5L157.8,292.3L157.6,295.3L153.6,299.6L152.0,302.9L139.0,309.2L135.8,309.4L133.0,308.4L128.7,306.7L123.6,306.8Z"/>
    <path class="wtc-county" id="wtc-county-coos" data-county="Coos" d="M70.6,150.1L68.4,143.3L64.9,136.3L63.1,134.0L59.3,131.2L60.6,129.0L59.3,123.7L57.3,119.5L57.3,116.7L54.7,109.5L68.2,109.5L70.6,108.2L71.1,106.4L75.5,103.1L74.0,101.1L74.4,96.2L75.7,96.2L76.0,91.7L78.6,92.9L84.4,92.9L84.4,93.8L88.8,96.2L88.8,98.4L95.9,99.3L95.3,101.4L95.3,112.1L99.0,112.1L99.0,117.5L102.6,117.7L102.6,128.3L98.8,128.3L98.8,139.0L95.5,139.0L95.5,144.2L91.9,144.2L91.9,149.9L70.6,150.1Z"/>
    <path class="wtc-county" id="wtc-county-crook" data-county="Crook" d="M263.0,198.3L263.0,187.6L263.4,182.7L270.5,182.4L270.5,171.7L285.1,171.5L285.1,166.2L308.0,166.2L308.0,160.9L315.5,160.9L315.5,155.5L337.7,155.5L345.3,155.4L345.3,171.6L352.6,171.6L352.8,193.1L337.7,193.1L337.7,198.2L330.2,198.2L330.2,201.3L307.5,201.1L307.5,209.0L280.3,208.9L280.3,203.6L270.3,203.6L270.3,198.2L263.0,198.3Z"/>
    <path class="wtc-county" id="wtc-county-curry" data-county="Curry" d="M54.7,109.5L50.0,102.5L52.4,95.9L54.9,95.8L58.7,91.2L60.2,85.5L57.3,77.7L57.8,71.0L59.3,67.7L58.9,66.0L62.0,61.7L61.5,59.9L63.1,56.3L66.4,53.3L71.1,50.4L95.3,50.3L93.7,53.0L95.0,56.2L93.0,59.1L95.7,60.9L96.8,64.1L93.7,70.2L91.0,72.4L82.4,72.8L81.9,75.4L83.5,76.0L84.8,81.5L91.0,81.5L93.3,84.6L93.5,86.6L95.5,88.4L95.5,90.6L99.5,95.3L101.7,99.0L97.7,99.9L95.9,99.3L88.8,98.4L88.8,96.2L84.4,93.8L84.4,92.9L78.6,92.9L76.0,91.7L75.7,96.2L74.4,96.2L74.0,101.1L75.5,103.1L71.1,106.4L70.6,108.2L68.2,109.5L54.7,109.5Z"/>
    <path class="wtc-county" id="wtc-county-deschutes" data-county="Deschutes" d="M219.0,190.3L221.0,188.5L222.1,180.4L220.1,177.4L218.1,176.4L218.8,174.8L216.6,172.0L215.9,168.7L213.9,168.9L209.3,165.3L210.2,159.5L208.6,153.2L209.9,151.1L207.7,150.3L249.0,150.5L308.2,150.1L337.9,150.1L337.7,155.5L315.5,155.5L315.5,160.9L308.0,160.9L308.0,166.2L285.1,166.2L285.1,171.5L270.5,171.7L270.5,182.4L263.4,182.7L263.0,187.6L263.0,198.3L217.5,198.4L217.7,191.8L219.0,190.3Z"/>
    <path class="wtc-county" id="wtc-county-douglas" data-county="Douglas" d="M74.4,165.7L70.6,150.1L91.9,149.9L91.9,144.2L95.5,144.2L95.5,139.0L98.8,139.0L98.8,128.3L102.6,128.3L102.6,117.7L99.0,117.5L99.0,112.1L95.3,112.1L95.3,101.4L95.9,99.3L97.7,99.9L101.7,99.0L101.7,96.2L110.1,96.2L112.6,94.4L117.2,93.7L123.0,96.2L129.2,95.8L131.9,94.0L136.7,97.3L145.4,97.0L149.2,98.4L158.7,98.6L160.0,101.8L162.2,101.4L166.0,105.0L173.3,107.7L173.3,108.6L179.3,108.6L183.1,112.1L190.4,112.1L191.3,116.5L202.0,116.5L203.7,121.7L205.5,124.1L205.3,125.7L209.3,128.4L207.3,130.2L206.6,134.5L203.9,137.4L199.7,139.5L177.6,139.6L162.0,139.4L162.0,146.0L139.4,145.7L139.4,149.8L137.6,149.8L137.4,160.5L124.5,160.5L124.5,162.3L117.0,162.4L117.0,163.7L113.4,163.6L113.4,166.0L110.1,166.0L110.3,167.4L107.7,167.4L107.9,169.2L105.2,169.3L102.6,170.7L95.0,170.7L90.4,167.7L88.8,167.9L87.5,165.6L74.4,165.7Z"/>
    <path class="wtc-county" id="wtc-county-gilliam" data-county="Gilliam" d="M291.1,281.5L297.6,277.3L301.3,276.3L302.7,274.2L304.2,274.6L306.2,272.7L306.2,270.5L308.9,266.6L305.5,266.8L306.0,264.9L303.8,265.9L301.1,264.9L301.6,261.8L298.9,260.8L297.1,251.5L298.7,248.6L301.8,247.8L303.1,243.1L300.2,241.1L300.9,240.1L334.6,240.0L344.4,240.1L346.1,241.0L346.4,246.4L338.6,246.4L338.8,251.8L331.1,251.9L331.1,267.9L331.5,286.2L327.1,284.5L320.9,283.0L318.4,280.8L314.0,280.5L306.4,279.1L301.6,278.8L294.9,282.1L291.1,281.5Z"/>
    <path class="wtc-county" id="wtc-county-grant" data-county="Grant" d="M351.7,235.6L351.7,225.0L353.0,225.0L352.8,193.1L352.6,171.6L404.5,171.7L404.5,177.1L418.7,176.6L441.1,176.6L440.6,190.0L425.3,189.9L424.2,190.9L426.0,194.7L429.8,197.1L428.2,199.3L429.1,202.0L432.7,203.3L432.0,206.7L436.2,210.3L434.0,213.1L424.0,215.3L423.1,217.7L426.2,217.7L432.4,220.3L436.9,220.3L437.5,221.7L435.5,225.8L436.9,227.5L441.1,227.7L441.1,232.2L440.0,233.4L436.6,233.5L432.7,235.3L428.2,233.6L428.0,235.0L423.1,235.7L383.2,235.7L351.7,235.6Z"/>
    <path class="wtc-county" id="wtc-county-harney" data-county="Harney" d="M337.9,150.1L337.9,123.4L335.7,123.4L335.7,107.2L335.0,107.2L334.8,96.7L370.8,96.8L370.8,59.0L371.0,50.2L373.2,50.2L412.0,50.0L442.9,50.3L443.1,67.6L441.7,67.6L441.7,107.1L440.9,107.0L440.9,133.9L440.6,135.5L440.6,160.0L441.1,161.6L441.1,176.6L418.7,176.6L404.5,177.1L404.5,171.7L352.6,171.6L345.3,171.6L345.3,155.4L337.7,155.5L337.9,150.1Z"/>
    <path class="wtc-county" id="wtc-county-hood-river" data-county="Hood River" d="M212.6,276.1L213.0,269.7L214.4,267.7L219.0,264.4L221.7,260.8L226.6,259.0L226.1,256.4L227.7,254.3L226.6,251.9L239.9,251.9L239.9,268.0L242.3,268.0L242.3,279.0L237.2,280.7L230.6,279.5L224.1,278.8L219.5,279.6L216.1,278.8L212.6,276.1Z"/>
    <path class="wtc-county" id="wtc-county-jackson" data-county="Jackson" d="M131.9,50.7L137.0,51.1L143.2,50.7L168.7,50.8L176.9,51.1L190.0,51.0L190.2,68.4L190.4,112.1L183.1,112.1L179.3,108.6L173.3,108.6L173.3,107.7L166.0,105.0L162.2,101.4L160.0,101.8L158.7,98.6L149.2,98.4L145.4,97.0L136.7,97.3L131.9,94.0L131.9,50.7Z"/>
    <path class="wtc-county" id="wtc-county-jefferson" data-county="Jefferson" d="M220.1,216.3L219.5,212.1L220.6,210.8L219.7,206.0L217.3,204.5L217.5,198.4L263.0,198.3L270.3,198.2L270.3,203.6L280.3,203.6L280.3,208.9L307.5,209.0L307.5,221.2L306.4,223.2L308.4,224.9L264.1,225.0L224.8,225.2L223.0,225.4L219.7,224.5L219.5,222.4L222.6,221.2L219.9,219.2L220.1,216.3Z"/>
    <path class="wtc-county" id="wtc-county-josephine" data-county="Josephine" d="M101.7,99.0L99.5,95.3L95.5,90.6L95.5,88.4L93.5,86.6L93.3,84.6L91.0,81.5L84.8,81.5L83.5,76.0L81.9,75.4L82.4,72.8L91.0,72.4L93.7,70.2L96.8,64.1L95.7,60.9L93.0,59.1L95.0,56.2L93.7,53.0L95.3,50.3L105.5,50.2L114.1,50.6L124.5,50.5L131.9,50.7L131.9,94.0L129.2,95.8L123.0,96.2L117.2,93.7L112.6,94.4L110.1,96.2L101.7,96.2L101.7,99.0Z"/>
    <path class="wtc-county" id="wtc-county-klamath" data-county="Klamath" d="M190.4,112.1L190.2,68.4L190.0,51.0L207.9,50.7L242.1,50.3L267.4,50.1L277.2,50.2L276.9,71.3L277.2,80.4L276.9,96.5L248.1,96.7L248.1,134.4L249.2,134.4L249.0,150.5L207.7,150.3L199.7,146.8L198.6,144.5L200.0,143.0L199.7,139.5L203.9,137.4L206.6,134.5L207.3,130.2L209.3,128.4L205.3,125.7L205.5,124.1L203.7,121.7L202.0,116.5L191.3,116.5L190.4,112.1Z"/>
    <path class="wtc-county" id="wtc-county-lake" data-county="Lake" d="M249.0,150.5L249.2,134.4L248.1,134.4L248.1,96.7L276.9,96.5L277.2,80.4L276.9,71.3L277.2,50.2L311.1,50.1L331.5,50.2L338.4,50.4L371.0,50.2L370.8,59.0L370.8,96.8L334.8,96.7L335.0,107.2L335.7,107.2L335.7,123.4L337.9,123.4L337.9,150.1L308.2,150.1L249.0,150.5Z"/>
    <path class="wtc-county" id="wtc-county-lane" data-county="Lane" d="M77.1,191.2L77.1,184.7L75.5,171.5L74.4,165.7L87.5,165.6L88.8,167.9L90.4,167.7L95.0,170.7L102.6,170.7L105.2,169.3L107.9,169.2L107.7,167.4L110.3,167.4L110.1,166.0L113.4,166.0L113.4,163.6L117.0,163.7L117.0,162.4L124.5,162.3L124.5,160.5L137.4,160.5L137.6,149.8L139.4,149.8L139.4,145.7L162.0,146.0L162.0,139.4L177.6,139.6L199.7,139.5L200.0,143.0L198.6,144.5L199.7,146.8L207.7,150.3L209.9,151.1L208.6,153.2L210.2,159.5L209.3,165.3L213.9,168.9L215.9,168.7L216.6,172.0L218.8,174.8L218.1,176.4L220.1,177.4L222.1,180.4L221.0,188.5L219.0,190.3L187.5,189.7L187.5,188.4L184.0,187.6L172.2,188.2L167.8,190.6L160.7,192.1L154.3,191.9L154.3,190.1L152.0,190.2L151.8,186.6L135.8,186.5L136.7,188.1L135.0,189.6L135.0,191.6L109.4,191.5L109.4,191.2L98.1,191.6L77.1,191.2Z"/>
    <path class="wtc-county" id="wtc-county-lincoln" data-county="Lincoln" d="M83.9,238.7L81.3,226.6L79.5,221.8L80.6,219.7L80.6,214.9L79.1,205.1L79.3,201.4L77.1,191.2L98.1,191.6L98.1,193.7L95.7,193.6L95.5,195.4L100.6,195.5L101.9,196.4L101.5,200.9L109.0,200.9L108.8,218.7L102.6,218.7L101.2,219.8L101.2,238.7L83.9,238.7Z"/>
    <path class="wtc-county" id="wtc-county-linn" data-county="Linn" d="M136.7,218.6L138.7,216.0L141.6,214.3L135.4,213.3L134.7,210.4L130.3,209.5L130.1,208.4L133.0,205.3L133.4,201.5L131.9,200.8L132.5,196.4L131.0,194.6L132.7,194.2L135.0,191.6L135.0,189.6L136.7,188.1L135.8,186.5L151.8,186.6L152.0,190.2L154.3,190.1L154.3,191.9L160.7,192.1L167.8,190.6L172.2,188.2L184.0,187.6L187.5,188.4L187.5,189.7L219.0,190.3L217.7,191.8L217.5,198.4L217.3,204.5L219.7,206.0L220.6,210.8L219.5,212.1L220.1,216.3L205.7,216.6L199.5,218.8L193.7,217.2L190.4,220.5L188.2,221.0L176.9,220.5L169.8,222.9L165.6,222.1L163.4,223.0L158.3,223.0L150.0,218.3L148.7,218.7L146.1,216.6L143.4,219.7L137.2,220.4L136.7,218.6Z"/>
    <path class="wtc-county" id="wtc-county-malheur" data-county="Malheur" d="M440.6,190.0L441.1,176.6L441.1,161.6L440.6,160.0L440.6,135.5L440.9,133.9L440.9,107.0L441.7,107.1L441.7,67.6L443.1,67.6L442.9,50.3L478.3,50.4L515.2,50.5L515.2,154.4L515.2,162.3L515.6,165.4L518.1,166.7L518.1,168.9L520.7,173.2L520.9,175.5L518.5,177.2L518.3,179.4L520.9,180.3L523.2,183.6L522.9,185.2L518.9,186.1L518.5,188.9L514.1,188.3L510.5,191.4L506.3,190.1L503.2,192.8L486.8,192.7L486.8,198.1L481.7,199.8L480.3,201.6L456.8,201.6L454.4,200.7L453.1,198.2L450.6,197.1L449.3,194.5L445.7,192.7L445.5,190.9L440.6,190.0Z"/>
    <path class="wtc-county" id="wtc-county-marion" data-county="Marion" d="M141.8,240.5L141.4,236.8L143.6,235.2L143.4,232.5L139.2,231.6L135.2,225.5L140.5,224.3L137.0,221.7L137.2,220.4L143.4,219.7L146.1,216.6L148.7,218.7L150.0,218.3L158.3,223.0L163.4,223.0L165.6,222.1L169.8,222.9L176.9,220.5L188.2,221.0L190.4,220.5L193.7,217.2L199.5,218.8L205.7,216.6L220.1,216.3L219.9,219.2L222.6,221.2L219.5,222.4L219.7,224.5L223.0,225.4L224.4,228.9L183.8,228.9L174.7,232.1L171.1,237.1L164.2,239.6L161.6,242.6L159.1,243.9L161.1,246.6L162.2,252.0L156.3,252.9L155.4,252.0L152.3,251.8L148.0,253.6L146.1,252.1L146.1,249.8L143.6,249.6L146.1,246.2L144.3,244.6L146.3,243.1L141.8,240.5Z"/>
    <path class="wtc-county" id="wtc-county-morrow" data-county="Morrow" d="M331.5,286.2L331.1,267.9L331.1,251.9L338.8,251.8L338.6,246.4L346.4,246.4L346.1,241.0L344.4,240.1L344.4,235.6L351.7,235.6L383.2,235.7L383.2,241.0L384.3,241.0L384.3,267.8L377.9,267.8L377.9,273.1L366.3,273.2L366.5,292.7L363.2,291.9L357.9,293.1L354.8,291.9L351.9,288.9L339.7,287.6L331.5,286.2Z"/>
    <path class="wtc-county" id="wtc-county-multnomah" data-county="Multnomah" d="M150.5,280.5L150.5,275.6L155.6,271.6L158.0,270.7L161.8,267.8L161.8,262.7L167.8,262.7L168.2,264.4L219.0,264.4L214.4,267.7L213.0,269.7L212.6,276.1L201.5,272.0L196.4,271.6L192.4,269.8L187.3,269.8L184.4,271.5L180.7,270.8L178.2,271.8L168.0,273.6L160.7,276.5L160.7,281.0L159.4,280.5L150.5,280.5Z"/>
    <path class="wtc-county" id="wtc-county-polk" data-county="Polk" d="M101.2,238.7L101.2,219.8L102.6,218.7L108.8,218.7L136.7,218.6L137.2,220.4L137.0,221.7L140.5,224.3L135.2,225.5L139.2,231.6L143.4,232.5L143.6,235.2L141.4,236.8L141.8,240.5L115.4,240.5L101.2,240.7L101.2,238.7Z"/>
    <path class="wtc-county" id="wtc-county-sherman" data-county="Sherman" d="M274.9,275.5L276.0,272.1L275.4,270.4L277.2,268.5L280.5,267.7L278.5,264.4L277.8,261.4L275.8,258.3L273.6,257.4L272.3,255.0L270.9,255.8L268.3,253.9L268.3,249.6L270.5,248.2L277.6,248.2L283.8,246.0L286.7,244.1L286.7,241.1L300.2,241.1L303.1,243.1L301.8,247.8L298.7,248.6L297.1,251.5L298.9,260.8L301.6,261.8L301.1,264.9L303.8,265.9L306.0,264.9L305.5,266.8L308.9,266.6L306.2,270.5L306.2,272.7L304.2,274.6L302.7,274.2L301.3,276.3L297.6,277.3L291.1,281.5L288.9,280.2L278.5,277.4L274.9,275.5Z"/>
    <path class="wtc-county" id="wtc-county-tillamook" data-county="Tillamook" d="M86.2,284.3L85.3,283.0L87.7,280.8L87.9,276.8L86.8,267.5L85.7,266.2L86.6,262.5L85.9,256.7L86.6,253.2L85.7,244.9L83.9,238.7L101.2,238.7L101.2,240.7L97.7,240.7L97.5,249.3L117.4,249.3L117.2,262.7L118.8,268.2L123.6,269.9L123.6,271.7L126.3,271.7L127.6,273.5L125.0,273.5L122.5,275.2L119.9,275.2L116.1,279.7L123.6,279.7L123.6,284.1L101.5,283.7L101.5,284.3L86.2,284.3Z"/>
    <path class="wtc-county" id="wtc-county-umatilla" data-county="Umatilla" d="M366.5,292.7L366.3,273.2L377.9,273.1L377.9,267.8L384.3,267.8L384.3,241.0L383.2,241.0L383.2,235.7L423.1,235.7L423.1,240.9L421.1,240.9L421.3,248.1L414.5,248.1L414.5,251.9L412.0,251.9L412.0,257.3L417.1,257.0L417.1,257.9L428.7,257.9L428.7,262.4L442.9,262.3L442.9,265.0L448.0,265.0L447.7,278.5L451.1,278.5L451.1,283.7L452.2,286.4L456.8,286.4L456.8,289.1L456.4,289.1L456.4,297.8L455.3,297.8L394.1,297.7L391.6,295.8L385.4,293.6L381.2,293.3L377.4,294.0L366.5,292.7Z"/>
    <path class="wtc-county" id="wtc-county-union" data-county="Union" d="M456.8,289.1L456.8,286.4L452.2,286.4L451.1,283.7L451.1,278.5L447.7,278.5L448.0,265.0L442.9,265.0L442.9,262.3L428.7,262.4L428.7,257.9L417.1,257.9L417.1,257.0L412.0,257.3L412.0,251.9L414.5,251.9L414.5,248.1L421.3,248.1L421.1,240.9L423.1,240.9L423.1,235.7L428.0,235.0L428.2,233.6L432.7,235.3L436.6,233.5L440.0,233.4L441.7,236.4L445.1,236.9L447.1,238.7L455.1,235.6L457.1,235.7L460.8,237.8L461.9,239.5L464.8,239.5L467.9,237.5L468.8,235.5L481.9,235.5L482.1,240.8L500.3,240.9L500.5,246.2L487.4,246.2L487.4,248.9L484.8,248.9L484.6,252.5L480.8,255.1L480.8,256.8L477.0,256.7L475.9,258.5L475.9,262.4L474.6,262.4L474.6,267.8L471.9,267.7L471.9,274.0L470.8,276.8L468.1,278.6L468.1,283.7L470.6,283.7L470.6,289.1L456.8,289.1Z"/>
    <path class="wtc-county" id="wtc-county-wallowa" data-county="Wallowa" d="M456.4,297.8L456.4,289.1L456.8,289.1L470.6,289.1L470.6,283.7L468.1,283.7L468.1,278.6L470.8,276.8L471.9,274.0L471.9,267.7L474.6,267.8L474.6,262.4L475.9,262.4L475.9,258.5L477.0,256.7L480.8,256.8L480.8,255.1L484.6,252.5L484.8,248.9L487.4,248.9L487.4,246.2L500.5,246.2L500.3,240.9L530.3,240.8L530.7,242.5L533.6,244.6L536.2,252.5L536.9,255.4L542.2,263.3L544.5,264.5L544.7,267.5L550.0,273.2L548.4,276.1L545.6,278.7L545.6,281.5L542.0,284.0L537.8,284.1L535.6,286.6L531.6,286.4L529.6,288.9L525.6,291.8L522.0,297.5L487.2,297.6L479.7,297.7L456.4,297.8Z"/>
    <path class="wtc-county" id="wtc-county-wasco" data-county="Wasco" d="M226.6,251.9L227.5,250.1L223.5,248.6L226.8,243.1L228.6,243.3L229.0,240.0L225.2,238.3L221.5,238.2L219.9,236.6L221.0,232.5L225.5,230.1L224.4,228.9L223.0,225.4L224.8,225.2L264.1,225.0L308.4,224.9L303.3,227.6L304.4,229.4L301.3,232.9L302.0,234.7L300.9,240.1L300.2,241.1L286.7,241.1L286.7,244.1L283.8,246.0L277.6,248.2L270.5,248.2L268.3,249.6L268.3,253.9L270.9,255.8L272.3,255.0L273.6,257.4L275.8,258.3L277.8,261.4L278.5,264.4L280.5,267.7L277.2,268.5L275.4,270.4L276.0,272.1L274.9,275.5L273.2,276.5L265.6,276.3L261.4,273.6L258.3,273.4L256.3,277.4L248.8,279.5L242.3,279.0L242.3,268.0L239.9,268.0L239.9,251.9L226.6,251.9Z"/>
    <path class="wtc-county" id="wtc-county-washington" data-county="Washington" d="M123.6,284.1L123.6,279.7L116.1,279.7L119.9,275.2L122.5,275.2L125.0,273.5L127.6,273.5L126.3,271.7L123.6,271.7L123.6,269.9L118.8,268.2L117.2,262.7L137.4,262.7L139.0,260.9L144.1,260.9L147.8,257.4L150.7,257.3L151.6,255.6L154.3,255.5L155.6,257.3L161.8,256.4L161.8,262.7L161.8,267.8L158.0,270.7L155.6,271.6L150.5,275.6L150.5,280.5L144.1,282.4L144.1,284.1L123.6,284.1Z"/>
    <path class="wtc-county" id="wtc-county-wheeler" data-county="Wheeler" d="M300.9,240.1L302.0,234.7L301.3,232.9L304.4,229.4L303.3,227.6L308.4,224.9L306.4,223.2L307.5,221.2L307.5,209.0L307.5,201.1L330.2,201.3L330.2,198.2L337.7,198.2L337.7,193.1L352.8,193.1L353.0,225.0L351.7,225.0L351.7,235.6L344.4,235.6L344.4,240.1L334.6,240.0L300.9,240.1Z"/>
    <path class="wtc-county" id="wtc-county-yamhill" data-county="Yamhill" d="M117.2,262.7L117.4,249.3L97.5,249.3L97.7,240.7L101.2,240.7L115.4,240.5L141.8,240.5L146.3,243.1L144.3,244.6L146.1,246.2L143.6,249.6L146.1,249.8L146.1,252.1L148.0,253.6L152.3,251.8L155.4,252.0L154.3,252.0L154.3,255.5L151.6,255.6L150.7,257.3L147.8,257.4L144.1,260.9L139.0,260.9L137.4,262.7L117.2,262.7Z"/>
  </g>
</svg>