<?xml version="1.0" encoding="UTF-8"?>
<svg xmlns="http://www.w3.org/2000/svg" viewBox="0 0 600 451" id="wtc-state-map-AR" role="img" aria-label="ar county map">
  <title>ar Counties</title>
  <g class="wtc-counties">
    <path class="wtc-county" id="wtc-county-arkansas" data-county="Arkansas" d="M342.9,198.6L342.2,173.6L354.1,173.1L360.6,171.7L362.0,164.4L368.2,163.5L368.9,158.2L371.4,151.5L374.3,148.3L381.5,150.1L378.3,145.8L390.9,147.9L392.7,145.6L396.7,145.9L398.5,143.9L400.3,146.3L394.2,153.5L394.2,157.3L398.8,158.9L402.1,162.1L405.7,164.6L404.3,167.9L407.9,171.9L405.7,175.2L408.2,183.9L404.3,184.7L400.6,188.4L396.3,195.4L393.1,195.9L392.0,199.0L387.3,200.5L387.7,203.1L383.7,203.8L384.4,206.5L375.8,206.7L354.1,207.1L353.8,198.4L345.8,198.5L342.9,198.6Z"/>
    <path class="wtc-county" id="wtc-county-ashley" data-county="Ashley" d="M314.4,89.6L317.3,87.6L314.4,83.8L315.5,80.0L309.0,77.5L299.6,69.3L299.3,66.0L302.2,65.4L300.4,61.6L300.4,56.6L302.5,52.8L306.5,50.4L367.5,50.2L367.8,88.7L314.4,89.6Z"/>
    <path class="wtc-county" id="wtc-county-baxter" data-county="Baxter" d="M260.0,401.2L259.6,389.9L253.8,387.2L255.3,385.5L259.6,386.4L255.6,381.9L260.7,381.1L258.5,377.6L265.7,376.9L267.2,372.7L265.0,370.6L272.2,364.6L271.9,357.4L271.5,348.7L282.3,348.5L282.7,357.2L293.5,357.0L293.5,364.5L291.7,368.7L297.1,368.6L297.5,377.3L298.2,401.2L260.0,401.2Z"/>
    <path class="wtc-county" id="wtc-county-benton" data-county="Benton" d="M50.0,401.3L55.8,367.4L56.9,361.3L72.7,361.1L73.1,365.4L78.5,365.4L78.9,372.7L110.6,372.1L114.9,371.6L114.9,374.0L123.6,374.7L125.4,374.7L125.4,382.0L130.8,381.9L126.1,385.2L125.8,401.2L104.5,401.2L50.0,401.3Z"/>
    <path class="wtc-county" id="wtc-county-boone" data-county="Boone" d="M183.1,401.2L182.8,369.0L182.4,363.3L218.5,362.6L223.9,362.6L224.2,400.5L227.5,397.8L227.5,401.2L183.1,401.2Z"/>
    <path class="wtc-county" id="wtc-county-bradley" data-county="Bradley" d="M280.2,120.7L281.2,118.1L280.2,111.6L282.0,100.1L281.2,96.7L275.5,87.6L275.1,81.3L278.0,79.6L280.5,76.0L290.6,75.0L291.0,70.6L299.3,66.0L299.6,69.3L309.0,77.5L315.5,80.0L314.4,83.8L317.3,87.6L314.4,89.6L312.6,102.8L315.5,102.8L315.9,120.4L280.2,120.7Z"/>
    <path class="wtc-county" id="wtc-county-calhoun" data-county="Calhoun" d="M254.5,130.2L254.5,123.6L249.5,119.2L247.7,116.1L240.5,115.1L239.8,111.5L241.9,109.0L235.4,100.9L237.6,98.3L241.2,98.0L242.3,92.9L247.7,93.2L248.8,89.4L254.5,89.5L256.3,86.5L259.6,85.4L260.7,81.4L265.0,82.6L265.7,79.1L270.1,76.7L278.0,79.6L275.1,81.3L275.5,87.6L281.2,96.7L282.0,100.1L280.2,111.6L281.2,118.1L280.2,120.7L279.1,124.3L279.8,129.5L254.5,130.2Z"/>
    <path class="wtc-county" id="wtc-county-carroll" data-county="Carroll" d="M125.8,401.2L126.1,385.2L130.8,381.9L146.7,381.6L146.0,378.8L150.6,377.1L150.3,371.4L153.9,369.8L153.9,366.8L157.5,366.7L157.5,363.8L164.7,363.7L182.4,363.3L182.8,369.0L183.1,401.2L181.0,401.2L153.9,401.2L125.8,401.2Z"/>
    <path class="wtc-county" id="wtc-county-chicot" data-county="Chicot" d="M367.8,88.7L367.5,50.2L370.0,50.2L387.3,50.1L397.0,50.0L397.0,50.7L401.7,55.1L393.4,60.4L395.2,63.8L399.2,62.6L404.3,63.3L405.3,65.3L404.6,71.8L409.3,76.2L408.6,78.2L405.0,77.1L403.9,73.5L399.6,79.4L399.6,84.9L407.9,92.7L406.1,95.4L402.5,89.1L396.3,87.9L392.7,90.0L393.8,91.6L399.9,92.5L401.4,97.1L396.3,99.5L396.7,95.1L390.2,93.7L395.2,100.6L392.0,102.8L390.5,106.0L389.1,101.5L381.2,101.7L378.6,106.2L368.2,106.2L367.8,88.7Z"/>
    <path class="wtc-county" id="wtc-county-clark" data-county="Clark" d="M164.7,184.3L164.4,175.5L162.2,175.6L162.2,171.6L168.3,171.1L166.9,163.2L169.0,155.1L174.8,148.7L175.2,145.8L180.2,140.8L184.2,134.4L193.2,131.9L194.7,130.0L198.6,131.5L202.2,127.7L206.6,128.7L209.5,126.9L218.8,130.0L221.0,132.2L223.5,131.0L224.6,135.6L221.7,139.9L223.5,140.3L219.2,143.9L217.7,148.7L223.5,148.4L224.2,165.8L209.8,166.2L209.5,173.8L203.7,174.8L192.9,175.0L192.9,178.0L177.0,178.3L177.0,184.2L171.6,184.2L164.7,184.3Z"/>
    <path class="wtc-county" id="wtc-county-clay" data-county="Clay" d="M435.3,401.2L437.1,399.9L436.0,395.1L438.9,392.6L438.9,379.3L433.1,380.1L433.1,377.9L442.5,378.0L467.0,377.2L482.2,377.1L482.2,371.3L495.2,371.3L501.7,374.1L502.7,377.8L506.0,378.4L507.8,389.9L499.9,393.7L500.9,395.0L499.1,401.2L492.3,401.2L456.2,401.2L435.3,401.2Z"/>
    <path class="wtc-county" id="wtc-county-cleburne" data-county="Cleburne" d="M289.2,322.1L288.8,304.7L288.1,303.2L287.7,287.2L302.2,287.1L328.1,286.6L328.5,294.4L333.9,296.4L333.9,304.3L334.3,322.1L329.6,321.5L289.2,322.1Z"/>
    <path class="wtc-county" id="wtc-county-cleveland" data-county="Cleveland" d="M279.4,156.1L265.7,155.9L265.4,147.3L267.5,147.3L272.9,141.4L273.7,138.7L279.4,132.8L279.8,129.5L279.1,124.3L280.2,120.7L315.9,120.4L315.5,129.2L315.5,147.8L318.0,147.8L318.0,156.5L289.9,156.4L279.4,156.1Z"/>
    <path class="wtc-county" id="wtc-county-columbia" data-county="Columbia" d="M163.6,51.5L188.9,51.4L213.8,51.3L214.9,87.5L200.8,87.8L201.2,95.1L190.7,95.3L190.7,93.9L175.9,94.3L170.5,82.6L168.3,75.6L164.4,75.7L163.6,51.5Z"/>
    <path class="wtc-county" id="wtc-county-conway" data-county="Conway" d="M223.2,267.8L220.3,267.5L214.9,262.5L208.7,261.5L208.7,258.3L241.2,257.8L245.5,258.5L250.6,261.5L248.4,258.3L253.1,259.2L257.4,262.0L261.0,262.1L262.8,268.1L260.3,269.7L261.4,276.4L264.6,278.8L265.0,287.6L265.0,296.3L227.8,297.1L227.5,267.9L223.2,267.8Z"/>
    <path class="wtc-county" id="wtc-county-craighead" data-county="Craighead" d="M410.4,339.6L410.0,321.8L453.7,321.4L464.1,321.7L485.4,320.9L485.4,350.7L476.4,350.6L475.3,347.5L428.8,347.9L426.6,339.2L410.4,339.6Z"/>
    <path class="wtc-county" id="wtc-county-crawford" data-county="Crawford" d="M62.6,326.9L64.8,314.8L68.4,293.7L73.4,295.6L78.1,291.7L77.8,288.0L81.7,286.1L91.8,286.8L98.7,290.7L96.2,294.3L98.0,295.8L104.8,295.4L109.5,296.9L107.0,298.6L108.8,301.0L108.1,305.2L109.9,308.3L104.5,308.4L104.8,317.1L113.9,317.1L113.9,321.4L116.0,324.2L121.1,324.0L121.1,327.0L116.0,327.1L99.8,327.4L99.8,326.0L62.6,326.9Z"/>
    <path class="wtc-county" id="wtc-county-crittenden" data-county="Crittenden" d="M463.8,295.0L463.4,268.5L463.8,265.1L473.9,265.5L473.2,241.0L473.2,233.8L480.0,236.6L483.6,236.6L482.9,237.7L489.4,241.5L489.4,245.4L483.3,250.1L484.3,254.4L493.4,253.2L496.6,261.9L499.9,264.1L504.2,262.3L507.8,264.5L502.4,269.5L506.7,273.2L504.5,275.7L499.1,276.3L497.7,280.4L503.5,281.2L503.5,285.1L506.7,289.2L501.3,292.2L500.6,288.5L496.2,289.0L497.3,293.0L500.2,294.4L485.4,294.7L463.8,295.0Z"/>
    <path class="wtc-county" id="wtc-county-cross" data-county="Cross" d="M409.7,286.2L409.7,265.5L441.8,265.5L463.8,265.1L463.4,268.5L463.8,295.0L453.0,295.0L453.0,295.7L420.9,295.0L409.7,295.3L409.7,286.2Z"/>
    <path class="wtc-county" id="wtc-county-dallas" data-county="Dallas" d="M224.2,165.8L223.5,148.4L217.7,148.7L219.2,143.9L223.5,140.3L221.7,139.9L224.6,135.6L223.5,131.0L254.5,130.2L279.8,129.5L279.4,132.8L273.7,138.7L272.9,141.4L267.5,147.3L265.4,147.3L265.7,155.9L279.4,156.1L275.8,157.7L272.6,161.7L263.6,164.6L245.2,165.1L224.2,165.8Z"/>
    <path class="wtc-county" id="wtc-county-desha" data-county="Desha" d="M371.4,151.5L367.1,150.6L367.1,147.7L358.8,147.7L357.7,128.3L368.5,128.1L368.2,106.2L378.6,106.2L381.2,101.7L389.1,101.5L390.5,106.0L400.6,109.6L399.9,112.4L390.9,116.8L391.6,119.2L397.8,120.6L400.3,117.6L406.1,115.7L410.4,117.3L407.5,121.6L402.8,120.4L399.2,122.6L399.6,127.7L408.2,127.9L411.1,126.3L414.7,129.3L408.9,131.5L406.4,136.3L412.9,143.0L405.0,145.9L406.1,148.4L411.8,150.4L413.6,146.7L417.6,148.1L415.1,152.0L423.7,152.5L426.6,157.8L425.5,159.8L421.6,159.6L418.3,162.1L402.1,162.1L398.8,158.9L394.2,157.3L394.2,153.5L400.3,146.3L398.5,143.9L396.7,145.9L392.7,145.6L390.9,147.9L378.3,145.8L381.5,150.1L374.3,148.3L371.4,151.5Z"/>
    <path class="wtc-county" id="wtc-county-drew" data-county="Drew" d="M315.9,120.4L315.5,102.8L312.6,102.8L314.4,89.6L367.8,88.7L368.2,106.2L368.5,128.1L357.7,128.3L346.9,129.2L315.5,129.2L315.9,120.4Z"/>
    <path class="wtc-county" id="wtc-county-faulkner" data-county="Faulkner" d="M257.4,262.0L258.5,256.2L253.1,250.1L258.5,245.9L264.6,245.7L267.9,241.2L266.8,236.2L269.0,237.5L267.9,240.6L271.1,243.8L290.3,243.3L290.3,252.0L301.1,251.9L301.1,257.3L302.2,287.1L287.7,287.2L265.0,287.6L264.6,278.8L261.4,276.4L260.3,269.7L262.8,268.1L261.0,262.1L257.4,262.0Z"/>
    <path class="wtc-county" id="wtc-county-franklin" data-county="Franklin" d="M104.8,295.4L104.1,272.3L109.5,272.1L109.5,273.8L120.3,273.6L120.7,282.7L131.2,282.1L131.5,293.8L137.7,287.3L141.3,288.3L142.7,327.8L121.1,328.5L121.1,327.0L121.1,324.0L116.0,324.2L113.9,321.4L113.9,317.1L104.8,317.1L104.5,308.4L109.9,308.3L108.1,305.2L108.8,301.0L107.0,298.6L109.5,296.9L104.8,295.4Z"/>
    <path class="wtc-county" id="wtc-county-fulton" data-county="Fulton" d="M298.2,401.2L297.5,377.3L344.4,376.5L357.0,376.2L357.0,385.0L368.2,384.8L368.5,401.2L346.2,401.3L301.1,401.2L298.2,401.2Z"/>
    <path class="wtc-county" id="wtc-county-garland" data-county="Garland" d="M173.0,224.8L172.3,219.0L171.9,190.0L218.1,189.2L218.1,194.8L221.4,195.1L221.4,200.9L233.6,200.7L233.6,206.5L232.2,209.5L225.0,209.5L225.3,214.0L214.9,214.1L215.9,227.7L205.1,227.7L183.8,227.8L173.0,227.7L173.0,224.8Z"/>
    <path class="wtc-county" id="wtc-county-grant" data-county="Grant" d="M245.9,191.7L245.2,165.1L263.6,164.6L272.6,161.7L275.8,157.7L279.4,156.1L289.9,156.4L289.9,173.3L291.7,173.2L292.4,199.6L288.5,199.7L272.6,199.9L272.6,195.5L254.2,195.9L250.6,191.6L245.9,191.7Z"/>
    <path class="wtc-county" id="wtc-county-greene" data-county="Greene" d="M432.8,366.1L439.2,366.1L434.9,360.5L431.7,359.1L428.8,347.9L475.3,347.5L476.4,350.6L482.2,360.1L490.5,365.1L492.3,369.6L495.2,371.3L482.2,371.3L482.2,377.1L467.0,377.2L442.5,378.0L433.1,377.9L432.8,366.1Z"/>
    <path class="wtc-county" id="wtc-county-hempstead" data-county="Hempstead" d="M116.4,125.0L115.7,117.2L119.3,116.3L127.2,111.3L129.7,110.9L129.7,107.6L132.3,106.4L135.1,99.6L136.9,101.5L140.2,98.0L164.4,97.4L164.4,106.2L165.4,132.5L166.5,132.5L166.9,145.8L159.7,144.4L155.3,146.2L150.6,146.0L147.8,148.3L137.3,150.8L130.1,151.0L129.4,124.8L116.4,125.0Z"/>
    <path class="wtc-county" id="wtc-county-hot-spring" data-county="Hot Spring" d="M171.9,190.0L171.6,184.2L177.0,184.2L177.0,178.3L192.9,178.0L192.9,175.0L203.7,174.8L209.5,173.8L209.8,166.2L224.2,165.8L245.2,165.1L245.9,191.7L244.4,191.8L244.4,197.6L239.0,197.7L239.0,200.7L233.6,200.7L221.4,200.9L221.4,195.1L218.1,194.8L218.1,189.2L171.9,190.0Z"/>
    <path class="wtc-county" id="wtc-county-howard" data-county="Howard" d="M118.9,185.3L86.8,185.8L86.4,177.2L87.9,177.2L87.9,169.4L101.6,169.3L104.1,162.8L103.4,153.5L106.6,146.9L105.2,143.9L107.0,138.7L115.3,130.6L116.4,125.0L129.4,124.8L130.1,151.0L130.4,168.5L119.6,168.9L120.0,176.5L118.5,176.5L118.9,185.3Z"/>
    <path class="wtc-county" id="wtc-county-independence" data-county="Independence" d="M328.5,337.8L326.3,332.1L326.7,328.1L329.6,325.9L329.6,321.5L334.3,322.1L333.9,304.3L355.2,303.9L376.5,303.5L376.8,314.9L381.2,314.6L377.9,320.5L382.6,327.6L390.5,332.3L388.7,334.4L392.7,336.0L393.8,340.0L377.9,340.1L367.1,340.3L367.1,344.8L342.2,345.3L338.2,345.4L328.5,337.8Z"/>
    <path class="wtc-county" id="wtc-county-izard" data-county="Izard" d="M297.5,377.3L297.1,368.6L291.7,368.7L293.5,364.5L294.2,361.7L299.3,362.4L301.8,357.6L307.6,354.6L303.2,351.7L304.7,347.7L301.8,344.8L305.4,343.8L308.7,345.5L312.6,343.0L318.0,344.3L323.8,339.3L328.5,337.8L338.2,345.4L342.2,345.3L342.6,351.2L345.1,351.2L345.5,367.7L346.2,372.1L344.4,376.5L297.5,377.3Z"/>
    <path class="wtc-county" id="wtc-county-jackson" data-county="Jackson" d="M355.2,303.9L355.2,295.0L379.0,294.7L388.4,295.4L388.4,286.6L409.7,286.2L409.7,295.3L410.0,321.8L410.4,339.6L393.8,340.0L392.7,336.0L388.7,334.4L390.5,332.3L382.6,327.6L377.9,320.5L381.2,314.6L376.8,314.9L376.5,303.5L355.2,303.9Z"/>
    <path class="wtc-county" id="wtc-county-jefferson" data-county="Jefferson" d="M292.4,199.6L291.7,173.2L289.9,173.3L289.9,156.4L318.0,156.5L318.0,159.5L339.0,159.6L340.8,156.6L340.8,167.6L344.0,167.3L349.1,164.0L355.2,162.7L352.7,160.4L355.2,159.0L358.4,160.8L363.1,157.5L368.9,158.2L368.2,163.5L362.0,164.4L360.6,171.7L354.1,173.1L342.2,173.6L342.9,198.6L310.1,199.3L292.4,199.6Z"/>
    <path class="wtc-county" id="wtc-county-johnson" data-county="Johnson" d="M142.7,327.8L141.3,288.3L145.6,291.3L148.5,289.4L153.2,289.2L159.7,291.7L162.9,290.5L169.0,293.6L171.2,287.3L170.5,283.6L179.1,284.9L182.8,283.5L183.1,297.8L190.3,297.7L190.7,310.8L195.7,310.7L196.1,323.9L175.2,324.0L160.4,324.4L160.8,327.3L142.7,327.8Z"/>
    <path class="wtc-county" id="wtc-county-lafayette" data-county="Lafayette" d="M140.2,98.0L137.7,92.8L142.4,88.6L144.9,88.2L141.6,85.1L145.6,83.2L142.7,81.3L144.2,78.8L139.5,77.6L142.0,74.3L137.7,67.8L133.7,64.1L132.6,66.2L126.8,63.2L126.5,58.7L131.9,51.6L160.4,51.5L163.6,51.5L164.4,75.7L168.3,75.6L170.5,82.6L175.9,94.3L164.0,94.6L164.4,97.4L140.2,98.0Z"/>
    <path class="wtc-county" id="wtc-county-lawrence" data-county="Lawrence" d="M387.7,377.1L387.7,375.6L380.4,375.7L378.6,374.3L377.9,340.1L393.8,340.0L410.4,339.6L426.6,339.2L428.8,347.9L431.7,359.1L434.9,360.5L439.2,366.1L432.8,366.1L409.3,366.4L407.1,365.5L399.6,367.8L397.4,371.8L389.5,373.8L387.7,377.1Z"/>
    <path class="wtc-county" id="wtc-county-lee" data-county="Lee" d="M403.9,237.3L403.5,224.0L408.9,223.9L408.6,215.0L455.5,214.6L455.1,217.5L458.7,219.3L458.4,215.1L462.3,213.5L467.4,217.8L466.7,220.5L459.5,220.7L457.3,224.2L459.8,225.4L459.1,228.4L462.7,230.7L462.0,225.8L463.8,222.9L468.8,224.5L466.7,230.7L468.5,232.9L465.6,236.7L466.3,239.2L470.3,239.0L473.2,233.8L473.2,241.0L418.7,241.2L403.9,241.8L403.9,237.3Z"/>
    <path class="wtc-county" id="wtc-county-lincoln" data-county="Lincoln" d="M318.0,156.5L318.0,147.8L315.5,147.8L315.5,129.2L346.9,129.2L357.7,128.3L358.8,147.7L367.1,147.7L367.1,150.6L371.4,151.5L368.9,158.2L363.1,157.5L358.4,160.8L355.2,159.0L352.7,160.4L355.2,162.7L349.1,164.0L344.0,167.3L340.8,167.6L340.8,156.6L339.0,159.6L318.0,159.5L318.0,156.5Z"/>
    <path class="wtc-county" id="wtc-county-little-river" data-county="Little River" d="M64.4,144.1L63.3,113.7L66.2,114.4L66.2,109.7L70.2,107.6L73.4,108.1L72.7,105.0L76.3,104.2L78.1,106.6L81.0,105.0L82.1,107.5L89.7,105.2L93.7,109.1L98.0,107.7L99.8,105.1L101.9,106.9L107.7,105.0L107.7,105.1L112.4,106.3L113.5,103.2L115.7,108.0L117.1,104.8L119.3,108.2L122.5,107.1L126.5,111.0L129.7,110.9L127.2,111.3L119.3,116.3L115.7,117.2L116.4,125.0L108.1,125.3L108.1,128.2L93.3,128.9L93.7,131.0L88.2,130.2L78.9,136.1L78.1,138.3L73.1,139.5L74.2,143.3L70.9,142.6L64.4,144.1Z"/>
    <path class="wtc-county" id="wtc-county-logan" data-county="Logan" d="M98.0,260.6L98.0,256.2L104.8,256.0L104.8,253.2L142.0,252.6L141.6,264.1L146.0,265.5L159.7,265.3L166.9,272.2L184.6,272.0L184.9,282.5L182.8,283.5L179.1,284.9L170.5,283.6L171.2,287.3L169.0,293.6L162.9,290.5L159.7,291.7L153.2,289.2L148.5,289.4L145.6,291.3L141.3,288.3L137.7,287.3L131.5,293.8L131.2,282.1L120.7,282.7L120.3,273.6L109.5,273.8L109.5,272.1L109.2,264.7L98.3,265.0L98.0,260.6Z"/>
    <path class="wtc-county" id="wtc-county-lonoke" data-county="Lonoke" d="M301.1,257.3L301.1,251.9L306.1,251.8L305.4,223.5L304.0,221.6L301.8,212.7L310.5,212.5L310.1,199.3L342.9,198.6L345.8,198.5L346.5,202.2L350.1,205.7L346.9,208.4L349.8,213.0L343.3,217.7L344.0,242.5L332.8,242.7L333.2,253.7L325.6,253.1L318.0,255.1L311.9,258.3L301.1,257.3Z"/>
    <path class="wtc-county" id="wtc-county-madison" data-county="Madison" d="M123.6,374.7L117.8,360.2L117.5,340.1L116.0,327.1L121.1,327.0L121.1,328.5L142.7,327.8L160.8,327.3L160.0,339.2L161.8,339.2L164.0,346.4L167.6,347.9L168.0,359.2L164.4,359.3L164.7,363.7L157.5,363.8L157.5,366.7L153.9,366.8L153.9,369.8L150.3,371.4L150.6,377.1L146.0,378.8L146.7,381.6L130.8,381.9L125.4,382.0L125.4,374.7L123.6,374.7Z"/>
    <path class="wtc-county" id="wtc-county-marion" data-county="Marion" d="M227.5,401.2L227.5,397.8L224.2,400.5L223.9,362.6L229.3,362.6L229.3,358.2L271.9,357.4L272.2,364.6L265.0,370.6L267.2,372.7L265.7,376.9L258.5,377.6L260.7,381.1L255.6,381.9L259.6,386.4L255.3,385.5L253.8,387.2L259.6,389.9L260.0,401.2L235.8,401.2L227.5,401.2Z"/>
    <path class="wtc-county" id="wtc-county-miller" data-county="Miller" d="M107.7,105.1L107.7,105.0L108.1,104.0L108.1,79.5L108.1,51.6L130.8,51.6L131.9,51.6L126.5,58.7L126.8,63.2L132.6,66.2L133.7,64.1L137.7,67.8L142.0,74.3L139.5,77.6L144.2,78.8L142.7,81.3L145.6,83.2L141.6,85.1L144.9,88.2L142.4,88.6L137.7,92.8L140.2,98.0L136.9,101.5L135.1,99.6L132.3,106.4L129.7,107.6L129.7,110.9L126.5,111.0L122.5,107.1L119.3,108.2L117.1,104.8L115.7,108.0L113.5,103.2L112.4,106.3L107.7,105.1Z"/>
    <path class="wtc-county" id="wtc-county-mississippi" data-county="Mississippi" d="M485.4,350.7L485.4,320.9L485.4,294.7L500.2,294.4L505.6,298.8L508.5,291.2L509.2,291.6L512.5,297.6L509.2,301.3L511.0,306.3L514.3,307.0L522.2,302.2L523.3,304.7L518.6,309.0L519.7,311.1L529.1,314.7L528.0,318.0L523.7,316.0L520.4,317.5L518.3,323.4L523.7,326.9L526.9,325.1L533.0,327.0L536.3,331.5L540.3,331.6L544.2,334.4L537.0,337.5L540.3,341.7L548.9,339.8L550.0,341.5L548.9,343.6L542.4,347.9L541.0,351.2L518.3,351.0L485.4,350.7Z"/>
    <path class="wtc-county" id="wtc-county-monroe" data-county="Monroe" d="M376.8,241.9L379.4,237.9L376.5,233.0L376.1,217.0L368.9,217.2L368.9,211.3L375.8,209.6L375.8,206.7L384.4,206.5L383.7,203.8L387.7,203.1L387.3,200.5L392.0,199.0L393.1,195.9L396.3,195.4L400.6,188.4L404.3,184.7L408.2,183.9L413.6,183.9L413.6,197.3L408.2,197.4L408.6,215.0L408.9,223.9L403.5,224.0L403.9,237.3L402.1,237.3L402.1,241.8L398.5,241.8L398.8,250.8L389.8,251.0L389.8,249.1L384.4,249.1L384.1,241.8L376.8,241.9Z"/>
    <path class="wtc-county" id="wtc-county-montgomery" data-county="Montgomery" d="M119.3,217.0L118.9,185.3L164.7,184.3L171.6,184.2L171.9,190.0L172.3,219.0L173.0,224.8L141.3,225.0L134.1,223.7L130.8,221.6L125.4,221.7L124.7,217.0L119.3,217.0Z"/>
    <path class="wtc-county" id="wtc-county-nevada" data-county="Nevada" d="M164.4,97.4L164.0,94.6L175.9,94.3L190.7,93.9L190.7,95.3L201.2,95.1L202.2,127.7L198.6,131.5L194.7,130.0L193.2,131.9L184.2,134.4L180.2,140.8L175.2,145.8L166.9,145.8L166.5,132.5L165.4,132.5L164.4,106.2L164.4,97.4Z"/>
    <path class="wtc-county" id="wtc-county-newton" data-county="Newton" d="M164.7,363.7L164.4,359.3L168.0,359.2L167.6,347.9L164.0,346.4L161.8,339.2L160.0,339.2L160.8,327.3L160.4,324.4L175.2,324.0L196.1,323.9L217.7,323.4L218.8,350.1L218.5,362.6L182.4,363.3L164.7,363.7Z"/>
    <path class="wtc-county" id="wtc-county-ouachita" data-county="Ouachita" d="M201.2,95.1L200.8,87.8L214.9,87.5L232.5,87.0L236.9,88.6L247.0,85.3L253.5,87.1L256.3,86.5L254.5,89.5L248.8,89.4L247.7,93.2L242.3,92.9L241.2,98.0L237.6,98.3L235.4,100.9L241.9,109.0L239.8,111.5L240.5,115.1L247.7,116.1L249.5,119.2L254.5,123.6L254.5,130.2L223.5,131.0L221.0,132.2L218.8,130.0L209.5,126.9L206.6,128.7L202.2,127.7L201.2,95.1Z"/>
    <path class="wtc-county" id="wtc-county-perry" data-county="Perry" d="M208.7,258.3L202.2,252.4L191.1,243.8L185.6,240.9L183.8,236.6L183.8,227.8L205.1,227.7L205.5,236.3L230.0,236.1L238.7,233.3L239.0,235.9L237.2,235.9L237.6,241.7L248.1,241.6L248.1,244.5L258.5,244.2L258.5,245.9L253.1,250.1L258.5,256.2L257.4,262.0L253.1,259.2L248.4,258.3L250.6,261.5L245.5,258.5L241.2,257.8L208.7,258.3Z"/>
    <path class="wtc-county" id="wtc-county-phillips" data-county="Phillips" d="M408.2,183.9L405.7,175.2L407.9,171.9L404.3,167.9L405.7,164.6L402.1,162.1L418.3,162.1L418.3,162.2L422.7,166.7L428.4,163.9L433.1,166.3L432.4,168.5L425.2,168.4L420.1,172.1L423.4,174.6L429.1,170.9L430.6,177.0L437.4,178.3L440.0,180.9L437.1,184.8L438.9,187.1L445.7,187.2L444.7,182.5L448.3,182.4L448.3,187.9L457.3,192.8L455.1,200.0L456.9,202.8L459.5,206.7L455.1,212.0L455.5,214.6L408.6,215.0L408.2,197.4L413.6,197.3L413.6,183.9L408.2,183.9Z"/>
    <path class="wtc-county" id="wtc-county-pike" data-county="Pike" d="M118.9,185.3L118.5,176.5L120.0,176.5L119.6,168.9L130.4,168.5L130.1,151.0L137.3,150.8L147.8,148.3L150.6,146.0L155.3,146.2L159.7,144.4L166.9,145.8L175.2,145.8L174.8,148.7L169.0,155.1L166.9,163.2L168.3,171.1L162.2,171.6L162.2,175.6L164.4,175.5L164.7,184.3L118.9,185.3Z"/>
    <path class="wtc-county" id="wtc-county-poinsett" data-county="Poinsett" d="M410.0,321.8L409.7,295.3L420.9,295.0L453.0,295.7L453.0,295.0L463.8,295.0L485.4,294.7L485.4,320.9L464.1,321.7L453.7,321.4L410.0,321.8Z"/>
    <path class="wtc-county" id="wtc-county-polk" data-county="Polk" d="M65.9,201.1L65.2,169.2L87.9,169.4L87.9,177.2L86.4,177.2L86.8,185.8L118.9,185.3L119.3,217.0L119.3,218.5L110.6,219.7L80.3,220.2L80.3,223.1L66.6,223.4L65.9,201.1Z"/>
    <path class="wtc-county" id="wtc-county-pope" data-county="Pope" d="M196.1,323.9L195.7,310.7L190.7,310.8L190.3,297.7L183.1,297.8L182.8,283.5L184.9,282.5L188.2,278.5L192.5,277.9L197.2,274.2L199.7,268.7L204.0,268.9L204.4,263.4L208.0,262.5L210.5,267.0L220.3,268.3L223.2,267.8L227.5,267.9L227.8,297.1L227.8,305.8L231.5,305.7L231.8,323.2L217.7,323.4L196.1,323.9Z"/>
    <path class="wtc-county" id="wtc-county-prairie" data-county="Prairie" d="M333.2,253.7L332.8,242.7L344.0,242.5L343.3,217.7L349.8,213.0L346.9,208.4L350.1,205.7L346.5,202.2L345.8,198.5L353.8,198.4L354.1,207.1L375.8,206.7L375.8,209.6L368.9,211.3L368.9,217.2L376.1,217.0L376.5,233.0L379.4,237.9L376.8,241.9L377.2,255.8L367.5,255.8L367.1,259.6L355.2,259.8L354.8,253.2L349.4,253.3L349.1,254.9L343.3,257.0L336.8,255.7L333.2,253.7Z"/>
    <path class="wtc-county" id="wtc-county-pulaski" data-county="Pulaski" d="M258.5,245.9L258.5,244.2L248.1,244.5L248.1,241.6L237.6,241.7L237.2,235.9L239.0,235.9L247.7,235.7L247.7,226.9L257.8,226.7L257.8,219.4L262.8,217.8L268.6,217.7L268.6,213.1L278.0,213.0L278.4,208.6L288.8,208.4L288.5,199.7L292.4,199.6L310.1,199.3L310.5,212.5L301.8,212.7L304.0,221.6L305.4,223.5L306.1,251.8L301.1,251.9L290.3,252.0L290.3,243.3L271.1,243.8L267.9,240.6L269.0,237.5L266.8,236.2L267.9,241.2L264.6,245.7L258.5,245.9Z"/>
    <path class="wtc-county" id="wtc-county-randolph" data-county="Randolph" d="M401.0,401.2L372.9,401.1L377.9,397.9L378.6,393.4L382.6,393.4L382.6,390.3L386.2,388.7L387.7,384.4L387.7,377.1L389.5,373.8L397.4,371.8L399.6,367.8L407.1,365.5L409.3,366.4L432.8,366.1L433.1,377.9L433.1,380.1L438.9,379.3L438.9,392.6L436.0,395.1L437.1,399.9L435.3,401.2L401.0,401.2Z"/>
    <path class="wtc-county" id="wtc-county-st-francis" data-county="St. Francis" d="M398.8,250.8L398.5,241.8L402.1,241.8L402.1,237.3L403.9,237.3L403.9,241.8L418.7,241.2L473.2,241.0L473.9,265.5L463.8,265.1L441.8,265.5L409.7,265.5L409.3,250.7L398.8,250.8Z"/>
    <path class="wtc-county" id="wtc-county-saline" data-county="Saline" d="M239.0,235.9L238.7,233.3L230.0,236.1L205.5,236.3L205.1,227.7L215.9,227.7L214.9,214.1L225.3,214.0L225.0,209.5L232.2,209.5L233.6,206.5L233.6,200.7L239.0,200.7L239.0,197.7L244.4,197.6L244.4,191.8L245.9,191.7L250.6,191.6L254.2,195.9L272.6,195.5L272.6,199.9L288.5,199.7L288.8,208.4L278.4,208.6L278.0,213.0L268.6,213.1L268.6,217.7L262.8,217.8L257.8,219.4L257.8,226.7L247.7,226.9L247.7,235.7L239.0,235.9Z"/>
    <path class="wtc-county" id="wtc-county-scott" data-county="Scott" d="M67.3,243.9L66.6,223.4L80.3,223.1L80.3,220.2L110.6,219.7L119.3,218.5L119.3,217.0L124.7,217.0L125.4,221.7L130.8,221.6L134.1,223.7L141.3,225.0L142.0,252.6L104.8,253.2L104.8,256.0L98.0,256.2L98.0,260.6L87.2,257.2L89.3,256.3L89.0,247.5L82.5,245.8L71.3,245.6L67.3,243.9Z"/>
    <path class="wtc-county" id="wtc-county-searcy" data-county="Searcy" d="M218.5,362.6L218.8,350.1L217.7,323.4L231.8,323.2L249.9,322.8L249.9,330.1L271.5,329.8L271.5,348.7L271.9,357.4L229.3,358.2L229.3,362.6L223.9,362.6L218.5,362.6Z"/>
    <path class="wtc-county" id="wtc-county-sebastian" data-county="Sebastian" d="M68.8,289.4L67.3,243.9L71.3,245.6L82.5,245.8L89.0,247.5L89.3,256.3L87.2,257.2L98.0,260.6L98.3,265.0L109.2,264.7L109.5,272.1L104.1,272.3L104.8,295.4L98.0,295.8L96.2,294.3L98.7,290.7L91.8,286.8L81.7,286.1L77.8,288.0L78.1,291.7L73.4,295.6L68.4,293.7L68.8,289.4Z"/>
    <path class="wtc-county" id="wtc-county-sevier" data-county="Sevier" d="M65.2,169.2L64.4,144.1L70.9,142.6L74.2,143.3L73.1,139.5L78.1,138.3L78.9,136.1L88.2,130.2L93.7,131.0L93.3,128.9L108.1,128.2L108.1,125.3L116.4,125.0L115.3,130.6L107.0,138.7L105.2,143.9L106.6,146.9L103.4,153.5L104.1,162.8L101.6,169.3L87.9,169.4L65.2,169.2Z"/>
    <path class="wtc-county" id="wtc-county-sharp" data-county="Sharp" d="M344.4,376.5L346.2,372.1L345.5,367.7L345.1,351.2L342.6,351.2L342.2,345.3L367.1,344.8L367.1,340.3L377.9,340.1L378.6,374.3L380.4,375.7L387.7,375.6L387.7,377.1L387.7,384.4L386.2,388.7L382.6,390.3L382.6,393.4L378.6,393.4L377.9,397.9L372.9,401.1L368.5,401.2L368.2,384.8L357.0,385.0L357.0,376.2L344.4,376.5Z"/>
    <path class="wtc-county" id="wtc-county-stone" data-county="Stone" d="M271.5,329.8L271.1,322.6L289.2,322.1L329.6,321.5L329.6,325.9L326.7,328.1L326.3,332.1L328.5,337.8L323.8,339.3L318.0,344.3L312.6,343.0L308.7,345.5L305.4,343.8L301.8,344.8L304.7,347.7L303.2,351.7L307.6,354.6L301.8,357.6L299.3,362.4L294.2,361.7L293.5,364.5L293.5,357.0L282.7,357.2L282.3,348.5L271.5,348.7L271.5,329.8Z"/>
    <path class="wtc-county" id="wtc-county-union" data-county="Union" d="M214.9,87.5L213.8,51.3L240.5,51.0L306.5,50.4L302.5,52.8L300.4,56.6L300.4,61.6L302.2,65.4L299.3,66.0L291.0,70.6L290.6,75.0L280.5,76.0L278.0,79.6L270.1,76.7L265.7,79.1L265.0,82.6L260.7,81.4L259.6,85.4L256.3,86.5L253.5,87.1L247.0,85.3L236.9,88.6L232.5,87.0L214.9,87.5Z"/>
    <path class="wtc-county" id="wtc-county-van-buren" data-county="Van Buren" d="M231.8,323.2L231.5,305.7L227.8,305.8L227.8,297.1L265.0,296.3L265.0,287.6L287.7,287.2L288.1,303.2L288.8,304.7L289.2,322.1L271.1,322.6L271.5,329.8L249.9,330.1L249.9,322.8L231.8,323.2Z"/>
    <path class="wtc-county" id="wtc-county-washington" data-county="Washington" d="M56.9,361.3L62.6,326.9L99.8,326.0L99.8,327.4L116.0,327.1L117.5,340.1L117.8,360.2L123.6,374.7L114.9,374.0L114.9,371.6L110.6,372.1L78.9,372.7L78.5,365.4L73.1,365.4L72.7,361.1L56.9,361.3Z"/>
    <path class="wtc-county" id="wtc-county-white" data-county="White" d="M302.2,287.1L301.1,257.3L311.9,258.3L318.0,255.1L325.6,253.1L333.2,253.7L336.8,255.7L343.3,257.0L349.1,254.9L349.4,253.3L354.8,253.2L355.2,259.8L367.1,259.6L369.6,262.4L367.5,266.2L371.4,268.6L372.9,272.0L375.8,272.2L372.5,277.3L369.6,287.7L377.9,291.6L379.0,294.7L355.2,295.0L355.2,303.9L333.9,304.3L333.9,296.4L328.5,294.4L328.1,286.6L302.2,287.1Z"/>
    <path class="wtc-county" id="wtc-county-woodruff" data-county="Woodruff" d="M367.1,259.6L367.5,255.8L377.2,255.8L376.8,241.9L384.1,241.8L384.4,249.1L389.8,249.1L389.8,251.0L398.8,250.8L409.3,250.7L409.7,265.5L409.7,286.2L388.4,286.6L388.4,295.4L379.0,294.7L377.9,291.6L369.6,287.7L372.5,277.3L375.8,272.2L372.9,272.0L371.4,268.6L367.5,266.2L369.6,262.4L367.1,259.6Z"/>
    <path class="wtc-county" id="wtc-county-yell" data-county="Yell" d="M142.0,252.6L141.3,225.0L173.0,224.8L173.0,227.7L183.8,227.8L183.8,236.6L185.6,240.9L191.1,243.8L202.2,252.4L208.7,258.3L208.7,261.5L214.9,262.5L220.3,267.5L223.2,267.8L220.3,268.3L210.5,267.0L208.0,262.5L204.4,263.4L204.0,268.9L199.7,268.7L197.2,274.2L192.5,277.9L188.2,278.5L184.9,282.5L184.6,272.0L166.9,272.2L159.7,265.3L146.0,265.5L141.6,264.1L142.0,252.6Z"/>
  </g>
</svg>