<?xml version="1.0" encoding="UTF-8"?>
<svg xmlns="http://www.w3.org/2000/svg" viewBox="0 0 491 600" id="wtc-state-map-RI" role="img" aria-label="ri county map">
  <title>ri Counties</title>
  <g class="wtc-counties">
    <path class="wtc-county" id="wtc-county-bristol" data-county="Bristol" d="M302.3,201.5L341.6,232.2L333.4,249.5L345.8,270.3L374.7,250.0L380.9,227.7L360.3,204.0L327.2,190.1L302.3,201.5Z"/>
    <path class="wtc-county" id="wtc-county-kent" data-county="Kent" d="M56.2,219.3L56.2,268.3L56.2,293.6L232.0,290.1L240.3,271.8L275.5,260.4L250.6,241.1L296.1,249.5L300.3,223.8L287.9,201.0L256.8,200.5L244.4,215.3L56.2,219.3Z"/>
    <path class="wtc-county" id="wtc-county-newport" data-county="Newport" d="M397.5,248.0L362.3,270.8L345.8,304.5L312.7,351.5L314.8,378.7L335.4,375.2L339.6,357.9L374.7,358.9L370.6,280.2L391.3,291.1L387.1,322.8L399.6,373.3L440.9,350.5L434.7,256.9L397.5,248.0ZM300.3,256.4L323.0,282.2L333.4,278.7L310.6,253.0L300.3,256.4ZM279.6,371.8L302.3,358.9L302.3,316.8L294.1,306.9L283.7,335.1L292.0,346.5L279.6,371.8Z"/>
    <path class="wtc-county" id="wtc-county-providence" data-county="Providence" d="M50.0,56.4L50.0,109.4L56.2,219.3L244.4,215.3L256.8,200.5L287.9,201.0L302.3,201.5L327.2,190.1L310.6,159.9L314.8,119.8L289.9,122.8L289.9,69.8L289.9,50.0L223.7,51.0L50.0,56.4Z"/>
    <path class="wtc-county" id="wtc-county-washington" data-county="Washington" d="M157.6,545.0L192.7,550.0L190.7,512.4L180.3,505.4L157.6,545.0ZM14.8,453.0L16.9,460.9L95.5,446.0L151.4,429.2L207.2,420.3L232.0,423.3L248.6,387.1L269.3,364.9L269.3,329.2L252.7,303.0L277.5,297.5L275.5,260.4L240.3,271.8L232.0,290.1L56.2,293.6L50.0,397.0L25.2,401.0L31.4,438.6L14.8,453.0Z"/>
  </g>
</svg>