<?xml version="1.0" encoding="UTF-8"?>
<svg xmlns="http://www.w3.org/2000/svg" viewBox="0 0 600 386" id="wtc-state-map-WY" role="img" aria-label="wy county map">
  <title>wy Counties</title>
  <g class="wtc-counties">
    <path class="wtc-county" id="wtc-county-albany" data-county="Albany" d="M405.8,152.6L405.5,127.9L405.8,126.9L405.8,89.3L406.0,78.6L387.9,78.6L388.1,50.3L397.3,50.2L430.6,50.1L462.7,50.2L462.4,58.6L462.4,97.2L462.9,128.0L462.1,152.5L458.6,152.5L456.5,148.6L456.8,144.5L455.5,142.4L444.7,142.3L438.6,143.4L438.6,148.6L441.4,148.6L442.7,152.4L405.8,152.6Z"/>
    <path class="wtc-county" id="wtc-county-big-horn" data-county="Big Horn" d="M223.9,335.8L223.9,326.6L226.0,326.6L226.0,301.6L227.3,301.6L227.3,276.5L229.0,276.5L288.2,276.4L329.2,276.3L329.2,287.6L326.1,289.3L328.2,290.7L325.4,293.0L325.1,296.3L322.3,295.7L317.9,297.6L318.7,300.2L313.3,304.4L312.3,306.8L305.9,308.2L301.8,312.0L295.4,314.2L291.5,313.1L291.0,314.5L286.4,315.5L285.9,319.1L280.3,321.3L281.3,322.4L278.2,326.4L279.0,329.1L276.7,331.5L276.4,335.0L274.6,335.9L250.6,335.7L223.9,335.8Z"/>
    <path class="wtc-county" id="wtc-county-campbell" data-county="Campbell" d="M409.1,335.4L409.9,325.6L409.9,314.9L410.4,304.7L409.9,301.6L409.9,276.5L410.4,251.7L409.6,251.7L409.6,228.4L433.5,228.5L476.7,228.6L476.5,229.0L476.5,262.1L476.7,277.0L476.5,277.3L476.2,302.1L476.2,320.6L477.0,320.5L477.0,335.8L421.9,335.8L409.1,335.4Z"/>
    <path class="wtc-county" id="wtc-county-carbon" data-county="Carbon" d="M302.3,140.4L302.3,128.0L303.6,128.0L303.3,97.3L273.4,97.0L273.4,78.8L274.1,78.8L274.1,50.5L316.9,50.6L349.7,50.6L388.1,50.3L387.9,78.6L406.0,78.6L405.8,89.3L405.8,126.9L405.5,127.9L405.8,152.6L405.5,152.6L366.3,152.4L302.3,152.7L302.3,140.4Z"/>
    <path class="wtc-county" id="wtc-county-converse" data-county="Converse" d="M405.5,228.3L405.8,226.8L405.8,177.3L405.5,177.2L405.5,152.6L405.8,152.6L442.7,152.4L441.4,148.6L438.6,148.6L438.6,143.4L444.7,142.3L455.5,142.4L456.8,144.5L456.5,148.6L458.6,152.5L462.1,152.5L461.9,164.9L490.1,165.2L490.1,177.6L489.5,177.9L489.5,228.7L476.7,228.6L433.5,228.5L409.6,228.4L405.5,228.3Z"/>
    <path class="wtc-county" id="wtc-county-crook" data-county="Crook" d="M477.0,335.8L477.0,320.5L476.2,320.6L476.2,302.1L476.5,277.3L476.7,277.0L526.9,277.4L549.7,277.3L549.7,305.2L549.7,326.9L549.5,335.6L520.0,335.7L479.6,335.8L477.0,335.8Z"/>
    <path class="wtc-county" id="wtc-county-fremont" data-county="Fremont" d="M121.7,265.0L122.0,251.2L122.0,226.3L143.0,226.1L143.0,219.2L147.3,219.2L147.1,216.7L148.9,215.2L147.3,212.0L149.1,209.4L150.4,205.0L154.8,201.3L157.6,197.3L157.6,193.9L161.2,193.8L168.6,188.7L170.4,189.2L173.7,183.3L181.9,178.4L180.1,176.5L182.9,176.5L187.6,174.3L187.3,171.3L191.6,171.2L191.9,152.6L193.7,152.7L193.7,140.5L236.7,140.5L302.3,140.4L302.3,152.7L301.0,152.7L300.8,177.5L303.8,177.5L303.8,202.2L302.8,202.2L302.8,226.8L301.5,228.8L297.2,228.8L297.2,226.8L257.2,226.7L257.2,225.9L244.2,225.9L244.2,226.9L235.7,226.9L235.7,229.0L227.3,229.0L227.3,231.1L218.5,231.0L218.8,234.2L210.1,234.2L210.1,236.2L201.6,236.2L201.6,237.3L184.7,237.3L184.7,243.0L180.1,247.6L174.5,251.1L170.6,253.2L168.3,256.2L163.0,260.8L160.4,260.1L156.8,261.2L152.2,259.2L148.9,255.2L149.4,253.7L144.5,252.5L140.7,250.5L136.1,251.9L135.8,253.7L138.4,254.3L138.1,256.4L135.0,259.2L135.8,261.2L125.8,260.9L123.3,264.6L121.7,265.0Z"/>
    <path class="wtc-county" id="wtc-county-goshen" data-county="Goshen" d="M507.0,165.2L507.0,97.0L507.2,90.6L550.0,90.6L550.0,100.1L550.0,121.9L550.0,165.4L507.0,165.2Z"/>
    <path class="wtc-county" id="wtc-county-hot-springs" data-county="Hot Springs" d="M174.5,251.1L180.1,247.6L184.7,243.0L184.7,237.3L201.6,237.3L201.6,236.2L210.1,236.2L210.1,234.2L218.8,234.2L218.5,231.0L227.3,231.1L227.3,229.0L235.7,229.0L235.7,226.9L244.2,226.9L244.2,225.9L257.2,225.9L257.2,226.7L297.2,226.8L297.2,228.8L297.2,239.2L288.5,239.2L288.5,245.4L271.3,245.4L271.3,251.5L255.7,251.5L254.9,253.6L246.2,253.5L246.2,257.5L237.5,257.5L237.8,263.9L233.4,263.8L233.4,270.2L229.0,270.1L211.6,270.2L211.9,263.8L202.9,263.8L203.2,257.6L190.4,257.6L190.1,251.5L174.5,251.1Z"/>
    <path class="wtc-county" id="wtc-county-johnson" data-county="Johnson" d="M313.3,304.4L318.7,300.2L317.9,297.6L322.3,295.7L325.1,296.3L325.4,293.0L328.2,290.7L326.1,289.3L329.2,287.6L329.2,276.3L330.5,276.3L330.5,251.3L331.5,251.3L331.8,228.8L331.8,228.2L379.1,228.2L405.5,228.3L409.6,228.4L409.6,251.7L410.4,251.7L409.9,276.5L409.9,301.6L410.4,304.7L380.4,304.5L371.7,304.2L313.3,304.4Z"/>
    <path class="wtc-county" id="wtc-county-laramie" data-county="Laramie" d="M462.4,97.2L462.4,58.6L462.7,50.2L486.5,50.2L518.2,50.5L550.0,50.4L550.0,78.4L550.0,90.6L507.2,90.6L507.0,97.0L462.4,97.2Z"/>
    <path class="wtc-county" id="wtc-county-lincoln" data-county="Lincoln" d="M50.8,158.4L50.8,121.9L51.0,91.7L84.1,91.7L122.2,91.6L122.2,122.2L121.7,123.9L121.7,141.0L110.7,141.5L86.9,141.5L86.9,153.7L83.3,153.7L83.3,172.4L81.0,172.4L81.0,177.3L83.6,177.3L83.6,202.1L84.3,202.1L84.3,209.9L67.4,209.9L67.4,215.5L51.0,215.6L51.0,194.4L51.0,173.3L50.8,158.4Z"/>
    <path class="wtc-county" id="wtc-county-natrona" data-county="Natrona" d="M301.5,228.8L302.8,226.8L302.8,202.2L303.8,202.2L303.8,177.5L300.8,177.5L301.0,152.7L302.3,152.7L366.3,152.4L405.5,152.6L405.5,177.2L405.8,177.3L405.8,226.8L405.5,228.3L379.1,228.2L331.8,228.2L331.8,228.8L301.5,228.8Z"/>
    <path class="wtc-county" id="wtc-county-niobrara" data-county="Niobrara" d="M489.5,228.7L489.5,177.9L490.1,177.6L490.1,165.2L507.0,165.2L550.0,165.4L550.0,193.2L550.0,214.3L549.7,227.2L549.7,229.0L489.5,228.7Z"/>
    <path class="wtc-county" id="wtc-county-park" data-county="Park" d="M51.0,335.9L50.3,335.9L50.0,326.3L50.3,312.0L77.9,312.0L77.9,306.0L98.4,306.1L98.4,304.6L104.6,303.5L105.8,301.5L104.3,295.2L109.2,291.3L111.2,287.3L111.2,287.3L115.1,284.9L117.9,277.3L116.6,274.6L121.7,272.3L121.7,265.0L123.3,264.6L125.8,260.9L135.8,261.2L135.0,259.2L138.1,256.4L138.4,254.3L135.8,253.7L136.1,251.9L140.7,250.5L144.5,252.5L149.4,253.7L148.9,255.2L152.2,259.2L156.8,261.2L160.4,260.1L163.0,260.8L168.3,256.2L170.6,253.2L174.5,251.1L190.1,251.5L190.4,257.6L203.2,257.6L202.9,263.8L211.9,263.8L211.6,270.2L229.0,270.1L229.0,276.5L227.3,276.5L227.3,301.6L226.0,301.6L226.0,326.6L223.9,326.6L223.9,335.8L192.4,335.8L189.6,336.2L139.9,335.9L117.6,336.1L111.2,335.6L99.7,335.9L96.9,335.4L75.1,335.3L69.5,336.0L51.0,335.9Z"/>
    <path class="wtc-county" id="wtc-county-platte" data-county="Platte" d="M490.1,165.2L461.9,164.9L462.1,152.5L462.9,128.0L462.4,97.2L507.0,97.0L507.0,165.2L490.1,165.2Z"/>
    <path class="wtc-county" id="wtc-county-sheridan" data-county="Sheridan" d="M274.6,335.9L276.4,335.0L276.7,331.5L279.0,329.1L278.2,326.4L281.3,322.4L280.3,321.3L285.9,319.1L286.4,315.5L291.0,314.5L291.5,313.1L295.4,314.2L301.8,312.0L305.9,308.2L312.3,306.8L313.3,304.4L371.7,304.2L380.4,304.5L410.4,304.7L409.9,314.9L409.9,325.6L409.1,335.4L392.2,335.4L333.6,335.6L330.0,335.8L274.6,335.9Z"/>
    <path class="wtc-county" id="wtc-county-sublette" data-county="Sublette" d="M84.3,209.9L84.3,202.1L83.6,202.1L83.6,177.3L81.0,177.3L81.0,172.4L83.3,172.4L83.3,153.7L86.9,153.7L86.9,141.5L110.7,141.5L121.7,141.0L158.1,140.5L193.7,140.5L193.7,152.7L191.9,152.6L191.6,171.2L187.3,171.3L187.6,174.3L182.9,176.5L180.1,176.5L181.9,178.4L173.7,183.3L170.4,189.2L168.6,188.7L161.2,193.8L157.6,193.9L157.6,197.3L154.8,201.3L150.4,205.0L149.1,209.4L147.3,212.0L148.9,215.2L147.1,216.7L147.3,219.2L143.0,219.2L143.0,226.1L122.0,226.3L121.5,220.1L101.0,220.1L101.0,213.9L84.3,213.9L84.3,209.9Z"/>
    <path class="wtc-county" id="wtc-county-sweetwater" data-county="Sweetwater" d="M121.7,141.0L121.7,123.9L122.2,122.2L122.2,91.6L122.0,50.2L125.6,50.2L158.6,50.2L193.4,50.4L255.4,50.4L274.1,50.5L274.1,78.8L273.4,78.8L273.4,97.0L303.3,97.3L303.6,128.0L302.3,128.0L302.3,140.4L236.7,140.5L193.7,140.5L158.1,140.5L121.7,141.0Z"/>
    <path class="wtc-county" id="wtc-county-teton" data-county="Teton" d="M50.3,312.0L50.8,298.3L50.5,289.7L50.8,263.3L50.8,241.7L51.0,228.8L51.0,215.6L67.4,215.5L67.4,209.9L84.3,209.9L84.3,213.9L101.0,213.9L101.0,220.1L121.5,220.1L122.0,226.3L122.0,251.2L121.7,265.0L121.7,272.3L116.6,274.6L117.9,277.3L115.1,284.9L111.2,287.3L111.2,287.3L109.2,291.3L104.3,295.2L105.8,301.5L104.6,303.5L98.4,304.6L98.4,306.1L77.9,306.0L77.9,312.0L50.3,312.0Z"/>
    <path class="wtc-county" id="wtc-county-uinta" data-county="Uinta" d="M50.8,68.3L50.8,50.2L74.6,50.1L108.7,50.0L122.0,50.2L122.2,91.6L84.1,91.7L51.0,91.7L50.8,68.3Z"/>
    <path class="wtc-county" id="wtc-county-washakie" data-county="Washakie" d="M229.0,276.5L229.0,270.1L233.4,270.2L233.4,263.8L237.8,263.9L237.5,257.5L246.2,257.5L246.2,253.5L254.9,253.6L255.7,251.5L271.3,251.5L271.3,245.4L288.5,245.4L288.5,239.2L297.2,239.2L297.2,228.8L301.5,228.8L331.8,228.8L331.5,251.3L330.5,251.3L330.5,276.3L329.2,276.3L288.2,276.4L229.0,276.5Z"/>
    <path class="wtc-county" id="wtc-county-weston" data-county="Weston" d="M476.7,277.0L476.5,262.1L476.5,229.0L476.7,228.6L489.5,228.7L549.7,229.0L549.7,254.0L549.7,274.5L549.7,277.3L526.9,277.4L476.7,277.0Z"/>
  </g>
</svg>