<?xml version="1.0" encoding="UTF-8"?>
<svg xmlns="http://www.w3.org/2000/svg" viewBox="0 0 600 386" id="wtc-state-map-WY" role="img" aria-label="wy county map">
  <title>wy Counties</title>
  <g class="wtc-counties">
    <path class="wtc-county" id="wtc-county-albany" data-county="Albany" d="M405.8,233.6L405.5,258.3L405.8,259.3L405.8,296.9L406.0,307.7L387.9,307.7L388.1,335.9L397.3,336.1L430.6,336.1L462.7,336.0L462.4,327.6L462.4,289.0L462.9,258.2L462.1,233.7L458.6,233.7L456.5,237.7L456.8,241.8L455.5,243.9L444.7,243.9L438.6,242.8L438.6,237.6L441.4,237.6L442.7,233.8L405.8,233.6Z"/>
    <path class="wtc-county" id="wtc-county-big-horn" data-county="Big Horn" d="M223.9,50.4L223.9,59.6L226.0,59.6L226.0,84.6L227.3,84.6L227.3,109.8L229.0,109.8L288.2,109.8L329.2,110.0L329.2,98.7L326.1,97.0L328.2,95.5L325.4,93.3L325.1,89.9L322.3,90.5L317.9,88.7L318.7,86.0L313.3,81.8L312.3,79.4L305.9,78.0L301.8,74.2L295.4,72.0L291.5,73.1L291.0,71.8L286.4,70.7L285.9,67.2L280.3,65.0L281.3,63.9L278.2,59.9L279.0,57.1L276.7,54.7L276.4,51.3L274.6,50.4L250.6,50.5L223.9,50.4Z"/>
    <path class="wtc-county" id="wtc-county-campbell" data-county="Campbell" d="M409.1,50.9L409.9,60.6L409.9,71.3L410.4,81.6L409.9,84.6L409.9,109.7L410.4,134.5L409.6,134.5L409.6,157.8L433.5,157.8L476.7,157.6L476.5,157.3L476.5,124.2L476.7,109.2L476.5,109.0L476.2,84.1L476.2,65.6L477.0,65.7L477.0,50.4L421.9,50.4L409.1,50.9Z"/>
    <path class="wtc-county" id="wtc-county-carbon" data-county="Carbon" d="M302.3,245.9L302.3,258.3L303.6,258.3L303.3,289.0L273.4,289.2L273.4,307.4L274.1,307.4L274.1,335.7L316.9,335.7L349.7,335.7L388.1,335.9L387.9,307.7L406.0,307.7L405.8,296.9L405.8,259.3L405.5,258.3L405.8,233.6L405.5,233.6L366.3,233.8L302.3,233.6L302.3,245.9Z"/>
    <path class="wtc-county" id="wtc-county-converse" data-county="Converse" d="M405.5,157.9L405.8,159.4L405.8,209.0L405.5,209.0L405.5,233.6L405.8,233.6L442.7,233.8L441.4,237.6L438.6,237.6L438.6,242.8L444.7,243.9L455.5,243.9L456.8,241.8L456.5,237.7L458.6,233.7L462.1,233.7L461.9,221.3L490.1,221.0L490.1,208.7L489.5,208.3L489.5,157.5L476.7,157.6L433.5,157.8L409.6,157.8L405.5,157.9Z"/>
    <path class="wtc-county" id="wtc-county-crook" data-county="Crook" d="M477.0,50.4L477.0,65.7L476.2,65.6L476.2,84.1L476.5,109.0L476.7,109.2L526.9,108.9L549.7,108.9L549.7,81.0L549.7,59.4L549.5,50.6L520.0,50.6L479.6,50.4L477.0,50.4Z"/>
    <path class="wtc-county" id="wtc-county-fremont" data-county="Fremont" d="M121.7,121.2L122.0,135.0L122.0,160.0L143.0,160.1L143.0,167.0L147.3,167.0L147.1,169.5L148.9,171.0L147.3,174.3L149.1,176.8L150.4,181.3L154.8,184.9L157.6,188.9L157.6,192.3L161.2,192.4L168.6,197.5L170.4,197.1L173.7,202.9L181.9,207.9L180.1,209.7L182.9,209.7L187.6,211.9L187.3,215.0L191.6,215.0L191.9,233.6L193.7,233.6L193.7,245.7L236.7,245.8L302.3,245.9L302.3,233.6L301.0,233.6L300.8,208.7L303.8,208.8L303.8,184.0L302.8,184.0L302.8,159.4L301.5,157.4L297.2,157.4L297.2,159.4L257.2,159.6L257.2,160.4L244.2,160.4L244.2,159.3L235.7,159.3L235.7,157.2L227.3,157.2L227.3,155.1L218.5,155.2L218.8,152.1L210.1,152.1L210.1,150.0L201.6,150.0L201.6,148.9L184.7,148.9L184.7,143.2L180.1,138.6L174.5,135.1L170.6,133.0L168.3,130.1L163.0,125.5L160.4,126.1L156.8,125.0L152.2,127.1L148.9,131.0L149.4,132.5L144.5,133.7L140.7,135.8L136.1,134.4L135.8,132.6L138.4,132.0L138.1,129.9L135.0,127.0L135.8,125.0L125.8,125.3L123.3,121.6L121.7,121.2Z"/>
    <path class="wtc-county" id="wtc-county-goshen" data-county="Goshen" d="M507.0,221.0L507.0,289.3L507.2,295.6L550.0,295.6L550.0,286.1L550.0,264.4L550.0,220.9L507.0,221.0Z"/>
    <path class="wtc-county" id="wtc-county-hot-springs" data-county="Hot Springs" d="M174.5,135.1L180.1,138.6L184.7,143.2L184.7,148.9L201.6,148.9L201.6,150.0L210.1,150.0L210.1,152.1L218.8,152.1L218.5,155.2L227.3,155.1L227.3,157.2L235.7,157.2L235.7,159.3L244.2,159.3L244.2,160.4L257.2,160.4L257.2,159.6L297.2,159.4L297.2,157.4L297.2,147.0L288.5,147.0L288.5,140.9L271.3,140.8L271.3,134.7L255.7,134.7L254.9,132.6L246.2,132.8L246.2,128.7L237.5,128.7L237.8,122.3L233.4,122.4L233.4,116.1L229.0,116.1L211.6,116.1L211.9,122.5L202.9,122.5L203.2,128.6L190.4,128.6L190.1,134.8L174.5,135.1Z"/>
    <path class="wtc-county" id="wtc-county-johnson" data-county="Johnson" d="M313.3,81.8L318.7,86.0L317.9,88.7L322.3,90.5L325.1,89.9L325.4,93.3L328.2,95.5L326.1,97.0L329.2,98.7L329.2,110.0L330.5,110.0L330.5,134.9L331.5,134.9L331.8,157.5L331.8,158.0L379.1,158.0L405.5,157.9L409.6,157.8L409.6,134.5L410.4,134.5L409.9,109.7L409.9,84.6L410.4,81.6L380.4,81.7L371.7,82.1L313.3,81.8Z"/>
    <path class="wtc-county" id="wtc-county-laramie" data-county="Laramie" d="M462.4,289.0L462.4,327.6L462.7,336.0L486.5,336.1L518.2,335.7L550.0,335.8L550.0,307.9L550.0,295.6L507.2,295.6L507.0,289.3L462.4,289.0Z"/>
    <path class="wtc-county" id="wtc-county-lincoln" data-county="Lincoln" d="M50.8,227.8L50.8,264.4L51.0,294.5L84.1,294.6L122.2,294.6L122.2,264.0L121.7,262.4L121.7,245.2L110.7,244.8L86.9,244.7L86.9,232.5L83.3,232.5L83.3,213.9L81.0,213.9L81.0,208.9L83.6,208.9L83.6,184.1L84.3,184.1L84.3,176.4L67.4,176.4L67.4,170.8L51.0,170.7L51.0,191.8L51.0,213.0L50.8,227.8Z"/>
    <path class="wtc-county" id="wtc-county-natrona" data-county="Natrona" d="M301.5,157.4L302.8,159.4L302.8,184.0L303.8,184.0L303.8,208.8L300.8,208.7L301.0,233.6L302.3,233.6L366.3,233.8L405.5,233.6L405.5,209.0L405.8,209.0L405.8,159.4L405.5,157.9L379.1,158.0L331.8,158.0L331.8,157.5L301.5,157.4Z"/>
    <path class="wtc-county" id="wtc-county-niobrara" data-county="Niobrara" d="M489.5,157.5L489.5,208.3L490.1,208.7L490.1,221.0L507.0,221.0L550.0,220.9L550.0,193.1L550.0,171.9L549.7,159.1L549.7,157.2L489.5,157.5Z"/>
    <path class="wtc-county" id="wtc-county-park" data-county="Park" d="M51.0,50.3L50.3,50.4L50.0,59.9L50.3,74.3L77.9,74.3L77.9,80.2L98.4,80.2L98.4,81.6L104.6,82.7L105.8,84.8L104.3,91.0L109.2,94.9L111.2,98.9L111.2,99.0L115.1,101.3L117.9,108.9L116.6,111.7L121.7,113.9L121.7,121.2L123.3,121.6L125.8,125.3L135.8,125.0L135.0,127.0L138.1,129.9L138.4,132.0L135.8,132.6L136.1,134.4L140.7,135.8L144.5,133.7L149.4,132.5L148.9,131.0L152.2,127.1L156.8,125.0L160.4,126.1L163.0,125.5L168.3,130.1L170.6,133.0L174.5,135.1L190.1,134.8L190.4,128.6L203.2,128.6L202.9,122.5L211.9,122.5L211.6,116.1L229.0,116.1L229.0,109.8L227.3,109.8L227.3,84.6L226.0,84.6L226.0,59.6L223.9,59.6L223.9,50.4L192.4,50.4L189.6,50.0L139.9,50.3L117.6,50.2L111.2,50.7L99.7,50.4L96.9,50.9L75.1,51.0L69.5,50.2L51.0,50.3Z"/>
    <path class="wtc-county" id="wtc-county-platte" data-county="Platte" d="M490.1,221.0L461.9,221.3L462.1,233.7L462.9,258.2L462.4,289.0L507.0,289.3L507.0,221.0L490.1,221.0Z"/>
    <path class="wtc-county" id="wtc-county-sheridan" data-county="Sheridan" d="M274.6,50.4L276.4,51.3L276.7,54.7L279.0,57.1L278.2,59.9L281.3,63.9L280.3,65.0L285.9,67.2L286.4,70.7L291.0,71.8L291.5,73.1L295.4,72.0L301.8,74.2L305.9,78.0L312.3,79.4L313.3,81.8L371.7,82.1L380.4,81.7L410.4,81.6L409.9,71.3L409.9,60.6L409.1,50.9L392.2,50.9L333.6,50.7L330.0,50.4L274.6,50.4Z"/>
    <path class="wtc-county" id="wtc-county-sublette" data-county="Sublette" d="M84.3,176.4L84.3,184.1L83.6,184.1L83.6,208.9L81.0,208.9L81.0,213.9L83.3,213.9L83.3,232.5L86.9,232.5L86.9,244.7L110.7,244.8L121.7,245.2L158.1,245.7L193.7,245.7L193.7,233.6L191.9,233.6L191.6,215.0L187.3,215.0L187.6,211.9L182.9,209.7L180.1,209.7L181.9,207.9L173.7,202.9L170.4,197.1L168.6,197.5L161.2,192.4L157.6,192.3L157.6,188.9L154.8,184.9L150.4,181.3L149.1,176.8L147.3,174.3L148.9,171.0L147.1,169.5L147.3,167.0L143.0,167.0L143.0,160.1L122.0,160.0L121.5,166.2L101.0,166.2L101.0,172.4L84.3,172.4L84.3,176.4Z"/>
    <path class="wtc-county" id="wtc-county-sweetwater" data-county="Sweetwater" d="M121.7,245.2L121.7,262.4L122.2,264.0L122.2,294.6L122.0,336.1L125.6,336.1L158.6,336.0L193.4,335.9L255.4,335.9L274.1,335.7L274.1,307.4L273.4,307.4L273.4,289.2L303.3,289.0L303.6,258.3L302.3,258.3L302.3,245.9L236.7,245.8L193.7,245.7L158.1,245.7L121.7,245.2Z"/>
    <path class="wtc-county" id="wtc-county-teton" data-county="Teton" d="M50.3,74.3L50.8,87.9L50.5,96.5L50.8,123.0L50.8,144.5L51.0,157.4L51.0,170.7L67.4,170.8L67.4,176.4L84.3,176.4L84.3,172.4L101.0,172.4L101.0,166.2L121.5,166.2L122.0,160.0L122.0,135.0L121.7,121.2L121.7,113.9L116.6,111.7L117.9,108.9L115.1,101.3L111.2,99.0L111.2,98.9L109.2,94.9L104.3,91.0L105.8,84.8L104.6,82.7L98.4,81.6L98.4,80.2L77.9,80.2L77.9,74.3L50.3,74.3Z"/>
    <path class="wtc-county" id="wtc-county-uinta" data-county="Uinta" d="M50.8,317.9L50.8,336.1L74.6,336.2L108.7,336.2L122.0,336.1L122.2,294.6L84.1,294.6L51.0,294.5L50.8,317.9Z"/>
    <path class="wtc-county" id="wtc-county-washakie" data-county="Washakie" d="M229.0,109.8L229.0,116.1L233.4,116.1L233.4,122.4L237.8,122.3L237.5,128.7L246.2,128.7L246.2,132.8L254.9,132.6L255.7,134.7L271.3,134.7L271.3,140.8L288.5,140.9L288.5,147.0L297.2,147.0L297.2,157.4L301.5,157.4L331.8,157.5L331.5,134.9L330.5,134.9L330.5,110.0L329.2,110.0L288.2,109.8L229.0,109.8Z"/>
    <path class="wtc-county" id="wtc-county-weston" data-county="Weston" d="M476.7,109.2L476.5,124.2L476.5,157.3L476.7,157.6L489.5,157.5L549.7,157.2L549.7,132.3L549.7,111.7L549.7,108.9L526.9,108.9L476.7,109.2Z"/>
  </g>
</svg>