<?xml version="1.0" encoding="UTF-8"?>
<svg xmlns="http://www.w3.org/2000/svg" viewBox="0 0 600 198" id="wtc-state-map-TN" role="img" aria-label="tn county map">
  <title>tn Counties</title>
  <g class="wtc-counties">
    <path class="wtc-county" id="wtc-county-anderson" data-county="Anderson" d="M388.8,118.1L388.2,116.9L390.0,115.0L392.3,114.2L394.4,111.5L395.6,108.2L398.5,103.5L398.5,105.2L400.6,104.8L402.9,108.3L405.6,107.9L410.8,110.8L408.9,112.9L417.6,119.4L415.9,120.8L413.9,124.3L412.4,126.1L410.1,122.0L408.3,121.7L401.0,122.8L400.6,119.0L396.9,121.5L392.7,121.2L390.9,118.8L388.8,118.1Z"/>
    <path class="wtc-county" id="wtc-county-bedford" data-county="Bedford" d="M261.8,90.6L260.3,79.4L260.7,76.1L263.0,72.1L264.0,72.0L268.4,71.4L270.5,71.8L271.3,70.5L274.4,69.3L275.0,71.0L277.3,71.0L283.9,74.7L284.8,80.1L284.6,87.4L279.0,89.3L274.8,86.9L274.2,88.6L270.3,88.9L269.0,90.7L262.0,91.5L261.8,90.6Z"/>
    <path class="wtc-county" id="wtc-county-benton" data-county="Benton" d="M171.0,115.6L170.8,99.8L173.1,99.8L181.6,99.4L181.6,97.8L184.9,98.1L185.5,99.5L186.8,100.9L187.6,104.9L182.6,105.6L182.0,106.7L183.2,110.3L188.0,116.2L188.2,117.9L186.1,122.7L185.9,126.7L184.5,129.1L183.9,129.5L177.8,129.4L177.4,126.6L178.5,123.7L175.4,121.3L173.1,117.2L171.0,115.6Z"/>
    <path class="wtc-county" id="wtc-county-bledsoe" data-county="Bledsoe" d="M332.0,83.7L331.4,82.2L333.3,79.4L338.2,75.0L343.4,71.4L346.7,77.3L348.6,77.4L349.8,78.4L348.0,79.3L350.7,81.8L350.2,83.9L353.8,86.6L361.2,94.9L360.6,95.3L354.8,94.0L354.2,95.5L341.8,95.2L341.1,92.6L332.0,83.7Z"/>
    <path class="wtc-county" id="wtc-county-blount" data-county="Blount" d="M403.3,86.2L406.6,84.2L408.7,84.2L409.5,82.2L414.5,82.9L413.7,80.7L417.8,79.1L416.6,77.7L417.0,77.6L419.2,78.4L420.9,80.8L424.2,81.2L427.3,83.4L433.8,83.8L433.8,90.8L431.3,92.1L426.1,102.2L422.8,99.5L419.5,99.8L417.4,101.5L412.6,101.5L413.7,99.6L409.5,100.1L406.4,99.1L405.8,96.9L404.5,97.5L403.9,95.3L405.4,94.7L404.3,92.1L406.6,89.1L403.3,86.2Z"/>
    <path class="wtc-county" id="wtc-county-bradley" data-county="Bradley" d="M359.6,67.6L356.1,61.6L355.0,58.8L356.9,53.0L358.7,51.8L357.7,50.2L367.4,50.2L369.3,50.2L371.8,55.7L371.0,55.9L373.9,60.9L373.7,64.9L372.0,65.7L369.1,69.0L364.5,71.2L360.6,67.7L359.6,67.6Z"/>
    <path class="wtc-county" id="wtc-county-campbell" data-county="Campbell" d="M399.2,142.8L399.8,139.5L397.7,137.8L395.2,138.1L394.0,135.6L394.8,131.1L395.2,125.1L392.5,123.7L392.7,121.2L396.9,121.5L400.6,119.0L401.0,122.8L408.3,121.7L410.1,122.0L412.4,126.1L413.9,124.3L415.7,125.9L415.9,129.2L417.0,131.8L418.8,131.1L419.7,132.9L418.6,133.4L415.1,141.1L414.9,142.7L401.0,142.9L399.2,142.8Z"/>
    <path class="wtc-county" id="wtc-county-cannon" data-county="Cannon" d="M290.0,106.0L290.6,103.8L288.9,102.0L287.9,95.0L286.8,91.6L290.4,89.2L296.6,88.1L299.7,89.1L298.9,92.1L303.6,98.5L305.3,99.4L305.1,100.5L298.9,106.0L297.8,106.4L293.9,106.7L290.0,106.0Z"/>
    <path class="wtc-county" id="wtc-county-carroll" data-county="Carroll" d="M143.2,112.3L142.6,96.9L142.4,96.6L148.2,96.5L150.5,98.6L172.9,98.1L173.1,99.8L170.8,99.8L171.0,115.6L171.0,117.1L152.6,117.4L152.6,115.4L145.5,115.5L145.5,112.4L143.2,112.3Z"/>
    <path class="wtc-county" id="wtc-county-carter" data-county="Carter" d="M512.3,131.6L512.3,130.1L510.0,123.3L511.3,123.7L514.8,122.2L514.2,120.8L516.4,119.7L516.8,117.7L521.2,117.3L522.0,114.8L524.9,114.8L528.0,116.2L533.6,124.0L530.7,125.3L529.5,127.9L527.8,128.0L526.2,129.9L531.6,135.4L532.6,135.9L530.5,138.0L527.4,136.7L518.7,131.8L515.2,132.9L512.3,131.6Z"/>
    <path class="wtc-county" id="wtc-county-cheatham" data-county="Cheatham" d="M234.0,135.0L232.3,132.8L230.7,133.2L224.9,129.2L224.5,127.3L227.0,127.4L232.1,126.3L231.9,124.4L229.9,123.1L231.5,122.3L230.1,120.9L232.3,118.9L231.5,117.6L230.5,111.5L237.9,111.3L238.8,114.1L241.0,116.1L241.9,121.7L246.4,129.8L246.0,130.8L241.7,130.0L240.6,131.3L234.0,135.0Z"/>
    <path class="wtc-county" id="wtc-county-chester" data-county="Chester" d="M134.7,75.6L134.7,73.2L137.4,70.0L138.1,65.3L141.8,65.2L143.5,68.8L144.9,69.4L146.4,71.8L150.5,73.0L162.3,73.0L162.5,75.1L162.3,79.4L159.4,78.8L154.0,80.5L151.7,82.6L150.7,84.9L147.8,84.9L147.8,83.8L144.3,79.2L136.2,75.6L134.7,75.6Z"/>
    <path class="wtc-county" id="wtc-county-claiborne" data-county="Claiborne" d="M414.9,142.7L415.1,141.1L418.6,133.4L419.7,132.9L422.2,133.8L423.8,132.9L425.5,133.9L427.7,131.7L429.6,128.6L431.7,129.8L433.3,128.6L436.4,128.7L437.7,129.9L442.0,129.3L443.3,130.5L446.0,130.3L446.6,132.5L449.5,132.5L450.5,135.2L448.9,139.6L444.7,143.2L432.9,143.4L432.1,142.3L418.2,142.6L414.9,142.7Z"/>
    <path class="wtc-county" id="wtc-county-clay" data-county="Clay" d="M310.9,144.6L309.4,137.5L312.1,138.5L315.9,138.8L316.3,137.3L323.3,135.9L327.9,132.0L328.7,134.9L330.8,137.4L333.9,137.8L337.0,139.2L340.1,139.4L341.1,141.8L340.5,144.9L339.5,144.8L331.2,144.4L328.3,144.2L310.9,144.6Z"/>
    <path class="wtc-county" id="wtc-county-cocke" data-county="Cocke" d="M454.1,102.7L454.1,101.3L456.8,98.3L455.3,96.9L456.1,95.4L455.9,92.2L457.2,92.3L461.3,93.1L463.0,95.1L467.3,96.5L472.3,95.6L474.2,96.7L475.0,98.6L477.7,101.3L477.1,104.5L477.9,105.5L466.1,115.7L461.9,117.7L462.3,119.1L461.3,118.9L461.7,116.1L459.4,117.3L457.8,115.9L458.4,113.6L456.8,108.5L455.9,109.1L454.7,103.0L454.1,102.7Z"/>
    <path class="wtc-county" id="wtc-county-coffee" data-county="Coffee" d="M283.9,74.7L282.5,73.3L284.6,71.0L283.7,70.2L289.5,71.9L296.6,70.8L298.7,69.1L300.1,69.3L303.8,67.7L304.2,70.0L305.7,71.1L305.1,76.6L305.9,81.2L301.8,84.1L301.3,86.7L299.7,89.1L296.6,88.1L290.4,89.2L286.8,91.6L284.6,90.7L284.6,87.4L284.8,80.1L283.9,74.7Z"/>
    <path class="wtc-county" id="wtc-county-crockett" data-county="Crockett" d="M105.7,101.8L104.9,98.2L107.6,95.6L109.9,94.5L115.7,93.4L118.8,91.3L121.5,91.0L124.4,89.7L131.6,96.2L130.4,97.0L127.5,98.7L119.2,100.7L118.0,102.9L117.8,106.8L114.6,108.7L113.6,106.5L109.5,102.1L105.7,101.8Z"/>
    <path class="wtc-county" id="wtc-county-cumberland" data-county="Cumberland" d="M340.9,96.8L340.7,96.4L341.8,95.2L341.8,95.2L354.2,95.5L354.8,94.0L360.6,95.3L361.2,94.9L368.1,98.6L369.1,98.6L372.2,100.5L374.9,103.4L372.6,108.4L368.5,112.1L367.7,113.9L366.2,113.5L363.9,116.6L361.9,117.7L360.4,117.1L356.3,117.5L354.8,118.5L350.7,116.7L347.6,114.4L342.2,114.5L342.4,111.8L341.1,107.5L342.4,103.7L344.2,103.5L342.6,97.7L340.9,96.8Z"/>
    <path class="wtc-county" id="wtc-county-davidson" data-county="Davidson" d="M246.0,130.8L246.4,129.8L241.9,121.7L241.0,116.1L238.8,114.1L237.9,111.3L238.8,108.1L245.2,111.7L253.1,110.8L263.0,106.8L263.4,109.1L265.9,110.7L267.4,113.7L268.4,112.0L269.0,114.5L268.2,116.8L265.7,118.7L264.5,122.9L261.8,123.4L261.8,125.3L257.2,128.5L255.1,132.1L251.2,128.9L247.1,131.1L246.0,130.8Z"/>
    <path class="wtc-county" id="wtc-county-decatur" data-county="Decatur" d="M172.9,98.1L172.3,86.1L169.4,81.5L169.4,75.4L171.8,72.9L176.0,73.1L179.5,75.0L181.8,73.6L184.5,73.8L182.8,75.4L180.8,76.6L183.9,78.8L184.7,80.6L181.2,86.8L182.2,89.1L181.4,92.4L183.9,94.9L184.9,98.1L181.6,97.8L181.6,99.4L173.1,99.8L172.9,98.1Z"/>
    <path class="wtc-county" id="wtc-county-dekalb" data-county="DeKalb" d="M295.3,113.7L297.8,106.4L298.9,106.0L305.1,100.5L305.3,99.4L313.2,100.0L317.1,98.9L319.8,100.2L317.7,100.4L319.6,101.9L318.1,107.0L319.2,109.6L316.9,112.4L314.8,113.4L311.7,113.2L309.8,116.3L308.0,116.1L306.5,114.1L303.8,115.4L303.8,114.3L301.1,115.1L299.5,113.7L295.3,113.7Z"/>
    <path class="wtc-county" id="wtc-county-dickson" data-county="Dickson" d="M208.3,118.9L209.1,116.7L210.2,108.3L229.2,106.3L230.5,111.5L231.5,117.6L232.3,118.9L230.1,120.9L231.5,122.3L229.9,123.1L231.9,124.4L232.1,126.3L227.0,127.4L224.5,127.3L223.4,126.7L211.4,128.0L210.8,123.1L208.3,118.9Z"/>
    <path class="wtc-county" id="wtc-county-dyer" data-county="Dyer" d="M83.2,108.7L84.0,106.8L87.7,104.4L88.3,103.2L89.2,104.3L95.8,104.6L97.2,105.7L102.0,105.6L105.7,101.8L109.5,102.1L113.6,106.5L114.6,108.7L116.1,110.2L116.7,120.5L97.7,121.0L97.5,119.5L89.2,119.4L91.4,117.3L90.8,115.6L86.3,113.6L85.6,109.9L83.2,108.7Z"/>
    <path class="wtc-county" id="wtc-county-fayette" data-county="Fayette" d="M89.0,72.7L88.3,50.7L105.1,50.6L114.0,50.6L114.2,51.6L114.9,73.9L98.3,74.2L91.0,73.8L89.0,72.7Z"/>
    <path class="wtc-county" id="wtc-county-fentress" data-county="Fentress" d="M349.4,132.2L349.4,126.3L351.7,120.0L349.6,117.1L350.7,116.7L354.8,118.5L356.3,117.5L360.4,117.1L361.9,117.7L361.4,120.7L363.1,122.5L363.7,125.1L368.1,125.8L368.9,127.5L371.6,128.2L372.4,130.4L373.7,130.1L376.2,131.5L374.3,133.8L372.0,139.0L368.9,139.0L364.3,141.6L359.8,142.2L354.2,140.7L351.3,137.5L350.5,132.4L349.4,132.2Z"/>
    <path class="wtc-county" id="wtc-county-franklin" data-county="Franklin" d="M283.7,70.2L283.9,68.1L281.2,64.5L280.4,58.3L280.4,50.4L280.8,50.4L306.5,50.3L306.7,63.7L306.1,63.8L303.8,67.7L300.1,69.3L298.7,69.1L296.6,70.8L289.5,71.9L283.7,70.2Z"/>
    <path class="wtc-county" id="wtc-county-gibson" data-county="Gibson" d="M116.7,120.5L116.1,110.2L114.6,108.7L117.8,106.8L118.0,102.9L119.2,100.7L127.5,98.7L130.4,97.0L142.4,96.6L142.6,96.9L143.2,112.3L139.1,115.2L134.7,115.8L131.6,118.9L127.9,121.6L127.7,120.3L116.7,120.5Z"/>
    <path class="wtc-county" id="wtc-county-giles" data-county="Giles" d="M229.0,76.0L228.6,73.0L228.6,64.1L228.2,61.0L229.7,60.4L228.6,58.1L228.0,50.9L228.8,50.9L250.4,50.5L251.0,66.2L250.0,69.5L249.1,68.2L246.4,69.1L245.4,74.2L243.3,75.0L241.5,74.5L239.2,75.9L233.6,77.3L231.7,76.1L229.0,76.0Z"/>
    <path class="wtc-county" id="wtc-county-grainger" data-county="Grainger" d="M429.6,118.2L431.5,115.0L433.3,113.3L432.9,115.9L435.6,114.7L435.2,117.0L437.1,116.7L437.5,118.1L440.8,119.2L444.9,118.8L446.0,121.3L453.0,125.8L455.9,123.9L457.2,125.4L455.7,131.5L451.6,132.9L449.5,132.5L446.6,132.5L446.0,130.3L443.3,130.5L442.0,129.3L437.7,129.9L436.4,128.7L433.3,128.6L431.3,124.4L431.5,120.7L429.6,118.2Z"/>
    <path class="wtc-county" id="wtc-county-greene" data-county="Greene" d="M462.3,119.1L461.9,117.7L466.1,115.7L477.9,105.5L480.6,105.7L482.2,104.2L486.4,109.0L493.2,112.5L494.9,111.0L496.3,113.2L495.3,114.2L492.2,117.1L493.2,132.9L489.1,132.4L482.7,129.7L481.2,130.1L476.9,127.7L475.6,128.0L472.5,125.3L470.0,124.6L467.1,122.7L463.8,119.5L462.3,119.1Z"/>
    <path class="wtc-county" id="wtc-county-grundy" data-county="Grundy" d="M303.8,67.7L306.1,63.8L309.0,64.9L313.8,63.4L316.5,64.8L315.4,67.7L318.5,68.6L324.1,69.4L327.2,71.6L328.5,74.4L325.6,75.9L325.6,79.1L321.4,81.6L315.9,81.5L309.0,80.1L305.9,81.2L305.1,76.6L305.7,71.1L304.2,70.0L303.8,67.7Z"/>
    <path class="wtc-county" id="wtc-county-hamblen" data-county="Hamblen" d="M457.2,125.4L455.9,123.9L453.0,125.8L446.0,121.3L444.9,118.8L445.4,117.6L450.3,117.5L456.1,116.3L458.4,113.6L457.8,115.9L459.4,117.3L461.7,116.1L461.3,118.9L462.3,119.1L463.8,119.5L467.1,122.7L464.2,125.8L462.6,128.6L459.4,125.6L457.2,125.4Z"/>
    <path class="wtc-county" id="wtc-county-hamilton" data-county="Hamilton" d="M329.1,50.0L335.5,50.0L341.1,50.1L357.7,50.2L358.7,51.8L356.9,53.0L355.0,58.8L356.1,61.6L359.6,67.6L357.7,71.9L354.6,72.9L355.4,74.6L352.5,76.2L350.7,75.7L348.6,77.4L346.7,77.3L343.4,71.4L342.4,69.4L334.1,59.5L333.9,57.9L335.5,56.0L334.1,53.3L329.1,50.0Z"/>
    <path class="wtc-county" id="wtc-county-hancock" data-county="Hancock" d="M444.7,143.2L448.9,139.6L450.5,135.2L449.5,132.5L451.6,132.9L455.7,131.5L460.7,133.2L460.1,134.2L465.0,138.4L471.3,141.3L474.8,140.0L481.6,143.0L472.7,143.0L457.0,143.0L455.9,143.2L444.7,143.2Z"/>
    <path class="wtc-county" id="wtc-county-hardeman" data-county="Hardeman" d="M114.9,73.9L114.2,51.6L114.0,50.6L124.6,50.6L135.8,50.7L137.9,50.7L138.1,65.3L137.4,70.0L134.7,73.2L134.7,75.6L121.1,75.9L115.1,75.9L114.9,73.9Z"/>
    <path class="wtc-county" id="wtc-county-hardin" data-county="Hardin" d="M162.3,73.0L161.3,50.7L162.3,50.7L171.6,50.7L171.6,51.4L184.1,51.3L184.3,68.0L182.2,68.3L183.0,71.2L181.8,73.6L179.5,75.0L176.0,73.1L171.8,72.9L169.4,75.4L162.5,75.1L162.3,73.0Z"/>
    <path class="wtc-county" id="wtc-county-hawkins" data-county="Hawkins" d="M455.7,131.5L457.2,125.4L459.4,125.6L462.6,128.6L464.2,125.8L467.1,122.7L470.0,124.6L472.5,125.3L475.6,128.0L476.9,127.7L481.2,130.1L482.7,129.7L489.1,132.4L490.3,133.6L489.1,135.0L493.4,137.3L494.5,138.7L494.5,143.0L481.6,143.0L474.8,140.0L471.3,141.3L465.0,138.4L460.1,134.2L460.7,133.2L455.7,131.5Z"/>
    <path class="wtc-county" id="wtc-county-haywood" data-county="Haywood" d="M104.9,98.2L102.4,98.5L100.1,95.2L101.0,94.1L98.7,90.4L98.5,85.3L96.6,84.5L98.5,82.5L98.3,74.2L114.9,73.9L115.1,75.9L121.1,75.9L121.5,91.0L118.8,91.3L115.7,93.4L109.9,94.5L107.6,95.6L104.9,98.2Z"/>
    <path class="wtc-county" id="wtc-county-henderson" data-county="Henderson" d="M148.2,96.5L147.8,84.9L150.7,84.9L151.7,82.6L154.0,80.5L159.4,78.8L162.3,79.4L162.5,75.1L169.4,75.4L169.4,81.5L172.3,86.1L172.9,98.1L150.5,98.6L148.2,96.5Z"/>
    <path class="wtc-county" id="wtc-county-henry" data-county="Henry" d="M153.4,137.6L152.6,117.4L171.0,117.1L171.0,115.6L173.1,117.2L175.4,121.3L178.5,123.7L177.4,126.6L177.8,129.4L183.9,129.5L179.7,134.3L180.1,137.4L155.1,137.6L153.4,137.6Z"/>
    <path class="wtc-county" id="wtc-county-hickman" data-county="Hickman" d="M199.6,99.4L198.2,89.3L202.9,86.2L207.1,88.7L209.3,87.3L214.5,86.5L221.4,89.0L227.6,92.8L228.6,100.1L229.2,106.3L210.2,108.3L210.2,106.9L205.8,105.6L202.9,103.8L200.2,103.3L199.6,99.4Z"/>
    <path class="wtc-county" id="wtc-county-houston" data-county="Houston" d="M184.5,129.1L185.9,126.7L186.1,122.7L192.8,122.1L197.3,122.7L202.7,120.3L207.3,120.1L208.3,118.9L210.8,123.1L211.4,128.0L207.1,128.4L206.9,129.9L199.6,129.9L197.3,128.5L193.6,127.7L189.5,128.0L184.5,129.1Z"/>
    <path class="wtc-county" id="wtc-county-humphreys" data-county="Humphreys" d="M186.1,122.7L188.2,117.9L188.0,116.2L183.2,110.3L182.0,106.7L182.6,105.6L187.6,104.9L186.8,100.9L185.5,99.5L188.4,99.3L191.7,97.4L193.8,99.2L199.6,99.4L200.2,103.3L202.9,103.8L205.8,105.6L210.2,106.9L210.2,108.3L209.1,116.7L208.3,118.9L207.3,120.1L202.7,120.3L197.3,122.7L192.8,122.1L186.1,122.7Z"/>
    <path class="wtc-county" id="wtc-county-jackson" data-county="Jackson" d="M308.6,132.5L307.6,125.3L308.6,123.4L311.5,122.4L319.8,121.0L325.6,122.7L327.9,124.8L327.9,126.1L327.9,132.0L323.3,135.9L316.3,137.3L315.9,138.8L312.1,138.5L309.4,137.5L308.6,132.5Z"/>
    <path class="wtc-county" id="wtc-county-jefferson" data-county="Jefferson" d="M433.3,113.3L431.1,114.1L433.1,110.9L434.2,111.1L441.6,106.6L444.5,104.3L447.8,104.9L454.1,102.7L454.7,103.0L455.9,109.1L456.8,108.5L458.4,113.6L456.1,116.3L450.3,117.5L445.4,117.6L444.9,118.8L440.8,119.2L437.5,118.1L437.1,116.7L435.2,117.0L435.6,114.7L432.9,115.9L433.3,113.3Z"/>
    <path class="wtc-county" id="wtc-county-johnson" data-county="Johnson" d="M530.5,138.0L532.6,135.9L531.6,135.4L526.2,129.9L527.8,128.0L529.5,127.9L530.7,125.3L533.6,124.0L534.5,125.3L539.2,128.8L541.5,129.4L543.2,128.2L546.7,128.2L545.2,131.2L546.1,135.1L547.3,135.7L546.5,139.7L548.3,142.6L550.0,144.0L539.6,144.1L533.8,141.5L530.5,138.0Z"/>
    <path class="wtc-county" id="wtc-county-knox" data-county="Knox" d="M417.6,119.4L408.9,112.9L410.8,110.8L405.6,107.9L402.9,108.3L400.6,104.8L398.5,105.2L398.5,103.5L398.9,102.7L404.5,97.5L405.8,96.9L406.4,99.1L409.5,100.1L413.7,99.6L412.6,101.5L417.4,101.5L419.5,99.8L422.8,99.5L426.1,102.2L433.3,106.5L433.1,110.9L431.1,114.1L433.3,113.3L431.5,115.0L429.6,118.2L418.6,118.5L417.6,119.4Z"/>
    <path class="wtc-county" id="wtc-county-lake" data-county="Lake" d="M94.1,128.1L90.2,128.4L90.2,126.5L94.6,124.6L94.8,123.2L91.6,122.5L85.4,123.3L84.8,122.3L89.2,119.4L97.5,119.5L97.7,121.0L100.8,123.6L102.2,126.8L102.2,129.0L104.7,132.3L105.5,137.7L101.4,137.5L99.7,135.5L97.0,135.8L97.5,137.4L94.3,137.4L95.6,136.3L94.1,133.2L96.2,130.2L94.1,128.1Z"/>
    <path class="wtc-county" id="wtc-county-lauderdale" data-county="Lauderdale" d="M88.3,103.2L87.7,102.2L82.7,103.3L80.9,100.9L85.0,99.1L82.7,97.5L80.5,97.4L78.6,94.8L75.1,93.7L73.2,94.8L70.1,92.7L71.3,89.4L73.2,88.5L75.7,89.7L76.3,87.8L70.9,85.7L70.3,84.5L73.0,82.0L75.3,84.5L81.7,88.5L83.6,87.7L87.9,88.4L94.8,85.8L96.6,84.5L98.5,85.3L98.7,90.4L101.0,94.1L100.1,95.2L102.4,98.5L104.9,98.2L105.7,101.8L102.0,105.6L97.2,105.7L95.8,104.6L89.2,104.3L88.3,103.2Z"/>
    <path class="wtc-county" id="wtc-county-lawrence" data-county="Lawrence" d="M207.9,74.0L207.9,62.0L206.9,59.2L207.1,54.3L206.0,51.2L228.0,50.9L228.6,58.1L229.7,60.4L228.2,61.0L228.6,64.1L228.6,73.0L229.0,76.0L224.1,76.6L222.2,77.3L215.1,77.4L215.1,75.2L211.6,74.9L211.2,74.0L207.9,74.0Z"/>
    <path class="wtc-county" id="wtc-county-lewis" data-county="Lewis" d="M202.9,86.2L203.3,83.8L201.5,82.6L201.1,80.2L199.6,78.9L203.8,78.3L203.8,76.5L206.0,76.1L207.9,74.0L211.2,74.0L211.6,74.9L215.1,75.2L215.1,77.4L222.2,77.3L224.1,76.6L225.1,78.9L224.5,82.2L222.6,82.7L220.7,84.7L221.4,89.0L214.5,86.5L209.3,87.3L207.1,88.7L202.9,86.2Z"/>
    <path class="wtc-county" id="wtc-county-lincoln" data-county="Lincoln" d="M251.0,66.2L250.4,50.5L253.5,50.5L280.4,50.4L280.4,58.3L277.5,58.4L277.5,60.9L276.1,64.5L272.1,67.9L268.4,68.9L268.4,71.4L264.0,72.0L264.0,69.8L258.5,68.0L255.6,65.6L251.0,66.2Z"/>
    <path class="wtc-county" id="wtc-county-loudon" data-county="Loudon" d="M380.5,88.1L383.8,87.0L384.0,88.6L389.8,89.7L391.3,87.9L393.6,89.4L397.5,88.8L399.6,86.8L403.3,86.2L406.6,89.1L404.3,92.1L405.4,94.7L403.9,95.3L404.5,97.5L398.9,102.7L397.9,101.5L395.2,102.5L394.2,99.0L392.3,98.2L391.7,95.3L390.2,95.8L385.7,92.3L384.6,92.3L383.6,89.7L380.5,88.1Z"/>
    <path class="wtc-county" id="wtc-county-mcminn" data-county="McMinn" d="M364.5,71.2L369.1,69.0L372.0,65.7L373.7,64.9L375.7,66.4L384.4,66.4L385.7,67.5L388.0,69.4L391.1,70.0L390.7,74.0L389.0,75.3L388.6,77.7L383.8,87.0L380.5,88.1L378.4,88.2L372.4,81.0L371.0,80.5L369.3,77.8L367.9,77.2L364.5,71.2Z"/>
    <path class="wtc-county" id="wtc-county-mcnairy" data-county="McNairy" d="M138.1,65.3L137.9,50.7L161.3,50.7L162.3,73.0L150.5,73.0L146.4,71.8L144.9,69.4L143.5,68.8L141.8,65.2L138.1,65.3Z"/>
    <path class="wtc-county" id="wtc-county-macon" data-county="Macon" d="M286.8,145.6L285.6,136.8L287.7,136.5L289.1,134.4L299.9,133.3L308.6,132.5L309.4,137.5L310.9,144.6L300.1,145.0L286.8,145.6Z"/>
    <path class="wtc-county" id="wtc-county-madison" data-county="Madison" d="M121.5,91.0L121.1,75.9L134.7,75.6L136.2,75.6L144.3,79.2L147.8,83.8L147.8,84.9L148.2,96.5L142.4,96.6L130.4,97.0L131.6,96.2L124.4,89.7L121.5,91.0Z"/>
    <path class="wtc-county" id="wtc-county-marion" data-county="Marion" d="M306.1,63.8L306.7,63.7L306.5,50.3L321.4,50.0L329.1,50.0L334.1,53.3L335.5,56.0L333.9,57.9L334.1,59.5L333.3,63.8L330.8,66.1L324.3,68.7L324.1,69.4L318.5,68.6L315.4,67.7L316.5,64.8L313.8,63.4L309.0,64.9L306.1,63.8Z"/>
    <path class="wtc-county" id="wtc-county-marshall" data-county="Marshall" d="M253.7,91.8L251.8,91.2L251.0,84.6L249.8,81.3L245.4,77.7L243.5,77.0L243.3,75.0L245.4,74.2L246.4,69.1L249.1,68.2L250.0,69.5L251.0,66.2L255.6,65.6L258.5,68.0L264.0,69.8L264.0,72.0L263.0,72.1L260.7,76.1L260.3,79.4L261.8,90.6L259.1,92.0L253.7,91.8Z"/>
    <path class="wtc-county" id="wtc-county-maury" data-county="Maury" d="M221.4,89.0L220.7,84.7L222.6,82.7L224.5,82.2L225.1,78.9L224.1,76.6L229.0,76.0L231.7,76.1L233.6,77.3L239.2,75.9L241.5,74.5L243.3,75.0L243.5,77.0L245.4,77.7L249.8,81.3L251.0,84.6L251.8,91.2L253.7,91.8L250.0,92.8L239.0,96.9L228.6,100.1L227.6,92.8L221.4,89.0Z"/>
    <path class="wtc-county" id="wtc-county-meigs" data-county="Meigs" d="M355.4,74.6L354.6,72.9L357.7,71.9L359.6,67.6L360.6,67.7L364.5,71.2L367.9,77.2L369.3,77.8L371.0,80.5L372.4,81.0L378.4,88.2L378.4,91.8L377.4,92.7L375.3,91.6L372.4,94.4L372.4,90.8L369.1,89.9L369.1,85.3L367.4,84.6L368.3,82.9L363.7,82.7L364.5,79.7L362.5,78.9L361.6,76.5L359.6,76.3L358.3,77.9L355.4,74.6Z"/>
    <path class="wtc-county" id="wtc-county-monroe" data-county="Monroe" d="M383.8,87.0L388.6,77.7L389.0,75.3L390.7,74.0L391.1,70.0L388.0,69.4L385.7,67.5L393.6,64.4L394.4,62.7L397.3,62.9L397.5,63.9L402.1,66.3L402.7,65.0L408.5,65.2L412.6,67.8L412.0,71.2L413.9,72.4L413.0,74.6L416.6,77.7L417.8,79.1L413.7,80.7L414.5,82.9L409.5,82.2L408.7,84.2L406.6,84.2L403.3,86.2L399.6,86.8L397.5,88.8L393.6,89.4L391.3,87.9L389.8,89.7L384.0,88.6L383.8,87.0Z"/>
    <path class="wtc-county" id="wtc-county-montgomery" data-county="Montgomery" d="M204.0,145.5L206.9,129.9L207.1,128.4L211.4,128.0L223.4,126.7L224.5,127.3L224.9,129.2L230.7,133.2L232.3,132.8L234.0,135.0L234.2,140.5L233.4,141.2L234.4,145.8L221.6,145.7L204.0,145.5Z"/>
    <path class="wtc-county" id="wtc-county-moore" data-county="Moore" d="M268.4,71.4L268.4,68.9L272.1,67.9L276.1,64.5L277.5,60.9L277.5,58.4L280.4,58.3L281.2,64.5L283.9,68.1L283.7,70.2L284.6,71.0L282.5,73.3L283.9,74.7L277.3,71.0L275.0,71.0L274.4,69.3L271.3,70.5L270.5,71.8L268.4,71.4Z"/>
    <path class="wtc-county" id="wtc-county-morgan" data-county="Morgan" d="M373.7,130.1L372.4,130.4L371.6,128.2L368.9,127.5L368.1,125.8L363.7,125.1L363.1,122.5L361.4,120.7L361.9,117.7L363.9,116.6L366.2,113.5L367.7,113.9L368.5,112.1L372.6,108.4L374.9,103.4L379.3,105.5L382.2,105.8L382.8,106.9L388.4,107.9L394.4,111.5L392.3,114.2L390.0,115.0L388.2,116.9L388.8,118.1L386.9,120.5L381.3,122.4L381.1,124.1L378.8,124.3L373.7,130.1Z"/>
    <path class="wtc-county" id="wtc-county-obion" data-county="Obion" d="M105.5,137.7L104.7,132.3L102.2,129.0L102.2,126.8L100.8,123.6L97.7,121.0L116.7,120.5L127.7,120.3L127.9,121.6L128.5,132.5L132.1,131.4L136.2,132.4L135.6,137.7L135.2,137.7L125.6,137.7L108.2,138.0L105.5,137.7Z"/>
    <path class="wtc-county" id="wtc-county-overton" data-county="Overton" d="M327.9,132.0L327.9,126.1L329.9,126.2L330.4,123.8L332.2,122.3L337.6,121.3L337.8,120.2L344.7,117.5L349.6,117.1L351.7,120.0L349.4,126.3L349.4,132.2L348.0,135.0L343.6,138.4L340.1,139.4L337.0,139.2L333.9,137.8L330.8,137.4L328.7,134.9L327.9,132.0Z"/>
    <path class="wtc-county" id="wtc-county-perry" data-county="Perry" d="M184.9,98.1L183.9,94.9L181.4,92.4L182.2,89.1L181.2,86.8L184.7,80.6L183.9,78.8L180.8,76.6L182.8,75.4L183.9,77.1L194.6,79.0L199.6,78.9L201.1,80.2L201.5,82.6L203.3,83.8L202.9,86.2L198.2,89.3L199.6,99.4L193.8,99.2L191.7,97.4L188.4,99.3L185.5,99.5L184.9,98.1Z"/>
    <path class="wtc-county" id="wtc-county-pickett" data-county="Pickett" d="M340.1,139.4L343.6,138.4L348.0,135.0L349.4,132.2L350.5,132.4L351.3,137.5L354.2,140.7L359.8,142.2L364.3,141.6L368.9,139.0L372.0,139.0L368.9,143.5L357.9,144.2L340.5,144.9L341.1,141.8L340.1,139.4Z"/>
    <path class="wtc-county" id="wtc-county-polk" data-county="Polk" d="M373.7,64.9L373.9,60.9L371.0,55.9L371.8,55.7L369.3,50.2L378.4,50.3L395.6,50.3L397.3,62.9L394.4,62.7L393.6,64.4L385.7,67.5L384.4,66.4L375.7,66.4L373.7,64.9Z"/>
    <path class="wtc-county" id="wtc-county-putnam" data-county="Putnam" d="M311.5,122.4L309.8,116.3L311.7,113.2L314.8,113.4L316.9,112.4L319.2,109.6L321.2,111.3L322.5,111.0L324.1,112.9L327.2,113.4L338.6,110.5L338.4,108.3L341.1,107.5L342.4,111.8L342.2,114.5L347.6,114.4L350.7,116.7L349.6,117.1L344.7,117.5L337.8,120.2L337.6,121.3L332.2,122.3L330.4,123.8L329.9,126.2L327.9,126.1L327.9,124.8L325.6,122.7L319.8,121.0L311.5,122.4Z"/>
    <path class="wtc-county" id="wtc-county-rhea" data-county="Rhea" d="M361.2,94.9L353.8,86.6L350.2,83.9L350.7,81.8L348.0,79.3L349.8,78.4L348.6,77.4L350.7,75.7L352.5,76.2L355.4,74.6L358.3,77.9L359.6,76.3L361.6,76.5L362.5,78.9L364.5,79.7L363.7,82.7L368.3,82.9L367.4,84.6L369.1,85.3L369.1,89.9L372.4,90.8L372.4,94.4L370.6,94.5L371.6,95.9L368.7,98.0L369.1,98.6L368.1,98.6L361.2,94.9Z"/>
    <path class="wtc-county" id="wtc-county-roane" data-county="Roane" d="M369.1,98.6L368.7,98.0L371.6,95.9L370.6,94.5L372.4,94.4L375.3,91.6L377.4,92.7L378.4,91.8L378.4,88.2L380.5,88.1L383.6,89.7L384.6,92.3L385.7,92.3L390.2,95.8L391.7,95.3L392.3,98.2L394.2,99.0L395.2,102.5L397.9,101.5L398.9,102.7L398.5,103.5L395.6,108.2L394.4,111.5L388.4,107.9L382.8,106.9L382.2,105.8L379.3,105.5L374.9,103.4L372.2,100.5L369.1,98.6Z"/>
    <path class="wtc-county" id="wtc-county-robertson" data-county="Robertson" d="M234.4,145.8L233.4,141.2L234.2,140.5L234.0,135.0L240.6,131.3L241.7,130.0L246.0,130.8L247.1,131.1L251.2,128.9L255.1,132.1L255.6,132.9L258.7,132.2L261.1,135.8L262.2,139.5L266.1,145.3L264.7,146.4L254.7,146.2L237.5,145.8L234.4,145.8Z"/>
    <path class="wtc-county" id="wtc-county-rutherford" data-county="Rutherford" d="M263.0,106.8L262.6,103.8L263.8,100.3L263.4,96.6L260.5,96.6L258.2,92.7L259.1,92.0L261.8,90.6L262.0,91.5L269.0,90.7L270.3,88.9L274.2,88.6L274.8,86.9L279.0,89.3L284.6,87.4L284.6,90.7L286.8,91.6L287.9,95.0L288.9,102.0L290.6,103.8L290.0,106.0L289.5,106.6L284.1,106.4L280.0,107.8L269.0,114.5L268.4,112.0L267.4,113.7L265.9,110.7L263.4,109.1L263.0,106.8Z"/>
    <path class="wtc-county" id="wtc-county-scott" data-county="Scott" d="M368.9,143.5L372.0,139.0L374.3,133.8L376.2,131.5L373.7,130.1L378.8,124.3L381.1,124.1L381.3,122.4L386.9,120.5L388.8,118.1L390.9,118.8L392.7,121.2L392.5,123.7L395.2,125.1L394.8,131.1L394.0,135.6L395.2,138.1L397.7,137.8L399.8,139.5L399.2,142.8L382.8,143.1L369.3,143.5L368.9,143.5Z"/>
    <path class="wtc-county" id="wtc-county-sequatchie" data-county="Sequatchie" d="M321.4,81.6L325.6,79.1L325.6,75.9L328.5,74.4L327.2,71.6L324.1,69.4L324.3,68.7L330.8,66.1L333.3,63.8L334.1,59.5L342.4,69.4L343.4,71.4L338.2,75.0L333.3,79.4L331.4,82.2L332.0,83.7L329.9,82.5L324.3,81.7L321.4,81.6Z"/>
    <path class="wtc-county" id="wtc-county-sevier" data-county="Sevier" d="M433.1,110.9L433.3,106.5L426.1,102.2L431.3,92.1L433.8,90.8L433.8,83.8L437.1,84.4L438.3,83.4L443.9,83.8L446.2,86.3L450.7,87.8L451.8,89.1L453.9,88.8L457.2,91.2L457.2,92.3L455.9,92.2L456.1,95.4L455.3,96.9L456.8,98.3L454.1,101.3L454.1,102.7L447.8,104.9L444.5,104.3L441.6,106.6L434.2,111.1L433.1,110.9Z"/>
    <path class="wtc-county" id="wtc-county-shelby" data-county="Shelby" d="M63.5,73.1L61.6,70.8L61.6,68.5L58.3,68.1L59.1,65.7L62.2,65.4L63.5,63.9L61.0,61.8L64.1,58.9L62.0,57.7L59.5,58.7L57.7,57.4L55.8,52.5L50.6,53.1L50.0,50.7L83.8,50.7L88.3,50.7L89.0,72.7L85.0,73.4L85.0,74.5L80.7,74.4L80.7,73.4L65.3,73.9L64.9,74.5L64.5,74.3L63.5,73.1Z"/>
    <path class="wtc-county" id="wtc-county-smith" data-county="Smith" d="M299.9,133.3L299.7,131.5L296.6,130.7L294.1,129.2L290.8,125.8L295.3,113.7L299.5,113.7L301.1,115.1L303.8,114.3L303.8,115.4L306.5,114.1L308.0,116.1L309.8,116.3L311.5,122.4L308.6,123.4L307.6,125.3L308.6,132.5L299.9,133.3Z"/>
    <path class="wtc-county" id="wtc-county-stewart" data-county="Stewart" d="M179.3,147.8L181.4,140.6L180.1,137.4L179.7,134.3L183.9,129.5L184.5,129.1L189.5,128.0L193.6,127.7L197.3,128.5L199.6,129.9L206.9,129.9L204.0,145.5L200.8,145.5L191.7,145.3L191.9,147.0L179.3,147.8Z"/>
    <path class="wtc-county" id="wtc-county-sullivan" data-county="Sullivan" d="M494.5,143.0L494.5,138.7L493.4,137.3L489.1,135.0L490.3,133.6L491.4,134.2L494.9,133.1L503.6,134.3L506.3,133.9L508.4,132.0L512.3,131.6L515.2,132.9L518.7,131.8L527.4,136.7L530.5,138.0L533.8,141.5L539.6,144.1L534.0,144.3L533.4,143.0L521.2,143.0L515.6,143.1L512.7,143.1L494.5,143.0Z"/>
    <path class="wtc-county" id="wtc-county-sumner" data-county="Sumner" d="M266.1,145.3L262.2,139.5L261.1,135.8L258.7,132.2L255.6,132.9L255.1,132.1L257.2,128.5L261.8,125.3L261.8,123.4L264.5,122.9L267.4,127.2L269.0,125.9L272.8,128.1L276.3,126.6L276.9,129.0L278.8,127.7L277.9,126.7L281.5,126.7L282.5,128.8L283.1,129.4L283.3,134.9L285.0,134.8L285.6,136.8L286.8,145.6L275.0,146.3L269.4,146.4L266.1,145.3Z"/>
    <path class="wtc-county" id="wtc-county-tipton" data-county="Tipton" d="M73.0,82.0L72.4,80.6L67.8,83.4L66.0,82.9L64.9,80.1L66.8,78.0L64.9,74.5L65.3,73.9L80.7,73.4L80.7,74.4L85.0,74.5L85.0,73.4L89.0,72.7L91.0,73.8L98.3,74.2L98.5,82.5L96.6,84.5L94.8,85.8L87.9,88.4L83.6,87.7L81.7,88.5L75.3,84.5L73.0,82.0ZM59.7,76.1L58.1,75.3L57.5,73.0L59.9,72.7L60.4,74.8L63.5,73.1L64.5,74.3L62.8,78.6L59.7,76.1Z"/>
    <path class="wtc-county" id="wtc-county-trousdale" data-county="Trousdale" d="M282.5,128.8L284.4,126.3L284.6,128.1L286.8,128.5L290.8,125.8L294.1,129.2L296.6,130.7L299.7,131.5L299.9,133.3L289.1,134.4L287.7,136.5L285.6,136.8L285.0,134.8L283.3,134.9L283.1,129.4L282.5,128.8Z"/>
    <path class="wtc-county" id="wtc-county-unicoi" data-county="Unicoi" d="M494.9,111.0L494.3,107.0L497.4,106.0L500.5,107.4L503.2,109.1L505.7,112.9L509.4,115.5L512.9,116.5L515.4,116.3L516.8,117.7L516.4,119.7L514.2,120.8L514.8,122.2L511.3,123.7L510.0,123.3L508.4,120.9L504.4,117.6L499.2,117.3L495.3,114.2L496.3,113.2L494.9,111.0Z"/>
    <path class="wtc-county" id="wtc-county-union" data-county="Union" d="M413.9,124.3L415.9,120.8L417.6,119.4L418.6,118.5L429.6,118.2L431.5,120.7L431.3,124.4L433.3,128.6L431.7,129.8L429.6,128.6L427.7,131.7L425.5,133.9L423.8,132.9L422.2,133.8L419.7,132.9L418.8,131.1L417.0,131.8L415.9,129.2L415.7,125.9L413.9,124.3Z"/>
    <path class="wtc-county" id="wtc-county-van-buren" data-county="Van Buren" d="M321.7,96.9L321.0,94.9L322.3,94.5L321.4,91.9L322.1,86.6L324.3,81.7L329.9,82.5L332.0,83.7L341.1,92.6L341.8,95.2L341.8,95.2L340.7,96.4L340.9,96.8L341.1,98.4L335.5,97.0L330.6,98.4L326.4,96.7L323.5,97.5L321.7,96.9Z"/>
    <path class="wtc-county" id="wtc-county-warren" data-county="Warren" d="M305.3,99.4L303.6,98.5L298.9,92.1L299.7,89.1L301.3,86.7L301.8,84.1L305.9,81.2L309.0,80.1L315.9,81.5L321.4,81.6L324.3,81.7L322.1,86.6L321.4,91.9L322.3,94.5L321.0,94.9L321.7,96.9L317.1,98.9L313.2,100.0L305.3,99.4Z"/>
    <path class="wtc-county" id="wtc-county-washington" data-county="Washington" d="M490.3,133.6L489.1,132.4L493.2,132.9L492.2,117.1L495.3,114.2L499.2,117.3L504.4,117.6L508.4,120.9L510.0,123.3L512.3,130.1L512.3,131.6L508.4,132.0L506.3,133.9L503.6,134.3L494.9,133.1L491.4,134.2L490.3,133.6Z"/>
    <path class="wtc-county" id="wtc-county-wayne" data-county="Wayne" d="M181.8,73.6L183.0,71.2L182.2,68.3L184.3,68.0L184.1,51.3L206.0,51.2L207.1,54.3L206.9,59.2L207.9,62.0L207.9,74.0L206.0,76.1L203.8,76.5L203.8,78.3L199.6,78.9L194.6,79.0L183.9,77.1L182.8,75.4L184.5,73.8L181.8,73.6Z"/>
    <path class="wtc-county" id="wtc-county-weakley" data-county="Weakley" d="M135.6,137.7L136.2,132.4L132.1,131.4L128.5,132.5L127.9,121.6L131.6,118.9L134.7,115.8L139.1,115.2L143.2,112.3L145.5,112.4L145.5,115.5L152.6,115.4L152.6,117.4L153.4,137.6L136.2,137.7L135.6,137.7Z"/>
    <path class="wtc-county" id="wtc-county-white" data-county="White" d="M317.1,98.9L321.7,96.9L323.5,97.5L326.4,96.7L330.6,98.4L335.5,97.0L341.1,98.4L340.9,96.8L342.6,97.7L344.2,103.5L342.4,103.7L341.1,107.5L338.4,108.3L338.6,110.5L327.2,113.4L324.1,112.9L322.5,111.0L321.2,111.3L319.2,109.6L318.1,107.0L319.6,101.9L317.7,100.4L319.8,100.2L317.1,98.9Z"/>
    <path class="wtc-county" id="wtc-county-williamson" data-county="Williamson" d="M229.2,106.3L228.6,100.1L239.0,96.9L250.0,92.8L253.7,91.8L259.1,92.0L258.2,92.7L260.5,96.6L263.4,96.6L263.8,100.3L262.6,103.8L263.0,106.8L253.1,110.8L245.2,111.7L238.8,108.1L237.9,111.3L230.5,111.5L229.2,106.3Z"/>
    <path class="wtc-county" id="wtc-county-wilson" data-county="Wilson" d="M264.5,122.9L265.7,118.7L268.2,116.8L269.0,114.5L280.0,107.8L284.1,106.4L289.5,106.6L290.0,106.0L293.9,106.7L297.8,106.4L295.3,113.7L290.8,125.8L286.8,128.5L284.6,128.1L284.4,126.3L282.5,128.8L281.5,126.7L277.9,126.7L278.8,127.7L276.9,129.0L276.3,126.6L272.8,128.1L269.0,125.9L267.4,127.2L264.5,122.9Z"/>
  </g>
</svg>