<?xml version="1.0" encoding="UTF-8"?>
<svg xmlns="http://www.w3.org/2000/svg" viewBox="0 0 600 293" id="wtc-state-map-MT" role="img" aria-label="mt county map">
  <title>mt Counties</title>
  <g class="wtc-counties">
    <path class="wtc-county" id="wtc-county-beaverhead" data-county="Beaverhead" d="M137.7,105.3L139.7,103.5L139.4,102.6L141.2,102.7L143.4,101.8L142.3,98.4L145.2,98.4L145.3,96.7L144.4,95.7L145.3,93.6L146.5,93.0L146.2,90.5L148.3,88.5L148.5,87.3L152.1,84.7L153.1,82.0L155.6,81.5L155.3,80.6L158.2,79.2L158.8,77.0L158.5,75.0L156.4,74.6L158.0,71.1L162.2,69.2L162.8,67.8L166.7,69.3L171.5,67.3L174.2,63.4L174.9,61.6L173.6,59.9L176.7,57.0L176.0,55.8L176.9,53.9L179.1,52.4L181.8,51.6L183.4,50.0L184.8,50.8L183.9,52.7L186.1,55.3L188.7,56.1L191.2,55.3L196.1,55.2L197.8,54.4L199.0,55.1L202.6,53.7L203.8,55.3L204.1,57.5L205.4,57.5L206.8,58.8L209.1,58.5L210.9,57.3L213.0,57.5L214.2,56.8L217.4,57.8L218.9,57.4L220.8,58.3L224.1,58.5L226.0,56.3L230.5,57.7L231.0,58.4L234.5,57.9L235.9,58.5L240.7,57.6L238.4,59.9L240.8,63.4L240.2,64.6L227.8,64.6L227.8,67.6L215.9,67.7L215.9,69.5L211.7,69.5L211.7,73.1L210.8,73.1L210.6,76.8L204.8,76.8L204.8,80.4L199.6,80.4L199.3,93.1L197.6,95.2L194.7,94.6L192.6,95.1L189.9,96.9L189.3,98.9L190.0,100.4L190.0,102.7L189.4,104.9L188.1,105.3L187.0,107.9L184.3,108.9L181.1,109.2L180.0,110.1L177.5,110.4L173.4,112.6L172.8,113.4L169.5,113.6L167.5,112.8L165.5,110.8L163.0,110.6L161.9,108.3L160.6,108.6L158.9,110.3L159.1,111.3L156.4,115.7L155.5,115.8L155.1,113.4L152.4,112.1L149.2,111.5L148.0,111.8L142.5,108.0L140.9,109.3L138.9,107.8L139.1,105.8L137.7,105.3Z"/>
    <path class="wtc-county" id="wtc-county-big-horn" data-county="Big Horn" d="M358.3,96.0L357.1,95.0L356.0,90.5L356.0,86.1L356.5,85.8L380.8,85.9L379.8,85.7L377.4,80.9L375.2,79.1L374.9,76.7L388.9,76.8L421.2,76.7L423.3,76.6L457.5,76.5L457.5,84.2L456.8,84.2L436.4,84.2L436.4,91.4L438.1,91.3L438.1,104.7L430.5,105.2L430.5,109.5L431.9,109.5L431.9,111.3L429.4,111.3L429.4,112.9L424.6,112.9L424.6,114.7L419.5,114.7L419.5,116.6L409.1,116.6L409.1,120.2L405.5,120.2L398.8,120.2L398.8,117.7L393.5,117.7L393.5,116.6L391.9,116.6L391.9,115.3L390.1,115.3L390.1,114.2L383.2,114.2L383.2,109.3L382.3,109.3L382.3,98.3L377.1,98.3L377.1,97.1L372.0,97.1L372.0,95.9L358.3,96.0Z"/>
    <path class="wtc-county" id="wtc-county-blaine" data-county="Blaine" d="M323.2,243.3L323.2,239.7L322.6,239.7L322.6,225.2L322.9,223.5L324.2,223.5L324.2,220.5L322.9,220.5L322.9,218.1L322.0,218.1L322.0,213.8L320.6,213.8L320.6,210.8L321.4,210.8L321.4,207.2L321.1,190.7L322.3,191.0L325.9,189.9L330.5,191.6L332.1,193.0L338.1,192.5L340.8,193.3L345.9,193.0L346.9,191.5L345.9,190.3L348.1,190.6L348.3,198.4L359.2,198.3L359.9,201.3L361.4,200.8L367.1,200.6L367.1,210.8L368.1,210.8L368.1,220.3L370.8,219.2L370.8,225.3L371.9,225.3L371.9,232.5L374.4,232.5L374.4,239.7L375.3,239.7L375.3,243.2L343.8,243.2L323.2,243.3Z"/>
    <path class="wtc-county" id="wtc-county-broadwater" data-county="Broadwater" d="M227.5,142.1L227.5,124.0L227.7,120.4L232.8,120.4L232.8,111.4L235.7,114.4L237.5,114.6L240.8,116.5L241.3,118.3L242.8,118.1L242.6,120.9L245.5,123.3L245.9,124.7L247.5,126.2L257.7,126.4L257.0,128.8L255.0,129.9L255.3,131.4L257.3,132.8L257.7,135.4L253.4,137.0L252.6,136.4L249.9,136.7L249.6,139.1L246.5,140.7L246.8,144.0L246.2,144.8L243.4,145.0L243.1,146.3L241.6,146.7L241.3,149.4L239.6,150.1L235.1,150.8L233.7,149.1L233.7,142.6L234.0,142.1L227.5,142.1Z"/>
    <path class="wtc-county" id="wtc-county-carbon" data-county="Carbon" d="M310.3,83.7L310.3,76.8L339.3,77.0L340.9,76.7L359.3,76.7L374.9,76.7L375.2,79.1L377.4,80.9L379.8,85.7L380.8,85.9L356.5,85.8L356.0,86.1L356.0,90.5L357.1,95.0L358.3,96.0L356.2,96.0L356.0,98.5L353.5,98.5L353.5,99.7L351.9,99.7L352.6,103.3L350.1,102.1L346.3,101.8L344.7,102.4L340.6,101.0L338.3,101.2L338.3,98.5L335.6,98.5L335.6,96.1L328.7,96.0L326.2,95.4L325.3,94.2L323.6,94.2L322.7,93.0L319.1,90.6L318.2,89.4L318.2,87.6L314.9,87.6L314.9,83.7L310.3,83.7Z"/>
    <path class="wtc-county" id="wtc-county-carter" data-county="Carter" d="M510.8,109.5L510.5,91.4L508.5,91.4L508.5,76.7L532.1,76.6L549.3,76.6L550.0,76.8L550.0,85.6L550.0,107.9L549.9,113.4L546.1,113.4L546.1,117.1L535.5,117.1L535.5,120.6L530.3,120.6L530.3,124.0L514.9,124.0L512.6,124.0L512.6,109.5L510.8,109.5Z"/>
    <path class="wtc-county" id="wtc-county-cascade" data-county="Cascade" d="M216.6,181.5L216.8,168.0L219.6,167.6L221.1,166.0L223.9,165.3L227.4,165.3L227.4,156.4L232.9,156.4L237.8,156.4L237.8,160.0L248.4,160.0L248.4,160.5L253.7,160.5L253.7,163.7L257.0,163.6L257.1,161.9L255.9,161.2L257.3,160.2L260.4,160.2L264.0,159.2L266.2,156.7L270.1,155.1L270.6,153.5L273.0,153.5L274.7,152.6L275.5,153.2L275.0,164.0L269.8,164.0L270.0,169.7L269.1,170.3L269.1,172.8L270.0,172.4L270.0,174.9L275.3,174.9L275.3,177.3L275.2,178.6L270.0,178.5L270.0,181.9L265.9,181.8L264.9,183.0L262.9,182.8L258.2,184.9L261.3,189.1L243.2,189.1L232.6,189.0L232.6,185.4L221.8,185.4L221.8,181.0L216.6,181.5Z"/>
    <path class="wtc-county" id="wtc-county-chouteau" data-county="Chouteau" d="M243.2,207.1L243.2,201.1L243.2,189.1L261.3,189.1L258.2,184.9L262.9,182.8L264.9,183.0L265.9,181.8L270.0,181.9L270.0,178.5L275.2,178.6L275.3,177.3L293.0,177.3L295.2,177.3L298.7,178.6L300.6,179.9L301.8,179.8L305.5,181.7L308.2,182.5L308.2,185.2L309.0,187.0L308.7,189.6L313.4,189.2L315.4,190.6L321.1,190.7L321.4,207.2L313.3,207.2L313.3,210.8L308.4,210.7L308.4,214.3L275.9,214.4L275.9,210.8L270.4,210.8L267.4,210.8L267.4,207.2L243.2,207.1Z"/>
    <path class="wtc-county" id="wtc-county-custer" data-county="Custer" d="M464.8,153.6L463.5,153.0L463.5,138.5L462.0,138.5L462.1,124.1L460.5,124.1L460.5,109.5L482.6,109.5L510.8,109.5L512.6,109.5L512.6,124.0L514.9,124.0L514.9,131.4L514.0,131.4L514.0,138.4L521.2,138.4L521.2,143.8L515.9,143.8L515.9,142.0L510.7,142.1L510.7,140.8L500.1,140.9L500.1,142.1L491.4,142.1L491.4,143.3L489.6,143.3L489.6,145.7L486.0,145.7L486.0,149.4L484.4,149.4L484.4,153.0L475.4,153.0L475.4,154.2L464.8,154.1L464.8,153.6Z"/>
    <path class="wtc-county" id="wtc-county-daniels" data-county="Daniels" d="M463.8,243.2L463.8,239.5L462.1,239.5L462.1,235.9L467.5,235.9L467.5,225.1L476.6,225.1L511.1,225.1L511.1,228.7L508.5,228.7L508.5,239.5L507.7,239.5L507.7,243.2L463.8,243.2Z"/>
    <path class="wtc-county" id="wtc-county-dawson" data-county="Dawson" d="M500.4,192.9L495.0,192.9L495.0,182.0L493.2,182.0L493.2,167.5L496.5,167.5L496.5,159.0L501.9,159.0L501.9,156.6L507.3,156.6L508.9,155.4L508.9,154.2L526.5,154.2L531.0,154.2L534.6,156.0L538.9,161.7L538.5,167.5L535.7,172.0L533.0,173.3L534.2,174.7L530.4,174.7L530.4,182.0L527.0,182.0L527.0,185.6L511.0,185.6L511.0,189.3L500.2,189.3L500.4,192.9Z"/>
    <path class="wtc-county" id="wtc-county-deer-lodge" data-county="Deer Lodge" d="M155.5,115.8L155.5,115.8L156.4,115.7L159.1,111.3L158.9,110.3L160.6,108.6L161.9,108.3L163.0,110.6L165.5,110.8L167.5,112.8L169.5,113.6L172.8,113.4L173.4,112.6L176.0,113.0L180.0,115.3L179.6,118.1L181.8,118.3L183.1,120.3L186.3,120.3L186.3,124.0L190.3,124.0L192.0,125.6L194.7,125.8L193.8,128.2L195.4,129.4L175.5,129.5L175.5,127.6L165.2,127.6L165.7,124.0L165.5,120.2L163.1,118.6L161.3,119.1L158.6,117.6L157.0,115.8L155.5,115.8Z"/>
    <path class="wtc-county" id="wtc-county-fallon" data-county="Fallon" d="M521.2,143.8L521.2,138.4L514.0,138.4L514.0,131.4L514.9,131.4L514.9,124.0L530.3,124.0L530.3,120.6L535.5,120.6L535.5,117.1L546.1,117.1L546.1,113.4L549.9,113.4L549.9,116.1L549.7,118.3L549.9,130.0L549.9,140.9L549.9,145.1L537.0,145.1L537.0,146.2L534.3,146.9L526.4,146.9L526.4,145.7L521.2,145.7L521.2,143.8Z"/>
    <path class="wtc-county" id="wtc-county-fergus" data-county="Fergus" d="M293.0,177.3L293.0,174.9L296.6,174.9L296.6,171.3L301.9,171.3L301.9,169.5L307.2,169.5L307.3,167.7L312.1,167.7L312.1,155.6L310.3,154.4L310.3,152.9L308.8,152.9L309.0,151.8L312.1,150.8L312.6,147.2L327.3,147.2L327.3,149.6L343.2,149.6L358.9,149.5L358.9,153.2L359.8,153.2L359.8,164.1L354.5,164.1L354.5,167.6L355.3,167.6L355.3,171.2L360.5,171.2L360.5,172.7L371.1,172.8L372.0,173.1L372.2,184.3L371.3,183.6L369.0,184.6L367.4,184.5L366.8,185.6L364.0,185.0L363.4,185.8L361.4,185.4L359.8,186.0L357.2,185.8L354.8,187.1L353.0,186.9L352.6,188.4L351.0,189.6L348.1,190.6L345.9,190.3L346.9,191.5L345.9,193.0L340.8,193.3L338.1,192.5L332.1,193.0L330.5,191.6L325.9,189.9L322.3,191.0L321.1,190.7L315.4,190.6L313.4,189.2L308.7,189.6L309.0,187.0L308.2,185.2L308.2,182.5L305.5,181.7L301.8,179.8L300.6,179.9L298.7,178.6L295.2,177.3L293.0,177.3Z"/>
    <path class="wtc-county" id="wtc-county-flathead" data-county="Flathead" d="M105.1,243.3L106.9,242.1L105.4,240.7L106.6,236.7L104.8,235.3L107.4,234.9L109.9,232.9L107.1,231.8L106.6,229.9L108.7,229.0L98.4,229.0L98.4,225.5L100.1,225.5L100.1,211.0L92.9,211.0L93.3,207.4L93.3,202.4L94.2,201.8L94.2,196.3L110.2,196.4L110.2,192.9L115.5,192.9L115.5,196.4L114.9,196.4L114.9,200.0L133.8,200.1L132.2,202.6L134.1,203.8L140.3,203.8L141.9,200.7L143.5,200.8L146.1,199.5L149.4,196.7L148.9,196.0L149.8,192.2L149.4,191.0L151.9,190.0L151.8,187.6L150.6,185.0L157.6,185.0L163.4,184.8L171.0,184.8L171.6,187.5L170.1,190.4L173.7,191.2L174.3,192.3L174.5,196.9L173.4,198.2L176.1,198.6L177.6,199.7L180.8,199.4L182.1,200.6L180.9,202.9L179.3,202.9L179.7,203.9L177.8,204.7L177.8,206.5L176.4,207.1L174.9,206.7L174.3,207.9L171.5,207.4L169.1,208.9L167.5,208.7L167.2,211.9L164.9,212.7L162.5,214.5L161.0,215.7L162.8,217.1L162.1,219.2L160.7,219.0L157.0,220.6L157.6,221.4L157.6,224.4L154.5,226.0L151.9,225.6L145.8,227.2L147.6,232.2L144.9,234.8L145.5,235.6L144.0,236.8L139.2,236.9L137.4,235.7L135.3,236.2L135.8,237.1L133.1,238.6L134.9,239.5L133.5,240.4L134.4,241.7L132.5,243.2L105.1,243.3Z"/>
    <path class="wtc-county" id="wtc-county-gallatin" data-county="Gallatin" d="M226.8,109.9L230.2,108.9L230.2,107.7L232.8,107.7L233.7,106.4L235.4,105.9L238.0,103.5L245.6,103.4L245.8,91.3L244.7,91.3L244.6,66.4L246.8,65.2L251.0,61.1L250.7,59.5L254.3,57.4L255.2,55.7L258.3,54.8L258.0,62.8L257.9,71.2L258.0,76.8L258.5,76.8L258.8,84.0L258.8,91.3L263.7,91.3L263.7,98.6L266.2,98.6L266.2,101.3L268.8,101.3L268.8,109.4L269.1,109.4L268.9,117.9L269.4,126.4L257.7,126.4L247.5,126.2L245.9,124.7L245.5,123.3L242.6,120.9L242.8,118.1L241.3,118.3L240.8,116.5L237.5,114.6L235.7,114.4L232.8,111.4L231.0,109.9L226.8,109.9Z"/>
    <path class="wtc-county" id="wtc-county-garfield" data-county="Garfield" d="M387.0,171.2L386.5,170.5L388.2,167.0L386.8,165.3L388.3,161.9L390.0,160.0L388.9,158.7L387.7,154.9L389.7,153.8L407.3,153.8L407.3,154.1L438.5,154.1L438.5,153.5L464.8,153.6L464.8,154.1L464.8,167.5L461.4,167.5L461.4,174.7L456.0,174.7L456.0,182.0L457.7,182.0L457.7,196.1L453.6,196.1L453.5,199.8L451.1,199.9L449.9,200.9L447.6,199.9L448.1,198.8L446.3,197.6L447.2,196.6L444.9,195.0L443.3,192.7L441.2,192.9L438.8,192.1L437.9,190.6L432.5,190.7L431.8,188.2L426.4,187.6L422.1,187.8L416.4,187.5L415.1,188.3L409.5,188.8L408.5,186.0L406.1,185.9L405.2,186.7L401.5,186.9L401.2,186.3L397.9,186.2L396.4,183.8L395.0,182.8L392.8,182.7L390.9,181.4L390.9,179.0L388.9,178.8L388.9,176.8L386.8,174.6L387.0,171.2Z"/>
    <path class="wtc-county" id="wtc-county-glacier" data-county="Glacier" d="M132.5,243.2L134.4,241.7L133.5,240.4L134.9,239.5L133.1,238.6L135.8,237.1L135.3,236.2L137.4,235.7L139.2,236.9L144.0,236.8L145.5,235.6L144.9,234.8L147.6,232.2L145.8,227.2L151.9,225.6L154.5,226.0L157.6,224.4L157.6,221.4L157.0,220.6L160.7,219.0L162.1,219.2L162.8,217.1L161.0,215.7L162.5,214.5L194.7,214.5L194.7,221.7L209.1,221.7L210.9,221.5L210.8,225.2L210.8,239.7L210.6,243.2L176.6,243.2L148.2,243.1L132.5,243.2Z"/>
    <path class="wtc-county" id="wtc-county-golden-valley" data-county="Golden Valley" d="M316.3,127.5L316.3,123.9L318.4,123.9L318.4,120.2L326.2,120.2L326.3,123.9L346.8,123.9L352.7,123.9L352.7,129.9L350.5,131.7L350.7,132.9L349.3,133.5L349.3,137.2L347.5,138.7L347.5,142.4L344.1,142.4L343.2,144.2L343.2,149.6L327.3,149.6L327.3,147.2L327.3,138.8L326.7,138.8L326.7,127.5L316.3,127.5Z"/>
    <path class="wtc-county" id="wtc-county-granite" data-county="Granite" d="M142.5,145.9L143.5,144.6L141.0,138.8L141.3,135.8L142.9,135.3L144.4,133.4L144.9,131.7L144.3,130.3L145.8,129.3L144.6,127.8L142.9,127.3L144.0,124.6L145.6,123.1L143.5,120.0L145.6,120.3L148.3,119.8L149.4,117.5L153.1,115.8L155.5,115.8L157.0,115.8L158.6,117.6L161.3,119.1L163.1,118.6L165.5,120.2L165.7,124.0L165.2,127.6L175.5,127.6L175.5,129.5L175.4,149.0L172.2,148.0L169.7,148.8L169.8,149.7L167.5,151.0L166.0,152.8L164.5,153.0L159.7,153.0L159.7,151.8L157.0,151.8L157.0,149.4L154.3,149.4L154.0,148.2L149.2,148.2L149.2,145.7L142.5,145.9Z"/>
    <path class="wtc-county" id="wtc-county-hill" data-county="Hill" d="M271.0,243.2L271.0,239.7L270.4,210.8L275.9,210.8L275.9,214.4L308.4,214.3L308.4,210.7L313.3,210.8L313.3,207.2L321.4,207.2L321.4,210.8L320.6,210.8L320.6,213.8L322.0,213.8L322.0,218.1L322.9,218.1L322.9,220.5L324.2,220.5L324.2,223.5L322.9,223.5L322.6,225.2L322.6,239.7L323.2,239.7L323.2,243.3L294.8,243.2L271.0,243.2Z"/>
    <path class="wtc-county" id="wtc-county-jefferson" data-county="Jefferson" d="M195.4,129.4L193.8,128.2L194.7,125.8L197.6,126.0L197.0,124.0L199.3,122.2L199.0,120.0L200.2,119.7L200.5,115.9L201.8,113.7L201.4,111.6L209.7,108.6L210.8,107.9L213.0,108.8L214.2,111.7L217.7,112.5L219.3,111.9L221.5,112.4L222.3,111.3L225.1,110.9L226.8,109.9L231.0,109.9L232.8,111.4L232.8,120.4L227.7,120.4L227.5,124.0L227.5,142.1L217.8,142.0L215.1,139.8L213.0,140.1L210.0,139.2L211.4,137.3L209.7,137.1L207.5,135.6L205.7,135.9L204.1,134.4L201.8,134.4L199.7,132.0L197.9,132.6L194.9,131.0L195.4,129.4Z"/>
    <path class="wtc-county" id="wtc-county-judith-basin" data-county="Judith Basin" d="M275.3,177.3L275.3,174.9L270.0,174.9L270.0,172.4L269.1,172.8L269.1,170.3L270.0,169.7L269.8,164.0L275.0,164.0L275.5,153.2L274.7,152.6L276.1,150.5L278.5,150.5L278.5,149.1L281.8,147.6L282.5,146.6L286.3,147.2L288.2,146.4L290.6,147.9L293.1,147.9L294.0,148.6L296.6,148.3L297.2,149.1L299.9,149.5L300.7,149.0L303.1,149.7L309.4,147.2L312.6,147.2L312.1,150.8L309.0,151.8L308.8,152.9L310.3,152.9L310.3,154.4L312.1,155.6L312.1,167.7L307.3,167.7L307.2,169.5L301.9,169.5L301.9,171.3L296.6,171.3L296.6,174.9L293.0,174.9L293.0,177.3L275.3,177.3Z"/>
    <path class="wtc-county" id="wtc-county-lake" data-county="Lake" d="M110.2,192.9L111.1,191.1L111.1,185.0L120.8,185.0L121.7,183.2L120.2,182.5L119.5,180.1L122.9,180.6L123.5,179.5L121.9,179.4L120.7,176.2L123.4,174.8L127.0,174.8L127.0,167.6L127.6,165.7L138.2,165.7L138.2,167.6L142.8,167.6L142.6,171.4L140.7,172.0L140.0,174.7L140.7,176.3L139.4,178.6L137.4,179.8L139.2,181.4L137.6,185.0L150.6,185.0L151.8,187.6L151.9,190.0L149.4,191.0L149.8,192.2L148.9,196.0L149.4,196.7L146.1,199.5L143.5,200.8L141.9,200.7L140.3,203.8L134.1,203.8L132.2,202.6L133.8,200.1L114.9,200.0L114.9,196.4L115.5,196.4L115.5,192.9L110.2,192.9Z"/>
    <path class="wtc-county" id="wtc-county-lewis-and-clark" data-county="Lewis and Clark" d="M177.6,199.7L176.1,198.6L173.4,198.2L174.5,196.9L174.3,192.3L173.7,191.2L170.1,190.4L171.6,187.5L171.0,184.8L172.2,180.4L174.6,180.3L174.6,167.5L185.5,167.3L185.5,153.0L196.3,153.1L196.3,147.5L201.5,147.5L201.5,145.7L205.3,145.7L206.5,143.5L205.4,142.3L206.5,140.4L205.9,139.6L205.7,135.9L207.5,135.6L209.7,137.1L211.4,137.3L210.0,139.2L213.0,140.1L215.1,139.8L217.8,142.0L227.5,142.1L234.0,142.1L233.7,142.6L233.7,149.1L235.1,150.8L239.6,150.1L239.6,151.3L235.3,152.0L233.4,153.5L235.0,155.5L232.9,156.4L227.4,156.4L227.4,165.3L223.9,165.3L221.1,166.0L219.6,167.6L216.8,168.0L216.6,181.5L212.6,181.5L209.7,180.9L207.1,181.1L204.4,182.9L201.8,183.0L201.1,184.9L195.1,186.5L188.4,185.7L186.1,184.9L183.0,186.2L180.8,188.8L181.1,190.4L180.2,191.7L180.5,194.9L177.6,199.7Z"/>
    <path class="wtc-county" id="wtc-county-liberty" data-county="Liberty" d="M243.2,210.8L243.2,207.1L267.4,207.2L267.4,210.8L270.4,210.8L271.0,239.7L271.0,243.2L249.0,243.1L248.9,239.7L248.9,210.8L243.2,210.8Z"/>
    <path class="wtc-county" id="wtc-county-lincoln" data-county="Lincoln" d="M50.1,222.5L50.0,210.6L51.5,210.2L51.3,208.7L53.9,207.8L54.8,209.3L60.5,210.9L61.7,212.4L64.2,211.9L65.7,209.8L64.8,208.9L66.9,207.1L67.2,204.8L71.4,200.9L70.6,199.0L72.7,197.8L75.9,197.9L76.9,198.9L77.9,197.6L80.3,198.3L82.0,197.1L85.9,198.2L86.6,200.6L88.1,200.9L87.7,202.4L93.3,202.4L93.3,207.4L92.9,211.0L100.1,211.0L100.1,225.5L98.4,225.5L98.4,229.0L108.7,229.0L106.6,229.9L107.1,231.8L109.9,232.9L107.4,234.9L104.8,235.3L106.6,236.7L105.4,240.7L106.9,242.1L105.1,243.3L85.1,243.2L50.1,243.3L50.1,222.5Z"/>
    <path class="wtc-county" id="wtc-county-mccone" data-county="McCone" d="M475.0,202.0L472.6,203.0L471.8,201.8L468.3,203.0L467.8,201.9L464.8,203.1L464.5,202.0L462.4,201.9L463.2,202.9L458.8,202.7L455.1,203.9L451.8,204.2L450.6,202.4L451.1,199.9L453.5,199.8L453.6,196.1L457.7,196.1L457.7,182.0L456.0,182.0L456.0,174.7L461.4,174.7L461.4,167.5L464.8,167.5L470.2,167.5L470.1,163.8L475.4,163.8L475.4,167.5L493.2,167.5L493.2,182.0L495.0,182.0L495.0,192.9L500.4,192.9L500.4,196.1L502.0,196.1L502.0,204.4L500.5,205.3L496.8,204.9L496.4,205.5L491.3,205.3L489.2,205.7L488.0,204.4L486.5,205.1L483.1,204.8L483.4,203.8L481.1,203.8L478.9,202.7L475.0,202.0Z"/>
    <path class="wtc-county" id="wtc-county-madison" data-county="Madison" d="M190.0,102.7L190.0,100.4L189.3,98.9L189.9,96.9L192.6,95.1L194.7,94.6L197.6,95.2L199.3,93.1L199.6,80.4L204.8,80.4L204.8,76.8L210.6,76.8L210.8,73.1L211.7,73.1L211.7,69.5L215.9,69.5L215.9,67.7L227.8,67.6L227.8,64.6L240.2,64.6L243.1,64.7L244.6,66.4L244.7,91.3L245.8,91.3L245.6,103.4L238.0,103.5L235.4,105.9L233.7,106.4L232.8,107.7L230.2,107.7L230.2,108.9L226.8,109.9L225.1,110.9L222.3,111.3L221.5,112.4L219.3,111.9L217.7,112.5L214.2,111.7L213.0,108.8L210.8,107.9L199.4,107.6L197.9,108.3L195.7,105.2L190.0,102.7Z"/>
    <path class="wtc-county" id="wtc-county-meagher" data-county="Meagher" d="M232.9,156.4L235.0,155.5L233.4,153.5L235.3,152.0L239.6,151.3L239.6,150.1L241.3,149.4L241.6,146.7L243.1,146.3L243.4,145.0L246.2,144.8L246.8,144.0L246.5,140.7L249.6,139.1L249.9,136.7L252.6,136.4L253.4,137.0L257.7,135.4L257.3,132.8L255.3,131.4L255.0,129.9L257.0,128.8L257.7,126.4L269.4,126.4L284.9,126.4L284.9,126.0L290.1,126.0L290.1,127.5L290.1,138.7L290.6,138.7L290.6,147.9L288.2,146.4L286.3,147.2L282.5,146.6L281.8,147.6L278.5,149.1L278.5,150.5L276.1,150.5L274.7,152.6L273.0,153.5L270.6,153.5L270.1,155.1L266.2,156.7L264.0,159.2L260.4,160.2L257.3,160.2L255.9,161.2L257.1,161.9L257.0,163.6L253.7,163.7L253.7,160.5L248.4,160.5L248.4,160.0L237.8,160.0L237.8,156.4L232.9,156.4Z"/>
    <path class="wtc-county" id="wtc-county-mineral" data-county="Mineral" d="M67.6,179.9L67.2,179.1L63.9,178.9L62.1,177.6L63.7,177.6L70.8,174.5L71.8,172.6L76.6,171.0L80.2,170.6L81.5,169.2L81.2,167.8L82.9,167.6L83.6,166.2L85.4,165.8L88.0,163.8L90.8,160.9L91.7,158.8L93.6,158.8L95.3,157.2L96.6,156.7L96.0,154.1L98.4,152.0L103.5,149.9L102.6,148.0L103.5,147.4L107.2,149.0L107.2,149.5L112.5,149.5L112.6,153.0L111.9,153.0L111.9,158.4L113.5,160.4L116.6,159.7L118.0,160.9L115.3,160.9L115.3,162.8L111.9,162.8L111.0,165.1L109.2,165.1L108.3,167.0L105.7,167.6L105.7,169.4L103.0,169.4L102.2,171.2L100.4,171.2L100.4,172.4L95.0,173.0L94.7,176.4L90.0,177.8L88.4,177.6L87.2,178.6L82.0,180.3L79.4,179.6L77.0,180.2L75.3,179.4L71.8,180.6L71.5,179.8L67.6,179.9Z"/>
    <path class="wtc-county" id="wtc-county-missoula" data-county="Missoula" d="M102.2,171.2L103.0,169.4L105.7,169.4L105.7,167.6L108.3,167.0L109.2,165.1L111.0,165.1L111.9,162.8L115.3,162.8L115.3,160.9L118.0,160.9L116.6,159.7L113.5,160.4L111.9,158.4L111.9,153.0L112.6,153.0L112.5,149.5L107.2,149.5L107.2,149.0L109.5,147.8L108.6,146.4L110.7,144.7L112.6,145.2L115.9,144.6L116.5,145.4L120.4,146.2L121.6,145.9L142.5,145.9L149.2,145.7L149.2,148.2L154.0,148.2L154.3,149.4L157.0,149.4L157.0,151.8L159.7,151.8L159.7,153.0L164.5,153.0L164.5,167.5L157.6,167.5L157.6,185.0L150.6,185.0L137.6,185.0L139.2,181.4L137.4,179.8L139.4,178.6L140.7,176.3L140.0,174.7L140.7,172.0L142.6,171.4L142.8,167.6L138.2,167.6L138.2,165.7L127.6,165.7L124.9,165.0L120.5,166.6L121.0,167.3L117.7,168.7L116.5,168.6L111.9,170.6L106.8,171.4L105.9,170.6L102.2,171.2Z"/>
    <path class="wtc-county" id="wtc-county-musselshell" data-county="Musselshell" d="M343.2,149.6L343.2,144.2L344.1,142.4L347.5,142.4L347.5,138.7L349.3,137.2L349.3,133.5L350.7,132.9L350.5,131.7L352.7,129.9L352.7,123.9L368.3,123.9L368.3,128.2L370.1,128.1L371.9,129.3L384.0,129.3L384.0,131.2L388.2,134.8L394.3,134.8L394.3,139.0L393.7,139.0L393.7,143.2L391.9,143.2L393.8,146.7L392.5,147.6L392.3,149.8L374.3,149.7L369.3,149.6L358.9,149.5L343.2,149.6Z"/>
    <path class="wtc-county" id="wtc-county-park" data-county="Park" d="M258.5,76.8L269.2,76.8L272.5,76.4L285.2,76.5L286.8,76.8L293.6,76.6L297.3,76.9L310.3,76.8L310.3,83.7L310.3,83.9L299.3,83.9L292.4,83.9L292.4,91.2L292.8,91.2L292.8,104.6L292.7,109.4L289.7,109.4L289.7,123.9L290.1,126.0L284.9,126.0L284.9,126.4L269.4,126.4L268.9,117.9L269.1,109.4L268.8,109.4L268.8,101.3L266.2,101.3L266.2,98.6L263.7,98.6L263.7,91.3L258.8,91.3L258.8,84.0L258.5,76.8Z"/>
    <path class="wtc-county" id="wtc-county-petroleum" data-county="Petroleum" d="M372.2,184.3L372.0,173.1L371.1,172.8L360.5,172.7L360.5,171.2L355.3,171.2L355.3,167.6L354.5,167.6L354.5,164.1L359.8,164.1L359.8,153.2L358.9,153.2L358.9,149.5L369.3,149.6L374.3,149.7L392.3,149.8L391.8,151.7L389.7,153.8L387.7,154.9L388.9,158.7L390.0,160.0L388.3,161.9L386.8,165.3L388.2,167.0L386.5,170.5L387.0,171.2L386.8,174.6L388.9,176.8L388.9,178.8L389.4,181.2L388.2,183.6L386.2,184.4L382.5,184.9L377.7,184.1L376.8,184.5L372.2,184.3Z"/>
    <path class="wtc-county" id="wtc-county-phillips" data-county="Phillips" d="M375.3,243.2L375.3,239.7L374.4,239.7L374.4,232.5L371.9,232.5L371.9,225.3L370.8,225.3L370.8,219.2L368.1,220.3L368.1,210.8L367.1,210.8L367.1,200.6L361.4,200.8L359.9,201.3L359.2,198.3L348.3,198.4L348.1,190.6L351.0,189.6L352.6,188.4L353.0,186.9L354.8,187.1L357.2,185.8L359.8,186.0L361.4,185.4L363.4,185.8L364.0,185.0L366.8,185.6L367.4,184.5L369.0,184.6L371.3,183.6L372.2,184.3L376.8,184.5L377.7,184.1L382.5,184.9L386.2,184.4L388.2,183.6L389.4,181.2L388.9,178.8L390.9,179.0L390.9,181.4L392.8,182.7L395.0,182.8L396.4,183.8L397.9,186.2L401.2,186.3L401.5,186.9L405.2,186.7L406.1,185.9L408.5,186.0L409.5,188.8L409.5,196.2L410.0,196.2L410.0,210.7L411.5,210.7L411.5,214.3L416.0,214.3L416.0,218.0L414.3,218.0L414.3,221.6L416.1,221.6L416.4,223.1L418.8,222.8L418.2,225.3L418.2,239.6L419.4,239.6L419.4,243.2L408.5,243.2L375.3,243.2Z"/>
    <path class="wtc-county" id="wtc-county-pondera" data-county="Pondera" d="M162.5,214.5L164.9,212.7L167.2,211.9L167.5,208.7L169.1,208.9L171.5,207.4L174.3,207.9L174.9,206.7L176.4,207.1L211.2,207.0L211.2,205.3L216.6,205.2L216.6,203.4L219.3,203.4L219.3,201.0L243.2,201.1L243.2,207.1L243.2,210.8L232.6,210.8L232.6,216.2L227.2,216.2L227.2,218.0L219.0,218.0L219.0,219.9L215.6,220.1L210.9,221.5L209.1,221.7L194.7,221.7L194.7,214.5L162.5,214.5Z"/>
    <path class="wtc-county" id="wtc-county-powder-river" data-county="Powder River" d="M460.5,109.5L458.7,109.5L458.8,108.2L458.7,91.3L456.8,91.3L456.8,84.2L457.5,84.2L457.5,76.5L467.4,76.5L474.8,76.7L507.0,76.7L508.5,76.7L508.5,91.4L510.5,91.4L510.8,109.5L482.6,109.5L460.5,109.5Z"/>
    <path class="wtc-county" id="wtc-county-powell" data-county="Powell" d="M157.6,185.0L157.6,167.5L164.5,167.5L164.5,153.0L166.0,152.8L167.5,151.0L169.8,149.7L169.7,148.8L172.2,148.0L175.4,149.0L175.5,129.5L195.4,129.4L194.9,131.0L197.9,132.6L199.7,132.0L201.8,134.4L204.1,134.4L205.7,135.9L205.9,139.6L206.5,140.4L205.4,142.3L206.5,143.5L205.3,145.7L201.5,145.7L201.5,147.5L196.3,147.5L196.3,153.1L185.5,153.0L185.5,167.3L174.6,167.5L174.6,180.3L172.2,180.4L171.0,184.8L163.4,184.8L157.6,185.0Z"/>
    <path class="wtc-county" id="wtc-county-prairie" data-county="Prairie" d="M464.8,167.5L464.8,154.1L475.4,154.2L475.4,153.0L484.4,153.0L484.4,149.4L486.0,149.4L486.0,145.7L489.6,145.7L489.6,143.3L491.4,143.3L491.4,142.1L500.1,142.1L500.1,140.9L510.7,140.8L510.7,142.1L515.9,142.0L515.9,143.8L521.2,143.8L521.2,145.7L526.4,145.7L526.4,146.9L526.5,154.2L508.9,154.2L508.9,155.4L507.3,156.6L501.9,156.6L501.9,159.0L496.5,159.0L496.5,167.5L493.2,167.5L475.4,167.5L475.4,163.8L470.1,163.8L470.2,167.5L464.8,167.5Z"/>
    <path class="wtc-county" id="wtc-county-ravalli" data-county="Ravalli" d="M121.6,145.9L122.0,143.8L120.5,139.4L118.7,139.3L119.8,136.8L117.8,134.5L117.7,130.3L115.8,129.5L116.6,128.4L116.8,125.6L114.0,125.3L113.7,123.6L116.2,122.4L114.9,120.3L115.5,118.4L118.3,117.4L117.4,115.7L119.3,113.7L118.3,112.2L114.6,112.1L111.9,108.9L114.7,106.3L114.6,104.6L111.9,103.3L113.1,102.0L112.2,100.2L116.2,100.1L118.1,97.9L120.2,97.1L121.0,95.9L124.6,97.4L125.0,99.4L127.0,99.0L129.8,99.9L132.6,102.9L134.9,104.1L134.6,105.6L135.9,106.0L137.7,105.3L139.1,105.8L138.9,107.8L140.9,109.3L142.5,108.0L148.0,111.8L149.2,111.5L152.4,112.1L155.1,113.4L155.5,115.8L155.5,115.8L153.1,115.8L149.4,117.5L148.3,119.8L145.6,120.3L143.5,120.0L145.6,123.1L144.0,124.6L142.9,127.3L144.6,127.8L145.8,129.3L144.3,130.3L144.9,131.7L144.4,133.4L142.9,135.3L141.3,135.8L141.0,138.8L143.5,144.6L142.5,145.9L121.6,145.9Z"/>
    <path class="wtc-county" id="wtc-county-richland" data-county="Richland" d="M500.4,192.9L500.2,189.3L511.0,189.3L511.0,185.6L527.0,185.6L527.0,182.0L530.4,182.0L530.4,174.7L534.2,174.7L546.3,174.7L546.3,176.5L549.9,176.5L549.9,201.5L547.6,201.6L547.8,202.7L546.1,203.9L544.8,203.1L541.5,202.9L539.7,203.7L537.1,203.5L536.7,204.5L533.3,205.6L532.5,206.6L530.4,206.2L529.1,206.9L527.4,206.1L526.2,207.5L525.6,206.3L523.4,205.9L520.1,206.9L517.4,206.6L515.0,207.8L513.2,207.3L512.3,205.5L510.7,205.8L508.3,203.8L507.7,204.9L502.9,205.0L502.0,204.4L502.0,196.1L500.4,196.1L500.4,192.9Z"/>
    <path class="wtc-county" id="wtc-county-roosevelt" data-county="Roosevelt" d="M476.6,225.1L476.6,210.7L475.0,210.7L475.0,202.0L478.9,202.7L481.1,203.8L483.4,203.8L483.1,204.8L486.5,205.1L488.0,204.4L489.2,205.7L491.3,205.3L496.4,205.5L496.8,204.9L500.5,205.3L502.0,204.4L502.9,205.0L507.7,204.9L508.3,203.8L510.7,205.8L512.3,205.5L513.2,207.3L515.0,207.8L517.4,206.6L520.1,206.9L523.4,205.9L525.6,206.3L526.2,207.5L527.4,206.1L529.1,206.9L530.4,206.2L532.5,206.6L533.3,205.6L536.7,204.5L537.1,203.5L539.7,203.7L541.5,202.9L544.8,203.1L546.1,203.9L547.8,202.7L547.6,201.6L549.9,201.5L549.9,217.2L549.7,217.8L525.6,217.8L525.6,221.5L520.1,221.5L520.1,225.1L511.1,225.1L476.6,225.1Z"/>
    <path class="wtc-county" id="wtc-county-rosebud" data-county="Rosebud" d="M389.7,153.8L391.8,151.7L392.3,149.8L392.5,147.6L393.8,146.7L391.9,143.2L393.7,143.2L393.7,139.0L394.3,139.0L396.1,138.4L419.5,138.4L420.4,137.8L420.4,134.8L425.7,134.8L425.7,131.1L426.6,131.1L426.6,123.9L429.4,124.0L429.4,112.9L429.4,111.3L431.9,111.3L431.9,109.5L430.5,109.5L430.5,105.2L438.1,104.7L438.1,91.3L436.4,91.4L436.4,84.2L456.8,84.2L456.8,91.3L458.7,91.3L458.8,108.2L458.7,109.5L460.5,109.5L460.5,124.1L462.1,124.1L462.0,138.5L463.5,138.5L463.5,153.0L464.8,153.6L438.5,153.5L438.5,154.1L407.3,154.1L407.3,153.8L389.7,153.8Z"/>
    <path class="wtc-county" id="wtc-county-sanders" data-county="Sanders" d="M50.0,210.6L50.1,200.7L56.0,195.2L58.2,194.5L59.4,191.3L60.6,191.5L61.7,189.8L63.6,189.0L63.3,186.7L65.1,184.8L63.2,183.6L62.9,182.4L64.5,182.2L65.2,180.2L67.6,179.9L71.5,179.8L71.8,180.6L75.3,179.4L77.0,180.2L79.4,179.6L82.0,180.3L87.2,178.6L88.4,177.6L90.0,177.8L94.7,176.4L95.0,173.0L100.4,172.4L100.4,171.2L102.2,171.2L105.9,170.6L106.8,171.4L111.9,170.6L116.5,168.6L117.7,168.7L121.0,167.3L120.5,166.6L124.9,165.0L127.6,165.7L127.0,167.6L127.0,174.8L123.4,174.8L120.7,176.2L121.9,179.4L123.5,179.5L122.9,180.6L119.5,180.1L120.2,182.5L121.7,183.2L120.8,185.0L111.1,185.0L111.1,191.1L110.2,192.9L110.2,196.4L94.2,196.3L94.2,201.8L93.3,202.4L87.7,202.4L88.1,200.9L86.6,200.6L85.9,198.2L82.0,197.1L80.3,198.3L77.9,197.6L76.9,198.9L75.9,197.9L72.7,197.8L70.6,199.0L71.4,200.9L67.2,204.8L66.9,207.1L64.8,208.9L65.7,209.8L64.2,211.9L61.7,212.4L60.5,210.9L54.8,209.3L53.9,207.8L51.3,208.7L51.5,210.2L50.0,210.6Z"/>
    <path class="wtc-county" id="wtc-county-sheridan" data-county="Sheridan" d="M507.7,243.2L507.7,239.5L508.5,239.5L508.5,228.7L511.1,228.7L511.1,225.1L520.1,225.1L520.1,221.5L525.6,221.5L525.6,217.8L549.7,217.8L549.7,228.0L549.7,243.2L524.7,243.2L507.7,243.2Z"/>
    <path class="wtc-county" id="wtc-county-silver-bow" data-county="Silver Bow" d="M194.7,125.8L192.0,125.6L190.3,124.0L186.3,124.0L186.3,120.3L183.1,120.3L181.8,118.3L179.6,118.1L180.0,115.3L176.0,113.0L173.4,112.6L177.5,110.4L180.0,110.1L181.1,109.2L184.3,108.9L187.0,107.9L188.1,105.3L189.4,104.9L190.0,102.7L195.7,105.2L197.9,108.3L199.4,107.6L210.8,107.9L209.7,108.6L201.4,111.6L201.8,113.7L200.5,115.9L200.2,119.7L199.0,120.0L199.3,122.2L197.0,124.0L197.6,126.0L194.7,125.8Z"/>
    <path class="wtc-county" id="wtc-county-stillwater" data-county="Stillwater" d="M326.2,120.2L326.0,116.7L322.4,116.6L322.6,112.9L320.8,113.0L320.8,109.3L320.0,109.3L320.2,102.1L315.1,102.1L315.1,100.2L309.9,100.3L309.9,98.5L304.8,98.5L304.8,91.2L299.3,91.2L299.3,83.9L310.3,83.9L310.3,83.7L314.9,83.7L314.9,87.6L318.2,87.6L318.2,89.4L319.1,90.6L322.7,93.0L323.6,94.2L325.3,94.2L326.2,95.4L328.7,96.0L335.6,96.1L335.6,98.5L338.3,98.5L338.3,101.2L340.6,101.0L344.7,102.4L346.3,101.8L350.1,102.1L348.4,105.1L347.5,105.1L347.7,116.7L346.8,116.7L346.8,123.9L326.3,123.9L326.2,120.2Z"/>
    <path class="wtc-county" id="wtc-county-sweet-grass" data-county="Sweet Grass" d="M290.1,126.0L289.7,123.9L289.7,109.4L292.7,109.4L292.8,104.6L292.8,91.2L292.4,91.2L292.4,83.9L299.3,83.9L299.3,91.2L304.8,91.2L304.8,98.5L309.9,98.5L309.9,100.3L315.1,100.2L315.1,102.1L320.2,102.1L320.0,109.3L320.8,109.3L320.8,113.0L322.6,112.9L322.4,116.6L326.0,116.7L326.2,120.2L318.4,120.2L318.4,123.9L316.3,123.9L316.3,127.5L290.1,127.5L290.1,126.0Z"/>
    <path class="wtc-county" id="wtc-county-teton" data-county="Teton" d="M176.4,207.1L177.8,206.5L177.8,204.7L179.7,203.9L179.3,202.9L180.9,202.9L182.1,200.6L180.8,199.4L177.6,199.7L180.5,194.9L180.2,191.7L181.1,190.4L180.8,188.8L183.0,186.2L186.1,184.9L188.4,185.7L195.1,186.5L201.1,184.9L201.8,183.0L204.4,182.9L207.1,181.1L209.7,180.9L212.6,181.5L216.6,181.5L221.8,181.0L221.8,185.4L232.6,185.4L232.6,189.0L243.2,189.1L243.2,201.1L219.3,201.0L219.3,203.4L216.6,203.4L216.6,205.2L211.2,205.3L211.2,207.0L176.4,207.1Z"/>
    <path class="wtc-county" id="wtc-county-toole" data-county="Toole" d="M210.6,243.2L210.8,239.7L210.8,225.2L210.9,221.5L215.6,220.1L219.0,219.9L219.0,218.0L227.2,218.0L227.2,216.2L232.6,216.2L232.6,210.8L243.2,210.8L248.9,210.8L248.9,239.7L249.0,243.1L228.6,243.1L210.6,243.2Z"/>
    <path class="wtc-county" id="wtc-county-treasure" data-county="Treasure" d="M396.1,138.4L397.9,135.4L399.5,134.8L399.5,133.6L401.3,133.0L401.3,131.2L403.1,130.6L403.1,129.4L404.8,128.8L405.6,126.4L407.4,125.8L407.1,122.8L405.5,120.2L409.1,120.2L409.1,116.6L419.5,116.6L419.5,114.7L424.6,114.7L424.6,112.9L429.4,112.9L429.4,124.0L426.6,123.9L426.6,131.1L425.7,131.1L425.7,134.8L420.4,134.8L420.4,137.8L419.5,138.4L396.1,138.4Z"/>
    <path class="wtc-county" id="wtc-county-valley" data-county="Valley" d="M419.4,243.2L419.4,239.6L418.2,239.6L418.2,225.3L418.8,222.8L416.4,223.1L416.1,221.6L414.3,221.6L414.3,218.0L416.0,218.0L416.0,214.3L411.5,214.3L411.5,210.7L410.0,210.7L410.0,196.2L409.5,196.2L409.5,188.8L415.1,188.3L416.4,187.5L422.1,187.8L426.4,187.6L431.8,188.2L432.5,190.7L437.9,190.6L438.8,192.1L441.2,192.9L443.3,192.7L444.9,195.0L447.2,196.6L446.3,197.6L448.1,198.8L447.6,199.9L449.9,200.9L451.1,199.9L450.6,202.4L451.8,204.2L455.1,203.9L458.8,202.7L463.2,202.9L462.4,201.9L464.5,202.0L464.8,203.1L467.8,201.9L468.3,203.0L471.8,201.8L472.6,203.0L475.0,202.0L475.0,210.7L476.6,210.7L476.6,225.1L467.5,225.1L467.5,235.9L462.1,235.9L462.1,239.5L463.8,239.5L463.8,243.2L448.5,243.2L419.4,243.2Z"/>
    <path class="wtc-county" id="wtc-county-wheatland" data-county="Wheatland" d="M290.6,147.9L290.6,138.7L290.1,138.7L290.1,127.5L316.3,127.5L326.7,127.5L326.7,138.8L327.3,138.8L327.3,147.2L312.6,147.2L309.4,147.2L303.1,149.7L300.7,149.0L299.9,149.5L297.2,149.1L296.6,148.3L294.0,148.6L293.1,147.9L290.6,147.9Z"/>
    <path class="wtc-county" id="wtc-county-wibaux" data-county="Wibaux" d="M526.5,154.2L526.4,146.9L534.3,146.9L537.0,146.2L537.0,145.1L549.9,145.1L549.9,173.7L549.9,176.5L546.3,176.5L546.3,174.7L534.2,174.7L533.0,173.3L535.7,172.0L538.5,167.5L538.9,161.7L534.6,156.0L531.0,154.2L526.5,154.2Z"/>
    <path class="wtc-county" id="wtc-county-yellowstone" data-county="Yellowstone" d="M346.8,123.9L346.8,116.7L347.7,116.7L347.5,105.1L348.4,105.1L350.1,102.1L352.6,103.3L351.9,99.7L353.5,99.7L353.5,98.5L356.0,98.5L356.2,96.0L358.3,96.0L372.0,95.9L372.0,97.1L377.1,97.1L377.1,98.3L382.3,98.3L382.3,109.3L383.2,109.3L383.2,114.2L390.1,114.2L390.1,115.3L391.9,115.3L391.9,116.6L393.5,116.6L393.5,117.7L398.8,117.7L398.8,120.2L405.5,120.2L407.1,122.8L407.4,125.8L405.6,126.4L404.8,128.8L403.1,129.4L403.1,130.6L401.3,131.2L401.3,133.0L399.5,133.6L399.5,134.8L397.9,135.4L396.1,138.4L394.3,139.0L394.3,134.8L388.2,134.8L384.0,131.2L384.0,129.3L371.9,129.3L370.1,128.1L368.3,128.2L368.3,123.9L352.7,123.9L346.8,123.9Z"/>
  </g>
</svg>