<?xml version="1.0" encoding="UTF-8"?>
<svg xmlns="http://www.w3.org/2000/svg" viewBox="0 0 600 293" id="wtc-state-map-MT" role="img" aria-label="mt county map">
  <title>mt Counties</title>
  <g class="wtc-counties">
    <path class="wtc-county" id="wtc-county-beaverhead" data-county="Beaverhead" d="M137.7,188.0L139.7,189.7L139.4,190.7L141.2,190.6L143.4,191.5L142.3,194.9L145.2,194.9L145.3,196.5L144.4,197.6L145.3,199.6L146.5,200.3L146.2,202.8L148.3,204.8L148.5,206.0L152.1,208.6L153.1,211.2L155.6,211.8L155.3,212.7L158.2,214.1L158.8,216.3L158.5,218.2L156.4,218.7L158.0,222.2L162.2,224.1L162.8,225.5L166.7,223.9L171.5,226.0L174.2,229.9L174.9,231.7L173.6,233.4L176.7,236.3L176.0,237.5L176.9,239.4L179.1,240.8L181.8,241.7L183.4,243.3L184.8,242.5L183.9,240.6L186.1,238.0L188.7,237.2L191.2,238.0L196.1,238.1L197.8,238.9L199.0,238.2L202.6,239.6L203.8,237.9L204.1,235.8L205.4,235.8L206.8,234.5L209.1,234.8L210.9,236.0L213.0,235.7L214.2,236.5L217.4,235.4L218.9,235.9L220.8,235.0L224.1,234.7L226.0,237.0L230.5,235.5L231.0,234.9L234.5,235.3L235.9,234.8L240.7,235.7L238.4,233.4L240.8,229.9L240.2,228.7L227.8,228.7L227.8,225.7L215.9,225.6L215.9,223.8L211.7,223.8L211.7,220.2L210.8,220.2L210.6,216.5L204.8,216.5L204.8,212.9L199.6,212.9L199.3,200.2L197.6,198.1L194.7,198.7L192.6,198.2L189.9,196.4L189.3,194.3L190.0,192.8L190.0,190.6L189.4,188.4L188.1,188.0L187.0,185.4L184.3,184.3L181.1,184.1L180.0,183.2L177.5,182.9L173.4,180.7L172.8,179.9L169.5,179.7L167.5,180.5L165.5,182.5L163.0,182.7L161.9,185.0L160.6,184.7L158.9,183.0L159.1,182.0L156.4,177.6L155.5,177.5L155.1,179.9L152.4,181.2L149.2,181.8L148.0,181.4L142.5,185.3L140.9,184.0L138.9,185.5L139.1,187.5L137.7,188.0Z"/>
    <path class="wtc-county" id="wtc-county-big-horn" data-county="Big Horn" d="M358.3,197.2L357.1,198.3L356.0,202.8L356.0,207.2L356.5,207.5L380.8,207.4L379.8,207.5L377.4,212.4L375.2,214.2L374.9,216.6L388.9,216.5L421.2,216.6L423.3,216.7L457.5,216.8L457.5,209.1L456.8,209.1L436.4,209.1L436.4,201.9L438.1,201.9L438.1,188.6L430.5,188.1L430.5,183.8L431.9,183.8L431.9,181.9L429.4,181.9L429.4,180.3L424.6,180.3L424.6,178.5L419.5,178.5L419.5,176.7L409.1,176.7L409.1,173.1L405.5,173.1L398.8,173.1L398.8,175.5L393.5,175.5L393.5,176.7L391.9,176.7L391.9,177.9L390.1,177.9L390.1,179.1L383.2,179.1L383.2,183.9L382.3,183.9L382.3,195.0L377.1,195.0L377.1,196.2L372.0,196.2L372.0,197.4L358.3,197.2Z"/>
    <path class="wtc-county" id="wtc-county-blaine" data-county="Blaine" d="M323.2,50.0L323.2,53.6L322.6,53.6L322.6,68.0L322.9,69.8L324.2,69.8L324.2,72.8L322.9,72.8L322.9,75.2L322.0,75.2L322.0,79.4L320.6,79.4L320.6,82.4L321.4,82.4L321.4,86.1L321.1,102.5L322.3,102.3L325.9,103.3L330.5,101.7L332.1,100.3L338.1,100.8L340.8,99.9L345.9,100.3L346.9,101.8L345.9,102.9L348.1,102.7L348.3,94.9L359.2,95.0L359.9,92.0L361.4,92.5L367.1,92.6L367.1,82.5L368.1,82.5L368.1,73.0L370.8,74.1L370.8,68.0L371.9,68.0L371.9,60.8L374.4,60.8L374.4,53.6L375.3,53.6L375.3,50.0L343.8,50.1L323.2,50.0Z"/>
    <path class="wtc-county" id="wtc-county-broadwater" data-county="Broadwater" d="M227.5,151.2L227.5,169.2L227.7,172.9L232.8,172.9L232.8,181.9L235.7,178.8L237.5,178.7L240.8,176.8L241.3,175.0L242.8,175.1L242.6,172.4L245.5,170.0L245.9,168.6L247.5,167.1L257.7,166.9L257.0,164.5L255.0,163.4L255.3,161.9L257.3,160.4L257.7,157.9L253.4,156.3L252.6,156.9L249.9,156.6L249.6,154.2L246.5,152.6L246.8,149.3L246.2,148.5L243.4,148.3L243.1,147.0L241.6,146.5L241.3,143.9L239.6,143.2L235.1,142.5L233.7,144.2L233.7,150.7L234.0,151.2L227.5,151.2Z"/>
    <path class="wtc-county" id="wtc-county-carbon" data-county="Carbon" d="M310.3,209.6L310.3,216.5L339.3,216.3L340.9,216.6L359.3,216.6L374.9,216.6L375.2,214.2L377.4,212.4L379.8,207.5L380.8,207.4L356.5,207.5L356.0,207.2L356.0,202.8L357.1,198.3L358.3,197.2L356.2,197.2L356.0,194.8L353.5,194.8L353.5,193.6L351.9,193.6L352.6,190.0L350.1,191.1L346.3,191.5L344.7,190.9L340.6,192.3L338.3,192.1L338.3,194.8L335.6,194.8L335.6,197.2L328.7,197.2L326.2,197.9L325.3,199.0L323.6,199.0L322.7,200.2L319.1,202.6L318.2,203.9L318.2,205.7L314.9,205.7L314.9,209.6L310.3,209.6Z"/>
    <path class="wtc-county" id="wtc-county-carter" data-county="Carter" d="M510.8,183.8L510.5,201.9L508.5,201.9L508.5,216.6L532.1,216.6L549.3,216.7L550.0,216.5L550.0,207.7L550.0,185.3L549.9,179.8L546.1,179.8L546.1,176.2L535.5,176.1L535.5,172.6L530.3,172.6L530.3,169.2L514.9,169.2L512.6,169.2L512.6,183.8L510.8,183.8Z"/>
    <path class="wtc-county" id="wtc-county-cascade" data-county="Cascade" d="M216.6,111.8L216.8,125.2L219.6,125.6L221.1,127.3L223.9,127.9L227.4,127.9L227.4,136.9L232.9,136.9L237.8,136.9L237.8,133.3L248.4,133.3L248.4,132.8L253.7,132.8L253.7,129.6L257.0,129.6L257.1,131.4L255.9,132.1L257.3,133.0L260.4,133.1L264.0,134.1L266.2,136.6L270.1,138.2L270.6,139.8L273.0,139.7L274.7,140.6L275.5,140.1L275.0,129.3L269.8,129.3L270.0,123.5L269.1,122.9L269.1,120.5L270.0,120.9L270.0,118.3L275.3,118.3L275.3,116.0L275.2,114.7L270.0,114.7L270.0,111.4L265.9,111.4L264.9,110.3L262.9,110.5L258.2,108.4L261.3,104.2L243.2,104.2L232.6,104.3L232.6,107.8L221.8,107.8L221.8,112.3L216.6,111.8Z"/>
    <path class="wtc-county" id="wtc-county-chouteau" data-county="Chouteau" d="M243.2,86.2L243.2,92.2L243.2,104.2L261.3,104.2L258.2,108.4L262.9,110.5L264.9,110.3L265.9,111.4L270.0,111.4L270.0,114.7L275.2,114.7L275.3,116.0L293.0,116.0L295.2,116.0L298.7,114.6L300.6,113.3L301.8,113.5L305.5,111.6L308.2,110.8L308.2,108.1L309.0,106.3L308.7,103.6L313.4,104.0L315.4,102.7L321.1,102.5L321.4,86.1L313.3,86.1L313.3,82.4L308.4,82.5L308.4,78.9L275.9,78.9L275.9,82.5L270.4,82.5L267.4,82.5L267.4,86.1L243.2,86.2Z"/>
    <path class="wtc-county" id="wtc-county-custer" data-county="Custer" d="M464.8,139.7L463.5,140.3L463.5,154.8L462.0,154.8L462.1,169.2L460.5,169.2L460.5,183.7L482.6,183.7L510.8,183.8L512.6,183.8L512.6,169.2L514.9,169.2L514.9,161.9L514.0,161.9L514.0,154.9L521.2,154.9L521.2,149.4L515.9,149.4L515.9,151.3L510.7,151.2L510.7,152.4L500.1,152.4L500.1,151.2L491.4,151.1L491.4,150.0L489.6,149.9L489.6,147.5L486.0,147.5L486.0,143.9L484.4,143.9L484.4,140.3L475.4,140.3L475.4,139.1L464.8,139.1L464.8,139.7Z"/>
    <path class="wtc-county" id="wtc-county-daniels" data-county="Daniels" d="M463.8,50.1L463.8,53.8L462.1,53.8L462.1,57.4L467.5,57.4L467.5,68.2L476.6,68.2L511.1,68.2L511.1,64.6L508.5,64.6L508.5,53.8L507.7,53.8L507.7,50.1L463.8,50.1Z"/>
    <path class="wtc-county" id="wtc-county-dawson" data-county="Dawson" d="M500.4,100.4L495.0,100.4L495.0,111.2L493.2,111.3L493.2,125.8L496.5,125.8L496.5,134.2L501.9,134.2L501.9,136.7L507.3,136.7L508.9,137.8L508.9,139.1L526.5,139.1L531.0,139.1L534.6,137.3L538.9,131.5L538.5,125.8L535.7,121.3L533.0,120.0L534.2,118.5L530.4,118.5L530.4,111.3L527.0,111.3L527.0,107.7L511.0,107.7L511.0,104.0L500.2,104.0L500.4,100.4Z"/>
    <path class="wtc-county" id="wtc-county-deer-lodge" data-county="Deer Lodge" d="M155.5,177.4L155.5,177.5L156.4,177.6L159.1,182.0L158.9,183.0L160.6,184.7L161.9,185.0L163.0,182.7L165.5,182.5L167.5,180.5L169.5,179.7L172.8,179.9L173.4,180.7L176.0,180.3L180.0,178.0L179.6,175.2L181.8,175.0L183.1,172.9L186.3,172.9L186.3,169.3L190.3,169.3L192.0,167.7L194.7,167.5L193.8,165.1L195.4,163.9L175.5,163.8L175.5,165.6L165.2,165.7L165.7,169.3L165.5,173.0L163.1,174.7L161.3,174.1L158.6,175.7L157.0,177.4L155.5,177.4Z"/>
    <path class="wtc-county" id="wtc-county-fallon" data-county="Fallon" d="M521.2,149.4L521.2,154.9L514.0,154.9L514.0,161.9L514.9,161.9L514.9,169.2L530.3,169.2L530.3,172.6L535.5,172.6L535.5,176.1L546.1,176.2L546.1,179.8L549.9,179.8L549.9,177.2L549.7,174.9L549.9,163.3L549.9,152.4L549.9,148.2L537.0,148.2L537.0,147.0L534.3,146.4L526.4,146.4L526.4,147.6L521.2,147.6L521.2,149.4Z"/>
    <path class="wtc-county" id="wtc-county-fergus" data-county="Fergus" d="M293.0,116.0L293.0,118.3L296.6,118.3L296.6,122.0L301.9,122.0L301.9,123.8L307.2,123.7L307.3,125.6L312.1,125.6L312.1,137.6L310.3,138.8L310.3,140.3L308.8,140.3L309.0,141.5L312.1,142.5L312.6,146.0L327.3,146.1L327.3,143.6L343.2,143.7L358.9,143.7L358.9,140.1L359.8,140.1L359.8,129.2L354.5,129.2L354.5,125.6L355.3,125.6L355.3,122.0L360.5,122.0L360.5,120.5L371.1,120.5L372.0,120.2L372.2,109.0L371.3,109.7L369.0,108.7L367.4,108.8L366.8,107.7L364.0,108.3L363.4,107.4L361.4,107.9L359.8,107.3L357.2,107.5L354.8,106.2L353.0,106.4L352.6,104.9L351.0,103.7L348.1,102.7L345.9,102.9L346.9,101.8L345.9,100.3L340.8,99.9L338.1,100.8L332.1,100.3L330.5,101.7L325.9,103.3L322.3,102.3L321.1,102.5L315.4,102.7L313.4,104.0L308.7,103.6L309.0,106.3L308.2,108.1L308.2,110.8L305.5,111.6L301.8,113.5L300.6,113.3L298.7,114.6L295.2,116.0L293.0,116.0Z"/>
    <path class="wtc-county" id="wtc-county-flathead" data-county="Flathead" d="M105.1,50.0L106.9,51.1L105.4,52.6L106.6,56.6L104.8,57.9L107.4,58.4L109.9,60.4L107.1,61.5L106.6,63.4L108.7,64.2L98.4,64.2L98.4,67.8L100.1,67.8L100.1,82.3L92.9,82.3L93.3,85.9L93.3,90.9L94.2,91.5L94.2,97.0L110.2,96.9L110.2,100.4L115.5,100.4L115.5,96.9L114.9,96.9L114.9,93.2L133.8,93.2L132.2,90.7L134.1,89.5L140.3,89.5L141.9,92.6L143.5,92.5L146.1,93.7L149.4,96.5L148.9,97.2L149.8,101.1L149.4,102.3L151.9,103.3L151.8,105.7L150.6,108.3L157.6,108.3L163.4,108.5L171.0,108.5L171.6,105.8L170.1,102.9L173.7,102.1L174.3,101.0L174.5,96.4L173.4,95.1L176.1,94.7L177.6,93.6L180.8,93.9L182.1,92.7L180.9,90.4L179.3,90.4L179.7,89.3L177.8,88.6L177.8,86.8L176.4,86.2L174.9,86.6L174.3,85.4L171.5,85.9L169.1,84.4L167.5,84.5L167.2,81.4L164.9,80.6L162.5,78.8L161.0,77.5L162.8,76.2L162.1,74.0L160.7,74.3L157.0,72.6L157.6,71.9L157.6,68.9L154.5,67.3L151.9,67.7L145.8,66.1L147.6,61.1L144.9,58.5L145.5,57.7L144.0,56.5L139.2,56.4L137.4,57.6L135.3,57.0L135.8,56.2L133.1,54.7L134.9,53.8L133.5,52.9L134.4,51.6L132.5,50.1L105.1,50.0Z"/>
    <path class="wtc-county" id="wtc-county-gallatin" data-county="Gallatin" d="M226.8,183.3L230.2,184.4L230.2,185.6L232.8,185.6L233.7,186.8L235.4,187.4L238.0,189.8L245.6,189.8L245.8,202.0L244.7,202.0L244.6,226.9L246.8,228.0L251.0,232.2L250.7,233.8L254.3,235.9L255.2,237.6L258.3,238.4L258.0,230.5L257.9,222.1L258.0,216.5L258.5,216.5L258.8,209.2L258.8,201.9L263.7,201.9L263.7,194.7L266.2,194.7L266.2,192.0L268.8,192.0L268.8,183.8L269.1,183.8L268.9,175.4L269.4,166.9L257.7,166.9L247.5,167.1L245.9,168.6L245.5,170.0L242.6,172.4L242.8,175.1L241.3,175.0L240.8,176.8L237.5,178.7L235.7,178.8L232.8,181.9L231.0,183.4L226.8,183.3Z"/>
    <path class="wtc-county" id="wtc-county-garfield" data-county="Garfield" d="M387.0,122.1L386.5,122.8L388.2,126.3L386.8,128.0L388.3,131.4L390.0,133.3L388.9,134.6L387.7,138.4L389.7,139.5L407.3,139.5L407.3,139.2L438.5,139.1L438.5,139.7L464.8,139.7L464.8,139.1L464.8,125.8L461.4,125.8L461.4,118.5L456.0,118.6L456.0,111.3L457.7,111.3L457.7,97.1L453.6,97.1L453.5,93.5L451.1,93.4L449.9,92.4L447.6,93.4L448.1,94.5L446.3,95.7L447.2,96.7L444.9,98.3L443.3,100.6L441.2,100.4L438.8,101.1L437.9,102.7L432.5,102.6L431.8,105.1L426.4,105.7L422.1,105.4L416.4,105.8L415.1,105.0L409.5,104.5L408.5,107.3L406.1,107.3L405.2,106.5L401.5,106.3L401.2,107.0L397.9,107.1L396.4,109.5L395.0,110.5L392.8,110.6L390.9,111.9L390.9,114.3L388.9,114.5L388.9,116.5L386.8,118.6L387.0,122.1Z"/>
    <path class="wtc-county" id="wtc-county-glacier" data-county="Glacier" d="M132.5,50.1L134.4,51.6L133.5,52.9L134.9,53.8L133.1,54.7L135.8,56.2L135.3,57.0L137.4,57.6L139.2,56.4L144.0,56.5L145.5,57.7L144.9,58.5L147.6,61.1L145.8,66.1L151.9,67.7L154.5,67.3L157.6,68.9L157.6,71.9L157.0,72.6L160.7,74.3L162.1,74.0L162.8,76.2L161.0,77.5L162.5,78.8L194.7,78.8L194.7,71.5L209.1,71.5L210.9,71.8L210.8,68.1L210.8,53.6L210.6,50.1L176.6,50.1L148.2,50.1L132.5,50.1Z"/>
    <path class="wtc-county" id="wtc-county-golden-valley" data-county="Golden Valley" d="M316.3,165.8L316.3,169.4L318.4,169.4L318.4,173.1L326.2,173.1L326.3,169.4L346.8,169.4L352.7,169.4L352.7,163.4L350.5,161.6L350.7,160.3L349.3,159.8L349.3,156.1L347.5,154.5L347.5,150.9L344.1,150.9L343.2,149.1L343.2,143.7L327.3,143.6L327.3,146.1L327.3,154.5L326.7,154.5L326.7,165.8L316.3,165.8Z"/>
    <path class="wtc-county" id="wtc-county-granite" data-county="Granite" d="M142.5,147.4L143.5,148.7L141.0,154.4L141.3,157.5L142.9,158.0L144.4,159.8L144.9,161.6L144.3,163.0L145.8,163.9L144.6,165.4L142.9,166.0L144.0,168.6L145.6,170.2L143.5,173.3L145.6,173.0L148.3,173.5L149.4,175.7L153.1,177.5L155.5,177.4L157.0,177.4L158.6,175.7L161.3,174.1L163.1,174.7L165.5,173.0L165.7,169.3L165.2,165.7L175.5,165.6L175.5,163.8L175.4,144.3L172.2,145.2L169.7,144.5L169.8,143.5L167.5,142.3L166.0,140.5L164.5,140.3L159.7,140.3L159.7,141.5L157.0,141.5L157.0,143.9L154.3,143.9L154.0,145.1L149.2,145.1L149.2,147.5L142.5,147.4Z"/>
    <path class="wtc-county" id="wtc-county-hill" data-county="Hill" d="M271.0,50.1L271.0,53.6L270.4,82.5L275.9,82.5L275.9,78.9L308.4,78.9L308.4,82.5L313.3,82.4L313.3,86.1L321.4,86.1L321.4,82.4L320.6,82.4L320.6,79.4L322.0,79.4L322.0,75.2L322.9,75.2L322.9,72.8L324.2,72.8L324.2,69.8L322.9,69.8L322.6,68.0L322.6,53.6L323.2,53.6L323.2,50.0L294.8,50.1L271.0,50.1Z"/>
    <path class="wtc-county" id="wtc-county-jefferson" data-county="Jefferson" d="M195.4,163.9L193.8,165.1L194.7,167.5L197.6,167.2L197.0,169.2L199.3,171.1L199.0,173.3L200.2,173.5L200.5,177.4L201.8,179.6L201.4,181.7L209.7,184.7L210.8,185.4L213.0,184.4L214.2,181.5L217.7,180.8L219.3,181.3L221.5,180.9L222.3,182.0L225.1,182.4L226.8,183.3L231.0,183.4L232.8,181.9L232.8,172.9L227.7,172.9L227.5,169.2L227.5,151.2L217.8,151.3L215.1,153.4L213.0,153.2L210.0,154.1L211.4,155.9L209.7,156.2L207.5,157.7L205.7,157.4L204.1,158.9L201.8,158.8L199.7,161.2L197.9,160.7L194.9,162.2L195.4,163.9Z"/>
    <path class="wtc-county" id="wtc-county-judith-basin" data-county="Judith Basin" d="M275.3,116.0L275.3,118.3L270.0,118.3L270.0,120.9L269.1,120.5L269.1,122.9L270.0,123.5L269.8,129.3L275.0,129.3L275.5,140.1L274.7,140.6L276.1,142.8L278.5,142.8L278.5,144.2L281.8,145.7L282.5,146.7L286.3,146.1L288.2,146.9L290.6,145.3L293.1,145.4L294.0,144.7L296.6,145.0L297.2,144.2L299.9,143.7L300.7,144.3L303.1,143.6L309.4,146.1L312.6,146.0L312.1,142.5L309.0,141.5L308.8,140.3L310.3,140.3L310.3,138.8L312.1,137.6L312.1,125.6L307.3,125.6L307.2,123.7L301.9,123.8L301.9,122.0L296.6,122.0L296.6,118.3L293.0,118.3L293.0,116.0L275.3,116.0Z"/>
    <path class="wtc-county" id="wtc-county-lake" data-county="Lake" d="M110.2,100.4L111.1,102.2L111.1,108.2L120.8,108.2L121.7,110.1L120.2,110.8L119.5,113.2L122.9,112.6L123.5,113.8L121.9,113.8L120.7,117.1L123.4,118.5L127.0,118.5L127.0,125.7L127.6,127.5L138.2,127.5L138.2,125.7L142.8,125.7L142.6,121.9L140.7,121.3L140.0,118.5L140.7,117.0L139.4,114.7L137.4,113.5L139.2,111.9L137.6,108.3L150.6,108.3L151.8,105.7L151.9,103.3L149.4,102.3L149.8,101.1L148.9,97.2L149.4,96.5L146.1,93.7L143.5,92.5L141.9,92.6L140.3,89.5L134.1,89.5L132.2,90.7L133.8,93.2L114.9,93.2L114.9,96.9L115.5,96.9L115.5,100.4L110.2,100.4Z"/>
    <path class="wtc-county" id="wtc-county-lewis-and-clark" data-county="Lewis and Clark" d="M177.6,93.6L176.1,94.7L173.4,95.1L174.5,96.4L174.3,101.0L173.7,102.1L170.1,102.9L171.6,105.8L171.0,108.5L172.2,112.9L174.6,113.0L174.6,125.8L185.5,125.9L185.5,140.3L196.3,140.2L196.3,145.8L201.5,145.8L201.5,147.6L205.3,147.6L206.5,149.7L205.4,151.0L206.5,152.8L205.9,153.7L205.7,157.4L207.5,157.7L209.7,156.2L211.4,155.9L210.0,154.1L213.0,153.2L215.1,153.4L217.8,151.3L227.5,151.2L234.0,151.2L233.7,150.7L233.7,144.2L235.1,142.5L239.6,143.2L239.6,142.0L235.3,141.3L233.4,139.8L235.0,137.8L232.9,136.9L227.4,136.9L227.4,127.9L223.9,127.9L221.1,127.3L219.6,125.6L216.8,125.2L216.6,111.8L212.6,111.8L209.7,112.3L207.1,112.2L204.4,110.4L201.8,110.3L201.1,108.3L195.1,106.8L188.4,107.6L186.1,108.4L183.0,107.0L180.8,104.5L181.1,102.9L180.2,101.6L180.5,98.4L177.6,93.6Z"/>
    <path class="wtc-county" id="wtc-county-liberty" data-county="Liberty" d="M243.2,82.5L243.2,86.2L267.4,86.1L267.4,82.5L270.4,82.5L271.0,53.6L271.0,50.1L249.0,50.1L248.9,53.6L248.9,82.5L243.2,82.5Z"/>
    <path class="wtc-county" id="wtc-county-lincoln" data-county="Lincoln" d="M50.1,70.7L50.0,82.7L51.5,83.1L51.3,84.6L53.9,85.4L54.8,84.0L60.5,82.4L61.7,80.9L64.2,81.4L65.7,83.5L64.8,84.4L66.9,86.2L67.2,88.5L71.4,92.4L70.6,94.3L72.7,95.5L75.9,95.4L76.9,94.3L77.9,95.6L80.3,95.0L82.0,96.2L85.9,95.1L86.6,92.7L88.1,92.4L87.7,90.9L93.3,90.9L93.3,85.9L92.9,82.3L100.1,82.3L100.1,67.8L98.4,67.8L98.4,64.2L108.7,64.2L106.6,63.4L107.1,61.5L109.9,60.4L107.4,58.4L104.8,57.9L106.6,56.6L105.4,52.6L106.9,51.1L105.1,50.0L85.1,50.1L50.1,50.0L50.1,70.7Z"/>
    <path class="wtc-county" id="wtc-county-mccone" data-county="McCone" d="M475.0,91.2L472.6,90.2L471.8,91.5L468.3,90.3L467.8,91.4L464.8,90.2L464.5,91.2L462.4,91.4L463.2,90.4L458.8,90.6L455.1,89.3L451.8,89.1L450.6,90.9L451.1,93.4L453.5,93.5L453.6,97.1L457.7,97.1L457.7,111.3L456.0,111.3L456.0,118.6L461.4,118.5L461.4,125.8L464.8,125.8L470.2,125.8L470.1,129.4L475.4,129.4L475.4,125.8L493.2,125.8L493.2,111.3L495.0,111.2L495.0,100.4L500.4,100.4L500.4,97.1L502.0,97.1L502.0,88.9L500.5,87.9L496.8,88.4L496.4,87.8L491.3,87.9L489.2,87.6L488.0,88.8L486.5,88.2L483.1,88.4L483.4,89.5L481.1,89.4L478.9,90.6L475.0,91.2Z"/>
    <path class="wtc-county" id="wtc-county-madison" data-county="Madison" d="M190.0,190.6L190.0,192.8L189.3,194.3L189.9,196.4L192.6,198.2L194.7,198.7L197.6,198.1L199.3,200.2L199.6,212.9L204.8,212.9L204.8,216.5L210.6,216.5L210.8,220.2L211.7,220.2L211.7,223.8L215.9,223.8L215.9,225.6L227.8,225.7L227.8,228.7L240.2,228.7L243.1,228.6L244.6,226.9L244.7,202.0L245.8,202.0L245.6,189.8L238.0,189.8L235.4,187.4L233.7,186.8L232.8,185.6L230.2,185.6L230.2,184.4L226.8,183.3L225.1,182.4L222.3,182.0L221.5,180.9L219.3,181.3L217.7,180.8L214.2,181.5L213.0,184.4L210.8,185.4L199.4,185.7L197.9,184.9L195.7,188.1L190.0,190.6Z"/>
    <path class="wtc-county" id="wtc-county-meagher" data-county="Meagher" d="M232.9,136.9L235.0,137.8L233.4,139.8L235.3,141.3L239.6,142.0L239.6,143.2L241.3,143.9L241.6,146.5L243.1,147.0L243.4,148.3L246.2,148.5L246.8,149.3L246.5,152.6L249.6,154.2L249.9,156.6L252.6,156.9L253.4,156.3L257.7,157.9L257.3,160.4L255.3,161.9L255.0,163.4L257.0,164.5L257.7,166.9L269.4,166.9L284.9,166.9L284.9,167.2L290.1,167.2L290.1,165.7L290.1,154.5L290.6,154.5L290.6,145.3L288.2,146.9L286.3,146.1L282.5,146.7L281.8,145.7L278.5,144.2L278.5,142.8L276.1,142.8L274.7,140.6L273.0,139.7L270.6,139.8L270.1,138.2L266.2,136.6L264.0,134.1L260.4,133.1L257.3,133.0L255.9,132.1L257.1,131.4L257.0,129.6L253.7,129.6L253.7,132.8L248.4,132.8L248.4,133.3L237.8,133.3L237.8,136.9L232.9,136.9Z"/>
    <path class="wtc-county" id="wtc-county-mineral" data-county="Mineral" d="M67.6,113.3L67.2,114.1L63.9,114.4L62.1,115.7L63.7,115.6L70.8,118.7L71.8,120.7L76.6,122.3L80.2,122.6L81.5,124.1L81.2,125.5L82.9,125.7L83.6,127.0L85.4,127.5L88.0,129.4L90.8,132.4L91.7,134.5L93.6,134.5L95.3,136.1L96.6,136.6L96.0,139.2L98.4,141.3L103.5,143.3L102.6,145.3L103.5,145.9L107.2,144.2L107.2,143.8L112.5,143.8L112.6,140.2L111.9,140.2L111.9,134.8L113.5,132.9L116.6,133.6L118.0,132.3L115.3,132.3L115.3,130.5L111.9,130.5L111.0,128.1L109.2,128.1L108.3,126.3L105.7,125.7L105.7,123.9L103.0,123.9L102.2,122.1L100.4,122.1L100.4,120.9L95.0,120.3L94.7,116.8L90.0,115.5L88.4,115.7L87.2,114.7L82.0,113.0L79.4,113.7L77.0,113.1L75.3,113.9L71.8,112.7L71.5,113.5L67.6,113.3Z"/>
    <path class="wtc-county" id="wtc-county-missoula" data-county="Missoula" d="M102.2,122.1L103.0,123.9L105.7,123.9L105.7,125.7L108.3,126.3L109.2,128.1L111.0,128.1L111.9,130.5L115.3,130.5L115.3,132.3L118.0,132.3L116.6,133.6L113.5,132.9L111.9,134.8L111.9,140.2L112.6,140.2L112.5,143.8L107.2,143.8L107.2,144.2L109.5,145.5L108.6,146.9L110.7,148.6L112.6,148.1L115.9,148.6L116.5,147.9L120.4,147.1L121.6,147.4L142.5,147.4L149.2,147.5L149.2,145.1L154.0,145.1L154.3,143.9L157.0,143.9L157.0,141.5L159.7,141.5L159.7,140.3L164.5,140.3L164.5,125.8L157.6,125.8L157.6,108.3L150.6,108.3L137.6,108.3L139.2,111.9L137.4,113.5L139.4,114.7L140.7,117.0L140.0,118.5L140.7,121.3L142.6,121.9L142.8,125.7L138.2,125.7L138.2,127.5L127.6,127.5L124.9,128.3L120.5,126.7L121.0,126.0L117.7,124.5L116.5,124.6L111.9,122.7L106.8,121.9L105.9,122.7L102.2,122.1Z"/>
    <path class="wtc-county" id="wtc-county-musselshell" data-county="Musselshell" d="M343.2,143.7L343.2,149.1L344.1,150.9L347.5,150.9L347.5,154.5L349.3,156.1L349.3,159.8L350.7,160.3L350.5,161.6L352.7,163.4L352.7,169.4L368.3,169.4L368.3,165.1L370.1,165.1L371.9,163.9L384.0,163.9L384.0,162.1L388.2,158.5L394.3,158.5L394.3,154.3L393.7,154.3L393.7,150.1L391.9,150.1L393.8,146.6L392.5,145.6L392.3,143.5L374.3,143.5L369.3,143.7L358.9,143.7L343.2,143.7Z"/>
    <path class="wtc-county" id="wtc-county-park" data-county="Park" d="M258.5,216.5L269.2,216.5L272.5,216.9L285.2,216.8L286.8,216.5L293.6,216.7L297.3,216.4L310.3,216.5L310.3,209.6L310.3,209.4L299.3,209.4L292.4,209.4L292.4,202.0L292.8,202.0L292.8,188.7L292.7,183.9L289.7,183.9L289.7,169.3L290.1,167.2L284.9,167.2L284.9,166.9L269.4,166.9L268.9,175.4L269.1,183.8L268.8,183.8L268.8,192.0L266.2,192.0L266.2,194.7L263.7,194.7L263.7,201.9L258.8,201.9L258.8,209.2L258.5,216.5Z"/>
    <path class="wtc-county" id="wtc-county-petroleum" data-county="Petroleum" d="M372.2,109.0L372.0,120.2L371.1,120.5L360.5,120.5L360.5,122.0L355.3,122.0L355.3,125.6L354.5,125.6L354.5,129.2L359.8,129.2L359.8,140.1L358.9,140.1L358.9,143.7L369.3,143.7L374.3,143.5L392.3,143.5L391.8,141.6L389.7,139.5L387.7,138.4L388.9,134.6L390.0,133.3L388.3,131.4L386.8,128.0L388.2,126.3L386.5,122.8L387.0,122.1L386.8,118.6L388.9,116.5L388.9,114.5L389.4,112.1L388.2,109.7L386.2,108.9L382.5,108.4L377.7,109.2L376.8,108.7L372.2,109.0Z"/>
    <path class="wtc-county" id="wtc-county-phillips" data-county="Phillips" d="M375.3,50.0L375.3,53.6L374.4,53.6L374.4,60.8L371.9,60.8L371.9,68.0L370.8,68.0L370.8,74.1L368.1,73.0L368.1,82.5L367.1,82.5L367.1,92.6L361.4,92.5L359.9,92.0L359.2,95.0L348.3,94.9L348.1,102.7L351.0,103.7L352.6,104.9L353.0,106.4L354.8,106.2L357.2,107.5L359.8,107.3L361.4,107.9L363.4,107.4L364.0,108.3L366.8,107.7L367.4,108.8L369.0,108.7L371.3,109.7L372.2,109.0L376.8,108.7L377.7,109.2L382.5,108.4L386.2,108.9L388.2,109.7L389.4,112.1L388.9,114.5L390.9,114.3L390.9,111.9L392.8,110.6L395.0,110.5L396.4,109.5L397.9,107.1L401.2,107.0L401.5,106.3L405.2,106.5L406.1,107.3L408.5,107.3L409.5,104.5L409.5,97.1L410.0,97.1L410.0,82.6L411.5,82.6L411.5,79.0L416.0,79.0L416.0,75.3L414.3,75.3L414.3,71.6L416.1,71.6L416.4,70.1L418.8,70.5L418.2,68.0L418.2,53.6L419.4,53.6L419.4,50.0L408.5,50.1L375.3,50.0Z"/>
    <path class="wtc-county" id="wtc-county-pondera" data-county="Pondera" d="M162.5,78.8L164.9,80.6L167.2,81.4L167.5,84.5L169.1,84.4L171.5,85.9L174.3,85.4L174.9,86.6L176.4,86.2L211.2,86.2L211.2,88.0L216.6,88.1L216.6,89.9L219.3,89.9L219.3,92.3L243.2,92.2L243.2,86.2L243.2,82.5L232.6,82.5L232.6,77.1L227.2,77.1L227.2,75.3L219.0,75.3L219.0,73.4L215.6,73.2L210.9,71.8L209.1,71.5L194.7,71.5L194.7,78.8L162.5,78.8Z"/>
    <path class="wtc-county" id="wtc-county-powder-river" data-county="Powder River" d="M460.5,183.7L458.7,183.7L458.8,185.0L458.7,201.9L456.8,201.9L456.8,209.1L457.5,209.1L457.5,216.8L467.4,216.8L474.8,216.6L507.0,216.6L508.5,216.6L508.5,201.9L510.5,201.9L510.8,183.8L482.6,183.7L460.5,183.7Z"/>
    <path class="wtc-county" id="wtc-county-powell" data-county="Powell" d="M157.6,108.3L157.6,125.8L164.5,125.8L164.5,140.3L166.0,140.5L167.5,142.3L169.8,143.5L169.7,144.5L172.2,145.2L175.4,144.3L175.5,163.8L195.4,163.9L194.9,162.2L197.9,160.7L199.7,161.2L201.8,158.8L204.1,158.9L205.7,157.4L205.9,153.7L206.5,152.8L205.4,151.0L206.5,149.7L205.3,147.6L201.5,147.6L201.5,145.8L196.3,145.8L196.3,140.2L185.5,140.3L185.5,125.9L174.6,125.8L174.6,113.0L172.2,112.9L171.0,108.5L163.4,108.5L157.6,108.3Z"/>
    <path class="wtc-county" id="wtc-county-prairie" data-county="Prairie" d="M464.8,125.8L464.8,139.1L475.4,139.1L475.4,140.3L484.4,140.3L484.4,143.9L486.0,143.9L486.0,147.5L489.6,147.5L489.6,149.9L491.4,150.0L491.4,151.1L500.1,151.2L500.1,152.4L510.7,152.4L510.7,151.2L515.9,151.3L515.9,149.4L521.2,149.4L521.2,147.6L526.4,147.6L526.4,146.4L526.5,139.1L508.9,139.1L508.9,137.8L507.3,136.7L501.9,136.7L501.9,134.2L496.5,134.2L496.5,125.8L493.2,125.8L475.4,125.8L475.4,129.4L470.1,129.4L470.2,125.8L464.8,125.8Z"/>
    <path class="wtc-county" id="wtc-county-ravalli" data-county="Ravalli" d="M121.6,147.4L122.0,149.5L120.5,153.9L118.7,154.0L119.8,156.5L117.8,158.8L117.7,162.9L115.8,163.8L116.6,164.9L116.8,167.7L114.0,168.0L113.7,169.7L116.2,170.9L114.9,173.0L115.5,174.9L118.3,175.9L117.4,177.6L119.3,179.5L118.3,181.1L114.6,181.2L111.9,184.3L114.7,187.0L114.6,188.7L111.9,190.0L113.1,191.3L112.2,193.0L116.2,193.2L118.1,195.3L120.2,196.1L121.0,197.4L124.6,195.9L125.0,193.8L127.0,194.3L129.8,193.3L132.6,190.4L134.9,189.2L134.6,187.7L135.9,187.2L137.7,188.0L139.1,187.5L138.9,185.5L140.9,184.0L142.5,185.3L148.0,181.4L149.2,181.8L152.4,181.2L155.1,179.9L155.5,177.5L155.5,177.4L153.1,177.5L149.4,175.7L148.3,173.5L145.6,173.0L143.5,173.3L145.6,170.2L144.0,168.6L142.9,166.0L144.6,165.4L145.8,163.9L144.3,163.0L144.9,161.6L144.4,159.8L142.9,158.0L141.3,157.5L141.0,154.4L143.5,148.7L142.5,147.4L121.6,147.4Z"/>
    <path class="wtc-county" id="wtc-county-richland" data-county="Richland" d="M500.4,100.4L500.2,104.0L511.0,104.0L511.0,107.7L527.0,107.7L527.0,111.3L530.4,111.3L530.4,118.5L534.2,118.5L546.3,118.6L546.3,116.7L549.9,116.8L549.9,91.8L547.6,91.7L547.8,90.6L546.1,89.3L544.8,90.2L541.5,90.4L539.7,89.6L537.1,89.7L536.7,88.8L533.3,87.7L532.5,86.7L530.4,87.1L529.1,86.4L527.4,87.2L526.2,85.8L525.6,87.0L523.4,87.4L520.1,86.4L517.4,86.7L515.0,85.4L513.2,86.0L512.3,87.7L510.7,87.4L508.3,89.4L507.7,88.4L502.9,88.3L502.0,88.9L502.0,97.1L500.4,97.1L500.4,100.4Z"/>
    <path class="wtc-county" id="wtc-county-roosevelt" data-county="Roosevelt" d="M476.6,68.2L476.6,82.5L475.0,82.5L475.0,91.2L478.9,90.6L481.1,89.4L483.4,89.5L483.1,88.4L486.5,88.2L488.0,88.8L489.2,87.6L491.3,87.9L496.4,87.8L496.8,88.4L500.5,87.9L502.0,88.9L502.9,88.3L507.7,88.4L508.3,89.4L510.7,87.4L512.3,87.7L513.2,86.0L515.0,85.4L517.4,86.7L520.1,86.4L523.4,87.4L525.6,87.0L526.2,85.8L527.4,87.2L529.1,86.4L530.4,87.1L532.5,86.7L533.3,87.7L536.7,88.8L537.1,89.7L539.7,89.6L541.5,90.4L544.8,90.2L546.1,89.3L547.8,90.6L547.6,91.7L549.9,91.8L549.9,76.1L549.7,75.5L525.6,75.5L525.6,71.8L520.1,71.8L520.1,68.2L511.1,68.2L476.6,68.2Z"/>
    <path class="wtc-county" id="wtc-county-rosebud" data-county="Rosebud" d="M389.7,139.5L391.8,141.6L392.3,143.5L392.5,145.6L393.8,146.6L391.9,150.1L393.7,150.1L393.7,154.3L394.3,154.3L396.1,154.9L419.5,154.8L420.4,155.4L420.4,158.4L425.7,158.5L425.7,162.2L426.6,162.2L426.6,169.3L429.4,169.2L429.4,180.3L429.4,181.9L431.9,181.9L431.9,183.8L430.5,183.8L430.5,188.1L438.1,188.6L438.1,201.9L436.4,201.9L436.4,209.1L456.8,209.1L456.8,201.9L458.7,201.9L458.8,185.0L458.7,183.7L460.5,183.7L460.5,169.2L462.1,169.2L462.0,154.8L463.5,154.8L463.5,140.3L464.8,139.7L438.5,139.7L438.5,139.1L407.3,139.2L407.3,139.5L389.7,139.5Z"/>
    <path class="wtc-county" id="wtc-county-sanders" data-county="Sanders" d="M50.0,82.7L50.1,92.6L56.0,98.1L58.2,98.8L59.4,102.0L60.6,101.8L61.7,103.4L63.6,104.3L63.3,106.5L65.1,108.5L63.2,109.7L62.9,110.9L64.5,111.1L65.2,113.1L67.6,113.3L71.5,113.5L71.8,112.7L75.3,113.9L77.0,113.1L79.4,113.7L82.0,113.0L87.2,114.7L88.4,115.7L90.0,115.5L94.7,116.8L95.0,120.3L100.4,120.9L100.4,122.1L102.2,122.1L105.9,122.7L106.8,121.9L111.9,122.7L116.5,124.6L117.7,124.5L121.0,126.0L120.5,126.7L124.9,128.3L127.6,127.5L127.0,125.7L127.0,118.5L123.4,118.5L120.7,117.1L121.9,113.8L123.5,113.8L122.9,112.6L119.5,113.2L120.2,110.8L121.7,110.1L120.8,108.2L111.1,108.2L111.1,102.2L110.2,100.4L110.2,96.9L94.2,97.0L94.2,91.5L93.3,90.9L87.7,90.9L88.1,92.4L86.6,92.7L85.9,95.1L82.0,96.2L80.3,95.0L77.9,95.6L76.9,94.3L75.9,95.4L72.7,95.5L70.6,94.3L71.4,92.4L67.2,88.5L66.9,86.2L64.8,84.4L65.7,83.5L64.2,81.4L61.7,80.9L60.5,82.4L54.8,84.0L53.9,85.4L51.3,84.6L51.5,83.1L50.0,82.7Z"/>
    <path class="wtc-county" id="wtc-county-sheridan" data-county="Sheridan" d="M507.7,50.1L507.7,53.8L508.5,53.8L508.5,64.6L511.1,64.6L511.1,68.2L520.1,68.2L520.1,71.8L525.6,71.8L525.6,75.5L549.7,75.5L549.7,65.3L549.7,50.0L524.7,50.1L507.7,50.1Z"/>
    <path class="wtc-county" id="wtc-county-silver-bow" data-county="Silver Bow" d="M194.7,167.5L192.0,167.7L190.3,169.3L186.3,169.3L186.3,172.9L183.1,172.9L181.8,175.0L179.6,175.2L180.0,178.0L176.0,180.3L173.4,180.7L177.5,182.9L180.0,183.2L181.1,184.1L184.3,184.3L187.0,185.4L188.1,188.0L189.4,188.4L190.0,190.6L195.7,188.1L197.9,184.9L199.4,185.7L210.8,185.4L209.7,184.7L201.4,181.7L201.8,179.6L200.5,177.4L200.2,173.5L199.0,173.3L199.3,171.1L197.0,169.2L197.6,167.2L194.7,167.5Z"/>
    <path class="wtc-county" id="wtc-county-stillwater" data-county="Stillwater" d="M326.2,173.1L326.0,176.6L322.4,176.6L322.6,180.3L320.8,180.3L320.8,183.9L320.0,183.9L320.2,191.2L315.1,191.2L315.1,193.0L309.9,193.0L309.9,194.8L304.8,194.8L304.8,202.0L299.3,202.0L299.3,209.4L310.3,209.4L310.3,209.6L314.9,209.6L314.9,205.7L318.2,205.7L318.2,203.9L319.1,202.6L322.7,200.2L323.6,199.0L325.3,199.0L326.2,197.9L328.7,197.2L335.6,197.2L335.6,194.8L338.3,194.8L338.3,192.1L340.6,192.3L344.7,190.9L346.3,191.5L350.1,191.1L348.4,188.1L347.5,188.1L347.7,176.6L346.8,176.6L346.8,169.4L326.3,169.4L326.2,173.1Z"/>
    <path class="wtc-county" id="wtc-county-sweet-grass" data-county="Sweet Grass" d="M290.1,167.2L289.7,169.3L289.7,183.9L292.7,183.9L292.8,188.7L292.8,202.0L292.4,202.0L292.4,209.4L299.3,209.4L299.3,202.0L304.8,202.0L304.8,194.8L309.9,194.8L309.9,193.0L315.1,193.0L315.1,191.2L320.2,191.2L320.0,183.9L320.8,183.9L320.8,180.3L322.6,180.3L322.4,176.6L326.0,176.6L326.2,173.1L318.4,173.1L318.4,169.4L316.3,169.4L316.3,165.8L290.1,165.7L290.1,167.2Z"/>
    <path class="wtc-county" id="wtc-county-teton" data-county="Teton" d="M176.4,86.2L177.8,86.8L177.8,88.6L179.7,89.3L179.3,90.4L180.9,90.4L182.1,92.7L180.8,93.9L177.6,93.6L180.5,98.4L180.2,101.6L181.1,102.9L180.8,104.5L183.0,107.0L186.1,108.4L188.4,107.6L195.1,106.8L201.1,108.3L201.8,110.3L204.4,110.4L207.1,112.2L209.7,112.3L212.6,111.8L216.6,111.8L221.8,112.3L221.8,107.8L232.6,107.8L232.6,104.3L243.2,104.2L243.2,92.2L219.3,92.3L219.3,89.9L216.6,89.9L216.6,88.1L211.2,88.0L211.2,86.2L176.4,86.2Z"/>
    <path class="wtc-county" id="wtc-county-toole" data-county="Toole" d="M210.6,50.1L210.8,53.6L210.8,68.1L210.9,71.8L215.6,73.2L219.0,73.4L219.0,75.3L227.2,75.3L227.2,77.1L232.6,77.1L232.6,82.5L243.2,82.5L248.9,82.5L248.9,53.6L249.0,50.1L228.6,50.1L210.6,50.1Z"/>
    <path class="wtc-county" id="wtc-county-treasure" data-county="Treasure" d="M396.1,154.9L397.9,157.9L399.5,158.5L399.5,159.7L401.3,160.3L401.3,162.1L403.1,162.7L403.1,163.9L404.8,164.5L405.6,166.9L407.4,167.5L407.1,170.5L405.5,173.1L409.1,173.1L409.1,176.7L419.5,176.7L419.5,178.5L424.6,178.5L424.6,180.3L429.4,180.3L429.4,169.2L426.6,169.3L426.6,162.2L425.7,162.2L425.7,158.5L420.4,158.4L420.4,155.4L419.5,154.8L396.1,154.9Z"/>
    <path class="wtc-county" id="wtc-county-valley" data-county="Valley" d="M419.4,50.0L419.4,53.6L418.2,53.6L418.2,68.0L418.8,70.5L416.4,70.1L416.1,71.6L414.3,71.6L414.3,75.3L416.0,75.3L416.0,79.0L411.5,79.0L411.5,82.6L410.0,82.6L410.0,97.1L409.5,97.1L409.5,104.5L415.1,105.0L416.4,105.8L422.1,105.4L426.4,105.7L431.8,105.1L432.5,102.6L437.9,102.7L438.8,101.1L441.2,100.4L443.3,100.6L444.9,98.3L447.2,96.7L446.3,95.7L448.1,94.5L447.6,93.4L449.9,92.4L451.1,93.4L450.6,90.9L451.8,89.1L455.1,89.3L458.8,90.6L463.2,90.4L462.4,91.4L464.5,91.2L464.8,90.2L467.8,91.4L468.3,90.3L471.8,91.5L472.6,90.2L475.0,91.2L475.0,82.5L476.6,82.5L476.6,68.2L467.5,68.2L467.5,57.4L462.1,57.4L462.1,53.8L463.8,53.8L463.8,50.1L448.5,50.1L419.4,50.0Z"/>
    <path class="wtc-county" id="wtc-county-wheatland" data-county="Wheatland" d="M290.6,145.3L290.6,154.5L290.1,154.5L290.1,165.7L316.3,165.8L326.7,165.8L326.7,154.5L327.3,154.5L327.3,146.1L312.6,146.0L309.4,146.1L303.1,143.6L300.7,144.3L299.9,143.7L297.2,144.2L296.6,145.0L294.0,144.7L293.1,145.4L290.6,145.3Z"/>
    <path class="wtc-county" id="wtc-county-wibaux" data-county="Wibaux" d="M526.5,139.1L526.4,146.4L534.3,146.4L537.0,147.0L537.0,148.2L549.9,148.2L549.9,119.6L549.9,116.8L546.3,116.7L546.3,118.6L534.2,118.5L533.0,120.0L535.7,121.3L538.5,125.8L538.9,131.5L534.6,137.3L531.0,139.1L526.5,139.1Z"/>
    <path class="wtc-county" id="wtc-county-yellowstone" data-county="Yellowstone" d="M346.8,169.4L346.8,176.6L347.7,176.6L347.5,188.1L348.4,188.1L350.1,191.1L352.6,190.0L351.9,193.6L353.5,193.6L353.5,194.8L356.0,194.8L356.2,197.2L358.3,197.2L372.0,197.4L372.0,196.2L377.1,196.2L377.1,195.0L382.3,195.0L382.3,183.9L383.2,183.9L383.2,179.1L390.1,179.1L390.1,177.9L391.9,177.9L391.9,176.7L393.5,176.7L393.5,175.5L398.8,175.5L398.8,173.1L405.5,173.1L407.1,170.5L407.4,167.5L405.6,166.9L404.8,164.5L403.1,163.9L403.1,162.7L401.3,162.1L401.3,160.3L399.5,159.7L399.5,158.5L397.9,157.9L396.1,154.9L394.3,154.3L394.3,158.5L388.2,158.5L384.0,162.1L384.0,163.9L371.9,163.9L370.1,165.1L368.3,165.1L368.3,169.4L352.7,169.4L346.8,169.4Z"/>
  </g>
</svg>