<?xml version="1.0" encoding="UTF-8"?>
<svg xmlns="http://www.w3.org/2000/svg" viewBox="0 0 600 561" id="wtc-state-map-CA" role="img" aria-label="ca county map">
  <title>ca Counties</title>
  <g class="wtc-counties">
    <path class="wtc-county" id="wtc-county-alameda" data-county="Alameda" d="M152.0,250.1L152.7,252.5L151.1,255.5L151.3,255.6L155.0,256.7L155.3,258.6L159.0,260.9L160.2,265.4L161.9,269.1L164.0,269.9L165.1,271.4L169.8,271.0L170.9,271.7L173.6,270.2L193.0,270.3L193.0,270.3L191.5,268.1L188.8,267.4L188.8,254.0L169.5,258.7L166.7,257.4L167.4,256.6L165.1,254.9L160.5,254.6L158.6,254.0L156.4,251.0L154.1,249.7L152.0,250.1Z"/>
    <path class="wtc-county" id="wtc-county-alpine" data-county="Alpine" d="M261.1,220.3L261.1,223.3L263.6,224.0L270.2,227.8L274.2,225.6L276.7,224.8L279.3,225.1L279.1,227.3L282.1,229.2L283.7,227.3L283.0,225.9L285.9,225.1L286.8,220.8L283.1,215.7L283.3,212.7L284.7,210.4L269.2,199.7L270.6,202.8L266.4,207.3L261.1,210.9L261.1,220.3Z"/>
    <path class="wtc-county" id="wtc-county-amador" data-county="Amador" d="M214.7,220.4L214.7,230.5L216.1,234.1L221.0,234.3L225.3,231.1L233.9,228.3L234.8,226.1L239.0,224.5L240.4,223.3L242.3,223.3L244.4,222.0L245.9,222.6L251.0,222.0L254.9,220.7L257.1,221.0L261.1,220.3L261.1,210.9L258.7,211.2L258.0,213.8L254.3,214.5L253.3,216.1L249.4,218.5L246.3,218.6L239.0,220.3L234.1,220.6L227.4,218.2L223.6,218.1L219.6,220.0L218.9,219.4L214.7,220.4Z"/>
    <path class="wtc-county" id="wtc-county-butte" data-county="Butte" d="M194.6,140.4L193.9,141.8L191.1,142.9L187.4,142.9L186.9,145.0L185.0,146.5L184.5,148.6L181.7,148.6L179.6,150.8L179.4,152.3L176.8,153.4L165.1,153.5L163.9,155.5L165.1,157.6L168.1,160.6L169.3,160.6L170.2,162.5L167.5,163.8L167.9,165.1L167.2,169.3L167.5,170.5L174.3,170.3L173.3,171.6L173.6,174.6L172.6,177.8L171.7,181.7L185.3,181.6L185.5,182.0L186.2,180.9L188.5,181.6L192.3,181.0L192.9,180.2L196.2,179.9L197.7,178.7L199.7,175.7L199.5,174.0L200.7,173.3L201.1,171.2L204.2,171.5L204.2,170.8L208.2,171.2L208.6,169.4L210.7,168.8L212.2,167.4L209.3,165.9L207.7,163.1L205.8,162.4L202.1,158.4L198.8,156.3L198.4,154.8L195.8,154.0L196.0,149.8L195.5,147.0L198.1,143.6L196.2,142.2L196.3,140.4L194.6,140.4Z"/>
    <path class="wtc-county" id="wtc-county-calaveras" data-county="Calaveras" d="M261.1,220.3L257.1,221.0L254.9,220.7L251.0,222.0L245.9,222.6L244.4,222.0L242.3,223.3L240.4,223.3L239.0,224.5L234.8,226.1L233.9,228.3L225.3,231.1L221.0,234.3L216.1,234.1L218.9,240.8L219.6,241.3L222.0,243.7L232.9,253.3L233.9,251.8L238.4,248.7L239.5,247.0L238.3,246.3L239.5,244.9L241.9,244.4L242.5,243.1L248.0,236.6L252.1,231.2L254.5,229.2L257.1,226.2L263.6,224.0L261.1,223.3L261.1,220.3Z"/>
    <path class="wtc-county" id="wtc-county-colusa" data-county="Colusa" d="M131.4,177.8L129.6,181.3L130.5,182.6L134.2,184.8L139.4,186.5L142.2,186.3L144.1,188.0L142.9,190.5L143.3,193.8L147.1,195.5L147.5,198.3L150.8,200.1L175.2,200.1L176.1,197.0L175.9,194.9L174.7,193.0L172.8,192.9L170.0,187.7L170.9,186.8L169.8,184.8L171.7,181.7L172.6,177.8L166.8,177.8L166.8,176.3L160.7,176.3L160.7,177.7L131.4,177.8Z"/>
    <path class="wtc-county" id="wtc-county-contra-costa" data-county="Contra Costa" d="M154.3,242.2L152.7,244.6L149.4,244.5L149.4,246.2L147.8,247.2L146.4,246.9L148.8,249.7L152.0,250.1L154.1,249.7L156.4,251.0L158.6,254.0L160.5,254.6L165.1,254.9L167.4,256.6L166.7,257.4L169.5,258.7L188.8,254.0L189.9,252.4L187.8,251.8L188.8,248.4L187.6,245.9L188.8,244.3L187.4,243.4L187.8,240.5L183.8,240.4L182.7,242.1L180.1,243.8L177.5,244.2L175.4,243.6L174.0,241.9L170.9,242.8L168.1,241.8L164.4,242.1L160.4,243.6L158.3,242.5L154.3,242.2Z"/>
    <path class="wtc-county" id="wtc-county-del-norte" data-county="Del Norte" d="M59.6,50.5L60.1,53.3L59.3,57.9L57.5,61.0L60.5,63.3L62.1,63.1L63.4,67.1L66.1,72.5L66.8,76.5L81.1,76.5L81.1,80.6L86.5,80.6L88.8,77.4L86.8,72.9L84.9,72.0L85.5,70.3L83.7,70.2L85.3,67.8L86.5,63.8L85.6,62.8L85.8,60.4L84.4,59.0L87.0,57.2L87.4,55.9L89.3,56.1L91.2,55.1L93.5,50.4L86.7,50.7L78.6,50.7L59.6,50.5Z"/>
    <path class="wtc-county" id="wtc-county-el-dorado" data-county="El Dorado" d="M264.5,193.2L257.6,193.2L255.7,194.9L252.9,195.3L243.5,195.0L241.8,198.1L239.7,199.8L236.7,200.6L233.4,199.1L229.2,196.3L225.2,196.4L222.9,198.8L218.9,198.3L218.9,199.6L214.0,200.6L212.9,203.9L211.0,205.4L211.0,206.9L209.1,210.5L210.1,210.2L214.7,220.4L218.9,219.4L219.6,220.0L223.6,218.1L227.4,218.2L234.1,220.6L239.0,220.3L246.3,218.6L249.4,218.5L253.3,216.1L254.3,214.5L258.0,213.8L258.7,211.2L261.1,210.9L266.4,207.3L270.6,202.8L269.2,199.7L264.6,196.5L264.5,193.2Z"/>
    <path class="wtc-county" id="wtc-county-fresno" data-county="Fresno" d="M238.3,291.6L235.5,293.8L235.8,296.1L232.7,296.0L219.9,306.4L235.3,318.6L235.6,326.4L232.5,327.0L231.6,329.4L231.5,330.2L234.1,332.5L232.0,334.4L233.0,337.2L235.3,337.4L235.8,338.9L238.3,340.6L241.2,341.9L243.5,343.9L247.2,344.2L249.3,346.9L266.6,333.6L266.6,322.9L276.5,322.9L276.9,322.2L280.5,321.4L280.9,322.0L285.4,318.6L290.7,314.4L298.3,314.5L298.5,310.3L314.1,310.4L314.1,306.3L344.4,306.2L342.9,301.9L344.1,301.5L344.1,298.9L341.5,294.1L340.6,291.1L336.1,288.4L332.9,287.0L330.5,287.0L328.6,282.6L329.4,281.2L328.2,279.1L324.0,277.4L323.7,275.0L324.9,272.6L324.2,271.2L323.1,270.0L320.5,270.6L317.4,267.0L314.4,266.6L312.1,265.3L298.0,276.6L296.9,278.5L297.3,283.6L294.5,286.5L292.4,285.8L289.8,288.4L289.4,287.0L287.7,287.5L286.5,286.7L285.8,288.1L287.2,288.6L285.9,290.5L283.8,290.3L283.1,292.4L281.6,291.7L280.7,293.3L279.1,293.5L277.2,295.2L277.6,296.4L274.8,298.8L273.7,301.0L270.2,300.6L267.4,301.8L265.3,301.5L263.2,302.8L260.8,302.3L253.5,305.0L246.6,304.2L246.6,303.0L242.5,300.4L242.6,298.1L239.8,293.4L238.3,291.6Z"/>
    <path class="wtc-county" id="wtc-county-glenn" data-county="Glenn" d="M121.6,157.6L121.6,160.1L122.8,160.1L123.9,161.9L124.2,168.2L131.6,168.2L131.7,174.5L131.4,177.8L160.7,177.7L160.7,176.3L166.8,176.3L166.8,177.8L172.6,177.8L173.6,174.6L173.3,171.6L174.3,170.3L167.5,170.5L167.2,169.3L167.9,165.1L167.5,163.8L170.2,162.5L169.3,160.6L168.1,160.6L165.1,157.6L121.6,157.6Z"/>
    <path class="wtc-county" id="wtc-county-humboldt" data-county="Humboldt" d="M66.8,76.5L66.4,80.9L64.8,88.0L62.9,92.1L62.2,92.2L62.4,96.2L64.5,97.8L63.3,102.7L61.4,106.7L54.0,117.8L51.6,122.4L50.0,126.4L52.3,129.5L53.0,132.5L52.3,135.1L60.8,141.4L64.7,142.8L66.1,144.5L66.1,146.3L68.9,147.7L92.1,147.7L92.1,114.0L92.3,112.1L90.7,106.1L88.4,102.7L91.2,101.6L94.5,103.2L96.8,101.9L96.8,100.7L98.7,98.2L97.9,96.1L96.5,95.8L97.7,91.8L98.7,90.4L97.3,88.1L95.6,81.3L94.2,80.5L86.5,80.6L81.1,80.6L81.1,76.5L66.8,76.5Z"/>
    <path class="wtc-county" id="wtc-county-imperial" data-county="Imperial" d="M455.2,467.7L455.3,484.7L454.1,484.7L454.1,506.9L485.2,504.6L521.5,502.1L522.4,500.8L526.6,501.3L531.0,500.2L530.6,498.5L533.8,495.9L533.9,492.6L533.1,491.5L531.5,487.0L528.5,486.6L527.3,487.1L525.0,486.1L524.5,486.8L522.1,484.0L523.3,481.2L523.6,475.2L521.0,473.5L522.6,470.8L521.2,468.7L525.2,468.1L526.1,467.3L486.4,467.5L485.0,467.6L455.2,467.7Z"/>
    <path class="wtc-county" id="wtc-county-inyo" data-county="Inyo" d="M324.2,271.2L324.9,272.6L323.7,275.0L324.0,277.4L328.2,279.1L329.4,281.2L328.6,282.6L330.5,287.0L332.9,287.0L336.1,288.4L340.6,291.1L341.5,294.1L344.1,298.9L344.1,301.5L342.9,301.9L344.4,306.2L345.7,308.1L344.1,308.7L346.4,311.9L347.9,313.0L347.8,315.2L349.9,316.4L350.0,319.1L351.6,321.4L354.9,321.9L354.2,323.5L357.0,325.9L355.8,327.8L357.0,332.3L359.1,334.7L358.6,337.7L359.5,338.5L360.3,342.0L361.6,342.9L361.0,344.3L362.3,345.1L362.8,348.9L361.7,349.1L361.6,352.7L365.6,352.8L365.6,352.2L379.7,352.3L427.6,352.4L472.1,352.5L472.1,351.7L476.3,351.7L466.7,344.1L447.0,328.9L402.4,295.1L370.1,271.1L324.2,271.2Z"/>
    <path class="wtc-county" id="wtc-county-kern" data-county="Kern" d="M255.2,352.7L255.2,361.2L260.4,361.1L260.4,365.5L263.1,366.8L264.8,369.7L270.4,369.7L270.4,374.0L273.9,374.0L273.9,378.2L280.9,378.3L280.9,382.6L286.3,382.3L285.9,386.8L289.4,386.6L290.3,387.3L290.3,395.9L291.7,395.9L294.7,395.9L294.7,396.9L299.7,396.9L299.7,398.0L301.5,398.0L301.5,400.1L314.4,400.2L314.4,401.2L318.9,401.2L320.3,399.9L346.0,399.9L378.2,399.7L379.9,399.7L379.9,369.1L379.7,359.4L380.6,357.9L378.9,357.9L379.7,356.5L379.7,352.3L365.6,352.2L365.6,352.8L361.6,352.7L358.6,352.5L343.6,352.6L322.8,352.6L287.2,352.7L255.2,352.7Z"/>
    <path class="wtc-county" id="wtc-county-kings" data-county="Kings" d="M249.3,346.9L251.2,347.0L252.9,348.9L252.1,349.9L253.8,351.2L254.2,352.7L255.2,352.7L287.2,352.7L287.2,335.7L287.5,329.3L290.1,329.3L290.1,322.9L287.5,322.9L287.7,318.6L285.4,318.6L280.9,322.0L280.5,321.4L276.9,322.2L276.5,322.9L266.6,322.9L266.6,333.6L249.3,346.9Z"/>
    <path class="wtc-county" id="wtc-county-lake" data-county="Lake" d="M124.2,168.2L124.0,170.7L121.8,171.3L117.4,171.2L115.5,171.9L115.0,176.6L116.7,180.1L117.8,180.8L117.8,182.9L118.8,185.0L116.4,188.0L114.8,188.0L114.1,193.0L115.5,193.3L115.8,195.4L117.2,196.6L119.3,196.6L120.0,199.7L121.1,201.3L123.9,201.5L123.7,202.2L127.4,203.7L130.9,206.0L133.7,210.5L135.7,210.7L136.8,212.6L144.7,210.8L148.0,206.0L149.2,205.3L148.1,203.0L146.8,201.1L147.6,200.1L150.8,200.1L147.5,198.3L147.1,195.5L143.3,193.8L142.9,190.5L144.1,188.0L142.2,186.3L139.4,186.5L134.2,184.8L130.5,182.6L129.6,181.3L131.4,177.8L131.7,174.5L131.6,168.2L124.2,168.2Z"/>
    <path class="wtc-county" id="wtc-county-lassen" data-county="Lassen" d="M199.8,90.2L199.8,103.7L200.4,103.7L200.0,126.1L212.9,126.1L212.9,135.3L215.7,137.0L218.5,137.0L219.4,138.4L222.2,138.1L222.2,136.0L225.9,134.3L227.4,132.4L232.9,132.8L234.2,133.9L236.5,133.9L236.5,134.9L239.8,135.7L241.1,137.8L242.5,137.8L244.7,140.6L248.0,142.2L252.6,142.5L254.3,143.6L254.9,147.1L256.6,149.3L259.4,150.7L259.4,157.8L257.5,162.0L263.8,161.9L264.5,161.3L264.6,160.7L264.8,144.3L264.8,112.7L264.6,111.3L264.6,90.2L222.0,90.2L199.8,90.2Z"/>
    <path class="wtc-county" id="wtc-county-los-angeles" data-county="Los Angeles" d="M332.6,465.1L334.7,467.3L338.2,467.9L338.2,471.0L339.2,472.5L343.7,472.8L346.0,473.8L346.9,472.0L344.1,469.5L343.9,468.4L340.3,467.5L335.4,465.3L332.6,465.1ZM332.4,486.9L333.4,488.0L335.9,492.9L338.2,496.0L341.1,497.8L343.0,496.9L344.8,497.0L337.8,491.6L334.0,486.7L332.4,486.9ZM318.9,401.2L330.1,424.0L331.2,427.9L329.4,428.2L329.4,431.5L323.5,431.5L316.2,436.1L316.0,437.5L320.3,438.1L322.8,439.6L325.6,438.1L329.4,437.8L335.5,437.9L338.5,439.9L340.4,442.6L342.9,447.5L342.7,449.3L341.1,450.7L341.8,452.3L344.4,452.5L346.2,453.6L349.3,454.2L353.0,453.2L353.4,451.2L356.3,452.2L357.4,451.5L357.7,449.3L360.5,445.9L363.1,444.3L363.1,442.4L372.4,442.3L371.5,440.9L373.3,438.6L375.0,438.7L377.6,431.6L379.2,425.6L378.9,423.2L378.2,412.6L378.2,399.7L346.0,399.9L320.3,399.9L318.9,401.2Z"/>
    <path class="wtc-county" id="wtc-county-madera" data-county="Madera" d="M238.3,291.6L239.8,293.4L242.6,298.1L242.5,300.4L246.6,303.0L246.6,304.2L253.5,305.0L260.8,302.3L263.2,302.8L265.3,301.5L267.4,301.8L270.2,300.6L273.7,301.0L274.8,298.8L277.6,296.4L277.2,295.2L279.1,293.5L280.7,293.3L281.6,291.7L283.1,292.4L283.8,290.3L285.9,290.5L287.2,288.6L285.8,288.1L286.5,286.7L287.7,287.5L289.4,287.0L289.8,288.4L292.4,285.8L294.5,286.5L297.3,283.6L296.9,278.5L298.0,276.6L312.1,265.3L311.6,263.1L310.0,260.5L307.2,258.0L303.6,257.9L302.7,259.0L300.1,257.8L298.2,255.9L284.9,266.5L284.9,269.7L283.3,269.7L283.3,271.3L281.6,271.3L281.6,273.4L276.2,273.5L262.0,284.8L259.4,285.6L253.5,285.8L241.4,289.0L238.3,291.6Z"/>
    <path class="wtc-county" id="wtc-county-marin" data-county="Marin" d="M118.5,230.7L120.2,232.9L119.0,233.7L121.1,237.6L120.6,239.6L118.1,244.9L121.6,243.5L124.4,243.9L127.4,245.2L129.1,247.5L133.1,250.3L135.4,249.8L139.9,252.3L141.5,253.9L144.1,253.2L142.9,250.3L144.8,251.5L146.1,250.9L142.7,248.5L143.4,246.7L145.5,245.7L142.9,243.5L143.8,241.6L143.4,239.8L139.6,236.0L135.7,236.3L131.2,235.0L123.0,229.5L120.2,229.7L118.5,230.7Z"/>
    <path class="wtc-county" id="wtc-county-mariposa" data-county="Mariposa" d="M298.2,255.9L294.8,252.9L292.4,251.6L289.3,251.8L287.5,250.3L285.2,250.2L283.8,252.0L281.6,252.9L281.6,253.9L276.9,256.0L273.7,256.9L271.1,256.2L267.6,256.6L263.4,254.3L260.6,253.5L258.3,255.7L255.7,255.1L255.6,256.3L252.9,256.6L251.9,258.0L247.9,258.4L249.6,261.4L248.6,262.1L245.6,260.5L245.8,262.9L251.0,271.4L251.7,274.3L255.7,279.6L255.9,281.0L260.4,283.1L262.0,284.8L276.2,273.5L281.6,273.4L281.6,271.3L283.3,271.3L283.3,269.7L284.9,269.7L284.9,266.5L298.2,255.9Z"/>
    <path class="wtc-county" id="wtc-county-mendocino" data-county="Mendocino" d="M68.9,147.7L73.4,152.2L74.4,154.5L77.2,156.0L77.9,160.5L80.4,164.3L80.4,167.0L81.3,169.2L79.0,174.7L78.5,178.9L79.7,183.3L82.5,188.4L84.9,193.7L85.1,195.4L82.7,198.7L86.8,203.5L92.6,207.7L94.4,207.2L100.6,207.3L100.6,205.9L112.0,205.7L112.0,204.2L114.6,203.6L127.4,203.7L123.7,202.2L123.9,201.5L121.1,201.3L120.0,199.7L119.3,196.6L117.2,196.6L115.8,195.4L115.5,193.3L114.1,193.0L114.8,188.0L116.4,188.0L118.8,185.0L117.8,182.9L117.8,180.8L116.7,180.1L115.0,176.6L115.5,171.9L117.4,171.2L121.8,171.3L124.0,170.7L124.2,168.2L123.9,161.9L122.8,160.1L121.6,160.1L121.6,157.6L120.6,155.3L121.1,152.3L122.5,151.8L121.8,148.9L92.1,148.9L92.1,147.7L68.9,147.7Z"/>
    <path class="wtc-county" id="wtc-county-merced" data-county="Merced" d="M204.9,287.2L204.0,289.4L205.8,290.4L204.0,292.5L204.0,294.6L205.4,295.7L204.6,297.3L206.3,297.9L208.6,300.3L209.1,301.7L219.2,305.8L219.9,306.4L232.7,296.0L235.8,296.1L235.5,293.8L238.3,291.6L241.4,289.0L253.5,285.8L259.4,285.6L262.0,284.8L260.4,283.1L255.9,281.0L255.7,279.6L251.7,274.3L251.0,271.4L245.8,262.9L216.8,274.3L217.7,276.9L204.9,287.2Z"/>
    <path class="wtc-county" id="wtc-county-modoc" data-county="Modoc" d="M194.3,50.6L193.7,52.9L193.7,61.4L194.1,61.4L194.1,78.2L194.3,90.2L199.8,90.2L222.0,90.2L264.6,90.2L264.6,50.8L264.6,50.7L248.6,50.8L221.8,50.8L214.2,50.8L194.3,50.6Z"/>
    <path class="wtc-county" id="wtc-county-mono" data-county="Mono" d="M282.1,229.2L281.7,231.3L283.8,233.6L282.6,235.5L288.2,238.4L289.1,237.6L291.5,240.4L292.4,239.6L296.1,241.0L298.3,243.6L297.6,246.6L298.5,247.8L302.9,250.0L302.7,252.2L303.4,255.1L300.1,257.8L302.7,259.0L303.6,257.9L307.2,258.0L310.0,260.5L311.6,263.1L312.1,265.3L314.4,266.6L317.4,267.0L320.5,270.6L323.1,270.0L324.2,271.2L370.1,271.1L359.3,263.3L341.1,250.1L320.2,235.1L309.2,227.5L305.7,224.9L297.3,219.1L284.7,210.4L283.3,212.7L283.1,215.7L286.8,220.8L285.9,225.1L283.0,225.9L283.7,227.3L282.1,229.2Z"/>
    <path class="wtc-county" id="wtc-county-monterey" data-county="Monterey" d="M176.4,301.0L177.7,303.3L176.3,309.2L175.0,311.7L173.5,313.0L170.3,311.4L168.6,314.5L170.5,315.2L170.2,319.0L172.1,323.2L171.9,325.0L173.3,328.3L175.2,330.2L181.0,332.9L185.3,336.8L188.0,341.2L191.5,342.4L192.3,343.8L193.4,348.0L195.8,349.4L199.1,352.4L210.3,352.5L254.2,352.7L253.8,351.2L252.1,349.9L252.9,348.9L251.2,347.0L249.3,346.9L247.2,344.2L243.5,343.9L241.2,341.9L238.3,340.6L235.8,338.9L235.3,337.4L233.0,337.2L232.0,334.4L234.1,332.5L231.5,330.2L231.6,329.4L228.3,327.3L229.7,329.8L230.2,332.5L227.6,332.5L222.5,328.2L219.6,327.4L218.2,329.0L216.6,328.2L215.4,329.4L214.2,329.0L214.0,327.3L212.2,325.2L204.7,319.2L204.2,317.8L200.7,318.0L201.6,316.7L200.0,315.4L200.4,312.7L198.3,310.5L193.2,309.1L192.3,307.7L193.9,307.2L192.7,305.3L190.6,304.9L186.9,301.7L185.7,301.3L184.6,298.9L181.9,297.7L177.7,299.3L176.4,301.0Z"/>
    <path class="wtc-county" id="wtc-county-napa" data-county="Napa" d="M136.8,212.6L135.9,216.0L137.1,217.8L140.8,219.8L141.5,222.3L143.8,223.1L143.1,224.5L145.5,226.6L145.0,227.2L148.1,230.3L147.6,231.4L149.4,233.1L150.2,235.7L149.2,237.4L147.5,237.5L157.8,237.6L156.9,236.3L157.9,234.7L156.7,232.3L158.1,231.9L157.2,229.7L164.2,229.7L163.0,226.4L161.1,224.2L162.3,220.1L161.1,216.7L159.2,213.2L156.4,211.1L153.2,204.2L150.2,204.4L148.1,203.0L149.2,205.3L148.0,206.0L144.7,210.8L136.8,212.6Z"/>
    <path class="wtc-county" id="wtc-county-nevada" data-county="Nevada" d="M214.9,177.4L211.9,177.2L209.8,177.9L206.0,181.0L205.3,182.7L203.0,183.2L202.3,185.2L202.3,194.7L206.8,195.8L209.3,194.6L210.8,195.9L214.0,195.8L216.4,192.7L217.0,191.1L220.5,188.1L222.4,187.6L222.9,186.4L225.5,185.1L229.2,182.4L233.2,181.1L264.3,181.0L264.5,174.8L240.2,174.7L238.6,173.9L237.6,171.4L236.0,171.0L231.6,171.2L228.5,174.0L225.7,175.1L222.9,175.3L221.8,175.5L216.1,176.4L214.9,177.4Z"/>
    <path class="wtc-county" id="wtc-county-orange" data-county="Orange" d="M356.3,452.2L358.8,453.8L361.9,456.5L365.4,458.9L367.8,459.5L372.4,462.0L375.7,466.0L377.3,465.9L379.9,467.4L381.6,469.5L382.3,466.3L385.8,465.5L385.8,463.8L385.7,462.4L390.6,456.3L387.4,454.2L384.6,453.8L384.4,451.5L382.3,450.9L377.8,446.0L372.4,442.3L363.1,442.4L363.1,444.3L360.5,445.9L357.7,449.3L357.4,451.5L356.3,452.2Z"/>
    <path class="wtc-county" id="wtc-county-placer" data-county="Placer" d="M195.8,196.6L195.8,200.0L193.0,200.1L193.0,208.5L192.3,209.3L209.1,210.5L211.0,206.9L211.0,205.4L212.9,203.9L214.0,200.6L218.9,199.6L218.9,198.3L222.9,198.8L225.2,196.4L229.2,196.3L233.4,199.1L236.7,200.6L239.7,199.8L241.8,198.1L243.5,195.0L252.9,195.3L255.7,194.9L257.6,193.2L264.5,193.2L264.5,190.9L264.5,188.4L264.3,181.0L233.2,181.1L229.2,182.4L225.5,185.1L222.9,186.4L222.4,187.6L220.5,188.1L217.0,191.1L216.4,192.7L214.0,195.8L210.8,195.9L209.3,194.6L206.8,195.8L202.3,194.7L201.1,193.9L198.1,194.9L195.8,196.6Z"/>
    <path class="wtc-county" id="wtc-county-plumas" data-county="Plumas" d="M191.8,126.1L193.0,130.7L197.4,131.2L199.3,132.7L197.6,133.3L199.0,134.3L198.1,137.4L196.2,138.5L194.6,138.3L194.6,140.4L196.3,140.4L196.2,142.2L198.1,143.6L195.5,147.0L196.0,149.8L195.8,154.0L198.4,154.8L198.8,156.3L202.1,158.4L205.8,162.4L207.7,163.1L209.3,165.9L212.2,167.4L215.6,165.3L218.4,163.8L219.2,160.4L222.2,158.7L225.0,160.3L226.2,161.9L228.0,161.4L231.5,163.4L233.5,162.1L257.5,162.0L259.4,157.8L259.4,150.7L256.6,149.3L254.9,147.1L254.3,143.6L252.6,142.5L248.0,142.2L244.7,140.6L242.5,137.8L241.1,137.8L239.8,135.7L236.5,134.9L236.5,133.9L234.2,133.9L232.9,132.8L227.4,132.4L225.9,134.3L222.2,136.0L222.2,138.1L219.4,138.4L218.5,137.0L215.7,137.0L212.9,135.3L212.9,126.1L200.0,126.1L191.8,126.1Z"/>
    <path class="wtc-county" id="wtc-county-riverside" data-county="Riverside" d="M535.3,435.8L492.5,435.9L492.5,438.1L434.4,438.1L414.0,438.1L414.0,439.5L400.2,439.5L399.6,438.8L392.5,438.8L392.3,438.1L383.4,438.1L383.4,440.3L380.9,441.1L380.8,443.4L378.7,443.4L377.8,446.0L382.3,450.9L384.4,451.5L384.6,453.8L387.4,454.2L390.6,456.3L385.7,462.4L385.8,463.8L392.8,463.8L392.5,464.5L398.8,466.5L398.9,467.4L409.1,467.6L455.2,467.7L485.0,467.6L486.4,467.5L526.1,467.3L526.2,466.1L529.4,462.5L531.0,461.5L530.3,459.6L531.0,455.0L532.4,454.5L532.0,451.4L530.8,448.7L531.0,446.6L532.0,446.3L531.7,444.0L530.4,443.2L535.3,438.4L535.3,435.8Z"/>
    <path class="wtc-county" id="wtc-county-sacramento" data-county="Sacramento" d="M187.1,229.9L186.0,235.6L182.6,237.3L181.3,240.9L179.8,240.9L177.1,242.1L174.0,241.9L175.4,243.6L177.5,244.2L180.1,243.8L182.7,242.1L183.8,240.4L187.8,240.5L187.4,239.3L189.9,237.7L190.2,235.7L192.5,232.7L195.1,232.7L196.0,233.8L199.1,234.0L202.8,232.8L205.1,233.2L207.5,232.7L212.8,230.5L214.7,230.5L214.7,220.4L210.1,210.2L209.1,210.5L192.3,209.3L186.6,209.3L185.2,211.7L187.1,213.8L188.5,213.9L189.0,215.7L191.1,215.9L190.4,219.8L189.0,220.1L189.5,221.9L191.3,222.3L191.5,223.6L190.1,224.2L190.6,227.6L187.6,228.9L187.1,229.9Z"/>
    <path class="wtc-county" id="wtc-county-san-benito" data-county="San Benito" d="M184.6,298.9L185.7,301.3L186.9,301.7L190.6,304.9L192.7,305.3L193.9,307.2L192.3,307.7L193.2,309.1L198.3,310.5L200.4,312.7L200.0,315.4L201.6,316.7L200.7,318.0L204.2,317.8L204.7,319.2L212.2,325.2L214.0,327.3L214.2,329.0L215.4,329.4L216.6,328.2L218.2,329.0L219.6,327.4L222.5,328.2L227.6,332.5L230.2,332.5L229.7,329.8L228.3,327.3L231.6,329.4L232.5,327.0L235.6,326.4L235.3,318.6L219.9,306.4L219.2,305.8L209.1,301.7L208.6,300.3L206.3,297.9L204.6,297.3L205.4,295.7L195.7,295.7L193.9,294.3L192.2,294.6L188.7,298.7L187.6,298.7L185.3,298.0L184.6,298.9Z"/>
    <path class="wtc-county" id="wtc-county-san-bernardino" data-county="San Bernardino" d="M378.2,399.7L378.2,412.6L378.9,423.2L379.2,425.6L377.6,431.6L375.0,438.7L373.3,438.6L371.5,440.9L372.4,442.3L377.8,446.0L378.7,443.4L380.8,443.4L380.9,441.1L383.4,440.3L383.4,438.1L392.3,438.1L392.5,438.8L399.6,438.8L400.2,439.5L414.0,439.5L414.0,438.1L434.4,438.1L492.5,438.1L492.5,435.9L535.3,435.8L536.0,434.7L540.7,433.1L542.5,431.4L545.5,430.5L545.6,429.7L550.0,427.0L549.8,425.0L547.9,422.7L545.5,421.9L540.0,417.7L537.8,417.5L538.1,415.0L533.6,405.0L529.6,402.4L528.3,399.5L525.6,397.1L525.7,391.0L500.1,370.4L487.8,360.6L476.3,351.7L472.1,351.7L472.1,352.5L427.6,352.4L379.7,352.3L379.7,356.5L378.9,357.9L380.6,357.9L379.7,359.4L379.9,369.1L379.9,399.7L378.2,399.7Z"/>
    <path class="wtc-county" id="wtc-county-san-diego" data-county="San Diego" d="M381.6,469.5L386.0,472.1L393.0,480.2L394.6,482.4L396.8,487.8L398.4,494.5L396.8,497.0L398.2,498.8L398.1,501.7L398.6,504.5L401.0,503.5L402.4,504.4L404.0,506.9L404.5,511.0L454.1,506.9L454.1,484.7L455.3,484.7L455.2,467.7L409.1,467.6L398.9,467.4L398.8,466.5L392.5,464.5L392.8,463.8L385.8,463.8L385.8,465.5L382.3,466.3L381.6,469.5Z"/>
    <path class="wtc-county" id="wtc-county-san-francisco" data-county="San Francisco" d="M148.3,259.3L149.7,259.0L148.5,255.3L147.5,254.3L144.7,254.6L142.2,255.8L142.9,259.3L148.3,259.3Z"/>
    <path class="wtc-county" id="wtc-county-san-joaquin" data-county="San Joaquin" d="M187.8,240.5L187.4,243.4L188.8,244.3L187.6,245.9L188.8,248.4L187.8,251.8L189.9,252.4L188.8,254.0L188.8,267.4L191.5,268.1L193.0,270.3L204.2,261.5L208.9,258.8L213.1,257.2L214.5,257.7L216.1,256.8L219.8,257.9L219.6,241.3L218.9,240.8L216.1,234.1L214.7,230.5L212.8,230.5L207.5,232.7L205.1,233.2L202.8,232.8L199.1,234.0L196.0,233.8L195.1,232.7L192.5,232.7L190.2,235.7L189.9,237.7L187.4,239.3L187.8,240.5Z"/>
    <path class="wtc-county" id="wtc-county-san-luis-obispo" data-county="San Luis Obispo" d="M199.1,352.4L200.5,354.5L200.7,356.3L203.7,359.1L207.9,360.1L211.0,364.4L215.7,368.6L220.5,369.2L222.4,371.4L222.7,373.5L221.0,379.0L222.9,381.0L227.6,383.3L228.1,382.4L230.6,382.7L233.7,385.1L233.9,388.1L233.0,392.3L234.2,392.8L240.2,391.5L243.5,391.7L250.1,395.4L250.3,393.7L248.2,390.9L251.9,389.8L254.3,390.0L255.7,389.2L256.4,387.4L258.3,386.4L260.4,385.6L266.0,388.3L268.1,388.2L271.6,389.5L272.8,390.7L276.9,392.3L280.5,392.4L283.3,393.5L287.2,396.1L290.3,395.9L290.3,387.3L289.4,386.6L285.9,386.8L286.3,382.3L280.9,382.6L280.9,378.3L273.9,378.2L273.9,374.0L270.4,374.0L270.4,369.7L264.8,369.7L263.1,366.8L260.4,365.5L260.4,361.1L255.2,361.2L255.2,352.7L254.2,352.7L210.3,352.5L199.1,352.4Z"/>
    <path class="wtc-county" id="wtc-county-san-mateo" data-county="San Mateo" d="M142.9,259.3L143.3,262.4L142.0,265.7L142.2,268.4L143.3,269.8L145.4,270.4L145.7,272.5L147.8,276.3L146.9,281.6L147.6,284.2L150.6,286.7L150.9,288.0L153.0,288.5L151.8,284.7L155.5,284.5L155.5,283.3L159.8,283.3L159.8,279.9L157.9,278.3L158.8,277.9L157.4,276.2L158.1,272.7L159.3,271.7L161.9,271.1L160.5,269.0L159.2,269.2L154.4,265.9L149.7,264.9L150.1,263.8L148.3,259.3L142.9,259.3Z"/>
    <path class="wtc-county" id="wtc-county-santa-barbara" data-county="Santa Barbara" d="M310.4,464.5L310.0,465.6L312.0,465.9L311.8,464.2L310.4,464.5ZM268.5,436.0L270.6,438.1L270.7,440.7L278.1,441.7L281.1,440.4L285.9,439.9L287.9,438.1L284.4,437.3L283.1,438.9L279.8,438.8L276.5,437.0L273.9,437.2L271.6,436.3L268.5,436.0ZM252.6,439.6L255.9,443.2L258.7,444.8L265.9,442.5L265.7,440.5L262.5,440.0L262.5,438.0L260.3,438.8L258.0,438.4L256.4,439.3L252.6,439.6ZM242.8,437.9L246.3,438.8L250.0,438.6L247.7,437.5L246.6,436.0L245.6,437.2L242.8,437.9ZM233.0,392.3L232.0,395.7L234.9,398.0L233.5,402.9L235.5,405.5L233.2,411.4L234.2,412.8L236.3,412.6L239.1,413.9L241.4,416.6L241.6,417.9L250.0,417.0L257.6,416.7L260.3,417.3L264.3,417.3L270.7,419.8L274.6,419.4L277.7,420.5L280.5,419.5L286.1,419.6L290.0,421.4L291.5,420.0L291.7,417.2L291.7,395.9L290.3,395.9L287.2,396.1L283.3,393.5L280.5,392.4L276.9,392.3L272.8,390.7L271.6,389.5L268.1,388.2L266.0,388.3L260.4,385.6L258.3,386.4L256.4,387.4L255.7,389.2L254.3,390.0L251.9,389.8L248.2,390.9L250.3,393.7L250.1,395.4L243.5,391.7L240.2,391.5L234.2,392.8L233.0,392.3Z"/>
    <path class="wtc-county" id="wtc-county-santa-clara" data-county="Santa Clara" d="M161.9,271.1L159.3,271.7L158.1,272.7L157.4,276.2L158.8,277.9L157.9,278.3L159.8,279.9L163.0,282.9L165.8,284.5L167.7,286.7L172.6,288.6L174.0,288.7L179.1,291.3L184.5,297.0L187.6,297.7L187.6,298.7L188.7,298.7L192.2,294.6L193.9,294.3L195.7,295.7L205.4,295.7L204.0,294.6L204.0,292.5L205.8,290.4L204.0,289.4L204.9,287.2L202.3,284.8L200.0,285.7L198.6,284.8L196.9,286.5L195.7,283.5L193.7,281.6L193.6,280.0L196.2,278.6L195.3,276.3L196.0,275.2L193.7,274.5L193.0,273.2L193.0,270.3L173.6,270.2L170.9,271.7L169.8,271.0L165.1,271.4L161.9,271.1Z"/>
    <path class="wtc-county" id="wtc-county-santa-cruz" data-county="Santa Cruz" d="M159.8,279.9L159.8,283.3L155.5,283.3L155.5,284.5L151.8,284.7L153.0,288.5L157.2,293.1L162.1,295.9L168.6,296.0L170.2,294.8L171.9,295.3L174.0,297.1L176.4,301.0L177.7,299.3L181.9,297.7L184.6,298.9L185.3,298.0L187.6,298.7L187.6,297.7L184.5,297.0L179.1,291.3L174.0,288.7L172.6,288.6L167.7,286.7L165.8,284.5L163.0,282.9L159.8,279.9Z"/>
    <path class="wtc-county" id="wtc-county-shasta" data-county="Shasta" d="M143.1,90.3L145.5,91.4L144.8,94.4L142.4,94.9L141.7,98.1L138.0,100.5L137.8,104.5L134.9,107.6L135.2,109.6L132.3,111.7L133.0,112.5L130.7,114.4L132.8,117.3L133.3,120.0L130.0,120.8L128.4,122.9L126.3,123.1L123.5,126.0L119.0,127.4L117.6,129.9L115.3,131.5L115.5,133.8L119.3,132.6L121.8,132.6L122.7,132.8L124.7,130.8L125.6,131.1L130.7,130.0L135.4,131.8L141.9,128.8L144.8,129.5L150.4,129.7L160.7,128.4L162.8,127.7L166.8,127.0L170.2,127.6L174.5,126.2L180.3,126.5L182.6,125.7L184.5,126.6L191.8,126.1L200.0,126.1L200.4,103.7L199.8,103.7L199.8,90.2L194.3,90.2L143.1,90.3Z"/>
    <path class="wtc-county" id="wtc-county-sierra" data-county="Sierra" d="M215.6,165.3L214.7,169.3L213.1,170.3L214.3,171.4L214.9,177.4L216.1,176.4L221.8,175.5L222.9,175.3L225.7,175.1L228.5,174.0L231.6,171.2L236.0,171.0L237.6,171.4L238.6,173.9L240.2,174.7L264.5,174.8L264.5,161.3L263.8,161.9L257.5,162.0L233.5,162.1L231.5,163.4L228.0,161.4L226.2,161.9L225.0,160.3L222.2,158.7L219.2,160.4L218.4,163.8L215.6,165.3Z"/>
    <path class="wtc-county" id="wtc-county-siskiyou" data-county="Siskiyou" d="M93.5,50.4L91.2,55.1L89.3,56.1L87.4,55.9L87.0,57.2L84.4,59.0L85.8,60.4L85.6,62.8L86.5,63.8L85.3,67.8L83.7,70.2L85.5,70.3L84.9,72.0L86.8,72.9L88.8,77.4L86.5,80.6L94.2,80.5L95.6,81.3L97.3,88.1L98.7,90.4L104.1,92.3L106.8,95.4L112.5,95.4L116.2,97.2L117.1,98.9L120.0,98.5L121.8,99.5L123.5,97.9L122.5,95.9L120.2,94.9L120.9,91.8L123.9,89.2L128.4,89.0L132.1,86.4L135.1,84.9L135.7,83.6L138.7,82.9L140.5,81.5L143.6,83.4L142.4,85.6L142.2,89.2L143.1,90.3L194.3,90.2L194.1,78.2L194.1,61.4L193.7,61.4L193.7,52.9L194.3,50.6L167.4,50.3L153.2,50.1L142.9,50.0L136.4,50.3L116.4,50.3L111.5,50.0L107.5,50.3L101.7,50.5L93.5,50.4Z"/>
    <path class="wtc-county" id="wtc-county-solano" data-county="Solano" d="M147.5,237.5L148.0,238.2L152.7,240.0L154.3,242.2L158.3,242.5L160.4,243.6L164.4,242.1L168.1,241.8L170.9,242.8L174.0,241.9L177.1,242.1L179.8,240.9L181.3,240.9L182.6,237.3L186.0,235.6L187.1,229.9L182.2,229.8L182.2,219.5L179.9,219.0L177.7,219.7L174.2,218.9L170.2,219.2L166.7,221.3L164.6,219.9L162.3,220.1L161.1,224.2L163.0,226.4L164.2,229.7L157.2,229.7L158.1,231.9L156.7,232.3L157.9,234.7L156.9,236.3L157.8,237.6L147.5,237.5Z"/>
    <path class="wtc-county" id="wtc-county-sonoma" data-county="Sonoma" d="M92.6,207.7L96.1,210.2L102.6,217.6L106.4,220.2L108.9,221.0L112.3,223.2L115.3,227.6L115.5,230.4L118.5,230.7L120.2,229.7L123.0,229.5L131.2,235.0L135.7,236.3L139.6,236.0L143.4,239.8L145.9,239.4L148.0,238.2L147.5,237.5L149.2,237.4L150.2,235.7L149.4,233.1L147.6,231.4L148.1,230.3L145.0,227.2L145.5,226.6L143.1,224.5L143.8,223.1L141.5,222.3L140.8,219.8L137.1,217.8L135.9,216.0L136.8,212.6L135.7,210.7L133.7,210.5L130.9,206.0L127.4,203.7L114.6,203.6L112.0,204.2L112.0,205.7L100.6,205.9L100.6,207.3L94.4,207.2L92.6,207.7Z"/>
    <path class="wtc-county" id="wtc-county-stanislaus" data-county="Stanislaus" d="M193.0,270.3L193.0,273.2L193.7,274.5L196.0,275.2L195.3,276.3L196.2,278.6L193.6,280.0L193.7,281.6L195.7,283.5L196.9,286.5L198.6,284.8L200.0,285.7L202.3,284.8L204.9,287.2L217.7,276.9L216.8,274.3L245.8,262.9L232.9,253.3L222.0,243.7L219.6,241.3L219.8,257.9L216.1,256.8L214.5,257.7L213.1,257.2L208.9,258.8L204.2,261.5L193.0,270.3L193.0,270.3Z"/>
    <path class="wtc-county" id="wtc-county-sutter" data-county="Sutter" d="M171.7,181.7L169.8,184.8L170.9,186.8L170.0,187.7L172.8,192.9L174.7,193.0L175.9,194.9L176.1,197.0L175.2,200.1L176.8,200.6L176.3,202.4L177.8,203.4L179.4,202.7L180.8,203.7L180.8,206.0L182.6,208.0L187.1,208.0L186.6,209.3L192.3,209.3L193.0,208.5L193.0,200.1L195.8,200.0L195.8,196.6L192.2,196.8L189.5,197.8L188.0,200.4L186.2,193.6L187.4,192.1L185.9,187.6L186.0,185.3L185.0,183.7L185.5,182.0L185.3,181.6L171.7,181.7Z"/>
    <path class="wtc-county" id="wtc-county-tehama" data-county="Tehama" d="M119.3,132.6L115.5,133.8L116.2,134.7L119.7,136.0L120.0,138.7L119.2,140.7L120.6,142.9L120.9,147.9L121.8,148.9L122.5,151.8L121.1,152.3L120.6,155.3L121.6,157.6L165.1,157.6L163.9,155.5L165.1,153.5L176.8,153.4L179.4,152.3L179.6,150.8L181.7,148.6L184.5,148.6L185.0,146.5L186.9,145.0L187.4,142.9L191.1,142.9L193.9,141.8L194.6,140.4L194.6,138.3L196.2,138.5L198.1,137.4L199.0,134.3L197.6,133.3L199.3,132.7L197.4,131.2L193.0,130.7L191.8,126.1L184.5,126.6L182.6,125.7L180.3,126.5L174.5,126.2L170.2,127.6L166.8,127.0L162.8,127.7L160.7,128.4L150.4,129.7L144.8,129.5L141.9,128.8L135.4,131.8L130.7,130.0L125.6,131.1L124.7,130.8L122.7,132.8L121.8,132.6L119.3,132.6Z"/>
    <path class="wtc-county" id="wtc-county-trinity" data-county="Trinity" d="M98.7,90.4L97.7,91.8L96.5,95.8L97.9,96.1L98.7,98.2L96.8,100.7L96.8,101.9L94.5,103.2L91.2,101.6L88.4,102.7L90.7,106.1L92.3,112.1L92.1,114.0L92.1,147.7L92.1,148.9L121.8,148.9L120.9,147.9L120.6,142.9L119.2,140.7L120.0,138.7L119.7,136.0L116.2,134.7L115.5,133.8L115.3,131.5L117.6,129.9L119.0,127.4L123.5,126.0L126.3,123.1L128.4,122.9L130.0,120.8L133.3,120.0L132.8,117.3L130.7,114.4L133.0,112.5L132.3,111.7L135.2,109.6L134.9,107.6L137.8,104.5L138.0,100.5L141.7,98.1L142.4,94.9L144.8,94.4L145.5,91.4L143.1,90.3L142.2,89.2L142.4,85.6L143.6,83.4L140.5,81.5L138.7,82.9L135.7,83.6L135.1,84.9L132.1,86.4L128.4,89.0L123.9,89.2L120.9,91.8L120.2,94.9L122.5,95.9L123.5,97.9L121.8,99.5L120.0,98.5L117.1,98.9L116.2,97.2L112.5,95.4L106.8,95.4L104.1,92.3L98.7,90.4Z"/>
    <path class="wtc-county" id="wtc-county-tulare" data-county="Tulare" d="M344.4,306.2L314.1,306.3L314.1,310.4L298.5,310.3L298.3,314.5L290.7,314.4L285.4,318.6L287.7,318.6L287.5,322.9L290.1,322.9L290.1,329.3L287.5,329.3L287.2,335.7L287.2,352.7L322.8,352.6L343.6,352.6L358.6,352.5L361.6,352.7L361.7,349.1L362.8,348.9L362.3,345.1L361.0,344.3L361.6,342.9L360.3,342.0L359.5,338.5L358.6,337.7L359.1,334.7L357.0,332.3L355.8,327.8L357.0,325.9L354.2,323.5L354.9,321.9L351.6,321.4L350.0,319.1L349.9,316.4L347.8,315.2L347.9,313.0L346.4,311.9L344.1,308.7L345.7,308.1L344.4,306.2Z"/>
    <path class="wtc-county" id="wtc-county-tuolumne" data-county="Tuolumne" d="M263.6,224.0L257.1,226.2L254.5,229.2L252.1,231.2L248.0,236.6L242.5,243.1L241.9,244.4L239.5,244.9L238.3,246.3L239.5,247.0L238.4,248.7L233.9,251.8L232.9,253.3L245.8,262.9L245.6,260.5L248.6,262.1L249.6,261.4L247.9,258.4L251.9,258.0L252.9,256.6L255.6,256.3L255.7,255.1L258.3,255.7L260.6,253.5L263.4,254.3L267.6,256.6L271.1,256.2L273.7,256.9L276.9,256.0L281.6,253.9L281.6,252.9L283.8,252.0L285.2,250.2L287.5,250.3L289.3,251.8L292.4,251.6L294.8,252.9L298.2,255.9L300.1,257.8L303.4,255.1L302.7,252.2L302.9,250.0L298.5,247.8L297.6,246.6L298.3,243.6L296.1,241.0L292.4,239.6L291.5,240.4L289.1,237.6L288.2,238.4L282.6,235.5L283.8,233.6L281.7,231.3L282.1,229.2L279.1,227.3L279.3,225.1L276.7,224.8L274.2,225.6L270.2,227.8L263.6,224.0Z"/>
    <path class="wtc-county" id="wtc-county-ventura" data-county="Ventura" d="M292.2,438.3L291.0,439.0L292.6,439.9L295.5,439.7L295.5,438.4L293.6,439.0L292.2,438.3ZM290.0,421.4L290.8,421.5L294.3,424.2L295.0,424.1L298.0,426.3L299.7,426.7L302.7,432.6L306.9,434.8L309.0,434.9L316.0,437.5L316.2,436.1L323.5,431.5L329.4,431.5L329.4,428.2L331.2,427.9L330.1,424.0L318.9,401.2L314.4,401.2L314.4,400.2L301.5,400.1L301.5,398.0L299.7,398.0L299.7,396.9L294.7,396.9L294.7,395.9L291.7,395.9L291.7,417.2L291.5,420.0L290.0,421.4ZM285.1,474.8L286.6,477.0L290.1,477.9L292.4,477.3L291.0,476.0L287.5,474.5L285.1,474.8Z"/>
    <path class="wtc-county" id="wtc-county-yolo" data-county="Yolo" d="M150.8,200.1L147.6,200.1L146.8,201.1L148.1,203.0L150.2,204.4L153.2,204.2L156.4,211.1L159.2,213.2L161.1,216.7L162.3,220.1L164.6,219.9L166.7,221.3L170.2,219.2L174.2,218.9L177.7,219.7L179.9,219.0L182.2,219.5L182.2,229.8L187.1,229.9L187.6,228.9L190.6,227.6L190.1,224.2L191.5,223.6L191.3,222.3L189.5,221.9L189.0,220.1L190.4,219.8L191.1,215.9L189.0,215.7L188.5,213.9L187.1,213.8L185.2,211.7L186.6,209.3L187.1,208.0L182.6,208.0L180.8,206.0L180.8,203.7L179.4,202.7L177.8,203.4L176.3,202.4L176.8,200.6L175.2,200.1L150.8,200.1Z"/>
    <path class="wtc-county" id="wtc-county-yuba" data-county="Yuba" d="M185.5,182.0L185.0,183.7L186.0,185.3L185.9,187.6L187.4,192.1L186.2,193.6L188.0,200.4L189.5,197.8L192.2,196.8L195.8,196.6L198.1,194.9L201.1,193.9L202.3,194.7L202.3,185.2L203.0,183.2L205.3,182.7L206.0,181.0L209.8,177.9L211.9,177.2L214.9,177.4L214.3,171.4L213.1,170.3L214.7,169.3L215.6,165.3L212.2,167.4L210.7,168.8L208.6,169.4L208.2,171.2L204.2,170.8L204.2,171.5L201.1,171.2L200.7,173.3L199.5,174.0L199.7,175.7L197.7,178.7L196.2,179.9L192.9,180.2L192.3,181.0L188.5,181.6L186.2,180.9L185.5,182.0Z"/>
  </g>
</svg>