<?xml version="1.0" encoding="UTF-8"?>
<svg xmlns="http://www.w3.org/2000/svg" viewBox="0 0 600 433" id="wtc-state-map-HI" role="img" aria-label="hi county map">
  <title>hi Counties</title>
  <g class="wtc-counties">
    <path class="wtc-county" id="wtc-county-hawaii" data-county="Hawaii" d="M424.5,300.0L427.4,309.4L430.7,310.0L433.2,315.7L435.0,325.6L438.2,326.6L437.9,330.6L441.5,339.7L440.1,352.8L438.2,362.5L441.9,370.7L449.8,373.2L457.7,377.7L463.1,383.0L470.3,377.5L472.1,372.4L475.0,369.2L474.7,366.4L479.0,361.3L484.0,359.9L488.7,355.8L494.5,353.6L501.0,347.9L504.2,347.1L510.0,348.4L517.2,346.9L524.4,342.8L532.7,339.6L537.7,334.7L543.9,330.7L548.6,326.3L550.0,322.5L548.2,320.7L540.3,317.3L532.3,310.2L532.7,305.3L530.2,300.4L524.4,301.4L521.5,300.6L521.2,292.8L522.2,288.7L516.1,282.2L510.3,277.3L502.4,272.0L497.7,270.4L483.7,263.7L474.7,261.0L470.3,261.5L464.9,257.4L457.0,253.6L455.9,250.9L449.4,248.1L442.9,247.3L440.1,250.5L440.4,259.6L441.9,263.5L448.0,271.6L446.9,276.6L441.1,281.1L436.4,289.1L432.1,289.7L425.3,296.2L424.5,300.0Z"/>
    <path class="wtc-county" id="wtc-county-honolulu" data-county="Honolulu" d="M201.4,115.7L206.1,119.5L206.1,124.8L211.1,130.6L211.5,133.3L215.5,136.2L218.0,143.4L220.5,143.8L231.3,142.1L240.3,143.0L246.5,145.7L248.6,147.9L256.2,145.4L260.2,147.0L264.5,143.8L258.4,137.7L258.7,135.2L255.8,133.2L257.3,127.7L253.0,127.5L251.9,132.4L245.4,127.7L244.3,123.6L245.7,122.3L244.3,117.8L237.1,110.6L234.9,104.5L232.8,102.2L227.7,103.5L223.0,107.6L221.6,110.7L216.9,114.9L201.4,115.7Z"/>
    <path class="wtc-county" id="wtc-county-kalawao" data-county="Kalawao" d="M328.3,155.2L335.9,157.7L338.0,160.8L340.2,159.0L338.0,156.9L335.1,156.1L333.7,152.5L328.3,155.2Z"/>
    <path class="wtc-county" id="wtc-county-kauai" data-county="Kauai" d="M50.0,70.3L53.2,75.5L61.9,78.0L68.4,84.2L81.4,85.2L84.2,86.5L94.3,79.8L95.8,77.4L95.4,68.2L99.4,62.8L99.4,58.8L97.6,54.9L94.0,51.7L88.6,50.0L85.7,51.2L79.9,50.3L78.8,52.4L70.5,50.9L67.7,53.1L55.8,59.3L54.3,63.5L50.4,66.8L50.0,70.3ZM3.9,88.5L3.5,91.9L7.8,94.5L13.6,86.2L20.8,83.7L20.1,80.6L21.9,75.7L21.2,73.0L17.2,73.8L16.5,77.1L9.6,81.0L5.3,84.8L3.9,88.5Z"/>
    <path class="wtc-county" id="wtc-county-maui" data-county="Maui" d="M360.0,181.7L362.2,186.8L366.9,191.8L376.2,196.1L381.3,194.0L383.8,195.7L386.3,213.8L392.5,216.1L400.0,215.3L410.9,210.7L415.9,211.6L422.0,208.5L424.2,208.8L428.9,205.3L431.8,201.6L431.8,197.1L430.0,194.3L418.8,191.2L417.0,187.7L413.4,186.4L407.2,182.0L407.2,180.6L397.9,178.8L391.4,181.8L382.7,184.3L379.1,180.0L375.5,173.3L370.8,170.4L365.8,171.0L361.8,175.8L360.0,181.7ZM359.7,220.7L363.3,223.5L369.8,221.5L371.6,222.8L376.2,221.2L374.4,219.7L375.9,215.9L372.3,213.3L362.2,218.2L359.7,220.7ZM323.6,183.4L324.3,186.1L329.4,188.9L330.5,195.2L333.0,200.4L339.1,200.0L346.0,197.5L349.2,191.8L346.3,187.4L340.2,182.3L330.8,180.6L326.1,181.1L323.6,183.4ZM328.3,155.2L310.6,152.9L309.6,151.7L303.4,151.6L304.1,156.6L300.9,159.1L298.7,163.5L304.5,165.0L315.0,164.6L320.4,163.4L329.7,166.0L342.4,168.8L349.6,167.0L356.1,162.6L358.9,157.8L352.8,155.7L343.1,157.2L338.0,156.9L340.2,159.0L338.0,160.8L335.9,157.7L328.3,155.2Z"/>
  </g>
</svg>