<?xml version="1.0" encoding="UTF-8"?>
<svg xmlns="http://www.w3.org/2000/svg" viewBox="0 0 600 433" id="wtc-state-map-HI" role="img" aria-label="hi county map">
  <title>hi Counties</title>
  <g class="wtc-counties">
    <path class="wtc-county" id="wtc-county-hawaii" data-county="Hawaii" d="M424.5,132.9L427.4,123.6L430.7,122.9L433.2,117.2L435.0,107.4L438.2,106.3L437.9,102.4L441.5,93.2L440.1,80.2L438.2,70.4L441.9,62.3L449.8,59.7L457.7,55.3L463.1,50.0L470.3,55.4L472.1,60.5L475.0,63.7L474.7,66.6L479.0,71.7L484.0,73.0L488.7,77.2L494.5,79.3L501.0,85.0L504.2,85.8L510.0,84.5L517.2,86.1L524.4,90.1L532.7,93.4L537.7,98.2L543.9,102.3L548.6,106.7L550.0,110.5L548.2,112.3L540.3,115.7L532.3,122.7L532.7,127.7L530.2,132.6L524.4,131.5L521.5,132.4L521.2,140.2L522.2,144.2L516.1,150.8L510.3,155.7L502.4,161.0L497.7,162.6L483.7,169.2L474.7,172.0L470.3,171.5L464.9,175.5L457.0,179.3L455.9,182.1L449.4,184.9L442.9,185.6L440.1,182.4L440.4,173.4L441.9,169.5L448.0,161.4L446.9,156.4L441.1,151.9L436.4,143.9L432.1,143.3L425.3,136.7L424.5,132.9Z"/>
    <path class="wtc-county" id="wtc-county-honolulu" data-county="Honolulu" d="M201.4,317.3L206.1,313.4L206.1,308.1L211.1,302.4L211.5,299.7L215.5,296.8L218.0,289.5L220.5,289.2L231.3,290.9L240.3,289.9L246.5,287.3L248.6,285.0L256.2,287.5L260.2,286.0L264.5,289.2L258.4,295.2L258.7,297.7L255.8,299.8L257.3,305.3L253.0,305.5L251.9,300.6L245.4,305.3L244.3,309.4L245.7,310.7L244.3,315.1L237.1,322.4L234.9,328.4L232.8,330.8L227.7,329.5L223.0,325.3L221.6,322.3L216.9,318.1L201.4,317.3Z"/>
    <path class="wtc-county" id="wtc-county-kalawao" data-county="Kalawao" d="M328.3,277.8L335.9,275.3L338.0,272.2L340.2,274.0L338.0,276.1L335.1,276.8L333.7,280.5L328.3,277.8Z"/>
    <path class="wtc-county" id="wtc-county-kauai" data-county="Kauai" d="M50.0,362.7L53.2,357.4L61.9,354.9L68.4,348.8L81.4,347.8L84.2,346.5L94.3,353.2L95.8,355.6L95.4,364.7L99.4,370.2L99.4,374.2L97.6,378.0L94.0,381.2L88.6,383.0L85.7,381.7L79.9,382.7L78.8,380.5L70.5,382.1L67.7,379.8L55.8,373.6L54.3,369.4L50.4,366.1L50.0,362.7ZM3.9,344.5L3.5,341.0L7.8,338.4L13.6,346.8L20.8,349.2L20.1,352.3L21.9,357.2L21.2,359.9L17.2,359.1L16.5,355.9L9.6,352.0L5.3,348.2L3.9,344.5Z"/>
    <path class="wtc-county" id="wtc-county-maui" data-county="Maui" d="M360.0,251.2L362.2,246.2L366.9,241.2L376.2,236.9L381.3,239.0L383.8,237.2L386.3,219.1L392.5,216.9L400.0,217.6L410.9,222.2L415.9,221.4L422.0,224.5L424.2,224.2L428.9,227.6L431.8,231.4L431.8,235.8L430.0,238.6L418.8,241.8L417.0,245.3L413.4,246.5L407.2,250.9L407.2,252.3L397.9,254.1L391.4,251.1L382.7,248.6L379.1,252.9L375.5,259.7L370.8,262.5L365.8,262.0L361.8,257.2L360.0,251.2ZM359.7,212.2L363.3,209.4L369.8,211.4L371.6,210.1L376.2,211.8L374.4,213.2L375.9,217.0L372.3,219.6L362.2,214.7L359.7,212.2ZM323.6,249.6L324.3,246.8L329.4,244.0L330.5,237.7L333.0,232.6L339.1,233.0L346.0,235.5L349.2,241.1L346.3,245.5L340.2,250.7L330.8,252.3L326.1,251.9L323.6,249.6ZM328.3,277.8L310.6,280.0L309.6,281.2L303.4,281.4L304.1,276.4L300.9,273.9L298.7,269.4L304.5,267.9L315.0,268.4L320.4,269.6L329.7,266.9L342.4,264.1L349.6,266.0L356.1,270.4L358.9,275.1L352.8,277.3L343.1,275.7L338.0,276.1L340.2,274.0L338.0,272.2L335.9,275.3L328.3,277.8Z"/>
  </g>
</svg>