<?xml version="1.0" encoding="UTF-8"?>
<svg xmlns="http://www.w3.org/2000/svg" viewBox="0 0 443 600" id="wtc-state-map-NJ" role="img" aria-label="nj county map">
  <title>nj Counties</title>
  <g class="wtc-counties">
    <path class="wtc-county" id="wtc-county-atlantic" data-county="Atlantic" d="M190.4,410.0L168.2,429.2L194.8,448.0L194.0,468.5L227.3,475.7L244.3,474.9L250.2,471.3L259.8,473.4L276.8,464.3L301.9,446.4L309.3,436.7L307.1,432.4L293.0,432.6L284.9,420.6L273.1,421.6L262.0,417.9L243.5,406.3L235.4,405.4L235.4,397.6L219.9,385.0L190.4,410.0Z"/>
    <path class="wtc-county" id="wtc-county-bergen" data-county="Bergen" d="M327.8,96.1L315.2,119.3L319.6,125.3L341.8,130.4L346.2,152.7L344.0,160.7L341.1,167.6L350.7,169.7L367.6,160.0L374.3,164.9L384.6,147.9L388.3,140.5L392.8,124.3L390.5,124.1L327.8,96.1Z"/>
    <path class="wtc-county" id="wtc-county-burlington" data-county="Burlington" d="M170.4,319.3L152.7,331.1L163.0,333.6L162.3,340.3L170.4,342.1L179.3,352.9L185.2,372.5L202.2,373.0L219.9,385.0L235.4,397.6L235.4,405.4L243.5,406.3L262.0,417.9L273.1,421.6L284.9,420.6L290.8,412.6L290.8,376.0L257.6,313.1L250.2,300.9L242.8,300.0L225.1,292.0L222.1,298.4L210.3,304.6L202.9,303.2L194.0,312.2L170.4,319.3Z"/>
    <path class="wtc-county" id="wtc-county-camden" data-county="Camden" d="M152.7,331.1L138.6,337.8L136.4,352.3L148.2,362.2L146.8,367.5L168.2,389.8L177.1,391.4L190.4,410.0L219.9,385.0L202.2,373.0L185.2,372.5L179.3,352.9L170.4,342.1L162.3,340.3L163.0,333.6L152.7,331.1Z"/>
    <path class="wtc-county" id="wtc-county-cape-may" data-county="Cape May" d="M183.0,498.7L188.9,502.6L186.7,514.8L175.6,532.0L171.1,547.5L179.3,550.0L193.3,547.5L208.1,536.9L224.3,510.6L239.8,489.7L259.8,473.4L250.2,471.3L244.3,474.9L227.3,475.7L194.0,468.5L189.6,471.7L186.7,486.9L181.5,489.0L183.0,498.7Z"/>
    <path class="wtc-county" id="wtc-county-cumberland" data-county="Cumberland" d="M152.7,418.1L149.7,423.2L148.2,441.1L116.5,420.2L89.9,441.3L80.3,442.0L81.8,456.6L89.9,465.0L95.1,463.5L106.1,475.6L113.5,473.4L115.7,478.7L129.0,485.3L130.5,493.6L137.2,497.8L142.3,491.5L155.6,490.9L160.1,495.4L183.0,498.7L181.5,489.0L186.7,486.9L189.6,471.7L194.0,468.5L194.8,448.0L168.2,429.2L152.7,418.1Z"/>
    <path class="wtc-county" id="wtc-county-essex" data-county="Essex" d="M315.2,144.8L304.1,142.5L301.9,161.9L295.3,166.2L294.5,177.1L304.1,181.9L312.2,180.8L325.5,183.8L327.8,187.2L343.3,190.6L347.7,184.7L346.2,176.8L336.6,175.5L341.1,167.6L344.0,160.7L315.2,144.8Z"/>
    <path class="wtc-county" id="wtc-county-gloucester" data-county="Gloucester" d="M79.5,370.2L80.3,371.8L87.7,385.7L98.0,393.2L123.9,397.9L152.7,418.1L168.2,429.2L190.4,410.0L177.1,391.4L168.2,389.8L146.8,367.5L148.2,362.2L136.4,352.3L121.7,357.1L109.8,360.5L92.1,362.4L79.5,370.2Z"/>
    <path class="wtc-county" id="wtc-county-hudson" data-county="Hudson" d="M341.1,167.6L336.6,175.5L346.2,176.8L347.7,184.7L343.3,190.6L338.1,196.7L356.6,193.4L361.7,187.4L366.2,183.5L369.1,172.0L374.3,164.9L367.6,160.0L350.7,169.7L341.1,167.6Z"/>
    <path class="wtc-county" id="wtc-county-hunterdon" data-county="Hunterdon" d="M126.1,207.7L132.0,213.4L144.6,212.5L151.9,219.0L150.5,235.8L153.4,243.8L171.9,247.1L177.1,259.2L194.8,258.1L191.8,251.7L205.9,250.1L204.4,243.6L216.9,242.2L206.6,223.3L211.8,225.7L224.3,209.3L226.6,201.5L221.4,199.2L222.1,181.4L201.4,176.6L188.1,167.2L171.9,183.1L161.5,186.5L143.1,197.8L135.0,200.1L126.1,207.7Z"/>
    <path class="wtc-county" id="wtc-county-mercer" data-county="Mercer" d="M177.1,259.2L192.6,268.7L197.7,277.9L212.5,285.1L222.1,298.4L225.1,292.0L242.8,300.0L250.2,300.9L244.3,291.9L255.4,290.3L259.1,284.8L271.6,277.2L271.6,273.1L242.8,262.5L243.5,252.4L236.9,248.9L222.9,252.3L216.9,242.2L204.4,243.6L205.9,250.1L191.8,251.7L194.8,258.1L177.1,259.2Z"/>
    <path class="wtc-county" id="wtc-county-middlesex" data-county="Middlesex" d="M243.5,252.4L242.8,262.5L271.6,273.1L271.6,277.2L290.1,271.9L298.2,262.5L320.4,245.5L324.8,236.2L317.4,233.7L317.4,226.1L319.6,217.3L326.3,214.4L329.2,207.4L327.0,205.1L311.5,207.5L308.5,204.2L276.0,206.1L265.7,209.7L262.7,214.3L276.8,227.3L262.0,238.6L250.9,243.4L243.5,252.4Z"/>
    <path class="wtc-county" id="wtc-county-monmouth" data-county="Monmouth" d="M271.6,277.2L259.1,284.8L255.4,290.3L244.3,291.9L250.2,300.9L257.6,313.1L287.1,294.0L317.4,295.0L321.1,305.7L339.6,308.8L349.2,301.2L356.6,311.1L364.7,308.7L364.7,304.1L375.0,271.9L377.3,253.0L374.3,237.1L371.3,244.8L361.0,243.2L343.3,235.5L324.8,236.2L320.4,245.5L298.2,262.5L290.1,271.9L271.6,277.2Z"/>
    <path class="wtc-county" id="wtc-county-morris" data-county="Morris" d="M212.5,141.9L205.1,147.9L202.9,157.1L188.1,167.2L201.4,176.6L222.1,181.4L256.8,173.4L265.7,185.8L263.5,195.9L276.0,190.7L294.5,177.1L295.3,166.2L301.9,161.9L304.1,142.5L315.2,144.8L313.7,129.0L309.3,123.7L290.8,121.1L279.0,112.4L267.9,114.9L267.9,105.9L239.1,131.0L236.9,139.8L225.1,144.4L220.6,139.8L212.5,141.9Z"/>
    <path class="wtc-county" id="wtc-county-ocean" data-county="Ocean" d="M364.7,308.7L356.6,311.1L349.2,301.2L339.6,308.8L321.1,305.7L317.4,295.0L287.1,294.0L257.6,313.1L290.8,376.0L290.8,412.6L284.9,420.6L293.0,432.6L307.1,432.4L321.8,420.9L351.4,378.3L355.1,347.7L364.7,308.7Z"/>
    <path class="wtc-county" id="wtc-county-passaic" data-county="Passaic" d="M267.9,105.9L267.9,114.9L279.0,112.4L290.8,121.1L309.3,123.7L313.7,129.0L315.2,144.8L344.0,160.7L346.2,152.7L341.8,130.4L319.6,125.3L315.2,119.3L327.8,96.1L322.6,94.2L295.3,81.6L267.9,105.9Z"/>
    <path class="wtc-county" id="wtc-county-salem" data-county="Salem" d="M50.0,405.6L50.7,410.5L59.6,415.6L55.2,440.4L69.2,444.8L76.6,454.7L81.8,456.6L80.3,442.0L89.9,441.3L116.5,420.2L148.2,441.1L149.7,423.2L152.7,418.1L123.9,397.9L98.0,393.2L87.7,385.7L80.3,371.8L70.7,377.6L67.0,388.4L60.3,394.1L50.0,405.6Z"/>
    <path class="wtc-county" id="wtc-county-somerset" data-county="Somerset" d="M222.1,181.4L221.4,199.2L226.6,201.5L224.3,209.3L211.8,225.7L206.6,223.3L216.9,242.2L222.9,252.3L236.9,248.9L243.5,252.4L250.9,243.4L262.0,238.6L276.8,227.3L262.7,214.3L265.7,209.7L276.0,206.1L283.4,201.9L287.9,192.1L278.3,194.8L276.0,190.7L263.5,195.9L265.7,185.8L256.8,173.4L222.1,181.4Z"/>
    <path class="wtc-county" id="wtc-county-sussex" data-county="Sussex" d="M166.7,104.6L171.9,104.1L212.5,141.9L220.6,139.8L225.1,144.4L236.9,139.8L239.1,131.0L267.9,105.9L295.3,81.6L228.0,50.0L216.2,52.3L200.0,64.5L189.6,86.4L181.5,95.1L166.7,104.6Z"/>
    <path class="wtc-county" id="wtc-county-union" data-county="Union" d="M276.0,206.1L308.5,204.2L311.5,207.5L327.0,205.1L329.2,207.4L329.2,199.6L338.1,196.7L343.3,190.6L327.8,187.2L325.5,183.8L312.2,180.8L304.1,181.9L294.5,177.1L276.0,190.7L278.3,194.8L287.9,192.1L283.4,201.9L276.0,206.1Z"/>
    <path class="wtc-county" id="wtc-county-warren" data-county="Warren" d="M140.9,130.1L145.3,139.3L154.9,150.2L137.9,170.2L129.8,169.3L123.1,187.0L129.0,190.9L123.9,196.2L124.6,204.2L126.1,207.7L135.0,200.1L143.1,197.8L161.5,186.5L171.9,183.1L188.1,167.2L202.9,157.1L205.1,147.9L212.5,141.9L171.9,104.1L160.1,115.4L137.9,125.8L140.9,130.1Z"/>
  </g>
</svg>