<?xml version="1.0" encoding="UTF-8"?>
<svg xmlns="http://www.w3.org/2000/svg" viewBox="0 0 600 128" id="wtc-state-map-AK" role="img" aria-label="ak county map">
  <title>ak Counties</title>
  <g class="wtc-counties">
    <path class="wtc-county" id="wtc-county-aleutians-east" data-county="Aleutians East" d="M60.8,54.4L60.9,54.3L61.0,54.3L61.0,54.4L60.9,54.4L60.8,54.4L60.8,54.4ZM60.6,54.4L60.7,54.4L60.8,54.5L60.8,54.6L60.7,54.6L60.7,54.5L60.6,54.4ZM60.5,54.3L60.4,54.2L60.6,54.2L60.6,54.2L60.5,54.3ZM60.4,54.8L60.4,54.6L60.5,54.6L60.5,54.6L60.6,54.6L60.6,54.6L60.5,54.6L60.6,54.7L60.6,54.8L60.5,54.8L60.6,54.9L60.6,54.9L60.5,54.8L60.4,54.8L60.4,54.8ZM60.1,54.3L60.2,54.2L60.3,54.2L60.2,54.3L60.1,54.3ZM60.1,54.6L60.1,54.5L60.2,54.6L60.3,54.6L60.3,54.7L60.1,54.6L60.1,54.6ZM59.7,55.0L59.8,55.0L59.8,55.0L59.7,55.0ZM59.5,54.4L59.5,54.3L59.7,54.5L59.8,54.5L59.9,54.6L59.9,54.7L60.1,54.6L60.1,54.7L60.1,54.8L60.1,54.8L60.1,54.7L60.0,54.7L60.0,54.8L60.1,54.8L60.1,54.9L60.0,54.9L59.9,54.8L59.8,54.8L59.8,54.7L59.8,54.7L59.7,54.7L59.6,54.7L59.6,54.6L59.7,54.6L59.8,54.6L59.7,54.5L59.5,54.4ZM59.4,55.1L59.4,55.1L59.7,55.1L59.7,55.2L59.5,55.2L59.4,55.1ZM58.6,55.0L58.7,54.9L58.7,54.8L58.7,54.8L58.7,54.7L58.8,54.8L58.9,54.8L58.9,54.7L59.1,54.7L59.2,54.8L59.1,54.9L59.1,54.9L59.1,55.0L59.1,55.0L59.1,55.0L59.2,54.9L59.3,54.9L59.4,54.9L59.4,55.0L59.4,55.0L59.3,55.0L59.1,55.0L59.0,55.1L59.0,55.0L58.9,55.0L58.9,55.1L58.8,55.1L58.7,55.1L58.6,55.0ZM57.8,54.8L57.8,54.8L57.9,54.7L57.9,54.8L57.8,54.8ZM57.4,54.8L57.4,54.8L57.6,54.8L57.7,54.9L57.5,54.9L57.4,54.8ZM57.1,54.7L57.2,54.6L57.2,54.7L57.4,54.6L57.5,54.7L57.6,54.6L57.6,54.7L57.4,54.7L57.4,54.7L57.2,54.8L57.1,54.7L57.1,54.7ZM56.4,54.4L56.4,54.3L56.5,54.3L56.6,54.3L56.6,54.4L56.6,54.5L56.5,54.5L56.4,54.4ZM55.8,53.7L55.7,53.7L55.9,53.6L55.9,53.6L56.1,53.6L56.2,53.6L56.3,53.6L56.4,53.6L56.5,53.6L56.4,53.7L56.2,53.7L56.1,53.7L55.8,53.8L55.8,53.7ZM55.3,55.1L55.3,55.1L55.4,55.1L55.3,55.1ZM52.8,53.4L52.9,53.3L53.0,53.4L52.9,53.4L52.8,53.4ZM61.5,57.1L61.4,57.2L61.3,57.1L60.9,57.0L60.7,57.0L60.5,56.9L60.1,56.7L60.0,56.6L59.7,56.5L59.7,56.5L59.5,56.4L59.4,56.4L59.3,56.3L59.2,56.1L59.0,55.9L59.1,55.9L59.1,55.9L59.3,55.8L59.5,55.7L59.4,55.7L59.5,55.6L59.4,55.6L59.3,55.7L59.2,55.7L59.2,55.8L58.9,55.8L58.7,55.8L58.8,55.8L58.8,55.6L58.9,55.6L58.9,55.6L58.8,55.6L58.7,55.6L58.5,55.7L58.5,55.8L58.7,55.8L58.7,55.9L58.6,55.9L58.6,55.9L58.7,56.0L58.7,56.0L58.4,56.0L58.4,56.0L58.2,56.0L57.8,55.9L57.6,55.9L57.4,55.8L57.3,55.8L57.1,55.7L57.0,55.7L56.9,55.6L56.8,55.6L56.6,55.5L56.3,55.3L56.1,55.2L56.2,55.2L56.3,55.1L56.2,55.0L56.1,55.0L56.1,55.1L55.9,55.0L55.8,55.0L55.8,54.9L55.7,54.9L55.7,54.9L55.8,54.9L55.7,54.8L55.6,54.8L55.4,54.8L55.3,54.8L55.1,54.7L55.1,54.6L55.1,54.5L55.2,54.4L55.0,54.5L55.0,54.4L55.1,54.3L54.9,54.3L55.0,54.4L54.9,54.4L54.8,54.5L54.8,54.6L54.6,54.6L54.4,54.6L54.2,54.6L54.1,54.5L53.9,54.5L53.8,54.4L53.6,54.4L53.5,54.4L53.4,54.4L53.3,54.3L53.3,54.3L53.2,54.2L53.1,54.0L53.0,54.0L52.8,53.9L52.7,53.9L52.7,53.8L52.8,53.8L52.8,53.7L52.9,53.7L53.0,53.6L53.2,53.6L53.4,53.7L53.6,53.7L53.6,53.8L53.8,53.9L54.0,54.0L54.1,54.0L54.4,54.0L54.6,54.0L54.7,54.0L54.8,54.0L54.9,54.0L54.9,54.1L55.0,54.2L55.1,54.1L55.2,54.0L55.3,54.1L55.4,54.1L55.3,54.0L55.5,54.0L55.4,54.1L55.3,54.2L55.2,54.2L55.1,54.2L55.0,54.2L55.1,54.3L55.2,54.3L55.5,54.4L55.5,54.5L55.2,54.6L55.3,54.6L55.4,54.7L55.5,54.6L55.6,54.6L55.6,54.5L55.7,54.4L55.8,54.4L55.9,54.4L56.0,54.5L55.9,54.5L56.0,54.5L56.2,54.5L56.2,54.5L56.1,54.7L56.1,54.7L56.1,54.8L56.0,54.8L55.9,54.8L56.0,54.9L56.1,55.0L56.1,54.9L56.2,54.9L56.3,54.7L56.4,54.7L56.2,54.7L56.3,54.6L56.4,54.6L56.5,54.6L56.6,54.5L56.7,54.6L56.7,54.7L56.7,54.7L56.8,54.7L56.8,54.7L56.9,54.6L57.0,54.7L57.0,54.7L57.0,54.8L56.9,54.8L57.0,54.9L57.1,54.8L57.2,54.9L57.2,54.9L57.4,55.1L57.4,55.3L57.5,55.4L57.7,55.4L57.8,55.4L57.9,55.4L57.9,55.3L57.7,55.2L57.7,55.0L57.8,55.0L57.9,55.1L58.0,55.0L58.1,55.0L58.4,55.1L58.5,55.2L58.6,55.3L58.7,55.2L58.7,55.2L58.7,55.2L58.9,55.2L58.9,55.3L58.8,55.3L58.8,55.3L58.9,55.3L59.0,55.3L59.0,55.3L59.1,55.2L59.2,55.2L59.2,55.3L59.3,55.4L59.2,55.4L59.3,55.5L59.5,55.4L59.6,55.5L59.8,55.6L59.8,55.7L60.0,55.7L60.0,55.6L60.1,55.7L60.1,55.7L60.1,55.7L60.3,55.7L60.4,55.7L60.3,55.6L60.3,55.5L60.4,55.5L60.4,55.4L60.3,55.4L60.3,55.3L60.4,55.4L60.5,55.4L60.5,55.8L60.1,55.8L60.1,55.9L60.1,55.9L60.1,56.4L60.0,56.4L60.0,56.7L60.5,56.7L60.5,56.8L60.9,56.8L60.9,56.9L61.2,56.9L61.2,57.0L61.5,57.0L61.5,57.1ZM52.3,53.2L52.3,53.2L52.6,53.2L52.7,53.2L52.8,53.2L52.7,53.3L52.6,53.2L52.4,53.3L52.3,53.2ZM52.0,53.2L52.0,53.2L52.2,53.2L52.2,53.1L52.3,53.2L52.3,53.2L52.0,53.2ZM51.8,53.1L51.9,53.1L51.9,53.1L51.9,53.2L51.8,53.1ZM51.7,53.4L51.7,53.4L51.8,53.4L51.8,53.4L51.7,53.4L51.7,53.3L51.9,53.2L52.0,53.3L52.1,53.3L52.1,53.4L51.9,53.4L51.8,53.4L52.0,53.5L51.9,53.5L51.8,53.5L51.7,53.5L51.7,53.4ZM51.1,53.3L51.1,53.2L51.1,53.1L51.2,53.2L51.4,53.2L51.4,53.1L51.5,53.2L51.5,53.2L51.7,53.2L51.7,53.3L51.6,53.2L51.6,53.3L51.5,53.3L51.4,53.3L51.4,53.4L51.2,53.4L51.1,53.3L51.1,53.3ZM50.9,53.0L50.9,53.0L51.1,53.0L51.0,53.1L50.9,53.0Z"/>
    <path class="wtc-county" id="wtc-county-aleutians-west" data-county="Aleutians West" d="M549.6,50.2L549.6,50.1L549.6,50.0L549.8,50.0L549.8,50.0L550.0,50.1L550.0,50.1L549.8,50.2L549.7,50.2L549.6,50.2L549.6,50.2ZM548.3,49.7L548.5,49.6L548.6,49.6L548.7,49.6L548.8,49.5L549.0,49.4L549.2,49.3L549.3,49.3L549.4,49.3L549.5,49.3L549.5,49.3L549.4,49.3L549.2,49.3L549.2,49.4L549.0,49.4L548.9,49.5L548.8,49.6L548.7,49.6L548.6,49.7L548.5,49.7L548.4,49.7L548.3,49.7ZM548.1,50.2L548.2,50.0L548.2,50.0L548.3,50.1L548.2,50.1L548.1,50.2L548.1,50.2ZM547.8,49.9L547.9,49.9L548.0,49.8L547.9,49.9L547.8,49.9ZM547.6,50.2L547.6,50.2L547.7,50.2L547.7,50.2L547.6,50.3L547.6,50.2ZM546.3,50.0L546.3,50.0L546.4,50.0L546.5,50.0L546.5,50.0L546.6,50.1L546.8,50.1L546.9,50.1L546.9,50.1L546.8,50.1L546.9,50.2L546.9,50.3L547.0,50.3L546.9,50.4L546.8,50.4L546.7,50.2L546.7,50.2L546.5,50.1L546.4,50.1L546.3,50.0ZM544.4,50.7L544.4,50.7L544.5,50.7L544.4,50.7ZM541.8,51.2L541.8,51.2L541.9,51.2L541.9,51.2L541.8,51.2ZM541.6,51.3L541.7,51.2L541.7,51.3L541.6,51.3ZM541.5,51.3L541.5,51.3L541.6,51.3L541.5,51.3ZM540.7,50.8L540.9,50.7L541.1,50.8L541.2,50.7L541.3,50.7L541.2,50.8L541.2,50.9L541.3,50.9L541.1,50.9L541.0,50.8L540.9,50.8L540.8,50.8L540.7,50.8ZM539.4,51.5L539.5,51.5L539.7,51.5L539.9,51.5L539.9,51.4L540.0,51.3L540.1,51.3L540.2,51.3L540.4,51.3L540.5,51.3L540.6,51.4L540.7,51.4L540.8,51.4L540.8,51.4L540.7,51.5L540.5,51.5L540.4,51.6L539.9,51.6L539.7,51.6L539.4,51.5ZM48.5,52.1L48.6,52.0L48.9,52.0L48.9,52.0L49.1,52.0L49.1,52.1L49.2,52.1L49.3,52.1L49.3,52.2L49.6,52.2L49.6,52.2L49.7,52.3L49.8,52.2L49.8,52.3L49.9,52.2L50.1,52.3L50.2,52.4L50.3,52.3L50.3,52.4L50.4,52.4L50.4,52.5L50.5,52.5L50.4,52.5L50.6,52.6L50.8,52.6L50.8,52.6L51.0,52.7L51.1,52.7L51.1,52.8L51.0,52.9L50.9,52.8L50.9,52.8L50.6,52.7L50.4,52.7L50.4,52.7L50.6,52.8L50.8,52.9L50.9,52.9L50.9,53.0L50.8,53.0L50.8,53.0L50.7,53.1L50.6,53.0L50.6,53.0L50.5,52.9L50.5,53.0L50.4,52.9L50.3,52.9L50.3,53.0L50.4,53.0L50.3,53.1L50.2,53.1L50.1,53.1L49.9,53.1L49.7,53.0L49.6,52.9L49.6,52.8L49.7,52.7L49.8,52.7L50.1,52.7L50.0,52.6L50.0,52.6L50.0,52.6L49.9,52.7L49.8,52.7L49.7,52.6L49.7,52.6L49.8,52.5L49.7,52.5L49.6,52.5L49.5,52.5L49.6,52.4L49.5,52.4L49.5,52.3L49.4,52.3L49.3,52.3L49.3,52.2L49.1,52.3L49.1,52.2L48.9,52.2L48.7,52.2L48.6,52.1L48.5,52.1ZM46.8,51.4L46.7,51.4L47.0,51.5L47.2,51.5L47.2,51.5L47.3,51.6L47.3,51.6L47.5,51.7L47.6,51.7L47.7,51.8L47.8,51.9L47.8,51.9L47.9,52.0L48.3,52.1L48.6,52.2L48.5,52.3L48.6,52.4L48.6,52.4L48.5,52.4L48.3,52.4L48.0,52.4L47.8,52.3L47.7,52.2L47.8,52.2L47.7,52.1L47.8,52.1L47.8,52.0L47.7,52.0L47.5,52.0L47.5,52.0L47.2,51.9L47.2,51.8L47.2,51.8L47.2,51.7L47.1,51.7L47.1,51.6L47.0,51.5L46.9,51.5L46.9,51.5L46.8,51.4ZM46.5,51.3L46.5,51.3L46.6,51.3L46.6,51.4L46.5,51.3ZM45.8,51.6L45.8,51.6L45.9,51.6L45.9,51.6L45.9,51.7L45.8,51.7L45.8,51.6ZM45.7,56.8L45.8,56.8L45.9,56.8L45.9,56.7L46.1,56.7L46.2,56.8L46.2,56.8L46.0,56.8L45.7,56.8ZM45.8,51.7L45.7,51.7L45.8,51.7L45.8,51.7ZM45.4,51.4L45.4,51.3L45.5,51.3L45.7,51.4L45.8,51.3L45.9,51.4L45.9,51.5L45.8,51.5L45.6,51.4L45.6,51.4L45.5,51.4L45.4,51.4ZM45.3,51.5L45.3,51.4L45.4,51.4L45.4,51.5L45.4,51.5L45.3,51.5L45.3,51.5ZM45.2,51.2L45.3,51.2L45.4,51.3L45.2,51.3L45.2,51.2ZM44.8,57.6L45.0,57.6L45.0,57.6L45.2,57.7L45.2,57.7L45.1,57.7L45.0,57.7L44.9,57.7L44.8,57.6ZM44.2,51.1L44.2,51.0L44.3,51.0L44.4,51.0L44.5,51.1L44.6,51.1L44.6,51.1L44.6,51.2L44.5,51.2L44.3,51.1L44.2,51.1ZM43.8,51.0L43.7,51.0L43.8,51.0L43.8,51.0ZM43.5,50.9L43.6,50.8L43.7,50.8L43.7,50.9L43.6,50.9L43.5,50.9ZM41.7,50.6L41.7,50.6L41.8,50.6L42.0,50.6L42.1,50.6L42.1,50.7L42.0,50.7L41.9,50.7L41.7,50.7L41.7,50.6ZM39.6,50.4L39.7,50.3L39.7,50.3L39.8,50.3L39.9,50.2L40.0,50.3L40.2,50.3L40.3,50.2L40.4,50.2L40.5,50.2L40.5,50.2L40.7,50.3L40.9,50.3L41.0,50.3L41.0,50.3L41.2,50.3L41.0,50.3L40.9,50.3L40.8,50.3L40.7,50.3L40.6,50.3L40.4,50.4L40.4,50.3L40.3,50.4L40.4,50.4L40.2,50.4L40.1,50.4L40.0,50.4L40.0,50.3L39.8,50.4L39.6,50.4ZM37.8,50.2L37.9,50.2L38.1,50.2L38.2,50.2L38.3,50.2L38.4,50.2L38.5,50.2L38.6,50.2L38.9,50.3L39.1,50.2L39.2,50.3L39.3,50.3L39.4,50.3L39.4,50.4L39.5,50.4L39.5,50.3L39.6,50.4L39.4,50.5L39.4,50.5L39.6,50.5L39.7,50.6L39.7,50.7L39.6,50.7L39.4,50.8L39.2,50.7L39.2,50.7L39.2,50.6L39.0,50.7L39.0,50.6L39.1,50.6L39.3,50.6L39.3,50.5L39.2,50.5L39.0,50.5L39.1,50.4L38.9,50.4L38.9,50.4L38.7,50.3L38.6,50.4L38.6,50.3L38.5,50.3L38.4,50.4L38.3,50.3L38.2,50.3L38.2,50.3L38.1,50.2L38.0,50.3L37.8,50.2ZM37.5,50.2L37.5,50.1L37.6,50.1L37.6,50.2L37.5,50.2ZM37.4,50.4L37.5,50.4L37.5,50.4L37.4,50.4ZM37.2,50.1L37.2,50.1L37.3,50.1L37.4,50.1L37.4,50.1L37.2,50.1L37.2,50.1ZM36.9,50.2L37.0,50.1L37.1,50.1L37.1,50.1L37.1,50.2L36.9,50.2L36.9,50.2ZM36.5,50.3L36.5,50.3L36.5,50.2L36.6,50.2L36.5,50.1L36.6,50.1L36.7,50.1L36.8,50.1L36.7,50.2L36.8,50.2L36.7,50.3L36.6,50.4L36.5,50.3ZM36.4,49.9L36.5,49.9L36.6,49.9L36.6,49.9L36.6,49.9L36.6,49.9L36.8,49.9L36.7,50.0L36.8,50.0L36.8,50.0L36.8,50.1L36.6,50.0L36.7,50.0L36.6,50.0L36.5,50.0L36.5,50.0L36.4,49.9ZM35.4,49.7L35.4,49.6L35.4,49.6L35.5,49.7L35.6,49.7L35.6,49.6L35.7,49.7L35.8,49.6L35.7,49.7L35.8,49.7L35.9,49.7L35.9,49.7L36.0,49.8L36.1,49.8L36.3,49.8L36.4,49.8L36.4,49.9L36.4,50.0L36.2,50.0L36.1,50.0L36.0,50.0L35.9,50.0L35.9,50.0L36.0,50.1L36.0,50.2L35.9,50.2L35.8,50.1L35.7,50.1L35.7,50.1L35.6,50.1L35.7,50.0L35.6,49.9L35.5,49.9L35.5,49.9L35.5,49.8L35.5,49.8L35.4,49.7L35.4,49.7ZM34.7,50.1L34.7,50.0L34.8,50.0L34.7,50.1L34.7,50.1ZM34.3,49.8L34.4,49.7L34.4,49.7L34.4,49.7L34.6,49.8L34.8,49.8L35.0,49.7L35.1,49.8L35.2,49.8L35.1,49.9L35.3,50.0L35.2,50.1L35.1,50.1L35.1,50.1L35.0,49.9L34.9,49.9L34.7,49.8L34.5,49.8L34.4,49.8L34.3,49.8ZM33.6,50.0L33.6,50.0L33.8,49.9L33.8,49.9L33.9,49.9L34.0,49.8L33.8,49.8L33.7,49.7L33.8,49.7L33.9,49.7L34.0,49.7L34.0,49.6L34.0,49.6L34.0,49.7L34.0,49.7L34.1,49.7L34.2,49.8L34.1,49.8L34.2,49.9L34.4,49.9L34.5,50.0L34.3,49.9L34.2,50.0L34.1,49.9L34.0,50.0L34.0,50.0L34.0,50.1L33.8,50.1L33.6,50.0L33.6,50.0ZM32.9,49.6L32.9,49.6L33.1,49.6L33.1,49.6L32.9,49.6ZM32.7,49.6L32.7,49.5L32.8,49.5L32.8,49.6L32.7,49.6ZM32.6,49.9L32.7,49.8L32.8,49.8L32.8,49.9L32.7,50.0L32.6,49.9ZM32.5,49.3L32.5,49.2L32.5,49.2L32.6,49.2L32.6,49.3L32.5,49.3L32.5,49.3ZM32.3,49.2L32.3,49.1L32.4,49.1L32.3,49.2L32.3,49.2Z"/>
    <path class="wtc-county" id="wtc-county-anchorage" data-county="Anchorage" d="M75.1,63.8L75.1,63.8L75.0,63.8L74.7,63.7L74.7,63.6L74.6,63.6L74.4,63.5L74.3,63.5L74.2,63.4L74.3,63.4L74.5,63.3L74.7,63.2L74.9,63.1L75.0,63.1L75.3,63.1L75.5,63.1L75.6,63.0L75.7,63.0L75.7,62.9L75.7,62.8L76.1,62.8L76.1,62.9L76.5,62.9L76.5,63.4L76.5,63.8L75.5,63.8L75.5,63.8L75.4,63.8L75.4,63.9L75.2,63.9L75.1,63.8ZM73.9,63.4L74.0,63.3L74.1,63.4L74.0,63.4L73.9,63.4Z"/>
    <path class="wtc-county" id="wtc-county-bethel" data-county="Bethel" d="M52.5,63.1L52.6,63.0L52.7,63.1L52.8,63.1L52.7,63.0L52.6,62.9L52.8,62.9L52.6,62.9L52.6,62.8L52.7,62.8L52.6,62.7L52.6,62.7L52.3,62.6L52.1,62.6L52.0,62.5L52.1,62.5L52.4,62.4L52.6,62.5L52.7,62.5L52.7,62.5L52.6,62.4L52.5,62.4L52.7,62.2L52.9,62.2L53.1,62.2L53.2,62.1L53.3,62.0L53.4,62.0L53.5,61.8L53.8,61.8L53.9,61.7L53.8,61.7L53.9,61.5L53.9,61.5L54.2,61.4L54.6,61.4L55.0,61.5L55.4,61.5L55.7,61.6L55.9,61.6L56.0,61.7L56.1,61.7L56.2,61.7L56.3,61.7L56.3,61.8L56.3,61.8L56.3,61.9L56.3,62.0L56.4,62.0L56.5,61.9L56.7,61.8L56.7,61.7L56.8,61.6L56.9,61.6L57.1,61.4L57.2,61.2L57.2,61.1L57.3,61.1L57.4,61.0L57.3,61.0L57.2,60.9L57.1,60.8L56.9,60.7L57.0,60.5L57.2,60.4L57.2,60.4L57.2,60.3L57.3,60.2L57.3,60.1L57.3,60.0L57.3,60.0L57.2,59.9L57.2,59.8L57.1,59.8L57.0,59.8L56.7,59.8L56.9,59.7L57.2,59.8L57.3,59.7L57.3,59.6L57.4,59.7L57.5,59.7L57.6,59.7L57.7,59.8L57.9,59.8L57.9,59.9L57.9,59.9L57.9,59.9L57.9,60.0L58.3,60.0L58.4,60.1L58.4,60.3L58.6,60.3L58.6,60.4L58.7,60.4L58.7,60.7L58.9,60.7L58.9,60.8L59.2,60.8L59.2,60.9L59.3,60.9L59.3,61.2L59.5,61.2L59.5,61.4L59.8,61.4L59.8,61.7L60.1,61.7L60.1,61.9L60.2,61.9L60.2,62.0L60.4,62.0L60.4,62.3L60.7,62.3L60.7,62.4L60.8,62.4L60.8,62.7L61.0,62.7L61.0,62.8L61.3,62.8L61.3,62.9L61.4,62.9L61.4,63.0L62.9,63.0L62.9,62.9L63.2,62.9L63.2,63.0L63.4,63.0L63.4,63.2L64.0,63.2L64.0,63.0L65.6,63.0L67.2,63.0L68.1,63.0L69.3,63.0L69.3,63.4L69.3,63.4L69.3,63.8L70.0,63.8L70.0,65.0L69.9,65.0L69.9,64.9L69.4,64.9L69.4,64.8L68.9,64.8L68.9,64.7L67.9,64.7L67.0,64.7L65.8,64.7L64.1,64.7L64.1,64.8L63.3,64.8L62.0,64.8L62.0,64.7L60.9,64.7L60.9,64.5L59.1,64.5L59.2,64.4L59.4,64.4L59.5,64.4L59.6,64.4L59.6,64.3L59.4,64.3L59.2,64.3L59.0,64.3L58.8,64.2L58.6,64.2L58.4,64.1L58.2,64.0L57.8,64.0L57.6,63.9L57.4,63.9L57.1,63.9L57.0,63.9L56.8,63.9L56.5,63.9L56.4,63.9L56.3,63.9L56.3,64.0L56.2,64.0L55.9,63.9L55.9,64.0L55.7,63.9L55.4,63.9L55.3,63.8L55.1,63.8L55.0,63.9L54.9,63.8L54.8,63.8L54.9,63.8L54.8,63.7L54.8,63.7L54.6,63.7L54.4,63.7L54.1,63.7L54.1,63.6L54.1,63.6L54.1,63.5L54.2,63.5L54.2,63.5L54.1,63.4L53.9,63.4L53.8,63.4L53.8,63.3L53.8,63.3L53.9,63.3L53.9,63.2L53.7,63.1L53.5,63.1L53.3,63.1L53.2,63.1L53.2,63.1L52.9,63.1L52.7,63.1L52.7,63.1L52.5,63.1ZM49.1,62.0L49.3,61.9L49.3,61.8L49.4,61.8L49.6,61.7L49.8,61.7L50.0,61.6L50.1,61.6L50.3,61.5L50.3,61.5L50.6,61.5L50.8,61.5L50.9,61.4L51.1,61.4L51.0,61.5L51.2,61.5L51.3,61.5L51.4,61.5L51.4,61.6L51.8,61.6L51.8,61.7L51.9,61.7L51.8,61.7L51.7,61.8L51.6,61.8L51.7,61.9L51.7,61.9L51.6,62.0L51.7,62.0L51.6,62.1L51.7,62.1L51.5,62.2L51.4,62.2L51.2,62.2L51.1,62.2L51.0,62.4L50.9,62.3L50.8,62.3L50.7,62.2L50.5,62.3L50.4,62.2L50.4,62.2L50.2,62.2L50.0,62.1L50.0,62.1L50.0,62.0L49.9,62.0L49.8,62.0L49.7,62.0L49.6,62.1L49.3,62.1L49.1,62.0ZM41.0,62.5L41.2,62.4L41.5,62.2L41.7,62.2L41.8,62.2L42.1,62.2L42.1,62.2L42.2,62.2L41.9,62.3L41.8,62.3L41.7,62.3L41.5,62.4L41.3,62.5L41.2,62.5L41.2,62.6L41.2,62.6L41.1,62.5L41.0,62.5ZM41.0,62.7L40.9,62.7L41.0,62.6L41.0,62.7L41.0,62.7Z"/>
    <path class="wtc-county" id="wtc-county-bristol-bay" data-county="Bristol Bay" d="M64.2,60.1L64.2,60.0L64.1,59.9L64.1,59.9L63.8,59.7L65.2,59.7L65.2,60.1L64.2,60.1Z"/>
    <path class="wtc-county" id="wtc-county-denali" data-county="Denali" d="M70.0,65.7L70.1,65.7L71.6,65.7L71.6,65.8L72.5,66.0L73.9,66.3L75.0,66.5L75.6,66.5L77.1,66.5L77.1,66.7L78.5,66.7L78.6,66.7L78.6,67.9L77.5,67.9L77.4,67.9L77.2,68.0L77.1,68.0L75.5,68.0L75.5,68.0L74.3,68.0L73.2,68.0L72.9,67.8L72.4,67.5L72.3,67.5L72.1,67.5L72.1,67.6L72.0,67.6L71.7,67.6L71.6,67.5L71.7,67.5L71.3,67.5L71.3,67.2L71.1,67.2L71.1,67.0L70.1,67.0L70.1,66.7L70.2,66.7L70.2,66.6L70.5,66.6L70.5,66.5L70.8,66.5L70.8,66.3L70.4,66.0L70.0,65.7Z"/>
    <path class="wtc-county" id="wtc-county-dillingham" data-county="Dillingham" d="M59.4,59.8L59.5,59.8L59.5,59.8L59.4,59.9L59.4,59.8ZM59.2,59.8L59.3,59.9L59.3,59.9L59.2,59.8ZM65.6,63.0L64.0,63.0L64.0,63.2L63.4,63.2L63.4,63.0L63.2,63.0L63.2,62.9L62.9,62.9L62.9,63.0L61.4,63.0L61.4,62.9L61.3,62.9L61.3,62.8L61.0,62.8L61.0,62.7L60.8,62.7L60.8,62.4L60.7,62.4L60.7,62.3L60.4,62.3L60.4,62.0L60.2,62.0L60.2,61.9L60.1,61.9L60.1,61.7L59.8,61.7L59.8,61.4L59.5,61.4L59.5,61.2L59.3,61.2L59.3,60.9L59.2,60.9L59.2,60.8L58.9,60.8L58.9,60.7L58.7,60.7L58.7,60.4L58.6,60.4L58.6,60.3L58.4,60.3L58.4,60.1L58.6,60.1L58.7,60.0L58.8,60.2L58.9,60.2L59.2,60.3L59.4,60.4L59.5,60.3L59.4,60.2L59.5,60.1L59.6,60.2L59.7,60.1L59.7,60.1L59.8,60.1L59.9,60.1L59.9,60.1L60.0,60.0L60.1,60.0L60.1,60.1L60.2,60.1L60.3,60.2L60.4,60.2L60.5,60.1L60.4,60.1L60.5,60.0L60.7,60.0L60.8,59.9L61.0,59.6L61.2,59.4L61.5,59.4L61.6,59.4L61.7,59.5L61.6,59.6L61.6,59.7L61.5,59.8L61.5,59.9L61.6,59.9L61.6,59.9L61.6,60.0L61.6,60.1L61.9,60.2L62.0,60.3L62.0,60.3L62.0,60.1L61.9,60.1L61.9,60.0L62.1,60.0L62.2,59.9L62.3,59.8L62.4,59.7L62.6,59.7L63.0,59.8L63.2,59.9L63.4,59.9L63.4,60.0L63.6,60.0L63.7,60.0L63.9,60.1L63.9,60.4L63.8,60.4L63.8,60.7L64.0,60.7L64.0,60.8L64.5,60.8L64.5,60.9L64.7,60.9L64.7,61.0L64.9,61.0L64.9,61.2L65.4,61.2L65.4,61.3L65.6,61.3L65.6,63.0ZM58.3,59.7L58.3,59.6L58.5,59.6L58.6,59.7L58.9,60.0L58.9,60.0L58.7,59.9L58.5,59.9L58.3,59.9L58.3,59.7ZM58.3,60.0L57.9,60.0L57.9,59.9L57.9,59.9L58.3,60.0Z"/>
    <path class="wtc-county" id="wtc-county-fairbanks-north-star" data-county="Fairbanks North Star" d="M82.8,68.5L82.8,68.5L82.9,68.6L82.8,68.7L82.8,68.8L82.8,68.8L83.0,68.9L83.0,68.9L82.8,69.0L83.1,69.0L83.1,69.1L83.0,69.1L82.5,69.1L82.4,69.1L82.3,69.0L82.0,69.1L81.8,69.1L81.7,69.1L81.5,69.1L81.2,69.0L80.9,69.1L80.8,69.0L80.6,69.0L80.5,69.0L80.4,69.1L80.6,69.1L80.5,69.2L80.2,69.2L80.1,69.3L79.9,69.3L79.9,69.4L80.1,69.5L80.1,69.5L79.9,69.5L79.8,69.6L79.3,69.5L79.4,69.5L79.3,69.4L79.0,69.4L78.6,69.3L78.2,69.3L77.8,69.2L76.2,69.2L76.2,68.7L76.2,68.3L76.4,68.4L76.6,68.3L76.6,68.3L76.8,68.2L76.9,68.1L77.1,68.0L77.2,68.0L77.4,67.9L77.5,67.9L78.6,67.9L79.2,67.9L79.4,67.9L79.6,67.9L79.7,67.9L79.7,68.0L79.9,68.1L80.1,68.0L80.2,68.1L80.5,68.2L80.7,68.1L81.0,68.2L81.0,68.2L81.3,68.2L81.6,68.3L81.7,68.3L81.8,68.3L82.1,68.4L82.3,68.3L82.5,68.4L82.5,68.4L82.7,68.4L82.8,68.4L82.8,68.5Z"/>
    <path class="wtc-county" id="wtc-county-haines" data-county="Haines" d="M95.4,60.3L95.4,60.2L95.5,60.2L95.5,60.2L95.4,60.3ZM94.9,61.3L94.6,61.2L94.2,61.2L94.0,61.1L94.1,61.1L94.1,61.0L94.1,61.0L94.0,60.9L93.8,61.0L93.8,60.7L93.8,60.7L93.9,60.6L94.0,60.6L94.2,60.6L94.3,60.6L94.3,60.6L94.4,60.5L94.6,60.5L94.7,60.5L94.8,60.5L94.9,60.4L94.9,60.4L94.9,60.3L95.1,60.2L95.1,60.1L95.2,60.1L95.1,60.1L94.9,60.1L94.9,60.0L94.9,59.9L94.9,59.9L95.1,59.8L95.2,59.8L95.3,59.7L95.3,59.7L95.5,59.6L95.4,59.5L95.3,59.6L95.2,59.5L95.3,59.4L95.4,59.2L95.5,59.2L95.6,59.2L95.7,59.1L95.8,59.1L95.8,59.2L95.8,59.3L95.9,59.3L95.8,59.3L95.8,59.5L95.7,59.7L95.7,59.7L95.7,59.7L95.6,59.9L95.6,60.0L95.4,60.1L95.5,60.2L95.4,60.2L95.4,60.3L95.4,60.4L95.3,60.4L95.2,60.6L95.0,60.7L95.1,60.7L95.2,60.6L95.4,60.4L95.5,60.4L95.4,60.6L95.3,60.6L95.3,60.7L95.1,60.7L95.2,60.8L95.4,60.7L95.5,60.6L95.6,60.4L95.7,60.3L95.7,60.1L95.9,59.9L95.9,60.0L95.9,60.0L96.0,60.1L95.8,60.2L96.9,60.2L96.8,60.2L96.8,60.3L96.7,60.5L96.6,60.5L96.4,60.6L96.4,60.6L96.0,60.7L95.9,60.8L95.4,60.8L94.9,61.3Z"/>
    <path class="wtc-county" id="wtc-county-hoonah-angoon" data-county="Hoonah-Angoon" d="M98.0,58.6L98.0,58.6L98.0,58.5L98.1,58.6L98.2,58.5L98.3,58.5L98.4,58.5L98.5,58.5L98.7,58.4L98.7,58.5L98.8,58.4L98.9,58.5L99.0,58.4L99.0,58.4L99.0,58.4L99.0,58.3L99.1,58.2L99.2,58.2L99.3,58.2L99.3,58.3L99.2,58.4L99.0,58.6L98.7,58.8L98.6,59.1L98.0,58.6ZM97.8,58.5L97.9,58.5L97.9,58.6L97.8,58.5ZM97.5,57.8L97.6,57.8L97.7,57.8L97.6,57.9L97.5,57.8ZM96.3,59.2L96.3,59.2L96.2,59.2L96.2,59.3L96.0,59.4L96.0,59.4L96.0,59.2L96.0,59.2L96.1,59.1L96.2,59.0L96.2,58.9L96.3,58.8L96.3,58.7L96.4,58.6L96.3,58.4L96.4,58.4L96.4,58.3L96.5,58.2L96.5,58.1L96.7,58.0L96.7,57.9L96.6,58.0L96.5,58.0L96.5,57.9L96.6,57.9L96.5,57.8L96.4,57.7L96.5,57.6L96.5,57.4L96.7,57.4L96.8,57.5L96.8,57.6L97.0,57.6L97.1,57.7L97.3,57.8L97.2,57.9L97.3,57.9L97.4,57.8L97.6,57.9L97.6,57.9L97.5,58.1L97.6,58.1L97.5,58.2L97.5,58.3L97.3,58.3L97.2,58.5L97.2,58.5L97.2,58.6L97.1,58.7L97.2,58.7L97.2,58.6L97.3,58.6L97.4,58.4L97.6,58.3L97.6,58.2L97.6,58.2L97.6,58.3L97.5,58.4L97.5,58.6L97.4,58.6L97.3,58.7L97.2,58.8L97.2,58.9L97.1,59.0L97.1,59.1L96.8,59.0L96.7,59.0L96.6,59.0L96.5,58.9L96.5,58.9L96.4,58.9L96.2,59.0L96.3,59.1L96.3,59.2ZM94.9,59.4L95.0,59.3L95.1,59.3L95.1,59.4L95.0,59.4L94.9,59.4ZM94.3,59.7L94.3,59.6L94.3,59.7L94.3,59.7ZM94.3,59.2L94.4,59.2L94.4,59.2L94.4,59.3L94.3,59.2ZM95.8,58.5L96.0,58.6L95.8,58.7L95.7,58.7L95.7,58.7L95.7,58.7L95.9,58.7L96.0,58.7L96.1,58.8L96.0,58.9L95.8,58.9L95.8,59.0L95.5,59.0L95.4,59.0L95.3,59.0L95.1,58.9L95.1,58.8L95.0,58.8L95.0,58.9L95.1,59.0L95.2,59.1L95.1,59.1L94.9,59.2L94.8,59.3L94.6,59.2L94.5,59.1L94.4,59.2L94.3,59.2L94.1,59.1L94.1,59.2L94.1,59.2L93.9,59.2L94.0,59.1L94.0,59.1L93.8,59.0L93.8,59.0L93.7,59.0L93.7,58.7L93.8,58.7L93.8,58.6L94.0,58.6L94.5,58.6L94.5,58.7L94.6,58.8L94.9,58.7L95.2,58.7L95.3,58.6L95.5,58.5L95.6,58.5L95.8,58.5ZM91.7,60.0L91.7,59.9L91.9,59.9L92.1,59.8L92.1,59.7L92.3,59.6L92.6,59.5L92.7,59.5L92.9,59.4L93.0,59.4L93.1,59.4L93.3,59.3L93.2,59.3L93.4,59.3L93.5,59.2L93.6,59.2L93.7,59.2L93.6,59.3L93.7,59.3L93.9,59.3L94.0,59.3L93.9,59.4L94.0,59.4L94.1,59.4L94.0,59.3L94.1,59.3L94.3,59.3L94.4,59.4L94.3,59.6L94.2,59.7L94.2,59.8L94.0,59.8L94.0,59.8L93.8,59.7L93.8,59.7L93.9,59.8L94.0,59.8L93.8,60.0L93.6,60.1L93.4,60.1L93.4,60.1L93.1,60.1L93.2,60.2L93.2,60.2L93.3,60.2L93.3,60.2L93.6,60.1L93.6,60.2L93.7,60.2L93.8,60.1L93.9,60.0L94.1,59.9L94.3,59.9L94.3,60.1L94.3,60.2L94.3,60.2L94.4,60.2L94.4,60.0L94.4,60.0L94.5,59.9L94.5,59.9L94.6,59.7L94.6,59.7L94.6,59.6L94.5,59.5L94.5,59.5L94.6,59.5L94.6,59.4L94.9,59.4L95.0,59.5L95.2,59.4L95.3,59.4L95.2,59.5L95.3,59.6L95.4,59.5L95.5,59.6L95.3,59.7L95.3,59.7L95.2,59.8L95.1,59.8L94.9,59.9L94.9,59.9L94.9,60.0L94.9,60.1L95.1,60.1L95.2,60.1L95.1,60.1L95.1,60.2L94.9,60.3L94.9,60.4L94.9,60.4L94.8,60.5L94.7,60.5L94.6,60.5L94.4,60.5L94.3,60.6L94.3,60.6L94.2,60.6L94.0,60.6L93.9,60.6L93.8,60.7L93.6,60.5L93.3,60.5L93.2,60.5L92.7,60.3L92.4,60.2L92.3,60.2L91.7,60.0Z"/>
    <path class="wtc-county" id="wtc-county-juneau" data-county="Juneau" d="M96.3,59.2L96.3,59.1L96.2,59.0L96.4,58.9L96.5,58.9L96.5,58.9L96.6,59.0L96.7,59.0L96.8,59.0L97.1,59.1L96.8,59.1L96.7,59.1L96.6,59.1L96.6,59.1L96.5,59.1L96.4,59.1L96.3,59.2ZM95.9,59.6L95.9,59.5L96.0,59.5L96.2,59.4L96.2,59.4L96.1,59.5L95.9,59.6ZM96.9,60.2L95.8,60.2L96.0,60.1L95.9,60.0L96.0,60.0L96.0,59.8L95.9,59.8L96.0,59.7L96.2,59.5L96.3,59.4L96.5,59.2L96.6,59.2L96.7,59.2L96.9,59.1L97.0,59.1L97.1,59.1L97.2,59.1L97.2,59.2L97.2,59.2L97.2,59.3L97.3,59.3L97.3,59.4L97.4,59.4L97.4,59.3L97.3,59.2L97.3,59.2L97.2,59.1L97.3,58.9L97.6,58.7L97.8,58.5L97.8,58.5L97.9,58.6L98.0,58.6L98.6,59.1L98.3,59.2L98.1,59.4L98.3,59.5L98.0,59.6L97.8,59.7L97.6,59.9L97.0,60.1L96.9,60.2L96.9,60.2Z"/>
    <path class="wtc-county" id="wtc-county-kenai-peninsula" data-county="Kenai Peninsula" d="M73.2,60.8L73.2,60.7L73.3,60.7L73.4,60.8L73.4,60.9L73.3,60.9L73.2,60.8ZM72.1,60.5L72.2,60.4L72.2,60.5L72.1,60.5ZM71.8,60.5L71.8,60.4L71.9,60.4L71.9,60.5L71.8,60.5ZM71.6,60.5L71.7,60.5L71.7,60.5L71.6,60.5ZM75.7,62.9L75.6,63.0L75.2,63.0L74.9,63.1L74.8,63.1L74.6,63.1L74.5,63.1L74.3,63.0L74.2,63.0L74.0,63.0L73.7,63.2L73.3,63.1L72.8,62.9L72.5,62.8L72.5,62.8L72.3,62.8L72.4,62.6L72.5,62.5L72.4,62.5L72.4,62.3L72.3,62.2L72.3,62.2L72.2,62.0L72.1,61.9L72.0,61.9L71.8,61.8L71.8,61.6L71.7,61.6L71.6,61.4L71.6,61.3L71.7,61.3L71.9,61.2L72.1,61.2L72.2,61.2L72.4,61.3L72.7,61.4L72.8,61.4L72.9,61.4L72.7,61.3L72.7,61.2L72.6,61.2L72.6,61.1L72.5,61.1L72.3,61.1L72.1,61.0L72.1,61.0L71.9,61.0L71.8,60.9L71.7,60.9L71.6,60.9L71.5,60.8L71.5,60.8L71.4,60.7L71.4,60.6L71.5,60.6L71.5,60.6L71.6,60.6L71.8,60.6L71.8,60.5L72.0,60.5L72.0,60.6L72.1,60.6L72.1,60.6L72.2,60.6L72.3,60.7L72.3,60.6L72.4,60.6L72.5,60.6L72.6,60.6L72.7,60.6L72.7,60.7L72.8,60.7L72.8,60.7L72.8,60.6L72.9,60.6L73.0,60.7L73.0,60.7L73.1,60.8L73.2,60.8L73.2,60.9L73.4,60.9L73.4,61.0L73.4,61.1L73.4,61.1L73.5,61.1L73.5,61.0L73.6,60.9L73.7,61.1L73.8,61.2L73.8,61.1L73.7,60.9L73.7,60.8L73.7,60.8L73.8,60.9L73.9,60.9L73.9,60.9L74.0,61.1L74.4,61.2L74.4,61.3L74.3,61.4L74.3,61.4L74.4,61.4L74.5,61.3L74.5,61.3L74.7,61.2L74.7,61.3L74.7,61.5L74.7,61.6L74.7,61.6L74.8,61.6L74.8,61.5L74.8,61.5L74.8,61.3L75.0,61.3L75.0,61.4L74.9,61.4L74.9,61.5L74.9,61.5L74.9,61.6L75.0,61.6L75.1,61.6L75.1,61.7L75.2,61.7L75.1,61.8L75.1,61.9L75.1,61.9L75.2,61.9L75.3,61.7L75.2,61.6L75.1,61.5L75.2,61.5L75.3,61.5L75.5,61.8L75.6,61.8L75.7,61.8L75.6,61.7L75.6,61.7L75.7,61.7L75.9,61.7L75.9,61.6L76.1,61.7L76.3,61.6L76.3,61.6L76.4,61.9L76.4,62.3L76.2,62.3L76.2,62.4L76.2,62.8L76.1,62.8L75.7,62.8L75.7,62.9ZM71.3,62.2L71.5,62.3L71.4,62.3L71.5,62.3L71.6,62.4L71.5,62.5L71.4,62.3L71.3,62.2ZM70.5,62.0L70.6,61.9L70.6,62.0L70.5,62.0ZM69.2,60.8L69.1,60.8L69.2,60.7L69.4,60.7L69.4,60.8L69.5,60.8L69.4,60.9L69.2,60.8ZM69.3,63.0L69.3,62.9L69.4,62.9L69.4,62.4L69.2,62.4L69.2,61.9L69.0,61.9L69.0,61.4L68.8,61.4L68.8,61.3L68.6,61.3L68.6,61.0L68.3,61.0L68.3,60.9L67.9,60.9L67.9,60.7L67.4,60.7L67.4,60.4L67.5,60.4L67.5,59.9L67.6,59.9L67.6,59.8L68.1,59.8L68.8,59.8L68.8,59.9L69.0,59.9L69.0,60.1L69.6,60.1L69.5,60.1L69.5,60.2L69.4,60.2L69.3,60.3L69.2,60.3L69.1,60.3L69.0,60.4L68.9,60.4L68.8,60.4L68.7,60.4L68.4,60.4L68.3,60.3L68.2,60.4L68.3,60.5L68.1,60.5L68.3,60.5L68.3,60.6L68.3,60.7L68.4,60.7L68.5,60.8L68.4,60.8L68.3,60.8L68.5,60.9L68.6,60.8L68.7,60.9L68.8,60.9L68.9,60.9L69.0,61.0L68.9,61.1L69.1,61.1L69.2,61.1L69.1,61.2L69.1,61.2L69.2,61.2L69.3,61.2L69.3,61.3L69.3,61.4L69.4,61.3L69.4,61.2L69.4,61.2L69.5,61.2L69.5,61.2L69.5,61.2L69.7,61.2L69.8,61.3L69.9,61.3L70.0,61.4L69.9,61.5L69.8,61.5L69.8,61.4L69.7,61.5L69.6,61.5L69.7,61.5L69.8,61.5L70.0,61.6L70.0,61.5L70.2,61.5L70.3,61.6L70.4,61.6L70.4,61.7L70.5,61.7L70.6,61.8L70.5,61.9L70.4,61.9L70.4,62.0L70.3,62.0L70.3,62.1L70.5,62.1L70.5,62.0L70.6,62.0L70.7,62.1L70.8,62.1L70.9,62.2L71.1,62.3L71.0,62.3L70.9,62.4L71.0,62.5L71.1,62.5L71.3,62.6L71.4,62.7L71.5,62.8L71.6,62.8L71.8,62.8L71.8,62.8L71.7,62.9L71.7,63.0L72.0,63.1L72.2,63.2L72.3,63.2L72.4,63.2L72.6,63.2L72.8,63.4L72.9,63.4L72.9,63.5L72.4,63.5L72.4,63.8L71.2,63.8L70.0,63.8L69.3,63.8L69.3,63.4L69.3,63.4L69.3,63.0Z"/>
    <path class="wtc-county" id="wtc-county-ketchikan-gateway" data-county="Ketchikan Gateway" d="M101.4,54.6L101.3,54.6L101.4,54.6L101.5,54.6L101.4,54.7L101.4,54.6ZM101.0,54.4L101.0,54.4L101.2,54.3L101.3,54.3L101.4,54.4L101.4,54.4L101.3,54.5L101.0,54.4ZM100.8,54.4L100.8,54.4L101.0,54.5L100.9,54.5L100.8,54.4ZM100.4,55.0L100.5,54.9L100.5,54.8L100.6,54.7L100.7,54.8L100.7,54.9L100.8,55.0L100.5,55.1L100.5,55.1L100.4,55.0ZM100.0,55.4L100.0,55.3L100.2,55.3L100.3,55.2L100.3,55.3L100.3,55.4L100.4,55.4L100.5,55.5L100.5,55.5L100.6,55.7L100.6,55.7L100.5,55.7L100.5,55.8L100.7,55.8L100.7,55.7L100.7,55.7L100.8,55.7L100.8,55.6L100.6,55.6L100.7,55.5L100.7,55.4L100.8,55.4L100.6,55.3L100.5,55.3L100.5,55.2L100.6,55.1L100.7,55.0L100.8,55.0L100.9,54.9L101.0,55.0L101.1,54.9L101.1,54.9L101.3,54.9L101.3,55.0L101.3,55.1L101.4,55.1L101.4,55.0L101.4,54.9L101.3,54.9L101.4,54.8L101.5,54.8L101.7,54.9L101.7,55.0L101.7,55.1L101.7,55.1L101.8,55.0L101.8,55.0L101.7,55.1L101.7,55.2L101.7,55.3L101.8,55.3L101.8,55.5L101.6,55.6L101.6,55.7L101.5,55.8L101.4,55.9L101.4,55.9L101.5,55.9L101.6,55.8L101.8,55.6L101.8,55.5L101.9,55.3L101.8,55.1L101.9,55.0L101.9,54.9L101.8,54.9L101.7,54.9L101.6,54.8L101.6,54.7L101.7,54.6L101.7,54.6L101.7,54.5L101.8,54.5L101.8,54.4L101.8,54.3L101.8,54.2L101.9,54.2L102.0,54.2L102.0,54.3L102.1,54.2L102.1,54.2L102.1,54.1L102.2,54.1L102.2,54.2L102.3,54.2L102.5,54.3L102.7,54.4L102.8,54.5L102.9,54.6L102.9,54.6L103.0,54.8L103.2,54.9L103.1,55.0L103.1,55.2L103.0,55.2L103.0,55.4L103.0,55.5L102.9,55.5L102.9,55.6L102.7,55.7L102.7,55.8L102.6,55.9L102.7,55.9L102.7,56.0L102.8,56.0L102.7,56.0L102.8,56.1L102.6,56.1L102.5,56.2L102.5,56.3L102.2,56.3L102.0,56.5L101.6,56.5L101.5,56.5L101.6,56.4L101.7,56.3L101.6,56.3L101.3,56.2L101.3,56.3L101.2,56.2L101.1,56.1L101.2,56.1L101.1,56.0L101.0,56.0L100.8,56.1L100.7,56.1L100.7,56.0L100.5,56.0L100.4,55.9L100.4,55.9L100.4,55.8L100.4,55.8L100.2,55.7L100.3,55.7L100.3,55.6L100.3,55.5L100.1,55.5L100.1,55.5L100.0,55.4Z"/>
    <path class="wtc-county" id="wtc-county-kodiak-island" data-county="Kodiak Island" d="M71.6,59.2L71.6,59.1L71.7,59.1L71.7,59.2L71.6,59.2L71.6,59.2ZM71.3,60.2L71.3,60.2L71.5,60.2L71.4,60.2L71.3,60.2ZM70.9,60.2L71.0,60.1L71.2,60.2L71.1,60.2L71.0,60.2L70.9,60.2ZM69.4,58.9L69.4,58.9L69.5,58.9L70.0,58.8L70.2,58.8L70.3,58.9L70.3,58.9L70.5,58.9L70.5,59.0L70.5,59.1L70.6,59.1L70.6,59.0L70.6,59.0L70.7,59.0L70.9,59.0L71.0,59.0L71.0,59.2L71.1,59.2L71.1,59.1L71.3,59.1L71.4,59.2L71.5,59.3L71.4,59.3L71.3,59.3L71.2,59.2L71.2,59.2L71.3,59.4L71.2,59.4L71.1,59.4L71.0,59.4L70.9,59.5L70.9,59.4L70.7,59.4L70.7,59.5L70.8,59.6L70.9,59.6L70.9,59.8L70.9,59.8L70.6,59.7L70.6,59.7L70.4,59.7L70.5,59.6L70.5,59.5L70.3,59.5L70.2,59.4L70.1,59.4L70.2,59.4L70.3,59.4L70.2,59.3L70.1,59.3L70.1,59.3L70.1,59.2L70.0,59.2L69.9,59.3L69.8,59.2L70.0,59.1L69.9,59.1L69.7,59.2L69.7,59.1L69.6,59.1L69.7,59.0L69.7,59.0L69.6,59.0L69.5,59.0L69.4,58.9ZM68.3,57.0L68.3,56.9L68.5,56.9L68.5,57.0L68.3,57.0ZM68.0,56.7L68.0,56.7L68.2,56.7L68.3,56.7L68.6,56.7L68.7,56.7L68.7,56.8L68.5,56.8L68.4,56.8L68.4,56.8L68.3,56.8L68.2,56.8L68.1,56.8L68.0,56.7ZM67.4,57.9L67.4,57.9L67.4,57.9L67.4,57.8L67.5,57.8L67.6,57.8L67.7,57.7L67.8,57.6L67.8,57.5L67.8,57.4L67.9,57.4L68.1,57.3L68.1,57.2L68.2,57.2L68.2,57.3L68.3,57.3L68.4,57.4L68.5,57.5L68.7,57.6L68.8,57.6L68.8,57.6L68.7,57.5L68.6,57.4L68.6,57.3L68.7,57.4L68.7,57.3L68.6,57.3L68.5,57.2L68.4,57.2L68.3,57.0L68.5,57.1L68.6,57.0L68.7,57.1L68.8,57.2L68.8,57.2L69.0,57.2L69.0,57.3L69.1,57.3L69.2,57.4L69.1,57.5L69.0,57.5L69.0,57.5L69.1,57.5L69.2,57.5L69.3,57.5L69.4,57.7L69.5,57.7L69.6,57.6L69.4,57.6L69.4,57.5L69.5,57.5L69.5,57.4L69.5,57.4L69.7,57.4L69.7,57.5L69.8,57.5L69.8,57.5L70.0,57.6L70.1,57.6L70.2,57.6L70.0,57.7L69.9,57.7L69.8,57.7L69.7,57.7L69.7,57.7L69.9,57.7L70.0,57.8L69.9,57.8L69.8,57.8L69.9,57.9L70.0,57.9L70.1,57.9L70.1,57.8L70.2,57.8L70.3,57.8L70.4,57.8L70.5,57.9L70.5,57.9L70.3,58.1L70.2,58.1L70.1,58.1L70.1,58.1L70.3,58.1L70.3,58.1L70.5,58.1L70.5,58.1L70.7,58.0L70.7,58.1L70.7,58.0L70.9,58.0L71.0,58.1L71.2,58.2L71.2,58.3L70.9,58.3L70.9,58.3L70.9,58.3L70.7,58.3L70.9,58.4L70.7,58.4L70.8,58.4L70.7,58.5L70.8,58.5L70.9,58.5L71.0,58.5L71.1,58.5L71.0,58.5L70.9,58.6L70.8,58.6L70.8,58.6L70.7,58.7L70.8,58.7L70.9,58.7L70.9,58.7L70.8,58.7L70.8,58.8L70.7,58.8L70.6,58.7L70.6,58.7L70.5,58.7L70.5,58.7L70.4,58.6L70.3,58.6L70.3,58.6L70.2,58.6L70.2,58.5L70.1,58.5L70.1,58.6L70.3,58.7L70.4,58.8L70.2,58.8L70.1,58.7L69.9,58.8L69.8,58.8L69.6,58.8L69.5,58.8L69.6,58.8L69.7,58.7L69.8,58.6L69.8,58.6L69.6,58.7L69.6,58.7L69.3,58.8L69.2,58.8L69.2,58.7L69.3,58.7L69.5,58.6L69.5,58.6L69.3,58.6L69.3,58.5L69.3,58.4L69.2,58.4L69.1,58.6L69.0,58.7L68.9,58.7L68.8,58.6L68.6,58.6L68.6,58.4L68.7,58.4L69.0,58.4L69.0,58.3L68.7,58.3L68.7,58.3L68.8,58.2L68.7,58.2L68.7,58.1L68.5,58.2L68.5,58.3L68.4,58.3L68.2,58.4L68.0,58.3L67.8,58.2L67.8,58.2L67.7,58.2L67.6,58.1L67.5,58.0L67.5,57.9L67.4,57.9ZM67.4,56.6L67.5,56.5L67.6,56.6L67.9,56.7L68.0,56.8L67.9,56.8L67.8,56.8L67.5,56.7L67.4,56.6ZM66.0,55.7L66.0,55.6L66.2,55.6L66.3,55.7L66.2,55.7L66.3,55.8L66.2,55.8L66.2,55.8L66.1,55.8L66.0,55.7ZM64.6,56.0L64.7,55.9L64.7,56.0L64.7,56.1L64.6,56.1L64.6,56.0ZM68.1,59.8L68.1,59.5L68.0,59.5L68.0,59.4L67.9,59.4L67.8,59.4L67.7,59.4L67.7,59.3L67.5,59.3L67.5,59.3L67.3,59.3L67.3,59.3L67.1,59.3L67.1,59.2L67.0,59.2L67.0,59.2L66.8,59.2L66.8,59.1L66.6,59.1L66.6,59.0L66.7,59.0L66.7,58.9L66.6,58.9L66.6,58.7L66.4,58.7L66.4,58.6L66.3,58.6L66.3,58.6L66.1,58.5L66.1,58.5L66.0,58.5L66.0,58.4L65.8,58.4L65.8,58.3L65.9,58.3L65.9,58.3L65.8,58.3L65.8,58.2L65.7,58.2L65.7,58.3L65.5,58.2L65.5,58.2L65.4,58.2L65.4,58.1L65.3,58.2L65.1,58.2L65.1,58.1L65.0,58.1L65.0,58.0L64.9,58.0L64.9,57.9L64.8,57.9L64.9,57.9L64.7,57.9L64.7,57.8L64.7,57.8L64.7,57.7L64.6,57.7L64.6,57.6L65.0,57.6L65.1,57.6L65.2,57.7L65.1,57.7L65.1,57.7L65.1,57.8L65.2,57.8L65.1,57.9L64.9,57.8L64.8,57.8L64.9,57.9L64.9,57.9L65.1,58.0L65.3,58.0L65.3,58.1L65.4,58.1L65.5,58.0L65.6,58.0L65.6,58.1L65.6,58.2L65.7,58.2L66.0,58.2L66.0,58.3L66.2,58.3L66.2,58.4L66.2,58.5L66.3,58.5L66.3,58.5L66.5,58.4L66.6,58.4L66.7,58.5L66.6,58.5L66.6,58.6L66.7,58.6L66.9,58.6L67.0,58.7L66.9,58.8L67.1,58.9L67.2,58.9L67.4,58.8L67.5,58.9L67.5,58.9L67.6,58.9L67.6,58.9L67.7,58.9L67.7,58.9L67.9,58.9L67.9,59.0L67.8,59.0L67.9,59.1L68.0,59.0L68.1,59.0L68.2,59.0L68.2,59.1L68.2,59.1L68.3,59.1L68.4,59.2L68.3,59.3L68.3,59.4L68.4,59.3L68.5,59.4L68.5,59.4L68.4,59.5L68.4,59.5L68.6,59.5L68.6,59.6L68.7,59.7L68.7,59.7L69.0,59.7L69.1,59.8L69.2,59.8L69.3,59.9L69.4,59.9L69.5,60.1L69.6,60.1L69.0,60.1L69.0,59.9L68.8,59.9L68.8,59.8L68.1,59.8ZM64.5,56.2L64.5,56.2L64.5,56.2L64.5,56.3L64.5,56.2Z"/>
    <path class="wtc-county" id="wtc-county-kusilvak" data-county="Kusilvak" d="M56.1,66.4L56.0,66.4L55.8,66.3L55.8,66.3L55.5,66.1L55.1,66.1L54.8,66.2L54.8,66.2L54.6,66.3L54.5,66.4L54.3,66.4L54.0,66.4L53.8,66.4L53.5,66.4L53.2,66.2L53.2,66.2L53.3,66.1L53.1,66.1L53.0,66.0L52.8,65.7L52.9,65.6L52.8,65.6L52.7,65.6L52.6,65.5L52.5,65.5L52.5,65.4L52.4,65.3L52.2,65.2L52.2,65.2L51.7,64.8L51.6,64.7L51.6,64.6L51.6,64.6L51.7,64.4L51.6,64.4L51.3,64.4L51.1,64.3L51.1,64.3L51.2,64.2L51.3,64.2L51.5,64.2L51.5,64.1L51.0,64.1L51.0,64.2L51.0,64.2L50.9,64.0L51.0,63.9L51.1,63.9L51.1,63.9L51.3,64.0L51.5,63.9L51.6,63.9L51.5,63.8L51.3,63.8L51.4,63.7L51.5,63.6L51.7,63.6L51.8,63.6L51.8,63.4L51.8,63.3L51.9,63.3L52.1,63.3L52.1,63.3L52.2,63.4L52.2,63.4L52.3,63.4L52.4,63.4L52.4,63.3L52.5,63.3L52.6,63.2L52.7,63.3L52.7,63.2L52.6,63.2L52.5,63.2L52.4,63.1L52.5,63.1L52.7,63.1L52.7,63.1L52.9,63.1L53.2,63.1L53.2,63.1L53.3,63.1L53.5,63.1L53.7,63.1L53.9,63.2L53.9,63.3L53.8,63.3L53.8,63.3L53.8,63.4L53.9,63.4L54.1,63.4L54.2,63.5L54.2,63.5L54.1,63.5L54.1,63.6L54.1,63.6L54.1,63.7L54.4,63.7L54.6,63.7L54.8,63.7L54.8,63.7L54.9,63.8L54.8,63.8L54.9,63.8L55.0,63.9L55.1,63.8L55.3,63.8L55.4,63.9L55.7,63.9L55.9,64.0L55.9,63.9L56.2,64.0L56.3,64.0L56.3,63.9L56.4,63.9L56.5,63.9L56.8,63.9L57.0,63.9L57.1,63.9L57.4,63.9L57.6,63.9L57.8,64.0L58.2,64.0L58.4,64.1L58.6,64.2L58.8,64.2L59.0,64.3L59.2,64.3L59.4,64.3L59.6,64.3L59.6,64.4L59.5,64.4L59.4,64.4L59.2,64.4L59.1,64.5L58.5,64.5L58.5,64.9L58.4,64.9L58.4,65.4L58.4,65.4L58.4,65.9L58.5,65.9L58.5,66.1L58.6,66.1L57.0,66.1L57.0,66.2L56.7,66.2L56.7,66.3L56.4,66.3L56.4,66.4L56.1,66.4Z"/>
    <path class="wtc-county" id="wtc-county-lake-and-peninsula" data-county="Lake and Peninsula" d="M63.7,56.7L63.7,56.7L63.9,56.7L64.0,56.8L64.2,56.7L64.1,56.8L63.8,56.8L63.7,56.7ZM62.9,56.5L63.0,56.4L63.0,56.4L63.0,56.5L62.9,56.5ZM61.5,55.7L61.6,55.7L61.7,55.7L61.7,55.7L61.6,55.8L61.5,55.8L61.5,55.7ZM61.1,55.8L61.0,55.7L61.2,55.7L61.1,55.8ZM60.8,55.6L60.9,55.6L60.8,55.7L60.8,55.7L60.8,55.6ZM61.5,57.1L61.5,57.0L61.2,57.0L61.2,56.9L60.9,56.9L60.9,56.8L60.5,56.8L60.5,56.7L60.0,56.7L60.0,56.4L60.1,56.4L60.1,55.9L60.1,55.9L60.1,55.8L60.5,55.8L60.5,55.4L60.5,55.5L60.5,55.5L60.6,55.6L60.6,55.7L60.5,55.8L60.7,55.8L60.6,55.7L60.7,55.7L60.7,55.7L60.8,55.8L60.9,55.8L61.3,55.9L61.4,55.9L61.5,56.0L61.7,56.0L61.7,55.9L61.8,55.9L61.8,56.0L61.8,56.1L61.9,56.1L61.9,56.0L62.0,55.9L62.0,56.0L62.1,56.0L62.1,55.9L62.1,56.0L62.1,56.1L62.1,56.1L62.2,56.0L62.2,56.1L62.3,56.2L62.6,56.3L62.5,56.3L62.4,56.3L62.3,56.3L62.3,56.3L62.4,56.3L62.5,56.4L62.3,56.4L62.0,56.4L62.0,56.5L62.2,56.6L62.3,56.7L62.4,56.6L62.6,56.6L62.6,56.7L62.7,56.7L62.9,56.6L63.0,56.7L63.0,56.8L62.9,56.8L62.7,56.8L62.6,56.8L62.7,56.8L62.8,56.8L62.9,56.9L63.1,56.9L63.2,56.8L63.3,56.9L63.5,56.9L63.5,56.9L63.4,56.9L63.4,57.0L63.4,57.1L63.6,57.1L63.6,57.1L63.5,57.1L63.5,57.2L63.6,57.2L63.8,57.1L63.9,57.1L64.0,57.1L64.0,57.2L64.1,57.2L64.1,57.2L64.3,57.3L64.3,57.3L64.4,57.3L64.5,57.3L64.5,57.4L64.7,57.4L64.8,57.4L64.8,57.4L64.9,57.5L65.0,57.5L65.0,57.6L65.1,57.6L65.0,57.6L64.6,57.6L64.6,57.7L64.7,57.7L64.7,57.8L64.7,57.8L64.7,57.9L64.9,57.9L64.8,57.9L64.9,57.9L64.9,58.0L65.0,58.0L65.0,58.1L65.1,58.1L65.1,58.2L65.3,58.2L65.4,58.1L65.4,58.2L65.5,58.2L65.5,58.2L65.7,58.3L65.7,58.2L65.8,58.2L65.8,58.3L65.9,58.3L65.9,58.3L65.8,58.3L65.8,58.4L66.0,58.4L66.0,58.5L66.1,58.5L66.1,58.5L66.3,58.6L66.3,58.6L66.4,58.6L66.4,58.7L66.6,58.7L66.6,58.9L66.7,58.9L66.7,59.0L66.6,59.0L66.6,59.1L66.8,59.1L66.8,59.2L67.0,59.2L67.0,59.2L67.1,59.2L67.1,59.3L67.3,59.3L67.3,59.3L67.5,59.3L67.5,59.3L67.7,59.3L67.7,59.4L67.8,59.4L67.9,59.4L68.0,59.4L68.0,59.5L68.1,59.5L68.1,59.8L67.6,59.8L67.6,59.9L67.5,59.9L67.5,60.4L67.4,60.4L67.4,60.7L67.9,60.7L67.9,60.9L68.3,60.9L68.3,61.0L68.6,61.0L68.6,61.3L68.8,61.3L68.8,61.4L69.0,61.4L69.0,61.9L69.2,61.9L69.2,62.4L69.4,62.4L69.4,62.9L69.3,62.9L69.3,63.0L68.1,63.0L67.2,63.0L65.6,63.0L65.6,61.3L65.4,61.3L65.4,61.2L64.9,61.2L64.9,61.0L64.7,61.0L64.7,60.9L64.5,60.9L64.5,60.8L64.0,60.8L64.0,60.7L63.8,60.7L63.8,60.4L63.9,60.4L63.9,60.1L64.1,60.1L64.1,60.2L64.2,60.2L64.3,60.2L64.2,60.2L64.2,60.1L65.2,60.1L65.2,59.7L63.8,59.7L63.7,59.6L63.5,59.6L63.4,59.4L63.4,59.3L63.4,59.2L63.6,59.1L63.7,59.2L63.6,59.1L63.4,59.1L63.4,59.0L63.2,58.5L63.2,58.4L63.2,58.3L63.2,58.3L63.3,58.3L63.4,58.2L63.3,58.1L63.3,58.1L63.2,58.2L63.1,58.2L62.9,58.1L62.9,58.1L62.7,58.0L62.6,57.9L62.4,57.9L62.3,57.8L62.2,57.7L62.0,57.6L61.8,57.4L61.7,57.3L61.8,57.2L61.8,57.2L61.8,57.1L61.6,57.1L61.5,57.1Z"/>
    <path class="wtc-county" id="wtc-county-matanuska-susitna" data-county="Matanuska-Susitna" d="M70.0,65.7L70.0,65.6L70.0,65.0L70.0,63.8L71.2,63.8L72.4,63.8L72.4,63.5L72.9,63.5L72.9,63.4L73.3,63.5L73.3,63.6L73.5,63.6L73.6,63.5L74.0,63.5L74.2,63.5L74.3,63.5L74.4,63.5L74.4,63.6L74.5,63.7L74.6,63.7L74.6,63.8L74.8,63.9L75.1,63.8L75.2,63.9L75.4,63.9L75.4,63.8L75.5,63.8L75.5,63.8L76.5,63.8L77.1,63.8L78.3,63.8L78.3,63.8L78.7,63.8L78.7,64.3L78.7,64.3L78.7,64.8L78.6,64.8L78.6,65.0L79.5,65.0L79.4,65.3L79.4,65.8L79.4,66.0L79.3,66.0L79.3,66.3L79.4,66.3L79.4,66.7L78.6,66.7L78.5,66.7L77.1,66.7L77.1,66.5L75.6,66.5L75.0,66.5L73.9,66.3L72.5,66.0L71.6,65.8L71.6,65.7L70.1,65.7L70.0,65.7Z"/>
    <path class="wtc-county" id="wtc-county-nome" data-county="Nome" d="M56.0,66.9L56.0,66.9L56.1,66.8L56.5,66.8L56.5,66.9L56.4,67.0L56.3,66.9L56.2,67.0L56.1,66.9L56.0,66.9ZM53.5,71.2L53.1,71.2L52.4,71.1L51.5,70.9L50.7,70.7L50.5,70.6L50.0,70.5L49.8,70.4L49.6,70.3L49.3,70.2L49.0,70.1L48.4,70.0L48.2,69.9L48.1,69.9L48.2,69.8L48.5,69.7L48.7,69.7L48.9,69.6L49.2,69.5L49.7,69.5L50.1,69.4L50.3,69.4L50.4,69.4L50.5,69.4L50.7,69.3L50.5,69.3L50.5,69.2L50.5,69.2L50.3,69.1L50.3,69.1L50.1,69.1L49.9,69.1L50.0,69.1L50.2,69.0L50.2,68.9L50.4,68.8L50.6,68.8L50.6,68.7L50.5,68.6L50.5,68.6L50.6,68.4L50.9,68.3L51.3,68.3L51.6,68.3L52.1,68.2L52.6,68.1L52.9,68.1L53.5,68.3L53.7,68.3L54.0,68.3L54.1,68.3L54.3,68.3L54.7,68.3L54.9,68.3L55.2,68.2L55.3,68.1L55.4,68.1L55.5,68.2L55.5,68.2L55.4,68.2L55.3,68.3L55.2,68.3L55.1,68.3L55.3,68.4L55.3,68.4L55.5,68.3L55.5,68.3L55.6,68.3L55.7,68.2L55.8,68.1L55.8,68.0L56.1,68.1L56.1,68.2L56.2,68.3L56.6,68.4L56.7,68.5L57.2,68.5L57.5,68.6L57.7,68.6L57.9,68.6L58.0,68.7L58.1,68.8L58.1,68.8L58.3,68.8L58.5,68.7L58.7,68.5L58.7,68.4L58.5,68.3L58.4,68.3L58.4,68.2L58.1,68.2L58.0,68.2L57.9,68.3L57.7,68.2L57.7,68.1L57.8,68.1L58.0,68.1L58.1,68.0L58.5,67.8L58.5,67.8L58.5,67.6L58.6,67.5L58.7,67.4L58.8,67.3L58.8,67.2L58.6,67.0L58.3,66.8L58.2,66.8L58.0,66.7L57.6,66.7L57.4,66.7L57.2,66.7L56.9,66.7L56.9,66.8L56.8,66.8L56.6,66.8L56.5,66.8L56.6,66.8L56.5,66.7L56.4,66.6L56.1,66.4L56.4,66.4L56.4,66.3L56.7,66.3L56.7,66.2L57.0,66.2L57.0,66.1L58.6,66.1L58.6,66.4L58.9,66.4L58.9,66.6L58.9,66.6L58.9,66.8L59.1,66.8L59.1,66.9L59.7,66.9L59.7,67.1L60.0,67.1L60.0,67.2L60.2,67.2L60.2,67.6L59.9,67.6L59.9,68.1L59.9,68.6L60.2,68.6L60.2,68.8L60.5,68.8L60.5,69.1L60.5,69.3L60.8,69.3L60.8,69.7L60.5,69.7L60.2,69.7L60.2,69.6L59.0,69.6L57.8,69.6L56.5,69.6L55.8,69.6L54.4,69.6L54.4,69.8L54.1,69.8L54.1,70.1L53.7,70.1L53.7,70.6L53.6,70.6L53.6,71.1L53.5,71.1L53.5,71.2ZM42.8,66.8L42.8,66.8L42.8,66.7L42.9,66.6L43.2,66.5L43.3,66.5L43.5,66.5L43.6,66.6L43.9,66.7L44.2,66.7L44.6,66.6L44.9,66.5L45.0,66.4L45.1,66.3L45.3,66.3L45.5,66.2L45.7,66.2L45.8,66.0L45.8,66.0L46.0,66.0L46.1,66.0L46.1,66.1L46.1,66.2L46.3,66.3L46.6,66.3L46.8,66.3L47.1,66.3L47.2,66.3L47.3,66.5L46.8,66.5L46.7,66.5L46.3,66.6L46.1,66.6L46.0,66.6L45.9,66.7L45.6,66.7L45.4,66.8L45.4,66.8L45.3,66.9L45.2,67.0L45.0,67.0L44.7,67.1L44.4,67.0L44.1,66.9L43.8,66.9L43.5,67.0L43.1,67.0L43.1,67.1L43.1,67.1L43.0,67.2L42.9,67.2L43.0,67.1L42.9,67.1L42.9,67.0L42.8,66.9L42.8,66.8Z"/>
    <path class="wtc-county" id="wtc-county-north-slope" data-county="North Slope" d="M87.3,74.0L87.3,75.6L87.0,75.7L86.7,75.7L86.5,75.8L86.2,75.8L85.9,75.9L85.4,76.0L85.2,76.0L85.1,76.1L84.8,76.2L84.5,76.3L84.1,76.3L84.0,76.4L83.8,76.3L83.6,76.4L83.1,76.3L83.0,76.3L82.6,76.2L82.5,76.2L82.3,76.2L82.1,76.1L81.7,76.1L81.6,76.1L81.5,76.1L81.3,76.1L81.1,76.2L80.9,76.2L80.8,76.3L80.6,76.3L80.3,76.4L80.2,76.4L79.9,76.4L79.7,76.4L79.3,76.4L79.0,76.4L78.8,76.4L78.6,76.4L78.4,76.4L78.3,76.5L78.1,76.4L77.9,76.4L77.6,76.4L77.5,76.5L77.4,76.6L77.0,76.6L76.9,76.6L76.9,76.7L76.7,76.6L76.5,76.6L76.5,76.7L76.3,76.8L76.2,76.8L76.0,76.7L75.9,76.8L75.8,76.8L75.5,76.9L75.1,76.9L75.1,76.9L74.9,76.9L74.8,76.9L74.6,76.9L74.5,76.9L74.2,76.8L74.0,76.8L73.8,76.7L73.7,76.8L73.5,76.8L73.3,76.8L73.3,76.8L73.2,76.8L72.9,76.8L72.6,76.7L72.5,76.7L72.4,76.7L72.0,76.8L71.6,76.8L71.5,76.8L71.5,76.8L71.8,76.9L71.8,76.9L71.8,76.9L71.7,76.9L71.3,77.0L71.3,77.0L71.0,77.0L70.9,77.0L70.8,77.0L70.7,77.1L70.9,77.2L71.0,77.3L71.1,77.3L71.1,77.3L70.9,77.4L70.5,77.4L70.1,77.4L69.9,77.5L69.6,77.5L69.3,77.4L68.7,77.4L68.5,77.3L68.3,77.3L68.2,77.3L68.0,77.4L67.7,77.3L67.7,77.4L67.6,77.5L67.7,77.6L67.6,77.6L67.4,77.7L67.0,77.8L67.0,77.8L67.0,77.7L66.9,77.8L66.7,77.7L66.8,77.6L66.8,77.6L66.7,77.6L66.6,77.6L66.4,77.5L66.3,77.5L66.4,77.4L66.1,77.3L65.7,77.4L65.7,77.5L65.9,77.5L66.1,77.6L66.3,77.7L66.3,77.8L65.8,77.9L65.6,77.8L65.5,77.9L65.3,78.0L65.1,78.0L64.9,78.0L64.8,78.1L64.5,78.0L64.0,77.8L63.8,77.7L63.5,77.5L63.1,77.4L62.7,77.4L62.4,77.3L62.2,77.3L62.2,77.3L61.8,77.3L61.4,77.3L61.1,77.4L61.1,77.4L60.5,77.3L60.4,77.3L59.8,77.1L59.6,77.0L59.2,76.8L58.7,76.7L58.4,76.6L58.0,76.6L57.7,76.6L57.2,76.6L56.5,76.4L56.3,76.3L56.0,76.1L55.5,75.9L55.3,75.6L55.3,75.4L55.3,75.3L55.2,75.1L54.8,74.9L54.5,74.8L54.3,74.8L54.1,74.7L53.7,74.6L53.3,74.6L52.9,74.6L52.2,74.5L51.8,74.5L50.9,74.5L50.9,74.4L50.9,74.1L50.8,74.0L50.8,73.9L50.7,73.9L50.2,73.8L50.0,73.8L50.2,73.8L50.6,73.7L50.9,73.7L51.1,73.6L51.2,73.5L51.4,73.4L51.7,73.4L52.1,73.3L53.4,73.3L53.4,73.6L54.6,73.6L55.9,73.6L55.9,73.7L56.9,73.7L56.9,73.6L57.6,73.6L57.6,73.7L58.3,73.7L58.3,73.6L59.6,73.6L59.6,73.7L60.3,73.7L60.3,73.6L61.4,73.6L62.5,73.6L64.0,73.6L64.0,73.4L65.3,73.4L65.3,73.3L66.6,73.3L66.6,73.3L68.0,73.3L69.4,73.3L70.6,73.3L71.9,73.3L73.1,73.3L74.3,73.3L75.5,73.3L76.4,73.3L77.5,73.3L78.5,73.3L80.1,73.3L80.1,74.0L81.0,74.0L82.0,74.0L83.4,74.0L84.4,74.0L85.5,74.0L87.3,74.0Z"/>
    <path class="wtc-county" id="wtc-county-northwest-arctic" data-county="Northwest Arctic" d="M52.1,73.3L52.2,73.3L52.5,73.2L52.6,73.2L53.3,72.9L53.8,72.7L54.0,72.7L54.1,72.6L54.4,72.3L54.5,72.1L54.5,72.0L54.6,72.0L54.8,71.9L55.1,71.9L55.6,71.9L55.8,71.8L55.8,71.9L55.9,71.8L56.0,71.9L56.1,71.8L56.3,71.8L56.5,71.8L56.6,71.8L56.8,71.9L57.3,71.9L57.4,71.8L57.5,71.8L57.7,71.8L57.7,71.7L57.6,71.7L57.5,71.8L57.3,71.7L57.3,71.6L57.2,71.6L57.2,71.5L57.2,71.4L57.4,71.3L57.7,71.2L57.8,71.1L58.0,71.1L58.0,71.1L57.8,71.0L57.6,71.0L57.3,71.1L57.0,71.3L56.9,71.3L56.9,71.4L57.0,71.5L56.8,71.5L56.7,71.6L56.5,71.7L56.4,71.7L56.3,71.8L56.3,71.7L56.1,71.7L56.1,71.6L56.2,71.5L56.3,71.4L56.6,71.4L56.7,71.4L56.8,71.3L57.2,71.1L57.2,71.0L57.1,70.9L57.4,71.0L57.7,71.0L57.9,70.9L58.3,70.9L58.4,70.7L58.3,70.7L58.1,70.7L58.0,70.7L57.9,70.7L57.7,70.8L57.6,70.7L57.4,70.5L57.3,70.5L57.2,70.4L56.8,70.5L56.7,70.5L56.4,70.4L56.3,70.5L56.1,70.4L55.9,70.5L55.5,70.5L55.3,70.5L55.0,70.5L54.8,70.5L54.6,70.5L54.4,70.5L54.2,70.7L54.0,70.6L54.0,70.7L54.2,70.7L54.3,70.8L54.3,70.9L54.3,70.9L54.4,71.0L54.5,71.1L54.5,71.2L54.7,71.2L54.5,71.2L54.2,71.2L53.5,71.2L53.5,71.1L53.6,71.1L53.6,70.6L53.7,70.6L53.7,70.1L54.1,70.1L54.1,69.8L54.4,69.8L54.4,69.6L55.8,69.6L56.5,69.6L57.8,69.6L59.0,69.6L60.2,69.6L60.2,69.7L60.5,69.7L60.5,70.1L60.4,70.1L60.4,70.3L61.3,70.3L61.3,70.6L62.9,70.6L62.9,71.1L64.1,71.1L64.1,70.8L64.7,70.8L64.7,71.1L65.4,71.1L65.4,70.9L65.7,70.9L65.7,70.8L66.3,70.8L66.3,71.1L66.3,71.1L66.3,71.2L67.3,71.2L67.3,71.4L68.2,71.4L68.2,71.6L68.3,71.6L68.3,72.1L68.1,72.1L68.1,72.2L67.4,72.2L67.4,72.6L67.5,72.6L67.5,72.7L67.2,72.7L67.2,72.8L66.9,72.8L66.9,72.9L66.5,72.9L66.5,73.1L66.6,73.1L66.6,73.3L66.6,73.3L65.3,73.3L65.3,73.4L64.0,73.4L64.0,73.6L62.5,73.6L61.4,73.6L60.3,73.6L60.3,73.7L59.6,73.7L59.6,73.6L58.3,73.6L58.3,73.7L57.6,73.7L57.6,73.6L56.9,73.6L56.9,73.7L55.9,73.7L55.9,73.6L54.6,73.6L53.4,73.6L53.4,73.3L52.1,73.3Z"/>
    <path class="wtc-county" id="wtc-county-petersburg" data-county="Petersburg" d="M98.3,57.4L98.4,57.3L98.3,57.2L98.1,57.2L98.1,57.2L98.1,57.1L98.1,57.0L98.0,57.1L98.1,57.0L98.1,56.9L98.2,56.9L98.2,56.8L98.2,56.8L98.2,56.7L98.2,56.7L98.3,56.6L98.5,56.6L98.6,56.7L98.6,56.7L98.8,56.7L99.0,56.7L99.1,56.7L99.2,56.7L99.3,56.8L99.5,56.8L99.4,56.8L99.4,56.9L99.2,57.0L99.2,57.0L99.1,57.1L99.0,57.1L98.9,57.1L98.9,57.2L98.8,57.3L98.7,57.4L98.3,57.4ZM98.0,58.5L98.3,58.4L98.5,58.3L98.6,58.3L98.6,58.2L98.2,58.4L98.1,58.4L98.0,58.4L97.9,58.4L97.8,58.3L97.9,58.2L98.0,58.2L98.1,58.2L98.1,58.1L98.1,58.0L98.1,57.9L98.3,57.9L98.4,57.9L98.4,57.8L98.2,57.8L98.1,57.8L98.0,57.7L98.1,57.7L98.3,57.6L98.5,57.6L98.5,57.5L98.7,57.5L98.8,57.4L98.8,57.5L98.9,57.5L99.0,57.5L99.1,57.4L98.9,57.4L99.0,57.3L99.1,57.2L99.1,57.2L99.3,57.1L99.5,57.0L99.5,57.0L99.6,57.0L99.6,57.1L99.8,57.1L99.8,57.1L99.9,57.2L99.9,57.2L100.1,57.2L100.2,57.5L99.7,57.5L99.9,57.7L99.7,57.9L99.5,58.1L99.3,58.3L99.3,58.2L99.2,58.2L99.1,58.2L99.0,58.3L99.0,58.4L99.0,58.4L99.0,58.4L98.9,58.5L98.8,58.4L98.7,58.5L98.7,58.4L98.5,58.5L98.4,58.5L98.3,58.5L98.2,58.5L98.1,58.6L98.0,58.5Z"/>
    <path class="wtc-county" id="wtc-county-prince-of-wales-hyder" data-county="Prince of Wales-Hyder" d="M102.8,56.1L102.7,56.0L102.8,56.0L102.7,56.0L102.7,55.9L102.6,55.9L102.7,55.8L102.7,55.7L102.9,55.6L103.0,55.7L103.1,55.8L103.1,55.9L103.0,56.1L102.8,56.1ZM100.8,54.6L100.8,54.5L100.9,54.6L101.0,54.5L101.1,54.5L101.2,54.6L101.2,54.8L101.1,54.8L101.0,54.8L101.0,54.9L100.9,54.9L100.8,54.9L100.8,54.9L100.8,54.8L100.9,54.7L100.8,54.7L100.8,54.6L100.8,54.6ZM99.0,54.5L99.0,54.4L99.1,54.5L99.0,54.5ZM98.4,55.1L98.4,55.1L98.5,55.1L98.5,55.2L98.4,55.1ZM98.0,54.3L98.0,54.2L98.1,54.2L98.0,54.3L98.0,54.3ZM97.9,55.4L97.9,55.4L98.0,55.4L98.0,55.5L97.9,55.5L97.9,55.4L97.9,55.4ZM97.8,55.5L97.8,55.5L97.9,55.5L97.8,55.5ZM97.7,55.2L97.7,55.2L97.9,55.1L97.9,55.0L97.8,55.0L97.9,54.9L98.0,55.0L98.1,55.0L98.2,55.1L98.2,55.1L98.1,55.1L98.2,55.2L98.3,55.2L98.4,55.2L98.4,55.3L98.3,55.3L98.2,55.3L98.1,55.3L98.1,55.3L98.0,55.2L97.9,55.2L97.9,55.2L98.0,55.2L98.0,55.3L97.9,55.3L97.8,55.3L97.7,55.3L97.7,55.2ZM97.6,55.9L97.7,55.8L97.8,55.8L97.9,55.8L98.0,55.9L98.1,56.0L98.1,56.0L98.1,55.9L98.1,55.8L98.1,55.8L98.1,55.8L98.2,55.8L98.3,55.8L98.3,55.7L98.2,55.7L98.0,55.7L97.9,55.7L97.8,55.6L97.9,55.6L98.1,55.5L98.1,55.5L98.1,55.6L98.2,55.6L98.2,55.5L98.2,55.5L98.2,55.5L98.2,55.4L98.4,55.3L98.6,55.4L98.5,55.3L98.6,55.2L98.6,55.2L98.7,55.1L98.6,55.0L98.5,55.1L98.4,55.0L98.4,55.0L98.5,55.0L98.4,54.9L98.3,55.0L98.2,55.0L98.1,54.9L98.2,54.8L98.3,54.8L98.3,54.8L98.5,54.8L98.5,54.7L98.6,54.7L98.5,54.6L98.5,54.6L98.6,54.6L98.6,54.5L98.6,54.4L98.9,54.2L99.0,54.2L99.0,54.1L99.1,54.0L99.3,54.0L99.2,54.3L99.2,54.3L99.3,54.2L99.4,54.2L99.3,54.3L99.2,54.4L99.1,54.4L99.1,54.3L99.0,54.4L98.9,54.5L98.8,54.6L98.8,54.6L98.8,54.7L98.7,54.8L98.6,54.9L98.8,54.9L98.8,54.8L98.9,54.8L99.0,54.7L98.9,54.6L98.9,54.6L99.2,54.5L99.3,54.6L99.2,54.7L99.3,54.7L99.4,54.8L99.4,54.8L99.4,54.7L99.3,54.6L99.4,54.7L99.5,54.7L99.4,54.5L99.4,54.5L99.6,54.4L99.7,54.4L99.8,54.3L99.8,54.3L99.6,54.3L99.5,54.2L99.7,54.2L99.7,54.2L99.8,54.1L99.9,54.1L100.0,54.1L100.2,54.1L100.3,54.2L100.3,54.3L100.3,54.6L100.2,54.6L100.1,54.5L100.0,54.5L100.1,54.6L100.2,54.7L100.2,54.7L100.3,54.8L100.3,54.9L100.2,54.9L100.1,54.9L100.1,54.8L100.1,54.8L100.0,54.8L99.9,54.9L100.1,54.9L100.1,54.9L100.1,54.9L100.0,55.0L99.9,55.1L99.9,55.1L99.7,55.1L99.7,55.1L99.9,55.2L99.8,55.2L99.7,55.2L99.7,55.3L99.6,55.2L99.5,55.3L99.4,55.2L99.4,55.2L99.5,55.3L99.5,55.3L99.9,55.2L100.0,55.2L100.1,55.2L100.0,55.2L99.8,55.3L99.8,55.3L99.7,55.4L99.6,55.5L99.6,55.6L99.4,55.8L99.3,55.8L99.0,56.0L99.0,56.0L98.9,56.0L98.8,56.1L98.7,56.1L98.8,56.2L98.7,56.3L98.6,56.4L98.2,56.4L98.0,56.5L97.9,56.4L97.9,56.3L97.8,56.3L98.0,56.2L98.0,56.1L97.9,56.2L97.9,56.1L98.0,56.1L98.0,56.1L97.8,56.1L97.7,55.9L97.6,55.9ZM97.5,55.8L97.5,55.7L97.6,55.7L97.6,55.8L97.6,55.9L97.5,55.9L97.5,55.8ZM96.8,55.8L96.9,55.8L96.9,55.7L97.0,55.7L97.1,55.8L97.2,55.8L97.2,55.9L97.2,55.9L97.2,55.8L97.0,55.8L97.0,55.9L96.8,55.8ZM98.3,57.4L98.2,57.4L97.9,57.5L97.8,57.5L97.5,57.5L97.4,57.5L97.3,57.4L97.5,57.3L97.5,57.3L97.6,57.2L97.7,57.1L97.7,57.1L97.6,57.1L97.5,57.1L97.4,57.2L97.3,57.3L97.2,57.3L97.2,57.3L97.0,57.3L96.9,57.3L96.9,57.2L96.8,57.2L96.8,57.1L96.8,57.0L96.8,56.9L96.9,56.9L96.9,56.8L97.0,56.8L97.1,56.7L97.0,56.6L97.0,56.5L97.0,56.5L96.9,56.4L97.0,56.3L97.0,56.1L97.0,56.1L97.1,56.0L97.2,56.0L97.2,56.1L97.4,56.1L97.4,56.1L97.5,56.2L97.5,56.2L97.5,56.3L97.6,56.4L97.6,56.4L97.6,56.5L97.6,56.5L97.7,56.5L97.7,56.6L97.6,56.7L97.8,56.7L97.8,56.7L97.9,56.6L97.9,56.6L98.1,56.6L98.2,56.6L98.2,56.7L98.2,56.7L98.2,56.8L98.2,56.8L98.2,56.9L98.1,56.9L98.1,57.0L98.0,57.1L98.1,57.0L98.1,57.1L98.1,57.2L98.1,57.2L98.3,57.2L98.4,57.3L98.3,57.4ZM96.5,56.4L96.4,56.4L96.4,56.2L96.5,56.4Z"/>
    <path class="wtc-county" id="wtc-county-sitka" data-county="Sitka" d="M96.5,56.4L96.4,56.6L96.4,56.7L96.5,56.7L96.5,56.9L96.5,57.0L96.4,57.2L96.4,57.3L96.3,57.3L96.3,57.4L96.2,57.8L96.1,57.8L96.0,57.8L96.0,57.9L96.1,57.9L96.2,57.8L96.2,57.9L96.1,58.0L96.0,58.0L95.8,58.0L95.7,58.0L95.6,58.1L95.5,58.1L95.4,58.2L95.3,58.2L95.1,58.1L95.2,58.0L95.1,58.0L94.9,57.9L95.0,57.9L95.1,57.8L95.1,57.7L95.2,57.8L95.4,57.7L95.4,57.7L95.3,57.6L95.3,57.6L95.2,57.5L95.4,57.4L95.4,57.4L95.3,57.3L95.3,57.2L95.3,57.2L95.2,57.2L95.1,57.2L95.2,57.1L95.4,57.1L95.4,57.0L95.5,57.1L95.5,57.0L95.5,57.0L95.6,56.9L95.7,56.9L95.7,56.8L95.9,56.9L96.0,56.8L95.9,56.8L95.8,56.7L96.0,56.5L96.2,56.4L96.2,56.3L96.4,56.2L96.4,56.2L96.4,56.4L96.5,56.4ZM94.7,57.7L94.7,57.7L94.7,57.7L94.7,57.6L94.8,57.6L94.8,57.6L94.7,57.5L94.7,57.4L94.7,57.4L94.9,57.4L95.0,57.4L95.1,57.6L95.3,57.6L95.4,57.7L95.2,57.7L95.1,57.7L95.1,57.7L95.0,57.8L94.8,57.9L94.7,57.9L94.7,57.8L94.7,57.7ZM94.0,58.6L94.0,58.5L94.0,58.5L94.1,58.4L94.1,58.4L94.2,58.3L94.3,58.2L94.3,58.3L94.4,58.1L94.6,58.0L94.6,58.0L94.9,57.9L95.1,58.0L95.1,58.1L95.1,58.2L95.1,58.2L95.2,58.3L95.1,58.3L94.9,58.3L94.9,58.4L95.0,58.3L95.1,58.4L95.2,58.3L95.6,58.2L95.8,58.1L95.9,58.1L96.1,58.1L96.2,58.1L96.1,58.3L96.0,58.4L96.0,58.5L95.9,58.5L95.8,58.5L95.6,58.5L95.5,58.5L95.3,58.6L95.2,58.7L94.9,58.7L94.6,58.8L94.5,58.7L94.5,58.6L94.0,58.6Z"/>
    <path class="wtc-county" id="wtc-county-skagway" data-county="Skagway" d="M95.9,60.8L95.9,60.8L95.8,60.9L95.8,60.9L95.9,61.0L95.9,61.1L95.8,61.2L95.7,61.2L95.6,61.3L95.2,61.4L94.9,61.3L95.4,60.8L95.9,60.8Z"/>
    <path class="wtc-county" id="wtc-county-southeast-fairbanks" data-county="Southeast Fairbanks" d="M78.6,67.9L78.6,66.7L79.4,66.7L79.4,66.3L79.3,66.3L79.6,66.3L79.9,66.3L79.9,66.4L81.3,66.4L81.3,66.2L82.1,66.2L82.1,66.2L82.9,66.2L84.2,66.2L84.2,66.1L84.2,66.1L84.4,66.0L84.3,66.0L84.3,66.0L84.3,65.9L84.1,65.8L84.3,65.7L84.4,65.7L84.2,65.6L84.2,65.6L84.1,65.5L84.2,65.5L84.4,65.5L84.5,65.5L84.5,65.5L84.6,65.5L84.7,65.6L84.8,65.6L84.8,65.6L85.1,65.6L85.4,65.6L85.4,65.5L85.6,65.5L85.6,65.3L85.9,65.3L85.9,64.8L85.8,64.8L85.8,64.8L86.1,64.8L86.1,64.5L87.3,64.5L87.3,70.1L87.1,70.1L86.8,70.0L86.8,69.9L86.7,69.8L86.5,69.8L86.3,69.7L86.2,69.7L86.1,69.6L85.8,69.6L85.7,69.6L85.4,69.6L85.2,69.5L85.2,69.5L85.0,69.5L84.9,69.5L84.9,69.4L84.7,69.4L84.8,69.4L84.8,69.3L84.7,69.2L84.6,69.2L84.5,69.1L84.2,69.1L84.2,69.0L84.1,69.0L84.0,69.0L83.9,69.0L83.9,68.9L83.6,68.9L83.7,68.8L83.7,68.7L83.8,68.7L83.6,68.6L83.6,68.6L83.5,68.5L83.4,68.5L83.3,68.4L82.8,68.5L82.8,68.4L82.7,68.4L82.5,68.4L82.5,68.4L82.3,68.3L82.1,68.4L81.8,68.3L81.7,68.3L81.6,68.3L81.3,68.2L81.0,68.2L81.0,68.2L80.7,68.1L80.5,68.2L80.2,68.1L80.1,68.0L79.9,68.1L79.7,68.0L79.7,67.9L79.6,67.9L79.4,67.9L79.2,67.9L78.6,67.9Z"/>
    <path class="wtc-county" id="wtc-county-valdez-cordova" data-county="Valdez-Cordova" d="M80.6,62.3L80.6,62.2L80.8,62.2L80.7,62.2L80.6,62.3ZM80.0,62.3L80.3,62.2L80.4,62.2L80.4,62.3L80.1,62.3L80.0,62.3ZM78.2,63.0L78.4,63.0L78.5,63.0L78.4,63.0L78.3,63.0L78.2,63.0ZM77.9,62.7L77.9,62.6L78.1,62.6L78.2,62.7L78.1,62.8L77.9,62.8L77.9,62.7ZM77.9,62.1L77.9,62.0L78.1,62.1L78.1,62.2L77.9,62.1L77.9,62.1ZM77.3,61.4L77.4,61.4L77.6,61.4L77.6,61.4L77.7,61.5L77.8,61.5L78.0,61.5L78.1,61.5L77.9,61.6L78.1,61.7L78.1,61.8L78.4,62.0L78.7,62.1L78.7,62.1L78.7,62.2L78.6,62.1L78.5,62.2L78.6,62.2L78.5,62.2L78.5,62.3L78.3,62.2L78.3,62.1L78.3,62.1L78.2,62.0L78.0,61.9L77.8,61.8L77.8,61.8L77.6,61.7L77.6,61.7L77.6,61.7L77.4,61.6L77.5,61.5L77.3,61.5L77.3,61.4L77.3,61.4ZM77.2,62.1L77.3,62.0L77.4,62.0L77.4,62.0L77.5,62.0L77.6,62.1L77.6,62.1L77.7,62.3L77.6,62.3L77.7,62.4L77.7,62.5L77.8,62.5L77.8,62.6L77.6,62.5L77.6,62.4L77.5,62.4L77.5,62.4L77.2,62.1ZM77.1,62.8L77.3,62.7L77.4,62.7L77.3,62.8L77.2,62.8L77.1,62.8ZM76.5,63.8L76.5,63.4L76.5,62.9L76.1,62.9L76.1,62.8L76.2,62.8L76.2,62.4L76.2,62.3L76.4,62.3L76.4,61.9L76.3,61.6L76.4,61.7L76.5,61.6L76.6,61.7L76.6,61.8L76.7,61.9L76.8,61.8L76.7,61.8L76.9,61.7L76.8,61.6L77.0,61.6L77.0,61.7L77.1,61.6L77.3,61.7L77.4,61.7L77.4,61.8L77.3,61.9L77.0,62.1L76.9,62.1L76.7,62.1L76.7,62.1L76.9,62.2L76.9,62.2L77.0,62.2L77.0,62.1L77.1,62.1L77.3,62.4L77.2,62.4L77.2,62.5L77.1,62.6L76.9,62.5L76.8,62.4L76.7,62.4L76.7,62.5L76.8,62.6L77.0,62.6L77.0,62.7L77.0,62.8L77.0,62.8L76.8,62.8L76.7,62.7L76.6,62.7L76.6,62.8L76.5,62.9L76.6,62.9L76.7,62.9L76.8,63.0L76.8,63.0L76.9,63.1L76.9,63.2L76.9,63.3L77.0,63.3L77.0,63.2L77.1,63.2L77.2,63.2L77.2,63.3L77.6,63.6L77.6,63.5L77.5,63.4L77.2,63.3L77.2,63.2L77.0,63.0L77.0,62.9L77.0,62.9L77.1,62.9L77.3,62.9L77.5,62.9L77.6,62.9L77.5,63.0L77.5,63.0L77.7,63.0L77.7,62.9L77.8,63.0L77.8,63.0L77.7,63.1L77.8,63.3L77.9,63.3L77.8,63.2L77.8,63.0L77.9,63.0L77.9,63.1L78.0,63.1L78.0,63.0L78.1,63.0L78.2,63.0L78.2,63.1L78.4,63.1L78.4,63.1L78.4,63.1L78.5,63.2L78.4,63.3L78.4,63.4L78.5,63.4L78.6,63.4L78.5,63.3L78.6,63.3L78.6,63.1L78.5,63.1L78.7,63.1L78.8,63.1L78.9,63.2L79.1,63.3L79.2,63.3L79.6,63.3L79.7,63.3L79.2,63.3L79.1,63.1L79.0,63.1L79.0,63.0L79.1,63.0L79.0,63.0L78.9,63.0L78.9,62.9L79.0,62.9L79.1,63.0L79.2,63.0L79.3,62.9L79.5,62.9L79.6,62.9L79.7,63.0L79.8,63.0L79.7,62.9L79.5,62.9L79.3,62.8L79.2,62.8L79.2,62.8L79.0,62.8L79.1,62.7L79.4,62.7L79.5,62.7L79.6,62.8L79.6,62.8L79.8,62.8L80.0,62.8L80.0,62.8L79.7,62.7L79.7,62.6L79.8,62.6L80.0,62.7L80.2,62.8L80.2,62.7L80.1,62.6L80.1,62.6L80.2,62.6L80.2,62.7L80.2,62.6L80.3,62.6L80.4,62.6L80.1,62.6L79.8,62.5L79.6,62.5L79.5,62.4L79.4,62.4L79.3,62.4L79.2,62.4L79.1,62.4L79.0,62.3L79.0,62.2L79.1,62.2L79.3,62.2L79.1,62.1L79.1,62.1L79.2,62.1L79.4,62.2L79.6,62.2L79.7,62.2L79.8,62.3L79.9,62.3L79.9,62.3L79.9,62.3L79.6,62.3L79.6,62.4L79.8,62.4L79.9,62.4L80.3,62.5L80.4,62.6L80.5,62.6L80.3,62.5L80.2,62.4L80.1,62.4L80.2,62.4L80.4,62.4L80.6,62.4L80.8,62.3L80.8,62.3L81.1,62.2L81.3,62.2L81.4,62.2L81.4,62.3L81.6,62.3L81.7,62.4L81.7,62.4L81.6,62.2L81.6,62.1L81.7,62.1L81.9,62.1L81.7,62.1L81.6,62.0L82.0,62.0L82.1,62.0L82.2,62.0L82.3,62.0L82.4,61.9L82.5,62.0L82.5,61.9L82.8,61.9L82.9,61.8L82.6,61.8L82.3,61.6L82.1,61.5L82.1,61.4L82.3,61.6L82.7,61.7L82.9,61.8L83.1,61.7L83.1,61.8L84.1,62.5L84.6,62.5L86.1,62.5L86.1,62.4L87.0,62.4L87.0,62.3L87.3,62.3L87.3,63.3L87.3,64.5L86.1,64.5L86.1,64.8L85.8,64.8L85.8,64.8L85.9,64.8L85.9,65.3L85.6,65.3L85.6,65.5L85.4,65.5L85.4,65.6L85.1,65.6L84.8,65.6L84.8,65.6L84.7,65.6L84.6,65.5L84.5,65.5L84.5,65.5L84.4,65.5L84.2,65.5L84.1,65.5L84.2,65.6L84.2,65.6L84.4,65.7L84.3,65.7L84.1,65.8L84.3,65.9L84.3,66.0L84.3,66.0L84.4,66.0L84.2,66.1L84.2,66.1L84.2,66.2L82.9,66.2L82.1,66.2L82.1,66.2L81.3,66.2L81.3,66.4L79.9,66.4L79.9,66.3L79.6,66.3L79.3,66.3L79.3,66.0L79.4,66.0L79.4,65.8L79.4,65.3L79.5,65.0L78.6,65.0L78.6,64.8L78.7,64.8L78.7,64.3L78.7,64.3L78.7,63.8L78.3,63.8L78.3,63.8L77.1,63.8L76.5,63.8Z"/>
    <path class="wtc-county" id="wtc-county-wrangell" data-county="Wrangell" d="M99.6,56.7L99.6,56.7L99.6,56.7L99.6,56.7ZM99.4,56.5L99.5,56.5L99.7,56.5L99.7,56.5L99.6,56.6L99.5,56.5L99.4,56.5ZM99.3,56.7L99.4,56.6L99.5,56.7L99.5,56.8L99.4,56.7L99.3,56.7ZM99.5,57.0L99.4,56.9L99.4,56.9L99.6,56.8L99.6,56.8L99.7,56.8L99.7,56.8L99.7,56.7L99.8,56.7L100.0,56.6L100.0,56.5L100.0,56.5L99.9,56.5L99.9,56.6L99.7,56.7L99.7,56.7L99.8,56.4L99.7,56.4L99.6,56.5L99.5,56.4L99.4,56.4L99.4,56.3L99.3,56.3L99.2,56.3L99.2,56.1L99.4,56.0L99.4,56.0L99.5,56.1L99.6,55.9L99.7,55.9L99.7,55.8L99.7,55.7L99.8,55.8L99.8,55.8L99.9,55.8L100.0,55.8L100.1,55.9L100.0,56.0L100.1,56.1L100.2,56.1L100.2,56.2L100.3,56.2L100.3,56.1L100.2,56.1L100.2,56.1L100.2,56.0L100.2,55.9L100.1,55.7L100.0,55.7L100.0,55.6L99.9,55.6L99.9,55.5L100.0,55.4L100.1,55.5L100.1,55.5L100.3,55.5L100.3,55.6L100.3,55.7L100.2,55.7L100.4,55.8L100.4,55.8L100.4,55.9L100.4,55.9L100.5,56.0L100.7,56.0L100.7,56.1L100.8,56.1L101.0,56.0L101.1,56.0L101.2,56.1L101.1,56.1L101.2,56.2L101.3,56.3L101.3,56.2L101.6,56.3L101.7,56.3L101.6,56.4L101.5,56.5L101.6,56.5L101.5,56.6L101.0,56.7L100.9,56.8L100.5,56.8L100.5,57.0L100.4,57.0L100.4,57.1L100.1,57.2L100.1,57.2L99.9,57.2L99.9,57.2L99.8,57.1L99.8,57.1L99.6,57.1L99.6,57.0L99.5,57.0ZM98.8,56.3L98.8,56.2L98.9,56.2L99.0,56.1L99.0,56.1L99.0,56.2L98.9,56.3L98.8,56.4L98.8,56.3ZM98.7,56.5L98.7,56.4L98.9,56.4L99.0,56.3L99.2,56.3L99.3,56.4L99.3,56.5L99.4,56.5L99.3,56.6L99.2,56.6L99.1,56.6L98.9,56.6L98.8,56.6L98.7,56.5Z"/>
    <path class="wtc-county" id="wtc-county-yakutat" data-county="Yakutat" d="M87.3,62.3L87.0,62.3L87.0,62.4L86.1,62.4L86.1,62.5L84.6,62.5L84.1,62.5L83.1,61.8L83.1,61.7L83.4,61.8L83.8,61.8L84.2,61.8L84.5,61.9L84.8,61.9L85.1,61.8L85.5,61.8L85.6,61.8L86.0,61.7L86.2,61.7L86.4,61.7L86.7,61.7L86.7,61.8L86.5,61.9L86.5,62.0L86.6,61.9L86.7,61.9L86.7,61.9L86.9,61.7L86.8,61.6L86.7,61.6L86.6,61.6L86.7,61.5L87.3,61.4L87.4,61.4L87.8,61.3L88.3,61.3L88.4,61.3L88.5,61.4L89.0,61.5L89.0,61.5L89.1,61.6L89.3,61.7L89.3,61.7L89.4,61.8L89.5,61.7L89.4,61.7L89.4,61.6L89.3,61.6L89.2,61.5L89.3,61.4L89.3,61.3L89.4,61.3L89.3,61.2L89.3,61.2L89.2,61.2L89.2,61.2L89.1,61.2L89.0,61.1L88.9,61.1L89.1,61.0L89.6,60.8L89.8,60.8L90.3,60.6L90.5,60.6L90.7,60.5L91.2,60.4L91.3,60.3L91.6,60.2L91.7,60.1L91.7,60.0L92.3,60.2L92.3,60.3L92.2,60.6L90.8,61.4L90.6,61.5L90.6,61.6L90.5,61.6L90.1,61.7L89.9,61.9L90.0,62.2L90.0,62.2L89.2,62.2L88.7,62.0L88.0,62.2L87.9,62.0L87.3,62.2L87.3,62.3Z"/>
    <path class="wtc-county" id="wtc-county-yukon-koyukuk" data-county="Yukon-Koyukuk" d="M58.6,66.1L58.5,66.1L58.5,65.9L58.4,65.9L58.4,65.4L58.4,65.4L58.4,64.9L58.5,64.9L58.5,64.5L59.1,64.5L60.9,64.5L60.9,64.7L62.0,64.7L62.0,64.8L63.3,64.8L64.1,64.8L64.1,64.7L65.8,64.7L67.0,64.7L67.9,64.7L68.9,64.7L68.9,64.8L69.4,64.8L69.4,64.9L69.9,64.9L69.9,65.0L70.0,65.0L70.0,65.6L70.0,65.7L70.4,66.0L70.8,66.3L70.8,66.5L70.5,66.5L70.5,66.6L70.2,66.6L70.2,66.7L70.1,66.7L70.1,67.0L71.1,67.0L71.1,67.2L71.3,67.2L71.3,67.5L71.7,67.5L71.6,67.5L71.7,67.6L72.0,67.6L72.1,67.6L72.1,67.5L72.3,67.5L72.4,67.5L72.9,67.8L73.2,68.0L74.3,68.0L75.5,68.0L75.5,68.0L77.1,68.0L76.9,68.1L76.8,68.2L76.6,68.3L76.6,68.3L76.4,68.4L76.2,68.3L76.2,68.7L76.2,69.2L77.8,69.2L78.2,69.3L78.6,69.3L79.0,69.4L79.3,69.4L79.4,69.5L79.3,69.5L79.8,69.6L79.9,69.5L80.1,69.5L80.1,69.5L79.9,69.4L79.9,69.3L80.1,69.3L80.2,69.2L80.5,69.2L80.6,69.1L80.4,69.1L80.5,69.0L80.6,69.0L80.8,69.0L80.9,69.1L81.2,69.0L81.5,69.1L81.7,69.1L81.8,69.1L82.0,69.1L82.3,69.0L82.4,69.1L82.5,69.1L83.0,69.1L83.1,69.1L83.1,69.0L82.8,69.0L83.0,68.9L83.0,68.9L82.8,68.8L82.8,68.8L82.8,68.7L82.9,68.6L82.8,68.5L82.8,68.5L83.3,68.4L83.4,68.5L83.5,68.5L83.6,68.6L83.6,68.6L83.8,68.7L83.7,68.7L83.7,68.8L83.6,68.9L83.9,68.9L83.9,69.0L84.0,69.0L84.1,69.0L84.2,69.0L84.2,69.1L84.5,69.1L84.6,69.2L84.7,69.2L84.8,69.3L84.8,69.4L84.7,69.4L84.9,69.4L84.9,69.5L85.0,69.5L85.2,69.5L85.2,69.5L85.4,69.6L85.7,69.6L85.8,69.6L86.1,69.6L86.2,69.7L86.3,69.7L86.5,69.8L86.7,69.8L86.8,69.9L86.8,70.0L87.1,70.1L87.3,70.1L87.3,74.0L85.5,74.0L84.4,74.0L83.4,74.0L82.0,74.0L81.0,74.0L80.1,74.0L80.1,73.3L78.5,73.3L77.5,73.3L76.4,73.3L75.5,73.3L74.3,73.3L73.1,73.3L71.9,73.3L70.6,73.3L69.4,73.3L68.0,73.3L66.6,73.3L66.6,73.1L66.5,73.1L66.5,72.9L66.9,72.9L66.9,72.8L67.2,72.8L67.2,72.7L67.5,72.7L67.5,72.6L67.4,72.6L67.4,72.2L68.1,72.2L68.1,72.1L68.3,72.1L68.3,71.6L68.2,71.6L68.2,71.4L67.3,71.4L67.3,71.2L66.3,71.2L66.3,71.1L66.3,71.1L66.3,70.8L65.7,70.8L65.7,70.9L65.4,70.9L65.4,71.1L64.7,71.1L64.7,70.8L64.1,70.8L64.1,71.1L62.9,71.1L62.9,70.6L61.3,70.6L61.3,70.3L60.4,70.3L60.4,70.1L60.5,70.1L60.5,69.7L60.8,69.7L60.8,69.3L60.5,69.3L60.5,69.1L60.5,68.8L60.2,68.8L60.2,68.6L59.9,68.6L59.9,68.1L59.9,67.6L60.2,67.6L60.2,67.2L60.0,67.2L60.0,67.1L59.7,67.1L59.7,66.9L59.1,66.9L59.1,66.8L58.9,66.8L58.9,66.6L58.9,66.6L58.9,66.4L58.6,66.4L58.6,66.1Z"/>
  </g>
</svg>