<?xml version="1.0" encoding="UTF-8"?>
<svg xmlns="http://www.w3.org/2000/svg" viewBox="0 0 600 128" id="wtc-state-map-AK" role="img" aria-label="ak county map">
  <title>ak Counties</title>
  <g class="wtc-counties">
    <path class="wtc-county" id="wtc-county-aleutians-east" data-county="Aleutians East" d="M60.8,73.7L60.9,73.8L61.0,73.8L61.0,73.7L60.9,73.7L60.8,73.7L60.8,73.7ZM60.6,73.7L60.7,73.7L60.8,73.6L60.8,73.5L60.7,73.5L60.7,73.6L60.6,73.7ZM60.5,73.8L60.4,73.9L60.6,73.9L60.6,73.9L60.5,73.8ZM60.4,73.3L60.4,73.5L60.5,73.5L60.5,73.5L60.6,73.5L60.6,73.5L60.5,73.5L60.6,73.4L60.6,73.3L60.5,73.3L60.6,73.3L60.6,73.2L60.5,73.3L60.4,73.3L60.4,73.3ZM60.1,73.8L60.2,73.9L60.3,73.9L60.2,73.8L60.1,73.8ZM60.1,73.5L60.1,73.6L60.2,73.5L60.3,73.5L60.3,73.4L60.1,73.5L60.1,73.5ZM59.7,73.1L59.8,73.1L59.8,73.1L59.7,73.1ZM59.5,73.7L59.5,73.8L59.7,73.6L59.8,73.6L59.9,73.5L59.9,73.4L60.1,73.5L60.1,73.4L60.1,73.3L60.1,73.3L60.1,73.4L60.0,73.4L60.0,73.3L60.1,73.3L60.1,73.2L60.0,73.2L59.9,73.3L59.8,73.3L59.8,73.4L59.8,73.4L59.7,73.4L59.6,73.4L59.6,73.5L59.7,73.5L59.8,73.5L59.7,73.6L59.5,73.7ZM59.4,73.0L59.4,73.0L59.7,73.0L59.7,72.9L59.5,72.9L59.4,73.0ZM58.6,73.1L58.7,73.2L58.7,73.3L58.7,73.3L58.7,73.4L58.8,73.3L58.9,73.3L58.9,73.4L59.1,73.4L59.2,73.3L59.1,73.2L59.1,73.2L59.1,73.1L59.1,73.1L59.1,73.1L59.2,73.2L59.3,73.2L59.4,73.2L59.4,73.2L59.4,73.1L59.3,73.1L59.1,73.1L59.0,73.0L59.0,73.1L58.9,73.1L58.9,73.0L58.8,73.0L58.7,73.0L58.6,73.1ZM57.8,73.3L57.8,73.3L57.9,73.4L57.9,73.3L57.8,73.3ZM57.4,73.3L57.4,73.3L57.6,73.3L57.7,73.2L57.5,73.2L57.4,73.3ZM57.1,73.4L57.2,73.5L57.2,73.4L57.4,73.5L57.5,73.4L57.6,73.5L57.6,73.4L57.4,73.4L57.4,73.4L57.2,73.3L57.1,73.4L57.1,73.4ZM56.4,73.7L56.4,73.8L56.5,73.8L56.6,73.8L56.6,73.7L56.6,73.6L56.5,73.6L56.4,73.7ZM55.8,74.4L55.7,74.4L55.9,74.5L55.9,74.5L56.1,74.5L56.2,74.5L56.3,74.5L56.4,74.5L56.5,74.5L56.4,74.4L56.2,74.4L56.1,74.4L55.8,74.3L55.8,74.4ZM55.3,73.0L55.3,73.0L55.4,73.0L55.3,73.0ZM52.8,74.7L52.9,74.8L53.0,74.7L52.9,74.7L52.8,74.7ZM61.5,71.0L61.4,70.9L61.3,71.0L60.9,71.1L60.7,71.2L60.5,71.2L60.1,71.4L60.0,71.5L59.7,71.6L59.7,71.6L59.5,71.7L59.4,71.7L59.3,71.8L59.2,72.0L59.0,72.2L59.1,72.2L59.1,72.2L59.3,72.3L59.5,72.4L59.4,72.4L59.5,72.5L59.4,72.5L59.3,72.4L59.2,72.4L59.2,72.3L58.9,72.3L58.7,72.3L58.8,72.4L58.8,72.5L58.9,72.5L58.9,72.5L58.8,72.5L58.7,72.5L58.5,72.4L58.5,72.3L58.7,72.3L58.7,72.2L58.6,72.2L58.6,72.2L58.7,72.1L58.7,72.1L58.4,72.1L58.4,72.1L58.2,72.1L57.8,72.2L57.6,72.2L57.4,72.3L57.3,72.3L57.1,72.4L57.0,72.4L56.9,72.5L56.8,72.5L56.6,72.6L56.3,72.9L56.1,72.9L56.2,72.9L56.3,73.0L56.2,73.1L56.1,73.1L56.1,73.0L55.9,73.1L55.8,73.1L55.8,73.2L55.7,73.2L55.7,73.2L55.8,73.2L55.7,73.3L55.6,73.3L55.4,73.3L55.3,73.3L55.1,73.4L55.1,73.5L55.1,73.6L55.2,73.7L55.0,73.7L55.0,73.7L55.1,73.8L54.9,73.8L55.0,73.7L54.9,73.7L54.8,73.6L54.8,73.5L54.6,73.5L54.4,73.5L54.2,73.5L54.1,73.6L53.9,73.6L53.8,73.7L53.6,73.7L53.5,73.7L53.4,73.7L53.3,73.8L53.3,73.8L53.2,73.9L53.1,74.1L53.0,74.1L52.8,74.2L52.7,74.2L52.7,74.3L52.8,74.3L52.8,74.4L52.9,74.4L53.0,74.5L53.2,74.5L53.4,74.4L53.6,74.4L53.6,74.3L53.8,74.2L54.0,74.1L54.1,74.1L54.4,74.1L54.6,74.1L54.7,74.1L54.8,74.1L54.9,74.1L54.9,74.0L55.0,74.0L55.1,74.0L55.2,74.1L55.3,74.0L55.4,74.0L55.3,74.1L55.5,74.1L55.4,74.0L55.3,73.9L55.2,73.9L55.1,73.9L55.0,73.9L55.1,73.8L55.2,73.8L55.5,73.7L55.5,73.6L55.2,73.5L55.3,73.5L55.4,73.4L55.5,73.5L55.6,73.5L55.6,73.6L55.7,73.7L55.8,73.7L55.9,73.7L56.0,73.6L55.9,73.6L56.0,73.6L56.2,73.6L56.2,73.6L56.1,73.4L56.1,73.4L56.1,73.3L56.0,73.3L55.9,73.3L56.0,73.2L56.1,73.1L56.1,73.2L56.2,73.2L56.3,73.4L56.4,73.4L56.2,73.4L56.3,73.5L56.4,73.5L56.5,73.5L56.6,73.6L56.7,73.5L56.7,73.4L56.7,73.4L56.8,73.4L56.8,73.4L56.9,73.5L57.0,73.4L57.0,73.4L57.0,73.3L56.9,73.3L57.0,73.2L57.1,73.3L57.2,73.2L57.2,73.2L57.4,73.0L57.4,72.8L57.5,72.7L57.7,72.7L57.8,72.7L57.9,72.7L57.9,72.8L57.7,72.9L57.7,73.1L57.8,73.1L57.9,73.0L58.0,73.1L58.1,73.1L58.4,73.0L58.5,72.9L58.6,72.8L58.7,72.9L58.7,72.9L58.7,72.9L58.9,72.9L58.9,72.8L58.8,72.8L58.8,72.8L58.9,72.8L59.0,72.8L59.0,72.8L59.1,72.9L59.2,72.9L59.2,72.8L59.3,72.7L59.2,72.7L59.3,72.6L59.5,72.7L59.6,72.6L59.8,72.5L59.8,72.4L60.0,72.4L60.0,72.5L60.1,72.4L60.1,72.4L60.1,72.4L60.3,72.4L60.4,72.4L60.3,72.5L60.3,72.6L60.4,72.6L60.4,72.7L60.3,72.7L60.3,72.8L60.4,72.7L60.5,72.7L60.5,72.3L60.1,72.3L60.1,72.2L60.1,72.2L60.1,71.7L60.0,71.7L60.0,71.4L60.5,71.4L60.5,71.3L60.9,71.3L60.9,71.2L61.2,71.2L61.2,71.1L61.5,71.1L61.5,71.0ZM52.3,74.9L52.3,74.9L52.6,74.9L52.7,74.9L52.8,74.9L52.7,74.8L52.6,74.9L52.4,74.8L52.3,74.9ZM52.0,74.9L52.0,74.9L52.2,74.9L52.2,75.0L52.3,74.9L52.3,74.9L52.0,74.9ZM51.8,75.0L51.9,75.0L51.9,75.0L51.9,74.9L51.8,75.0ZM51.7,74.7L51.7,74.7L51.8,74.7L51.8,74.7L51.7,74.7L51.7,74.8L51.9,74.9L52.0,74.8L52.1,74.8L52.1,74.7L51.9,74.7L51.8,74.7L52.0,74.6L51.9,74.6L51.8,74.6L51.7,74.6L51.7,74.7ZM51.1,74.8L51.1,74.9L51.1,75.0L51.2,74.9L51.4,74.9L51.4,75.0L51.5,74.9L51.5,74.9L51.7,74.9L51.7,74.8L51.6,74.9L51.6,74.8L51.5,74.8L51.4,74.8L51.4,74.7L51.2,74.7L51.1,74.8L51.1,74.8ZM50.9,75.1L50.9,75.1L51.1,75.1L51.0,75.0L50.9,75.1Z"/>
    <path class="wtc-county" id="wtc-county-aleutians-west" data-county="Aleutians West" d="M549.6,77.9L549.6,78.0L549.6,78.1L549.8,78.1L549.8,78.1L550.0,78.0L550.0,78.0L549.8,77.9L549.7,77.9L549.6,77.9L549.6,77.9ZM548.3,78.4L548.5,78.5L548.6,78.5L548.7,78.5L548.8,78.6L549.0,78.7L549.2,78.8L549.3,78.8L549.4,78.8L549.5,78.8L549.5,78.8L549.4,78.8L549.2,78.8L549.2,78.7L549.0,78.7L548.9,78.6L548.8,78.5L548.7,78.5L548.6,78.4L548.5,78.4L548.4,78.4L548.3,78.4ZM548.1,77.9L548.2,78.1L548.2,78.1L548.3,78.0L548.2,78.0L548.1,77.9L548.1,77.9ZM547.8,78.2L547.9,78.2L548.0,78.3L547.9,78.2L547.8,78.2ZM547.6,77.9L547.6,77.9L547.7,77.9L547.7,77.9L547.6,77.8L547.6,77.9ZM546.3,78.1L546.3,78.1L546.4,78.1L546.5,78.1L546.5,78.1L546.6,78.0L546.8,78.0L546.9,78.0L546.9,78.0L546.8,78.0L546.9,77.9L546.9,77.8L547.0,77.8L546.9,77.7L546.8,77.7L546.7,77.9L546.7,77.9L546.5,78.0L546.4,78.0L546.3,78.1ZM544.4,77.4L544.4,77.4L544.5,77.4L544.4,77.4ZM541.8,76.9L541.8,76.9L541.9,76.9L541.9,76.9L541.8,76.9ZM541.6,76.8L541.7,76.9L541.7,76.8L541.6,76.8ZM541.5,76.8L541.5,76.8L541.6,76.8L541.5,76.8ZM540.7,77.3L540.9,77.4L541.1,77.3L541.2,77.4L541.3,77.4L541.2,77.3L541.2,77.2L541.3,77.2L541.1,77.2L541.0,77.3L540.9,77.3L540.8,77.3L540.7,77.3ZM539.4,76.6L539.5,76.6L539.7,76.6L539.9,76.7L539.9,76.7L540.0,76.8L540.1,76.8L540.2,76.8L540.4,76.8L540.5,76.8L540.6,76.7L540.7,76.7L540.8,76.7L540.8,76.7L540.7,76.6L540.5,76.6L540.4,76.5L539.9,76.5L539.7,76.5L539.4,76.6ZM48.5,76.0L48.6,76.1L48.9,76.1L48.9,76.1L49.1,76.1L49.1,76.0L49.2,76.0L49.3,76.0L49.3,75.9L49.6,75.9L49.6,75.9L49.7,75.8L49.8,75.9L49.8,75.8L49.9,75.9L50.1,75.8L50.2,75.7L50.3,75.8L50.3,75.7L50.4,75.7L50.4,75.6L50.5,75.6L50.4,75.6L50.6,75.6L50.8,75.5L50.8,75.5L51.0,75.4L51.1,75.4L51.1,75.3L51.0,75.2L50.9,75.3L50.9,75.3L50.6,75.4L50.4,75.4L50.4,75.4L50.6,75.3L50.8,75.2L50.9,75.2L50.9,75.1L50.8,75.1L50.8,75.1L50.7,75.0L50.6,75.1L50.6,75.1L50.5,75.2L50.5,75.1L50.4,75.2L50.3,75.2L50.3,75.1L50.4,75.1L50.3,75.0L50.2,75.0L50.1,75.0L49.9,75.0L49.7,75.1L49.6,75.2L49.6,75.3L49.7,75.4L49.8,75.4L50.1,75.4L50.0,75.5L50.0,75.5L50.0,75.5L49.9,75.4L49.8,75.4L49.7,75.5L49.7,75.5L49.8,75.6L49.7,75.6L49.6,75.6L49.5,75.6L49.6,75.7L49.5,75.7L49.5,75.8L49.4,75.8L49.3,75.8L49.3,75.9L49.1,75.8L49.1,75.9L48.9,75.9L48.7,75.9L48.6,76.0L48.5,76.0ZM46.8,76.7L46.7,76.7L47.0,76.6L47.2,76.6L47.2,76.6L47.3,76.5L47.3,76.5L47.5,76.4L47.6,76.4L47.7,76.4L47.8,76.3L47.8,76.2L47.9,76.1L48.3,76.0L48.6,75.9L48.5,75.8L48.6,75.8L48.6,75.7L48.5,75.7L48.3,75.7L48.0,75.7L47.8,75.8L47.7,75.9L47.8,75.9L47.7,76.0L47.8,76.0L47.8,76.1L47.7,76.1L47.5,76.1L47.5,76.1L47.2,76.2L47.2,76.3L47.2,76.3L47.2,76.4L47.1,76.4L47.1,76.5L47.0,76.6L46.9,76.6L46.9,76.6L46.8,76.7ZM46.5,76.8L46.5,76.8L46.6,76.8L46.6,76.7L46.5,76.8ZM45.8,76.5L45.8,76.5L45.9,76.5L45.9,76.5L45.9,76.4L45.8,76.4L45.8,76.5ZM45.7,71.3L45.8,71.3L45.9,71.3L45.9,71.4L46.1,71.4L46.2,71.3L46.2,71.3L46.0,71.3L45.7,71.3ZM45.8,76.4L45.7,76.4L45.8,76.4L45.8,76.4ZM45.4,76.7L45.4,76.8L45.5,76.8L45.7,76.7L45.8,76.8L45.9,76.7L45.9,76.6L45.8,76.6L45.6,76.7L45.6,76.7L45.5,76.7L45.4,76.7ZM45.3,76.6L45.3,76.7L45.4,76.7L45.4,76.6L45.4,76.6L45.3,76.6L45.3,76.6ZM45.2,76.9L45.3,76.9L45.4,76.8L45.2,76.8L45.2,76.9ZM44.8,70.5L45.0,70.5L45.0,70.5L45.2,70.4L45.2,70.4L45.1,70.4L45.0,70.4L44.9,70.4L44.8,70.5ZM44.2,77.1L44.2,77.1L44.3,77.1L44.4,77.1L44.5,77.0L44.6,77.0L44.6,77.0L44.6,76.9L44.5,76.9L44.3,77.0L44.2,77.1ZM43.8,77.1L43.7,77.1L43.8,77.1L43.8,77.1ZM43.5,77.2L43.6,77.3L43.7,77.3L43.7,77.2L43.6,77.2L43.5,77.2ZM41.7,77.5L41.7,77.6L41.8,77.6L42.0,77.5L42.1,77.5L42.1,77.4L42.0,77.4L41.9,77.4L41.7,77.4L41.7,77.5ZM39.6,77.7L39.7,77.8L39.7,77.8L39.8,77.8L39.9,77.9L40.0,77.8L40.2,77.8L40.3,77.9L40.4,77.9L40.5,77.9L40.5,77.9L40.7,77.8L40.9,77.8L41.0,77.8L41.0,77.8L41.2,77.8L41.0,77.8L40.9,77.8L40.8,77.8L40.7,77.8L40.6,77.8L40.4,77.7L40.4,77.8L40.3,77.7L40.4,77.7L40.2,77.7L40.1,77.7L40.0,77.7L40.0,77.8L39.8,77.7L39.6,77.7ZM37.8,77.9L37.9,77.9L38.1,77.9L38.2,77.9L38.3,77.9L38.4,77.9L38.5,77.9L38.6,77.9L38.9,77.8L39.1,77.9L39.2,77.8L39.3,77.8L39.4,77.8L39.4,77.7L39.5,77.7L39.5,77.8L39.6,77.7L39.4,77.6L39.4,77.6L39.6,77.6L39.7,77.5L39.7,77.4L39.6,77.4L39.4,77.3L39.2,77.4L39.2,77.4L39.2,77.5L39.0,77.4L39.0,77.5L39.1,77.5L39.3,77.5L39.3,77.6L39.2,77.6L39.0,77.6L39.1,77.7L38.9,77.7L38.9,77.7L38.7,77.8L38.6,77.7L38.6,77.8L38.5,77.8L38.4,77.7L38.3,77.8L38.2,77.8L38.2,77.8L38.1,77.9L38.0,77.8L37.8,77.9ZM37.5,77.9L37.5,78.0L37.6,78.0L37.6,77.9L37.5,77.9ZM37.4,77.7L37.5,77.7L37.5,77.7L37.4,77.7ZM37.2,78.0L37.2,78.0L37.3,78.0L37.4,78.0L37.4,78.0L37.2,78.0L37.2,78.0ZM36.9,77.9L37.0,78.0L37.1,78.0L37.1,78.0L37.1,77.9L36.9,77.9L36.9,77.9ZM36.5,77.8L36.5,77.8L36.5,77.9L36.6,77.9L36.5,78.0L36.6,78.0L36.7,78.0L36.8,78.0L36.7,77.9L36.8,77.9L36.7,77.8L36.6,77.7L36.5,77.8ZM36.4,78.2L36.5,78.2L36.6,78.3L36.6,78.2L36.6,78.2L36.6,78.2L36.8,78.2L36.7,78.1L36.8,78.1L36.8,78.1L36.8,78.0L36.6,78.1L36.7,78.1L36.6,78.1L36.5,78.1L36.5,78.1L36.4,78.2ZM35.4,78.5L35.4,78.5L35.4,78.5L35.5,78.4L35.6,78.4L35.6,78.5L35.7,78.4L35.8,78.5L35.7,78.4L35.8,78.4L35.9,78.4L35.9,78.4L36.0,78.3L36.1,78.3L36.3,78.3L36.4,78.3L36.4,78.2L36.4,78.1L36.2,78.1L36.1,78.1L36.0,78.1L35.9,78.1L35.9,78.1L36.0,78.0L36.0,77.9L35.9,77.9L35.8,78.0L35.7,78.0L35.7,78.0L35.6,78.0L35.7,78.1L35.6,78.2L35.5,78.2L35.5,78.2L35.5,78.3L35.5,78.3L35.4,78.4L35.4,78.5ZM34.7,78.0L34.7,78.1L34.8,78.1L34.7,78.0L34.7,78.0ZM34.3,78.3L34.4,78.4L34.4,78.4L34.4,78.4L34.6,78.3L34.8,78.3L35.0,78.4L35.1,78.3L35.2,78.3L35.1,78.2L35.3,78.1L35.2,78.0L35.1,78.0L35.1,78.0L35.0,78.2L34.9,78.2L34.7,78.3L34.5,78.3L34.4,78.3L34.3,78.3ZM33.6,78.1L33.6,78.1L33.8,78.2L33.8,78.2L33.9,78.2L34.0,78.3L33.8,78.3L33.7,78.4L33.8,78.4L33.9,78.5L34.0,78.4L34.0,78.5L34.0,78.5L34.0,78.4L34.0,78.4L34.1,78.4L34.2,78.3L34.1,78.3L34.2,78.2L34.4,78.2L34.5,78.1L34.3,78.2L34.2,78.1L34.1,78.2L34.0,78.1L34.0,78.1L34.0,78.0L33.8,78.0L33.6,78.1L33.6,78.1ZM32.9,78.5L32.9,78.5L33.1,78.5L33.1,78.5L32.9,78.5ZM32.7,78.5L32.7,78.6L32.8,78.6L32.8,78.5L32.7,78.5ZM32.6,78.2L32.7,78.3L32.8,78.3L32.8,78.2L32.7,78.1L32.6,78.2ZM32.5,78.8L32.5,78.9L32.5,78.9L32.6,78.9L32.6,78.8L32.5,78.8L32.5,78.8ZM32.3,78.9L32.3,79.0L32.4,79.0L32.3,78.9L32.3,78.9Z"/>
    <path class="wtc-county" id="wtc-county-anchorage" data-county="Anchorage" d="M75.1,64.3L75.1,64.3L75.0,64.3L74.7,64.4L74.7,64.5L74.6,64.5L74.4,64.6L74.3,64.6L74.2,64.7L74.3,64.7L74.5,64.8L74.7,64.9L74.9,65.0L75.0,65.0L75.3,65.0L75.5,65.0L75.6,65.1L75.7,65.1L75.7,65.2L75.7,65.3L76.1,65.3L76.1,65.2L76.5,65.2L76.5,64.7L76.5,64.3L75.5,64.3L75.5,64.3L75.4,64.3L75.4,64.2L75.2,64.2L75.1,64.3ZM73.9,64.7L74.0,64.8L74.1,64.7L74.0,64.7L73.9,64.7Z"/>
    <path class="wtc-county" id="wtc-county-bethel" data-county="Bethel" d="M52.5,65.0L52.6,65.1L52.7,65.0L52.8,65.0L52.7,65.1L52.6,65.2L52.8,65.2L52.6,65.2L52.6,65.3L52.7,65.3L52.6,65.4L52.6,65.4L52.3,65.5L52.1,65.5L52.0,65.6L52.1,65.6L52.4,65.7L52.6,65.6L52.7,65.6L52.7,65.6L52.6,65.7L52.5,65.8L52.7,65.9L52.9,65.9L53.1,65.9L53.2,66.0L53.3,66.1L53.4,66.1L53.5,66.3L53.8,66.3L53.9,66.4L53.8,66.4L53.9,66.6L53.9,66.6L54.2,66.7L54.6,66.7L55.0,66.6L55.4,66.6L55.7,66.5L55.9,66.5L56.0,66.4L56.1,66.4L56.2,66.4L56.3,66.4L56.3,66.3L56.3,66.3L56.3,66.2L56.3,66.1L56.4,66.1L56.5,66.2L56.7,66.3L56.7,66.4L56.8,66.5L56.9,66.5L57.1,66.7L57.2,66.9L57.2,67.0L57.3,67.0L57.4,67.1L57.3,67.1L57.2,67.2L57.1,67.3L56.9,67.4L57.0,67.6L57.2,67.7L57.2,67.7L57.2,67.8L57.3,67.9L57.3,68.0L57.3,68.1L57.3,68.1L57.2,68.2L57.2,68.3L57.1,68.3L57.0,68.3L56.7,68.3L56.9,68.4L57.2,68.3L57.3,68.4L57.3,68.5L57.4,68.4L57.5,68.4L57.6,68.4L57.7,68.3L57.9,68.3L57.9,68.2L57.9,68.2L57.9,68.2L57.9,68.1L58.3,68.1L58.4,68.1L58.4,67.8L58.6,67.8L58.6,67.7L58.7,67.7L58.7,67.4L58.9,67.4L58.9,67.3L59.2,67.3L59.2,67.2L59.3,67.2L59.3,66.9L59.5,66.9L59.5,66.7L59.8,66.7L59.8,66.4L60.1,66.4L60.1,66.2L60.2,66.2L60.2,66.1L60.4,66.1L60.4,65.8L60.7,65.8L60.7,65.7L60.8,65.7L60.8,65.4L61.0,65.4L61.0,65.3L61.3,65.3L61.3,65.2L61.4,65.2L61.4,65.1L62.9,65.1L62.9,65.2L63.2,65.2L63.2,65.1L63.4,65.1L63.4,64.9L64.0,64.9L64.0,65.1L65.6,65.1L67.2,65.1L68.1,65.1L69.3,65.1L69.3,64.7L69.3,64.7L69.3,64.3L70.0,64.3L70.0,63.1L69.9,63.1L69.9,63.2L69.4,63.2L69.4,63.3L68.9,63.3L68.9,63.4L67.9,63.4L67.0,63.4L65.8,63.4L64.1,63.4L64.1,63.3L63.3,63.3L62.0,63.3L62.0,63.4L60.9,63.4L60.9,63.6L59.1,63.6L59.2,63.7L59.4,63.7L59.5,63.7L59.6,63.7L59.6,63.8L59.4,63.8L59.2,63.8L59.0,63.8L58.8,63.9L58.6,63.9L58.4,64.0L58.2,64.1L57.8,64.1L57.6,64.2L57.4,64.2L57.1,64.2L57.0,64.2L56.8,64.2L56.5,64.2L56.4,64.2L56.3,64.2L56.3,64.2L56.2,64.1L55.9,64.2L55.9,64.2L55.7,64.2L55.4,64.2L55.3,64.3L55.1,64.3L55.0,64.2L54.9,64.3L54.8,64.3L54.9,64.3L54.8,64.4L54.8,64.4L54.6,64.4L54.4,64.4L54.1,64.4L54.1,64.5L54.1,64.5L54.1,64.6L54.2,64.6L54.2,64.6L54.1,64.7L53.9,64.8L53.8,64.7L53.8,64.8L53.8,64.8L53.9,64.8L53.9,64.9L53.7,65.0L53.5,65.0L53.3,65.0L53.2,65.0L53.2,65.0L52.9,65.0L52.7,65.0L52.7,65.0L52.5,65.0ZM49.1,66.1L49.3,66.2L49.3,66.3L49.4,66.3L49.6,66.4L49.8,66.4L50.0,66.5L50.1,66.5L50.3,66.6L50.3,66.6L50.6,66.6L50.8,66.6L50.9,66.7L51.1,66.7L51.0,66.6L51.2,66.6L51.3,66.6L51.4,66.6L51.4,66.5L51.8,66.5L51.8,66.4L51.9,66.4L51.8,66.4L51.7,66.3L51.6,66.3L51.7,66.2L51.7,66.2L51.6,66.1L51.7,66.1L51.6,66.0L51.7,66.0L51.5,65.9L51.4,65.9L51.2,65.9L51.1,65.9L51.0,65.7L50.9,65.8L50.8,65.8L50.7,65.9L50.5,65.8L50.4,65.9L50.4,65.9L50.2,65.9L50.0,66.0L50.0,66.0L50.0,66.1L49.9,66.1L49.8,66.1L49.7,66.1L49.6,66.0L49.3,66.0L49.1,66.1ZM41.0,65.7L41.2,65.7L41.5,65.9L41.7,65.9L41.8,65.9L42.1,65.9L42.1,65.9L42.2,65.9L41.9,65.8L41.8,65.8L41.7,65.8L41.5,65.7L41.3,65.6L41.2,65.6L41.2,65.5L41.2,65.5L41.1,65.6L41.0,65.7ZM41.0,65.4L40.9,65.4L41.0,65.5L41.0,65.4L41.0,65.4Z"/>
    <path class="wtc-county" id="wtc-county-bristol-bay" data-county="Bristol Bay" d="M64.2,68.0L64.2,68.1L64.1,68.2L64.1,68.2L63.8,68.4L65.2,68.4L65.2,68.0L64.2,68.0Z"/>
    <path class="wtc-county" id="wtc-county-denali" data-county="Denali" d="M70.0,62.4L70.1,62.4L71.6,62.4L71.6,62.3L72.5,62.1L73.9,61.8L75.0,61.6L75.6,61.6L77.1,61.6L77.1,61.4L78.5,61.4L78.6,61.4L78.6,60.2L77.5,60.2L77.4,60.2L77.2,60.1L77.1,60.1L75.5,60.1L75.5,60.1L74.3,60.1L73.2,60.1L72.9,60.3L72.4,60.6L72.3,60.6L72.1,60.6L72.1,60.5L72.0,60.5L71.7,60.5L71.6,60.6L71.7,60.6L71.3,60.6L71.3,60.9L71.1,60.9L71.1,61.1L70.1,61.1L70.1,61.4L70.2,61.4L70.2,61.5L70.5,61.5L70.5,61.6L70.8,61.6L70.8,61.8L70.4,62.1L70.0,62.4Z"/>
    <path class="wtc-county" id="wtc-county-dillingham" data-county="Dillingham" d="M59.4,68.3L59.5,68.3L59.5,68.3L59.4,68.2L59.4,68.3ZM59.2,68.3L59.3,68.2L59.3,68.2L59.2,68.3ZM65.6,65.1L64.0,65.1L64.0,64.9L63.4,64.9L63.4,65.1L63.2,65.1L63.2,65.2L62.9,65.2L62.9,65.1L61.4,65.1L61.4,65.2L61.3,65.2L61.3,65.3L61.0,65.3L61.0,65.4L60.8,65.4L60.8,65.7L60.7,65.7L60.7,65.8L60.4,65.8L60.4,66.1L60.2,66.1L60.2,66.2L60.1,66.2L60.1,66.4L59.8,66.4L59.8,66.7L59.5,66.7L59.5,66.9L59.3,66.9L59.3,67.2L59.2,67.2L59.2,67.3L58.9,67.3L58.9,67.4L58.7,67.4L58.7,67.7L58.6,67.7L58.6,67.8L58.4,67.8L58.4,68.1L58.6,68.0L58.7,68.1L58.8,67.9L58.9,67.9L59.2,67.8L59.4,67.7L59.5,67.8L59.4,67.9L59.5,68.0L59.6,67.9L59.7,68.0L59.7,68.0L59.8,68.0L59.9,68.0L59.9,68.0L60.0,68.1L60.1,68.1L60.1,68.0L60.2,68.0L60.3,67.9L60.4,67.9L60.5,68.0L60.4,68.0L60.5,68.1L60.7,68.1L60.8,68.2L61.0,68.5L61.2,68.7L61.5,68.7L61.6,68.7L61.7,68.6L61.6,68.5L61.6,68.4L61.5,68.3L61.5,68.2L61.6,68.2L61.6,68.2L61.6,68.1L61.6,68.0L61.9,67.9L62.0,67.8L62.0,67.8L62.0,68.0L61.9,68.0L61.9,68.1L62.1,68.2L62.2,68.2L62.3,68.3L62.4,68.4L62.6,68.4L63.0,68.3L63.2,68.2L63.4,68.2L63.4,68.1L63.6,68.1L63.7,68.1L63.9,68.0L63.9,67.7L63.8,67.7L63.8,67.4L64.0,67.4L64.0,67.3L64.5,67.3L64.5,67.2L64.7,67.2L64.7,67.1L64.9,67.1L64.9,66.9L65.4,66.9L65.4,66.8L65.6,66.8L65.6,65.1ZM58.3,68.4L58.3,68.5L58.5,68.5L58.6,68.4L58.9,68.1L58.9,68.1L58.7,68.2L58.5,68.2L58.3,68.2L58.3,68.4ZM58.3,68.1L57.9,68.1L57.9,68.2L57.9,68.2L58.3,68.1Z"/>
    <path class="wtc-county" id="wtc-county-fairbanks-north-star" data-county="Fairbanks North Star" d="M82.8,59.6L82.8,59.6L82.9,59.5L82.8,59.5L82.8,59.3L82.8,59.3L83.0,59.2L83.0,59.2L82.8,59.1L83.1,59.1L83.1,59.0L83.0,59.0L82.5,59.0L82.4,59.0L82.3,59.1L82.0,59.0L81.8,59.0L81.7,59.0L81.5,59.0L81.2,59.1L80.9,59.0L80.8,59.1L80.6,59.1L80.5,59.1L80.4,59.0L80.6,59.0L80.5,58.9L80.2,58.9L80.1,58.8L79.9,58.8L79.9,58.7L80.1,58.6L80.1,58.6L79.9,58.6L79.8,58.5L79.3,58.6L79.4,58.6L79.3,58.7L79.0,58.7L78.6,58.8L78.2,58.8L77.8,58.9L76.2,58.9L76.2,59.4L76.2,59.8L76.4,59.7L76.6,59.8L76.6,59.8L76.8,59.9L76.9,60.0L77.1,60.1L77.2,60.1L77.4,60.2L77.5,60.2L78.6,60.2L79.2,60.2L79.4,60.2L79.6,60.2L79.7,60.2L79.7,60.1L79.9,60.0L80.1,60.1L80.2,60.0L80.5,60.0L80.7,60.0L81.0,59.9L81.0,59.9L81.3,59.9L81.6,59.8L81.7,59.8L81.8,59.8L82.1,59.7L82.3,59.8L82.5,59.7L82.5,59.7L82.7,59.7L82.8,59.7L82.8,59.6Z"/>
    <path class="wtc-county" id="wtc-county-haines" data-county="Haines" d="M95.4,67.8L95.4,67.9L95.5,67.9L95.5,67.9L95.4,67.8ZM94.9,66.8L94.6,66.9L94.2,66.9L94.0,67.0L94.1,67.0L94.1,67.1L94.1,67.1L94.0,67.2L93.8,67.1L93.8,67.4L93.8,67.4L93.9,67.5L94.0,67.5L94.2,67.5L94.3,67.6L94.3,67.5L94.4,67.6L94.6,67.6L94.7,67.6L94.8,67.6L94.9,67.7L94.9,67.7L94.9,67.8L95.1,67.9L95.1,68.0L95.2,68.0L95.1,68.0L94.9,68.0L94.9,68.1L94.9,68.2L94.9,68.2L95.1,68.3L95.2,68.3L95.3,68.4L95.3,68.4L95.5,68.5L95.4,68.6L95.3,68.5L95.2,68.6L95.3,68.7L95.4,68.9L95.5,68.9L95.6,68.9L95.7,69.0L95.8,69.0L95.8,68.9L95.8,68.8L95.9,68.8L95.8,68.8L95.8,68.7L95.7,68.4L95.7,68.4L95.7,68.4L95.6,68.2L95.6,68.1L95.4,68.0L95.5,67.9L95.4,67.9L95.4,67.8L95.4,67.7L95.3,67.7L95.2,67.5L95.0,67.4L95.1,67.4L95.2,67.5L95.4,67.7L95.5,67.7L95.4,67.5L95.3,67.5L95.3,67.4L95.1,67.4L95.2,67.4L95.4,67.4L95.5,67.5L95.6,67.7L95.7,67.8L95.7,68.0L95.9,68.2L95.9,68.1L95.9,68.1L96.0,68.0L95.8,67.9L96.9,67.9L96.8,67.9L96.8,67.8L96.7,67.6L96.6,67.6L96.4,67.5L96.4,67.5L96.0,67.4L95.9,67.3L95.4,67.3L94.9,66.8Z"/>
    <path class="wtc-county" id="wtc-county-hoonah-angoon" data-county="Hoonah-Angoon" d="M98.0,69.5L98.0,69.5L98.0,69.6L98.1,69.5L98.2,69.6L98.3,69.6L98.4,69.6L98.5,69.6L98.7,69.7L98.7,69.6L98.8,69.7L98.9,69.6L99.0,69.7L99.0,69.7L99.0,69.8L99.0,69.8L99.1,69.9L99.2,69.9L99.3,69.9L99.3,69.8L99.2,69.7L99.0,69.5L98.7,69.3L98.6,69.0L98.0,69.5ZM97.8,69.6L97.9,69.6L97.9,69.5L97.8,69.6ZM97.5,70.3L97.6,70.3L97.7,70.3L97.6,70.2L97.5,70.3ZM96.3,68.9L96.3,68.9L96.2,68.9L96.2,68.8L96.0,68.7L96.0,68.7L96.0,68.9L96.0,69.0L96.1,69.0L96.2,69.1L96.2,69.2L96.3,69.3L96.3,69.4L96.4,69.5L96.3,69.7L96.4,69.7L96.4,69.8L96.5,69.9L96.5,70.0L96.7,70.1L96.7,70.2L96.6,70.1L96.5,70.1L96.5,70.2L96.6,70.3L96.5,70.3L96.4,70.4L96.5,70.5L96.5,70.7L96.7,70.7L96.8,70.6L96.8,70.5L97.0,70.5L97.1,70.4L97.3,70.3L97.2,70.2L97.3,70.2L97.4,70.3L97.6,70.2L97.6,70.2L97.5,70.0L97.6,70.0L97.5,69.9L97.5,69.8L97.3,69.8L97.2,69.6L97.2,69.6L97.2,69.5L97.1,69.4L97.2,69.4L97.2,69.5L97.3,69.5L97.4,69.7L97.6,69.8L97.6,69.9L97.6,69.9L97.6,69.8L97.5,69.7L97.5,69.5L97.4,69.5L97.3,69.4L97.2,69.3L97.2,69.2L97.1,69.1L97.1,69.0L96.8,69.1L96.7,69.1L96.6,69.1L96.5,69.2L96.5,69.2L96.4,69.2L96.2,69.1L96.3,69.0L96.3,68.9ZM94.9,68.7L95.0,68.8L95.1,68.8L95.1,68.7L95.0,68.7L94.9,68.7ZM94.3,68.4L94.3,68.5L94.3,68.4L94.3,68.4ZM94.3,68.9L94.4,68.9L94.4,68.9L94.4,68.8L94.3,68.9ZM95.8,69.6L96.0,69.5L95.8,69.4L95.7,69.4L95.7,69.4L95.7,69.4L95.9,69.4L96.0,69.4L96.1,69.3L96.0,69.2L95.8,69.2L95.8,69.1L95.5,69.1L95.4,69.1L95.3,69.1L95.1,69.2L95.1,69.3L95.0,69.3L95.0,69.2L95.1,69.1L95.2,69.0L95.1,69.0L94.9,68.9L94.8,68.8L94.6,68.9L94.5,69.0L94.4,68.9L94.3,68.9L94.1,69.0L94.1,68.9L94.1,68.9L93.9,68.9L94.0,69.0L94.0,69.0L93.8,69.1L93.8,69.1L93.7,69.2L93.7,69.4L93.8,69.4L93.8,69.5L94.0,69.5L94.5,69.5L94.5,69.4L94.6,69.3L94.9,69.4L95.2,69.4L95.3,69.5L95.5,69.6L95.6,69.6L95.8,69.6ZM91.7,68.1L91.7,68.2L91.9,68.2L92.1,68.3L92.1,68.4L92.3,68.5L92.6,68.6L92.7,68.6L92.9,68.7L93.0,68.7L93.1,68.7L93.3,68.8L93.2,68.8L93.4,68.8L93.5,68.9L93.6,69.0L93.7,68.9L93.6,68.8L93.7,68.8L93.9,68.8L94.0,68.8L93.9,68.7L94.0,68.7L94.1,68.7L94.0,68.8L94.1,68.8L94.3,68.8L94.4,68.7L94.3,68.5L94.2,68.4L94.2,68.3L94.0,68.3L94.0,68.3L93.8,68.4L93.8,68.4L93.9,68.3L94.0,68.3L93.8,68.1L93.6,68.1L93.4,68.0L93.4,68.0L93.1,68.0L93.2,67.9L93.2,67.9L93.3,67.9L93.3,67.9L93.6,68.0L93.6,68.0L93.7,67.9L93.8,68.1L93.9,68.1L94.1,68.2L94.3,68.2L94.3,68.0L94.3,67.9L94.3,67.9L94.4,67.9L94.4,68.1L94.4,68.1L94.5,68.2L94.5,68.2L94.6,68.4L94.6,68.4L94.6,68.5L94.5,68.6L94.5,68.6L94.6,68.6L94.6,68.7L94.9,68.7L95.0,68.6L95.2,68.7L95.3,68.7L95.2,68.6L95.3,68.5L95.4,68.6L95.5,68.5L95.3,68.4L95.3,68.4L95.2,68.3L95.1,68.3L94.9,68.2L94.9,68.2L94.9,68.1L94.9,68.0L95.1,68.0L95.2,68.0L95.1,68.0L95.1,67.9L94.9,67.8L94.9,67.7L94.9,67.7L94.8,67.6L94.7,67.6L94.6,67.6L94.4,67.6L94.3,67.5L94.3,67.6L94.2,67.5L94.0,67.5L93.9,67.5L93.8,67.4L93.6,67.6L93.3,67.6L93.2,67.6L92.7,67.8L92.4,67.9L92.3,68.0L91.7,68.1Z"/>
    <path class="wtc-county" id="wtc-county-juneau" data-county="Juneau" d="M96.3,68.9L96.3,69.0L96.2,69.1L96.4,69.2L96.5,69.2L96.5,69.2L96.6,69.1L96.7,69.1L96.8,69.1L97.1,69.0L96.8,69.0L96.7,69.0L96.6,69.0L96.6,69.0L96.5,69.0L96.4,69.0L96.3,68.9ZM95.9,68.5L95.9,68.6L96.0,68.6L96.2,68.7L96.2,68.7L96.1,68.6L95.9,68.5ZM96.9,67.9L95.8,67.9L96.0,68.0L95.9,68.1L96.0,68.1L96.0,68.3L95.9,68.3L96.0,68.4L96.2,68.6L96.3,68.7L96.5,68.9L96.6,68.9L96.7,68.9L96.9,69.0L97.0,69.0L97.1,69.0L97.2,69.0L97.2,68.9L97.2,68.9L97.2,68.8L97.3,68.8L97.3,68.7L97.4,68.7L97.4,68.8L97.3,68.9L97.3,68.9L97.2,69.0L97.3,69.2L97.6,69.4L97.8,69.6L97.8,69.6L97.9,69.5L98.0,69.5L98.6,69.0L98.3,68.9L98.1,68.7L98.3,68.6L98.0,68.5L97.8,68.4L97.6,68.2L97.0,68.0L96.9,67.9L96.9,67.9Z"/>
    <path class="wtc-county" id="wtc-county-kenai-peninsula" data-county="Kenai Peninsula" d="M73.2,67.3L73.2,67.4L73.3,67.4L73.4,67.3L73.4,67.2L73.3,67.2L73.2,67.3ZM72.1,67.6L72.2,67.7L72.2,67.6L72.1,67.6ZM71.8,67.6L71.8,67.7L71.9,67.7L71.9,67.6L71.8,67.6ZM71.6,67.6L71.7,67.6L71.7,67.6L71.6,67.6ZM75.7,65.2L75.6,65.1L75.2,65.1L74.9,65.0L74.8,65.0L74.6,65.0L74.5,65.0L74.3,65.1L74.2,65.1L74.0,65.1L73.7,64.9L73.3,65.0L72.8,65.2L72.5,65.3L72.5,65.3L72.3,65.3L72.4,65.5L72.5,65.6L72.4,65.6L72.4,65.8L72.3,65.9L72.3,65.9L72.2,66.1L72.1,66.2L72.0,66.2L71.8,66.3L71.8,66.5L71.7,66.6L71.6,66.7L71.6,66.8L71.7,66.8L71.9,66.9L72.1,66.9L72.2,66.9L72.4,66.8L72.7,66.7L72.8,66.7L72.9,66.7L72.7,66.8L72.7,66.9L72.6,66.9L72.6,67.0L72.5,67.0L72.3,67.0L72.1,67.1L72.1,67.1L71.9,67.1L71.8,67.2L71.7,67.2L71.6,67.2L71.5,67.3L71.5,67.3L71.4,67.4L71.4,67.5L71.5,67.5L71.5,67.5L71.6,67.5L71.8,67.5L71.8,67.6L72.0,67.6L72.0,67.5L72.1,67.5L72.1,67.5L72.2,67.5L72.3,67.4L72.3,67.5L72.4,67.5L72.5,67.5L72.6,67.5L72.7,67.5L72.7,67.4L72.8,67.4L72.8,67.4L72.8,67.5L72.9,67.5L73.0,67.4L73.0,67.4L73.1,67.3L73.2,67.3L73.2,67.2L73.4,67.2L73.4,67.1L73.4,67.0L73.4,67.0L73.5,67.0L73.5,67.1L73.6,67.2L73.7,67.0L73.8,66.9L73.8,67.0L73.7,67.2L73.7,67.3L73.7,67.3L73.8,67.2L73.9,67.2L73.9,67.2L74.0,67.0L74.4,66.9L74.4,66.8L74.3,66.7L74.3,66.7L74.4,66.7L74.5,66.8L74.5,66.8L74.7,66.9L74.7,66.8L74.7,66.6L74.7,66.5L74.7,66.5L74.8,66.5L74.8,66.6L74.8,66.6L74.8,66.8L75.0,66.8L75.0,66.7L74.9,66.7L74.9,66.6L74.9,66.6L74.9,66.5L75.0,66.5L75.1,66.5L75.1,66.4L75.2,66.4L75.1,66.3L75.1,66.2L75.1,66.2L75.2,66.2L75.3,66.4L75.2,66.5L75.1,66.6L75.2,66.6L75.3,66.6L75.5,66.3L75.6,66.3L75.7,66.3L75.6,66.4L75.6,66.4L75.7,66.4L75.9,66.4L75.9,66.5L76.1,66.4L76.3,66.5L76.3,66.5L76.4,66.2L76.4,65.8L76.2,65.8L76.2,65.7L76.2,65.3L76.1,65.3L75.7,65.3L75.7,65.2ZM71.3,65.9L71.5,65.8L71.4,65.8L71.5,65.8L71.6,65.7L71.5,65.6L71.4,65.8L71.3,65.9ZM70.5,66.1L70.6,66.2L70.6,66.1L70.5,66.1ZM69.2,67.3L69.1,67.3L69.2,67.4L69.4,67.4L69.4,67.3L69.5,67.3L69.4,67.2L69.2,67.3ZM69.3,65.1L69.3,65.2L69.4,65.2L69.4,65.7L69.2,65.7L69.2,66.2L69.0,66.2L69.0,66.7L68.8,66.7L68.8,66.8L68.6,66.8L68.6,67.1L68.3,67.1L68.3,67.2L67.9,67.2L67.9,67.4L67.4,67.4L67.4,67.7L67.5,67.7L67.5,68.2L67.6,68.2L67.6,68.3L68.1,68.3L68.8,68.3L68.8,68.2L69.0,68.2L69.0,68.0L69.6,68.0L69.5,68.0L69.5,67.9L69.4,67.9L69.3,67.8L69.2,67.8L69.1,67.8L69.0,67.7L68.9,67.7L68.8,67.7L68.7,67.7L68.4,67.7L68.3,67.8L68.2,67.7L68.3,67.6L68.1,67.6L68.3,67.6L68.3,67.5L68.3,67.4L68.4,67.4L68.5,67.3L68.4,67.3L68.3,67.3L68.5,67.2L68.6,67.3L68.7,67.2L68.8,67.2L68.9,67.2L69.0,67.2L68.9,67.0L69.1,67.0L69.2,67.0L69.1,66.9L69.1,66.9L69.2,66.9L69.3,66.9L69.3,66.8L69.3,66.7L69.4,66.8L69.4,66.9L69.4,66.9L69.5,66.9L69.5,66.9L69.5,66.9L69.7,66.9L69.8,66.8L69.9,66.8L70.0,66.7L69.9,66.6L69.8,66.6L69.8,66.7L69.7,66.6L69.6,66.6L69.7,66.6L69.8,66.6L70.0,66.5L70.0,66.6L70.2,66.6L70.3,66.5L70.4,66.5L70.4,66.4L70.5,66.4L70.6,66.3L70.5,66.2L70.4,66.2L70.4,66.1L70.3,66.1L70.3,66.0L70.5,66.0L70.5,66.1L70.6,66.1L70.7,66.0L70.8,66.0L70.9,65.9L71.1,65.8L71.0,65.8L70.9,65.7L71.0,65.6L71.1,65.6L71.3,65.5L71.4,65.4L71.5,65.3L71.6,65.3L71.8,65.3L71.8,65.3L71.7,65.2L71.7,65.1L72.0,65.0L72.2,64.9L72.3,64.9L72.4,64.9L72.6,64.9L72.8,64.7L72.9,64.7L72.9,64.6L72.4,64.6L72.4,64.3L71.2,64.3L70.0,64.3L69.3,64.3L69.3,64.7L69.3,64.7L69.3,65.1Z"/>
    <path class="wtc-county" id="wtc-county-ketchikan-gateway" data-county="Ketchikan Gateway" d="M101.4,73.5L101.3,73.5L101.4,73.5L101.5,73.5L101.4,73.4L101.4,73.5ZM101.0,73.7L101.0,73.7L101.2,73.8L101.3,73.8L101.4,73.7L101.4,73.7L101.3,73.6L101.0,73.7ZM100.8,73.7L100.8,73.7L101.0,73.6L100.9,73.6L100.8,73.7ZM100.4,73.1L100.5,73.2L100.5,73.3L100.6,73.4L100.7,73.3L100.7,73.2L100.8,73.1L100.5,73.0L100.5,73.0L100.4,73.1ZM100.0,72.7L100.0,72.8L100.2,72.8L100.3,72.9L100.3,72.8L100.3,72.7L100.4,72.7L100.5,72.6L100.5,72.6L100.6,72.4L100.6,72.4L100.5,72.4L100.5,72.3L100.7,72.3L100.7,72.4L100.7,72.4L100.8,72.5L100.8,72.5L100.6,72.5L100.7,72.6L100.7,72.7L100.8,72.7L100.6,72.8L100.5,72.8L100.5,72.9L100.6,73.0L100.7,73.1L100.8,73.1L100.9,73.2L101.0,73.1L101.1,73.2L101.1,73.2L101.3,73.2L101.3,73.1L101.3,73.0L101.4,73.0L101.4,73.1L101.4,73.2L101.3,73.3L101.4,73.3L101.5,73.3L101.7,73.2L101.7,73.1L101.7,73.0L101.7,73.0L101.8,73.1L101.8,73.1L101.7,73.0L101.7,72.9L101.7,72.8L101.8,72.8L101.8,72.6L101.6,72.5L101.6,72.4L101.5,72.3L101.4,72.2L101.4,72.2L101.5,72.2L101.6,72.3L101.8,72.5L101.8,72.6L101.9,72.8L101.8,73.0L101.9,73.1L101.9,73.2L101.8,73.2L101.7,73.2L101.6,73.3L101.6,73.4L101.7,73.5L101.7,73.5L101.7,73.6L101.8,73.6L101.8,73.7L101.8,73.8L101.8,73.9L101.9,73.9L102.0,73.9L102.0,73.8L102.1,73.9L102.1,73.9L102.1,74.0L102.2,74.0L102.2,73.9L102.3,73.9L102.5,73.8L102.7,73.7L102.8,73.6L102.9,73.5L102.9,73.5L103.0,73.3L103.2,73.2L103.1,73.1L103.1,72.9L103.0,72.9L103.0,72.8L103.0,72.6L102.9,72.6L102.9,72.5L102.7,72.4L102.7,72.3L102.6,72.2L102.7,72.2L102.7,72.1L102.8,72.1L102.7,72.1L102.8,72.0L102.6,72.0L102.5,71.9L102.5,71.8L102.2,71.8L102.0,71.6L101.6,71.6L101.5,71.7L101.6,71.7L101.7,71.8L101.6,71.9L101.3,71.9L101.3,71.8L101.2,71.9L101.1,72.0L101.2,72.0L101.1,72.1L101.0,72.1L100.8,72.0L100.7,72.0L100.7,72.1L100.5,72.1L100.4,72.2L100.4,72.2L100.4,72.3L100.4,72.3L100.2,72.4L100.3,72.4L100.3,72.5L100.3,72.6L100.1,72.6L100.1,72.6L100.0,72.7Z"/>
    <path class="wtc-county" id="wtc-county-kodiak-island" data-county="Kodiak Island" d="M71.6,68.9L71.6,69.0L71.7,69.0L71.7,68.9L71.6,68.9L71.6,68.9ZM71.3,67.9L71.3,67.9L71.5,67.9L71.4,67.9L71.3,67.9ZM70.9,67.9L71.0,68.0L71.2,67.9L71.1,67.9L71.0,67.9L70.9,67.9ZM69.4,69.2L69.4,69.2L69.5,69.2L70.0,69.3L70.2,69.3L70.3,69.2L70.3,69.2L70.5,69.2L70.5,69.1L70.5,69.0L70.6,69.0L70.6,69.1L70.6,69.1L70.7,69.1L70.9,69.1L71.0,69.1L71.0,68.9L71.1,68.9L71.1,69.0L71.3,69.0L71.4,68.9L71.5,68.8L71.4,68.8L71.3,68.8L71.2,68.9L71.2,68.9L71.3,68.7L71.2,68.7L71.1,68.7L71.0,68.7L70.9,68.7L70.9,68.7L70.7,68.7L70.7,68.6L70.8,68.5L70.9,68.5L70.9,68.3L70.9,68.3L70.6,68.4L70.6,68.4L70.4,68.4L70.5,68.5L70.5,68.6L70.3,68.6L70.2,68.7L70.1,68.7L70.2,68.7L70.3,68.7L70.2,68.8L70.1,68.8L70.1,68.8L70.1,68.9L70.0,68.9L69.9,68.8L69.8,68.9L70.0,69.0L69.9,69.0L69.7,68.9L69.7,69.0L69.6,69.0L69.7,69.1L69.7,69.1L69.6,69.1L69.5,69.1L69.4,69.2ZM68.3,71.1L68.3,71.2L68.5,71.2L68.5,71.1L68.3,71.1ZM68.0,71.4L68.0,71.4L68.2,71.4L68.3,71.4L68.6,71.4L68.7,71.4L68.7,71.3L68.5,71.4L68.4,71.3L68.4,71.3L68.3,71.3L68.2,71.3L68.1,71.3L68.0,71.4ZM67.4,70.2L67.4,70.2L67.4,70.3L67.4,70.3L67.5,70.3L67.6,70.3L67.7,70.4L67.8,70.5L67.8,70.6L67.8,70.7L67.9,70.7L68.1,70.8L68.1,70.9L68.2,70.9L68.2,70.8L68.3,70.8L68.4,70.7L68.5,70.6L68.7,70.5L68.8,70.5L68.8,70.5L68.7,70.6L68.6,70.7L68.6,70.8L68.7,70.7L68.7,70.8L68.6,70.8L68.5,70.9L68.4,70.9L68.3,71.1L68.5,71.0L68.6,71.1L68.7,71.0L68.8,70.9L68.8,70.9L69.0,70.9L69.0,70.8L69.1,70.8L69.2,70.7L69.1,70.6L69.0,70.6L69.0,70.6L69.1,70.6L69.2,70.6L69.3,70.6L69.4,70.4L69.5,70.4L69.6,70.5L69.4,70.5L69.4,70.6L69.5,70.7L69.5,70.7L69.5,70.7L69.7,70.7L69.7,70.6L69.8,70.6L69.8,70.6L70.0,70.5L70.1,70.5L70.2,70.5L70.0,70.4L69.9,70.4L69.8,70.5L69.7,70.4L69.7,70.4L69.9,70.4L70.0,70.3L69.9,70.3L69.8,70.3L69.9,70.2L70.0,70.2L70.1,70.2L70.1,70.3L70.2,70.3L70.3,70.3L70.4,70.3L70.5,70.2L70.5,70.2L70.3,70.0L70.2,70.0L70.1,70.0L70.1,70.0L70.3,70.0L70.3,70.0L70.5,70.0L70.5,70.0L70.7,70.1L70.7,70.0L70.7,70.1L70.9,70.1L71.0,70.0L71.2,69.9L71.2,69.8L70.9,69.8L70.9,69.8L70.9,69.8L70.7,69.8L70.9,69.7L70.7,69.7L70.8,69.7L70.7,69.6L70.8,69.6L70.9,69.6L71.0,69.6L71.1,69.6L71.0,69.6L70.9,69.5L70.8,69.5L70.8,69.5L70.7,69.4L70.8,69.4L70.9,69.4L70.9,69.4L70.8,69.4L70.8,69.3L70.7,69.3L70.6,69.4L70.6,69.4L70.5,69.4L70.5,69.4L70.4,69.5L70.3,69.5L70.3,69.5L70.2,69.5L70.2,69.6L70.1,69.6L70.1,69.5L70.3,69.4L70.4,69.3L70.2,69.3L70.1,69.4L69.9,69.3L69.8,69.3L69.6,69.3L69.5,69.3L69.6,69.3L69.7,69.4L69.8,69.5L69.8,69.5L69.6,69.4L69.6,69.4L69.3,69.3L69.2,69.3L69.2,69.4L69.3,69.4L69.5,69.5L69.5,69.5L69.3,69.5L69.3,69.6L69.3,69.7L69.2,69.7L69.1,69.5L69.0,69.4L68.9,69.4L68.8,69.5L68.6,69.5L68.6,69.7L68.7,69.7L69.0,69.7L69.0,69.8L68.7,69.8L68.7,69.8L68.8,69.9L68.7,69.9L68.7,70.0L68.5,69.9L68.5,69.8L68.4,69.8L68.2,69.7L68.0,69.8L67.8,69.9L67.8,69.9L67.7,69.9L67.6,70.0L67.5,70.1L67.5,70.2L67.4,70.2ZM67.4,71.5L67.5,71.6L67.6,71.5L67.9,71.4L68.0,71.3L67.9,71.3L67.8,71.3L67.5,71.4L67.4,71.5ZM66.0,72.4L66.0,72.5L66.2,72.5L66.3,72.4L66.2,72.4L66.3,72.3L66.2,72.3L66.2,72.3L66.1,72.3L66.0,72.4ZM64.6,72.1L64.7,72.2L64.7,72.1L64.7,72.0L64.6,72.0L64.6,72.1ZM68.1,68.3L68.1,68.6L68.0,68.6L68.0,68.7L67.9,68.7L67.8,68.7L67.7,68.7L67.7,68.8L67.5,68.8L67.5,68.8L67.3,68.8L67.3,68.8L67.1,68.8L67.1,68.9L67.0,68.9L67.0,68.9L66.8,68.9L66.8,69.0L66.6,69.0L66.6,69.1L66.7,69.1L66.7,69.2L66.6,69.2L66.6,69.4L66.4,69.4L66.4,69.5L66.3,69.5L66.3,69.5L66.1,69.6L66.1,69.6L66.0,69.6L66.0,69.7L65.8,69.7L65.8,69.8L65.9,69.8L65.9,69.8L65.8,69.8L65.8,69.9L65.7,69.9L65.7,69.8L65.5,69.9L65.5,69.9L65.4,69.9L65.4,70.0L65.3,70.0L65.1,70.0L65.1,70.0L65.0,70.0L65.0,70.1L64.9,70.1L64.9,70.2L64.8,70.2L64.9,70.2L64.7,70.2L64.7,70.3L64.7,70.3L64.7,70.4L64.6,70.4L64.6,70.5L65.0,70.5L65.1,70.5L65.2,70.4L65.1,70.4L65.1,70.4L65.1,70.3L65.2,70.3L65.1,70.2L64.9,70.3L64.8,70.3L64.9,70.2L64.9,70.2L65.1,70.1L65.3,70.1L65.3,70.0L65.4,70.0L65.5,70.1L65.6,70.1L65.6,70.0L65.6,69.9L65.7,69.9L66.0,69.9L66.0,69.8L66.2,69.8L66.2,69.7L66.2,69.6L66.3,69.6L66.3,69.6L66.5,69.7L66.6,69.7L66.7,69.6L66.6,69.6L66.6,69.5L66.7,69.5L66.9,69.5L67.0,69.4L66.9,69.3L67.1,69.2L67.2,69.2L67.4,69.3L67.5,69.2L67.5,69.2L67.6,69.2L67.6,69.2L67.7,69.2L67.7,69.2L67.9,69.2L67.9,69.1L67.8,69.1L67.9,69.0L68.0,69.1L68.1,69.1L68.2,69.1L68.2,69.0L68.2,69.0L68.3,69.0L68.4,68.9L68.3,68.8L68.3,68.7L68.4,68.8L68.5,68.7L68.5,68.7L68.4,68.6L68.4,68.6L68.6,68.6L68.6,68.5L68.7,68.4L68.7,68.4L69.0,68.4L69.1,68.3L69.2,68.3L69.3,68.2L69.4,68.2L69.5,68.0L69.6,68.0L69.0,68.0L69.0,68.2L68.8,68.2L68.8,68.3L68.1,68.3ZM64.5,71.9L64.5,71.9L64.5,71.9L64.5,71.8L64.5,71.9Z"/>
    <path class="wtc-county" id="wtc-county-kusilvak" data-county="Kusilvak" d="M56.1,61.7L56.0,61.7L55.8,61.8L55.8,61.8L55.5,62.0L55.1,62.0L54.8,61.9L54.8,61.9L54.6,61.8L54.5,61.7L54.3,61.7L54.0,61.7L53.8,61.7L53.5,61.7L53.2,61.9L53.2,61.9L53.3,62.0L53.1,62.0L53.0,62.1L52.8,62.4L52.9,62.5L52.8,62.5L52.7,62.5L52.6,62.6L52.5,62.7L52.5,62.7L52.4,62.8L52.2,62.9L52.2,62.9L51.7,63.3L51.6,63.4L51.6,63.5L51.6,63.5L51.7,63.7L51.6,63.7L51.3,63.7L51.1,63.8L51.1,63.8L51.2,63.9L51.3,63.9L51.5,63.9L51.5,64.0L51.0,64.0L51.0,63.9L51.0,63.9L50.9,64.1L51.0,64.2L51.1,64.2L51.1,64.2L51.3,64.1L51.5,64.2L51.6,64.2L51.5,64.3L51.3,64.3L51.4,64.5L51.5,64.5L51.7,64.5L51.8,64.5L51.8,64.7L51.8,64.8L51.9,64.8L52.1,64.8L52.1,64.8L52.2,64.7L52.2,64.7L52.3,64.7L52.4,64.7L52.4,64.8L52.5,64.8L52.6,64.9L52.7,64.8L52.7,64.9L52.6,64.9L52.5,64.9L52.4,65.0L52.5,65.0L52.7,65.0L52.7,65.0L52.9,65.0L53.2,65.0L53.2,65.0L53.3,65.0L53.5,65.0L53.7,65.0L53.9,64.9L53.9,64.8L53.8,64.8L53.8,64.8L53.8,64.7L53.9,64.8L54.1,64.7L54.2,64.6L54.2,64.6L54.1,64.6L54.1,64.5L54.1,64.5L54.1,64.4L54.4,64.4L54.6,64.4L54.8,64.4L54.8,64.4L54.9,64.3L54.8,64.3L54.9,64.3L55.0,64.2L55.1,64.3L55.3,64.3L55.4,64.2L55.7,64.2L55.9,64.2L55.9,64.2L56.2,64.1L56.3,64.2L56.3,64.2L56.4,64.2L56.5,64.2L56.8,64.2L57.0,64.2L57.1,64.2L57.4,64.2L57.6,64.2L57.8,64.1L58.2,64.1L58.4,64.0L58.6,63.9L58.8,63.9L59.0,63.8L59.2,63.8L59.4,63.8L59.6,63.8L59.6,63.7L59.5,63.7L59.4,63.7L59.2,63.7L59.1,63.6L58.5,63.6L58.5,63.2L58.4,63.2L58.4,62.7L58.4,62.7L58.4,62.2L58.5,62.2L58.5,62.1L58.6,62.0L57.0,62.0L57.0,61.9L56.7,61.9L56.7,61.8L56.4,61.8L56.4,61.7L56.1,61.7Z"/>
    <path class="wtc-county" id="wtc-county-lake-and-peninsula" data-county="Lake and Peninsula" d="M63.7,71.4L63.7,71.4L63.9,71.4L64.0,71.3L64.2,71.4L64.1,71.3L63.8,71.3L63.7,71.4ZM62.9,71.6L63.0,71.7L63.0,71.7L63.0,71.6L62.9,71.6ZM61.5,72.4L61.6,72.4L61.7,72.4L61.7,72.4L61.6,72.3L61.5,72.3L61.5,72.4ZM61.1,72.3L61.0,72.4L61.2,72.4L61.1,72.3ZM60.8,72.5L60.9,72.5L60.8,72.4L60.8,72.4L60.8,72.5ZM61.5,71.0L61.5,71.1L61.2,71.1L61.2,71.2L60.9,71.2L60.9,71.3L60.5,71.3L60.5,71.4L60.0,71.4L60.0,71.7L60.1,71.7L60.1,72.2L60.1,72.2L60.1,72.3L60.5,72.3L60.5,72.7L60.5,72.6L60.5,72.6L60.6,72.5L60.6,72.4L60.5,72.3L60.7,72.3L60.6,72.4L60.7,72.5L60.7,72.4L60.8,72.3L60.9,72.3L61.3,72.3L61.4,72.2L61.5,72.1L61.7,72.1L61.7,72.2L61.8,72.2L61.8,72.1L61.8,72.0L61.9,72.0L61.9,72.1L62.0,72.2L62.0,72.1L62.1,72.1L62.1,72.2L62.1,72.1L62.1,72.0L62.1,72.0L62.2,72.1L62.2,72.0L62.3,71.9L62.6,71.8L62.5,71.8L62.4,71.8L62.3,71.8L62.3,71.8L62.4,71.8L62.5,71.7L62.3,71.7L62.0,71.7L62.0,71.6L62.2,71.5L62.3,71.4L62.4,71.5L62.6,71.5L62.6,71.4L62.7,71.4L62.9,71.5L63.0,71.4L63.0,71.3L62.9,71.3L62.7,71.3L62.6,71.3L62.7,71.3L62.8,71.3L62.9,71.2L63.1,71.2L63.2,71.3L63.3,71.2L63.5,71.2L63.5,71.2L63.4,71.2L63.4,71.1L63.4,71.0L63.6,71.0L63.6,71.0L63.5,71.0L63.5,70.9L63.6,70.9L63.8,71.0L63.9,71.0L64.0,71.0L64.0,70.9L64.1,70.9L64.1,70.9L64.3,70.8L64.3,70.8L64.4,70.8L64.5,70.8L64.5,70.7L64.7,70.7L64.8,70.7L64.8,70.7L64.9,70.6L65.0,70.6L65.0,70.5L65.1,70.5L65.0,70.5L64.6,70.5L64.6,70.4L64.7,70.4L64.7,70.3L64.7,70.3L64.7,70.2L64.9,70.2L64.8,70.2L64.9,70.2L64.9,70.1L65.0,70.1L65.0,70.0L65.1,70.0L65.1,70.0L65.3,70.0L65.4,70.0L65.4,69.9L65.5,69.9L65.5,69.9L65.7,69.8L65.7,69.9L65.8,69.9L65.8,69.8L65.9,69.8L65.9,69.8L65.8,69.8L65.8,69.7L66.0,69.7L66.0,69.6L66.1,69.6L66.1,69.6L66.3,69.5L66.3,69.5L66.4,69.5L66.4,69.4L66.6,69.4L66.6,69.2L66.7,69.2L66.7,69.1L66.6,69.1L66.6,69.0L66.8,69.0L66.8,68.9L67.0,68.9L67.0,68.9L67.1,68.9L67.1,68.8L67.3,68.8L67.3,68.8L67.5,68.8L67.5,68.8L67.7,68.8L67.7,68.7L67.8,68.7L67.9,68.7L68.0,68.7L68.0,68.6L68.1,68.6L68.1,68.3L67.6,68.3L67.6,68.2L67.5,68.2L67.5,67.7L67.4,67.7L67.4,67.4L67.9,67.4L67.9,67.2L68.3,67.2L68.3,67.1L68.6,67.1L68.6,66.8L68.8,66.8L68.8,66.7L69.0,66.7L69.0,66.2L69.2,66.2L69.2,65.7L69.4,65.7L69.4,65.2L69.3,65.2L69.3,65.1L68.1,65.1L67.2,65.1L65.6,65.1L65.6,66.8L65.4,66.8L65.4,66.9L64.9,66.9L64.9,67.1L64.7,67.1L64.7,67.2L64.5,67.2L64.5,67.3L64.0,67.3L64.0,67.4L63.8,67.4L63.8,67.7L63.9,67.7L63.9,68.0L64.1,68.0L64.1,67.9L64.2,67.9L64.3,67.9L64.2,67.9L64.2,68.0L65.2,68.0L65.2,68.4L63.8,68.4L63.7,68.5L63.5,68.5L63.4,68.7L63.4,68.8L63.4,68.9L63.6,69.0L63.7,68.9L63.6,69.0L63.4,69.0L63.4,69.1L63.2,69.6L63.2,69.7L63.2,69.8L63.2,69.8L63.3,69.8L63.4,70.0L63.3,70.0L63.3,70.0L63.2,69.9L63.1,69.9L62.9,70.0L62.9,70.0L62.7,70.1L62.6,70.2L62.4,70.2L62.3,70.3L62.2,70.4L62.0,70.5L61.8,70.7L61.7,70.8L61.8,70.9L61.8,70.9L61.8,71.0L61.6,71.0L61.5,71.0Z"/>
    <path class="wtc-county" id="wtc-county-matanuska-susitna" data-county="Matanuska-Susitna" d="M70.0,62.4L70.0,62.5L70.0,63.1L70.0,64.3L71.2,64.3L72.4,64.3L72.4,64.6L72.9,64.6L72.9,64.7L73.3,64.6L73.3,64.5L73.5,64.5L73.6,64.6L74.0,64.6L74.2,64.6L74.3,64.6L74.4,64.6L74.4,64.5L74.5,64.4L74.6,64.4L74.6,64.3L74.8,64.2L75.1,64.3L75.2,64.2L75.4,64.2L75.4,64.3L75.5,64.3L75.5,64.3L76.5,64.3L77.1,64.3L78.3,64.3L78.3,64.3L78.7,64.3L78.7,63.8L78.7,63.8L78.7,63.3L78.6,63.3L78.6,63.1L79.5,63.1L79.4,62.8L79.4,62.3L79.4,62.1L79.3,62.1L79.3,61.8L79.4,61.8L79.4,61.4L78.6,61.4L78.5,61.4L77.1,61.4L77.1,61.6L75.6,61.6L75.0,61.6L73.9,61.8L72.5,62.1L71.6,62.3L71.6,62.4L70.1,62.4L70.0,62.4Z"/>
    <path class="wtc-county" id="wtc-county-nome" data-county="Nome" d="M56.0,61.2L56.0,61.2L56.1,61.3L56.5,61.3L56.5,61.2L56.4,61.1L56.3,61.2L56.2,61.1L56.1,61.2L56.0,61.2ZM53.5,56.9L53.1,56.9L52.4,57.0L51.5,57.2L50.7,57.4L50.5,57.5L50.0,57.6L49.8,57.7L49.6,57.8L49.3,57.9L49.0,58.0L48.4,58.1L48.2,58.2L48.1,58.2L48.2,58.3L48.5,58.4L48.7,58.4L48.9,58.5L49.2,58.6L49.7,58.6L50.1,58.7L50.3,58.7L50.4,58.7L50.5,58.7L50.7,58.8L50.5,58.8L50.5,58.9L50.5,58.9L50.3,59.0L50.3,59.0L50.1,59.0L49.9,59.0L50.0,59.0L50.2,59.1L50.2,59.2L50.4,59.3L50.6,59.3L50.6,59.4L50.5,59.5L50.5,59.5L50.6,59.7L50.9,59.8L51.3,59.8L51.6,59.8L52.1,59.9L52.6,60.0L52.9,60.0L53.5,59.8L53.7,59.8L54.0,59.8L54.1,59.8L54.3,59.8L54.7,59.8L54.9,59.8L55.2,59.9L55.3,60.0L55.4,60.0L55.5,59.9L55.5,59.9L55.4,59.9L55.3,59.8L55.2,59.8L55.1,59.8L55.3,59.7L55.3,59.7L55.5,59.8L55.5,59.8L55.6,59.8L55.7,59.9L55.8,60.0L55.8,60.1L56.1,60.1L56.1,59.9L56.2,59.8L56.6,59.7L56.7,59.6L57.2,59.6L57.5,59.5L57.7,59.5L57.9,59.5L58.0,59.4L58.1,59.3L58.1,59.3L58.3,59.3L58.5,59.4L58.7,59.6L58.7,59.7L58.5,59.8L58.4,59.8L58.4,59.9L58.1,59.9L58.0,59.9L57.9,59.8L57.7,59.9L57.7,60.0L57.8,60.0L58.0,60.0L58.1,60.1L58.5,60.3L58.5,60.3L58.5,60.5L58.6,60.6L58.7,60.7L58.8,60.8L58.8,60.9L58.6,61.1L58.3,61.3L58.2,61.3L58.0,61.4L57.6,61.4L57.4,61.4L57.2,61.4L56.9,61.4L56.9,61.3L56.8,61.3L56.6,61.3L56.5,61.3L56.6,61.3L56.5,61.4L56.4,61.5L56.1,61.7L56.4,61.7L56.4,61.8L56.7,61.8L56.7,61.9L57.0,61.9L57.0,62.0L58.6,62.0L58.6,61.7L58.9,61.7L58.9,61.5L58.9,61.5L58.9,61.3L59.1,61.3L59.1,61.2L59.7,61.2L59.7,61.0L60.0,61.0L60.0,60.9L60.2,60.9L60.2,60.5L59.9,60.5L59.9,60.0L59.9,59.5L60.2,59.5L60.2,59.3L60.5,59.3L60.5,59.0L60.5,58.8L60.8,58.8L60.8,58.4L60.5,58.4L60.2,58.4L60.2,58.5L59.0,58.5L57.8,58.5L56.5,58.5L55.8,58.5L54.4,58.5L54.4,58.3L54.1,58.3L54.1,58.0L53.7,58.0L53.7,57.5L53.6,57.5L53.6,57.0L53.5,57.0L53.5,56.9ZM42.8,61.3L42.8,61.3L42.8,61.4L42.9,61.5L43.2,61.6L43.3,61.6L43.5,61.6L43.6,61.5L43.9,61.4L44.2,61.5L44.6,61.5L44.9,61.6L45.0,61.7L45.1,61.8L45.3,61.8L45.5,61.9L45.7,61.9L45.8,62.1L45.8,62.1L46.0,62.1L46.1,62.1L46.1,62.0L46.1,61.9L46.3,61.8L46.6,61.8L46.8,61.8L47.1,61.8L47.2,61.8L47.3,61.6L46.8,61.6L46.7,61.6L46.3,61.5L46.1,61.5L46.0,61.5L45.9,61.4L45.6,61.4L45.4,61.3L45.4,61.3L45.3,61.2L45.2,61.1L45.0,61.1L44.7,61.0L44.4,61.1L44.1,61.2L43.8,61.2L43.5,61.1L43.1,61.1L43.1,61.0L43.1,61.0L43.0,60.9L42.9,60.9L43.0,61.0L42.9,61.0L42.9,61.1L42.8,61.2L42.8,61.3Z"/>
    <path class="wtc-county" id="wtc-county-north-slope" data-county="North Slope" d="M87.3,54.1L87.3,52.5L87.0,52.4L86.7,52.4L86.5,52.3L86.2,52.3L85.9,52.2L85.4,52.1L85.2,52.1L85.1,52.0L84.8,51.9L84.5,51.8L84.1,51.8L84.0,51.7L83.8,51.8L83.6,51.7L83.1,51.8L83.0,51.8L82.6,51.9L82.5,51.9L82.3,51.9L82.1,52.0L81.7,52.0L81.6,52.0L81.5,52.0L81.3,52.0L81.1,51.9L80.9,51.9L80.8,51.8L80.6,51.8L80.3,51.7L80.2,51.7L79.9,51.7L79.7,51.7L79.3,51.7L79.0,51.7L78.8,51.7L78.6,51.7L78.4,51.7L78.3,51.6L78.1,51.7L77.9,51.7L77.6,51.7L77.5,51.6L77.4,51.6L77.0,51.5L76.9,51.5L76.9,51.4L76.7,51.5L76.5,51.5L76.5,51.4L76.3,51.3L76.2,51.3L76.0,51.4L75.9,51.3L75.8,51.3L75.5,51.3L75.1,51.2L75.1,51.2L74.9,51.2L74.8,51.2L74.6,51.2L74.5,51.2L74.2,51.3L74.0,51.3L73.8,51.4L73.7,51.3L73.5,51.3L73.3,51.3L73.3,51.3L73.2,51.3L72.9,51.3L72.6,51.4L72.5,51.4L72.4,51.4L72.0,51.3L71.6,51.3L71.5,51.3L71.5,51.3L71.8,51.2L71.8,51.2L71.8,51.2L71.7,51.2L71.3,51.1L71.3,51.1L71.0,51.1L70.9,51.1L70.8,51.1L70.7,51.0L70.9,50.9L71.0,50.8L71.1,50.8L71.1,50.8L70.9,50.7L70.5,50.7L70.1,50.7L69.9,50.6L69.6,50.6L69.3,50.7L68.7,50.7L68.5,50.8L68.3,50.8L68.2,50.8L68.0,50.7L67.7,50.8L67.7,50.7L67.6,50.6L67.7,50.5L67.6,50.5L67.4,50.4L67.0,50.3L67.0,50.3L67.0,50.4L66.9,50.3L66.7,50.4L66.8,50.5L66.8,50.5L66.7,50.5L66.6,50.5L66.4,50.6L66.3,50.6L66.4,50.7L66.1,50.8L65.7,50.7L65.7,50.6L65.9,50.6L66.1,50.5L66.3,50.4L66.3,50.3L65.8,50.2L65.6,50.3L65.5,50.2L65.3,50.1L65.1,50.1L64.9,50.1L64.8,50.0L64.5,50.1L64.0,50.3L63.8,50.4L63.5,50.6L63.1,50.7L62.7,50.8L62.4,50.8L62.2,50.8L62.2,50.8L61.8,50.8L61.4,50.8L61.1,50.7L61.1,50.7L60.5,50.8L60.4,50.8L59.8,51.0L59.6,51.1L59.2,51.3L58.7,51.4L58.4,51.5L58.0,51.5L57.7,51.5L57.2,51.5L56.5,51.7L56.3,51.8L56.0,52.0L55.5,52.2L55.3,52.5L55.3,52.7L55.3,52.8L55.2,53.0L54.8,53.2L54.5,53.3L54.3,53.3L54.1,53.4L53.7,53.5L53.3,53.5L52.9,53.5L52.2,53.6L51.8,53.6L50.9,53.6L50.9,53.7L50.9,54.0L50.8,54.1L50.8,54.2L50.7,54.2L50.2,54.3L50.0,54.3L50.2,54.3L50.6,54.4L50.9,54.4L51.1,54.5L51.2,54.6L51.4,54.7L51.7,54.7L52.1,54.8L53.4,54.8L53.4,54.5L54.6,54.5L55.9,54.5L55.9,54.4L56.9,54.4L56.9,54.5L57.6,54.5L57.6,54.4L58.3,54.4L58.3,54.5L59.6,54.5L59.6,54.4L60.3,54.4L60.3,54.5L61.4,54.5L62.5,54.5L64.0,54.5L64.0,54.7L65.3,54.7L65.3,54.8L66.6,54.8L66.6,54.8L68.0,54.8L69.4,54.8L70.6,54.8L71.9,54.8L73.1,54.8L74.3,54.8L75.5,54.8L76.4,54.8L77.5,54.8L78.5,54.8L80.1,54.8L80.1,54.1L81.0,54.1L82.0,54.1L83.4,54.1L84.4,54.1L85.5,54.1L87.3,54.1Z"/>
    <path class="wtc-county" id="wtc-county-northwest-arctic" data-county="Northwest Arctic" d="M52.1,54.8L52.2,54.8L52.5,54.9L52.6,54.9L53.3,55.2L53.8,55.4L54.0,55.4L54.1,55.5L54.4,55.8L54.5,56.0L54.5,56.1L54.6,56.1L54.8,56.2L55.1,56.2L55.6,56.2L55.8,56.3L55.8,56.2L55.9,56.3L56.0,56.2L56.1,56.3L56.3,56.3L56.5,56.3L56.6,56.3L56.8,56.2L57.3,56.2L57.4,56.3L57.5,56.3L57.7,56.3L57.7,56.4L57.6,56.4L57.5,56.3L57.3,56.4L57.3,56.5L57.2,56.5L57.2,56.6L57.2,56.7L57.4,56.8L57.7,56.9L57.8,57.0L58.0,57.0L58.0,57.0L57.8,57.1L57.6,57.1L57.3,57.0L57.0,56.9L56.9,56.8L56.9,56.7L57.0,56.6L56.8,56.6L56.7,56.5L56.5,56.4L56.4,56.4L56.3,56.3L56.3,56.4L56.1,56.4L56.1,56.5L56.2,56.6L56.3,56.7L56.6,56.7L56.7,56.7L56.8,56.8L57.2,57.0L57.2,57.1L57.1,57.2L57.4,57.2L57.7,57.1L57.9,57.2L58.3,57.2L58.4,57.4L58.3,57.4L58.1,57.4L58.0,57.4L57.9,57.4L57.7,57.3L57.6,57.4L57.4,57.6L57.3,57.6L57.2,57.7L56.8,57.6L56.7,57.6L56.4,57.7L56.3,57.6L56.1,57.7L55.9,57.6L55.5,57.6L55.3,57.6L55.0,57.6L54.8,57.6L54.6,57.6L54.4,57.6L54.2,57.4L54.0,57.5L54.0,57.4L54.2,57.4L54.3,57.3L54.3,57.2L54.3,57.2L54.4,57.1L54.5,57.0L54.5,56.9L54.7,56.9L54.5,56.9L54.2,56.9L53.5,56.9L53.5,57.0L53.6,57.0L53.6,57.5L53.7,57.5L53.7,58.0L54.1,58.0L54.1,58.3L54.4,58.3L54.4,58.5L55.8,58.5L56.5,58.5L57.8,58.5L59.0,58.5L60.2,58.5L60.2,58.4L60.5,58.4L60.5,58.0L60.4,58.0L60.4,57.8L61.3,57.8L61.3,57.5L62.9,57.5L62.9,57.0L64.1,57.0L64.1,57.3L64.7,57.3L64.7,57.0L65.4,57.0L65.4,57.2L65.7,57.2L65.7,57.3L66.3,57.3L66.3,57.0L66.3,57.0L66.3,56.9L67.3,56.9L67.3,56.7L68.2,56.7L68.2,56.5L68.3,56.5L68.3,56.0L68.1,56.0L68.1,55.9L67.4,55.9L67.4,55.5L67.5,55.5L67.5,55.4L67.2,55.4L67.2,55.3L66.9,55.3L66.9,55.2L66.5,55.2L66.5,55.0L66.6,55.0L66.6,54.8L66.6,54.8L65.3,54.8L65.3,54.7L64.0,54.7L64.0,54.5L62.5,54.5L61.4,54.5L60.3,54.5L60.3,54.4L59.6,54.4L59.6,54.5L58.3,54.5L58.3,54.4L57.6,54.4L57.6,54.5L56.9,54.5L56.9,54.4L55.9,54.4L55.9,54.5L54.6,54.5L53.4,54.5L53.4,54.8L52.1,54.8Z"/>
    <path class="wtc-county" id="wtc-county-petersburg" data-county="Petersburg" d="M98.3,70.7L98.4,70.8L98.3,70.9L98.1,70.9L98.1,70.9L98.1,71.0L98.1,71.1L98.0,71.0L98.1,71.1L98.1,71.2L98.2,71.2L98.2,71.3L98.2,71.3L98.2,71.4L98.2,71.4L98.3,71.5L98.5,71.5L98.6,71.4L98.6,71.4L98.8,71.4L99.0,71.4L99.1,71.4L99.2,71.4L99.3,71.4L99.5,71.3L99.4,71.3L99.4,71.2L99.2,71.1L99.2,71.1L99.1,71.0L99.0,71.0L98.9,71.0L98.9,70.9L98.8,70.8L98.7,70.7L98.3,70.7ZM98.0,69.6L98.3,69.7L98.5,69.8L98.6,69.8L98.6,69.9L98.2,69.7L98.1,69.7L98.0,69.7L97.9,69.7L97.8,69.8L97.9,69.9L98.0,69.9L98.1,69.9L98.1,70.0L98.1,70.1L98.1,70.2L98.3,70.2L98.4,70.2L98.4,70.3L98.2,70.3L98.1,70.3L98.0,70.4L98.1,70.4L98.3,70.5L98.5,70.5L98.5,70.6L98.7,70.6L98.8,70.7L98.8,70.6L98.9,70.6L99.0,70.6L99.1,70.7L98.9,70.7L99.0,70.8L99.1,70.9L99.1,70.9L99.3,71.0L99.5,71.1L99.5,71.1L99.6,71.1L99.6,71.0L99.8,71.0L99.8,71.0L99.9,70.9L99.9,70.9L100.1,70.9L100.2,70.6L99.7,70.6L99.9,70.4L99.7,70.2L99.5,70.0L99.3,69.8L99.3,69.9L99.2,69.9L99.1,69.9L99.0,69.8L99.0,69.8L99.0,69.7L99.0,69.7L98.9,69.6L98.8,69.7L98.7,69.6L98.7,69.7L98.5,69.6L98.4,69.6L98.3,69.6L98.2,69.6L98.1,69.5L98.0,69.6Z"/>
    <path class="wtc-county" id="wtc-county-prince-of-wales-hyder" data-county="Prince of Wales-Hyder" d="M102.8,72.0L102.7,72.1L102.8,72.1L102.7,72.1L102.7,72.2L102.6,72.2L102.7,72.3L102.7,72.4L102.9,72.5L103.0,72.4L103.1,72.3L103.1,72.2L103.0,72.0L102.8,72.0ZM100.8,73.5L100.8,73.6L100.9,73.5L101.0,73.6L101.1,73.6L101.2,73.5L101.2,73.3L101.1,73.3L101.0,73.3L101.0,73.2L100.9,73.2L100.8,73.2L100.8,73.2L100.8,73.3L100.9,73.4L100.8,73.4L100.8,73.5L100.8,73.5ZM99.0,73.6L99.0,73.7L99.1,73.6L99.0,73.6ZM98.4,73.0L98.4,73.0L98.5,73.0L98.5,72.9L98.4,73.0ZM98.0,73.8L98.0,73.9L98.1,73.9L98.0,73.8L98.0,73.8ZM97.9,72.7L97.9,72.7L98.0,72.7L98.0,72.6L97.9,72.6L97.9,72.7L97.9,72.7ZM97.8,72.6L97.8,72.6L97.9,72.6L97.8,72.6ZM97.7,72.9L97.7,72.9L97.9,73.0L97.9,73.1L97.8,73.1L97.9,73.2L98.0,73.1L98.1,73.1L98.2,73.0L98.2,73.0L98.1,73.0L98.2,72.9L98.3,72.9L98.4,72.9L98.4,72.8L98.3,72.8L98.2,72.8L98.1,72.8L98.1,72.8L98.0,72.9L97.9,72.9L97.9,72.9L98.0,72.9L98.0,72.8L97.9,72.8L97.8,72.8L97.7,72.8L97.7,72.9ZM97.6,72.2L97.7,72.3L97.8,72.3L97.9,72.3L98.0,72.2L98.1,72.1L98.1,72.1L98.1,72.2L98.1,72.3L98.1,72.3L98.1,72.3L98.2,72.3L98.3,72.3L98.3,72.4L98.2,72.5L98.0,72.4L97.9,72.4L97.8,72.5L97.9,72.5L98.1,72.6L98.1,72.6L98.1,72.5L98.2,72.5L98.2,72.6L98.2,72.6L98.2,72.6L98.2,72.7L98.4,72.8L98.6,72.7L98.5,72.8L98.6,72.9L98.6,72.9L98.7,73.0L98.6,73.1L98.5,73.0L98.4,73.1L98.4,73.1L98.5,73.1L98.4,73.2L98.3,73.1L98.2,73.1L98.1,73.2L98.2,73.3L98.3,73.3L98.3,73.3L98.5,73.3L98.5,73.4L98.6,73.4L98.5,73.5L98.5,73.5L98.6,73.5L98.6,73.6L98.6,73.7L98.9,73.9L99.0,73.9L99.0,74.0L99.1,74.1L99.3,74.1L99.2,73.8L99.2,73.8L99.3,73.9L99.4,73.9L99.3,73.8L99.2,73.7L99.1,73.7L99.1,73.8L99.0,73.7L98.9,73.6L98.8,73.5L98.8,73.5L98.8,73.4L98.7,73.3L98.6,73.2L98.8,73.2L98.8,73.3L98.9,73.3L99.0,73.4L98.9,73.5L98.9,73.5L99.2,73.6L99.3,73.5L99.2,73.4L99.3,73.4L99.4,73.3L99.4,73.3L99.4,73.4L99.3,73.5L99.4,73.4L99.5,73.4L99.4,73.6L99.4,73.6L99.6,73.7L99.7,73.8L99.8,73.8L99.8,73.9L99.6,73.8L99.5,73.9L99.7,73.9L99.7,73.9L99.8,74.0L99.9,74.0L100.0,74.0L100.2,74.0L100.3,73.9L100.3,73.8L100.3,73.5L100.2,73.5L100.1,73.6L100.0,73.6L100.1,73.5L100.2,73.4L100.2,73.4L100.3,73.3L100.3,73.2L100.2,73.2L100.1,73.2L100.1,73.3L100.1,73.3L100.0,73.3L99.9,73.2L100.1,73.2L100.1,73.2L100.1,73.2L100.0,73.1L99.9,73.0L99.9,73.0L99.7,73.0L99.7,73.0L99.9,72.9L99.8,72.9L99.7,72.9L99.7,72.8L99.6,72.9L99.5,72.8L99.4,72.9L99.4,72.9L99.5,72.8L99.5,72.8L99.9,72.9L100.0,72.9L100.1,72.9L100.0,72.9L99.8,72.8L99.8,72.8L99.7,72.7L99.6,72.6L99.6,72.5L99.4,72.3L99.3,72.3L99.0,72.1L99.0,72.1L98.9,72.1L98.8,72.0L98.7,72.0L98.8,71.9L98.7,71.8L98.6,71.7L98.2,71.7L98.0,71.6L97.9,71.7L97.9,71.8L97.8,71.8L98.0,71.9L98.0,72.0L97.9,71.9L97.9,72.0L98.0,72.0L98.0,72.0L97.8,72.0L97.7,72.2L97.6,72.2ZM97.5,72.3L97.5,72.4L97.6,72.4L97.6,72.3L97.6,72.2L97.5,72.2L97.5,72.3ZM96.8,72.3L96.9,72.3L96.9,72.4L97.0,72.4L97.1,72.3L97.2,72.3L97.2,72.2L97.2,72.2L97.2,72.3L97.0,72.3L97.0,72.2L96.8,72.3ZM98.3,70.7L98.2,70.7L97.9,70.6L97.8,70.6L97.5,70.6L97.4,70.6L97.3,70.7L97.5,70.8L97.5,70.8L97.6,70.9L97.7,71.0L97.7,71.0L97.6,71.0L97.5,71.0L97.4,70.9L97.3,70.8L97.2,70.8L97.2,70.8L97.0,70.8L96.9,70.8L96.9,70.9L96.8,70.9L96.8,71.0L96.8,71.1L96.8,71.2L96.9,71.3L96.9,71.3L97.0,71.3L97.1,71.4L97.0,71.5L97.0,71.6L97.0,71.6L96.9,71.7L97.0,71.8L97.0,72.0L97.0,72.0L97.1,72.1L97.2,72.1L97.2,72.0L97.4,72.0L97.4,72.0L97.5,71.9L97.5,71.9L97.5,71.8L97.6,71.7L97.6,71.7L97.6,71.6L97.6,71.6L97.7,71.6L97.7,71.5L97.6,71.4L97.8,71.4L97.8,71.4L97.9,71.5L97.9,71.5L98.1,71.5L98.2,71.5L98.2,71.4L98.2,71.4L98.2,71.3L98.2,71.3L98.2,71.2L98.1,71.2L98.1,71.1L98.0,71.0L98.1,71.1L98.1,71.0L98.1,70.9L98.1,70.9L98.3,70.9L98.4,70.8L98.3,70.7ZM96.5,71.7L96.4,71.7L96.4,71.9L96.5,71.7Z"/>
    <path class="wtc-county" id="wtc-county-sitka" data-county="Sitka" d="M96.5,71.7L96.4,71.5L96.4,71.4L96.5,71.4L96.5,71.2L96.5,71.1L96.4,70.9L96.4,70.8L96.3,70.8L96.3,70.7L96.2,70.3L96.1,70.3L96.0,70.3L96.0,70.2L96.1,70.2L96.2,70.3L96.2,70.2L96.1,70.1L96.0,70.1L95.8,70.1L95.7,70.1L95.6,70.0L95.5,70.0L95.4,69.9L95.3,69.9L95.1,70.0L95.2,70.1L95.1,70.1L94.9,70.2L95.0,70.2L95.1,70.3L95.1,70.4L95.2,70.3L95.4,70.4L95.4,70.4L95.3,70.5L95.3,70.5L95.2,70.6L95.4,70.7L95.4,70.7L95.3,70.8L95.3,70.9L95.3,70.9L95.2,70.9L95.1,70.9L95.2,71.0L95.4,71.0L95.4,71.1L95.5,71.0L95.5,71.1L95.5,71.1L95.6,71.2L95.7,71.2L95.7,71.3L95.9,71.2L96.0,71.3L95.9,71.3L95.8,71.4L96.0,71.6L96.2,71.7L96.2,71.8L96.4,71.9L96.4,71.9L96.4,71.7L96.5,71.7ZM94.7,70.4L94.7,70.4L94.7,70.4L94.7,70.5L94.8,70.5L94.8,70.5L94.7,70.6L94.7,70.7L94.7,70.7L94.9,70.7L95.0,70.7L95.1,70.5L95.3,70.5L95.4,70.4L95.2,70.4L95.1,70.4L95.1,70.4L95.0,70.3L94.8,70.2L94.7,70.2L94.7,70.3L94.7,70.4ZM94.0,69.5L94.0,69.6L94.0,69.6L94.1,69.7L94.1,69.7L94.2,69.8L94.3,69.9L94.3,69.9L94.4,70.0L94.6,70.1L94.6,70.1L94.9,70.2L95.1,70.1L95.1,70.0L95.1,69.9L95.1,69.9L95.2,69.8L95.1,69.8L94.9,69.8L94.9,69.7L95.0,69.8L95.1,69.7L95.2,69.8L95.6,69.9L95.8,70.0L95.9,70.0L96.1,70.0L96.2,70.0L96.1,69.8L96.0,69.7L96.0,69.6L95.9,69.6L95.8,69.6L95.6,69.6L95.5,69.6L95.3,69.5L95.2,69.4L94.9,69.4L94.6,69.3L94.5,69.4L94.5,69.5L94.0,69.5Z"/>
    <path class="wtc-county" id="wtc-county-skagway" data-county="Skagway" d="M95.9,67.3L95.9,67.3L95.8,67.2L95.8,67.2L95.9,67.1L95.9,67.0L95.8,66.9L95.7,66.9L95.6,66.8L95.2,66.7L94.9,66.8L95.4,67.3L95.9,67.3Z"/>
    <path class="wtc-county" id="wtc-county-southeast-fairbanks" data-county="Southeast Fairbanks" d="M78.6,60.2L78.6,61.4L79.4,61.4L79.4,61.8L79.3,61.8L79.6,61.8L79.9,61.8L79.9,61.7L81.3,61.7L81.3,61.9L82.1,61.9L82.1,61.9L82.9,61.9L84.2,61.9L84.2,62.0L84.2,62.0L84.4,62.1L84.3,62.1L84.3,62.1L84.3,62.2L84.1,62.3L84.3,62.4L84.4,62.4L84.2,62.5L84.2,62.5L84.1,62.6L84.2,62.6L84.4,62.6L84.5,62.6L84.5,62.6L84.6,62.6L84.7,62.5L84.8,62.5L84.8,62.5L85.1,62.5L85.4,62.5L85.4,62.6L85.6,62.6L85.6,62.8L85.9,62.8L85.9,63.3L85.8,63.3L85.8,63.3L86.1,63.3L86.1,63.6L87.3,63.6L87.3,58.0L87.1,58.0L86.8,58.1L86.8,58.2L86.7,58.3L86.5,58.3L86.3,58.4L86.2,58.4L86.1,58.5L85.8,58.5L85.7,58.5L85.4,58.5L85.2,58.6L85.2,58.6L85.0,58.6L84.9,58.6L84.9,58.7L84.7,58.7L84.8,58.7L84.8,58.8L84.7,58.9L84.6,58.9L84.5,59.0L84.2,59.0L84.2,59.1L84.1,59.1L84.0,59.1L83.9,59.1L83.9,59.2L83.6,59.2L83.7,59.3L83.7,59.4L83.8,59.4L83.6,59.5L83.6,59.5L83.5,59.6L83.4,59.6L83.3,59.7L82.8,59.6L82.8,59.7L82.7,59.7L82.5,59.7L82.5,59.7L82.3,59.8L82.1,59.7L81.8,59.8L81.7,59.8L81.6,59.8L81.3,59.9L81.0,59.9L81.0,59.9L80.7,60.0L80.5,60.0L80.2,60.0L80.1,60.1L79.9,60.0L79.7,60.1L79.7,60.2L79.6,60.2L79.4,60.2L79.2,60.2L78.6,60.2Z"/>
    <path class="wtc-county" id="wtc-county-valdez-cordova" data-county="Valdez-Cordova" d="M80.6,65.8L80.6,65.9L80.8,65.9L80.7,65.9L80.6,65.8ZM80.0,65.8L80.3,65.9L80.4,65.9L80.4,65.8L80.1,65.8L80.0,65.8ZM78.2,65.1L78.4,65.1L78.5,65.1L78.4,65.1L78.3,65.1L78.2,65.1ZM77.9,65.4L77.9,65.5L78.1,65.5L78.2,65.4L78.1,65.3L77.9,65.3L77.9,65.4ZM77.9,66.0L77.9,66.1L78.1,66.0L78.1,65.9L77.9,66.0L77.9,66.0ZM77.3,66.7L77.4,66.7L77.6,66.7L77.6,66.7L77.7,66.6L77.8,66.6L78.0,66.6L78.1,66.6L77.9,66.5L78.1,66.4L78.1,66.3L78.4,66.1L78.7,66.0L78.7,66.0L78.7,65.9L78.6,66.0L78.5,65.9L78.6,65.9L78.5,65.9L78.5,65.8L78.3,65.9L78.3,66.0L78.3,66.0L78.2,66.1L78.0,66.2L77.8,66.3L77.8,66.3L77.6,66.4L77.6,66.4L77.6,66.4L77.4,66.5L77.5,66.6L77.3,66.6L77.3,66.7L77.3,66.7ZM77.2,66.0L77.3,66.1L77.4,66.1L77.4,66.1L77.5,66.2L77.6,66.0L77.6,66.0L77.7,65.8L77.6,65.8L77.7,65.7L77.7,65.6L77.8,65.6L77.8,65.5L77.6,65.6L77.6,65.7L77.5,65.7L77.5,65.7L77.2,66.0ZM77.1,65.3L77.3,65.4L77.4,65.4L77.3,65.3L77.2,65.3L77.1,65.3ZM76.5,64.3L76.5,64.7L76.5,65.2L76.1,65.2L76.1,65.3L76.2,65.3L76.2,65.7L76.2,65.8L76.4,65.8L76.4,66.2L76.3,66.5L76.4,66.4L76.5,66.5L76.6,66.4L76.6,66.3L76.7,66.2L76.8,66.3L76.7,66.3L76.9,66.4L76.8,66.5L77.0,66.5L77.0,66.4L77.1,66.5L77.3,66.4L77.4,66.4L77.4,66.3L77.3,66.2L77.0,66.0L76.9,66.0L76.7,66.0L76.7,66.0L76.9,65.9L76.9,65.9L77.0,65.9L77.0,66.0L77.1,66.0L77.3,65.7L77.2,65.7L77.2,65.6L77.1,65.5L76.9,65.6L76.8,65.7L76.7,65.7L76.7,65.6L76.8,65.5L77.0,65.5L77.0,65.4L77.0,65.3L77.0,65.3L76.8,65.3L76.7,65.4L76.6,65.4L76.6,65.3L76.5,65.2L76.6,65.2L76.7,65.2L76.8,65.1L76.8,65.1L76.9,65.0L76.9,64.9L76.9,64.8L77.0,64.8L77.0,64.9L77.1,64.9L77.2,64.9L77.2,64.8L77.6,64.6L77.6,64.6L77.5,64.7L77.2,64.8L77.2,64.9L77.0,65.1L77.0,65.2L77.0,65.2L77.1,65.2L77.3,65.2L77.5,65.2L77.6,65.2L77.5,65.1L77.5,65.1L77.7,65.1L77.7,65.2L77.8,65.2L77.8,65.1L77.7,65.0L77.8,64.8L77.9,64.8L77.8,64.9L77.8,65.1L77.9,65.1L77.9,65.0L78.0,65.0L78.0,65.1L78.1,65.1L78.2,65.1L78.2,65.0L78.4,65.0L78.4,65.0L78.4,65.0L78.5,64.9L78.4,64.8L78.4,64.7L78.5,64.7L78.6,64.7L78.5,64.8L78.6,64.8L78.6,65.0L78.5,65.0L78.7,65.0L78.8,65.0L78.9,64.9L79.1,64.8L79.2,64.8L79.6,64.8L79.7,64.8L79.2,64.8L79.1,65.0L79.0,65.0L79.0,65.1L79.1,65.1L79.0,65.1L78.9,65.1L78.9,65.2L79.0,65.2L79.1,65.1L79.2,65.1L79.3,65.2L79.5,65.2L79.6,65.2L79.7,65.1L79.8,65.1L79.7,65.2L79.5,65.2L79.3,65.3L79.2,65.3L79.2,65.3L79.0,65.3L79.1,65.4L79.4,65.4L79.5,65.4L79.6,65.3L79.6,65.3L79.8,65.3L80.0,65.3L80.0,65.3L79.7,65.4L79.7,65.5L79.8,65.5L80.0,65.4L80.2,65.3L80.2,65.4L80.1,65.5L80.1,65.5L80.2,65.5L80.2,65.4L80.2,65.5L80.3,65.5L80.4,65.5L80.1,65.5L79.8,65.6L79.6,65.6L79.5,65.7L79.4,65.7L79.3,65.7L79.2,65.7L79.1,65.7L79.0,65.8L79.0,65.9L79.1,65.9L79.3,65.9L79.1,66.0L79.1,66.0L79.2,66.0L79.4,65.9L79.6,65.9L79.7,65.9L79.8,65.8L79.9,65.8L79.9,65.8L79.9,65.8L79.6,65.8L79.6,65.7L79.8,65.7L79.9,65.7L80.3,65.6L80.4,65.5L80.5,65.5L80.3,65.6L80.2,65.7L80.1,65.7L80.2,65.7L80.4,65.7L80.6,65.7L80.8,65.8L80.8,65.8L81.1,65.9L81.3,65.9L81.4,65.9L81.4,65.8L81.6,65.8L81.7,65.7L81.7,65.7L81.6,65.9L81.6,66.0L81.7,66.0L81.9,66.0L81.7,66.0L81.6,66.1L82.0,66.1L82.1,66.1L82.2,66.1L82.3,66.1L82.4,66.2L82.5,66.1L82.5,66.2L82.8,66.2L82.9,66.3L82.6,66.3L82.3,66.5L82.1,66.6L82.1,66.7L82.3,66.5L82.7,66.4L82.9,66.3L83.1,66.4L83.1,66.3L84.1,65.6L84.6,65.6L86.1,65.6L86.1,65.7L87.0,65.7L87.0,65.8L87.3,65.8L87.3,64.8L87.3,63.6L86.1,63.6L86.1,63.3L85.8,63.3L85.8,63.3L85.9,63.3L85.9,62.8L85.6,62.8L85.6,62.6L85.4,62.6L85.4,62.5L85.1,62.5L84.8,62.5L84.8,62.5L84.7,62.5L84.6,62.6L84.5,62.6L84.5,62.6L84.4,62.6L84.2,62.6L84.1,62.6L84.2,62.5L84.2,62.5L84.4,62.4L84.3,62.4L84.1,62.3L84.3,62.2L84.3,62.1L84.3,62.1L84.4,62.1L84.2,62.0L84.2,62.0L84.2,61.9L82.9,61.9L82.1,61.9L82.1,61.9L81.3,61.9L81.3,61.7L79.9,61.7L79.9,61.8L79.6,61.8L79.3,61.8L79.3,62.1L79.4,62.1L79.4,62.3L79.4,62.8L79.5,63.1L78.6,63.1L78.6,63.3L78.7,63.3L78.7,63.8L78.7,63.8L78.7,64.3L78.3,64.3L78.3,64.3L77.1,64.3L76.5,64.3Z"/>
    <path class="wtc-county" id="wtc-county-wrangell" data-county="Wrangell" d="M99.6,71.4L99.6,71.4L99.6,71.4L99.6,71.4ZM99.4,71.6L99.5,71.6L99.7,71.6L99.7,71.6L99.6,71.5L99.5,71.6L99.4,71.6ZM99.3,71.4L99.4,71.5L99.5,71.4L99.5,71.3L99.4,71.4L99.3,71.4ZM99.5,71.1L99.4,71.2L99.4,71.2L99.6,71.3L99.6,71.3L99.7,71.3L99.7,71.3L99.7,71.4L99.8,71.4L100.0,71.5L100.0,71.6L100.0,71.6L99.9,71.6L99.9,71.5L99.7,71.4L99.7,71.4L99.8,71.7L99.7,71.7L99.6,71.6L99.5,71.7L99.4,71.7L99.4,71.8L99.3,71.8L99.2,71.8L99.2,72.0L99.4,72.1L99.4,72.1L99.5,72.1L99.6,72.2L99.7,72.2L99.7,72.3L99.7,72.4L99.8,72.3L99.8,72.3L99.9,72.3L100.0,72.3L100.1,72.2L100.0,72.1L100.1,72.0L100.2,72.0L100.2,71.9L100.3,71.9L100.3,72.0L100.2,72.0L100.2,72.0L100.2,72.1L100.2,72.2L100.1,72.4L100.0,72.4L100.0,72.5L99.9,72.5L99.9,72.6L100.0,72.7L100.1,72.6L100.1,72.6L100.3,72.6L100.3,72.5L100.3,72.4L100.2,72.4L100.4,72.3L100.4,72.3L100.4,72.2L100.4,72.2L100.5,72.1L100.7,72.1L100.7,72.0L100.8,72.0L101.0,72.1L101.1,72.1L101.2,72.0L101.1,72.0L101.2,71.9L101.3,71.8L101.3,71.9L101.6,71.9L101.7,71.8L101.6,71.7L101.5,71.7L101.6,71.6L101.5,71.5L101.0,71.4L100.9,71.3L100.5,71.3L100.5,71.1L100.4,71.1L100.4,71.0L100.1,70.9L100.1,70.9L99.9,70.9L99.9,70.9L99.8,71.0L99.8,71.0L99.6,71.0L99.6,71.1L99.5,71.1ZM98.8,71.8L98.8,71.9L98.9,71.9L99.0,72.0L99.0,72.0L99.0,71.9L98.9,71.8L98.8,71.7L98.8,71.8ZM98.7,71.6L98.7,71.7L98.9,71.7L99.0,71.8L99.2,71.8L99.3,71.7L99.3,71.6L99.4,71.6L99.3,71.5L99.2,71.5L99.1,71.5L98.9,71.5L98.8,71.5L98.7,71.6Z"/>
    <path class="wtc-county" id="wtc-county-yakutat" data-county="Yakutat" d="M87.3,65.8L87.0,65.8L87.0,65.7L86.1,65.7L86.1,65.6L84.6,65.6L84.1,65.6L83.1,66.3L83.1,66.4L83.4,66.3L83.8,66.3L84.2,66.3L84.5,66.2L84.8,66.2L85.1,66.3L85.5,66.3L85.6,66.3L86.0,66.4L86.2,66.4L86.4,66.4L86.7,66.4L86.7,66.3L86.5,66.2L86.5,66.1L86.6,66.2L86.7,66.2L86.7,66.2L86.9,66.4L86.8,66.5L86.7,66.5L86.6,66.5L86.7,66.6L87.3,66.7L87.4,66.7L87.8,66.8L88.3,66.8L88.4,66.8L88.5,66.8L89.0,66.6L89.0,66.6L89.1,66.5L89.3,66.5L89.3,66.4L89.4,66.3L89.5,66.4L89.4,66.4L89.4,66.5L89.3,66.5L89.2,66.6L89.3,66.7L89.3,66.8L89.4,66.8L89.3,66.9L89.3,66.9L89.2,66.9L89.2,66.9L89.1,66.9L89.0,67.0L88.9,67.0L89.1,67.1L89.6,67.3L89.8,67.3L90.3,67.5L90.5,67.5L90.7,67.6L91.2,67.7L91.3,67.8L91.6,67.9L91.7,68.0L91.7,68.1L92.3,68.0L92.3,67.8L92.2,67.5L90.8,66.7L90.6,66.7L90.6,66.5L90.5,66.5L90.1,66.4L89.9,66.2L90.0,65.9L90.0,65.9L89.2,65.9L88.7,66.1L88.0,65.9L87.9,66.1L87.3,65.9L87.3,65.8Z"/>
    <path class="wtc-county" id="wtc-county-yukon-koyukuk" data-county="Yukon-Koyukuk" d="M58.6,62.0L58.5,62.1L58.5,62.2L58.4,62.2L58.4,62.7L58.4,62.7L58.4,63.2L58.5,63.2L58.5,63.6L59.1,63.6L60.9,63.6L60.9,63.4L62.0,63.4L62.0,63.3L63.3,63.3L64.1,63.3L64.1,63.4L65.8,63.4L67.0,63.4L67.9,63.4L68.9,63.4L68.9,63.3L69.4,63.3L69.4,63.2L69.9,63.2L69.9,63.1L70.0,63.1L70.0,62.5L70.0,62.4L70.4,62.1L70.8,61.8L70.8,61.6L70.5,61.6L70.5,61.5L70.2,61.5L70.2,61.4L70.1,61.4L70.1,61.1L71.1,61.1L71.1,60.9L71.3,60.9L71.3,60.6L71.7,60.6L71.6,60.6L71.7,60.5L72.0,60.5L72.1,60.5L72.1,60.6L72.3,60.6L72.4,60.6L72.9,60.3L73.2,60.1L74.3,60.1L75.5,60.1L75.5,60.1L77.1,60.1L76.9,60.0L76.8,59.9L76.6,59.8L76.6,59.8L76.4,59.7L76.2,59.8L76.2,59.4L76.2,58.9L77.8,58.9L78.2,58.8L78.6,58.8L79.0,58.7L79.3,58.7L79.4,58.6L79.3,58.6L79.8,58.5L79.9,58.6L80.1,58.6L80.1,58.6L79.9,58.7L79.9,58.8L80.1,58.8L80.2,58.9L80.5,58.9L80.6,59.0L80.4,59.0L80.5,59.1L80.6,59.1L80.8,59.1L80.9,59.0L81.2,59.1L81.5,59.0L81.7,59.0L81.8,59.0L82.0,59.0L82.3,59.1L82.4,59.0L82.5,59.0L83.0,59.0L83.1,59.0L83.1,59.1L82.8,59.1L83.0,59.2L83.0,59.2L82.8,59.3L82.8,59.3L82.8,59.5L82.9,59.5L82.8,59.6L82.8,59.6L83.3,59.7L83.4,59.6L83.5,59.6L83.6,59.5L83.6,59.5L83.8,59.4L83.7,59.4L83.7,59.3L83.6,59.2L83.9,59.2L83.9,59.1L84.0,59.1L84.1,59.1L84.2,59.1L84.2,59.0L84.5,59.0L84.6,58.9L84.7,58.9L84.8,58.8L84.8,58.7L84.7,58.7L84.9,58.7L84.9,58.6L85.0,58.6L85.2,58.6L85.2,58.6L85.4,58.5L85.7,58.5L85.8,58.5L86.1,58.5L86.2,58.4L86.3,58.4L86.5,58.3L86.7,58.3L86.8,58.2L86.8,58.1L87.1,58.0L87.3,58.0L87.3,54.1L85.5,54.1L84.4,54.1L83.4,54.1L82.0,54.1L81.0,54.1L80.1,54.1L80.1,54.8L78.5,54.8L77.5,54.8L76.4,54.8L75.5,54.8L74.3,54.8L73.1,54.8L71.9,54.8L70.6,54.8L69.4,54.8L68.0,54.8L66.6,54.8L66.6,55.0L66.5,55.0L66.5,55.2L66.9,55.2L66.9,55.3L67.2,55.3L67.2,55.4L67.5,55.4L67.5,55.5L67.4,55.5L67.4,55.9L68.1,55.9L68.1,56.0L68.3,56.0L68.3,56.5L68.2,56.5L68.2,56.7L67.3,56.7L67.3,56.9L66.3,56.9L66.3,57.0L66.3,57.0L66.3,57.3L65.7,57.3L65.7,57.2L65.4,57.2L65.4,57.0L64.7,57.0L64.7,57.3L64.1,57.3L64.1,57.0L62.9,57.0L62.9,57.5L61.3,57.5L61.3,57.8L60.4,57.8L60.4,58.0L60.5,58.0L60.5,58.4L60.8,58.4L60.8,58.8L60.5,58.8L60.5,59.0L60.5,59.3L60.2,59.3L60.2,59.5L59.9,59.5L59.9,60.0L59.9,60.5L60.2,60.5L60.2,60.9L60.0,60.9L60.0,61.0L59.7,61.0L59.7,61.2L59.1,61.2L59.1,61.3L58.9,61.3L58.9,61.5L58.9,61.5L58.9,61.7L58.6,61.7L58.6,62.0Z"/>
  </g>
</svg>