<svg id="wtc-state-map-wv" xmlns="http://www.w3.org/2000/svg" viewBox="0 0 1120 420" role="img" aria-label="West Virginia county map">
  <g class="wtc-counties">
    <rect id="wtc-county-berkeley" class="wtc-county" data-county="Berkeley" x="20" y="20" width="126" height="52"/>
    <rect id="wtc-county-cabell" class="wtc-county" data-county="Cabell" x="156" y="20" width="126" height="52"/>
    <rect id="wtc-county-fayette" class="wtc-county" data-county="Fayette" x="292" y="20" width="126" height="52"/>
    <rect id="wtc-county-hancock" class="wtc-county" data-county="Hancock" x="428" y="20" width="126" height="52"/>
    <rect id="wtc-county-harrison" class="wtc-county" data-county="Harrison" x="564" y="20" width="126" height="52"/>
    <rect id="wtc-county-jefferson" class="wtc-county" data-county="Jefferson" x="700" y="20" width="126" height="52"/>
    <rect id="wtc-county-kanawha" class="wtc-county" data-county="Kanawha" x="836" y="20" width="126" height="52"/>
    <rect id="wtc-county-marion" class="wtc-county" data-county="Marion" x="972" y="20" width="126" height="52"/>

    <rect id="wtc-county-marshall" class="wtc-county" data-county="Marshall" x="20" y="82" width="126" height="52"/>
    <rect id="wtc-county-mercer" class="wtc-county" data-county="Mercer" x="156" y="82" width="126" height="52"/>
    <rect id="wtc-county-mineral" class="wtc-county" data-county="Mineral" x="292" y="82" width="126" height="52"/>
    <rect id="wtc-county-monongalia" class="wtc-county" data-county="Monongalia" x="428" y="82" width="126" height="52"/>
    <rect id="wtc-county-nicholas" class="wtc-county" data-county="Nicholas" x="564" y="82" width="126" height="52"/>
    <rect id="wtc-county-ohio" class="wtc-county" data-county="Ohio" x="700" y="82" width="126" height="52"/>
    <rect id="wtc-county-putnam" class="wtc-county" data-county="Putnam" x="836" y="82" width="126" height="52"/>
    <rect id="wtc-county-raleigh" class="wtc-county" data-county="Raleigh" x="972" y="82" width="126" height="52"/>

    <rect id="wtc-county-randolph" class="wtc-county" data-county="Randolph" x="20" y="144" width="126" height="52"/>
    <rect id="wtc-county-wayne" class="wtc-county" data-county="Wayne" x="156" y="144" width="126" height="52"/>
    <rect id="wtc-county-wood" class="wtc-county" data-county="Wood" x="292" y="144" width="126" height="52"/>
  </g>
</svg>
