<?xml version="1.0" encoding="UTF-8"?>
<svg xmlns="http://www.w3.org/2000/svg" viewBox="0 0 600 449" id="wtc-state-map-WV" role="img" aria-label="wv county map">
  <title>wv Counties</title>
  <g class="wtc-counties">
    <path class="wtc-county" id="wtc-county-barbour" data-county="Barbour" d="M301.5,257.5L295.3,250.3L295.3,244.4L301.1,241.8L305.1,236.8L312.8,236.7L312.8,230.4L309.5,227.5L328.8,230.2L332.1,240.2L336.1,244.6L334.7,246.2L337.6,256.3L333.6,258.0L332.5,261.8L328.8,263.3L324.8,263.1L322.3,260.2L316.1,258.1L301.5,257.5Z"/>
    <path class="wtc-county" id="wtc-county-berkeley" data-county="Berkeley" d="M519.3,295.9L512.0,292.0L507.7,293.3L498.5,272.7L518.2,259.8L524.8,270.2L528.8,271.6L537.2,278.2L539.4,283.1L539.4,286.7L535.8,285.1L532.8,289.6L538.7,290.9L538.7,294.1L533.6,293.8L527.4,295.8L520.8,294.1L519.3,295.9Z"/>
    <path class="wtc-county" id="wtc-county-boone" data-county="Boone" d="M121.9,133.8L116.8,129.8L124.1,128.6L129.2,125.9L137.2,124.5L139.4,119.6L137.2,117.7L143.1,111.8L150.7,114.0L154.7,109.7L158.0,107.1L164.2,109.9L164.2,112.7L159.5,115.1L159.5,122.9L161.7,128.3L165.0,130.0L170.1,129.9L169.7,133.9L166.8,138.0L162.0,138.9L164.2,142.6L158.8,145.1L155.5,148.9L150.7,150.0L151.1,153.6L142.7,153.7L141.6,151.3L138.7,154.3L131.8,152.5L129.9,148.8L126.3,148.3L127.4,145.1L122.3,146.7L119.7,143.3L117.9,136.3L121.9,133.8Z"/>
    <path class="wtc-county" id="wtc-county-braxton" data-county="Braxton" d="M218.2,204.2L213.5,199.1L219.0,194.7L219.7,191.5L224.1,190.1L224.8,186.6L228.8,182.8L238.3,187.9L242.0,184.7L245.3,185.7L252.2,184.7L266.4,196.8L271.9,206.4L273.0,210.3L269.0,212.6L270.1,215.9L265.0,218.8L259.1,218.5L256.6,223.1L252.9,221.1L250.0,222.0L218.2,204.2Z"/>
    <path class="wtc-county" id="wtc-county-brooke" data-county="Brooke" d="M254.4,374.7L256.6,372.1L257.3,367.2L255.5,361.5L251.8,359.5L248.9,353.5L257.7,352.6L265.3,350.7L265.7,375.2L254.4,374.7Z"/>
    <path class="wtc-county" id="wtc-county-cabell" data-county="Cabell" d="M63.1,173.0L79.6,162.3L82.8,164.9L86.9,162.1L83.9,161.2L84.3,155.6L88.0,154.5L90.5,158.8L93.8,160.6L97.1,165.7L102.9,166.2L105.1,168.5L110.2,169.2L109.5,179.5L92.7,191.3L85.8,190.5L83.9,181.1L82.1,176.8L73.7,175.9L63.1,173.0Z"/>
    <path class="wtc-county" id="wtc-county-calhoun" data-county="Calhoun" d="M200.0,236.0L188.7,226.4L188.3,224.2L192.3,220.8L194.2,217.0L193.4,211.9L199.3,206.4L200.4,196.7L206.2,196.1L208.0,193.4L213.5,199.1L218.2,204.2L216.8,207.1L210.9,211.9L216.4,217.2L215.3,225.0L216.1,228.9L213.1,233.9L206.2,235.1L202.9,237.5L200.0,236.0Z"/>
    <path class="wtc-county" id="wtc-county-clay" data-county="Clay" d="M196.7,184.9L188.0,179.3L190.9,169.1L193.1,158.0L225.5,173.3L235.0,179.9L228.8,182.8L224.8,186.6L224.1,190.1L219.7,191.5L219.0,194.7L213.5,199.1L208.0,193.4L203.3,188.7L196.7,184.9Z"/>
    <path class="wtc-county" id="wtc-county-doddridge" data-county="Doddridge" d="M227.7,262.8L225.2,260.6L235.8,244.0L244.2,242.6L247.1,242.1L251.5,247.2L257.7,249.9L264.6,252.7L260.6,255.4L262.8,256.8L256.9,262.0L264.2,269.5L262.8,270.1L262.8,276.5L255.5,278.7L251.5,276.9L245.6,276.6L243.8,273.1L233.9,267.8L227.7,262.8Z"/>
    <path class="wtc-county" id="wtc-county-fayette" data-county="Fayette" d="M177.7,128.1L181.4,128.8L185.8,124.4L186.5,120.0L209.1,118.6L210.9,114.5L219.0,114.2L222.3,112.8L236.1,117.9L242.0,117.4L235.8,126.0L240.1,129.7L237.2,133.8L233.9,134.4L236.9,137.6L230.3,137.1L227.4,139.3L228.5,141.7L221.5,148.3L222.3,150.9L218.2,153.9L215.7,152.1L210.6,153.9L209.1,151.2L202.9,155.1L201.1,154.2L193.1,158.0L182.8,147.6L177.7,128.1Z"/>
    <path class="wtc-county" id="wtc-county-gilmer" data-county="Gilmer" d="M213.1,233.9L216.1,228.9L215.3,225.0L216.4,217.2L210.9,211.9L216.8,207.1L218.2,204.2L250.0,222.0L252.9,221.1L256.6,223.1L245.3,233.7L244.2,242.6L235.8,244.0L233.2,241.2L225.5,237.5L213.1,233.9Z"/>
    <path class="wtc-county" id="wtc-county-grant" data-county="Grant" d="M370.4,253.8L370.4,252.7L372.3,251.1L388.7,254.2L390.5,252.1L386.1,247.9L383.9,241.6L389.8,240.3L385.4,229.8L383.6,229.2L384.3,228.5L406.2,213.9L415.3,225.6L410.9,236.8L417.2,247.3L416.4,248.1L421.9,257.0L406.2,264.6L392.3,266.4L390.5,263.3L386.1,263.4L374.1,254.4L370.4,253.8Z"/>
    <path class="wtc-county" id="wtc-county-greenbrier" data-county="Greenbrier" d="M228.5,141.7L227.4,139.3L230.3,137.1L236.9,137.6L233.9,134.4L237.2,133.8L240.1,129.7L235.8,126.0L242.0,117.4L236.1,117.9L242.0,114.5L250.4,107.1L250.7,103.9L266.8,99.8L272.6,99.0L278.1,102.4L279.2,100.0L288.3,99.9L292.7,103.3L292.0,106.4L299.6,116.2L312.4,126.3L317.2,129.8L322.3,137.7L307.3,136.9L301.1,134.9L291.2,136.0L281.4,142.9L281.8,154.1L273.7,158.4L264.2,151.4L246.0,139.3L228.5,141.7Z"/>
    <path class="wtc-county" id="wtc-county-hampshire" data-county="Hampshire" d="M454.7,287.2L447.4,280.0L443.4,278.3L435.0,266.5L431.8,266.3L427.4,261.2L421.9,257.0L430.3,253.1L447.1,248.1L450.7,247.9L458.4,245.0L460.2,247.1L464.6,246.3L470.1,241.9L474.8,244.4L480.7,249.9L477.0,253.0L481.0,257.7L478.8,259.0L487.2,268.3L484.7,269.2L486.9,272.4L485.0,274.8L486.5,280.3L474.1,285.4L463.9,285.8L461.3,287.3L454.7,287.2Z"/>
    <path class="wtc-county" id="wtc-county-hancock" data-county="Hancock" d="M250.4,393.8L254.4,389.0L257.7,381.7L254.4,374.7L265.7,375.2L265.3,383.1L265.3,399.5L258.8,397.1L253.6,397.2L250.4,393.8Z"/>
    <path class="wtc-county" id="wtc-county-hardy" data-county="Hardy" d="M421.9,257.0L416.4,248.1L417.2,247.3L410.9,236.8L415.3,225.6L406.2,213.9L414.2,208.6L420.4,217.6L433.2,208.8L440.5,220.2L448.9,226.4L448.9,223.2L452.6,225.3L458.0,231.1L460.6,229.2L465.7,234.7L463.5,236.1L466.4,238.6L470.1,241.9L464.6,246.3L460.2,247.1L458.4,245.0L450.7,247.9L447.1,248.1L430.3,253.1L421.9,257.0Z"/>
    <path class="wtc-county" id="wtc-county-harrison" data-county="Harrison" d="M262.8,276.5L262.8,270.1L264.2,269.5L256.9,262.0L262.8,256.8L260.6,255.4L264.6,252.7L257.7,249.9L287.6,243.4L295.3,244.4L295.3,250.3L301.5,257.5L297.8,260.4L298.2,272.8L289.4,277.1L267.9,280.6L265.7,277.1L262.8,276.5Z"/>
    <path class="wtc-county" id="wtc-county-jackson" data-county="Jackson" d="M124.1,220.5L136.1,205.7L133.9,203.9L138.0,200.4L140.5,200.7L145.6,194.9L152.2,187.6L163.5,193.5L160.9,199.5L163.5,215.1L163.1,222.9L165.3,224.5L160.6,229.5L162.4,233.4L157.3,235.5L140.5,242.6L133.9,241.2L135.0,237.5L138.7,234.9L137.2,225.2L133.9,227.4L130.7,225.7L129.6,222.0L124.1,220.5Z"/>
    <path class="wtc-county" id="wtc-county-jefferson" data-county="Jefferson" d="M539.4,283.1L537.2,278.2L528.8,271.6L524.8,270.2L518.2,259.8L539.1,246.4L546.7,261.6L550.0,265.6L546.4,266.8L548.5,272.3L546.7,276.1L543.4,277.1L542.3,281.8L539.4,283.1Z"/>
    <path class="wtc-county" id="wtc-county-kanawha" data-county="Kanawha" d="M145.6,194.9L139.8,190.3L139.8,184.4L142.7,178.6L129.9,174.1L125.2,171.8L123.4,164.3L133.6,163.3L135.0,158.1L134.3,153.6L131.8,152.5L138.7,154.3L141.6,151.3L142.7,153.7L151.1,153.6L150.7,150.0L155.5,148.9L158.8,145.1L164.2,142.6L162.0,138.9L166.8,138.0L169.7,133.9L170.1,129.9L172.3,127.9L177.7,128.1L182.8,147.6L193.1,158.0L190.9,169.1L188.0,179.3L196.7,184.9L188.7,184.3L185.8,185.6L169.3,187.1L163.5,193.5L152.2,187.6L145.6,194.9Z"/>
    <path class="wtc-county" id="wtc-county-lewis" data-county="Lewis" d="M244.2,242.6L245.3,233.7L256.6,223.1L259.1,218.5L265.0,218.8L270.1,215.9L269.0,212.6L273.0,210.3L271.9,206.4L278.5,205.1L276.6,209.3L278.8,220.2L281.0,221.4L282.8,226.8L285.8,228.4L285.8,234.2L287.6,243.4L257.7,249.9L251.5,247.2L247.1,242.1L244.2,242.6Z"/>
    <path class="wtc-county" id="wtc-county-lincoln" data-county="Lincoln" d="M83.9,125.5L95.6,128.6L110.2,132.7L121.9,133.8L117.9,136.3L119.7,143.3L122.3,146.7L127.4,145.1L126.3,148.3L129.9,148.8L131.8,152.5L134.3,153.6L135.0,158.1L133.6,163.3L123.4,164.3L115.3,158.3L109.9,160.7L110.2,169.2L105.1,168.5L102.9,166.2L97.1,165.7L93.8,160.6L90.5,158.8L88.0,154.5L85.8,145.9L88.3,142.2L95.3,135.9L83.9,125.5Z"/>
    <path class="wtc-county" id="wtc-county-logan" data-county="Logan" d="M95.6,128.6L98.2,122.2L102.2,120.9L103.6,116.9L100.0,114.9L104.0,111.0L104.0,105.8L106.6,100.8L110.6,100.8L115.7,95.3L117.2,97.4L123.7,98.7L124.8,96.7L128.5,98.6L135.0,96.6L145.3,100.8L138.7,105.9L146.0,108.3L154.7,109.7L150.7,114.0L143.1,111.8L137.2,117.7L139.4,119.6L137.2,124.5L129.2,125.9L124.1,128.6L116.8,129.8L121.9,133.8L110.2,132.7L95.6,128.6Z"/>
    <path class="wtc-county" id="wtc-county-mcdowell" data-county="McDowell" d="M122.3,81.6L115.7,78.7L116.1,75.8L121.5,73.8L122.3,66.0L127.4,63.3L129.9,58.7L136.5,58.5L140.9,56.3L141.6,53.8L147.8,50.0L160.2,50.6L165.0,53.1L165.7,55.8L174.1,57.3L177.0,62.1L179.9,63.9L185.0,72.7L178.5,74.6L176.3,76.7L172.6,75.2L169.7,78.7L162.8,77.9L155.5,79.6L152.9,82.2L149.3,82.6L144.5,79.9L133.6,81.0L129.6,85.3L122.3,81.6Z"/>
    <path class="wtc-county" id="wtc-county-marion" data-county="Marion" d="M278.1,297.6L274.1,297.9L272.3,293.4L269.7,293.6L267.5,290.1L270.4,282.4L267.9,280.6L289.4,277.1L298.2,272.8L305.8,273.7L309.5,272.1L315.7,273.7L324.5,278.9L321.5,280.0L302.6,294.9L282.8,295.1L278.1,297.6Z"/>
    <path class="wtc-county" id="wtc-county-marshall" data-county="Marshall" d="M234.7,319.3L234.3,314.1L229.9,309.9L233.6,306.2L265.3,306.2L265.7,323.5L265.3,330.7L265.3,336.2L243.8,337.9L243.1,331.6L240.5,329.9L241.2,325.3L236.5,326.3L238.0,321.0L234.7,319.3Z"/>
    <path class="wtc-county" id="wtc-county-mason" data-county="Mason" d="M104.7,228.6L100.4,222.5L100.4,216.7L92.7,212.1L96.4,203.0L97.4,194.1L92.7,191.3L109.5,179.5L108.4,193.0L119.3,198.0L138.0,200.4L133.9,203.9L136.1,205.7L124.1,220.5L122.3,222.9L125.2,225.3L120.8,232.2L116.8,232.3L112.0,235.8L104.7,228.6Z"/>
    <path class="wtc-county" id="wtc-county-mercer" data-county="Mercer" d="M179.9,63.9L183.9,60.0L193.8,53.4L205.1,57.9L218.6,60.2L218.6,59.3L224.8,60.7L231.8,64.8L228.5,68.5L231.0,73.1L206.9,89.4L202.9,90.3L196.4,88.0L194.2,81.4L189.8,79.9L185.4,76.2L188.0,72.2L185.0,72.7L179.9,63.9Z"/>
    <path class="wtc-county" id="wtc-county-mineral" data-county="Mineral" d="M413.1,281.1L410.2,281.0L405.5,274.4L394.2,269.2L392.3,266.4L406.2,264.6L421.9,257.0L427.4,261.2L431.8,266.3L435.0,266.5L443.4,278.3L447.4,280.0L454.7,287.2L447.8,290.2L447.1,292.5L442.3,294.1L447.1,295.3L442.3,296.2L428.5,282.4L424.5,277.6L413.1,281.1Z"/>
    <path class="wtc-county" id="wtc-county-mingo" data-county="Mingo" d="M71.9,116.4L76.6,111.1L80.3,109.4L81.0,104.9L85.0,97.7L90.5,96.7L93.1,93.1L96.4,93.2L98.9,89.7L101.8,89.7L102.9,86.4L113.1,83.8L118.2,84.2L122.3,81.6L129.6,85.3L135.8,93.8L135.0,96.6L128.5,98.6L124.8,96.7L123.7,98.7L117.2,97.4L115.7,95.3L110.6,100.8L106.6,100.8L104.0,105.8L104.0,111.0L100.0,114.9L103.6,116.9L102.2,120.9L98.2,122.2L95.6,128.6L83.9,125.5L71.9,116.4Z"/>
    <path class="wtc-county" id="wtc-county-monongalia" data-county="Monongalia" d="M275.5,306.2L277.0,305.8L278.1,297.6L282.8,295.1L302.6,294.9L321.5,280.0L324.5,278.9L328.8,277.2L328.5,281.9L339.8,296.3L342.3,306.2L326.6,306.2L275.5,306.2Z"/>
    <path class="wtc-county" id="wtc-county-monroe" data-county="Monroe" d="M231.0,73.1L238.7,69.7L240.1,67.4L255.1,73.6L262.0,77.7L266.4,78.5L267.9,73.8L270.1,72.6L288.0,81.2L289.4,83.7L284.7,84.1L285.0,86.9L291.6,89.8L296.0,93.3L289.8,96.3L288.3,99.9L279.2,100.0L278.1,102.4L272.6,99.0L266.8,99.8L250.7,103.9L251.1,102.1L231.0,73.1Z"/>
    <path class="wtc-county" id="wtc-county-morgan" data-county="Morgan" d="M487.6,297.6L482.8,296.9L482.5,294.8L477.4,295.7L481.4,292.9L476.6,293.0L479.2,288.7L474.1,285.4L486.5,280.3L498.5,272.7L507.7,293.3L512.0,292.0L519.3,295.9L511.7,301.8L502.9,303.6L494.5,295.8L487.6,297.6Z"/>
    <path class="wtc-county" id="wtc-county-nicholas" data-county="Nicholas" d="M193.1,158.0L201.1,154.2L202.9,155.1L209.1,151.2L210.6,153.9L215.7,152.1L218.2,153.9L222.3,150.9L221.5,148.3L228.5,141.7L246.0,139.3L264.2,151.4L273.7,158.4L256.2,167.7L254.7,167.2L251.1,173.2L253.3,174.3L249.3,182.4L252.2,184.7L245.3,185.7L242.0,184.7L238.3,187.9L228.8,182.8L235.0,179.9L225.5,173.3L193.1,158.0Z"/>
    <path class="wtc-county" id="wtc-county-ohio" data-county="Ohio" d="M246.7,350.6L246.4,344.9L243.1,342.3L243.8,337.9L265.3,336.2L265.3,350.7L257.7,352.6L248.9,353.5L246.7,350.6Z"/>
    <path class="wtc-county" id="wtc-county-pendleton" data-county="Pendleton" d="M356.2,198.8L356.9,194.3L354.0,191.3L365.3,187.2L371.5,177.7L388.3,173.1L397.1,179.8L407.7,198.3L410.6,198.2L410.9,204.4L414.2,208.6L406.2,213.9L384.3,228.5L381.8,224.8L373.7,225.7L374.8,222.6L368.2,220.2L365.0,216.8L368.2,210.5L356.2,198.8Z"/>
    <path class="wtc-county" id="wtc-county-pleasants" data-county="Pleasants" d="M178.8,267.7L183.6,263.2L190.1,262.6L192.3,260.2L194.2,264.2L204.4,264.8L212.0,266.3L215.7,268.6L213.9,279.8L210.2,281.3L204.4,279.4L199.3,277.5L195.3,272.8L189.1,272.1L178.8,267.7Z"/>
    <path class="wtc-county" id="wtc-county-pocahontas" data-county="Pocahontas" d="M281.8,154.1L281.4,142.9L291.2,136.0L301.1,134.9L307.3,136.9L322.3,137.7L325.9,142.1L323.7,144.6L326.3,149.5L335.4,156.6L339.1,158.3L337.6,162.2L345.6,169.8L350.0,175.1L348.9,180.8L354.0,191.3L356.9,194.3L356.2,198.8L352.6,201.3L350.7,198.8L344.5,200.6L345.6,203.5L341.2,206.4L338.3,203.3L332.1,187.3L315.3,177.9L306.6,179.4L293.4,170.7L284.7,165.3L282.5,166.3L281.8,154.1Z"/>
    <path class="wtc-county" id="wtc-county-preston" data-county="Preston" d="M342.3,306.2L339.8,296.3L328.5,281.9L328.8,277.2L328.8,263.3L332.5,261.8L333.6,258.0L337.6,256.3L350.4,260.3L368.2,254.8L370.4,252.7L370.4,253.8L371.5,306.2L342.3,306.2Z"/>
    <path class="wtc-county" id="wtc-county-putnam" data-county="Putnam" d="M138.0,200.4L119.3,198.0L108.4,193.0L109.5,179.5L110.2,169.2L109.9,160.7L115.3,158.3L123.4,164.3L125.2,171.8L129.9,174.1L142.7,178.6L139.8,184.4L139.8,190.3L145.6,194.9L140.5,200.7L138.0,200.4Z"/>
    <path class="wtc-county" id="wtc-county-raleigh" data-county="Raleigh" d="M170.1,129.9L165.0,130.0L161.7,128.3L159.5,122.9L159.5,115.1L164.2,112.7L164.2,109.9L170.1,109.2L183.9,90.3L185.0,85.7L194.2,81.4L196.4,88.0L202.9,90.3L206.9,89.4L210.2,91.7L209.9,94.8L221.9,102.2L228.8,98.9L227.0,103.6L224.5,104.9L227.4,107.5L222.3,112.8L219.0,114.2L210.9,114.5L209.1,118.6L186.5,120.0L185.8,124.4L181.4,128.8L177.7,128.1L172.3,127.9L170.1,129.9Z"/>
    <path class="wtc-county" id="wtc-county-randolph" data-county="Randolph" d="M309.5,227.5L307.3,222.3L308.4,216.7L305.5,207.1L294.2,206.8L289.8,201.8L299.6,184.6L293.4,170.7L306.6,179.4L315.3,177.9L332.1,187.3L338.3,203.3L341.2,206.4L345.6,203.5L344.5,200.6L350.7,198.8L352.6,201.3L356.2,198.8L368.2,210.5L365.0,216.8L368.2,220.2L374.8,222.6L373.7,225.7L381.8,224.8L384.3,228.5L383.6,229.2L378.5,230.2L368.2,230.4L340.1,236.7L341.2,240.7L336.1,244.6L332.1,240.2L328.8,230.2L309.5,227.5Z"/>
    <path class="wtc-county" id="wtc-county-ritchie" data-county="Ritchie" d="M186.1,251.8L183.2,248.2L189.8,243.7L191.2,236.4L198.2,237.1L200.0,236.0L202.9,237.5L206.2,235.1L213.1,233.9L225.5,237.5L233.2,241.2L235.8,244.0L225.2,260.6L227.7,262.8L228.5,269.5L223.4,272.5L220.4,267.4L215.7,268.6L212.0,266.3L204.4,264.8L194.2,264.2L192.3,260.2L190.1,260.1L185.8,253.4L186.1,251.8Z"/>
    <path class="wtc-county" id="wtc-county-roane" data-county="Roane" d="M165.3,224.5L163.1,222.9L163.5,215.1L160.9,199.5L163.5,193.5L169.3,187.1L185.8,185.6L188.7,184.3L196.7,184.9L203.3,188.7L208.0,193.4L206.2,196.1L200.4,196.7L199.3,206.4L193.4,211.9L194.2,217.0L192.3,220.8L188.3,224.2L181.8,222.3L171.2,227.0L165.3,224.5Z"/>
    <path class="wtc-county" id="wtc-county-summers" data-county="Summers" d="M222.3,112.8L227.4,107.5L224.5,104.9L227.0,103.6L228.8,98.9L221.9,102.2L209.9,94.8L210.2,91.7L206.9,89.4L231.0,73.1L231.0,73.1L251.1,102.1L250.7,103.9L250.4,107.1L242.0,114.5L236.1,117.9L222.3,112.8Z"/>
    <path class="wtc-county" id="wtc-county-taylor" data-county="Taylor" d="M298.2,272.8L297.8,260.4L301.5,257.5L316.1,258.1L322.3,260.2L324.8,263.1L328.8,263.3L328.8,277.2L324.5,278.9L315.7,273.7L309.5,272.1L305.8,273.7L298.2,272.8Z"/>
    <path class="wtc-county" id="wtc-county-tucker" data-county="Tucker" d="M337.6,256.3L334.7,246.2L336.1,244.6L341.2,240.7L340.1,236.7L368.2,230.4L378.5,230.2L383.6,229.2L385.4,229.8L389.8,240.3L383.9,241.6L386.1,247.9L390.5,252.1L388.7,254.2L372.3,251.1L370.4,252.7L368.2,254.8L350.4,260.3L337.6,256.3Z"/>
    <path class="wtc-county" id="wtc-county-tyler" data-county="Tyler" d="M212.8,287.8L206.2,282.4L204.4,279.4L210.2,281.3L213.9,279.8L215.7,268.6L220.4,267.4L223.4,272.5L228.5,269.5L227.7,262.8L233.9,267.8L243.8,273.1L245.6,276.6L251.5,276.9L255.5,278.7L251.8,280.7L246.0,281.3L243.1,285.1L232.5,292.2L228.1,291.9L222.3,294.6L212.8,287.8Z"/>
    <path class="wtc-county" id="wtc-county-upshur" data-county="Upshur" d="M287.6,243.4L285.8,234.2L285.8,228.4L282.8,226.8L281.0,221.4L278.8,220.2L276.6,209.3L278.5,205.1L282.5,205.5L285.8,200.8L289.8,201.8L294.2,206.8L305.5,207.1L308.4,216.7L307.3,222.3L309.5,227.5L312.8,230.4L312.8,236.7L305.1,236.8L301.1,241.8L295.3,244.4L287.6,243.4Z"/>
    <path class="wtc-county" id="wtc-county-wayne" data-county="Wayne" d="M53.3,156.3L52.9,148.6L50.0,148.6L50.0,145.3L55.5,142.1L59.1,138.1L62.4,131.1L67.9,129.2L64.2,125.6L66.8,121.0L72.3,119.4L71.9,116.4L83.9,125.5L95.3,135.9L88.3,142.2L85.8,145.9L88.0,154.5L84.3,155.6L83.9,161.2L86.9,162.1L82.8,164.9L79.6,162.3L63.1,173.0L58.8,172.2L54.4,174.1L54.0,166.3L56.9,163.1L56.6,158.1L53.3,156.3Z"/>
    <path class="wtc-county" id="wtc-county-webster" data-county="Webster" d="M252.2,184.7L249.3,182.4L253.3,174.3L251.1,173.2L254.7,167.2L256.2,167.7L273.7,158.4L281.8,154.1L282.5,166.3L284.7,165.3L293.4,170.7L299.6,184.6L289.8,201.8L285.8,200.8L282.5,205.5L278.5,205.1L271.9,206.4L266.4,196.8L252.2,184.7Z"/>
    <path class="wtc-county" id="wtc-county-wetzel" data-county="Wetzel" d="M233.6,306.2L230.3,303.2L228.8,296.0L222.3,294.6L228.1,291.9L232.5,292.2L243.1,285.1L246.0,281.3L251.8,280.7L255.5,278.7L262.8,276.5L265.7,277.1L267.9,280.6L270.4,282.4L267.5,290.1L269.7,293.6L272.3,293.4L274.1,297.9L278.1,297.6L277.0,305.8L275.5,306.2L265.3,306.2L233.6,306.2Z"/>
    <path class="wtc-county" id="wtc-county-wirt" data-county="Wirt" d="M186.1,251.8L175.9,246.9L173.4,246.7L157.3,235.5L162.4,233.4L160.6,229.5L165.3,224.5L171.2,227.0L181.8,222.3L188.3,224.2L188.7,226.4L200.0,236.0L198.2,237.1L191.2,236.4L189.8,243.7L183.2,248.2L186.1,251.8Z"/>
    <path class="wtc-county" id="wtc-county-wood" data-county="Wood" d="M139.8,251.3L140.5,242.6L157.3,235.5L173.4,246.7L175.9,246.9L186.1,251.8L185.8,253.4L190.1,260.1L192.3,260.2L190.1,262.6L183.6,263.2L178.8,267.7L172.3,274.4L169.0,274.0L159.9,267.3L158.8,260.1L147.4,260.7L146.4,255.9L142.7,254.8L139.8,251.3Z"/>
    <path class="wtc-county" id="wtc-county-wyoming" data-county="Wyoming" d="M135.0,96.6L135.8,93.8L129.6,85.3L133.6,81.0L144.5,79.9L149.3,82.6L152.9,82.2L155.5,79.6L162.8,77.9L169.7,78.7L172.6,75.2L176.3,76.7L178.5,74.6L185.0,72.7L188.0,72.2L185.4,76.2L189.8,79.9L194.2,81.4L185.0,85.7L183.9,90.3L170.1,109.2L164.2,109.9L158.0,107.1L154.7,109.7L146.0,108.3L138.7,105.9L145.3,100.8L135.0,96.6Z"/>
  </g>
</svg>