<?xml version="1.0" encoding="UTF-8"?>
<svg xmlns="http://www.w3.org/2000/svg" viewBox="0 0 600 498" id="wtc-state-map-TX" role="img" aria-label="tx county map">
  <title>tx Counties</title>
  <g class="wtc-counties">
    <path class="wtc-county" id="wtc-county-anderson" data-county="Anderson" d="M453.5,221.2L453.1,222.2L454.5,223.0L455.4,224.7L454.5,226.2L456.6,226.1L455.7,227.4L456.4,227.8L456.1,229.5L460.2,230.7L460.1,232.8L463.1,233.8L463.6,235.9L464.3,236.7L464.7,235.0L465.5,234.6L466.5,236.0L465.8,237.3L466.2,238.4L465.0,238.4L465.4,240.3L468.9,239.4L468.7,238.8L483.2,236.9L483.0,234.4L480.6,231.5L478.2,230.5L478.5,229.5L477.8,227.6L476.5,227.3L477.4,224.2L476.3,222.9L477.4,220.7L477.3,218.2L453.5,221.2Z"/>
    <path class="wtc-county" id="wtc-county-andrews" data-county="Andrews" d="M186.4,201.5L186.4,218.1L196.5,218.1L216.1,218.1L218.9,218.1L218.9,201.5L186.4,201.5Z"/>
    <path class="wtc-county" id="wtc-county-angelina" data-county="Angelina" d="M493.4,243.2L495.2,244.7L495.1,246.2L497.4,247.0L498.2,248.7L497.4,249.7L498.9,250.5L498.7,251.8L499.6,253.9L503.5,255.5L508.0,256.2L510.2,257.2L514.2,258.2L526.6,255.7L524.3,254.3L522.1,252.3L519.2,250.9L517.1,249.0L516.5,248.0L514.5,247.2L512.7,244.0L510.9,244.1L510.9,243.0L505.4,242.3L500.2,241.1L498.6,239.4L493.4,243.2Z"/>
    <path class="wtc-county" id="wtc-county-aransas" data-county="Aransas" d="M414.4,376.9L415.8,379.9L417.3,377.2L419.3,374.8L423.0,371.4L424.1,368.4L420.4,370.1L418.0,374.3L416.7,375.8L414.4,376.9ZM425.3,361.6L412.6,363.4L412.6,364.1L416.3,366.7L416.3,368.1L418.8,369.0L419.9,369.0L422.2,367.0L424.7,365.4L425.1,363.3L425.3,361.6ZM409.2,370.8L407.4,370.8L412.2,377.4L415.5,372.9L416.5,372.1L415.4,369.7L412.1,371.6L409.2,370.8Z"/>
    <path class="wtc-county" id="wtc-county-archer" data-county="Archer" d="M343.1,151.5L342.9,168.2L363.3,168.2L363.3,165.5L363.1,151.5L343.1,151.5Z"/>
    <path class="wtc-county" id="wtc-county-armstrong" data-county="Armstrong" d="M241.4,100.2L241.1,116.7L247.1,116.8L261.6,116.7L261.7,100.2L241.4,100.2Z"/>
    <path class="wtc-county" id="wtc-county-atascosa" data-county="Atascosa" d="M348.7,326.1L348.7,332.2L348.8,349.0L348.8,349.1L366.6,349.0L366.6,350.4L375.6,343.7L372.0,340.1L363.8,331.3L348.7,326.1Z"/>
    <path class="wtc-county" id="wtc-county-austin" data-county="Austin" d="M449.9,294.9L449.4,295.5L445.6,294.7L444.5,293.9L435.7,295.1L433.1,295.1L431.8,295.8L433.8,299.0L435.0,301.1L439.7,304.2L442.4,304.0L444.1,307.6L445.2,308.3L445.6,310.1L447.9,310.6L448.9,311.5L451.3,311.9L452.1,312.7L454.5,312.7L455.0,308.2L454.2,307.9L453.6,305.0L451.6,304.8L450.9,303.8L451.9,302.3L450.6,301.4L450.8,298.8L452.3,297.4L449.9,294.9Z"/>
    <path class="wtc-county" id="wtc-county-bailey" data-county="Bailey" d="M187.1,151.9L203.5,151.9L203.5,133.3L187.2,133.3L187.2,133.7L187.2,147.3L187.1,151.9Z"/>
    <path class="wtc-county" id="wtc-county-bandera" data-county="Bandera" d="M318.3,301.1L318.3,311.7L325.6,311.7L341.1,311.9L342.1,312.3L341.8,314.1L344.0,314.2L348.5,309.3L349.6,308.2L344.3,305.9L334.4,301.5L330.6,301.2L318.3,301.1Z"/>
    <path class="wtc-county" id="wtc-county-bastrop" data-county="Bastrop" d="M403.3,281.6L398.6,289.7L392.7,295.0L405.4,305.7L416.5,295.6L414.3,287.7L409.8,284.7L404.7,282.2L403.3,281.6Z"/>
    <path class="wtc-county" id="wtc-county-baylor" data-county="Baylor" d="M323.1,151.5L323.1,155.4L323.2,168.1L342.9,168.2L343.1,151.5L323.1,151.5Z"/>
    <path class="wtc-county" id="wtc-county-bee" data-county="Bee" d="M379.1,347.4L375.9,348.5L386.5,366.7L386.2,367.0L395.7,368.8L396.8,367.4L403.1,358.9L401.0,358.0L399.9,358.2L399.1,357.2L396.4,356.6L396.1,354.1L393.6,353.6L392.8,353.9L390.9,353.1L389.5,349.8L387.8,348.3L386.0,348.2L382.6,346.3L379.1,347.4Z"/>
    <path class="wtc-county" id="wtc-county-bell" data-county="Bell" d="M382.8,256.8L382.7,258.1L385.8,263.0L393.6,264.4L405.4,268.9L407.6,263.7L414.7,260.0L406.8,248.8L404.3,250.2L401.4,247.3L382.8,256.8Z"/>
    <path class="wtc-county" id="wtc-county-bexar" data-county="Bexar" d="M348.5,309.3L348.7,315.7L348.7,326.1L363.8,331.3L373.9,319.0L374.2,318.8L374.6,317.4L373.0,317.4L372.9,316.8L370.9,315.7L370.3,314.5L367.9,314.3L367.5,313.0L366.2,312.0L366.2,310.7L364.8,309.9L364.8,308.8L366.4,308.2L363.4,307.2L361.1,307.7L358.6,307.0L357.1,307.4L354.7,307.3L352.6,307.6L351.1,308.3L349.6,308.2L348.5,309.3Z"/>
    <path class="wtc-county" id="wtc-county-blanco" data-county="Blanco" d="M356.7,278.5L356.9,292.3L363.6,299.9L367.9,296.1L372.7,284.0L374.5,281.3L365.9,279.0L363.7,278.4L356.7,278.5Z"/>
    <path class="wtc-county" id="wtc-county-borden" data-county="Borden" d="M238.8,184.8L238.8,201.4L258.4,201.4L258.4,201.3L258.4,184.7L243.8,184.8L238.8,184.8Z"/>
    <path class="wtc-county" id="wtc-county-bosque" data-county="Bosque" d="M384.5,218.1L379.1,220.7L388.2,233.9L391.2,232.4L394.3,237.1L406.9,231.1L405.0,229.4L406.6,228.1L406.6,227.3L405.0,227.4L402.8,226.3L403.6,225.5L400.6,224.1L402.9,222.4L401.1,220.3L398.8,220.7L398.7,219.1L399.5,218.1L398.6,216.5L399.9,214.9L399.2,214.8L397.9,215.2L397.7,216.3L395.8,215.7L395.7,214.7L393.9,213.6L393.4,213.5L384.5,218.1Z"/>
    <path class="wtc-county" id="wtc-county-bowie" data-county="Bowie" d="M503.5,156.4L503.3,156.5L503.1,170.8L503.8,171.5L505.3,171.4L506.8,173.1L508.0,173.9L511.5,173.1L511.9,172.5L515.8,172.5L517.2,173.6L522.8,174.1L522.5,172.9L523.3,172.0L525.3,171.5L526.4,172.1L528.1,171.7L530.0,172.0L530.0,162.7L529.9,162.3L527.7,161.6L526.9,162.3L526.2,161.3L524.6,160.7L523.1,162.2L520.2,161.4L519.8,162.3L518.7,161.7L518.0,162.6L516.6,162.3L516.9,161.1L515.7,161.3L514.2,160.5L514.2,158.7L513.1,159.0L511.9,159.8L509.3,157.4L507.1,157.9L506.9,157.1L504.6,157.1L503.5,156.4Z"/>
    <path class="wtc-county" id="wtc-county-brazoria" data-county="Brazoria" d="M460.2,326.9L461.6,329.0L461.4,331.6L464.4,333.3L463.8,334.0L464.4,336.9L467.9,337.0L468.8,337.9L469.4,339.5L471.0,340.5L471.8,342.0L474.3,342.3L476.9,341.0L478.9,340.7L484.4,336.1L489.0,332.7L489.6,331.0L488.1,332.2L487.3,331.3L487.5,328.4L489.3,328.2L489.7,329.0L491.4,327.9L484.7,317.9L485.3,314.5L483.8,314.5L483.6,313.1L481.0,312.8L480.4,313.3L477.4,313.5L475.9,318.9L472.6,318.9L472.6,320.6L472.0,320.8L471.5,322.7L468.7,324.5L464.8,323.3L463.2,323.9L461.3,325.6L460.2,326.9Z"/>
    <path class="wtc-county" id="wtc-county-brazos" data-county="Brazos" d="M433.8,271.1L432.6,273.1L436.0,273.6L437.0,274.6L439.3,275.2L439.7,277.0L441.7,276.9L442.4,279.5L444.3,280.6L445.2,281.7L444.2,281.8L444.1,283.1L445.3,283.9L447.9,283.0L449.8,283.5L449.5,285.0L451.4,281.5L450.5,278.9L448.3,274.7L449.3,272.5L448.7,270.5L449.3,268.2L448.4,267.2L449.0,266.2L448.7,264.9L447.3,262.8L447.9,262.1L446.3,260.5L442.6,262.5L440.7,264.6L438.1,269.2L433.8,271.1Z"/>
    <path class="wtc-county" id="wtc-county-brewster" data-county="Brewster" d="M158.4,281.8L158.7,325.8L161.3,328.3L164.3,329.6L165.6,329.3L168.9,330.4L172.6,334.0L176.3,334.8L178.2,336.3L180.3,336.0L182.6,336.4L184.5,336.2L185.0,333.4L186.0,332.3L188.3,330.9L189.3,328.7L190.7,328.9L193.1,327.7L193.8,326.4L192.4,325.7L193.1,324.5L193.5,322.2L194.9,322.0L195.6,320.4L195.3,318.7L196.3,316.8L196.1,315.7L197.6,314.8L197.9,312.8L198.9,312.8L198.9,311.2L200.6,309.9L200.4,309.1L201.4,307.4L202.4,307.7L205.4,306.6L206.4,307.0L207.6,305.8L212.2,306.4L213.6,302.8L214.7,302.2L205.4,295.6L172.2,272.2L158.4,281.8Z"/>
    <path class="wtc-county" id="wtc-county-briscoe" data-county="Briscoe" d="M247.1,116.8L247.1,133.3L263.5,133.3L267.1,133.3L267.2,116.7L261.6,116.7L247.1,116.8Z"/>
    <path class="wtc-county" id="wtc-county-brooks" data-county="Brooks" d="M359.3,401.7L360.6,402.9L360.6,406.4L361.5,406.4L361.5,409.7L363.4,409.7L363.1,420.0L367.1,420.1L379.8,420.1L379.8,403.8L379.8,401.9L377.1,401.8L370.4,401.8L359.3,401.7Z"/>
    <path class="wtc-county" id="wtc-county-brown" data-county="Brown" d="M333.8,218.4L333.5,241.7L337.7,241.9L339.6,240.8L340.5,241.6L341.6,241.0L349.6,236.2L350.3,233.3L353.9,232.8L344.1,218.4L336.6,218.3L333.8,218.4Z"/>
    <path class="wtc-county" id="wtc-county-burleson" data-county="Burleson" d="M418.8,276.3L420.4,277.0L422.2,280.1L425.3,282.7L427.1,285.4L429.0,285.3L431.1,286.3L439.4,284.5L443.5,282.9L444.1,283.1L444.2,281.8L445.2,281.7L444.3,280.6L442.4,279.5L441.7,276.9L439.7,277.0L439.3,275.2L437.0,274.6L436.0,273.6L432.6,273.1L433.8,271.1L431.8,269.7L418.8,276.3Z"/>
    <path class="wtc-county" id="wtc-county-burnet" data-county="Burnet" d="M362.6,258.4L361.8,259.2L362.3,261.3L363.6,261.7L362.3,262.4L362.2,264.4L364.9,265.8L362.9,267.5L363.1,269.0L365.2,269.4L363.6,270.7L364.0,271.8L362.6,271.9L364.1,274.7L364.1,276.1L365.9,276.3L365.9,279.0L374.5,281.3L375.6,279.8L374.6,279.1L377.4,273.8L380.8,267.6L385.8,263.0L382.7,258.1L362.6,258.4Z"/>
    <path class="wtc-county" id="wtc-county-caldwell" data-county="Caldwell" d="M390.3,296.6L388.4,298.0L387.2,299.6L383.4,302.0L384.1,302.9L385.0,303.5L385.3,305.2L386.2,305.5L386.9,307.0L387.6,306.7L388.2,308.2L389.3,308.5L389.9,309.7L392.5,310.2L393.2,310.9L394.6,311.6L405.2,305.8L405.4,305.7L392.7,295.0L390.3,296.6Z"/>
    <path class="wtc-county" id="wtc-county-calhoun" data-county="Calhoun" d="M424.7,365.4L425.5,364.2L425.1,363.3L424.7,365.4ZM430.9,346.6L427.9,348.2L423.0,349.5L420.0,351.4L421.1,352.1L421.5,354.4L423.2,355.6L424.5,357.3L425.3,356.7L426.3,358.1L428.6,358.5L428.6,360.4L429.4,361.7L431.8,361.6L433.3,360.3L436.0,359.1L438.2,357.8L439.4,358.3L438.2,359.3L438.7,360.7L435.5,361.4L432.3,363.0L427.5,366.4L425.3,366.5L424.2,367.3L424.1,368.4L423.0,371.4L428.1,367.5L431.4,365.2L438.6,361.6L441.1,358.9L443.1,349.2L443.1,348.0L440.1,348.0L440.2,345.9L439.1,346.9L433.4,346.8L433.1,346.1L430.9,346.6Z"/>
    <path class="wtc-county" id="wtc-county-callahan" data-county="Callahan" d="M317.2,201.8L317.2,218.3L333.8,218.4L336.6,218.3L336.9,201.8L317.9,201.8L317.2,201.8Z"/>
    <path class="wtc-county" id="wtc-county-cameron" data-county="Cameron" d="M408.8,434.2L408.1,434.2L409.8,440.4L410.4,445.2L411.4,446.7L409.9,438.2L408.8,434.2ZM384.6,436.6L384.6,447.2L384.3,447.7L386.9,447.6L388.4,448.7L392.7,449.1L395.1,452.3L396.6,452.4L397.5,454.2L399.5,454.3L400.5,455.6L403.2,456.0L404.0,452.7L406.9,452.3L406.9,451.7L408.7,451.4L411.8,451.7L411.5,447.5L409.9,448.1L409.8,447.0L407.0,446.6L405.9,444.2L406.1,442.2L405.5,441.1L406.8,439.6L406.1,438.6L404.0,434.2L402.5,434.2L400.3,437.5L399.1,437.1L397.5,437.6L397.3,438.5L384.6,436.6Z"/>
    <path class="wtc-county" id="wtc-county-camp" data-county="Camp" d="M487.8,182.8L487.8,187.0L504.2,186.9L502.3,186.1L500.4,184.0L497.6,182.3L496.0,180.5L493.0,180.4L490.0,181.9L488.8,182.0L487.8,182.8Z"/>
    <path class="wtc-county" id="wtc-county-carson" data-county="Carson" d="M241.4,83.5L241.4,100.2L261.7,100.2L261.7,83.6L261.7,83.3L241.4,83.4L241.4,83.5Z"/>
    <path class="wtc-county" id="wtc-county-cass" data-county="Cass" d="M506.8,173.1L506.7,187.9L530.0,187.8L530.0,182.6L530.0,172.0L528.1,171.7L526.4,172.1L525.3,171.5L523.3,172.0L522.5,172.9L522.8,174.1L517.2,173.6L515.8,172.5L511.9,172.5L511.5,173.1L508.0,173.9L506.8,173.1Z"/>
    <path class="wtc-county" id="wtc-county-castro" data-county="Castro" d="M206.9,116.8L206.9,133.3L223.6,133.3L227.0,133.3L227.0,116.7L220.6,116.8L206.9,116.8Z"/>
    <path class="wtc-county" id="wtc-county-chambers" data-county="Chambers" d="M494.2,302.0L494.4,302.6L497.0,304.4L496.8,306.4L495.6,308.3L496.8,309.1L496.1,310.0L496.6,310.6L498.6,309.8L499.2,308.2L500.5,306.8L502.8,305.9L503.5,306.6L505.2,306.8L505.2,309.2L504.6,311.8L502.3,314.8L503.4,315.6L510.8,313.8L512.1,315.0L515.6,314.1L515.7,313.2L517.5,312.9L517.5,314.5L518.2,314.2L518.0,301.8L514.7,301.8L494.2,302.0Z"/>
    <path class="wtc-county" id="wtc-county-cherokee" data-county="Cherokee" d="M476.1,216.2L477.3,218.2L477.4,220.7L476.3,222.9L477.4,224.2L476.5,227.3L477.8,227.6L478.5,229.5L478.2,230.5L480.6,231.5L483.0,234.4L483.2,236.9L485.6,237.7L487.1,237.3L488.1,238.9L489.7,239.7L489.7,241.6L491.1,241.5L493.4,243.2L498.6,239.4L497.6,238.9L497.6,237.5L496.4,237.4L496.1,235.8L494.8,232.9L494.8,230.7L496.3,230.3L494.6,229.7L495.9,227.3L494.1,227.2L494.1,216.1L476.1,216.2Z"/>
    <path class="wtc-county" id="wtc-county-childress" data-county="Childress" d="M287.3,116.8L287.3,133.3L303.3,133.4L303.3,123.9L303.1,116.8L287.3,116.8Z"/>
    <path class="wtc-county" id="wtc-county-clay" data-county="Clay" d="M363.1,142.0L363.1,151.5L363.3,165.5L380.1,165.5L380.1,149.4L381.1,147.6L380.4,147.6L381.3,145.7L380.4,145.0L378.6,145.5L376.0,145.1L374.6,142.1L375.7,141.0L375.2,139.3L373.9,139.8L372.9,140.9L370.1,140.2L368.1,140.2L365.5,139.2L363.1,142.0Z"/>
    <path class="wtc-county" id="wtc-county-cochran" data-county="Cochran" d="M186.7,168.5L204.3,168.5L203.5,151.9L187.1,151.9L186.8,161.6L186.7,168.5Z"/>
    <path class="wtc-county" id="wtc-county-coke" data-county="Coke" d="M271.8,218.1L271.7,233.0L294.1,233.1L294.1,218.3L277.9,218.1L271.8,218.1Z"/>
    <path class="wtc-county" id="wtc-county-coleman" data-county="Coleman" d="M313.7,237.5L316.4,239.4L315.4,240.5L317.4,241.7L318.3,240.7L320.8,241.1L321.7,243.3L322.4,242.6L323.2,243.4L324.6,242.5L324.3,241.4L325.8,242.5L329.3,243.9L329.7,243.0L332.1,241.1L333.5,241.7L333.8,218.4L317.2,218.3L314.1,218.3L313.7,237.5Z"/>
    <path class="wtc-county" id="wtc-county-collin" data-county="Collin" d="M423.7,167.9L423.3,183.8L435.7,184.0L444.2,184.0L444.2,169.9L440.8,170.3L440.8,168.2L423.7,167.9Z"/>
    <path class="wtc-county" id="wtc-county-collingsworth" data-county="Collingsworth" d="M282.6,100.2L282.5,116.7L287.3,116.8L303.1,116.8L303.1,106.0L303.1,100.2L282.6,100.2Z"/>
    <path class="wtc-county" id="wtc-county-colorado" data-county="Colorado" d="M422.2,311.6L423.3,312.1L423.7,313.7L425.2,313.6L434.1,322.9L430.4,325.6L431.1,326.2L442.2,320.2L443.8,316.0L448.9,311.5L447.9,310.6L445.6,310.1L445.2,308.3L444.1,307.6L442.4,304.0L439.7,304.2L435.0,301.1L433.8,299.0L428.2,305.4L422.2,311.6Z"/>
    <path class="wtc-county" id="wtc-county-comal" data-county="Comal" d="M354.7,307.3L357.1,307.4L358.6,307.0L361.1,307.7L363.4,307.2L366.4,308.2L364.8,308.8L364.8,309.9L366.2,310.7L366.2,312.0L367.5,313.0L375.9,309.6L379.3,307.0L378.2,303.3L367.9,296.1L363.6,299.9L354.7,307.3Z"/>
    <path class="wtc-county" id="wtc-county-comanche" data-county="Comanche" d="M344.1,218.4L353.9,232.8L360.6,231.9L361.6,233.4L373.4,227.4L371.4,224.5L369.7,222.1L366.8,223.6L358.4,211.4L344.1,218.4Z"/>
    <path class="wtc-county" id="wtc-county-concho" data-county="Concho" d="M298.9,237.4L298.8,256.1L318.2,256.1L318.3,240.7L317.4,241.7L315.4,240.5L316.4,239.4L313.7,237.5L298.9,237.4Z"/>
    <path class="wtc-county" id="wtc-county-cooke" data-county="Cooke" d="M399.0,148.4L398.8,166.8L402.8,166.9L419.5,167.4L419.5,147.2L417.6,147.2L418.0,149.6L415.8,151.4L414.0,150.8L415.5,152.2L413.7,152.9L414.1,155.0L412.6,156.0L411.1,155.5L409.5,152.5L410.9,151.5L410.6,149.3L409.3,148.4L408.0,149.0L407.7,150.4L405.9,149.8L404.7,150.0L403.2,152.1L400.5,151.9L399.8,151.0L399.9,148.9L399.0,148.4Z"/>
    <path class="wtc-county" id="wtc-county-coryell" data-county="Coryell" d="M372.4,241.8L382.8,256.8L401.4,247.3L394.3,237.1L391.2,232.4L388.2,233.9L372.4,241.8Z"/>
    <path class="wtc-county" id="wtc-county-cottle" data-county="Cottle" d="M283.5,133.3L283.3,151.5L301.2,151.5L301.4,136.5L302.7,136.0L303.3,136.7L303.3,133.4L287.3,133.3L283.5,133.3Z"/>
    <path class="wtc-county" id="wtc-county-crane" data-county="Crane" d="M197.8,234.6L197.8,248.3L198.3,248.8L201.2,246.9L204.9,249.1L207.9,249.8L210.6,252.1L210.6,254.6L212.1,256.1L215.5,256.2L215.3,251.9L214.8,234.7L197.8,234.6Z"/>
    <path class="wtc-county" id="wtc-county-crockett" data-county="Crockett" d="M212.1,256.1L214.7,257.1L215.9,258.1L219.4,258.3L221.7,259.7L223.9,260.0L225.1,259.3L226.5,260.3L227.3,259.9L228.8,261.2L231.8,262.8L231.1,263.6L232.3,264.3L233.4,267.0L233.3,268.7L234.0,268.9L234.3,270.9L235.5,271.6L235.8,272.7L237.9,272.6L240.3,273.9L239.7,275.1L240.4,276.2L239.2,277.7L238.4,280.1L236.9,281.5L238.4,282.2L239.6,284.6L238.4,284.4L237.0,285.1L236.2,286.6L264.9,286.6L266.5,286.6L266.5,270.7L266.5,256.3L254.6,256.5L235.5,256.4L215.5,256.2L212.1,256.1Z"/>
    <path class="wtc-county" id="wtc-county-crosby" data-county="Crosby" d="M243.5,151.7L243.8,168.3L263.6,168.2L263.5,151.5L243.5,151.7Z"/>
    <path class="wtc-county" id="wtc-county-culberson" data-county="Culberson" d="M115.9,221.4L115.9,228.5L116.2,259.5L116.3,265.7L115.9,265.7L115.9,272.3L146.9,255.4L149.9,221.4L130.5,221.4L118.5,221.4L115.9,221.4Z"/>
    <path class="wtc-county" id="wtc-county-dallam" data-county="Dallam" d="M188.7,50.0L187.2,50.0L187.4,57.0L187.4,66.9L220.7,66.9L220.7,50.0L188.7,50.0Z"/>
    <path class="wtc-county" id="wtc-county-dallas" data-county="Dallas" d="M416.2,183.7L415.9,200.5L435.3,200.6L435.6,200.6L435.7,190.4L435.7,184.0L423.3,183.8L416.2,183.7Z"/>
    <path class="wtc-county" id="wtc-county-dawson" data-county="Dawson" d="M219.1,184.9L219.2,201.5L238.8,201.4L238.8,184.8L224.1,184.8L219.1,184.9Z"/>
    <path class="wtc-county" id="wtc-county-deaf-smith" data-county="Deaf Smith" d="M187.2,100.2L187.2,108.9L187.2,116.8L206.9,116.8L220.6,116.8L220.6,100.2L187.2,100.2Z"/>
    <path class="wtc-county" id="wtc-county-delta" data-county="Delta" d="M460.9,167.7L460.7,175.0L463.6,173.6L465.7,171.7L467.9,171.8L471.3,169.6L474.4,170.1L478.2,169.1L480.4,169.5L481.8,169.0L481.9,168.9L481.8,168.8L477.7,167.6L474.8,166.0L473.5,166.3L472.0,165.1L469.1,164.8L467.6,165.4L464.6,164.4L462.1,165.8L460.9,165.7L460.9,167.7Z"/>
    <path class="wtc-county" id="wtc-county-denton" data-county="Denton" d="M402.8,166.9L402.4,176.3L402.2,183.6L416.2,183.7L423.3,183.8L423.7,167.9L419.5,167.4L402.8,166.9Z"/>
    <path class="wtc-county" id="wtc-county-dewitt" data-county="DeWitt" d="M394.0,331.4L388.6,335.4L395.5,342.7L401.4,338.5L404.4,339.6L405.8,340.8L418.2,331.7L408.3,321.0L404.6,323.6L394.0,331.4Z"/>
    <path class="wtc-county" id="wtc-county-dickens" data-county="Dickens" d="M263.5,151.5L263.6,168.2L283.5,168.2L283.3,151.5L263.5,151.5Z"/>
    <path class="wtc-county" id="wtc-county-dimmit" data-county="Dimmit" d="M298.8,349.0L298.8,366.2L326.2,365.9L326.1,364.1L326.1,349.3L325.7,349.3L298.8,349.0Z"/>
    <path class="wtc-county" id="wtc-county-donley" data-county="Donley" d="M261.7,100.2L261.6,116.7L267.2,116.7L282.5,116.7L282.6,100.2L261.7,100.2Z"/>
    <path class="wtc-county" id="wtc-county-duval" data-county="Duval" d="M348.7,371.5L348.9,398.3L356.9,398.1L359.5,398.7L359.3,401.7L370.4,401.8L370.4,371.5L366.6,371.5L348.7,371.5Z"/>
    <path class="wtc-county" id="wtc-county-eastland" data-county="Eastland" d="M336.9,201.8L336.6,218.3L344.1,218.4L358.4,211.4L361.2,210.0L361.2,201.9L357.4,201.8L337.6,201.8L336.9,201.8Z"/>
    <path class="wtc-county" id="wtc-county-ector" data-county="Ector" d="M196.5,218.1L196.5,234.6L197.8,234.6L214.8,234.7L216.1,234.7L216.1,218.1L196.5,218.1Z"/>
    <path class="wtc-county" id="wtc-county-edwards" data-county="Edwards" d="M276.5,286.6L276.5,311.9L298.9,311.9L302.6,311.9L302.5,309.9L300.7,308.5L302.2,308.1L301.8,306.0L302.6,305.4L301.9,303.3L303.0,301.5L303.6,296.6L304.1,296.6L304.4,294.4L312.3,294.7L312.4,286.5L298.8,286.5L276.5,286.6Z"/>
    <path class="wtc-county" id="wtc-county-ellis" data-county="Ellis" d="M414.1,200.5L414.1,211.3L419.6,219.4L421.4,218.6L440.4,209.1L440.9,208.9L438.2,207.7L438.9,205.7L437.4,204.8L436.0,203.0L436.3,201.3L435.3,200.6L415.9,200.5L414.1,200.5Z"/>
    <path class="wtc-county" id="wtc-county-el-paso" data-county="El Paso" d="M60.3,221.4L51.1,221.4L51.0,224.7L50.0,225.3L50.4,226.5L51.8,227.3L51.6,228.1L53.8,228.7L54.5,229.6L56.0,231.0L57.5,230.4L60.1,231.6L61.3,232.9L63.1,235.9L63.9,238.1L65.3,238.9L66.8,241.7L71.6,244.3L74.7,244.7L76.2,243.3L76.2,241.2L74.9,241.2L74.7,221.3L60.3,221.4Z"/>
    <path class="wtc-county" id="wtc-county-erath" data-county="Erath" d="M361.2,201.9L361.2,210.0L358.4,211.4L366.8,223.6L369.7,222.1L371.4,224.5L379.1,220.7L384.5,218.1L381.3,212.5L376.7,201.9L361.2,201.9Z"/>
    <path class="wtc-county" id="wtc-county-falls" data-county="Falls" d="M406.8,248.8L414.7,260.0L423.8,255.3L423.8,255.4L432.7,251.1L424.9,239.6L406.8,248.8Z"/>
    <path class="wtc-county" id="wtc-county-fannin" data-county="Fannin" d="M440.8,168.2L440.8,170.3L444.2,169.9L460.9,167.7L460.9,165.7L461.0,151.8L461.3,151.3L457.9,149.5L457.7,150.5L453.6,151.4L451.6,151.0L451.7,151.7L449.8,151.4L448.7,154.4L446.8,154.8L444.2,154.2L443.2,156.8L441.6,156.9L441.1,155.7L440.8,168.2Z"/>
    <path class="wtc-county" id="wtc-county-fayette" data-county="Fayette" d="M405.4,305.7L405.2,305.8L412.4,311.1L411.9,311.7L422.2,311.6L428.2,305.4L433.8,299.0L431.8,295.8L430.8,292.0L429.4,291.8L426.3,292.3L425.2,291.4L423.3,293.1L416.6,296.3L416.5,295.6L405.4,305.7Z"/>
    <path class="wtc-county" id="wtc-county-fisher" data-county="Fisher" d="M278.1,184.7L278.0,201.4L297.5,201.5L297.7,184.8L283.3,184.7L278.1,184.7Z"/>
    <path class="wtc-county" id="wtc-county-floyd" data-county="Floyd" d="M243.5,133.3L243.5,151.7L263.5,151.5L263.5,133.3L247.1,133.3L243.5,133.3Z"/>
    <path class="wtc-county" id="wtc-county-foard" data-county="Foard" d="M303.3,136.7L302.7,136.0L301.4,136.5L301.2,151.5L303.3,151.5L309.4,151.5L309.6,152.2L312.4,152.0L314.5,152.9L314.8,151.8L317.1,152.3L318.3,153.3L319.3,152.7L321.3,154.0L322.4,154.1L323.1,155.4L323.1,151.5L323.1,142.0L322.6,142.7L320.9,142.4L320.4,143.1L317.5,141.6L315.6,141.9L312.7,141.4L311.8,141.7L303.3,136.7Z"/>
    <path class="wtc-county" id="wtc-county-fort-bend" data-county="Fort Bend" d="M452.1,312.7L453.2,313.2L453.9,315.1L453.4,316.1L454.6,316.5L453.2,317.6L456.5,320.0L457.5,321.4L457.5,322.9L459.5,323.6L460.2,325.5L461.3,325.6L463.2,323.9L464.8,323.3L468.7,324.5L471.5,322.7L472.0,320.8L472.6,320.6L472.6,318.9L475.9,318.9L477.4,313.5L470.7,310.5L462.1,305.6L456.5,307.9L454.2,307.9L455.0,308.2L454.5,312.7L452.1,312.7Z"/>
    <path class="wtc-county" id="wtc-county-franklin" data-county="Franklin" d="M481.8,169.0L481.8,184.7L487.0,184.8L487.8,182.8L488.8,182.0L488.8,168.5L483.8,169.3L481.9,168.9L481.8,169.0Z"/>
    <path class="wtc-county" id="wtc-county-freestone" data-county="Freestone" d="M436.6,229.1L446.4,243.7L463.6,235.9L463.1,233.8L460.1,232.8L460.2,230.7L456.1,229.5L456.4,227.8L455.7,227.4L456.6,226.1L454.5,226.2L455.4,224.7L454.5,223.0L453.1,222.2L453.5,221.2L453.4,220.9L436.6,229.1Z"/>
    <path class="wtc-county" id="wtc-county-frio" data-county="Frio" d="M325.4,332.2L325.7,349.3L326.1,349.3L348.8,349.0L348.7,332.2L325.4,332.2Z"/>
    <path class="wtc-county" id="wtc-county-gaines" data-county="Gaines" d="M186.4,184.8L186.4,201.5L218.9,201.5L219.2,201.5L219.1,184.9L204.3,184.9L186.4,184.8Z"/>
    <path class="wtc-county" id="wtc-county-galveston" data-county="Galveston" d="M512.1,315.0L512.8,315.6L511.3,315.9L510.1,315.4L509.0,316.9L507.8,317.5L506.0,317.5L504.8,319.0L501.7,321.3L503.8,321.6L505.2,319.8L509.0,317.8L517.5,314.5L517.5,312.9L515.7,313.2L515.6,314.1L512.1,315.0ZM489.6,331.0L489.0,332.7L492.6,330.0L501.1,325.0L503.8,323.0L500.2,322.5L500.2,324.0L498.2,324.7L493.8,328.0L493.4,328.6L489.6,331.0ZM485.3,314.5L484.7,317.9L491.4,327.9L495.3,324.6L496.6,324.9L497.6,323.9L497.9,321.7L497.6,319.1L496.1,318.5L497.0,316.7L494.2,316.2L492.9,314.5L491.1,314.4L490.1,315.4L489.6,316.2L487.3,316.7L485.3,314.5Z"/>
    <path class="wtc-county" id="wtc-county-garza" data-county="Garza" d="M243.8,168.3L243.8,184.8L258.4,184.7L263.6,184.4L263.6,168.2L243.8,168.3Z"/>
    <path class="wtc-county" id="wtc-county-gillespie" data-county="Gillespie" d="M329.7,278.5L329.7,286.6L329.8,292.4L344.3,292.3L356.9,292.3L356.7,278.5L342.6,278.6L329.7,278.5Z"/>
    <path class="wtc-county" id="wtc-county-glasscock" data-county="Glasscock" d="M235.5,218.1L235.5,234.7L254.9,234.7L255.0,218.1L238.6,218.1L235.5,218.1Z"/>
    <path class="wtc-county" id="wtc-county-goliad" data-county="Goliad" d="M387.8,348.3L389.5,349.8L390.9,353.1L392.8,353.9L393.6,353.6L396.1,354.1L396.4,356.6L399.1,357.2L399.9,358.2L401.0,358.0L403.1,358.9L411.3,352.6L411.5,352.0L410.4,350.5L411.3,344.2L410.3,342.0L408.5,340.8L405.8,341.5L405.8,340.8L404.4,339.6L401.4,338.5L395.5,342.7L387.8,348.3Z"/>
    <path class="wtc-county" id="wtc-county-gonzales" data-county="Gonzales" d="M385.4,321.3L384.7,322.2L389.7,327.2L394.0,331.4L404.6,323.6L408.3,321.0L409.6,316.3L409.6,313.5L411.9,311.7L412.4,311.1L405.2,305.8L394.6,311.6L393.2,310.9L385.4,321.3Z"/>
    <path class="wtc-county" id="wtc-county-gray" data-county="Gray" d="M261.7,83.6L261.7,100.2L282.6,100.2L282.5,83.6L261.7,83.6Z"/>
    <path class="wtc-county" id="wtc-county-grayson" data-county="Grayson" d="M419.5,147.2L419.5,167.4L423.7,167.9L440.8,168.2L441.1,155.7L439.1,153.6L436.3,153.8L435.2,152.0L433.7,152.1L431.5,151.1L433.0,149.2L429.7,148.7L428.6,151.5L426.2,151.8L425.6,150.4L423.8,150.0L423.0,151.1L421.8,150.2L421.0,147.1L419.9,147.0L419.5,147.2Z"/>
    <path class="wtc-county" id="wtc-county-gregg" data-county="Gregg" d="M494.1,200.9L494.1,207.3L507.4,207.3L508.7,207.7L509.5,206.3L507.2,206.2L504.9,205.3L504.9,196.6L503.3,196.0L500.4,198.9L494.5,201.0L494.1,200.9Z"/>
    <path class="wtc-county" id="wtc-county-grimes" data-county="Grimes" d="M449.0,266.2L448.4,267.2L449.3,268.2L448.7,270.5L449.3,272.5L448.3,274.7L450.5,278.9L451.4,281.5L449.5,285.0L452.1,286.6L451.9,289.0L452.1,288.8L462.9,288.2L462.9,284.7L462.0,273.5L460.7,264.6L449.0,266.2Z"/>
    <path class="wtc-county" id="wtc-county-guadalupe" data-county="Guadalupe" d="M367.5,313.0L367.9,314.3L370.3,314.5L370.9,315.7L372.9,316.8L373.0,317.4L374.6,317.4L374.2,318.8L374.6,321.2L385.4,321.3L393.2,310.9L392.5,310.2L389.9,309.7L389.3,308.5L388.2,308.2L387.6,306.7L386.9,307.0L386.2,305.5L385.3,305.2L385.0,303.5L384.1,302.9L379.3,307.0L375.9,309.6L367.5,313.0Z"/>
    <path class="wtc-county" id="wtc-county-hale" data-county="Hale" d="M223.6,133.3L223.7,151.9L243.5,151.7L243.5,133.3L227.0,133.3L223.6,133.3Z"/>
    <path class="wtc-county" id="wtc-county-hall" data-county="Hall" d="M267.2,116.7L267.1,133.3L283.5,133.3L287.3,133.3L287.3,116.8L282.5,116.7L267.2,116.7Z"/>
    <path class="wtc-county" id="wtc-county-hamilton" data-county="Hamilton" d="M361.6,233.4L369.0,243.6L372.4,241.8L388.2,233.9L379.1,220.7L371.4,224.5L373.4,227.4L361.6,233.4Z"/>
    <path class="wtc-county" id="wtc-county-hansford" data-county="Hansford" d="M241.4,50.0L241.4,66.9L261.7,66.9L261.7,66.9L261.9,50.0L241.4,50.0Z"/>
    <path class="wtc-county" id="wtc-county-hardeman" data-county="Hardeman" d="M303.3,133.4L303.3,136.7L311.8,141.7L312.7,141.4L315.6,141.9L317.5,141.6L320.4,143.1L320.9,142.4L322.6,142.7L323.1,142.0L323.1,130.1L321.5,129.4L319.1,129.4L318.3,131.0L314.2,130.5L310.9,127.9L309.0,125.9L305.9,123.2L303.3,123.9L303.3,133.4Z"/>
    <path class="wtc-county" id="wtc-county-hardin" data-county="Hardin" d="M503.7,278.9L508.9,293.3L514.7,293.2L516.4,293.9L520.5,293.1L521.2,291.1L522.7,291.2L524.8,290.4L527.2,291.4L528.1,289.8L527.2,288.4L528.0,287.7L527.0,286.8L528.4,284.5L527.0,281.3L529.0,277.5L510.9,277.5L511.2,278.8L503.7,278.9Z"/>
    <path class="wtc-county" id="wtc-county-harris" data-county="Harris" d="M462.9,294.1L462.0,294.4L460.2,292.9L458.8,292.7L456.9,291.3L462.1,305.6L470.7,310.5L477.4,313.5L480.4,313.3L481.0,312.8L483.6,313.1L483.8,314.5L485.3,314.5L487.3,316.7L489.6,316.2L490.1,315.4L491.1,314.4L492.9,314.5L494.2,312.7L493.0,311.7L493.3,310.5L494.8,309.0L496.1,310.0L496.8,309.1L495.6,308.3L496.8,306.4L497.0,304.4L494.4,302.6L494.2,302.0L493.5,300.6L494.1,298.6L492.3,297.8L489.9,291.2L484.0,295.9L482.3,296.5L477.4,293.2L475.5,293.6L474.4,292.1L472.5,291.0L471.0,292.4L469.9,292.4L468.0,293.7L464.6,294.2L462.9,294.1Z"/>
    <path class="wtc-county" id="wtc-county-harrison" data-county="Harrison" d="M504.9,191.2L504.9,196.6L504.9,205.3L507.2,206.2L509.5,206.3L510.5,205.9L511.9,206.6L513.0,206.4L514.9,207.6L517.1,207.4L518.3,209.0L530.0,206.4L530.0,195.0L528.7,195.2L527.4,194.2L528.1,193.6L526.5,193.2L525.1,194.6L523.1,194.4L522.7,193.1L521.0,192.8L520.5,193.7L516.6,195.0L512.4,195.0L504.9,191.2Z"/>
    <path class="wtc-county" id="wtc-county-hartley" data-county="Hartley" d="M187.4,66.9L187.4,79.0L187.4,83.4L220.7,83.2L220.7,66.9L187.4,66.9Z"/>
    <path class="wtc-county" id="wtc-county-haskell" data-county="Haskell" d="M303.4,168.2L303.6,184.8L317.9,184.9L323.2,184.9L323.2,168.1L303.4,168.2Z"/>
    <path class="wtc-county" id="wtc-county-hays" data-county="Hays" d="M372.7,284.0L367.9,296.1L378.2,303.3L379.3,307.0L384.1,302.9L383.4,302.0L387.2,299.6L388.4,298.0L390.3,296.6L372.7,284.0Z"/>
    <path class="wtc-county" id="wtc-county-hemphill" data-county="Hemphill" d="M282.5,66.9L282.5,83.6L303.1,83.6L303.1,73.6L303.1,66.9L282.5,66.9Z"/>
    <path class="wtc-county" id="wtc-county-henderson" data-county="Henderson" d="M438.2,207.7L440.9,208.9L443.5,209.8L444.6,211.6L446.5,211.9L447.9,213.5L449.5,213.2L448.7,214.5L449.1,215.3L451.2,215.3L451.4,218.5L453.0,218.1L453.4,220.9L453.5,221.2L477.3,218.2L476.1,216.2L475.4,215.8L475.9,213.7L475.0,212.4L476.5,210.1L476.5,207.8L452.5,207.8L438.2,207.7Z"/>
    <path class="wtc-county" id="wtc-county-hidalgo" data-county="Hidalgo" d="M367.1,420.1L364.2,426.1L360.6,432.9L357.0,440.2L360.4,441.8L361.6,441.4L364.5,443.9L366.6,443.8L367.0,445.3L369.2,445.3L368.8,446.1L369.8,447.1L371.8,447.7L372.6,447.0L373.7,447.7L376.4,447.3L377.8,448.3L378.2,447.4L380.0,447.3L380.5,447.9L383.7,447.4L384.3,447.7L384.6,447.2L384.6,436.6L384.6,433.4L379.1,432.8L380.9,426.6L379.8,426.4L379.8,420.1L367.1,420.1Z"/>
    <path class="wtc-county" id="wtc-county-hill" data-county="Hill" d="M399.2,214.8L399.9,214.9L398.6,216.5L399.5,218.1L398.7,219.1L398.8,220.7L401.1,220.3L402.9,222.4L400.6,224.1L403.6,225.5L402.8,226.3L405.0,227.4L406.6,227.3L406.6,228.1L405.0,229.4L406.9,231.1L415.9,226.6L420.0,232.5L428.1,228.4L421.4,218.6L419.6,219.4L414.1,211.3L399.2,214.5L399.2,214.8Z"/>
    <path class="wtc-county" id="wtc-county-hockley" data-county="Hockley" d="M203.5,151.9L204.3,168.5L224.1,168.5L223.7,151.9L203.5,151.9Z"/>
    <path class="wtc-county" id="wtc-county-hood" data-county="Hood" d="M376.8,200.1L376.7,201.9L381.3,212.5L387.6,209.3L393.9,209.3L393.9,200.2L376.8,200.1Z"/>
    <path class="wtc-county" id="wtc-county-hopkins" data-county="Hopkins" d="M460.7,175.0L460.6,183.3L460.7,184.1L468.1,184.1L468.3,184.8L481.8,184.7L481.8,169.0L480.4,169.5L478.2,169.1L474.4,170.1L471.3,169.6L467.9,171.8L465.7,171.7L463.6,173.6L460.7,175.0Z"/>
    <path class="wtc-county" id="wtc-county-houston" data-county="Houston" d="M465.4,240.3L465.1,242.0L466.5,242.2L467.2,245.2L468.4,245.9L468.5,247.4L465.9,249.1L465.1,252.5L465.8,253.2L464.0,254.3L464.4,255.9L465.9,256.4L468.3,256.3L469.4,258.0L467.6,260.0L469.2,262.3L470.0,262.1L477.0,257.2L495.2,244.7L493.4,243.2L491.1,241.5L489.7,241.6L489.7,239.7L488.1,238.9L487.1,237.3L485.6,237.7L483.2,236.9L468.7,238.8L468.9,239.4L465.4,240.3Z"/>
    <path class="wtc-county" id="wtc-county-howard" data-county="Howard" d="M238.8,201.4L238.6,218.1L255.0,218.1L258.0,218.1L258.4,201.4L238.8,201.4Z"/>
    <path class="wtc-county" id="wtc-county-hudspeth" data-county="Hudspeth" d="M74.7,221.3L74.9,241.2L76.2,241.2L76.2,243.3L74.7,244.7L76.4,245.6L76.9,247.3L79.7,248.5L82.9,251.9L83.2,253.1L84.4,253.2L85.7,254.3L88.1,255.1L89.8,256.3L91.6,259.8L97.6,263.7L97.6,265.0L101.8,266.2L102.8,267.2L104.4,267.0L106.5,268.1L106.9,268.9L108.5,269.3L110.4,271.4L112.5,271.4L113.4,273.6L115.9,272.3L115.9,265.7L116.3,265.7L116.2,259.5L115.9,228.5L115.9,221.4L96.3,221.4L74.7,221.3Z"/>
    <path class="wtc-county" id="wtc-county-hunt" data-county="Hunt" d="M444.2,184.0L444.2,189.3L452.5,189.5L458.0,189.5L456.0,188.0L457.6,184.1L460.7,184.1L460.6,183.3L460.7,175.0L460.9,167.7L444.2,169.9L444.2,184.0Z"/>
    <path class="wtc-county" id="wtc-county-hutchinson" data-county="Hutchinson" d="M241.4,66.9L241.4,83.4L261.7,83.3L261.7,66.9L241.4,66.9Z"/>
    <path class="wtc-county" id="wtc-county-irion" data-county="Irion" d="M254.9,239.4L254.6,256.5L266.5,256.3L276.9,256.2L276.8,239.5L254.9,239.4Z"/>
    <path class="wtc-county" id="wtc-county-jack" data-county="Jack" d="M363.3,168.2L363.0,183.0L377.2,183.2L382.3,183.2L382.4,166.8L380.1,166.8L380.1,165.5L363.3,165.5L363.3,168.2Z"/>
    <path class="wtc-county" id="wtc-county-jackson" data-county="Jackson" d="M419.7,333.2L423.8,334.8L425.3,338.7L427.3,339.7L428.3,341.3L428.1,342.6L430.9,346.6L433.1,346.1L433.4,346.8L439.1,346.9L440.2,345.9L440.1,348.0L443.1,348.0L443.7,337.0L431.1,326.2L430.4,325.6L419.7,333.2Z"/>
    <path class="wtc-county" id="wtc-county-jasper" data-county="Jasper" d="M514.2,258.2L514.5,259.1L518.3,258.0L519.4,258.7L520.7,258.0L521.8,258.8L522.4,260.9L523.9,261.9L523.5,263.3L524.7,265.7L524.7,267.2L526.1,267.6L527.0,271.5L528.1,271.3L529.6,273.5L528.1,275.3L529.0,277.5L527.0,281.3L528.4,284.5L527.0,286.8L528.0,287.7L527.2,288.4L535.4,288.3L536.7,261.5L535.0,253.5L530.2,254.4L530.0,255.0L526.6,255.7L514.2,258.2Z"/>
    <path class="wtc-county" id="wtc-county-jeff-davis" data-county="Jeff Davis" d="M115.9,272.3L113.4,273.6L154.6,281.8L158.4,281.8L172.2,272.2L166.6,268.4L146.9,255.4L115.9,272.3Z"/>
    <path class="wtc-county" id="wtc-county-jefferson" data-county="Jefferson" d="M514.7,293.2L514.7,301.8L518.0,301.8L518.2,314.2L526.5,311.0L531.5,309.7L537.8,309.8L537.8,309.3L535.5,306.3L534.3,305.3L534.6,304.5L537.2,302.7L537.7,299.7L537.0,298.4L531.7,297.1L530.5,296.5L530.5,295.2L528.1,294.4L528.5,292.7L527.2,291.4L524.8,290.4L522.7,291.2L521.2,291.1L520.5,293.1L516.4,293.9L514.7,293.2Z"/>
    <path class="wtc-county" id="wtc-county-jim-hogg" data-county="Jim Hogg" d="M342.9,401.6L342.9,420.0L363.1,420.0L363.4,409.7L361.5,409.7L361.5,406.4L360.6,406.4L360.6,402.9L359.3,401.7L359.5,398.7L356.9,398.1L348.9,398.3L348.9,401.6L342.9,401.6Z"/>
    <path class="wtc-county" id="wtc-county-jim-wells" data-county="Jim Wells" d="M370.4,371.5L370.4,401.8L377.1,401.8L377.1,387.6L381.5,387.6L381.9,382.2L381.7,378.1L386.9,373.9L386.8,372.2L385.4,372.4L383.8,371.6L370.4,371.5Z"/>
    <path class="wtc-county" id="wtc-county-johnson" data-county="Johnson" d="M393.9,200.2L393.9,209.3L393.9,213.6L395.7,214.7L395.8,215.7L397.7,216.3L397.9,215.2L399.2,214.8L399.2,214.5L414.1,211.3L414.1,200.5L396.4,200.2L393.9,200.2Z"/>
    <path class="wtc-county" id="wtc-county-jones" data-county="Jones" d="M297.7,184.8L297.5,201.5L317.2,201.6L317.2,201.8L317.9,201.8L317.9,184.9L303.6,184.8L297.7,184.8Z"/>
    <path class="wtc-county" id="wtc-county-karnes" data-county="Karnes" d="M372.0,340.1L375.6,343.7L379.1,347.4L382.6,346.3L386.0,348.2L387.8,348.3L395.5,342.7L388.6,335.4L394.0,331.4L389.7,327.2L372.0,340.1Z"/>
    <path class="wtc-county" id="wtc-county-kaufman" data-county="Kaufman" d="M435.7,190.4L435.6,200.6L435.3,200.6L436.3,201.3L436.0,203.0L437.4,204.8L438.9,205.7L438.2,207.7L452.5,207.8L452.5,189.5L444.2,189.3L444.2,190.4L435.7,190.4Z"/>
    <path class="wtc-county" id="wtc-county-kendall" data-county="Kendall" d="M344.3,292.3L344.3,305.9L349.6,308.2L351.1,308.3L352.6,307.6L354.7,307.3L363.6,299.9L356.9,292.3L344.3,292.3Z"/>
    <path class="wtc-county" id="wtc-county-kenedy" data-county="Kenedy" d="M403.1,401.2L402.1,407.4L402.2,411.4L402.1,415.9L402.5,419.4L403.7,422.3L405.4,427.0L406.3,427.0L404.2,419.6L403.1,412.9L402.9,409.5L403.2,406.0L404.2,401.2L403.1,401.2ZM379.8,403.8L379.8,420.1L379.8,426.4L380.9,426.6L384.6,427.1L400.6,427.0L399.6,422.8L399.1,419.2L399.6,419.1L400.5,412.3L401.0,405.7L400.6,405.5L401.3,401.7L400.2,401.8L396.8,403.1L393.5,402.5L393.1,401.1L389.7,401.7L387.5,401.0L385.3,402.5L381.2,402.9L379.8,403.8Z"/>
    <path class="wtc-county" id="wtc-county-kent" data-county="Kent" d="M263.6,168.2L263.6,184.4L265.4,184.7L278.1,184.7L283.3,184.7L283.5,168.2L263.6,168.2Z"/>
    <path class="wtc-county" id="wtc-county-kerr" data-county="Kerr" d="M312.4,286.5L312.3,294.7L314.9,294.7L314.9,301.0L318.3,301.1L330.6,301.2L334.4,301.5L344.3,305.9L344.3,292.3L329.8,292.4L329.7,286.6L312.4,286.5Z"/>
    <path class="wtc-county" id="wtc-county-kimble" data-county="Kimble" d="M298.8,270.5L298.8,286.5L312.4,286.5L329.7,286.6L329.7,278.5L322.8,278.5L322.8,270.5L298.8,270.5Z"/>
    <path class="wtc-county" id="wtc-county-king" data-county="King" d="M283.3,151.5L283.5,168.2L303.4,168.2L303.3,151.5L301.2,151.5L283.3,151.5Z"/>
    <path class="wtc-county" id="wtc-county-kinney" data-county="Kinney" d="M272.8,326.4L274.0,328.6L273.6,329.0L276.8,331.2L277.7,332.4L298.9,332.4L298.9,311.9L276.5,311.9L276.5,319.6L276.1,322.8L274.7,323.1L274.7,325.9L272.8,326.4Z"/>
    <path class="wtc-county" id="wtc-county-kleberg" data-county="Kleberg" d="M407.2,389.9L405.8,392.5L403.6,398.4L403.1,401.2L404.2,401.2L406.1,395.5L408.9,389.8L407.2,389.9ZM381.5,387.6L377.1,387.6L377.1,401.8L379.8,401.9L379.8,403.8L381.2,402.9L385.3,402.5L387.5,401.0L389.7,401.7L393.1,401.1L394.2,400.9L396.9,399.0L397.7,398.0L398.8,398.1L398.4,400.0L396.5,400.7L398.0,401.3L399.0,400.4L401.7,399.6L403.3,396.1L403.2,395.6L405.0,390.4L385.4,390.5L384.1,389.4L383.5,388.2L381.5,387.6Z"/>
    <path class="wtc-county" id="wtc-county-knox" data-county="Knox" d="M303.3,151.5L303.4,168.2L323.2,168.1L323.1,155.4L322.4,154.1L321.3,154.0L319.3,152.7L318.3,153.3L317.1,152.3L314.8,151.8L314.5,152.9L312.4,152.0L309.6,152.2L309.4,151.5L303.3,151.5Z"/>
    <path class="wtc-county" id="wtc-county-lamar" data-county="Lamar" d="M461.3,151.3L461.0,151.8L460.9,165.7L462.1,165.8L464.6,164.4L467.6,165.4L469.1,164.8L472.0,165.1L473.5,166.3L474.8,166.0L477.7,167.6L481.8,168.8L481.7,150.0L481.8,149.8L480.6,150.2L475.9,150.1L475.9,149.6L473.0,149.8L472.1,147.8L470.7,147.7L467.4,149.4L464.7,149.3L464.6,150.1L464.2,151.2L463.1,150.5L461.3,151.3Z"/>
    <path class="wtc-county" id="wtc-county-lamb" data-county="Lamb" d="M203.5,133.3L203.5,151.9L223.7,151.9L223.6,133.3L206.9,133.3L203.5,133.3Z"/>
    <path class="wtc-county" id="wtc-county-lampasas" data-county="Lampasas" d="M357.8,250.7L357.7,251.9L359.9,253.5L358.4,254.8L359.3,256.1L361.0,254.9L361.9,256.5L360.8,257.0L362.6,258.4L382.7,258.1L382.8,256.8L372.4,241.8L369.0,243.6L369.2,243.8L357.8,250.7Z"/>
    <path class="wtc-county" id="wtc-county-la-salle" data-county="La Salle" d="M326.1,349.3L326.1,364.1L326.2,365.9L326.4,372.6L348.7,371.5L348.8,366.0L348.8,349.1L348.8,349.0L326.1,349.3Z"/>
    <path class="wtc-county" id="wtc-county-lavaca" data-county="Lavaca" d="M411.9,311.7L409.6,313.5L409.6,316.3L408.3,321.0L418.2,331.7L419.7,333.2L430.4,325.6L434.1,322.9L425.2,313.6L423.7,313.7L423.3,312.1L422.2,311.6L411.9,311.7Z"/>
    <path class="wtc-county" id="wtc-county-lee" data-county="Lee" d="M404.7,282.2L409.8,284.7L414.3,287.7L416.5,295.6L416.6,296.3L423.3,293.1L425.2,291.4L427.3,290.0L427.5,288.4L429.3,287.8L431.1,286.3L429.0,285.3L427.1,285.4L425.3,282.7L422.2,280.1L420.4,277.0L418.8,276.3L411.5,280.1L404.7,282.2Z"/>
    <path class="wtc-county" id="wtc-county-leon" data-county="Leon" d="M443.2,245.9L442.8,249.9L444.2,252.6L444.2,254.1L445.2,256.5L446.3,257.1L445.6,259.2L446.3,260.5L449.0,259.7L453.6,256.9L456.4,256.0L464.4,255.9L464.0,254.3L465.8,253.2L465.1,252.5L465.9,249.1L468.5,247.4L468.4,245.9L467.2,245.2L466.5,242.2L465.1,242.0L465.4,240.3L465.0,238.4L466.2,238.4L465.8,237.3L466.5,236.0L465.5,234.6L464.7,235.0L464.3,236.7L463.6,235.9L446.4,243.7L443.1,245.2L443.2,245.9Z"/>
    <path class="wtc-county" id="wtc-county-liberty" data-county="Liberty" d="M487.3,284.4L489.9,291.2L492.3,297.8L494.1,298.6L493.5,300.6L494.2,302.0L514.7,301.8L514.7,293.2L508.9,293.3L503.7,278.9L499.3,278.7L499.6,279.0L487.3,284.4Z"/>
    <path class="wtc-county" id="wtc-county-limestone" data-county="Limestone" d="M420.0,232.5L424.9,239.6L432.7,251.1L443.2,245.9L443.1,245.2L446.4,243.7L436.6,229.1L428.1,228.4L420.0,232.5Z"/>
    <path class="wtc-county" id="wtc-county-lipscomb" data-county="Lipscomb" d="M282.4,50.0L282.4,66.9L282.5,66.9L303.1,66.9L303.1,50.0L303.0,50.0L282.4,50.0Z"/>
    <path class="wtc-county" id="wtc-county-live-oak" data-county="Live Oak" d="M366.6,350.4L366.6,371.5L370.4,371.5L383.8,371.6L383.1,371.1L383.0,369.4L386.2,367.0L386.5,366.7L375.9,348.5L379.1,347.4L375.6,343.7L366.6,350.4Z"/>
    <path class="wtc-county" id="wtc-county-llano" data-county="Llano" d="M342.5,262.4L342.6,278.6L356.7,278.5L363.7,278.4L365.9,279.0L365.9,276.3L364.1,276.1L364.1,274.7L362.6,271.9L364.0,271.8L363.6,270.7L365.2,269.4L363.1,269.0L362.9,267.5L364.9,265.8L362.2,264.4L362.3,262.4L342.5,262.4Z"/>
    <path class="wtc-county" id="wtc-county-loving" data-county="Loving" d="M151.6,221.4L152.7,221.9L155.1,226.3L157.3,225.6L158.5,230.1L161.3,231.3L162.5,231.0L163.7,232.4L165.1,232.6L164.8,233.8L165.6,234.6L176.4,234.7L176.4,221.4L161.4,221.4L151.6,221.4Z"/>
    <path class="wtc-county" id="wtc-county-lubbock" data-county="Lubbock" d="M223.7,151.9L224.1,168.5L243.8,168.3L243.5,151.7L223.7,151.9Z"/>
    <path class="wtc-county" id="wtc-county-lynn" data-county="Lynn" d="M224.1,168.5L224.1,184.8L238.8,184.8L243.8,184.8L243.8,168.3L224.1,168.5Z"/>
    <path class="wtc-county" id="wtc-county-mcculloch" data-county="McCulloch" d="M318.2,256.1L318.2,261.7L322.7,261.7L337.7,261.7L337.7,241.9L333.5,241.7L332.1,241.1L329.7,243.0L329.3,243.9L325.8,242.5L324.3,241.4L324.6,242.5L323.2,243.4L322.4,242.6L321.7,243.3L320.8,241.1L318.3,240.7L318.2,256.1Z"/>
    <path class="wtc-county" id="wtc-county-mclennan" data-county="McLennan" d="M406.9,231.1L394.3,237.1L401.4,247.3L404.3,250.2L406.8,248.8L424.9,239.6L420.0,232.5L415.9,226.6L406.9,231.1Z"/>
    <path class="wtc-county" id="wtc-county-mcmullen" data-county="McMullen" d="M348.8,349.1L348.8,366.0L348.7,371.5L366.6,371.5L366.6,350.4L366.6,349.0L348.8,349.1Z"/>
    <path class="wtc-county" id="wtc-county-madison" data-county="Madison" d="M446.3,260.5L447.9,262.1L447.3,262.8L448.7,264.9L449.0,266.2L460.7,264.6L463.6,264.1L466.2,262.8L468.7,263.5L470.0,262.1L469.2,262.3L467.6,260.0L469.4,258.0L468.3,256.3L465.9,256.4L464.4,255.9L456.4,256.0L453.6,256.9L449.0,259.7L446.3,260.5Z"/>
    <path class="wtc-county" id="wtc-county-marion" data-county="Marion" d="M504.8,187.9L504.9,191.2L512.4,195.0L516.6,195.0L520.5,193.7L521.0,192.8L522.7,193.1L523.1,194.4L525.1,194.6L526.5,193.2L528.1,193.6L527.4,194.2L528.7,195.2L530.0,195.0L530.0,187.8L506.7,187.9L504.8,187.9Z"/>
    <path class="wtc-county" id="wtc-county-martin" data-county="Martin" d="M218.9,201.5L218.9,218.1L235.5,218.1L238.6,218.1L238.8,201.4L219.2,201.5L218.9,201.5Z"/>
    <path class="wtc-county" id="wtc-county-mason" data-county="Mason" d="M322.7,261.7L322.8,270.5L322.8,278.5L329.7,278.5L342.6,278.6L342.5,262.4L337.7,262.4L337.7,261.7L322.7,261.7Z"/>
    <path class="wtc-county" id="wtc-county-matagorda" data-county="Matagorda" d="M441.1,358.9L447.1,355.0L455.4,351.3L462.7,348.4L468.4,345.1L474.3,342.3L471.8,342.0L471.0,340.5L469.4,339.5L468.8,337.9L467.9,337.0L464.4,336.9L463.8,334.0L464.4,333.3L461.4,331.6L461.6,329.0L460.2,326.9L456.8,330.0L443.7,337.0L443.1,348.0L443.1,349.2L441.1,358.9Z"/>
    <path class="wtc-county" id="wtc-county-maverick" data-county="Maverick" d="M277.7,332.4L279.1,339.3L280.2,339.4L281.4,342.2L282.2,342.3L282.8,344.7L283.9,345.5L283.6,346.9L284.1,348.5L286.2,349.4L286.1,350.5L288.0,351.4L287.4,352.7L288.7,354.2L290.3,354.6L289.1,355.6L290.3,356.8L289.9,358.4L292.2,361.6L291.9,362.9L293.7,364.8L294.7,364.7L295.1,366.2L298.8,366.2L298.8,349.0L298.9,332.4L277.7,332.4Z"/>
    <path class="wtc-county" id="wtc-county-medina" data-county="Medina" d="M325.6,311.7L325.4,332.2L348.7,332.2L348.7,326.1L348.7,315.7L348.5,309.3L344.0,314.2L341.8,314.1L342.1,312.3L341.1,311.9L325.6,311.7Z"/>
    <path class="wtc-county" id="wtc-county-menard" data-county="Menard" d="M298.8,256.1L298.8,270.5L322.8,270.5L322.7,261.7L318.2,261.7L318.2,256.1L298.8,256.1Z"/>
    <path class="wtc-county" id="wtc-county-midland" data-county="Midland" d="M216.1,218.1L216.1,234.7L235.5,234.7L235.5,218.1L218.9,218.1L216.1,218.1Z"/>
    <path class="wtc-county" id="wtc-county-milam" data-county="Milam" d="M405.4,268.9L407.0,269.5L411.5,280.1L418.8,276.3L431.8,269.7L432.2,268.7L430.8,267.9L431.2,266.9L429.0,264.6L429.4,263.0L427.7,263.3L426.7,262.3L426.2,259.5L425.2,257.0L423.8,255.4L423.8,255.3L414.7,260.0L407.6,263.7L405.4,268.9Z"/>
    <path class="wtc-county" id="wtc-county-mills" data-county="Mills" d="M341.6,241.0L342.5,242.3L344.0,242.9L346.2,242.6L346.7,243.7L349.9,243.8L349.6,245.0L350.7,244.7L351.3,243.1L352.5,244.0L352.2,246.3L354.3,245.4L354.9,246.0L354.7,247.5L357.0,247.2L355.5,249.2L357.3,249.4L357.8,250.7L369.2,243.8L369.0,243.6L361.6,233.4L360.6,231.9L353.9,232.8L350.3,233.3L349.6,236.2L341.6,241.0Z"/>
    <path class="wtc-county" id="wtc-county-mitchell" data-county="Mitchell" d="M258.4,201.4L258.0,218.1L271.8,218.1L277.9,218.1L278.0,201.4L258.4,201.3L258.4,201.4Z"/>
    <path class="wtc-county" id="wtc-county-montague" data-county="Montague" d="M380.1,165.5L380.1,166.8L382.4,166.8L398.8,166.8L399.0,148.4L396.0,149.1L394.6,148.3L395.0,147.0L392.4,145.6L391.2,145.7L389.5,147.6L385.6,150.6L383.9,150.9L380.1,149.4L380.1,165.5Z"/>
    <path class="wtc-county" id="wtc-county-montgomery" data-county="Montgomery" d="M462.0,273.5L462.9,284.7L462.9,288.2L462.9,294.1L464.6,294.2L468.0,293.7L469.9,292.4L471.0,292.4L472.5,291.0L474.4,292.1L475.5,293.6L477.4,293.2L482.3,296.5L484.0,295.9L489.9,291.2L487.3,284.4L484.9,285.4L485.8,284.3L484.5,283.1L481.5,281.8L479.9,278.3L479.7,278.2L470.7,278.2L462.0,273.5Z"/>
    <path class="wtc-county" id="wtc-county-moore" data-county="Moore" d="M220.7,66.9L220.7,83.2L220.7,83.5L241.4,83.5L241.4,83.4L241.4,66.9L220.7,66.9Z"/>
    <path class="wtc-county" id="wtc-county-morris" data-county="Morris" d="M500.8,169.5L500.4,184.0L502.3,186.1L504.2,186.9L504.8,187.9L506.7,187.9L506.8,173.1L505.3,171.4L503.8,171.5L503.1,170.8L502.0,170.7L500.8,169.5Z"/>
    <path class="wtc-county" id="wtc-county-motley" data-county="Motley" d="M263.5,133.3L263.5,151.5L283.3,151.5L283.5,133.3L267.1,133.3L263.5,133.3Z"/>
    <path class="wtc-county" id="wtc-county-nacogdoches" data-county="Nacogdoches" d="M495.9,227.3L494.6,229.7L496.3,230.3L494.8,230.7L494.8,232.9L496.1,235.8L496.4,237.4L497.6,237.5L497.6,238.9L498.6,239.4L500.2,241.1L505.4,242.3L510.9,243.0L510.9,244.1L512.7,244.0L514.5,247.2L516.5,248.0L517.1,249.0L519.2,250.9L518.7,249.4L519.7,247.9L519.1,245.8L519.2,244.2L520.1,243.4L519.4,242.5L520.2,239.4L519.8,237.0L518.3,236.3L516.4,234.6L515.7,232.6L515.4,229.0L514.5,227.3L495.9,227.3Z"/>
    <path class="wtc-county" id="wtc-county-navarro" data-county="Navarro" d="M421.4,218.6L428.1,228.4L436.6,229.1L453.4,220.9L453.0,218.1L451.4,218.5L451.2,215.3L449.1,215.3L448.7,214.5L449.5,213.2L447.9,213.5L446.5,211.9L444.6,211.6L443.5,209.8L440.9,208.9L440.4,209.1L421.4,218.6Z"/>
    <path class="wtc-county" id="wtc-county-newton" data-county="Newton" d="M535.0,253.5L536.7,261.5L535.4,288.3L542.9,288.3L542.8,286.6L540.6,284.9L540.8,282.7L541.5,282.2L543.2,280.8L542.5,277.8L541.5,277.0L541.9,275.7L543.8,274.7L544.1,272.5L545.8,271.7L546.2,269.3L547.4,267.2L548.6,266.1L548.5,264.5L548.5,262.8L549.7,262.1L548.1,260.3L548.2,259.2L550.0,258.6L549.7,256.8L548.6,255.8L549.5,252.4L548.6,252.4L546.9,252.8L535.0,253.5Z"/>
    <path class="wtc-county" id="wtc-county-nolan" data-county="Nolan" d="M278.0,201.4L277.9,218.1L294.1,218.3L297.4,218.3L297.5,201.5L278.0,201.4Z"/>
    <path class="wtc-county" id="wtc-county-nueces" data-county="Nueces" d="M414.4,376.9L412.5,379.8L412.8,381.4L411.7,382.5L410.3,385.4L408.4,387.6L407.2,389.9L408.9,389.8L412.1,384.5L413.9,381.9L415.8,379.9L414.4,376.9ZM386.9,373.9L381.7,378.1L381.9,382.2L381.5,387.6L383.5,388.2L384.1,389.4L385.4,390.5L405.0,390.4L406.2,389.2L406.1,388.4L407.7,385.3L405.4,384.7L403.3,383.6L402.4,382.0L402.9,379.9L401.4,380.4L399.4,380.4L398.1,379.6L395.0,379.2L393.4,377.8L393.1,378.8L391.7,378.2L391.0,376.9L389.8,376.9L387.6,375.7L386.7,376.2L386.2,374.9L386.9,373.9Z"/>
    <path class="wtc-county" id="wtc-county-ochiltree" data-county="Ochiltree" d="M261.9,50.0L261.7,66.9L282.4,66.9L282.4,50.0L266.8,50.0L261.9,50.0Z"/>
    <path class="wtc-county" id="wtc-county-oldham" data-county="Oldham" d="M187.4,83.4L187.2,100.2L220.6,100.2L220.7,83.5L220.7,83.2L187.4,83.4Z"/>
    <path class="wtc-county" id="wtc-county-orange" data-county="Orange" d="M527.2,288.4L528.1,289.8L527.2,291.4L528.5,292.7L528.1,294.4L530.5,295.2L530.5,296.5L531.7,297.1L537.0,298.4L537.7,299.7L537.2,302.7L538.7,300.6L539.6,298.0L541.5,296.7L542.2,295.6L543.0,295.1L541.8,294.4L543.4,292.2L542.2,289.6L542.9,288.3L535.4,288.3L527.2,288.4Z"/>
    <path class="wtc-county" id="wtc-county-palo-pinto" data-county="Palo Pinto" d="M357.4,185.0L357.4,201.8L361.2,201.9L376.7,201.9L376.8,200.1L377.2,183.2L363.0,183.0L363.0,185.1L357.4,185.0Z"/>
    <path class="wtc-county" id="wtc-county-panola" data-county="Panola" d="M513.0,206.4L512.8,207.8L511.5,211.0L510.4,211.9L509.5,213.7L509.5,215.3L508.7,218.3L508.7,222.4L512.1,222.4L531.0,222.1L531.1,222.1L530.0,221.7L530.0,213.9L530.0,206.4L518.3,209.0L517.1,207.4L514.9,207.6L513.0,206.4Z"/>
    <path class="wtc-county" id="wtc-county-parker" data-county="Parker" d="M377.2,183.2L376.8,200.1L393.9,200.2L396.4,200.2L396.6,183.5L382.3,183.2L377.2,183.2Z"/>
    <path class="wtc-county" id="wtc-county-parmer" data-county="Parmer" d="M187.2,133.3L203.5,133.3L206.9,133.3L206.9,116.8L187.2,116.8L187.2,133.3Z"/>
    <path class="wtc-county" id="wtc-county-pecos" data-county="Pecos" d="M166.6,268.4L172.2,272.2L205.4,295.6L205.4,286.8L213.9,286.7L213.9,274.7L221.7,274.8L221.7,272.6L235.8,272.7L235.5,271.6L234.3,270.9L234.0,268.9L233.3,268.7L233.4,267.0L232.3,264.3L231.1,263.6L231.8,262.8L228.8,261.2L227.3,259.9L226.5,260.3L225.1,259.3L223.9,260.0L221.7,259.7L219.4,258.3L215.9,258.1L214.7,257.1L212.1,256.1L210.6,254.6L210.6,252.1L207.9,249.8L204.9,249.1L201.2,246.9L198.3,248.8L197.8,248.3L195.4,249.3L191.5,246.1L188.5,245.3L174.7,260.0L166.6,268.4Z"/>
    <path class="wtc-county" id="wtc-county-polk" data-county="Polk" d="M485.9,266.1L488.5,267.8L487.9,270.4L489.3,271.2L489.6,272.5L491.5,271.6L493.3,274.5L492.5,275.5L494.9,275.6L499.8,277.3L498.6,278.1L499.3,278.7L503.7,278.9L511.2,278.8L510.9,277.5L506.5,259.0L510.2,257.2L508.0,256.2L503.5,255.5L499.6,253.9L495.9,257.9L485.9,266.1Z"/>
    <path class="wtc-county" id="wtc-county-potter" data-county="Potter" d="M220.7,83.5L220.6,100.2L241.4,100.2L241.4,83.5L220.7,83.5Z"/>
    <path class="wtc-county" id="wtc-county-presidio" data-county="Presidio" d="M113.4,273.6L114.0,274.4L115.6,274.5L116.6,275.8L118.3,281.6L118.1,282.7L119.8,283.8L120.0,284.8L121.8,286.1L122.2,287.5L123.7,288.5L124.6,290.7L124.4,292.5L124.8,294.3L123.9,296.6L124.9,298.5L124.9,300.4L126.7,302.5L127.6,304.5L129.3,306.3L130.2,309.9L131.5,311.3L135.6,313.8L136.2,315.0L137.9,315.8L140.8,316.1L142.7,317.6L142.7,318.4L145.3,321.0L146.8,321.4L149.4,323.4L151.7,324.3L157.0,325.0L158.7,325.8L158.4,281.8L154.6,281.8L113.4,273.6Z"/>
    <path class="wtc-county" id="wtc-county-rains" data-county="Rains" d="M460.7,184.1L457.6,184.1L456.0,188.0L458.0,189.5L458.4,190.3L460.6,191.8L463.2,191.9L466.5,193.0L468.4,194.3L469.4,193.9L468.3,184.8L468.1,184.1L460.7,184.1Z"/>
    <path class="wtc-county" id="wtc-county-randall" data-county="Randall" d="M220.6,100.2L220.6,116.8L227.0,116.7L241.1,116.7L241.4,100.2L220.6,100.2Z"/>
    <path class="wtc-county" id="wtc-county-reagan" data-county="Reagan" d="M235.5,234.7L235.5,256.4L254.6,256.5L254.9,239.4L254.9,238.3L254.9,234.7L235.5,234.7Z"/>
    <path class="wtc-county" id="wtc-county-real" data-county="Real" d="M312.3,294.7L304.4,294.4L304.1,296.6L303.6,296.6L303.0,301.5L301.9,303.3L302.6,305.4L301.8,306.0L302.2,308.1L300.7,308.5L302.5,309.9L302.6,311.9L318.3,311.7L318.3,301.1L314.9,301.0L314.9,294.7L312.3,294.7Z"/>
    <path class="wtc-county" id="wtc-county-red-river" data-county="Red River" d="M481.8,149.8L481.7,150.0L481.8,168.8L481.9,168.9L483.8,169.3L488.8,168.5L490.0,168.2L491.6,168.7L492.9,168.4L497.0,168.7L498.3,168.3L500.8,169.5L502.0,170.7L503.1,170.8L503.3,156.5L503.5,156.4L502.2,154.6L500.1,155.1L498.5,154.9L495.6,152.4L494.6,150.5L491.6,150.4L488.9,147.8L487.7,147.6L484.8,146.7L483.8,148.9L481.8,149.8Z"/>
    <path class="wtc-county" id="wtc-county-reeves" data-county="Reeves" d="M149.9,221.4L146.9,255.4L166.6,268.4L174.7,260.0L188.5,245.3L186.7,244.8L186.3,245.6L182.0,245.4L179.6,244.7L178.9,243.2L176.3,243.8L173.8,243.0L171.4,243.1L170.3,242.0L169.7,240.2L170.0,238.5L169.3,237.3L169.5,235.6L168.6,235.0L167.0,235.4L165.6,234.6L164.8,233.8L165.1,232.6L163.7,232.4L162.5,231.0L161.3,231.3L158.5,230.1L157.3,225.6L155.1,226.3L152.7,221.9L151.6,221.4L149.9,221.4Z"/>
    <path class="wtc-county" id="wtc-county-refugio" data-county="Refugio" d="M396.8,367.4L397.6,368.0L399.0,367.3L401.1,369.2L404.3,369.1L405.2,368.5L407.4,370.8L409.2,370.8L411.5,368.6L416.3,366.7L412.6,364.1L412.6,363.4L425.3,361.6L425.3,359.1L426.3,358.1L425.3,356.7L424.5,357.3L423.2,355.6L421.5,354.4L420.6,355.2L418.1,354.7L415.6,352.8L413.9,353.4L413.3,352.6L411.3,352.6L403.1,358.9L396.8,367.4Z"/>
    <path class="wtc-county" id="wtc-county-roberts" data-county="Roberts" d="M261.7,83.3L261.7,83.6L282.5,83.6L282.5,66.9L282.4,66.9L261.7,66.9L261.7,66.9L261.7,83.3Z"/>
    <path class="wtc-county" id="wtc-county-robertson" data-county="Robertson" d="M423.8,255.4L425.2,257.0L426.2,259.5L426.7,262.3L427.7,263.3L429.4,263.0L429.0,264.6L431.2,266.9L430.8,267.9L432.2,268.7L431.8,269.7L433.8,271.1L438.1,269.2L440.7,264.6L442.6,262.5L446.3,260.5L445.6,259.2L446.3,257.1L445.2,256.5L444.2,254.1L444.2,252.6L442.8,249.9L443.2,245.9L432.7,251.1L423.8,255.4Z"/>
    <path class="wtc-county" id="wtc-county-rockwall" data-county="Rockwall" d="M435.7,184.0L435.7,190.4L444.2,190.4L444.2,189.3L444.2,184.0L435.7,184.0Z"/>
    <path class="wtc-county" id="wtc-county-runnels" data-county="Runnels" d="M294.1,218.3L294.1,233.1L294.3,237.3L298.9,237.4L313.7,237.5L314.1,218.3L297.4,218.3L294.1,218.3Z"/>
    <path class="wtc-county" id="wtc-county-rusk" data-county="Rusk" d="M494.1,207.3L494.1,216.1L494.1,227.2L495.9,227.3L514.5,227.3L513.4,225.1L512.1,224.3L512.1,222.4L508.7,222.4L508.7,218.3L509.5,215.3L509.5,213.7L510.4,211.9L511.5,211.0L512.8,207.8L513.0,206.4L511.9,206.6L510.5,205.9L509.5,206.3L508.7,207.7L507.4,207.3L494.1,207.3Z"/>
    <path class="wtc-county" id="wtc-county-sabine" data-county="Sabine" d="M532.2,237.8L532.2,241.7L529.9,243.9L530.7,245.6L529.8,248.2L530.5,250.3L530.2,254.4L535.0,253.5L546.9,252.8L546.0,249.1L545.2,249.2L543.6,247.7L544.4,245.9L544.0,244.3L542.9,243.8L543.0,242.8L541.1,241.6L541.9,240.7L541.5,239.6L539.7,239.4L538.0,237.2L535.5,236.2L532.2,237.8Z"/>
    <path class="wtc-county" id="wtc-county-san-augustine" data-county="San Augustine" d="M516.4,234.6L518.3,236.3L519.8,237.0L520.2,239.4L519.4,242.5L520.1,243.4L519.2,244.2L519.1,245.8L519.7,247.9L518.7,249.4L519.2,250.9L522.1,252.3L524.3,254.3L526.6,255.7L530.0,255.0L530.2,254.4L530.5,250.3L529.8,248.2L530.7,245.6L529.9,243.9L532.2,241.7L532.2,237.8L528.1,235.9L516.4,234.6Z"/>
    <path class="wtc-county" id="wtc-county-san-jacinto" data-county="San Jacinto" d="M479.9,278.3L481.5,281.8L484.5,283.1L485.8,284.3L484.9,285.4L487.3,284.4L499.6,279.0L499.3,278.7L498.6,278.1L499.8,277.3L494.9,275.6L492.5,275.5L493.3,274.5L491.5,271.6L489.6,272.5L489.3,271.2L487.9,270.4L488.5,267.8L485.9,266.1L484.3,264.5L484.0,263.0L481.7,263.4L481.1,264.8L479.9,278.3Z"/>
    <path class="wtc-county" id="wtc-county-san-patricio" data-county="San Patricio" d="M386.2,367.0L383.0,369.4L383.1,371.1L383.8,371.6L385.4,372.4L386.8,372.2L386.9,373.9L386.2,374.9L386.7,376.2L387.6,375.7L389.8,376.9L391.0,376.9L391.7,378.2L393.1,378.8L393.4,377.8L395.0,379.2L398.1,379.6L398.6,378.1L400.1,378.5L404.4,378.2L405.0,378.7L407.8,378.4L408.7,380.2L410.3,380.2L412.2,377.4L407.4,370.8L405.2,368.5L404.3,369.1L401.1,369.2L399.0,367.3L397.6,368.0L396.8,367.4L395.7,368.8L386.2,367.0Z"/>
    <path class="wtc-county" id="wtc-county-san-saba" data-county="San Saba" d="M337.7,261.7L337.7,262.4L342.5,262.4L362.3,262.4L363.6,261.7L362.3,261.3L361.8,259.2L362.6,258.4L360.8,257.0L361.9,256.5L361.0,254.9L359.3,256.1L358.4,254.8L359.9,253.5L357.7,251.9L357.8,250.7L357.3,249.4L355.5,249.2L357.0,247.2L354.7,247.5L354.9,246.0L354.3,245.4L352.2,246.3L352.5,244.0L351.3,243.1L350.7,244.7L349.6,245.0L349.9,243.8L346.7,243.7L346.2,242.6L344.0,242.9L342.5,242.3L341.6,241.0L340.5,241.6L339.6,240.8L337.7,241.9L337.7,261.7Z"/>
    <path class="wtc-county" id="wtc-county-schleicher" data-county="Schleicher" d="M266.5,256.3L266.5,270.7L298.8,270.5L298.8,256.1L276.9,256.2L266.5,256.3Z"/>
    <path class="wtc-county" id="wtc-county-scurry" data-county="Scurry" d="M258.4,184.7L258.4,201.3L278.0,201.4L278.1,184.7L265.4,184.7L263.6,184.4L258.4,184.7Z"/>
    <path class="wtc-county" id="wtc-county-shackelford" data-county="Shackelford" d="M317.9,184.9L317.9,201.8L336.9,201.8L337.6,201.8L337.6,184.9L323.2,184.9L317.9,184.9Z"/>
    <path class="wtc-county" id="wtc-county-shelby" data-county="Shelby" d="M512.1,222.4L512.1,224.3L513.4,225.1L514.5,227.3L515.4,229.0L515.7,232.6L516.4,234.6L528.1,235.9L532.2,237.8L535.5,236.2L538.0,237.2L538.7,235.8L538.2,234.3L539.2,232.9L538.1,231.1L538.4,230.0L536.3,228.2L536.2,227.3L535.1,225.4L532.6,224.4L531.1,222.1L531.0,222.1L512.1,222.4Z"/>
    <path class="wtc-county" id="wtc-county-sherman" data-county="Sherman" d="M220.7,50.0L220.7,66.9L241.4,66.9L241.4,50.0L225.8,50.0L220.7,50.0Z"/>
    <path class="wtc-county" id="wtc-county-smith" data-county="Smith" d="M470.9,195.2L470.9,203.1L474.4,205.8L476.5,207.8L476.5,210.1L475.0,212.4L475.9,213.7L475.4,215.8L476.1,216.2L494.1,216.1L494.1,207.3L494.1,200.9L493.1,201.7L490.5,200.2L488.2,200.4L487.7,199.7L487.3,200.7L485.8,199.6L484.5,200.0L480.4,198.2L478.9,198.5L478.4,198.3L478.2,198.3L478.2,198.4L478.1,198.4L478.1,198.3L478.0,198.3L475.6,198.3L470.9,195.2Z"/>
    <path class="wtc-county" id="wtc-county-somervell" data-county="Somervell" d="M381.3,212.5L384.5,218.1L393.4,213.5L393.9,213.6L393.9,209.3L387.6,209.3L381.3,212.5Z"/>
    <path class="wtc-county" id="wtc-county-starr" data-county="Starr" d="M334.7,428.1L334.9,429.5L336.4,429.9L337.7,431.7L336.9,433.3L338.1,434.8L339.8,434.2L340.9,434.8L342.5,434.7L345.4,436.3L347.8,435.8L348.9,436.2L349.2,437.2L350.6,437.5L352.6,439.8L354.4,440.9L357.0,440.2L360.6,432.9L364.2,426.1L367.1,420.1L363.1,420.0L342.9,420.0L340.7,424.2L334.7,428.1Z"/>
    <path class="wtc-county" id="wtc-county-stephens" data-county="Stephens" d="M337.6,184.9L337.6,201.8L357.4,201.8L357.4,185.0L343.1,184.9L337.6,184.9Z"/>
    <path class="wtc-county" id="wtc-county-sterling" data-county="Sterling" d="M254.9,234.7L254.9,238.3L270.2,238.0L270.3,232.6L271.7,233.0L271.8,218.1L258.0,218.1L255.0,218.1L254.9,234.7Z"/>
    <path class="wtc-county" id="wtc-county-stonewall" data-county="Stonewall" d="M283.5,168.2L283.3,184.7L297.7,184.8L303.6,184.8L303.4,168.2L283.5,168.2Z"/>
    <path class="wtc-county" id="wtc-county-sutton" data-county="Sutton" d="M266.5,270.7L266.5,286.6L276.5,286.6L298.8,286.5L298.8,270.5L266.5,270.7Z"/>
    <path class="wtc-county" id="wtc-county-swisher" data-county="Swisher" d="M227.0,116.7L227.0,133.3L243.5,133.3L247.1,133.3L247.1,116.8L241.1,116.7L227.0,116.7Z"/>
    <path class="wtc-county" id="wtc-county-tarrant" data-county="Tarrant" d="M396.6,183.5L396.4,200.2L414.1,200.5L415.9,200.5L416.2,183.7L402.2,183.6L396.6,183.5Z"/>
    <path class="wtc-county" id="wtc-county-taylor" data-county="Taylor" d="M297.5,201.5L297.4,218.3L314.1,218.3L317.2,218.3L317.2,201.8L317.2,201.6L297.5,201.5Z"/>
    <path class="wtc-county" id="wtc-county-terrell" data-county="Terrell" d="M235.8,272.7L221.7,272.6L221.7,274.8L213.9,274.7L213.9,286.7L205.4,286.8L205.4,295.6L214.7,302.2L218.3,303.5L220.0,303.4L221.5,305.0L225.1,305.7L225.6,305.0L228.0,304.8L229.6,305.6L232.6,305.1L236.0,305.8L236.2,286.6L237.0,285.1L238.4,284.4L239.6,284.6L238.4,282.2L236.9,281.5L238.4,280.1L239.2,277.7L240.4,276.2L239.7,275.1L240.3,273.9L237.9,272.6L235.8,272.7Z"/>
    <path class="wtc-county" id="wtc-county-terry" data-county="Terry" d="M204.3,168.5L204.3,184.9L219.1,184.9L224.1,184.8L224.1,168.5L204.3,168.5Z"/>
    <path class="wtc-county" id="wtc-county-throckmorton" data-county="Throckmorton" d="M323.2,168.1L323.2,184.9L337.6,184.9L343.1,184.9L342.9,168.2L323.2,168.1Z"/>
    <path class="wtc-county" id="wtc-county-titus" data-county="Titus" d="M488.8,168.5L488.8,182.0L490.0,181.9L493.0,180.4L496.0,180.5L497.6,182.3L500.4,184.0L500.8,169.5L498.3,168.3L497.0,168.7L492.9,168.4L491.6,168.7L490.0,168.2L488.8,168.5Z"/>
    <path class="wtc-county" id="wtc-county-tom-green" data-county="Tom Green" d="M254.9,238.3L254.9,239.4L276.8,239.5L276.9,256.2L298.8,256.1L298.9,237.4L294.3,237.3L294.1,233.1L271.7,233.0L270.3,232.6L270.2,238.0L254.9,238.3Z"/>
    <path class="wtc-county" id="wtc-county-travis" data-county="Travis" d="M374.5,281.3L372.7,284.0L390.3,296.6L392.7,295.0L398.6,289.7L403.3,281.6L400.5,280.0L397.9,279.1L396.5,279.5L394.7,278.4L387.9,281.2L385.0,279.6L384.3,276.7L382.6,275.4L382.4,274.5L380.9,273.6L379.7,274.3L379.0,273.7L377.4,273.8L374.6,279.1L375.6,279.8L374.5,281.3Z"/>
    <path class="wtc-county" id="wtc-county-trinity" data-county="Trinity" d="M477.0,257.2L477.0,261.9L479.1,263.8L478.4,264.9L481.1,264.8L481.7,263.4L484.0,263.0L484.3,264.5L485.9,266.1L495.9,257.9L499.6,253.9L498.7,251.8L498.9,250.5L497.4,249.7L498.2,248.7L497.4,247.0L495.1,246.2L495.2,244.7L477.0,257.2Z"/>
    <path class="wtc-county" id="wtc-county-tyler" data-county="Tyler" d="M510.2,257.2L506.5,259.0L510.9,277.5L529.0,277.5L528.1,275.3L529.6,273.5L528.1,271.3L527.0,271.5L526.1,267.6L524.7,267.2L524.7,265.7L523.5,263.3L523.9,261.9L522.4,260.9L521.8,258.8L520.7,258.0L519.4,258.7L518.3,258.0L514.5,259.1L514.2,258.2L510.2,257.2Z"/>
    <path class="wtc-county" id="wtc-county-upshur" data-county="Upshur" d="M487.8,187.0L487.7,199.7L488.2,200.4L490.5,200.2L493.1,201.7L494.1,200.9L494.5,201.0L500.4,198.9L503.3,196.0L504.9,196.6L504.9,191.2L504.8,187.9L504.2,186.9L487.8,187.0Z"/>
    <path class="wtc-county" id="wtc-county-upton" data-county="Upton" d="M214.8,234.7L215.3,251.9L215.5,256.2L235.5,256.4L235.5,234.7L216.1,234.7L214.8,234.7Z"/>
    <path class="wtc-county" id="wtc-county-uvalde" data-county="Uvalde" d="M298.9,311.9L298.9,332.4L325.4,332.2L325.6,311.7L318.3,311.7L302.6,311.9L298.9,311.9Z"/>
    <path class="wtc-county" id="wtc-county-val-verde" data-county="Val Verde" d="M236.2,286.6L236.0,305.8L238.1,306.6L243.1,306.2L244.2,305.3L245.2,306.7L247.0,305.9L248.2,306.9L249.3,306.8L251.1,310.3L253.4,311.2L253.1,313.0L253.9,313.8L254.8,311.7L255.4,311.8L255.7,313.9L255.3,315.8L258.4,316.0L259.3,317.5L262.8,318.2L262.8,318.8L264.6,321.6L267.1,322.4L269.4,323.9L269.7,324.9L272.8,326.4L274.7,325.9L274.7,323.1L276.1,322.8L276.5,319.6L276.5,311.9L276.5,286.6L266.5,286.6L264.9,286.6L236.2,286.6Z"/>
    <path class="wtc-county" id="wtc-county-van-zandt" data-county="Van Zandt" d="M452.5,189.5L452.5,207.8L476.5,207.8L474.4,205.8L470.9,203.1L470.9,195.2L469.4,193.9L468.4,194.3L466.5,193.0L463.2,191.9L460.6,191.8L458.4,190.3L458.0,189.5L452.5,189.5Z"/>
    <path class="wtc-county" id="wtc-county-victoria" data-county="Victoria" d="M405.8,340.8L405.8,341.5L408.5,340.8L410.3,342.0L411.3,344.2L410.4,350.5L411.5,352.0L411.3,352.6L413.3,352.6L413.9,353.4L415.6,352.8L418.1,354.7L420.6,355.2L421.5,354.4L421.1,352.1L420.0,351.4L423.0,349.5L427.9,348.2L430.9,346.6L428.1,342.6L428.3,341.3L427.3,339.7L425.3,338.7L423.8,334.8L419.7,333.2L418.2,331.7L405.8,340.8Z"/>
    <path class="wtc-county" id="wtc-county-walker" data-county="Walker" d="M470.0,262.1L468.7,263.5L466.2,262.8L463.6,264.1L460.7,264.6L462.0,273.5L470.7,278.2L479.7,278.2L479.9,278.3L481.1,264.8L478.4,264.9L479.1,263.8L477.0,261.9L477.0,257.2L470.0,262.1Z"/>
    <path class="wtc-county" id="wtc-county-waller" data-county="Waller" d="M451.9,289.0L449.4,289.7L449.5,292.2L448.2,292.3L449.9,294.9L452.3,297.4L450.8,298.8L450.6,301.4L451.9,302.3L450.9,303.8L451.6,304.8L453.6,305.0L454.2,307.9L456.5,307.9L462.1,305.6L456.9,291.3L458.8,292.7L460.2,292.9L462.0,294.4L462.9,294.1L462.9,288.2L452.1,288.8L451.9,289.0Z"/>
    <path class="wtc-county" id="wtc-county-ward" data-county="Ward" d="M165.6,234.6L167.0,235.4L168.6,235.0L169.5,235.6L169.3,237.3L170.0,238.5L169.7,240.2L170.3,242.0L171.4,243.1L173.8,243.0L176.3,243.8L178.9,243.2L179.6,244.7L182.0,245.4L186.3,245.6L186.7,244.8L188.5,245.3L191.5,246.1L195.4,249.3L197.8,248.3L197.8,234.6L196.5,234.6L176.4,234.7L165.6,234.6Z"/>
    <path class="wtc-county" id="wtc-county-washington" data-county="Washington" d="M425.2,291.4L426.3,292.3L429.4,291.8L430.8,292.0L431.8,295.8L433.1,295.1L435.7,295.1L444.5,293.9L445.6,294.7L449.4,295.5L449.9,294.9L448.2,292.3L449.5,292.2L449.4,289.7L451.9,289.0L452.1,286.6L449.5,285.0L449.8,283.5L447.9,283.0L445.3,283.9L444.1,283.1L443.5,282.9L439.4,284.5L431.1,286.3L429.3,287.8L427.5,288.4L427.3,290.0L425.2,291.4Z"/>
    <path class="wtc-county" id="wtc-county-webb" data-county="Webb" d="M295.1,366.2L297.0,367.3L300.0,368.2L301.1,370.5L302.5,371.3L303.4,373.9L305.7,374.4L305.5,376.0L307.2,377.5L306.8,378.9L307.8,379.7L307.8,381.4L309.2,382.6L310.3,382.3L310.7,383.6L311.9,383.9L314.4,386.9L315.7,386.7L316.9,387.9L318.2,387.4L319.1,388.9L320.1,388.4L321.7,390.3L321.0,392.8L322.8,393.1L322.3,395.1L322.7,396.1L322.0,398.9L320.8,399.9L322.4,400.2L322.3,401.5L323.9,401.7L327.1,399.7L328.6,401.4L342.9,401.6L348.9,401.6L348.9,398.3L348.7,371.5L326.4,372.6L326.2,365.9L298.8,366.2L295.1,366.2Z"/>
    <path class="wtc-county" id="wtc-county-wharton" data-county="Wharton" d="M448.9,311.5L443.8,316.0L442.2,320.2L431.1,326.2L443.7,337.0L456.8,330.0L460.2,326.9L461.3,325.6L460.2,325.5L459.5,323.6L457.5,322.9L457.5,321.4L456.5,320.0L453.2,317.6L454.6,316.5L453.4,316.1L453.9,315.1L453.2,313.2L452.1,312.7L451.3,311.9L448.9,311.5Z"/>
    <path class="wtc-county" id="wtc-county-wheeler" data-county="Wheeler" d="M282.5,83.6L282.6,100.2L303.1,100.2L303.1,91.1L303.1,83.6L282.5,83.6Z"/>
    <path class="wtc-county" id="wtc-county-wichita" data-county="Wichita" d="M343.1,137.1L343.1,151.5L363.1,151.5L363.1,142.0L360.8,142.8L357.5,139.7L356.0,139.2L354.7,139.0L353.0,140.2L350.2,140.0L348.4,139.2L346.6,139.1L344.3,138.3L343.1,137.1Z"/>
    <path class="wtc-county" id="wtc-county-wilbarger" data-county="Wilbarger" d="M323.1,142.0L323.1,151.5L343.1,151.5L343.1,137.1L341.7,136.8L339.5,137.7L338.3,137.2L336.6,137.5L336.4,136.9L333.9,137.0L333.2,132.4L330.8,130.6L331.3,129.9L329.1,129.7L326.7,127.8L326.1,130.8L324.5,131.0L323.1,130.1L323.1,142.0Z"/>
    <path class="wtc-county" id="wtc-county-willacy" data-county="Willacy" d="M405.4,427.0L405.8,427.8L403.3,428.7L406.6,429.2L408.1,434.2L408.8,434.2L406.3,427.0L405.4,427.0ZM380.9,426.6L379.1,432.8L384.6,433.4L384.6,436.6L397.3,438.5L397.5,437.6L399.1,437.1L400.3,437.5L402.5,434.2L404.0,434.2L402.9,431.6L401.7,431.5L401.6,428.8L400.6,427.0L384.6,427.1L380.9,426.6Z"/>
    <path class="wtc-county" id="wtc-county-williamson" data-county="Williamson" d="M377.4,273.8L379.0,273.7L379.7,274.3L380.9,273.6L382.4,274.5L382.6,275.4L384.3,276.7L385.0,279.6L387.9,281.2L394.7,278.4L396.5,279.5L397.9,279.1L400.5,280.0L403.3,281.6L404.7,282.2L411.5,280.1L407.0,269.5L405.4,268.9L393.6,264.4L385.8,263.0L380.8,267.6L377.4,273.8Z"/>
    <path class="wtc-county" id="wtc-county-wilson" data-county="Wilson" d="M363.8,331.3L372.0,340.1L389.7,327.2L384.7,322.2L385.4,321.3L374.6,321.2L374.2,318.8L373.9,319.0L363.8,331.3Z"/>
    <path class="wtc-county" id="wtc-county-winkler" data-county="Winkler" d="M176.4,221.4L176.4,234.7L196.5,234.6L196.5,218.1L186.4,218.1L186.4,221.4L176.4,221.4Z"/>
    <path class="wtc-county" id="wtc-county-wise" data-county="Wise" d="M382.4,166.8L382.3,183.2L396.6,183.5L402.2,183.6L402.4,176.3L402.8,166.9L398.8,166.8L382.4,166.8Z"/>
    <path class="wtc-county" id="wtc-county-wood" data-county="Wood" d="M468.3,184.8L469.4,193.9L470.9,195.2L475.6,198.3L478.0,198.3L478.1,198.3L478.1,198.4L478.2,198.4L478.2,198.3L478.4,198.3L478.9,198.5L480.4,198.2L484.5,200.0L485.8,199.6L487.3,200.7L487.7,199.7L487.8,187.0L487.8,182.8L487.0,184.8L481.8,184.7L468.3,184.8Z"/>
    <path class="wtc-county" id="wtc-county-yoakum" data-county="Yoakum" d="M186.7,168.5L186.7,173.4L186.4,184.8L204.3,184.9L204.3,168.5L186.7,168.5Z"/>
    <path class="wtc-county" id="wtc-county-young" data-county="Young" d="M342.9,168.2L343.1,184.9L357.4,185.0L363.0,185.1L363.0,183.0L363.3,168.2L342.9,168.2Z"/>
    <path class="wtc-county" id="wtc-county-zapata" data-county="Zapata" d="M323.9,401.7L325.0,405.1L324.5,406.0L324.9,408.2L324.1,409.2L324.2,410.9L325.4,411.1L326.9,412.6L326.2,413.3L327.2,414.5L329.0,415.4L328.7,416.4L331.0,417.8L332.0,419.9L332.1,421.5L333.2,422.3L333.6,424.9L334.4,426.2L334.7,428.1L340.7,424.2L342.9,420.0L342.9,401.6L328.6,401.4L327.1,399.7L323.9,401.7Z"/>
    <path class="wtc-county" id="wtc-county-zavala" data-county="Zavala" d="M298.9,332.4L298.8,349.0L325.7,349.3L325.4,332.2L298.9,332.4Z"/>
  </g>
</svg>