<?xml version="1.0" encoding="UTF-8"?>
<svg xmlns="http://www.w3.org/2000/svg" viewBox="0 0 600 498" id="wtc-state-map-TX" role="img" aria-label="tx county map">
  <title>tx Counties</title>
  <g class="wtc-counties">
    <path class="wtc-county" id="wtc-county-anderson" data-county="Anderson" d="M453.5,277.1L453.1,276.1L454.5,275.3L455.4,273.6L454.5,272.1L456.6,272.2L455.7,270.9L456.4,270.5L456.1,268.8L460.2,267.6L460.1,265.5L463.1,264.5L463.6,262.4L464.3,261.6L464.7,263.3L465.5,263.7L466.5,262.3L465.8,261.0L466.2,259.9L465.0,259.9L465.4,258.0L468.9,258.9L468.7,259.5L483.2,261.4L483.0,263.9L480.6,266.8L478.2,267.8L478.5,268.8L477.8,270.7L476.5,271.0L477.4,274.1L476.3,275.4L477.4,277.6L477.3,280.1L453.5,277.1Z"/>
    <path class="wtc-county" id="wtc-county-andrews" data-county="Andrews" d="M186.4,296.8L186.4,280.2L196.5,280.2L216.1,280.2L218.9,280.2L218.9,296.8L186.4,296.8Z"/>
    <path class="wtc-county" id="wtc-county-angelina" data-county="Angelina" d="M493.4,255.1L495.2,253.5L495.1,252.1L497.4,251.3L498.2,249.6L497.4,248.6L498.9,247.8L498.7,246.5L499.6,244.4L503.5,242.8L508.0,242.1L510.2,241.1L514.2,240.1L526.6,242.6L524.3,244.0L522.1,246.0L519.2,247.4L517.1,249.3L516.5,250.3L514.5,251.1L512.7,254.3L510.9,254.2L510.9,255.3L505.4,256.0L500.2,257.2L498.6,258.9L493.4,255.1Z"/>
    <path class="wtc-county" id="wtc-county-aransas" data-county="Aransas" d="M414.4,121.4L415.8,118.4L417.3,121.1L419.3,123.5L423.0,126.9L424.1,129.9L420.4,128.2L418.0,124.0L416.7,122.5L414.4,121.4ZM425.3,136.7L412.6,134.9L412.6,134.2L416.3,131.6L416.3,130.2L418.8,129.3L419.9,129.3L422.2,131.3L424.7,132.9L425.1,135.0L425.3,136.7ZM409.2,127.5L407.4,127.5L412.2,120.9L415.5,125.4L416.5,126.2L415.4,128.6L412.1,126.7L409.2,127.5Z"/>
    <path class="wtc-county" id="wtc-county-archer" data-county="Archer" d="M343.1,346.8L342.9,330.1L363.3,330.1L363.3,332.8L363.1,346.8L343.1,346.8Z"/>
    <path class="wtc-county" id="wtc-county-armstrong" data-county="Armstrong" d="M241.4,398.1L241.1,381.6L247.1,381.5L261.6,381.6L261.7,398.1L241.4,398.1Z"/>
    <path class="wtc-county" id="wtc-county-atascosa" data-county="Atascosa" d="M348.7,172.2L348.7,166.1L348.8,149.3L348.8,149.2L366.6,149.3L366.6,147.9L375.6,154.6L372.0,158.2L363.8,167.0L348.7,172.2Z"/>
    <path class="wtc-county" id="wtc-county-austin" data-county="Austin" d="M449.9,203.4L449.4,202.8L445.6,203.6L444.5,204.4L435.7,203.2L433.1,203.2L431.8,202.4L433.8,199.3L435.0,197.2L439.7,194.1L442.4,194.3L444.1,190.7L445.2,190.0L445.6,188.2L447.9,187.7L448.9,186.8L451.3,186.4L452.1,185.6L454.5,185.6L455.0,190.1L454.2,190.4L453.6,193.3L451.6,193.5L450.9,194.5L451.9,196.0L450.6,196.9L450.8,199.5L452.3,200.9L449.9,203.4Z"/>
    <path class="wtc-county" id="wtc-county-bailey" data-county="Bailey" d="M187.1,346.4L203.5,346.4L203.5,365.0L187.2,365.0L187.2,364.6L187.2,351.0L187.1,346.4Z"/>
    <path class="wtc-county" id="wtc-county-bandera" data-county="Bandera" d="M318.3,197.2L318.3,186.6L325.6,186.6L341.1,186.4L342.1,186.0L341.8,184.2L344.0,184.1L348.5,189.0L349.6,190.1L344.3,192.4L334.4,196.8L330.6,197.1L318.3,197.2Z"/>
    <path class="wtc-county" id="wtc-county-bastrop" data-county="Bastrop" d="M403.3,216.7L398.6,208.6L392.7,203.3L405.4,192.6L416.5,202.7L414.3,210.6L409.8,213.6L404.7,216.1L403.3,216.7Z"/>
    <path class="wtc-county" id="wtc-county-baylor" data-county="Baylor" d="M323.1,346.8L323.1,342.9L323.2,330.2L342.9,330.1L343.1,346.8L323.1,346.8Z"/>
    <path class="wtc-county" id="wtc-county-bee" data-county="Bee" d="M379.1,150.9L375.9,149.8L386.5,131.6L386.2,131.3L395.7,129.5L396.8,130.9L403.1,139.4L401.0,140.3L399.9,140.1L399.1,141.1L396.4,141.7L396.1,144.2L393.6,144.7L392.8,144.4L390.9,145.2L389.5,148.5L387.8,150.0L386.0,150.1L382.6,152.0L379.1,150.9Z"/>
    <path class="wtc-county" id="wtc-county-bell" data-county="Bell" d="M382.8,241.5L382.7,240.2L385.8,235.3L393.6,233.9L405.4,229.4L407.6,234.6L414.7,238.3L406.8,249.5L404.3,248.1L401.4,251.0L382.8,241.5Z"/>
    <path class="wtc-county" id="wtc-county-bexar" data-county="Bexar" d="M348.5,189.0L348.7,182.6L348.7,172.2L363.8,167.0L373.9,179.3L374.2,179.5L374.6,180.9L373.0,180.9L372.9,181.5L370.9,182.6L370.3,183.8L367.9,184.0L367.5,185.3L366.2,186.3L366.2,187.6L364.8,188.3L364.8,189.5L366.4,190.1L363.4,191.1L361.1,190.6L358.6,191.3L357.1,190.9L354.7,191.0L352.6,190.7L351.1,190.0L349.6,190.1L348.5,189.0Z"/>
    <path class="wtc-county" id="wtc-county-blanco" data-county="Blanco" d="M356.7,219.8L356.9,206.0L363.6,198.4L367.9,202.2L372.7,214.3L374.5,217.0L365.9,219.3L363.7,219.9L356.7,219.8Z"/>
    <path class="wtc-county" id="wtc-county-borden" data-county="Borden" d="M238.8,313.5L238.8,296.9L258.4,296.9L258.4,297.0L258.4,313.6L243.8,313.5L238.8,313.5Z"/>
    <path class="wtc-county" id="wtc-county-bosque" data-county="Bosque" d="M384.5,280.2L379.1,277.6L388.2,264.4L391.2,265.9L394.3,261.2L406.9,267.2L405.0,268.9L406.6,270.2L406.6,271.0L405.0,270.9L402.8,272.0L403.6,272.8L400.6,274.2L402.9,275.9L401.1,278.0L398.8,277.6L398.7,279.2L399.5,280.2L398.6,281.8L399.9,283.4L399.2,283.5L397.9,283.1L397.7,282.0L395.8,282.6L395.7,283.6L393.9,284.7L393.4,284.8L384.5,280.2Z"/>
    <path class="wtc-county" id="wtc-county-bowie" data-county="Bowie" d="M503.5,341.9L503.3,341.8L503.1,327.5L503.8,326.8L505.3,326.9L506.8,325.2L508.0,324.4L511.5,325.2L511.9,325.8L515.8,325.8L517.2,324.7L522.8,324.2L522.5,325.4L523.3,326.3L525.3,326.8L526.4,326.2L528.1,326.6L530.0,326.3L530.0,335.6L529.9,336.0L527.7,336.7L526.9,336.0L526.2,337.0L524.6,337.6L523.1,336.1L520.2,336.9L519.8,336.0L518.7,336.6L518.0,335.7L516.6,336.0L516.9,337.2L515.7,337.0L514.2,337.8L514.2,339.6L513.1,339.3L511.9,338.5L509.3,340.9L507.1,340.4L506.9,341.2L504.6,341.2L503.5,341.9Z"/>
    <path class="wtc-county" id="wtc-county-brazoria" data-county="Brazoria" d="M460.2,171.4L461.6,169.3L461.4,166.7L464.4,165.0L463.8,164.3L464.4,161.4L467.9,161.3L468.8,160.4L469.4,158.8L471.0,157.8L471.8,156.3L474.3,156.0L476.9,157.3L478.9,157.6L484.4,162.2L489.0,165.6L489.6,167.3L488.1,166.1L487.3,167.0L487.5,169.9L489.3,170.1L489.7,169.3L491.4,170.4L484.7,180.4L485.3,183.8L483.8,183.8L483.6,185.2L481.0,185.5L480.4,185.0L477.4,184.8L475.9,179.4L472.6,179.4L472.6,177.7L472.0,177.5L471.5,175.6L468.7,173.8L464.8,175.0L463.2,174.4L461.3,172.7L460.2,171.4Z"/>
    <path class="wtc-county" id="wtc-county-brazos" data-county="Brazos" d="M433.8,227.2L432.6,225.2L436.0,224.7L437.0,223.7L439.3,223.1L439.7,221.3L441.7,221.4L442.4,218.8L444.3,217.7L445.2,216.6L444.2,216.5L444.1,215.2L445.3,214.4L447.9,215.3L449.8,214.8L449.5,213.3L451.4,216.8L450.5,219.4L448.3,223.6L449.3,225.8L448.7,227.8L449.3,230.1L448.4,231.1L449.0,232.1L448.7,233.4L447.3,235.5L447.9,236.2L446.3,237.8L442.6,235.8L440.7,233.7L438.1,229.1L433.8,227.2Z"/>
    <path class="wtc-county" id="wtc-county-brewster" data-county="Brewster" d="M158.4,216.5L158.7,172.5L161.3,170.0L164.3,168.7L165.6,169.0L168.9,167.9L172.6,164.3L176.3,163.5L178.2,162.0L180.3,162.3L182.6,161.9L184.5,162.1L185.0,164.9L186.0,166.0L188.3,167.4L189.3,169.6L190.7,169.4L193.1,170.6L193.8,171.9L192.4,172.6L193.1,173.8L193.5,176.1L194.9,176.3L195.6,177.9L195.3,179.6L196.3,181.5L196.1,182.6L197.6,183.5L197.9,185.5L198.9,185.5L198.9,187.1L200.6,188.4L200.4,189.2L201.4,190.9L202.4,190.6L205.4,191.7L206.4,191.3L207.6,192.5L212.2,191.9L213.6,195.5L214.7,196.1L205.4,202.7L172.2,226.1L158.4,216.5Z"/>
    <path class="wtc-county" id="wtc-county-briscoe" data-county="Briscoe" d="M247.1,381.5L247.1,365.0L263.5,365.0L267.1,365.0L267.2,381.6L261.6,381.6L247.1,381.5Z"/>
    <path class="wtc-county" id="wtc-county-brooks" data-county="Brooks" d="M359.3,96.6L360.6,95.4L360.6,91.9L361.5,91.9L361.5,88.6L363.4,88.6L363.1,78.3L367.1,78.2L379.8,78.2L379.8,94.5L379.8,96.4L377.1,96.5L370.4,96.5L359.3,96.6Z"/>
    <path class="wtc-county" id="wtc-county-brown" data-county="Brown" d="M333.8,279.9L333.5,256.6L337.7,256.4L339.6,257.5L340.5,256.7L341.6,257.3L349.6,262.1L350.3,265.0L353.9,265.5L344.1,279.9L336.6,280.0L333.8,279.9Z"/>
    <path class="wtc-county" id="wtc-county-burleson" data-county="Burleson" d="M418.8,222.0L420.4,221.3L422.2,218.2L425.3,215.6L427.1,212.9L429.0,213.0L431.1,212.0L439.4,213.8L443.5,215.4L444.1,215.2L444.2,216.5L445.2,216.6L444.3,217.7L442.4,218.8L441.7,221.4L439.7,221.3L439.3,223.1L437.0,223.7L436.0,224.7L432.6,225.2L433.8,227.2L431.8,228.6L418.8,222.0Z"/>
    <path class="wtc-county" id="wtc-county-burnet" data-county="Burnet" d="M362.6,239.9L361.8,239.1L362.3,237.0L363.6,236.6L362.3,235.9L362.2,233.9L364.9,232.5L362.9,230.8L363.1,229.3L365.2,228.9L363.6,227.6L364.0,226.5L362.6,226.4L364.1,223.6L364.1,222.2L365.9,222.0L365.9,219.3L374.5,217.0L375.6,218.5L374.6,219.2L377.4,224.5L380.8,230.7L385.8,235.3L382.7,240.2L362.6,239.9Z"/>
    <path class="wtc-county" id="wtc-county-caldwell" data-county="Caldwell" d="M390.3,201.7L388.4,200.3L387.2,198.7L383.4,196.3L384.1,195.4L385.0,194.8L385.3,193.1L386.2,192.8L386.9,191.3L387.6,191.6L388.2,190.1L389.3,189.8L389.9,188.6L392.5,188.1L393.2,187.4L394.6,186.7L405.2,192.5L405.4,192.6L392.7,203.3L390.3,201.7Z"/>
    <path class="wtc-county" id="wtc-county-calhoun" data-county="Calhoun" d="M424.7,132.9L425.5,134.1L425.1,135.0L424.7,132.9ZM430.9,151.7L427.9,150.1L423.0,148.8L420.0,146.9L421.1,146.2L421.5,143.9L423.2,142.7L424.5,141.0L425.3,141.6L426.3,140.2L428.6,139.8L428.6,137.9L429.4,136.6L431.8,136.7L433.3,138.0L436.0,139.2L438.2,140.5L439.4,140.0L438.2,139.0L438.7,137.6L435.5,136.9L432.3,135.3L427.5,131.9L425.3,131.8L424.2,131.0L424.1,129.9L423.0,126.9L428.1,130.8L431.4,133.1L438.6,136.7L441.1,139.4L443.1,149.1L443.1,150.3L440.1,150.3L440.2,152.4L439.1,151.4L433.4,151.5L433.1,152.2L430.9,151.7Z"/>
    <path class="wtc-county" id="wtc-county-callahan" data-county="Callahan" d="M317.2,296.5L317.2,280.0L333.8,279.9L336.6,280.0L336.9,296.5L317.9,296.5L317.2,296.5Z"/>
    <path class="wtc-county" id="wtc-county-cameron" data-county="Cameron" d="M408.8,64.1L408.1,64.1L409.8,57.9L410.4,53.1L411.4,51.6L409.9,60.1L408.8,64.1ZM384.6,61.7L384.6,51.1L384.3,50.6L386.9,50.7L388.4,49.6L392.7,49.2L395.1,46.0L396.6,45.9L397.5,44.1L399.5,44.0L400.5,42.7L403.2,42.3L404.0,45.6L406.9,46.0L406.9,46.6L408.7,46.9L411.8,46.6L411.5,50.8L409.9,50.2L409.8,51.3L407.0,51.7L405.9,54.1L406.1,56.1L405.5,57.2L406.8,58.7L406.1,59.7L404.0,64.1L402.5,64.1L400.3,60.8L399.1,61.2L397.5,60.7L397.3,59.8L384.6,61.7Z"/>
    <path class="wtc-county" id="wtc-county-camp" data-county="Camp" d="M487.8,315.5L487.8,311.3L504.2,311.4L502.3,312.2L500.4,314.3L497.6,316.0L496.0,317.8L493.0,317.9L490.0,316.4L488.8,316.3L487.8,315.5Z"/>
    <path class="wtc-county" id="wtc-county-carson" data-county="Carson" d="M241.4,414.8L241.4,398.1L261.7,398.1L261.7,414.7L261.7,415.0L241.4,414.9L241.4,414.8Z"/>
    <path class="wtc-county" id="wtc-county-cass" data-county="Cass" d="M506.8,325.2L506.7,310.4L530.0,310.5L530.0,315.7L530.0,326.3L528.1,326.6L526.4,326.2L525.3,326.8L523.3,326.3L522.5,325.4L522.8,324.2L517.2,324.7L515.8,325.8L511.9,325.8L511.5,325.2L508.0,324.4L506.8,325.2Z"/>
    <path class="wtc-county" id="wtc-county-castro" data-county="Castro" d="M206.9,381.5L206.9,365.0L223.6,365.0L227.0,365.0L227.0,381.6L220.6,381.5L206.9,381.5Z"/>
    <path class="wtc-county" id="wtc-county-chambers" data-county="Chambers" d="M494.2,196.3L494.4,195.7L497.0,193.9L496.8,191.9L495.6,190.0L496.8,189.2L496.1,188.3L496.6,187.7L498.6,188.5L499.2,190.1L500.5,191.5L502.8,192.4L503.5,191.7L505.2,191.5L505.2,189.1L504.6,186.5L502.3,183.5L503.4,182.7L510.8,184.5L512.1,183.3L515.6,184.2L515.7,185.1L517.5,185.4L517.5,183.8L518.2,184.1L518.0,196.5L514.7,196.5L494.2,196.3Z"/>
    <path class="wtc-county" id="wtc-county-cherokee" data-county="Cherokee" d="M476.1,282.1L477.3,280.1L477.4,277.6L476.3,275.4L477.4,274.1L476.5,271.0L477.8,270.7L478.5,268.8L478.2,267.8L480.6,266.8L483.0,263.9L483.2,261.4L485.6,260.6L487.1,261.0L488.1,259.4L489.7,258.6L489.7,256.7L491.1,256.8L493.4,255.1L498.6,258.9L497.6,259.4L497.6,260.8L496.4,260.9L496.1,262.5L494.8,265.4L494.8,267.6L496.3,268.0L494.6,268.6L495.9,271.0L494.1,271.1L494.1,282.2L476.1,282.1Z"/>
    <path class="wtc-county" id="wtc-county-childress" data-county="Childress" d="M287.3,381.5L287.3,365.0L303.3,364.9L303.3,374.4L303.1,381.5L287.3,381.5Z"/>
    <path class="wtc-county" id="wtc-county-clay" data-county="Clay" d="M363.1,356.3L363.1,346.8L363.3,332.8L380.1,332.8L380.1,348.9L381.1,350.7L380.4,350.7L381.3,352.6L380.4,353.3L378.6,352.8L376.0,353.2L374.6,356.2L375.7,357.3L375.2,359.0L373.9,358.5L372.9,357.4L370.1,358.1L368.1,358.1L365.5,359.1L363.1,356.3Z"/>
    <path class="wtc-county" id="wtc-county-cochran" data-county="Cochran" d="M186.7,329.8L204.3,329.8L203.5,346.4L187.1,346.4L186.8,336.7L186.7,329.8Z"/>
    <path class="wtc-county" id="wtc-county-coke" data-county="Coke" d="M271.8,280.2L271.7,265.3L294.1,265.2L294.1,280.0L277.9,280.2L271.8,280.2Z"/>
    <path class="wtc-county" id="wtc-county-coleman" data-county="Coleman" d="M313.7,260.8L316.4,258.9L315.4,257.8L317.4,256.6L318.3,257.6L320.8,257.2L321.7,255.0L322.4,255.7L323.2,254.9L324.6,255.8L324.3,256.9L325.8,255.8L329.3,254.4L329.7,255.3L332.1,257.2L333.5,256.6L333.8,279.9L317.2,280.0L314.1,280.0L313.7,260.8Z"/>
    <path class="wtc-county" id="wtc-county-collin" data-county="Collin" d="M423.7,330.4L423.3,314.5L435.7,314.3L444.2,314.3L444.2,328.4L440.8,328.0L440.8,330.1L423.7,330.4Z"/>
    <path class="wtc-county" id="wtc-county-collingsworth" data-county="Collingsworth" d="M282.6,398.1L282.5,381.6L287.3,381.5L303.1,381.5L303.1,392.3L303.1,398.1L282.6,398.1Z"/>
    <path class="wtc-county" id="wtc-county-colorado" data-county="Colorado" d="M422.2,186.7L423.3,186.2L423.7,184.6L425.2,184.7L434.1,175.4L430.4,172.7L431.1,172.1L442.2,178.1L443.8,182.3L448.9,186.8L447.9,187.7L445.6,188.2L445.2,190.0L444.1,190.7L442.4,194.3L439.7,194.1L435.0,197.2L433.8,199.3L428.2,192.9L422.2,186.7Z"/>
    <path class="wtc-county" id="wtc-county-comal" data-county="Comal" d="M354.7,191.0L357.1,190.9L358.6,191.3L361.1,190.6L363.4,191.1L366.4,190.1L364.8,189.5L364.8,188.3L366.2,187.6L366.2,186.3L367.5,185.3L375.9,188.7L379.3,191.3L378.2,195.0L367.9,202.2L363.6,198.4L354.7,191.0Z"/>
    <path class="wtc-county" id="wtc-county-comanche" data-county="Comanche" d="M344.1,279.9L353.9,265.5L360.6,266.4L361.6,264.9L373.4,270.9L371.4,273.8L369.7,276.2L366.8,274.7L358.4,286.9L344.1,279.9Z"/>
    <path class="wtc-county" id="wtc-county-concho" data-county="Concho" d="M298.9,260.9L298.8,242.2L318.2,242.2L318.3,257.6L317.4,256.6L315.4,257.8L316.4,258.9L313.7,260.8L298.9,260.9Z"/>
    <path class="wtc-county" id="wtc-county-cooke" data-county="Cooke" d="M399.0,349.9L398.8,331.5L402.8,331.4L419.5,330.9L419.5,351.1L417.6,351.1L418.0,348.7L415.8,346.9L414.0,347.5L415.5,346.1L413.7,345.4L414.1,343.3L412.6,342.3L411.1,342.8L409.5,345.8L410.9,346.8L410.6,349.0L409.3,349.9L408.0,349.3L407.7,347.9L405.9,348.5L404.7,348.3L403.2,346.2L400.5,346.4L399.8,347.3L399.9,349.4L399.0,349.9Z"/>
    <path class="wtc-county" id="wtc-county-coryell" data-county="Coryell" d="M372.4,256.5L382.8,241.5L401.4,251.0L394.3,261.2L391.2,265.9L388.2,264.4L372.4,256.5Z"/>
    <path class="wtc-county" id="wtc-county-cottle" data-county="Cottle" d="M283.5,365.0L283.3,346.8L301.2,346.8L301.4,361.8L302.7,362.3L303.3,361.6L303.3,364.9L287.3,365.0L283.5,365.0Z"/>
    <path class="wtc-county" id="wtc-county-crane" data-county="Crane" d="M197.8,263.7L197.8,250.0L198.3,249.5L201.2,251.4L204.9,249.2L207.9,248.5L210.6,246.2L210.6,243.7L212.1,242.2L215.5,242.1L215.3,246.4L214.8,263.6L197.8,263.7Z"/>
    <path class="wtc-county" id="wtc-county-crockett" data-county="Crockett" d="M212.1,242.2L214.7,241.2L215.9,240.2L219.4,240.0L221.7,238.6L223.9,238.3L225.1,239.0L226.5,238.0L227.3,238.4L228.8,237.1L231.8,235.5L231.1,234.7L232.3,234.0L233.4,231.3L233.3,229.6L234.0,229.4L234.3,227.4L235.5,226.7L235.8,225.6L237.9,225.7L240.3,224.4L239.7,223.2L240.4,222.1L239.2,220.6L238.4,218.2L236.9,216.8L238.4,216.1L239.6,213.7L238.4,213.9L237.0,213.2L236.2,211.7L264.9,211.7L266.5,211.7L266.5,227.6L266.5,242.0L254.6,241.8L235.5,241.9L215.5,242.1L212.1,242.2Z"/>
    <path class="wtc-county" id="wtc-county-crosby" data-county="Crosby" d="M243.5,346.6L243.8,330.0L263.6,330.1L263.5,346.8L243.5,346.6Z"/>
    <path class="wtc-county" id="wtc-county-culberson" data-county="Culberson" d="M115.9,276.9L115.9,269.8L116.2,238.8L116.3,232.6L115.9,232.6L115.9,226.0L146.9,242.9L149.9,276.9L130.5,276.9L118.5,276.9L115.9,276.9Z"/>
    <path class="wtc-county" id="wtc-county-dallam" data-county="Dallam" d="M188.7,448.3L187.2,448.3L187.4,441.3L187.4,431.4L220.7,431.4L220.7,448.3L188.7,448.3Z"/>
    <path class="wtc-county" id="wtc-county-dallas" data-county="Dallas" d="M416.2,314.6L415.9,297.8L435.3,297.7L435.6,297.7L435.7,307.9L435.7,314.3L423.3,314.5L416.2,314.6Z"/>
    <path class="wtc-county" id="wtc-county-dawson" data-county="Dawson" d="M219.1,313.4L219.2,296.8L238.8,296.9L238.8,313.5L224.1,313.5L219.1,313.4Z"/>
    <path class="wtc-county" id="wtc-county-deaf-smith" data-county="Deaf Smith" d="M187.2,398.1L187.2,389.4L187.2,381.5L206.9,381.5L220.6,381.5L220.6,398.1L187.2,398.1Z"/>
    <path class="wtc-county" id="wtc-county-delta" data-county="Delta" d="M460.9,330.6L460.7,323.3L463.6,324.7L465.7,326.6L467.9,326.5L471.3,328.7L474.4,328.2L478.2,329.2L480.4,328.8L481.8,329.3L481.9,329.4L481.8,329.5L477.7,330.7L474.8,332.3L473.5,332.0L472.0,333.2L469.1,333.5L467.6,332.9L464.6,333.9L462.1,332.5L460.9,332.6L460.9,330.6Z"/>
    <path class="wtc-county" id="wtc-county-denton" data-county="Denton" d="M402.8,331.4L402.4,322.0L402.2,314.7L416.2,314.6L423.3,314.5L423.7,330.4L419.5,330.9L402.8,331.4Z"/>
    <path class="wtc-county" id="wtc-county-dewitt" data-county="DeWitt" d="M394.0,166.9L388.6,162.9L395.5,155.6L401.4,159.8L404.4,158.7L405.8,157.5L418.2,166.6L408.3,177.3L404.6,174.7L394.0,166.9Z"/>
    <path class="wtc-county" id="wtc-county-dickens" data-county="Dickens" d="M263.5,346.8L263.6,330.1L283.5,330.1L283.3,346.8L263.5,346.8Z"/>
    <path class="wtc-county" id="wtc-county-dimmit" data-county="Dimmit" d="M298.8,149.3L298.8,132.1L326.2,132.4L326.1,134.2L326.1,149.0L325.7,149.0L298.8,149.3Z"/>
    <path class="wtc-county" id="wtc-county-donley" data-county="Donley" d="M261.7,398.1L261.6,381.6L267.2,381.6L282.5,381.6L282.6,398.1L261.7,398.1Z"/>
    <path class="wtc-county" id="wtc-county-duval" data-county="Duval" d="M348.7,126.8L348.9,100.0L356.9,100.2L359.5,99.6L359.3,96.6L370.4,96.5L370.4,126.8L366.6,126.8L348.7,126.8Z"/>
    <path class="wtc-county" id="wtc-county-eastland" data-county="Eastland" d="M336.9,296.5L336.6,280.0L344.1,279.9L358.4,286.9L361.2,288.3L361.2,296.4L357.4,296.5L337.6,296.5L336.9,296.5Z"/>
    <path class="wtc-county" id="wtc-county-ector" data-county="Ector" d="M196.5,280.2L196.5,263.7L197.8,263.7L214.8,263.6L216.1,263.6L216.1,280.2L196.5,280.2Z"/>
    <path class="wtc-county" id="wtc-county-edwards" data-county="Edwards" d="M276.5,211.7L276.5,186.4L298.9,186.4L302.6,186.4L302.5,188.4L300.7,189.8L302.2,190.2L301.8,192.3L302.6,192.9L301.9,195.0L303.0,196.8L303.6,201.7L304.1,201.7L304.4,203.9L312.3,203.6L312.4,211.8L298.8,211.8L276.5,211.7Z"/>
    <path class="wtc-county" id="wtc-county-ellis" data-county="Ellis" d="M414.1,297.8L414.1,287.0L419.6,278.9L421.4,279.7L440.4,289.2L440.9,289.4L438.2,290.6L438.9,292.6L437.4,293.5L436.0,295.3L436.3,297.0L435.3,297.7L415.9,297.8L414.1,297.8Z"/>
    <path class="wtc-county" id="wtc-county-el-paso" data-county="El Paso" d="M60.3,276.9L51.1,276.9L51.0,273.6L50.0,273.0L50.4,271.8L51.8,271.0L51.6,270.2L53.8,269.6L54.5,268.7L56.0,267.3L57.5,267.9L60.1,266.7L61.3,265.4L63.1,262.4L63.9,260.2L65.3,259.4L66.8,256.6L71.6,254.0L74.7,253.5L76.2,255.0L76.2,257.1L74.9,257.1L74.7,277.0L60.3,276.9Z"/>
    <path class="wtc-county" id="wtc-county-erath" data-county="Erath" d="M361.2,296.4L361.2,288.3L358.4,286.9L366.8,274.7L369.7,276.2L371.4,273.8L379.1,277.6L384.5,280.2L381.3,285.8L376.7,296.4L361.2,296.4Z"/>
    <path class="wtc-county" id="wtc-county-falls" data-county="Falls" d="M406.8,249.5L414.7,238.3L423.8,243.0L423.8,242.9L432.7,247.2L424.9,258.7L406.8,249.5Z"/>
    <path class="wtc-county" id="wtc-county-fannin" data-county="Fannin" d="M440.8,330.1L440.8,328.0L444.2,328.4L460.9,330.6L460.9,332.6L461.0,346.5L461.3,347.0L457.9,348.8L457.7,347.8L453.6,346.9L451.6,347.3L451.7,346.6L449.8,346.9L448.7,343.9L446.8,343.5L444.2,344.1L443.2,341.5L441.6,341.4L441.1,342.6L440.8,330.1Z"/>
    <path class="wtc-county" id="wtc-county-fayette" data-county="Fayette" d="M405.4,192.6L405.2,192.5L412.4,187.2L411.9,186.6L422.2,186.7L428.2,192.9L433.8,199.3L431.8,202.4L430.8,206.3L429.4,206.5L426.3,206.0L425.2,206.9L423.3,205.2L416.6,202.0L416.5,202.7L405.4,192.6Z"/>
    <path class="wtc-county" id="wtc-county-fisher" data-county="Fisher" d="M278.1,313.6L278.0,296.9L297.5,296.8L297.7,313.5L283.3,313.6L278.1,313.6Z"/>
    <path class="wtc-county" id="wtc-county-floyd" data-county="Floyd" d="M243.5,365.0L243.5,346.6L263.5,346.8L263.5,365.0L247.1,365.0L243.5,365.0Z"/>
    <path class="wtc-county" id="wtc-county-foard" data-county="Foard" d="M303.3,361.6L302.7,362.3L301.4,361.8L301.2,346.8L303.3,346.8L309.4,346.8L309.6,346.1L312.4,346.3L314.5,345.4L314.8,346.5L317.1,346.0L318.3,345.0L319.3,345.6L321.3,344.3L322.4,344.2L323.1,342.9L323.1,346.8L323.1,356.3L322.6,355.6L320.9,355.9L320.4,355.2L317.5,356.7L315.6,356.4L312.7,356.9L311.8,356.6L303.3,361.6Z"/>
    <path class="wtc-county" id="wtc-county-fort-bend" data-county="Fort Bend" d="M452.1,185.6L453.2,185.1L453.9,183.2L453.4,182.2L454.6,181.8L453.2,180.7L456.5,178.3L457.5,176.9L457.5,175.4L459.5,174.7L460.2,172.8L461.3,172.7L463.2,174.4L464.8,175.0L468.7,173.8L471.5,175.6L472.0,177.5L472.6,177.7L472.6,179.4L475.9,179.4L477.4,184.8L470.7,187.8L462.1,192.7L456.5,190.4L454.2,190.4L455.0,190.1L454.5,185.6L452.1,185.6Z"/>
    <path class="wtc-county" id="wtc-county-franklin" data-county="Franklin" d="M481.8,329.3L481.8,313.6L487.0,313.5L487.8,315.5L488.8,316.3L488.8,329.8L483.8,329.0L481.9,329.4L481.8,329.3Z"/>
    <path class="wtc-county" id="wtc-county-freestone" data-county="Freestone" d="M436.6,269.2L446.4,254.6L463.6,262.4L463.1,264.5L460.1,265.5L460.2,267.6L456.1,268.8L456.4,270.5L455.7,270.9L456.6,272.2L454.5,272.1L455.4,273.6L454.5,275.3L453.1,276.1L453.5,277.1L453.4,277.4L436.6,269.2Z"/>
    <path class="wtc-county" id="wtc-county-frio" data-county="Frio" d="M325.4,166.1L325.7,149.0L326.1,149.0L348.8,149.3L348.7,166.1L325.4,166.1Z"/>
    <path class="wtc-county" id="wtc-county-gaines" data-county="Gaines" d="M186.4,313.5L186.4,296.8L218.9,296.8L219.2,296.8L219.1,313.4L204.3,313.4L186.4,313.5Z"/>
    <path class="wtc-county" id="wtc-county-galveston" data-county="Galveston" d="M512.1,183.3L512.8,182.7L511.3,182.4L510.1,182.9L509.0,181.4L507.8,180.8L506.0,180.8L504.8,179.3L501.7,177.0L503.8,176.7L505.2,178.5L509.0,180.5L517.5,183.8L517.5,185.4L515.7,185.1L515.6,184.2L512.1,183.3ZM489.6,167.3L489.0,165.6L492.6,168.3L501.1,173.3L503.8,175.3L500.2,175.8L500.2,174.3L498.2,173.6L493.8,170.3L493.4,169.7L489.6,167.3ZM485.3,183.8L484.7,180.4L491.4,170.4L495.3,173.7L496.6,173.4L497.6,174.4L497.9,176.6L497.6,179.2L496.1,179.8L497.0,181.6L494.2,182.1L492.9,183.8L491.1,183.9L490.1,182.9L489.6,182.1L487.3,181.6L485.3,183.8Z"/>
    <path class="wtc-county" id="wtc-county-garza" data-county="Garza" d="M243.8,330.0L243.8,313.5L258.4,313.6L263.6,313.9L263.6,330.1L243.8,330.0Z"/>
    <path class="wtc-county" id="wtc-county-gillespie" data-county="Gillespie" d="M329.7,219.8L329.7,211.7L329.8,205.9L344.3,206.0L356.9,206.0L356.7,219.8L342.6,219.7L329.7,219.8Z"/>
    <path class="wtc-county" id="wtc-county-glasscock" data-county="Glasscock" d="M235.5,280.2L235.5,263.6L254.9,263.6L255.0,280.2L238.6,280.2L235.5,280.2Z"/>
    <path class="wtc-county" id="wtc-county-goliad" data-county="Goliad" d="M387.8,150.0L389.5,148.5L390.9,145.2L392.8,144.4L393.6,144.7L396.1,144.2L396.4,141.7L399.1,141.1L399.9,140.1L401.0,140.3L403.1,139.4L411.3,145.7L411.5,146.3L410.4,147.8L411.3,154.1L410.3,156.3L408.5,157.5L405.8,156.8L405.8,157.5L404.4,158.7L401.4,159.8L395.5,155.6L387.8,150.0Z"/>
    <path class="wtc-county" id="wtc-county-gonzales" data-county="Gonzales" d="M385.4,177.0L384.7,176.1L389.7,171.1L394.0,166.9L404.6,174.7L408.3,177.3L409.6,182.0L409.6,184.8L411.9,186.6L412.4,187.2L405.2,192.5L394.6,186.7L393.2,187.4L385.4,177.0Z"/>
    <path class="wtc-county" id="wtc-county-gray" data-county="Gray" d="M261.7,414.7L261.7,398.1L282.6,398.1L282.5,414.7L261.7,414.7Z"/>
    <path class="wtc-county" id="wtc-county-grayson" data-county="Grayson" d="M419.5,351.1L419.5,330.9L423.7,330.4L440.8,330.1L441.1,342.6L439.1,344.7L436.3,344.5L435.2,346.3L433.7,346.2L431.5,347.2L433.0,349.1L429.7,349.6L428.6,346.8L426.2,346.5L425.6,347.9L423.8,348.3L423.0,347.2L421.8,348.1L421.0,351.2L419.9,351.3L419.5,351.1Z"/>
    <path class="wtc-county" id="wtc-county-gregg" data-county="Gregg" d="M494.1,297.4L494.1,291.0L507.4,291.0L508.7,290.6L509.5,292.0L507.2,292.1L504.9,293.0L504.9,301.7L503.3,302.3L500.4,299.4L494.5,297.3L494.1,297.4Z"/>
    <path class="wtc-county" id="wtc-county-grimes" data-county="Grimes" d="M449.0,232.1L448.4,231.1L449.3,230.1L448.7,227.8L449.3,225.8L448.3,223.6L450.5,219.4L451.4,216.8L449.5,213.3L452.1,211.7L451.9,209.3L452.1,209.5L462.9,210.1L462.9,213.6L462.0,224.8L460.7,233.7L449.0,232.1Z"/>
    <path class="wtc-county" id="wtc-county-guadalupe" data-county="Guadalupe" d="M367.5,185.3L367.9,184.0L370.3,183.8L370.9,182.6L372.9,181.5L373.0,180.9L374.6,180.9L374.2,179.5L374.6,177.1L385.4,177.0L393.2,187.4L392.5,188.1L389.9,188.6L389.3,189.8L388.2,190.1L387.6,191.6L386.9,191.3L386.2,192.8L385.3,193.1L385.0,194.8L384.1,195.4L379.3,191.3L375.9,188.7L367.5,185.3Z"/>
    <path class="wtc-county" id="wtc-county-hale" data-county="Hale" d="M223.6,365.0L223.7,346.4L243.5,346.6L243.5,365.0L227.0,365.0L223.6,365.0Z"/>
    <path class="wtc-county" id="wtc-county-hall" data-county="Hall" d="M267.2,381.6L267.1,365.0L283.5,365.0L287.3,365.0L287.3,381.5L282.5,381.6L267.2,381.6Z"/>
    <path class="wtc-county" id="wtc-county-hamilton" data-county="Hamilton" d="M361.6,264.9L369.0,254.7L372.4,256.5L388.2,264.4L379.1,277.6L371.4,273.8L373.4,270.9L361.6,264.9Z"/>
    <path class="wtc-county" id="wtc-county-hansford" data-county="Hansford" d="M241.4,448.3L241.4,431.4L261.7,431.4L261.7,431.4L261.9,448.3L241.4,448.3Z"/>
    <path class="wtc-county" id="wtc-county-hardeman" data-county="Hardeman" d="M303.3,364.9L303.3,361.6L311.8,356.6L312.7,356.9L315.6,356.4L317.5,356.7L320.4,355.2L320.9,355.9L322.6,355.6L323.1,356.3L323.1,368.2L321.5,368.9L319.1,368.9L318.3,367.3L314.2,367.8L310.9,370.4L309.0,372.4L305.9,375.1L303.3,374.4L303.3,364.9Z"/>
    <path class="wtc-county" id="wtc-county-hardin" data-county="Hardin" d="M503.7,219.4L508.9,205.0L514.7,205.1L516.4,204.4L520.5,205.2L521.2,207.2L522.7,207.1L524.8,207.9L527.2,206.9L528.1,208.5L527.2,209.9L528.0,210.6L527.0,211.5L528.4,213.8L527.0,217.0L529.0,220.8L510.9,220.8L511.2,219.5L503.7,219.4Z"/>
    <path class="wtc-county" id="wtc-county-harris" data-county="Harris" d="M462.9,204.2L462.0,203.9L460.2,205.4L458.8,205.6L456.9,207.0L462.1,192.7L470.7,187.8L477.4,184.8L480.4,185.0L481.0,185.5L483.6,185.2L483.8,183.8L485.3,183.8L487.3,181.6L489.6,182.1L490.1,182.9L491.1,183.9L492.9,183.8L494.2,185.6L493.0,186.6L493.3,187.8L494.8,189.3L496.1,188.3L496.8,189.2L495.6,190.0L496.8,191.9L497.0,193.9L494.4,195.7L494.2,196.3L493.5,197.7L494.1,199.7L492.3,200.5L489.9,207.1L484.0,202.4L482.3,201.8L477.4,205.1L475.5,204.7L474.4,206.2L472.5,207.3L471.0,205.9L469.9,205.9L468.0,204.6L464.6,204.1L462.9,204.2Z"/>
    <path class="wtc-county" id="wtc-county-harrison" data-county="Harrison" d="M504.9,307.1L504.9,301.7L504.9,293.0L507.2,292.1L509.5,292.0L510.5,292.4L511.9,291.7L513.0,291.9L514.9,290.7L517.1,290.9L518.3,289.3L530.0,291.9L530.0,303.3L528.7,303.1L527.4,304.1L528.1,304.7L526.5,305.1L525.1,303.7L523.1,303.9L522.7,305.2L521.0,305.5L520.5,304.6L516.6,303.3L512.4,303.3L504.9,307.1Z"/>
    <path class="wtc-county" id="wtc-county-hartley" data-county="Hartley" d="M187.4,431.4L187.4,419.3L187.4,414.9L220.7,415.1L220.7,431.4L187.4,431.4Z"/>
    <path class="wtc-county" id="wtc-county-haskell" data-county="Haskell" d="M303.4,330.1L303.6,313.5L317.9,313.4L323.2,313.4L323.2,330.2L303.4,330.1Z"/>
    <path class="wtc-county" id="wtc-county-hays" data-county="Hays" d="M372.7,214.3L367.9,202.2L378.2,195.0L379.3,191.3L384.1,195.4L383.4,196.3L387.2,198.7L388.4,200.3L390.3,201.7L372.7,214.3Z"/>
    <path class="wtc-county" id="wtc-county-hemphill" data-county="Hemphill" d="M282.5,431.4L282.5,414.7L303.1,414.7L303.1,424.7L303.1,431.4L282.5,431.4Z"/>
    <path class="wtc-county" id="wtc-county-henderson" data-county="Henderson" d="M438.2,290.6L440.9,289.4L443.5,288.5L444.6,286.7L446.5,286.4L447.9,284.8L449.5,285.1L448.7,283.8L449.1,283.0L451.2,283.0L451.4,279.8L453.0,280.2L453.4,277.4L453.5,277.1L477.3,280.1L476.1,282.1L475.4,282.5L475.9,284.6L475.0,285.9L476.5,288.2L476.5,290.5L452.5,290.5L438.2,290.6Z"/>
    <path class="wtc-county" id="wtc-county-hidalgo" data-county="Hidalgo" d="M367.1,78.2L364.2,72.2L360.6,65.4L357.0,58.1L360.4,56.5L361.6,56.9L364.5,54.4L366.6,54.5L367.0,53.0L369.2,53.0L368.8,52.2L369.8,51.2L371.8,50.6L372.6,51.3L373.7,50.6L376.4,51.0L377.8,50.0L378.2,50.9L380.0,51.0L380.5,50.4L383.7,50.9L384.3,50.6L384.6,51.1L384.6,61.7L384.6,64.9L379.1,65.5L380.9,71.7L379.8,71.9L379.8,78.2L367.1,78.2Z"/>
    <path class="wtc-county" id="wtc-county-hill" data-county="Hill" d="M399.2,283.5L399.9,283.4L398.6,281.8L399.5,280.2L398.7,279.2L398.8,277.6L401.1,278.0L402.9,275.9L400.6,274.2L403.6,272.8L402.8,272.0L405.0,270.9L406.6,271.0L406.6,270.2L405.0,268.9L406.9,267.2L415.9,271.7L420.0,265.8L428.1,269.9L421.4,279.7L419.6,278.9L414.1,287.0L399.2,283.8L399.2,283.5Z"/>
    <path class="wtc-county" id="wtc-county-hockley" data-county="Hockley" d="M203.5,346.4L204.3,329.8L224.1,329.8L223.7,346.4L203.5,346.4Z"/>
    <path class="wtc-county" id="wtc-county-hood" data-county="Hood" d="M376.8,298.2L376.7,296.4L381.3,285.8L387.6,289.0L393.9,289.0L393.9,298.1L376.8,298.2Z"/>
    <path class="wtc-county" id="wtc-county-hopkins" data-county="Hopkins" d="M460.7,323.3L460.6,315.0L460.7,314.2L468.1,314.2L468.3,313.5L481.8,313.6L481.8,329.3L480.4,328.8L478.2,329.2L474.4,328.2L471.3,328.7L467.9,326.5L465.7,326.6L463.6,324.7L460.7,323.3Z"/>
    <path class="wtc-county" id="wtc-county-houston" data-county="Houston" d="M465.4,258.0L465.1,256.3L466.5,256.1L467.2,253.1L468.4,252.4L468.5,250.9L465.9,249.2L465.1,245.8L465.8,245.1L464.0,244.0L464.4,242.4L465.9,241.9L468.3,242.0L469.4,240.3L467.6,238.3L469.2,236.0L470.0,236.2L477.0,241.1L495.2,253.5L493.4,255.1L491.1,256.8L489.7,256.7L489.7,258.6L488.1,259.4L487.1,261.0L485.6,260.6L483.2,261.4L468.7,259.5L468.9,258.9L465.4,258.0Z"/>
    <path class="wtc-county" id="wtc-county-howard" data-county="Howard" d="M238.8,296.9L238.6,280.2L255.0,280.2L258.0,280.2L258.4,296.9L238.8,296.9Z"/>
    <path class="wtc-county" id="wtc-county-hudspeth" data-county="Hudspeth" d="M74.7,277.0L74.9,257.1L76.2,257.1L76.2,255.0L74.7,253.5L76.4,252.7L76.9,251.0L79.7,249.8L82.9,246.4L83.2,245.2L84.4,245.1L85.7,244.0L88.1,243.2L89.8,242.0L91.6,238.5L97.6,234.6L97.6,233.3L101.8,232.1L102.8,231.1L104.4,231.3L106.5,230.2L106.9,229.4L108.5,229.0L110.4,226.9L112.5,226.9L113.4,224.7L115.9,226.0L115.9,232.6L116.3,232.6L116.2,238.8L115.9,269.8L115.9,276.9L96.3,276.9L74.7,277.0Z"/>
    <path class="wtc-county" id="wtc-county-hunt" data-county="Hunt" d="M444.2,314.3L444.2,309.0L452.5,308.8L458.0,308.8L456.0,310.3L457.6,314.2L460.7,314.2L460.6,315.0L460.7,323.3L460.9,330.6L444.2,328.4L444.2,314.3Z"/>
    <path class="wtc-county" id="wtc-county-hutchinson" data-county="Hutchinson" d="M241.4,431.4L241.4,414.9L261.7,415.0L261.7,431.4L241.4,431.4Z"/>
    <path class="wtc-county" id="wtc-county-irion" data-county="Irion" d="M254.9,258.9L254.6,241.8L266.5,242.0L276.9,242.1L276.8,258.8L254.9,258.9Z"/>
    <path class="wtc-county" id="wtc-county-jack" data-county="Jack" d="M363.3,330.1L363.0,315.3L377.2,315.1L382.3,315.1L382.4,331.5L380.1,331.5L380.1,332.8L363.3,332.8L363.3,330.1Z"/>
    <path class="wtc-county" id="wtc-county-jackson" data-county="Jackson" d="M419.7,165.1L423.8,163.5L425.3,159.6L427.3,158.6L428.3,157.0L428.1,155.7L430.9,151.7L433.1,152.2L433.4,151.5L439.1,151.4L440.2,152.4L440.1,150.3L443.1,150.3L443.7,161.3L431.1,172.1L430.4,172.7L419.7,165.1Z"/>
    <path class="wtc-county" id="wtc-county-jasper" data-county="Jasper" d="M514.2,240.1L514.5,239.2L518.3,240.3L519.4,239.6L520.7,240.3L521.8,239.5L522.4,237.4L523.9,236.4L523.5,235.0L524.7,232.6L524.7,231.1L526.1,230.7L527.0,226.8L528.1,227.0L529.6,224.8L528.1,223.0L529.0,220.8L527.0,217.0L528.4,213.8L527.0,211.5L528.0,210.6L527.2,209.9L535.4,210.0L536.7,236.8L535.0,244.8L530.2,243.9L530.0,243.3L526.6,242.6L514.2,240.1Z"/>
    <path class="wtc-county" id="wtc-county-jeff-davis" data-county="Jeff Davis" d="M115.9,226.0L113.4,224.7L154.6,216.5L158.4,216.5L172.2,226.1L166.6,229.9L146.9,242.9L115.9,226.0Z"/>
    <path class="wtc-county" id="wtc-county-jefferson" data-county="Jefferson" d="M514.7,205.1L514.7,196.5L518.0,196.5L518.2,184.1L526.5,187.3L531.5,188.6L537.8,188.5L537.8,189.0L535.5,192.0L534.3,193.0L534.6,193.8L537.2,195.6L537.7,198.6L537.0,199.9L531.7,201.2L530.5,201.8L530.5,203.1L528.1,203.9L528.5,205.6L527.2,206.9L524.8,207.9L522.7,207.1L521.2,207.2L520.5,205.2L516.4,204.4L514.7,205.1Z"/>
    <path class="wtc-county" id="wtc-county-jim-hogg" data-county="Jim Hogg" d="M342.9,96.7L342.9,78.3L363.1,78.3L363.4,88.6L361.5,88.6L361.5,91.9L360.6,91.9L360.6,95.4L359.3,96.6L359.5,99.6L356.9,100.2L348.9,100.0L348.9,96.7L342.9,96.7Z"/>
    <path class="wtc-county" id="wtc-county-jim-wells" data-county="Jim Wells" d="M370.4,126.8L370.4,96.5L377.1,96.5L377.1,110.7L381.5,110.7L381.9,116.1L381.7,120.2L386.9,124.4L386.8,126.1L385.4,125.9L383.8,126.7L370.4,126.8Z"/>
    <path class="wtc-county" id="wtc-county-johnson" data-county="Johnson" d="M393.9,298.1L393.9,289.0L393.9,284.7L395.7,283.6L395.8,282.6L397.7,282.0L397.9,283.1L399.2,283.5L399.2,283.8L414.1,287.0L414.1,297.8L396.4,298.1L393.9,298.1Z"/>
    <path class="wtc-county" id="wtc-county-jones" data-county="Jones" d="M297.7,313.5L297.5,296.8L317.2,296.7L317.2,296.5L317.9,296.5L317.9,313.4L303.6,313.5L297.7,313.5Z"/>
    <path class="wtc-county" id="wtc-county-karnes" data-county="Karnes" d="M372.0,158.2L375.6,154.6L379.1,150.9L382.6,152.0L386.0,150.1L387.8,150.0L395.5,155.6L388.6,162.9L394.0,166.9L389.7,171.1L372.0,158.2Z"/>
    <path class="wtc-county" id="wtc-county-kaufman" data-county="Kaufman" d="M435.7,307.9L435.6,297.7L435.3,297.7L436.3,297.0L436.0,295.3L437.4,293.5L438.9,292.6L438.2,290.6L452.5,290.5L452.5,308.8L444.2,309.0L444.2,307.9L435.7,307.9Z"/>
    <path class="wtc-county" id="wtc-county-kendall" data-county="Kendall" d="M344.3,206.0L344.3,192.4L349.6,190.1L351.1,190.0L352.6,190.7L354.7,191.0L363.6,198.4L356.9,206.0L344.3,206.0Z"/>
    <path class="wtc-county" id="wtc-county-kenedy" data-county="Kenedy" d="M403.1,97.1L402.1,90.9L402.2,86.9L402.1,82.4L402.5,78.9L403.7,76.0L405.4,71.3L406.3,71.3L404.2,78.7L403.1,85.4L402.9,88.8L403.2,92.3L404.2,97.1L403.1,97.1ZM379.8,94.5L379.8,78.2L379.8,71.9L380.9,71.7L384.6,71.2L400.6,71.3L399.6,75.5L399.1,79.1L399.6,79.2L400.5,86.0L401.0,92.6L400.6,92.8L401.3,96.6L400.2,96.5L396.8,95.2L393.5,95.8L393.1,97.2L389.7,96.6L387.5,97.3L385.3,95.8L381.2,95.4L379.8,94.5Z"/>
    <path class="wtc-county" id="wtc-county-kent" data-county="Kent" d="M263.6,330.1L263.6,313.9L265.4,313.6L278.1,313.6L283.3,313.6L283.5,330.1L263.6,330.1Z"/>
    <path class="wtc-county" id="wtc-county-kerr" data-county="Kerr" d="M312.4,211.8L312.3,203.6L314.9,203.6L314.9,197.3L318.3,197.2L330.6,197.1L334.4,196.8L344.3,192.4L344.3,206.0L329.8,205.9L329.7,211.7L312.4,211.8Z"/>
    <path class="wtc-county" id="wtc-county-kimble" data-county="Kimble" d="M298.8,227.8L298.8,211.8L312.4,211.8L329.7,211.7L329.7,219.8L322.8,219.8L322.8,227.8L298.8,227.8Z"/>
    <path class="wtc-county" id="wtc-county-king" data-county="King" d="M283.3,346.8L283.5,330.1L303.4,330.1L303.3,346.8L301.2,346.8L283.3,346.8Z"/>
    <path class="wtc-county" id="wtc-county-kinney" data-county="Kinney" d="M272.8,171.9L274.0,169.7L273.6,169.3L276.8,167.1L277.7,165.9L298.9,165.9L298.9,186.4L276.5,186.4L276.5,178.7L276.1,175.5L274.7,175.2L274.7,172.4L272.8,171.9Z"/>
    <path class="wtc-county" id="wtc-county-kleberg" data-county="Kleberg" d="M407.2,108.4L405.8,105.8L403.6,99.9L403.1,97.1L404.2,97.1L406.1,102.8L408.9,108.5L407.2,108.4ZM381.5,110.7L377.1,110.7L377.1,96.5L379.8,96.4L379.8,94.5L381.2,95.4L385.3,95.8L387.5,97.3L389.7,96.6L393.1,97.2L394.2,97.4L396.9,99.3L397.7,100.3L398.8,100.2L398.4,98.3L396.5,97.6L398.0,97.0L399.0,97.9L401.7,98.7L403.3,102.2L403.2,102.7L405.0,107.9L385.4,107.8L384.1,108.9L383.5,110.1L381.5,110.7Z"/>
    <path class="wtc-county" id="wtc-county-knox" data-county="Knox" d="M303.3,346.8L303.4,330.1L323.2,330.2L323.1,342.9L322.4,344.2L321.3,344.3L319.3,345.6L318.3,345.0L317.1,346.0L314.8,346.5L314.5,345.4L312.4,346.3L309.6,346.1L309.4,346.8L303.3,346.8Z"/>
    <path class="wtc-county" id="wtc-county-lamar" data-county="Lamar" d="M461.3,347.0L461.0,346.5L460.9,332.6L462.1,332.5L464.6,333.9L467.6,332.9L469.1,333.5L472.0,333.2L473.5,332.0L474.8,332.3L477.7,330.7L481.8,329.5L481.7,348.3L481.8,348.5L480.6,348.1L475.9,348.2L475.9,348.7L473.0,348.5L472.1,350.5L470.7,350.6L467.4,348.9L464.7,349.0L464.6,348.2L464.2,347.1L463.1,347.8L461.3,347.0Z"/>
    <path class="wtc-county" id="wtc-county-lamb" data-county="Lamb" d="M203.5,365.0L203.5,346.4L223.7,346.4L223.6,365.0L206.9,365.0L203.5,365.0Z"/>
    <path class="wtc-county" id="wtc-county-lampasas" data-county="Lampasas" d="M357.8,247.6L357.7,246.4L359.9,244.7L358.4,243.5L359.3,242.2L361.0,243.4L361.9,241.8L360.8,241.3L362.6,239.9L382.7,240.2L382.8,241.5L372.4,256.5L369.0,254.7L369.2,254.5L357.8,247.6Z"/>
    <path class="wtc-county" id="wtc-county-la-salle" data-county="La Salle" d="M326.1,149.0L326.1,134.2L326.2,132.4L326.4,125.7L348.7,126.8L348.8,132.3L348.8,149.2L348.8,149.3L326.1,149.0Z"/>
    <path class="wtc-county" id="wtc-county-lavaca" data-county="Lavaca" d="M411.9,186.6L409.6,184.8L409.6,182.0L408.3,177.3L418.2,166.6L419.7,165.1L430.4,172.7L434.1,175.4L425.2,184.7L423.7,184.6L423.3,186.2L422.2,186.7L411.9,186.6Z"/>
    <path class="wtc-county" id="wtc-county-lee" data-county="Lee" d="M404.7,216.1L409.8,213.6L414.3,210.6L416.5,202.7L416.6,202.0L423.3,205.2L425.2,206.9L427.3,208.3L427.5,209.9L429.3,210.5L431.1,212.0L429.0,213.0L427.1,212.9L425.3,215.6L422.2,218.2L420.4,221.3L418.8,222.0L411.5,218.2L404.7,216.1Z"/>
    <path class="wtc-county" id="wtc-county-leon" data-county="Leon" d="M443.2,252.4L442.8,248.4L444.2,245.7L444.2,244.2L445.2,241.8L446.3,241.2L445.6,239.1L446.3,237.8L449.0,238.6L453.6,241.4L456.4,242.3L464.4,242.4L464.0,244.0L465.8,245.1L465.1,245.8L465.9,249.2L468.5,250.9L468.4,252.4L467.2,253.1L466.5,256.1L465.1,256.3L465.4,258.0L465.0,259.9L466.2,259.9L465.8,261.0L466.5,262.3L465.5,263.7L464.7,263.3L464.3,261.6L463.6,262.4L446.4,254.6L443.1,253.1L443.2,252.4Z"/>
    <path class="wtc-county" id="wtc-county-liberty" data-county="Liberty" d="M487.3,213.9L489.9,207.1L492.3,200.5L494.1,199.7L493.5,197.7L494.2,196.3L514.7,196.5L514.7,205.1L508.9,205.0L503.7,219.4L499.3,219.6L499.6,219.3L487.3,213.9Z"/>
    <path class="wtc-county" id="wtc-county-limestone" data-county="Limestone" d="M420.0,265.8L424.9,258.7L432.7,247.2L443.2,252.4L443.1,253.1L446.4,254.6L436.6,269.2L428.1,269.9L420.0,265.8Z"/>
    <path class="wtc-county" id="wtc-county-lipscomb" data-county="Lipscomb" d="M282.4,448.3L282.4,431.4L282.5,431.4L303.1,431.4L303.1,448.3L303.0,448.3L282.4,448.3Z"/>
    <path class="wtc-county" id="wtc-county-live-oak" data-county="Live Oak" d="M366.6,147.9L366.6,126.8L370.4,126.8L383.8,126.7L383.1,127.2L383.0,128.9L386.2,131.3L386.5,131.6L375.9,149.8L379.1,150.9L375.6,154.6L366.6,147.9Z"/>
    <path class="wtc-county" id="wtc-county-llano" data-county="Llano" d="M342.5,235.9L342.6,219.7L356.7,219.8L363.7,219.9L365.9,219.3L365.9,222.0L364.1,222.2L364.1,223.6L362.6,226.4L364.0,226.5L363.6,227.6L365.2,228.9L363.1,229.3L362.9,230.8L364.9,232.5L362.2,233.9L362.3,235.9L342.5,235.9Z"/>
    <path class="wtc-county" id="wtc-county-loving" data-county="Loving" d="M151.6,276.9L152.7,276.4L155.1,272.0L157.3,272.7L158.5,268.2L161.3,267.0L162.5,267.3L163.7,265.9L165.1,265.7L164.8,264.5L165.6,263.7L176.4,263.6L176.4,276.9L161.4,276.9L151.6,276.9Z"/>
    <path class="wtc-county" id="wtc-county-lubbock" data-county="Lubbock" d="M223.7,346.4L224.1,329.8L243.8,330.0L243.5,346.6L223.7,346.4Z"/>
    <path class="wtc-county" id="wtc-county-lynn" data-county="Lynn" d="M224.1,329.8L224.1,313.5L238.8,313.5L243.8,313.5L243.8,330.0L224.1,329.8Z"/>
    <path class="wtc-county" id="wtc-county-mcculloch" data-county="McCulloch" d="M318.2,242.2L318.2,236.6L322.7,236.6L337.7,236.6L337.7,256.4L333.5,256.6L332.1,257.2L329.7,255.3L329.3,254.4L325.8,255.8L324.3,256.9L324.6,255.8L323.2,254.9L322.4,255.7L321.7,255.0L320.8,257.2L318.3,257.6L318.2,242.2Z"/>
    <path class="wtc-county" id="wtc-county-mclennan" data-county="McLennan" d="M406.9,267.2L394.3,261.2L401.4,251.0L404.3,248.1L406.8,249.5L424.9,258.7L420.0,265.8L415.9,271.7L406.9,267.2Z"/>
    <path class="wtc-county" id="wtc-county-mcmullen" data-county="McMullen" d="M348.8,149.2L348.8,132.3L348.7,126.8L366.6,126.8L366.6,147.9L366.6,149.3L348.8,149.2Z"/>
    <path class="wtc-county" id="wtc-county-madison" data-county="Madison" d="M446.3,237.8L447.9,236.2L447.3,235.5L448.7,233.4L449.0,232.1L460.7,233.7L463.6,234.2L466.2,235.5L468.7,234.8L470.0,236.2L469.2,236.0L467.6,238.3L469.4,240.3L468.3,242.0L465.9,241.9L464.4,242.4L456.4,242.3L453.6,241.4L449.0,238.6L446.3,237.8Z"/>
    <path class="wtc-county" id="wtc-county-marion" data-county="Marion" d="M504.8,310.4L504.9,307.1L512.4,303.3L516.6,303.3L520.5,304.6L521.0,305.5L522.7,305.2L523.1,303.9L525.1,303.7L526.5,305.1L528.1,304.7L527.4,304.1L528.7,303.1L530.0,303.3L530.0,310.5L506.7,310.4L504.8,310.4Z"/>
    <path class="wtc-county" id="wtc-county-martin" data-county="Martin" d="M218.9,296.8L218.9,280.2L235.5,280.2L238.6,280.2L238.8,296.9L219.2,296.8L218.9,296.8Z"/>
    <path class="wtc-county" id="wtc-county-mason" data-county="Mason" d="M322.7,236.6L322.8,227.8L322.8,219.8L329.7,219.8L342.6,219.7L342.5,235.9L337.7,235.9L337.7,236.6L322.7,236.6Z"/>
    <path class="wtc-county" id="wtc-county-matagorda" data-county="Matagorda" d="M441.1,139.4L447.1,143.3L455.4,147.0L462.7,149.9L468.4,153.2L474.3,156.0L471.8,156.3L471.0,157.8L469.4,158.8L468.8,160.4L467.9,161.3L464.4,161.4L463.8,164.3L464.4,165.0L461.4,166.7L461.6,169.3L460.2,171.4L456.8,168.3L443.7,161.3L443.1,150.3L443.1,149.1L441.1,139.4Z"/>
    <path class="wtc-county" id="wtc-county-maverick" data-county="Maverick" d="M277.7,165.9L279.1,159.0L280.2,158.9L281.4,156.1L282.2,156.0L282.8,153.6L283.9,152.8L283.6,151.4L284.1,149.8L286.2,148.9L286.1,147.8L288.0,146.9L287.4,145.6L288.7,144.1L290.3,143.7L289.1,142.7L290.3,141.5L289.9,139.9L292.2,136.7L291.9,135.4L293.7,133.5L294.7,133.6L295.1,132.1L298.8,132.1L298.8,149.3L298.9,165.9L277.7,165.9Z"/>
    <path class="wtc-county" id="wtc-county-medina" data-county="Medina" d="M325.6,186.6L325.4,166.1L348.7,166.1L348.7,172.2L348.7,182.6L348.5,189.0L344.0,184.1L341.8,184.2L342.1,186.0L341.1,186.4L325.6,186.6Z"/>
    <path class="wtc-county" id="wtc-county-menard" data-county="Menard" d="M298.8,242.2L298.8,227.8L322.8,227.8L322.7,236.6L318.2,236.6L318.2,242.2L298.8,242.2Z"/>
    <path class="wtc-county" id="wtc-county-midland" data-county="Midland" d="M216.1,280.2L216.1,263.6L235.5,263.6L235.5,280.2L218.9,280.2L216.1,280.2Z"/>
    <path class="wtc-county" id="wtc-county-milam" data-county="Milam" d="M405.4,229.4L407.0,228.8L411.5,218.2L418.8,222.0L431.8,228.6L432.2,229.6L430.8,230.4L431.2,231.4L429.0,233.7L429.4,235.3L427.7,235.0L426.7,236.0L426.2,238.8L425.2,241.3L423.8,242.9L423.8,243.0L414.7,238.3L407.6,234.6L405.4,229.4Z"/>
    <path class="wtc-county" id="wtc-county-mills" data-county="Mills" d="M341.6,257.3L342.5,256.0L344.0,255.4L346.2,255.7L346.7,254.6L349.9,254.5L349.6,253.3L350.7,253.6L351.3,255.2L352.5,254.3L352.2,252.0L354.3,252.9L354.9,252.3L354.7,250.8L357.0,251.1L355.5,249.1L357.3,248.9L357.8,247.6L369.2,254.5L369.0,254.7L361.6,264.9L360.6,266.4L353.9,265.5L350.3,265.0L349.6,262.1L341.6,257.3Z"/>
    <path class="wtc-county" id="wtc-county-mitchell" data-county="Mitchell" d="M258.4,296.9L258.0,280.2L271.8,280.2L277.9,280.2L278.0,296.9L258.4,297.0L258.4,296.9Z"/>
    <path class="wtc-county" id="wtc-county-montague" data-county="Montague" d="M380.1,332.8L380.1,331.5L382.4,331.5L398.8,331.5L399.0,349.9L396.0,349.2L394.6,350.0L395.0,351.3L392.4,352.7L391.2,352.6L389.5,350.7L385.6,347.7L383.9,347.4L380.1,348.9L380.1,332.8Z"/>
    <path class="wtc-county" id="wtc-county-montgomery" data-county="Montgomery" d="M462.0,224.8L462.9,213.6L462.9,210.1L462.9,204.2L464.6,204.1L468.0,204.6L469.9,205.9L471.0,205.9L472.5,207.3L474.4,206.2L475.5,204.7L477.4,205.1L482.3,201.8L484.0,202.4L489.9,207.1L487.3,213.9L484.9,212.9L485.8,214.0L484.5,215.2L481.5,216.5L479.9,220.0L479.7,220.1L470.7,220.1L462.0,224.8Z"/>
    <path class="wtc-county" id="wtc-county-moore" data-county="Moore" d="M220.7,431.4L220.7,415.1L220.7,414.8L241.4,414.8L241.4,414.9L241.4,431.4L220.7,431.4Z"/>
    <path class="wtc-county" id="wtc-county-morris" data-county="Morris" d="M500.8,328.8L500.4,314.3L502.3,312.2L504.2,311.4L504.8,310.4L506.7,310.4L506.8,325.2L505.3,326.9L503.8,326.8L503.1,327.5L502.0,327.6L500.8,328.8Z"/>
    <path class="wtc-county" id="wtc-county-motley" data-county="Motley" d="M263.5,365.0L263.5,346.8L283.3,346.8L283.5,365.0L267.1,365.0L263.5,365.0Z"/>
    <path class="wtc-county" id="wtc-county-nacogdoches" data-county="Nacogdoches" d="M495.9,271.0L494.6,268.6L496.3,268.0L494.8,267.6L494.8,265.4L496.1,262.5L496.4,260.9L497.6,260.8L497.6,259.4L498.6,258.9L500.2,257.2L505.4,256.0L510.9,255.3L510.9,254.2L512.7,254.3L514.5,251.1L516.5,250.3L517.1,249.3L519.2,247.4L518.7,248.9L519.7,250.4L519.1,252.5L519.2,254.1L520.1,254.9L519.4,255.8L520.2,258.9L519.8,261.3L518.3,262.0L516.4,263.7L515.7,265.7L515.4,269.3L514.5,271.0L495.9,271.0Z"/>
    <path class="wtc-county" id="wtc-county-navarro" data-county="Navarro" d="M421.4,279.7L428.1,269.9L436.6,269.2L453.4,277.4L453.0,280.2L451.4,279.8L451.2,283.0L449.1,283.0L448.7,283.8L449.5,285.1L447.9,284.8L446.5,286.4L444.6,286.7L443.5,288.5L440.9,289.4L440.4,289.2L421.4,279.7Z"/>
    <path class="wtc-county" id="wtc-county-newton" data-county="Newton" d="M535.0,244.8L536.7,236.8L535.4,210.0L542.9,210.0L542.8,211.7L540.6,213.4L540.8,215.6L541.5,216.1L543.2,217.5L542.5,220.5L541.5,221.3L541.9,222.6L543.8,223.6L544.1,225.8L545.8,226.6L546.2,229.0L547.4,231.1L548.6,232.2L548.5,233.8L548.5,235.5L549.7,236.2L548.1,238.0L548.2,239.1L550.0,239.7L549.7,241.5L548.6,242.5L549.5,245.9L548.6,245.9L546.9,245.5L535.0,244.8Z"/>
    <path class="wtc-county" id="wtc-county-nolan" data-county="Nolan" d="M278.0,296.9L277.9,280.2L294.1,280.0L297.4,280.0L297.5,296.8L278.0,296.9Z"/>
    <path class="wtc-county" id="wtc-county-nueces" data-county="Nueces" d="M414.4,121.4L412.5,118.5L412.8,116.9L411.7,115.8L410.3,112.9L408.4,110.7L407.2,108.4L408.9,108.5L412.1,113.8L413.9,116.4L415.8,118.4L414.4,121.4ZM386.9,124.4L381.7,120.2L381.9,116.1L381.5,110.7L383.5,110.1L384.1,108.9L385.4,107.8L405.0,107.9L406.2,109.1L406.1,109.9L407.7,113.0L405.4,113.6L403.3,114.7L402.4,116.3L402.9,118.4L401.4,117.8L399.4,117.9L398.1,118.7L395.0,119.1L393.4,120.5L393.1,119.5L391.7,120.1L391.0,121.4L389.8,121.4L387.6,122.6L386.7,122.1L386.2,123.4L386.9,124.4Z"/>
    <path class="wtc-county" id="wtc-county-ochiltree" data-county="Ochiltree" d="M261.9,448.3L261.7,431.4L282.4,431.4L282.4,448.3L266.8,448.3L261.9,448.3Z"/>
    <path class="wtc-county" id="wtc-county-oldham" data-county="Oldham" d="M187.4,414.9L187.2,398.1L220.6,398.1L220.7,414.8L220.7,415.1L187.4,414.9Z"/>
    <path class="wtc-county" id="wtc-county-orange" data-county="Orange" d="M527.2,209.9L528.1,208.5L527.2,206.9L528.5,205.6L528.1,203.9L530.5,203.1L530.5,201.8L531.7,201.2L537.0,199.9L537.7,198.6L537.2,195.6L538.7,197.7L539.6,200.3L541.5,201.6L542.2,202.7L543.0,203.2L541.8,203.9L543.4,206.1L542.2,208.7L542.9,210.0L535.4,210.0L527.2,209.9Z"/>
    <path class="wtc-county" id="wtc-county-palo-pinto" data-county="Palo Pinto" d="M357.4,313.3L357.4,296.5L361.2,296.4L376.7,296.4L376.8,298.2L377.2,315.1L363.0,315.3L363.0,313.2L357.4,313.3Z"/>
    <path class="wtc-county" id="wtc-county-panola" data-county="Panola" d="M513.0,291.9L512.8,290.5L511.5,287.3L510.4,286.4L509.5,284.6L509.5,283.0L508.7,280.0L508.7,275.9L512.1,275.9L531.0,276.2L531.1,276.2L530.0,276.6L530.0,284.4L530.0,291.9L518.3,289.3L517.1,290.9L514.9,290.7L513.0,291.9Z"/>
    <path class="wtc-county" id="wtc-county-parker" data-county="Parker" d="M377.2,315.1L376.8,298.2L393.9,298.1L396.4,298.1L396.6,314.8L382.3,315.1L377.2,315.1Z"/>
    <path class="wtc-county" id="wtc-county-parmer" data-county="Parmer" d="M187.2,365.0L203.5,365.0L206.9,365.0L206.9,381.5L187.2,381.5L187.2,365.0Z"/>
    <path class="wtc-county" id="wtc-county-pecos" data-county="Pecos" d="M166.6,229.9L172.2,226.1L205.4,202.7L205.4,211.5L213.9,211.6L213.9,223.6L221.7,223.5L221.7,225.7L235.8,225.6L235.5,226.7L234.3,227.4L234.0,229.4L233.3,229.6L233.4,231.3L232.3,234.0L231.1,234.7L231.8,235.5L228.8,237.1L227.3,238.4L226.5,238.0L225.1,239.0L223.9,238.3L221.7,238.6L219.4,240.0L215.9,240.2L214.7,241.2L212.1,242.2L210.6,243.7L210.6,246.2L207.9,248.5L204.9,249.2L201.2,251.4L198.3,249.5L197.8,250.0L195.4,249.0L191.5,252.2L188.5,253.0L174.7,238.3L166.6,229.9Z"/>
    <path class="wtc-county" id="wtc-county-polk" data-county="Polk" d="M485.9,232.2L488.5,230.5L487.9,227.9L489.3,227.1L489.6,225.8L491.5,226.7L493.3,223.8L492.5,222.8L494.9,222.7L499.8,221.0L498.6,220.2L499.3,219.6L503.7,219.4L511.2,219.5L510.9,220.8L506.5,239.3L510.2,241.1L508.0,242.1L503.5,242.8L499.6,244.4L495.9,240.4L485.9,232.2Z"/>
    <path class="wtc-county" id="wtc-county-potter" data-county="Potter" d="M220.7,414.8L220.6,398.1L241.4,398.1L241.4,414.8L220.7,414.8Z"/>
    <path class="wtc-county" id="wtc-county-presidio" data-county="Presidio" d="M113.4,224.7L114.0,223.9L115.6,223.8L116.6,222.5L118.3,216.7L118.1,215.6L119.8,214.5L120.0,213.5L121.8,212.2L122.2,210.8L123.7,209.8L124.6,207.6L124.4,205.8L124.8,204.0L123.9,201.7L124.9,199.8L124.9,197.9L126.7,195.8L127.6,193.8L129.3,192.0L130.2,188.4L131.5,187.0L135.6,184.5L136.2,183.3L137.9,182.5L140.8,182.2L142.7,180.7L142.7,179.9L145.3,177.3L146.8,176.9L149.4,174.9L151.7,174.0L157.0,173.3L158.7,172.5L158.4,216.5L154.6,216.5L113.4,224.7Z"/>
    <path class="wtc-county" id="wtc-county-rains" data-county="Rains" d="M460.7,314.2L457.6,314.2L456.0,310.3L458.0,308.8L458.4,308.0L460.6,306.5L463.2,306.4L466.5,305.3L468.4,304.0L469.4,304.4L468.3,313.5L468.1,314.2L460.7,314.2Z"/>
    <path class="wtc-county" id="wtc-county-randall" data-county="Randall" d="M220.6,398.1L220.6,381.5L227.0,381.6L241.1,381.6L241.4,398.1L220.6,398.1Z"/>
    <path class="wtc-county" id="wtc-county-reagan" data-county="Reagan" d="M235.5,263.6L235.5,241.9L254.6,241.8L254.9,258.9L254.9,260.0L254.9,263.6L235.5,263.6Z"/>
    <path class="wtc-county" id="wtc-county-real" data-county="Real" d="M312.3,203.6L304.4,203.9L304.1,201.7L303.6,201.7L303.0,196.8L301.9,195.0L302.6,192.9L301.8,192.3L302.2,190.2L300.7,189.8L302.5,188.4L302.6,186.4L318.3,186.6L318.3,197.2L314.9,197.3L314.9,203.6L312.3,203.6Z"/>
    <path class="wtc-county" id="wtc-county-red-river" data-county="Red River" d="M481.8,348.5L481.7,348.3L481.8,329.5L481.9,329.4L483.8,329.0L488.8,329.8L490.0,330.1L491.6,329.6L492.9,329.9L497.0,329.6L498.3,330.0L500.8,328.8L502.0,327.6L503.1,327.5L503.3,341.8L503.5,341.9L502.2,343.7L500.1,343.2L498.5,343.4L495.6,345.9L494.6,347.8L491.6,347.9L488.9,350.5L487.7,350.7L484.8,351.6L483.8,349.4L481.8,348.5Z"/>
    <path class="wtc-county" id="wtc-county-reeves" data-county="Reeves" d="M149.9,276.9L146.9,242.9L166.6,229.9L174.7,238.3L188.5,253.0L186.7,253.5L186.3,252.7L182.0,252.9L179.6,253.6L178.9,255.1L176.3,254.5L173.8,255.3L171.4,255.2L170.3,256.3L169.7,258.1L170.0,259.8L169.3,261.0L169.5,262.7L168.6,263.3L167.0,262.9L165.6,263.7L164.8,264.5L165.1,265.7L163.7,265.9L162.5,267.3L161.3,267.0L158.5,268.2L157.3,272.7L155.1,272.0L152.7,276.4L151.6,276.9L149.9,276.9Z"/>
    <path class="wtc-county" id="wtc-county-refugio" data-county="Refugio" d="M396.8,130.9L397.6,130.3L399.0,131.0L401.1,129.1L404.3,129.2L405.2,129.8L407.4,127.5L409.2,127.5L411.5,129.7L416.3,131.6L412.6,134.2L412.6,134.9L425.3,136.7L425.3,139.2L426.3,140.2L425.3,141.6L424.5,141.0L423.2,142.7L421.5,143.9L420.6,143.1L418.1,143.6L415.6,145.5L413.9,144.9L413.3,145.7L411.3,145.7L403.1,139.4L396.8,130.9Z"/>
    <path class="wtc-county" id="wtc-county-roberts" data-county="Roberts" d="M261.7,415.0L261.7,414.7L282.5,414.7L282.5,431.4L282.4,431.4L261.7,431.4L261.7,431.4L261.7,415.0Z"/>
    <path class="wtc-county" id="wtc-county-robertson" data-county="Robertson" d="M423.8,242.9L425.2,241.3L426.2,238.8L426.7,236.0L427.7,235.0L429.4,235.3L429.0,233.7L431.2,231.4L430.8,230.4L432.2,229.6L431.8,228.6L433.8,227.2L438.1,229.1L440.7,233.7L442.6,235.8L446.3,237.8L445.6,239.1L446.3,241.2L445.2,241.8L444.2,244.2L444.2,245.7L442.8,248.4L443.2,252.4L432.7,247.2L423.8,242.9Z"/>
    <path class="wtc-county" id="wtc-county-rockwall" data-county="Rockwall" d="M435.7,314.3L435.7,307.9L444.2,307.9L444.2,309.0L444.2,314.3L435.7,314.3Z"/>
    <path class="wtc-county" id="wtc-county-runnels" data-county="Runnels" d="M294.1,280.0L294.1,265.2L294.3,261.0L298.9,260.9L313.7,260.8L314.1,280.0L297.4,280.0L294.1,280.0Z"/>
    <path class="wtc-county" id="wtc-county-rusk" data-county="Rusk" d="M494.1,291.0L494.1,282.2L494.1,271.1L495.9,271.0L514.5,271.0L513.4,273.2L512.1,274.0L512.1,275.9L508.7,275.9L508.7,280.0L509.5,283.0L509.5,284.6L510.4,286.4L511.5,287.3L512.8,290.5L513.0,291.9L511.9,291.7L510.5,292.4L509.5,292.0L508.7,290.6L507.4,291.0L494.1,291.0Z"/>
    <path class="wtc-county" id="wtc-county-sabine" data-county="Sabine" d="M532.2,260.5L532.2,256.6L529.9,254.4L530.7,252.7L529.8,250.1L530.5,248.0L530.2,243.9L535.0,244.8L546.9,245.5L546.0,249.2L545.2,249.1L543.6,250.6L544.4,252.4L544.0,254.0L542.9,254.5L543.0,255.5L541.1,256.7L541.9,257.6L541.5,258.7L539.7,258.9L538.0,261.1L535.5,262.1L532.2,260.5Z"/>
    <path class="wtc-county" id="wtc-county-san-augustine" data-county="San Augustine" d="M516.4,263.7L518.3,262.0L519.8,261.3L520.2,258.9L519.4,255.8L520.1,254.9L519.2,254.1L519.1,252.5L519.7,250.4L518.7,248.9L519.2,247.4L522.1,246.0L524.3,244.0L526.6,242.6L530.0,243.3L530.2,243.9L530.5,248.0L529.8,250.1L530.7,252.7L529.9,254.4L532.2,256.6L532.2,260.5L528.1,262.4L516.4,263.7Z"/>
    <path class="wtc-county" id="wtc-county-san-jacinto" data-county="San Jacinto" d="M479.9,220.0L481.5,216.5L484.5,215.2L485.8,214.0L484.9,212.9L487.3,213.9L499.6,219.3L499.3,219.6L498.6,220.2L499.8,221.0L494.9,222.7L492.5,222.8L493.3,223.8L491.5,226.7L489.6,225.8L489.3,227.1L487.9,227.9L488.5,230.5L485.9,232.2L484.3,233.8L484.0,235.3L481.7,234.9L481.1,233.5L479.9,220.0Z"/>
    <path class="wtc-county" id="wtc-county-san-patricio" data-county="San Patricio" d="M386.2,131.3L383.0,128.9L383.1,127.2L383.8,126.7L385.4,125.9L386.8,126.1L386.9,124.4L386.2,123.4L386.7,122.1L387.6,122.6L389.8,121.4L391.0,121.4L391.7,120.1L393.1,119.5L393.4,120.5L395.0,119.1L398.1,118.7L398.6,120.2L400.1,119.8L404.4,120.1L405.0,119.6L407.8,119.9L408.7,118.1L410.3,118.1L412.2,120.9L407.4,127.5L405.2,129.8L404.3,129.2L401.1,129.1L399.0,131.0L397.6,130.3L396.8,130.9L395.7,129.5L386.2,131.3Z"/>
    <path class="wtc-county" id="wtc-county-san-saba" data-county="San Saba" d="M337.7,236.6L337.7,235.9L342.5,235.9L362.3,235.9L363.6,236.6L362.3,237.0L361.8,239.1L362.6,239.9L360.8,241.3L361.9,241.8L361.0,243.4L359.3,242.2L358.4,243.5L359.9,244.7L357.7,246.4L357.8,247.6L357.3,248.9L355.5,249.1L357.0,251.1L354.7,250.8L354.9,252.3L354.3,252.9L352.2,252.0L352.5,254.3L351.3,255.2L350.7,253.6L349.6,253.3L349.9,254.5L346.7,254.6L346.2,255.7L344.0,255.4L342.5,256.0L341.6,257.3L340.5,256.7L339.6,257.5L337.7,256.4L337.7,236.6Z"/>
    <path class="wtc-county" id="wtc-county-schleicher" data-county="Schleicher" d="M266.5,242.0L266.5,227.6L298.8,227.8L298.8,242.2L276.9,242.1L266.5,242.0Z"/>
    <path class="wtc-county" id="wtc-county-scurry" data-county="Scurry" d="M258.4,313.6L258.4,297.0L278.0,296.9L278.1,313.6L265.4,313.6L263.6,313.9L258.4,313.6Z"/>
    <path class="wtc-county" id="wtc-county-shackelford" data-county="Shackelford" d="M317.9,313.4L317.9,296.5L336.9,296.5L337.6,296.5L337.6,313.4L323.2,313.4L317.9,313.4Z"/>
    <path class="wtc-county" id="wtc-county-shelby" data-county="Shelby" d="M512.1,275.9L512.1,274.0L513.4,273.2L514.5,271.0L515.4,269.3L515.7,265.7L516.4,263.7L528.1,262.4L532.2,260.5L535.5,262.1L538.0,261.1L538.7,262.5L538.2,264.0L539.2,265.4L538.1,267.2L538.4,268.3L536.3,270.1L536.2,271.0L535.1,272.9L532.6,273.9L531.1,276.2L531.0,276.2L512.1,275.9Z"/>
    <path class="wtc-county" id="wtc-county-sherman" data-county="Sherman" d="M220.7,448.3L220.7,431.4L241.4,431.4L241.4,448.3L225.8,448.3L220.7,448.3Z"/>
    <path class="wtc-county" id="wtc-county-smith" data-county="Smith" d="M470.9,303.1L470.9,295.2L474.4,292.5L476.5,290.5L476.5,288.2L475.0,285.9L475.9,284.6L475.4,282.5L476.1,282.1L494.1,282.2L494.1,291.0L494.1,297.4L493.1,296.6L490.5,298.1L488.2,297.9L487.7,298.6L487.3,297.6L485.8,298.7L484.5,298.3L480.4,300.1L478.9,299.8L478.4,300.0L478.2,300.0L478.2,299.9L478.1,299.9L478.1,300.0L478.0,300.0L475.6,300.0L470.9,303.1Z"/>
    <path class="wtc-county" id="wtc-county-somervell" data-county="Somervell" d="M381.3,285.8L384.5,280.2L393.4,284.8L393.9,284.7L393.9,289.0L387.6,289.0L381.3,285.8Z"/>
    <path class="wtc-county" id="wtc-county-starr" data-county="Starr" d="M334.7,70.2L334.9,68.8L336.4,68.4L337.7,66.6L336.9,65.0L338.1,63.5L339.8,64.1L340.9,63.5L342.5,63.6L345.4,62.0L347.8,62.5L348.9,62.1L349.2,61.1L350.6,60.8L352.6,58.5L354.4,57.4L357.0,58.1L360.6,65.4L364.2,72.2L367.1,78.2L363.1,78.3L342.9,78.3L340.7,74.1L334.7,70.2Z"/>
    <path class="wtc-county" id="wtc-county-stephens" data-county="Stephens" d="M337.6,313.4L337.6,296.5L357.4,296.5L357.4,313.3L343.1,313.4L337.6,313.4Z"/>
    <path class="wtc-county" id="wtc-county-sterling" data-county="Sterling" d="M254.9,263.6L254.9,260.0L270.2,260.3L270.3,265.7L271.7,265.3L271.8,280.2L258.0,280.2L255.0,280.2L254.9,263.6Z"/>
    <path class="wtc-county" id="wtc-county-stonewall" data-county="Stonewall" d="M283.5,330.1L283.3,313.6L297.7,313.5L303.6,313.5L303.4,330.1L283.5,330.1Z"/>
    <path class="wtc-county" id="wtc-county-sutton" data-county="Sutton" d="M266.5,227.6L266.5,211.7L276.5,211.7L298.8,211.8L298.8,227.8L266.5,227.6Z"/>
    <path class="wtc-county" id="wtc-county-swisher" data-county="Swisher" d="M227.0,381.6L227.0,365.0L243.5,365.0L247.1,365.0L247.1,381.5L241.1,381.6L227.0,381.6Z"/>
    <path class="wtc-county" id="wtc-county-tarrant" data-county="Tarrant" d="M396.6,314.8L396.4,298.1L414.1,297.8L415.9,297.8L416.2,314.6L402.2,314.7L396.6,314.8Z"/>
    <path class="wtc-county" id="wtc-county-taylor" data-county="Taylor" d="M297.5,296.8L297.4,280.0L314.1,280.0L317.2,280.0L317.2,296.5L317.2,296.7L297.5,296.8Z"/>
    <path class="wtc-county" id="wtc-county-terrell" data-county="Terrell" d="M235.8,225.6L221.7,225.7L221.7,223.5L213.9,223.6L213.9,211.6L205.4,211.5L205.4,202.7L214.7,196.1L218.3,194.8L220.0,194.9L221.5,193.3L225.1,192.6L225.6,193.3L228.0,193.5L229.6,192.7L232.6,193.2L236.0,192.5L236.2,211.7L237.0,213.2L238.4,213.9L239.6,213.7L238.4,216.1L236.9,216.8L238.4,218.2L239.2,220.6L240.4,222.1L239.7,223.2L240.3,224.4L237.9,225.7L235.8,225.6Z"/>
    <path class="wtc-county" id="wtc-county-terry" data-county="Terry" d="M204.3,329.8L204.3,313.4L219.1,313.4L224.1,313.5L224.1,329.8L204.3,329.8Z"/>
    <path class="wtc-county" id="wtc-county-throckmorton" data-county="Throckmorton" d="M323.2,330.2L323.2,313.4L337.6,313.4L343.1,313.4L342.9,330.1L323.2,330.2Z"/>
    <path class="wtc-county" id="wtc-county-titus" data-county="Titus" d="M488.8,329.8L488.8,316.3L490.0,316.4L493.0,317.9L496.0,317.8L497.6,316.0L500.4,314.3L500.8,328.8L498.3,330.0L497.0,329.6L492.9,329.9L491.6,329.6L490.0,330.1L488.8,329.8Z"/>
    <path class="wtc-county" id="wtc-county-tom-green" data-county="Tom Green" d="M254.9,260.0L254.9,258.9L276.8,258.8L276.9,242.1L298.8,242.2L298.9,260.9L294.3,261.0L294.1,265.2L271.7,265.3L270.3,265.7L270.2,260.3L254.9,260.0Z"/>
    <path class="wtc-county" id="wtc-county-travis" data-county="Travis" d="M374.5,217.0L372.7,214.3L390.3,201.7L392.7,203.3L398.6,208.6L403.3,216.7L400.5,218.3L397.9,219.2L396.5,218.8L394.7,219.9L387.9,217.1L385.0,218.7L384.3,221.6L382.6,222.9L382.4,223.8L380.9,224.7L379.7,224.0L379.0,224.6L377.4,224.5L374.6,219.2L375.6,218.5L374.5,217.0Z"/>
    <path class="wtc-county" id="wtc-county-trinity" data-county="Trinity" d="M477.0,241.1L477.0,236.4L479.1,234.5L478.4,233.4L481.1,233.5L481.7,234.9L484.0,235.3L484.3,233.8L485.9,232.2L495.9,240.4L499.6,244.4L498.7,246.5L498.9,247.8L497.4,248.6L498.2,249.6L497.4,251.3L495.1,252.1L495.2,253.5L477.0,241.1Z"/>
    <path class="wtc-county" id="wtc-county-tyler" data-county="Tyler" d="M510.2,241.1L506.5,239.3L510.9,220.8L529.0,220.8L528.1,223.0L529.6,224.8L528.1,227.0L527.0,226.8L526.1,230.7L524.7,231.1L524.7,232.6L523.5,235.0L523.9,236.4L522.4,237.4L521.8,239.5L520.7,240.3L519.4,239.6L518.3,240.3L514.5,239.2L514.2,240.1L510.2,241.1Z"/>
    <path class="wtc-county" id="wtc-county-upshur" data-county="Upshur" d="M487.8,311.3L487.7,298.6L488.2,297.9L490.5,298.1L493.1,296.6L494.1,297.4L494.5,297.3L500.4,299.4L503.3,302.3L504.9,301.7L504.9,307.1L504.8,310.4L504.2,311.4L487.8,311.3Z"/>
    <path class="wtc-county" id="wtc-county-upton" data-county="Upton" d="M214.8,263.6L215.3,246.4L215.5,242.1L235.5,241.9L235.5,263.6L216.1,263.6L214.8,263.6Z"/>
    <path class="wtc-county" id="wtc-county-uvalde" data-county="Uvalde" d="M298.9,186.4L298.9,165.9L325.4,166.1L325.6,186.6L318.3,186.6L302.6,186.4L298.9,186.4Z"/>
    <path class="wtc-county" id="wtc-county-val-verde" data-county="Val Verde" d="M236.2,211.7L236.0,192.5L238.1,191.7L243.1,192.1L244.2,193.0L245.2,191.6L247.0,192.4L248.2,191.4L249.3,191.5L251.1,188.0L253.4,187.1L253.1,185.3L253.9,184.5L254.8,186.6L255.4,186.5L255.7,184.4L255.3,182.5L258.4,182.3L259.3,180.8L262.8,180.1L262.8,179.5L264.6,176.7L267.1,175.9L269.4,174.4L269.7,173.4L272.8,171.9L274.7,172.4L274.7,175.2L276.1,175.5L276.5,178.7L276.5,186.4L276.5,211.7L266.5,211.7L264.9,211.7L236.2,211.7Z"/>
    <path class="wtc-county" id="wtc-county-van-zandt" data-county="Van Zandt" d="M452.5,308.8L452.5,290.5L476.5,290.5L474.4,292.5L470.9,295.2L470.9,303.1L469.4,304.4L468.4,304.0L466.5,305.3L463.2,306.4L460.6,306.5L458.4,308.0L458.0,308.8L452.5,308.8Z"/>
    <path class="wtc-county" id="wtc-county-victoria" data-county="Victoria" d="M405.8,157.5L405.8,156.8L408.5,157.5L410.3,156.3L411.3,154.1L410.4,147.8L411.5,146.3L411.3,145.7L413.3,145.7L413.9,144.9L415.6,145.5L418.1,143.6L420.6,143.1L421.5,143.9L421.1,146.2L420.0,146.9L423.0,148.8L427.9,150.1L430.9,151.7L428.1,155.7L428.3,157.0L427.3,158.6L425.3,159.6L423.8,163.5L419.7,165.1L418.2,166.6L405.8,157.5Z"/>
    <path class="wtc-county" id="wtc-county-walker" data-county="Walker" d="M470.0,236.2L468.7,234.8L466.2,235.5L463.6,234.2L460.7,233.7L462.0,224.8L470.7,220.1L479.7,220.1L479.9,220.0L481.1,233.5L478.4,233.4L479.1,234.5L477.0,236.4L477.0,241.1L470.0,236.2Z"/>
    <path class="wtc-county" id="wtc-county-waller" data-county="Waller" d="M451.9,209.3L449.4,208.6L449.5,206.1L448.2,206.0L449.9,203.4L452.3,200.9L450.8,199.5L450.6,196.9L451.9,196.0L450.9,194.5L451.6,193.5L453.6,193.3L454.2,190.4L456.5,190.4L462.1,192.7L456.9,207.0L458.8,205.6L460.2,205.4L462.0,203.9L462.9,204.2L462.9,210.1L452.1,209.5L451.9,209.3Z"/>
    <path class="wtc-county" id="wtc-county-ward" data-county="Ward" d="M165.6,263.7L167.0,262.9L168.6,263.3L169.5,262.7L169.3,261.0L170.0,259.8L169.7,258.1L170.3,256.3L171.4,255.2L173.8,255.3L176.3,254.5L178.9,255.1L179.6,253.6L182.0,252.9L186.3,252.7L186.7,253.5L188.5,253.0L191.5,252.2L195.4,249.0L197.8,250.0L197.8,263.7L196.5,263.7L176.4,263.6L165.6,263.7Z"/>
    <path class="wtc-county" id="wtc-county-washington" data-county="Washington" d="M425.2,206.9L426.3,206.0L429.4,206.5L430.8,206.3L431.8,202.4L433.1,203.2L435.7,203.2L444.5,204.4L445.6,203.6L449.4,202.8L449.9,203.4L448.2,206.0L449.5,206.1L449.4,208.6L451.9,209.3L452.1,211.7L449.5,213.3L449.8,214.8L447.9,215.3L445.3,214.4L444.1,215.2L443.5,215.4L439.4,213.8L431.1,212.0L429.3,210.5L427.5,209.9L427.3,208.3L425.2,206.9Z"/>
    <path class="wtc-county" id="wtc-county-webb" data-county="Webb" d="M295.1,132.1L297.0,131.0L300.0,130.1L301.1,127.8L302.5,127.0L303.4,124.4L305.7,123.9L305.5,122.3L307.2,120.8L306.8,119.4L307.8,118.6L307.8,116.9L309.2,115.7L310.3,116.0L310.7,114.7L311.9,114.4L314.4,111.4L315.7,111.6L316.9,110.4L318.2,110.9L319.1,109.4L320.1,109.9L321.7,108.0L321.0,105.5L322.8,105.2L322.3,103.2L322.7,102.2L322.0,99.4L320.8,98.4L322.4,98.1L322.3,96.8L323.9,96.6L327.1,98.6L328.6,96.9L342.9,96.7L348.9,96.7L348.9,100.0L348.7,126.8L326.4,125.7L326.2,132.4L298.8,132.1L295.1,132.1Z"/>
    <path class="wtc-county" id="wtc-county-wharton" data-county="Wharton" d="M448.9,186.8L443.8,182.3L442.2,178.1L431.1,172.1L443.7,161.3L456.8,168.3L460.2,171.4L461.3,172.7L460.2,172.8L459.5,174.7L457.5,175.4L457.5,176.9L456.5,178.3L453.2,180.7L454.6,181.8L453.4,182.2L453.9,183.2L453.2,185.1L452.1,185.6L451.3,186.4L448.9,186.8Z"/>
    <path class="wtc-county" id="wtc-county-wheeler" data-county="Wheeler" d="M282.5,414.7L282.6,398.1L303.1,398.1L303.1,407.2L303.1,414.7L282.5,414.7Z"/>
    <path class="wtc-county" id="wtc-county-wichita" data-county="Wichita" d="M343.1,361.2L343.1,346.8L363.1,346.8L363.1,356.3L360.8,355.5L357.5,358.6L356.0,359.1L354.7,359.3L353.0,358.1L350.2,358.3L348.4,359.1L346.6,359.2L344.3,360.0L343.1,361.2Z"/>
    <path class="wtc-county" id="wtc-county-wilbarger" data-county="Wilbarger" d="M323.1,356.3L323.1,346.8L343.1,346.8L343.1,361.2L341.7,361.5L339.5,360.6L338.3,361.1L336.6,360.8L336.4,361.4L333.9,361.3L333.2,365.9L330.8,367.7L331.3,368.4L329.1,368.6L326.7,370.5L326.1,367.5L324.5,367.3L323.1,368.2L323.1,356.3Z"/>
    <path class="wtc-county" id="wtc-county-willacy" data-county="Willacy" d="M405.4,71.3L405.8,70.5L403.3,69.6L406.6,69.1L408.1,64.1L408.8,64.1L406.3,71.3L405.4,71.3ZM380.9,71.7L379.1,65.5L384.6,64.9L384.6,61.7L397.3,59.8L397.5,60.7L399.1,61.2L400.3,60.8L402.5,64.1L404.0,64.1L402.9,66.7L401.7,66.7L401.6,69.5L400.6,71.3L384.6,71.2L380.9,71.7Z"/>
    <path class="wtc-county" id="wtc-county-williamson" data-county="Williamson" d="M377.4,224.5L379.0,224.6L379.7,224.0L380.9,224.7L382.4,223.8L382.6,222.9L384.3,221.6L385.0,218.7L387.9,217.1L394.7,219.9L396.5,218.8L397.9,219.2L400.5,218.3L403.3,216.7L404.7,216.1L411.5,218.2L407.0,228.8L405.4,229.4L393.6,233.9L385.8,235.3L380.8,230.7L377.4,224.5Z"/>
    <path class="wtc-county" id="wtc-county-wilson" data-county="Wilson" d="M363.8,167.0L372.0,158.2L389.7,171.1L384.7,176.1L385.4,177.0L374.6,177.1L374.2,179.5L373.9,179.3L363.8,167.0Z"/>
    <path class="wtc-county" id="wtc-county-winkler" data-county="Winkler" d="M176.4,276.9L176.4,263.6L196.5,263.7L196.5,280.2L186.4,280.2L186.4,276.9L176.4,276.9Z"/>
    <path class="wtc-county" id="wtc-county-wise" data-county="Wise" d="M382.4,331.5L382.3,315.1L396.6,314.8L402.2,314.7L402.4,322.0L402.8,331.4L398.8,331.5L382.4,331.5Z"/>
    <path class="wtc-county" id="wtc-county-wood" data-county="Wood" d="M468.3,313.5L469.4,304.4L470.9,303.1L475.6,300.0L478.0,300.0L478.1,300.0L478.1,299.9L478.2,299.9L478.2,300.0L478.4,300.0L478.9,299.8L480.4,300.1L484.5,298.3L485.8,298.7L487.3,297.6L487.7,298.6L487.8,311.3L487.8,315.5L487.0,313.5L481.8,313.6L468.3,313.5Z"/>
    <path class="wtc-county" id="wtc-county-yoakum" data-county="Yoakum" d="M186.7,329.8L186.7,324.9L186.4,313.5L204.3,313.4L204.3,329.8L186.7,329.8Z"/>
    <path class="wtc-county" id="wtc-county-young" data-county="Young" d="M342.9,330.1L343.1,313.4L357.4,313.3L363.0,313.2L363.0,315.3L363.3,330.1L342.9,330.1Z"/>
    <path class="wtc-county" id="wtc-county-zapata" data-county="Zapata" d="M323.9,96.6L325.0,93.2L324.5,92.3L324.9,90.1L324.1,89.1L324.2,87.4L325.4,87.2L326.9,85.7L326.2,85.0L327.2,83.8L329.0,82.9L328.7,81.9L331.0,80.5L332.0,78.4L332.1,76.8L333.2,76.0L333.6,73.4L334.4,72.0L334.7,70.2L340.7,74.1L342.9,78.3L342.9,96.7L328.6,96.9L327.1,98.6L323.9,96.6Z"/>
    <path class="wtc-county" id="wtc-county-zavala" data-county="Zavala" d="M298.9,165.9L298.8,149.3L325.7,149.0L325.4,166.1L298.9,165.9Z"/>
  </g>
</svg>