<?xml version="1.0" encoding="UTF-8"?>
<svg xmlns="http://www.w3.org/2000/svg" viewBox="0 0 600 272" id="wtc-state-map-NE" role="img" aria-label="ne county map">
  <title>ne Counties</title>
  <g class="wtc-counties">
    <path class="wtc-county" id="wtc-county-adams" data-county="Adams" d="M354.6,89.4L354.6,70.0L380.3,70.0L380.3,89.9L379.8,89.9L354.8,89.9L354.6,89.4Z"/>
    <path class="wtc-county" id="wtc-county-antelope" data-county="Antelope" d="M379.0,189.3L378.8,169.4L379.2,169.0L379.2,159.5L405.7,159.5L405.5,169.5L405.5,189.4L379.0,189.3Z"/>
    <path class="wtc-county" id="wtc-county-arthur" data-county="Arthur" d="M168.2,149.6L168.2,129.7L201.3,129.8L201.3,149.7L200.2,149.7L168.2,149.6Z"/>
    <path class="wtc-county" id="wtc-county-banner" data-county="Banner" d="M50.0,147.1L50.0,139.5L50.0,129.6L88.6,129.7L89.0,132.2L89.0,147.2L50.0,147.1Z"/>
    <path class="wtc-county" id="wtc-county-blaine" data-county="Blaine" d="M266.3,169.3L266.5,149.5L267.4,149.5L281.5,149.4L299.6,149.5L299.6,169.3L272.1,169.3L266.3,169.3Z"/>
    <path class="wtc-county" id="wtc-county-boone" data-county="Boone" d="M379.2,159.5L379.2,149.5L379.4,149.3L379.4,134.6L390.3,134.6L390.3,135.5L393.8,135.5L393.8,136.4L402.6,136.4L405.9,137.2L405.7,149.6L405.7,159.5L379.2,159.5Z"/>
    <path class="wtc-county" id="wtc-county-box-butte" data-county="Box Butte" d="M84.7,189.4L84.7,169.5L87.2,169.5L87.2,164.6L89.4,164.5L117.9,164.4L127.4,164.6L127.2,169.7L124.9,169.6L124.9,174.5L124.3,184.8L124.5,189.5L123.1,189.5L84.7,189.4Z"/>
    <path class="wtc-county" id="wtc-county-boyd" data-county="Boyd" d="M324.4,221.4L324.2,210.3L330.2,212.5L335.7,213.7L339.8,215.6L341.5,215.5L345.4,212.6L348.0,212.7L350.5,211.5L352.5,211.7L355.4,210.3L358.5,210.6L362.8,208.9L369.6,208.2L372.2,208.7L378.6,207.9L378.4,214.8L376.4,216.0L369.4,218.5L367.5,221.4L324.4,221.4Z"/>
    <path class="wtc-county" id="wtc-county-brown" data-county="Brown" d="M270.4,212.8L270.4,209.0L271.3,209.0L271.3,189.1L272.1,189.1L272.1,169.3L299.6,169.3L301.0,169.3L301.0,189.2L300.2,189.2L300.2,206.2L298.2,205.9L289.9,207.4L289.5,208.3L283.6,208.5L281.3,209.5L278.4,209.3L274.1,210.5L270.4,212.8Z"/>
    <path class="wtc-county" id="wtc-county-buffalo" data-county="Buffalo" d="M314.6,109.8L314.6,90.0L315.0,88.4L319.9,88.4L324.8,87.7L328.7,87.8L332.4,87.4L344.3,87.3L348.9,88.6L354.6,89.4L354.8,89.9L354.8,109.8L353.4,109.8L327.1,109.8L314.6,109.8Z"/>
    <path class="wtc-county" id="wtc-county-burt" data-county="Burt" d="M478.8,165.2L478.8,149.6L485.1,149.6L484.9,146.2L503.4,146.2L505.7,147.1L504.4,149.7L506.1,150.7L506.7,153.0L504.2,154.1L502.6,156.7L501.1,159.0L502.4,159.5L503.0,162.7L499.7,163.0L499.9,164.5L496.8,165.1L497.9,165.8L494.8,167.1L492.7,167.0L492.7,165.2L478.8,165.2Z"/>
    <path class="wtc-county" id="wtc-county-butler" data-county="Butler" d="M432.2,129.8L432.2,109.8L458.5,109.8L458.5,129.7L458.7,133.1L458.7,133.3L452.3,130.8L443.1,128.7L438.8,129.1L436.9,130.1L432.2,129.8Z"/>
    <path class="wtc-county" id="wtc-county-cass" data-county="Cass" d="M483.9,108.1L483.9,94.8L520.0,94.8L519.2,96.4L519.6,99.9L521.1,101.5L519.6,103.7L520.2,105.9L518.4,106.9L517.4,110.2L511.2,110.2L508.5,111.0L504.2,109.9L502.2,108.2L498.7,106.9L494.2,108.4L492.1,109.7L490.5,108.0L483.9,108.1Z"/>
    <path class="wtc-county" id="wtc-county-cedar" data-county="Cedar" d="M425.6,213.0L425.6,189.4L432.2,189.5L432.2,184.5L452.3,184.5L452.3,207.9L445.7,208.5L444.1,210.1L441.0,210.8L440.8,212.7L435.7,213.9L432.6,213.2L429.5,213.9L428.1,212.8L425.6,213.0Z"/>
    <path class="wtc-county" id="wtc-county-chase" data-county="Chase" d="M164.3,75.2L164.3,69.9L205.0,70.0L204.8,89.9L164.3,89.9L164.3,75.2Z"/>
    <path class="wtc-county" id="wtc-county-cherry" data-county="Cherry" d="M162.7,221.5L162.5,209.3L163.5,209.3L163.5,189.7L165.1,189.7L165.1,169.9L167.0,169.9L200.2,169.6L233.3,169.4L266.3,169.3L272.1,169.3L272.1,189.1L271.3,189.1L271.3,209.0L270.4,209.0L270.4,212.8L270.4,221.4L231.0,221.4L211.5,221.4L188.8,221.3L162.7,221.5Z"/>
    <path class="wtc-county" id="wtc-county-cheyenne" data-county="Cheyenne" d="M88.6,129.7L88.6,109.9L88.4,107.3L130.0,107.3L131.9,107.3L132.5,109.9L132.5,119.9L132.5,129.8L130.9,129.8L130.9,132.3L89.0,132.2L88.6,129.7Z"/>
    <path class="wtc-county" id="wtc-county-clay" data-county="Clay" d="M380.3,89.9L380.3,70.0L380.5,70.0L406.1,70.0L406.1,89.9L380.3,89.9Z"/>
    <path class="wtc-county" id="wtc-county-colfax" data-county="Colfax" d="M438.8,149.7L438.8,129.1L443.1,128.7L452.3,130.8L458.7,133.3L458.7,149.6L452.1,149.7L438.8,149.7Z"/>
    <path class="wtc-county" id="wtc-county-cuming" data-county="Cuming" d="M452.1,169.5L452.1,149.7L458.7,149.6L478.8,149.6L478.8,165.2L478.8,169.5L463.4,169.5L452.1,169.5Z"/>
    <path class="wtc-county" id="wtc-county-custer" data-county="Custer" d="M267.4,149.5L267.4,129.7L268.2,129.7L268.2,109.8L268.8,109.8L314.6,109.8L327.1,109.8L327.3,129.7L326.7,129.7L326.7,149.5L326.3,149.5L299.6,149.5L281.5,149.4L267.4,149.5Z"/>
    <path class="wtc-county" id="wtc-county-dakota" data-county="Dakota" d="M474.3,194.3L469.1,194.3L468.9,180.2L490.1,180.2L489.0,182.5L486.8,184.0L486.8,187.7L488.6,189.9L487.8,192.0L484.9,192.4L481.4,192.1L480.4,193.5L475.5,193.3L474.3,194.3Z"/>
    <path class="wtc-county" id="wtc-county-dawes" data-county="Dawes" d="M81.2,221.6L81.4,209.2L82.6,209.3L82.6,189.4L84.7,189.4L123.1,189.5L123.1,209.3L122.0,209.3L122.0,221.5L110.1,221.5L81.2,221.6Z"/>
    <path class="wtc-county" id="wtc-county-dawson" data-county="Dawson" d="M268.8,109.8L269.0,90.0L282.8,90.0L299.0,90.0L302.1,89.2L305.5,88.7L313.5,88.8L315.0,88.4L314.6,90.0L314.6,109.8L268.8,109.8Z"/>
    <path class="wtc-county" id="wtc-county-deuel" data-county="Deuel" d="M132.5,119.9L132.5,109.9L131.9,107.3L164.3,107.3L164.3,107.4L164.1,119.9L132.5,119.9Z"/>
    <path class="wtc-county" id="wtc-county-dixon" data-county="Dixon" d="M452.3,184.5L452.3,179.5L463.4,179.4L468.9,179.4L468.9,180.2L469.1,194.3L474.3,194.3L474.1,195.9L469.7,199.1L471.2,201.7L468.9,202.5L464.6,202.6L464.4,204.6L458.7,206.3L456.2,205.5L454.6,207.8L452.3,207.9L452.3,184.5Z"/>
    <path class="wtc-county" id="wtc-county-dodge" data-county="Dodge" d="M458.7,149.6L458.7,133.3L458.7,133.1L463.6,132.3L467.7,132.9L471.0,131.5L478.0,131.9L481.7,129.8L483.5,129.6L491.7,129.6L491.7,132.1L489.4,132.1L488.4,133.8L486.2,134.6L485.1,137.1L484.9,146.2L485.1,149.6L478.8,149.6L458.7,149.6Z"/>
    <path class="wtc-county" id="wtc-county-douglas" data-county="Douglas" d="M483.5,129.6L486.4,128.0L487.2,125.2L490.5,122.3L489.7,120.5L491.7,118.0L514.9,118.1L515.5,120.2L514.5,123.2L517.2,125.3L513.1,126.6L514.1,129.5L491.7,129.6L483.5,129.6Z"/>
    <path class="wtc-county" id="wtc-county-dundy" data-county="Dundy" d="M164.3,69.9L164.3,50.1L201.1,50.1L206.0,50.1L206.0,70.0L205.0,70.0L164.3,69.9Z"/>
    <path class="wtc-county" id="wtc-county-fillmore" data-county="Fillmore" d="M406.1,89.9L406.1,70.0L406.3,70.0L432.2,70.0L432.2,89.9L406.1,89.9Z"/>
    <path class="wtc-county" id="wtc-county-franklin" data-county="Franklin" d="M328.7,70.0L328.7,50.1L335.1,50.1L354.6,50.1L354.6,70.0L328.7,70.0Z"/>
    <path class="wtc-county" id="wtc-county-frontier" data-county="Frontier" d="M237.2,90.0L237.0,87.5L237.2,69.9L238.4,69.9L270.4,70.0L276.4,70.1L276.2,75.1L282.8,75.1L282.8,90.0L269.0,90.0L237.2,90.0Z"/>
    <path class="wtc-county" id="wtc-county-furnas" data-county="Furnas" d="M270.4,70.0L270.6,50.0L271.5,50.0L303.1,50.1L302.9,70.0L302.3,70.0L276.4,70.1L270.4,70.0Z"/>
    <path class="wtc-county" id="wtc-county-gage" data-county="Gage" d="M458.0,50.0L464.4,50.0L483.9,50.0L483.9,65.0L483.9,79.9L458.3,79.9L458.0,70.0L458.0,50.0Z"/>
    <path class="wtc-county" id="wtc-county-garden" data-county="Garden" d="M128.6,164.7L128.6,153.0L129.2,149.7L130.9,149.7L130.9,132.3L130.9,129.8L132.5,129.8L132.5,119.9L164.1,119.9L164.1,129.8L168.2,129.7L168.2,149.6L163.5,149.6L163.5,164.9L128.6,164.7Z"/>
    <path class="wtc-county" id="wtc-county-garfield" data-county="Garfield" d="M326.3,169.4L326.3,149.5L326.7,149.5L352.8,149.5L352.5,169.4L326.3,169.4Z"/>
    <path class="wtc-county" id="wtc-county-gosper" data-county="Gosper" d="M282.8,90.0L282.8,75.1L276.2,75.1L276.4,70.1L302.3,70.0L302.1,89.2L299.0,90.0L282.8,90.0Z"/>
    <path class="wtc-county" id="wtc-county-grant" data-county="Grant" d="M163.5,164.9L163.5,149.6L168.2,149.6L200.2,149.7L200.2,169.6L167.0,169.9L166.8,164.9L163.5,164.9Z"/>
    <path class="wtc-county" id="wtc-county-greeley" data-county="Greeley" d="M353.2,149.5L353.2,129.7L353.6,129.7L379.4,129.7L379.4,134.6L379.4,149.3L379.2,149.5L353.2,149.5Z"/>
    <path class="wtc-county" id="wtc-county-hall" data-county="Hall" d="M354.8,109.8L354.8,89.9L379.8,89.9L379.8,99.7L379.6,109.8L354.8,109.8Z"/>
    <path class="wtc-county" id="wtc-county-hamilton" data-county="Hamilton" d="M379.8,99.7L379.8,89.9L380.3,89.9L406.1,89.9L406.1,109.8L405.9,117.1L402.6,113.7L396.1,111.7L390.9,107.7L387.6,106.2L379.8,99.7Z"/>
    <path class="wtc-county" id="wtc-county-harlan" data-county="Harlan" d="M302.9,70.0L303.1,50.1L328.7,50.1L328.7,70.0L302.9,70.0Z"/>
    <path class="wtc-county" id="wtc-county-hayes" data-county="Hayes" d="M204.8,89.9L205.0,70.0L206.0,70.0L237.2,69.9L237.0,87.5L237.2,90.0L210.3,89.9L204.8,89.9Z"/>
    <path class="wtc-county" id="wtc-county-hitchcock" data-county="Hitchcock" d="M206.0,50.1L238.4,50.1L238.2,60.0L238.4,69.9L237.2,69.9L206.0,70.0L206.0,50.1Z"/>
    <path class="wtc-county" id="wtc-county-holt" data-county="Holt" d="M324.2,210.3L324.8,209.1L324.8,189.2L325.5,189.2L325.5,169.4L326.3,169.4L352.5,169.4L378.8,169.4L379.0,189.3L378.6,189.3L378.6,207.9L372.2,208.7L369.6,208.2L362.8,208.9L358.5,210.6L355.4,210.3L352.5,211.7L350.5,211.5L348.0,212.7L345.4,212.6L341.5,215.5L339.8,215.6L335.7,213.7L330.2,212.5L324.2,210.3Z"/>
    <path class="wtc-county" id="wtc-county-hooker" data-county="Hooker" d="M200.2,169.6L200.2,149.7L201.3,149.7L233.5,149.5L233.3,169.4L200.2,169.6Z"/>
    <path class="wtc-county" id="wtc-county-howard" data-county="Howard" d="M353.6,129.7L353.4,109.8L354.8,109.8L379.6,109.8L379.6,129.7L379.4,129.7L353.6,129.7Z"/>
    <path class="wtc-county" id="wtc-county-jefferson" data-county="Jefferson" d="M432.2,50.1L458.0,50.0L458.0,70.0L432.2,70.0L432.2,50.1Z"/>
    <path class="wtc-county" id="wtc-county-johnson" data-county="Johnson" d="M483.9,79.9L483.9,65.0L506.7,65.0L506.7,79.9L483.9,79.9Z"/>
    <path class="wtc-county" id="wtc-county-kearney" data-county="Kearney" d="M328.7,87.8L328.7,70.0L354.6,70.0L354.6,89.4L348.9,88.6L344.3,87.3L332.4,87.4L328.7,87.8Z"/>
    <path class="wtc-county" id="wtc-county-keith" data-county="Keith" d="M164.1,119.9L164.3,107.4L210.3,107.4L210.3,109.9L209.1,109.9L209.1,129.7L201.3,129.8L168.2,129.7L164.1,129.8L164.1,119.9Z"/>
    <path class="wtc-county" id="wtc-county-keya-paha" data-county="Keya Paha" d="M270.4,221.4L270.4,212.8L274.1,210.5L278.4,209.3L281.3,209.5L283.6,208.5L289.5,208.3L289.9,207.4L298.2,205.9L300.2,206.2L308.2,205.4L314.0,207.4L315.2,208.5L319.7,209.0L324.2,210.3L324.4,221.4L308.4,221.4L270.4,221.4Z"/>
    <path class="wtc-county" id="wtc-county-kimball" data-county="Kimball" d="M50.0,129.6L50.0,107.2L77.3,107.3L88.4,107.3L88.6,109.9L88.6,129.7L50.0,129.6Z"/>
    <path class="wtc-county" id="wtc-county-knox" data-county="Knox" d="M378.4,214.8L378.6,207.9L378.6,189.3L379.0,189.3L405.5,189.4L425.6,189.4L425.6,213.0L417.0,213.0L414.1,212.5L409.0,212.9L404.9,214.0L403.2,213.4L401.4,209.8L398.9,208.4L395.0,207.9L387.4,212.3L386.2,212.2L381.3,214.4L378.4,214.8Z"/>
    <path class="wtc-county" id="wtc-county-lancaster" data-county="Lancaster" d="M458.3,89.9L458.3,79.9L483.9,79.9L483.9,94.8L483.9,108.1L483.9,109.7L458.5,109.8L458.5,89.9L458.3,89.9Z"/>
    <path class="wtc-county" id="wtc-county-lincoln" data-county="Lincoln" d="M209.1,129.7L209.1,109.9L210.3,109.9L210.3,107.4L210.3,89.9L237.2,90.0L269.0,90.0L268.8,109.8L268.2,109.8L268.2,129.7L267.4,129.7L240.9,129.7L209.1,129.7Z"/>
    <path class="wtc-county" id="wtc-county-logan" data-county="Logan" d="M241.1,149.5L240.9,129.7L267.4,129.7L267.4,149.5L266.5,149.5L241.1,149.5Z"/>
    <path class="wtc-county" id="wtc-county-loup" data-county="Loup" d="M299.6,169.3L299.6,149.5L326.3,149.5L326.3,169.4L325.5,169.4L301.0,169.3L299.6,169.3Z"/>
    <path class="wtc-county" id="wtc-county-mcpherson" data-county="McPherson" d="M201.3,149.7L201.3,129.8L209.1,129.7L240.9,129.7L241.1,149.5L233.5,149.5L201.3,149.7Z"/>
    <path class="wtc-county" id="wtc-county-madison" data-county="Madison" d="M405.5,169.5L405.7,159.5L405.7,149.6L432.2,149.7L432.2,169.6L405.5,169.5Z"/>
    <path class="wtc-county" id="wtc-county-merrick" data-county="Merrick" d="M379.6,129.7L379.6,109.8L379.8,99.7L387.6,106.2L390.9,107.7L396.1,111.7L402.6,113.7L405.9,117.1L409.4,120.6L415.6,124.6L419.0,125.3L419.0,126.2L419.0,129.8L413.1,129.7L412.9,124.9L402.0,124.8L402.0,123.9L393.0,123.9L390.3,122.3L380.3,122.3L380.5,129.7L379.6,129.7Z"/>
    <path class="wtc-county" id="wtc-county-morrill" data-county="Morrill" d="M89.4,164.5L89.4,149.7L89.0,147.2L89.0,132.2L130.9,132.3L130.9,149.7L129.2,149.7L128.6,153.0L128.6,164.7L127.4,164.6L117.9,164.4L89.4,164.5Z"/>
    <path class="wtc-county" id="wtc-county-nance" data-county="Nance" d="M379.4,134.6L379.4,129.7L379.6,129.7L380.5,129.7L380.3,122.3L390.3,122.3L393.0,123.9L402.0,123.9L402.0,124.8L412.9,124.9L413.1,129.7L413.1,137.3L405.9,137.2L402.6,136.4L393.8,136.4L393.8,135.5L390.3,135.5L390.3,134.6L379.4,134.6Z"/>
    <path class="wtc-county" id="wtc-county-nemaha" data-county="Nemaha" d="M506.7,79.9L506.7,65.0L510.0,64.9L536.0,65.0L535.8,65.1L536.0,66.7L532.3,67.9L529.9,73.3L530.1,75.3L527.8,76.9L527.6,78.9L530.3,80.9L528.0,81.8L527.0,79.9L506.7,79.9Z"/>
    <path class="wtc-county" id="wtc-county-nuckolls" data-county="Nuckolls" d="M380.5,50.1L400.0,50.1L406.3,50.1L406.3,70.0L406.1,70.0L380.5,70.0L380.5,50.1Z"/>
    <path class="wtc-county" id="wtc-county-otoe" data-county="Otoe" d="M483.9,94.8L483.9,79.9L506.7,79.9L527.0,79.9L523.7,80.4L523.9,83.5L524.8,84.8L522.7,87.6L520.0,88.4L517.0,91.2L517.4,93.0L520.0,94.8L483.9,94.8Z"/>
    <path class="wtc-county" id="wtc-county-pawnee" data-county="Pawnee" d="M483.9,65.0L483.9,50.0L496.8,50.0L509.8,50.0L510.0,64.9L506.7,65.0L483.9,65.0Z"/>
    <path class="wtc-county" id="wtc-county-perkins" data-county="Perkins" d="M164.3,107.4L164.3,107.3L164.3,92.8L164.3,89.9L204.8,89.9L210.3,89.9L210.3,107.4L164.3,107.4Z"/>
    <path class="wtc-county" id="wtc-county-phelps" data-county="Phelps" d="M302.1,89.2L302.3,70.0L302.9,70.0L328.7,70.0L328.7,87.8L324.8,87.7L319.9,88.4L315.0,88.4L313.5,88.8L305.5,88.7L302.1,89.2Z"/>
    <path class="wtc-county" id="wtc-county-pierce" data-county="Pierce" d="M405.5,189.4L405.5,169.5L432.2,169.6L432.2,184.5L432.2,189.5L425.6,189.4L405.5,189.4Z"/>
    <path class="wtc-county" id="wtc-county-platte" data-county="Platte" d="M405.7,149.6L405.9,137.2L413.1,137.3L413.1,129.7L419.0,129.8L419.0,126.2L423.4,127.9L427.5,128.3L432.2,129.8L436.9,130.1L438.8,129.1L438.8,149.7L432.2,149.7L405.7,149.6Z"/>
    <path class="wtc-county" id="wtc-county-polk" data-county="Polk" d="M405.9,117.1L406.1,109.8L432.2,109.8L432.2,129.8L427.5,128.3L423.4,127.9L419.0,126.2L419.0,125.3L415.6,124.6L409.4,120.6L405.9,117.1Z"/>
    <path class="wtc-county" id="wtc-county-red-willow" data-county="Red Willow" d="M238.4,69.9L238.2,60.0L238.4,50.1L239.4,50.1L270.6,50.0L270.4,70.0L238.4,69.9Z"/>
    <path class="wtc-county" id="wtc-county-richardson" data-county="Richardson" d="M509.8,50.0L522.5,50.0L548.2,50.0L550.0,50.0L543.6,52.8L545.3,56.6L540.4,60.4L539.9,64.1L536.0,65.0L510.0,64.9L509.8,50.0Z"/>
    <path class="wtc-county" id="wtc-county-rock" data-county="Rock" d="M300.2,206.2L300.2,189.2L301.0,189.2L301.0,169.3L325.5,169.4L325.5,189.2L324.8,189.2L324.8,209.1L324.2,210.3L319.7,209.0L315.2,208.5L314.0,207.4L308.2,205.4L300.2,206.2Z"/>
    <path class="wtc-county" id="wtc-county-saline" data-county="Saline" d="M432.2,89.9L432.2,70.0L458.0,70.0L458.3,79.9L458.3,89.9L432.2,89.9Z"/>
    <path class="wtc-county" id="wtc-county-sarpy" data-county="Sarpy" d="M491.7,118.0L492.7,113.8L491.1,111.9L492.1,109.7L494.2,108.4L498.7,106.9L502.2,108.2L504.2,109.9L508.5,111.0L511.2,110.2L517.4,110.2L518.2,111.8L517.4,116.3L519.6,117.2L514.9,118.1L491.7,118.0Z"/>
    <path class="wtc-county" id="wtc-county-saunders" data-county="Saunders" d="M458.7,133.1L458.5,129.7L458.5,109.8L483.9,109.7L483.9,108.1L490.5,108.0L492.1,109.7L491.1,111.9L492.7,113.8L491.7,118.0L489.7,120.5L490.5,122.3L487.2,125.2L486.4,128.0L483.5,129.6L481.7,129.8L478.0,131.9L471.0,131.5L467.7,132.9L463.6,132.3L458.7,133.1Z"/>
    <path class="wtc-county" id="wtc-county-scotts-bluff" data-county="Scotts Bluff" d="M50.0,164.5L50.0,147.1L89.0,147.2L89.4,149.7L89.4,164.5L87.2,164.6L50.0,164.5Z"/>
    <path class="wtc-county" id="wtc-county-seward" data-county="Seward" d="M432.2,109.8L432.2,89.9L458.3,89.9L458.5,89.9L458.5,109.8L432.2,109.8Z"/>
    <path class="wtc-county" id="wtc-county-sheridan" data-county="Sheridan" d="M122.0,221.5L122.0,209.3L123.1,209.3L123.1,189.5L124.5,189.5L124.3,184.8L124.9,174.5L124.9,169.6L127.2,169.7L127.4,164.6L128.6,164.7L163.5,164.9L166.8,164.9L167.0,169.9L165.1,169.9L165.1,189.7L163.5,189.7L163.5,209.3L162.5,209.3L162.7,221.5L122.0,221.5Z"/>
    <path class="wtc-county" id="wtc-county-sherman" data-county="Sherman" d="M327.3,129.7L327.1,109.8L353.4,109.8L353.6,129.7L353.2,129.7L327.3,129.7Z"/>
    <path class="wtc-county" id="wtc-county-sioux" data-county="Sioux" d="M50.0,221.6L50.0,199.3L50.0,164.5L87.2,164.6L87.2,169.5L84.7,169.5L84.7,189.4L82.6,189.4L82.6,209.3L81.4,209.2L81.2,221.6L50.0,221.6Z"/>
    <path class="wtc-county" id="wtc-county-stanton" data-county="Stanton" d="M432.2,169.6L432.2,149.7L438.8,149.7L452.1,149.7L452.1,169.5L432.2,169.6Z"/>
    <path class="wtc-county" id="wtc-county-thayer" data-county="Thayer" d="M406.3,70.0L406.3,50.1L432.2,50.1L432.2,70.0L406.3,70.0Z"/>
    <path class="wtc-county" id="wtc-county-thomas" data-county="Thomas" d="M233.3,169.4L233.5,149.5L241.1,149.5L266.5,149.5L266.3,169.3L233.3,169.4Z"/>
    <path class="wtc-county" id="wtc-county-thurston" data-county="Thurston" d="M463.4,179.4L463.4,169.5L478.8,169.5L478.8,165.2L492.7,165.2L492.7,167.0L494.8,167.1L495.0,171.1L490.5,173.9L490.1,176.6L491.9,177.5L490.1,180.2L468.9,180.2L468.9,179.4L463.4,179.4Z"/>
    <path class="wtc-county" id="wtc-county-valley" data-county="Valley" d="M326.7,149.5L326.7,129.7L327.3,129.7L353.2,129.7L353.2,149.5L352.8,149.5L326.7,149.5Z"/>
    <path class="wtc-county" id="wtc-county-washington" data-county="Washington" d="M484.9,146.2L485.1,137.1L486.2,134.6L488.4,133.8L489.4,132.1L491.7,132.1L491.7,129.6L514.1,129.5L514.3,133.7L510.2,134.2L510.6,136.2L510.6,138.0L508.7,138.0L508.3,136.2L505.3,137.6L505.9,140.3L503.6,142.3L505.0,144.2L503.4,146.2L484.9,146.2Z"/>
    <path class="wtc-county" id="wtc-county-wayne" data-county="Wayne" d="M432.2,184.5L432.2,169.6L452.1,169.5L463.4,169.5L463.4,179.4L452.3,179.5L452.3,184.5L432.2,184.5Z"/>
    <path class="wtc-county" id="wtc-county-webster" data-county="Webster" d="M354.6,70.0L354.6,50.1L367.3,50.1L380.5,50.1L380.5,70.0L380.3,70.0L354.6,70.0Z"/>
    <path class="wtc-county" id="wtc-county-wheeler" data-county="Wheeler" d="M352.5,169.4L352.8,149.5L353.2,149.5L379.2,149.5L379.2,159.5L379.2,169.0L378.8,169.4L352.5,169.4Z"/>
    <path class="wtc-county" id="wtc-county-york" data-county="York" d="M406.1,109.8L406.1,89.9L432.2,89.9L432.2,109.8L406.1,109.8Z"/>
  </g>
</svg>