<?xml version="1.0" encoding="UTF-8"?>
<svg xmlns="http://www.w3.org/2000/svg" viewBox="0 0 600 272" id="wtc-state-map-NE" role="img" aria-label="ne county map">
  <title>ne Counties</title>
  <g class="wtc-counties">
    <path class="wtc-county" id="wtc-county-adams" data-county="Adams" d="M354.6,182.1L354.6,201.6L380.3,201.6L380.3,181.7L379.8,181.7L354.8,181.7L354.6,182.1Z"/>
    <path class="wtc-county" id="wtc-county-antelope" data-county="Antelope" d="M379.0,82.3L378.8,102.2L379.2,102.6L379.2,112.1L405.7,112.0L405.5,102.1L405.5,82.2L379.0,82.3Z"/>
    <path class="wtc-county" id="wtc-county-arthur" data-county="Arthur" d="M168.2,122.0L168.2,141.9L201.3,141.8L201.3,121.9L200.2,121.9L168.2,122.0Z"/>
    <path class="wtc-county" id="wtc-county-banner" data-county="Banner" d="M50.0,124.5L50.0,132.1L50.0,142.0L88.6,141.9L89.0,139.4L89.0,124.4L50.0,124.5Z"/>
    <path class="wtc-county" id="wtc-county-blaine" data-county="Blaine" d="M266.3,102.3L266.5,122.1L267.4,122.1L281.5,122.2L299.6,122.1L299.6,102.3L272.1,102.3L266.3,102.3Z"/>
    <path class="wtc-county" id="wtc-county-boone" data-county="Boone" d="M379.2,112.1L379.2,122.1L379.4,122.3L379.4,137.0L390.3,137.0L390.3,136.1L393.8,136.1L393.8,135.2L402.6,135.2L405.9,134.3L405.7,122.0L405.7,112.0L379.2,112.1Z"/>
    <path class="wtc-county" id="wtc-county-box-butte" data-county="Box Butte" d="M84.7,82.2L84.7,102.1L87.2,102.1L87.2,107.0L89.4,107.1L117.9,107.2L127.4,107.0L127.2,101.9L124.9,102.0L124.9,97.1L124.3,86.8L124.5,82.1L123.1,82.1L84.7,82.2Z"/>
    <path class="wtc-county" id="wtc-county-boyd" data-county="Boyd" d="M324.4,50.1L324.2,61.2L330.2,59.1L335.7,57.9L339.8,56.0L341.5,56.1L345.4,59.0L348.0,58.9L350.5,60.1L352.5,59.9L355.4,61.3L358.5,61.0L362.8,62.7L369.6,63.4L372.2,62.9L378.6,63.7L378.4,56.8L376.4,55.6L369.4,53.0L367.5,50.1L324.4,50.1Z"/>
    <path class="wtc-county" id="wtc-county-brown" data-county="Brown" d="M270.4,58.8L270.4,62.6L271.3,62.6L271.3,82.5L272.1,82.5L272.1,102.3L299.6,102.3L301.0,102.3L301.0,82.4L300.2,82.4L300.2,65.4L298.2,65.7L289.9,64.2L289.5,63.3L283.6,63.1L281.3,62.1L278.4,62.3L274.1,61.1L270.4,58.8Z"/>
    <path class="wtc-county" id="wtc-county-buffalo" data-county="Buffalo" d="M314.6,161.8L314.6,181.6L315.0,183.2L319.9,183.2L324.8,183.9L328.7,183.8L332.4,184.2L344.3,184.3L348.9,183.0L354.6,182.1L354.8,181.7L354.8,161.8L353.4,161.8L327.1,161.8L314.6,161.8Z"/>
    <path class="wtc-county" id="wtc-county-burt" data-county="Burt" d="M478.8,106.3L478.8,122.0L485.1,122.0L484.9,125.4L503.4,125.4L505.7,124.5L504.4,121.9L506.1,120.9L506.7,118.6L504.2,117.5L502.6,114.9L501.1,112.6L502.4,112.1L503.0,108.9L499.7,108.6L499.9,107.1L496.8,106.5L497.9,105.8L494.8,104.5L492.7,104.6L492.7,106.4L478.8,106.3Z"/>
    <path class="wtc-county" id="wtc-county-butler" data-county="Butler" d="M432.2,141.8L432.2,161.8L458.5,161.8L458.5,141.9L458.7,138.5L458.7,138.3L452.3,140.8L443.1,142.9L438.8,142.5L436.9,141.5L432.2,141.8Z"/>
    <path class="wtc-county" id="wtc-county-cass" data-county="Cass" d="M483.9,163.5L483.9,176.8L520.0,176.8L519.2,175.2L519.6,171.7L521.1,170.1L519.6,167.9L520.2,165.7L518.4,164.7L517.4,161.4L511.2,161.4L508.5,160.6L504.2,161.7L502.2,163.4L498.7,164.7L494.2,163.2L492.1,161.9L490.5,163.6L483.9,163.5Z"/>
    <path class="wtc-county" id="wtc-county-cedar" data-county="Cedar" d="M425.6,58.6L425.6,82.2L432.2,82.1L432.2,87.1L452.3,87.1L452.3,63.7L445.7,63.1L444.1,61.5L441.0,60.8L440.8,58.9L435.7,57.7L432.6,58.4L429.5,57.7L428.1,58.8L425.6,58.6Z"/>
    <path class="wtc-county" id="wtc-county-chase" data-county="Chase" d="M164.3,196.4L164.3,201.7L205.0,201.6L204.8,181.7L164.3,181.7L164.3,196.4Z"/>
    <path class="wtc-county" id="wtc-county-cherry" data-county="Cherry" d="M162.7,50.1L162.5,62.3L163.5,62.3L163.5,81.9L165.1,81.9L165.1,101.7L167.0,101.7L200.2,102.0L233.3,102.2L266.3,102.3L272.1,102.3L272.1,82.5L271.3,82.5L271.3,62.6L270.4,62.6L270.4,58.8L270.4,50.1L231.0,50.2L211.5,50.2L188.8,50.3L162.7,50.1Z"/>
    <path class="wtc-county" id="wtc-county-cheyenne" data-county="Cheyenne" d="M88.6,141.9L88.6,161.7L88.4,164.3L130.0,164.3L131.9,164.3L132.5,161.7L132.5,151.7L132.5,141.8L130.9,141.8L130.9,139.3L89.0,139.4L88.6,141.9Z"/>
    <path class="wtc-county" id="wtc-county-clay" data-county="Clay" d="M380.3,181.7L380.3,201.6L380.5,201.6L406.1,201.6L406.1,181.7L380.3,181.7Z"/>
    <path class="wtc-county" id="wtc-county-colfax" data-county="Colfax" d="M438.8,121.9L438.8,142.5L443.1,142.9L452.3,140.8L458.7,138.3L458.7,122.0L452.1,121.9L438.8,121.9Z"/>
    <path class="wtc-county" id="wtc-county-cuming" data-county="Cuming" d="M452.1,102.1L452.1,121.9L458.7,122.0L478.8,122.0L478.8,106.3L478.8,102.1L463.4,102.1L452.1,102.1Z"/>
    <path class="wtc-county" id="wtc-county-custer" data-county="Custer" d="M267.4,122.1L267.4,141.9L268.2,141.9L268.2,161.8L268.8,161.8L314.6,161.8L327.1,161.8L327.3,141.9L326.7,141.9L326.7,122.1L326.3,122.1L299.6,122.1L281.5,122.2L267.4,122.1Z"/>
    <path class="wtc-county" id="wtc-county-dakota" data-county="Dakota" d="M474.3,77.3L469.1,77.3L468.9,91.4L490.1,91.4L489.0,89.1L486.8,87.6L486.8,83.9L488.6,81.7L487.8,79.6L484.9,79.2L481.4,79.5L480.4,78.1L475.5,78.3L474.3,77.3Z"/>
    <path class="wtc-county" id="wtc-county-dawes" data-county="Dawes" d="M81.2,50.0L81.4,62.4L82.6,62.3L82.6,82.2L84.7,82.2L123.1,82.1L123.1,62.3L122.0,62.3L122.0,50.0L110.1,50.0L81.2,50.0Z"/>
    <path class="wtc-county" id="wtc-county-dawson" data-county="Dawson" d="M268.8,161.8L269.0,181.6L282.8,181.6L299.0,181.6L302.1,182.4L305.5,182.9L313.5,182.8L315.0,183.2L314.6,181.6L314.6,161.8L268.8,161.8Z"/>
    <path class="wtc-county" id="wtc-county-deuel" data-county="Deuel" d="M132.5,151.7L132.5,161.7L131.9,164.3L164.3,164.3L164.3,164.2L164.1,151.7L132.5,151.7Z"/>
    <path class="wtc-county" id="wtc-county-dixon" data-county="Dixon" d="M452.3,87.1L452.3,92.1L463.4,92.1L468.9,92.1L468.9,91.4L469.1,77.3L474.3,77.3L474.1,75.7L469.7,72.5L471.2,69.9L468.9,69.1L464.6,69.0L464.4,67.0L458.7,65.3L456.2,66.1L454.6,63.8L452.3,63.7L452.3,87.1Z"/>
    <path class="wtc-county" id="wtc-county-dodge" data-county="Dodge" d="M458.7,122.0L458.7,138.3L458.7,138.5L463.6,139.3L467.7,138.7L471.0,140.1L478.0,139.7L481.7,141.8L483.5,142.0L491.7,142.0L491.7,139.5L489.4,139.5L488.4,137.8L486.2,137.0L485.1,134.4L484.9,125.4L485.1,122.0L478.8,122.0L458.7,122.0Z"/>
    <path class="wtc-county" id="wtc-county-douglas" data-county="Douglas" d="M483.5,142.0L486.4,143.6L487.2,146.4L490.5,149.3L489.7,151.1L491.7,153.6L514.9,153.5L515.5,151.4L514.5,148.3L517.2,146.3L513.1,145.0L514.1,142.1L491.7,142.0L483.5,142.0Z"/>
    <path class="wtc-county" id="wtc-county-dundy" data-county="Dundy" d="M164.3,201.7L164.3,221.4L201.1,221.5L206.0,221.4L206.0,201.6L205.0,201.6L164.3,201.7Z"/>
    <path class="wtc-county" id="wtc-county-fillmore" data-county="Fillmore" d="M406.1,181.7L406.1,201.6L406.3,201.6L432.2,201.6L432.2,181.7L406.1,181.7Z"/>
    <path class="wtc-county" id="wtc-county-franklin" data-county="Franklin" d="M328.7,201.6L328.7,221.5L335.1,221.5L354.6,221.5L354.6,201.6L328.7,201.6Z"/>
    <path class="wtc-county" id="wtc-county-frontier" data-county="Frontier" d="M237.2,181.6L237.0,184.1L237.2,201.7L238.4,201.7L270.4,201.6L276.4,201.5L276.2,196.5L282.8,196.5L282.8,181.6L269.0,181.6L237.2,181.6Z"/>
    <path class="wtc-county" id="wtc-county-furnas" data-county="Furnas" d="M270.4,201.6L270.6,221.5L271.5,221.5L303.1,221.5L302.9,201.6L302.3,201.6L276.4,201.5L270.4,201.6Z"/>
    <path class="wtc-county" id="wtc-county-gage" data-county="Gage" d="M458.0,221.5L464.4,221.5L483.9,221.5L483.9,206.6L483.9,191.7L458.3,191.7L458.0,201.6L458.0,221.5Z"/>
    <path class="wtc-county" id="wtc-county-garden" data-county="Garden" d="M128.6,106.9L128.6,118.6L129.2,121.9L130.9,121.9L130.9,139.3L130.9,141.8L132.5,141.8L132.5,151.7L164.1,151.7L164.1,141.8L168.2,141.9L168.2,122.0L163.5,122.0L163.5,106.7L128.6,106.9Z"/>
    <path class="wtc-county" id="wtc-county-garfield" data-county="Garfield" d="M326.3,102.2L326.3,122.1L326.7,122.1L352.8,122.1L352.5,102.2L326.3,102.2Z"/>
    <path class="wtc-county" id="wtc-county-gosper" data-county="Gosper" d="M282.8,181.6L282.8,196.5L276.2,196.5L276.4,201.5L302.3,201.6L302.1,182.4L299.0,181.6L282.8,181.6Z"/>
    <path class="wtc-county" id="wtc-county-grant" data-county="Grant" d="M163.5,106.7L163.5,122.0L168.2,122.0L200.2,121.9L200.2,102.0L167.0,101.7L166.8,106.7L163.5,106.7Z"/>
    <path class="wtc-county" id="wtc-county-greeley" data-county="Greeley" d="M353.2,122.1L353.2,141.9L353.6,141.9L379.4,141.9L379.4,137.0L379.4,122.3L379.2,122.1L353.2,122.1Z"/>
    <path class="wtc-county" id="wtc-county-hall" data-county="Hall" d="M354.8,161.8L354.8,181.7L379.8,181.7L379.8,171.9L379.6,161.8L354.8,161.8Z"/>
    <path class="wtc-county" id="wtc-county-hamilton" data-county="Hamilton" d="M379.8,171.9L379.8,181.7L380.3,181.7L406.1,181.7L406.1,161.8L405.9,154.5L402.6,157.9L396.1,159.9L390.9,163.9L387.6,165.3L379.8,171.9Z"/>
    <path class="wtc-county" id="wtc-county-harlan" data-county="Harlan" d="M302.9,201.6L303.1,221.5L328.7,221.5L328.7,201.6L302.9,201.6Z"/>
    <path class="wtc-county" id="wtc-county-hayes" data-county="Hayes" d="M204.8,181.7L205.0,201.6L206.0,201.6L237.2,201.7L237.0,184.1L237.2,181.6L210.3,181.7L204.8,181.7Z"/>
    <path class="wtc-county" id="wtc-county-hitchcock" data-county="Hitchcock" d="M206.0,221.4L238.4,221.5L238.2,211.6L238.4,201.7L237.2,201.7L206.0,201.6L206.0,221.4Z"/>
    <path class="wtc-county" id="wtc-county-holt" data-county="Holt" d="M324.2,61.2L324.8,62.5L324.8,82.4L325.5,82.4L325.5,102.2L326.3,102.2L352.5,102.2L378.8,102.2L379.0,82.3L378.6,82.3L378.6,63.7L372.2,62.9L369.6,63.4L362.8,62.7L358.5,61.0L355.4,61.3L352.5,59.9L350.5,60.1L348.0,58.9L345.4,59.0L341.5,56.1L339.8,56.0L335.7,57.9L330.2,59.1L324.2,61.2Z"/>
    <path class="wtc-county" id="wtc-county-hooker" data-county="Hooker" d="M200.2,102.0L200.2,121.9L201.3,121.9L233.5,122.1L233.3,102.2L200.2,102.0Z"/>
    <path class="wtc-county" id="wtc-county-howard" data-county="Howard" d="M353.6,141.9L353.4,161.8L354.8,161.8L379.6,161.8L379.6,141.9L379.4,141.9L353.6,141.9Z"/>
    <path class="wtc-county" id="wtc-county-jefferson" data-county="Jefferson" d="M432.2,221.5L458.0,221.5L458.0,201.6L432.2,201.6L432.2,221.5Z"/>
    <path class="wtc-county" id="wtc-county-johnson" data-county="Johnson" d="M483.9,191.7L483.9,206.6L506.7,206.6L506.7,191.7L483.9,191.7Z"/>
    <path class="wtc-county" id="wtc-county-kearney" data-county="Kearney" d="M328.7,183.8L328.7,201.6L354.6,201.6L354.6,182.1L348.9,183.0L344.3,184.3L332.4,184.2L328.7,183.8Z"/>
    <path class="wtc-county" id="wtc-county-keith" data-county="Keith" d="M164.1,151.7L164.3,164.2L210.3,164.2L210.3,161.7L209.1,161.7L209.1,141.9L201.3,141.8L168.2,141.9L164.1,141.8L164.1,151.7Z"/>
    <path class="wtc-county" id="wtc-county-keya-paha" data-county="Keya Paha" d="M270.4,50.1L270.4,58.8L274.1,61.1L278.4,62.3L281.3,62.1L283.6,63.1L289.5,63.3L289.9,64.2L298.2,65.7L300.2,65.4L308.2,66.2L314.0,64.1L315.2,63.1L319.7,62.6L324.2,61.2L324.4,50.1L308.4,50.1L270.4,50.1Z"/>
    <path class="wtc-county" id="wtc-county-kimball" data-county="Kimball" d="M50.0,142.0L50.0,164.4L77.3,164.3L88.4,164.3L88.6,161.7L88.6,141.9L50.0,142.0Z"/>
    <path class="wtc-county" id="wtc-county-knox" data-county="Knox" d="M378.4,56.8L378.6,63.7L378.6,82.3L379.0,82.3L405.5,82.2L425.6,82.2L425.6,58.6L417.0,58.5L414.1,59.1L409.0,58.6L404.9,57.6L403.2,58.2L401.4,61.8L398.9,63.2L395.0,63.7L387.4,59.3L386.2,59.4L381.3,57.2L378.4,56.8Z"/>
    <path class="wtc-county" id="wtc-county-lancaster" data-county="Lancaster" d="M458.3,181.7L458.3,191.7L483.9,191.7L483.9,176.8L483.9,163.5L483.9,161.9L458.5,161.8L458.5,181.7L458.3,181.7Z"/>
    <path class="wtc-county" id="wtc-county-lincoln" data-county="Lincoln" d="M209.1,141.9L209.1,161.7L210.3,161.7L210.3,164.2L210.3,181.7L237.2,181.6L269.0,181.6L268.8,161.8L268.2,161.8L268.2,141.9L267.4,141.9L240.9,141.9L209.1,141.9Z"/>
    <path class="wtc-county" id="wtc-county-logan" data-county="Logan" d="M241.1,122.1L240.9,141.9L267.4,141.9L267.4,122.1L266.5,122.1L241.1,122.1Z"/>
    <path class="wtc-county" id="wtc-county-loup" data-county="Loup" d="M299.6,102.3L299.6,122.1L326.3,122.1L326.3,102.2L325.5,102.2L301.0,102.3L299.6,102.3Z"/>
    <path class="wtc-county" id="wtc-county-mcpherson" data-county="McPherson" d="M201.3,121.9L201.3,141.8L209.1,141.9L240.9,141.9L241.1,122.1L233.5,122.1L201.3,121.9Z"/>
    <path class="wtc-county" id="wtc-county-madison" data-county="Madison" d="M405.5,102.1L405.7,112.0L405.7,122.0L432.2,121.9L432.2,102.0L405.5,102.1Z"/>
    <path class="wtc-county" id="wtc-county-merrick" data-county="Merrick" d="M379.6,141.9L379.6,161.8L379.8,171.9L387.6,165.3L390.9,163.9L396.1,159.9L402.6,157.9L405.9,154.5L409.4,151.0L415.6,147.0L419.0,146.3L419.0,145.4L419.0,141.8L413.1,141.9L412.9,146.7L402.0,146.8L402.0,147.7L393.0,147.7L390.3,149.3L380.3,149.3L380.5,141.9L379.6,141.9Z"/>
    <path class="wtc-county" id="wtc-county-morrill" data-county="Morrill" d="M89.4,107.1L89.4,121.9L89.0,124.4L89.0,139.4L130.9,139.3L130.9,121.9L129.2,121.9L128.6,118.6L128.6,106.9L127.4,107.0L117.9,107.2L89.4,107.1Z"/>
    <path class="wtc-county" id="wtc-county-nance" data-county="Nance" d="M379.4,137.0L379.4,141.9L379.6,141.9L380.5,141.9L380.3,149.3L390.3,149.3L393.0,147.7L402.0,147.7L402.0,146.8L412.9,146.7L413.1,141.9L413.1,134.3L405.9,134.3L402.6,135.2L393.8,135.2L393.8,136.1L390.3,136.1L390.3,137.0L379.4,137.0Z"/>
    <path class="wtc-county" id="wtc-county-nemaha" data-county="Nemaha" d="M506.7,191.7L506.7,206.6L510.0,206.7L536.0,206.6L535.8,206.5L536.0,204.9L532.3,203.7L529.9,198.3L530.1,196.3L527.8,194.7L527.6,192.7L530.3,190.6L528.0,189.8L527.0,191.7L506.7,191.7Z"/>
    <path class="wtc-county" id="wtc-county-nuckolls" data-county="Nuckolls" d="M380.5,221.4L400.0,221.5L406.3,221.5L406.3,201.6L406.1,201.6L380.5,201.6L380.5,221.4Z"/>
    <path class="wtc-county" id="wtc-county-otoe" data-county="Otoe" d="M483.9,176.8L483.9,191.7L506.7,191.7L527.0,191.7L523.7,191.2L523.9,188.1L524.8,186.8L522.7,184.0L520.0,183.2L517.0,180.4L517.4,178.6L520.0,176.8L483.9,176.8Z"/>
    <path class="wtc-county" id="wtc-county-pawnee" data-county="Pawnee" d="M483.9,206.6L483.9,221.5L496.8,221.6L509.8,221.6L510.0,206.7L506.7,206.6L483.9,206.6Z"/>
    <path class="wtc-county" id="wtc-county-perkins" data-county="Perkins" d="M164.3,164.2L164.3,164.3L164.3,178.8L164.3,181.7L204.8,181.7L210.3,181.7L210.3,164.2L164.3,164.2Z"/>
    <path class="wtc-county" id="wtc-county-phelps" data-county="Phelps" d="M302.1,182.4L302.3,201.6L302.9,201.6L328.7,201.6L328.7,183.8L324.8,183.9L319.9,183.2L315.0,183.2L313.5,182.8L305.5,182.9L302.1,182.4Z"/>
    <path class="wtc-county" id="wtc-county-pierce" data-county="Pierce" d="M405.5,82.2L405.5,102.1L432.2,102.0L432.2,87.1L432.2,82.1L425.6,82.2L405.5,82.2Z"/>
    <path class="wtc-county" id="wtc-county-platte" data-county="Platte" d="M405.7,122.0L405.9,134.3L413.1,134.3L413.1,141.9L419.0,141.8L419.0,145.4L423.4,143.7L427.5,143.3L432.2,141.8L436.9,141.5L438.8,142.5L438.8,121.9L432.2,121.9L405.7,122.0Z"/>
    <path class="wtc-county" id="wtc-county-polk" data-county="Polk" d="M405.9,154.5L406.1,161.8L432.2,161.8L432.2,141.8L427.5,143.3L423.4,143.7L419.0,145.4L419.0,146.3L415.6,147.0L409.4,151.0L405.9,154.5Z"/>
    <path class="wtc-county" id="wtc-county-red-willow" data-county="Red Willow" d="M238.4,201.7L238.2,211.6L238.4,221.5L239.4,221.5L270.6,221.5L270.4,201.6L238.4,201.7Z"/>
    <path class="wtc-county" id="wtc-county-richardson" data-county="Richardson" d="M509.8,221.6L522.5,221.6L548.2,221.6L550.0,221.6L543.6,218.8L545.3,215.0L540.4,211.2L539.9,207.4L536.0,206.6L510.0,206.7L509.8,221.6Z"/>
    <path class="wtc-county" id="wtc-county-rock" data-county="Rock" d="M300.2,65.4L300.2,82.4L301.0,82.4L301.0,102.3L325.5,102.2L325.5,82.4L324.8,82.4L324.8,62.5L324.2,61.2L319.7,62.6L315.2,63.1L314.0,64.1L308.2,66.2L300.2,65.4Z"/>
    <path class="wtc-county" id="wtc-county-saline" data-county="Saline" d="M432.2,181.7L432.2,201.6L458.0,201.6L458.3,191.7L458.3,181.7L432.2,181.7Z"/>
    <path class="wtc-county" id="wtc-county-sarpy" data-county="Sarpy" d="M491.7,153.6L492.7,157.8L491.1,159.7L492.1,161.9L494.2,163.2L498.7,164.7L502.2,163.4L504.2,161.7L508.5,160.6L511.2,161.4L517.4,161.4L518.2,159.8L517.4,155.3L519.6,154.4L514.9,153.5L491.7,153.6Z"/>
    <path class="wtc-county" id="wtc-county-saunders" data-county="Saunders" d="M458.7,138.5L458.5,141.9L458.5,161.8L483.9,161.9L483.9,163.5L490.5,163.6L492.1,161.9L491.1,159.7L492.7,157.8L491.7,153.6L489.7,151.1L490.5,149.3L487.2,146.4L486.4,143.6L483.5,142.0L481.7,141.8L478.0,139.7L471.0,140.1L467.7,138.7L463.6,139.3L458.7,138.5Z"/>
    <path class="wtc-county" id="wtc-county-scotts-bluff" data-county="Scotts Bluff" d="M50.0,107.1L50.0,124.5L89.0,124.4L89.4,121.9L89.4,107.1L87.2,107.0L50.0,107.1Z"/>
    <path class="wtc-county" id="wtc-county-seward" data-county="Seward" d="M432.2,161.8L432.2,181.7L458.3,181.7L458.5,181.7L458.5,161.8L432.2,161.8Z"/>
    <path class="wtc-county" id="wtc-county-sheridan" data-county="Sheridan" d="M122.0,50.0L122.0,62.3L123.1,62.3L123.1,82.1L124.5,82.1L124.3,86.8L124.9,97.1L124.9,102.0L127.2,101.9L127.4,107.0L128.6,106.9L163.5,106.7L166.8,106.7L167.0,101.7L165.1,101.7L165.1,81.9L163.5,81.9L163.5,62.3L162.5,62.3L162.7,50.1L122.0,50.0Z"/>
    <path class="wtc-county" id="wtc-county-sherman" data-county="Sherman" d="M327.3,141.9L327.1,161.8L353.4,161.8L353.6,141.9L353.2,141.9L327.3,141.9Z"/>
    <path class="wtc-county" id="wtc-county-sioux" data-county="Sioux" d="M50.0,50.0L50.0,72.3L50.0,107.1L87.2,107.0L87.2,102.1L84.7,102.1L84.7,82.2L82.6,82.2L82.6,62.3L81.4,62.4L81.2,50.0L50.0,50.0Z"/>
    <path class="wtc-county" id="wtc-county-stanton" data-county="Stanton" d="M432.2,102.0L432.2,121.9L438.8,121.9L452.1,121.9L452.1,102.1L432.2,102.0Z"/>
    <path class="wtc-county" id="wtc-county-thayer" data-county="Thayer" d="M406.3,201.6L406.3,221.5L432.2,221.5L432.2,201.6L406.3,201.6Z"/>
    <path class="wtc-county" id="wtc-county-thomas" data-county="Thomas" d="M233.3,102.2L233.5,122.1L241.1,122.1L266.5,122.1L266.3,102.3L233.3,102.2Z"/>
    <path class="wtc-county" id="wtc-county-thurston" data-county="Thurston" d="M463.4,92.1L463.4,102.1L478.8,102.1L478.8,106.3L492.7,106.4L492.7,104.6L494.8,104.5L495.0,100.5L490.5,97.7L490.1,94.9L491.9,94.1L490.1,91.4L468.9,91.4L468.9,92.1L463.4,92.1Z"/>
    <path class="wtc-county" id="wtc-county-valley" data-county="Valley" d="M326.7,122.1L326.7,141.9L327.3,141.9L353.2,141.9L353.2,122.1L352.8,122.1L326.7,122.1Z"/>
    <path class="wtc-county" id="wtc-county-washington" data-county="Washington" d="M484.9,125.4L485.1,134.4L486.2,137.0L488.4,137.8L489.4,139.5L491.7,139.5L491.7,142.0L514.1,142.1L514.3,137.9L510.2,137.4L510.6,135.4L510.6,133.6L508.7,133.6L508.3,135.4L505.3,134.0L505.9,131.3L503.6,129.3L505.0,127.4L503.4,125.4L484.9,125.4Z"/>
    <path class="wtc-county" id="wtc-county-wayne" data-county="Wayne" d="M432.2,87.1L432.2,102.0L452.1,102.1L463.4,102.1L463.4,92.1L452.3,92.1L452.3,87.1L432.2,87.1Z"/>
    <path class="wtc-county" id="wtc-county-webster" data-county="Webster" d="M354.6,201.6L354.6,221.5L367.3,221.5L380.5,221.4L380.5,201.6L380.3,201.6L354.6,201.6Z"/>
    <path class="wtc-county" id="wtc-county-wheeler" data-county="Wheeler" d="M352.5,102.2L352.8,122.1L353.2,122.1L379.2,122.1L379.2,112.1L379.2,102.6L378.8,102.2L352.5,102.2Z"/>
    <path class="wtc-county" id="wtc-county-york" data-county="York" d="M406.1,161.8L406.1,181.7L432.2,181.7L432.2,161.8L406.1,161.8Z"/>
  </g>
</svg>