<?xml version="1.0" encoding="UTF-8"?>
<svg xmlns="http://www.w3.org/2000/svg" viewBox="0 0 600 451" id="wtc-state-map-AR" role="img" aria-label="ar county map">
  <title>ar Counties</title>
  <g class="wtc-counties">
    <path class="wtc-county" id="wtc-county-arkansas" data-county="Arkansas" d="M342.9,252.7L342.2,277.7L354.1,278.2L360.6,279.6L362.0,286.9L368.2,287.8L368.9,293.1L371.4,299.8L374.3,303.0L381.5,301.3L378.3,305.6L390.9,303.4L392.7,305.7L396.7,305.4L398.5,307.5L400.3,305.1L394.2,297.8L394.2,294.0L398.8,292.4L402.1,289.3L405.7,286.7L404.3,283.5L407.9,279.4L405.7,276.1L408.2,267.4L404.3,266.6L400.6,262.9L396.3,255.9L393.1,255.4L392.0,252.3L387.3,250.8L387.7,248.2L383.7,247.6L384.4,244.8L375.8,244.6L354.1,244.2L353.8,252.9L345.8,252.8L342.9,252.7Z"/>
    <path class="wtc-county" id="wtc-county-ashley" data-county="Ashley" d="M314.4,361.7L317.3,363.8L314.4,367.5L315.5,371.4L309.0,373.8L299.6,382.0L299.3,385.4L302.2,386.0L300.4,389.8L300.4,394.7L302.5,398.6L306.5,400.9L367.5,401.2L367.8,362.6L314.4,361.7Z"/>
    <path class="wtc-county" id="wtc-county-baxter" data-county="Baxter" d="M260.0,50.1L259.6,61.4L253.8,64.2L255.3,65.8L259.6,64.9L255.6,69.4L260.7,70.2L258.5,73.7L265.7,74.4L267.2,78.6L265.0,80.7L272.2,86.7L271.9,93.9L271.5,102.7L282.3,102.8L282.7,94.1L293.5,94.3L293.5,86.9L291.7,82.6L297.1,82.7L297.5,74.0L298.2,50.1L260.0,50.1Z"/>
    <path class="wtc-county" id="wtc-county-benton" data-county="Benton" d="M50.0,50.0L55.8,83.9L56.9,90.0L72.7,90.2L73.1,85.9L78.5,85.9L78.9,78.7L110.6,79.3L114.9,79.7L114.9,77.3L123.6,76.6L125.4,76.6L125.4,69.3L130.8,69.4L126.1,66.1L125.8,50.1L104.5,50.1L50.0,50.0Z"/>
    <path class="wtc-county" id="wtc-county-boone" data-county="Boone" d="M183.1,50.2L182.8,82.3L182.4,88.0L218.5,88.7L223.9,88.8L224.2,50.9L227.5,53.5L227.5,50.2L183.1,50.2Z"/>
    <path class="wtc-county" id="wtc-county-bradley" data-county="Bradley" d="M280.2,330.6L281.2,333.2L280.2,339.8L282.0,351.2L281.2,354.6L275.5,363.7L275.1,370.1L278.0,371.7L280.5,375.3L290.6,376.3L291.0,380.7L299.3,385.4L299.6,382.0L309.0,373.8L315.5,371.4L314.4,367.5L317.3,363.8L314.4,361.7L312.6,348.6L315.5,348.5L315.9,331.0L280.2,330.6Z"/>
    <path class="wtc-county" id="wtc-county-calhoun" data-county="Calhoun" d="M254.5,321.1L254.5,327.7L249.5,332.1L247.7,335.3L240.5,336.2L239.8,339.8L241.9,342.4L235.4,350.5L237.6,353.1L241.2,353.3L242.3,358.4L247.7,358.2L248.8,362.0L254.5,361.8L256.3,364.8L259.6,365.9L260.7,369.9L265.0,368.8L265.7,372.2L270.1,374.6L278.0,371.7L275.1,370.1L275.5,363.7L281.2,354.6L282.0,351.2L280.2,339.8L281.2,333.2L280.2,330.6L279.1,327.1L279.8,321.8L254.5,321.1Z"/>
    <path class="wtc-county" id="wtc-county-carroll" data-county="Carroll" d="M125.8,50.1L126.1,66.1L130.8,69.4L146.7,69.8L146.0,72.5L150.6,74.2L150.3,80.0L153.9,81.5L153.9,84.5L157.5,84.6L157.5,87.6L164.7,87.6L182.4,88.0L182.8,82.3L183.1,50.2L181.0,50.1L153.9,50.1L125.8,50.1Z"/>
    <path class="wtc-county" id="wtc-county-chicot" data-county="Chicot" d="M367.8,362.6L367.5,401.2L370.0,401.2L387.3,401.2L397.0,401.3L397.0,400.6L401.7,396.2L393.4,390.9L395.2,387.5L399.2,388.7L404.3,388.0L405.3,386.0L404.6,379.6L409.3,375.1L408.6,373.1L405.0,374.2L403.9,377.8L399.6,372.0L399.6,366.4L407.9,358.7L406.1,355.9L402.5,362.2L396.3,363.4L392.7,361.3L393.8,359.7L399.9,358.8L401.4,354.2L396.3,351.9L396.7,356.3L390.2,357.6L395.2,350.7L392.0,348.6L390.5,345.3L389.1,349.8L381.2,349.6L378.6,345.1L368.2,345.1L367.8,362.6Z"/>
    <path class="wtc-county" id="wtc-county-clark" data-county="Clark" d="M164.7,267.0L164.4,275.8L162.2,275.7L162.2,279.8L168.3,280.3L166.9,288.1L169.0,296.2L174.8,302.6L175.2,305.6L180.2,310.5L184.2,317.0L193.2,319.4L194.7,321.3L198.6,319.8L202.2,323.6L206.6,322.7L209.5,324.4L218.8,321.3L221.0,319.1L223.5,320.3L224.6,315.8L221.7,311.4L223.5,311.0L219.2,307.5L217.7,302.6L223.5,302.9L224.2,285.5L209.8,285.1L209.5,277.5L203.7,276.6L192.9,276.3L192.9,273.4L177.0,273.0L177.0,267.1L171.6,267.1L164.7,267.0Z"/>
    <path class="wtc-county" id="wtc-county-clay" data-county="Clay" d="M435.3,50.1L437.1,51.5L436.0,56.2L438.9,58.7L438.9,72.0L433.1,71.2L433.1,73.4L442.5,73.3L467.0,74.1L482.2,74.2L482.2,80.0L495.2,80.0L501.7,77.2L502.7,73.5L506.0,72.9L507.8,61.4L499.9,57.6L500.9,56.3L499.1,50.2L492.3,50.2L456.2,50.1L435.3,50.1Z"/>
    <path class="wtc-county" id="wtc-county-cleburne" data-county="Cleburne" d="M289.2,129.2L288.8,146.6L288.1,148.1L287.7,164.1L302.2,164.2L328.1,164.7L328.5,156.9L333.9,154.9L333.9,147.0L334.3,129.2L329.6,129.9L289.2,129.2Z"/>
    <path class="wtc-county" id="wtc-county-cleveland" data-county="Cleveland" d="M279.4,295.2L265.7,295.5L265.4,304.0L267.5,304.0L272.9,309.9L273.7,312.7L279.4,318.5L279.8,321.8L279.1,327.1L280.2,330.6L315.9,331.0L315.5,322.1L315.5,303.5L318.0,303.5L318.0,294.8L289.9,295.0L279.4,295.2Z"/>
    <path class="wtc-county" id="wtc-county-columbia" data-county="Columbia" d="M163.6,399.9L188.9,399.9L213.8,400.0L214.9,363.9L200.8,363.5L201.2,356.3L190.7,356.0L190.7,357.5L175.9,357.0L170.5,368.7L168.3,375.8L164.4,375.6L163.6,399.9Z"/>
    <path class="wtc-county" id="wtc-county-conway" data-county="Conway" d="M223.2,183.6L220.3,183.8L214.9,188.8L208.7,189.8L208.7,193.0L241.2,193.5L245.5,192.8L250.6,189.8L248.4,193.1L253.1,192.1L257.4,189.4L261.0,189.2L262.8,183.2L260.3,181.7L261.4,174.9L264.6,172.5L265.0,163.7L265.0,155.0L227.8,154.2L227.5,183.4L223.2,183.6Z"/>
    <path class="wtc-county" id="wtc-county-craighead" data-county="Craighead" d="M410.4,111.7L410.0,129.5L453.7,130.0L464.1,129.6L485.4,130.4L485.4,100.6L476.4,100.7L475.3,103.8L428.8,103.4L426.6,112.2L410.4,111.7Z"/>
    <path class="wtc-county" id="wtc-county-crawford" data-county="Crawford" d="M62.6,124.4L64.8,136.5L68.4,157.7L73.4,155.7L78.1,159.7L77.8,163.4L81.7,165.3L91.8,164.5L98.7,160.6L96.2,157.0L98.0,155.5L104.8,155.9L109.5,154.4L107.0,152.7L108.8,150.3L108.1,146.1L109.9,143.0L104.5,142.9L104.8,134.2L113.9,134.3L113.9,130.0L116.0,127.1L121.1,127.3L121.1,124.3L116.0,124.3L99.8,123.9L99.8,125.3L62.6,124.4Z"/>
    <path class="wtc-county" id="wtc-county-crittenden" data-county="Crittenden" d="M463.8,156.3L463.4,182.8L463.8,186.2L473.9,185.8L473.2,210.3L473.2,217.5L480.0,214.7L483.6,214.7L482.9,213.6L489.4,209.8L489.4,205.9L483.3,201.2L484.3,197.0L493.4,198.1L496.6,189.4L499.9,187.2L504.2,189.0L507.8,186.9L502.4,181.8L506.7,178.1L504.5,175.6L499.1,175.0L497.7,171.0L503.5,170.1L503.5,166.2L506.7,162.2L501.3,159.1L500.6,162.8L496.2,162.3L497.3,158.4L500.2,156.9L485.4,156.6L463.8,156.3Z"/>
    <path class="wtc-county" id="wtc-county-cross" data-county="Cross" d="M409.7,165.1L409.7,185.8L441.8,185.8L463.8,186.2L463.4,182.8L463.8,156.3L453.0,156.4L453.0,155.6L420.9,156.3L409.7,156.0L409.7,165.1Z"/>
    <path class="wtc-county" id="wtc-county-dallas" data-county="Dallas" d="M224.2,285.5L223.5,302.9L217.7,302.6L219.2,307.5L223.5,311.0L221.7,311.4L224.6,315.8L223.5,320.3L254.5,321.1L279.8,321.8L279.4,318.5L273.7,312.7L272.9,309.9L267.5,304.0L265.4,304.0L265.7,295.5L279.4,295.2L275.8,293.7L272.6,289.6L263.6,286.7L245.2,286.2L224.2,285.5Z"/>
    <path class="wtc-county" id="wtc-county-desha" data-county="Desha" d="M371.4,299.8L367.1,300.7L367.1,303.7L358.8,303.6L357.7,323.0L368.5,323.3L368.2,345.1L378.6,345.1L381.2,349.6L389.1,349.8L390.5,345.3L400.6,341.7L399.9,338.9L390.9,334.5L391.6,332.1L397.8,330.7L400.3,333.7L406.1,335.6L410.4,334.1L407.5,329.7L402.8,331.0L399.2,328.7L399.6,323.6L408.2,323.4L411.1,325.0L414.7,322.1L408.9,319.8L406.4,315.1L412.9,308.3L405.0,305.4L406.1,302.9L411.8,300.9L413.6,304.6L417.6,303.2L415.1,299.4L423.7,298.8L426.6,293.6L425.5,291.5L421.6,291.8L418.3,289.3L402.1,289.3L398.8,292.4L394.2,294.0L394.2,297.8L400.3,305.1L398.5,307.5L396.7,305.4L392.7,305.7L390.9,303.4L378.3,305.6L381.5,301.3L374.3,303.0L371.4,299.8Z"/>
    <path class="wtc-county" id="wtc-county-drew" data-county="Drew" d="M315.9,331.0L315.5,348.5L312.6,348.6L314.4,361.7L367.8,362.6L368.2,345.1L368.5,323.3L357.7,323.0L346.9,322.1L315.5,322.1L315.9,331.0Z"/>
    <path class="wtc-county" id="wtc-county-faulkner" data-county="Faulkner" d="M257.4,189.4L258.5,195.1L253.1,201.2L258.5,205.4L264.6,205.7L267.9,210.2L266.8,215.1L269.0,213.8L267.9,210.7L271.1,207.6L290.3,208.0L290.3,199.3L301.1,199.5L301.1,194.0L302.2,164.2L287.7,164.1L265.0,163.7L264.6,172.5L261.4,174.9L260.3,181.7L262.8,183.2L261.0,189.2L257.4,189.4Z"/>
    <path class="wtc-county" id="wtc-county-franklin" data-county="Franklin" d="M104.8,155.9L104.1,179.0L109.5,179.3L109.5,177.5L120.3,177.7L120.7,168.6L131.2,169.2L131.5,157.5L137.7,164.1L141.3,163.0L142.7,123.5L121.1,122.9L121.1,124.3L121.1,127.3L116.0,127.1L113.9,130.0L113.9,134.3L104.8,134.2L104.5,142.9L109.9,143.0L108.1,146.1L108.8,150.3L107.0,152.7L109.5,154.4L104.8,155.9Z"/>
    <path class="wtc-county" id="wtc-county-fulton" data-county="Fulton" d="M298.2,50.1L297.5,74.0L344.4,74.8L357.0,75.1L357.0,66.3L368.2,66.5L368.5,50.2L346.2,50.0L301.1,50.1L298.2,50.1Z"/>
    <path class="wtc-county" id="wtc-county-garland" data-county="Garland" d="M173.0,226.5L172.3,232.4L171.9,261.4L218.1,262.1L218.1,256.5L221.4,256.2L221.4,250.4L233.6,250.7L233.6,244.8L232.2,241.9L225.0,241.9L225.3,237.4L214.9,237.2L215.9,223.6L205.1,223.6L183.8,223.5L173.0,223.6L173.0,226.5Z"/>
    <path class="wtc-county" id="wtc-county-grant" data-county="Grant" d="M245.9,259.6L245.2,286.2L263.6,286.7L272.6,289.6L275.8,293.7L279.4,295.2L289.9,295.0L289.9,278.0L291.7,278.1L292.4,251.7L288.5,251.6L272.6,251.4L272.6,255.8L254.2,255.4L250.6,259.7L245.9,259.6Z"/>
    <path class="wtc-county" id="wtc-county-greene" data-county="Greene" d="M432.8,85.2L439.2,85.2L434.9,90.8L431.7,92.2L428.8,103.4L475.3,103.8L476.4,100.7L482.2,91.2L490.5,86.2L492.3,81.7L495.2,80.0L482.2,80.0L482.2,74.2L467.0,74.1L442.5,73.3L433.1,73.4L432.8,85.2Z"/>
    <path class="wtc-county" id="wtc-county-hempstead" data-county="Hempstead" d="M116.4,326.3L115.7,334.2L119.3,335.0L127.2,340.0L129.7,340.5L129.7,343.7L132.3,344.9L135.1,351.7L136.9,349.9L140.2,353.3L164.4,353.9L164.4,345.1L165.4,318.8L166.5,318.8L166.9,305.6L159.7,307.0L155.3,305.1L150.6,305.3L147.8,303.0L137.3,300.6L130.1,300.3L129.4,326.6L116.4,326.3Z"/>
    <path class="wtc-county" id="wtc-county-hot-spring" data-county="Hot Spring" d="M171.9,261.4L171.6,267.1L177.0,267.1L177.0,273.0L192.9,273.4L192.9,276.3L203.7,276.6L209.5,277.5L209.8,285.1L224.2,285.5L245.2,286.2L245.9,259.6L244.4,259.6L244.4,253.7L239.0,253.6L239.0,250.7L233.6,250.7L221.4,250.4L221.4,256.2L218.1,256.5L218.1,262.1L171.9,261.4Z"/>
    <path class="wtc-county" id="wtc-county-howard" data-county="Howard" d="M118.9,266.0L86.8,265.5L86.4,274.1L87.9,274.1L87.9,281.9L101.6,282.0L104.1,288.6L103.4,297.8L106.6,304.4L105.2,307.4L107.0,312.7L115.3,320.7L116.4,326.3L129.4,326.6L130.1,300.3L130.4,282.8L119.6,282.4L120.0,274.8L118.5,274.8L118.9,266.0Z"/>
    <path class="wtc-county" id="wtc-county-independence" data-county="Independence" d="M328.5,113.5L326.3,119.2L326.7,123.2L329.6,125.5L329.6,129.9L334.3,129.2L333.9,147.0L355.2,147.4L376.5,147.8L376.8,136.4L381.2,136.7L377.9,130.8L382.6,123.7L390.5,119.1L388.7,116.9L392.7,115.4L393.8,111.3L377.9,111.2L367.1,111.0L367.1,106.6L342.2,106.0L338.2,105.9L328.5,113.5Z"/>
    <path class="wtc-county" id="wtc-county-izard" data-county="Izard" d="M297.5,74.0L297.1,82.7L291.7,82.6L293.5,86.9L294.2,89.6L299.3,88.9L301.8,93.7L307.6,96.7L303.2,99.6L304.7,103.6L301.8,106.6L305.4,107.5L308.7,105.9L312.6,108.3L318.0,107.1L323.8,112.0L328.5,113.5L338.2,105.9L342.2,106.0L342.6,100.2L345.1,100.2L345.5,83.7L346.2,79.3L344.4,74.8L297.5,74.0Z"/>
    <path class="wtc-county" id="wtc-county-jackson" data-county="Jackson" d="M355.2,147.4L355.2,156.3L379.0,156.6L388.4,155.9L388.4,164.7L409.7,165.1L409.7,156.0L410.0,129.5L410.4,111.7L393.8,111.3L392.7,115.4L388.7,116.9L390.5,119.1L382.6,123.7L377.9,130.8L381.2,136.7L376.8,136.4L376.5,147.8L355.2,147.4Z"/>
    <path class="wtc-county" id="wtc-county-jefferson" data-county="Jefferson" d="M292.4,251.7L291.7,278.1L289.9,278.0L289.9,295.0L318.0,294.8L318.0,291.8L339.0,291.8L340.8,294.7L340.8,283.7L344.0,284.1L349.1,287.4L355.2,288.6L352.7,290.9L355.2,292.3L358.4,290.5L363.1,293.8L368.9,293.1L368.2,287.8L362.0,286.9L360.6,279.6L354.1,278.2L342.2,277.7L342.9,252.7L310.1,252.0L292.4,251.7Z"/>
    <path class="wtc-county" id="wtc-county-johnson" data-county="Johnson" d="M142.7,123.5L141.3,163.0L145.6,160.0L148.5,161.9L153.2,162.2L159.7,159.7L162.9,160.9L169.0,157.8L171.2,164.1L170.5,167.8L179.1,166.4L182.8,167.9L183.1,153.5L190.3,153.6L190.7,140.5L195.7,140.7L196.1,127.4L175.2,127.4L160.4,126.9L160.8,124.0L142.7,123.5Z"/>
    <path class="wtc-county" id="wtc-county-lafayette" data-county="Lafayette" d="M140.2,353.3L137.7,358.5L142.4,362.7L144.9,363.1L141.6,366.2L145.6,368.1L142.7,370.0L144.2,372.6L139.5,373.7L142.0,377.1L137.7,383.5L133.7,387.3L132.6,385.1L126.8,388.1L126.5,392.6L131.9,399.8L160.4,399.9L163.6,399.9L164.4,375.6L168.3,375.8L170.5,368.7L175.9,357.0L164.0,356.8L164.4,353.9L140.2,353.3Z"/>
    <path class="wtc-county" id="wtc-county-lawrence" data-county="Lawrence" d="M387.7,74.3L387.7,75.7L380.4,75.6L378.6,77.0L377.9,111.2L393.8,111.3L410.4,111.7L426.6,112.2L428.8,103.4L431.7,92.2L434.9,90.8L439.2,85.2L432.8,85.2L409.3,85.0L407.1,85.8L399.6,83.5L397.4,79.5L389.5,77.5L387.7,74.3Z"/>
    <path class="wtc-county" id="wtc-county-lee" data-county="Lee" d="M403.9,214.0L403.5,227.3L408.9,227.4L408.6,236.3L455.5,236.8L455.1,233.8L458.7,232.0L458.4,236.2L462.3,237.8L467.4,233.5L466.7,230.8L459.5,230.6L457.3,227.2L459.8,226.0L459.1,222.9L462.7,220.6L462.0,225.5L463.8,228.5L468.8,226.8L466.7,220.6L468.5,218.5L465.6,214.7L466.3,212.1L470.3,212.3L473.2,217.5L473.2,210.3L418.7,210.1L403.9,209.6L403.9,214.0Z"/>
    <path class="wtc-county" id="wtc-county-lincoln" data-county="Lincoln" d="M318.0,294.8L318.0,303.5L315.5,303.5L315.5,322.1L346.9,322.1L357.7,323.0L358.8,303.6L367.1,303.7L367.1,300.7L371.4,299.8L368.9,293.1L363.1,293.8L358.4,290.5L355.2,292.3L352.7,290.9L355.2,288.6L349.1,287.4L344.0,284.1L340.8,283.7L340.8,294.7L339.0,291.8L318.0,291.8L318.0,294.8Z"/>
    <path class="wtc-county" id="wtc-county-little-river" data-county="Little River" d="M64.4,307.2L63.3,337.6L66.2,336.9L66.2,341.6L70.2,343.7L73.4,343.2L72.7,346.3L76.3,347.1L78.1,344.8L81.0,346.3L82.1,343.8L89.7,346.2L93.7,342.2L98.0,343.6L99.8,346.2L101.9,344.4L107.7,346.3L107.7,346.2L112.4,345.0L113.5,348.1L115.7,343.3L117.1,346.5L119.3,343.1L122.5,344.3L126.5,340.3L129.7,340.5L127.2,340.0L119.3,335.0L115.7,334.2L116.4,326.3L108.1,326.0L108.1,323.1L93.3,322.4L93.7,320.3L88.2,321.1L78.9,315.2L78.1,313.0L73.1,311.8L74.2,308.0L70.9,308.7L64.4,307.2Z"/>
    <path class="wtc-county" id="wtc-county-logan" data-county="Logan" d="M98.0,190.7L98.0,195.1L104.8,195.3L104.8,198.1L142.0,198.8L141.6,187.2L146.0,185.8L159.7,186.1L166.9,179.1L184.6,179.3L184.9,168.8L182.8,167.9L179.1,166.4L170.5,167.8L171.2,164.1L169.0,157.8L162.9,160.9L159.7,159.7L153.2,162.2L148.5,161.9L145.6,160.0L141.3,163.0L137.7,164.1L131.5,157.5L131.2,169.2L120.7,168.6L120.3,177.7L109.5,177.5L109.5,179.3L109.2,186.6L98.3,186.3L98.0,190.7Z"/>
    <path class="wtc-county" id="wtc-county-lonoke" data-county="Lonoke" d="M301.1,194.0L301.1,199.5L306.1,199.5L305.4,227.9L304.0,229.8L301.8,238.7L310.5,238.8L310.1,252.0L342.9,252.7L345.8,252.8L346.5,249.1L350.1,245.7L346.9,243.0L349.8,238.3L343.3,233.6L344.0,208.8L332.8,208.6L333.2,197.6L325.6,198.2L318.0,196.2L311.9,193.1L301.1,194.0Z"/>
    <path class="wtc-county" id="wtc-county-madison" data-county="Madison" d="M123.6,76.6L117.8,91.1L117.5,111.2L116.0,124.3L121.1,124.3L121.1,122.9L142.7,123.5L160.8,124.0L160.0,112.1L161.8,112.2L164.0,104.9L167.6,103.4L168.0,92.1L164.4,92.0L164.7,87.6L157.5,87.6L157.5,84.6L153.9,84.5L153.9,81.5L150.3,80.0L150.6,74.2L146.0,72.5L146.7,69.8L130.8,69.4L125.4,69.3L125.4,76.6L123.6,76.6Z"/>
    <path class="wtc-county" id="wtc-county-marion" data-county="Marion" d="M227.5,50.2L227.5,53.5L224.2,50.9L223.9,88.8L229.3,88.8L229.3,93.2L271.9,93.9L272.2,86.7L265.0,80.7L267.2,78.6L265.7,74.4L258.5,73.7L260.7,70.2L255.6,69.4L259.6,64.9L255.3,65.8L253.8,64.2L259.6,61.4L260.0,50.1L235.8,50.2L227.5,50.2Z"/>
    <path class="wtc-county" id="wtc-county-miller" data-county="Miller" d="M107.7,346.2L107.7,346.3L108.1,347.3L108.1,371.8L108.1,399.8L130.8,399.8L131.9,399.8L126.5,392.6L126.8,388.1L132.6,385.1L133.7,387.3L137.7,383.5L142.0,377.1L139.5,373.7L144.2,372.6L142.7,370.0L145.6,368.1L141.6,366.2L144.9,363.1L142.4,362.7L137.7,358.5L140.2,353.3L136.9,349.9L135.1,351.7L132.3,344.9L129.7,343.7L129.7,340.5L126.5,340.3L122.5,344.3L119.3,343.1L117.1,346.5L115.7,343.3L113.5,348.1L112.4,345.0L107.7,346.2Z"/>
    <path class="wtc-county" id="wtc-county-mississippi" data-county="Mississippi" d="M485.4,100.6L485.4,130.4L485.4,156.6L500.2,156.9L505.6,152.6L508.5,160.2L509.2,159.7L512.5,153.7L509.2,150.1L511.0,145.1L514.3,144.3L522.2,149.1L523.3,146.6L518.6,142.3L519.7,140.2L529.1,136.6L528.0,133.3L523.7,135.3L520.4,133.8L518.3,128.0L523.7,124.4L526.9,126.2L533.0,124.3L536.3,119.9L540.3,119.8L544.2,116.9L537.0,113.8L540.3,109.6L548.9,111.6L550.0,109.8L548.9,107.7L542.4,103.4L541.0,100.2L518.3,100.3L485.4,100.6Z"/>
    <path class="wtc-county" id="wtc-county-monroe" data-county="Monroe" d="M376.8,209.5L379.4,213.4L376.5,218.4L376.1,234.3L368.9,234.2L368.9,240.0L375.8,241.7L375.8,244.6L384.4,244.8L383.7,247.6L387.7,248.2L387.3,250.8L392.0,252.3L393.1,255.4L396.3,255.9L400.6,262.9L404.3,266.6L408.2,267.4L413.6,267.4L413.6,254.0L408.2,253.9L408.6,236.3L408.9,227.4L403.5,227.3L403.9,214.0L402.1,214.0L402.1,209.6L398.5,209.6L398.8,200.5L389.8,200.3L389.8,202.2L384.4,202.2L384.1,209.6L376.8,209.5Z"/>
    <path class="wtc-county" id="wtc-county-montgomery" data-county="Montgomery" d="M119.3,234.3L118.9,266.0L164.7,267.0L171.6,267.1L171.9,261.4L172.3,232.4L173.0,226.5L141.3,226.3L134.1,227.6L130.8,229.8L125.4,229.6L124.7,234.3L119.3,234.3Z"/>
    <path class="wtc-county" id="wtc-county-nevada" data-county="Nevada" d="M164.4,353.9L164.0,356.8L175.9,357.0L190.7,357.5L190.7,356.0L201.2,356.3L202.2,323.6L198.6,319.8L194.7,321.3L193.2,319.4L184.2,317.0L180.2,310.5L175.2,305.6L166.9,305.6L166.5,318.8L165.4,318.8L164.4,345.1L164.4,353.9Z"/>
    <path class="wtc-county" id="wtc-county-newton" data-county="Newton" d="M164.7,87.6L164.4,92.0L168.0,92.1L167.6,103.4L164.0,104.9L161.8,112.2L160.0,112.1L160.8,124.0L160.4,126.9L175.2,127.4L196.1,127.4L217.7,127.9L218.8,101.2L218.5,88.7L182.4,88.0L164.7,87.6Z"/>
    <path class="wtc-county" id="wtc-county-ouachita" data-county="Ouachita" d="M201.2,356.3L200.8,363.5L214.9,363.9L232.5,364.3L236.9,362.7L247.0,366.0L253.5,364.2L256.3,364.8L254.5,361.8L248.8,362.0L247.7,358.2L242.3,358.4L241.2,353.3L237.6,353.1L235.4,350.5L241.9,342.4L239.8,339.8L240.5,336.2L247.7,335.3L249.5,332.1L254.5,327.7L254.5,321.1L223.5,320.3L221.0,319.1L218.8,321.3L209.5,324.4L206.6,322.7L202.2,323.6L201.2,356.3Z"/>
    <path class="wtc-county" id="wtc-county-perry" data-county="Perry" d="M208.7,193.0L202.2,198.9L191.1,207.5L185.6,210.4L183.8,214.7L183.8,223.5L205.1,223.6L205.5,215.0L230.0,215.3L238.7,218.0L239.0,215.4L237.2,215.4L237.6,209.6L248.1,209.7L248.1,206.8L258.5,207.1L258.5,205.4L253.1,201.2L258.5,195.1L257.4,189.4L253.1,192.1L248.4,193.1L250.6,189.8L245.5,192.8L241.2,193.5L208.7,193.0Z"/>
    <path class="wtc-county" id="wtc-county-phillips" data-county="Phillips" d="M408.2,267.4L405.7,276.1L407.9,279.4L404.3,283.5L405.7,286.7L402.1,289.3L418.3,289.3L418.3,289.2L422.7,284.6L428.4,287.4L433.1,285.0L432.4,282.9L425.2,283.0L420.1,279.2L423.4,276.7L429.1,280.4L430.6,274.3L437.4,273.0L440.0,270.4L437.1,266.5L438.9,264.2L445.7,264.1L444.7,268.8L448.3,268.9L448.3,263.4L457.3,258.5L455.1,251.3L456.9,248.5L459.5,244.6L455.1,239.3L455.5,236.8L408.6,236.3L408.2,253.9L413.6,254.0L413.6,267.4L408.2,267.4Z"/>
    <path class="wtc-county" id="wtc-county-pike" data-county="Pike" d="M118.9,266.0L118.5,274.8L120.0,274.8L119.6,282.4L130.4,282.8L130.1,300.3L137.3,300.6L147.8,303.0L150.6,305.3L155.3,305.1L159.7,307.0L166.9,305.6L175.2,305.6L174.8,302.6L169.0,296.2L166.9,288.1L168.3,280.3L162.2,279.8L162.2,275.7L164.4,275.8L164.7,267.0L118.9,266.0Z"/>
    <path class="wtc-county" id="wtc-county-poinsett" data-county="Poinsett" d="M410.0,129.5L409.7,156.0L420.9,156.3L453.0,155.6L453.0,156.4L463.8,156.3L485.4,156.6L485.4,130.4L464.1,129.6L453.7,130.0L410.0,129.5Z"/>
    <path class="wtc-county" id="wtc-county-polk" data-county="Polk" d="M65.9,250.2L65.2,282.2L87.9,281.9L87.9,274.1L86.4,274.1L86.8,265.5L118.9,266.0L119.3,234.3L119.3,232.9L110.6,231.7L80.3,231.1L80.3,228.2L66.6,228.0L65.9,250.2Z"/>
    <path class="wtc-county" id="wtc-county-pope" data-county="Pope" d="M196.1,127.4L195.7,140.7L190.7,140.5L190.3,153.6L183.1,153.5L182.8,167.9L184.9,168.8L188.2,172.9L192.5,173.4L197.2,177.1L199.7,182.6L204.0,182.4L204.4,187.9L208.0,188.8L210.5,184.3L220.3,183.1L223.2,183.6L227.5,183.4L227.8,154.2L227.8,145.5L231.5,145.6L231.8,128.1L217.7,127.9L196.1,127.4Z"/>
    <path class="wtc-county" id="wtc-county-prairie" data-county="Prairie" d="M333.2,197.6L332.8,208.6L344.0,208.8L343.3,233.6L349.8,238.3L346.9,243.0L350.1,245.7L346.5,249.1L345.8,252.8L353.8,252.9L354.1,244.2L375.8,244.6L375.8,241.7L368.9,240.0L368.9,234.2L376.1,234.3L376.5,218.4L379.4,213.4L376.8,209.5L377.2,195.5L367.5,195.5L367.1,191.8L355.2,191.5L354.8,198.2L349.4,198.0L349.1,196.4L343.3,194.4L336.8,195.7L333.2,197.6Z"/>
    <path class="wtc-county" id="wtc-county-pulaski" data-county="Pulaski" d="M258.5,205.4L258.5,207.1L248.1,206.8L248.1,209.7L237.6,209.6L237.2,215.4L239.0,215.4L247.7,215.6L247.7,224.4L257.8,224.7L257.8,231.9L262.8,233.6L268.6,233.6L268.6,238.2L278.0,238.3L278.4,242.7L288.8,242.9L288.5,251.6L292.4,251.7L310.1,252.0L310.5,238.8L301.8,238.7L304.0,229.8L305.4,227.9L306.1,199.5L301.1,199.5L290.3,199.3L290.3,208.0L271.1,207.6L267.9,210.7L269.0,213.8L266.8,215.1L267.9,210.2L264.6,205.7L258.5,205.4Z"/>
    <path class="wtc-county" id="wtc-county-randolph" data-county="Randolph" d="M401.0,50.2L372.9,50.3L377.9,53.5L378.6,57.9L382.6,57.9L382.6,61.1L386.2,62.6L387.7,66.9L387.7,74.3L389.5,77.5L397.4,79.5L399.6,83.5L407.1,85.8L409.3,85.0L432.8,85.2L433.1,73.4L433.1,71.2L438.9,72.0L438.9,58.7L436.0,56.2L437.1,51.5L435.3,50.1L401.0,50.2Z"/>
    <path class="wtc-county" id="wtc-county-st-francis" data-county="St. Francis" d="M398.8,200.5L398.5,209.6L402.1,209.6L402.1,214.0L403.9,214.0L403.9,209.6L418.7,210.1L473.2,210.3L473.9,185.8L463.8,186.2L441.8,185.8L409.7,185.8L409.3,200.6L398.8,200.5Z"/>
    <path class="wtc-county" id="wtc-county-saline" data-county="Saline" d="M239.0,215.4L238.7,218.0L230.0,215.3L205.5,215.0L205.1,223.6L215.9,223.6L214.9,237.2L225.3,237.4L225.0,241.9L232.2,241.9L233.6,244.8L233.6,250.7L239.0,250.7L239.0,253.6L244.4,253.7L244.4,259.6L245.9,259.6L250.6,259.7L254.2,255.4L272.6,255.8L272.6,251.4L288.5,251.6L288.8,242.9L278.4,242.7L278.0,238.3L268.6,238.2L268.6,233.6L262.8,233.6L257.8,231.9L257.8,224.7L247.7,224.4L247.7,215.6L239.0,215.4Z"/>
    <path class="wtc-county" id="wtc-county-scott" data-county="Scott" d="M67.3,207.4L66.6,228.0L80.3,228.2L80.3,231.1L110.6,231.7L119.3,232.9L119.3,234.3L124.7,234.3L125.4,229.6L130.8,229.8L134.1,227.6L141.3,226.3L142.0,198.8L104.8,198.1L104.8,195.3L98.0,195.1L98.0,190.7L87.2,194.1L89.3,195.1L89.0,203.9L82.5,205.5L71.3,205.8L67.3,207.4Z"/>
    <path class="wtc-county" id="wtc-county-searcy" data-county="Searcy" d="M218.5,88.7L218.8,101.2L217.7,127.9L231.8,128.1L249.9,128.5L249.9,121.2L271.5,121.5L271.5,102.7L271.9,93.9L229.3,93.2L229.3,88.8L223.9,88.8L218.5,88.7Z"/>
    <path class="wtc-county" id="wtc-county-sebastian" data-county="Sebastian" d="M68.8,161.9L67.3,207.4L71.3,205.8L82.5,205.5L89.0,203.9L89.3,195.1L87.2,194.1L98.0,190.7L98.3,186.3L109.2,186.6L109.5,179.3L104.1,179.0L104.8,155.9L98.0,155.5L96.2,157.0L98.7,160.6L91.8,164.5L81.7,165.3L77.8,163.4L78.1,159.7L73.4,155.7L68.4,157.7L68.8,161.9Z"/>
    <path class="wtc-county" id="wtc-county-sevier" data-county="Sevier" d="M65.2,282.2L64.4,307.2L70.9,308.7L74.2,308.0L73.1,311.8L78.1,313.0L78.9,315.2L88.2,321.1L93.7,320.3L93.3,322.4L108.1,323.1L108.1,326.0L116.4,326.3L115.3,320.7L107.0,312.7L105.2,307.4L106.6,304.4L103.4,297.8L104.1,288.6L101.6,282.0L87.9,281.9L65.2,282.2Z"/>
    <path class="wtc-county" id="wtc-county-sharp" data-county="Sharp" d="M344.4,74.8L346.2,79.3L345.5,83.7L345.1,100.2L342.6,100.2L342.2,106.0L367.1,106.6L367.1,111.0L377.9,111.2L378.6,77.0L380.4,75.6L387.7,75.7L387.7,74.3L387.7,66.9L386.2,62.6L382.6,61.1L382.6,57.9L378.6,57.9L377.9,53.5L372.9,50.3L368.5,50.2L368.2,66.5L357.0,66.3L357.0,75.1L344.4,74.8Z"/>
    <path class="wtc-county" id="wtc-county-stone" data-county="Stone" d="M271.5,121.5L271.1,128.7L289.2,129.2L329.6,129.9L329.6,125.5L326.7,123.2L326.3,119.2L328.5,113.5L323.8,112.0L318.0,107.1L312.6,108.3L308.7,105.9L305.4,107.5L301.8,106.6L304.7,103.6L303.2,99.6L307.6,96.7L301.8,93.7L299.3,88.9L294.2,89.6L293.5,86.9L293.5,94.3L282.7,94.1L282.3,102.8L271.5,102.7L271.5,121.5Z"/>
    <path class="wtc-county" id="wtc-county-union" data-county="Union" d="M214.9,363.9L213.8,400.0L240.5,400.3L306.5,400.9L302.5,398.6L300.4,394.7L300.4,389.8L302.2,386.0L299.3,385.4L291.0,380.7L290.6,376.3L280.5,375.3L278.0,371.7L270.1,374.6L265.7,372.2L265.0,368.8L260.7,369.9L259.6,365.9L256.3,364.8L253.5,364.2L247.0,366.0L236.9,362.7L232.5,364.3L214.9,363.9Z"/>
    <path class="wtc-county" id="wtc-county-van-buren" data-county="Van Buren" d="M231.8,128.1L231.5,145.6L227.8,145.5L227.8,154.2L265.0,155.0L265.0,163.7L287.7,164.1L288.1,148.1L288.8,146.6L289.2,129.2L271.1,128.7L271.5,121.5L249.9,121.2L249.9,128.5L231.8,128.1Z"/>
    <path class="wtc-county" id="wtc-county-washington" data-county="Washington" d="M56.9,90.0L62.6,124.4L99.8,125.3L99.8,123.9L116.0,124.3L117.5,111.2L117.8,91.1L123.6,76.6L114.9,77.3L114.9,79.7L110.6,79.3L78.9,78.7L78.5,85.9L73.1,85.9L72.7,90.2L56.9,90.0Z"/>
    <path class="wtc-county" id="wtc-county-white" data-county="White" d="M302.2,164.2L301.1,194.0L311.9,193.1L318.0,196.2L325.6,198.2L333.2,197.6L336.8,195.7L343.3,194.4L349.1,196.4L349.4,198.0L354.8,198.2L355.2,191.5L367.1,191.8L369.6,188.9L367.5,185.1L371.4,182.7L372.9,179.3L375.8,179.1L372.5,174.1L369.6,163.6L377.9,159.7L379.0,156.6L355.2,156.3L355.2,147.4L333.9,147.0L333.9,154.9L328.5,156.9L328.1,164.7L302.2,164.2Z"/>
    <path class="wtc-county" id="wtc-county-woodruff" data-county="Woodruff" d="M367.1,191.8L367.5,195.5L377.2,195.5L376.8,209.5L384.1,209.6L384.4,202.2L389.8,202.2L389.8,200.3L398.8,200.5L409.3,200.6L409.7,185.8L409.7,165.1L388.4,164.7L388.4,155.9L379.0,156.6L377.9,159.7L369.6,163.6L372.5,174.1L375.8,179.1L372.9,179.3L371.4,182.7L367.5,185.1L369.6,188.9L367.1,191.8Z"/>
    <path class="wtc-county" id="wtc-county-yell" data-county="Yell" d="M142.0,198.8L141.3,226.3L173.0,226.5L173.0,223.6L183.8,223.5L183.8,214.7L185.6,210.4L191.1,207.5L202.2,198.9L208.7,193.0L208.7,189.8L214.9,188.8L220.3,183.8L223.2,183.6L220.3,183.1L210.5,184.3L208.0,188.8L204.4,187.9L204.0,182.4L199.7,182.6L197.2,177.1L192.5,173.4L188.2,172.9L184.9,168.8L184.6,179.3L166.9,179.1L159.7,186.1L146.0,185.8L141.6,187.2L142.0,198.8Z"/>
  </g>
</svg>