<?xml version="1.0" encoding="UTF-8"?>
<svg xmlns="http://www.w3.org/2000/svg" viewBox="0 0 600 587" id="wtc-state-map-GA" role="img" aria-label="ga county map">
  <title>ga Counties</title>
  <g class="wtc-counties">
    <path class="wtc-county" id="wtc-county-appling" data-county="Appling" d="M383.5,218.7L383.5,205.3L374.0,205.3L374.0,191.9L376.7,191.9L381.2,186.7L392.1,182.5L395.1,179.7L403.4,175.5L404.9,173.0L412.5,166.7L414.7,166.8L414.7,198.4L419.3,198.4L417.4,201.2L423.4,204.1L417.4,208.0L416.2,210.4L404.9,213.1L398.2,216.2L395.5,215.0L389.5,216.1L383.5,218.7Z"/>
    <path class="wtc-county" id="wtc-county-atkinson" data-county="Atkinson" d="M308.9,161.4L311.9,155.9L317.5,151.9L320.2,146.1L318.3,141.6L318.7,136.6L326.6,136.6L358.2,136.6L355.2,140.7L355.2,146.5L362.4,146.1L362.7,155.5L342.8,155.5L340.5,159.5L328.1,159.6L328.1,161.1L308.9,161.4Z"/>
    <path class="wtc-county" id="wtc-county-bacon" data-county="Bacon" d="M362.7,187.9L362.7,175.9L366.1,175.8L365.7,166.5L376.7,166.5L378.2,161.1L385.0,161.1L392.5,162.5L397.0,166.4L397.0,169.0L400.4,169.0L404.9,173.0L403.4,175.5L395.1,179.7L392.1,182.5L381.2,186.7L376.7,191.9L374.0,191.9L374.0,187.9L362.7,187.9Z"/>
    <path class="wtc-county" id="wtc-county-baker" data-county="Baker" d="M151.7,162.8L151.4,144.5L162.3,144.1L161.5,125.6L165.3,125.5L165.3,130.3L180.4,142.4L185.6,151.1L197.7,154.6L198.1,158.5L202.6,160.7L203.7,163.4L196.6,163.0L173.6,163.1L171.7,165.0L167.2,162.2L151.7,162.8Z"/>
    <path class="wtc-county" id="wtc-county-baldwin" data-county="Baldwin" d="M294.9,346.9L285.5,346.2L278.7,346.7L280.2,338.3L286.2,319.5L308.1,328.1L316.0,321.6L318.7,325.7L316.4,330.1L318.3,335.7L313.0,332.5L311.1,336.0L313.4,343.1L303.2,345.7L294.9,346.9Z"/>
    <path class="wtc-county" id="wtc-county-banks" data-county="Banks" d="M259.1,477.5L255.0,474.2L253.5,470.6L255.4,465.9L258.4,463.2L264.8,458.7L273.1,459.7L281.3,452.9L286.2,455.7L288.1,459.6L282.5,466.3L283.6,477.3L281.7,480.6L275.3,482.7L267.4,483.9L259.1,477.5Z"/>
    <path class="wtc-county" id="wtc-county-barrow" data-county="Barrow" d="M237.6,445.6L232.4,432.6L235.8,430.6L239.9,424.9L243.7,421.2L252.7,423.5L255.7,422.4L267.4,428.7L264.4,435.5L259.1,437.1L243.3,439.0L237.6,445.6Z"/>
    <path class="wtc-county" id="wtc-county-bartow" data-county="Bartow" d="M108.8,442.3L108.8,440.9L122.0,440.8L141.2,440.6L149.5,440.4L149.5,453.5L150.2,456.1L150.2,475.6L141.6,475.6L141.6,473.8L118.6,474.1L118.6,472.5L112.9,473.4L113.3,468.6L111.4,468.6L111.0,454.6L109.2,454.6L108.8,442.3Z"/>
    <path class="wtc-county" id="wtc-county-ben-hill" data-county="Ben Hill" d="M273.1,206.2L276.1,196.8L289.6,196.7L289.6,188.7L295.7,188.6L295.7,186.0L305.1,185.7L305.1,188.5L323.9,188.0L323.9,199.2L320.5,199.0L314.9,202.5L309.2,202.8L305.1,206.3L301.7,205.9L273.1,206.2Z"/>
    <path class="wtc-county" id="wtc-county-berrien" data-county="Berrien" d="M278.0,154.1L277.6,150.5L283.2,144.4L288.5,143.0L288.5,137.4L291.5,134.9L289.6,129.7L294.2,123.9L292.7,120.2L302.8,120.0L302.8,123.8L306.2,123.9L306.2,132.7L319.8,132.7L318.7,136.6L318.3,141.6L320.2,146.1L317.5,151.9L311.9,155.9L308.9,161.4L308.5,166.9L288.1,167.2L284.7,166.1L284.7,159.4L278.0,154.1Z"/>
    <path class="wtc-county" id="wtc-county-bibb" data-county="Bibb" d="M230.1,311.3L230.1,308.3L238.8,298.9L246.3,295.1L250.1,294.9L253.8,293.0L261.0,292.0L259.5,294.6L260.2,300.1L262.9,299.7L272.3,308.7L269.7,311.0L260.6,315.5L254.6,315.5L250.5,318.5L248.9,322.3L230.1,311.3Z"/>
    <path class="wtc-county" id="wtc-county-bleckley" data-county="Bleckley" d="M271.6,269.8L271.6,264.4L287.4,250.8L293.8,256.3L291.5,258.1L305.5,269.8L309.2,266.7L299.8,283.6L271.6,269.8Z"/>
    <path class="wtc-county" id="wtc-county-brantley" data-county="Brantley" d="M398.9,140.8L398.9,137.5L406.8,135.2L406.8,126.2L414.7,118.4L420.0,118.4L422.3,125.2L435.5,122.3L437.3,127.3L445.3,127.6L447.5,131.6L453.2,135.0L453.2,138.5L456.9,151.9L449.4,155.4L436.6,153.6L424.2,156.5L426.4,151.6L429.4,149.6L427.9,146.4L416.6,145.7L413.2,143.8L413.2,141.1L408.3,139.1L398.9,140.8Z"/>
    <path class="wtc-county" id="wtc-county-brooks" data-county="Brooks" d="M246.3,121.2L245.6,81.4L259.5,80.7L286.2,79.2L285.5,81.5L277.6,84.6L272.7,91.3L275.7,92.7L276.5,98.2L279.1,97.9L286.6,100.7L284.7,105.1L277.6,107.3L278.7,111.9L273.8,120.6L265.9,123.0L263.3,125.5L263.3,120.8L246.3,121.2Z"/>
    <path class="wtc-county" id="wtc-county-bryan" data-county="Bryan" d="M451.7,238.3L454.3,233.2L458.1,231.6L460.7,231.5L466.4,227.5L471.3,221.4L471.3,219.3L478.8,217.9L483.7,219.5L484.8,217.0L491.2,215.7L493.9,206.4L497.2,203.8L498.8,205.5L501.0,200.2L504.4,200.7L506.3,196.4L512.7,193.5L517.2,193.5L515.3,197.4L515.0,202.9L519.1,207.1L512.3,214.1L505.5,212.9L501.8,222.2L495.0,227.3L492.4,232.3L487.8,247.6L467.9,242.2L451.7,238.3Z"/>
    <path class="wtc-county" id="wtc-county-bulloch" data-county="Bulloch" d="M428.7,286.0L425.3,278.8L431.7,276.2L430.9,272.4L437.3,265.9L433.2,252.3L431.7,250.5L440.0,251.1L447.9,247.2L451.7,238.3L467.9,242.2L487.8,247.6L487.5,251.1L482.2,259.2L480.3,259.9L476.5,266.1L478.4,269.5L476.1,273.6L461.1,279.6L452.4,285.9L449.4,289.6L445.3,290.4L428.7,286.0Z"/>
    <path class="wtc-county" id="wtc-county-burke" data-county="Burke" d="M395.5,310.0L406.1,306.7L413.2,307.6L415.5,315.0L420.0,318.5L433.2,319.2L443.7,322.3L451.3,319.7L453.2,317.7L476.5,332.0L469.0,337.1L465.6,337.1L455.4,342.1L452.4,346.2L454.3,348.0L451.7,350.5L449.0,349.4L444.1,353.2L440.7,354.7L435.5,353.8L430.9,351.1L422.3,352.7L418.1,351.6L410.2,358.4L400.4,355.3L404.2,351.5L400.8,343.4L398.2,333.8L400.0,320.7L395.5,310.0Z"/>
    <path class="wtc-county" id="wtc-county-butts" data-county="Butts" d="M207.9,358.5L209.4,357.2L205.6,353.7L205.6,348.5L214.3,348.5L233.5,348.3L237.3,346.2L238.0,352.6L235.4,361.8L233.1,365.9L227.8,371.0L226.7,373.8L221.4,370.1L222.6,366.6L215.4,365.2L212.4,359.8L207.9,358.5Z"/>
    <path class="wtc-county" id="wtc-county-calhoun" data-county="Calhoun" d="M132.5,169.9L135.2,169.9L135.9,163.1L151.7,162.8L167.2,162.2L171.7,165.0L173.6,163.1L175.5,165.3L170.6,178.9L171.3,182.6L161.2,182.5L157.0,182.5L150.6,184.8L149.8,182.4L132.9,182.4L132.5,169.9Z"/>
    <path class="wtc-county" id="wtc-county-camden" data-county="Camden" d="M453.2,135.0L447.5,131.6L445.3,127.6L437.3,127.3L435.5,122.3L438.5,121.4L437.7,114.7L440.0,113.1L437.7,108.1L440.0,107.8L438.8,98.4L442.2,95.5L448.6,95.3L455.4,92.7L458.1,90.5L470.5,88.8L476.9,87.2L482.2,88.5L487.1,86.8L485.2,93.1L491.2,107.6L490.8,114.9L486.7,112.8L481.8,114.9L487.1,119.0L482.6,120.9L473.5,127.5L475.0,130.0L467.1,128.6L461.5,130.2L453.2,135.0Z"/>
    <path class="wtc-county" id="wtc-county-candler" data-county="Candler" d="M425.3,278.8L420.4,281.0L413.2,276.9L409.5,272.0L409.1,267.8L401.9,259.1L404.2,255.7L426.0,251.6L431.7,250.5L433.2,252.3L437.3,265.9L430.9,272.4L431.7,276.2L425.3,278.8Z"/>
    <path class="wtc-county" id="wtc-county-carroll" data-county="Carroll" d="M78.3,395.8L81.7,377.9L82.8,372.1L112.2,371.9L115.2,375.2L120.1,373.1L123.1,376.5L128.7,379.1L129.5,381.0L132.9,381.9L131.4,384.5L133.6,387.5L123.5,387.5L123.9,409.2L109.5,412.4L108.4,412.5L108.4,402.2L102.4,400.2L99.0,400.7L83.2,395.7L78.3,395.8Z"/>
    <path class="wtc-county" id="wtc-county-catoosa" data-county="Catoosa" d="M85.8,535.6L85.8,521.9L92.6,521.9L92.6,513.5L98.6,512.8L99.7,518.2L107.3,518.2L107.3,522.9L111.4,523.6L115.9,535.9L85.8,535.6Z"/>
    <path class="wtc-county" id="wtc-county-charlton" data-county="Charlton" d="M414.7,118.4L385.0,118.7L384.6,95.8L409.8,95.4L412.8,94.6L406.1,72.0L404.2,70.7L404.9,65.6L407.6,63.3L406.4,56.9L410.6,50.0L417.7,51.0L423.4,50.4L424.9,52.7L424.5,57.9L426.8,62.2L427.9,72.9L423.4,81.1L424.9,86.5L424.5,90.9L427.5,92.4L426.0,94.5L430.6,93.8L433.9,99.1L438.8,98.4L440.0,107.8L437.7,108.1L440.0,113.1L437.7,114.7L438.5,121.4L435.5,122.3L422.3,125.2L420.0,118.4L414.7,118.4Z"/>
    <path class="wtc-county" id="wtc-county-chatham" data-county="Chatham" d="M492.4,232.3L495.0,227.3L501.8,222.2L505.5,212.9L512.3,214.1L519.1,207.1L515.0,202.9L515.3,197.4L517.2,193.5L519.9,193.1L526.3,198.0L529.7,203.3L525.5,204.3L526.6,209.3L534.6,207.3L540.6,212.7L536.8,213.4L539.1,217.7L542.8,216.4L548.1,219.0L550.0,224.8L545.5,225.9L542.1,226.2L533.8,232.6L529.7,231.1L521.7,234.1L519.9,239.7L521.4,242.1L518.3,246.1L513.1,247.2L492.4,232.3Z"/>
    <path class="wtc-county" id="wtc-county-chattahoochee" data-county="Chattahoochee" d="M115.6,261.9L113.7,256.1L120.5,253.5L125.0,249.9L122.0,246.5L149.5,246.7L149.8,274.2L151.7,278.4L145.7,276.7L142.7,275.5L138.2,266.4L126.1,265.4L119.3,261.7L115.6,261.9Z"/>
    <path class="wtc-county" id="wtc-county-chattooga" data-county="Chattooga" d="M58.3,494.0L59.8,487.2L65.1,462.3L73.0,462.2L78.6,471.1L94.8,478.0L102.4,493.9L58.3,494.0Z"/>
    <path class="wtc-county" id="wtc-county-cherokee" data-county="Cherokee" d="M150.2,475.6L150.2,456.1L149.5,453.5L149.5,440.4L174.7,439.9L174.7,443.6L180.7,445.2L181.5,450.8L191.7,451.8L191.7,467.4L191.7,472.2L157.4,472.2L157.4,475.5L150.2,475.6Z"/>
    <path class="wtc-county" id="wtc-county-clarke" data-county="Clarke" d="M267.4,428.7L270.4,425.0L279.5,424.5L289.6,416.9L294.5,416.2L298.3,422.2L294.9,426.1L296.4,432.1L285.9,436.4L271.2,430.9L267.4,428.7Z"/>
    <path class="wtc-county" id="wtc-county-clay" data-county="Clay" d="M100.5,199.2L100.5,197.4L100.5,190.2L107.6,182.4L108.8,171.6L110.7,168.3L120.1,170.1L132.5,169.9L132.9,182.4L119.7,182.2L117.8,192.1L118.2,199.0L105.8,198.3L100.5,199.2Z"/>
    <path class="wtc-county" id="wtc-county-clayton" data-county="Clayton" d="M181.9,395.2L170.6,395.3L170.6,385.1L172.5,385.0L174.7,379.1L178.5,375.8L176.6,371.9L178.5,369.5L178.1,364.2L181.5,364.3L181.5,373.0L187.9,372.9L189.0,384.8L193.2,389.2L189.0,395.2L181.9,395.2Z"/>
    <path class="wtc-county" id="wtc-county-clinch" data-county="Clinch" d="M326.6,136.6L326.6,103.6L339.8,100.0L341.3,94.4L345.0,90.2L355.2,89.4L365.4,87.2L367.6,85.4L367.3,74.4L380.4,73.6L384.6,73.4L383.5,76.6L382.7,98.4L376.7,98.3L377.1,113.4L374.0,113.4L371.0,117.4L366.5,119.3L358.2,136.6L326.6,136.6Z"/>
    <path class="wtc-county" id="wtc-county-cobb" data-county="Cobb" d="M141.2,440.6L141.2,426.7L142.7,426.7L142.7,411.9L153.2,411.7L158.1,405.3L169.4,414.1L172.5,420.6L171.7,422.7L176.2,426.3L179.2,430.8L176.6,433.7L174.7,439.9L149.5,440.4L141.2,440.6Z"/>
    <path class="wtc-county" id="wtc-county-coffee" data-county="Coffee" d="M308.5,166.9L308.9,161.4L328.1,161.1L328.1,159.6L340.5,159.5L342.8,155.5L362.7,155.5L362.7,166.5L365.7,166.5L366.1,175.8L362.7,175.9L362.7,187.9L340.9,187.8L340.9,202.9L337.5,199.4L325.8,200.5L323.9,199.2L323.9,188.0L322.0,184.0L317.5,181.5L317.5,176.6L311.9,167.5L308.5,166.9Z"/>
    <path class="wtc-county" id="wtc-county-colquitt" data-county="Colquitt" d="M218.8,152.4L218.4,125.4L218.4,121.6L246.3,121.2L263.3,120.8L263.3,125.5L267.0,136.0L270.0,138.9L269.7,151.6L255.0,152.0L218.8,152.4Z"/>
    <path class="wtc-county" id="wtc-county-columbia" data-county="Columbia" d="M383.8,395.6L382.3,394.2L385.3,388.9L382.7,384.9L388.4,382.9L386.5,381.4L388.4,376.3L393.3,371.3L392.9,369.8L397.8,364.5L425.7,384.5L416.6,389.9L412.8,390.0L408.0,393.4L405.7,399.3L399.7,399.1L396.3,400.8L385.3,397.2L383.8,395.6Z"/>
    <path class="wtc-county" id="wtc-county-cook" data-county="Cook" d="M269.7,151.6L270.0,138.9L267.0,136.0L263.3,125.5L265.9,123.0L273.8,120.6L292.7,120.2L294.2,123.9L289.6,129.7L291.5,134.9L288.5,137.4L288.5,143.0L283.2,144.4L277.6,150.5L278.0,154.1L275.3,151.5L269.7,151.6Z"/>
    <path class="wtc-county" id="wtc-county-coweta" data-county="Coweta" d="M129.5,381.0L128.7,379.1L123.1,376.5L120.1,373.1L115.2,375.2L112.2,371.9L120.1,350.8L128.0,350.8L128.0,347.3L129.1,350.7L166.1,350.5L166.4,354.3L162.7,362.5L157.0,364.8L152.9,373.3L154.7,380.0L153.6,380.9L129.5,381.0Z"/>
    <path class="wtc-county" id="wtc-county-crawford" data-county="Crawford" d="M197.3,294.7L207.5,292.9L212.8,289.1L211.3,285.1L213.1,281.8L218.4,277.9L243.3,294.9L250.1,294.8L250.1,294.9L246.3,295.1L238.8,298.9L230.1,308.3L230.1,311.3L205.6,311.4L205.6,306.3L203.0,306.4L197.3,294.7Z"/>
    <path class="wtc-county" id="wtc-county-crisp" data-county="Crisp" d="M222.6,225.5L226.7,216.7L226.7,212.8L225.2,206.3L235.0,204.6L239.5,201.6L259.5,201.7L259.5,206.9L259.5,225.2L222.6,225.5Z"/>
    <path class="wtc-county" id="wtc-county-dade" data-county="Dade" d="M50.0,535.5L52.6,522.5L57.5,497.7L62.1,502.5L62.1,505.6L66.6,511.9L66.6,519.5L69.6,526.7L75.6,535.4L63.9,535.4L50.0,535.5Z"/>
    <path class="wtc-county" id="wtc-county-dawson" data-county="Dawson" d="M182.3,491.3L185.3,481.3L191.7,481.1L191.7,472.2L191.7,467.4L223.3,467.3L220.7,469.8L220.7,476.1L207.5,481.2L198.5,489.2L198.8,495.5L198.1,497.1L192.0,495.0L192.0,491.9L183.4,493.1L182.3,491.3Z"/>
    <path class="wtc-county" id="wtc-county-decatur" data-county="Decatur" d="M126.9,88.7L128.0,87.0L178.9,84.7L179.2,125.6L165.3,125.5L161.5,125.6L151.0,125.7L151.0,124.4L141.9,124.6L139.7,121.6L139.3,106.3L135.9,96.4L129.5,93.4L126.9,88.7Z"/>
    <path class="wtc-county" id="wtc-county-dekalb" data-county="DeKalb" d="M189.4,427.8L182.3,428.1L181.9,395.2L189.0,395.2L192.8,393.4L199.2,395.0L206.4,391.8L212.8,403.5L216.2,406.3L210.9,408.8L202.2,416.8L197.3,418.8L191.3,423.7L189.4,427.8Z"/>
    <path class="wtc-county" id="wtc-county-dodge" data-county="Dodge" d="M287.4,250.8L284.4,248.5L293.0,241.0L289.6,238.0L291.5,236.2L288.1,233.3L292.7,230.5L291.5,227.6L296.0,217.2L299.8,215.6L302.1,211.8L331.1,236.5L337.1,241.5L335.6,242.8L324.7,237.8L309.2,266.7L305.5,269.8L291.5,258.1L293.8,256.3L287.4,250.8Z"/>
    <path class="wtc-county" id="wtc-county-dooly" data-county="Dooly" d="M215.8,240.2L215.0,238.3L219.6,232.3L222.6,225.5L259.5,225.2L259.9,234.7L259.9,252.5L259.1,252.5L234.6,252.8L229.4,251.7L222.2,248.3L215.8,240.2Z"/>
    <path class="wtc-county" id="wtc-county-dougherty" data-county="Dougherty" d="M171.3,182.6L170.6,178.9L175.5,165.3L173.6,163.1L196.6,163.0L203.7,163.4L218.8,163.9L219.2,182.9L216.9,185.5L214.3,182.7L187.5,182.6L171.3,182.6Z"/>
    <path class="wtc-county" id="wtc-county-douglas" data-county="Douglas" d="M123.9,409.2L123.5,387.5L133.6,387.5L139.7,393.4L149.8,396.8L150.2,399.0L158.1,405.3L153.2,411.7L142.7,411.9L142.7,410.0L126.5,408.6L123.9,409.2Z"/>
    <path class="wtc-county" id="wtc-county-early" data-county="Early" d="M104.3,149.6L101.6,146.3L103.5,141.7L102.4,136.8L109.9,128.6L111.0,125.2L122.0,124.9L122.3,144.1L151.4,144.5L151.7,162.8L135.9,163.1L135.2,169.9L132.5,169.9L120.1,170.1L110.7,168.3L108.8,171.6L106.1,166.4L106.9,162.5L103.9,155.3L104.3,149.6Z"/>
    <path class="wtc-county" id="wtc-county-echols" data-county="Echols" d="M321.7,101.5L314.5,101.4L312.6,96.7L309.6,95.2L309.2,77.8L356.3,75.1L367.3,74.4L367.6,85.4L365.4,87.2L355.2,89.4L345.0,90.2L341.3,94.4L339.8,100.0L326.6,103.6L321.7,101.5Z"/>
    <path class="wtc-county" id="wtc-county-effingham" data-county="Effingham" d="M492.7,284.7L476.9,275.7L476.1,273.6L478.4,269.5L476.5,266.1L480.3,259.9L482.2,259.2L487.5,251.1L487.8,247.6L492.4,232.3L513.1,247.2L518.3,246.1L517.2,247.6L521.0,252.1L518.7,258.9L517.2,258.6L511.6,268.1L513.1,271.1L504.4,278.4L504.0,280.7L499.9,281.0L492.7,284.7Z"/>
    <path class="wtc-county" id="wtc-county-elbert" data-county="Elbert" d="M315.6,455.7L313.0,450.4L316.4,448.4L319.8,442.6L326.2,436.8L329.6,433.8L337.9,430.5L346.9,429.2L359.7,431.3L360.9,430.6L365.4,430.1L369.5,427.6L366.1,433.6L366.1,435.4L360.9,439.8L357.8,445.8L353.3,448.0L350.7,454.1L350.7,458.7L347.3,462.5L332.6,458.2L325.8,454.3L321.7,456.8L315.6,455.7Z"/>
    <path class="wtc-county" id="wtc-county-emanuel" data-county="Emanuel" d="M383.1,302.2L381.2,297.7L376.3,294.1L380.1,290.2L366.1,283.0L369.5,278.2L360.5,276.1L377.4,273.9L388.4,268.5L385.7,259.4L391.4,255.2L391.4,252.9L399.3,253.2L404.2,255.7L401.9,259.1L409.1,267.8L409.5,272.0L413.2,276.9L420.4,281.0L425.3,278.8L428.7,286.0L420.0,291.9L413.2,307.6L406.1,306.7L395.5,310.0L390.6,307.9L384.6,307.4L386.9,303.9L383.1,302.2Z"/>
    <path class="wtc-county" id="wtc-county-evans" data-county="Evans" d="M431.7,250.5L426.0,251.6L430.6,230.8L440.4,227.6L453.5,227.3L458.1,231.6L454.3,233.2L451.7,238.3L447.9,247.2L440.0,251.1L431.7,250.5Z"/>
    <path class="wtc-county" id="wtc-county-fannin" data-county="Fannin" d="M153.6,536.0L153.6,522.0L174.3,522.2L185.6,517.0L192.0,507.6L192.0,502.0L198.5,499.3L198.1,497.1L198.8,495.5L202.2,500.3L207.9,508.6L209.0,516.3L204.1,517.0L203.7,521.8L207.5,525.3L200.0,532.2L205.2,535.9L184.9,536.0L153.6,536.0Z"/>
    <path class="wtc-county" id="wtc-county-fayette" data-county="Fayette" d="M154.7,380.0L152.9,373.3L157.0,364.8L162.7,362.5L166.4,354.3L173.2,354.2L177.4,359.7L178.1,364.2L178.5,369.5L176.6,371.9L178.5,375.8L174.7,379.1L172.5,385.0L170.6,385.1L158.9,382.3L154.7,380.0Z"/>
    <path class="wtc-county" id="wtc-county-floyd" data-county="Floyd" d="M65.1,462.3L69.6,440.7L86.5,440.5L86.5,442.7L108.8,442.3L109.2,454.6L111.0,454.6L111.4,468.6L113.3,468.6L112.9,473.4L104.6,474.3L102.0,480.7L104.3,480.9L104.3,489.1L106.9,489.2L106.5,493.9L102.4,493.9L94.8,478.0L78.6,471.1L73.0,462.2L65.1,462.3Z"/>
    <path class="wtc-county" id="wtc-county-forsyth" data-county="Forsyth" d="M191.7,451.8L191.7,443.7L198.8,441.3L203.7,438.0L208.3,437.5L206.4,439.1L208.3,445.1L212.0,449.9L215.4,452.7L219.9,452.7L224.1,457.3L225.6,462.1L223.3,467.3L191.7,467.4L191.7,451.8Z"/>
    <path class="wtc-county" id="wtc-county-franklin" data-county="Franklin" d="M281.7,480.6L283.6,477.3L282.5,466.3L288.1,459.6L286.2,455.7L292.3,460.0L294.9,458.3L305.5,457.3L311.9,461.0L313.8,468.6L312.2,468.3L313.8,475.9L318.3,484.2L312.6,488.5L305.1,482.3L284.4,481.6L281.7,480.6Z"/>
    <path class="wtc-county" id="wtc-county-fulton" data-county="Fulton" d="M133.6,387.5L131.4,384.5L132.9,381.9L129.5,381.0L153.6,380.9L154.7,380.0L158.9,382.3L170.6,385.1L170.6,395.3L181.9,395.2L182.3,428.1L189.4,427.8L190.9,430.8L196.2,432.6L199.6,432.1L201.1,435.2L208.3,437.5L203.7,438.0L198.8,441.3L191.7,443.7L191.7,451.8L181.5,450.8L180.7,445.2L174.7,443.6L174.7,439.9L176.6,433.7L179.2,430.8L176.2,426.3L171.7,422.7L172.5,420.6L169.4,414.1L158.1,405.3L150.2,399.0L149.8,396.8L139.7,393.4L133.6,387.5Z"/>
    <path class="wtc-county" id="wtc-county-gilmer" data-county="Gilmer" d="M153.6,522.0L157.4,518.8L152.1,513.3L149.8,508.7L149.8,493.4L149.8,489.8L179.6,489.8L182.3,491.3L183.4,493.1L192.0,491.9L192.0,495.0L198.1,497.1L198.5,499.3L192.0,502.0L192.0,507.6L185.6,517.0L174.3,522.2L153.6,522.0Z"/>
    <path class="wtc-county" id="wtc-county-glascock" data-county="Glascock" d="M349.2,353.8L349.9,352.3L351.8,349.0L351.1,345.6L359.0,340.5L368.0,339.8L367.3,345.3L383.5,356.1L369.9,361.6L360.9,358.9L357.5,356.0L349.2,353.8Z"/>
    <path class="wtc-county" id="wtc-county-glynn" data-county="Glynn" d="M456.9,151.9L453.2,138.5L453.2,135.0L461.5,130.2L467.1,128.6L475.0,130.0L473.5,127.5L482.6,120.9L487.1,119.0L490.1,120.1L491.6,124.9L491.6,131.3L495.0,131.6L498.0,136.9L502.9,138.9L505.2,148.2L493.5,150.6L487.8,150.2L475.8,156.7L468.2,164.8L463.7,159.2L461.1,159.3L456.9,151.9Z"/>
    <path class="wtc-county" id="wtc-county-gordon" data-county="Gordon" d="M106.5,493.9L106.9,489.2L104.3,489.1L104.3,480.9L102.0,480.7L104.6,474.3L112.9,473.4L118.6,472.5L118.6,474.1L141.6,473.8L141.6,475.6L150.2,475.6L149.8,489.8L149.8,493.4L144.6,495.0L143.4,497.6L134.4,496.0L123.5,496.8L122.7,498.7L121.6,496.8L108.4,497.6L106.5,493.9Z"/>
    <path class="wtc-county" id="wtc-county-grady" data-county="Grady" d="M179.2,125.6L178.9,84.7L189.0,84.3L209.8,83.3L210.5,107.4L206.4,114.1L206.4,125.5L179.2,125.6Z"/>
    <path class="wtc-county" id="wtc-county-greene" data-county="Greene" d="M281.0,400.5L284.7,396.1L287.4,390.3L295.3,383.2L294.2,378.0L298.3,371.1L297.9,369.1L302.8,368.7L306.6,364.5L322.4,376.5L325.1,381.9L322.0,388.2L328.8,396.7L323.9,400.1L318.7,402.3L311.1,400.6L294.2,407.2L293.0,404.3L281.0,400.5Z"/>
    <path class="wtc-county" id="wtc-county-gwinnett" data-county="Gwinnett" d="M189.4,427.8L191.3,423.7L197.3,418.8L202.2,416.8L210.9,408.8L216.2,406.3L220.7,409.7L239.9,424.9L235.8,430.6L232.4,432.6L237.6,445.6L232.4,442.6L212.0,449.9L208.3,445.1L206.4,439.1L208.3,437.5L201.1,435.2L199.6,432.1L196.2,432.6L190.9,430.8L189.4,427.8Z"/>
    <path class="wtc-county" id="wtc-county-habersham" data-county="Habersham" d="M255.4,518.6L252.0,516.2L257.6,512.4L258.4,509.1L254.2,501.4L256.5,497.6L256.5,493.1L259.1,490.3L253.8,485.0L259.1,477.5L267.4,483.9L275.3,482.7L285.5,503.1L288.1,504.3L286.6,507.4L278.3,510.6L273.4,508.2L265.9,510.9L262.1,518.3L255.4,518.6Z"/>
    <path class="wtc-county" id="wtc-county-hall" data-county="Hall" d="M223.3,467.3L225.6,462.1L224.1,457.3L219.9,452.7L215.4,452.7L212.0,449.9L232.4,442.6L237.6,445.6L258.4,463.2L255.4,465.9L253.5,470.6L255.0,474.2L259.1,477.5L253.8,485.0L235.0,485.3L220.7,476.1L220.7,469.8L223.3,467.3Z"/>
    <path class="wtc-county" id="wtc-county-hancock" data-county="Hancock" d="M294.9,346.9L303.2,345.7L313.4,343.1L311.1,336.0L313.0,332.5L318.3,335.7L322.8,335.7L326.9,338.7L334.1,340.7L339.0,347.9L346.9,352.3L349.9,352.3L349.2,353.8L346.2,355.4L344.3,365.5L342.4,366.5L342.0,372.1L339.4,373.7L334.1,373.3L325.4,374.2L322.4,376.5L306.6,364.5L308.5,359.8L297.2,354.4L294.9,346.9Z"/>
    <path class="wtc-county" id="wtc-county-haralson" data-county="Haralson" d="M73.0,421.9L78.3,395.8L83.2,395.7L99.0,400.7L102.4,400.2L108.4,402.2L108.4,412.5L109.5,412.4L109.9,422.2L108.4,422.2L91.4,422.4L91.4,421.6L73.0,421.9Z"/>
    <path class="wtc-county" id="wtc-county-harris" data-county="Harris" d="M94.1,313.6L97.5,310.7L96.0,307.5L100.9,303.4L100.1,301.2L102.8,290.0L105.0,286.1L123.5,286.0L123.5,283.5L145.7,283.6L146.1,309.4L145.0,310.9L139.7,313.5L128.4,313.9L128.4,313.4L94.1,313.6Z"/>
    <path class="wtc-county" id="wtc-county-hart" data-county="Hart" d="M311.9,461.0L315.6,455.7L321.7,456.8L325.8,454.3L332.6,458.2L347.3,462.5L345.4,467.9L340.9,470.6L339.8,476.4L336.7,482.1L333.7,483.2L324.3,482.5L318.3,484.2L313.8,475.9L312.2,468.3L313.8,468.6L311.9,461.0Z"/>
    <path class="wtc-county" id="wtc-county-heard" data-county="Heard" d="M82.8,372.1L88.8,340.8L101.2,344.4L102.4,347.7L104.6,345.3L120.1,350.8L112.2,371.9L82.8,372.1Z"/>
    <path class="wtc-county" id="wtc-county-henry" data-county="Henry" d="M189.0,395.2L193.2,389.2L189.0,384.8L187.9,372.9L181.5,373.0L181.5,364.3L192.4,364.3L192.8,362.5L203.0,362.5L203.0,360.1L207.9,358.5L212.4,359.8L215.4,365.2L222.6,366.6L221.4,370.1L226.7,373.8L224.5,377.8L215.4,379.5L213.9,382.4L213.5,384.0L205.6,386.2L199.2,395.0L192.8,393.4L189.0,395.2Z"/>
    <path class="wtc-county" id="wtc-county-houston" data-county="Houston" d="M234.6,271.5L235.8,262.4L234.6,252.8L259.1,252.5L268.5,264.4L271.6,264.4L271.6,269.8L272.3,273.2L269.3,274.6L266.3,282.3L267.4,283.8L265.1,290.8L261.0,292.0L253.8,293.0L250.1,294.9L250.1,294.8L248.2,288.9L248.2,278.1L245.2,278.3L245.2,275.3L239.9,274.4L239.9,269.1L234.6,271.5Z"/>
    <path class="wtc-county" id="wtc-county-irwin" data-county="Irwin" d="M271.2,179.7L271.2,177.2L279.5,175.4L282.1,173.1L284.0,167.9L288.1,167.2L308.5,166.9L311.9,167.5L317.5,176.6L317.5,181.5L322.0,184.0L323.9,188.0L305.1,188.5L305.1,185.7L295.7,186.0L295.7,188.6L289.6,188.7L289.6,196.7L276.1,196.8L276.1,191.7L272.3,190.3L271.2,179.7Z"/>
    <path class="wtc-county" id="wtc-county-jackson" data-county="Jackson" d="M237.6,445.6L243.3,439.0L259.1,437.1L264.4,435.5L267.4,428.7L271.2,430.9L285.9,436.4L283.2,437.5L286.2,444.5L285.5,449.4L281.3,452.9L273.1,459.7L264.8,458.7L258.4,463.2L237.6,445.6Z"/>
    <path class="wtc-county" id="wtc-county-jasper" data-county="Jasper" d="M233.1,365.9L235.4,361.8L238.0,352.6L237.3,346.2L238.0,341.1L266.3,345.3L267.0,368.6L267.8,372.8L252.0,382.5L252.7,378.3L246.3,377.7L242.5,374.7L236.9,373.1L236.5,368.5L233.1,365.9Z"/>
    <path class="wtc-county" id="wtc-county-jeff-davis" data-county="Jeff Davis" d="M340.9,202.9L340.9,187.8L362.7,187.9L374.0,187.9L374.0,191.9L374.0,205.3L383.5,205.3L383.5,218.7L377.8,219.0L377.1,216.8L371.4,217.9L360.9,213.8L357.1,213.9L353.3,210.3L340.9,202.9Z"/>
    <path class="wtc-county" id="wtc-county-jefferson" data-county="Jefferson" d="M359.0,340.5L365.7,330.6L371.0,329.3L372.2,321.7L375.2,318.6L373.3,309.7L374.0,308.5L380.4,302.9L383.1,302.2L386.9,303.9L384.6,307.4L390.6,307.9L395.5,310.0L400.0,320.7L398.2,333.8L400.8,343.4L404.2,351.5L400.4,355.3L391.4,360.0L388.4,360.0L383.5,356.1L367.3,345.3L368.0,339.8L359.0,340.5Z"/>
    <path class="wtc-county" id="wtc-county-jenkins" data-county="Jenkins" d="M453.2,317.7L451.3,319.7L443.7,322.3L433.2,319.2L420.0,318.5L415.5,315.0L413.2,307.6L420.0,291.9L428.7,286.0L445.3,290.4L442.2,292.9L453.2,317.7Z"/>
    <path class="wtc-county" id="wtc-county-johnson" data-county="Johnson" d="M329.2,302.0L328.1,296.6L337.9,297.4L346.2,294.3L345.0,291.6L358.6,286.5L357.8,277.3L360.5,276.1L369.5,278.2L366.1,283.0L380.1,290.2L376.3,294.1L381.2,297.7L383.1,302.2L380.4,302.9L374.0,308.5L369.9,308.4L358.6,304.5L357.1,305.9L348.0,303.0L344.3,307.3L329.2,302.0Z"/>
    <path class="wtc-county" id="wtc-county-jones" data-county="Jones" d="M238.0,341.1L245.2,333.9L248.9,322.3L250.5,318.5L254.6,315.5L260.6,315.5L269.7,311.0L281.0,316.6L286.2,319.5L280.2,338.3L278.7,346.7L266.3,345.3L238.0,341.1Z"/>
    <path class="wtc-county" id="wtc-county-lamar" data-county="Lamar" d="M192.8,347.1L192.4,331.4L190.2,326.3L206.0,326.1L205.6,320.1L213.1,320.0L214.3,330.3L214.3,348.5L205.6,348.5L205.6,346.0L195.1,346.1L192.8,347.1Z"/>
    <path class="wtc-county" id="wtc-county-lanier" data-county="Lanier" d="M318.7,136.6L319.8,132.7L306.2,132.7L306.2,123.9L302.8,123.8L302.8,120.0L304.7,120.0L304.7,112.0L319.0,111.8L321.3,107.1L321.7,101.5L326.6,103.6L326.6,136.6L318.7,136.6Z"/>
    <path class="wtc-county" id="wtc-county-laurens" data-county="Laurens" d="M299.8,283.6L309.2,266.7L324.7,237.8L335.6,242.8L338.6,242.6L352.9,254.7L349.9,256.8L355.6,266.1L356.7,270.6L360.9,271.5L360.5,276.1L357.8,277.3L358.6,286.5L345.0,291.6L346.2,294.3L337.9,297.4L328.1,296.6L299.8,283.6Z"/>
    <path class="wtc-county" id="wtc-county-lee" data-county="Lee" d="M226.7,212.8L183.0,213.5L183.0,209.0L187.9,208.1L191.3,204.2L191.3,200.3L188.7,200.3L187.5,190.6L187.5,182.6L214.3,182.7L216.9,185.5L215.4,192.5L219.9,197.6L217.7,201.4L221.1,201.6L225.2,206.3L226.7,212.8Z"/>
    <path class="wtc-county" id="wtc-county-liberty" data-county="Liberty" d="M453.5,227.3L447.1,223.8L450.2,219.9L455.0,219.0L455.4,215.6L453.2,209.1L461.5,202.2L466.0,199.8L466.4,197.6L481.8,190.7L488.2,184.5L495.4,186.0L506.3,185.5L513.1,181.1L513.1,176.9L515.3,175.6L519.5,182.7L519.9,190.3L514.2,191.0L512.7,193.5L506.3,196.4L504.4,200.7L501.0,200.2L498.8,205.5L497.2,203.8L493.9,206.4L491.2,215.7L484.8,217.0L483.7,219.5L478.8,217.9L471.3,219.3L471.3,221.4L466.4,227.5L460.7,231.5L458.1,231.6L453.5,227.3Z"/>
    <path class="wtc-county" id="wtc-county-lincoln" data-county="Lincoln" d="M360.9,430.6L365.0,417.5L368.0,419.0L366.1,414.2L368.4,409.7L378.2,394.4L383.8,395.6L385.3,397.2L396.3,400.8L399.7,399.1L405.7,399.3L402.7,406.2L391.7,415.1L380.8,419.7L373.7,426.2L369.5,427.6L365.4,430.1L360.9,430.6Z"/>
    <path class="wtc-county" id="wtc-county-long" data-county="Long" d="M447.1,223.8L441.5,218.9L441.1,213.7L437.7,210.3L431.7,200.2L438.1,196.0L444.1,187.3L448.3,187.1L450.5,183.8L460.3,178.0L460.3,175.4L464.1,173.8L474.3,177.8L481.8,190.7L466.4,197.6L466.0,199.8L461.5,202.2L453.2,209.1L455.4,215.6L455.0,219.0L450.2,219.9L447.1,223.8Z"/>
    <path class="wtc-county" id="wtc-county-lowndes" data-county="Lowndes" d="M273.8,120.6L278.7,111.9L277.6,107.3L284.7,105.1L286.6,100.7L279.1,97.9L276.5,98.2L275.7,92.7L272.7,91.3L277.6,84.6L285.5,81.5L286.2,79.2L294.9,78.7L309.2,77.8L309.6,95.2L312.6,96.7L314.5,101.4L321.7,101.5L321.3,107.1L319.0,111.8L304.7,112.0L304.7,120.0L302.8,120.0L292.7,120.2L273.8,120.6Z"/>
    <path class="wtc-county" id="wtc-county-lumpkin" data-county="Lumpkin" d="M198.8,495.5L198.5,489.2L207.5,481.2L220.7,476.1L235.0,485.3L236.1,488.1L232.7,490.0L232.0,503.1L233.9,508.0L225.2,510.0L220.3,507.4L219.2,503.4L214.7,499.6L205.6,502.0L202.2,500.3L198.8,495.5Z"/>
    <path class="wtc-county" id="wtc-county-mcduffie" data-county="McDuffie" d="M378.2,394.4L375.5,396.5L371.4,394.3L367.3,395.5L363.9,391.5L360.5,391.2L367.3,374.5L370.6,370.9L371.4,366.5L375.2,363.1L381.2,363.0L388.4,360.0L391.4,360.0L397.8,364.5L392.9,369.8L393.3,371.3L388.4,376.3L386.5,381.4L388.4,382.9L382.7,384.9L385.3,388.9L382.3,394.2L383.8,395.6L378.2,394.4Z"/>
    <path class="wtc-county" id="wtc-county-mcintosh" data-county="McIntosh" d="M464.1,173.8L464.5,170.8L469.4,166.5L468.2,164.8L475.8,156.7L487.8,150.2L493.5,150.6L505.2,148.2L504.0,151.5L506.3,159.7L515.0,171.6L512.7,173.7L506.3,172.8L506.3,174.8L513.1,176.9L513.1,181.1L506.3,185.5L495.4,186.0L488.2,184.5L481.8,190.7L474.3,177.8L464.1,173.8Z"/>
    <path class="wtc-county" id="wtc-county-macon" data-county="Macon" d="M218.4,277.9L213.1,277.1L217.7,277.0L218.4,277.9ZM192.0,261.3L191.7,253.4L195.8,253.3L195.4,246.5L199.6,246.4L204.5,246.1L204.5,241.7L209.8,242.4L215.8,240.2L222.2,248.3L229.4,251.7L234.6,252.8L235.8,262.4L234.6,271.5L225.6,275.4L216.9,275.5L213.1,277.1L206.0,275.4L198.1,264.4L192.0,263.8L192.0,261.3Z"/>
    <path class="wtc-county" id="wtc-county-madison" data-county="Madison" d="M281.3,452.9L285.5,449.4L286.2,444.5L283.2,437.5L285.9,436.4L296.4,432.1L300.6,432.3L310.7,437.2L318.7,433.9L326.2,436.8L319.8,442.6L316.4,448.4L313.0,450.4L315.6,455.7L311.9,461.0L305.5,457.3L294.9,458.3L292.3,460.0L286.2,455.7L281.3,452.9Z"/>
    <path class="wtc-county" id="wtc-county-marion" data-county="Marion" d="M151.7,278.4L149.8,274.2L149.5,246.7L150.6,246.7L153.6,246.7L155.5,242.3L159.3,242.2L163.4,236.4L173.6,236.3L173.6,239.7L173.6,246.6L175.5,246.6L175.5,253.4L177.7,253.4L177.4,265.7L175.8,273.2L173.2,274.0L170.9,278.3L172.1,281.2L167.2,281.2L165.7,279.1L159.3,279.0L157.4,277.2L151.7,278.4Z"/>
    <path class="wtc-county" id="wtc-county-meriwether" data-county="Meriwether" d="M128.0,347.3L128.0,324.1L128.4,313.9L139.7,313.5L145.0,310.9L158.9,311.0L165.3,314.9L163.4,318.1L163.4,324.1L162.3,328.2L164.2,340.0L166.4,346.5L166.1,350.5L129.1,350.7L128.0,347.3Z"/>
    <path class="wtc-county" id="wtc-county-miller" data-county="Miller" d="M151.4,144.5L122.3,144.1L122.0,124.9L141.9,124.6L151.0,124.4L151.0,125.7L161.5,125.6L162.3,144.1L151.4,144.5Z"/>
    <path class="wtc-county" id="wtc-county-mitchell" data-county="Mitchell" d="M203.7,163.4L202.6,160.7L198.1,158.5L197.7,154.6L185.6,151.1L180.4,142.4L165.3,130.3L165.3,125.5L179.2,125.6L206.4,125.5L218.4,125.4L218.8,152.4L218.8,163.9L203.7,163.4Z"/>
    <path class="wtc-county" id="wtc-county-monroe" data-county="Monroe" d="M205.6,320.1L205.6,311.4L230.1,311.3L248.9,322.3L245.2,333.9L238.0,341.1L237.3,346.2L233.5,348.3L214.3,348.5L214.3,330.3L213.1,320.0L205.6,320.1Z"/>
    <path class="wtc-county" id="wtc-county-montgomery" data-county="Montgomery" d="M385.7,259.4L360.5,254.9L359.7,253.5L360.5,247.9L363.1,243.9L362.7,236.2L364.6,231.6L365.7,223.7L371.0,220.4L371.4,217.9L377.1,216.8L377.8,219.0L382.3,245.2L382.7,253.0L385.7,259.4Z"/>
    <path class="wtc-county" id="wtc-county-morgan" data-county="Morgan" d="M252.3,389.9L252.0,382.5L267.8,372.8L294.2,378.0L295.3,383.2L287.4,390.3L284.7,396.1L281.0,400.5L276.8,403.1L273.4,411.4L270.4,413.1L252.3,389.9Z"/>
    <path class="wtc-county" id="wtc-county-murray" data-county="Murray" d="M133.6,535.9L130.3,528.6L132.9,524.3L130.3,522.5L128.0,517.7L129.1,510.8L128.0,506.5L121.6,507.4L125.4,503.4L119.7,503.5L122.7,498.7L123.5,496.8L134.4,496.0L143.4,497.6L144.6,495.0L149.8,493.4L149.8,508.7L152.1,513.3L157.4,518.8L153.6,522.0L153.6,536.0L137.0,535.9L133.6,535.9Z"/>
    <path class="wtc-county" id="wtc-county-muscogee" data-county="Muscogee" d="M145.7,283.6L123.5,283.5L123.5,286.0L105.0,286.1L111.4,279.2L113.3,275.8L114.1,269.9L117.4,266.6L115.6,261.9L119.3,261.7L126.1,265.4L138.2,266.4L142.7,275.5L145.7,276.7L148.7,281.5L145.7,283.6Z"/>
    <path class="wtc-county" id="wtc-county-newton" data-county="Newton" d="M213.9,382.4L215.4,379.5L224.5,377.8L226.7,373.8L227.8,371.0L233.1,365.9L236.5,368.5L236.9,373.1L242.5,374.7L246.3,377.7L252.7,378.3L252.0,382.5L252.3,389.9L246.7,395.0L244.0,395.1L227.5,405.3L227.8,402.0L226.0,395.6L213.9,382.4Z"/>
    <path class="wtc-county" id="wtc-county-oconee" data-county="Oconee" d="M255.7,422.4L257.6,420.4L262.5,420.0L263.3,416.3L270.4,413.1L273.4,411.4L276.8,403.1L281.0,400.5L293.0,404.3L294.2,407.2L291.5,412.4L294.5,416.2L289.6,416.9L279.5,424.5L270.4,425.0L267.4,428.7L255.7,422.4Z"/>
    <path class="wtc-county" id="wtc-county-oglethorpe" data-county="Oglethorpe" d="M294.5,416.2L291.5,412.4L294.2,407.2L311.1,400.6L318.7,402.3L323.9,400.1L328.8,404.2L325.1,409.2L329.6,416.3L331.8,417.2L336.7,424.0L345.4,427.0L346.9,429.2L337.9,430.5L329.6,433.8L326.2,436.8L318.7,433.9L310.7,437.2L300.6,432.3L296.4,432.1L294.9,426.1L298.3,422.2L294.5,416.2Z"/>
    <path class="wtc-county" id="wtc-county-paulding" data-county="Paulding" d="M122.0,440.8L115.9,427.1L108.4,427.2L108.4,422.2L109.9,422.2L109.5,412.4L123.9,409.2L126.5,408.6L142.7,410.0L142.7,411.9L142.7,426.7L141.2,426.7L141.2,440.6L122.0,440.8Z"/>
    <path class="wtc-county" id="wtc-county-peach" data-county="Peach" d="M217.7,277.0L216.9,275.5L225.6,275.4L234.6,271.5L239.9,269.1L239.9,274.4L245.2,275.3L245.2,278.3L248.2,278.1L248.2,288.9L250.1,294.8L243.3,294.9L218.4,277.9L217.7,277.0Z"/>
    <path class="wtc-county" id="wtc-county-pickens" data-county="Pickens" d="M149.8,489.8L150.2,475.6L157.4,475.5L157.4,472.2L191.7,472.2L191.7,481.1L185.3,481.3L182.3,491.3L179.6,489.8L149.8,489.8Z"/>
    <path class="wtc-county" id="wtc-county-pierce" data-county="Pierce" d="M385.0,161.1L387.6,155.6L387.6,149.9L391.0,145.0L395.5,141.0L398.9,140.8L408.3,139.1L413.2,141.1L413.2,143.8L416.6,145.7L427.9,146.4L429.4,149.6L426.4,151.6L424.2,156.5L422.6,160.2L423.0,165.0L419.3,167.7L414.7,166.8L412.5,166.7L404.9,173.0L400.4,169.0L397.0,169.0L397.0,166.4L392.5,162.5L385.0,161.1Z"/>
    <path class="wtc-county" id="wtc-county-pike" data-county="Pike" d="M166.4,346.5L164.2,340.0L162.3,328.2L163.4,324.1L167.2,326.6L190.2,326.3L192.4,331.4L192.8,347.1L179.6,347.1L177.4,349.1L171.3,349.1L166.4,346.5Z"/>
    <path class="wtc-county" id="wtc-county-polk" data-county="Polk" d="M69.6,440.7L71.9,428.4L73.0,421.9L91.4,421.6L91.4,422.4L108.4,422.2L108.4,427.2L115.9,427.1L122.0,440.8L108.8,440.9L108.8,442.3L86.5,442.7L86.5,440.5L69.6,440.7Z"/>
    <path class="wtc-county" id="wtc-county-pulaski" data-county="Pulaski" d="M259.1,252.5L259.9,252.5L259.9,234.7L278.0,234.6L279.8,236.2L285.9,235.2L288.1,233.3L291.5,236.2L289.6,238.0L293.0,241.0L284.4,248.5L287.4,250.8L271.6,264.4L268.5,264.4L259.1,252.5Z"/>
    <path class="wtc-county" id="wtc-county-putnam" data-county="Putnam" d="M267.8,372.8L267.0,368.6L266.3,345.3L278.7,346.7L285.5,346.2L294.9,346.9L297.2,354.4L308.5,359.8L306.6,364.5L302.8,368.7L297.9,369.1L298.3,371.1L294.2,378.0L267.8,372.8Z"/>
    <path class="wtc-county" id="wtc-county-quitman" data-county="Quitman" d="M107.3,221.3L105.4,215.9L100.1,209.4L99.0,205.4L100.5,199.2L105.8,198.3L118.2,199.0L123.1,198.8L123.5,214.3L118.6,217.0L118.6,219.6L109.2,219.7L107.3,221.3Z"/>
    <path class="wtc-county" id="wtc-county-rabun" data-county="Rabun" d="M265.9,536.4L266.3,531.6L260.6,530.8L260.6,528.0L254.6,524.4L255.4,518.6L262.1,518.3L265.9,510.9L273.4,508.2L278.3,510.6L286.6,507.4L290.0,511.9L289.6,515.2L299.4,524.6L311.1,530.8L312.2,537.2L273.1,536.5L265.9,536.4Z"/>
    <path class="wtc-county" id="wtc-county-randolph" data-county="Randolph" d="M118.2,199.0L117.8,192.1L119.7,182.2L132.9,182.4L149.8,182.4L150.6,184.8L157.0,182.5L161.2,182.5L162.3,188.3L158.9,197.2L155.5,198.3L155.9,213.9L149.8,213.9L123.5,214.3L123.1,198.8L118.2,199.0Z"/>
    <path class="wtc-county" id="wtc-county-richmond" data-county="Richmond" d="M391.4,360.0L400.4,355.3L410.2,358.4L418.1,351.6L422.3,352.7L430.9,351.1L435.5,353.8L440.7,354.7L444.1,353.2L445.6,355.9L435.1,363.3L436.6,366.2L435.1,369.7L437.7,373.6L436.2,375.7L430.6,378.1L427.2,383.1L425.7,384.5L397.8,364.5L391.4,360.0Z"/>
    <path class="wtc-county" id="wtc-county-rockdale" data-county="Rockdale" d="M199.2,395.0L205.6,386.2L213.5,384.0L213.9,382.4L226.0,395.6L227.8,402.0L227.5,405.3L220.7,409.7L216.2,406.3L212.8,403.5L206.4,391.8L199.2,395.0Z"/>
    <path class="wtc-county" id="wtc-county-schley" data-county="Schley" d="M177.4,265.7L177.7,253.4L175.5,253.4L175.5,246.6L173.6,246.6L173.6,239.7L199.6,238.9L199.6,246.4L195.4,246.5L195.8,253.3L191.7,253.4L192.0,261.3L184.5,261.4L184.9,264.0L180.4,264.0L180.7,267.2L177.4,265.7Z"/>
    <path class="wtc-county" id="wtc-county-screven" data-county="Screven" d="M453.2,317.7L442.2,292.9L445.3,290.4L449.4,289.6L452.4,285.9L461.1,279.6L476.1,273.6L476.9,275.7L492.7,284.7L489.7,288.3L492.4,290.9L490.8,295.2L488.6,295.9L490.5,300.4L489.0,302.9L489.0,310.5L485.6,311.9L484.8,316.3L480.3,322.1L482.2,328.1L476.5,332.0L453.2,317.7Z"/>
    <path class="wtc-county" id="wtc-county-seminole" data-county="Seminole" d="M111.0,125.2L113.3,117.4L115.6,110.2L119.7,105.6L120.5,98.1L122.7,91.3L126.9,88.7L129.5,93.4L135.9,96.4L139.3,106.3L139.7,121.6L141.9,124.6L122.0,124.9L111.0,125.2Z"/>
    <path class="wtc-county" id="wtc-county-spalding" data-county="Spalding" d="M166.4,354.3L166.1,350.5L166.4,346.5L171.3,349.1L177.4,349.1L179.6,347.1L192.8,347.1L195.1,346.1L205.6,346.0L205.6,348.5L205.6,353.7L209.4,357.2L207.9,358.5L203.0,360.1L203.0,362.5L192.8,362.5L192.4,364.3L181.5,364.3L178.1,364.2L177.4,359.7L173.2,354.2L166.4,354.3Z"/>
    <path class="wtc-county" id="wtc-county-stephens" data-county="Stephens" d="M275.3,482.7L281.7,480.6L284.4,481.6L305.1,482.3L312.6,488.5L305.8,495.8L299.4,496.4L288.1,504.3L285.5,503.1L275.3,482.7Z"/>
    <path class="wtc-county" id="wtc-county-stewart" data-county="Stewart" d="M108.4,228.8L107.3,221.3L109.2,219.7L118.6,219.6L118.6,217.0L123.5,214.3L149.8,213.9L149.8,225.2L151.0,225.3L151.4,239.1L152.5,241.5L150.6,246.7L149.5,246.7L122.0,246.5L117.1,245.2L117.8,243.1L112.5,241.2L107.6,236.5L108.4,228.8Z"/>
    <path class="wtc-county" id="wtc-county-sumter" data-county="Sumter" d="M173.6,236.3L172.1,218.8L183.0,209.0L183.0,213.5L226.7,212.8L226.7,216.7L222.6,225.5L219.6,232.3L215.0,238.3L215.8,240.2L209.8,242.4L204.5,241.7L204.5,246.1L199.6,246.4L199.6,238.9L173.6,239.7L173.6,236.3Z"/>
    <path class="wtc-county" id="wtc-county-talbot" data-county="Talbot" d="M145.0,310.9L146.1,309.4L145.7,283.6L148.7,281.5L145.7,276.7L151.7,278.4L157.4,277.2L159.3,279.0L165.7,279.1L167.2,281.2L172.1,281.2L175.8,281.2L175.8,286.4L178.9,288.6L180.4,293.6L183.0,293.6L183.0,297.9L188.7,300.7L177.7,304.9L174.3,310.3L170.6,309.4L165.3,314.9L158.9,311.0L145.0,310.9Z"/>
    <path class="wtc-county" id="wtc-county-taliaferro" data-county="Taliaferro" d="M323.9,400.1L328.8,396.7L322.0,388.2L325.1,381.9L322.4,376.5L325.4,374.2L334.1,373.3L339.4,373.7L337.5,376.2L343.1,382.0L349.9,380.9L352.9,383.9L354.4,388.9L357.1,390.2L356.0,392.3L350.7,391.4L343.1,396.1L337.5,394.7L336.4,392.4L328.8,404.2L323.9,400.1Z"/>
    <path class="wtc-county" id="wtc-county-tattnall" data-county="Tattnall" d="M404.2,255.7L406.1,246.3L409.5,239.7L408.3,236.3L404.9,213.1L416.2,210.4L417.4,208.0L423.4,204.1L427.2,203.6L431.7,200.2L437.7,210.3L441.1,213.7L441.5,218.9L447.1,223.8L453.5,227.3L440.4,227.6L430.6,230.8L426.0,251.6L404.2,255.7Z"/>
    <path class="wtc-county" id="wtc-county-taylor" data-county="Taylor" d="M213.1,277.1L216.9,275.5L217.7,277.0L213.1,277.1ZM172.1,281.2L170.9,278.3L173.2,274.0L175.8,273.2L177.4,265.7L180.7,267.2L180.4,264.0L184.9,264.0L184.5,261.4L192.0,261.3L192.0,263.8L198.1,264.4L206.0,275.4L213.1,277.1L218.4,277.9L213.1,281.8L211.3,285.1L212.8,289.1L207.5,292.9L197.3,294.7L193.9,299.8L191.7,298.1L188.7,300.7L183.0,297.9L183.0,293.6L180.4,293.6L178.9,288.6L175.8,286.4L175.8,281.2L172.1,281.2Z"/>
    <path class="wtc-county" id="wtc-county-telfair" data-county="Telfair" d="M302.1,211.8L305.1,206.3L309.2,202.8L314.9,202.5L320.5,199.0L323.9,199.2L325.8,200.5L337.5,199.4L340.9,202.9L353.3,210.3L357.1,213.9L360.9,213.8L355.6,217.7L352.2,223.0L346.2,224.6L344.6,226.9L335.6,230.6L331.1,236.5L302.1,211.8Z"/>
    <path class="wtc-county" id="wtc-county-terrell" data-county="Terrell" d="M155.9,213.9L155.5,198.3L158.9,197.2L162.3,188.3L161.2,182.5L171.3,182.6L187.5,182.6L187.5,190.6L188.7,200.3L191.3,200.3L191.3,204.2L187.9,208.1L183.0,209.0L172.1,218.8L170.9,213.8L155.9,213.9Z"/>
    <path class="wtc-county" id="wtc-county-thomas" data-county="Thomas" d="M206.4,125.5L206.4,114.1L210.5,107.4L209.8,83.3L218.0,82.8L245.6,81.4L246.3,121.2L218.4,121.6L218.4,125.4L206.4,125.5Z"/>
    <path class="wtc-county" id="wtc-county-tift" data-county="Tift" d="M255.4,176.9L255.0,152.0L269.7,151.6L275.3,151.5L278.0,154.1L284.7,159.4L284.7,166.1L288.1,167.2L284.0,167.9L282.1,173.1L279.5,175.4L271.2,177.2L271.2,179.7L255.4,179.9L255.4,176.9Z"/>
    <path class="wtc-county" id="wtc-county-toombs" data-county="Toombs" d="M377.8,219.0L383.5,218.7L389.5,216.1L395.5,215.0L398.2,216.2L404.9,213.1L408.3,236.3L409.5,239.7L406.1,246.3L404.2,255.7L399.3,253.2L391.4,252.9L391.4,255.2L385.7,259.4L382.7,253.0L382.3,245.2L377.8,219.0Z"/>
    <path class="wtc-county" id="wtc-county-towns" data-county="Towns" d="M225.2,535.9L224.5,534.1L227.5,529.5L234.3,526.6L237.6,528.1L238.4,523.8L241.8,518.1L241.8,515.4L252.0,516.2L255.4,518.6L254.6,524.4L260.6,528.0L260.6,530.8L266.3,531.6L265.9,536.4L258.7,535.8L225.2,535.9Z"/>
    <path class="wtc-county" id="wtc-county-treutlen" data-county="Treutlen" d="M360.5,276.1L360.9,271.5L356.7,270.6L355.6,266.1L349.9,256.8L352.9,254.7L359.7,253.5L360.5,254.9L385.7,259.4L388.4,268.5L377.4,273.9L360.5,276.1Z"/>
    <path class="wtc-county" id="wtc-county-troup" data-county="Troup" d="M88.8,340.8L89.2,338.6L94.1,313.6L128.4,313.4L128.4,313.9L128.0,324.1L128.0,347.3L128.0,350.8L120.1,350.8L104.6,345.3L102.4,347.7L101.2,344.4L88.8,340.8Z"/>
    <path class="wtc-county" id="wtc-county-turner" data-county="Turner" d="M239.5,201.6L239.9,182.7L248.2,182.6L255.4,176.9L255.4,179.9L271.2,179.7L272.3,190.3L276.1,191.7L276.1,196.8L273.1,206.2L259.5,206.9L259.5,201.7L239.5,201.6Z"/>
    <path class="wtc-county" id="wtc-county-twiggs" data-county="Twiggs" d="M269.7,311.0L272.3,308.7L262.9,299.7L260.2,300.1L259.5,294.6L261.0,292.0L265.1,290.8L267.4,283.8L266.3,282.3L269.3,274.6L272.3,273.2L271.6,269.8L299.8,283.6L281.0,316.6L269.7,311.0Z"/>
    <path class="wtc-county" id="wtc-county-union" data-county="Union" d="M205.2,535.9L200.0,532.2L207.5,525.3L203.7,521.8L204.1,517.0L209.0,516.3L207.9,508.6L202.2,500.3L205.6,502.0L214.7,499.6L219.2,503.4L220.3,507.4L225.2,510.0L233.9,508.0L236.5,508.8L236.9,514.0L241.8,515.4L241.8,518.1L238.4,523.8L237.6,528.1L234.3,526.6L227.5,529.5L224.5,534.1L225.2,535.9L218.0,535.9L205.2,535.9Z"/>
    <path class="wtc-county" id="wtc-county-upson" data-county="Upson" d="M163.4,324.1L163.4,318.1L165.3,314.9L170.6,309.4L174.3,310.3L177.7,304.9L188.7,300.7L191.7,298.1L193.9,299.8L197.3,294.7L203.0,306.4L205.6,306.3L205.6,311.4L205.6,320.1L206.0,326.1L190.2,326.3L167.2,326.6L163.4,324.1Z"/>
    <path class="wtc-county" id="wtc-county-walker" data-county="Walker" d="M57.5,497.7L58.3,494.0L102.4,493.9L106.5,493.9L108.4,497.6L108.4,507.8L96.0,507.8L98.6,512.8L92.6,513.5L92.6,521.9L85.8,521.9L85.8,535.6L75.6,535.4L69.6,526.7L66.6,519.5L66.6,511.9L62.1,505.6L62.1,502.5L57.5,497.7Z"/>
    <path class="wtc-county" id="wtc-county-walton" data-county="Walton" d="M220.7,409.7L227.5,405.3L244.0,395.1L246.7,395.0L252.3,389.9L270.4,413.1L263.3,416.3L262.5,420.0L257.6,420.4L255.7,422.4L252.7,423.5L243.7,421.2L239.9,424.9L220.7,409.7Z"/>
    <path class="wtc-county" id="wtc-county-ware" data-county="Ware" d="M362.7,155.5L362.4,146.1L355.2,146.5L355.2,140.7L358.2,136.6L366.5,119.3L371.0,117.4L374.0,113.4L377.1,113.4L376.7,98.3L382.7,98.4L383.5,76.6L384.6,73.4L406.1,72.0L412.8,94.6L409.8,95.4L384.6,95.8L385.0,118.7L414.7,118.4L406.8,126.2L406.8,135.2L398.9,137.5L398.9,140.8L395.5,141.0L391.0,145.0L387.6,149.9L387.6,155.6L385.0,161.1L378.2,161.1L376.7,166.5L365.7,166.5L362.7,166.5L362.7,155.5Z"/>
    <path class="wtc-county" id="wtc-county-warren" data-county="Warren" d="M357.1,390.2L354.4,388.9L352.9,383.9L349.9,380.9L343.1,382.0L337.5,376.2L339.4,373.7L342.0,372.1L342.4,366.5L344.3,365.5L346.2,355.4L349.2,353.8L357.5,356.0L360.9,358.9L369.9,361.6L383.5,356.1L388.4,360.0L381.2,363.0L375.2,363.1L371.4,366.5L370.6,370.9L367.3,374.5L360.5,391.2L357.1,390.2Z"/>
    <path class="wtc-county" id="wtc-county-washington" data-county="Washington" d="M318.3,335.7L316.4,330.1L318.7,325.7L316.0,321.6L320.9,312.2L326.9,309.8L329.2,302.0L344.3,307.3L348.0,303.0L357.1,305.9L358.6,304.5L369.9,308.4L374.0,308.5L373.3,309.7L375.2,318.6L372.2,321.7L371.0,329.3L365.7,330.6L359.0,340.5L351.1,345.6L351.8,349.0L349.9,352.3L346.9,352.3L339.0,347.9L334.1,340.7L326.9,338.7L322.8,335.7L318.3,335.7Z"/>
    <path class="wtc-county" id="wtc-county-wayne" data-county="Wayne" d="M423.4,204.1L417.4,201.2L419.3,198.4L414.7,198.4L414.7,166.8L419.3,167.7L423.0,165.0L422.6,160.2L424.2,156.5L436.6,153.6L449.4,155.4L456.9,151.9L461.1,159.3L463.7,159.2L468.2,164.8L469.4,166.5L464.5,170.8L464.1,173.8L460.3,175.4L460.3,178.0L450.5,183.8L448.3,187.1L444.1,187.3L438.1,196.0L431.7,200.2L427.2,203.6L423.4,204.1Z"/>
    <path class="wtc-county" id="wtc-county-webster" data-county="Webster" d="M150.6,246.7L152.5,241.5L151.4,239.1L151.0,225.3L149.8,225.2L149.8,213.9L155.9,213.9L170.9,213.8L172.1,218.8L173.6,236.3L163.4,236.4L159.3,242.2L155.5,242.3L153.6,246.7L150.6,246.7Z"/>
    <path class="wtc-county" id="wtc-county-wheeler" data-county="Wheeler" d="M331.1,236.5L335.6,230.6L344.6,226.9L346.2,224.6L352.2,223.0L355.6,217.7L360.9,213.8L371.4,217.9L371.0,220.4L365.7,223.7L364.6,231.6L362.7,236.2L363.1,243.9L360.5,247.9L359.7,253.5L352.9,254.7L338.6,242.6L335.6,242.8L337.1,241.5L331.1,236.5Z"/>
    <path class="wtc-county" id="wtc-county-white" data-county="White" d="M233.9,508.0L232.0,503.1L232.7,490.0L236.1,488.1L235.0,485.3L253.8,485.0L259.1,490.3L256.5,493.1L256.5,497.6L254.2,501.4L258.4,509.1L257.6,512.4L252.0,516.2L241.8,515.4L236.9,514.0L236.5,508.8L233.9,508.0Z"/>
    <path class="wtc-county" id="wtc-county-whitfield" data-county="Whitfield" d="M98.6,512.8L96.0,507.8L108.4,507.8L108.4,497.6L121.6,496.8L122.7,498.7L119.7,503.5L125.4,503.4L121.6,507.4L128.0,506.5L129.1,510.8L128.0,517.7L130.3,522.5L132.9,524.3L130.3,528.6L133.6,535.9L115.9,535.9L111.4,523.6L107.3,522.9L107.3,518.2L99.7,518.2L98.6,512.8Z"/>
    <path class="wtc-county" id="wtc-county-wilcox" data-county="Wilcox" d="M259.5,225.2L259.5,206.9L273.1,206.2L301.7,205.9L305.1,206.3L302.1,211.8L299.8,215.6L296.0,217.2L291.5,227.6L292.7,230.5L288.1,233.3L285.9,235.2L279.8,236.2L278.0,234.6L259.9,234.7L259.5,225.2Z"/>
    <path class="wtc-county" id="wtc-county-wilkes" data-county="Wilkes" d="M346.9,429.2L345.4,427.0L336.7,424.0L331.8,417.2L329.6,416.3L325.1,409.2L328.8,404.2L336.4,392.4L337.5,394.7L343.1,396.1L350.7,391.4L356.0,392.3L357.1,390.2L360.5,391.2L363.9,391.5L367.3,395.5L371.4,394.3L375.5,396.5L378.2,394.4L368.4,409.7L366.1,414.2L368.0,419.0L365.0,417.5L360.9,430.6L359.7,431.3L346.9,429.2Z"/>
    <path class="wtc-county" id="wtc-county-wilkinson" data-county="Wilkinson" d="M286.2,319.5L281.0,316.6L299.8,283.6L328.1,296.6L329.2,302.0L326.9,309.8L320.9,312.2L316.0,321.6L308.1,328.1L286.2,319.5Z"/>
    <path class="wtc-county" id="wtc-county-worth" data-county="Worth" d="M225.2,206.3L221.1,201.6L217.7,201.4L219.9,197.6L215.4,192.5L216.9,185.5L219.2,182.9L218.8,163.9L218.8,152.4L255.0,152.0L255.4,176.9L248.2,182.6L239.9,182.7L239.5,201.6L235.0,204.6L225.2,206.3Z"/>
  </g>
</svg>