<?xml version="1.0" encoding="UTF-8"?>
<svg xmlns="http://www.w3.org/2000/svg" viewBox="0 0 600 587" id="wtc-state-map-GA" role="img" aria-label="ga county map">
  <title>ga Counties</title>
  <g class="wtc-counties">
    <path class="wtc-county" id="wtc-county-appling" data-county="Appling" d="M383.5,368.5L383.5,382.0L374.0,382.0L374.0,395.4L376.7,395.4L381.2,400.5L392.1,404.8L395.1,407.6L403.4,411.7L404.9,414.2L412.5,420.6L414.7,420.5L414.7,388.8L419.3,388.8L417.4,386.0L423.4,383.1L417.4,379.2L416.2,376.8L404.9,374.1L398.2,371.0L395.5,372.2L389.5,371.1L383.5,368.5Z"/>
    <path class="wtc-county" id="wtc-county-atkinson" data-county="Atkinson" d="M308.9,425.9L311.9,431.4L317.5,435.3L320.2,441.1L318.3,445.6L318.7,450.7L326.6,450.7L358.2,450.7L355.2,446.5L355.2,440.8L362.4,441.1L362.7,431.7L342.8,431.7L340.5,427.8L328.1,427.7L328.1,426.1L308.9,425.9Z"/>
    <path class="wtc-county" id="wtc-county-bacon" data-county="Bacon" d="M362.7,399.4L362.7,411.4L366.1,411.4L365.7,420.7L376.7,420.7L378.2,426.1L385.0,426.1L392.5,424.8L397.0,420.8L397.0,418.2L400.4,418.2L404.9,414.2L403.4,411.7L395.1,407.6L392.1,404.8L381.2,400.5L376.7,395.4L374.0,395.4L374.0,399.4L362.7,399.4Z"/>
    <path class="wtc-county" id="wtc-county-baker" data-county="Baker" d="M151.7,424.4L151.4,442.7L162.3,443.1L161.5,461.7L165.3,461.8L165.3,457.0L180.4,444.8L185.6,436.2L197.7,432.6L198.1,428.8L202.6,426.5L203.7,423.8L196.6,424.2L173.6,424.2L171.7,422.3L167.2,425.1L151.7,424.4Z"/>
    <path class="wtc-county" id="wtc-county-baldwin" data-county="Baldwin" d="M294.9,240.4L285.5,241.1L278.7,240.6L280.2,248.9L286.2,267.8L308.1,259.1L316.0,265.6L318.7,261.6L316.4,257.1L318.3,251.6L313.0,254.7L311.1,251.3L313.4,244.2L303.2,241.5L294.9,240.4Z"/>
    <path class="wtc-county" id="wtc-county-banks" data-county="Banks" d="M259.1,109.7L255.0,113.0L253.5,116.6L255.4,121.3L258.4,124.0L264.8,128.5L273.1,127.6L281.3,134.3L286.2,131.5L288.1,127.6L282.5,121.0L283.6,110.0L281.7,106.6L275.3,104.6L267.4,103.4L259.1,109.7Z"/>
    <path class="wtc-county" id="wtc-county-barrow" data-county="Barrow" d="M237.6,141.6L232.4,154.6L235.8,156.7L239.9,162.4L243.7,166.1L252.7,163.7L255.7,164.9L267.4,158.6L264.4,151.7L259.1,150.1L243.3,148.2L237.6,141.6Z"/>
    <path class="wtc-county" id="wtc-county-bartow" data-county="Bartow" d="M108.8,145.0L108.8,146.3L122.0,146.4L141.2,146.7L149.5,146.9L149.5,133.8L150.2,131.2L150.2,111.7L141.6,111.7L141.6,113.4L118.6,113.1L118.6,114.7L112.9,113.8L113.3,118.6L111.4,118.6L111.0,132.6L109.2,132.6L108.8,145.0Z"/>
    <path class="wtc-county" id="wtc-county-ben-hill" data-county="Ben Hill" d="M273.1,381.1L276.1,390.4L289.6,390.5L289.6,398.5L295.7,398.6L295.7,401.3L305.1,401.5L305.1,398.7L323.9,399.3L323.9,388.0L320.5,388.3L314.9,384.8L309.2,384.5L305.1,381.0L301.7,381.3L273.1,381.1Z"/>
    <path class="wtc-county" id="wtc-county-berrien" data-county="Berrien" d="M278.0,433.2L277.6,436.8L283.2,442.8L288.5,444.3L288.5,449.9L291.5,452.4L289.6,457.5L294.2,463.3L292.7,467.1L302.8,467.3L302.8,463.5L306.2,463.4L306.2,454.6L319.8,454.6L318.7,450.7L318.3,445.6L320.2,441.1L317.5,435.3L311.9,431.4L308.9,425.9L308.5,420.4L288.1,420.0L284.7,421.2L284.7,427.9L278.0,433.2Z"/>
    <path class="wtc-county" id="wtc-county-bibb" data-county="Bibb" d="M230.1,275.9L230.1,279.0L238.8,288.3L246.3,292.1L250.1,292.3L253.8,294.2L261.0,295.3L259.5,292.7L260.2,287.2L262.9,287.5L272.3,278.5L269.7,276.3L260.6,271.8L254.6,271.8L250.5,268.8L248.9,265.0L230.1,275.9Z"/>
    <path class="wtc-county" id="wtc-county-bleckley" data-county="Bleckley" d="M271.6,317.5L271.6,322.8L287.4,336.4L293.8,330.9L291.5,329.1L305.5,317.5L309.2,320.5L299.8,303.7L271.6,317.5Z"/>
    <path class="wtc-county" id="wtc-county-brantley" data-county="Brantley" d="M398.9,446.4L398.9,449.8L406.8,452.0L406.8,461.0L414.7,468.8L420.0,468.8L422.3,462.0L435.5,464.9L437.3,460.0L445.3,459.7L447.5,455.6L453.2,452.2L453.2,448.8L456.9,435.3L449.4,431.8L436.6,433.6L424.2,430.7L426.4,435.6L429.4,437.6L427.9,440.8L416.6,441.6L413.2,443.5L413.2,446.2L408.3,448.1L398.9,446.4Z"/>
    <path class="wtc-county" id="wtc-county-brooks" data-county="Brooks" d="M246.3,466.0L245.6,505.9L259.5,506.6L286.2,508.0L285.5,505.8L277.6,502.6L272.7,495.9L275.7,494.6L276.5,489.1L279.1,489.4L286.6,486.6L284.7,482.1L277.6,480.0L278.7,475.4L273.8,466.6L265.9,464.3L263.3,461.8L263.3,466.5L246.3,466.0Z"/>
    <path class="wtc-county" id="wtc-county-bryan" data-county="Bryan" d="M451.7,348.9L454.3,354.0L458.1,355.6L460.7,355.7L466.4,359.8L471.3,365.8L471.3,368.0L478.8,369.3L483.7,367.7L484.8,370.2L491.2,371.6L493.9,380.9L497.2,383.5L498.8,381.8L501.0,387.0L504.4,386.6L506.3,390.9L512.7,393.8L517.2,393.8L515.3,389.8L515.0,384.3L519.1,380.2L512.3,373.1L505.5,374.4L501.8,365.1L495.0,360.0L492.4,354.9L487.8,339.7L467.9,345.1L451.7,348.9Z"/>
    <path class="wtc-county" id="wtc-county-bulloch" data-county="Bulloch" d="M428.7,301.2L425.3,308.5L431.7,311.1L430.9,314.9L437.3,321.4L433.2,335.0L431.7,336.8L440.0,336.1L447.9,340.0L451.7,348.9L467.9,345.1L487.8,339.7L487.5,336.1L482.2,328.0L480.3,327.4L476.5,321.2L478.4,317.7L476.1,313.6L461.1,307.6L452.4,301.3L449.4,297.6L445.3,296.8L428.7,301.2Z"/>
    <path class="wtc-county" id="wtc-county-burke" data-county="Burke" d="M395.5,277.3L406.1,280.6L413.2,279.7L415.5,272.2L420.0,268.8L433.2,268.1L443.7,264.9L451.3,267.5L453.2,269.5L476.5,255.3L469.0,250.1L465.6,250.1L455.4,245.2L452.4,241.1L454.3,239.2L451.7,236.8L449.0,237.8L444.1,234.1L440.7,232.5L435.5,233.4L430.9,236.1L422.3,234.5L418.1,235.7L410.2,228.8L400.4,232.0L404.2,235.8L400.8,243.9L398.2,253.4L400.0,266.5L395.5,277.3Z"/>
    <path class="wtc-county" id="wtc-county-butts" data-county="Butts" d="M207.9,228.7L209.4,230.0L205.6,233.5L205.6,238.7L214.3,238.7L233.5,238.9L237.3,241.1L238.0,234.6L235.4,225.5L233.1,221.3L227.8,216.2L226.7,213.4L221.4,217.2L222.6,220.6L215.4,222.1L212.4,227.5L207.9,228.7Z"/>
    <path class="wtc-county" id="wtc-county-calhoun" data-county="Calhoun" d="M132.5,417.4L135.2,417.3L135.9,424.2L151.7,424.4L167.2,425.1L171.7,422.3L173.6,424.2L175.5,422.0L170.6,408.4L171.3,404.7L161.2,404.8L157.0,404.8L150.6,402.4L149.8,404.9L132.9,404.9L132.5,417.4Z"/>
    <path class="wtc-county" id="wtc-county-camden" data-county="Camden" d="M453.2,452.2L447.5,455.6L445.3,459.7L437.3,460.0L435.5,464.9L438.5,465.8L437.7,472.5L440.0,474.1L437.7,479.2L440.0,479.4L438.8,488.8L442.2,491.7L448.6,492.0L455.4,494.5L458.1,496.8L470.5,498.5L476.9,500.1L482.2,498.7L487.1,500.5L485.2,494.1L491.2,479.6L490.8,472.3L486.7,474.5L481.8,472.3L487.1,468.3L482.6,466.4L473.5,459.8L475.0,457.3L467.1,458.6L461.5,457.1L453.2,452.2Z"/>
    <path class="wtc-county" id="wtc-county-candler" data-county="Candler" d="M425.3,308.5L420.4,306.2L413.2,310.4L409.5,315.2L409.1,319.5L401.9,328.1L404.2,331.5L426.0,335.7L431.7,336.8L433.2,335.0L437.3,321.4L430.9,314.9L431.7,311.1L425.3,308.5Z"/>
    <path class="wtc-county" id="wtc-county-carroll" data-county="Carroll" d="M78.3,191.5L81.7,209.3L82.8,215.1L112.2,215.3L115.2,212.1L120.1,214.1L123.1,210.8L128.7,208.2L129.5,206.3L132.9,205.4L131.4,202.8L133.6,199.8L123.5,199.8L123.9,178.1L109.5,174.8L108.4,174.7L108.4,185.0L102.4,187.1L99.0,186.5L83.2,191.6L78.3,191.5Z"/>
    <path class="wtc-county" id="wtc-county-catoosa" data-county="Catoosa" d="M85.8,51.6L85.8,65.3L92.6,65.3L92.6,73.7L98.6,74.4L99.7,69.0L107.3,69.0L107.3,64.3L111.4,63.6L115.9,51.4L85.8,51.6Z"/>
    <path class="wtc-county" id="wtc-county-charlton" data-county="Charlton" d="M414.7,468.8L385.0,468.5L384.6,491.4L409.8,491.9L412.8,492.6L406.1,515.2L404.2,516.5L404.9,521.6L407.6,524.0L406.4,530.4L410.6,537.2L417.7,536.3L423.4,536.9L424.9,534.5L424.5,529.3L426.8,525.1L427.9,514.3L423.4,506.1L424.9,500.7L424.5,496.3L427.5,494.9L426.0,492.7L430.6,493.4L433.9,488.1L438.8,488.8L440.0,479.4L437.7,479.2L440.0,474.1L437.7,472.5L438.5,465.8L435.5,464.9L422.3,462.0L420.0,468.8L414.7,468.8Z"/>
    <path class="wtc-county" id="wtc-county-chatham" data-county="Chatham" d="M492.4,354.9L495.0,360.0L501.8,365.1L505.5,374.4L512.3,373.1L519.1,380.2L515.0,384.3L515.3,389.8L517.2,393.8L519.9,394.1L526.3,389.3L529.7,383.9L525.5,382.9L526.6,377.9L534.6,380.0L540.6,374.6L536.8,373.8L539.1,369.5L542.8,370.9L548.1,368.2L550.0,362.5L545.5,361.4L542.1,361.0L533.8,354.6L529.7,356.2L521.7,353.1L519.9,347.5L521.4,345.2L518.3,341.2L513.1,340.0L492.4,354.9Z"/>
    <path class="wtc-county" id="wtc-county-chattahoochee" data-county="Chattahoochee" d="M115.6,325.3L113.7,331.2L120.5,333.7L125.0,337.3L122.0,340.7L149.5,340.6L149.8,313.1L151.7,308.8L145.7,310.5L142.7,311.7L138.2,320.8L126.1,321.9L119.3,325.5L115.6,325.3Z"/>
    <path class="wtc-county" id="wtc-county-chattooga" data-county="Chattooga" d="M58.3,93.2L59.8,100.1L65.1,124.9L73.0,125.0L78.6,116.2L94.8,109.2L102.4,93.4L58.3,93.2Z"/>
    <path class="wtc-county" id="wtc-county-cherokee" data-county="Cherokee" d="M150.2,111.7L150.2,131.2L149.5,133.8L149.5,146.9L174.7,147.3L174.7,143.6L180.7,142.1L181.5,136.5L191.7,135.5L191.7,119.9L191.7,115.0L157.4,115.0L157.4,111.8L150.2,111.7Z"/>
    <path class="wtc-county" id="wtc-county-clarke" data-county="Clarke" d="M267.4,158.6L270.4,162.3L279.5,162.7L289.6,170.3L294.5,171.0L298.3,165.1L294.9,161.1L296.4,155.2L285.9,150.8L271.2,156.3L267.4,158.6Z"/>
    <path class="wtc-county" id="wtc-county-clay" data-county="Clay" d="M100.5,388.1L100.5,389.9L100.5,397.0L107.6,404.9L108.8,415.7L110.7,418.9L120.1,417.1L132.5,417.4L132.9,404.9L119.7,405.0L117.8,395.1L118.2,388.3L105.8,389.0L100.5,388.1Z"/>
    <path class="wtc-county" id="wtc-county-clayton" data-county="Clayton" d="M181.9,192.0L170.6,191.9L170.6,202.1L172.5,202.2L174.7,208.2L178.5,211.4L176.6,215.4L178.5,217.7L178.1,223.1L181.5,223.0L181.5,214.2L187.9,214.3L189.0,202.4L193.2,198.1L189.0,192.0L181.9,192.0Z"/>
    <path class="wtc-county" id="wtc-county-clinch" data-county="Clinch" d="M326.6,450.7L326.6,483.7L339.8,487.3L341.3,492.9L345.0,497.0L355.2,497.8L365.4,500.0L367.6,501.9L367.3,512.8L380.4,513.6L384.6,513.9L383.5,510.6L382.7,488.8L376.7,488.9L377.1,473.8L374.0,473.8L371.0,469.9L366.5,468.0L358.2,450.7L326.6,450.7Z"/>
    <path class="wtc-county" id="wtc-county-cobb" data-county="Cobb" d="M141.2,146.7L141.2,160.6L142.7,160.6L142.7,175.4L153.2,175.5L158.1,181.9L169.4,173.2L172.5,166.6L171.7,164.5L176.2,160.9L179.2,156.4L176.6,153.5L174.7,147.3L149.5,146.9L141.2,146.7Z"/>
    <path class="wtc-county" id="wtc-county-coffee" data-county="Coffee" d="M308.5,420.4L308.9,425.9L328.1,426.1L328.1,427.7L340.5,427.8L342.8,431.7L362.7,431.7L362.7,420.7L365.7,420.7L366.1,411.4L362.7,411.4L362.7,399.4L340.9,399.5L340.9,384.3L337.5,387.8L325.8,386.7L323.9,388.0L323.9,399.3L322.0,403.2L317.5,405.8L317.5,410.6L311.9,419.7L308.5,420.4Z"/>
    <path class="wtc-county" id="wtc-county-colquitt" data-county="Colquitt" d="M218.8,434.8L218.4,461.9L218.4,465.6L246.3,466.0L263.3,466.5L263.3,461.8L267.0,451.2L270.0,448.3L269.7,435.6L255.0,435.3L218.8,434.8Z"/>
    <path class="wtc-county" id="wtc-county-columbia" data-county="Columbia" d="M383.8,191.7L382.3,193.0L385.3,198.3L382.7,202.3L388.4,204.4L386.5,205.8L388.4,211.0L393.3,215.9L392.9,217.5L397.8,222.8L425.7,202.8L416.6,197.4L412.8,197.3L408.0,193.8L405.7,188.0L399.7,188.2L396.3,186.4L385.3,190.1L383.8,191.7Z"/>
    <path class="wtc-county" id="wtc-county-cook" data-county="Cook" d="M269.7,435.6L270.0,448.3L267.0,451.2L263.3,461.8L265.9,464.3L273.8,466.6L292.7,467.1L294.2,463.3L289.6,457.5L291.5,452.4L288.5,449.9L288.5,444.3L283.2,442.8L277.6,436.8L278.0,433.2L275.3,435.7L269.7,435.6Z"/>
    <path class="wtc-county" id="wtc-county-coweta" data-county="Coweta" d="M129.5,206.3L128.7,208.2L123.1,210.8L120.1,214.1L115.2,212.1L112.2,215.3L120.1,236.4L128.0,236.5L128.0,239.9L129.1,236.6L166.1,236.8L166.4,233.0L162.7,224.8L157.0,222.4L152.9,213.9L154.7,207.3L153.6,206.4L129.5,206.3Z"/>
    <path class="wtc-county" id="wtc-county-crawford" data-county="Crawford" d="M197.3,292.6L207.5,294.3L212.8,298.2L211.3,302.1L213.1,305.5L218.4,309.4L243.3,292.3L250.1,292.4L250.1,292.3L246.3,292.1L238.8,288.3L230.1,279.0L230.1,275.9L205.6,275.8L205.6,281.0L203.0,280.9L197.3,292.6Z"/>
    <path class="wtc-county" id="wtc-county-crisp" data-county="Crisp" d="M222.6,361.8L226.7,370.5L226.7,374.5L225.2,381.0L235.0,382.7L239.5,385.7L259.5,385.6L259.5,380.3L259.5,362.0L222.6,361.8Z"/>
    <path class="wtc-county" id="wtc-county-dade" data-county="Dade" d="M50.0,51.7L52.6,64.7L57.5,89.6L62.1,84.7L62.1,81.7L66.6,75.3L66.6,67.8L69.6,60.6L75.6,51.8L63.9,51.8L50.0,51.7Z"/>
    <path class="wtc-county" id="wtc-county-dawson" data-county="Dawson" d="M182.3,96.0L185.3,105.9L191.7,106.2L191.7,115.0L191.7,119.9L223.3,120.0L220.7,117.5L220.7,111.1L207.5,106.1L198.5,98.1L198.8,91.8L198.1,90.1L192.0,92.3L192.0,95.4L183.4,94.1L182.3,96.0Z"/>
    <path class="wtc-county" id="wtc-county-decatur" data-county="Decatur" d="M126.9,498.6L128.0,500.3L178.9,502.5L179.2,461.7L165.3,461.8L161.5,461.7L151.0,461.6L151.0,462.8L141.9,462.7L139.7,465.6L139.3,481.0L135.9,490.8L129.5,493.9L126.9,498.6Z"/>
    <path class="wtc-county" id="wtc-county-dekalb" data-county="DeKalb" d="M189.4,159.5L182.3,159.1L181.9,192.0L189.0,192.0L192.8,193.8L199.2,192.2L206.4,195.5L212.8,183.7L216.2,180.9L210.9,178.4L202.2,170.5L197.3,168.4L191.3,163.5L189.4,159.5Z"/>
    <path class="wtc-county" id="wtc-county-dodge" data-county="Dodge" d="M287.4,336.4L284.4,338.8L293.0,346.2L289.6,349.2L291.5,351.0L288.1,353.9L292.7,356.7L291.5,359.7L296.0,370.1L299.8,371.7L302.1,375.5L331.1,350.8L337.1,345.8L335.6,344.4L324.7,349.5L309.2,320.5L305.5,317.5L291.5,329.1L293.8,330.9L287.4,336.4Z"/>
    <path class="wtc-county" id="wtc-county-dooly" data-county="Dooly" d="M215.8,347.1L215.0,348.9L219.6,355.0L222.6,361.8L259.5,362.0L259.9,352.6L259.9,334.7L259.1,334.7L234.6,334.4L229.4,335.5L222.2,338.9L215.8,347.1Z"/>
    <path class="wtc-county" id="wtc-county-dougherty" data-county="Dougherty" d="M171.3,404.7L170.6,408.4L175.5,422.0L173.6,424.2L196.6,424.2L203.7,423.8L218.8,423.3L219.2,404.3L216.9,401.7L214.3,404.5L187.5,404.7L171.3,404.7Z"/>
    <path class="wtc-county" id="wtc-county-douglas" data-county="Douglas" d="M123.9,178.1L123.5,199.8L133.6,199.8L139.7,193.8L149.8,190.4L150.2,188.2L158.1,181.9L153.2,175.5L142.7,175.4L142.7,177.2L126.5,178.7L123.9,178.1Z"/>
    <path class="wtc-county" id="wtc-county-early" data-county="Early" d="M104.3,437.6L101.6,440.9L103.5,445.5L102.4,450.4L109.9,458.6L111.0,462.0L122.0,462.3L122.3,443.1L151.4,442.7L151.7,424.4L135.9,424.2L135.2,417.3L132.5,417.4L120.1,417.1L110.7,418.9L108.8,415.7L106.1,420.8L106.9,424.7L103.9,431.9L104.3,437.6Z"/>
    <path class="wtc-county" id="wtc-county-echols" data-county="Echols" d="M321.7,485.8L314.5,485.8L312.6,490.5L309.6,492.1L309.2,509.5L356.3,512.2L367.3,512.8L367.6,501.9L365.4,500.0L355.2,497.8L345.0,497.0L341.3,492.9L339.8,487.3L326.6,483.7L321.7,485.8Z"/>
    <path class="wtc-county" id="wtc-county-effingham" data-county="Effingham" d="M492.7,302.5L476.9,311.5L476.1,313.6L478.4,317.7L476.5,321.2L480.3,327.4L482.2,328.0L487.5,336.1L487.8,339.7L492.4,354.9L513.1,340.0L518.3,341.2L517.2,339.7L521.0,335.2L518.7,328.3L517.2,328.7L511.6,319.2L513.1,316.1L504.4,308.8L504.0,306.6L499.9,306.3L492.7,302.5Z"/>
    <path class="wtc-county" id="wtc-county-elbert" data-county="Elbert" d="M315.6,131.5L313.0,136.8L316.4,138.8L319.8,144.6L326.2,150.5L329.6,153.4L337.9,156.8L346.9,158.0L359.7,156.0L360.9,156.7L365.4,157.1L369.5,159.7L366.1,153.6L366.1,151.8L360.9,147.5L357.8,141.4L353.3,139.3L350.7,133.1L350.7,128.5L347.3,124.8L332.6,129.0L325.8,133.0L321.7,130.4L315.6,131.5Z"/>
    <path class="wtc-county" id="wtc-county-emanuel" data-county="Emanuel" d="M383.1,285.0L381.2,289.5L376.3,293.1L380.1,297.0L366.1,304.2L369.5,309.1L360.5,311.2L377.4,313.3L388.4,318.7L385.7,327.8L391.4,332.1L391.4,334.3L399.3,334.1L404.2,331.5L401.9,328.1L409.1,319.5L409.5,315.2L413.2,310.4L420.4,306.2L425.3,308.5L428.7,301.2L420.0,295.4L413.2,279.7L406.1,280.6L395.5,277.3L390.6,279.3L384.6,279.9L386.9,283.4L383.1,285.0Z"/>
    <path class="wtc-county" id="wtc-county-evans" data-county="Evans" d="M431.7,336.8L426.0,335.7L430.6,356.4L440.4,359.7L453.5,360.0L458.1,355.6L454.3,354.0L451.7,348.9L447.9,340.0L440.0,336.1L431.7,336.8Z"/>
    <path class="wtc-county" id="wtc-county-fannin" data-county="Fannin" d="M153.6,51.3L153.6,65.2L174.3,65.1L185.6,70.3L192.0,79.7L192.0,85.3L198.5,88.0L198.1,90.1L198.8,91.8L202.2,87.0L207.9,78.7L209.0,70.9L204.1,70.3L203.7,65.4L207.5,61.9L200.0,55.1L205.2,51.4L184.9,51.3L153.6,51.3Z"/>
    <path class="wtc-county" id="wtc-county-fayette" data-county="Fayette" d="M154.7,207.3L152.9,213.9L157.0,222.4L162.7,224.8L166.4,233.0L173.2,233.1L177.4,227.6L178.1,223.1L178.5,217.7L176.6,215.4L178.5,211.4L174.7,208.2L172.5,202.2L170.6,202.1L158.9,204.9L154.7,207.3Z"/>
    <path class="wtc-county" id="wtc-county-floyd" data-county="Floyd" d="M65.1,124.9L69.6,146.6L86.5,146.8L86.5,144.5L108.8,145.0L109.2,132.6L111.0,132.6L111.4,118.6L113.3,118.6L112.9,113.8L104.6,112.9L102.0,106.5L104.3,106.4L104.3,98.2L106.9,98.1L106.5,93.4L102.4,93.4L94.8,109.2L78.6,116.2L73.0,125.0L65.1,124.9Z"/>
    <path class="wtc-county" id="wtc-county-forsyth" data-county="Forsyth" d="M191.7,135.5L191.7,143.5L198.8,146.0L203.7,149.2L208.3,149.7L206.4,148.1L208.3,142.2L212.0,137.4L215.4,134.5L219.9,134.5L224.1,129.9L225.6,125.1L223.3,120.0L191.7,119.9L191.7,135.5Z"/>
    <path class="wtc-county" id="wtc-county-franklin" data-county="Franklin" d="M281.7,106.6L283.6,110.0L282.5,121.0L288.1,127.6L286.2,131.5L292.3,127.3L294.9,128.9L305.5,130.0L311.9,126.3L313.8,118.6L312.2,118.9L313.8,111.3L318.3,103.0L312.6,98.7L305.1,104.9L284.4,105.6L281.7,106.6Z"/>
    <path class="wtc-county" id="wtc-county-fulton" data-county="Fulton" d="M133.6,199.8L131.4,202.8L132.9,205.4L129.5,206.3L153.6,206.4L154.7,207.3L158.9,204.9L170.6,202.1L170.6,191.9L181.9,192.0L182.3,159.1L189.4,159.5L190.9,156.4L196.2,154.6L199.6,155.2L201.1,152.1L208.3,149.7L203.7,149.2L198.8,146.0L191.7,143.5L191.7,135.5L181.5,136.5L180.7,142.1L174.7,143.6L174.7,147.3L176.6,153.5L179.2,156.4L176.2,160.9L171.7,164.5L172.5,166.6L169.4,173.2L158.1,181.9L150.2,188.2L149.8,190.4L139.7,193.8L133.6,199.8Z"/>
    <path class="wtc-county" id="wtc-county-gilmer" data-county="Gilmer" d="M153.6,65.2L157.4,68.4L152.1,74.0L149.8,78.5L149.8,93.8L149.8,97.4L179.6,97.4L182.3,96.0L183.4,94.1L192.0,95.4L192.0,92.3L198.1,90.1L198.5,88.0L192.0,85.3L192.0,79.7L185.6,70.3L174.3,65.1L153.6,65.2Z"/>
    <path class="wtc-county" id="wtc-county-glascock" data-county="Glascock" d="M349.2,233.4L349.9,235.0L351.8,238.2L351.1,241.6L359.0,246.8L368.0,247.4L367.3,242.0L383.5,231.2L369.9,225.7L360.9,228.4L357.5,231.3L349.2,233.4Z"/>
    <path class="wtc-county" id="wtc-county-glynn" data-county="Glynn" d="M456.9,435.3L453.2,448.8L453.2,452.2L461.5,457.1L467.1,458.6L475.0,457.3L473.5,459.8L482.6,466.4L487.1,468.3L490.1,467.2L491.6,462.3L491.6,455.9L495.0,455.6L498.0,450.3L502.9,448.3L505.2,439.0L493.5,436.7L487.8,437.1L475.8,430.6L468.2,422.4L463.7,428.0L461.1,427.9L456.9,435.3Z"/>
    <path class="wtc-county" id="wtc-county-gordon" data-county="Gordon" d="M106.5,93.4L106.9,98.1L104.3,98.2L104.3,106.4L102.0,106.5L104.6,112.9L112.9,113.8L118.6,114.7L118.6,113.1L141.6,113.4L141.6,111.7L150.2,111.7L149.8,97.4L149.8,93.8L144.6,92.2L143.4,89.7L134.4,91.2L123.5,90.4L122.7,88.5L121.6,90.4L108.4,89.7L106.5,93.4Z"/>
    <path class="wtc-county" id="wtc-county-grady" data-county="Grady" d="M179.2,461.7L178.9,502.5L189.0,503.0L209.8,504.0L210.5,479.8L206.4,473.1L206.4,461.8L179.2,461.7Z"/>
    <path class="wtc-county" id="wtc-county-greene" data-county="Greene" d="M281.0,186.7L284.7,191.1L287.4,197.0L295.3,204.0L294.2,209.3L298.3,216.1L297.9,218.1L302.8,218.5L306.6,222.8L322.4,210.8L325.1,205.4L322.0,199.1L328.8,190.6L323.9,187.2L318.7,184.9L311.1,186.6L294.2,180.0L293.0,182.9L281.0,186.7Z"/>
    <path class="wtc-county" id="wtc-county-gwinnett" data-county="Gwinnett" d="M189.4,159.5L191.3,163.5L197.3,168.4L202.2,170.5L210.9,178.4L216.2,180.9L220.7,177.5L239.9,162.4L235.8,156.7L232.4,154.6L237.6,141.6L232.4,144.7L212.0,137.4L208.3,142.2L206.4,148.1L208.3,149.7L201.1,152.1L199.6,155.2L196.2,154.6L190.9,156.4L189.4,159.5Z"/>
    <path class="wtc-county" id="wtc-county-habersham" data-county="Habersham" d="M255.4,68.7L252.0,71.0L257.6,74.9L258.4,78.1L254.2,85.8L256.5,89.7L256.5,94.2L259.1,97.0L253.8,102.2L259.1,109.7L267.4,103.4L275.3,104.6L285.5,84.2L288.1,82.9L286.6,79.8L278.3,76.6L273.4,79.0L265.9,76.3L262.1,68.9L255.4,68.7Z"/>
    <path class="wtc-county" id="wtc-county-hall" data-county="Hall" d="M223.3,120.0L225.6,125.1L224.1,129.9L219.9,134.5L215.4,134.5L212.0,137.4L232.4,144.7L237.6,141.6L258.4,124.0L255.4,121.3L253.5,116.6L255.0,113.0L259.1,109.7L253.8,102.2L235.0,101.9L220.7,111.1L220.7,117.5L223.3,120.0Z"/>
    <path class="wtc-county" id="wtc-county-hancock" data-county="Hancock" d="M294.9,240.4L303.2,241.5L313.4,244.2L311.1,251.3L313.0,254.7L318.3,251.6L322.8,251.6L326.9,248.6L334.1,246.5L339.0,239.4L346.9,235.0L349.9,235.0L349.2,233.4L346.2,231.8L344.3,221.7L342.4,220.7L342.0,215.1L339.4,213.5L334.1,213.9L325.4,213.0L322.4,210.8L306.6,222.8L308.5,227.5L297.2,232.8L294.9,240.4Z"/>
    <path class="wtc-county" id="wtc-county-haralson" data-county="Haralson" d="M73.0,165.3L78.3,191.5L83.2,191.6L99.0,186.5L102.4,187.1L108.4,185.0L108.4,174.7L109.5,174.8L109.9,165.1L108.4,165.1L91.4,164.9L91.4,165.6L73.0,165.3Z"/>
    <path class="wtc-county" id="wtc-county-harris" data-county="Harris" d="M94.1,273.6L97.5,276.5L96.0,279.8L100.9,283.8L100.1,286.1L102.8,297.3L105.0,301.2L123.5,301.2L123.5,303.8L145.7,303.7L146.1,277.9L145.0,276.4L139.7,273.7L128.4,273.4L128.4,273.8L94.1,273.6Z"/>
    <path class="wtc-county" id="wtc-county-hart" data-county="Hart" d="M311.9,126.3L315.6,131.5L321.7,130.4L325.8,133.0L332.6,129.0L347.3,124.8L345.4,119.3L340.9,116.6L339.8,110.9L336.7,105.1L333.7,104.0L324.3,104.7L318.3,103.0L313.8,111.3L312.2,118.9L313.8,118.6L311.9,126.3Z"/>
    <path class="wtc-county" id="wtc-county-heard" data-county="Heard" d="M82.8,215.1L88.8,246.4L101.2,242.8L102.4,239.6L104.6,242.0L120.1,236.4L112.2,215.3L82.8,215.1Z"/>
    <path class="wtc-county" id="wtc-county-henry" data-county="Henry" d="M189.0,192.0L193.2,198.1L189.0,202.4L187.9,214.3L181.5,214.2L181.5,223.0L192.4,223.0L192.8,224.8L203.0,224.8L203.0,227.1L207.9,228.7L212.4,227.5L215.4,222.1L222.6,220.6L221.4,217.2L226.7,213.4L224.5,209.4L215.4,207.7L213.9,204.8L213.5,203.2L205.6,201.1L199.2,192.2L192.8,193.8L189.0,192.0Z"/>
    <path class="wtc-county" id="wtc-county-houston" data-county="Houston" d="M234.6,315.8L235.8,324.9L234.6,334.4L259.1,334.7L268.5,322.8L271.6,322.8L271.6,317.5L272.3,314.0L269.3,312.6L266.3,304.9L267.4,303.4L265.1,296.5L261.0,295.3L253.8,294.2L250.1,292.3L250.1,292.4L248.2,298.4L248.2,309.2L245.2,308.9L245.2,312.0L239.9,312.9L239.9,318.1L234.6,315.8Z"/>
    <path class="wtc-county" id="wtc-county-irwin" data-county="Irwin" d="M271.2,407.6L271.2,410.1L279.5,411.9L282.1,414.1L284.0,419.4L288.1,420.0L308.5,420.4L311.9,419.7L317.5,410.6L317.5,405.8L322.0,403.2L323.9,399.3L305.1,398.7L305.1,401.5L295.7,401.3L295.7,398.6L289.6,398.5L289.6,390.5L276.1,390.4L276.1,395.6L272.3,396.9L271.2,407.6Z"/>
    <path class="wtc-county" id="wtc-county-jackson" data-county="Jackson" d="M237.6,141.6L243.3,148.2L259.1,150.1L264.4,151.7L267.4,158.6L271.2,156.3L285.9,150.8L283.2,149.7L286.2,142.8L285.5,137.8L281.3,134.3L273.1,127.6L264.8,128.5L258.4,124.0L237.6,141.6Z"/>
    <path class="wtc-county" id="wtc-county-jasper" data-county="Jasper" d="M233.1,221.3L235.4,225.5L238.0,234.6L237.3,241.1L238.0,246.1L266.3,242.0L267.0,218.6L267.8,214.4L252.0,204.8L252.7,208.9L246.3,209.5L242.5,212.5L236.9,214.1L236.5,218.7L233.1,221.3Z"/>
    <path class="wtc-county" id="wtc-county-jeff-davis" data-county="Jeff Davis" d="M340.9,384.3L340.9,399.5L362.7,399.4L374.0,399.4L374.0,395.4L374.0,382.0L383.5,382.0L383.5,368.5L377.8,368.2L377.1,370.4L371.4,369.3L360.9,373.5L357.1,373.3L353.3,377.0L340.9,384.3Z"/>
    <path class="wtc-county" id="wtc-county-jefferson" data-county="Jefferson" d="M359.0,246.8L365.7,256.7L371.0,258.0L372.2,265.5L375.2,268.7L373.3,277.5L374.0,278.7L380.4,284.4L383.1,285.0L386.9,283.4L384.6,279.9L390.6,279.3L395.5,277.3L400.0,266.5L398.2,253.4L400.8,243.9L404.2,235.8L400.4,232.0L391.4,227.2L388.4,227.3L383.5,231.2L367.3,242.0L368.0,247.4L359.0,246.8Z"/>
    <path class="wtc-county" id="wtc-county-jenkins" data-county="Jenkins" d="M453.2,269.5L451.3,267.5L443.7,264.9L433.2,268.1L420.0,268.8L415.5,272.2L413.2,279.7L420.0,295.4L428.7,301.2L445.3,296.8L442.2,294.3L453.2,269.5Z"/>
    <path class="wtc-county" id="wtc-county-johnson" data-county="Johnson" d="M329.2,285.3L328.1,290.6L337.9,289.9L346.2,292.9L345.0,295.7L358.6,300.7L357.8,310.0L360.5,311.2L369.5,309.1L366.1,304.2L380.1,297.0L376.3,293.1L381.2,289.5L383.1,285.0L380.4,284.4L374.0,278.7L369.9,278.9L358.6,282.8L357.1,281.3L348.0,284.3L344.3,280.0L329.2,285.3Z"/>
    <path class="wtc-county" id="wtc-county-jones" data-county="Jones" d="M238.0,246.1L245.2,253.4L248.9,265.0L250.5,268.8L254.6,271.8L260.6,271.8L269.7,276.3L281.0,270.7L286.2,267.8L280.2,248.9L278.7,240.6L266.3,242.0L238.0,246.1Z"/>
    <path class="wtc-county" id="wtc-county-lamar" data-county="Lamar" d="M192.8,240.2L192.4,255.9L190.2,260.9L206.0,261.1L205.6,267.2L213.1,267.2L214.3,257.0L214.3,238.7L205.6,238.7L205.6,241.3L195.1,241.2L192.8,240.2Z"/>
    <path class="wtc-county" id="wtc-county-lanier" data-county="Lanier" d="M318.7,450.7L319.8,454.6L306.2,454.6L306.2,463.4L302.8,463.5L302.8,467.3L304.7,467.3L304.7,475.2L319.0,475.5L321.3,480.2L321.7,485.8L326.6,483.7L326.6,450.7L318.7,450.7Z"/>
    <path class="wtc-county" id="wtc-county-laurens" data-county="Laurens" d="M299.8,303.7L309.2,320.5L324.7,349.5L335.6,344.4L338.6,344.6L352.9,332.5L349.9,330.5L355.6,321.2L356.7,316.7L360.9,315.8L360.5,311.2L357.8,310.0L358.6,300.7L345.0,295.7L346.2,292.9L337.9,289.9L328.1,290.6L299.8,303.7Z"/>
    <path class="wtc-county" id="wtc-county-lee" data-county="Lee" d="M226.7,374.5L183.0,373.7L183.0,378.3L187.9,379.2L191.3,383.0L191.3,386.9L188.7,386.9L187.5,396.7L187.5,404.7L214.3,404.5L216.9,401.7L215.4,394.8L219.9,389.6L217.7,385.8L221.1,385.7L225.2,381.0L226.7,374.5Z"/>
    <path class="wtc-county" id="wtc-county-liberty" data-county="Liberty" d="M453.5,360.0L447.1,363.5L450.2,367.3L455.0,368.2L455.4,371.7L453.2,378.2L461.5,385.0L466.0,387.5L466.4,389.6L481.8,396.6L488.2,402.7L495.4,401.3L506.3,401.7L513.1,406.1L513.1,410.4L515.3,411.6L519.5,404.5L519.9,396.9L514.2,396.3L512.7,393.8L506.3,390.9L504.4,386.6L501.0,387.0L498.8,381.8L497.2,383.5L493.9,380.9L491.2,371.6L484.8,370.2L483.7,367.7L478.8,369.3L471.3,368.0L471.3,365.8L466.4,359.8L460.7,355.7L458.1,355.6L453.5,360.0Z"/>
    <path class="wtc-county" id="wtc-county-lincoln" data-county="Lincoln" d="M360.9,156.7L365.0,169.8L368.0,168.2L366.1,173.0L368.4,177.5L378.2,192.8L383.8,191.7L385.3,190.1L396.3,186.4L399.7,188.2L405.7,188.0L402.7,181.0L391.7,172.2L380.8,167.5L373.7,161.0L369.5,159.7L365.4,157.1L360.9,156.7Z"/>
    <path class="wtc-county" id="wtc-county-long" data-county="Long" d="M447.1,363.5L441.5,368.3L441.1,373.6L437.7,376.9L431.7,387.1L438.1,391.2L444.1,399.9L448.3,400.2L450.5,403.4L460.3,409.3L460.3,411.8L464.1,413.4L474.3,409.5L481.8,396.6L466.4,389.6L466.0,387.5L461.5,385.0L453.2,378.2L455.4,371.7L455.0,368.2L450.2,367.3L447.1,363.5Z"/>
    <path class="wtc-county" id="wtc-county-lowndes" data-county="Lowndes" d="M273.8,466.6L278.7,475.4L277.6,480.0L284.7,482.1L286.6,486.6L279.1,489.4L276.5,489.1L275.7,494.6L272.7,495.9L277.6,502.6L285.5,505.8L286.2,508.0L294.9,508.6L309.2,509.5L309.6,492.1L312.6,490.5L314.5,485.8L321.7,485.8L321.3,480.2L319.0,475.5L304.7,475.2L304.7,467.3L302.8,467.3L292.7,467.1L273.8,466.6Z"/>
    <path class="wtc-county" id="wtc-county-lumpkin" data-county="Lumpkin" d="M198.8,91.8L198.5,98.1L207.5,106.1L220.7,111.1L235.0,101.9L236.1,99.1L232.7,97.3L232.0,84.2L233.9,79.2L225.2,77.2L220.3,79.8L219.2,83.8L214.7,87.6L205.6,85.3L202.2,87.0L198.8,91.8Z"/>
    <path class="wtc-county" id="wtc-county-mcduffie" data-county="McDuffie" d="M378.2,192.8L375.5,190.8L371.4,192.9L367.3,191.8L363.9,195.7L360.5,196.1L367.3,212.8L370.6,216.4L371.4,220.7L375.2,224.1L381.2,224.2L388.4,227.3L391.4,227.2L397.8,222.8L392.9,217.5L393.3,215.9L388.4,211.0L386.5,205.8L388.4,204.4L382.7,202.3L385.3,198.3L382.3,193.0L383.8,191.7L378.2,192.8Z"/>
    <path class="wtc-county" id="wtc-county-mcintosh" data-county="McIntosh" d="M464.1,413.4L464.5,416.4L469.4,420.7L468.2,422.4L475.8,430.6L487.8,437.1L493.5,436.7L505.2,439.0L504.0,435.7L506.3,427.5L515.0,415.7L512.7,413.5L506.3,414.4L506.3,412.4L513.1,410.4L513.1,406.1L506.3,401.7L495.4,401.3L488.2,402.7L481.8,396.6L474.3,409.5L464.1,413.4Z"/>
    <path class="wtc-county" id="wtc-county-macon" data-county="Macon" d="M218.4,309.4L213.1,310.2L217.7,310.3L218.4,309.4ZM192.0,326.0L191.7,333.9L195.8,334.0L195.4,340.7L199.6,340.8L204.5,341.1L204.5,345.5L209.8,344.9L215.8,347.1L222.2,338.9L229.4,335.5L234.6,334.4L235.8,324.9L234.6,315.8L225.6,311.9L216.9,311.8L213.1,310.2L206.0,311.9L198.1,322.9L192.0,323.4L192.0,326.0Z"/>
    <path class="wtc-county" id="wtc-county-madison" data-county="Madison" d="M281.3,134.3L285.5,137.8L286.2,142.8L283.2,149.7L285.9,150.8L296.4,155.2L300.6,155.0L310.7,150.0L318.7,153.3L326.2,150.5L319.8,144.6L316.4,138.8L313.0,136.8L315.6,131.5L311.9,126.3L305.5,130.0L294.9,128.9L292.3,127.3L286.2,131.5L281.3,134.3Z"/>
    <path class="wtc-county" id="wtc-county-marion" data-county="Marion" d="M151.7,308.8L149.8,313.1L149.5,340.6L150.6,340.6L153.6,340.6L155.5,345.0L159.3,345.1L163.4,350.8L173.6,350.9L173.6,347.5L173.6,340.7L175.5,340.7L175.5,333.8L177.7,333.8L177.4,321.5L175.8,314.0L173.2,313.2L170.9,308.9L172.1,306.0L167.2,306.0L165.7,308.1L159.3,308.3L157.4,310.1L151.7,308.8Z"/>
    <path class="wtc-county" id="wtc-county-meriwether" data-county="Meriwether" d="M128.0,239.9L128.0,263.2L128.4,273.4L139.7,273.7L145.0,276.4L158.9,276.3L165.3,272.4L163.4,269.1L163.4,263.1L162.3,259.0L164.2,247.2L166.4,240.7L166.1,236.8L129.1,236.6L128.0,239.9Z"/>
    <path class="wtc-county" id="wtc-county-miller" data-county="Miller" d="M151.4,442.7L122.3,443.1L122.0,462.3L141.9,462.7L151.0,462.8L151.0,461.6L161.5,461.7L162.3,443.1L151.4,442.7Z"/>
    <path class="wtc-county" id="wtc-county-mitchell" data-county="Mitchell" d="M203.7,423.8L202.6,426.5L198.1,428.8L197.7,432.6L185.6,436.2L180.4,444.8L165.3,457.0L165.3,461.8L179.2,461.7L206.4,461.8L218.4,461.9L218.8,434.8L218.8,423.3L203.7,423.8Z"/>
    <path class="wtc-county" id="wtc-county-monroe" data-county="Monroe" d="M205.6,267.2L205.6,275.8L230.1,275.9L248.9,265.0L245.2,253.4L238.0,246.1L237.3,241.1L233.5,238.9L214.3,238.7L214.3,257.0L213.1,267.2L205.6,267.2Z"/>
    <path class="wtc-county" id="wtc-county-montgomery" data-county="Montgomery" d="M385.7,327.8L360.5,332.4L359.7,333.7L360.5,339.3L363.1,343.4L362.7,351.0L364.6,355.6L365.7,363.6L371.0,366.9L371.4,369.3L377.1,370.4L377.8,368.2L382.3,342.1L382.7,334.2L385.7,327.8Z"/>
    <path class="wtc-county" id="wtc-county-morgan" data-county="Morgan" d="M252.3,197.4L252.0,204.8L267.8,214.4L294.2,209.3L295.3,204.0L287.4,197.0L284.7,191.1L281.0,186.7L276.8,184.2L273.4,175.8L270.4,174.2L252.3,197.4Z"/>
    <path class="wtc-county" id="wtc-county-murray" data-county="Murray" d="M133.6,51.4L130.3,58.7L132.9,63.0L130.3,64.7L128.0,69.6L129.1,76.4L128.0,80.8L121.6,79.8L125.4,83.8L119.7,83.7L122.7,88.5L123.5,90.4L134.4,91.2L143.4,89.7L144.6,92.2L149.8,93.8L149.8,78.5L152.1,74.0L157.4,68.4L153.6,65.2L153.6,51.3L137.0,51.4L133.6,51.4Z"/>
    <path class="wtc-county" id="wtc-county-muscogee" data-county="Muscogee" d="M145.7,303.7L123.5,303.8L123.5,301.2L105.0,301.2L111.4,308.0L113.3,311.4L114.1,317.4L117.4,320.6L115.6,325.3L119.3,325.5L126.1,321.9L138.2,320.8L142.7,311.7L145.7,310.5L148.7,305.8L145.7,303.7Z"/>
    <path class="wtc-county" id="wtc-county-newton" data-county="Newton" d="M213.9,204.8L215.4,207.7L224.5,209.4L226.7,213.4L227.8,216.2L233.1,221.3L236.5,218.7L236.9,214.1L242.5,212.5L246.3,209.5L252.7,208.9L252.0,204.8L252.3,197.4L246.7,192.2L244.0,192.1L227.5,181.9L227.8,185.3L226.0,191.7L213.9,204.8Z"/>
    <path class="wtc-county" id="wtc-county-oconee" data-county="Oconee" d="M255.7,164.9L257.6,166.9L262.5,167.2L263.3,170.9L270.4,174.2L273.4,175.8L276.8,184.2L281.0,186.7L293.0,182.9L294.2,180.0L291.5,174.8L294.5,171.0L289.6,170.3L279.5,162.7L270.4,162.3L267.4,158.6L255.7,164.9Z"/>
    <path class="wtc-county" id="wtc-county-oglethorpe" data-county="Oglethorpe" d="M294.5,171.0L291.5,174.8L294.2,180.0L311.1,186.6L318.7,184.9L323.9,187.2L328.8,183.0L325.1,178.1L329.6,170.9L331.8,170.0L336.7,163.3L345.4,160.3L346.9,158.0L337.9,156.8L329.6,153.4L326.2,150.5L318.7,153.3L310.7,150.0L300.6,155.0L296.4,155.2L294.9,161.1L298.3,165.1L294.5,171.0Z"/>
    <path class="wtc-county" id="wtc-county-paulding" data-county="Paulding" d="M122.0,146.4L115.9,160.1L108.4,160.0L108.4,165.1L109.9,165.1L109.5,174.8L123.9,178.1L126.5,178.7L142.7,177.2L142.7,175.4L142.7,160.6L141.2,160.6L141.2,146.7L122.0,146.4Z"/>
    <path class="wtc-county" id="wtc-county-peach" data-county="Peach" d="M217.7,310.3L216.9,311.8L225.6,311.9L234.6,315.8L239.9,318.1L239.9,312.9L245.2,312.0L245.2,308.9L248.2,309.2L248.2,298.4L250.1,292.4L243.3,292.3L218.4,309.4L217.7,310.3Z"/>
    <path class="wtc-county" id="wtc-county-pickens" data-county="Pickens" d="M149.8,97.4L150.2,111.7L157.4,111.8L157.4,115.0L191.7,115.0L191.7,106.2L185.3,105.9L182.3,96.0L179.6,97.4L149.8,97.4Z"/>
    <path class="wtc-county" id="wtc-county-pierce" data-county="Pierce" d="M385.0,426.1L387.6,431.6L387.6,437.3L391.0,442.3L395.5,446.3L398.9,446.4L408.3,448.1L413.2,446.2L413.2,443.5L416.6,441.6L427.9,440.8L429.4,437.6L426.4,435.6L424.2,430.7L422.6,427.0L423.0,422.3L419.3,419.6L414.7,420.5L412.5,420.6L404.9,414.2L400.4,418.2L397.0,418.2L397.0,420.8L392.5,424.8L385.0,426.1Z"/>
    <path class="wtc-county" id="wtc-county-pike" data-county="Pike" d="M166.4,240.7L164.2,247.2L162.3,259.0L163.4,263.1L167.2,260.7L190.2,260.9L192.4,255.9L192.8,240.2L179.6,240.1L177.4,238.1L171.3,238.1L166.4,240.7Z"/>
    <path class="wtc-county" id="wtc-county-polk" data-county="Polk" d="M69.6,146.6L71.9,158.8L73.0,165.3L91.4,165.6L91.4,164.9L108.4,165.1L108.4,160.0L115.9,160.1L122.0,146.4L108.8,146.3L108.8,145.0L86.5,144.5L86.5,146.8L69.6,146.6Z"/>
    <path class="wtc-county" id="wtc-county-pulaski" data-county="Pulaski" d="M259.1,334.7L259.9,334.7L259.9,352.6L278.0,352.6L279.8,351.0L285.9,352.0L288.1,353.9L291.5,351.0L289.6,349.2L293.0,346.2L284.4,338.8L287.4,336.4L271.6,322.8L268.5,322.8L259.1,334.7Z"/>
    <path class="wtc-county" id="wtc-county-putnam" data-county="Putnam" d="M267.8,214.4L267.0,218.6L266.3,242.0L278.7,240.6L285.5,241.1L294.9,240.4L297.2,232.8L308.5,227.5L306.6,222.8L302.8,218.5L297.9,218.1L298.3,216.1L294.2,209.3L267.8,214.4Z"/>
    <path class="wtc-county" id="wtc-county-quitman" data-county="Quitman" d="M107.3,366.0L105.4,371.3L100.1,377.8L99.0,381.9L100.5,388.1L105.8,389.0L118.2,388.3L123.1,388.4L123.5,372.9L118.6,370.2L118.6,367.6L109.2,367.5L107.3,366.0Z"/>
    <path class="wtc-county" id="wtc-county-rabun" data-county="Rabun" d="M265.9,50.8L266.3,55.7L260.6,56.5L260.6,59.2L254.6,62.8L255.4,68.7L262.1,68.9L265.9,76.3L273.4,79.0L278.3,76.6L286.6,79.8L290.0,75.3L289.6,72.1L299.4,62.6L311.1,56.5L312.2,50.0L273.1,50.7L265.9,50.8Z"/>
    <path class="wtc-county" id="wtc-county-randolph" data-county="Randolph" d="M118.2,388.3L117.8,395.1L119.7,405.0L132.9,404.9L149.8,404.9L150.6,402.4L157.0,404.8L161.2,404.8L162.3,398.9L158.9,390.1L155.5,388.9L155.9,373.4L149.8,373.4L123.5,372.9L123.1,388.4L118.2,388.3Z"/>
    <path class="wtc-county" id="wtc-county-richmond" data-county="Richmond" d="M391.4,227.2L400.4,232.0L410.2,228.8L418.1,235.7L422.3,234.5L430.9,236.1L435.5,233.4L440.7,232.5L444.1,234.1L445.6,231.4L435.1,224.0L436.6,221.1L435.1,217.6L437.7,213.7L436.2,211.5L430.6,209.2L427.2,204.1L425.7,202.8L397.8,222.8L391.4,227.2Z"/>
    <path class="wtc-county" id="wtc-county-rockdale" data-county="Rockdale" d="M199.2,192.2L205.6,201.1L213.5,203.2L213.9,204.8L226.0,191.7L227.8,185.3L227.5,181.9L220.7,177.5L216.2,180.9L212.8,183.7L206.4,195.5L199.2,192.2Z"/>
    <path class="wtc-county" id="wtc-county-schley" data-county="Schley" d="M177.4,321.5L177.7,333.8L175.5,333.8L175.5,340.7L173.6,340.7L173.6,347.5L199.6,348.3L199.6,340.8L195.4,340.7L195.8,334.0L191.7,333.9L192.0,326.0L184.5,325.9L184.9,323.2L180.4,323.2L180.7,320.1L177.4,321.5Z"/>
    <path class="wtc-county" id="wtc-county-screven" data-county="Screven" d="M453.2,269.5L442.2,294.3L445.3,296.8L449.4,297.6L452.4,301.3L461.1,307.6L476.1,313.6L476.9,311.5L492.7,302.5L489.7,298.9L492.4,296.4L490.8,292.0L488.6,291.3L490.5,286.8L489.0,284.4L489.0,276.7L485.6,275.4L484.8,270.9L480.3,265.2L482.2,259.1L476.5,255.3L453.2,269.5Z"/>
    <path class="wtc-county" id="wtc-county-seminole" data-county="Seminole" d="M111.0,462.0L113.3,469.9L115.6,477.0L119.7,481.7L120.5,489.2L122.7,495.9L126.9,498.6L129.5,493.9L135.9,490.8L139.3,481.0L139.7,465.6L141.9,462.7L122.0,462.3L111.0,462.0Z"/>
    <path class="wtc-county" id="wtc-county-spalding" data-county="Spalding" d="M166.4,233.0L166.1,236.8L166.4,240.7L171.3,238.1L177.4,238.1L179.6,240.1L192.8,240.2L195.1,241.2L205.6,241.3L205.6,238.7L205.6,233.5L209.4,230.0L207.9,228.7L203.0,227.1L203.0,224.8L192.8,224.8L192.4,223.0L181.5,223.0L178.1,223.1L177.4,227.6L173.2,233.1L166.4,233.0Z"/>
    <path class="wtc-county" id="wtc-county-stephens" data-county="Stephens" d="M275.3,104.6L281.7,106.6L284.4,105.6L305.1,104.9L312.6,98.7L305.8,91.5L299.4,90.9L288.1,82.9L285.5,84.2L275.3,104.6Z"/>
    <path class="wtc-county" id="wtc-county-stewart" data-county="Stewart" d="M108.4,358.4L107.3,366.0L109.2,367.5L118.6,367.6L118.6,370.2L123.5,372.9L149.8,373.4L149.8,362.0L151.0,361.9L151.4,348.1L152.5,345.7L150.6,340.6L149.5,340.6L122.0,340.7L117.1,342.0L117.8,344.2L112.5,346.1L107.6,350.8L108.4,358.4Z"/>
    <path class="wtc-county" id="wtc-county-sumter" data-county="Sumter" d="M173.6,350.9L172.1,368.4L183.0,378.3L183.0,373.7L226.7,374.5L226.7,370.5L222.6,361.8L219.6,355.0L215.0,348.9L215.8,347.1L209.8,344.9L204.5,345.5L204.5,341.1L199.6,340.8L199.6,348.3L173.6,347.5L173.6,350.9Z"/>
    <path class="wtc-county" id="wtc-county-talbot" data-county="Talbot" d="M145.0,276.4L146.1,277.9L145.7,303.7L148.7,305.8L145.7,310.5L151.7,308.8L157.4,310.1L159.3,308.3L165.7,308.1L167.2,306.0L172.1,306.0L175.8,306.0L175.8,300.9L178.9,298.6L180.4,293.7L183.0,293.7L183.0,289.3L188.7,286.5L177.7,282.4L174.3,277.0L170.6,277.9L165.3,272.4L158.9,276.3L145.0,276.4Z"/>
    <path class="wtc-county" id="wtc-county-taliaferro" data-county="Taliaferro" d="M323.9,187.2L328.8,190.6L322.0,199.1L325.1,205.4L322.4,210.8L325.4,213.0L334.1,213.9L339.4,213.5L337.5,211.1L343.1,205.3L349.9,206.4L352.9,203.3L354.4,198.3L357.1,197.1L356.0,194.9L350.7,195.8L343.1,191.1L337.5,192.6L336.4,194.8L328.8,183.0L323.9,187.2Z"/>
    <path class="wtc-county" id="wtc-county-tattnall" data-county="Tattnall" d="M404.2,331.5L406.1,340.9L409.5,347.5L408.3,350.9L404.9,374.1L416.2,376.8L417.4,379.2L423.4,383.1L427.2,383.7L431.7,387.1L437.7,376.9L441.1,373.6L441.5,368.3L447.1,363.5L453.5,360.0L440.4,359.7L430.6,356.4L426.0,335.7L404.2,331.5Z"/>
    <path class="wtc-county" id="wtc-county-taylor" data-county="Taylor" d="M213.1,310.2L216.9,311.8L217.7,310.3L213.1,310.2ZM172.1,306.0L170.9,308.9L173.2,313.2L175.8,314.0L177.4,321.5L180.7,320.1L180.4,323.2L184.9,323.2L184.5,325.9L192.0,326.0L192.0,323.4L198.1,322.9L206.0,311.9L213.1,310.2L218.4,309.4L213.1,305.5L211.3,302.1L212.8,298.2L207.5,294.3L197.3,292.6L193.9,287.4L191.7,289.2L188.7,286.5L183.0,289.3L183.0,293.7L180.4,293.7L178.9,298.6L175.8,300.9L175.8,306.0L172.1,306.0Z"/>
    <path class="wtc-county" id="wtc-county-telfair" data-county="Telfair" d="M302.1,375.5L305.1,381.0L309.2,384.5L314.9,384.8L320.5,388.3L323.9,388.0L325.8,386.7L337.5,387.8L340.9,384.3L353.3,377.0L357.1,373.3L360.9,373.5L355.6,369.5L352.2,364.3L346.2,362.7L344.6,360.3L335.6,356.6L331.1,350.8L302.1,375.5Z"/>
    <path class="wtc-county" id="wtc-county-terrell" data-county="Terrell" d="M155.9,373.4L155.5,388.9L158.9,390.1L162.3,398.9L161.2,404.8L171.3,404.7L187.5,404.7L187.5,396.7L188.7,386.9L191.3,386.9L191.3,383.0L187.9,379.2L183.0,378.3L172.1,368.4L170.9,373.5L155.9,373.4Z"/>
    <path class="wtc-county" id="wtc-county-thomas" data-county="Thomas" d="M206.4,461.8L206.4,473.1L210.5,479.8L209.8,504.0L218.0,504.4L245.6,505.9L246.3,466.0L218.4,465.6L218.4,461.9L206.4,461.8Z"/>
    <path class="wtc-county" id="wtc-county-tift" data-county="Tift" d="M255.4,410.4L255.0,435.3L269.7,435.6L275.3,435.7L278.0,433.2L284.7,427.9L284.7,421.2L288.1,420.0L284.0,419.4L282.1,414.1L279.5,411.9L271.2,410.1L271.2,407.6L255.4,407.4L255.4,410.4Z"/>
    <path class="wtc-county" id="wtc-county-toombs" data-county="Toombs" d="M377.8,368.2L383.5,368.5L389.5,371.1L395.5,372.2L398.2,371.0L404.9,374.1L408.3,350.9L409.5,347.5L406.1,340.9L404.2,331.5L399.3,334.1L391.4,334.3L391.4,332.1L385.7,327.8L382.7,334.2L382.3,342.1L377.8,368.2Z"/>
    <path class="wtc-county" id="wtc-county-towns" data-county="Towns" d="M225.2,51.4L224.5,53.2L227.5,57.8L234.3,60.6L237.6,59.1L238.4,63.4L241.8,69.1L241.8,71.8L252.0,71.0L255.4,68.7L254.6,62.8L260.6,59.2L260.6,56.5L266.3,55.7L265.9,50.8L258.7,51.4L225.2,51.4Z"/>
    <path class="wtc-county" id="wtc-county-treutlen" data-county="Treutlen" d="M360.5,311.2L360.9,315.8L356.7,316.7L355.6,321.2L349.9,330.5L352.9,332.5L359.7,333.7L360.5,332.4L385.7,327.8L388.4,318.7L377.4,313.3L360.5,311.2Z"/>
    <path class="wtc-county" id="wtc-county-troup" data-county="Troup" d="M88.8,246.4L89.2,248.7L94.1,273.6L128.4,273.8L128.4,273.4L128.0,263.2L128.0,239.9L128.0,236.5L120.1,236.4L104.6,242.0L102.4,239.6L101.2,242.8L88.8,246.4Z"/>
    <path class="wtc-county" id="wtc-county-turner" data-county="Turner" d="M239.5,385.7L239.9,404.6L248.2,404.7L255.4,410.4L255.4,407.4L271.2,407.6L272.3,396.9L276.1,395.6L276.1,390.4L273.1,381.1L259.5,380.3L259.5,385.6L239.5,385.7Z"/>
    <path class="wtc-county" id="wtc-county-twiggs" data-county="Twiggs" d="M269.7,276.3L272.3,278.5L262.9,287.5L260.2,287.2L259.5,292.7L261.0,295.3L265.1,296.5L267.4,303.4L266.3,304.9L269.3,312.6L272.3,314.0L271.6,317.5L299.8,303.7L281.0,270.7L269.7,276.3Z"/>
    <path class="wtc-county" id="wtc-county-union" data-county="Union" d="M205.2,51.4L200.0,55.1L207.5,61.9L203.7,65.4L204.1,70.3L209.0,70.9L207.9,78.7L202.2,87.0L205.6,85.3L214.7,87.6L219.2,83.8L220.3,79.8L225.2,77.2L233.9,79.2L236.5,78.4L236.9,73.3L241.8,71.8L241.8,69.1L238.4,63.4L237.6,59.1L234.3,60.6L227.5,57.8L224.5,53.2L225.2,51.4L218.0,51.4L205.2,51.4Z"/>
    <path class="wtc-county" id="wtc-county-upson" data-county="Upson" d="M163.4,263.1L163.4,269.1L165.3,272.4L170.6,277.9L174.3,277.0L177.7,282.4L188.7,286.5L191.7,289.2L193.9,287.4L197.3,292.6L203.0,280.9L205.6,281.0L205.6,275.8L205.6,267.2L206.0,261.1L190.2,260.9L167.2,260.7L163.4,263.1Z"/>
    <path class="wtc-county" id="wtc-county-walker" data-county="Walker" d="M57.5,89.6L58.3,93.2L102.4,93.4L106.5,93.4L108.4,89.7L108.4,79.5L96.0,79.4L98.6,74.4L92.6,73.7L92.6,65.3L85.8,65.3L85.8,51.6L75.6,51.8L69.6,60.6L66.6,67.8L66.6,75.3L62.1,81.7L62.1,84.7L57.5,89.6Z"/>
    <path class="wtc-county" id="wtc-county-walton" data-county="Walton" d="M220.7,177.5L227.5,181.9L244.0,192.1L246.7,192.2L252.3,197.4L270.4,174.2L263.3,170.9L262.5,167.2L257.6,166.9L255.7,164.9L252.7,163.7L243.7,166.1L239.9,162.4L220.7,177.5Z"/>
    <path class="wtc-county" id="wtc-county-ware" data-county="Ware" d="M362.7,431.7L362.4,441.1L355.2,440.8L355.2,446.5L358.2,450.7L366.5,468.0L371.0,469.9L374.0,473.8L377.1,473.8L376.7,488.9L382.7,488.8L383.5,510.6L384.6,513.9L406.1,515.2L412.8,492.6L409.8,491.9L384.6,491.4L385.0,468.5L414.7,468.8L406.8,461.0L406.8,452.0L398.9,449.8L398.9,446.4L395.5,446.3L391.0,442.3L387.6,437.3L387.6,431.6L385.0,426.1L378.2,426.1L376.7,420.7L365.7,420.7L362.7,420.7L362.7,431.7Z"/>
    <path class="wtc-county" id="wtc-county-warren" data-county="Warren" d="M357.1,197.1L354.4,198.3L352.9,203.3L349.9,206.4L343.1,205.3L337.5,211.1L339.4,213.5L342.0,215.1L342.4,220.7L344.3,221.7L346.2,231.8L349.2,233.4L357.5,231.3L360.9,228.4L369.9,225.7L383.5,231.2L388.4,227.3L381.2,224.2L375.2,224.1L371.4,220.7L370.6,216.4L367.3,212.8L360.5,196.1L357.1,197.1Z"/>
    <path class="wtc-county" id="wtc-county-washington" data-county="Washington" d="M318.3,251.6L316.4,257.1L318.7,261.6L316.0,265.6L320.9,275.1L326.9,277.4L329.2,285.3L344.3,280.0L348.0,284.3L357.1,281.3L358.6,282.8L369.9,278.9L374.0,278.7L373.3,277.5L375.2,268.7L372.2,265.5L371.0,258.0L365.7,256.7L359.0,246.8L351.1,241.6L351.8,238.2L349.9,235.0L346.9,235.0L339.0,239.4L334.1,246.5L326.9,248.6L322.8,251.6L318.3,251.6Z"/>
    <path class="wtc-county" id="wtc-county-wayne" data-county="Wayne" d="M423.4,383.1L417.4,386.0L419.3,388.8L414.7,388.8L414.7,420.5L419.3,419.6L423.0,422.3L422.6,427.0L424.2,430.7L436.6,433.6L449.4,431.8L456.9,435.3L461.1,427.9L463.7,428.0L468.2,422.4L469.4,420.7L464.5,416.4L464.1,413.4L460.3,411.8L460.3,409.3L450.5,403.4L448.3,400.2L444.1,399.9L438.1,391.2L431.7,387.1L427.2,383.7L423.4,383.1Z"/>
    <path class="wtc-county" id="wtc-county-webster" data-county="Webster" d="M150.6,340.6L152.5,345.7L151.4,348.1L151.0,361.9L149.8,362.0L149.8,373.4L155.9,373.4L170.9,373.5L172.1,368.4L173.6,350.9L163.4,350.8L159.3,345.1L155.5,345.0L153.6,340.6L150.6,340.6Z"/>
    <path class="wtc-county" id="wtc-county-wheeler" data-county="Wheeler" d="M331.1,350.8L335.6,356.6L344.6,360.3L346.2,362.7L352.2,364.3L355.6,369.5L360.9,373.5L371.4,369.3L371.0,366.9L365.7,363.6L364.6,355.6L362.7,351.0L363.1,343.4L360.5,339.3L359.7,333.7L352.9,332.5L338.6,344.6L335.6,344.4L337.1,345.8L331.1,350.8Z"/>
    <path class="wtc-county" id="wtc-county-white" data-county="White" d="M233.9,79.2L232.0,84.2L232.7,97.3L236.1,99.1L235.0,101.9L253.8,102.2L259.1,97.0L256.5,94.2L256.5,89.7L254.2,85.8L258.4,78.1L257.6,74.9L252.0,71.0L241.8,71.8L236.9,73.3L236.5,78.4L233.9,79.2Z"/>
    <path class="wtc-county" id="wtc-county-whitfield" data-county="Whitfield" d="M98.6,74.4L96.0,79.4L108.4,79.5L108.4,89.7L121.6,90.4L122.7,88.5L119.7,83.7L125.4,83.8L121.6,79.8L128.0,80.8L129.1,76.4L128.0,69.6L130.3,64.7L132.9,63.0L130.3,58.7L133.6,51.4L115.9,51.4L111.4,63.6L107.3,64.3L107.3,69.0L99.7,69.0L98.6,74.4Z"/>
    <path class="wtc-county" id="wtc-county-wilcox" data-county="Wilcox" d="M259.5,362.0L259.5,380.3L273.1,381.1L301.7,381.3L305.1,381.0L302.1,375.5L299.8,371.7L296.0,370.1L291.5,359.7L292.7,356.7L288.1,353.9L285.9,352.0L279.8,351.0L278.0,352.6L259.9,352.6L259.5,362.0Z"/>
    <path class="wtc-county" id="wtc-county-wilkes" data-county="Wilkes" d="M346.9,158.0L345.4,160.3L336.7,163.3L331.8,170.0L329.6,170.9L325.1,178.1L328.8,183.0L336.4,194.8L337.5,192.6L343.1,191.1L350.7,195.8L356.0,194.9L357.1,197.1L360.5,196.1L363.9,195.7L367.3,191.8L371.4,192.9L375.5,190.8L378.2,192.8L368.4,177.5L366.1,173.0L368.0,168.2L365.0,169.8L360.9,156.7L359.7,156.0L346.9,158.0Z"/>
    <path class="wtc-county" id="wtc-county-wilkinson" data-county="Wilkinson" d="M286.2,267.8L281.0,270.7L299.8,303.7L328.1,290.6L329.2,285.3L326.9,277.4L320.9,275.1L316.0,265.6L308.1,259.1L286.2,267.8Z"/>
    <path class="wtc-county" id="wtc-county-worth" data-county="Worth" d="M225.2,381.0L221.1,385.7L217.7,385.8L219.9,389.6L215.4,394.8L216.9,401.7L219.2,404.3L218.8,423.3L218.8,434.8L255.0,435.3L255.4,410.4L248.2,404.7L239.9,404.6L239.5,385.7L235.0,382.7L225.2,381.0Z"/>
  </g>
</svg>