<?xml version="1.0" encoding="UTF-8"?>
<svg xmlns="http://www.w3.org/2000/svg" viewBox="0 0 600 302" id="wtc-state-map-KS" role="img" aria-label="ks county map">
  <title>ks Counties</title>
  <g class="wtc-counties">
    <path class="wtc-county" id="wtc-county-allen" data-county="Allen" d="M488.3,181.8L488.1,202.4L517.2,202.4L518.0,196.5L518.0,181.9L488.3,181.8Z"/>
    <path class="wtc-county" id="wtc-county-anderson" data-county="Anderson" d="M489.1,158.2L489.3,167.0L488.6,167.0L488.3,181.8L518.0,181.9L518.2,167.0L518.9,167.0L518.9,158.3L489.1,158.2Z"/>
    <path class="wtc-county" id="wtc-county-atchison" data-county="Atchison" d="M485.5,73.5L485.0,79.3L485.0,89.2L511.2,89.1L525.4,89.2L524.0,87.4L520.1,85.6L519.9,83.9L516.3,81.5L516.0,78.8L520.1,77.4L519.7,76.0L516.8,75.7L515.6,73.5L500.4,73.5L485.5,73.5Z"/>
    <path class="wtc-county" id="wtc-county-barber" data-county="Barber" d="M254.0,219.9L254.0,225.7L254.7,225.7L254.7,251.5L285.3,251.6L298.6,251.6L298.6,225.7L290.8,225.7L290.8,219.9L254.0,219.9Z"/>
    <path class="wtc-county" id="wtc-county-barton" data-county="Barton" d="M252.6,137.6L252.8,161.0L252.8,166.8L260.7,166.9L289.6,166.9L289.6,149.4L289.4,137.6L252.6,137.6Z"/>
    <path class="wtc-county" id="wtc-county-bourbon" data-county="Bourbon" d="M517.2,202.4L517.2,206.2L548.8,206.3L549.3,181.9L518.0,181.9L518.0,196.5L517.2,202.4Z"/>
    <path class="wtc-county" id="wtc-county-brown" data-county="Brown" d="M470.3,50.2L470.3,73.5L485.5,73.5L500.4,73.5L500.4,50.2L470.3,50.2Z"/>
    <path class="wtc-county" id="wtc-county-butler" data-county="Butler" d="M378.8,190.2L378.8,219.6L420.9,219.5L420.9,210.8L421.1,178.6L399.7,178.7L378.8,178.5L378.8,190.2Z"/>
    <path class="wtc-county" id="wtc-county-chase" data-county="Chase" d="M401.2,149.3L401.2,161.0L400.0,161.0L399.7,178.7L421.1,178.6L432.2,178.7L432.2,172.8L432.5,149.4L401.2,149.3Z"/>
    <path class="wtc-county" id="wtc-county-chautauqua" data-county="Chautauqua" d="M420.9,231.2L420.9,251.6L456.1,251.6L458.5,251.6L458.5,231.4L420.9,231.2Z"/>
    <path class="wtc-county" id="wtc-county-cherokee" data-county="Cherokee" d="M518.2,228.7L518.2,248.3L518.4,251.5L522.8,251.5L548.8,251.6L548.8,247.7L549.0,228.8L518.2,228.7Z"/>
    <path class="wtc-county" id="wtc-county-cheyenne" data-county="Cheyenne" d="M50.0,50.0L50.2,78.8L50.2,79.2L92.9,79.2L93.1,50.1L50.0,50.0Z"/>
    <path class="wtc-county" id="wtc-county-clark" data-county="Clark" d="M180.5,219.6L180.5,225.5L181.5,225.5L181.7,251.4L187.5,251.4L218.6,251.5L218.4,225.9L217.6,225.9L217.6,220.1L202.9,220.1L180.5,219.6Z"/>
    <path class="wtc-county" id="wtc-county-clay" data-county="Clay" d="M364.3,96.7L364.1,108.5L391.5,108.4L391.5,102.5L391.8,79.3L364.3,79.2L364.3,96.7Z"/>
    <path class="wtc-county" id="wtc-county-cloud" data-county="Cloud" d="M326.5,73.4L326.5,79.3L326.7,79.3L326.7,96.7L364.3,96.7L364.3,79.2L364.3,73.4L326.5,73.4Z"/>
    <path class="wtc-county" id="wtc-county-coffey" data-county="Coffey" d="M459.0,173.0L459.0,181.7L488.3,181.8L488.6,167.0L489.3,167.0L489.1,158.2L489.1,155.3L459.4,155.3L459.4,167.0L459.0,173.0Z"/>
    <path class="wtc-county" id="wtc-county-comanche" data-county="Comanche" d="M218.4,225.9L218.6,251.5L224.1,251.5L254.7,251.5L254.7,225.7L254.0,225.7L218.4,225.9Z"/>
    <path class="wtc-county" id="wtc-county-cowley" data-county="Cowley" d="M378.8,219.6L379.2,251.6L405.7,251.6L420.9,251.6L420.9,231.2L420.9,219.5L378.8,219.6Z"/>
    <path class="wtc-county" id="wtc-county-crawford" data-county="Crawford" d="M517.2,206.2L517.2,225.8L518.2,228.7L549.0,228.8L549.0,227.1L549.0,207.7L548.8,206.3L517.2,206.2Z"/>
    <path class="wtc-county" id="wtc-county-decatur" data-county="Decatur" d="M138.2,50.1L138.2,79.2L139.4,79.2L175.7,79.3L175.7,50.1L174.8,50.1L138.2,50.1Z"/>
    <path class="wtc-county" id="wtc-county-dickinson" data-county="Dickinson" d="M364.1,120.1L364.1,143.5L393.7,143.5L393.9,129.9L396.3,129.9L396.3,126.0L393.9,126.0L393.9,118.7L391.5,119.6L391.5,108.4L364.1,108.5L364.1,120.1Z"/>
    <path class="wtc-county" id="wtc-county-doniphan" data-county="Doniphan" d="M500.4,50.2L500.4,73.5L515.6,73.5L516.8,75.7L519.7,76.0L521.3,72.7L525.0,71.6L526.2,67.2L529.3,68.6L531.7,68.3L531.9,65.4L529.0,66.4L528.3,64.3L531.2,63.8L531.5,62.2L527.1,59.3L528.1,57.7L523.7,57.0L520.4,59.3L514.1,58.5L512.9,56.4L509.8,56.7L509.5,54.3L506.4,53.6L502.6,50.2L500.4,50.2Z"/>
    <path class="wtc-county" id="wtc-county-douglas" data-county="Douglas" d="M489.8,113.5L489.5,126.0L489.5,134.8L519.4,134.9L519.4,118.5L518.2,119.7L512.2,118.5L510.7,119.7L510.7,114.3L503.3,114.4L500.4,115.2L493.9,112.6L489.8,113.5Z"/>
    <path class="wtc-county" id="wtc-county-edwards" data-county="Edwards" d="M216.7,190.2L217.4,202.2L254.0,202.3L254.0,196.1L253.3,196.1L253.3,184.4L231.4,184.4L231.4,178.5L216.7,178.5L216.7,190.2Z"/>
    <path class="wtc-county" id="wtc-county-elk" data-county="Elk" d="M420.9,210.8L420.9,219.5L420.9,231.2L458.5,231.4L458.7,225.5L458.7,211.0L420.9,210.8Z"/>
    <path class="wtc-county" id="wtc-county-ellis" data-county="Ellis" d="M215.2,108.4L214.7,137.7L215.7,137.7L252.1,137.6L252.3,127.0L252.3,108.3L251.6,108.4L215.2,108.4Z"/>
    <path class="wtc-county" id="wtc-county-ellsworth" data-county="Ellsworth" d="M289.4,126.0L289.4,137.6L289.6,149.4L327.0,149.3L327.0,143.5L326.7,125.9L289.4,126.0Z"/>
    <path class="wtc-county" id="wtc-county-finney" data-county="Finney" d="M113.8,166.7L113.6,195.9L114.5,195.8L114.5,202.1L143.9,202.1L143.9,195.9L143.2,195.9L143.2,184.3L172.6,184.3L172.6,166.8L171.4,166.8L141.8,166.7L113.8,166.7Z"/>
    <path class="wtc-county" id="wtc-county-ford" data-county="Ford" d="M172.6,190.2L172.6,196.0L173.3,196.0L173.3,219.6L180.5,219.6L202.9,220.1L217.6,220.1L217.4,202.2L216.7,190.2L172.6,190.2Z"/>
    <path class="wtc-county" id="wtc-county-franklin" data-county="Franklin" d="M489.5,134.8L489.1,137.7L489.1,155.3L489.1,158.2L518.9,158.3L518.9,137.8L519.4,134.9L489.5,134.8Z"/>
    <path class="wtc-county" id="wtc-county-geary" data-county="Geary" d="M391.5,108.4L391.5,119.6L393.9,118.7L393.9,126.0L396.3,126.0L422.6,126.0L422.6,114.4L422.6,112.4L408.9,112.4L408.9,111.2L399.0,111.4L400.4,107.9L399.2,107.9L399.2,102.6L391.5,102.5L391.5,108.4Z"/>
    <path class="wtc-county" id="wtc-county-gove" data-county="Gove" d="M133.3,108.3L132.9,137.4L141.5,137.4L171.1,137.6L177.4,137.6L177.9,108.5L176.7,108.5L139.4,108.3L133.3,108.3Z"/>
    <path class="wtc-county" id="wtc-county-graham" data-county="Graham" d="M176.9,79.2L176.7,108.5L177.9,108.5L214.3,108.4L214.5,79.2L212.8,79.2L176.9,79.2Z"/>
    <path class="wtc-county" id="wtc-county-grant" data-county="Grant" d="M85.2,202.1L85.4,225.4L114.5,225.5L114.5,202.1L85.2,202.1Z"/>
    <path class="wtc-county" id="wtc-county-gray" data-county="Gray" d="M172.6,184.3L143.2,184.3L143.2,195.9L143.9,195.9L143.9,202.1L143.9,219.6L173.3,219.6L173.3,196.0L172.6,196.0L172.6,190.2L172.6,184.3Z"/>
    <path class="wtc-county" id="wtc-county-greeley" data-county="Greeley" d="M50.5,143.1L50.5,166.4L50.5,166.8L82.5,166.7L82.5,137.4L50.5,137.6L50.5,143.1Z"/>
    <path class="wtc-county" id="wtc-county-greenwood" data-county="Greenwood" d="M421.1,178.6L420.9,210.8L458.7,211.0L458.7,202.2L459.0,181.7L459.0,173.0L432.2,172.8L432.2,178.7L421.1,178.6Z"/>
    <path class="wtc-county" id="wtc-county-hamilton" data-county="Hamilton" d="M50.5,166.8L50.7,202.0L85.2,202.1L85.4,196.0L84.2,196.0L84.2,166.7L82.5,166.7L50.5,166.8Z"/>
    <path class="wtc-county" id="wtc-county-harper" data-county="Harper" d="M298.6,225.7L298.6,251.6L314.5,251.6L335.2,251.6L335.2,225.7L334.9,225.6L298.6,225.7Z"/>
    <path class="wtc-county" id="wtc-county-harvey" data-county="Harvey" d="M341.9,172.7L341.9,190.4L342.9,190.2L378.8,190.2L378.8,178.5L378.8,172.7L364.1,172.7L341.9,172.7Z"/>
    <path class="wtc-county" id="wtc-county-haskell" data-county="Haskell" d="M114.5,202.1L114.5,225.5L116.0,225.5L143.9,225.5L143.9,219.6L143.9,202.1L114.5,202.1Z"/>
    <path class="wtc-county" id="wtc-county-hodgeman" data-county="Hodgeman" d="M172.6,166.8L172.6,184.3L172.6,190.2L216.7,190.2L216.7,178.5L216.7,166.8L215.7,166.8L172.6,166.8Z"/>
    <path class="wtc-county" id="wtc-county-jackson" data-county="Jackson" d="M453.7,79.3L453.9,98.9L453.7,102.7L483.8,102.8L483.8,89.2L485.0,89.2L485.0,79.3L485.5,73.5L470.3,73.5L470.3,79.3L453.7,79.3Z"/>
    <path class="wtc-county" id="wtc-county-jefferson" data-county="Jefferson" d="M483.8,102.8L483.3,112.9L489.8,113.5L493.9,112.6L500.4,115.2L503.3,114.4L510.7,114.3L511.2,108.6L511.2,89.1L485.0,89.2L483.8,89.2L483.8,102.8Z"/>
    <path class="wtc-county" id="wtc-county-jewell" data-county="Jewell" d="M288.2,50.1L288.0,79.2L289.2,79.2L326.5,79.3L326.5,73.4L326.5,50.1L303.6,50.0L288.2,50.1Z"/>
    <path class="wtc-county" id="wtc-county-johnson" data-county="Johnson" d="M519.4,118.5L519.4,134.9L549.5,134.9L549.5,127.5L549.5,114.3L536.5,114.4L531.9,113.4L529.3,117.8L526.6,118.4L521.8,117.3L519.4,118.5Z"/>
    <path class="wtc-county" id="wtc-county-kearny" data-county="Kearny" d="M84.2,166.7L84.2,196.0L85.4,196.0L85.2,202.1L114.5,202.1L114.5,195.8L113.6,195.9L113.8,166.7L112.1,166.7L84.2,166.7Z"/>
    <path class="wtc-county" id="wtc-county-kingman" data-county="Kingman" d="M290.8,219.9L290.8,225.7L298.6,225.7L334.9,225.6L334.9,219.7L334.9,202.2L290.8,202.4L290.8,219.9Z"/>
    <path class="wtc-county" id="wtc-county-kiowa" data-county="Kiowa" d="M217.4,202.2L217.6,220.1L217.6,225.9L218.4,225.9L254.0,225.7L254.0,219.9L254.0,202.3L217.4,202.2Z"/>
    <path class="wtc-county" id="wtc-county-labette" data-county="Labette" d="M488.3,225.8L488.6,234.6L488.1,251.5L495.8,251.5L518.4,251.5L518.2,248.3L518.2,228.7L517.2,225.8L488.3,225.8Z"/>
    <path class="wtc-county" id="wtc-county-lane" data-county="Lane" d="M141.5,137.4L141.8,166.7L171.4,166.8L171.1,137.6L141.5,137.4Z"/>
    <path class="wtc-county" id="wtc-county-leavenworth" data-county="Leavenworth" d="M511.2,89.1L511.2,108.6L510.7,114.3L510.7,119.7L512.2,118.5L518.2,119.7L519.4,118.5L521.8,117.3L526.6,118.4L529.3,117.8L530.0,103.7L538.4,103.8L534.3,102.7L535.1,101.1L530.7,98.1L529.3,93.5L531.5,92.1L528.3,91.5L525.4,89.2L511.2,89.1Z"/>
    <path class="wtc-county" id="wtc-county-lincoln" data-county="Lincoln" d="M289.2,102.6L289.2,108.4L289.4,108.5L289.4,126.0L326.7,125.9L326.7,120.1L326.7,102.6L289.2,102.6Z"/>
    <path class="wtc-county" id="wtc-county-linn" data-county="Linn" d="M518.9,158.3L518.9,167.0L518.2,167.0L518.0,181.9L549.3,181.9L549.3,180.4L549.3,158.3L518.9,158.3Z"/>
    <path class="wtc-county" id="wtc-county-logan" data-county="Logan" d="M88.5,108.3L88.1,137.4L112.1,137.4L132.9,137.4L133.3,108.3L94.3,108.2L88.5,108.3Z"/>
    <path class="wtc-county" id="wtc-county-lyon" data-county="Lyon" d="M432.5,149.4L432.2,172.8L459.0,173.0L459.4,167.0L459.4,155.3L459.4,137.7L459.7,134.8L432.5,134.8L432.5,149.4Z"/>
    <path class="wtc-county" id="wtc-county-mcpherson" data-county="McPherson" d="M327.0,143.5L327.0,149.3L327.2,172.7L341.9,172.7L364.1,172.7L364.1,143.5L327.0,143.5Z"/>
    <path class="wtc-county" id="wtc-county-marion" data-county="Marion" d="M364.1,143.5L364.1,172.7L378.8,172.7L378.8,178.5L399.7,178.7L400.0,161.0L401.2,161.0L401.2,149.3L393.7,149.3L393.7,143.5L364.1,143.5Z"/>
    <path class="wtc-county" id="wtc-county-marshall" data-county="Marshall" d="M402.1,50.1L402.1,79.3L417.3,79.3L440.2,79.3L440.2,50.2L425.0,50.1L402.1,50.1Z"/>
    <path class="wtc-county" id="wtc-county-meade" data-county="Meade" d="M143.9,219.6L143.9,225.5L145.1,225.5L145.4,251.5L181.7,251.4L181.5,225.5L180.5,225.5L180.5,219.6L173.3,219.6L143.9,219.6Z"/>
    <path class="wtc-county" id="wtc-county-miami" data-county="Miami" d="M519.4,134.9L518.9,137.8L518.9,158.3L549.3,158.3L549.3,152.4L549.5,134.9L519.4,134.9Z"/>
    <path class="wtc-county" id="wtc-county-mitchell" data-county="Mitchell" d="M289.2,79.2L289.2,102.6L326.7,102.6L326.7,96.7L326.7,79.3L326.5,79.3L289.2,79.2Z"/>
    <path class="wtc-county" id="wtc-county-montgomery" data-county="Montgomery" d="M458.5,231.4L458.5,251.6L470.5,251.5L488.1,251.5L488.6,234.6L488.3,225.8L488.1,225.8L458.7,225.5L458.5,231.4Z"/>
    <path class="wtc-county" id="wtc-county-morris" data-county="Morris" d="M396.3,126.0L396.3,129.9L393.9,129.9L393.7,143.5L393.7,149.3L401.2,149.3L432.5,149.4L432.5,134.8L430.1,134.8L430.1,129.0L422.6,129.0L422.6,126.0L396.3,126.0Z"/>
    <path class="wtc-county" id="wtc-county-morton" data-county="Morton" d="M50.7,225.4L50.7,252.0L51.7,252.0L83.5,251.8L83.2,225.4L50.7,225.4Z"/>
    <path class="wtc-county" id="wtc-county-nemaha" data-county="Nemaha" d="M440.2,50.2L440.2,79.3L453.7,79.3L470.3,79.3L470.3,73.5L470.3,50.2L455.3,50.2L440.2,50.2Z"/>
    <path class="wtc-county" id="wtc-county-neosho" data-county="Neosho" d="M488.1,202.4L488.1,225.8L488.3,225.8L517.2,225.8L517.2,206.2L517.2,202.4L488.1,202.4Z"/>
    <path class="wtc-county" id="wtc-county-ness" data-county="Ness" d="M171.1,137.6L171.4,166.8L172.6,166.8L215.7,166.8L215.7,161.0L215.7,137.7L214.7,137.7L177.4,137.6L171.1,137.6Z"/>
    <path class="wtc-county" id="wtc-county-norton" data-county="Norton" d="M175.7,50.1L175.7,79.3L176.9,79.2L212.8,79.2L212.8,50.1L175.7,50.1Z"/>
    <path class="wtc-county" id="wtc-county-osage" data-county="Osage" d="M459.7,134.8L459.4,137.7L459.4,155.3L489.1,155.3L489.1,137.7L489.5,134.8L489.5,126.0L459.7,126.0L459.7,134.8Z"/>
    <path class="wtc-county" id="wtc-county-osborne" data-county="Osborne" d="M251.8,79.2L251.6,108.4L252.3,108.3L289.2,108.4L289.2,102.6L289.2,79.2L288.0,79.2L251.8,79.2Z"/>
    <path class="wtc-county" id="wtc-county-ottawa" data-county="Ottawa" d="M326.7,96.7L326.7,102.6L326.7,120.1L364.1,120.1L364.1,108.5L364.3,96.7L326.7,96.7Z"/>
    <path class="wtc-county" id="wtc-county-pawnee" data-county="Pawnee" d="M215.7,161.0L215.7,166.8L216.7,166.8L216.7,178.5L231.4,178.5L231.4,184.4L253.3,184.4L260.7,184.4L260.7,166.9L252.8,166.8L252.8,161.0L238.1,160.9L215.7,161.0Z"/>
    <path class="wtc-county" id="wtc-county-phillips" data-county="Phillips" d="M212.8,50.1L212.8,79.2L214.5,79.2L250.4,79.2L250.4,50.1L242.9,50.1L212.8,50.1Z"/>
    <path class="wtc-county" id="wtc-county-pottawatomie" data-county="Pottawatomie" d="M417.3,79.3L413.0,82.5L411.3,85.4L408.6,86.3L407.4,90.2L412.7,95.4L413.2,97.7L418.5,101.1L419.0,105.3L425.2,106.0L425.2,104.5L430.1,105.7L433.9,106.6L435.6,104.1L438.0,105.3L440.7,103.1L444.3,104.6L450.5,104.3L453.4,108.8L453.7,102.7L453.9,98.9L453.7,79.3L440.2,79.3L417.3,79.3Z"/>
    <path class="wtc-county" id="wtc-county-pratt" data-county="Pratt" d="M254.0,196.1L254.0,202.3L254.0,219.9L290.8,219.9L290.8,202.4L290.4,196.2L254.0,196.1Z"/>
    <path class="wtc-county" id="wtc-county-rawlins" data-county="Rawlins" d="M93.1,50.1L92.9,79.2L94.6,79.2L138.2,79.2L138.2,50.1L136.9,50.1L98.9,50.0L93.1,50.1Z"/>
    <path class="wtc-county" id="wtc-county-reno" data-county="Reno" d="M290.1,172.8L290.4,196.2L290.8,202.4L334.9,202.2L342.1,202.2L341.9,190.4L341.9,172.7L327.2,172.7L312.5,172.7L312.5,173.7L307.5,173.8L307.5,172.8L290.1,172.8Z"/>
    <path class="wtc-county" id="wtc-county-republic" data-county="Republic" d="M326.5,50.1L326.5,73.4L364.3,73.4L364.3,50.1L334.0,50.1L326.5,50.1Z"/>
    <path class="wtc-county" id="wtc-county-rice" data-county="Rice" d="M289.6,149.4L289.6,166.9L290.4,166.9L290.1,172.8L307.5,172.8L307.5,173.8L312.5,173.7L312.5,172.7L327.2,172.7L327.0,149.3L289.6,149.4Z"/>
    <path class="wtc-county" id="wtc-county-riley" data-county="Riley" d="M391.8,79.3L391.5,102.5L399.2,102.6L399.2,107.9L400.4,107.9L399.0,111.4L408.9,111.2L408.9,112.4L422.6,112.4L422.6,114.4L429.8,114.4L430.1,105.7L425.2,104.5L425.2,106.0L419.0,105.3L418.5,101.1L413.2,97.7L412.7,95.4L407.4,90.2L408.6,86.3L411.3,85.4L413.0,82.5L417.3,79.3L402.1,79.3L391.8,79.3Z"/>
    <path class="wtc-county" id="wtc-county-rooks" data-county="Rooks" d="M214.5,79.2L214.3,108.4L215.2,108.4L251.6,108.4L251.8,79.2L250.4,79.2L214.5,79.2Z"/>
    <path class="wtc-county" id="wtc-county-rush" data-county="Rush" d="M215.7,137.7L215.7,161.0L238.1,160.9L252.8,161.0L252.6,137.6L252.1,137.6L215.7,137.7Z"/>
    <path class="wtc-county" id="wtc-county-russell" data-county="Russell" d="M252.3,108.3L252.3,127.0L252.1,137.6L252.6,137.6L289.4,137.6L289.4,126.0L289.4,108.5L289.2,108.4L252.3,108.3Z"/>
    <path class="wtc-county" id="wtc-county-saline" data-county="Saline" d="M326.7,125.9L327.0,143.5L364.1,143.5L364.1,120.1L326.7,120.1L326.7,125.9Z"/>
    <path class="wtc-county" id="wtc-county-scott" data-county="Scott" d="M112.1,137.4L112.1,166.7L113.8,166.7L141.8,166.7L141.5,137.4L132.9,137.4L112.1,137.4Z"/>
    <path class="wtc-county" id="wtc-county-sedgwick" data-county="Sedgwick" d="M334.9,202.2L334.9,219.7L365.5,219.5L378.8,219.6L378.8,190.2L342.9,190.2L341.9,190.4L342.1,202.2L334.9,202.2Z"/>
    <path class="wtc-county" id="wtc-county-seward" data-county="Seward" d="M116.0,225.5L116.2,251.6L124.4,251.6L145.4,251.5L145.1,225.5L143.9,225.5L116.0,225.5Z"/>
    <path class="wtc-county" id="wtc-county-shawnee" data-county="Shawnee" d="M453.7,102.7L453.4,108.8L459.7,110.7L459.7,126.0L489.5,126.0L489.8,113.5L483.3,112.9L483.8,102.8L453.7,102.7Z"/>
    <path class="wtc-county" id="wtc-county-sheridan" data-county="Sheridan" d="M139.4,79.2L139.4,108.3L176.7,108.5L176.9,79.2L175.7,79.3L139.4,79.2Z"/>
    <path class="wtc-county" id="wtc-county-sherman" data-county="Sherman" d="M50.2,79.2L50.2,97.0L50.5,108.3L88.5,108.3L94.3,108.2L94.6,79.2L92.9,79.2L50.2,79.2Z"/>
    <path class="wtc-county" id="wtc-county-smith" data-county="Smith" d="M250.4,50.1L250.4,79.2L251.8,79.2L288.0,79.2L288.2,50.1L273.3,50.1L250.4,50.1Z"/>
    <path class="wtc-county" id="wtc-county-stafford" data-county="Stafford" d="M253.3,184.4L253.3,196.1L254.0,196.1L290.4,196.2L290.1,172.8L290.4,166.9L289.6,166.9L260.7,166.9L260.7,184.4L253.3,184.4Z"/>
    <path class="wtc-county" id="wtc-county-stanton" data-county="Stanton" d="M50.7,208.3L50.7,225.4L83.2,225.4L85.4,225.4L85.2,202.1L50.7,202.0L50.7,208.3Z"/>
    <path class="wtc-county" id="wtc-county-stevens" data-county="Stevens" d="M83.2,225.4L83.5,251.8L116.2,251.6L116.0,225.5L114.5,225.5L85.4,225.4L83.2,225.4Z"/>
    <path class="wtc-county" id="wtc-county-sumner" data-county="Sumner" d="M334.9,219.7L334.9,225.6L335.2,225.7L335.2,251.6L358.0,251.6L379.2,251.6L378.8,219.6L365.5,219.5L334.9,219.7Z"/>
    <path class="wtc-county" id="wtc-county-thomas" data-county="Thomas" d="M94.6,79.2L94.3,108.2L133.3,108.3L139.4,108.3L139.4,79.2L138.2,79.2L94.6,79.2Z"/>
    <path class="wtc-county" id="wtc-county-trego" data-county="Trego" d="M177.9,108.5L177.4,137.6L214.7,137.7L215.2,108.4L214.3,108.4L177.9,108.5Z"/>
    <path class="wtc-county" id="wtc-county-wabaunsee" data-county="Wabaunsee" d="M422.6,126.0L422.6,129.0L430.1,129.0L430.1,134.8L432.5,134.8L459.7,134.8L459.7,126.0L459.7,110.7L453.4,108.8L450.5,104.3L444.3,104.6L440.7,103.1L438.0,105.3L435.6,104.1L433.9,106.6L430.1,105.7L429.8,114.4L422.6,114.4L422.6,126.0Z"/>
    <path class="wtc-county" id="wtc-county-wallace" data-county="Wallace" d="M50.5,108.3L50.5,114.2L50.5,137.6L82.5,137.4L88.1,137.4L88.5,108.3L50.5,108.3Z"/>
    <path class="wtc-county" id="wtc-county-washington" data-county="Washington" d="M364.3,50.1L364.3,73.4L364.3,79.2L391.8,79.3L402.1,79.3L402.1,50.1L394.7,50.1L364.3,50.1Z"/>
    <path class="wtc-county" id="wtc-county-wichita" data-county="Wichita" d="M82.5,137.4L82.5,166.7L84.2,166.7L112.1,166.7L112.1,137.4L88.1,137.4L82.5,137.4Z"/>
    <path class="wtc-county" id="wtc-county-wilson" data-county="Wilson" d="M458.7,211.0L458.7,225.5L488.1,225.8L488.1,202.4L458.7,202.2L458.7,211.0Z"/>
    <path class="wtc-county" id="wtc-county-woodson" data-county="Woodson" d="M459.0,181.7L458.7,202.2L488.1,202.4L488.3,181.8L459.0,181.7Z"/>
    <path class="wtc-county" id="wtc-county-wyandotte" data-county="Wyandotte" d="M538.4,103.8L530.0,103.7L529.3,117.8L531.9,113.4L536.5,114.4L549.5,114.3L549.5,109.7L550.0,106.6L545.9,106.7L544.7,104.9L542.5,105.9L539.2,105.2L538.4,103.8Z"/>
  </g>
</svg>