<?xml version="1.0" encoding="UTF-8"?>
<svg xmlns="http://www.w3.org/2000/svg" viewBox="0 0 600 302" id="wtc-state-map-KS" role="img" aria-label="ks county map">
  <title>ks Counties</title>
  <g class="wtc-counties">
    <path class="wtc-county" id="wtc-county-allen" data-county="Allen" d="M488.3,120.2L488.1,99.6L517.2,99.6L518.0,105.5L518.0,120.1L488.3,120.2Z"/>
    <path class="wtc-county" id="wtc-county-anderson" data-county="Anderson" d="M489.1,143.8L489.3,135.0L488.6,135.0L488.3,120.2L518.0,120.1L518.2,135.0L518.9,135.0L518.9,143.7L489.1,143.8Z"/>
    <path class="wtc-county" id="wtc-county-atchison" data-county="Atchison" d="M485.5,228.5L485.0,222.6L485.0,212.8L511.2,212.8L525.4,212.8L524.0,214.6L520.1,216.4L519.9,218.1L516.3,220.5L516.0,223.2L520.1,224.6L519.7,226.0L516.8,226.3L515.6,228.5L500.4,228.5L485.5,228.5Z"/>
    <path class="wtc-county" id="wtc-county-barber" data-county="Barber" d="M254.0,82.1L254.0,76.3L254.7,76.3L254.7,50.5L285.3,50.4L298.6,50.3L298.6,76.3L290.8,76.3L290.8,82.1L254.0,82.1Z"/>
    <path class="wtc-county" id="wtc-county-barton" data-county="Barton" d="M252.6,164.4L252.8,141.0L252.8,135.1L260.7,135.1L289.6,135.1L289.6,152.6L289.4,164.4L252.6,164.4Z"/>
    <path class="wtc-county" id="wtc-county-bourbon" data-county="Bourbon" d="M517.2,99.6L517.2,95.8L548.8,95.7L549.3,120.1L518.0,120.1L518.0,105.5L517.2,99.6Z"/>
    <path class="wtc-county" id="wtc-county-brown" data-county="Brown" d="M470.3,251.8L470.3,228.5L485.5,228.5L500.4,228.5L500.4,251.8L470.3,251.8Z"/>
    <path class="wtc-county" id="wtc-county-butler" data-county="Butler" d="M378.8,111.7L378.8,82.4L420.9,82.5L420.9,91.2L421.1,123.4L399.7,123.3L378.8,123.5L378.8,111.7Z"/>
    <path class="wtc-county" id="wtc-county-chase" data-county="Chase" d="M401.2,152.7L401.2,141.0L400.0,141.0L399.7,123.3L421.1,123.4L432.2,123.3L432.2,129.1L432.5,152.6L401.2,152.7Z"/>
    <path class="wtc-county" id="wtc-county-chautauqua" data-county="Chautauqua" d="M420.9,70.8L420.9,50.4L456.1,50.4L458.5,50.4L458.5,70.6L420.9,70.8Z"/>
    <path class="wtc-county" id="wtc-county-cherokee" data-county="Cherokee" d="M518.2,73.3L518.2,53.7L518.4,50.5L522.8,50.5L548.8,50.4L548.8,54.3L549.0,73.2L518.2,73.3Z"/>
    <path class="wtc-county" id="wtc-county-cheyenne" data-county="Cheyenne" d="M50.0,252.0L50.2,223.2L50.2,222.8L92.9,222.8L93.1,251.9L50.0,252.0Z"/>
    <path class="wtc-county" id="wtc-county-clark" data-county="Clark" d="M180.5,82.3L180.5,76.5L181.5,76.5L181.7,50.6L187.5,50.6L218.6,50.5L218.4,76.1L217.6,76.1L217.6,81.9L202.9,81.9L180.5,82.3Z"/>
    <path class="wtc-county" id="wtc-county-clay" data-county="Clay" d="M364.3,205.2L364.1,193.5L391.5,193.6L391.5,199.5L391.8,222.7L364.3,222.8L364.3,205.2Z"/>
    <path class="wtc-county" id="wtc-county-cloud" data-county="Cloud" d="M326.5,228.6L326.5,222.7L326.7,222.7L326.7,205.2L364.3,205.2L364.3,222.8L364.3,228.6L326.5,228.6Z"/>
    <path class="wtc-county" id="wtc-county-coffey" data-county="Coffey" d="M459.0,129.0L459.0,120.3L488.3,120.2L488.6,135.0L489.3,135.0L489.1,143.8L489.1,146.7L459.4,146.7L459.4,135.0L459.0,129.0Z"/>
    <path class="wtc-county" id="wtc-county-comanche" data-county="Comanche" d="M218.4,76.1L218.6,50.5L224.1,50.5L254.7,50.5L254.7,76.3L254.0,76.3L218.4,76.1Z"/>
    <path class="wtc-county" id="wtc-county-cowley" data-county="Cowley" d="M378.8,82.4L379.2,50.4L405.7,50.4L420.9,50.4L420.9,70.8L420.9,82.5L378.8,82.4Z"/>
    <path class="wtc-county" id="wtc-county-crawford" data-county="Crawford" d="M517.2,95.8L517.2,76.2L518.2,73.3L549.0,73.2L549.0,74.9L549.0,94.3L548.8,95.7L517.2,95.8Z"/>
    <path class="wtc-county" id="wtc-county-decatur" data-county="Decatur" d="M138.2,251.9L138.2,222.8L139.4,222.8L175.7,222.7L175.7,251.9L174.8,251.9L138.2,251.9Z"/>
    <path class="wtc-county" id="wtc-county-dickinson" data-county="Dickinson" d="M364.1,181.9L364.1,158.5L393.7,158.5L393.9,172.1L396.3,172.1L396.3,176.0L393.9,176.0L393.9,183.3L391.5,182.4L391.5,193.6L364.1,193.5L364.1,181.9Z"/>
    <path class="wtc-county" id="wtc-county-doniphan" data-county="Doniphan" d="M500.4,251.8L500.4,228.5L515.6,228.5L516.8,226.3L519.7,226.0L521.3,229.3L525.0,230.4L526.2,234.8L529.3,233.4L531.7,233.7L531.9,236.5L529.0,235.6L528.3,237.7L531.2,238.2L531.5,239.8L527.1,242.7L528.1,244.3L523.7,245.0L520.4,242.7L514.1,243.5L512.9,245.6L509.8,245.2L509.5,247.7L506.4,248.4L502.6,251.8L500.4,251.8Z"/>
    <path class="wtc-county" id="wtc-county-douglas" data-county="Douglas" d="M489.8,188.5L489.5,176.0L489.5,167.2L519.4,167.1L519.4,183.5L518.2,182.3L512.2,183.4L510.7,182.3L510.7,187.7L503.3,187.5L500.4,186.8L493.9,189.4L489.8,188.5Z"/>
    <path class="wtc-county" id="wtc-county-edwards" data-county="Edwards" d="M216.7,111.7L217.4,99.8L254.0,99.7L254.0,105.9L253.3,105.9L253.3,117.6L231.4,117.6L231.4,123.4L216.7,123.4L216.7,111.7Z"/>
    <path class="wtc-county" id="wtc-county-elk" data-county="Elk" d="M420.9,91.2L420.9,82.5L420.9,70.8L458.5,70.6L458.7,76.5L458.7,91.0L420.9,91.2Z"/>
    <path class="wtc-county" id="wtc-county-ellis" data-county="Ellis" d="M215.2,193.6L214.7,164.3L215.7,164.3L252.1,164.4L252.3,175.0L252.3,193.6L251.6,193.6L215.2,193.6Z"/>
    <path class="wtc-county" id="wtc-county-ellsworth" data-county="Ellsworth" d="M289.4,176.0L289.4,164.4L289.6,152.6L327.0,152.7L327.0,158.5L326.7,176.1L289.4,176.0Z"/>
    <path class="wtc-county" id="wtc-county-finney" data-county="Finney" d="M113.8,135.3L113.6,106.1L114.5,106.1L114.5,99.9L143.9,99.9L143.9,106.1L143.2,106.1L143.2,117.7L172.6,117.7L172.6,135.2L171.4,135.2L141.8,135.3L113.8,135.3Z"/>
    <path class="wtc-county" id="wtc-county-ford" data-county="Ford" d="M172.6,111.8L172.6,106.0L173.3,106.0L173.3,82.4L180.5,82.3L202.9,81.9L217.6,81.9L217.4,99.8L216.7,111.7L172.6,111.8Z"/>
    <path class="wtc-county" id="wtc-county-franklin" data-county="Franklin" d="M489.5,167.2L489.1,164.3L489.1,146.7L489.1,143.8L518.9,143.7L518.9,164.2L519.4,167.1L489.5,167.2Z"/>
    <path class="wtc-county" id="wtc-county-geary" data-county="Geary" d="M391.5,193.6L391.5,182.4L393.9,183.3L393.9,176.0L396.3,176.0L422.6,176.0L422.6,187.6L422.6,189.6L408.9,189.6L408.9,190.8L399.0,190.6L400.4,194.1L399.2,194.1L399.2,199.4L391.5,199.5L391.5,193.6Z"/>
    <path class="wtc-county" id="wtc-county-gove" data-county="Gove" d="M133.3,193.6L132.9,164.5L141.5,164.5L171.1,164.4L177.4,164.4L177.9,193.5L176.7,193.5L139.4,193.6L133.3,193.6Z"/>
    <path class="wtc-county" id="wtc-county-graham" data-county="Graham" d="M176.9,222.8L176.7,193.5L177.9,193.5L214.3,193.6L214.5,222.8L212.8,222.8L176.9,222.8Z"/>
    <path class="wtc-county" id="wtc-county-grant" data-county="Grant" d="M85.2,99.9L85.4,76.6L114.5,76.5L114.5,99.9L85.2,99.9Z"/>
    <path class="wtc-county" id="wtc-county-gray" data-county="Gray" d="M172.6,117.7L143.2,117.7L143.2,106.1L143.9,106.1L143.9,99.9L143.9,82.3L173.3,82.4L173.3,106.0L172.6,106.0L172.6,111.8L172.6,117.7Z"/>
    <path class="wtc-county" id="wtc-county-greeley" data-county="Greeley" d="M50.5,158.9L50.5,135.6L50.5,135.2L82.5,135.3L82.5,164.5L50.5,164.4L50.5,158.9Z"/>
    <path class="wtc-county" id="wtc-county-greenwood" data-county="Greenwood" d="M421.1,123.4L420.9,91.2L458.7,91.0L458.7,99.7L459.0,120.3L459.0,129.0L432.2,129.1L432.2,123.3L421.1,123.4Z"/>
    <path class="wtc-county" id="wtc-county-hamilton" data-county="Hamilton" d="M50.5,135.2L50.7,100.0L85.2,99.9L85.4,106.0L84.2,106.0L84.2,135.3L82.5,135.3L50.5,135.2Z"/>
    <path class="wtc-county" id="wtc-county-harper" data-county="Harper" d="M298.6,76.3L298.6,50.3L314.5,50.3L335.2,50.4L335.2,76.3L334.9,76.4L298.6,76.3Z"/>
    <path class="wtc-county" id="wtc-county-harvey" data-county="Harvey" d="M341.9,129.3L341.9,111.6L342.9,111.7L378.8,111.7L378.8,123.5L378.8,129.3L364.1,129.3L341.9,129.3Z"/>
    <path class="wtc-county" id="wtc-county-haskell" data-county="Haskell" d="M114.5,99.9L114.5,76.5L116.0,76.5L143.9,76.5L143.9,82.3L143.9,99.9L114.5,99.9Z"/>
    <path class="wtc-county" id="wtc-county-hodgeman" data-county="Hodgeman" d="M172.6,135.2L172.6,117.7L172.6,111.8L216.7,111.7L216.7,123.4L216.7,135.2L215.7,135.2L172.6,135.2Z"/>
    <path class="wtc-county" id="wtc-county-jackson" data-county="Jackson" d="M453.7,222.7L453.9,203.1L453.7,199.2L483.8,199.2L483.8,212.8L485.0,212.8L485.0,222.6L485.5,228.5L470.3,228.5L470.3,222.6L453.7,222.7Z"/>
    <path class="wtc-county" id="wtc-county-jefferson" data-county="Jefferson" d="M483.8,199.2L483.3,189.0L489.8,188.5L493.9,189.4L500.4,186.8L503.3,187.5L510.7,187.7L511.2,193.4L511.2,212.8L485.0,212.8L483.8,212.8L483.8,199.2Z"/>
    <path class="wtc-county" id="wtc-county-jewell" data-county="Jewell" d="M288.2,251.9L288.0,222.8L289.2,222.8L326.5,222.7L326.5,228.6L326.5,251.9L303.6,252.0L288.2,251.9Z"/>
    <path class="wtc-county" id="wtc-county-johnson" data-county="Johnson" d="M519.4,183.5L519.4,167.1L549.5,167.1L549.5,174.5L549.5,187.7L536.5,187.6L531.9,188.6L529.3,184.1L526.6,183.6L521.8,184.7L519.4,183.5Z"/>
    <path class="wtc-county" id="wtc-county-kearny" data-county="Kearny" d="M84.2,135.3L84.2,106.0L85.4,106.0L85.2,99.9L114.5,99.9L114.5,106.1L113.6,106.1L113.8,135.3L112.1,135.3L84.2,135.3Z"/>
    <path class="wtc-county" id="wtc-county-kingman" data-county="Kingman" d="M290.8,82.1L290.8,76.3L298.6,76.3L334.9,76.4L334.9,82.3L334.9,99.7L290.8,99.6L290.8,82.1Z"/>
    <path class="wtc-county" id="wtc-county-kiowa" data-county="Kiowa" d="M217.4,99.8L217.6,81.9L217.6,76.1L218.4,76.1L254.0,76.3L254.0,82.1L254.0,99.7L217.4,99.8Z"/>
    <path class="wtc-county" id="wtc-county-labette" data-county="Labette" d="M488.3,76.2L488.6,67.4L488.1,50.5L495.8,50.5L518.4,50.5L518.2,53.7L518.2,73.3L517.2,76.2L488.3,76.2Z"/>
    <path class="wtc-county" id="wtc-county-lane" data-county="Lane" d="M141.5,164.5L141.8,135.3L171.4,135.2L171.1,164.4L141.5,164.5Z"/>
    <path class="wtc-county" id="wtc-county-leavenworth" data-county="Leavenworth" d="M511.2,212.8L511.2,193.4L510.7,187.7L510.7,182.3L512.2,183.4L518.2,182.3L519.4,183.5L521.8,184.7L526.6,183.6L529.3,184.1L530.0,198.3L538.4,198.1L534.3,199.3L535.1,200.9L530.7,203.9L529.3,208.5L531.5,209.9L528.3,210.5L525.4,212.8L511.2,212.8Z"/>
    <path class="wtc-county" id="wtc-county-lincoln" data-county="Lincoln" d="M289.2,199.4L289.2,193.6L289.4,193.5L289.4,176.0L326.7,176.1L326.7,181.9L326.7,199.4L289.2,199.4Z"/>
    <path class="wtc-county" id="wtc-county-linn" data-county="Linn" d="M518.9,143.7L518.9,135.0L518.2,135.0L518.0,120.1L549.3,120.1L549.3,121.6L549.3,143.7L518.9,143.7Z"/>
    <path class="wtc-county" id="wtc-county-logan" data-county="Logan" d="M88.5,193.7L88.1,164.6L112.1,164.6L132.9,164.5L133.3,193.6L94.3,193.8L88.5,193.7Z"/>
    <path class="wtc-county" id="wtc-county-lyon" data-county="Lyon" d="M432.5,152.6L432.2,129.1L459.0,129.0L459.4,135.0L459.4,146.7L459.4,164.3L459.7,167.2L432.5,167.2L432.5,152.6Z"/>
    <path class="wtc-county" id="wtc-county-mcpherson" data-county="McPherson" d="M327.0,158.5L327.0,152.7L327.2,129.3L341.9,129.3L364.1,129.3L364.1,158.5L327.0,158.5Z"/>
    <path class="wtc-county" id="wtc-county-marion" data-county="Marion" d="M364.1,158.5L364.1,129.3L378.8,129.3L378.8,123.5L399.7,123.3L400.0,141.0L401.2,141.0L401.2,152.7L393.7,152.7L393.7,158.5L364.1,158.5Z"/>
    <path class="wtc-county" id="wtc-county-marshall" data-county="Marshall" d="M402.1,251.9L402.1,222.7L417.3,222.7L440.2,222.7L440.2,251.8L425.0,251.9L402.1,251.9Z"/>
    <path class="wtc-county" id="wtc-county-meade" data-county="Meade" d="M143.9,82.3L143.9,76.5L145.1,76.5L145.4,50.5L181.7,50.6L181.5,76.5L180.5,76.5L180.5,82.3L173.3,82.4L143.9,82.3Z"/>
    <path class="wtc-county" id="wtc-county-miami" data-county="Miami" d="M519.4,167.1L518.9,164.2L518.9,143.7L549.3,143.7L549.3,149.6L549.5,167.1L519.4,167.1Z"/>
    <path class="wtc-county" id="wtc-county-mitchell" data-county="Mitchell" d="M289.2,222.8L289.2,199.4L326.7,199.4L326.7,205.2L326.7,222.7L326.5,222.7L289.2,222.8Z"/>
    <path class="wtc-county" id="wtc-county-montgomery" data-county="Montgomery" d="M458.5,70.6L458.5,50.4L470.5,50.5L488.1,50.5L488.6,67.4L488.3,76.2L488.1,76.2L458.7,76.5L458.5,70.6Z"/>
    <path class="wtc-county" id="wtc-county-morris" data-county="Morris" d="M396.3,176.0L396.3,172.1L393.9,172.1L393.7,158.5L393.7,152.7L401.2,152.7L432.5,152.6L432.5,167.2L430.1,167.2L430.1,173.0L422.6,173.0L422.6,176.0L396.3,176.0Z"/>
    <path class="wtc-county" id="wtc-county-morton" data-county="Morton" d="M50.7,76.6L50.7,50.0L51.7,50.0L83.5,50.2L83.2,76.6L50.7,76.6Z"/>
    <path class="wtc-county" id="wtc-county-nemaha" data-county="Nemaha" d="M440.2,251.8L440.2,222.7L453.7,222.7L470.3,222.6L470.3,228.5L470.3,251.8L455.3,251.8L440.2,251.8Z"/>
    <path class="wtc-county" id="wtc-county-neosho" data-county="Neosho" d="M488.1,99.6L488.1,76.2L488.3,76.2L517.2,76.2L517.2,95.8L517.2,99.6L488.1,99.6Z"/>
    <path class="wtc-county" id="wtc-county-ness" data-county="Ness" d="M171.1,164.4L171.4,135.2L172.6,135.2L215.7,135.2L215.7,141.0L215.7,164.3L214.7,164.3L177.4,164.4L171.1,164.4Z"/>
    <path class="wtc-county" id="wtc-county-norton" data-county="Norton" d="M175.7,251.9L175.7,222.7L176.9,222.8L212.8,222.8L212.8,251.9L175.7,251.9Z"/>
    <path class="wtc-county" id="wtc-county-osage" data-county="Osage" d="M459.7,167.2L459.4,164.3L459.4,146.7L489.1,146.7L489.1,164.3L489.5,167.2L489.5,176.0L459.7,176.0L459.7,167.2Z"/>
    <path class="wtc-county" id="wtc-county-osborne" data-county="Osborne" d="M251.8,222.8L251.6,193.6L252.3,193.6L289.2,193.6L289.2,199.4L289.2,222.8L288.0,222.8L251.8,222.8Z"/>
    <path class="wtc-county" id="wtc-county-ottawa" data-county="Ottawa" d="M326.7,205.2L326.7,199.4L326.7,181.9L364.1,181.9L364.1,193.5L364.3,205.2L326.7,205.2Z"/>
    <path class="wtc-county" id="wtc-county-pawnee" data-county="Pawnee" d="M215.7,141.0L215.7,135.2L216.7,135.2L216.7,123.4L231.4,123.4L231.4,117.6L253.3,117.6L260.7,117.6L260.7,135.1L252.8,135.1L252.8,141.0L238.1,141.1L215.7,141.0Z"/>
    <path class="wtc-county" id="wtc-county-phillips" data-county="Phillips" d="M212.8,251.9L212.8,222.8L214.5,222.8L250.4,222.8L250.4,251.9L242.9,251.9L212.8,251.9Z"/>
    <path class="wtc-county" id="wtc-county-pottawatomie" data-county="Pottawatomie" d="M417.3,222.7L413.0,219.5L411.3,216.6L408.6,215.7L407.4,211.8L412.7,206.6L413.2,204.3L418.5,200.9L419.0,196.7L425.2,196.0L425.2,197.5L430.1,196.3L433.9,195.4L435.6,197.9L438.0,196.7L440.7,198.9L444.3,197.3L450.5,197.7L453.4,193.2L453.7,199.2L453.9,203.1L453.7,222.7L440.2,222.7L417.3,222.7Z"/>
    <path class="wtc-county" id="wtc-county-pratt" data-county="Pratt" d="M254.0,105.9L254.0,99.7L254.0,82.1L290.8,82.1L290.8,99.6L290.4,105.8L254.0,105.9Z"/>
    <path class="wtc-county" id="wtc-county-rawlins" data-county="Rawlins" d="M93.1,251.9L92.9,222.8L94.6,222.8L138.2,222.8L138.2,251.9L136.9,251.9L98.9,252.0L93.1,251.9Z"/>
    <path class="wtc-county" id="wtc-county-reno" data-county="Reno" d="M290.1,129.2L290.4,105.8L290.8,99.6L334.9,99.7L342.1,99.8L341.9,111.6L341.9,129.3L327.2,129.3L312.5,129.3L312.5,128.3L307.5,128.2L307.5,129.2L290.1,129.2Z"/>
    <path class="wtc-county" id="wtc-county-republic" data-county="Republic" d="M326.5,251.9L326.5,228.6L364.3,228.6L364.3,251.9L334.0,251.9L326.5,251.9Z"/>
    <path class="wtc-county" id="wtc-county-rice" data-county="Rice" d="M289.6,152.6L289.6,135.1L290.4,135.1L290.1,129.2L307.5,129.2L307.5,128.2L312.5,128.3L312.5,129.3L327.2,129.3L327.0,152.7L289.6,152.6Z"/>
    <path class="wtc-county" id="wtc-county-riley" data-county="Riley" d="M391.8,222.7L391.5,199.5L399.2,199.4L399.2,194.1L400.4,194.1L399.0,190.6L408.9,190.8L408.9,189.6L422.6,189.6L422.6,187.6L429.8,187.6L430.1,196.3L425.2,197.5L425.2,196.0L419.0,196.7L418.5,200.9L413.2,204.3L412.7,206.6L407.4,211.8L408.6,215.7L411.3,216.6L413.0,219.5L417.3,222.7L402.1,222.7L391.8,222.7Z"/>
    <path class="wtc-county" id="wtc-county-rooks" data-county="Rooks" d="M214.5,222.8L214.3,193.6L215.2,193.6L251.6,193.6L251.8,222.8L250.4,222.8L214.5,222.8Z"/>
    <path class="wtc-county" id="wtc-county-rush" data-county="Rush" d="M215.7,164.3L215.7,141.0L238.1,141.1L252.8,141.0L252.6,164.4L252.1,164.4L215.7,164.3Z"/>
    <path class="wtc-county" id="wtc-county-russell" data-county="Russell" d="M252.3,193.6L252.3,175.0L252.1,164.4L252.6,164.4L289.4,164.4L289.4,176.0L289.4,193.5L289.2,193.6L252.3,193.6Z"/>
    <path class="wtc-county" id="wtc-county-saline" data-county="Saline" d="M326.7,176.1L327.0,158.5L364.1,158.5L364.1,181.9L326.7,181.9L326.7,176.1Z"/>
    <path class="wtc-county" id="wtc-county-scott" data-county="Scott" d="M112.1,164.6L112.1,135.3L113.8,135.3L141.8,135.3L141.5,164.5L132.9,164.5L112.1,164.6Z"/>
    <path class="wtc-county" id="wtc-county-sedgwick" data-county="Sedgwick" d="M334.9,99.7L334.9,82.3L365.5,82.5L378.8,82.4L378.8,111.7L342.9,111.7L341.9,111.6L342.1,99.8L334.9,99.7Z"/>
    <path class="wtc-county" id="wtc-county-seward" data-county="Seward" d="M116.0,76.5L116.2,50.3L124.4,50.3L145.4,50.5L145.1,76.5L143.9,76.5L116.0,76.5Z"/>
    <path class="wtc-county" id="wtc-county-shawnee" data-county="Shawnee" d="M453.7,199.2L453.4,193.2L459.7,191.3L459.7,176.0L489.5,176.0L489.8,188.5L483.3,189.0L483.8,199.2L453.7,199.2Z"/>
    <path class="wtc-county" id="wtc-county-sheridan" data-county="Sheridan" d="M139.4,222.8L139.4,193.6L176.7,193.5L176.9,222.8L175.7,222.7L139.4,222.8Z"/>
    <path class="wtc-county" id="wtc-county-sherman" data-county="Sherman" d="M50.2,222.8L50.2,205.0L50.5,193.6L88.5,193.7L94.3,193.8L94.6,222.8L92.9,222.8L50.2,222.8Z"/>
    <path class="wtc-county" id="wtc-county-smith" data-county="Smith" d="M250.4,251.9L250.4,222.8L251.8,222.8L288.0,222.8L288.2,251.9L273.3,251.9L250.4,251.9Z"/>
    <path class="wtc-county" id="wtc-county-stafford" data-county="Stafford" d="M253.3,117.6L253.3,105.9L254.0,105.9L290.4,105.8L290.1,129.2L290.4,135.1L289.6,135.1L260.7,135.1L260.7,117.6L253.3,117.6Z"/>
    <path class="wtc-county" id="wtc-county-stanton" data-county="Stanton" d="M50.7,93.7L50.7,76.6L83.2,76.6L85.4,76.6L85.2,99.9L50.7,100.0L50.7,93.7Z"/>
    <path class="wtc-county" id="wtc-county-stevens" data-county="Stevens" d="M83.2,76.6L83.5,50.2L116.2,50.3L116.0,76.5L114.5,76.5L85.4,76.6L83.2,76.6Z"/>
    <path class="wtc-county" id="wtc-county-sumner" data-county="Sumner" d="M334.9,82.3L334.9,76.4L335.2,76.3L335.2,50.4L358.0,50.4L379.2,50.4L378.8,82.4L365.5,82.5L334.9,82.3Z"/>
    <path class="wtc-county" id="wtc-county-thomas" data-county="Thomas" d="M94.6,222.8L94.3,193.8L133.3,193.6L139.4,193.6L139.4,222.8L138.2,222.8L94.6,222.8Z"/>
    <path class="wtc-county" id="wtc-county-trego" data-county="Trego" d="M177.9,193.5L177.4,164.4L214.7,164.3L215.2,193.6L214.3,193.6L177.9,193.5Z"/>
    <path class="wtc-county" id="wtc-county-wabaunsee" data-county="Wabaunsee" d="M422.6,176.0L422.6,173.0L430.1,173.0L430.1,167.2L432.5,167.2L459.7,167.2L459.7,176.0L459.7,191.3L453.4,193.2L450.5,197.7L444.3,197.3L440.7,198.9L438.0,196.7L435.6,197.9L433.9,195.4L430.1,196.3L429.8,187.6L422.6,187.6L422.6,176.0Z"/>
    <path class="wtc-county" id="wtc-county-wallace" data-county="Wallace" d="M50.5,193.6L50.5,187.8L50.5,164.4L82.5,164.5L88.1,164.6L88.5,193.7L50.5,193.6Z"/>
    <path class="wtc-county" id="wtc-county-washington" data-county="Washington" d="M364.3,251.9L364.3,228.6L364.3,222.8L391.8,222.7L402.1,222.7L402.1,251.9L394.7,251.9L364.3,251.9Z"/>
    <path class="wtc-county" id="wtc-county-wichita" data-county="Wichita" d="M82.5,164.5L82.5,135.3L84.2,135.3L112.1,135.3L112.1,164.6L88.1,164.6L82.5,164.5Z"/>
    <path class="wtc-county" id="wtc-county-wilson" data-county="Wilson" d="M458.7,91.0L458.7,76.5L488.1,76.2L488.1,99.6L458.7,99.7L458.7,91.0Z"/>
    <path class="wtc-county" id="wtc-county-woodson" data-county="Woodson" d="M459.0,120.3L458.7,99.7L488.1,99.6L488.3,120.2L459.0,120.3Z"/>
    <path class="wtc-county" id="wtc-county-wyandotte" data-county="Wyandotte" d="M538.4,198.1L530.0,198.3L529.3,184.1L531.9,188.6L536.5,187.6L549.5,187.7L549.5,192.3L550.0,195.4L545.9,195.3L544.7,197.1L542.5,196.1L539.2,196.8L538.4,198.1Z"/>
  </g>
</svg>