<?xml version="1.0" encoding="UTF-8"?>
<svg xmlns="http://www.w3.org/2000/svg" viewBox="0 0 600 449" id="wtc-state-map-WV" role="img" aria-label="wv county map">
  <title>wv Counties</title>
  <g class="wtc-counties">
    <path class="wtc-county" id="wtc-county-barbour" data-county="Barbour" d="M301.5,191.9L295.3,199.2L295.3,205.1L301.1,207.7L305.1,212.7L312.8,212.8L312.8,219.1L309.5,222.0L328.8,219.3L332.1,209.2L336.1,204.9L334.7,203.3L337.6,193.2L333.6,191.5L332.5,187.7L328.8,186.2L324.8,186.4L322.3,189.3L316.1,191.4L301.5,191.9Z"/>
    <path class="wtc-county" id="wtc-county-berkeley" data-county="Berkeley" d="M519.3,153.6L512.0,157.4L507.7,156.2L498.5,176.8L518.2,189.7L524.8,179.3L528.8,177.9L537.2,171.2L539.4,166.4L539.4,162.8L535.8,164.3L532.8,159.9L538.7,158.6L538.7,155.3L533.6,155.7L527.4,153.7L520.8,155.4L519.3,153.6Z"/>
    <path class="wtc-county" id="wtc-county-boone" data-county="Boone" d="M121.9,315.7L116.8,319.6L124.1,320.9L129.2,323.6L137.2,325.0L139.4,329.9L137.2,331.8L143.1,337.6L150.7,335.5L154.7,339.7L158.0,342.4L164.2,339.6L164.2,336.8L159.5,334.4L159.5,326.6L161.7,321.2L165.0,319.5L170.1,319.6L169.7,315.5L166.8,311.4L162.0,310.6L164.2,306.9L158.8,304.4L155.5,300.6L150.7,299.5L151.1,295.9L142.7,295.8L141.6,298.2L138.7,295.2L131.8,297.0L129.9,300.7L126.3,301.2L127.4,304.4L122.3,302.8L119.7,306.2L117.9,313.2L121.9,315.7Z"/>
    <path class="wtc-county" id="wtc-county-braxton" data-county="Braxton" d="M218.2,245.3L213.5,250.4L219.0,254.7L219.7,258.0L224.1,259.4L224.8,262.9L228.8,266.7L238.3,261.6L242.0,264.8L245.3,263.7L252.2,264.8L266.4,252.7L271.9,243.1L273.0,239.2L269.0,236.9L270.1,233.6L265.0,230.6L259.1,231.0L256.6,226.4L252.9,228.4L250.0,227.5L218.2,245.3Z"/>
    <path class="wtc-county" id="wtc-county-brooke" data-county="Brooke" d="M254.4,74.8L256.6,77.3L257.3,82.3L255.5,88.0L251.8,90.0L248.9,96.0L257.7,96.9L265.3,98.7L265.7,74.3L254.4,74.8Z"/>
    <path class="wtc-county" id="wtc-county-cabell" data-county="Cabell" d="M63.1,276.5L79.6,287.2L82.8,284.6L86.9,287.4L83.9,288.3L84.3,293.9L88.0,295.0L90.5,290.7L93.8,288.9L97.1,283.7L102.9,283.3L105.1,281.0L110.2,280.3L109.5,270.0L92.7,258.2L85.8,259.0L83.9,268.4L82.1,272.7L73.7,273.6L63.1,276.5Z"/>
    <path class="wtc-county" id="wtc-county-calhoun" data-county="Calhoun" d="M200.0,213.5L188.7,223.1L188.3,225.3L192.3,228.7L194.2,232.5L193.4,237.6L199.3,243.0L200.4,252.8L206.2,253.4L208.0,256.1L213.5,250.4L218.2,245.3L216.8,242.3L210.9,237.6L216.4,232.3L215.3,224.4L216.1,220.6L213.1,215.6L206.2,214.4L202.9,212.0L200.0,213.5Z"/>
    <path class="wtc-county" id="wtc-county-clay" data-county="Clay" d="M196.7,264.6L188.0,270.2L190.9,280.4L193.1,291.5L225.5,276.1L235.0,269.6L228.8,266.7L224.8,262.9L224.1,259.4L219.7,258.0L219.0,254.7L213.5,250.4L208.0,256.1L203.3,260.8L196.7,264.6Z"/>
    <path class="wtc-county" id="wtc-county-doddridge" data-county="Doddridge" d="M227.7,186.7L225.2,188.9L235.8,205.5L244.2,206.9L247.1,207.4L251.5,202.3L257.7,199.6L264.6,196.7L260.6,194.1L262.8,192.7L256.9,187.5L264.2,180.0L262.8,179.4L262.8,173.0L255.5,170.8L251.5,172.6L245.6,172.9L243.8,176.4L233.9,181.7L227.7,186.7Z"/>
    <path class="wtc-county" id="wtc-county-fayette" data-county="Fayette" d="M177.7,321.4L181.4,320.7L185.8,325.1L186.5,329.5L209.1,330.9L210.9,335.0L219.0,335.3L222.3,336.7L236.1,331.6L242.0,332.1L235.8,323.5L240.1,319.8L237.2,315.7L233.9,315.1L236.9,311.9L230.3,312.4L227.4,310.2L228.5,307.8L221.5,301.2L222.3,298.6L218.2,295.6L215.7,297.4L210.6,295.6L209.1,298.3L202.9,294.4L201.1,295.3L193.1,291.5L182.8,301.9L177.7,321.4Z"/>
    <path class="wtc-county" id="wtc-county-gilmer" data-county="Gilmer" d="M213.1,215.6L216.1,220.6L215.3,224.4L216.4,232.3L210.9,237.6L216.8,242.3L218.2,245.3L250.0,227.5L252.9,228.4L256.6,226.4L245.3,215.8L244.2,206.9L235.8,205.5L233.2,208.3L225.5,211.9L213.1,215.6Z"/>
    <path class="wtc-county" id="wtc-county-grant" data-county="Grant" d="M370.4,195.7L370.4,196.8L372.3,198.4L388.7,195.3L390.5,197.4L386.1,201.6L383.9,207.8L389.8,209.2L385.4,219.7L383.6,220.2L384.3,220.9L406.2,235.6L415.3,223.9L410.9,212.7L417.2,202.2L416.4,201.4L421.9,192.5L406.2,184.9L392.3,183.1L390.5,186.2L386.1,186.1L374.1,195.1L370.4,195.7Z"/>
    <path class="wtc-county" id="wtc-county-greenbrier" data-county="Greenbrier" d="M228.5,307.8L227.4,310.2L230.3,312.4L236.9,311.9L233.9,315.1L237.2,315.7L240.1,319.8L235.8,323.5L242.0,332.1L236.1,331.6L242.0,335.0L250.4,342.4L250.7,345.6L266.8,349.7L272.6,350.5L278.1,347.1L279.2,349.5L288.3,349.6L292.7,346.2L292.0,343.1L299.6,333.3L312.4,323.1L317.2,319.7L322.3,311.8L307.3,312.6L301.1,314.6L291.2,313.5L281.4,306.6L281.8,295.4L273.7,291.1L264.2,298.1L246.0,310.2L228.5,307.8Z"/>
    <path class="wtc-county" id="wtc-county-hampshire" data-county="Hampshire" d="M454.7,162.2L447.4,169.5L443.4,171.2L435.0,183.0L431.8,183.2L427.4,188.3L421.9,192.5L430.3,196.4L447.1,201.4L450.7,201.6L458.4,204.5L460.2,202.3L464.6,203.2L470.1,207.6L474.8,205.0L480.7,199.6L477.0,196.5L481.0,191.8L478.8,190.5L487.2,181.2L484.7,180.2L486.9,177.1L485.0,174.6L486.5,169.2L474.1,164.1L463.9,163.7L461.3,162.2L454.7,162.2Z"/>
    <path class="wtc-county" id="wtc-county-hancock" data-county="Hancock" d="M250.4,55.7L254.4,60.5L257.7,67.8L254.4,74.8L265.7,74.3L265.3,66.4L265.3,50.0L258.8,52.4L253.6,52.3L250.4,55.7Z"/>
    <path class="wtc-county" id="wtc-county-hardy" data-county="Hardy" d="M421.9,192.5L416.4,201.4L417.2,202.2L410.9,212.7L415.3,223.9L406.2,235.6L414.2,240.9L420.4,231.9L433.2,240.7L440.5,229.3L448.9,223.1L448.9,226.3L452.6,224.2L458.0,218.4L460.6,220.2L465.7,214.7L463.5,213.3L466.4,210.9L470.1,207.6L464.6,203.2L460.2,202.3L458.4,204.5L450.7,201.6L447.1,201.4L430.3,196.4L421.9,192.5Z"/>
    <path class="wtc-county" id="wtc-county-harrison" data-county="Harrison" d="M262.8,173.0L262.8,179.4L264.2,180.0L256.9,187.5L262.8,192.7L260.6,194.1L264.6,196.7L257.7,199.6L287.6,206.1L295.3,205.1L295.3,199.2L301.5,191.9L297.8,189.1L298.2,176.7L289.4,172.4L267.9,168.9L265.7,172.4L262.8,173.0Z"/>
    <path class="wtc-county" id="wtc-county-jackson" data-county="Jackson" d="M124.1,229.0L136.1,243.7L133.9,245.6L138.0,249.1L140.5,248.8L145.6,254.6L152.2,261.9L163.5,256.0L160.9,249.9L163.5,234.4L163.1,226.6L165.3,225.0L160.6,220.0L162.4,216.1L157.3,214.0L140.5,206.9L133.9,208.3L135.0,212.0L138.7,214.6L137.2,224.3L133.9,222.1L130.7,223.8L129.6,227.5L124.1,229.0Z"/>
    <path class="wtc-county" id="wtc-county-jefferson" data-county="Jefferson" d="M539.4,166.4L537.2,171.2L528.8,177.9L524.8,179.3L518.2,189.7L539.1,203.1L546.7,187.8L550.0,183.9L546.4,182.7L548.5,177.2L546.7,173.4L543.4,172.4L542.3,167.7L539.4,166.4Z"/>
    <path class="wtc-county" id="wtc-county-kanawha" data-county="Kanawha" d="M145.6,254.6L139.8,259.2L139.8,265.1L142.7,270.9L129.9,275.4L125.2,277.7L123.4,285.1L133.6,286.2L135.0,291.4L134.3,295.9L131.8,297.0L138.7,295.2L141.6,298.2L142.7,295.8L151.1,295.9L150.7,299.5L155.5,300.6L158.8,304.4L164.2,306.9L162.0,310.6L166.8,311.4L169.7,315.5L170.1,319.6L172.3,321.6L177.7,321.4L182.8,301.9L193.1,291.5L190.9,280.4L188.0,270.2L196.7,264.6L188.7,265.2L185.8,263.9L169.3,262.3L163.5,256.0L152.2,261.9L145.6,254.6Z"/>
    <path class="wtc-county" id="wtc-county-lewis" data-county="Lewis" d="M244.2,206.9L245.3,215.8L256.6,226.4L259.1,231.0L265.0,230.6L270.1,233.6L269.0,236.9L273.0,239.2L271.9,243.1L278.5,244.4L276.6,240.2L278.8,229.3L281.0,228.1L282.8,222.7L285.8,221.1L285.8,215.3L287.6,206.1L257.7,199.6L251.5,202.3L247.1,207.4L244.2,206.9Z"/>
    <path class="wtc-county" id="wtc-county-lincoln" data-county="Lincoln" d="M83.9,324.0L95.6,320.9L110.2,316.8L121.9,315.7L117.9,313.2L119.7,306.2L122.3,302.8L127.4,304.4L126.3,301.2L129.9,300.7L131.8,297.0L134.3,295.9L135.0,291.4L133.6,286.2L123.4,285.1L115.3,291.2L109.9,288.8L110.2,280.3L105.1,281.0L102.9,283.3L97.1,283.7L93.8,288.9L90.5,290.7L88.0,295.0L85.8,303.6L88.3,307.3L95.3,313.6L83.9,324.0Z"/>
    <path class="wtc-county" id="wtc-county-logan" data-county="Logan" d="M95.6,320.9L98.2,327.2L102.2,328.6L103.6,332.6L100.0,334.6L104.0,338.5L104.0,343.7L106.6,348.7L110.6,348.7L115.7,354.2L117.2,352.1L123.7,350.8L124.8,352.8L128.5,350.9L135.0,352.8L145.3,348.7L138.7,343.6L146.0,341.2L154.7,339.7L150.7,335.5L143.1,337.6L137.2,331.8L139.4,329.9L137.2,325.0L129.2,323.6L124.1,320.9L116.8,319.6L121.9,315.7L110.2,316.8L95.6,320.9Z"/>
    <path class="wtc-county" id="wtc-county-mcdowell" data-county="McDowell" d="M122.3,367.9L115.7,370.8L116.1,373.7L121.5,375.6L122.3,383.5L127.4,386.2L129.9,390.8L136.5,391.0L140.9,393.2L141.6,395.7L147.8,399.5L160.2,398.9L165.0,396.3L165.7,393.7L174.1,392.2L177.0,387.4L179.9,385.6L185.0,376.8L178.5,374.9L176.3,372.8L172.6,374.3L169.7,370.8L162.8,371.6L155.5,369.9L152.9,367.3L149.3,366.9L144.5,369.6L133.6,368.5L129.6,364.2L122.3,367.9Z"/>
    <path class="wtc-county" id="wtc-county-marion" data-county="Marion" d="M278.1,151.9L274.1,151.6L272.3,156.0L269.7,155.9L267.5,159.4L270.4,167.1L267.9,168.9L289.4,172.4L298.2,176.7L305.8,175.8L309.5,177.4L315.7,175.8L324.5,170.6L321.5,169.5L302.6,154.6L282.8,154.4L278.1,151.9Z"/>
    <path class="wtc-county" id="wtc-county-marshall" data-county="Marshall" d="M234.7,130.2L234.3,135.4L229.9,139.6L233.6,143.3L265.3,143.3L265.7,126.0L265.3,118.7L265.3,113.2L243.8,111.6L243.1,117.9L240.5,119.6L241.2,124.2L236.5,123.2L238.0,128.4L234.7,130.2Z"/>
    <path class="wtc-county" id="wtc-county-mason" data-county="Mason" d="M104.7,220.9L100.4,227.0L100.4,232.8L92.7,237.4L96.4,246.5L97.4,255.4L92.7,258.2L109.5,270.0L108.4,256.5L119.3,251.5L138.0,249.1L133.9,245.6L136.1,243.7L124.1,229.0L122.3,226.6L125.2,224.2L120.8,217.3L116.8,217.2L112.0,213.7L104.7,220.9Z"/>
    <path class="wtc-county" id="wtc-county-mercer" data-county="Mercer" d="M179.9,385.6L183.9,389.5L193.8,396.1L205.1,391.6L218.6,389.3L218.6,390.2L224.8,388.8L231.8,384.7L228.5,381.0L231.0,376.3L206.9,360.1L202.9,359.2L196.4,361.5L194.2,368.0L189.8,369.6L185.4,373.3L188.0,377.3L185.0,376.8L179.9,385.6Z"/>
    <path class="wtc-county" id="wtc-county-mineral" data-county="Mineral" d="M413.1,168.4L410.2,168.5L405.5,175.1L394.2,180.3L392.3,183.1L406.2,184.9L421.9,192.5L427.4,188.3L431.8,183.2L435.0,183.0L443.4,171.2L447.4,169.5L454.7,162.2L447.8,159.3L447.1,157.0L442.3,155.4L447.1,154.2L442.3,153.3L428.5,167.1L424.5,171.9L413.1,168.4Z"/>
    <path class="wtc-county" id="wtc-county-mingo" data-county="Mingo" d="M71.9,333.1L76.6,338.4L80.3,340.1L81.0,344.6L85.0,351.8L90.5,352.8L93.1,356.4L96.4,356.2L98.9,359.7L101.8,359.8L102.9,363.1L113.1,365.7L118.2,365.3L122.3,367.9L129.6,364.2L135.8,355.7L135.0,352.8L128.5,350.9L124.8,352.8L123.7,350.8L117.2,352.1L115.7,354.2L110.6,348.7L106.6,348.7L104.0,343.7L104.0,338.5L100.0,334.6L103.6,332.6L102.2,328.6L98.2,327.2L95.6,320.9L83.9,324.0L71.9,333.1Z"/>
    <path class="wtc-county" id="wtc-county-monongalia" data-county="Monongalia" d="M275.5,143.3L277.0,143.6L278.1,151.9L282.8,154.4L302.6,154.6L321.5,169.5L324.5,170.6L328.8,172.3L328.5,167.6L339.8,153.2L342.3,143.3L326.6,143.3L275.5,143.3Z"/>
    <path class="wtc-county" id="wtc-county-monroe" data-county="Monroe" d="M231.0,376.4L238.7,379.8L240.1,382.1L255.1,375.9L262.0,371.8L266.4,371.0L267.9,375.7L270.1,376.9L288.0,368.3L289.4,365.8L284.7,365.4L285.0,362.6L291.6,359.7L296.0,356.2L289.8,353.2L288.3,349.6L279.2,349.5L278.1,347.1L272.6,350.5L266.8,349.7L250.7,345.6L251.1,347.3L231.0,376.4Z"/>
    <path class="wtc-county" id="wtc-county-morgan" data-county="Morgan" d="M487.6,151.9L482.8,152.6L482.5,154.7L477.4,153.8L481.4,156.6L476.6,156.5L479.2,160.8L474.1,164.1L486.5,169.2L498.5,176.8L507.7,156.2L512.0,157.4L519.3,153.6L511.7,147.7L502.9,145.9L494.5,153.7L487.6,151.9Z"/>
    <path class="wtc-county" id="wtc-county-nicholas" data-county="Nicholas" d="M193.1,291.5L201.1,295.3L202.9,294.4L209.1,298.3L210.6,295.6L215.7,297.4L218.2,295.6L222.3,298.6L221.5,301.2L228.5,307.8L246.0,310.2L264.2,298.1L273.7,291.1L256.2,281.8L254.7,282.3L251.1,276.3L253.3,275.2L249.3,267.1L252.2,264.8L245.3,263.7L242.0,264.8L238.3,261.6L228.8,266.7L235.0,269.6L225.5,276.1L193.1,291.5Z"/>
    <path class="wtc-county" id="wtc-county-ohio" data-county="Ohio" d="M246.7,98.9L246.4,104.6L243.1,107.2L243.8,111.6L265.3,113.2L265.3,98.7L257.7,96.9L248.9,96.0L246.7,98.9Z"/>
    <path class="wtc-county" id="wtc-county-pendleton" data-county="Pendleton" d="M356.2,250.7L356.9,255.2L354.0,258.2L365.3,262.3L371.5,271.8L388.3,276.4L397.1,269.7L407.7,251.2L410.6,251.3L410.9,245.1L414.2,240.9L406.2,235.6L384.3,220.9L381.8,224.7L373.7,223.7L374.8,226.9L368.2,229.2L365.0,232.7L368.2,238.9L356.2,250.7Z"/>
    <path class="wtc-county" id="wtc-county-pleasants" data-county="Pleasants" d="M178.8,181.8L183.6,186.3L190.1,186.9L192.3,189.3L194.2,185.3L204.4,184.7L212.0,183.2L215.7,180.9L213.9,169.7L210.2,168.2L204.4,170.1L199.3,171.9L195.3,176.7L189.1,177.4L178.8,181.8Z"/>
    <path class="wtc-county" id="wtc-county-pocahontas" data-county="Pocahontas" d="M281.8,295.4L281.4,306.6L291.2,313.5L301.1,314.6L307.3,312.6L322.3,311.8L325.9,307.4L323.7,304.9L326.3,300.0L335.4,292.9L339.1,291.2L337.6,287.2L345.6,279.6L350.0,274.4L348.9,268.7L354.0,258.2L356.9,255.2L356.2,250.7L352.6,248.2L350.7,250.7L344.5,248.9L345.6,246.0L341.2,243.1L338.3,246.2L332.1,262.2L315.3,271.6L306.6,270.1L293.4,278.8L284.7,284.2L282.5,283.2L281.8,295.4Z"/>
    <path class="wtc-county" id="wtc-county-preston" data-county="Preston" d="M342.3,143.3L339.8,153.2L328.5,167.6L328.8,172.3L328.8,186.2L332.5,187.7L333.6,191.5L337.6,193.2L350.4,189.1L368.2,194.7L370.4,196.8L370.4,195.7L371.5,143.3L342.3,143.3Z"/>
    <path class="wtc-county" id="wtc-county-putnam" data-county="Putnam" d="M138.0,249.1L119.3,251.5L108.4,256.5L109.5,270.0L110.2,280.3L109.9,288.8L115.3,291.2L123.4,285.1L125.2,277.7L129.9,275.4L142.7,270.9L139.8,265.1L139.8,259.2L145.6,254.6L140.5,248.8L138.0,249.1Z"/>
    <path class="wtc-county" id="wtc-county-raleigh" data-county="Raleigh" d="M170.1,319.6L165.0,319.5L161.7,321.2L159.5,326.6L159.5,334.4L164.2,336.8L164.2,339.6L170.1,340.3L183.9,359.2L185.0,363.8L194.2,368.0L196.4,361.5L202.9,359.2L206.9,360.1L210.2,357.8L209.9,354.7L221.9,347.3L228.8,350.6L227.0,345.9L224.5,344.5L227.4,342.0L222.3,336.7L219.0,335.3L210.9,335.0L209.1,330.9L186.5,329.5L185.8,325.1L181.4,320.7L177.7,321.4L172.3,321.6L170.1,319.6Z"/>
    <path class="wtc-county" id="wtc-county-randolph" data-county="Randolph" d="M309.5,222.0L307.3,227.1L308.4,232.8L305.5,242.4L294.2,242.7L289.8,247.7L299.6,264.9L293.4,278.8L306.6,270.1L315.3,271.6L332.1,262.2L338.3,246.2L341.2,243.1L345.6,246.0L344.5,248.9L350.7,250.7L352.6,248.2L356.2,250.7L368.2,238.9L365.0,232.7L368.2,229.2L374.8,226.9L373.7,223.7L381.8,224.7L384.3,220.9L383.6,220.2L378.5,219.3L368.2,219.1L340.1,212.8L341.2,208.8L336.1,204.9L332.1,209.2L328.8,219.3L309.5,222.0Z"/>
    <path class="wtc-county" id="wtc-county-ritchie" data-county="Ritchie" d="M186.1,197.7L183.2,201.3L189.8,205.7L191.2,213.1L198.2,212.4L200.0,213.5L202.9,212.0L206.2,214.4L213.1,215.6L225.5,211.9L233.2,208.3L235.8,205.5L225.2,188.9L227.7,186.7L228.5,180.0L223.4,177.0L220.4,182.1L215.7,180.9L212.0,183.2L204.4,184.7L194.2,185.3L192.3,189.3L190.1,189.4L185.8,196.0L186.1,197.7Z"/>
    <path class="wtc-county" id="wtc-county-roane" data-county="Roane" d="M165.3,225.0L163.1,226.6L163.5,234.4L160.9,249.9L163.5,256.0L169.3,262.3L185.8,263.9L188.7,265.2L196.7,264.6L203.3,260.8L208.0,256.1L206.2,253.4L200.4,252.8L199.3,243.0L193.4,237.6L194.2,232.5L192.3,228.7L188.3,225.3L181.8,227.1L171.2,222.5L165.3,225.0Z"/>
    <path class="wtc-county" id="wtc-county-summers" data-county="Summers" d="M222.3,336.7L227.4,342.0L224.5,344.5L227.0,345.9L228.8,350.6L221.9,347.3L209.9,354.7L210.2,357.8L206.9,360.1L231.0,376.3L231.0,376.4L251.1,347.3L250.7,345.6L250.4,342.4L242.0,335.0L236.1,331.6L222.3,336.7Z"/>
    <path class="wtc-county" id="wtc-county-taylor" data-county="Taylor" d="M298.2,176.7L297.8,189.1L301.5,191.9L316.1,191.4L322.3,189.3L324.8,186.4L328.8,186.2L328.8,172.3L324.5,170.6L315.7,175.8L309.5,177.4L305.8,175.8L298.2,176.7Z"/>
    <path class="wtc-county" id="wtc-county-tucker" data-county="Tucker" d="M337.6,193.2L334.7,203.3L336.1,204.9L341.2,208.8L340.1,212.8L368.2,219.1L378.5,219.3L383.6,220.2L385.4,219.7L389.8,209.2L383.9,207.8L386.1,201.6L390.5,197.4L388.7,195.3L372.3,198.4L370.4,196.8L368.2,194.7L350.4,189.1L337.6,193.2Z"/>
    <path class="wtc-county" id="wtc-county-tyler" data-county="Tyler" d="M212.8,161.7L206.2,167.0L204.4,170.1L210.2,168.2L213.9,169.7L215.7,180.9L220.4,182.1L223.4,177.0L228.5,180.0L227.7,186.7L233.9,181.7L243.8,176.4L245.6,172.9L251.5,172.6L255.5,170.8L251.8,168.8L246.0,168.2L243.1,164.4L232.5,157.3L228.1,157.6L222.3,154.9L212.8,161.7Z"/>
    <path class="wtc-county" id="wtc-county-upshur" data-county="Upshur" d="M287.6,206.1L285.8,215.3L285.8,221.1L282.8,222.7L281.0,228.1L278.8,229.3L276.6,240.2L278.5,244.4L282.5,244.0L285.8,248.7L289.8,247.7L294.2,242.7L305.5,242.4L308.4,232.8L307.3,227.1L309.5,222.0L312.8,219.1L312.8,212.8L305.1,212.7L301.1,207.7L295.3,205.1L287.6,206.1Z"/>
    <path class="wtc-county" id="wtc-county-wayne" data-county="Wayne" d="M53.3,293.2L52.9,300.9L50.0,300.9L50.0,304.2L55.5,307.4L59.1,311.4L62.4,318.3L67.9,320.3L64.2,323.8L66.8,328.5L72.3,330.1L71.9,333.1L83.9,324.0L95.3,313.6L88.3,307.3L85.8,303.6L88.0,295.0L84.3,293.9L83.9,288.3L86.9,287.4L82.8,284.6L79.6,287.2L63.1,276.5L58.8,277.3L54.4,275.4L54.0,283.2L56.9,286.4L56.6,291.4L53.3,293.2Z"/>
    <path class="wtc-county" id="wtc-county-webster" data-county="Webster" d="M252.2,264.8L249.3,267.1L253.3,275.2L251.1,276.3L254.7,282.3L256.2,281.8L273.7,291.1L281.8,295.4L282.5,283.2L284.7,284.2L293.4,278.8L299.6,264.9L289.8,247.7L285.8,248.7L282.5,244.0L278.5,244.4L271.9,243.1L266.4,252.7L252.2,264.8Z"/>
    <path class="wtc-county" id="wtc-county-wetzel" data-county="Wetzel" d="M233.6,143.3L230.3,146.3L228.8,153.5L222.3,154.9L228.1,157.6L232.5,157.3L243.1,164.4L246.0,168.2L251.8,168.8L255.5,170.8L262.8,173.0L265.7,172.4L267.9,168.9L270.4,167.1L267.5,159.4L269.7,155.9L272.3,156.0L274.1,151.6L278.1,151.9L277.0,143.6L275.5,143.3L265.3,143.3L233.6,143.3Z"/>
    <path class="wtc-county" id="wtc-county-wirt" data-county="Wirt" d="M186.1,197.7L175.9,202.6L173.4,202.8L157.3,214.0L162.4,216.1L160.6,220.0L165.3,225.0L171.2,222.5L181.8,227.1L188.3,225.3L188.7,223.1L200.0,213.5L198.2,212.4L191.2,213.1L189.8,205.7L183.2,201.3L186.1,197.7Z"/>
    <path class="wtc-county" id="wtc-county-wood" data-county="Wood" d="M139.8,198.2L140.5,206.9L157.3,214.0L173.4,202.8L175.9,202.6L186.1,197.7L185.8,196.0L190.1,189.4L192.3,189.3L190.1,186.9L183.6,186.3L178.8,181.8L172.3,175.1L169.0,175.5L159.9,182.2L158.8,189.4L147.4,188.8L146.4,193.6L142.7,194.7L139.8,198.2Z"/>
    <path class="wtc-county" id="wtc-county-wyoming" data-county="Wyoming" d="M135.0,352.8L135.8,355.7L129.6,364.2L133.6,368.5L144.5,369.6L149.3,366.9L152.9,367.3L155.5,369.9L162.8,371.6L169.7,370.8L172.6,374.3L176.3,372.8L178.5,374.9L185.0,376.8L188.0,377.3L185.4,373.3L189.8,369.6L194.2,368.0L185.0,363.8L183.9,359.2L170.1,340.3L164.2,339.6L158.0,342.4L154.7,339.7L146.0,341.2L138.7,343.6L145.3,348.7L135.0,352.8Z"/>
  </g>
</svg>