<?xml version="1.0" encoding="UTF-8"?>
<svg xmlns="http://www.w3.org/2000/svg" viewBox="0 0 600 515" id="wtc-state-map-OH" role="img" aria-label="oh county map">
  <title>oh Counties</title>
  <g class="wtc-counties">
    <path class="wtc-county" id="wtc-county-adams" data-county="Adams" d="M179.7,437.9L186.4,438.2L190.1,432.7L201.0,430.5L207.2,433.7L218.9,435.7L223.5,438.1L225.6,442.3L230.6,440.3L230.2,394.1L225.1,389.9L216.8,389.5L190.5,393.7L183.4,393.6L179.7,433.3L179.7,437.9Z"/>
    <path class="wtc-county" id="wtc-county-allen" data-county="Allen" d="M105.9,179.9L105.9,184.9L99.2,185.0L99.2,200.2L119.6,200.1L119.6,203.5L133.0,203.3L133.0,205.1L159.3,204.9L159.3,184.5L159.3,172.9L145.9,173.0L145.9,174.7L132.6,174.7L132.6,179.8L105.9,179.9Z"/>
    <path class="wtc-county" id="wtc-county-ashland" data-county="Ashland" d="M338.6,156.0L326.9,156.0L327.3,164.5L329.0,164.5L329.0,184.1L332.7,185.9L333.6,195.3L338.2,195.3L338.6,215.3L352.3,213.8L351.9,202.2L363.2,202.2L362.8,164.6L357.8,164.6L357.8,156.2L338.6,156.0Z"/>
    <path class="wtc-county" id="wtc-county-ashtabula" data-county="Ashtabula" d="M493.7,64.3L493.3,80.5L493.7,105.3L549.6,105.5L549.6,64.9L549.6,50.0L542.5,52.4L515.4,59.3L505.4,62.7L493.7,64.3Z"/>
    <path class="wtc-county" id="wtc-county-athens" data-county="Athens" d="M344.0,351.3L343.2,361.7L347.3,361.9L346.5,372.3L382.4,374.1L406.1,375.0L409.5,370.9L409.9,364.7L398.6,364.3L399.0,360.9L394.9,359.0L395.7,343.6L371.1,342.5L372.4,332.0L359.4,331.4L358.2,341.8L345.2,341.0L344.0,351.3Z"/>
    <path class="wtc-county" id="wtc-county-auglaize" data-county="Auglaize" d="M92.5,200.2L92.5,238.1L95.0,238.6L95.0,235.8L105.9,235.7L105.9,223.9L145.1,223.7L145.9,217.6L159.3,217.2L159.3,204.9L133.0,205.1L133.0,203.3L119.6,203.5L119.6,200.1L99.2,200.2L92.5,200.2Z"/>
    <path class="wtc-county" id="wtc-county-belmont" data-county="Belmont" d="M466.6,285.4L466.2,295.1L514.6,297.2L518.3,295.2L516.6,289.2L522.1,290.3L521.2,285.1L524.1,283.2L525.0,276.0L524.1,271.0L527.9,268.0L528.3,261.5L507.5,261.3L468.3,259.7L467.8,260.0L466.6,285.4Z"/>
    <path class="wtc-county" id="wtc-county-brown" data-county="Brown" d="M139.2,422.6L148.0,420.7L156.3,422.9L163.0,425.4L164.3,428.8L170.5,431.4L172.6,436.4L179.7,437.9L179.7,433.3L183.4,393.6L160.1,393.5L160.9,367.3L146.3,366.4L139.2,422.6Z"/>
    <path class="wtc-county" id="wtc-county-butler" data-county="Butler" d="M50.4,335.4L50.0,360.5L70.9,360.5L72.1,359.7L104.2,362.0L105.9,348.0L106.7,332.3L103.0,332.8L103.0,327.5L89.6,327.3L89.6,329.9L50.8,330.1L50.4,335.4Z"/>
    <path class="wtc-county" id="wtc-county-carroll" data-county="Carroll" d="M457.0,204.1L456.6,214.0L463.3,214.2L462.4,229.5L500.8,230.5L502.5,225.5L503.3,215.2L509.5,215.3L510.0,210.2L510.0,205.1L503.3,205.0L503.7,195.3L483.7,195.2L466.2,195.7L465.8,204.2L457.0,204.1Z"/>
    <path class="wtc-county" id="wtc-county-champaign" data-county="Champaign" d="M142.6,258.4L141.3,275.2L201.4,278.7L203.0,266.9L203.9,253.6L197.6,253.1L170.1,251.3L170.5,249.6L143.8,248.0L142.6,258.4Z"/>
    <path class="wtc-county" id="wtc-county-clark" data-county="Clark" d="M139.2,293.7L139.2,297.1L152.2,297.9L152.2,299.7L165.5,300.4L165.1,303.3L186.4,306.2L193.0,306.7L202.2,278.7L201.4,278.7L141.3,275.2L139.2,293.7Z"/>
    <path class="wtc-county" id="wtc-county-clermont" data-county="Clermont" d="M115.1,364.5L108.0,370.0L113.4,372.3L110.5,375.7L108.4,393.4L111.7,401.1L117.6,407.5L118.4,410.5L118.4,416.0L120.5,418.6L139.2,422.6L146.3,366.4L144.7,366.4L115.1,364.5Z"/>
    <path class="wtc-county" id="wtc-county-clinton" data-county="Clinton" d="M144.7,366.4L146.3,366.4L160.9,367.3L167.2,370.1L170.5,365.4L193.0,352.0L194.7,332.8L183.9,332.1L148.0,329.9L144.7,366.4Z"/>
    <path class="wtc-county" id="wtc-county-columbiana" data-county="Columbiana" d="M483.7,175.1L483.7,195.2L503.7,195.3L503.3,205.0L510.0,205.1L510.0,210.2L523.3,210.4L523.3,212.0L532.5,212.1L536.2,208.2L542.1,208.3L549.6,205.6L549.6,180.8L549.6,175.2L514.6,175.2L514.6,171.8L505.8,171.8L505.8,175.2L483.7,175.1Z"/>
    <path class="wtc-county" id="wtc-county-coshocton" data-county="Coshocton" d="M356.1,226.8L354.8,252.0L356.5,252.1L356.1,260.4L410.7,262.1L416.1,262.3L416.1,253.9L421.6,254.1L422.4,237.0L411.1,236.7L411.6,228.2L356.1,226.8Z"/>
    <path class="wtc-county" id="wtc-county-crawford" data-county="Crawford" d="M248.5,164.4L248.5,198.1L278.1,197.9L278.1,197.0L293.1,197.1L293.5,164.1L281.4,164.0L278.5,164.4L248.5,164.4Z"/>
    <path class="wtc-county" id="wtc-county-cuyahoga" data-county="Cuyahoga" d="M381.5,104.8L381.1,122.8L392.0,122.9L392.0,131.6L414.5,131.4L428.2,131.3L424.5,122.9L448.2,123.2L448.7,97.4L437.4,97.4L437.0,90.2L432.4,92.2L420.3,100.8L408.2,106.9L399.9,106.0L392.0,107.5L381.5,104.8Z"/>
    <path class="wtc-county" id="wtc-county-darke" data-county="Darke" d="M50.8,289.4L88.8,289.2L95.9,289.1L95.0,256.9L95.0,238.6L52.1,238.8L52.1,243.7L51.3,264.8L51.3,279.2L50.8,289.4Z"/>
    <path class="wtc-county" id="wtc-county-defiance" data-county="Defiance" d="M52.1,114.1L52.1,132.1L52.1,134.2L92.1,134.1L92.1,139.3L105.5,139.3L105.5,144.4L118.8,144.3L118.8,113.9L105.5,114.0L52.1,114.1Z"/>
    <path class="wtc-county" id="wtc-county-delaware" data-county="Delaware" d="M232.7,228.3L232.7,251.4L241.4,251.4L241.8,263.2L289.4,265.2L290.6,247.6L291.0,239.1L269.8,238.1L270.2,231.6L258.9,231.2L258.9,229.4L232.7,228.3Z"/>
    <path class="wtc-county" id="wtc-county-erie" data-county="Erie" d="M292.3,93.5L298.1,95.4L299.0,91.8L292.3,93.5ZM267.3,110.4L266.8,113.7L279.4,113.6L279.8,129.9L337.7,130.6L337.3,113.9L321.9,119.3L312.7,117.2L306.0,113.9L296.9,106.2L291.9,108.1L282.7,107.3L267.3,110.4Z"/>
    <path class="wtc-county" id="wtc-county-fairfield" data-county="Fairfield" d="M281.9,303.6L279.8,330.8L292.7,331.6L292.7,329.9L305.6,330.5L306.0,325.3L320.2,326.0L320.6,319.1L334.4,319.9L335.2,309.7L330.7,309.5L331.5,299.2L322.7,298.7L324.0,287.8L322.7,288.5L286.9,286.8L284.4,300.3L281.9,303.6Z"/>
    <path class="wtc-county" id="wtc-county-fayette" data-county="Fayette" d="M185.5,312.7L183.9,332.1L194.7,332.8L193.0,352.0L218.1,352.1L230.6,335.9L232.2,315.2L185.5,312.7Z"/>
    <path class="wtc-county" id="wtc-county-franklin" data-county="Franklin" d="M237.7,267.3L236.8,274.2L231.8,274.2L232.7,283.3L235.2,287.6L232.2,289.4L233.1,301.6L281.9,303.6L284.4,300.3L286.9,286.8L289.4,265.2L241.8,263.2L241.8,267.4L237.7,267.3Z"/>
    <path class="wtc-county" id="wtc-county-fulton" data-county="Fulton" d="M98.8,81.6L99.2,91.9L100.9,91.9L101.3,103.9L105.5,103.9L105.5,107.2L158.8,107.0L159.3,79.9L103.4,81.5L98.8,81.6Z"/>
    <path class="wtc-county" id="wtc-county-gallia" data-county="Gallia" d="M311.1,414.0L310.2,421.7L321.5,422.5L323.6,426.0L322.7,432.9L336.5,433.7L335.7,444.1L344.4,444.4L352.3,443.4L357.8,440.2L356.5,430.2L352.3,419.7L361.1,414.5L361.1,407.8L366.1,400.8L366.5,395.6L340.2,394.4L340.2,392.7L327.3,391.9L324.8,414.0L311.1,413.0L311.1,414.0Z"/>
    <path class="wtc-county" id="wtc-county-geauga" data-county="Geauga" d="M448.7,97.4L448.2,123.2L493.7,123.2L493.7,105.3L493.3,80.5L482.0,80.6L482.0,89.1L459.5,89.1L459.5,97.4L448.7,97.4Z"/>
    <path class="wtc-county" id="wtc-county-greene" data-county="Greene" d="M139.2,297.1L134.7,298.6L132.2,323.2L132.2,328.9L148.0,329.9L183.9,332.1L185.5,312.7L186.4,306.2L165.1,303.3L165.5,300.4L152.2,299.7L152.2,297.9L139.2,297.1Z"/>
    <path class="wtc-county" id="wtc-county-guernsey" data-county="Guernsey" d="M410.7,262.1L409.0,287.7L413.6,287.8L413.2,298.1L426.6,298.5L426.6,291.6L439.9,292.0L440.3,288.6L449.1,288.9L449.1,285.5L466.6,285.4L467.8,260.0L454.5,259.8L454.5,254.9L421.6,254.1L416.1,253.9L416.1,262.3L410.7,262.1Z"/>
    <path class="wtc-county" id="wtc-county-hamilton" data-county="Hamilton" d="M50.0,360.5L50.0,383.8L57.5,379.0L60.4,379.2L66.7,384.6L72.9,387.4L81.3,384.5L86.7,385.0L90.5,381.9L93.8,382.7L95.5,389.5L108.4,393.4L110.5,375.7L113.4,372.3L108.0,370.0L115.1,364.5L115.1,362.5L104.2,362.0L72.1,359.7L70.9,360.5L50.0,360.5Z"/>
    <path class="wtc-county" id="wtc-county-hancock" data-county="Hancock" d="M159.3,144.1L159.3,172.9L159.3,184.5L201.8,184.7L201.8,174.7L206.0,174.7L206.0,169.6L208.5,169.6L208.5,164.6L212.6,164.6L212.6,144.2L159.3,144.1Z"/>
    <path class="wtc-county" id="wtc-county-hardin" data-county="Hardin" d="M159.3,184.5L159.3,204.9L159.3,217.2L159.3,218.0L201.0,220.7L201.0,221.3L213.1,221.1L212.6,200.0L210.6,198.2L203.9,198.3L203.9,184.7L201.8,184.7L159.3,184.5Z"/>
    <path class="wtc-county" id="wtc-county-harrison" data-county="Harrison" d="M454.5,254.9L454.5,259.8L467.8,260.0L468.3,259.7L507.5,261.3L509.5,230.7L500.8,230.5L462.4,229.5L462.0,244.5L454.9,244.4L454.5,254.9Z"/>
    <path class="wtc-county" id="wtc-county-henry" data-county="Henry" d="M105.5,107.2L105.5,114.0L118.8,113.9L118.8,144.3L159.3,144.1L158.8,115.5L158.8,107.0L105.5,107.2Z"/>
    <path class="wtc-county" id="wtc-county-highland" data-county="Highland" d="M160.9,367.3L160.1,393.5L183.4,393.6L190.5,393.7L216.8,389.5L220.6,373.0L221.4,366.9L216.0,364.9L218.1,352.1L193.0,352.0L170.5,365.4L167.2,370.1L160.9,367.3Z"/>
    <path class="wtc-county" id="wtc-county-hocking" data-county="Hocking" d="M291.5,341.5L290.6,353.2L304.0,354.0L304.0,352.3L317.7,353.0L318.1,350.0L344.0,351.3L345.2,341.0L358.2,341.8L359.4,331.4L346.9,330.7L347.3,327.4L333.6,326.7L334.4,319.9L320.6,319.1L320.2,326.0L306.0,325.3L305.6,330.5L292.7,329.9L292.7,331.6L291.5,341.5Z"/>
    <path class="wtc-county" id="wtc-county-holmes" data-county="Holmes" d="M363.2,202.2L351.9,202.2L352.3,213.8L356.9,213.2L356.1,226.8L411.6,228.2L416.1,228.3L416.1,206.3L418.6,206.0L418.2,202.2L363.2,202.2Z"/>
    <path class="wtc-county" id="wtc-county-huron" data-county="Huron" d="M279.8,129.9L280.2,133.9L281.4,164.0L293.5,164.1L327.3,164.5L326.9,156.0L338.6,156.0L337.7,130.6L279.8,129.9Z"/>
    <path class="wtc-county" id="wtc-county-jackson" data-county="Jackson" d="M286.4,376.4L283.9,402.0L290.2,402.3L289.4,412.8L302.3,413.5L311.1,414.0L311.1,413.0L324.8,414.0L327.3,391.9L328.6,380.0L314.8,379.2L315.2,375.0L301.9,374.0L302.3,372.5L288.9,371.8L286.4,376.4Z"/>
    <path class="wtc-county" id="wtc-county-jefferson" data-county="Jefferson" d="M510.0,210.2L509.5,215.3L503.3,215.2L502.5,225.5L500.8,230.5L509.5,230.7L507.5,261.3L528.3,261.5L530.8,258.2L534.2,251.3L538.3,249.0L540.4,242.5L539.6,236.8L537.1,233.9L540.8,226.0L537.1,217.6L532.5,212.1L523.3,212.0L523.3,210.4L510.0,210.2Z"/>
    <path class="wtc-county" id="wtc-county-knox" data-county="Knox" d="M291.0,239.1L290.6,247.6L322.3,249.0L322.3,251.2L354.8,252.0L356.1,226.8L356.9,213.2L352.3,213.8L338.6,215.3L334.0,215.8L305.2,215.9L303.1,215.9L302.7,239.7L291.0,239.1Z"/>
    <path class="wtc-county" id="wtc-county-lake" data-county="Lake" d="M437.0,90.2L437.4,97.4L448.7,97.4L459.5,97.4L459.5,89.1L482.0,89.1L482.0,80.6L493.3,80.5L493.7,64.3L480.8,68.7L464.9,75.2L460.8,75.3L442.4,85.4L437.0,90.2Z"/>
    <path class="wtc-county" id="wtc-county-lawrence" data-county="Lawrence" d="M283.1,445.8L293.5,447.3L300.2,453.4L306.0,456.7L308.5,463.1L313.6,465.3L318.6,464.4L330.7,461.1L340.2,460.0L342.3,455.1L344.4,444.4L335.7,444.1L336.5,433.7L322.7,432.9L323.6,426.0L321.5,422.5L310.2,421.7L311.1,414.0L302.3,413.5L300.6,425.3L296.9,425.0L295.6,433.5L288.9,433.2L288.5,437.3L291.9,442.7L283.1,445.8Z"/>
    <path class="wtc-county" id="wtc-county-licking" data-county="Licking" d="M289.4,265.2L286.9,286.8L322.7,288.5L324.0,287.8L329.0,288.8L350.7,289.8L350.7,285.4L354.4,285.5L356.1,260.4L356.5,252.1L354.8,252.0L322.3,251.2L322.3,249.0L290.6,247.6L289.4,265.2Z"/>
    <path class="wtc-county" id="wtc-county-logan" data-county="Logan" d="M145.1,223.7L145.1,243.4L143.8,248.0L170.5,249.6L170.1,251.3L197.6,253.1L201.0,221.3L201.0,220.7L159.3,218.0L159.3,217.2L145.9,217.6L145.1,223.7Z"/>
    <path class="wtc-county" id="wtc-county-lorain" data-county="Lorain" d="M337.3,113.9L337.7,130.6L338.6,156.0L357.8,156.2L358.2,147.7L369.0,147.7L369.4,140.4L380.7,140.4L381.1,131.6L392.0,131.6L392.0,122.9L381.1,122.8L381.5,104.8L376.5,103.7L355.3,109.7L348.2,113.2L337.3,113.9Z"/>
    <path class="wtc-county" id="wtc-county-lucas" data-county="Lucas" d="M158.8,107.0L158.8,115.5L174.7,109.5L178.9,106.4L179.7,102.2L190.5,97.3L195.1,91.9L213.1,91.7L242.2,91.2L234.3,88.6L223.5,82.1L218.1,83.8L209.3,81.0L208.9,78.4L173.0,79.5L159.3,79.9L158.8,107.0Z"/>
    <path class="wtc-county" id="wtc-county-madison" data-county="Madison" d="M186.4,306.2L185.5,312.7L232.2,315.2L233.1,301.6L232.2,289.4L235.2,287.6L232.7,283.3L231.8,274.2L236.8,274.2L237.7,267.3L203.0,266.9L201.4,278.7L202.2,278.7L193.0,306.7L186.4,306.2Z"/>
    <path class="wtc-county" id="wtc-county-mahoning" data-county="Mahoning" d="M483.7,165.0L483.7,175.1L505.8,175.2L505.8,171.8L514.6,171.8L514.6,175.2L549.6,175.2L549.6,149.1L549.6,148.1L493.7,148.0L493.7,165.1L483.7,165.0Z"/>
    <path class="wtc-county" id="wtc-county-marion" data-county="Marion" d="M212.6,200.0L213.1,221.1L232.7,220.9L232.7,228.3L258.9,229.4L259.8,223.5L266.4,222.8L266.4,205.9L277.7,204.7L278.1,197.9L248.5,198.1L226.0,198.2L226.0,200.0L212.6,200.0Z"/>
    <path class="wtc-county" id="wtc-county-medina" data-county="Medina" d="M357.8,156.2L357.8,164.6L362.8,164.6L414.1,165.0L414.5,131.4L392.0,131.6L381.1,131.6L380.7,140.4L369.4,140.4L369.0,147.7L358.2,147.7L357.8,156.2Z"/>
    <path class="wtc-county" id="wtc-county-meigs" data-county="Meigs" d="M340.2,392.7L340.2,394.4L366.5,395.6L366.1,400.8L374.4,392.6L379.9,396.6L384.4,396.7L389.4,404.6L386.1,407.4L388.2,410.1L394.5,408.4L395.7,404.2L399.5,402.2L403.2,404.7L404.9,393.6L400.7,390.7L399.5,386.5L407.0,384.9L406.1,375.0L382.4,374.1L346.5,372.3L341.9,372.1L340.2,392.7Z"/>
    <path class="wtc-county" id="wtc-county-mercer" data-county="Mercer" d="M52.1,213.3L52.1,238.8L95.0,238.6L92.5,238.1L92.5,200.2L92.5,195.2L52.1,195.2L52.1,213.3Z"/>
    <path class="wtc-county" id="wtc-county-miami" data-county="Miami" d="M95.0,256.9L95.9,289.1L127.1,288.7L127.1,293.1L139.2,293.7L141.3,275.2L142.6,258.4L120.1,256.6L95.0,256.9Z"/>
    <path class="wtc-county" id="wtc-county-monroe" data-county="Monroe" d="M466.2,295.1L457.4,294.9L457.0,313.8L461.2,313.8L461.2,325.6L465.3,328.7L489.5,329.5L489.5,333.3L500.4,325.5L507.9,323.9L509.5,315.6L513.3,312.2L509.1,308.0L514.1,303.2L514.6,297.2L466.2,295.1Z"/>
    <path class="wtc-county" id="wtc-county-montgomery" data-county="Montgomery" d="M88.8,289.2L89.6,327.3L103.0,327.5L132.2,328.9L132.2,323.2L134.7,298.6L139.2,297.1L139.2,293.7L127.1,293.1L127.1,288.7L95.9,289.1L88.8,289.2Z"/>
    <path class="wtc-county" id="wtc-county-morgan" data-county="Morgan" d="M369.0,306.4L368.6,311.4L374.9,311.8L372.4,332.0L371.1,342.5L395.7,343.6L398.2,338.5L411.6,340.1L412.0,334.3L409.9,334.3L410.7,328.2L425.7,327.8L425.7,318.9L419.1,318.7L419.5,308.4L412.8,308.2L369.0,306.4Z"/>
    <path class="wtc-county" id="wtc-county-morrow" data-county="Morrow" d="M258.9,229.4L258.9,231.2L270.2,231.6L269.8,238.1L291.0,239.1L302.7,239.7L303.1,215.9L305.2,215.9L304.8,197.4L293.1,197.1L278.1,197.0L278.1,197.9L277.7,204.7L266.4,205.9L266.4,222.8L259.8,223.5L258.9,229.4Z"/>
    <path class="wtc-county" id="wtc-county-muskingum" data-county="Muskingum" d="M356.1,260.4L354.4,285.5L350.7,285.4L350.7,289.8L359.0,290.3L357.8,300.6L369.4,301.1L369.0,306.4L412.8,308.2L413.2,298.1L413.6,287.8L409.0,287.7L410.7,262.1L356.1,260.4Z"/>
    <path class="wtc-county" id="wtc-county-noble" data-county="Noble" d="M413.2,298.1L412.8,308.2L419.5,308.4L419.1,318.7L425.7,318.9L425.7,327.8L439.1,328.2L439.1,320.9L445.7,322.7L447.8,326.1L460.8,327.2L461.2,325.6L461.2,313.8L457.0,313.8L457.4,294.9L466.2,295.1L466.6,285.4L449.1,285.5L449.1,288.9L440.3,288.6L439.9,292.0L426.6,291.6L426.6,298.5L413.2,298.1Z"/>
    <path class="wtc-county" id="wtc-county-ottawa" data-county="Ottawa" d="M279.8,88.4L279.8,90.6L285.6,86.4L286.9,82.9L282.3,79.4L279.8,88.4ZM213.1,91.7L213.5,105.5L222.2,105.4L222.2,110.5L267.3,110.4L282.7,107.3L291.9,108.1L296.9,106.2L294.4,100.6L286.4,100.8L280.6,95.3L277.7,96.6L276.9,101.6L269.3,103.9L261.4,101.0L253.9,94.4L242.2,91.2L213.1,91.7Z"/>
    <path class="wtc-county" id="wtc-county-paulding" data-county="Paulding" d="M52.1,134.2L52.1,164.9L98.8,164.8L105.5,164.7L105.5,144.4L105.5,139.3L92.1,139.3L92.1,134.1L52.1,134.2Z"/>
    <path class="wtc-county" id="wtc-county-perry" data-county="Perry" d="M324.0,287.8L322.7,298.7L331.5,299.2L330.7,309.5L335.2,309.7L334.4,319.9L333.6,326.7L347.3,327.4L346.9,330.7L359.4,331.4L372.4,332.0L374.9,311.8L368.6,311.4L369.0,306.4L369.4,301.1L357.8,300.6L359.0,290.3L350.7,289.8L329.0,288.8L324.0,287.8Z"/>
    <path class="wtc-county" id="wtc-county-pickaway" data-county="Pickaway" d="M232.2,315.2L230.6,335.9L262.3,337.1L261.8,340.2L291.5,341.5L292.7,331.6L279.8,330.8L281.9,303.6L233.1,301.6L232.2,315.2Z"/>
    <path class="wtc-county" id="wtc-county-pike" data-county="Pike" d="M220.6,373.0L216.8,389.5L225.1,389.9L230.2,394.1L236.4,396.9L236.8,400.6L261.4,401.0L283.9,402.0L286.4,376.4L220.6,373.0Z"/>
    <path class="wtc-county" id="wtc-county-portage" data-county="Portage" d="M448.2,123.2L448.2,165.0L483.7,165.0L493.7,165.1L493.7,148.0L493.7,123.2L448.2,123.2Z"/>
    <path class="wtc-county" id="wtc-county-preble" data-county="Preble" d="M50.8,311.6L50.8,330.1L89.6,329.9L89.6,327.3L88.8,289.2L50.8,289.4L50.8,311.6Z"/>
    <path class="wtc-county" id="wtc-county-putnam" data-county="Putnam" d="M98.8,164.8L99.2,174.9L105.9,174.9L105.9,179.9L132.6,179.8L132.6,174.7L145.9,174.7L145.9,173.0L159.3,172.9L159.3,144.1L118.8,144.3L105.5,144.4L105.5,164.7L98.8,164.8Z"/>
    <path class="wtc-county" id="wtc-county-richland" data-county="Richland" d="M293.5,164.1L293.1,197.1L304.8,197.4L305.2,215.9L334.0,215.8L338.6,215.3L338.2,195.3L333.6,195.3L332.7,185.9L329.0,184.1L329.0,164.5L327.3,164.5L293.5,164.1Z"/>
    <path class="wtc-county" id="wtc-county-ross" data-county="Ross" d="M218.1,352.1L216.0,364.9L221.4,366.9L220.6,373.0L286.4,376.4L288.9,371.8L290.6,353.2L291.5,341.5L261.8,340.2L262.3,337.1L230.6,335.9L218.1,352.1Z"/>
    <path class="wtc-county" id="wtc-county-sandusky" data-county="Sandusky" d="M213.5,105.5L212.6,134.1L232.7,134.2L252.7,133.7L280.2,133.9L279.8,129.9L279.4,113.6L266.8,113.7L267.3,110.4L222.2,110.5L222.2,105.4L213.5,105.5Z"/>
    <path class="wtc-county" id="wtc-county-scioto" data-county="Scioto" d="M230.2,394.1L230.6,440.3L245.6,439.2L247.7,434.8L256.4,430.2L258.9,427.5L265.2,427.5L273.9,424.3L276.9,427.6L275.6,432.0L279.4,443.0L283.1,445.8L291.9,442.7L288.5,437.3L288.9,433.2L295.6,433.5L296.9,425.0L300.6,425.3L302.3,413.5L289.4,412.8L290.2,402.3L283.9,402.0L261.4,401.0L236.8,400.6L236.4,396.9L230.2,394.1Z"/>
    <path class="wtc-county" id="wtc-county-seneca" data-county="Seneca" d="M212.6,144.2L212.6,164.6L248.5,164.4L278.5,164.4L281.4,164.0L280.2,133.9L252.7,133.7L232.7,134.2L212.6,134.1L212.6,144.2Z"/>
    <path class="wtc-county" id="wtc-county-shelby" data-county="Shelby" d="M95.0,238.6L95.0,256.9L120.1,256.6L142.6,258.4L143.8,248.0L145.1,243.4L145.1,223.7L105.9,223.9L105.9,235.7L95.0,235.8L95.0,238.6Z"/>
    <path class="wtc-county" id="wtc-county-stark" data-county="Stark" d="M418.2,202.2L418.6,206.0L439.5,203.6L457.0,204.1L465.8,204.2L466.2,195.7L483.7,195.2L483.7,175.1L483.7,165.0L448.2,165.0L445.3,165.0L444.9,174.5L418.6,173.6L418.2,202.2Z"/>
    <path class="wtc-county" id="wtc-county-summit" data-county="Summit" d="M414.5,131.4L414.1,165.0L418.6,165.0L418.6,173.6L444.9,174.5L445.3,165.0L448.2,165.0L448.2,123.2L424.5,122.9L428.2,131.3L414.5,131.4Z"/>
    <path class="wtc-county" id="wtc-county-trumbull" data-county="Trumbull" d="M493.7,123.2L493.7,148.0L549.6,148.1L550.0,139.3L549.6,106.8L549.6,105.5L493.7,105.3L493.7,123.2Z"/>
    <path class="wtc-county" id="wtc-county-tuscarawas" data-county="Tuscarawas" d="M411.6,228.2L411.1,236.7L422.4,237.0L421.6,254.1L454.5,254.9L454.9,244.4L462.0,244.5L462.4,229.5L463.3,214.2L456.6,214.0L457.0,204.1L439.5,203.6L418.6,206.0L416.1,206.3L416.1,228.3L411.6,228.2Z"/>
    <path class="wtc-county" id="wtc-county-union" data-county="Union" d="M201.0,221.3L197.6,253.1L203.9,253.6L203.0,266.9L237.7,267.3L241.8,267.4L241.8,263.2L241.4,251.4L232.7,251.4L232.7,228.3L232.7,220.9L213.1,221.1L201.0,221.3Z"/>
    <path class="wtc-county" id="wtc-county-van-wert" data-county="Van Wert" d="M52.1,164.9L52.1,172.6L52.1,195.2L92.5,195.2L92.5,200.2L99.2,200.2L99.2,185.0L105.9,184.9L105.9,179.9L105.9,174.9L99.2,174.9L98.8,164.8L52.1,164.9Z"/>
    <path class="wtc-county" id="wtc-county-vinton" data-county="Vinton" d="M290.6,353.2L288.9,371.8L302.3,372.5L301.9,374.0L315.2,375.0L314.8,379.2L328.6,380.0L327.3,391.9L340.2,392.7L341.9,372.1L346.5,372.3L347.3,361.9L343.2,361.7L344.0,351.3L318.1,350.0L317.7,353.0L304.0,352.3L304.0,354.0L290.6,353.2Z"/>
    <path class="wtc-county" id="wtc-county-warren" data-county="Warren" d="M103.0,327.5L103.0,332.8L106.7,332.3L105.9,348.0L104.2,362.0L115.1,362.5L115.1,364.5L144.7,366.4L148.0,329.9L132.2,328.9L103.0,327.5Z"/>
    <path class="wtc-county" id="wtc-county-washington" data-county="Washington" d="M395.7,343.6L394.9,359.0L399.0,360.9L398.6,364.3L409.9,364.7L409.5,370.9L413.6,369.7L414.9,364.2L427.8,364.9L429.1,356.6L439.5,349.0L443.2,348.5L450.8,356.2L462.4,351.1L469.5,350.3L474.1,344.9L479.9,342.8L482.0,339.3L489.5,333.3L489.5,329.5L465.3,328.7L461.2,325.6L460.8,327.2L447.8,326.1L445.7,322.7L439.1,320.9L439.1,328.2L425.7,327.8L410.7,328.2L409.9,334.3L412.0,334.3L411.6,340.1L398.2,338.5L395.7,343.6Z"/>
    <path class="wtc-county" id="wtc-county-wayne" data-county="Wayne" d="M362.8,164.6L363.2,202.2L418.2,202.2L418.6,173.6L418.6,165.0L414.1,165.0L362.8,164.6Z"/>
    <path class="wtc-county" id="wtc-county-williams" data-county="Williams" d="M51.7,82.7L51.7,102.0L52.1,114.1L105.5,114.0L105.5,107.2L105.5,103.9L101.3,103.9L100.9,91.9L99.2,91.9L98.8,81.6L51.7,82.7Z"/>
    <path class="wtc-county" id="wtc-county-wood" data-county="Wood" d="M158.8,115.5L159.3,144.1L212.6,144.2L212.6,134.1L213.5,105.5L213.1,91.7L195.1,91.9L190.5,97.3L179.7,102.2L178.9,106.4L174.7,109.5L158.8,115.5Z"/>
    <path class="wtc-county" id="wtc-county-wyandot" data-county="Wyandot" d="M212.6,164.6L208.5,164.6L208.5,169.6L206.0,169.6L206.0,174.7L201.8,174.7L201.8,184.7L203.9,184.7L203.9,198.3L210.6,198.2L212.6,200.0L226.0,200.0L226.0,198.2L248.5,198.1L248.5,164.4L212.6,164.6Z"/>
  </g>
</svg>