<?xml version="1.0" encoding="UTF-8"?>
<svg xmlns="http://www.w3.org/2000/svg" viewBox="0 0 566 600" id="wtc-state-map-ME" role="img" aria-label="me county map">
  <title>me Counties</title>
  <g class="wtc-counties">
    <path class="wtc-county" id="wtc-county-androscoggin" data-county="Androscoggin" d="M146.3,391.0L142.2,393.0L143.0,401.9L136.5,419.5L135.2,419.2L118.1,436.3L118.5,439.5L127.5,444.3L132.0,444.7L137.3,438.9L150.7,449.3L159.7,453.6L164.2,451.5L169.5,445.8L167.5,444.2L172.8,429.0L170.3,428.3L174.0,422.6L164.6,419.7L164.6,409.2L158.1,400.9L161.8,399.5L158.5,387.8L150.3,388.8L146.3,391.0Z"/>
    <path class="wtc-county" id="wtc-county-aroostook" data-county="Aroostook" d="M422.8,252.2L422.4,239.2L428.5,235.9L422.8,229.0L428.9,225.2L425.2,222.3L425.6,215.4L424.4,147.7L424.4,94.5L413.0,89.5L413.0,88.1L398.3,75.2L384.9,68.5L383.2,65.4L373.8,61.9L363.6,61.3L357.1,63.6L357.1,69.6L346.9,68.4L334.7,69.5L330.2,74.6L318.8,74.8L308.2,77.7L298.0,81.9L282.9,74.8L281.3,73.0L280.9,59.3L282.1,53.6L277.6,54.0L266.6,50.3L261.3,50.0L173.6,136.9L170.7,150.6L205.0,150.6L307.4,150.8L307.4,170.9L321.6,170.9L321.6,172.4L351.0,172.4L351.0,211.0L352.2,230.5L351.4,263.8L353.9,264.4L371.4,261.5L371.0,260.8L395.1,256.8L422.8,252.2Z"/>
    <path class="wtc-county" id="wtc-county-cumberland" data-county="Cumberland" d="M118.5,439.5L115.3,438.4L111.6,442.5L105.5,439.5L104.2,431.6L106.7,429.1L102.2,423.7L79.8,434.3L75.7,432.3L76.9,437.4L83.0,438.5L92.0,447.5L87.1,453.7L88.7,456.1L82.6,458.6L84.3,464.2L86.3,466.7L94.0,465.3L98.9,467.2L100.2,470.9L98.5,477.1L107.5,478.6L111.2,475.7L121.4,483.7L117.3,487.8L133.2,495.9L142.2,492.8L147.5,495.6L150.7,492.5L148.7,489.7L149.9,484.8L154.0,480.0L162.2,480.4L165.0,475.6L173.2,476.0L175.2,472.2L181.3,468.1L186.2,468.5L187.5,460.0L185.0,458.3L189.5,449.4L187.5,448.4L180.9,453.2L175.6,452.8L169.5,445.8L164.2,451.5L159.7,453.6L150.7,449.3L137.3,438.9L132.0,444.7L127.5,444.3L118.5,439.5Z"/>
    <path class="wtc-county" id="wtc-county-franklin" data-county="Franklin" d="M110.4,253.6L105.9,257.8L100.2,260.5L91.2,270.9L91.6,274.0L101.4,282.1L101.0,285.9L92.4,285.1L87.5,280.8L84.3,280.5L79.4,284.0L81.8,286.7L81.0,295.1L78.6,298.2L84.7,327.4L79.8,327.9L81.8,338.0L85.5,347.7L85.9,359.9L103.4,352.7L115.3,371.8L110.8,373.7L141.4,378.4L141.4,385.7L144.6,385.9L146.3,391.0L150.3,388.8L158.5,387.8L168.3,388.0L169.1,385.4L165.0,383.0L168.7,376.2L178.5,377.8L181.3,373.7L177.7,365.7L173.6,366.1L169.5,344.9L158.5,346.5L156.0,336.1L160.5,335.4L155.2,314.9L139.7,317.0L137.7,310.7L125.9,313.1L114.4,271.3L115.7,271.1L110.4,253.6Z"/>
    <path class="wtc-county" id="wtc-county-hancock" data-county="Hancock" d="M358.3,421.1L361.2,423.9L364.1,420.5L358.3,421.1ZM343.7,425.0L348.6,426.6L350.6,429.9L356.7,425.5L349.0,420.2L346.5,416.8L343.7,425.0ZM340.4,404.0L346.1,406.8L341.6,399.9L340.4,404.0ZM304.9,416.3L311.8,420.1L310.6,416.1L304.9,416.3ZM307.8,365.4L304.1,372.7L308.2,378.0L309.4,383.5L311.8,387.5L311.4,392.3L307.0,396.6L306.5,407.7L313.9,405.6L318.0,406.6L315.5,409.1L323.3,413.0L317.2,418.0L318.8,424.3L325.7,429.4L329.8,430.3L334.7,426.5L331.0,425.4L340.4,417.9L341.6,413.5L335.9,407.0L338.4,402.8L336.3,399.4L346.1,393.9L346.1,400.2L348.1,400.2L347.7,393.5L351.8,393.2L351.0,397.5L356.3,394.1L360.0,398.5L351.0,401.1L348.6,404.0L355.1,414.4L364.5,417.5L378.7,416.0L374.3,412.7L380.8,405.8L380.0,399.4L384.4,400.3L388.5,398.2L388.5,401.7L395.1,405.5L399.9,396.5L402.0,399.2L405.3,396.0L402.4,389.3L398.7,376.1L401.2,375.8L398.7,366.2L396.7,366.5L388.5,336.4L402.4,334.5L397.9,313.2L394.2,300.8L366.1,304.3L369.8,318.2L355.5,320.0L357.9,329.8L343.7,331.6L349.8,356.4L330.6,359.0L326.9,363.2L322.0,361.1L315.9,368.0L307.8,365.4Z"/>
    <path class="wtc-county" id="wtc-county-kennebec" data-county="Kennebec" d="M158.5,387.8L161.8,399.5L158.1,400.9L164.6,409.2L164.6,419.7L174.0,422.6L170.3,428.3L172.8,429.0L185.0,430.9L189.9,424.1L200.1,425.7L200.9,427.3L212.3,428.9L211.1,417.2L213.1,411.4L224.6,413.4L227.4,411.3L229.5,404.2L236.4,390.4L241.7,391.2L244.6,381.2L239.7,380.5L242.1,370.4L234.4,369.6L236.4,366.7L233.1,364.4L231.9,361.3L215.6,363.5L215.6,366.8L220.9,372.5L218.0,377.5L198.5,374.0L196.8,377.5L189.9,372.5L181.3,373.7L178.5,377.8L168.7,376.2L165.0,383.0L169.1,385.4L168.3,388.0L158.5,387.8Z"/>
    <path class="wtc-county" id="wtc-county-knox" data-county="Knox" d="M325.7,429.4L324.5,434.4L325.7,442.7L332.2,441.7L334.3,435.0L329.8,430.3L325.7,429.4ZM296.8,459.8L300.4,463.5L300.0,456.2L296.8,459.8ZM293.1,430.3L297.2,430.6L298.4,435.5L296.4,437.9L301.2,440.3L308.6,439.0L313.1,435.2L307.4,427.6L311.0,426.8L306.5,421.9L296.4,426.3L293.1,430.3ZM240.5,405.8L235.6,407.5L237.6,417.3L240.9,419.2L248.6,419.3L252.3,428.1L251.5,432.3L254.7,437.2L250.3,439.3L249.4,442.4L245.4,441.6L244.1,447.5L243.3,453.5L248.2,452.2L249.4,449.3L253.1,450.7L250.3,454.3L250.3,459.4L254.7,458.5L255.6,452.9L261.7,452.8L267.0,445.7L278.0,446.1L282.1,442.4L278.0,436.9L283.3,434.1L275.5,431.2L280.9,423.6L283.7,414.8L273.1,414.1L256.4,401.7L247.4,408.1L241.3,404.2L240.5,405.8Z"/>
    <path class="wtc-county" id="wtc-county-lincoln" data-county="Lincoln" d="M200.9,427.3L197.2,438.3L194.4,440.2L207.4,442.3L205.0,446.4L206.6,451.4L202.5,455.2L207.4,463.0L211.9,468.2L213.1,461.8L218.0,464.3L224.2,461.2L225.0,456.6L229.9,461.6L231.9,456.7L238.4,453.1L238.0,448.0L244.1,447.5L245.4,441.6L249.4,442.4L250.3,439.3L254.7,437.2L251.5,432.3L252.3,428.1L248.6,419.3L240.9,419.2L237.6,417.3L235.6,407.5L240.5,405.8L229.5,404.2L227.4,411.3L224.6,413.4L213.1,411.4L211.1,417.2L212.3,428.9L200.9,427.3Z"/>
    <path class="wtc-county" id="wtc-county-oxford" data-county="Oxford" d="M78.6,298.2L75.7,303.4L71.2,302.0L68.4,297.8L68.8,294.0L58.6,290.0L58.6,293.3L50.0,294.7L56.1,368.6L58.6,410.7L61.0,466.7L64.3,467.5L72.4,465.1L84.3,464.2L82.6,458.6L88.7,456.1L87.1,453.7L92.0,447.5L83.0,438.5L76.9,437.4L75.7,432.3L79.8,434.3L102.2,423.7L106.7,429.1L104.2,431.6L105.5,439.5L111.6,442.5L115.3,438.4L118.5,439.5L118.1,436.3L135.2,419.2L136.5,419.5L143.0,401.9L142.2,393.0L146.3,391.0L144.6,385.9L141.4,385.7L141.4,378.4L110.8,373.7L115.3,371.8L103.4,352.7L85.9,359.9L85.5,347.7L81.8,338.0L79.8,327.9L84.7,327.4L78.6,298.2Z"/>
    <path class="wtc-county" id="wtc-county-penobscot" data-county="Penobscot" d="M246.6,321.2L254.7,351.2L256.4,361.1L263.7,360.2L266.2,369.9L305.3,363.4L307.8,365.4L315.9,368.0L322.0,361.1L326.9,363.2L330.6,359.0L349.8,356.4L343.7,331.6L357.9,329.8L355.5,320.0L369.8,318.2L366.1,304.3L394.2,300.8L407.3,299.0L405.3,289.4L395.1,256.8L371.0,260.8L371.4,261.5L353.9,264.4L351.4,263.8L352.2,230.5L351.0,211.0L351.0,172.4L321.6,172.4L321.6,170.9L307.4,170.9L306.5,251.7L291.5,254.2L292.3,263.4L291.0,271.3L303.3,269.5L312.3,302.1L300.4,303.9L303.3,313.3L246.6,321.2Z"/>
    <path class="wtc-county" id="wtc-county-piscataquis" data-county="Piscataquis" d="M205.0,150.6L205.0,171.0L203.8,171.0L204.2,218.5L209.1,217.7L213.1,231.4L209.1,232.7L207.4,228.8L202.9,229.1L206.6,232.4L204.2,242.9L198.1,242.0L197.6,250.8L202.9,252.4L207.0,258.1L203.8,265.1L198.1,267.8L212.3,318.2L216.4,328.2L228.2,326.6L229.9,323.3L246.6,321.2L303.3,313.3L300.4,303.9L312.3,302.1L303.3,269.5L291.0,271.3L292.3,263.4L291.5,254.2L306.5,251.7L307.4,170.9L307.4,150.8L205.0,150.6Z"/>
    <path class="wtc-county" id="wtc-county-sagadahoc" data-county="Sagadahoc" d="M172.8,429.0L167.5,444.2L169.5,445.8L175.6,452.8L180.9,453.2L187.5,448.4L189.5,449.4L185.0,458.3L187.5,460.0L186.2,468.5L189.1,470.5L189.9,476.7L191.9,474.8L201.3,472.2L207.4,463.0L202.5,455.2L206.6,451.4L205.0,446.4L207.4,442.3L194.4,440.2L197.2,438.3L200.9,427.3L200.1,425.7L189.9,424.1L185.0,430.9L172.8,429.0Z"/>
    <path class="wtc-county" id="wtc-county-somerset" data-county="Somerset" d="M110.4,253.6L115.7,271.1L114.4,271.3L125.9,313.1L137.7,310.7L139.7,317.0L155.2,314.9L160.5,335.4L156.0,336.1L158.5,346.5L169.5,344.9L173.6,366.1L177.7,365.7L181.3,373.7L189.9,372.5L196.8,377.5L198.5,374.0L218.0,377.5L220.9,372.5L215.6,366.8L215.6,363.5L231.9,361.3L233.1,364.4L239.7,363.5L242.9,357.5L247.8,357.9L249.9,361.9L256.4,361.1L254.7,351.2L246.6,321.2L229.9,323.3L228.2,326.6L216.4,328.2L212.3,318.2L198.1,267.8L203.8,265.1L207.0,258.1L202.9,252.4L197.6,250.8L198.1,242.0L204.2,242.9L206.6,232.4L202.9,229.1L207.4,228.8L209.1,232.7L213.1,231.4L209.1,217.7L204.2,218.5L203.8,171.0L205.0,171.0L205.0,150.6L170.7,150.6L166.6,168.5L162.2,169.3L156.5,175.0L149.5,178.2L149.9,181.8L146.7,183.5L140.1,194.8L146.3,199.1L144.2,203.6L138.1,208.5L141.4,209.9L137.3,213.6L137.3,220.1L143.0,220.1L145.8,222.8L143.8,228.3L134.4,232.6L125.9,239.1L129.5,246.0L119.7,249.7L113.6,253.7L110.4,253.6Z"/>
    <path class="wtc-county" id="wtc-county-waldo" data-county="Waldo" d="M290.6,414.5L292.3,418.3L296.4,415.5L299.6,408.6L299.2,405.1L302.9,401.7L300.4,399.2L296.8,401.6L295.9,407.9L290.6,414.5ZM233.1,364.4L236.4,366.7L234.4,369.6L242.1,370.4L239.7,380.5L244.6,381.2L241.7,391.2L236.4,390.4L229.5,404.2L240.5,405.8L241.3,404.2L247.4,408.1L256.4,401.7L273.1,414.1L283.7,414.8L286.6,409.6L291.5,407.4L292.7,402.7L287.0,394.8L293.1,394.4L295.9,391.3L300.4,394.5L306.1,390.6L309.4,383.5L308.2,378.0L304.1,372.7L307.8,365.4L305.3,363.4L266.2,369.9L263.7,360.2L256.4,361.1L249.9,361.9L247.8,357.9L242.9,357.5L239.7,363.5L233.1,364.4Z"/>
    <path class="wtc-county" id="wtc-county-washington" data-county="Washington" d="M394.2,300.8L397.9,313.2L402.4,334.5L388.5,336.4L396.7,366.5L398.7,366.2L401.2,375.8L398.7,376.1L402.4,389.3L405.3,396.0L410.1,394.2L411.8,398.3L414.2,393.6L417.1,395.5L420.3,388.2L424.0,386.9L426.9,380.8L429.7,386.6L433.0,386.9L434.2,383.2L439.5,382.2L442.0,387.8L447.3,392.2L456.2,386.7L449.7,382.8L448.9,379.4L453.0,378.2L458.3,379.9L463.6,374.3L468.1,375.6L473.0,371.4L468.1,365.7L479.1,362.8L480.7,371.1L478.3,375.2L484.4,374.4L482.7,372.2L492.5,369.8L505.6,358.8L507.2,355.6L511.3,355.8L516.2,351.0L515.8,339.4L509.7,335.7L504.8,326.2L500.7,323.0L504.0,321.7L501.5,316.7L496.2,311.2L488.5,310.9L481.1,308.0L480.7,312.5L475.4,315.2L468.1,311.3L468.1,309.1L458.7,297.8L462.8,293.8L466.4,286.6L459.9,280.5L457.0,273.8L461.5,271.7L466.8,272.5L466.4,267.0L463.2,261.0L457.5,262.8L445.2,260.6L437.5,257.8L433.4,252.3L432.2,254.2L422.8,252.2L395.1,256.8L405.3,289.4L407.3,299.0L394.2,300.8Z"/>
    <path class="wtc-county" id="wtc-county-york" data-county="York" d="M61.0,466.7L62.6,491.9L63.9,495.2L64.3,503.7L61.0,513.6L64.7,518.8L81.4,531.3L79.0,535.4L80.2,542.8L93.2,550.0L96.9,548.7L102.6,541.5L102.2,539.4L107.9,531.6L105.9,529.7L110.4,520.1L114.4,517.7L120.2,518.1L125.9,515.7L124.6,512.5L128.7,511.1L132.0,506.9L129.5,500.3L133.2,495.9L117.3,487.8L121.4,483.7L111.2,475.7L107.5,478.6L98.5,477.1L100.2,470.9L98.9,467.2L94.0,465.3L86.3,466.7L84.3,464.2L72.4,465.1L64.3,467.5L61.0,466.7Z"/>
  </g>
</svg>