<?xml version="1.0" encoding="UTF-8"?>
<svg xmlns="http://www.w3.org/2000/svg" viewBox="0 0 566 600" id="wtc-state-map-ME" role="img" aria-label="me county map">
  <title>me Counties</title>
  <g class="wtc-counties">
    <path class="wtc-county" id="wtc-county-androscoggin" data-county="Androscoggin" d="M146.3,209.0L142.2,207.0L143.0,198.1L136.5,180.5L135.2,180.8L118.1,163.7L118.5,160.5L127.5,155.7L132.0,155.3L137.3,161.1L150.7,150.7L159.7,146.4L164.2,148.5L169.5,154.2L167.5,155.8L172.8,171.0L170.3,171.7L174.0,177.4L164.6,180.3L164.6,190.8L158.1,199.1L161.8,200.5L158.5,212.2L150.3,211.2L146.3,209.0Z"/>
    <path class="wtc-county" id="wtc-county-aroostook" data-county="Aroostook" d="M422.8,347.8L422.4,360.8L428.5,364.1L422.8,371.0L428.9,374.8L425.2,377.7L425.6,384.6L424.4,452.3L424.4,505.5L413.0,510.5L413.0,511.9L398.3,524.8L384.9,531.5L383.2,534.6L373.8,538.1L363.6,538.7L357.1,536.4L357.1,530.4L346.9,531.6L334.7,530.5L330.2,525.4L318.8,525.2L308.2,522.3L298.0,518.1L282.9,525.2L281.3,527.0L280.9,540.7L282.1,546.4L277.6,546.0L266.6,549.7L261.3,550.0L173.6,463.1L170.7,449.4L205.0,449.4L307.4,449.2L307.4,429.1L321.6,429.1L321.6,427.6L351.0,427.6L351.0,389.0L352.2,369.5L351.4,336.2L353.9,335.6L371.4,338.5L371.0,339.2L395.1,343.2L422.8,347.8Z"/>
    <path class="wtc-county" id="wtc-county-cumberland" data-county="Cumberland" d="M118.5,160.5L115.3,161.6L111.6,157.5L105.5,160.5L104.2,168.4L106.7,170.9L102.2,176.3L79.8,165.7L75.7,167.7L76.9,162.6L83.0,161.5L92.0,152.5L87.1,146.3L88.7,143.9L82.6,141.4L84.3,135.8L86.3,133.3L94.0,134.7L98.9,132.8L100.2,129.1L98.5,122.9L107.5,121.4L111.2,124.3L121.4,116.3L117.3,112.2L133.2,104.1L142.2,107.2L147.5,104.4L150.7,107.5L148.7,110.3L149.9,115.2L154.0,120.0L162.2,119.6L165.0,124.4L173.2,124.0L175.2,127.8L181.3,131.9L186.2,131.5L187.5,140.0L185.0,141.7L189.5,150.6L187.5,151.6L180.9,146.8L175.6,147.2L169.5,154.2L164.2,148.5L159.7,146.4L150.7,150.7L137.3,161.1L132.0,155.3L127.5,155.7L118.5,160.5Z"/>
    <path class="wtc-county" id="wtc-county-franklin" data-county="Franklin" d="M110.4,346.4L105.9,342.2L100.2,339.5L91.2,329.1L91.6,326.0L101.4,317.9L101.0,314.1L92.4,314.9L87.5,319.2L84.3,319.5L79.4,316.0L81.8,313.3L81.0,304.9L78.6,301.8L84.7,272.6L79.8,272.1L81.8,262.0L85.5,252.3L85.9,240.1L103.4,247.3L115.3,228.2L110.8,226.3L141.4,221.6L141.4,214.3L144.6,214.1L146.3,209.0L150.3,211.2L158.5,212.2L168.3,212.0L169.1,214.6L165.0,217.0L168.7,223.8L178.5,222.2L181.3,226.3L177.7,234.3L173.6,233.9L169.5,255.1L158.5,253.5L156.0,263.9L160.5,264.6L155.2,285.1L139.7,283.0L137.7,289.3L125.9,286.9L114.4,328.7L115.7,328.9L110.4,346.4Z"/>
    <path class="wtc-county" id="wtc-county-hancock" data-county="Hancock" d="M358.3,178.9L361.2,176.1L364.1,179.5L358.3,178.9ZM343.7,175.0L348.6,173.4L350.6,170.1L356.7,174.5L349.0,179.8L346.5,183.2L343.7,175.0ZM340.4,196.0L346.1,193.2L341.6,200.1L340.4,196.0ZM304.9,183.7L311.8,179.9L310.6,183.9L304.9,183.7ZM307.8,234.6L304.1,227.3L308.2,222.0L309.4,216.5L311.8,212.5L311.4,207.7L307.0,203.4L306.5,192.3L313.9,194.4L318.0,193.4L315.5,190.9L323.3,187.0L317.2,182.0L318.8,175.7L325.7,170.6L329.8,169.7L334.7,173.5L331.0,174.6L340.4,182.1L341.6,186.5L335.9,193.0L338.4,197.2L336.3,200.6L346.1,206.1L346.1,199.8L348.1,199.8L347.7,206.5L351.8,206.8L351.0,202.5L356.3,205.9L360.0,201.5L351.0,198.9L348.6,196.0L355.1,185.6L364.5,182.5L378.7,184.0L374.3,187.3L380.8,194.2L380.0,200.6L384.4,199.7L388.5,201.8L388.5,198.3L395.1,194.5L399.9,203.5L402.0,200.8L405.3,204.0L402.4,210.7L398.7,223.9L401.2,224.2L398.7,233.8L396.7,233.5L388.5,263.6L402.4,265.5L397.9,286.8L394.2,299.2L366.1,295.7L369.8,281.8L355.5,280.0L357.9,270.2L343.7,268.4L349.8,243.6L330.6,241.0L326.9,236.8L322.0,238.9L315.9,232.0L307.8,234.6Z"/>
    <path class="wtc-county" id="wtc-county-kennebec" data-county="Kennebec" d="M158.5,212.2L161.8,200.5L158.1,199.1L164.6,190.8L164.6,180.3L174.0,177.4L170.3,171.7L172.8,171.0L185.0,169.1L189.9,175.9L200.1,174.3L200.9,172.7L212.3,171.1L211.1,182.8L213.1,188.6L224.6,186.6L227.4,188.7L229.5,195.8L236.4,209.6L241.7,208.8L244.6,218.8L239.7,219.5L242.1,229.6L234.4,230.4L236.4,233.3L233.1,235.6L231.9,238.7L215.6,236.5L215.6,233.2L220.9,227.5L218.0,222.5L198.5,226.0L196.8,222.5L189.9,227.5L181.3,226.3L178.5,222.2L168.7,223.8L165.0,217.0L169.1,214.6L168.3,212.0L158.5,212.2Z"/>
    <path class="wtc-county" id="wtc-county-knox" data-county="Knox" d="M325.7,170.6L324.5,165.6L325.7,157.3L332.2,158.3L334.3,165.0L329.8,169.7L325.7,170.6ZM296.8,140.2L300.4,136.5L300.0,143.8L296.8,140.2ZM293.1,169.7L297.2,169.4L298.4,164.5L296.4,162.1L301.2,159.7L308.6,161.0L313.1,164.8L307.4,172.4L311.0,173.2L306.5,178.1L296.4,173.7L293.1,169.7ZM240.5,194.2L235.6,192.5L237.6,182.7L240.9,180.8L248.6,180.7L252.3,171.9L251.5,167.7L254.7,162.8L250.3,160.7L249.4,157.6L245.4,158.4L244.1,152.5L243.3,146.5L248.2,147.8L249.4,150.7L253.1,149.3L250.3,145.7L250.3,140.6L254.7,141.5L255.6,147.1L261.7,147.2L267.0,154.3L278.0,153.9L282.1,157.6L278.0,163.1L283.3,165.9L275.5,168.8L280.9,176.4L283.7,185.2L273.1,185.9L256.4,198.3L247.4,191.9L241.3,195.8L240.5,194.2Z"/>
    <path class="wtc-county" id="wtc-county-lincoln" data-county="Lincoln" d="M200.9,172.7L197.2,161.7L194.4,159.8L207.4,157.7L205.0,153.6L206.6,148.6L202.5,144.8L207.4,137.0L211.9,131.8L213.1,138.2L218.0,135.7L224.2,138.8L225.0,143.4L229.9,138.4L231.9,143.3L238.4,146.9L238.0,152.0L244.1,152.5L245.4,158.4L249.4,157.6L250.3,160.7L254.7,162.8L251.5,167.7L252.3,171.9L248.6,180.7L240.9,180.8L237.6,182.7L235.6,192.5L240.5,194.2L229.5,195.8L227.4,188.7L224.6,186.6L213.1,188.6L211.1,182.8L212.3,171.1L200.9,172.7Z"/>
    <path class="wtc-county" id="wtc-county-oxford" data-county="Oxford" d="M78.6,301.8L75.7,296.6L71.2,298.0L68.4,302.2L68.8,306.0L58.6,310.0L58.6,306.7L50.0,305.3L56.1,231.4L58.6,189.3L61.0,133.3L64.3,132.5L72.4,134.9L84.3,135.8L82.6,141.4L88.7,143.9L87.1,146.3L92.0,152.5L83.0,161.5L76.9,162.6L75.7,167.7L79.8,165.7L102.2,176.3L106.7,170.9L104.2,168.4L105.5,160.5L111.6,157.5L115.3,161.6L118.5,160.5L118.1,163.7L135.2,180.8L136.5,180.5L143.0,198.1L142.2,207.0L146.3,209.0L144.6,214.1L141.4,214.3L141.4,221.6L110.8,226.3L115.3,228.2L103.4,247.3L85.9,240.1L85.5,252.3L81.8,262.0L79.8,272.1L84.7,272.6L78.6,301.8Z"/>
    <path class="wtc-county" id="wtc-county-penobscot" data-county="Penobscot" d="M246.6,278.8L254.7,248.8L256.4,238.9L263.7,239.8L266.2,230.1L305.3,236.6L307.8,234.6L315.9,232.0L322.0,238.9L326.9,236.8L330.6,241.0L349.8,243.6L343.7,268.4L357.9,270.2L355.5,280.0L369.8,281.8L366.1,295.7L394.2,299.2L407.3,301.0L405.3,310.6L395.1,343.2L371.0,339.2L371.4,338.5L353.9,335.6L351.4,336.2L352.2,369.5L351.0,389.0L351.0,427.6L321.6,427.6L321.6,429.1L307.4,429.1L306.5,348.3L291.5,345.8L292.3,336.6L291.0,328.7L303.3,330.5L312.3,297.9L300.4,296.1L303.3,286.7L246.6,278.8Z"/>
    <path class="wtc-county" id="wtc-county-piscataquis" data-county="Piscataquis" d="M205.0,449.4L205.0,429.0L203.8,429.0L204.2,381.5L209.1,382.3L213.1,368.6L209.1,367.3L207.4,371.2L202.9,370.9L206.6,367.6L204.2,357.1L198.1,358.0L197.6,349.2L202.9,347.6L207.0,341.9L203.8,334.9L198.1,332.2L212.3,281.8L216.4,271.8L228.2,273.4L229.9,276.7L246.6,278.8L303.3,286.7L300.4,296.1L312.3,297.9L303.3,330.5L291.0,328.7L292.3,336.6L291.5,345.8L306.5,348.3L307.4,429.1L307.4,449.2L205.0,449.4Z"/>
    <path class="wtc-county" id="wtc-county-sagadahoc" data-county="Sagadahoc" d="M172.8,171.0L167.5,155.8L169.5,154.2L175.6,147.2L180.9,146.8L187.5,151.6L189.5,150.6L185.0,141.7L187.5,140.0L186.2,131.5L189.1,129.5L189.9,123.3L191.9,125.2L201.3,127.8L207.4,137.0L202.5,144.8L206.6,148.6L205.0,153.6L207.4,157.7L194.4,159.8L197.2,161.7L200.9,172.7L200.1,174.3L189.9,175.9L185.0,169.1L172.8,171.0Z"/>
    <path class="wtc-county" id="wtc-county-somerset" data-county="Somerset" d="M110.4,346.4L115.7,328.9L114.4,328.7L125.9,286.9L137.7,289.3L139.7,283.0L155.2,285.1L160.5,264.6L156.0,263.9L158.5,253.5L169.5,255.1L173.6,233.9L177.7,234.3L181.3,226.3L189.9,227.5L196.8,222.5L198.5,226.0L218.0,222.5L220.9,227.5L215.6,233.2L215.6,236.5L231.9,238.7L233.1,235.6L239.7,236.5L242.9,242.5L247.8,242.1L249.9,238.1L256.4,238.9L254.7,248.8L246.6,278.8L229.9,276.7L228.2,273.4L216.4,271.8L212.3,281.8L198.1,332.2L203.8,334.9L207.0,341.9L202.9,347.6L197.6,349.2L198.1,358.0L204.2,357.1L206.6,367.6L202.9,370.9L207.4,371.2L209.1,367.3L213.1,368.6L209.1,382.3L204.2,381.5L203.8,429.0L205.0,429.0L205.0,449.4L170.7,449.4L166.6,431.5L162.2,430.7L156.5,425.0L149.5,421.8L149.9,418.2L146.7,416.5L140.1,405.2L146.3,400.9L144.2,396.4L138.1,391.5L141.4,390.1L137.3,386.4L137.3,379.9L143.0,379.9L145.8,377.2L143.8,371.7L134.4,367.4L125.9,360.9L129.5,354.0L119.7,350.3L113.6,346.3L110.4,346.4Z"/>
    <path class="wtc-county" id="wtc-county-waldo" data-county="Waldo" d="M290.6,185.5L292.3,181.7L296.4,184.5L299.6,191.4L299.2,194.9L302.9,198.3L300.4,200.8L296.8,198.4L295.9,192.1L290.6,185.5ZM233.1,235.6L236.4,233.3L234.4,230.4L242.1,229.6L239.7,219.5L244.6,218.8L241.7,208.8L236.4,209.6L229.5,195.8L240.5,194.2L241.3,195.8L247.4,191.9L256.4,198.3L273.1,185.9L283.7,185.2L286.6,190.4L291.5,192.6L292.7,197.3L287.0,205.2L293.1,205.6L295.9,208.7L300.4,205.5L306.1,209.4L309.4,216.5L308.2,222.0L304.1,227.3L307.8,234.6L305.3,236.6L266.2,230.1L263.7,239.8L256.4,238.9L249.9,238.1L247.8,242.1L242.9,242.5L239.7,236.5L233.1,235.6Z"/>
    <path class="wtc-county" id="wtc-county-washington" data-county="Washington" d="M394.2,299.2L397.9,286.8L402.4,265.5L388.5,263.6L396.7,233.5L398.7,233.8L401.2,224.2L398.7,223.9L402.4,210.7L405.3,204.0L410.1,205.8L411.8,201.7L414.2,206.4L417.1,204.5L420.3,211.8L424.0,213.1L426.9,219.2L429.7,213.4L433.0,213.1L434.2,216.8L439.5,217.8L442.0,212.2L447.3,207.8L456.2,213.3L449.7,217.2L448.9,220.6L453.0,221.8L458.3,220.1L463.6,225.7L468.1,224.4L473.0,228.6L468.1,234.3L479.1,237.2L480.7,228.9L478.3,224.8L484.4,225.6L482.7,227.8L492.5,230.2L505.6,241.2L507.2,244.4L511.3,244.2L516.2,249.0L515.8,260.6L509.7,264.3L504.8,273.8L500.7,277.0L504.0,278.3L501.5,283.3L496.2,288.8L488.5,289.1L481.1,292.0L480.7,287.5L475.4,284.8L468.1,288.7L468.1,290.9L458.7,302.2L462.8,306.2L466.4,313.4L459.9,319.5L457.0,326.2L461.5,328.3L466.8,327.5L466.4,333.0L463.2,339.0L457.5,337.2L445.2,339.4L437.5,342.2L433.4,347.7L432.2,345.8L422.8,347.8L395.1,343.2L405.3,310.6L407.3,301.0L394.2,299.2Z"/>
    <path class="wtc-county" id="wtc-county-york" data-county="York" d="M61.0,133.3L62.6,108.1L63.9,104.8L64.3,96.3L61.0,86.4L64.7,81.2L81.4,68.7L79.0,64.6L80.2,57.2L93.2,50.0L96.9,51.3L102.6,58.5L102.2,60.6L107.9,68.4L105.9,70.3L110.4,79.9L114.4,82.3L120.2,81.9L125.9,84.3L124.6,87.5L128.7,88.9L132.0,93.1L129.5,99.7L133.2,104.1L117.3,112.2L121.4,116.3L111.2,124.3L107.5,121.4L98.5,122.9L100.2,129.1L98.9,132.8L94.0,134.7L86.3,133.3L84.3,135.8L72.4,134.9L64.3,132.5L61.0,133.3Z"/>
  </g>
</svg>