<?xml version="1.0" encoding="UTF-8"?>
<svg xmlns="http://www.w3.org/2000/svg" viewBox="0 0 600 388" id="wtc-state-map-NY" role="img" aria-label="ny county map">
  <title>ny Counties</title>
  <g class="wtc-counties">
    <path class="wtc-county" id="wtc-county-albany" data-county="Albany" d="M406.2,192.1L407.3,191.4L405.5,185.1L402.3,180.7L403.2,177.1L400.9,172.4L401.6,171.6L431.6,175.2L433.6,181.7L433.2,184.8L436.4,189.9L438.5,195.6L437.5,195.1L434.6,197.9L432.5,195.8L430.0,195.3L429.8,195.1L406.2,192.1Z"/>
    <path class="wtc-county" id="wtc-county-allegany" data-county="Allegany" d="M142.8,178.8L142.8,145.5L149.4,145.5L178.5,145.5L179.0,157.9L180.1,171.4L180.1,175.6L172.8,175.9L172.8,178.6L160.2,178.9L142.8,178.8Z"/>
    <path class="wtc-county" id="wtc-county-bronx" data-county="Bronx" d="M422.0,74.2L423.8,73.7L422.0,71.3L423.3,68.7L431.4,69.1L429.8,72.0L432.7,71.9L432.7,73.9L423.1,76.5L422.0,74.2Z"/>
    <path class="wtc-county" id="wtc-county-broome" data-county="Broome" d="M281.8,171.8L285.0,160.3L284.5,157.5L282.7,157.4L283.4,145.5L306.5,145.4L323.0,145.5L328.3,145.5L327.1,148.3L327.4,158.0L313.4,158.0L313.2,161.4L301.7,161.5L300.1,162.2L298.7,172.1L288.9,171.7L281.8,171.8Z"/>
    <path class="wtc-county" id="wtc-county-cattaraugus" data-county="Cattaraugus" d="M94.9,179.9L94.9,145.5L103.8,145.5L142.8,145.5L142.8,178.8L132.9,178.7L132.9,179.8L126.5,178.1L120.3,177.0L106.1,173.6L101.5,175.8L99.5,178.9L94.9,179.9Z"/>
    <path class="wtc-county" id="wtc-county-cayuga" data-county="Cayuga" d="M244.7,210.9L243.1,206.5L244.5,199.1L242.9,196.0L243.5,191.1L246.5,188.4L247.7,185.3L260.9,185.6L260.9,185.1L273.3,185.4L272.6,194.8L270.6,197.5L267.4,199.8L261.4,199.5L260.7,209.8L258.7,209.7L258.4,215.9L260.0,216.2L259.6,223.9L259.3,225.8L251.6,225.9L250.9,236.2L245.6,231.4L244.0,231.3L245.4,214.5L244.7,210.9Z"/>
    <path class="wtc-county" id="wtc-county-chautauqua" data-county="Chautauqua" d="M50.0,162.8L50.0,145.6L59.6,145.5L94.9,145.5L94.9,179.9L91.9,181.9L90.1,181.9L89.2,180.9L83.2,179.5L76.3,176.8L69.7,171.8L57.6,165.7L50.0,162.8Z"/>
    <path class="wtc-county" id="wtc-county-chemung" data-county="Chemung" d="M228.4,145.7L230.9,145.7L254.5,145.6L255.7,148.9L254.3,155.5L255.9,155.5L255.9,163.6L250.6,163.6L249.3,160.5L243.3,161.4L243.3,164.4L228.7,163.9L228.7,163.4L228.4,145.7Z"/>
    <path class="wtc-county" id="wtc-county-chenango" data-county="Chenango" d="M297.1,191.8L298.3,180.2L298.7,172.1L300.1,162.2L301.7,161.5L313.2,161.4L313.4,158.0L327.4,158.0L327.4,165.6L328.7,168.1L328.1,169.9L330.1,172.1L328.1,176.1L330.6,181.0L333.1,182.4L332.9,188.6L335.2,193.1L326.7,192.7L326.7,193.1L297.1,191.8Z"/>
    <path class="wtc-county" id="wtc-county-clinton" data-county="Clinton" d="M416.0,336.8L418.8,318.4L419.9,318.4L421.3,309.9L422.0,310.0L423.6,300.6L436.9,301.7L438.9,301.4L445.1,302.9L446.2,304.0L449.9,304.3L452.0,307.5L460.0,308.1L458.6,309.2L456.8,313.8L457.7,315.5L458.2,320.5L460.4,323.5L457.5,326.7L458.4,330.1L460.0,331.8L459.8,337.7L438.5,337.2L416.0,336.8Z"/>
    <path class="wtc-county" id="wtc-county-columbia" data-county="Columbia" d="M423.6,153.7L422.2,150.6L423.6,150.6L436.2,145.9L447.8,144.2L448.3,148.8L449.9,148.8L449.2,151.1L459.1,178.1L431.6,175.2L432.0,173.0L430.9,169.5L431.6,164.0L430.4,161.8L427.5,160.3L427.0,157.8L424.7,156.3L423.6,153.7Z"/>
    <path class="wtc-county" id="wtc-county-cortland" data-county="Cortland" d="M272.6,194.8L273.3,185.4L274.0,171.6L281.8,171.8L288.9,171.7L298.7,172.1L298.3,180.2L297.1,191.8L296.7,196.0L272.6,194.8Z"/>
    <path class="wtc-county" id="wtc-county-delaware" data-county="Delaware" d="M327.4,158.0L327.1,148.3L328.3,145.5L331.0,145.5L334.2,142.3L335.4,142.5L337.2,137.1L340.7,137.3L344.5,136.1L367.9,146.6L389.0,156.4L383.5,158.4L390.4,167.9L389.4,168.2L378.2,172.7L372.3,178.7L368.4,177.8L364.0,178.3L356.0,175.5L352.8,173.0L348.0,172.4L341.3,168.5L337.2,169.0L334.2,166.1L327.4,165.6L327.4,158.0Z"/>
    <path class="wtc-county" id="wtc-county-dutchess" data-county="Dutchess" d="M420.8,119.4L417.8,114.9L417.8,110.8L419.0,109.8L422.0,112.9L447.8,115.4L448.5,124.3L450.6,148.8L449.9,148.8L448.3,148.8L447.8,144.2L436.2,145.9L423.6,150.6L422.2,150.6L421.7,146.0L420.1,139.8L421.5,137.5L420.8,131.0L421.5,130.0L420.8,119.4Z"/>
    <path class="wtc-county" id="wtc-county-erie" data-county="Erie" d="M97.4,213.6L98.3,212.4L97.9,208.5L103.1,206.6L104.7,204.5L104.3,202.2L107.3,200.0L108.2,195.6L103.8,192.6L95.6,189.6L94.7,186.7L91.7,184.7L90.1,181.9L91.9,181.9L94.9,179.9L99.5,178.9L101.5,175.8L106.1,173.6L120.3,177.0L126.5,178.1L132.9,179.8L132.9,195.4L131.3,195.4L131.5,201.0L132.9,201.0L132.9,215.1L129.9,215.7L124.0,214.0L116.2,214.9L111.4,213.6L108.9,210.6L105.7,210.8L105.4,212.2L102.2,213.7L97.4,213.6Z"/>
    <path class="wtc-county" id="wtc-county-essex" data-county="Essex" d="M399.7,280.9L401.4,271.3L396.3,268.5L404.1,261.2L408.2,262.4L411.2,260.8L414.9,260.2L414.2,256.9L453.6,260.7L457.5,261.0L457.7,265.3L455.4,268.9L455.6,274.6L453.6,276.1L455.4,280.4L456.6,285.3L461.6,290.1L460.2,297.0L463.0,301.3L462.0,305.1L460.0,308.1L452.0,307.5L449.9,304.3L446.2,304.0L445.1,302.9L438.9,301.4L436.9,301.7L423.6,300.6L408.7,299.2L411.9,282.0L399.7,280.9Z"/>
    <path class="wtc-county" id="wtc-county-franklin" data-county="Franklin" d="M416.0,336.8L408.5,336.5L396.3,336.5L375.5,337.0L371.3,336.7L371.8,334.0L376.8,334.0L378.0,325.2L384.2,284.1L383.0,284.0L383.7,279.5L399.7,280.9L411.9,282.0L408.7,299.2L423.6,300.6L422.0,310.0L421.3,309.9L419.9,318.4L418.8,318.4L416.0,336.8Z"/>
    <path class="wtc-county" id="wtc-county-fulton" data-county="Fulton" d="M372.3,227.7L373.4,220.5L371.3,217.4L369.3,217.0L368.4,214.7L369.3,212.4L383.3,208.5L411.7,208.3L408.9,225.6L403.4,225.3L403.6,223.6L397.2,223.1L397.0,224.8L383.7,223.9L372.3,227.7Z"/>
    <path class="wtc-county" id="wtc-county-genesee" data-county="Genesee" d="M132.9,217.6L132.9,215.1L132.9,201.0L157.9,201.1L165.4,200.6L165.4,203.4L168.2,205.9L168.2,208.6L168.6,211.8L165.7,211.9L168.4,217.9L162.7,217.9L132.9,217.6Z"/>
    <path class="wtc-county" id="wtc-county-greene" data-county="Greene" d="M389.4,168.2L390.4,167.9L383.5,158.4L389.0,156.4L398.1,152.9L413.0,151.7L415.1,156.5L417.6,156.9L423.6,153.7L424.7,156.3L427.0,157.8L427.5,160.3L430.4,161.8L431.6,164.0L430.9,169.5L432.0,173.0L431.6,175.2L401.6,171.6L402.3,169.7L395.6,168.3L393.6,169.5L389.4,168.2Z"/>
    <path class="wtc-county" id="wtc-county-hamilton" data-county="Hamilton" d="M363.3,277.7L368.4,240.4L362.4,231.1L372.3,227.7L383.7,223.9L397.0,224.8L397.2,223.1L403.6,223.6L403.4,225.3L408.9,225.6L407.5,233.1L404.1,255.9L414.2,256.9L414.9,260.2L411.2,260.8L408.2,262.4L404.1,261.2L396.3,268.5L401.4,271.3L399.7,280.9L383.7,279.5L363.3,277.7Z"/>
    <path class="wtc-county" id="wtc-county-herkimer" data-county="Herkimer" d="M346.8,248.7L349.1,230.5L344.5,228.9L343.6,225.9L349.6,223.9L340.0,212.8L341.1,201.8L340.4,201.7L340.4,200.3L345.0,200.5L347.5,203.5L359.9,198.2L361.7,202.9L369.1,200.7L370.4,209.2L369.3,212.4L368.4,214.7L369.3,217.0L371.3,217.4L373.4,220.5L372.3,227.7L362.4,231.1L368.4,240.4L363.3,277.7L350.0,276.5L343.2,279.4L346.8,248.7Z"/>
    <path class="wtc-county" id="wtc-county-jefferson" data-county="Jefferson" d="M266.2,265.2L268.7,265.5L269.9,268.0L266.2,265.2ZM299.0,298.9L292.1,295.1L290.0,295.4L283.9,292.4L279.7,291.1L279.7,288.5L274.5,286.2L270.1,285.9L266.4,279.6L266.2,275.3L269.7,275.2L273.1,272.4L271.9,270.8L277.0,271.6L281.3,269.1L282.0,266.7L277.2,264.5L276.8,266.3L273.5,265.7L271.0,262.9L275.6,260.7L277.4,252.8L288.7,252.1L288.7,254.5L304.5,253.4L303.8,259.7L299.7,260.0L300.3,265.8L305.6,265.5L315.5,271.4L319.4,271.1L318.9,273.7L321.9,273.8L323.0,277.9L319.1,279.8L325.5,287.1L299.0,298.9ZM261.2,266.3L266.0,268.2L263.9,268.5L261.2,266.3Z"/>
    <path class="wtc-county" id="wtc-county-kings" data-county="Kings" d="M416.5,61.4L415.1,58.1L417.6,56.0L416.9,54.6L422.0,54.3L427.5,55.5L428.4,58.1L427.0,59.0L426.1,62.3L424.5,61.5L422.4,64.3L420.1,65.0L419.4,63.2L416.5,61.4Z"/>
    <path class="wtc-county" id="wtc-county-lewis" data-county="Lewis" d="M325.5,287.1L319.1,279.8L323.0,277.9L321.9,273.8L318.9,273.7L319.4,271.1L315.5,271.4L305.6,265.5L300.3,265.8L299.7,260.0L303.8,259.7L304.5,253.4L305.6,239.4L319.8,236.2L346.8,248.7L343.2,279.4L325.5,287.1Z"/>
    <path class="wtc-county" id="wtc-county-livingston" data-county="Livingston" d="M165.4,200.6L165.2,188.2L158.6,179.6L160.2,178.9L172.8,178.6L172.8,175.9L180.1,175.6L180.3,179.8L184.2,179.8L184.2,182.6L195.0,182.4L195.2,188.4L188.1,188.5L187.2,194.3L188.8,194.3L188.8,200.1L191.5,200.8L189.3,205.9L179.6,205.9L179.6,208.6L168.2,208.6L168.2,205.9L165.4,203.4L165.4,200.6Z"/>
    <path class="wtc-county" id="wtc-county-madison" data-county="Madison" d="M290.5,221.1L292.1,219.3L291.6,215.2L295.3,215.1L296.7,196.0L297.1,191.8L326.7,193.1L326.7,192.7L335.2,193.1L337.9,195.7L338.1,201.2L326.0,200.7L324.9,205.1L319.4,205.0L318.7,211.8L315.9,211.7L315.7,213.3L313.2,214.5L312.3,216.7L308.8,218.2L307.7,219.8L297.6,219.3L294.4,220.7L290.5,221.1Z"/>
    <path class="wtc-county" id="wtc-county-monroe" data-county="Monroe" d="M162.9,232.7L162.7,217.9L168.4,217.9L165.7,211.9L168.6,211.8L168.2,208.6L179.6,208.6L179.6,205.9L189.3,205.9L195.4,205.8L195.4,211.6L202.5,211.6L202.3,227.1L194.3,225.4L192.2,224.4L189.5,224.9L184.2,227.4L180.8,230.0L175.5,231.1L162.9,232.7Z"/>
    <path class="wtc-county" id="wtc-county-montgomery" data-county="Montgomery" d="M369.1,200.7L376.4,198.5L381.9,197.5L388.8,194.9L399.3,195.6L400.9,196.4L401.4,197.4L412.3,202.8L411.9,206.6L411.7,208.3L383.3,208.5L369.3,212.4L370.4,209.2L369.1,200.7Z"/>
    <path class="wtc-county" id="wtc-county-nassau" data-county="Nassau" d="M449.9,76.9L445.6,76.4L440.7,74.9L438.5,72.6L435.9,73.5L432.5,69.0L436.9,66.0L435.2,64.2L435.2,59.6L432.5,57.8L433.6,55.6L446.0,55.1L454.5,56.9L454.0,64.1L452.2,73.3L449.9,76.9Z"/>
    <path class="wtc-county" id="wtc-county-new-york" data-county="New York" d="M414.9,62.0L416.5,61.4L419.4,63.2L420.1,65.0L423.3,68.7L422.0,71.3L423.8,73.7L422.0,74.2L418.8,69.0L417.2,66.8L416.2,63.2L414.9,62.0Z"/>
    <path class="wtc-county" id="wtc-county-niagara" data-county="Niagara" d="M132.9,233.1L131.3,233.3L122.1,232.2L109.3,229.6L100.6,227.3L94.2,226.1L94.9,225.4L96.0,218.6L94.0,214.3L97.4,213.6L102.2,213.7L105.4,212.2L105.7,210.8L108.9,210.6L111.4,213.6L116.2,214.9L124.0,214.0L129.9,215.7L132.9,215.1L132.9,217.6L132.9,233.1Z"/>
    <path class="wtc-county" id="wtc-county-oneida" data-county="Oneida" d="M305.6,239.4L301.9,240.3L297.4,230.1L299.0,229.8L297.6,219.3L307.7,219.8L308.8,218.2L312.3,216.7L313.2,214.5L315.7,213.3L315.9,211.7L318.7,211.8L319.4,205.0L324.9,205.1L326.0,200.7L338.1,201.2L340.4,201.7L341.1,201.8L340.0,212.8L349.6,223.9L343.6,225.9L344.5,228.9L349.1,230.5L346.8,248.7L319.8,236.2L305.6,239.4Z"/>
    <path class="wtc-county" id="wtc-county-onondaga" data-county="Onondaga" d="M259.6,223.9L260.0,216.2L258.4,215.9L258.7,209.7L260.7,209.8L261.4,199.5L267.4,199.8L270.6,197.5L272.6,194.8L296.7,196.0L295.3,215.1L291.6,215.2L292.1,219.3L290.5,221.1L277.2,226.7L277.7,223.3L275.8,222.5L273.5,224.5L272.2,222.2L270.6,224.1L259.6,223.9Z"/>
    <path class="wtc-county" id="wtc-county-ontario" data-county="Ontario" d="M189.3,205.9L191.5,200.8L188.8,200.1L188.8,194.3L187.2,194.3L188.1,188.5L195.2,188.4L195.0,182.4L203.0,182.4L203.0,188.2L206.4,194.2L228.2,194.3L227.5,200.3L228.7,201.3L228.7,210.2L217.9,210.2L217.7,211.9L202.5,211.6L195.4,211.6L195.4,205.8L189.3,205.9Z"/>
    <path class="wtc-county" id="wtc-county-orange" data-county="Orange" d="M394.3,119.5L391.7,118.5L387.4,113.9L369.7,113.3L369.5,108.9L373.4,104.6L394.3,94.8L402.7,90.9L419.0,102.5L421.0,107.0L419.0,109.8L417.8,110.8L417.8,114.9L420.8,119.4L414.4,118.9L409.1,121.0L409.6,119.0L401.8,120.4L400.9,122.1L394.3,119.5Z"/>
    <path class="wtc-county" id="wtc-county-orleans" data-county="Orleans" d="M132.9,233.1L132.9,217.6L162.7,217.9L162.9,232.7L155.8,233.4L147.6,232.9L138.9,233.4L132.9,233.1Z"/>
    <path class="wtc-county" id="wtc-county-oswego" data-county="Oswego" d="M277.4,252.8L277.2,246.1L275.1,243.2L271.3,242.1L266.7,243.0L263.5,242.7L259.1,239.7L256.8,239.3L250.9,236.2L251.6,225.9L259.3,225.8L259.6,223.9L270.6,224.1L272.2,222.2L273.5,224.5L275.8,222.5L277.7,223.3L277.2,226.7L290.5,221.1L294.4,220.7L297.6,219.3L299.0,229.8L297.4,230.1L301.9,240.3L305.6,239.4L304.5,253.4L288.7,254.5L288.7,252.1L277.4,252.8Z"/>
    <path class="wtc-county" id="wtc-county-otsego" data-county="Otsego" d="M335.2,193.1L332.9,188.6L333.1,182.4L330.6,181.0L328.1,176.1L330.1,172.1L328.1,169.9L328.7,168.1L327.4,165.6L334.2,166.1L337.2,169.0L341.3,168.5L348.0,172.4L352.8,173.0L356.0,175.5L364.0,178.3L368.4,177.8L372.3,178.7L377.5,185.6L375.2,193.5L376.4,198.5L369.1,200.7L361.7,202.9L359.9,198.2L347.5,203.5L345.0,200.5L340.4,200.3L340.4,201.7L338.1,201.2L337.9,195.7L335.2,193.1Z"/>
    <path class="wtc-county" id="wtc-county-putnam" data-county="Putnam" d="M419.0,102.5L419.0,102.3L446.9,105.1L447.8,115.4L422.0,112.9L419.0,109.8L421.0,107.0L419.0,102.5Z"/>
    <path class="wtc-county" id="wtc-county-queens" data-county="Queens" d="M423.3,68.7L420.1,65.0L422.4,64.3L424.5,61.5L426.1,62.3L427.0,59.0L428.4,58.1L427.5,55.5L422.0,54.3L421.5,52.6L428.4,54.8L433.6,55.6L432.5,57.8L435.2,59.6L435.2,64.2L436.9,66.0L432.5,69.0L431.4,69.1L423.3,68.7Z"/>
    <path class="wtc-county" id="wtc-county-rensselaer" data-county="Rensselaer" d="M438.5,195.6L436.4,189.9L433.2,184.8L433.6,181.7L431.6,175.2L459.1,178.1L464.8,193.2L463.0,196.8L463.9,198.8L464.1,205.8L457.2,205.8L454.0,206.7L452.9,205.9L441.0,205.6L438.2,203.8L439.6,197.8L438.5,195.6Z"/>
    <path class="wtc-county" id="wtc-county-richmond" data-county="Richmond" d="M404.8,55.8L403.9,53.6L401.8,52.7L401.1,50.0L403.6,50.1L412.3,54.3L414.4,56.5L413.3,60.1L407.5,59.1L404.8,58.2L404.8,55.8Z"/>
    <path class="wtc-county" id="wtc-county-rockland" data-county="Rockland" d="M402.7,90.9L404.3,90.3L423.8,81.6L424.5,81.6L424.9,90.0L422.2,94.8L419.7,97.6L421.3,100.3L419.0,102.3L419.0,102.5L402.7,90.9Z"/>
    <path class="wtc-county" id="wtc-county-st-lawrence" data-county="St. Lawrence" d="M371.3,336.7L364.9,338.0L359.9,336.0L355.8,336.0L349.8,332.6L334.2,326.6L334.5,326.0L321.6,318.2L314.5,312.7L305.2,306.1L302.4,303.3L301.5,300.8L299.0,298.9L325.5,287.1L343.2,279.4L350.0,276.5L363.3,277.7L383.7,279.5L383.0,284.0L384.2,284.1L378.0,325.2L376.8,334.0L371.8,334.0L371.3,336.7Z"/>
    <path class="wtc-county" id="wtc-county-saratoga" data-county="Saratoga" d="M407.5,233.1L408.9,225.6L411.7,208.3L411.9,206.6L417.4,205.1L420.6,202.8L423.8,203.7L424.5,199.9L430.0,195.3L432.5,195.8L434.6,197.9L437.5,195.1L438.5,195.6L439.6,197.8L438.2,203.8L441.0,205.6L444.6,213.0L444.9,217.0L444.0,218.0L444.6,222.7L443.3,226.5L443.7,228.9L440.5,228.8L434.6,226.5L432.5,223.6L430.4,225.4L428.4,225.3L428.8,228.9L426.8,230.5L425.2,234.8L407.5,233.1Z"/>
    <path class="wtc-county" id="wtc-county-schenectady" data-county="Schenectady" d="M400.9,196.4L401.4,193.9L398.4,193.3L400.4,191.2L405.9,191.0L406.2,192.1L429.8,195.1L430.0,195.3L424.5,199.9L423.8,203.7L420.6,202.8L417.4,205.1L411.9,206.6L412.3,202.8L401.4,197.4L400.9,196.4Z"/>
    <path class="wtc-county" id="wtc-county-schoharie" data-county="Schoharie" d="M376.4,198.5L375.2,193.5L377.5,185.6L372.3,178.7L378.2,172.7L389.4,168.2L393.6,169.5L395.6,168.3L402.3,169.7L401.6,171.6L400.9,172.4L403.2,177.1L402.3,180.7L405.5,185.1L407.3,191.4L406.2,192.1L405.9,191.0L400.4,191.2L398.4,193.3L401.4,193.9L400.9,196.4L399.3,195.6L388.8,194.9L381.9,197.5L376.4,198.5Z"/>
    <path class="wtc-county" id="wtc-county-schuyler" data-county="Schuyler" d="M219.5,176.5L219.9,163.0L228.7,163.4L228.7,163.9L243.3,164.4L243.3,161.4L249.3,160.5L250.6,163.6L246.1,163.7L246.3,169.5L245.6,180.5L233.0,180.1L233.5,175.2L227.0,175.2L227.0,176.5L219.5,176.5Z"/>
    <path class="wtc-county" id="wtc-county-seneca" data-county="Seneca" d="M228.7,210.2L228.7,201.3L227.5,200.3L228.2,194.3L229.8,194.4L230.5,191.3L233.0,187.9L233.0,180.1L245.6,180.5L252.7,180.7L250.6,181.7L247.7,185.3L246.5,188.4L243.5,191.1L242.9,196.0L244.5,199.1L243.1,206.5L244.7,210.9L228.7,210.2Z"/>
    <path class="wtc-county" id="wtc-county-steuben" data-county="Steuben" d="M180.1,175.6L180.1,171.4L179.0,157.9L178.5,145.5L187.4,145.5L218.3,145.5L228.4,145.7L228.7,163.4L219.9,163.0L219.5,176.5L219.5,177.9L216.7,177.5L217.2,182.4L203.0,182.4L195.0,182.4L184.2,182.6L184.2,179.8L180.3,179.8L180.1,175.6Z"/>
    <path class="wtc-county" id="wtc-county-suffolk" data-county="Suffolk" d="M543.1,98.1L545.2,97.9L550.0,100.3L543.8,99.1L543.1,98.1ZM536.3,88.0L538.5,87.4L539.9,85.5L539.9,88.3L537.4,89.1L536.3,88.0ZM531.7,93.5L532.6,92.0L535.3,94.3L531.7,93.5ZM454.5,56.9L460.7,58.4L462.0,57.6L468.2,58.2L478.1,60.5L490.2,64.7L508.8,69.8L520.2,73.2L538.1,80.0L553.4,85.1L554.6,86.3L551.8,86.9L547.9,86.3L547.5,84.8L542.2,82.2L538.8,81.2L535.1,85.2L532.6,83.8L528.7,84.5L527.6,86.9L524.1,88.6L526.2,88.9L530.3,91.8L527.6,91.9L522.7,90.7L519.8,88.0L517.0,87.3L515.0,85.1L508.1,81.6L504.9,80.6L495.9,79.5L478.8,79.4L476.5,80.0L472.6,79.6L472.1,77.2L466.9,75.7L462.7,77.0L458.2,77.4L456.1,78.9L455.6,76.7L450.6,78.3L449.9,76.9L452.2,73.3L454.0,64.1L454.5,56.9Z"/>
    <path class="wtc-county" id="wtc-county-sullivan" data-county="Sullivan" d="M344.5,136.1L349.1,132.7L347.3,131.0L350.5,129.8L351.2,121.6L349.6,120.2L354.9,114.2L355.1,112.4L357.6,112.7L361.0,110.8L360.6,109.9L366.3,110.0L369.5,108.9L369.7,113.3L387.4,113.9L391.7,118.5L394.3,119.5L392.6,122.9L381.0,129.3L388.8,137.7L367.9,146.6L344.5,136.1Z"/>
    <path class="wtc-county" id="wtc-county-tioga" data-county="Tioga" d="M255.9,163.6L255.9,155.5L254.3,155.5L255.7,148.9L254.5,145.6L280.9,145.5L283.4,145.5L282.7,157.4L284.5,157.5L285.0,160.3L281.8,171.8L274.0,171.6L271.0,170.2L274.7,168.8L274.2,164.5L267.8,165.9L263.7,165.9L263.7,162.4L259.8,162.4L259.8,163.5L255.9,163.6Z"/>
    <path class="wtc-county" id="wtc-county-tompkins" data-county="Tompkins" d="M245.6,180.5L246.3,169.5L246.1,163.7L250.6,163.6L255.9,163.6L259.8,163.5L259.8,162.4L263.7,162.4L263.7,165.9L267.8,165.9L274.2,164.5L274.7,168.8L271.0,170.2L274.0,171.6L273.3,185.4L260.9,185.1L260.9,185.6L247.7,185.3L250.6,181.7L252.7,180.7L245.6,180.5Z"/>
    <path class="wtc-county" id="wtc-county-ulster" data-county="Ulster" d="M367.9,146.6L388.8,137.7L381.0,129.3L392.6,122.9L394.3,119.5L400.9,122.1L401.8,120.4L409.6,119.0L409.1,121.0L414.4,118.9L420.8,119.4L421.5,130.0L420.8,131.0L421.5,137.5L420.1,139.8L421.7,146.0L422.2,150.6L423.6,153.7L417.6,156.9L415.1,156.5L413.0,151.7L398.1,152.9L389.0,156.4L367.9,146.6Z"/>
    <path class="wtc-county" id="wtc-county-warren" data-county="Warren" d="M414.2,256.9L404.1,255.9L407.5,233.1L425.2,234.8L426.8,230.5L428.8,228.9L428.4,225.3L430.4,225.4L432.5,223.6L434.6,226.5L440.5,228.8L443.7,228.9L441.4,240.4L442.8,244.7L448.1,250.0L450.1,251.2L452.2,256.7L451.5,258.6L453.6,260.7L414.2,256.9Z"/>
    <path class="wtc-county" id="wtc-county-washington" data-county="Washington" d="M453.6,260.7L451.5,258.6L452.2,256.7L450.1,251.2L448.1,250.0L442.8,244.7L441.4,240.4L443.7,228.9L443.3,226.5L444.6,222.7L444.0,218.0L444.9,217.0L444.6,213.0L441.0,205.6L452.9,205.9L454.0,206.7L457.2,205.8L464.1,205.8L465.3,229.5L465.7,244.8L462.7,246.4L462.3,249.3L457.9,249.3L456.3,245.6L454.0,247.1L455.6,253.3L458.4,257.5L459.3,258.6L457.5,261.0L453.6,260.7Z"/>
    <path class="wtc-county" id="wtc-county-wayne" data-county="Wayne" d="M202.3,227.1L202.5,211.6L217.7,211.9L217.9,210.2L228.7,210.2L244.7,210.9L245.4,214.5L244.0,231.3L239.4,229.1L232.5,228.1L229.3,226.7L224.1,226.7L219.3,227.8L209.4,227.1L202.3,227.1Z"/>
    <path class="wtc-county" id="wtc-county-westchester" data-county="Westchester" d="M419.0,102.3L421.3,100.3L419.7,97.6L422.2,94.8L424.9,90.0L424.5,81.6L423.1,76.5L432.7,73.9L433.2,76.2L438.0,78.5L439.6,80.8L439.8,82.6L435.2,88.2L450.8,95.3L446.5,100.7L446.9,105.1L419.0,102.3Z"/>
    <path class="wtc-county" id="wtc-county-wyoming" data-county="Wyoming" d="M132.9,201.0L131.5,201.0L131.3,195.4L132.9,195.4L132.9,179.8L132.9,178.7L142.8,178.8L160.2,178.9L158.6,179.6L165.2,188.2L165.4,200.6L157.9,201.1L132.9,201.0Z"/>
    <path class="wtc-county" id="wtc-county-yates" data-county="Yates" d="M228.2,194.3L206.4,194.2L203.0,188.2L203.0,182.4L217.2,182.4L216.7,177.5L219.5,177.9L219.5,176.5L227.0,176.5L227.0,175.2L233.5,175.2L233.0,180.1L233.0,187.9L230.5,191.3L229.8,194.4L228.2,194.3Z"/>
  </g>
</svg>