<?xml version="1.0" encoding="UTF-8"?>
<svg xmlns="http://www.w3.org/2000/svg" viewBox="0 0 600 304" id="wtc-state-map-MD" role="img" aria-label="md county map">
  <title>md Counties</title>
  <g class="wtc-counties">
    <path class="wtc-county" id="wtc-county-allegany" data-county="Allegany" d="M113.1,50.0L97.3,78.0L109.9,81.9L114.3,76.6L129.7,61.3L135.0,62.3L129.7,63.7L135.0,65.4L135.8,67.9L143.4,71.2L150.7,71.1L153.6,72.8L164.9,73.2L170.6,69.6L167.7,64.8L173.0,64.9L168.5,61.8L174.2,62.9L174.6,60.6L179.9,59.8L179.0,55.3L182.3,53.4L179.0,50.0L174.6,50.0L126.5,50.0L113.1,50.0Z"/>
    <path class="wtc-county" id="wtc-county-anne-arundel" data-county="Anne Arundel" d="M348.1,119.8L348.5,123.4L358.3,127.6L364.3,133.3L365.1,139.9L367.6,142.0L365.1,147.3L363.9,155.3L365.5,159.8L372.8,157.7L372.8,162.3L383.3,163.8L380.1,157.7L387.0,152.0L384.5,146.9L387.4,141.6L391.0,142.0L392.2,138.1L389.4,134.5L398.7,130.2L393.4,125.5L395.5,123.1L394.7,116.6L383.7,111.4L382.9,108.2L377.3,108.1L373.2,104.7L364.3,107.3L359.1,111.2L354.2,117.0L348.1,119.8Z"/>
    <path class="wtc-county" id="wtc-county-baltimore" data-county="Baltimore" d="M383.3,104.3L383.3,89.5L362.7,89.5L362.7,100.2L373.2,104.7L377.3,108.1L382.9,108.2L379.3,106.2L378.1,101.7L383.3,104.3Z"/>
    <path class="wtc-county" id="wtc-county-calvert" data-county="Calvert" d="M365.5,159.8L363.9,164.1L367.2,174.6L366.7,183.8L367.2,187.9L369.2,191.7L374.4,196.3L386.6,202.2L389.8,207.6L395.9,207.8L399.5,203.5L396.3,197.5L387.4,189.7L384.5,183.4L385.4,174.8L382.9,167.7L383.3,163.8L372.8,162.3L372.8,157.7L365.5,159.8Z"/>
    <path class="wtc-county" id="wtc-county-caroline" data-county="Caroline" d="M448.9,140.6L448.9,144.5L454.5,152.6L446.8,156.3L441.2,162.0L449.3,168.2L461.4,164.8L465.9,167.9L469.9,166.9L476.0,172.6L474.4,150.6L471.5,115.4L461.4,119.2L460.2,123.4L455.3,129.4L449.7,134.1L448.9,140.6Z"/>
    <path class="wtc-county" id="wtc-county-carroll" data-county="Carroll" d="M305.7,50.3L306.1,52.7L300.8,56.5L299.2,60.2L295.1,59.4L298.0,63.4L308.1,66.7L317.8,75.4L317.4,79.6L313.8,84.3L311.3,91.5L319.0,89.9L327.5,91.9L333.6,90.5L343.7,92.0L342.5,79.9L345.3,75.0L354.2,50.2L330.3,50.3L305.7,50.3Z"/>
    <path class="wtc-county" id="wtc-county-cecil" data-county="Cecil" d="M416.9,50.1L418.9,54.1L423.4,57.1L426.2,61.6L434.3,70.2L446.4,68.6L441.6,80.4L445.6,81.0L438.3,87.8L442.8,89.0L455.7,90.8L463.0,88.4L469.1,88.9L466.7,58.4L466.7,50.1L427.8,50.1L416.9,50.1Z"/>
    <path class="wtc-county" id="wtc-county-charles" data-county="Charles" d="M315.8,172.6L317.8,173.5L309.7,176.4L303.6,182.0L299.2,189.9L302.0,201.0L306.9,203.7L320.2,198.2L328.3,194.0L333.2,205.0L338.4,208.0L339.2,211.3L348.1,215.5L348.9,213.3L344.9,206.8L347.3,204.1L344.5,201.2L350.6,195.2L355.8,186.8L367.2,187.9L366.7,183.8L359.5,181.2L358.7,174.5L345.7,170.0L334.0,169.7L327.9,171.3L325.1,174.7L320.6,164.6L315.4,168.2L315.8,172.6Z"/>
    <path class="wtc-county" id="wtc-county-dorchester" data-county="Dorchester" d="M439.6,227.6L440.4,224.1L437.5,221.2L433.1,222.4L432.7,231.2L437.5,230.6L439.6,227.6ZM439.6,179.6L438.3,181.4L433.1,177.6L424.2,176.7L423.8,173.3L418.9,175.8L416.5,173.3L411.7,175.5L408.4,179.4L412.1,184.3L415.3,183.6L413.3,187.4L405.2,188.7L414.9,203.4L414.1,207.5L417.7,208.8L424.2,216.8L427.8,218.0L434.7,215.8L436.3,218.6L440.0,212.6L437.5,209.9L441.2,206.8L442.8,202.0L446.0,203.0L446.4,208.1L442.0,209.0L446.4,216.4L449.7,216.3L449.7,210.5L452.5,206.0L458.6,204.5L458.6,200.9L463.0,189.6L470.3,186.3L476.8,181.0L476.0,172.6L469.9,166.9L465.9,167.9L461.4,164.8L449.3,168.2L444.8,173.7L444.0,177.4L439.6,179.6Z"/>
    <path class="wtc-county" id="wtc-county-frederick" data-county="Frederick" d="M253.9,94.9L260.8,97.3L266.8,97.2L269.3,101.6L274.5,103.2L278.6,106.6L311.3,91.6L311.3,91.5L313.8,84.3L317.4,79.6L317.8,75.4L308.1,66.7L298.0,63.4L295.1,59.4L299.2,60.2L300.8,56.5L306.1,52.7L305.7,50.3L278.6,50.3L277.3,50.3L272.9,54.4L274.9,55.2L271.7,59.3L266.0,61.6L262.8,70.5L260.0,74.3L260.8,78.6L253.9,94.9Z"/>
    <path class="wtc-county" id="wtc-county-garrett" data-county="Garrett" d="M51.2,50.2L50.0,108.3L54.0,107.6L67.4,97.6L72.2,97.7L74.3,94.3L76.3,91.2L88.8,85.4L94.1,78.2L97.3,78.0L113.1,50.0L60.5,50.2L51.2,50.2Z"/>
    <path class="wtc-county" id="wtc-county-harford" data-county="Harford" d="M378.9,50.2L379.3,62.2L382.9,70.1L393.9,74.9L399.5,79.6L402.8,87.6L407.6,87.6L411.2,97.7L414.1,93.3L410.8,90.0L414.5,85.0L414.5,80.8L417.7,83.5L414.9,88.7L417.7,91.7L431.5,82.3L436.3,81.0L434.7,77.9L429.9,75.6L434.3,70.2L426.2,61.6L423.4,57.1L418.9,54.1L416.9,50.1L416.1,50.1L378.9,50.2Z"/>
    <path class="wtc-county" id="wtc-county-howard" data-county="Howard" d="M311.3,91.6L309.3,93.1L315.8,101.2L322.2,102.9L329.1,108.2L330.7,112.7L342.9,116.7L348.1,119.8L354.2,117.0L359.1,111.2L364.3,107.3L353.4,101.4L355.4,98.2L348.9,96.4L343.7,92.0L333.6,90.5L327.5,91.9L319.0,89.9L311.3,91.5L311.3,91.6Z"/>
    <path class="wtc-county" id="wtc-county-kent" data-county="Kent" d="M442.8,89.0L440.4,90.7L430.7,89.5L427.8,93.1L422.2,95.5L423.0,97.8L418.1,101.9L411.7,115.1L414.5,116.4L416.9,122.1L415.7,128.2L420.6,129.9L418.9,126.9L420.1,121.8L425.0,120.9L429.9,119.4L437.5,113.1L435.1,109.8L442.0,104.4L449.7,104.6L461.0,102.4L464.6,104.2L470.3,103.7L469.9,98.0L469.1,88.9L463.0,88.4L455.7,90.8L442.8,89.0Z"/>
    <path class="wtc-county" id="wtc-county-montgomery" data-county="Montgomery" d="M278.6,106.6L272.1,112.3L271.7,117.9L275.7,119.1L278.2,122.9L293.1,124.9L302.4,128.4L302.0,133.1L305.3,134.7L313.3,135.3L317.0,138.9L325.5,132.1L329.9,135.4L331.1,132.3L342.9,116.7L330.7,112.7L329.1,108.2L322.2,102.9L315.8,101.2L309.3,93.1L311.3,91.6L278.6,106.6Z"/>
    <path class="wtc-county" id="wtc-county-prince-georges" data-county="Prince George's" d="M325.9,155.6L325.5,163.2L320.6,164.6L325.1,174.7L327.9,171.3L334.0,169.7L345.7,170.0L358.7,174.5L359.5,181.2L366.7,183.8L367.2,174.6L363.9,164.1L365.5,159.8L363.9,155.3L365.1,147.3L367.6,142.0L365.1,139.9L364.3,133.3L358.3,127.6L348.5,123.4L348.1,119.8L342.9,116.7L331.1,132.3L329.9,135.4L340.5,143.5L325.9,155.0L325.9,155.6Z"/>
    <path class="wtc-county" id="wtc-county-queen-annes" data-county="Queen Anne's" d="M425.0,120.9L422.2,126.3L424.6,131.5L420.1,134.5L411.7,133.5L408.8,128.5L402.3,138.3L400.7,148.4L405.6,146.7L405.2,142.1L410.0,142.5L416.9,137.9L420.1,139.6L420.6,148.3L424.6,145.1L431.5,144.7L429.9,141.2L432.7,137.7L448.9,140.6L449.7,134.1L455.3,129.4L460.2,123.4L461.4,119.2L471.5,115.4L470.3,103.7L464.6,104.2L461.0,102.4L449.7,104.6L442.0,104.4L435.1,109.8L437.5,113.1L429.9,119.4L425.0,120.9Z"/>
    <path class="wtc-county" id="wtc-county-st-marys" data-county="St. Mary's" d="M367.2,187.9L355.8,186.8L350.6,195.2L344.5,201.2L347.3,204.1L349.8,205.0L353.0,217.5L367.2,217.8L376.5,220.0L381.3,224.4L383.3,229.0L386.6,228.7L389.4,232.4L390.2,226.9L393.4,226.0L395.5,232.2L398.7,232.6L403.2,238.2L406.8,240.1L404.8,230.7L406.8,228.5L399.5,219.6L397.9,215.0L400.7,210.4L397.5,209.1L391.8,211.1L389.8,207.6L386.6,202.2L374.4,196.3L369.2,191.7L367.2,187.9Z"/>
    <path class="wtc-county" id="wtc-county-somerset" data-county="Somerset" d="M458.2,217.3L460.2,220.5L449.7,223.1L447.7,228.7L449.3,231.4L454.1,228.2L462.6,229.1L458.2,233.0L457.4,237.3L464.2,237.5L457.4,240.3L454.5,247.0L454.9,253.5L458.6,253.4L467.5,247.2L475.2,246.8L480.4,249.7L482.8,250.1L485.3,244.8L481.6,240.8L486.1,236.0L490.1,236.5L494.6,234.1L490.5,228.0L494.2,224.0L487.3,216.1L486.5,212.8L480.8,210.5L474.4,214.1L471.1,212.1L458.2,217.3ZM443.6,249.4L445.2,243.6L440.8,239.8L437.5,242.5L437.9,249.4L443.6,249.4ZM437.5,230.6L436.3,233.5L442.4,235.5L439.6,227.6L437.5,230.6Z"/>
    <path class="wtc-county" id="wtc-county-talbot" data-county="Talbot" d="M420.6,148.3L421.4,151.6L418.1,152.5L412.5,148.2L405.2,157.1L404.0,166.9L406.8,167.6L407.2,161.9L412.1,163.9L414.1,161.1L420.6,168.6L423.4,168.3L426.6,172.4L433.5,173.7L439.6,179.6L444.0,177.4L444.8,173.7L449.3,168.2L441.2,162.0L446.8,156.3L454.5,152.6L448.9,144.5L448.9,140.6L432.7,137.7L429.9,141.2L431.5,144.7L424.6,145.1L420.6,148.3ZM398.3,157.3L402.3,159.8L400.3,155.3L398.3,157.3Z"/>
    <path class="wtc-county" id="wtc-county-washington" data-county="Washington" d="M179.0,50.0L182.3,53.4L179.0,55.3L179.9,59.8L187.5,61.7L196.8,53.1L206.6,55.0L215.0,61.6L216.7,63.7L223.9,61.7L230.8,63.9L236.5,63.6L236.5,67.1L230.0,68.6L233.3,73.5L237.3,71.8L237.3,75.8L240.5,77.2L241.7,82.4L245.4,83.6L247.4,87.8L245.0,93.9L249.0,95.2L253.9,94.9L260.8,78.6L260.0,74.3L262.8,70.5L266.0,61.6L271.7,59.3L274.9,55.2L272.9,54.4L277.3,50.3L206.6,50.0L179.0,50.0Z"/>
    <path class="wtc-county" id="wtc-county-wicomico" data-county="Wicomico" d="M458.6,204.5L453.7,210.6L454.1,218.0L458.2,217.3L471.1,212.1L474.4,214.1L480.8,210.5L486.5,212.8L513.6,211.5L521.3,204.2L518.4,201.2L520.1,198.6L517.2,193.2L477.6,192.3L476.8,181.0L470.3,186.3L463.0,189.6L458.6,200.9L458.6,204.5Z"/>
    <path class="wtc-county" id="wtc-county-worcester" data-county="Worcester" d="M486.5,212.8L487.3,216.1L494.2,224.0L490.5,228.0L494.6,234.1L490.1,236.5L486.1,236.0L481.6,240.8L485.3,244.8L528.6,241.1L535.8,229.5L543.9,209.1L546.0,207.6L549.6,197.5L550.0,193.3L517.2,193.2L520.1,198.6L518.4,201.2L521.3,204.2L513.6,211.5L486.5,212.8Z"/>
    <path class="wtc-county" id="wtc-county-baltimore" data-county="Baltimore" d="M383.3,104.3L383.3,89.5L362.7,89.5L362.7,100.2L373.2,104.7L377.3,108.1L382.9,108.2L379.3,106.2L378.1,101.7L383.3,104.3Z"/>
  </g>
</svg>