<?xml version="1.0" encoding="UTF-8"?>
<svg xmlns="http://www.w3.org/2000/svg" viewBox="0 0 468 600" id="wtc-state-map-MS" role="img" aria-label="ms county map">
  <title>ms Counties</title>
  <g class="wtc-counties">
    <path class="wtc-county" id="wtc-county-adams" data-county="Adams" d="M77.6,388.8L75.7,391.0L75.3,400.5L68.6,400.5L64.9,398.0L63.0,401.4L66.4,404.1L73.1,402.9L74.6,405.8L70.1,408.9L62.7,410.5L63.0,417.1L67.9,423.8L67.9,426.4L64.5,427.0L61.6,424.4L60.1,419.9L56.7,423.4L59.3,424.8L59.7,428.9L64.2,432.2L63.4,436.0L57.1,437.8L50.4,437.2L50.0,440.5L55.6,445.0L57.1,441.6L60.8,440.1L61.9,442.6L66.4,441.3L68.3,431.7L72.7,432.2L81.3,429.6L85.0,427.4L94.7,427.8L100.3,428.9L101.1,401.6L101.1,399.4L92.5,399.6L85.8,395.0L86.5,393.1L83.9,387.5L77.6,388.8Z"/>
    <path class="wtc-county" id="wtc-county-alcorn" data-county="Alcorn" d="M343.0,50.0L343.0,64.2L350.0,64.2L350.0,74.8L353.8,74.8L390.3,74.9L390.7,50.0L388.8,50.0L346.7,50.0L343.0,50.0Z"/>
    <path class="wtc-county" id="wtc-county-amite" data-county="Amite" d="M107.0,431.5L110.8,435.6L110.8,465.0L135.0,465.0L161.8,464.9L163.7,464.9L163.7,428.6L155.1,428.6L118.6,428.7L107.0,431.5Z"/>
    <path class="wtc-county" id="wtc-county-attala" data-county="Attala" d="M246.8,234.9L241.9,240.6L241.9,243.7L239.0,245.8L237.8,253.0L233.7,257.1L231.5,264.2L224.4,269.7L248.7,269.2L248.7,264.5L291.5,264.3L291.5,245.9L291.5,227.5L277.4,227.5L257.6,227.5L251.6,227.6L246.8,234.9Z"/>
    <path class="wtc-county" id="wtc-county-benton" data-county="Benton" d="M287.8,50.2L287.8,65.7L293.4,65.7L293.8,92.8L299.0,92.8L299.0,91.3L315.4,91.2L315.4,68.7L321.0,68.7L322.8,64.2L322.8,50.1L303.8,50.1L287.8,50.2Z"/>
    <path class="wtc-county" id="wtc-county-bolivar" data-county="Bolivar" d="M92.9,198.9L94.4,202.3L141.3,202.3L141.3,193.3L152.1,193.2L152.5,154.6L152.1,141.0L121.6,140.9L121.6,141.0L124.9,143.6L129.0,143.3L130.1,145.5L127.2,150.9L118.2,151.4L120.8,155.4L116.7,156.9L114.9,153.0L108.9,155.1L107.8,157.7L116.0,160.7L109.3,167.7L111.9,172.6L117.8,174.9L114.1,177.9L111.1,176.3L102.2,176.5L101.8,181.8L105.5,184.1L110.4,182.8L113.4,187.3L108.9,188.9L102.9,186.9L100.3,183.8L94.0,185.2L93.2,187.7L102.6,192.3L103.3,195.2L92.9,198.9Z"/>
    <path class="wtc-county" id="wtc-county-calhoun" data-county="Calhoun" d="M271.8,136.5L271.8,167.1L271.8,182.3L304.6,182.2L304.6,180.5L304.9,172.9L310.2,172.8L310.2,145.6L299.3,145.7L299.0,136.6L271.8,136.5Z"/>
    <path class="wtc-county" id="wtc-county-carroll" data-county="Carroll" d="M207.3,186.9L209.9,188.6L210.3,209.6L206.5,209.5L206.5,214.0L202.4,213.9L202.4,222.6L246.8,234.9L251.6,227.6L257.6,227.5L257.6,215.4L250.1,215.5L250.1,214.0L243.1,214.0L242.7,186.9L207.3,186.9Z"/>
    <path class="wtc-county" id="wtc-county-chickasaw" data-county="Chickasaw" d="M310.2,145.6L310.2,172.8L304.9,172.9L304.6,180.5L321.0,180.4L321.0,178.9L331.8,178.9L331.8,172.8L353.8,172.9L353.8,145.6L343.0,145.6L310.2,145.6Z"/>
    <path class="wtc-county" id="wtc-county-choctaw" data-county="Choctaw" d="M284.8,209.4L280.7,212.6L277.4,212.3L277.4,227.5L291.5,227.5L291.5,245.9L302.3,245.8L302.3,236.7L313.1,236.6L313.1,227.5L315.4,227.5L315.4,201.8L305.7,201.9L297.5,203.3L291.5,205.7L289.3,208.4L284.8,209.4Z"/>
    <path class="wtc-county" id="wtc-county-claiborne" data-county="Claiborne" d="M113.7,349.2L108.5,352.9L106.7,356.1L101.8,352.6L99.9,354.8L107.0,357.1L107.0,361.6L99.9,362.8L97.3,365.1L98.1,369.5L91.0,374.5L115.6,375.4L133.1,379.1L132.0,383.4L144.3,383.3L146.2,377.2L146.2,356.1L145.0,337.7L138.7,342.9L140.2,345.1L135.0,344.8L129.0,349.2L126.4,347.3L125.3,352.7L113.7,349.2Z"/>
    <path class="wtc-county" id="wtc-county-clarke" data-county="Clarke" d="M333.6,337.8L333.6,367.8L334.0,379.1L349.3,378.1L363.5,376.0L379.1,372.0L383.6,337.4L333.6,337.8Z"/>
    <path class="wtc-county" id="wtc-county-clay" data-county="Clay" d="M321.0,180.4L321.0,191.4L322.5,191.2L322.5,198.8L358.6,198.5L358.6,204.7L366.1,204.5L372.0,202.5L373.9,200.0L378.4,202.9L376.9,197.0L379.1,194.5L376.1,193.5L375.0,189.7L376.9,186.6L353.8,186.6L353.8,172.9L331.8,172.8L331.8,178.9L321.0,178.9L321.0,180.4Z"/>
    <path class="wtc-county" id="wtc-county-coahoma" data-county="Coahoma" d="M161.4,98.9L159.6,101.8L161.8,109.2L152.5,114.3L152.5,119.9L148.8,119.8L149.9,115.0L142.8,115.1L140.9,117.5L143.9,121.5L141.3,124.2L134.2,125.6L132.7,131.9L126.8,128.1L123.4,130.6L128.6,134.5L136.1,134.4L136.8,136.6L132.0,139.1L126.0,136.2L121.6,140.9L152.1,141.0L152.5,154.6L173.7,154.8L173.7,145.8L173.7,126.1L179.3,126.2L179.3,109.3L161.4,98.9Z"/>
    <path class="wtc-county" id="wtc-county-copiah" data-county="Copiah" d="M144.3,383.3L144.3,392.4L181.2,392.2L193.9,391.8L195.4,390.4L208.0,386.8L209.2,382.9L205.1,381.8L204.3,377.3L206.9,375.9L201.3,366.3L195.0,357.8L196.9,355.9L146.2,356.1L146.2,377.2L144.3,383.3Z"/>
    <path class="wtc-county" id="wtc-county-covington" data-county="Covington" d="M246.0,384.4L246.0,401.6L254.6,406.3L262.4,409.4L263.6,411.6L263.6,419.8L277.7,419.8L282.9,419.8L282.9,382.1L256.9,383.8L246.0,384.4Z"/>
    <path class="wtc-county" id="wtc-county-desoto" data-county="DeSoto" d="M188.7,50.0L195.0,54.9L195.0,58.9L188.3,62.8L189.0,64.0L199.8,64.0L199.8,78.1L202.8,74.5L207.3,74.4L209.5,77.2L217.7,79.8L229.6,74.6L229.6,73.2L249.4,73.2L249.4,50.0L188.7,50.0Z"/>
    <path class="wtc-county" id="wtc-county-forrest" data-county="Forrest" d="M277.7,419.8L277.7,428.9L288.5,428.9L288.2,463.8L289.3,464.8L289.3,474.3L310.2,474.3L309.4,464.8L309.4,419.8L282.9,419.8L277.7,419.8Z"/>
    <path class="wtc-county" id="wtc-county-franklin" data-county="Franklin" d="M101.1,401.6L100.3,428.9L107.0,431.5L118.6,428.7L155.1,428.6L155.1,401.4L144.3,401.5L101.1,401.6Z"/>
    <path class="wtc-county" id="wtc-county-george" data-county="George" d="M336.6,474.2L336.6,492.4L385.4,492.4L384.3,465.1L341.8,465.1L341.8,474.2L336.6,474.2Z"/>
    <path class="wtc-county" id="wtc-county-greene" data-county="Greene" d="M341.1,419.8L341.1,465.1L341.8,465.1L384.3,465.1L383.6,453.0L381.7,419.7L341.1,419.8Z"/>
    <path class="wtc-county" id="wtc-county-grenada" data-county="Grenada" d="M206.5,182.3L207.3,186.9L242.7,186.9L271.8,186.8L271.8,182.3L271.8,167.1L244.6,167.1L244.6,164.0L228.5,164.0L228.5,171.7L222.9,173.1L206.5,173.2L206.5,182.3Z"/>
    <path class="wtc-county" id="wtc-county-hancock" data-county="Hancock" d="M252.8,521.0L253.5,526.6L259.1,533.5L259.1,539.7L260.6,545.5L265.4,550.0L269.9,550.0L274.7,548.6L278.1,549.5L281.1,542.3L290.4,537.2L290.0,533.7L286.7,532.2L289.3,530.0L288.9,501.5L268.0,501.4L268.0,515.0L257.2,516.5L257.2,521.1L252.8,521.0Z"/>
    <path class="wtc-county" id="wtc-county-harrison" data-county="Harrison" d="M325.8,546.3L327.7,547.9L335.5,545.5L337.0,542.9L331.4,545.6L325.8,546.3ZM307.9,543.9L306.8,545.0L313.1,547.3L316.9,546.7L318.7,542.9L315.7,544.0L307.9,543.9ZM288.9,501.5L289.3,530.0L295.6,532.4L294.1,537.2L305.3,534.3L315.7,530.6L327.3,528.1L335.5,527.9L343.3,531.3L343.7,529.8L340.7,526.6L336.6,525.2L336.6,498.4L299.7,498.4L299.0,501.5L288.9,501.5Z"/>
    <path class="wtc-county" id="wtc-county-hinds" data-county="Hinds" d="M163.3,308.3L158.1,311.3L160.0,314.8L154.7,322.2L155.5,325.8L149.9,324.4L147.3,325.7L148.4,329.3L145.0,337.7L146.2,356.1L196.9,355.9L195.0,350.8L195.0,345.1L200.6,341.5L201.3,338.2L199.1,336.5L202.4,330.9L209.2,324.8L211.0,320.6L214.0,319.6L195.4,319.5L195.0,310.4L174.1,310.3L174.1,301.5L172.3,304.1L163.3,308.3Z"/>
    <path class="wtc-county" id="wtc-county-holmes" data-county="Holmes" d="M186.4,225.7L186.4,243.1L183.4,247.4L182.3,244.2L176.0,247.2L176.0,250.9L181.2,252.9L183.1,256.1L185.7,256.2L224.4,269.7L231.5,264.2L233.7,257.1L237.8,253.0L239.0,245.8L241.9,243.7L241.9,240.6L246.8,234.9L202.4,222.6L187.2,218.2L191.6,222.0L190.9,224.8L186.4,225.7Z"/>
    <path class="wtc-county" id="wtc-county-humphreys" data-county="Humphreys" d="M146.2,229.1L144.7,233.1L149.9,236.3L147.7,247.2L152.5,247.1L152.5,265.3L174.1,265.2L174.1,256.2L183.1,256.1L181.2,252.9L176.0,250.9L176.0,247.2L182.3,244.2L183.4,247.4L186.4,243.1L186.4,225.7L182.7,228.6L182.7,232.3L177.8,232.8L173.7,229.5L173.7,223.0L162.9,223.1L162.9,229.1L146.2,229.1Z"/>
    <path class="wtc-county" id="wtc-county-issaquena" data-county="Issaquena" d="M99.6,256.8L95.8,261.2L94.7,265.5L98.1,267.5L103.3,265.2L102.9,259.2L107.0,258.8L110.4,265.3L109.6,268.7L101.8,273.4L99.9,276.7L99.6,283.0L111.1,285.7L110.4,288.1L104.4,291.0L101.1,294.4L102.2,299.1L104.4,300.3L111.9,298.0L114.1,293.9L116.0,298.5L112.2,301.2L120.4,301.3L120.8,318.3L121.9,314.9L131.3,315.0L131.3,301.3L145.0,302.3L145.8,296.7L148.8,295.0L145.8,292.3L120.4,292.2L120.8,274.0L125.7,263.0L125.7,256.4L99.6,256.1L99.6,256.8Z"/>
    <path class="wtc-county" id="wtc-county-itawamba" data-county="Itawamba" d="M372.0,105.0L372.0,144.1L407.1,144.4L410.4,120.0L412.3,105.3L394.4,105.2L372.0,105.0Z"/>
    <path class="wtc-county" id="wtc-county-jackson" data-county="Jackson" d="M375.4,546.2L376.9,548.3L381.3,549.1L386.6,547.3L375.4,546.2ZM348.2,543.2L358.6,545.5L367.6,546.0L365.3,544.6L354.1,542.1L348.2,543.2ZM336.6,492.4L336.6,498.4L336.6,525.2L340.7,526.6L343.7,529.8L344.1,528.8L352.6,533.1L359.4,531.1L366.1,531.7L367.9,534.4L372.8,533.1L379.5,535.5L383.2,531.9L385.8,533.2L387.3,530.4L385.4,492.4L336.6,492.4Z"/>
    <path class="wtc-county" id="wtc-county-jasper" data-county="Jasper" d="M291.1,337.9L291.1,372.6L291.5,381.6L330.3,379.3L334.0,379.1L333.6,367.8L333.6,337.8L291.1,337.9Z"/>
    <path class="wtc-county" id="wtc-county-jefferson" data-county="Jefferson" d="M91.0,374.5L88.8,375.7L91.4,378.4L89.5,380.9L86.9,379.3L86.2,375.5L81.7,376.5L79.1,384.9L89.9,385.9L83.9,387.5L86.5,393.1L85.8,395.0L92.5,399.6L101.1,399.4L101.1,401.6L144.3,401.5L144.3,392.4L144.3,383.3L132.0,383.4L133.1,379.1L115.6,375.4L91.0,374.5Z"/>
    <path class="wtc-county" id="wtc-county-jefferson-davis" data-county="Jefferson Davis" d="M223.3,385.8L223.3,410.7L224.8,410.7L224.8,424.3L239.0,424.4L239.0,419.8L256.5,419.8L263.6,419.8L263.6,411.6L262.4,409.4L254.6,406.3L246.0,401.6L246.0,384.4L223.3,385.8Z"/>
    <path class="wtc-county" id="wtc-county-jones" data-county="Jones" d="M282.9,382.1L282.9,419.8L309.4,419.8L330.3,419.8L330.3,379.3L291.5,381.6L282.9,382.1Z"/>
    <path class="wtc-county" id="wtc-county-kemper" data-county="Kemper" d="M333.3,264.8L333.3,301.1L388.1,301.0L390.3,283.5L392.2,264.5L344.1,264.9L333.3,264.8Z"/>
    <path class="wtc-county" id="wtc-county-lafayette" data-county="Lafayette" d="M249.8,95.9L249.8,133.4L271.8,133.5L271.8,136.5L299.0,136.6L299.0,114.0L299.0,101.9L290.8,98.8L279.6,99.3L274.0,95.9L255.0,95.8L249.8,95.9Z"/>
    <path class="wtc-county" id="wtc-county-lamar" data-county="Lamar" d="M256.5,419.8L256.5,464.6L267.3,464.7L272.5,463.5L275.1,466.7L280.3,466.7L280.3,463.8L288.2,463.8L288.5,428.9L277.7,428.9L277.7,419.8L263.6,419.8L256.5,419.8Z"/>
    <path class="wtc-county" id="wtc-county-lauderdale" data-county="Lauderdale" d="M333.3,301.1L333.6,337.8L383.6,337.4L384.7,329.0L388.1,301.0L333.3,301.1Z"/>
    <path class="wtc-county" id="wtc-county-lawrence" data-county="Lawrence" d="M195.4,390.4L195.4,428.5L209.5,428.5L212.1,430.7L216.6,430.0L216.6,424.0L224.8,424.3L224.8,410.7L223.3,410.7L223.3,385.8L208.0,386.8L195.4,390.4Z"/>
    <path class="wtc-county" id="wtc-county-leake" data-county="Leake" d="M248.7,295.2L248.7,301.1L291.1,301.2L291.5,301.2L291.5,264.3L248.7,264.5L248.7,269.2L248.7,295.2Z"/>
    <path class="wtc-county" id="wtc-county-lee" data-county="Lee" d="M342.6,115.5L343.0,145.6L353.8,145.6L353.8,144.1L372.0,144.1L372.0,105.0L372.0,100.5L351.9,100.5L346.3,102.0L346.3,112.4L342.6,112.4L342.6,115.5Z"/>
    <path class="wtc-county" id="wtc-county-leflore" data-county="Leflore" d="M173.7,223.0L173.7,229.5L177.8,232.8L182.7,232.3L182.7,228.6L186.4,225.7L190.9,224.8L191.6,222.0L187.2,218.2L202.4,222.6L202.4,213.9L206.5,214.0L206.5,209.5L210.3,209.6L209.9,188.6L207.3,186.9L206.5,182.3L198.0,182.2L195.7,180.7L192.8,184.8L189.4,184.7L190.1,179.3L201.3,177.7L201.7,173.2L173.7,172.9L173.7,223.0Z"/>
    <path class="wtc-county" id="wtc-county-lincoln" data-county="Lincoln" d="M144.3,392.4L144.3,401.5L155.1,401.4L155.1,428.6L163.7,428.6L193.5,428.5L195.4,428.5L195.4,390.4L193.9,391.8L181.2,392.2L144.3,392.4Z"/>
    <path class="wtc-county" id="wtc-county-lowndes" data-county="Lowndes" d="M358.6,204.7L359.0,227.4L396.6,227.3L400.0,201.7L402.6,179.9L394.8,179.8L394.0,182.6L386.2,187.3L378.4,188.1L375.0,189.7L376.1,193.5L379.1,194.5L376.9,197.0L378.4,202.9L373.9,200.0L372.0,202.5L366.1,204.5L358.6,204.7Z"/>
    <path class="wtc-county" id="wtc-county-madison" data-county="Madison" d="M174.1,301.5L174.1,310.3L195.0,310.4L195.4,319.5L214.0,319.6L213.6,315.5L216.6,315.2L219.2,311.2L224.8,310.0L237.5,299.4L243.1,300.1L248.7,295.2L248.7,269.2L224.4,269.7L218.8,277.6L216.2,283.8L200.2,292.1L192.0,292.5L187.2,297.1L178.6,301.4L174.1,301.5Z"/>
    <path class="wtc-county" id="wtc-county-marion" data-county="Marion" d="M224.8,424.3L216.6,424.0L216.6,430.0L217.4,446.6L220.0,446.7L220.0,451.2L227.0,451.1L228.9,457.1L237.8,457.1L237.8,464.7L249.0,464.6L256.5,464.6L256.5,419.8L239.0,419.8L239.0,424.4L224.8,424.3Z"/>
    <path class="wtc-county" id="wtc-county-marshall" data-county="Marshall" d="M249.4,50.0L249.4,73.2L249.4,82.2L255.0,82.2L255.0,95.8L274.0,95.9L279.6,99.3L290.8,98.8L299.0,101.9L299.0,92.8L293.8,92.8L293.4,65.7L287.8,65.7L287.8,50.2L257.6,50.0L249.4,50.0Z"/>
    <path class="wtc-county" id="wtc-county-monroe" data-county="Monroe" d="M353.8,172.9L353.8,186.6L376.9,186.6L375.0,189.7L378.4,188.1L386.2,187.3L394.0,182.6L394.8,179.8L402.6,179.9L406.7,147.3L407.1,144.4L372.0,144.1L353.8,144.1L353.8,145.6L353.8,172.9Z"/>
    <path class="wtc-county" id="wtc-county-montgomery" data-county="Montgomery" d="M242.7,186.9L243.1,214.0L250.1,214.0L250.1,215.5L257.6,215.4L257.6,227.5L277.4,227.5L277.4,212.3L280.7,212.6L284.8,209.4L272.1,209.5L271.8,186.8L242.7,186.9Z"/>
    <path class="wtc-county" id="wtc-county-neshoba" data-county="Neshoba" d="M291.5,264.3L291.5,301.2L333.3,301.1L333.3,264.8L331.8,265.6L322.8,264.4L291.5,264.3Z"/>
    <path class="wtc-county" id="wtc-county-newton" data-county="Newton" d="M291.1,301.2L291.1,337.9L333.6,337.8L333.3,301.1L291.5,301.2L291.1,301.2Z"/>
    <path class="wtc-county" id="wtc-county-noxubee" data-county="Noxubee" d="M344.1,227.4L344.1,264.9L392.2,264.5L392.9,258.1L396.6,227.3L359.0,227.4L344.1,227.4Z"/>
    <path class="wtc-county" id="wtc-county-oktibbeha" data-county="Oktibbeha" d="M315.4,201.8L315.4,227.5L344.1,227.4L359.0,227.4L358.6,204.7L358.6,198.5L322.5,198.8L315.4,198.9L315.4,201.8Z"/>
    <path class="wtc-county" id="wtc-county-panola" data-county="Panola" d="M200.2,95.8L200.2,100.3L200.6,122.1L206.5,125.7L206.5,136.7L225.2,136.8L227.8,136.3L249.8,136.4L249.8,133.4L249.8,95.9L200.2,95.8Z"/>
    <path class="wtc-county" id="wtc-county-pearl-river" data-county="Pearl River" d="M236.4,499.6L239.7,502.9L240.5,509.8L244.2,512.8L245.7,516.3L252.8,521.0L257.2,521.1L257.2,516.5L268.0,515.0L268.0,501.4L288.9,501.5L289.3,496.6L289.3,474.3L289.3,464.8L288.2,463.8L280.3,463.8L280.3,466.7L275.1,466.7L272.5,463.5L267.3,464.7L256.5,464.6L249.0,464.6L249.0,467.9L246.4,469.9L246.8,473.9L244.2,475.6L240.8,486.8L238.2,489.0L239.7,492.2L236.7,495.3L236.4,499.6Z"/>
    <path class="wtc-county" id="wtc-county-perry" data-county="Perry" d="M309.4,419.8L309.4,464.8L310.2,474.3L336.6,474.2L341.8,474.2L341.8,465.1L341.1,465.1L341.1,419.8L330.3,419.8L309.4,419.8Z"/>
    <path class="wtc-county" id="wtc-county-pike" data-county="Pike" d="M163.7,428.6L163.7,464.9L184.6,464.9L193.9,464.8L193.5,428.5L163.7,428.6Z"/>
    <path class="wtc-county" id="wtc-county-pontotoc" data-county="Pontotoc" d="M299.0,114.0L299.0,136.6L299.3,145.7L310.2,145.6L343.0,145.6L342.6,115.5L332.1,115.5L331.8,114.0L299.0,114.0Z"/>
    <path class="wtc-county" id="wtc-county-prentiss" data-county="Prentiss" d="M351.9,91.4L351.9,100.5L372.0,100.5L372.0,105.0L394.4,105.2L394.0,76.5L390.3,74.9L353.8,74.8L353.8,91.4L351.9,91.4Z"/>
    <path class="wtc-county" id="wtc-county-quitman" data-county="Quitman" d="M179.3,109.3L179.3,126.2L173.7,126.1L173.7,145.8L206.5,145.8L206.5,136.7L206.5,125.7L200.6,122.1L200.2,100.3L189.0,100.5L189.4,109.3L179.3,109.3Z"/>
    <path class="wtc-county" id="wtc-county-rankin" data-county="Rankin" d="M214.0,319.6L211.0,320.6L209.2,324.8L202.4,330.9L199.1,336.5L201.3,338.2L200.6,341.5L195.0,345.1L195.0,350.8L196.9,355.9L248.7,356.2L248.7,338.0L248.7,324.4L243.1,300.1L237.5,299.4L224.8,310.0L219.2,311.2L216.6,315.2L213.6,315.5L214.0,319.6Z"/>
    <path class="wtc-county" id="wtc-county-scott" data-county="Scott" d="M248.7,295.2L243.1,300.1L248.7,324.4L248.7,338.0L291.1,337.9L291.1,301.2L248.7,301.1L248.7,295.2Z"/>
    <path class="wtc-county" id="wtc-county-sharkey" data-county="Sharkey" d="M125.7,256.4L125.7,263.0L120.8,274.0L120.4,292.2L145.8,292.3L147.3,289.3L149.5,292.1L151.8,289.5L143.6,285.3L149.1,281.5L146.5,279.0L148.8,276.4L141.7,276.5L141.7,274.3L152.5,265.3L152.5,247.1L147.7,247.2L125.7,247.1L125.7,256.4Z"/>
    <path class="wtc-county" id="wtc-county-simpson" data-county="Simpson" d="M196.9,355.9L195.0,357.8L201.3,366.3L206.9,375.9L204.3,377.3L205.1,381.8L209.2,382.9L208.0,386.8L223.3,385.8L246.0,384.4L256.9,383.8L256.5,383.5L256.5,359.6L255.7,356.2L248.7,356.2L196.9,355.9Z"/>
    <path class="wtc-county" id="wtc-county-smith" data-county="Smith" d="M248.7,338.0L248.7,356.2L255.7,356.2L256.5,359.6L256.5,383.5L256.9,383.8L282.9,382.1L291.5,381.6L291.1,372.6L291.1,337.9L248.7,338.0Z"/>
    <path class="wtc-county" id="wtc-county-stone" data-county="Stone" d="M289.3,474.3L289.3,496.6L288.9,501.5L299.0,501.5L299.7,498.4L336.6,498.4L336.6,492.4L336.6,474.2L310.2,474.3L289.3,474.3Z"/>
    <path class="wtc-county" id="wtc-county-sunflower" data-county="Sunflower" d="M141.3,202.3L141.3,229.1L146.2,229.1L162.9,229.1L162.9,223.1L173.7,223.0L173.7,172.9L173.7,154.8L152.5,154.6L152.1,193.2L141.3,193.3L141.3,202.3Z"/>
    <path class="wtc-county" id="wtc-county-tallahatchie" data-county="Tallahatchie" d="M173.7,154.8L173.7,172.9L201.7,173.2L201.3,177.7L190.1,179.3L189.4,184.7L192.8,184.8L195.7,180.7L198.0,182.2L206.5,182.3L206.5,173.2L222.9,173.1L228.5,171.7L228.5,164.0L228.5,138.8L227.8,136.3L225.2,136.8L206.5,136.7L206.5,145.8L173.7,145.8L173.7,154.8Z"/>
    <path class="wtc-county" id="wtc-county-tate" data-county="Tate" d="M199.8,78.1L196.9,80.9L198.3,86.2L195.7,88.4L198.0,95.2L200.2,95.8L249.8,95.9L255.0,95.8L255.0,82.2L249.4,82.2L249.4,73.2L229.6,73.2L229.6,74.6L217.7,79.8L209.5,77.2L207.3,74.4L202.8,74.5L199.8,78.1Z"/>
    <path class="wtc-county" id="wtc-county-tippah" data-county="Tippah" d="M322.8,50.1L322.8,64.2L321.0,68.7L315.4,68.7L315.4,91.2L351.9,91.4L353.8,91.4L353.8,74.8L350.0,74.8L350.0,64.2L343.0,64.2L343.0,50.0L322.8,50.1Z"/>
    <path class="wtc-county" id="wtc-county-tishomingo" data-county="Tishomingo" d="M390.7,50.0L390.3,74.9L394.0,76.5L394.4,105.2L412.3,105.3L413.8,93.0L418.2,60.7L412.3,57.6L407.4,50.0L390.7,50.0Z"/>
    <path class="wtc-county" id="wtc-county-tunica" data-county="Tunica" d="M178.2,66.9L175.2,61.5L171.1,61.3L170.4,63.9L173.4,67.8L171.5,70.1L173.7,76.5L168.5,78.2L166.7,75.2L167.4,70.1L163.7,72.5L164.4,75.6L161.8,76.9L164.1,80.4L171.5,80.6L172.3,83.4L167.0,87.8L162.9,86.2L163.3,81.8L159.6,83.7L160.0,86.8L159.6,89.4L164.1,94.9L161.4,98.9L179.3,109.3L189.4,109.3L189.0,100.5L200.2,100.3L200.2,95.8L198.0,95.2L195.7,88.4L198.3,86.2L196.9,80.9L199.8,78.1L199.8,64.0L189.0,64.0L185.3,64.0L178.2,66.9Z"/>
    <path class="wtc-county" id="wtc-county-union" data-county="Union" d="M299.0,101.9L299.0,114.0L331.8,114.0L332.1,115.5L342.6,115.5L342.6,112.4L346.3,112.4L346.3,102.0L351.9,100.5L351.9,91.4L315.4,91.2L299.0,91.3L299.0,92.8L299.0,101.9Z"/>
    <path class="wtc-county" id="wtc-county-walthall" data-county="Walthall" d="M193.5,428.5L193.9,464.8L237.8,464.7L237.8,457.1L228.9,457.1L227.0,451.1L220.0,451.2L220.0,446.7L217.4,446.6L216.6,430.0L212.1,430.7L209.5,428.5L195.4,428.5L193.5,428.5Z"/>
    <path class="wtc-county" id="wtc-county-warren" data-county="Warren" d="M104.0,339.1L100.3,340.1L99.6,347.1L111.5,348.1L110.8,342.6L116.3,344.7L113.7,348.6L113.7,349.2L125.3,352.7L126.4,347.3L129.0,349.2L135.0,344.8L140.2,345.1L138.7,342.9L145.0,337.7L148.4,329.3L147.3,325.7L149.9,324.4L155.5,325.8L154.7,322.2L160.0,314.8L158.1,311.3L163.3,308.3L163.3,305.8L159.6,304.3L152.9,304.3L152.5,299.8L149.1,299.9L149.1,296.8L145.8,296.7L145.0,302.3L131.3,301.3L131.3,315.0L121.9,314.9L120.8,318.3L120.4,301.3L112.2,301.2L109.6,302.6L108.9,304.2L116.3,307.7L118.2,310.0L114.5,310.7L108.1,306.4L106.3,306.5L105.2,311.6L113.7,316.0L117.5,314.2L120.4,317.4L117.5,319.1L117.5,324.3L126.0,325.8L128.3,322.3L129.8,323.9L123.8,330.9L119.3,330.2L120.1,334.9L118.2,338.7L113.0,335.9L110.4,338.3L104.0,339.1Z"/>
    <path class="wtc-county" id="wtc-county-washington" data-county="Washington" d="M94.4,202.3L97.7,204.5L92.5,211.6L99.2,210.2L98.8,205.7L104.0,208.1L102.6,212.9L96.2,213.8L95.1,215.5L98.8,217.6L105.2,216.4L108.9,209.9L110.8,212.7L102.2,220.7L102.2,226.4L106.7,232.5L107.8,228.8L111.5,227.6L112.2,229.7L107.4,234.3L108.1,241.0L107.0,243.0L101.8,243.8L97.7,242.5L95.8,246.0L104.4,251.5L99.6,256.1L125.7,256.4L125.7,247.1L147.7,247.2L149.9,236.3L144.7,233.1L146.2,229.1L141.3,229.1L141.3,202.3L94.4,202.3Z"/>
    <path class="wtc-county" id="wtc-county-wayne" data-county="Wayne" d="M330.3,379.3L330.3,419.8L341.1,419.8L381.7,419.7L380.2,392.4L379.1,372.0L363.5,376.0L349.3,378.1L334.0,379.1L330.3,379.3Z"/>
    <path class="wtc-county" id="wtc-county-webster" data-county="Webster" d="M271.8,182.3L271.8,186.8L272.1,209.5L284.8,209.4L289.3,208.4L291.5,205.7L297.5,203.3L305.7,201.9L315.4,201.8L315.4,198.9L322.5,198.8L322.5,191.2L321.0,191.4L321.0,180.4L304.6,180.5L304.6,182.2L271.8,182.3Z"/>
    <path class="wtc-county" id="wtc-county-wilkinson" data-county="Wilkinson" d="M55.6,445.0L51.9,451.0L52.2,453.5L58.2,457.9L55.6,463.1L50.7,465.0L98.5,465.0L110.8,465.0L110.8,435.6L107.0,431.5L100.3,428.9L94.7,427.8L85.0,427.4L81.3,429.6L72.7,432.2L68.3,431.7L66.4,441.3L61.9,442.6L60.8,440.1L57.1,441.6L55.6,445.0Z"/>
    <path class="wtc-county" id="wtc-county-winston" data-county="Winston" d="M291.5,245.9L291.5,264.3L322.8,264.4L331.8,265.6L333.3,264.8L344.1,264.9L344.1,227.4L315.4,227.5L313.1,227.5L313.1,236.6L302.3,236.7L302.3,245.8L291.5,245.9Z"/>
    <path class="wtc-county" id="wtc-county-yalobusha" data-county="Yalobusha" d="M227.8,136.3L228.5,138.8L228.5,164.0L244.6,164.0L244.6,167.1L271.8,167.1L271.8,136.5L271.8,133.5L249.8,133.4L249.8,136.4L227.8,136.3Z"/>
    <path class="wtc-county" id="wtc-county-yazoo" data-county="Yazoo" d="M152.5,265.3L141.7,274.3L141.7,276.5L148.8,276.4L146.5,279.0L149.1,281.5L143.6,285.3L151.8,289.5L149.5,292.1L147.3,289.3L145.8,292.3L148.8,295.0L145.8,296.7L149.1,296.8L149.1,299.9L152.5,299.8L152.9,304.3L159.6,304.3L163.3,305.8L163.3,308.3L172.3,304.1L174.1,301.5L178.6,301.4L187.2,297.1L192.0,292.5L200.2,292.1L216.2,283.8L218.8,277.6L224.4,269.7L185.7,256.2L183.1,256.1L174.1,256.2L174.1,265.2L152.5,265.3Z"/>
  </g>
</svg>