<?xml version="1.0" encoding="UTF-8"?>
<svg xmlns="http://www.w3.org/2000/svg" viewBox="0 0 468 600" id="wtc-state-map-MS" role="img" aria-label="ms county map">
  <title>ms Counties</title>
  <g class="wtc-counties">
    <path class="wtc-county" id="wtc-county-adams" data-county="Adams" d="M77.6,211.2L75.7,209.0L75.3,199.5L68.6,199.5L64.9,202.0L63.0,198.6L66.4,195.9L73.1,197.1L74.6,194.2L70.1,191.1L62.7,189.5L63.0,182.9L67.9,176.2L67.9,173.6L64.5,173.0L61.6,175.6L60.1,180.1L56.7,176.6L59.3,175.2L59.7,171.1L64.2,167.8L63.4,164.0L57.1,162.2L50.4,162.8L50.0,159.5L55.6,155.0L57.1,158.4L60.8,159.9L61.9,157.4L66.4,158.7L68.3,168.3L72.7,167.8L81.3,170.4L85.0,172.6L94.7,172.2L100.3,171.1L101.1,198.4L101.1,200.6L92.5,200.4L85.8,205.0L86.5,206.9L83.9,212.5L77.6,211.2Z"/>
    <path class="wtc-county" id="wtc-county-alcorn" data-county="Alcorn" d="M343.0,550.0L343.0,535.8L350.0,535.8L350.0,525.2L353.8,525.2L390.3,525.1L390.7,550.0L388.8,550.0L346.7,550.0L343.0,550.0Z"/>
    <path class="wtc-county" id="wtc-county-amite" data-county="Amite" d="M107.0,168.5L110.8,164.4L110.8,135.0L135.0,135.0L161.8,135.1L163.7,135.1L163.7,171.4L155.1,171.4L118.6,171.3L107.0,168.5Z"/>
    <path class="wtc-county" id="wtc-county-attala" data-county="Attala" d="M246.8,365.1L241.9,359.4L241.9,356.3L239.0,354.2L237.8,347.0L233.7,342.9L231.5,335.8L224.4,330.3L248.7,330.8L248.7,335.5L291.5,335.7L291.5,354.1L291.5,372.5L277.4,372.5L257.6,372.5L251.6,372.4L246.8,365.1Z"/>
    <path class="wtc-county" id="wtc-county-benton" data-county="Benton" d="M287.8,549.8L287.8,534.3L293.4,534.3L293.8,507.2L299.0,507.2L299.0,508.7L315.4,508.8L315.4,531.3L321.0,531.3L322.8,535.8L322.8,549.9L303.8,549.9L287.8,549.8Z"/>
    <path class="wtc-county" id="wtc-county-bolivar" data-county="Bolivar" d="M92.9,401.1L94.4,397.7L141.3,397.7L141.3,406.7L152.1,406.8L152.5,445.4L152.1,459.0L121.6,459.1L121.6,459.0L124.9,456.4L129.0,456.7L130.1,454.5L127.2,449.1L118.2,448.6L120.8,444.6L116.7,443.1L114.9,447.0L108.9,444.9L107.8,442.3L116.0,439.3L109.3,432.3L111.9,427.4L117.8,425.1L114.1,422.1L111.1,423.7L102.2,423.5L101.8,418.2L105.5,415.9L110.4,417.2L113.4,412.7L108.9,411.1L102.9,413.1L100.3,416.2L94.0,414.8L93.2,412.3L102.6,407.7L103.3,404.8L92.9,401.1Z"/>
    <path class="wtc-county" id="wtc-county-calhoun" data-county="Calhoun" d="M271.8,463.5L271.8,432.9L271.8,417.7L304.6,417.8L304.6,419.5L304.9,427.1L310.2,427.2L310.2,454.4L299.3,454.3L299.0,463.4L271.8,463.5Z"/>
    <path class="wtc-county" id="wtc-county-carroll" data-county="Carroll" d="M207.3,413.1L209.9,411.4L210.3,390.4L206.5,390.5L206.5,386.0L202.4,386.1L202.4,377.4L246.8,365.1L251.6,372.4L257.6,372.5L257.6,384.6L250.1,384.5L250.1,386.0L243.1,386.0L242.7,413.1L207.3,413.1Z"/>
    <path class="wtc-county" id="wtc-county-chickasaw" data-county="Chickasaw" d="M310.2,454.4L310.2,427.2L304.9,427.1L304.6,419.5L321.0,419.6L321.0,421.1L331.8,421.1L331.8,427.2L353.8,427.1L353.8,454.4L343.0,454.4L310.2,454.4Z"/>
    <path class="wtc-county" id="wtc-county-choctaw" data-county="Choctaw" d="M284.8,390.6L280.7,387.4L277.4,387.7L277.4,372.5L291.5,372.5L291.5,354.1L302.3,354.2L302.3,363.3L313.1,363.4L313.1,372.5L315.4,372.5L315.4,398.2L305.7,398.1L297.5,396.7L291.5,394.3L289.3,391.6L284.8,390.6Z"/>
    <path class="wtc-county" id="wtc-county-claiborne" data-county="Claiborne" d="M113.7,250.8L108.5,247.1L106.7,243.9L101.8,247.4L99.9,245.2L107.0,242.9L107.0,238.4L99.9,237.2L97.3,234.9L98.1,230.5L91.0,225.5L115.6,224.6L133.1,220.9L132.0,216.6L144.3,216.7L146.2,222.8L146.2,243.9L145.0,262.3L138.7,257.1L140.2,254.9L135.0,255.2L129.0,250.8L126.4,252.7L125.3,247.3L113.7,250.8Z"/>
    <path class="wtc-county" id="wtc-county-clarke" data-county="Clarke" d="M333.6,262.2L333.6,232.2L334.0,220.9L349.3,221.9L363.5,224.0L379.1,228.0L383.6,262.6L333.6,262.2Z"/>
    <path class="wtc-county" id="wtc-county-clay" data-county="Clay" d="M321.0,419.6L321.0,408.6L322.5,408.8L322.5,401.2L358.6,401.5L358.6,395.3L366.1,395.5L372.0,397.5L373.9,400.0L378.4,397.1L376.9,403.0L379.1,405.5L376.1,406.5L375.0,410.3L376.9,413.4L353.8,413.4L353.8,427.1L331.8,427.2L331.8,421.1L321.0,421.1L321.0,419.6Z"/>
    <path class="wtc-county" id="wtc-county-coahoma" data-county="Coahoma" d="M161.4,501.1L159.6,498.2L161.8,490.8L152.5,485.7L152.5,480.1L148.8,480.2L149.9,485.0L142.8,484.9L140.9,482.5L143.9,478.5L141.3,475.8L134.2,474.4L132.7,468.1L126.8,471.9L123.4,469.4L128.6,465.5L136.1,465.6L136.8,463.4L132.0,460.9L126.0,463.8L121.6,459.1L152.1,459.0L152.5,445.4L173.7,445.2L173.7,454.2L173.7,473.9L179.3,473.8L179.3,490.7L161.4,501.1Z"/>
    <path class="wtc-county" id="wtc-county-copiah" data-county="Copiah" d="M144.3,216.7L144.3,207.6L181.2,207.8L193.9,208.2L195.4,209.6L208.0,213.2L209.2,217.1L205.1,218.2L204.3,222.7L206.9,224.1L201.3,233.7L195.0,242.2L196.9,244.1L146.2,243.9L146.2,222.8L144.3,216.7Z"/>
    <path class="wtc-county" id="wtc-county-covington" data-county="Covington" d="M246.0,215.6L246.0,198.4L254.6,193.7L262.4,190.6L263.6,188.4L263.6,180.2L277.7,180.2L282.9,180.2L282.9,217.9L256.9,216.2L246.0,215.6Z"/>
    <path class="wtc-county" id="wtc-county-desoto" data-county="DeSoto" d="M188.7,550.0L195.0,545.1L195.0,541.1L188.3,537.2L189.0,536.0L199.8,536.0L199.8,521.9L202.8,525.5L207.3,525.6L209.5,522.8L217.7,520.2L229.6,525.4L229.6,526.8L249.4,526.8L249.4,550.0L188.7,550.0Z"/>
    <path class="wtc-county" id="wtc-county-forrest" data-county="Forrest" d="M277.7,180.2L277.7,171.1L288.5,171.1L288.2,136.2L289.3,135.2L289.3,125.7L310.2,125.7L309.4,135.2L309.4,180.2L282.9,180.2L277.7,180.2Z"/>
    <path class="wtc-county" id="wtc-county-franklin" data-county="Franklin" d="M101.1,198.4L100.3,171.1L107.0,168.5L118.6,171.3L155.1,171.4L155.1,198.6L144.3,198.5L101.1,198.4Z"/>
    <path class="wtc-county" id="wtc-county-george" data-county="George" d="M336.6,125.8L336.6,107.6L385.4,107.6L384.3,134.9L341.8,134.9L341.8,125.8L336.6,125.8Z"/>
    <path class="wtc-county" id="wtc-county-greene" data-county="Greene" d="M341.1,180.2L341.1,134.9L341.8,134.9L384.3,134.9L383.6,147.0L381.7,180.3L341.1,180.2Z"/>
    <path class="wtc-county" id="wtc-county-grenada" data-county="Grenada" d="M206.5,417.7L207.3,413.1L242.7,413.1L271.8,413.2L271.8,417.7L271.8,432.9L244.6,432.9L244.6,436.0L228.5,436.0L228.5,428.3L222.9,426.9L206.5,426.8L206.5,417.7Z"/>
    <path class="wtc-county" id="wtc-county-hancock" data-county="Hancock" d="M252.8,79.0L253.5,73.4L259.1,66.5L259.1,60.3L260.6,54.5L265.4,50.0L269.9,50.0L274.7,51.4L278.1,50.5L281.1,57.7L290.4,62.8L290.0,66.3L286.7,67.8L289.3,70.0L288.9,98.5L268.0,98.6L268.0,85.0L257.2,83.5L257.2,78.9L252.8,79.0Z"/>
    <path class="wtc-county" id="wtc-county-harrison" data-county="Harrison" d="M325.8,53.7L327.7,52.1L335.5,54.5L337.0,57.1L331.4,54.4L325.8,53.7ZM307.9,56.1L306.8,55.0L313.1,52.7L316.9,53.3L318.7,57.1L315.7,56.0L307.9,56.1ZM288.9,98.5L289.3,70.0L295.6,67.6L294.1,62.8L305.3,65.7L315.7,69.4L327.3,71.9L335.5,72.1L343.3,68.7L343.7,70.2L340.7,73.4L336.6,74.8L336.6,101.6L299.7,101.6L299.0,98.5L288.9,98.5Z"/>
    <path class="wtc-county" id="wtc-county-hinds" data-county="Hinds" d="M163.3,291.7L158.1,288.7L160.0,285.2L154.7,277.8L155.5,274.2L149.9,275.6L147.3,274.3L148.4,270.7L145.0,262.3L146.2,243.9L196.9,244.1L195.0,249.2L195.0,254.9L200.6,258.5L201.3,261.8L199.1,263.5L202.4,269.1L209.2,275.2L211.0,279.4L214.0,280.4L195.4,280.5L195.0,289.6L174.1,289.7L174.1,298.5L172.3,295.9L163.3,291.7Z"/>
    <path class="wtc-county" id="wtc-county-holmes" data-county="Holmes" d="M186.4,374.3L186.4,356.9L183.4,352.6L182.3,355.8L176.0,352.8L176.0,349.1L181.2,347.1L183.1,343.9L185.7,343.8L224.4,330.3L231.5,335.8L233.7,342.9L237.8,347.0L239.0,354.2L241.9,356.3L241.9,359.4L246.8,365.1L202.4,377.4L187.2,381.8L191.6,378.0L190.9,375.2L186.4,374.3Z"/>
    <path class="wtc-county" id="wtc-county-humphreys" data-county="Humphreys" d="M146.2,370.9L144.7,366.9L149.9,363.7L147.7,352.8L152.5,352.9L152.5,334.7L174.1,334.8L174.1,343.8L183.1,343.9L181.2,347.1L176.0,349.1L176.0,352.8L182.3,355.8L183.4,352.6L186.4,356.9L186.4,374.3L182.7,371.4L182.7,367.7L177.8,367.2L173.7,370.5L173.7,377.0L162.9,376.9L162.9,370.9L146.2,370.9Z"/>
    <path class="wtc-county" id="wtc-county-issaquena" data-county="Issaquena" d="M99.6,343.2L95.8,338.8L94.7,334.5L98.1,332.5L103.3,334.8L102.9,340.8L107.0,341.2L110.4,334.7L109.6,331.3L101.8,326.6L99.9,323.3L99.6,317.0L111.1,314.3L110.4,311.9L104.4,309.0L101.1,305.6L102.2,300.9L104.4,299.7L111.9,302.0L114.1,306.1L116.0,301.5L112.2,298.8L120.4,298.7L120.8,281.7L121.9,285.1L131.3,285.0L131.3,298.7L145.0,297.7L145.8,303.3L148.8,305.0L145.8,307.7L120.4,307.8L120.8,326.0L125.7,337.0L125.7,343.6L99.6,343.9L99.6,343.2Z"/>
    <path class="wtc-county" id="wtc-county-itawamba" data-county="Itawamba" d="M372.0,495.0L372.0,455.9L407.1,455.6L410.4,480.0L412.3,494.7L394.4,494.8L372.0,495.0Z"/>
    <path class="wtc-county" id="wtc-county-jackson" data-county="Jackson" d="M375.4,53.8L376.9,51.7L381.3,50.9L386.6,52.7L375.4,53.8ZM348.2,56.8L358.6,54.5L367.6,54.0L365.3,55.4L354.1,57.9L348.2,56.8ZM336.6,107.6L336.6,101.6L336.6,74.8L340.7,73.4L343.7,70.2L344.1,71.2L352.6,66.9L359.4,68.9L366.1,68.3L367.9,65.6L372.8,66.9L379.5,64.5L383.2,68.1L385.8,66.8L387.3,69.6L385.4,107.6L336.6,107.6Z"/>
    <path class="wtc-county" id="wtc-county-jasper" data-county="Jasper" d="M291.1,262.1L291.1,227.4L291.5,218.4L330.3,220.7L334.0,220.9L333.6,232.2L333.6,262.2L291.1,262.1Z"/>
    <path class="wtc-county" id="wtc-county-jefferson" data-county="Jefferson" d="M91.0,225.5L88.8,224.3L91.4,221.6L89.5,219.1L86.9,220.7L86.2,224.5L81.7,223.5L79.1,215.1L89.9,214.1L83.9,212.5L86.5,206.9L85.8,205.0L92.5,200.4L101.1,200.6L101.1,198.4L144.3,198.5L144.3,207.6L144.3,216.7L132.0,216.6L133.1,220.9L115.6,224.6L91.0,225.5Z"/>
    <path class="wtc-county" id="wtc-county-jefferson-davis" data-county="Jefferson Davis" d="M223.3,214.2L223.3,189.3L224.8,189.3L224.8,175.7L239.0,175.6L239.0,180.2L256.5,180.2L263.6,180.2L263.6,188.4L262.4,190.6L254.6,193.7L246.0,198.4L246.0,215.6L223.3,214.2Z"/>
    <path class="wtc-county" id="wtc-county-jones" data-county="Jones" d="M282.9,217.9L282.9,180.2L309.4,180.2L330.3,180.2L330.3,220.7L291.5,218.4L282.9,217.9Z"/>
    <path class="wtc-county" id="wtc-county-kemper" data-county="Kemper" d="M333.3,335.2L333.3,298.9L388.1,299.0L390.3,316.5L392.2,335.5L344.1,335.1L333.3,335.2Z"/>
    <path class="wtc-county" id="wtc-county-lafayette" data-county="Lafayette" d="M249.8,504.1L249.8,466.6L271.8,466.5L271.8,463.5L299.0,463.4L299.0,486.0L299.0,498.1L290.8,501.2L279.6,500.7L274.0,504.1L255.0,504.2L249.8,504.1Z"/>
    <path class="wtc-county" id="wtc-county-lamar" data-county="Lamar" d="M256.5,180.2L256.5,135.4L267.3,135.3L272.5,136.5L275.1,133.3L280.3,133.3L280.3,136.2L288.2,136.2L288.5,171.1L277.7,171.1L277.7,180.2L263.6,180.2L256.5,180.2Z"/>
    <path class="wtc-county" id="wtc-county-lauderdale" data-county="Lauderdale" d="M333.3,298.9L333.6,262.2L383.6,262.6L384.7,271.0L388.1,299.0L333.3,298.9Z"/>
    <path class="wtc-county" id="wtc-county-lawrence" data-county="Lawrence" d="M195.4,209.6L195.4,171.5L209.5,171.5L212.1,169.3L216.6,170.0L216.6,176.0L224.8,175.7L224.8,189.3L223.3,189.3L223.3,214.2L208.0,213.2L195.4,209.6Z"/>
    <path class="wtc-county" id="wtc-county-leake" data-county="Leake" d="M248.7,304.8L248.7,298.9L291.1,298.8L291.5,298.8L291.5,335.7L248.7,335.5L248.7,330.8L248.7,304.8Z"/>
    <path class="wtc-county" id="wtc-county-lee" data-county="Lee" d="M342.6,484.5L343.0,454.4L353.8,454.4L353.8,455.9L372.0,455.9L372.0,495.0L372.0,499.5L351.9,499.5L346.3,498.0L346.3,487.6L342.6,487.6L342.6,484.5Z"/>
    <path class="wtc-county" id="wtc-county-leflore" data-county="Leflore" d="M173.7,377.0L173.7,370.5L177.8,367.2L182.7,367.7L182.7,371.4L186.4,374.3L190.9,375.2L191.6,378.0L187.2,381.8L202.4,377.4L202.4,386.1L206.5,386.0L206.5,390.5L210.3,390.4L209.9,411.4L207.3,413.1L206.5,417.7L198.0,417.8L195.7,419.3L192.8,415.2L189.4,415.3L190.1,420.7L201.3,422.3L201.7,426.8L173.7,427.1L173.7,377.0Z"/>
    <path class="wtc-county" id="wtc-county-lincoln" data-county="Lincoln" d="M144.3,207.6L144.3,198.5L155.1,198.6L155.1,171.4L163.7,171.4L193.5,171.5L195.4,171.5L195.4,209.6L193.9,208.2L181.2,207.8L144.3,207.6Z"/>
    <path class="wtc-county" id="wtc-county-lowndes" data-county="Lowndes" d="M358.6,395.3L359.0,372.6L396.6,372.7L400.0,398.3L402.6,420.1L394.8,420.2L394.0,417.4L386.2,412.7L378.4,411.9L375.0,410.3L376.1,406.5L379.1,405.5L376.9,403.0L378.4,397.1L373.9,400.0L372.0,397.5L366.1,395.5L358.6,395.3Z"/>
    <path class="wtc-county" id="wtc-county-madison" data-county="Madison" d="M174.1,298.5L174.1,289.7L195.0,289.6L195.4,280.5L214.0,280.4L213.6,284.5L216.6,284.8L219.2,288.8L224.8,290.0L237.5,300.6L243.1,299.9L248.7,304.8L248.7,330.8L224.4,330.3L218.8,322.4L216.2,316.2L200.2,307.9L192.0,307.5L187.2,302.9L178.6,298.6L174.1,298.5Z"/>
    <path class="wtc-county" id="wtc-county-marion" data-county="Marion" d="M224.8,175.7L216.6,176.0L216.6,170.0L217.4,153.4L220.0,153.3L220.0,148.8L227.0,148.9L228.9,142.9L237.8,142.9L237.8,135.3L249.0,135.4L256.5,135.4L256.5,180.2L239.0,180.2L239.0,175.6L224.8,175.7Z"/>
    <path class="wtc-county" id="wtc-county-marshall" data-county="Marshall" d="M249.4,550.0L249.4,526.8L249.4,517.8L255.0,517.8L255.0,504.2L274.0,504.1L279.6,500.7L290.8,501.2L299.0,498.1L299.0,507.2L293.8,507.2L293.4,534.3L287.8,534.3L287.8,549.8L257.6,550.0L249.4,550.0Z"/>
    <path class="wtc-county" id="wtc-county-monroe" data-county="Monroe" d="M353.8,427.1L353.8,413.4L376.9,413.4L375.0,410.3L378.4,411.9L386.2,412.7L394.0,417.4L394.8,420.2L402.6,420.1L406.7,452.7L407.1,455.6L372.0,455.9L353.8,455.9L353.8,454.4L353.8,427.1Z"/>
    <path class="wtc-county" id="wtc-county-montgomery" data-county="Montgomery" d="M242.7,413.1L243.1,386.0L250.1,386.0L250.1,384.5L257.6,384.6L257.6,372.5L277.4,372.5L277.4,387.7L280.7,387.4L284.8,390.6L272.1,390.5L271.8,413.2L242.7,413.1Z"/>
    <path class="wtc-county" id="wtc-county-neshoba" data-county="Neshoba" d="M291.5,335.7L291.5,298.8L333.3,298.9L333.3,335.2L331.8,334.4L322.8,335.6L291.5,335.7Z"/>
    <path class="wtc-county" id="wtc-county-newton" data-county="Newton" d="M291.1,298.8L291.1,262.1L333.6,262.2L333.3,298.9L291.5,298.8L291.1,298.8Z"/>
    <path class="wtc-county" id="wtc-county-noxubee" data-county="Noxubee" d="M344.1,372.6L344.1,335.1L392.2,335.5L392.9,341.9L396.6,372.7L359.0,372.6L344.1,372.6Z"/>
    <path class="wtc-county" id="wtc-county-oktibbeha" data-county="Oktibbeha" d="M315.4,398.2L315.4,372.5L344.1,372.6L359.0,372.6L358.6,395.3L358.6,401.5L322.5,401.2L315.4,401.1L315.4,398.2Z"/>
    <path class="wtc-county" id="wtc-county-panola" data-county="Panola" d="M200.2,504.2L200.2,499.7L200.6,477.9L206.5,474.3L206.5,463.3L225.2,463.2L227.8,463.7L249.8,463.6L249.8,466.6L249.8,504.1L200.2,504.2Z"/>
    <path class="wtc-county" id="wtc-county-pearl-river" data-county="Pearl River" d="M236.4,100.4L239.7,97.1L240.5,90.2L244.2,87.2L245.7,83.7L252.8,79.0L257.2,78.9L257.2,83.5L268.0,85.0L268.0,98.6L288.9,98.5L289.3,103.4L289.3,125.7L289.3,135.2L288.2,136.2L280.3,136.2L280.3,133.3L275.1,133.3L272.5,136.5L267.3,135.3L256.5,135.4L249.0,135.4L249.0,132.1L246.4,130.1L246.8,126.1L244.2,124.4L240.8,113.2L238.2,111.0L239.7,107.8L236.7,104.7L236.4,100.4Z"/>
    <path class="wtc-county" id="wtc-county-perry" data-county="Perry" d="M309.4,180.2L309.4,135.2L310.2,125.7L336.6,125.8L341.8,125.8L341.8,134.9L341.1,134.9L341.1,180.2L330.3,180.2L309.4,180.2Z"/>
    <path class="wtc-county" id="wtc-county-pike" data-county="Pike" d="M163.7,171.4L163.7,135.1L184.6,135.1L193.9,135.2L193.5,171.5L163.7,171.4Z"/>
    <path class="wtc-county" id="wtc-county-pontotoc" data-county="Pontotoc" d="M299.0,486.0L299.0,463.4L299.3,454.3L310.2,454.4L343.0,454.4L342.6,484.5L332.1,484.5L331.8,486.0L299.0,486.0Z"/>
    <path class="wtc-county" id="wtc-county-prentiss" data-county="Prentiss" d="M351.9,508.6L351.9,499.5L372.0,499.5L372.0,495.0L394.4,494.8L394.0,523.5L390.3,525.1L353.8,525.2L353.8,508.6L351.9,508.6Z"/>
    <path class="wtc-county" id="wtc-county-quitman" data-county="Quitman" d="M179.3,490.7L179.3,473.8L173.7,473.9L173.7,454.2L206.5,454.2L206.5,463.3L206.5,474.3L200.6,477.9L200.2,499.7L189.0,499.5L189.4,490.7L179.3,490.7Z"/>
    <path class="wtc-county" id="wtc-county-rankin" data-county="Rankin" d="M214.0,280.4L211.0,279.4L209.2,275.2L202.4,269.1L199.1,263.5L201.3,261.8L200.6,258.5L195.0,254.9L195.0,249.2L196.9,244.1L248.7,243.8L248.7,262.0L248.7,275.6L243.1,299.9L237.5,300.6L224.8,290.0L219.2,288.8L216.6,284.8L213.6,284.5L214.0,280.4Z"/>
    <path class="wtc-county" id="wtc-county-scott" data-county="Scott" d="M248.7,304.8L243.1,299.9L248.7,275.6L248.7,262.0L291.1,262.1L291.1,298.8L248.7,298.9L248.7,304.8Z"/>
    <path class="wtc-county" id="wtc-county-sharkey" data-county="Sharkey" d="M125.7,343.6L125.7,337.0L120.8,326.0L120.4,307.8L145.8,307.7L147.3,310.7L149.5,307.9L151.8,310.5L143.6,314.7L149.1,318.5L146.5,321.0L148.8,323.6L141.7,323.5L141.7,325.7L152.5,334.7L152.5,352.9L147.7,352.8L125.7,352.9L125.7,343.6Z"/>
    <path class="wtc-county" id="wtc-county-simpson" data-county="Simpson" d="M196.9,244.1L195.0,242.2L201.3,233.7L206.9,224.1L204.3,222.7L205.1,218.2L209.2,217.1L208.0,213.2L223.3,214.2L246.0,215.6L256.9,216.2L256.5,216.5L256.5,240.4L255.7,243.8L248.7,243.8L196.9,244.1Z"/>
    <path class="wtc-county" id="wtc-county-smith" data-county="Smith" d="M248.7,262.0L248.7,243.8L255.7,243.8L256.5,240.4L256.5,216.5L256.9,216.2L282.9,217.9L291.5,218.4L291.1,227.4L291.1,262.1L248.7,262.0Z"/>
    <path class="wtc-county" id="wtc-county-stone" data-county="Stone" d="M289.3,125.7L289.3,103.4L288.9,98.5L299.0,98.5L299.7,101.6L336.6,101.6L336.6,107.6L336.6,125.8L310.2,125.7L289.3,125.7Z"/>
    <path class="wtc-county" id="wtc-county-sunflower" data-county="Sunflower" d="M141.3,397.7L141.3,370.9L146.2,370.9L162.9,370.9L162.9,376.9L173.7,377.0L173.7,427.1L173.7,445.2L152.5,445.4L152.1,406.8L141.3,406.7L141.3,397.7Z"/>
    <path class="wtc-county" id="wtc-county-tallahatchie" data-county="Tallahatchie" d="M173.7,445.2L173.7,427.1L201.7,426.8L201.3,422.3L190.1,420.7L189.4,415.3L192.8,415.2L195.7,419.3L198.0,417.8L206.5,417.7L206.5,426.8L222.9,426.9L228.5,428.3L228.5,436.0L228.5,461.2L227.8,463.7L225.2,463.2L206.5,463.3L206.5,454.2L173.7,454.2L173.7,445.2Z"/>
    <path class="wtc-county" id="wtc-county-tate" data-county="Tate" d="M199.8,521.9L196.9,519.1L198.3,513.8L195.7,511.6L198.0,504.8L200.2,504.2L249.8,504.1L255.0,504.2L255.0,517.8L249.4,517.8L249.4,526.8L229.6,526.8L229.6,525.4L217.7,520.2L209.5,522.8L207.3,525.6L202.8,525.5L199.8,521.9Z"/>
    <path class="wtc-county" id="wtc-county-tippah" data-county="Tippah" d="M322.8,549.9L322.8,535.8L321.0,531.3L315.4,531.3L315.4,508.8L351.9,508.6L353.8,508.6L353.8,525.2L350.0,525.2L350.0,535.8L343.0,535.8L343.0,550.0L322.8,549.9Z"/>
    <path class="wtc-county" id="wtc-county-tishomingo" data-county="Tishomingo" d="M390.7,550.0L390.3,525.1L394.0,523.5L394.4,494.8L412.3,494.7L413.8,507.0L418.2,539.3L412.3,542.4L407.4,550.0L390.7,550.0Z"/>
    <path class="wtc-county" id="wtc-county-tunica" data-county="Tunica" d="M178.2,533.1L175.2,538.5L171.1,538.7L170.4,536.1L173.4,532.2L171.5,529.9L173.7,523.5L168.5,521.8L166.7,524.8L167.4,529.9L163.7,527.5L164.4,524.4L161.8,523.1L164.1,519.6L171.5,519.4L172.3,516.6L167.0,512.2L162.9,513.8L163.3,518.2L159.6,516.3L160.0,513.2L159.6,510.6L164.1,505.1L161.4,501.1L179.3,490.7L189.4,490.7L189.0,499.5L200.2,499.7L200.2,504.2L198.0,504.8L195.7,511.6L198.3,513.8L196.9,519.1L199.8,521.9L199.8,536.0L189.0,536.0L185.3,536.0L178.2,533.1Z"/>
    <path class="wtc-county" id="wtc-county-union" data-county="Union" d="M299.0,498.1L299.0,486.0L331.8,486.0L332.1,484.5L342.6,484.5L342.6,487.6L346.3,487.6L346.3,498.0L351.9,499.5L351.9,508.6L315.4,508.8L299.0,508.7L299.0,507.2L299.0,498.1Z"/>
    <path class="wtc-county" id="wtc-county-walthall" data-county="Walthall" d="M193.5,171.5L193.9,135.2L237.8,135.3L237.8,142.9L228.9,142.9L227.0,148.9L220.0,148.8L220.0,153.3L217.4,153.4L216.6,170.0L212.1,169.3L209.5,171.5L195.4,171.5L193.5,171.5Z"/>
    <path class="wtc-county" id="wtc-county-warren" data-county="Warren" d="M104.0,260.9L100.3,259.9L99.6,252.9L111.5,251.9L110.8,257.4L116.3,255.3L113.7,251.4L113.7,250.8L125.3,247.3L126.4,252.7L129.0,250.8L135.0,255.2L140.2,254.9L138.7,257.1L145.0,262.3L148.4,270.7L147.3,274.3L149.9,275.6L155.5,274.2L154.7,277.8L160.0,285.2L158.1,288.7L163.3,291.7L163.3,294.2L159.6,295.7L152.9,295.7L152.5,300.2L149.1,300.1L149.1,303.2L145.8,303.3L145.0,297.7L131.3,298.7L131.3,285.0L121.9,285.1L120.8,281.7L120.4,298.7L112.2,298.8L109.6,297.4L108.9,295.8L116.3,292.3L118.2,290.0L114.5,289.3L108.1,293.6L106.3,293.5L105.2,288.4L113.7,284.0L117.5,285.8L120.4,282.6L117.5,280.9L117.5,275.7L126.0,274.2L128.3,277.7L129.8,276.1L123.8,269.1L119.3,269.8L120.1,265.1L118.2,261.3L113.0,264.1L110.4,261.7L104.0,260.9Z"/>
    <path class="wtc-county" id="wtc-county-washington" data-county="Washington" d="M94.4,397.7L97.7,395.5L92.5,388.4L99.2,389.8L98.8,394.3L104.0,391.9L102.6,387.1L96.2,386.2L95.1,384.5L98.8,382.4L105.2,383.6L108.9,390.1L110.8,387.3L102.2,379.3L102.2,373.6L106.7,367.5L107.8,371.2L111.5,372.4L112.2,370.3L107.4,365.7L108.1,359.0L107.0,357.0L101.8,356.2L97.7,357.5L95.8,354.0L104.4,348.5L99.6,343.9L125.7,343.6L125.7,352.9L147.7,352.8L149.9,363.7L144.7,366.9L146.2,370.9L141.3,370.9L141.3,397.7L94.4,397.7Z"/>
    <path class="wtc-county" id="wtc-county-wayne" data-county="Wayne" d="M330.3,220.7L330.3,180.2L341.1,180.2L381.7,180.3L380.2,207.6L379.1,228.0L363.5,224.0L349.3,221.9L334.0,220.9L330.3,220.7Z"/>
    <path class="wtc-county" id="wtc-county-webster" data-county="Webster" d="M271.8,417.7L271.8,413.2L272.1,390.5L284.8,390.6L289.3,391.6L291.5,394.3L297.5,396.7L305.7,398.1L315.4,398.2L315.4,401.1L322.5,401.2L322.5,408.8L321.0,408.6L321.0,419.6L304.6,419.5L304.6,417.8L271.8,417.7Z"/>
    <path class="wtc-county" id="wtc-county-wilkinson" data-county="Wilkinson" d="M55.6,155.0L51.9,149.0L52.2,146.5L58.2,142.1L55.6,136.9L50.7,135.0L98.5,135.0L110.8,135.0L110.8,164.4L107.0,168.5L100.3,171.1L94.7,172.2L85.0,172.6L81.3,170.4L72.7,167.8L68.3,168.3L66.4,158.7L61.9,157.4L60.8,159.9L57.1,158.4L55.6,155.0Z"/>
    <path class="wtc-county" id="wtc-county-winston" data-county="Winston" d="M291.5,354.1L291.5,335.7L322.8,335.6L331.8,334.4L333.3,335.2L344.1,335.1L344.1,372.6L315.4,372.5L313.1,372.5L313.1,363.4L302.3,363.3L302.3,354.2L291.5,354.1Z"/>
    <path class="wtc-county" id="wtc-county-yalobusha" data-county="Yalobusha" d="M227.8,463.7L228.5,461.2L228.5,436.0L244.6,436.0L244.6,432.9L271.8,432.9L271.8,463.5L271.8,466.5L249.8,466.6L249.8,463.6L227.8,463.7Z"/>
    <path class="wtc-county" id="wtc-county-yazoo" data-county="Yazoo" d="M152.5,334.7L141.7,325.7L141.7,323.5L148.8,323.6L146.5,321.0L149.1,318.5L143.6,314.7L151.8,310.5L149.5,307.9L147.3,310.7L145.8,307.7L148.8,305.0L145.8,303.3L149.1,303.2L149.1,300.1L152.5,300.2L152.9,295.7L159.6,295.7L163.3,294.2L163.3,291.7L172.3,295.9L174.1,298.5L178.6,298.6L187.2,302.9L192.0,307.5L200.2,307.9L216.2,316.2L218.8,322.4L224.4,330.3L185.7,343.8L183.1,343.9L174.1,343.8L174.1,334.8L152.5,334.7Z"/>
  </g>
</svg>