<?xml version="1.0" encoding="UTF-8"?>
<svg xmlns="http://www.w3.org/2000/svg" viewBox="0 0 600 257" id="wtc-state-map-NC" role="img" aria-label="nc county map">
  <title>nc Counties</title>
  <g class="wtc-counties">
    <path class="wtc-county" id="wtc-county-alamance" data-county="Alamance" d="M324.5,167.6L324.5,164.4L342.0,164.4L341.2,166.3L340.4,168.4L340.8,187.4L325.1,187.7L324.9,187.2L324.5,167.6Z"/>
    <path class="wtc-county" id="wtc-county-alexander" data-county="Alexander" d="M221.9,173.2L221.1,169.0L221.7,166.5L221.5,161.7L232.6,163.5L234.5,160.5L238.4,165.2L240.4,171.0L240.6,173.2L239.0,176.0L237.3,175.2L229.7,175.5L225.6,174.8L221.9,173.2Z"/>
    <path class="wtc-county" id="wtc-county-alleghany" data-county="Alleghany" d="M220.4,206.4L220.4,204.7L223.7,200.1L225.2,199.1L226.6,195.3L226.2,194.4L229.9,196.3L231.4,198.2L232.8,197.1L235.3,198.7L238.2,197.0L239.2,194.8L241.9,195.0L242.7,196.5L243.7,197.4L242.3,199.4L245.0,202.2L246.4,205.6L230.5,206.2L220.4,206.4Z"/>
    <path class="wtc-county" id="wtc-county-anson" data-county="Anson" d="M279.8,105.3L302.3,104.9L303.7,107.6L306.8,110.4L305.6,113.2L305.8,115.0L303.9,116.2L305.2,118.0L303.3,119.8L302.5,122.6L301.2,122.8L298.6,120.9L294.2,122.4L293.8,124.2L291.8,127.1L288.3,124.4L285.2,124.9L283.5,128.1L282.3,127.2L279.8,105.3Z"/>
    <path class="wtc-county" id="wtc-county-ashe" data-county="Ashe" d="M201.9,207.2L200.0,204.2L200.9,200.3L199.6,199.7L198.8,195.8L204.2,193.4L208.3,189.0L209.1,189.3L213.2,187.2L216.9,189.5L219.6,189.7L219.6,194.0L222.3,194.8L224.6,193.7L226.2,194.4L226.6,195.3L225.2,199.1L223.7,200.1L220.4,204.7L220.4,206.4L201.9,207.2Z"/>
    <path class="wtc-county" id="wtc-county-avery" data-county="Avery" d="M187.3,188.6L181.7,180.9L178.6,179.4L181.1,173.8L179.8,172.6L181.3,170.1L184.4,168.3L186.6,171.1L189.1,173.4L190.8,172.0L194.5,171.2L198.6,177.3L194.3,179.8L193.0,183.1L191.6,184.5L189.9,184.3L188.5,185.8L189.3,189.0L188.1,189.9L187.3,188.6Z"/>
    <path class="wtc-county" id="wtc-county-beaufort" data-county="Beaufort" d="M460.3,158.0L459.1,156.2L460.8,155.3L460.6,152.7L465.5,147.7L463.0,147.8L460.3,145.8L460.3,142.2L459.5,140.0L472.7,133.3L476.4,130.6L479.3,128.4L491.5,129.5L492.7,132.0L492.9,135.3L489.6,135.8L476.6,140.9L472.3,141.1L468.8,144.1L469.0,145.5L473.7,143.2L480.1,141.7L484.3,140.0L487.1,140.5L493.1,138.2L494.6,138.2L493.3,142.4L491.5,145.3L493.3,146.9L495.8,146.3L500.1,146.9L500.9,147.9L498.9,149.3L496.8,149.4L493.3,152.5L493.3,154.4L491.3,156.4L479.3,156.5L479.1,157.3L471.3,153.8L461.0,158.4L460.3,158.0Z"/>
    <path class="wtc-county" id="wtc-county-bertie" data-county="Bertie" d="M451.7,177.5L452.3,176.5L458.1,174.2L459.5,171.9L458.9,170.1L464.9,169.2L467.8,170.2L469.0,167.2L468.0,165.4L470.2,165.3L473.7,167.6L476.4,165.4L476.0,163.2L477.9,162.8L480.1,165.0L479.9,166.7L484.3,165.6L488.2,170.2L488.6,173.4L486.3,177.2L484.7,181.9L485.1,185.6L486.5,187.4L472.1,187.1L458.5,187.5L457.3,185.8L453.3,185.3L453.8,183.0L455.2,182.5L456.0,179.9L457.3,179.4L452.5,178.5L451.7,177.5Z"/>
    <path class="wtc-county" id="wtc-county-bladen" data-county="Bladen" d="M361.2,106.5L363.9,100.9L366.8,98.1L364.5,91.8L363.5,90.9L364.3,87.2L363.1,86.4L365.5,85.1L374.6,85.5L387.4,80.2L393.8,79.6L398.3,81.5L402.8,85.3L398.3,87.7L397.3,89.5L398.3,90.4L397.7,92.1L395.4,93.2L395.0,95.5L393.2,98.2L390.5,100.5L387.2,105.2L384.5,107.7L382.4,107.4L367.2,107.4L361.2,106.5Z"/>
    <path class="wtc-county" id="wtc-county-brunswick" data-county="Brunswick" d="M403.7,79.1L398.3,71.0L391.5,70.3L388.8,66.6L383.5,68.1L382.0,67.1L380.8,63.8L381.2,62.4L379.8,60.8L376.3,59.1L377.1,57.4L375.6,55.3L382.0,50.0L383.7,50.8L390.9,52.9L397.1,53.5L402.8,53.6L407.6,53.2L411.9,52.1L412.5,50.4L415.2,50.1L416.7,54.5L416.0,56.9L416.9,60.2L416.7,65.6L415.6,67.4L415.4,72.0L412.1,75.4L411.3,77.6L408.4,78.1L405.1,79.9L403.7,79.1Z"/>
    <path class="wtc-county" id="wtc-county-buncombe" data-county="Buncombe" d="M132.6,154.9L134.7,151.2L136.6,152.0L139.2,148.6L139.2,147.0L137.4,143.0L138.4,141.2L140.5,140.3L144.6,142.3L147.7,141.0L157.2,141.8L159.4,143.2L162.1,142.7L164.2,144.7L168.1,142.8L170.4,144.6L170.0,145.8L173.7,146.3L168.9,148.1L166.7,149.9L168.1,151.2L166.4,155.3L167.5,156.4L167.1,157.6L164.2,159.0L162.5,163.1L159.9,163.0L153.9,162.1L145.2,158.4L142.5,158.1L137.0,155.4L134.5,156.3L132.6,154.9Z"/>
    <path class="wtc-county" id="wtc-county-burke" data-county="Burke" d="M186.6,171.1L188.7,166.7L187.7,164.4L184.2,162.3L190.8,157.3L193.4,149.0L197.6,151.2L201.1,149.3L203.5,148.2L209.9,148.4L209.9,148.6L211.6,150.9L215.9,154.9L219.8,160.1L217.8,159.5L215.3,161.0L208.9,160.6L206.2,163.4L200.0,166.2L196.1,170.4L194.5,171.2L190.8,172.0L189.1,173.4L186.6,171.1Z"/>
    <path class="wtc-county" id="wtc-county-cabarrus" data-county="Cabarrus" d="M253.2,145.0L255.1,139.7L254.2,139.0L258.4,135.9L259.8,131.3L266.6,127.9L269.1,126.6L281.2,144.9L255.9,145.0L253.2,145.0Z"/>
    <path class="wtc-county" id="wtc-county-caldwell" data-county="Caldwell" d="M194.3,179.8L198.6,177.3L194.5,171.2L196.1,170.4L200.0,166.2L206.2,163.4L208.9,160.6L215.3,161.0L217.8,159.5L219.8,160.1L221.5,161.7L221.7,166.5L221.1,169.0L221.9,173.2L221.1,174.8L218.0,177.2L215.3,177.5L214.5,178.6L211.6,178.9L209.3,180.1L201.9,180.4L194.3,179.8Z"/>
    <path class="wtc-county" id="wtc-county-camden" data-county="Camden" d="M499.7,205.0L496.8,205.0L499.7,202.7L502.8,200.3L509.2,197.3L511.0,195.6L514.1,194.7L515.6,192.2L517.4,191.9L515.4,190.6L517.2,190.2L520.3,189.9L526.9,184.1L533.3,182.8L530.4,184.8L530.2,188.1L530.8,189.7L528.2,191.1L526.9,193.1L524.9,194.0L521.4,193.9L518.9,196.3L518.7,197.8L509.8,205.0L499.7,205.0Z"/>
    <path class="wtc-county" id="wtc-county-carteret" data-county="Carteret" d="M465.9,105.1L461.0,103.6L463.2,102.0L464.9,97.2L464.3,95.3L468.6,96.5L481.0,98.4L489.0,98.3L496.2,95.6L497.0,92.3L497.7,93.9L502.0,99.6L505.7,103.6L510.0,107.5L514.6,110.5L519.9,115.3L525.7,119.4L524.0,120.4L514.3,111.7L509.4,108.0L502.6,102.1L497.9,96.0L489.2,99.2L492.5,99.5L492.3,103.6L494.4,102.6L494.1,98.7L497.7,97.7L499.1,101.2L502.0,105.3L504.2,106.3L504.2,108.0L508.0,108.7L511.5,112.4L511.0,116.5L506.9,118.0L508.8,114.3L505.1,114.5L503.4,116.1L502.8,119.3L500.5,120.0L499.7,116.9L494.1,115.5L491.5,115.4L488.6,113.8L490.4,112.4L488.0,108.5L484.3,107.1L477.0,107.1L472.9,105.9L473.1,105.0L465.9,105.1Z"/>
    <path class="wtc-county" id="wtc-county-caswell" data-county="Caswell" d="M326.2,204.4L325.1,187.7L340.8,187.4L346.8,187.3L347.6,204.5L343.1,204.5L335.9,204.4L328.6,204.4L326.2,204.4Z"/>
    <path class="wtc-county" id="wtc-county-catawba" data-county="Catawba" d="M219.8,160.1L215.9,154.9L211.6,150.9L209.9,148.6L243.1,147.4L245.0,151.7L240.4,156.7L237.1,156.8L236.9,158.4L234.5,160.5L232.6,163.5L221.5,161.7L219.8,160.1Z"/>
    <path class="wtc-county" id="wtc-county-chatham" data-county="Chatham" d="M324.5,164.4L323.7,145.5L335.4,145.7L339.2,147.9L339.8,146.5L341.6,148.7L344.1,148.1L347.0,151.5L348.8,152.1L352.6,150.2L354.6,147.2L357.3,145.9L360.4,149.5L355.9,151.0L361.0,165.8L354.6,165.5L350.9,165.4L341.2,166.3L342.0,164.4L324.5,164.4Z"/>
    <path class="wtc-county" id="wtc-county-cherokee" data-county="Cherokee" d="M51.6,127.8L50.0,115.3L61.1,115.3L68.1,115.3L71.0,117.5L70.4,118.5L73.7,120.5L77.6,124.2L79.1,123.9L83.6,124.9L84.0,127.4L85.9,128.9L85.4,130.3L81.5,130.1L78.2,130.7L71.6,128.6L68.3,129.4L66.9,132.7L62.8,130.2L57.0,130.0L56.4,131.2L51.9,128.9L51.6,127.8Z"/>
    <path class="wtc-county" id="wtc-county-chowan" data-county="Chowan" d="M488.2,189.3L489.0,188.7L486.5,184.9L486.5,181.9L489.0,175.9L493.1,175.3L494.8,173.8L498.3,173.7L501.6,174.8L504.2,177.7L499.7,178.3L495.0,179.6L493.9,187.1L495.0,188.2L495.8,193.5L492.7,192.0L491.1,192.3L487.8,190.4L488.2,189.3Z"/>
    <path class="wtc-county" id="wtc-county-clay" data-county="Clay" d="M83.6,124.9L79.1,123.9L77.6,124.2L73.7,120.5L70.4,118.5L71.0,117.5L68.1,115.3L72.1,115.3L90.4,115.2L94.3,115.6L98.2,115.6L95.5,116.5L92.3,121.2L89.4,123.0L87.9,125.2L83.6,124.9Z"/>
    <path class="wtc-county" id="wtc-county-cleveland" data-county="Cleveland" d="M201.1,149.3L200.5,136.5L197.2,128.7L196.5,126.3L219.6,125.4L221.9,125.4L222.3,130.9L220.4,131.9L220.2,134.9L217.8,136.2L214.7,140.1L209.9,148.4L203.5,148.2L201.1,149.3Z"/>
    <path class="wtc-county" id="wtc-county-columbus" data-county="Columbus" d="M351.5,75.7L375.6,55.3L377.1,57.4L376.3,59.1L379.8,60.8L381.2,62.4L380.8,63.8L382.0,67.1L383.5,68.1L388.8,66.6L391.5,70.3L398.3,71.0L403.7,79.1L401.4,78.9L398.3,81.5L393.8,79.6L387.4,80.2L374.6,85.5L365.5,85.1L363.1,86.4L357.3,83.1L357.3,81.4L355.0,80.4L353.0,76.4L351.5,75.7Z"/>
    <path class="wtc-county" id="wtc-county-craven" data-county="Craven" d="M448.0,135.5L445.7,134.9L444.7,133.3L445.7,130.4L443.2,129.1L451.5,124.6L459.7,120.6L460.1,119.2L463.8,120.1L464.5,116.9L464.3,106.2L467.8,106.6L465.9,105.1L473.1,105.0L472.9,105.9L477.0,107.1L484.3,107.1L488.0,108.5L490.4,112.4L488.6,113.8L484.0,111.4L476.6,113.5L471.7,116.2L471.1,118.6L472.7,118.7L474.2,119.5L474.4,122.7L471.1,124.8L472.5,127.3L476.4,130.6L472.7,133.3L459.5,140.0L457.5,138.9L455.4,136.2L453.5,137.8L450.2,134.8L448.0,135.5Z"/>
    <path class="wtc-county" id="wtc-county-cumberland" data-county="Cumberland" d="M349.9,126.0L349.1,123.2L350.5,118.4L353.6,113.8L353.4,113.2L358.1,111.0L361.2,106.5L367.2,107.4L382.4,107.4L384.5,107.7L380.2,112.4L375.8,115.5L375.0,120.4L376.9,125.8L377.5,130.1L371.3,131.3L365.5,130.9L362.4,129.2L355.6,128.3L350.1,127.0L349.9,126.0Z"/>
    <path class="wtc-county" id="wtc-county-currituck" data-county="Currituck" d="M509.8,205.0L518.7,197.8L518.9,196.3L521.4,193.9L524.9,194.0L526.9,193.1L528.2,191.1L530.8,189.7L530.2,188.1L532.3,187.4L532.9,185.6L535.6,182.5L535.4,180.7L539.3,177.6L539.3,179.9L537.0,183.6L537.2,184.9L535.4,187.9L532.3,194.5L532.3,197.8L530.0,197.3L526.7,199.7L525.5,202.7L528.2,203.7L528.4,201.7L533.5,201.1L534.3,198.7L536.4,197.2L537.4,192.9L536.8,190.9L538.5,189.8L539.7,186.4L540.9,186.7L539.5,190.0L536.0,202.1L535.6,205.0L520.7,205.0L509.8,205.0Z"/>
    <path class="wtc-county" id="wtc-county-dare" data-county="Dare" d="M543.6,169.7L547.3,165.5L546.9,163.3L550.0,162.8L549.8,165.1L547.3,168.8L543.6,169.7ZM542.0,127.4L542.2,126.6L550.2,129.0L555.2,129.4L558.2,143.5L558.9,150.2L557.8,154.9L555.6,160.1L554.9,160.2L556.2,155.1L557.8,150.4L557.8,147.7L555.6,135.3L554.5,131.6L551.9,131.1L548.6,129.4L546.1,129.3L542.0,127.4ZM539.7,186.4L541.8,182.1L543.6,173.6L546.3,173.0L549.2,169.1L552.9,161.9L554.7,161.2L547.5,174.6L542.8,182.2L540.9,186.7L539.7,186.4ZM535.4,149.4L537.2,148.8L540.7,149.2L543.4,151.9L542.6,154.6L544.2,155.8L542.8,160.6L543.6,163.2L542.2,166.4L538.9,171.1L533.7,172.1L530.8,171.1L532.1,169.5L529.2,167.5L528.6,160.1L527.1,154.4L533.5,154.4L535.4,149.4Z"/>
    <path class="wtc-county" id="wtc-county-davidson" data-county="Davidson" d="M275.5,171.8L276.5,171.2L276.9,166.8L274.2,166.5L276.1,165.0L273.8,164.9L273.4,163.6L270.1,163.8L272.4,160.0L271.8,158.6L276.7,157.1L279.0,157.3L279.2,154.9L286.2,149.3L287.6,144.9L294.2,145.0L295.5,168.8L295.7,174.0L289.5,174.9L286.0,174.9L285.8,173.2L279.2,173.2L275.5,171.8Z"/>
    <path class="wtc-county" id="wtc-county-davie" data-county="Davie" d="M257.5,164.9L261.9,164.5L268.9,160.4L271.1,160.1L271.8,158.6L272.4,160.0L270.1,163.8L273.4,163.6L273.8,164.9L276.1,165.0L274.2,166.5L276.9,166.8L276.5,171.2L275.5,171.8L274.2,174.3L271.6,177.0L269.7,176.1L258.4,176.3L257.5,164.9Z"/>
    <path class="wtc-county" id="wtc-county-duplin" data-county="Duplin" d="M403.7,126.9L403.1,121.3L403.9,120.5L404.5,110.4L401.6,101.2L405.3,99.3L406.6,100.0L412.3,100.6L413.6,99.7L431.3,99.9L431.5,103.6L433.1,111.6L431.7,114.5L428.4,116.4L427.6,117.2L427.4,122.2L426.3,124.3L422.4,126.2L419.1,124.4L417.1,125.9L414.6,125.5L414.0,126.5L410.5,127.0L408.6,126.0L403.7,126.9Z"/>
    <path class="wtc-county" id="wtc-county-durham" data-county="Durham" d="M358.3,187.1L356.7,176.6L354.6,165.5L361.0,165.8L365.3,165.8L366.8,169.2L369.2,168.7L371.9,171.1L372.8,174.1L370.5,174.8L369.9,177.5L366.8,178.6L367.0,186.9L358.3,187.1Z"/>
    <path class="wtc-county" id="wtc-county-edgecombe" data-county="Edgecombe" d="M430.3,182.2L429.8,180.0L426.1,174.0L422.8,165.8L427.4,163.5L429.2,157.8L432.3,154.7L440.8,159.7L443.2,162.0L445.9,162.2L448.0,163.8L450.2,163.0L450.7,167.9L447.4,173.7L443.2,175.5L439.9,175.6L439.3,178.9L434.2,180.0L433.3,181.3L430.3,182.2Z"/>
    <path class="wtc-county" id="wtc-county-forsyth" data-county="Forsyth" d="M272.2,187.2L273.0,181.4L268.5,178.7L269.7,176.1L271.6,177.0L274.2,174.3L275.5,171.8L279.2,173.2L285.8,173.2L286.0,174.9L289.5,174.9L295.7,174.0L296.1,188.2L272.2,188.4L272.2,187.2Z"/>
    <path class="wtc-county" id="wtc-county-franklin" data-county="Franklin" d="M384.5,183.4L381.8,178.0L381.6,174.7L388.4,171.9L390.3,169.8L392.7,169.4L392.7,168.3L395.4,167.4L398.3,163.0L412.5,185.0L410.5,185.8L407.2,185.4L405.3,187.5L403.1,188.1L395.4,188.7L393.6,186.8L391.3,186.9L388.8,182.8L384.5,183.4Z"/>
    <path class="wtc-county" id="wtc-county-gaston" data-county="Gaston" d="M214.7,140.1L217.8,136.2L220.2,134.9L220.4,131.9L222.3,130.9L221.9,125.4L238.4,124.5L240.2,124.9L239.8,131.4L241.7,135.5L245.2,136.6L241.5,137.8L243.3,138.9L214.7,140.1Z"/>
    <path class="wtc-county" id="wtc-county-gates" data-county="Gates" d="M475.2,204.6L476.0,203.3L473.3,200.4L474.2,196.5L480.8,194.3L484.0,193.6L487.8,190.4L491.1,192.3L492.7,192.0L495.8,193.5L501.8,195.1L499.7,200.3L499.7,202.7L496.8,205.0L475.2,205.1L475.2,204.6Z"/>
    <path class="wtc-county" id="wtc-county-graham" data-county="Graham" d="M70.8,142.6L67.3,139.5L68.1,137.3L66.3,136.1L66.9,132.7L68.3,129.4L71.6,128.6L78.2,130.7L81.5,130.1L85.4,130.3L86.9,132.0L86.7,134.6L90.2,135.8L91.8,137.6L92.3,140.9L90.8,140.5L83.8,141.7L79.7,141.5L73.5,142.7L71.2,142.4L70.8,142.6Z"/>
    <path class="wtc-county" id="wtc-county-granville" data-county="Granville" d="M367.0,186.9L366.8,178.6L369.9,177.5L373.8,177.7L381.6,174.7L381.8,178.0L384.5,183.4L383.9,183.9L383.7,199.5L384.5,202.9L386.8,204.5L370.9,204.5L367.2,204.5L367.4,203.6L367.0,186.9Z"/>
    <path class="wtc-county" id="wtc-county-greene" data-county="Greene" d="M423.2,149.6L423.0,140.3L424.3,139.2L424.1,137.2L430.5,137.6L431.5,135.9L436.6,137.4L443.0,140.5L441.0,144.6L441.6,145.7L438.3,146.6L435.4,148.6L430.3,153.4L424.1,149.4L423.2,149.6Z"/>
    <path class="wtc-county" id="wtc-county-guilford" data-county="Guilford" d="M295.7,174.0L295.5,168.8L324.5,167.6L324.9,187.2L296.1,188.2L295.7,174.0Z"/>
    <path class="wtc-county" id="wtc-county-halifax" data-county="Halifax" d="M412.5,185.0L414.4,183.4L414.8,184.6L417.7,183.8L419.5,181.7L424.1,181.3L427.4,182.4L430.3,182.2L433.3,181.3L434.2,180.0L439.3,178.9L439.9,175.6L443.2,175.5L447.4,173.7L451.7,177.5L452.5,178.5L457.3,179.4L456.0,179.9L455.2,182.5L453.8,183.0L448.2,185.7L448.6,187.7L446.9,188.5L445.1,192.0L439.3,190.8L437.7,191.4L437.1,193.5L438.9,194.9L438.5,197.4L434.2,199.3L433.3,200.9L425.9,201.0L423.5,202.1L418.7,202.3L418.1,195.4L416.2,190.5L412.5,185.0Z"/>
    <path class="wtc-county" id="wtc-county-harnett" data-county="Harnett" d="M345.1,133.6L342.9,131.3L346.2,129.8L346.8,128.3L350.1,127.0L355.6,128.3L362.4,129.2L365.5,130.9L371.3,131.3L377.5,130.1L379.6,133.0L382.0,134.2L382.6,135.2L375.0,144.5L372.3,145.8L360.4,149.5L357.3,145.9L345.1,133.6Z"/>
    <path class="wtc-county" id="wtc-county-haywood" data-county="Haywood" d="M111.2,157.0L111.2,156.0L115.5,154.5L114.3,153.3L115.7,152.0L115.3,150.3L117.0,147.7L115.1,145.5L118.0,144.0L123.4,139.8L123.4,138.6L126.5,137.1L127.9,134.1L130.4,132.7L133.1,134.1L135.5,134.3L138.0,137.9L140.5,140.3L138.4,141.2L137.4,143.0L139.2,147.0L139.2,148.6L136.6,152.0L134.7,151.2L132.6,154.9L131.6,155.3L130.6,158.7L128.9,158.4L128.1,161.4L126.3,160.4L121.3,161.3L117.0,159.9L115.3,157.9L111.2,157.0Z"/>
    <path class="wtc-county" id="wtc-county-henderson" data-county="Henderson" d="M168.1,142.8L164.2,144.7L162.1,142.7L159.4,143.2L157.2,141.8L147.7,141.0L144.6,142.3L140.5,140.3L148.3,132.5L149.3,125.4L150.4,124.2L157.0,126.2L158.4,125.8L160.9,128.3L162.9,127.0L163.4,132.0L168.3,138.5L167.3,141.4L168.1,142.8Z"/>
    <path class="wtc-county" id="wtc-county-hertford" data-county="Hertford" d="M458.5,187.5L472.1,187.1L486.5,187.4L488.2,189.3L487.8,190.4L484.0,193.6L480.8,194.3L474.2,196.5L473.3,200.4L476.0,203.3L475.2,204.6L461.0,204.7L462.0,203.5L465.1,203.2L466.3,200.9L463.4,200.5L462.8,198.3L458.5,187.5Z"/>
    <path class="wtc-county" id="wtc-county-hoke" data-county="Hoke" d="M329.3,118.5L332.8,115.7L335.2,112.7L335.7,106.7L344.5,106.4L353.4,113.2L353.6,113.8L350.5,118.4L349.1,123.2L349.9,126.0L348.4,125.5L345.5,127.1L341.4,128.2L336.3,125.2L329.3,118.5Z"/>
    <path class="wtc-county" id="wtc-county-hyde" data-county="Hyde" d="M542.0,127.4L540.1,127.1L530.4,122.9L528.8,122.9L527.1,119.5L531.0,122.0L542.2,126.6L542.0,127.4ZM491.3,156.4L493.3,154.4L493.3,152.5L496.8,149.4L498.9,149.3L500.9,147.9L500.5,145.4L494.1,145.2L496.8,139.5L499.9,137.3L502.0,138.0L503.0,136.8L508.4,135.9L514.3,136.1L519.7,134.8L520.3,136.0L523.8,137.3L524.4,139.5L527.1,140.3L528.6,143.8L530.0,144.3L530.6,146.4L532.7,146.9L535.4,149.4L533.5,154.4L527.1,154.4L525.3,154.2L522.6,154.4L519.5,156.3L518.1,156.1L517.6,153.6L515.4,150.3L510.8,150.9L512.3,155.6L504.5,156.0L491.3,156.4Z"/>
    <path class="wtc-county" id="wtc-county-iredell" data-county="Iredell" d="M239.0,176.0L240.6,173.2L240.4,171.0L238.4,165.2L234.5,160.5L236.9,158.4L237.1,156.8L240.4,156.7L245.0,151.7L243.1,147.4L243.7,144.2L246.0,145.5L253.2,145.0L255.9,145.0L253.8,154.6L257.5,164.9L258.4,176.3L247.4,176.6L242.1,176.8L239.0,176.0Z"/>
    <path class="wtc-county" id="wtc-county-jackson" data-county="Jackson" d="M115.1,145.5L112.2,146.1L108.1,143.5L105.6,142.8L105.0,140.5L106.3,138.8L106.5,135.0L107.7,131.2L109.8,129.1L113.1,129.7L113.1,125.0L115.1,123.6L117.6,120.4L117.4,119.1L119.7,116.0L125.4,117.5L122.5,119.1L126.9,123.5L126.7,126.8L130.2,129.6L130.4,132.7L127.9,134.1L126.5,137.1L123.4,138.6L123.4,139.8L118.0,144.0L115.1,145.5Z"/>
    <path class="wtc-county" id="wtc-county-johnston" data-county="Johnston" d="M372.3,145.8L375.0,144.5L382.6,135.2L382.0,134.2L384.7,131.1L389.4,130.6L395.4,132.5L396.5,134.1L399.1,134.4L400.6,135.6L404.3,136.1L404.1,140.0L409.2,149.6L405.9,150.6L403.7,156.0L402.0,157.9L398.7,160.4L398.3,163.0L385.9,156.3L372.3,145.8Z"/>
    <path class="wtc-county" id="wtc-county-jones" data-county="Jones" d="M428.4,116.4L431.7,114.5L433.8,115.1L441.6,114.2L449.4,110.7L451.5,112.4L455.0,111.7L457.7,109.5L459.1,105.1L461.0,103.6L465.9,105.1L467.8,106.6L464.3,106.2L464.5,116.9L463.8,120.1L460.1,119.2L459.7,120.6L451.5,124.6L443.2,129.1L440.1,129.9L441.4,125.9L435.8,120.0L428.4,116.4Z"/>
    <path class="wtc-county" id="wtc-county-lee" data-county="Lee" d="M335.4,145.7L336.3,144.6L334.8,142.9L336.7,140.3L339.0,138.9L340.4,135.8L345.1,133.6L357.3,145.9L354.6,147.2L352.6,150.2L348.8,152.1L347.0,151.5L344.1,148.1L341.6,148.7L339.8,146.5L339.2,147.9L335.4,145.7Z"/>
    <path class="wtc-county" id="wtc-county-lenoir" data-county="Lenoir" d="M424.1,137.2L423.0,135.7L422.4,126.2L426.3,124.3L427.4,122.2L427.6,117.2L428.4,116.4L435.8,120.0L441.4,125.9L440.1,129.9L443.2,129.1L445.7,130.4L444.7,133.3L445.7,134.9L448.0,135.5L445.9,136.0L443.0,140.5L436.6,137.4L431.5,135.9L430.5,137.6L424.1,137.2Z"/>
    <path class="wtc-county" id="wtc-county-lincoln" data-county="Lincoln" d="M209.9,148.6L209.9,148.4L214.7,140.1L243.3,138.9L244.1,142.1L243.7,144.2L243.1,147.4L209.9,148.6Z"/>
    <path class="wtc-county" id="wtc-county-mcdowell" data-county="McDowell" d="M167.5,156.4L166.4,155.3L168.1,151.2L166.7,149.9L168.9,148.1L173.7,146.3L174.7,145.7L181.1,146.5L183.1,147.7L185.2,146.2L188.7,147.1L192.4,147.1L193.4,149.0L190.8,157.3L184.2,162.3L187.7,164.4L188.7,166.7L186.6,171.1L184.4,168.3L184.4,166.8L182.5,166.8L180.5,165.0L177.6,164.9L175.7,163.3L172.2,158.2L167.5,156.4Z"/>
    <path class="wtc-county" id="wtc-county-macon" data-county="Macon" d="M85.4,130.3L85.9,128.9L84.0,127.4L83.6,124.9L87.9,125.2L89.4,123.0L92.3,121.2L95.5,116.5L98.2,115.6L119.7,116.0L117.4,119.1L117.6,120.4L115.1,123.6L113.1,125.0L113.1,129.7L109.8,129.1L107.7,131.2L106.5,135.0L101.1,134.6L99.1,133.1L97.4,133.2L86.9,132.0L85.4,130.3Z"/>
    <path class="wtc-county" id="wtc-county-madison" data-county="Madison" d="M131.8,170.2L131.0,169.2L131.6,166.1L128.9,163.3L128.1,161.4L128.9,158.4L130.6,158.7L131.6,155.3L132.6,154.9L134.5,156.3L137.0,155.4L142.5,158.1L145.2,158.4L153.9,162.1L159.9,163.0L159.4,165.3L157.2,167.6L154.9,168.2L155.7,170.4L154.3,172.1L151.2,170.8L148.1,171.7L148.7,175.7L147.1,177.2L140.3,173.7L136.2,168.9L134.5,170.4L131.8,170.2Z"/>
    <path class="wtc-county" id="wtc-county-martin" data-county="Martin" d="M447.4,173.7L450.7,167.9L450.2,163.0L455.8,161.1L455.6,159.9L457.9,159.6L460.3,158.0L461.0,158.4L471.3,153.8L479.1,157.3L481.0,159.0L481.8,162.2L484.3,165.6L479.9,166.7L480.1,165.0L477.9,162.8L476.0,163.2L476.4,165.4L473.7,167.6L470.2,165.3L468.0,165.4L469.0,167.2L467.8,170.2L464.9,169.2L458.9,170.1L459.5,171.9L458.1,174.2L452.3,176.5L451.7,177.5L447.4,173.7Z"/>
    <path class="wtc-county" id="wtc-county-mecklenburg" data-county="Mecklenburg" d="M238.4,124.5L238.8,121.9L237.3,119.6L238.4,118.5L244.6,122.1L246.2,120.3L249.9,116.1L254.0,118.1L266.6,127.9L259.8,131.3L258.4,135.9L254.2,139.0L255.1,139.7L253.2,145.0L246.0,145.5L243.7,144.2L244.1,142.1L243.3,138.9L241.5,137.8L245.2,136.6L241.7,135.5L239.8,131.4L240.2,124.9L238.4,124.5Z"/>
    <path class="wtc-county" id="wtc-county-mitchell" data-county="Mitchell" d="M170.6,182.4L169.1,180.9L166.7,181.2L163.1,180.1L159.4,177.6L163.1,178.3L164.0,175.1L166.0,176.0L167.7,173.6L172.0,174.3L172.0,170.7L175.1,168.1L175.7,163.3L177.6,164.9L180.5,165.0L182.5,166.8L184.4,166.8L184.4,168.3L181.3,170.1L179.8,172.6L181.1,173.8L178.6,179.4L175.7,179.5L174.9,182.0L170.6,182.4Z"/>
    <path class="wtc-county" id="wtc-county-montgomery" data-county="Montgomery" d="M287.6,144.9L288.9,143.2L292.0,142.3L292.8,139.0L295.3,137.3L293.4,134.4L292.6,130.6L295.1,125.9L293.8,124.2L296.9,123.8L299.2,125.1L303.9,125.3L306.8,126.5L312.6,125.9L316.9,126.0L320.4,125.4L317.9,126.9L316.9,130.1L315.0,131.1L314.8,133.3L311.7,143.3L311.5,145.4L294.2,145.0L287.6,144.9Z"/>
    <path class="wtc-county" id="wtc-county-moore" data-county="Moore" d="M311.5,145.4L311.7,143.3L314.8,133.3L315.0,131.1L316.9,130.1L317.9,126.9L320.4,125.4L322.7,123.0L322.5,120.0L326.8,119.7L329.3,118.5L336.3,125.2L341.4,128.2L345.5,127.1L348.4,125.5L349.9,126.0L350.1,127.0L346.8,128.3L346.2,129.8L342.9,131.3L345.1,133.6L340.4,135.8L339.0,138.9L336.7,140.3L334.8,142.9L336.3,144.6L335.4,145.7L323.7,145.5L311.5,145.4Z"/>
    <path class="wtc-county" id="wtc-county-nash" data-county="Nash" d="M398.3,163.0L398.7,160.4L402.0,157.9L416.9,163.7L420.2,164.7L422.0,164.0L422.8,165.8L426.1,174.0L429.8,180.0L430.3,182.2L427.4,182.4L424.1,181.3L419.5,181.7L417.7,183.8L414.8,184.6L414.4,183.4L412.5,185.0L398.3,163.0Z"/>
    <path class="wtc-county" id="wtc-county-new-hanover" data-county="New Hanover" d="M411.3,77.6L412.1,75.4L415.4,72.0L415.6,67.4L416.7,65.6L416.9,60.2L416.0,56.9L416.7,54.5L420.0,62.4L422.8,67.9L426.5,72.6L429.6,75.6L428.0,75.4L423.9,79.1L423.2,80.9L417.1,79.3L415.2,80.5L413.8,79.9L413.4,77.9L411.3,77.6Z"/>
    <path class="wtc-county" id="wtc-county-northampton" data-county="Northampton" d="M418.7,204.6L418.7,202.3L423.5,202.1L425.9,201.0L433.3,200.9L434.2,199.3L438.5,197.4L438.9,194.9L437.1,193.5L437.7,191.4L439.3,190.8L445.1,192.0L446.9,188.5L448.6,187.7L448.2,185.7L453.8,183.0L453.3,185.3L457.3,185.8L458.5,187.5L462.8,198.3L463.4,200.5L466.3,200.9L465.1,203.2L462.0,203.5L461.0,204.7L453.3,204.6L426.3,204.7L418.7,204.6Z"/>
    <path class="wtc-county" id="wtc-county-onslow" data-county="Onslow" d="M431.7,114.5L433.1,111.6L431.5,103.6L431.3,99.9L435.2,91.8L437.3,85.9L440.8,83.8L443.9,85.6L451.9,89.3L460.3,94.1L464.3,95.3L464.9,97.2L463.2,102.0L461.0,103.6L459.1,105.1L457.7,109.5L455.0,111.7L451.5,112.4L449.4,110.7L441.6,114.2L433.8,115.1L431.7,114.5Z"/>
    <path class="wtc-county" id="wtc-county-orange" data-county="Orange" d="M340.8,187.4L340.4,168.4L341.2,166.3L350.9,165.4L354.6,165.5L356.7,176.6L358.3,187.1L346.8,187.3L340.8,187.4Z"/>
    <path class="wtc-county" id="wtc-county-pamlico" data-county="Pamlico" d="M476.4,130.6L472.5,127.3L471.1,124.8L474.4,122.7L474.2,119.5L472.7,118.7L481.8,113.9L492.1,119.5L495.2,121.5L497.0,124.1L496.8,125.5L499.5,128.2L500.9,130.9L500.7,132.9L499.1,134.4L492.9,135.3L492.7,132.0L491.5,129.5L479.3,128.4L476.4,130.6Z"/>
    <path class="wtc-county" id="wtc-county-pasquotank" data-county="Pasquotank" d="M499.7,202.7L499.7,200.3L501.8,195.1L506.3,188.2L509.6,187.2L512.1,184.2L513.3,184.0L517.6,180.5L522.6,181.2L524.4,182.3L523.2,184.9L521.1,185.7L519.3,188.6L517.2,190.2L515.4,190.6L517.4,191.9L515.6,192.2L514.1,194.7L511.0,195.6L509.2,197.3L502.8,200.3L499.7,202.7Z"/>
    <path class="wtc-county" id="wtc-county-pender" data-county="Pender" d="M398.3,90.4L397.3,89.5L398.3,87.7L402.8,85.3L398.3,81.5L401.4,78.9L403.7,79.1L405.1,79.9L408.4,78.1L411.3,77.6L413.4,77.9L413.8,79.9L415.2,80.5L417.1,79.3L423.2,80.9L423.9,79.1L428.0,75.4L429.6,75.6L437.1,81.5L440.8,83.8L437.3,85.9L435.2,91.8L431.3,99.9L413.6,99.7L412.3,100.6L406.6,100.0L404.1,97.6L398.3,90.4Z"/>
    <path class="wtc-county" id="wtc-county-perquimans" data-county="Perquimans" d="M495.8,193.5L495.0,188.2L493.9,187.1L495.0,179.6L499.7,178.3L504.2,177.7L509.2,178.3L510.6,179.2L506.3,180.3L501.6,183.9L505.3,182.7L506.3,181.3L509.0,181.1L515.4,178.8L516.8,179.5L514.8,180.9L512.1,184.2L509.6,187.2L506.3,188.2L501.8,195.1L495.8,193.5Z"/>
    <path class="wtc-county" id="wtc-county-person" data-county="Person" d="M347.6,204.5L346.8,187.3L358.3,187.1L367.0,186.9L367.4,203.6L367.2,204.5L347.6,204.5Z"/>
    <path class="wtc-county" id="wtc-county-pitt" data-county="Pitt" d="M430.3,153.4L435.4,148.6L438.3,146.6L441.6,145.7L441.0,144.6L443.0,140.5L445.9,136.0L448.0,135.5L450.2,134.8L453.5,137.8L455.4,136.2L457.5,138.9L459.5,140.0L460.3,142.2L460.3,145.8L463.0,147.8L465.5,147.7L460.6,152.7L460.8,155.3L459.1,156.2L460.3,158.0L457.9,159.6L455.6,159.9L455.8,161.1L450.2,163.0L448.0,163.8L445.9,162.2L443.2,162.0L440.8,159.7L432.3,154.7L430.3,153.4Z"/>
    <path class="wtc-county" id="wtc-county-polk" data-county="Polk" d="M168.3,138.5L163.4,132.0L162.9,127.0L171.0,127.2L185.0,126.7L185.2,130.7L183.6,131.5L180.0,135.3L175.9,138.7L168.3,138.5Z"/>
    <path class="wtc-county" id="wtc-county-randolph" data-county="Randolph" d="M295.5,168.8L294.2,145.0L311.5,145.4L323.7,145.5L324.5,164.4L324.5,167.6L295.5,168.8Z"/>
    <path class="wtc-county" id="wtc-county-richmond" data-county="Richmond" d="M293.8,124.2L294.2,122.4L298.6,120.9L301.2,122.8L302.5,122.6L303.3,119.8L305.2,118.0L303.9,116.2L305.8,115.0L305.6,113.2L306.8,110.4L303.7,107.6L302.3,104.9L315.9,104.8L319.8,106.0L319.6,107.5L323.3,110.8L322.1,113.4L322.7,115.5L329.3,118.5L326.8,119.7L322.5,120.0L322.7,123.0L320.4,125.4L316.9,126.0L312.6,125.9L306.8,126.5L303.9,125.3L299.2,125.1L296.9,123.8L293.8,124.2Z"/>
    <path class="wtc-county" id="wtc-county-robeson" data-county="Robeson" d="M329.1,94.7L329.7,94.2L335.0,89.9L341.4,84.1L351.5,75.7L353.0,76.4L355.0,80.4L357.3,81.4L357.3,83.1L363.1,86.4L364.3,87.2L363.5,90.9L364.5,91.8L366.8,98.1L363.9,100.9L361.2,106.5L358.1,111.0L353.4,113.2L344.5,106.4L335.7,106.7L335.0,105.6L336.3,102.6L329.1,94.7Z"/>
    <path class="wtc-county" id="wtc-county-rockingham" data-county="Rockingham" d="M296.5,204.5L296.1,188.2L324.9,187.2L325.1,187.7L326.2,204.4L314.6,204.5L296.5,204.5Z"/>
    <path class="wtc-county" id="wtc-county-rowan" data-county="Rowan" d="M257.5,164.9L253.8,154.6L255.9,145.0L281.2,144.9L287.6,144.9L286.2,149.3L279.2,154.9L279.0,157.3L276.7,157.1L271.8,158.6L271.1,160.1L268.9,160.4L261.9,164.5L257.5,164.9Z"/>
    <path class="wtc-county" id="wtc-county-rutherford" data-county="Rutherford" d="M168.1,142.8L167.3,141.4L168.3,138.5L175.9,138.7L180.0,135.3L183.6,131.5L185.2,130.7L185.0,126.7L190.6,126.6L196.5,126.3L197.2,128.7L200.5,136.5L201.1,149.3L197.6,151.2L193.4,149.0L192.4,147.1L188.7,147.1L185.2,146.2L183.1,147.7L181.1,146.5L174.7,145.7L173.7,146.3L170.0,145.8L170.4,144.6L168.1,142.8Z"/>
    <path class="wtc-county" id="wtc-county-sampson" data-county="Sampson" d="M377.5,130.1L376.9,125.8L375.0,120.4L375.8,115.5L380.2,112.4L384.5,107.7L387.2,105.2L390.5,100.5L393.2,98.2L395.0,95.5L395.4,93.2L397.7,92.1L398.3,90.4L404.1,97.6L406.6,100.0L405.3,99.3L401.6,101.2L404.5,110.4L403.9,120.5L403.1,121.3L403.7,126.9L403.7,127.7L398.9,128.9L395.4,132.5L389.4,130.6L384.7,131.1L382.0,134.2L379.6,133.0L377.5,130.1Z"/>
    <path class="wtc-county" id="wtc-county-scotland" data-county="Scotland" d="M315.9,104.8L316.9,104.8L329.1,94.7L336.3,102.6L335.0,105.6L335.7,106.7L335.2,112.7L332.8,115.7L329.3,118.5L322.7,115.5L322.1,113.4L323.3,110.8L319.6,107.5L319.8,106.0L315.9,104.8Z"/>
    <path class="wtc-county" id="wtc-county-stanly" data-county="Stanly" d="M281.2,144.9L269.1,126.6L271.4,125.5L277.7,125.4L282.3,127.2L283.5,128.1L285.2,124.9L288.3,124.4L291.8,127.1L293.8,124.2L295.1,125.9L292.6,130.6L293.4,134.4L295.3,137.3L292.8,139.0L292.0,142.3L288.9,143.2L287.6,144.9L281.2,144.9Z"/>
    <path class="wtc-county" id="wtc-county-stokes" data-county="Stokes" d="M272.8,205.0L272.2,188.4L296.1,188.2L296.5,204.5L295.1,204.5L281.2,204.6L272.8,205.0Z"/>
    <path class="wtc-county" id="wtc-county-surry" data-county="Surry" d="M246.4,205.6L245.0,202.2L242.3,199.4L243.7,197.4L242.7,196.5L248.3,192.1L248.1,186.9L255.1,188.5L258.8,188.8L260.6,187.9L262.3,189.8L264.1,188.9L266.6,189.8L267.4,188.3L271.4,188.3L272.2,187.2L272.2,188.4L272.8,205.0L263.1,205.4L257.7,205.7L250.1,205.5L246.4,205.6Z"/>
    <path class="wtc-county" id="wtc-county-swain" data-county="Swain" d="M87.9,148.7L81.5,148.3L78.4,146.0L75.1,145.6L73.5,143.3L71.2,142.4L73.5,142.7L79.7,141.5L83.8,141.7L90.8,140.5L92.3,140.9L91.8,137.6L90.2,135.8L86.7,134.6L86.9,132.0L97.4,133.2L99.1,133.1L101.1,134.6L106.5,135.0L106.3,138.8L105.0,140.5L105.6,142.8L108.1,143.5L112.2,146.1L115.1,145.5L117.0,147.7L115.3,150.3L115.7,152.0L114.3,153.3L115.5,154.5L111.2,156.0L107.9,153.6L105.9,153.9L104.8,152.7L100.3,151.1L98.0,148.6L92.5,148.3L91.2,149.2L87.9,148.7Z"/>
    <path class="wtc-county" id="wtc-county-transylvania" data-county="Transylvania" d="M130.4,132.7L130.2,129.6L126.7,126.8L126.9,123.5L122.5,119.1L125.4,117.5L131.8,119.2L138.4,120.9L139.4,119.9L145.6,122.8L150.4,124.2L149.3,125.4L148.3,132.5L140.5,140.3L138.0,137.9L135.5,134.3L133.1,134.1L130.4,132.7Z"/>
    <path class="wtc-county" id="wtc-county-tyrrell" data-county="Tyrrell" d="M506.9,170.2L506.1,168.5L507.5,165.4L504.5,161.1L504.5,156.0L512.3,155.6L510.8,150.9L515.4,150.3L517.6,153.6L518.1,156.1L519.5,156.3L522.6,154.4L525.3,154.2L524.9,162.3L524.2,165.0L527.1,168.8L527.1,171.0L524.2,173.0L517.6,173.0L512.3,171.8L509.6,170.4L506.9,170.2Z"/>
    <path class="wtc-county" id="wtc-county-union" data-county="Union" d="M249.9,116.1L253.2,112.3L252.4,105.6L266.0,105.5L279.8,105.3L282.3,127.2L277.7,125.4L271.4,125.5L269.1,126.6L266.6,127.9L254.0,118.1L249.9,116.1Z"/>
    <path class="wtc-county" id="wtc-county-vance" data-county="Vance" d="M386.8,204.5L384.5,202.9L383.7,199.5L383.9,183.9L384.5,183.4L388.8,182.8L391.3,186.9L393.6,186.8L395.4,188.7L397.1,191.0L394.4,204.6L386.8,204.5Z"/>
    <path class="wtc-county" id="wtc-county-wake" data-county="Wake" d="M361.0,165.8L355.9,151.0L360.4,149.5L372.3,145.8L385.9,156.3L398.3,163.0L395.4,167.4L392.7,168.3L392.7,169.4L390.3,169.8L388.4,171.9L381.6,174.7L373.8,177.7L369.9,177.5L370.5,174.8L372.8,174.1L371.9,171.1L369.2,168.7L366.8,169.2L365.3,165.8L361.0,165.8Z"/>
    <path class="wtc-county" id="wtc-county-warren" data-county="Warren" d="M394.4,204.6L397.1,191.0L395.4,188.7L403.1,188.1L405.3,187.5L407.2,185.4L410.5,185.8L412.5,185.0L416.2,190.5L418.1,195.4L418.7,202.3L418.7,204.6L410.3,204.6L394.4,204.6Z"/>
    <path class="wtc-county" id="wtc-county-washington" data-county="Washington" d="M479.1,157.3L479.3,156.5L491.3,156.4L504.5,156.0L504.5,161.1L507.5,165.4L506.1,168.5L506.9,170.2L505.1,172.5L497.4,170.2L489.2,169.7L488.2,170.2L484.3,165.6L481.8,162.2L481.0,159.0L479.1,157.3Z"/>
    <path class="wtc-county" id="wtc-county-watauga" data-county="Watauga" d="M198.8,195.8L200.2,192.8L196.7,192.8L195.1,193.9L192.8,193.3L188.1,189.9L189.3,189.0L188.5,185.8L189.9,184.3L191.6,184.5L193.0,183.1L194.3,179.8L201.9,180.4L209.3,180.1L212.0,181.6L214.5,184.9L213.2,187.2L209.1,189.3L208.3,189.0L204.2,193.4L198.8,195.8Z"/>
    <path class="wtc-county" id="wtc-county-wayne" data-county="Wayne" d="M409.2,149.6L404.1,140.0L404.3,136.1L400.6,135.6L399.1,134.4L396.5,134.1L395.4,132.5L398.9,128.9L403.7,127.7L403.7,126.9L408.6,126.0L410.5,127.0L414.0,126.5L414.6,125.5L417.1,125.9L419.1,124.4L422.4,126.2L423.0,135.7L424.1,137.2L424.3,139.2L423.0,140.3L423.2,149.6L413.1,149.6L409.6,150.3L409.2,149.6Z"/>
    <path class="wtc-county" id="wtc-county-wilkes" data-county="Wilkes" d="M209.3,180.1L211.6,178.9L214.5,178.6L215.3,177.5L218.0,177.2L221.1,174.8L221.9,173.2L225.6,174.8L229.7,175.5L237.3,175.2L239.0,176.0L242.1,176.8L247.4,176.6L248.1,186.9L248.3,192.1L242.7,196.5L241.9,195.0L239.2,194.8L238.2,197.0L235.3,198.7L232.8,197.1L231.4,198.2L229.9,196.3L226.2,194.4L224.6,193.7L222.3,194.8L219.6,194.0L219.6,189.7L216.9,189.5L213.2,187.2L214.5,184.9L212.0,181.6L209.3,180.1Z"/>
    <path class="wtc-county" id="wtc-county-wilson" data-county="Wilson" d="M422.8,165.8L422.0,164.0L420.2,164.7L416.9,163.7L402.0,157.9L403.7,156.0L405.9,150.6L409.2,149.6L409.6,150.3L413.1,149.6L423.2,149.6L424.1,149.4L430.3,153.4L432.3,154.7L429.2,157.8L427.4,163.5L422.8,165.8Z"/>
    <path class="wtc-county" id="wtc-county-yadkin" data-county="Yadkin" d="M248.1,186.9L247.4,176.6L258.4,176.3L269.7,176.1L268.5,178.7L273.0,181.4L272.2,187.2L271.4,188.3L267.4,188.3L266.6,189.8L264.1,188.9L262.3,189.8L260.6,187.9L258.8,188.8L255.1,188.5L248.1,186.9Z"/>
    <path class="wtc-county" id="wtc-county-yancey" data-county="Yancey" d="M154.3,172.1L155.7,170.4L154.9,168.2L157.2,167.6L159.4,165.3L159.9,163.0L162.5,163.1L164.2,159.0L167.1,157.6L167.5,156.4L172.2,158.2L175.7,163.3L175.1,168.1L172.0,170.7L172.0,174.3L167.7,173.6L166.0,176.0L164.0,175.1L163.1,178.3L159.4,177.6L157.0,173.8L154.3,172.1Z"/>
  </g>
</svg>