<?xml version="1.0" encoding="UTF-8"?>
<svg xmlns="http://www.w3.org/2000/svg" viewBox="0 0 600 257" id="wtc-state-map-NC" role="img" aria-label="nc county map">
  <title>nc Counties</title>
  <g class="wtc-counties">
    <path class="wtc-county" id="wtc-county-alamance" data-county="Alamance" d="M324.5,89.5L324.5,92.8L342.0,92.7L341.2,90.8L340.4,88.7L340.8,69.8L325.1,69.4L324.9,69.9L324.5,89.5Z"/>
    <path class="wtc-county" id="wtc-county-alexander" data-county="Alexander" d="M221.9,84.0L221.1,88.2L221.7,90.7L221.5,95.5L232.6,93.7L234.5,96.6L238.4,91.9L240.4,86.2L240.6,83.9L239.0,81.1L237.3,82.0L229.7,81.6L225.6,82.3L221.9,84.0Z"/>
    <path class="wtc-county" id="wtc-county-alleghany" data-county="Alleghany" d="M220.4,50.8L220.4,52.4L223.7,57.1L225.2,58.1L226.6,61.8L226.2,62.7L229.9,60.9L231.4,58.9L232.8,60.1L235.3,58.5L238.2,60.2L239.2,62.3L241.9,62.1L242.7,60.7L243.7,59.7L242.3,57.7L245.0,55.0L246.4,51.5L230.5,50.9L220.4,50.8Z"/>
    <path class="wtc-county" id="wtc-county-anson" data-county="Anson" d="M279.8,151.9L302.3,152.3L303.7,149.5L306.8,146.8L305.6,143.9L305.8,142.2L303.9,141.0L305.2,139.2L303.3,137.4L302.5,134.5L301.2,134.4L298.6,136.3L294.2,134.8L293.8,133.0L291.8,130.1L288.3,132.7L285.2,132.2L283.5,129.1L282.3,130.0L279.8,151.9Z"/>
    <path class="wtc-county" id="wtc-county-ashe" data-county="Ashe" d="M201.9,50.0L200.0,53.0L200.9,56.9L199.6,57.5L198.8,61.3L204.2,63.7L208.3,68.2L209.1,67.9L213.2,70.0L216.9,67.6L219.6,67.5L219.6,63.2L222.3,62.3L224.6,63.4L226.2,62.7L226.6,61.8L225.2,58.1L223.7,57.1L220.4,52.4L220.4,50.8L201.9,50.0Z"/>
    <path class="wtc-county" id="wtc-county-avery" data-county="Avery" d="M187.3,68.5L181.7,76.3L178.6,77.7L181.1,83.3L179.8,84.5L181.3,87.1L184.4,88.9L186.6,86.1L189.1,83.8L190.8,85.1L194.5,86.0L198.6,79.9L194.3,77.4L193.0,74.1L191.6,72.6L189.9,72.9L188.5,71.4L189.3,68.2L188.1,67.3L187.3,68.5Z"/>
    <path class="wtc-county" id="wtc-county-beaufort" data-county="Beaufort" d="M460.3,99.1L459.1,101.0L460.8,101.9L460.6,104.5L465.5,109.4L463.0,109.4L460.3,111.4L460.3,115.0L459.5,117.2L472.7,123.9L476.4,126.6L479.3,128.8L491.5,127.7L492.7,125.2L492.9,121.8L489.6,121.3L476.6,116.3L472.3,116.1L468.8,113.0L469.0,111.6L473.7,114.0L480.1,115.5L484.3,117.1L487.1,116.6L493.1,119.0L494.6,119.0L493.3,114.7L491.5,111.9L493.3,110.3L495.8,110.8L500.1,110.3L500.9,109.3L498.9,107.8L496.8,107.7L493.3,104.7L493.3,102.7L491.3,100.7L479.3,100.7L479.1,99.9L471.3,103.4L461.0,98.7L460.3,99.1Z"/>
    <path class="wtc-county" id="wtc-county-bertie" data-county="Bertie" d="M451.7,79.7L452.3,80.7L458.1,83.0L459.5,85.2L458.9,87.0L464.9,87.9L467.8,87.0L469.0,90.0L468.0,91.8L470.2,91.8L473.7,89.6L476.4,91.8L476.0,94.0L477.9,94.3L480.1,92.2L479.9,90.5L484.3,91.5L488.2,86.9L488.6,83.7L486.3,79.9L484.7,75.3L485.1,71.6L486.5,69.8L472.1,70.1L458.5,69.6L457.3,71.3L453.3,71.9L453.8,74.1L455.2,74.6L456.0,77.2L457.3,77.7L452.5,78.7L451.7,79.7Z"/>
    <path class="wtc-county" id="wtc-county-bladen" data-county="Bladen" d="M361.2,150.6L363.9,156.3L366.8,159.0L364.5,165.4L363.5,166.3L364.3,169.9L363.1,170.8L365.5,172.1L374.6,171.6L387.4,176.9L393.8,177.5L398.3,175.7L402.8,171.9L398.3,169.4L397.3,167.7L398.3,166.8L397.7,165.1L395.4,164.0L395.0,161.7L393.2,159.0L390.5,156.7L387.2,151.9L384.5,149.4L382.4,149.7L367.2,149.7L361.2,150.6Z"/>
    <path class="wtc-county" id="wtc-county-brunswick" data-county="Brunswick" d="M403.7,178.1L398.3,186.2L391.5,186.8L388.8,190.6L383.5,189.1L382.0,190.1L380.8,193.3L381.2,194.8L379.8,196.4L376.3,198.0L377.1,199.7L375.6,201.8L382.0,207.2L383.7,206.3L390.9,204.2L397.1,203.7L402.8,203.6L407.6,204.0L411.9,205.0L412.5,206.7L415.2,207.1L416.7,202.7L416.0,200.3L416.9,197.0L416.7,191.6L415.6,189.8L415.4,185.2L412.1,181.8L411.3,179.6L408.4,179.1L405.1,177.3L403.7,178.1Z"/>
    <path class="wtc-county" id="wtc-county-buncombe" data-county="Buncombe" d="M132.6,102.2L134.7,105.9L136.6,105.1L139.2,108.6L139.2,110.1L137.4,114.1L138.4,116.0L140.5,116.9L144.6,114.8L147.7,116.2L157.2,115.4L159.4,113.9L162.1,114.5L164.2,112.4L168.1,114.3L170.4,112.6L170.0,111.4L173.7,110.9L168.9,109.0L166.7,107.2L168.1,106.0L166.4,101.9L167.5,100.8L167.1,99.5L164.2,98.1L162.5,94.0L159.9,94.2L153.9,95.1L145.2,98.8L142.5,99.1L137.0,101.8L134.5,100.9L132.6,102.2Z"/>
    <path class="wtc-county" id="wtc-county-burke" data-county="Burke" d="M186.6,86.1L188.7,90.4L187.7,92.8L184.2,94.8L190.8,99.9L193.4,108.2L197.6,105.9L201.1,107.9L203.5,108.9L209.9,108.8L209.9,108.6L211.6,106.3L215.9,102.3L219.8,97.1L217.8,97.7L215.3,96.2L208.9,96.6L206.2,93.8L200.0,90.9L196.1,86.8L194.5,86.0L190.8,85.1L189.1,83.8L186.6,86.1Z"/>
    <path class="wtc-county" id="wtc-county-cabarrus" data-county="Cabarrus" d="M253.2,112.2L255.1,117.4L254.2,118.1L258.4,121.3L259.8,125.8L266.6,129.2L269.1,130.6L281.2,112.3L255.9,112.2L253.2,112.2Z"/>
    <path class="wtc-county" id="wtc-county-caldwell" data-county="Caldwell" d="M194.3,77.4L198.6,79.9L194.5,86.0L196.1,86.8L200.0,90.9L206.2,93.8L208.9,96.6L215.3,96.2L217.8,97.7L219.8,97.1L221.5,95.5L221.7,90.7L221.1,88.2L221.9,84.0L221.1,82.4L218.0,79.9L215.3,79.6L214.5,78.5L211.6,78.2L209.3,77.0L201.9,76.7L194.3,77.4Z"/>
    <path class="wtc-county" id="wtc-county-camden" data-county="Camden" d="M499.7,52.2L496.8,52.2L499.7,54.4L502.8,56.9L509.2,59.8L511.0,61.6L514.1,62.4L515.6,65.0L517.4,65.2L515.4,66.6L517.2,67.0L520.3,67.3L526.9,73.1L533.3,74.3L530.4,72.4L530.2,69.1L530.8,67.4L528.2,66.0L526.9,64.0L524.9,63.1L521.4,63.2L518.9,60.9L518.7,59.4L509.8,52.2L499.7,52.2Z"/>
    <path class="wtc-county" id="wtc-county-carteret" data-county="Carteret" d="M465.9,152.0L461.0,153.5L463.2,155.2L464.9,160.0L464.3,161.8L468.6,160.6L481.0,158.8L489.0,158.8L496.2,161.5L497.0,164.8L497.7,163.3L502.0,157.6L505.7,153.5L510.0,149.7L514.6,146.6L519.9,141.9L525.7,137.8L524.0,136.8L514.3,145.4L509.4,149.1L502.6,155.1L497.9,161.1L489.2,158.0L492.5,157.6L492.3,153.6L494.4,154.5L494.1,158.5L497.7,159.5L499.1,156.0L502.0,151.8L504.2,150.8L504.2,149.1L508.0,148.5L511.5,144.8L511.0,140.6L506.9,139.2L508.8,142.9L505.1,142.6L503.4,141.1L502.8,137.9L500.5,137.2L499.7,140.2L494.1,141.7L491.5,141.8L488.6,143.3L490.4,144.8L488.0,148.7L484.3,150.0L477.0,150.1L472.9,151.3L473.1,152.2L465.9,152.0Z"/>
    <path class="wtc-county" id="wtc-county-caswell" data-county="Caswell" d="M326.2,52.7L325.1,69.4L340.8,69.8L346.8,69.9L347.6,52.7L343.1,52.7L335.9,52.7L328.6,52.7L326.2,52.7Z"/>
    <path class="wtc-county" id="wtc-county-catawba" data-county="Catawba" d="M219.8,97.1L215.9,102.3L211.6,106.3L209.9,108.6L243.1,109.8L245.0,105.4L240.4,100.4L237.1,100.4L236.9,98.8L234.5,96.6L232.6,93.7L221.5,95.5L219.8,97.1Z"/>
    <path class="wtc-county" id="wtc-county-chatham" data-county="Chatham" d="M324.5,92.8L323.7,111.6L335.4,111.5L339.2,109.3L339.8,110.7L341.6,108.5L344.1,109.1L347.0,105.6L348.8,105.1L352.6,107.0L354.6,109.9L357.3,111.2L360.4,107.7L355.9,106.1L361.0,91.3L354.6,91.6L350.9,91.8L341.2,90.8L342.0,92.7L324.5,92.8Z"/>
    <path class="wtc-county" id="wtc-county-cherokee" data-county="Cherokee" d="M51.6,129.3L50.0,141.8L61.1,141.9L68.1,141.9L71.0,139.7L70.4,138.6L73.7,136.7L77.6,132.9L79.1,133.2L83.6,132.2L84.0,129.7L85.9,128.2L85.4,126.9L81.5,127.1L78.2,126.5L71.6,128.6L68.3,127.8L66.9,124.4L62.8,127.0L57.0,127.2L56.4,125.9L51.9,128.3L51.6,129.3Z"/>
    <path class="wtc-county" id="wtc-county-chowan" data-county="Chowan" d="M488.2,67.9L489.0,68.4L486.5,72.3L486.5,75.3L489.0,81.3L493.1,81.9L494.8,83.4L498.3,83.4L501.6,82.4L504.2,79.4L499.7,78.9L495.0,77.6L493.9,70.1L495.0,69.0L495.8,63.6L492.7,65.2L491.1,64.9L487.8,66.8L488.2,67.9Z"/>
    <path class="wtc-county" id="wtc-county-clay" data-county="Clay" d="M83.6,132.2L79.1,133.2L77.6,132.9L73.7,136.7L70.4,138.6L71.0,139.7L68.1,141.9L72.1,141.9L90.4,141.9L94.3,141.6L98.2,141.6L95.5,140.7L92.3,135.9L89.4,134.2L87.9,132.0L83.6,132.2Z"/>
    <path class="wtc-county" id="wtc-county-cleveland" data-county="Cleveland" d="M201.1,107.9L200.5,120.7L197.2,128.4L196.5,130.8L219.6,131.7L221.9,131.8L222.3,126.3L220.4,125.3L220.2,122.2L217.8,120.9L214.7,117.1L209.9,108.8L203.5,108.9L201.1,107.9Z"/>
    <path class="wtc-county" id="wtc-county-columbus" data-county="Columbus" d="M351.5,181.4L375.6,201.8L377.1,199.7L376.3,198.0L379.8,196.4L381.2,194.8L380.8,193.3L382.0,190.1L383.5,189.1L388.8,190.6L391.5,186.8L398.3,186.2L403.7,178.1L401.4,178.3L398.3,175.7L393.8,177.5L387.4,176.9L374.6,171.6L365.5,172.1L363.1,170.8L357.3,174.1L357.3,175.8L355.0,176.7L353.0,180.8L351.5,181.4Z"/>
    <path class="wtc-county" id="wtc-county-craven" data-county="Craven" d="M448.0,121.7L445.7,122.3L444.7,123.8L445.7,126.8L443.2,128.0L451.5,132.6L459.7,136.5L460.1,138.0L463.8,137.0L464.5,140.2L464.3,150.9L467.8,150.6L465.9,152.0L473.1,152.2L472.9,151.3L477.0,150.1L484.3,150.0L488.0,148.7L490.4,144.8L488.6,143.3L484.0,145.7L476.6,143.6L471.7,140.9L471.1,138.6L472.7,138.4L474.2,137.7L474.4,134.4L471.1,132.3L472.5,129.8L476.4,126.6L472.7,123.9L459.5,117.2L457.5,118.2L455.4,121.0L453.5,119.4L450.2,122.3L448.0,121.7Z"/>
    <path class="wtc-county" id="wtc-county-cumberland" data-county="Cumberland" d="M349.9,131.2L349.1,134.0L350.5,138.8L353.6,143.3L353.4,143.9L358.1,146.2L361.2,150.6L367.2,149.7L382.4,149.7L384.5,149.4L380.2,144.8L375.8,141.7L375.0,136.7L376.9,131.3L377.5,127.1L371.3,125.9L365.5,126.3L362.4,127.9L355.6,128.9L350.1,130.2L349.9,131.2Z"/>
    <path class="wtc-county" id="wtc-county-currituck" data-county="Currituck" d="M509.8,52.2L518.7,59.4L518.9,60.9L521.4,63.2L524.9,63.1L526.9,64.0L528.2,66.0L530.8,67.4L530.2,69.1L532.3,69.7L532.9,71.6L535.6,74.6L535.4,76.4L539.3,79.6L539.3,77.3L537.0,73.6L537.2,72.3L535.4,69.3L532.3,62.6L532.3,59.3L530.0,59.8L526.7,57.4L525.5,54.4L528.2,53.5L528.4,55.4L533.5,56.1L534.3,58.4L536.4,59.9L537.4,64.3L536.8,66.2L538.5,67.4L539.7,70.7L540.9,70.5L539.5,67.1L536.0,55.0L535.6,52.2L520.7,52.2L509.8,52.2Z"/>
    <path class="wtc-county" id="wtc-county-dare" data-county="Dare" d="M543.6,87.4L547.3,91.7L546.9,93.9L550.0,94.3L549.8,92.0L547.3,88.4L543.6,87.4ZM542.0,129.7L542.2,130.6L550.2,128.1L555.2,127.7L558.2,113.6L558.9,106.9L557.8,102.2L555.6,97.0L554.9,96.9L556.2,102.1L557.8,106.8L557.8,109.4L555.6,121.9L554.5,125.5L551.9,126.0L548.6,127.7L546.1,127.8L542.0,129.7ZM539.7,70.7L541.8,75.0L543.6,83.6L546.3,84.1L549.2,88.1L552.9,95.3L554.7,96.0L547.5,82.6L542.8,74.9L540.9,70.5L539.7,70.7ZM535.4,107.7L537.2,108.4L540.7,107.9L543.4,105.2L542.6,102.6L544.2,101.4L542.8,96.5L543.6,94.0L542.2,90.7L538.9,86.1L533.7,85.1L530.8,86.1L532.1,87.7L529.2,89.7L528.6,97.1L527.1,102.8L533.5,102.8L535.4,107.7Z"/>
    <path class="wtc-county" id="wtc-county-davidson" data-county="Davidson" d="M275.5,85.3L276.5,86.0L276.9,90.4L274.2,90.6L276.1,92.1L273.8,92.3L273.4,93.6L270.1,93.4L272.4,97.2L271.8,98.5L276.7,100.0L279.0,99.8L279.2,102.2L286.2,107.9L287.6,112.3L294.2,112.2L295.5,88.3L295.7,83.1L289.5,82.2L286.0,82.2L285.8,83.9L279.2,84.0L275.5,85.3Z"/>
    <path class="wtc-county" id="wtc-county-davie" data-county="Davie" d="M257.5,92.2L261.9,92.6L268.9,96.7L271.1,97.1L271.8,98.5L272.4,97.2L270.1,93.4L273.4,93.6L273.8,92.3L276.1,92.1L274.2,90.6L276.9,90.4L276.5,86.0L275.5,85.3L274.2,82.9L271.6,80.2L269.7,81.1L258.4,80.8L257.5,92.2Z"/>
    <path class="wtc-county" id="wtc-county-duplin" data-county="Duplin" d="M403.7,130.3L403.1,135.8L403.9,136.6L404.5,146.8L401.6,156.0L405.3,157.8L406.6,157.2L412.3,156.5L413.6,157.5L431.3,157.2L431.5,153.5L433.1,145.6L431.7,142.7L428.4,140.7L427.6,139.9L427.4,134.9L426.3,132.8L422.4,131.0L419.1,132.8L417.1,131.2L414.6,131.6L414.0,130.7L410.5,130.2L408.6,131.1L403.7,130.3Z"/>
    <path class="wtc-county" id="wtc-county-durham" data-county="Durham" d="M358.3,70.0L356.7,80.5L354.6,91.6L361.0,91.3L365.3,91.4L366.8,87.9L369.2,88.4L371.9,86.0L372.8,83.1L370.5,82.4L369.9,79.7L366.8,78.5L367.0,70.2L358.3,70.0Z"/>
    <path class="wtc-county" id="wtc-county-edgecombe" data-county="Edgecombe" d="M430.3,75.0L429.8,77.1L426.1,83.2L422.8,91.4L427.4,93.7L429.2,99.3L432.3,102.4L440.8,97.5L443.2,95.2L445.9,94.9L448.0,93.4L450.2,94.1L450.7,89.2L447.4,83.5L443.2,81.6L439.9,81.5L439.3,78.3L434.2,77.1L433.3,75.8L430.3,75.0Z"/>
    <path class="wtc-county" id="wtc-county-forsyth" data-county="Forsyth" d="M272.2,69.9L273.0,75.8L268.5,78.4L269.7,81.1L271.6,80.2L274.2,82.9L275.5,85.3L279.2,84.0L285.8,83.9L286.0,82.2L289.5,82.2L295.7,83.1L296.1,69.0L272.2,68.7L272.2,69.9Z"/>
    <path class="wtc-county" id="wtc-county-franklin" data-county="Franklin" d="M384.5,73.7L381.8,79.2L381.6,82.5L388.4,85.2L390.3,87.4L392.7,87.7L392.7,88.9L395.4,89.7L398.3,94.2L412.5,72.1L410.5,71.4L407.2,71.8L405.3,69.6L403.1,69.1L395.4,68.5L393.6,70.3L391.3,70.3L388.8,74.3L384.5,73.7Z"/>
    <path class="wtc-county" id="wtc-county-gaston" data-county="Gaston" d="M214.7,117.1L217.8,120.9L220.2,122.2L220.4,125.3L222.3,126.3L221.9,131.8L238.4,132.6L240.2,132.3L239.8,125.7L241.7,121.7L245.2,120.5L241.5,119.4L243.3,118.2L214.7,117.1Z"/>
    <path class="wtc-county" id="wtc-county-gates" data-county="Gates" d="M475.2,52.6L476.0,53.8L473.3,56.8L474.2,60.7L480.8,62.9L484.0,63.5L487.8,66.8L491.1,64.9L492.7,65.2L495.8,63.6L501.8,62.1L499.7,56.9L499.7,54.4L496.8,52.2L475.2,52.1L475.2,52.6Z"/>
    <path class="wtc-county" id="wtc-county-graham" data-county="Graham" d="M70.8,114.6L67.3,117.7L68.1,119.8L66.3,121.1L66.9,124.4L68.3,127.8L71.6,128.6L78.2,126.5L81.5,127.1L85.4,126.9L86.9,125.1L86.7,122.6L90.2,121.4L91.8,119.6L92.3,116.2L90.8,116.7L83.8,115.5L79.7,115.7L73.5,114.5L71.2,114.7L70.8,114.6Z"/>
    <path class="wtc-county" id="wtc-county-granville" data-county="Granville" d="M367.0,70.2L366.8,78.5L369.9,79.7L373.8,79.5L381.6,82.5L381.8,79.2L384.5,73.7L383.9,73.3L383.7,57.6L384.5,54.2L386.8,52.6L370.9,52.7L367.2,52.7L367.4,53.6L367.0,70.2Z"/>
    <path class="wtc-county" id="wtc-county-greene" data-county="Greene" d="M423.2,107.6L423.0,116.8L424.3,118.0L424.1,120.0L430.5,119.6L431.5,121.2L436.6,119.7L443.0,116.7L441.0,112.6L441.6,111.5L438.3,110.6L435.4,108.6L430.3,103.7L424.1,107.7L423.2,107.6Z"/>
    <path class="wtc-county" id="wtc-county-guilford" data-county="Guilford" d="M295.7,83.1L295.5,88.3L324.5,89.5L324.9,69.9L296.1,69.0L295.7,83.1Z"/>
    <path class="wtc-county" id="wtc-county-halifax" data-county="Halifax" d="M412.5,72.1L414.4,73.7L414.8,72.6L417.7,73.3L419.5,75.5L424.1,75.8L427.4,74.8L430.3,75.0L433.3,75.8L434.2,77.1L439.3,78.3L439.9,81.5L443.2,81.6L447.4,83.5L451.7,79.7L452.5,78.7L457.3,77.7L456.0,77.2L455.2,74.6L453.8,74.1L448.2,71.5L448.6,69.4L446.9,68.6L445.1,65.1L439.3,66.4L437.7,65.7L437.1,63.7L438.9,62.3L438.5,59.8L434.2,57.9L433.3,56.2L425.9,56.1L423.5,55.0L418.7,54.8L418.1,61.8L416.2,66.6L412.5,72.1Z"/>
    <path class="wtc-county" id="wtc-county-harnett" data-county="Harnett" d="M345.1,123.5L342.9,125.8L346.2,127.3L346.8,128.9L350.1,130.2L355.6,128.9L362.4,127.9L365.5,126.3L371.3,125.9L377.5,127.1L379.6,124.1L382.0,123.0L382.6,122.0L375.0,112.7L372.3,111.4L360.4,107.7L357.3,111.2L345.1,123.5Z"/>
    <path class="wtc-county" id="wtc-county-haywood" data-county="Haywood" d="M111.2,100.1L111.2,101.2L115.5,102.6L114.3,103.9L115.7,105.1L115.3,106.8L117.0,109.4L115.1,111.7L118.0,113.1L123.4,117.4L123.4,118.6L126.5,120.1L127.9,123.1L130.4,124.4L133.1,123.1L135.5,122.9L138.0,119.3L140.5,116.9L138.4,116.0L137.4,114.1L139.2,110.1L139.2,108.6L136.6,105.1L134.7,105.9L132.6,102.2L131.6,101.8L130.6,98.4L128.9,98.8L128.1,95.7L126.3,96.8L121.3,95.9L117.0,97.3L115.3,99.3L111.2,100.1Z"/>
    <path class="wtc-county" id="wtc-county-henderson" data-county="Henderson" d="M168.1,114.3L164.2,112.4L162.1,114.5L159.4,113.9L157.2,115.4L147.7,116.2L144.6,114.8L140.5,116.9L148.3,124.6L149.3,131.7L150.4,132.9L157.0,130.9L158.4,131.4L160.9,128.8L162.9,130.2L163.4,125.1L168.3,118.6L167.3,115.8L168.1,114.3Z"/>
    <path class="wtc-county" id="wtc-county-hertford" data-county="Hertford" d="M458.5,69.6L472.1,70.1L486.5,69.8L488.2,67.9L487.8,66.8L484.0,63.5L480.8,62.9L474.2,60.7L473.3,56.8L476.0,53.8L475.2,52.6L461.0,52.4L462.0,53.7L465.1,54.0L466.3,56.2L463.4,56.7L462.8,58.9L458.5,69.6Z"/>
    <path class="wtc-county" id="wtc-county-hoke" data-county="Hoke" d="M329.3,138.7L332.8,141.5L335.2,144.4L335.7,150.5L344.5,150.7L353.4,143.9L353.6,143.3L350.5,138.8L349.1,134.0L349.9,131.2L348.4,131.6L345.5,130.1L341.4,129.0L336.3,131.9L329.3,138.7Z"/>
    <path class="wtc-county" id="wtc-county-hyde" data-county="Hyde" d="M542.0,129.7L540.1,130.1L530.4,134.3L528.8,134.3L527.1,137.7L531.0,135.1L542.2,130.6L542.0,129.7ZM491.3,100.7L493.3,102.7L493.3,104.7L496.8,107.7L498.9,107.8L500.9,109.3L500.5,111.8L494.1,112.0L496.8,117.6L499.9,119.8L502.0,119.2L503.0,120.4L508.4,121.3L514.3,121.1L519.7,122.3L520.3,121.1L523.8,119.9L524.4,117.6L527.1,116.9L528.6,113.4L530.0,112.8L530.6,110.7L532.7,110.3L535.4,107.7L533.5,102.8L527.1,102.8L525.3,103.0L522.6,102.7L519.5,100.9L518.1,101.1L517.6,103.6L515.4,106.8L510.8,106.2L512.3,101.5L504.5,101.2L491.3,100.7Z"/>
    <path class="wtc-county" id="wtc-county-iredell" data-county="Iredell" d="M239.0,81.1L240.6,83.9L240.4,86.2L238.4,91.9L234.5,96.6L236.9,98.8L237.1,100.4L240.4,100.4L245.0,105.4L243.1,109.8L243.7,113.0L246.0,111.6L253.2,112.2L255.9,112.2L253.8,102.6L257.5,92.2L258.4,80.8L247.4,80.6L242.1,80.4L239.0,81.1Z"/>
    <path class="wtc-county" id="wtc-county-jackson" data-county="Jackson" d="M115.1,111.7L112.2,111.1L108.1,113.7L105.6,114.3L105.0,116.7L106.3,118.4L106.5,122.2L107.7,126.0L109.8,128.0L113.1,127.5L113.1,132.1L115.1,133.5L117.6,136.7L117.4,138.1L119.7,141.2L125.4,139.6L122.5,138.1L126.9,133.6L126.7,130.4L130.2,127.5L130.4,124.4L127.9,123.1L126.5,120.1L123.4,118.6L123.4,117.4L118.0,113.1L115.1,111.7Z"/>
    <path class="wtc-county" id="wtc-county-johnston" data-county="Johnston" d="M372.3,111.4L375.0,112.7L382.6,122.0L382.0,123.0L384.7,126.1L389.4,126.6L395.4,124.7L396.5,123.1L399.1,122.8L400.6,121.6L404.3,121.0L404.1,117.2L409.2,107.6L405.9,106.6L403.7,101.2L402.0,99.2L398.7,96.7L398.3,94.2L385.9,100.9L372.3,111.4Z"/>
    <path class="wtc-county" id="wtc-county-jones" data-county="Jones" d="M428.4,140.7L431.7,142.7L433.8,142.1L441.6,142.9L449.4,146.4L451.5,144.7L455.0,145.4L457.7,147.7L459.1,152.1L461.0,153.5L465.9,152.0L467.8,150.6L464.3,150.9L464.5,140.2L463.8,137.0L460.1,138.0L459.7,136.5L451.5,132.6L443.2,128.0L440.1,127.2L441.4,131.3L435.8,137.1L428.4,140.7Z"/>
    <path class="wtc-county" id="wtc-county-lee" data-county="Lee" d="M335.4,111.5L336.3,112.6L334.8,114.2L336.7,116.9L339.0,118.2L340.4,121.4L345.1,123.5L357.3,111.2L354.6,109.9L352.6,107.0L348.8,105.1L347.0,105.6L344.1,109.1L341.6,108.5L339.8,110.7L339.2,109.3L335.4,111.5Z"/>
    <path class="wtc-county" id="wtc-county-lenoir" data-county="Lenoir" d="M424.1,120.0L423.0,121.4L422.4,131.0L426.3,132.8L427.4,134.9L427.6,139.9L428.4,140.7L435.8,137.1L441.4,131.3L440.1,127.2L443.2,128.0L445.7,126.8L444.7,123.8L445.7,122.3L448.0,121.7L445.9,121.1L443.0,116.7L436.6,119.7L431.5,121.2L430.5,119.6L424.1,120.0Z"/>
    <path class="wtc-county" id="wtc-county-lincoln" data-county="Lincoln" d="M209.9,108.6L209.9,108.8L214.7,117.1L243.3,118.2L244.1,115.1L243.7,113.0L243.1,109.8L209.9,108.6Z"/>
    <path class="wtc-county" id="wtc-county-mcdowell" data-county="McDowell" d="M167.5,100.8L166.4,101.9L168.1,106.0L166.7,107.2L168.9,109.0L173.7,110.9L174.7,111.5L181.1,110.6L183.1,109.5L185.2,111.0L188.7,110.1L192.4,110.0L193.4,108.2L190.8,99.9L184.2,94.8L187.7,92.8L188.7,90.4L186.6,86.1L184.4,88.9L184.4,90.4L182.5,90.4L180.5,92.2L177.6,92.3L175.7,93.9L172.2,99.0L167.5,100.8Z"/>
    <path class="wtc-county" id="wtc-county-macon" data-county="Macon" d="M85.4,126.9L85.9,128.2L84.0,129.7L83.6,132.2L87.9,132.0L89.4,134.2L92.3,135.9L95.5,140.7L98.2,141.6L119.7,141.2L117.4,138.1L117.6,136.7L115.1,133.5L113.1,132.1L113.1,127.5L109.8,128.0L107.7,126.0L106.5,122.2L101.1,122.5L99.1,124.1L97.4,124.0L86.9,125.1L85.4,126.9Z"/>
    <path class="wtc-county" id="wtc-county-madison" data-county="Madison" d="M131.8,86.9L131.0,88.0L131.6,91.1L128.9,93.9L128.1,95.7L128.9,98.8L130.6,98.4L131.6,101.8L132.6,102.2L134.5,100.9L137.0,101.8L142.5,99.1L145.2,98.8L153.9,95.1L159.9,94.2L159.4,91.8L157.2,89.5L154.9,89.0L155.7,86.7L154.3,85.1L151.2,86.4L148.1,85.4L148.7,81.5L147.1,80.0L140.3,83.4L136.2,88.3L134.5,86.7L131.8,86.9Z"/>
    <path class="wtc-county" id="wtc-county-martin" data-county="Martin" d="M447.4,83.5L450.7,89.2L450.2,94.1L455.8,96.0L455.6,97.3L457.9,97.6L460.3,99.1L461.0,98.7L471.3,103.4L479.1,99.9L481.0,98.2L481.8,95.0L484.3,91.5L479.9,90.5L480.1,92.2L477.9,94.3L476.0,94.0L476.4,91.8L473.7,89.6L470.2,91.8L468.0,91.8L469.0,90.0L467.8,87.0L464.9,87.9L458.9,87.0L459.5,85.2L458.1,83.0L452.3,80.7L451.7,79.7L447.4,83.5Z"/>
    <path class="wtc-county" id="wtc-county-mecklenburg" data-county="Mecklenburg" d="M238.4,132.6L238.8,135.2L237.3,137.6L238.4,138.6L244.6,135.0L246.2,136.8L249.9,141.1L254.0,139.1L266.6,129.2L259.8,125.8L258.4,121.3L254.2,118.1L255.1,117.4L253.2,112.2L246.0,111.6L243.7,113.0L244.1,115.1L243.3,118.2L241.5,119.4L245.2,120.5L241.7,121.7L239.8,125.7L240.2,132.3L238.4,132.6Z"/>
    <path class="wtc-county" id="wtc-county-mitchell" data-county="Mitchell" d="M170.6,74.8L169.1,76.2L166.7,76.0L163.1,77.0L159.4,79.6L163.1,78.9L164.0,82.1L166.0,81.2L167.7,83.6L172.0,82.9L172.0,86.5L175.1,89.0L175.7,93.9L177.6,92.3L180.5,92.2L182.5,90.4L184.4,90.4L184.4,88.9L181.3,87.1L179.8,84.5L181.1,83.3L178.6,77.7L175.7,77.7L174.9,75.2L170.6,74.8Z"/>
    <path class="wtc-county" id="wtc-county-montgomery" data-county="Montgomery" d="M287.6,112.3L288.9,113.9L292.0,114.8L292.8,118.1L295.3,119.8L293.4,122.7L292.6,126.6L295.1,131.3L293.8,133.0L296.9,133.3L299.2,132.1L303.9,131.9L306.8,130.7L312.6,131.2L316.9,131.1L320.4,131.8L317.9,130.3L316.9,127.1L315.0,126.1L314.8,123.9L311.7,113.9L311.5,111.8L294.2,112.2L287.6,112.3Z"/>
    <path class="wtc-county" id="wtc-county-moore" data-county="Moore" d="M311.5,111.8L311.7,113.9L314.8,123.9L315.0,126.1L316.9,127.1L317.9,130.3L320.4,131.8L322.7,134.2L322.5,137.2L326.8,137.5L329.3,138.7L336.3,131.9L341.4,129.0L345.5,130.1L348.4,131.6L349.9,131.2L350.1,130.2L346.8,128.9L346.2,127.3L342.9,125.8L345.1,123.5L340.4,121.4L339.0,118.2L336.7,116.9L334.8,114.2L336.3,112.6L335.4,111.5L323.7,111.6L311.5,111.8Z"/>
    <path class="wtc-county" id="wtc-county-nash" data-county="Nash" d="M398.3,94.2L398.7,96.7L402.0,99.2L416.9,93.5L420.2,92.4L422.0,93.1L422.8,91.4L426.1,83.2L429.8,77.1L430.3,75.0L427.4,74.8L424.1,75.8L419.5,75.5L417.7,73.3L414.8,72.6L414.4,73.7L412.5,72.1L398.3,94.2Z"/>
    <path class="wtc-county" id="wtc-county-new-hanover" data-county="New Hanover" d="M411.3,179.6L412.1,181.8L415.4,185.2L415.6,189.8L416.7,191.6L416.9,197.0L416.0,200.3L416.7,202.7L420.0,194.7L422.8,189.3L426.5,184.6L429.6,181.6L428.0,181.8L423.9,178.1L423.2,176.3L417.1,177.9L415.2,176.6L413.8,177.3L413.4,179.3L411.3,179.6Z"/>
    <path class="wtc-county" id="wtc-county-northampton" data-county="Northampton" d="M418.7,52.5L418.7,54.8L423.5,55.0L425.9,56.1L433.3,56.2L434.2,57.9L438.5,59.8L438.9,62.3L437.1,63.7L437.7,65.7L439.3,66.4L445.1,65.1L446.9,68.6L448.6,69.4L448.2,71.5L453.8,74.1L453.3,71.9L457.3,71.3L458.5,69.6L462.8,58.9L463.4,56.7L466.3,56.2L465.1,54.0L462.0,53.7L461.0,52.4L453.3,52.5L426.3,52.5L418.7,52.5Z"/>
    <path class="wtc-county" id="wtc-county-onslow" data-county="Onslow" d="M431.7,142.7L433.1,145.6L431.5,153.5L431.3,157.2L435.2,165.4L437.3,171.2L440.8,173.3L443.9,171.5L451.9,167.8L460.3,163.1L464.3,161.8L464.9,160.0L463.2,155.2L461.0,153.5L459.1,152.1L457.7,147.7L455.0,145.4L451.5,144.7L449.4,146.4L441.6,142.9L433.8,142.1L431.7,142.7Z"/>
    <path class="wtc-county" id="wtc-county-orange" data-county="Orange" d="M340.8,69.8L340.4,88.7L341.2,90.8L350.9,91.8L354.6,91.6L356.7,80.5L358.3,70.0L346.8,69.9L340.8,69.8Z"/>
    <path class="wtc-county" id="wtc-county-pamlico" data-county="Pamlico" d="M476.4,126.6L472.5,129.8L471.1,132.3L474.4,134.4L474.2,137.7L472.7,138.4L481.8,143.2L492.1,137.7L495.2,135.6L497.0,133.0L496.8,131.6L499.5,129.0L500.9,126.2L500.7,124.2L499.1,122.7L492.9,121.8L492.7,125.2L491.5,127.7L479.3,128.8L476.4,126.6Z"/>
    <path class="wtc-county" id="wtc-county-pasquotank" data-county="Pasquotank" d="M499.7,54.4L499.7,56.9L501.8,62.1L506.3,68.9L509.6,70.0L512.1,72.9L513.3,73.2L517.6,76.7L522.6,76.0L524.4,74.9L523.2,72.3L521.1,71.5L519.3,68.6L517.2,67.0L515.4,66.6L517.4,65.2L515.6,65.0L514.1,62.4L511.0,61.6L509.2,59.8L502.8,56.9L499.7,54.4Z"/>
    <path class="wtc-county" id="wtc-county-pender" data-county="Pender" d="M398.3,166.8L397.3,167.7L398.3,169.4L402.8,171.9L398.3,175.7L401.4,178.3L403.7,178.1L405.1,177.3L408.4,179.1L411.3,179.6L413.4,179.3L413.8,177.3L415.2,176.6L417.1,177.9L423.2,176.3L423.9,178.1L428.0,181.8L429.6,181.6L437.1,175.6L440.8,173.3L437.3,171.2L435.2,165.4L431.3,157.2L413.6,157.5L412.3,156.5L406.6,157.2L404.1,159.6L398.3,166.8Z"/>
    <path class="wtc-county" id="wtc-county-perquimans" data-county="Perquimans" d="M495.8,63.6L495.0,69.0L493.9,70.1L495.0,77.6L499.7,78.9L504.2,79.4L509.2,78.9L510.6,78.0L506.3,76.8L501.6,73.2L505.3,74.4L506.3,75.8L509.0,76.1L515.4,78.3L516.8,77.6L514.8,76.3L512.1,72.9L509.6,70.0L506.3,68.9L501.8,62.1L495.8,63.6Z"/>
    <path class="wtc-county" id="wtc-county-person" data-county="Person" d="M347.6,52.7L346.8,69.9L358.3,70.0L367.0,70.2L367.4,53.6L367.2,52.7L347.6,52.7Z"/>
    <path class="wtc-county" id="wtc-county-pitt" data-county="Pitt" d="M430.3,103.7L435.4,108.6L438.3,110.6L441.6,111.5L441.0,112.6L443.0,116.7L445.9,121.1L448.0,121.7L450.2,122.3L453.5,119.4L455.4,121.0L457.5,118.2L459.5,117.2L460.3,115.0L460.3,111.4L463.0,109.4L465.5,109.4L460.6,104.5L460.8,101.9L459.1,101.0L460.3,99.1L457.9,97.6L455.6,97.3L455.8,96.0L450.2,94.1L448.0,93.4L445.9,94.9L443.2,95.2L440.8,97.5L432.3,102.4L430.3,103.7Z"/>
    <path class="wtc-county" id="wtc-county-polk" data-county="Polk" d="M168.3,118.6L163.4,125.1L162.9,130.2L171.0,129.9L185.0,130.5L185.2,126.4L183.6,125.7L180.0,121.8L175.9,118.4L168.3,118.6Z"/>
    <path class="wtc-county" id="wtc-county-randolph" data-county="Randolph" d="M295.5,88.3L294.2,112.2L311.5,111.8L323.7,111.6L324.5,92.8L324.5,89.5L295.5,88.3Z"/>
    <path class="wtc-county" id="wtc-county-richmond" data-county="Richmond" d="M293.8,133.0L294.2,134.8L298.6,136.3L301.2,134.4L302.5,134.5L303.3,137.4L305.2,139.2L303.9,141.0L305.8,142.2L305.6,143.9L306.8,146.8L303.7,149.5L302.3,152.3L315.9,152.4L319.8,151.1L319.6,149.7L323.3,146.3L322.1,143.8L322.7,141.7L329.3,138.7L326.8,137.5L322.5,137.2L322.7,134.2L320.4,131.8L316.9,131.1L312.6,131.2L306.8,130.7L303.9,131.9L299.2,132.1L296.9,133.3L293.8,133.0Z"/>
    <path class="wtc-county" id="wtc-county-robeson" data-county="Robeson" d="M329.1,162.4L329.7,163.0L335.0,167.3L341.4,173.0L351.5,181.4L353.0,180.8L355.0,176.7L357.3,175.8L357.3,174.1L363.1,170.8L364.3,169.9L363.5,166.3L364.5,165.4L366.8,159.0L363.9,156.3L361.2,150.6L358.1,146.2L353.4,143.9L344.5,150.7L335.7,150.5L335.0,151.5L336.3,154.6L329.1,162.4Z"/>
    <path class="wtc-county" id="wtc-county-rockingham" data-county="Rockingham" d="M296.5,52.6L296.1,69.0L324.9,69.9L325.1,69.4L326.2,52.7L314.6,52.7L296.5,52.6Z"/>
    <path class="wtc-county" id="wtc-county-rowan" data-county="Rowan" d="M257.5,92.2L253.8,102.6L255.9,112.2L281.2,112.3L287.6,112.3L286.2,107.9L279.2,102.2L279.0,99.8L276.7,100.0L271.8,98.5L271.1,97.1L268.9,96.7L261.9,92.6L257.5,92.2Z"/>
    <path class="wtc-county" id="wtc-county-rutherford" data-county="Rutherford" d="M168.1,114.3L167.3,115.8L168.3,118.6L175.9,118.4L180.0,121.8L183.6,125.7L185.2,126.4L185.0,130.5L190.6,130.6L196.5,130.8L197.2,128.4L200.5,120.7L201.1,107.9L197.6,105.9L193.4,108.2L192.4,110.0L188.7,110.1L185.2,111.0L183.1,109.5L181.1,110.6L174.7,111.5L173.7,110.9L170.0,111.4L170.4,112.6L168.1,114.3Z"/>
    <path class="wtc-county" id="wtc-county-sampson" data-county="Sampson" d="M377.5,127.1L376.9,131.3L375.0,136.7L375.8,141.7L380.2,144.8L384.5,149.4L387.2,151.9L390.5,156.7L393.2,159.0L395.0,161.7L395.4,164.0L397.7,165.1L398.3,166.8L404.1,159.6L406.6,157.2L405.3,157.8L401.6,156.0L404.5,146.8L403.9,136.6L403.1,135.8L403.7,130.3L403.7,129.5L398.9,128.2L395.4,124.7L389.4,126.6L384.7,126.1L382.0,123.0L379.6,124.1L377.5,127.1Z"/>
    <path class="wtc-county" id="wtc-county-scotland" data-county="Scotland" d="M315.9,152.4L316.9,152.4L329.1,162.4L336.3,154.6L335.0,151.5L335.7,150.5L335.2,144.4L332.8,141.5L329.3,138.7L322.7,141.7L322.1,143.8L323.3,146.3L319.6,149.7L319.8,151.1L315.9,152.4Z"/>
    <path class="wtc-county" id="wtc-county-stanly" data-county="Stanly" d="M281.2,112.3L269.1,130.6L271.4,131.6L277.7,131.7L282.3,130.0L283.5,129.1L285.2,132.2L288.3,132.7L291.8,130.1L293.8,133.0L295.1,131.3L292.6,126.6L293.4,122.7L295.3,119.8L292.8,118.1L292.0,114.8L288.9,113.9L287.6,112.3L281.2,112.3Z"/>
    <path class="wtc-county" id="wtc-county-stokes" data-county="Stokes" d="M272.8,52.2L272.2,68.7L296.1,69.0L296.5,52.6L295.1,52.6L281.2,52.5L272.8,52.2Z"/>
    <path class="wtc-county" id="wtc-county-surry" data-county="Surry" d="M246.4,51.5L245.0,55.0L242.3,57.7L243.7,59.7L242.7,60.7L248.3,65.0L248.1,70.2L255.1,68.6L258.8,68.4L260.6,69.3L262.3,67.3L264.1,68.3L266.6,67.4L267.4,68.8L271.4,68.8L272.2,69.9L272.2,68.7L272.8,52.2L263.1,51.7L257.7,51.5L250.1,51.7L246.4,51.5Z"/>
    <path class="wtc-county" id="wtc-county-swain" data-county="Swain" d="M87.9,108.5L81.5,108.9L78.4,111.1L75.1,111.5L73.5,113.9L71.2,114.7L73.5,114.5L79.7,115.7L83.8,115.5L90.8,116.7L92.3,116.2L91.8,119.6L90.2,121.4L86.7,122.6L86.9,125.1L97.4,124.0L99.1,124.1L101.1,122.5L106.5,122.2L106.3,118.4L105.0,116.7L105.6,114.3L108.1,113.7L112.2,111.1L115.1,111.7L117.0,109.4L115.3,106.8L115.7,105.1L114.3,103.9L115.5,102.6L111.2,101.2L107.9,103.6L105.9,103.2L104.8,104.5L100.3,106.1L98.0,108.6L92.5,108.9L91.2,107.9L87.9,108.5Z"/>
    <path class="wtc-county" id="wtc-county-transylvania" data-county="Transylvania" d="M130.4,124.4L130.2,127.5L126.7,130.4L126.9,133.6L122.5,138.1L125.4,139.6L131.8,138.0L138.4,136.3L139.4,137.3L145.6,134.4L150.4,132.9L149.3,131.7L148.3,124.6L140.5,116.9L138.0,119.3L135.5,122.9L133.1,123.1L130.4,124.4Z"/>
    <path class="wtc-county" id="wtc-county-tyrrell" data-county="Tyrrell" d="M506.9,86.9L506.1,88.7L507.5,91.7L504.5,96.0L504.5,101.2L512.3,101.5L510.8,106.2L515.4,106.8L517.6,103.6L518.1,101.1L519.5,100.9L522.6,102.7L525.3,103.0L524.9,94.9L524.2,92.2L527.1,88.3L527.1,86.2L524.2,84.2L517.6,84.1L512.3,85.3L509.6,86.8L506.9,86.9Z"/>
    <path class="wtc-county" id="wtc-county-union" data-county="Union" d="M249.9,141.1L253.2,144.9L252.4,151.5L266.0,151.7L279.8,151.9L282.3,130.0L277.7,131.7L271.4,131.6L269.1,130.6L266.6,129.2L254.0,139.1L249.9,141.1Z"/>
    <path class="wtc-county" id="wtc-county-vance" data-county="Vance" d="M386.8,52.6L384.5,54.2L383.7,57.6L383.9,73.3L384.5,73.7L388.8,74.3L391.3,70.3L393.6,70.3L395.4,68.5L397.1,66.2L394.4,52.6L386.8,52.6Z"/>
    <path class="wtc-county" id="wtc-county-wake" data-county="Wake" d="M361.0,91.3L355.9,106.1L360.4,107.7L372.3,111.4L385.9,100.9L398.3,94.2L395.4,89.7L392.7,88.9L392.7,87.7L390.3,87.4L388.4,85.2L381.6,82.5L373.8,79.5L369.9,79.7L370.5,82.4L372.8,83.1L371.9,86.0L369.2,88.4L366.8,87.9L365.3,91.4L361.0,91.3Z"/>
    <path class="wtc-county" id="wtc-county-warren" data-county="Warren" d="M394.4,52.6L397.1,66.2L395.4,68.5L403.1,69.1L405.3,69.6L407.2,71.8L410.5,71.4L412.5,72.1L416.2,66.6L418.1,61.8L418.7,54.8L418.7,52.5L410.3,52.5L394.4,52.6Z"/>
    <path class="wtc-county" id="wtc-county-washington" data-county="Washington" d="M479.1,99.9L479.3,100.7L491.3,100.7L504.5,101.2L504.5,96.0L507.5,91.7L506.1,88.7L506.9,86.9L505.1,84.7L497.4,87.0L489.2,87.5L488.2,86.9L484.3,91.5L481.8,95.0L481.0,98.2L479.1,99.9Z"/>
    <path class="wtc-county" id="wtc-county-watauga" data-county="Watauga" d="M198.8,61.3L200.2,64.4L196.7,64.4L195.1,63.2L192.8,63.8L188.1,67.3L189.3,68.2L188.5,71.4L189.9,72.9L191.6,72.6L193.0,74.1L194.3,77.4L201.9,76.7L209.3,77.0L212.0,75.6L214.5,72.2L213.2,70.0L209.1,67.9L208.3,68.2L204.2,63.7L198.8,61.3Z"/>
    <path class="wtc-county" id="wtc-county-wayne" data-county="Wayne" d="M409.2,107.6L404.1,117.2L404.3,121.0L400.6,121.6L399.1,122.8L396.5,123.1L395.4,124.7L398.9,128.2L403.7,129.5L403.7,130.3L408.6,131.1L410.5,130.2L414.0,130.7L414.6,131.6L417.1,131.2L419.1,132.8L422.4,131.0L423.0,121.4L424.1,120.0L424.3,118.0L423.0,116.8L423.2,107.6L413.1,107.6L409.6,106.9L409.2,107.6Z"/>
    <path class="wtc-county" id="wtc-county-wilkes" data-county="Wilkes" d="M209.3,77.0L211.6,78.2L214.5,78.5L215.3,79.6L218.0,79.9L221.1,82.4L221.9,84.0L225.6,82.3L229.7,81.6L237.3,82.0L239.0,81.1L242.1,80.4L247.4,80.6L248.1,70.2L248.3,65.0L242.7,60.7L241.9,62.1L239.2,62.3L238.2,60.2L235.3,58.5L232.8,60.1L231.4,58.9L229.9,60.9L226.2,62.7L224.6,63.4L222.3,62.3L219.6,63.2L219.6,67.5L216.9,67.6L213.2,70.0L214.5,72.2L212.0,75.6L209.3,77.0Z"/>
    <path class="wtc-county" id="wtc-county-wilson" data-county="Wilson" d="M422.8,91.4L422.0,93.1L420.2,92.4L416.9,93.5L402.0,99.2L403.7,101.2L405.9,106.6L409.2,107.6L409.6,106.9L413.1,107.6L423.2,107.6L424.1,107.7L430.3,103.7L432.3,102.4L429.2,99.3L427.4,93.7L422.8,91.4Z"/>
    <path class="wtc-county" id="wtc-county-yadkin" data-county="Yadkin" d="M248.1,70.2L247.4,80.6L258.4,80.8L269.7,81.1L268.5,78.4L273.0,75.8L272.2,69.9L271.4,68.8L267.4,68.8L266.6,67.4L264.1,68.3L262.3,67.3L260.6,69.3L258.8,68.4L255.1,68.6L248.1,70.2Z"/>
    <path class="wtc-county" id="wtc-county-yancey" data-county="Yancey" d="M154.3,85.1L155.7,86.7L154.9,89.0L157.2,89.5L159.4,91.8L159.9,94.2L162.5,94.0L164.2,98.1L167.1,99.5L167.5,100.8L172.2,99.0L175.7,93.9L175.1,89.0L172.0,86.5L172.0,82.9L167.7,83.6L166.0,81.2L164.0,82.1L163.1,78.9L159.4,79.6L157.0,83.3L154.3,85.1Z"/>
  </g>
</svg>