<?xml version="1.0" encoding="UTF-8"?>
<svg xmlns="http://www.w3.org/2000/svg" viewBox="0 0 526 600" id="wtc-state-map-NV" role="img" aria-label="nv county map">
  <title>nv Counties</title>
  <g class="wtc-counties">
    <path class="wtc-county" id="wtc-county-churchill" data-county="Churchill" d="M105.9,193.0L105.6,200.1L106.9,200.1L106.9,206.6L109.7,208.1L109.7,215.8L108.5,217.9L110.2,217.6L116.4,212.8L116.4,218.9L115.6,218.9L115.4,227.4L113.6,227.4L113.3,236.6L114.9,236.7L120.0,241.9L124.3,244.0L126.9,247.1L129.7,248.1L134.1,253.3L136.6,254.3L136.6,256.4L139.5,256.4L139.5,259.1L203.0,259.2L209.5,257.8L207.1,254.0L213.3,249.2L213.0,246.5L210.2,239.2L211.5,236.8L215.1,236.8L216.6,234.1L218.7,233.9L217.9,231.0L222.8,228.5L222.5,227.4L230.0,225.4L230.2,221.7L231.8,219.2L230.0,218.4L231.5,216.2L229.5,210.9L230.0,205.4L231.8,201.1L231.2,198.5L226.1,192.9L175.9,192.8L105.9,193.0Z"/>
    <path class="wtc-county" id="wtc-county-clark" data-county="Clark" d="M343.5,418.5L343.5,466.4L347.1,466.5L347.1,481.2L361.2,492.3L378.1,505.5L396.1,519.8L433.8,550.0L435.3,544.2L432.7,542.8L438.1,540.2L438.1,535.8L435.8,524.8L434.3,520.9L431.5,518.0L430.4,514.4L432.0,512.2L432.0,505.9L429.7,503.6L430.4,501.2L428.6,499.3L429.4,496.1L428.1,492.5L429.2,489.1L431.5,487.6L428.9,485.7L425.8,479.7L426.9,477.1L425.1,472.2L431.5,470.3L433.8,468.5L435.1,469.4L438.1,467.8L442.5,467.9L443.0,469.4L449.2,468.3L452.5,468.5L457.1,472.8L456.6,474.5L462.0,477.7L468.1,477.0L474.3,465.8L475.6,464.8L475.8,450.7L475.3,434.0L475.3,418.5L424.5,418.4L424.5,417.7L354.6,417.8L354.6,418.6L343.5,418.5Z"/>
    <path class="wtc-county" id="wtc-county-douglas" data-county="Douglas" d="M50.3,256.3L50.3,259.6L50.5,264.4L57.2,269.2L80.0,284.9L98.5,297.6L98.5,289.5L97.2,289.5L96.9,283.8L92.8,283.5L93.1,278.1L91.8,277.0L91.8,267.6L93.3,265.6L99.7,265.1L99.7,258.4L82.6,258.3L68.2,258.4L67.4,256.3L50.3,256.3Z"/>
    <path class="wtc-county" id="wtc-county-elko" data-county="Elko" d="M263.5,50.2L263.5,121.5L294.3,121.5L324.8,121.5L324.8,145.4L336.1,183.9L347.9,183.9L371.7,183.8L441.2,184.5L475.6,184.6L475.8,176.4L475.8,137.9L476.1,121.5L476.1,50.6L458.9,50.6L436.3,50.6L421.5,50.0L404.8,50.4L385.1,50.4L309.9,50.4L263.5,50.2Z"/>
    <path class="wtc-county" id="wtc-county-esmeralda" data-county="Esmeralda" d="M215.4,302.0L168.2,343.4L162.8,343.2L189.5,362.6L205.4,374.0L252.8,409.3L253.0,380.9L253.0,335.7L215.4,302.0Z"/>
    <path class="wtc-county" id="wtc-county-eureka" data-county="Eureka" d="M294.3,121.5L293.5,125.4L293.8,170.1L293.3,187.7L293.8,236.0L293.3,252.8L342.8,252.8L342.8,231.7L345.6,230.7L347.4,228.1L348.1,223.7L349.4,222.4L348.1,212.4L349.7,209.8L349.4,206.2L350.7,203.4L350.2,199.3L348.1,192.8L348.7,189.2L347.9,183.9L336.1,183.9L324.8,145.4L324.8,121.5L294.3,121.5Z"/>
    <path class="wtc-county" id="wtc-county-humboldt" data-county="Humboldt" d="M98.7,50.6L98.5,79.4L98.7,92.0L100.2,92.0L100.0,104.8L98.2,104.8L98.5,124.4L99.7,124.4L137.2,124.4L137.2,131.9L162.0,131.9L218.7,131.7L218.7,144.1L243.3,144.7L243.3,155.4L247.1,147.1L263.3,147.1L263.5,121.5L263.5,50.2L262.8,50.1L220.2,50.2L179.2,50.4L143.6,50.7L98.7,50.6Z"/>
    <path class="wtc-county" id="wtc-county-lander" data-county="Lander" d="M226.1,192.9L231.2,198.5L231.8,201.1L230.0,205.4L229.5,210.9L231.5,216.2L230.0,218.4L231.8,219.2L230.2,221.7L230.0,225.4L222.5,227.4L222.8,228.5L217.9,231.0L218.7,233.9L216.6,234.1L215.1,236.8L211.5,236.8L210.2,239.2L213.0,246.5L213.3,249.2L207.1,254.0L209.5,257.8L241.0,252.7L293.3,252.8L293.8,236.0L293.3,187.7L293.8,170.1L293.5,125.4L294.3,121.5L263.5,121.5L263.3,147.1L247.1,147.1L243.3,155.4L226.1,192.9Z"/>
    <path class="wtc-county" id="wtc-county-lincoln" data-county="Lincoln" d="M407.6,287.5L407.6,332.2L343.8,332.2L343.8,417.2L343.5,418.5L354.6,418.6L354.6,417.8L424.5,417.7L424.5,418.4L475.3,418.5L475.3,407.2L475.3,364.1L475.6,352.6L475.3,335.9L475.6,325.2L475.3,294.9L475.6,287.5L407.6,287.5Z"/>
    <path class="wtc-county" id="wtc-county-lyon" data-county="Lyon" d="M71.0,246.5L73.1,249.5L75.6,250.5L81.8,250.5L81.0,254.1L82.6,258.3L99.7,258.4L99.7,265.1L93.3,265.6L91.8,267.6L91.8,277.0L93.1,278.1L92.8,283.5L96.9,283.8L97.2,289.5L98.5,289.5L98.5,297.6L110.8,306.2L128.4,306.2L128.4,281.2L129.0,275.0L120.8,275.1L120.8,268.4L126.9,259.2L139.5,259.1L139.5,256.4L136.6,256.4L136.6,254.3L134.1,253.3L129.7,248.1L126.9,247.1L124.3,244.0L120.0,241.9L114.9,236.7L113.3,236.6L113.6,227.4L115.4,227.4L115.6,218.9L116.4,218.9L116.4,212.8L110.2,217.6L108.5,217.9L103.3,218.1L101.5,220.0L87.7,240.3L75.6,245.4L71.0,246.5Z"/>
    <path class="wtc-county" id="wtc-county-mineral" data-county="Mineral" d="M110.8,306.2L115.9,310.0L132.0,321.2L162.8,343.2L168.2,343.4L215.4,302.0L179.2,270.2L179.2,264.4L203.0,259.2L139.5,259.1L126.9,259.2L120.8,268.4L120.8,275.1L129.0,275.0L128.4,281.2L128.4,306.2L110.8,306.2Z"/>
    <path class="wtc-county" id="wtc-county-nye" data-county="Nye" d="M203.0,259.2L179.2,264.4L179.2,270.2L215.4,302.0L253.0,335.7L253.0,380.9L252.8,409.3L318.2,458.9L347.1,481.2L347.1,466.5L343.5,466.4L343.5,418.5L343.8,417.2L343.8,332.2L407.6,332.2L407.6,287.5L342.8,252.8L293.3,252.8L241.0,252.7L209.5,257.8L203.0,259.2Z"/>
    <path class="wtc-county" id="wtc-county-pershing" data-county="Pershing" d="M99.7,124.4L99.5,156.0L97.7,156.0L97.7,193.1L105.9,193.0L175.9,192.8L226.1,192.9L243.3,155.4L243.3,144.7L218.7,144.1L218.7,131.7L162.0,131.9L137.2,131.9L137.2,124.4L99.7,124.4Z"/>
    <path class="wtc-county" id="wtc-county-storey" data-county="Storey" d="M101.5,220.0L95.4,222.5L88.5,222.7L88.2,224.0L83.8,224.0L80.3,225.3L77.4,227.9L72.3,227.5L72.0,232.5L75.1,232.5L74.9,235.5L72.8,236.6L74.9,240.7L73.6,240.7L73.6,244.3L71.0,246.5L75.6,245.4L87.7,240.3L101.5,220.0Z"/>
    <path class="wtc-county" id="wtc-county-washoe" data-county="Washoe" d="M50.0,241.8L50.3,252.6L59.0,252.6L62.8,249.5L66.9,249.0L68.2,247.0L71.0,246.5L73.6,244.3L73.6,240.7L74.9,240.7L72.8,236.6L74.9,235.5L75.1,232.5L72.0,232.5L72.3,227.5L77.4,227.9L80.3,225.3L83.8,224.0L88.2,224.0L88.5,222.7L95.4,222.5L101.5,220.0L103.3,218.1L108.5,217.9L109.7,215.8L109.7,208.1L106.9,206.6L106.9,200.1L105.6,200.1L105.9,193.0L97.7,193.1L97.7,156.0L99.5,156.0L99.7,124.4L98.5,124.4L98.2,104.8L100.0,104.8L100.2,92.0L98.7,92.0L98.5,79.4L98.7,50.6L96.1,50.6L58.5,50.3L50.5,50.5L50.5,50.6L50.5,108.4L50.5,139.4L50.8,141.5L50.8,187.9L50.5,212.0L50.3,212.8L50.3,232.6L50.0,241.8Z"/>
    <path class="wtc-county" id="wtc-county-white-pine" data-county="White Pine" d="M347.9,183.9L348.7,189.2L348.1,192.8L350.2,199.3L350.7,203.4L349.4,206.2L349.7,209.8L348.1,212.4L349.4,222.4L348.1,223.7L347.4,228.1L345.6,230.7L342.8,231.7L342.8,252.8L407.6,287.5L475.6,287.5L475.6,225.7L475.6,199.7L475.6,184.6L441.2,184.5L371.7,183.8L347.9,183.9Z"/>
    <path class="wtc-county" id="wtc-county-carson-city" data-county="Carson City" d="M50.3,252.6L50.3,256.3L67.4,256.3L68.2,258.4L82.6,258.3L81.0,254.1L81.8,250.5L75.6,250.5L73.1,249.5L71.0,246.5L68.2,247.0L66.9,249.0L62.8,249.5L59.0,252.6L50.3,252.6Z"/>
  </g>
</svg>