<?xml version="1.0" encoding="UTF-8"?>
<svg xmlns="http://www.w3.org/2000/svg" viewBox="0 0 513 600" id="wtc-state-map-IN" role="img" aria-label="in county map">
  <title>in Counties</title>
  <g class="wtc-counties">
    <path class="wtc-county" id="wtc-county-adams" data-county="Adams" d="M428.0,155.6L428.9,199.5L462.1,198.9L462.1,179.4L462.1,155.0L428.0,155.6Z"/>
    <path class="wtc-county" id="wtc-county-allen" data-county="Allen" d="M398.7,112.2L398.7,122.9L395.1,122.9L395.6,144.7L395.1,155.8L428.0,155.6L462.1,155.0L462.1,146.7L462.1,113.6L462.1,111.4L413.6,112.2L398.7,112.2Z"/>
    <path class="wtc-county" id="wtc-county-bartholomew" data-county="Bartholomew" d="M301.5,352.9L302.0,389.8L302.0,391.6L329.4,390.9L337.1,387.5L337.1,379.9L351.5,379.6L351.5,352.2L318.2,352.5L301.5,352.9Z"/>
    <path class="wtc-county" id="wtc-county-benton" data-county="Benton" d="M120.6,210.9L175.1,211.1L174.6,200.1L174.2,178.4L153.0,178.4L120.6,178.4L120.6,209.2L120.6,210.9Z"/>
    <path class="wtc-county" id="wtc-county-blackford" data-county="Blackford" d="M381.6,199.6L381.6,223.2L410.0,223.2L411.3,223.2L412.2,199.6L381.6,199.6Z"/>
    <path class="wtc-county" id="wtc-county-boone" data-county="Boone" d="M225.0,248.3L225.0,280.3L271.4,280.2L282.2,279.9L281.7,248.0L267.8,248.4L225.0,248.3Z"/>
    <path class="wtc-county" id="wtc-county-brown" data-county="Brown" d="M264.2,353.5L265.5,364.6L265.5,390.0L272.3,390.0L302.0,389.8L301.5,352.9L280.4,353.3L264.2,353.5Z"/>
    <path class="wtc-county" id="wtc-county-carroll" data-county="Carroll" d="M239.0,178.5L217.8,178.5L216.5,183.2L219.2,185.3L215.1,187.4L215.6,200.2L225.0,200.2L225.0,216.5L265.1,216.6L265.1,200.3L265.1,183.9L246.2,183.9L246.2,178.5L239.0,178.5Z"/>
    <path class="wtc-county" id="wtc-county-cass" data-county="Cass" d="M239.0,156.5L239.0,178.5L246.2,178.5L246.2,183.9L265.1,183.9L265.1,200.3L291.2,200.1L290.7,156.6L253.4,156.6L239.0,156.5Z"/>
    <path class="wtc-county" id="wtc-county-clark" data-county="Clark" d="M312.8,469.0L316.4,470.8L336.2,470.7L342.0,477.5L337.5,479.7L338.4,485.3L344.3,487.9L352.8,483.7L357.3,473.8L361.4,466.3L374.9,462.7L378.0,457.9L383.0,455.7L385.2,453.6L383.9,447.9L377.6,447.9L375.3,445.3L365.9,445.4L338.0,445.5L331.2,451.0L326.7,458.2L317.3,458.5L312.8,460.2L312.8,469.0Z"/>
    <path class="wtc-county" id="wtc-county-clay" data-county="Clay" d="M156.6,363.6L156.6,374.5L180.0,375.0L180.0,353.1L194.0,353.1L194.4,336.7L185.0,336.7L185.0,320.2L161.6,320.0L161.6,330.9L156.6,330.7L156.6,363.6Z"/>
    <path class="wtc-county" id="wtc-county-clinton" data-county="Clinton" d="M225.0,243.8L225.0,248.3L267.8,248.4L281.7,248.0L281.7,243.6L281.7,223.8L273.2,222.0L273.2,216.6L265.1,216.6L225.0,216.5L225.0,243.8Z"/>
    <path class="wtc-county" id="wtc-county-crawford" data-county="Crawford" d="M226.8,471.9L226.8,488.4L240.8,488.0L240.3,495.4L254.3,495.5L254.3,506.2L261.5,508.1L265.1,505.0L270.9,504.8L271.4,502.1L265.5,500.8L265.1,497.1L270.5,498.7L275.9,496.0L277.7,486.4L280.4,484.8L276.8,477.4L281.3,477.6L279.9,468.4L273.2,468.4L273.2,472.0L226.8,471.9Z"/>
    <path class="wtc-county" id="wtc-county-daviess" data-county="Daviess" d="M174.2,408.1L170.1,410.4L167.9,416.4L165.2,415.3L159.8,420.1L156.6,418.7L156.2,427.3L151.7,434.8L156.6,442.2L154.8,442.2L156.2,453.1L164.7,453.2L167.9,456.7L173.3,454.0L177.8,456.8L187.7,457.1L194.0,459.6L196.2,458.0L196.2,418.9L198.9,418.9L198.9,408.1L174.2,408.1Z"/>
    <path class="wtc-county" id="wtc-county-dearborn" data-county="Dearborn" d="M420.8,402.6L425.3,404.2L430.2,402.5L437.9,396.4L443.2,396.7L452.7,392.2L451.3,387.7L459.9,382.9L459.9,357.8L429.3,357.6L426.6,370.2L420.8,402.6Z"/>
    <path class="wtc-county" id="wtc-county-decatur" data-county="Decatur" d="M351.5,352.2L351.5,379.6L366.3,379.4L382.1,371.6L400.1,362.4L400.1,339.3L358.7,339.3L358.2,352.2L351.5,352.2Z"/>
    <path class="wtc-county" id="wtc-county-dekalb" data-county="DeKalb" d="M413.1,79.4L413.6,112.2L462.1,111.4L462.1,91.9L461.7,78.9L413.1,79.4Z"/>
    <path class="wtc-county" id="wtc-county-delaware" data-county="Delaware" d="M365.0,223.2L365.4,261.1L410.4,261.1L410.0,232.2L410.0,223.2L381.6,223.2L365.0,223.2Z"/>
    <path class="wtc-county" id="wtc-county-dubois" data-county="Dubois" d="M177.8,456.8L177.3,492.3L177.3,495.8L184.5,495.9L212.9,495.7L212.9,490.2L226.8,490.3L226.8,488.4L226.8,471.9L226.4,455.4L207.0,455.4L202.1,459.3L196.2,458.0L194.0,459.6L187.7,457.1L177.8,456.8Z"/>
    <path class="wtc-county" id="wtc-county-elkhart" data-county="Elkhart" d="M304.2,50.0L304.7,85.3L304.7,90.7L355.5,90.6L355.5,79.7L354.6,50.2L338.4,50.2L304.2,50.0Z"/>
    <path class="wtc-county" id="wtc-county-fayette" data-county="Fayette" d="M399.6,297.4L400.1,330.2L432.9,330.1L432.9,306.4L414.0,306.4L414.5,297.3L409.5,297.3L399.6,297.4Z"/>
    <path class="wtc-county" id="wtc-county-floyd" data-county="Floyd" d="M307.8,469.0L307.8,480.0L313.2,486.9L317.7,488.7L317.3,498.1L324.5,498.8L330.8,493.5L333.5,486.7L338.4,485.3L337.5,479.7L342.0,477.5L336.2,470.7L316.4,470.8L312.8,469.0L307.8,469.0Z"/>
    <path class="wtc-county" id="wtc-county-fountain" data-county="Fountain" d="M135.9,254.7L134.6,263.3L132.3,267.4L134.1,276.7L175.1,276.6L175.1,243.7L175.1,224.8L170.1,228.0L155.7,232.0L141.8,244.3L134.1,246.6L131.9,250.1L135.9,254.7Z"/>
    <path class="wtc-county" id="wtc-county-franklin" data-county="Franklin" d="M400.1,330.2L400.1,339.3L400.1,362.4L410.0,357.3L429.3,357.6L459.9,357.8L460.3,330.6L432.9,330.1L400.1,330.2Z"/>
    <path class="wtc-county" id="wtc-county-fulton" data-county="Fulton" d="M253.4,123.9L253.4,156.6L290.7,156.6L291.2,145.8L318.6,145.4L319.1,139.9L309.6,140.1L309.6,134.5L302.4,134.8L302.4,123.7L253.4,123.9Z"/>
    <path class="wtc-county" id="wtc-county-gibson" data-county="Gibson" d="M63.0,489.3L63.0,492.6L86.4,492.7L86.4,496.0L100.4,496.3L100.4,500.2L128.3,500.7L128.3,496.2L147.2,496.2L147.2,490.6L147.2,473.5L135.5,474.3L135.5,466.8L131.0,466.8L128.7,463.0L128.7,454.5L124.7,459.2L114.8,459.9L111.6,464.9L93.2,469.4L89.1,474.9L85.5,475.9L79.7,486.9L76.1,483.3L72.9,487.8L70.7,484.0L66.6,491.3L63.0,489.3Z"/>
    <path class="wtc-county" id="wtc-county-grant" data-county="Grant" d="M329.0,189.0L329.0,199.8L329.4,219.7L329.4,223.3L365.0,223.2L381.6,223.2L381.6,199.6L381.2,188.8L357.3,188.8L329.0,189.0Z"/>
    <path class="wtc-county" id="wtc-county-greene" data-county="Greene" d="M156.6,374.5L156.6,407.6L174.2,408.1L198.9,408.1L226.4,408.0L226.4,397.0L226.4,375.2L180.0,375.0L156.6,374.5Z"/>
    <path class="wtc-county" id="wtc-county-hamilton" data-county="Hamilton" d="M281.7,243.6L281.7,248.0L282.2,279.9L320.0,279.8L329.4,279.6L329.4,277.8L329.4,243.3L281.7,243.6Z"/>
    <path class="wtc-county" id="wtc-county-hancock" data-county="Hancock" d="M320.0,279.8L320.0,287.0L317.7,288.7L318.2,308.7L358.2,308.5L358.2,297.5L362.7,297.5L362.7,286.6L365.0,286.6L365.4,277.5L329.4,277.8L329.4,279.6L320.0,279.8Z"/>
    <path class="wtc-county" id="wtc-county-harrison" data-county="Harrison" d="M279.9,468.4L281.3,477.6L276.8,477.4L280.4,484.8L277.7,486.4L275.9,496.0L270.5,498.7L278.1,504.1L278.6,514.2L290.3,520.2L300.2,520.3L306.0,526.5L307.8,522.6L312.3,521.5L319.1,520.4L321.8,518.1L324.0,510.6L324.5,498.8L317.3,498.1L317.7,488.7L313.2,486.9L307.8,480.0L307.8,469.0L279.9,468.4Z"/>
    <path class="wtc-county" id="wtc-county-hendricks" data-county="Hendricks" d="M225.0,280.3L225.0,287.7L225.9,287.7L225.9,317.1L231.8,317.1L229.5,320.6L253.8,320.7L253.8,317.1L271.4,316.9L270.9,305.9L271.4,280.2L225.0,280.3Z"/>
    <path class="wtc-county" id="wtc-county-henry" data-county="Henry" d="M365.4,277.5L365.0,286.6L362.7,286.6L362.7,297.5L399.6,297.4L409.5,297.3L410.0,286.6L412.2,286.5L412.2,270.1L410.4,261.1L365.4,261.1L365.4,277.5Z"/>
    <path class="wtc-county" id="wtc-county-howard" data-county="Howard" d="M265.1,200.3L265.1,216.6L273.2,216.6L273.2,222.0L281.7,223.8L281.7,220.1L329.4,219.7L329.0,199.8L291.2,200.1L265.1,200.3Z"/>
    <path class="wtc-county" id="wtc-county-huntington" data-county="Huntington" d="M356.9,145.1L357.3,188.8L381.2,188.8L395.6,188.7L395.1,155.8L395.6,144.7L356.9,145.1Z"/>
    <path class="wtc-county" id="wtc-county-jackson" data-county="Jackson" d="M272.3,390.0L272.3,397.2L276.8,397.2L277.7,425.6L288.9,423.1L295.2,425.8L300.6,423.1L308.7,426.6L314.1,425.1L326.3,429.4L332.1,428.5L337.5,420.2L337.1,387.5L329.4,390.9L302.0,391.6L302.0,389.8L272.3,390.0Z"/>
    <path class="wtc-county" id="wtc-county-jasper" data-county="Jasper" d="M152.1,118.0L152.1,156.4L153.0,156.4L153.0,178.4L174.2,178.4L174.2,165.7L188.6,165.7L188.1,156.4L195.3,156.3L195.3,123.8L195.3,115.7L190.8,117.8L179.1,111.6L170.1,109.4L162.5,112.0L159.3,115.0L152.1,118.0Z"/>
    <path class="wtc-county" id="wtc-county-jay" data-county="Jay" d="M410.0,223.2L410.0,232.2L462.1,231.8L462.1,226.5L462.1,198.9L428.9,199.5L412.2,199.6L411.3,223.2L410.0,223.2Z"/>
    <path class="wtc-county" id="wtc-county-jefferson" data-county="Jefferson" d="M351.9,419.2L351.9,429.1L356.4,432.6L360.9,432.7L361.4,436.3L365.9,436.4L365.9,445.4L375.3,445.3L377.6,447.9L383.9,447.9L380.7,432.5L386.1,429.0L395.6,429.2L405.0,429.0L412.2,434.8L411.8,406.9L381.6,407.0L369.9,407.1L369.9,410.8L365.4,410.8L365.4,414.4L360.9,414.4L360.9,418.1L351.9,419.2Z"/>
    <path class="wtc-county" id="wtc-county-jennings" data-county="Jennings" d="M351.5,379.6L337.1,379.9L337.1,387.5L337.5,420.2L345.6,417.1L351.9,419.2L360.9,418.1L360.9,414.4L365.4,414.4L365.4,410.8L369.9,410.8L369.9,407.1L381.6,407.0L382.1,371.6L366.3,379.4L351.5,379.6Z"/>
    <path class="wtc-county" id="wtc-county-johnson" data-county="Johnson" d="M280.8,316.6L280.4,353.3L301.5,352.9L318.2,352.5L317.7,348.0L318.2,316.0L280.8,316.6Z"/>
    <path class="wtc-county" id="wtc-county-knox" data-county="Knox" d="M104.9,450.2L104.9,457.3L94.1,461.8L93.2,469.4L111.6,464.9L114.8,459.9L124.7,459.2L128.7,454.5L135.0,455.4L142.2,453.3L149.0,457.5L156.2,453.1L154.8,442.2L156.6,442.2L151.7,434.8L156.2,427.3L156.6,418.7L159.8,420.1L165.2,415.3L167.9,416.4L170.1,410.4L174.2,408.1L156.6,407.6L156.6,408.4L121.1,408.3L120.6,407.6L117.5,413.7L119.7,414.5L124.2,423.8L124.7,428.3L118.4,436.5L112.1,437.8L108.9,441.2L104.9,450.2Z"/>
    <path class="wtc-county" id="wtc-county-kosciusko" data-county="Kosciusko" d="M302.4,123.7L302.4,134.8L309.6,134.5L309.6,140.1L319.1,139.9L351.5,139.5L351.5,123.0L355.5,123.0L355.5,108.4L355.5,90.6L304.7,90.7L305.1,123.7L302.4,123.7Z"/>
    <path class="wtc-county" id="wtc-county-lagrange" data-county="LaGrange" d="M354.6,50.2L355.5,79.7L413.1,79.4L412.7,50.1L401.0,50.1L354.6,50.2Z"/>
    <path class="wtc-county" id="wtc-county-lake" data-county="Lake" d="M120.6,107.9L120.6,124.5L131.4,123.6L134.6,125.0L145.8,122.0L152.1,118.0L159.3,115.0L158.9,67.1L145.8,67.2L133.7,64.8L136.4,60.4L133.2,58.8L127.8,61.0L121.1,56.6L120.6,86.4L120.6,107.9Z"/>
    <path class="wtc-county" id="wtc-county-laporte" data-county="LaPorte" d="M195.3,56.2L195.3,115.7L203.0,112.1L213.8,109.6L219.2,105.0L224.1,94.9L231.3,91.1L246.2,91.0L246.2,80.2L248.9,80.3L251.1,73.8L251.1,63.9L246.2,63.8L246.2,50.1L208.8,50.0L195.3,56.2Z"/>
    <path class="wtc-county" id="wtc-county-lawrence" data-county="Lawrence" d="M226.4,408.0L226.4,435.3L273.2,435.2L273.2,429.5L277.7,425.6L276.8,397.2L272.3,397.2L226.4,397.0L226.4,408.0Z"/>
    <path class="wtc-county" id="wtc-county-madison" data-county="Madison" d="M329.4,243.3L329.4,277.8L365.4,277.5L365.4,261.1L365.0,223.2L329.4,223.3L329.4,243.3Z"/>
    <path class="wtc-county" id="wtc-county-marion" data-county="Marion" d="M271.4,280.2L270.9,305.9L271.4,316.9L280.8,316.6L318.2,316.0L318.2,308.7L317.7,288.7L320.0,287.0L320.0,279.8L282.2,279.9L271.4,280.2Z"/>
    <path class="wtc-county" id="wtc-county-marshall" data-county="Marshall" d="M304.7,85.3L253.4,85.6L253.4,91.0L253.4,123.9L302.4,123.7L305.1,123.7L304.7,90.7L304.7,85.3Z"/>
    <path class="wtc-county" id="wtc-county-martin" data-county="Martin" d="M198.9,408.1L198.9,418.9L196.2,418.9L196.2,458.0L202.1,459.3L207.0,455.4L226.4,455.4L226.4,435.3L226.4,408.0L198.9,408.1Z"/>
    <path class="wtc-county" id="wtc-county-miami" data-county="Miami" d="M290.7,156.6L291.2,200.1L329.0,199.8L329.0,189.0L319.5,189.1L318.6,145.4L291.2,145.8L290.7,156.6Z"/>
    <path class="wtc-county" id="wtc-county-monroe" data-county="Monroe" d="M233.1,352.6L225.9,353.9L226.4,375.2L226.4,397.0L272.3,397.2L272.3,390.0L265.5,390.0L265.5,364.6L264.2,353.5L233.1,353.4L233.1,352.6Z"/>
    <path class="wtc-county" id="wtc-county-montgomery" data-county="Montgomery" d="M175.1,243.7L175.1,276.6L175.1,287.3L185.4,287.5L225.0,287.7L225.0,280.3L225.0,248.3L225.0,243.8L175.1,243.7Z"/>
    <path class="wtc-county" id="wtc-county-morgan" data-county="Morgan" d="M229.5,320.6L230.9,325.1L225.9,330.6L225.9,337.1L232.7,337.1L233.1,352.6L233.1,353.4L264.2,353.5L280.4,353.3L280.8,316.6L271.4,316.9L253.8,317.1L253.8,320.7L229.5,320.6Z"/>
    <path class="wtc-county" id="wtc-county-newton" data-county="Newton" d="M120.6,124.5L120.6,144.0L120.6,178.4L153.0,178.4L153.0,156.4L152.1,156.4L152.1,118.0L145.8,122.0L134.6,125.0L131.4,123.6L120.6,124.5Z"/>
    <path class="wtc-county" id="wtc-county-noble" data-county="Noble" d="M355.5,79.7L355.5,90.6L355.5,108.4L370.4,108.4L369.9,111.9L398.7,112.2L413.6,112.2L413.1,79.4L355.5,79.7Z"/>
    <path class="wtc-county" id="wtc-county-ohio" data-county="Ohio" d="M420.3,404.8L419.9,408.2L453.6,408.5L453.6,404.9L458.5,400.9L452.7,392.2L443.2,396.7L437.9,396.4L430.2,402.5L425.3,404.2L420.8,402.6L420.3,404.8Z"/>
    <path class="wtc-county" id="wtc-county-orange" data-county="Orange" d="M226.4,435.3L226.4,455.4L226.8,471.9L273.2,472.0L273.2,468.4L273.2,435.2L226.4,435.3Z"/>
    <path class="wtc-county" id="wtc-county-owen" data-county="Owen" d="M194.4,336.7L194.0,353.1L180.0,353.1L180.0,375.0L226.4,375.2L225.9,353.9L233.1,352.6L232.7,337.1L225.9,337.1L194.4,336.7Z"/>
    <path class="wtc-county" id="wtc-county-parke" data-county="Parke" d="M134.1,276.7L132.3,279.3L140.4,284.4L142.2,288.0L138.2,291.5L139.5,296.7L139.1,309.0L137.3,314.2L138.6,319.9L161.6,320.0L185.0,320.2L185.4,287.5L175.1,287.3L175.1,276.6L134.1,276.7Z"/>
    <path class="wtc-county" id="wtc-county-perry" data-county="Perry" d="M209.7,521.6L212.4,522.8L217.8,532.3L222.3,534.7L226.8,532.0L231.3,533.1L230.0,541.2L237.2,538.0L238.1,531.3L248.4,530.3L246.2,526.2L246.2,517.9L250.7,515.6L255.2,515.1L257.9,510.6L254.3,506.2L254.3,495.5L240.3,495.4L240.8,488.0L226.8,488.4L226.8,490.3L212.9,490.2L212.9,495.7L211.1,503.5L216.0,509.6L213.8,515.3L215.1,521.7L209.7,521.6Z"/>
    <path class="wtc-county" id="wtc-county-pike" data-county="Pike" d="M128.7,454.5L128.7,463.0L131.0,466.8L135.5,466.8L135.5,474.3L147.2,473.5L147.2,490.6L149.4,492.4L177.3,492.3L177.8,456.8L173.3,454.0L167.9,456.7L164.7,453.2L156.2,453.1L149.0,457.5L142.2,453.3L135.0,455.4L128.7,454.5Z"/>
    <path class="wtc-county" id="wtc-county-porter" data-county="Porter" d="M158.9,67.1L159.3,115.0L162.5,112.0L170.1,109.4L179.1,111.6L190.8,117.8L195.3,115.7L195.3,56.2L171.5,64.4L158.9,67.1Z"/>
    <path class="wtc-county" id="wtc-county-posey" data-county="Posey" d="M63.0,492.6L64.4,496.6L70.7,503.0L60.8,510.9L66.2,508.9L65.3,513.0L56.7,515.0L60.3,517.8L59.9,524.3L53.1,531.5L59.9,534.6L50.0,535.0L56.3,543.6L50.9,542.7L52.7,546.3L57.6,546.6L68.0,550.0L73.4,544.9L68.9,537.6L70.7,533.7L77.4,531.3L82.4,536.9L99.0,534.3L99.5,505.7L100.4,500.2L100.4,496.3L86.4,496.0L86.4,492.7L63.0,492.6Z"/>
    <path class="wtc-county" id="wtc-county-pulaski" data-county="Pulaski" d="M195.3,123.8L195.3,156.3L239.0,156.5L253.4,156.6L253.4,123.9L195.3,123.8Z"/>
    <path class="wtc-county" id="wtc-county-putnam" data-county="Putnam" d="M185.0,320.2L185.0,336.7L194.4,336.7L225.9,337.1L225.9,330.6L230.9,325.1L229.5,320.6L231.8,317.1L225.9,317.1L225.9,287.7L225.0,287.7L185.4,287.5L185.0,320.2Z"/>
    <path class="wtc-county" id="wtc-county-randolph" data-county="Randolph" d="M410.0,232.2L410.4,261.1L412.2,270.1L461.2,270.0L461.2,254.5L462.1,231.8L410.0,232.2Z"/>
    <path class="wtc-county" id="wtc-county-ripley" data-county="Ripley" d="M382.1,371.6L381.6,407.0L411.8,406.9L412.2,405.1L420.3,404.8L420.8,402.6L426.6,370.2L429.3,357.6L410.0,357.3L400.1,362.4L382.1,371.6Z"/>
    <path class="wtc-county" id="wtc-county-rush" data-county="Rush" d="M362.7,297.5L358.2,297.5L358.2,308.5L358.7,339.3L400.1,339.3L400.1,330.2L399.6,297.4L362.7,297.5Z"/>
    <path class="wtc-county" id="wtc-county-st-joseph" data-county="St. Joseph" d="M246.2,50.1L246.2,63.8L251.1,63.9L251.1,73.8L248.9,80.3L246.2,80.2L246.2,91.0L253.4,91.0L253.4,85.6L304.7,85.3L304.2,50.0L283.5,50.1L246.2,50.1Z"/>
    <path class="wtc-county" id="wtc-county-scott" data-county="Scott" d="M326.3,429.4L326.3,449.3L331.2,451.0L338.0,445.5L365.9,445.4L365.9,436.4L361.4,436.3L360.9,432.7L356.4,432.6L351.9,429.1L351.9,419.2L345.6,417.1L337.5,420.2L332.1,428.5L326.3,429.4Z"/>
    <path class="wtc-county" id="wtc-county-shelby" data-county="Shelby" d="M318.2,316.0L317.7,348.0L318.2,352.5L351.5,352.2L358.2,352.2L358.7,339.3L358.2,308.5L318.2,308.7L318.2,316.0Z"/>
    <path class="wtc-county" id="wtc-county-spencer" data-county="Spencer" d="M184.5,495.9L184.5,506.6L177.8,506.6L175.5,515.2L167.4,514.7L167.4,518.4L163.8,520.1L153.0,530.8L153.0,536.6L158.9,540.3L167.0,541.7L170.6,548.4L175.5,548.1L178.7,545.2L180.9,534.7L189.5,530.2L198.5,528.6L204.8,523.0L209.7,521.6L215.1,521.7L213.8,515.3L216.0,509.6L211.1,503.5L212.9,495.7L184.5,495.9Z"/>
    <path class="wtc-county" id="wtc-county-starke" data-county="Starke" d="M195.3,115.7L195.3,123.8L253.4,123.9L253.4,91.0L246.2,91.0L231.3,91.1L224.1,94.9L219.2,105.0L213.8,109.6L203.0,112.1L195.3,115.7Z"/>
    <path class="wtc-county" id="wtc-county-steuben" data-county="Steuben" d="M412.7,50.1L413.1,79.4L461.7,78.9L461.7,58.1L461.7,50.0L459.4,50.1L412.7,50.1Z"/>
    <path class="wtc-county" id="wtc-county-sullivan" data-county="Sullivan" d="M106.2,376.3L107.6,383.0L114.8,388.9L114.3,397.4L122.4,401.7L120.6,407.6L121.1,408.3L156.6,408.4L156.6,407.6L156.6,374.5L156.6,363.6L111.2,363.5L114.8,368.7L106.2,376.3Z"/>
    <path class="wtc-county" id="wtc-county-switzerland" data-county="Switzerland" d="M420.3,404.8L412.2,405.1L411.8,406.9L412.2,434.8L415.8,435.2L434.3,425.8L451.3,421.7L461.2,422.1L458.5,417.3L463.0,414.0L462.6,409.7L453.6,408.5L419.9,408.2L420.3,404.8Z"/>
    <path class="wtc-county" id="wtc-county-tippecanoe" data-county="Tippecanoe" d="M174.6,200.1L175.1,211.1L175.1,224.8L175.1,243.7L225.0,243.8L225.0,216.5L225.0,200.2L215.6,200.2L174.6,200.1Z"/>
    <path class="wtc-county" id="wtc-county-tipton" data-county="Tipton" d="M329.4,219.7L281.7,220.1L281.7,223.8L281.7,243.6L329.4,243.3L329.4,223.3L329.4,219.7Z"/>
    <path class="wtc-county" id="wtc-county-union" data-county="Union" d="M432.9,306.4L432.9,330.1L460.3,330.6L460.8,324.9L460.8,305.0L432.9,304.7L432.9,306.4Z"/>
    <path class="wtc-county" id="wtc-county-vanderburgh" data-county="Vanderburgh" d="M100.4,500.2L99.5,505.7L99.0,534.3L103.5,534.7L102.2,542.8L107.1,543.1L113.0,538.8L108.0,531.9L111.2,524.8L114.8,525.4L117.5,530.7L123.8,532.8L130.1,528.8L130.1,517.0L127.4,517.0L128.3,500.7L100.4,500.2Z"/>
    <path class="wtc-county" id="wtc-county-vermillion" data-county="Vermillion" d="M120.2,252.1L119.7,285.4L120.2,319.9L138.6,319.9L137.3,314.2L139.1,309.0L139.5,296.7L138.2,291.5L142.2,288.0L140.4,284.4L132.3,279.3L134.1,276.7L132.3,267.4L134.6,263.3L135.9,254.7L125.1,254.7L120.2,252.1Z"/>
    <path class="wtc-county" id="wtc-county-vigo" data-county="Vigo" d="M120.2,336.2L120.2,352.4L114.3,353.4L110.3,360.7L111.2,363.5L156.6,363.6L156.6,330.7L161.6,330.9L161.6,320.0L138.6,319.9L120.2,319.9L120.2,336.2Z"/>
    <path class="wtc-county" id="wtc-county-wabash" data-county="Wabash" d="M319.1,139.9L318.6,145.4L319.5,189.1L329.0,189.0L357.3,188.8L356.9,145.1L351.9,145.1L351.5,139.5L319.1,139.9Z"/>
    <path class="wtc-county" id="wtc-county-warren" data-county="Warren" d="M120.6,210.9L120.2,252.1L125.1,254.7L135.9,254.7L131.9,250.1L134.1,246.6L141.8,244.3L155.7,232.0L170.1,228.0L175.1,224.8L175.1,211.1L120.6,210.9Z"/>
    <path class="wtc-county" id="wtc-county-warrick" data-county="Warrick" d="M128.3,500.7L127.4,517.0L130.1,517.0L130.1,528.8L139.1,529.4L149.0,534.2L153.0,536.6L153.0,530.8L163.8,520.1L167.4,518.4L167.4,514.7L175.5,515.2L177.8,506.6L184.5,506.6L184.5,495.9L177.3,495.8L177.3,492.3L149.4,492.4L147.2,490.6L147.2,496.2L128.3,496.2L128.3,500.7Z"/>
    <path class="wtc-county" id="wtc-county-washington" data-county="Washington" d="M277.7,425.6L273.2,429.5L273.2,435.2L273.2,468.4L279.9,468.4L307.8,469.0L312.8,469.0L312.8,460.2L317.3,458.5L326.7,458.2L331.2,451.0L326.3,449.3L326.3,429.4L314.1,425.1L308.7,426.6L300.6,423.1L295.2,425.8L288.9,423.1L277.7,425.6Z"/>
    <path class="wtc-county" id="wtc-county-wayne" data-county="Wayne" d="M412.2,270.1L412.2,286.5L410.0,286.6L409.5,297.3L414.5,297.3L414.0,306.4L432.9,306.4L432.9,304.7L460.8,305.0L460.8,281.1L461.2,270.0L412.2,270.1Z"/>
    <path class="wtc-county" id="wtc-county-wells" data-county="Wells" d="M381.2,188.8L381.6,199.6L412.2,199.6L428.9,199.5L428.0,155.6L395.1,155.8L395.6,188.7L381.2,188.8Z"/>
    <path class="wtc-county" id="wtc-county-white" data-county="White" d="M195.3,156.3L188.1,156.4L188.6,165.7L174.2,165.7L174.2,178.4L174.6,200.1L215.6,200.2L215.1,187.4L219.2,185.3L216.5,183.2L217.8,178.5L239.0,178.5L239.0,156.5L195.3,156.3Z"/>
    <path class="wtc-county" id="wtc-county-whitley" data-county="Whitley" d="M355.5,108.4L355.5,123.0L351.5,123.0L351.5,139.5L351.9,145.1L356.9,145.1L395.6,144.7L395.1,122.9L398.7,122.9L398.7,112.2L369.9,111.9L370.4,108.4L355.5,108.4Z"/>
  </g>
</svg>