<svg id="wtc-state-map-or" xmlns="http://www.w3.org/2000/svg" viewBox="0 0 980 520" role="img" aria-label="Oregon county map">
  <g class="wtc-counties">
    <rect id="wtc-county-clatsop" class="wtc-county" data-county="Clatsop" x="20" y="20" width="72" height="46"/>
    <rect id="wtc-county-columbia" class="wtc-county" data-county="Columbia" x="96" y="20" width="72" height="46"/>
    <rect id="wtc-county-washington" class="wtc-county" data-county="Washington" x="172" y="20" width="72" height="46"/>
    <rect id="wtc-county-multnomah" class="wtc-county" data-county="Multnomah" x="248" y="20" width="72" height="46"/>
    <rect id="wtc-county-hood-river" class="wtc-county" data-county="Hood River" x="324" y="20" width="72" height="46"/>
    <rect id="wtc-county-wasco" class="wtc-county" data-county="Wasco" x="400" y="20" width="72" height="46"/>
    <rect id="wtc-county-sherman" class="wtc-county" data-county="Sherman" x="476" y="20" width="72" height="46"/>
    <rect id="wtc-county-gilliam" class="wtc-county" data-county="Gilliam" x="552" y="20" width="72" height="46"/>
    <rect id="wtc-county-morrow" class="wtc-county" data-county="Morrow" x="628" y="20" width="72" height="46"/>
    <rect id="wtc-county-umatilla" class="wtc-county" data-county="Umatilla" x="704" y="20" width="72" height="46"/>

    <rect id="wtc-county-tillamook" class="wtc-county" data-county="Tillamook" x="20" y="70" width="72" height="46"/>
    <rect id="wtc-county-yamhill" class="wtc-county" data-county="Yamhill" x="96" y="70" width="72" height="46"/>
    <rect id="wtc-county-clackamas" class="wtc-county" data-county="Clackamas" x="172" y="70" width="72" height="46"/>
    <rect id="wtc-county-marion" class="wtc-county" data-county="Marion" x="248" y="70" width="72" height="46"/>
    <rect id="wtc-county-linn" class="wtc-county" data-county="Linn" x="324" y="70" width="72" height="46"/>
    <rect id="wtc-county-jefferson" class="wtc-county" data-county="Jefferson" x="400" y="70" width="72" height="46"/>
    <rect id="wtc-county-deschutes" class="wtc-county" data-county="Deschutes" x="476" y="70" width="72" height="46"/>
    <rect id="wtc-county-crook" class="wtc-county" data-county="Crook" x="552" y="70" width="72" height="46"/>
    <rect id="wtc-county-grant" class="wtc-county" data-county="Grant" x="628" y="70" width="72" height="46"/>
    <rect id="wtc-county-union" class="wtc-county" data-county="Union" x="704" y="70" width="72" height="46"/>
    <rect id="wtc-county-wallowa" class="wtc-county" data-county="Wallowa" x="780" y="70" width="72" height="46"/>

    <rect id="wtc-county-lincoln" class="wtc-county" data-county="Lincoln" x="20" y="120" width="72" height="46"/>
    <rect id="wtc-county-polk" class="wtc-county" data-county="Polk" x="96" y="120" width="72" height="46"/>
    <rect id="wtc-county-benton" class="wtc-county" data-county="Benton" x="172" y="120" width="72" height="46"/>
    <rect id="wtc-county-lane" class="wtc-county" data-county="Lane" x="248" y="120" width="72" height="46"/>
    <rect id="wtc-county-douglas" class="wtc-county" data-county="Douglas" x="324" y="120" width="72" height="46"/>
    <rect id="wtc-county-klamath" class="wtc-county" data-county="Klamath" x="400" y="120" width="72" height="46"/>
    <rect id="wtc-county-lake" class="wtc-county" data-county="Lake" x="476" y="120" width="72" height="46"/>
    <rect id="wtc-county-harney" class="wtc-county" data-county="Harney" x="552" y="120" width="72" height="46"/>
    <rect id="wtc-county-malheur" class="wtc-county" data-county="Malheur" x="628" y="120" width="72" height="46"/>
    <rect id="wtc-county-baker" class="wtc-county" data-county="Baker" x="704" y="120" width="72" height="46"/>

    <rect id="wtc-county-coos" class="wtc-county" data-county="Coos" x="20" y="170" width="72" height="46"/>
    <rect id="wtc-county-curry" class="wtc-county" data-county="Curry" x="96" y="170" width="72" height="46"/>
    <rect id="wtc-county-josephine" class="wtc-county" data-county="Josephine" x="172" y="170" width="72" height="46"/>
    <rect id="wtc-county-jackson" class="wtc-county" data-county="Jackson" x="248" y="170" width="72" height="46"/>
    <rect id="wtc-county-wheeler" class="wtc-county" data-county="Wheeler" x="324" y="170" width="72" height="46"/>
  </g>
</svg>
