<?xml version="1.0" encoding="UTF-8"?>
<svg xmlns="http://www.w3.org/2000/svg" viewBox="0 0 600 461" id="wtc-state-map-MI" role="img" aria-label="mi county map">
  <title>mi Counties</title>
  <g class="wtc-counties">
    <path class="wtc-county" id="wtc-county-alcona" data-county="Alcona" d="M458.0,247.5L458.0,225.8L493.7,225.9L493.7,231.2L495.5,234.8L496.4,238.6L494.8,240.6L495.0,243.5L493.5,247.6L458.0,247.5Z"/>
    <path class="wtc-county" id="wtc-county-alger" data-county="Alger" d="M256.1,349.9L256.1,328.9L287.6,328.9L287.6,339.8L303.3,339.7L303.3,350.6L334.4,350.5L334.4,362.1L319.9,359.9L317.4,361.0L304.1,355.1L295.2,351.8L289.3,347.9L285.5,349.3L286.9,352.3L285.3,354.0L281.7,353.0L283.3,350.1L282.4,346.4L280.4,348.4L276.8,348.8L275.0,346.4L270.7,346.6L268.0,348.0L264.9,351.9L262.4,352.3L256.1,349.9Z"/>
    <path class="wtc-county" id="wtc-county-allegan" data-county="Allegan" d="M312.9,116.9L313.1,113.9L311.8,109.3L312.0,106.2L310.4,99.0L308.9,95.2L340.7,95.3L354.6,95.3L354.4,117.0L339.6,117.0L312.9,116.9Z"/>
    <path class="wtc-county" id="wtc-county-alpena" data-county="Alpena" d="M458.5,269.1L458.5,258.4L457.8,258.4L458.0,247.5L493.5,247.6L493.5,249.0L488.8,250.4L486.1,252.8L485.2,258.7L488.5,260.9L492.1,259.1L496.6,257.9L493.5,265.1L491.0,266.7L489.2,269.4L458.5,269.1Z"/>
    <path class="wtc-county" id="wtc-county-antrim" data-county="Antrim" d="M364.3,269.5L365.6,260.8L363.8,252.2L360.9,247.7L364.7,247.7L365.2,245.8L367.6,244.8L368.1,247.1L370.3,247.7L398.1,247.6L397.5,258.4L397.5,263.8L374.6,263.8L374.6,269.3L364.3,269.5Z"/>
    <path class="wtc-county" id="wtc-county-arenac" data-county="Arenac" d="M440.5,204.1L440.5,193.8L448.2,193.8L448.2,188.4L456.7,188.4L458.7,191.4L461.6,193.3L471.0,193.6L471.0,196.2L472.8,197.3L477.1,197.5L478.2,204.2L458.3,204.1L440.5,204.1Z"/>
    <path class="wtc-county" id="wtc-county-baraga" data-county="Baraga" d="M172.9,377.7L166.4,377.7L166.4,372.2L158.6,372.2L158.6,345.2L193.8,345.2L193.8,361.4L201.6,361.4L201.6,366.8L198.3,366.8L198.3,376.0L195.8,376.5L190.0,375.5L183.2,371.0L186.6,375.1L189.3,376.4L192.0,379.4L185.7,377.1L179.2,372.8L177.6,373.5L177.0,371.1L172.5,366.4L170.0,366.3L172.0,368.2L170.7,370.9L172.9,377.7Z"/>
    <path class="wtc-county" id="wtc-county-barry" data-county="Barry" d="M354.4,117.0L354.6,95.3L369.9,95.2L384.0,95.3L383.8,117.2L369.2,117.1L354.4,117.0Z"/>
    <path class="wtc-county" id="wtc-county-bay" data-county="Bay" d="M440.5,183.1L440.5,167.0L447.9,166.9L447.7,164.2L462.5,164.1L462.3,161.4L469.9,161.4L469.7,169.1L467.9,170.4L463.4,171.5L462.3,173.6L460.3,171.8L456.7,173.5L453.8,178.4L455.6,180.7L456.7,188.4L448.2,188.4L448.2,193.8L440.5,193.8L440.5,183.1Z"/>
    <path class="wtc-county" id="wtc-county-benzie" data-county="Benzie" d="M321.4,242.6L320.5,240.3L316.0,239.5L310.0,237.2L309.8,235.4L312.0,231.1L311.3,226.4L337.3,226.0L337.6,242.4L321.4,242.6Z"/>
    <path class="wtc-county" id="wtc-county-berrien" data-county="Berrien" d="M274.5,54.0L293.2,54.0L311.8,54.0L312.0,73.5L312.0,84.2L303.3,84.2L295.6,76.4L287.3,62.3L281.3,57.7L274.5,54.0Z"/>
    <path class="wtc-county" id="wtc-county-branch" data-county="Branch" d="M370.1,73.5L370.3,54.0L376.2,54.0L399.5,54.0L399.3,73.5L370.1,73.5Z"/>
    <path class="wtc-county" id="wtc-county-calhoun" data-county="Calhoun" d="M369.9,95.2L370.1,73.5L399.3,73.5L406.7,73.4L406.0,89.9L406.0,95.3L384.0,95.3L369.9,95.2Z"/>
    <path class="wtc-county" id="wtc-county-cass" data-county="Cass" d="M311.8,54.0L322.1,54.0L339.1,53.9L340.9,56.4L340.7,73.3L312.0,73.5L311.8,54.0Z"/>
    <path class="wtc-county" id="wtc-county-charlevoix" data-county="Charlevoix" d="M382.4,279.4L375.5,278.8L371.4,276.2L369.2,276.0L365.4,273.4L364.3,269.5L374.6,269.3L374.6,263.8L397.5,263.8L405.1,263.7L405.1,269.1L405.3,274.6L390.7,274.7L388.5,273.5L385.6,277.4L382.4,277.5L382.4,279.4ZM364.9,307.3L363.8,305.1L366.5,306.2L364.9,307.3ZM355.7,308.3L355.3,306.4L359.6,304.3L360.5,306.3L355.7,308.3ZM349.2,293.8L353.5,292.2L357.8,294.6L356.9,299.1L357.1,303.6L353.1,304.0L352.8,300.9L351.5,300.1L350.8,296.4L349.2,293.8ZM344.8,302.5L345.0,300.1L346.5,300.0L347.7,302.9L344.8,302.5Z"/>
    <path class="wtc-county" id="wtc-county-cheboygan" data-county="Cheboygan" d="M405.3,274.6L405.1,269.1L428.2,268.9L435.6,268.9L435.4,274.1L435.2,295.6L438.3,295.7L430.4,298.0L427.5,297.4L425.1,298.3L422.1,297.2L416.3,300.3L406.2,304.4L405.3,305.7L405.3,274.6Z"/>
    <path class="wtc-county" id="wtc-county-chippewa" data-county="Chippewa" d="M373.7,366.2L373.7,334.3L381.3,334.3L381.5,328.9L428.2,328.9L428.2,323.4L436.0,323.4L436.0,318.0L443.9,317.6L450.0,316.4L456.0,316.3L458.5,317.0L465.4,314.7L472.4,315.6L478.4,313.5L481.6,314.6L483.8,318.0L480.2,319.7L477.1,324.6L474.4,325.4L465.2,324.7L462.1,325.5L465.7,320.1L463.9,318.7L460.7,320.6L458.9,318.5L454.4,321.0L451.7,321.0L446.4,325.0L449.3,327.2L445.0,328.2L443.2,330.2L439.9,330.5L438.7,329.3L435.4,330.0L437.2,333.5L443.7,333.6L443.4,338.7L441.9,345.1L444.1,350.5L443.0,352.1L436.9,352.4L435.2,350.3L432.7,349.8L427.5,350.8L423.3,349.5L421.0,346.0L419.4,346.4L413.8,344.9L414.1,346.8L411.6,349.3L408.7,349.5L401.1,346.8L397.2,348.3L393.9,348.2L392.5,349.6L390.5,348.7L386.9,349.1L384.9,351.9L386.7,352.9L386.2,355.3L386.7,362.6L391.6,367.1L384.5,366.3L377.7,366.7L373.7,366.2Z"/>
    <path class="wtc-county" id="wtc-county-clare" data-county="Clare" d="M383.1,204.2L382.9,182.3L413.2,182.4L412.9,204.0L397.7,204.1L383.1,204.2Z"/>
    <path class="wtc-county" id="wtc-county-clinton" data-county="Clinton" d="M398.6,138.9L398.6,117.2L413.4,117.1L428.2,117.1L428.2,117.5L428.0,138.9L398.6,138.9Z"/>
    <path class="wtc-county" id="wtc-county-crawford" data-county="Crawford" d="M398.1,247.6L397.9,225.9L421.5,225.9L427.7,225.7L427.7,247.4L398.1,247.6Z"/>
    <path class="wtc-county" id="wtc-county-delta" data-county="Delta" d="M282.8,295.0L281.5,294.7L284.6,292.3L285.5,290.4L287.3,291.6L282.8,295.0ZM240.4,318.1L240.4,312.6L243.1,312.6L243.1,291.0L246.9,290.9L252.8,297.8L259.7,300.8L259.1,301.4L260.2,307.9L262.4,308.9L264.2,307.2L265.1,303.6L264.4,300.6L265.8,298.5L266.9,300.0L273.6,301.6L274.8,304.6L277.7,307.2L277.0,309.9L285.5,308.6L289.6,312.6L292.3,312.1L292.9,309.8L289.6,305.1L286.7,305.3L286.4,303.2L284.0,301.5L283.7,299.7L281.0,298.3L283.1,296.1L287.6,294.4L286.7,297.7L289.3,298.1L289.3,300.6L292.3,300.7L293.6,303.2L297.2,303.8L297.4,312.5L295.4,312.5L295.4,328.9L287.6,328.9L256.1,328.9L248.5,328.9L248.3,318.1L240.4,318.1Z"/>
    <path class="wtc-county" id="wtc-county-dickinson" data-county="Dickinson" d="M193.8,314.1L196.3,310.4L192.4,307.6L194.5,305.9L197.4,305.3L201.2,306.2L203.2,303.9L208.6,303.7L210.6,301.6L220.0,301.7L220.0,312.6L225.0,312.6L225.0,318.1L225.0,334.4L193.8,334.4L193.8,314.1Z"/>
    <path class="wtc-county" id="wtc-county-eaton" data-county="Eaton" d="M383.8,117.2L384.0,95.3L406.0,95.3L413.4,95.4L413.4,117.1L398.6,117.2L383.8,117.2Z"/>
    <path class="wtc-county" id="wtc-county-emmet" data-county="Emmet" d="M405.3,305.7L402.6,305.8L401.1,303.2L387.6,304.0L391.6,302.5L392.1,300.9L387.6,297.2L384.7,296.4L381.1,292.4L382.9,286.3L386.0,283.8L393.4,282.8L393.7,281.1L386.5,279.0L382.4,279.4L382.4,277.5L385.6,277.4L388.5,273.5L390.7,274.7L405.3,274.6L405.3,305.7Z"/>
    <path class="wtc-county" id="wtc-county-genesee" data-county="Genesee" d="M469.9,145.3L455.3,145.2L455.3,139.8L455.8,117.8L470.6,118.0L470.4,123.4L485.2,123.8L485.2,124.0L484.7,134.6L484.7,145.5L469.9,145.3Z"/>
    <path class="wtc-county" id="wtc-county-gladwin" data-county="Gladwin" d="M412.9,204.0L413.2,182.4L428.0,182.3L428.2,183.3L440.5,183.1L440.5,193.8L440.5,204.1L428.0,204.0L412.9,204.0Z"/>
    <path class="wtc-county" id="wtc-county-gogebic" data-county="Gogebic" d="M50.0,354.4L51.3,352.3L54.0,352.6L56.3,351.3L62.3,350.4L68.6,341.5L68.4,340.0L80.5,337.7L132.8,327.6L139.1,325.0L139.1,339.8L115.7,339.8L115.7,350.6L92.2,350.6L92.2,356.0L84.5,356.0L84.5,366.8L83.0,366.8L74.2,361.1L65.7,359.3L57.0,356.7L54.3,356.5L50.0,354.4Z"/>
    <path class="wtc-county" id="wtc-county-grand-traverse" data-county="Grand Traverse" d="M337.6,242.4L337.3,226.0L367.6,226.0L367.6,244.8L365.2,245.8L364.7,247.7L360.9,247.7L357.3,244.2L355.5,240.8L352.4,241.5L353.7,245.1L357.1,247.5L358.9,255.9L356.0,254.9L355.3,249.6L351.0,241.8L348.6,242.4L337.6,242.4Z"/>
    <path class="wtc-county" id="wtc-county-gratiot" data-county="Gratiot" d="M398.1,160.6L398.1,149.8L398.8,149.8L398.6,138.9L428.0,138.9L428.0,139.5L428.0,160.6L412.9,160.6L398.1,160.6Z"/>
    <path class="wtc-county" id="wtc-county-hillsdale" data-county="Hillsdale" d="M399.3,73.5L399.5,54.0L400.6,54.0L400.6,50.0L426.0,50.6L428.4,50.6L428.2,73.6L406.7,73.4L399.3,73.5Z"/>
    <path class="wtc-county" id="wtc-county-houghton" data-county="Houghton" d="M142.6,383.5L142.6,366.8L147.1,366.8L146.9,361.4L139.3,361.5L139.1,345.2L158.6,345.2L158.6,372.2L166.4,372.2L166.4,377.7L172.9,377.7L173.4,379.7L175.4,380.1L178.1,382.6L179.2,386.2L182.3,387.6L183.9,390.4L185.5,390.0L186.8,394.0L182.3,394.0L182.3,399.3L168.9,399.3L165.1,396.8L159.9,395.6L153.2,391.2L150.0,390.3L144.4,386.8L142.6,383.5Z"/>
    <path class="wtc-county" id="wtc-county-huron" data-county="Huron" d="M538.1,174.7L537.4,179.5L535.9,184.8L533.6,186.7L529.8,193.3L526.4,195.4L521.3,196.8L518.8,198.4L511.9,196.8L509.8,194.4L502.2,192.9L497.1,192.3L495.9,190.1L493.5,188.8L488.1,189.0L492.8,187.3L491.7,185.8L487.4,184.1L486.5,186.8L484.5,182.1L482.5,179.8L483.8,177.2L484.3,173.2L506.0,173.7L538.1,174.7Z"/>
    <path class="wtc-county" id="wtc-county-ingham" data-county="Ingham" d="M413.4,117.1L413.4,95.4L442.1,95.5L442.1,100.8L441.2,117.5L428.2,117.5L428.2,117.1L413.4,117.1Z"/>
    <path class="wtc-county" id="wtc-county-ionia" data-county="Ionia" d="M369.0,138.9L369.2,117.1L383.8,117.2L398.6,117.2L398.6,138.9L369.0,138.9Z"/>
    <path class="wtc-county" id="wtc-county-iosco" data-county="Iosco" d="M458.0,225.8L458.3,204.1L478.2,204.2L479.1,208.2L481.6,211.1L487.0,211.0L490.1,214.4L492.8,215.3L493.7,225.9L458.0,225.8Z"/>
    <path class="wtc-county" id="wtc-county-iron" data-county="Iron" d="M139.1,345.2L139.1,339.8L139.1,325.0L142.6,323.6L150.3,320.3L154.8,320.7L158.3,319.9L159.5,318.5L162.6,318.3L163.3,320.0L169.3,320.1L169.8,318.8L174.5,317.6L177.2,318.4L182.6,315.9L185.7,316.7L193.8,314.1L193.8,334.4L193.8,345.2L158.6,345.2L139.1,345.2Z"/>
    <path class="wtc-county" id="wtc-county-isabella" data-county="Isabella" d="M382.9,182.3L383.1,160.6L398.1,160.6L412.9,160.6L413.2,182.4L382.9,182.3Z"/>
    <path class="wtc-county" id="wtc-county-jackson" data-county="Jackson" d="M406.0,95.3L406.0,89.9L406.7,73.4L428.2,73.6L442.8,73.5L442.8,95.5L442.1,95.5L413.4,95.4L406.0,95.3Z"/>
    <path class="wtc-county" id="wtc-county-kalamazoo" data-county="Kalamazoo" d="M340.7,95.3L340.7,73.3L370.1,73.5L369.9,95.2L354.6,95.3L340.7,95.3Z"/>
    <path class="wtc-county" id="wtc-county-kalkaska" data-county="Kalkaska" d="M367.6,244.8L367.6,226.0L397.9,225.9L398.1,247.6L370.3,247.7L368.1,247.1L367.6,244.8Z"/>
    <path class="wtc-county" id="wtc-county-kent" data-county="Kent" d="M339.1,149.8L339.1,144.3L339.1,133.4L339.6,126.1L339.6,117.0L354.4,117.0L369.2,117.1L369.0,138.9L369.0,149.9L353.3,149.9L339.1,149.8Z"/>
    <path class="wtc-county" id="wtc-county-keweenaw" data-county="Keweenaw" d="M186.8,394.0L190.9,395.0L197.6,400.1L204.8,403.2L203.7,405.7L208.4,406.2L212.6,405.5L216.4,406.8L218.9,406.5L218.7,409.0L213.5,411.0L202.3,411.4L189.7,410.1L176.7,405.5L172.3,402.7L168.9,399.3L182.3,399.3L182.3,394.0L186.8,394.0ZM122.7,436.2L126.7,433.4L130.8,433.3L144.0,437.2L138.8,437.2L138.4,438.3L147.8,441.8L159.2,444.7L164.8,447.6L164.8,449.2L171.6,453.5L174.3,454.4L174.5,455.9L168.2,454.3L166.9,454.9L159.9,452.7L150.3,447.4L148.7,447.5L127.4,439.9L122.7,436.2Z"/>
    <path class="wtc-county" id="wtc-county-lake" data-county="Lake" d="M323.2,204.4L323.7,182.4L353.3,182.4L353.3,204.3L337.1,204.2L323.2,204.4Z"/>
    <path class="wtc-county" id="wtc-county-lapeer" data-county="Lapeer" d="M506.0,152.0L491.5,151.6L491.5,146.2L484.7,146.0L484.7,145.5L484.7,134.6L485.2,124.0L507.2,124.5L514.6,124.8L513.7,141.1L513.4,149.3L506.0,149.2L506.0,152.0Z"/>
    <path class="wtc-county" id="wtc-county-leelanau" data-county="Leelanau" d="M333.3,284.2L336.5,280.1L336.2,283.3L333.3,284.2ZM321.9,265.2L322.3,262.8L326.1,260.0L327.5,265.1L323.2,266.5L321.9,265.2ZM348.6,242.4L347.7,247.0L349.5,251.5L350.8,251.9L350.8,255.9L347.9,254.9L353.1,259.2L350.4,263.6L351.0,265.8L355.3,267.5L354.6,269.6L351.9,267.8L349.9,268.1L347.4,265.6L344.1,260.6L341.8,259.7L339.8,255.1L338.0,253.4L334.2,252.7L330.2,254.5L326.6,250.3L323.7,251.2L321.4,249.3L321.4,242.6L337.6,242.4L348.6,242.4ZM316.3,257.1L320.1,257.0L318.7,259.5L316.3,257.1Z"/>
    <path class="wtc-county" id="wtc-county-lenawee" data-county="Lenawee" d="M428.2,73.6L428.4,50.6L458.5,51.5L465.9,51.7L465.2,74.2L450.4,73.9L442.8,73.5L428.2,73.6Z"/>
    <path class="wtc-county" id="wtc-county-livingston" data-county="Livingston" d="M441.2,117.5L442.1,100.8L442.1,95.5L442.8,95.5L454.4,95.5L471.9,96.0L470.6,118.0L455.8,117.8L441.2,117.5Z"/>
    <path class="wtc-county" id="wtc-county-luce" data-county="Luce" d="M334.4,350.5L334.4,334.3L373.7,334.3L373.7,366.2L358.4,361.5L351.7,361.1L343.9,361.3L334.4,362.1L334.4,350.5Z"/>
    <path class="wtc-county" id="wtc-county-mackinac" data-county="Mackinac" d="M410.3,310.4L416.5,305.8L419.7,302.5L424.8,301.6L428.6,304.7L414.1,308.1L412.0,311.3L410.3,310.4ZM334.4,334.3L334.4,317.0L337.8,317.7L345.0,316.5L347.0,316.9L350.8,320.9L356.4,324.9L360.7,324.3L361.8,325.4L364.7,324.1L368.8,324.4L376.2,321.8L379.1,322.1L387.6,319.7L392.5,316.2L393.7,314.6L398.4,312.6L399.0,311.0L404.4,308.7L407.1,309.8L405.1,313.2L404.9,315.6L408.2,317.3L407.8,320.0L410.0,322.2L412.9,320.6L415.9,321.0L419.2,318.4L427.5,314.7L430.4,316.2L443.9,317.6L436.0,318.0L436.0,323.4L428.2,323.4L428.2,328.9L381.5,328.9L381.3,334.3L373.7,334.3L334.4,334.3Z"/>
    <path class="wtc-county" id="wtc-county-macomb" data-county="Macomb" d="M507.2,124.5L508.3,96.9L521.5,97.2L521.3,101.7L523.8,104.5L527.1,104.3L526.7,106.7L524.7,108.1L526.2,109.9L531.8,111.7L530.3,114.0L529.8,125.1L514.6,124.8L507.2,124.5Z"/>
    <path class="wtc-county" id="wtc-county-manistee" data-county="Manistee" d="M311.3,226.4L309.3,215.6L304.6,209.6L301.9,205.2L323.2,204.4L337.1,204.2L337.3,226.0L311.3,226.4Z"/>
    <path class="wtc-county" id="wtc-county-marquette" data-county="Marquette" d="M193.8,345.2L193.8,334.4L225.0,334.4L225.0,318.1L240.4,318.1L248.3,318.1L248.5,328.9L256.1,328.9L256.1,349.9L247.4,349.5L241.6,350.3L239.1,351.8L239.5,356.0L235.3,356.8L232.1,359.5L230.8,362.0L227.0,364.6L226.3,367.9L221.4,371.3L218.0,370.7L216.2,372.8L212.4,374.6L210.6,374.2L207.2,375.8L198.3,376.0L198.3,366.8L201.6,366.8L201.6,361.4L193.8,361.4L193.8,345.2Z"/>
    <path class="wtc-county" id="wtc-county-mason" data-county="Mason" d="M301.9,205.2L299.2,201.5L294.7,198.7L293.8,197.0L297.0,192.2L299.0,185.0L299.0,182.7L323.7,182.4L323.2,204.4L301.9,205.2Z"/>
    <path class="wtc-county" id="wtc-county-mecosta" data-county="Mecosta" d="M353.3,182.4L353.3,160.8L383.1,160.6L382.9,182.3L353.3,182.4Z"/>
    <path class="wtc-county" id="wtc-county-menominee" data-county="Menominee" d="M210.6,301.6L212.9,300.9L214.6,298.6L212.0,297.9L215.1,293.8L213.3,290.1L214.0,287.6L212.6,285.5L209.7,283.6L210.4,281.6L208.8,280.3L210.4,277.8L216.4,278.3L220.0,280.9L222.5,279.5L222.9,277.7L220.5,275.1L217.1,268.8L217.6,267.2L220.5,265.7L222.3,263.2L226.5,262.4L225.2,264.2L234.4,273.6L238.9,279.6L243.1,283.1L246.9,290.9L243.1,291.0L243.1,312.6L240.4,312.6L240.4,318.1L225.0,318.1L225.0,312.6L220.0,312.6L220.0,301.7L210.6,301.6Z"/>
    <path class="wtc-county" id="wtc-county-midland" data-county="Midland" d="M413.2,182.4L412.9,160.6L428.0,160.6L428.0,161.6L440.3,161.6L440.5,167.0L440.5,183.1L428.2,183.3L428.0,182.3L413.2,182.4Z"/>
    <path class="wtc-county" id="wtc-county-missaukee" data-county="Missaukee" d="M367.6,226.0L367.4,220.6L367.6,204.3L383.1,204.2L397.7,204.1L397.5,221.3L397.9,225.9L367.6,226.0Z"/>
    <path class="wtc-county" id="wtc-county-monroe" data-county="Monroe" d="M465.2,74.2L465.9,51.7L485.2,52.3L487.0,52.8L485.8,57.0L489.7,60.9L492.1,61.5L493.7,65.0L496.6,65.2L498.0,67.3L501.5,69.4L501.8,70.8L494.6,74.9L479.8,74.3L465.2,74.2Z"/>
    <path class="wtc-county" id="wtc-county-montcalm" data-county="Montcalm" d="M353.3,160.8L353.3,149.9L369.0,149.9L369.0,138.9L398.6,138.9L398.8,149.8L398.1,149.8L398.1,160.6L383.1,160.6L353.3,160.8Z"/>
    <path class="wtc-county" id="wtc-county-montmorency" data-county="Montmorency" d="M428.2,268.9L427.7,247.4L458.0,247.5L457.8,258.4L458.5,258.4L458.5,269.1L435.6,268.9L428.2,268.9Z"/>
    <path class="wtc-county" id="wtc-county-muskegon" data-county="Muskegon" d="M297.2,161.0L298.8,156.3L301.2,151.3L309.1,138.9L331.7,138.9L331.7,144.4L339.1,144.3L339.1,149.8L323.7,149.8L323.4,160.7L297.2,161.0Z"/>
    <path class="wtc-county" id="wtc-county-newaygo" data-county="Newaygo" d="M323.4,160.7L323.7,149.8L339.1,149.8L353.3,149.9L353.3,160.8L353.3,182.4L323.7,182.4L323.4,160.7Z"/>
    <path class="wtc-county" id="wtc-county-oakland" data-county="Oakland" d="M485.2,124.0L485.2,123.8L470.4,123.4L470.6,118.0L471.9,96.0L478.9,96.2L508.3,96.9L507.2,124.5L485.2,124.0Z"/>
    <path class="wtc-county" id="wtc-county-oceana" data-county="Oceana" d="M299.0,182.7L297.2,178.2L292.3,172.7L292.3,170.1L297.2,161.0L323.4,160.7L323.7,182.4L299.0,182.7Z"/>
    <path class="wtc-county" id="wtc-county-ogemaw" data-county="Ogemaw" d="M427.7,225.7L428.0,204.0L440.5,204.1L458.3,204.1L458.0,225.8L427.7,225.7Z"/>
    <path class="wtc-county" id="wtc-county-ontonagon" data-county="Ontonagon" d="M83.0,366.8L84.5,366.8L84.5,356.0L92.2,356.0L92.2,350.6L115.7,350.6L115.7,339.8L139.1,339.8L139.1,345.2L139.3,361.5L146.9,361.4L147.1,366.8L142.6,366.8L142.6,383.5L139.3,381.3L129.6,380.5L122.9,375.5L111.2,371.4L106.3,371.6L99.8,370.1L96.4,371.1L89.0,370.1L83.0,366.8Z"/>
    <path class="wtc-county" id="wtc-county-osceola" data-county="Osceola" d="M353.3,204.3L353.3,182.4L382.9,182.3L383.1,204.2L367.6,204.3L353.3,204.3Z"/>
    <path class="wtc-county" id="wtc-county-oscoda" data-county="Oscoda" d="M427.7,247.4L427.7,225.7L458.0,225.8L458.0,247.5L427.7,247.4Z"/>
    <path class="wtc-county" id="wtc-county-otsego" data-county="Otsego" d="M397.5,263.8L397.5,258.4L398.1,247.6L427.7,247.4L428.2,268.9L405.1,269.1L405.1,263.7L397.5,263.8Z"/>
    <path class="wtc-county" id="wtc-county-ottawa" data-county="Ottawa" d="M309.1,138.9L311.6,132.5L312.9,122.7L312.9,116.9L339.6,117.0L339.6,126.1L339.1,133.4L339.1,144.3L331.7,144.4L331.7,138.9L309.1,138.9Z"/>
    <path class="wtc-county" id="wtc-county-presque-isle" data-county="Presque Isle" d="M438.3,295.7L435.2,295.6L435.4,274.1L435.6,268.9L458.5,269.1L489.2,269.4L487.6,271.8L489.7,273.3L487.2,274.6L482.5,278.8L476.0,278.5L468.3,282.3L463.2,282.7L456.7,286.8L454.9,287.3L447.5,287.1L443.7,288.5L443.0,291.6L438.3,295.7Z"/>
    <path class="wtc-county" id="wtc-county-roscommon" data-county="Roscommon" d="M397.9,225.9L397.5,221.3L397.7,204.1L412.9,204.0L428.0,204.0L427.7,225.7L421.5,225.9L397.9,225.9Z"/>
    <path class="wtc-county" id="wtc-county-saginaw" data-county="Saginaw" d="M440.5,167.0L440.3,161.6L428.0,161.6L428.0,160.6L428.0,139.5L455.3,139.8L455.3,145.2L469.9,145.3L470.1,151.8L469.9,161.4L462.3,161.4L462.5,164.1L447.7,164.2L447.9,166.9L440.5,167.0Z"/>
    <path class="wtc-county" id="wtc-county-st-clair" data-county="St. Clair" d="M513.7,141.1L514.6,124.8L529.8,125.1L530.3,114.0L531.8,111.7L533.8,112.0L537.0,110.6L533.6,107.2L531.4,106.4L533.4,104.9L533.2,101.4L535.9,103.6L539.2,103.4L543.3,107.0L544.2,110.6L546.9,116.6L546.0,119.1L547.5,126.9L550.0,129.4L549.6,132.0L545.5,137.9L544.6,142.0L513.7,141.1Z"/>
    <path class="wtc-county" id="wtc-county-st-joseph" data-county="St. Joseph" d="M340.7,73.3L340.9,56.4L339.1,53.9L347.2,53.9L370.3,54.0L370.1,73.5L340.7,73.3Z"/>
    <path class="wtc-county" id="wtc-county-sanilac" data-county="Sanilac" d="M506.0,152.0L506.0,149.2L513.4,149.3L513.7,141.1L544.6,142.0L543.3,145.6L542.4,158.8L538.6,168.4L538.1,174.7L506.0,173.7L506.9,152.0L506.0,152.0Z"/>
    <path class="wtc-county" id="wtc-county-schoolcraft" data-county="Schoolcraft" d="M334.4,350.5L303.3,350.6L303.3,339.7L287.6,339.8L287.6,328.9L295.4,328.9L295.4,312.5L297.4,312.5L297.2,303.8L300.1,306.1L303.3,305.9L305.3,309.7L305.7,313.1L308.6,315.4L313.8,316.7L316.0,316.1L321.4,316.8L326.1,315.9L331.3,313.9L330.8,315.8L334.4,317.0L334.4,334.3L334.4,350.5Z"/>
    <path class="wtc-county" id="wtc-county-shiawassee" data-county="Shiawassee" d="M428.0,139.5L428.0,138.9L428.2,117.5L441.2,117.5L455.8,117.8L455.3,139.8L428.0,139.5Z"/>
    <path class="wtc-county" id="wtc-county-tuscola" data-county="Tuscola" d="M469.7,169.1L469.9,161.4L470.1,151.8L469.9,145.3L484.7,145.5L484.7,146.0L491.5,146.2L491.5,151.6L506.0,152.0L506.9,152.0L506.0,173.7L484.3,173.2L483.8,177.2L482.5,175.7L479.3,175.7L473.1,169.2L469.7,169.1Z"/>
    <path class="wtc-county" id="wtc-county-van-buren" data-county="Van Buren" d="M308.9,95.2L307.5,91.4L303.3,84.2L312.0,84.2L312.0,73.5L340.7,73.3L340.7,95.3L308.9,95.2Z"/>
    <path class="wtc-county" id="wtc-county-washtenaw" data-county="Washtenaw" d="M442.8,95.5L442.8,73.5L450.4,73.9L465.2,74.2L479.8,74.3L479.6,85.4L478.9,96.2L471.9,96.0L454.4,95.5L442.8,95.5Z"/>
    <path class="wtc-county" id="wtc-county-wayne" data-county="Wayne" d="M478.9,96.2L479.6,85.4L479.8,74.3L494.6,74.9L501.8,70.8L501.8,73.1L505.1,74.5L505.8,76.8L505.4,83.7L509.4,88.9L516.1,90.2L519.9,93.1L521.5,97.2L508.3,96.9L478.9,96.2Z"/>
    <path class="wtc-county" id="wtc-county-wexford" data-county="Wexford" d="M337.3,226.0L337.1,204.2L353.3,204.3L367.6,204.3L367.4,220.6L367.6,226.0L337.3,226.0Z"/>
  </g>
</svg>