<?xml version="1.0" encoding="UTF-8"?>
<svg xmlns="http://www.w3.org/2000/svg" viewBox="0 0 600 461" id="wtc-state-map-MI" role="img" aria-label="mi county map">
  <title>mi Counties</title>
  <g class="wtc-counties">
    <path class="wtc-county" id="wtc-county-alcona" data-county="Alcona" d="M458.0,213.9L458.0,235.7L493.7,235.5L493.7,230.2L495.5,226.6L496.4,222.8L494.8,220.8L495.0,217.9L493.5,213.8L458.0,213.9Z"/>
    <path class="wtc-county" id="wtc-county-alger" data-county="Alger" d="M256.1,111.5L256.1,132.5L287.6,132.5L287.6,121.6L303.3,121.7L303.3,110.8L334.4,110.9L334.4,99.3L319.9,101.5L317.4,100.4L304.1,106.3L295.2,109.6L289.3,113.5L285.5,112.1L286.9,109.1L285.3,107.4L281.7,108.5L283.3,111.3L282.4,115.0L280.4,113.0L276.8,112.6L275.0,115.1L270.7,114.9L268.0,113.4L264.9,109.5L262.4,109.1L256.1,111.5Z"/>
    <path class="wtc-county" id="wtc-county-allegan" data-county="Allegan" d="M312.9,344.5L313.1,347.5L311.8,352.2L312.0,355.3L310.4,362.4L308.9,366.2L340.7,366.2L354.6,366.1L354.4,344.4L339.6,344.4L312.9,344.5Z"/>
    <path class="wtc-county" id="wtc-county-alpena" data-county="Alpena" d="M458.5,192.3L458.5,203.0L457.8,203.1L458.0,213.9L493.5,213.8L493.5,212.4L488.8,211.0L486.1,208.6L485.2,202.7L488.5,200.5L492.1,202.4L496.6,203.5L493.5,196.4L491.0,194.7L489.2,192.0L458.5,192.3Z"/>
    <path class="wtc-county" id="wtc-county-antrim" data-county="Antrim" d="M364.3,192.0L365.6,200.6L363.8,209.2L360.9,213.7L364.7,213.7L365.2,215.6L367.6,216.6L368.1,214.3L370.3,213.7L398.1,213.8L397.5,203.1L397.5,197.6L374.6,197.6L374.6,192.1L364.3,192.0Z"/>
    <path class="wtc-county" id="wtc-county-arenac" data-county="Arenac" d="M440.5,257.3L440.5,267.6L448.2,267.6L448.2,273.0L456.7,273.0L458.7,270.0L461.6,268.1L471.0,267.8L471.0,265.2L472.8,264.2L477.1,263.9L478.2,257.2L458.3,257.3L440.5,257.3Z"/>
    <path class="wtc-county" id="wtc-county-baraga" data-county="Baraga" d="M172.9,83.8L166.4,83.8L166.4,89.2L158.6,89.2L158.6,116.2L193.8,116.2L193.8,100.0L201.6,100.0L201.6,94.6L198.3,94.6L198.3,85.4L195.8,85.0L190.0,85.9L183.2,90.4L186.6,86.3L189.3,85.0L192.0,82.1L185.7,84.4L179.2,88.7L177.6,88.0L177.0,90.3L172.5,95.0L170.0,95.2L172.0,93.3L170.7,90.5L172.9,83.8Z"/>
    <path class="wtc-county" id="wtc-county-barry" data-county="Barry" d="M354.4,344.4L354.6,366.1L369.9,366.2L384.0,366.1L383.8,344.3L369.2,344.3L354.4,344.4Z"/>
    <path class="wtc-county" id="wtc-county-bay" data-county="Bay" d="M440.5,278.3L440.5,294.4L447.9,294.5L447.7,297.2L462.5,297.3L462.3,300.0L469.9,300.0L469.7,292.3L467.9,291.0L463.4,289.9L462.3,287.8L460.3,289.6L456.7,287.9L453.8,283.0L455.6,280.7L456.7,273.0L448.2,273.0L448.2,267.6L440.5,267.6L440.5,278.3Z"/>
    <path class="wtc-county" id="wtc-county-benzie" data-county="Benzie" d="M321.4,218.8L320.5,221.1L316.0,221.9L310.0,224.2L309.8,226.0L312.0,230.3L311.3,235.1L337.3,235.4L337.6,219.1L321.4,218.8Z"/>
    <path class="wtc-county" id="wtc-county-berrien" data-county="Berrien" d="M274.5,407.4L293.2,407.5L311.8,407.5L312.0,388.0L312.0,377.2L303.3,377.2L295.6,385.1L287.3,399.1L281.3,403.7L274.5,407.4Z"/>
    <path class="wtc-county" id="wtc-county-branch" data-county="Branch" d="M370.1,388.0L370.3,407.5L376.2,407.5L399.5,407.5L399.3,387.9L370.1,388.0Z"/>
    <path class="wtc-county" id="wtc-county-calhoun" data-county="Calhoun" d="M369.9,366.2L370.1,388.0L399.3,387.9L406.7,388.0L406.0,371.5L406.0,366.1L384.0,366.1L369.9,366.2Z"/>
    <path class="wtc-county" id="wtc-county-cass" data-county="Cass" d="M311.8,407.5L322.1,407.4L339.1,407.5L340.9,405.0L340.7,388.1L312.0,388.0L311.8,407.5Z"/>
    <path class="wtc-county" id="wtc-county-charlevoix" data-county="Charlevoix" d="M382.4,182.0L375.5,182.7L371.4,185.2L369.2,185.4L365.4,188.0L364.3,192.0L374.6,192.1L374.6,197.6L397.5,197.6L405.1,197.7L405.1,192.3L405.3,186.8L390.7,186.7L388.5,187.9L385.6,184.0L382.4,184.0L382.4,182.0ZM364.9,154.2L363.8,156.3L366.5,155.2L364.9,154.2ZM355.7,153.1L355.3,155.1L359.6,157.1L360.5,155.2L355.7,153.1ZM349.2,167.6L353.5,169.2L357.8,166.8L356.9,162.4L357.1,157.8L353.1,157.4L352.8,160.5L351.5,161.3L350.8,165.0L349.2,167.6ZM344.8,158.9L345.0,161.3L346.5,161.4L347.7,158.5L344.8,158.9Z"/>
    <path class="wtc-county" id="wtc-county-cheboygan" data-county="Cheboygan" d="M405.3,186.8L405.1,192.3L428.2,192.5L435.6,192.5L435.4,187.3L435.2,165.8L438.3,165.8L430.4,163.4L427.5,164.0L425.1,163.1L422.1,164.2L416.3,161.1L406.2,157.1L405.3,155.7L405.3,186.8Z"/>
    <path class="wtc-county" id="wtc-county-chippewa" data-county="Chippewa" d="M373.7,95.2L373.7,127.1L381.3,127.1L381.5,132.6L428.2,132.6L428.2,138.0L436.0,138.0L436.0,143.4L443.9,143.8L450.0,145.0L456.0,145.1L458.5,144.4L465.4,146.7L472.4,145.8L478.4,147.9L481.6,146.9L483.8,143.4L480.2,141.8L477.1,136.9L474.4,136.1L465.2,136.8L462.1,136.0L465.7,141.3L463.9,142.7L460.7,140.8L458.9,142.9L454.4,140.5L451.7,140.4L446.4,136.4L449.3,134.2L445.0,133.2L443.2,131.2L439.9,131.0L438.7,132.1L435.4,131.4L437.2,128.0L443.7,127.8L443.4,122.7L441.9,116.3L444.1,110.9L443.0,109.3L436.9,109.1L435.2,111.2L432.7,111.6L427.5,110.6L423.3,111.9L421.0,115.4L419.4,115.0L413.8,116.5L414.1,114.6L411.6,112.2L408.7,112.0L401.1,114.6L397.2,113.1L393.9,113.2L392.5,111.8L390.5,112.7L386.9,112.3L384.9,109.5L386.7,108.5L386.2,106.1L386.7,98.9L391.6,94.3L384.5,95.1L377.7,94.7L373.7,95.2Z"/>
    <path class="wtc-county" id="wtc-county-clare" data-county="Clare" d="M383.1,257.2L382.9,279.1L413.2,279.0L412.9,257.4L397.7,257.3L383.1,257.2Z"/>
    <path class="wtc-county" id="wtc-county-clinton" data-county="Clinton" d="M398.6,322.5L398.6,344.3L413.4,344.3L428.2,344.3L428.2,343.9L428.0,322.6L398.6,322.5Z"/>
    <path class="wtc-county" id="wtc-county-crawford" data-county="Crawford" d="M398.1,213.8L397.9,235.5L421.5,235.5L427.7,235.8L427.7,214.0L398.1,213.8Z"/>
    <path class="wtc-county" id="wtc-county-delta" data-county="Delta" d="M282.8,166.4L281.5,166.8L284.6,169.1L285.5,171.0L287.3,169.8L282.8,166.4ZM240.4,143.4L240.4,148.8L243.1,148.8L243.1,170.5L246.9,170.5L252.8,163.6L259.7,160.7L259.1,160.0L260.2,153.6L262.4,152.5L264.2,154.3L265.1,157.9L264.4,160.8L265.8,162.9L266.9,161.5L273.6,159.8L274.8,156.8L277.7,154.3L277.0,151.5L285.5,152.8L289.6,148.8L292.3,149.3L292.9,151.6L289.6,156.3L286.7,156.1L286.4,158.2L284.0,159.9L283.7,161.7L281.0,163.2L283.1,165.3L287.6,167.0L286.7,163.8L289.3,163.3L289.3,160.9L292.3,160.7L293.6,158.2L297.2,157.6L297.4,148.9L295.4,148.9L295.4,132.6L287.6,132.5L256.1,132.5L248.5,132.5L248.3,143.4L240.4,143.4Z"/>
    <path class="wtc-county" id="wtc-county-dickinson" data-county="Dickinson" d="M193.8,147.3L196.3,151.0L192.4,153.8L194.5,155.5L197.4,156.1L201.2,155.2L203.2,157.5L208.6,157.8L210.6,159.8L220.0,159.7L220.0,148.8L225.0,148.8L225.0,143.3L225.0,127.0L193.8,127.0L193.8,147.3Z"/>
    <path class="wtc-county" id="wtc-county-eaton" data-county="Eaton" d="M383.8,344.3L384.0,366.1L406.0,366.1L413.4,366.1L413.4,344.3L398.6,344.3L383.8,344.3Z"/>
    <path class="wtc-county" id="wtc-county-emmet" data-county="Emmet" d="M405.3,155.7L402.6,155.6L401.1,158.2L387.6,157.4L391.6,158.9L392.1,160.5L387.6,164.2L384.7,165.0L381.1,169.0L382.9,175.1L386.0,177.7L393.4,178.6L393.7,180.4L386.5,182.4L382.4,182.0L382.4,184.0L385.6,184.0L388.5,187.9L390.7,186.7L405.3,186.8L405.3,155.7Z"/>
    <path class="wtc-county" id="wtc-county-genesee" data-county="Genesee" d="M469.9,316.1L455.3,316.2L455.3,321.7L455.8,343.6L470.6,343.5L470.4,338.0L485.2,337.7L485.2,337.4L484.7,326.8L484.7,316.0L469.9,316.1Z"/>
    <path class="wtc-county" id="wtc-county-gladwin" data-county="Gladwin" d="M412.9,257.4L413.2,279.0L428.0,279.1L428.2,278.2L440.5,278.3L440.5,267.6L440.5,257.3L428.0,257.4L412.9,257.4Z"/>
    <path class="wtc-county" id="wtc-county-gogebic" data-county="Gogebic" d="M50.0,107.1L51.3,109.2L54.0,108.8L56.3,110.1L62.3,111.0L68.6,120.0L68.4,121.4L80.5,123.7L132.8,133.8L139.1,136.4L139.1,121.7L115.7,121.6L115.7,110.8L92.2,110.8L92.2,105.4L84.5,105.4L84.5,94.6L83.0,94.6L74.2,100.3L65.7,102.1L57.0,104.8L54.3,104.9L50.0,107.1Z"/>
    <path class="wtc-county" id="wtc-county-grand-traverse" data-county="Grand Traverse" d="M337.6,219.1L337.3,235.4L367.6,235.4L367.6,216.6L365.2,215.6L364.7,213.7L360.9,213.7L357.3,217.2L355.5,220.7L352.4,219.9L353.7,216.3L357.1,214.0L358.9,205.5L356.0,206.6L355.3,211.8L351.0,219.6L348.6,219.0L337.6,219.1Z"/>
    <path class="wtc-county" id="wtc-county-gratiot" data-county="Gratiot" d="M398.1,300.8L398.1,311.7L398.8,311.7L398.6,322.5L428.0,322.6L428.0,321.9L428.0,300.8L412.9,300.8L398.1,300.8Z"/>
    <path class="wtc-county" id="wtc-county-hillsdale" data-county="Hillsdale" d="M399.3,387.9L399.5,407.5L400.6,407.4L400.6,411.4L426.0,410.8L428.4,410.8L428.2,387.9L406.7,388.0L399.3,387.9Z"/>
    <path class="wtc-county" id="wtc-county-houghton" data-county="Houghton" d="M142.6,77.9L142.6,94.7L147.1,94.6L146.9,100.0L139.3,99.9L139.1,116.2L158.6,116.2L158.6,89.2L166.4,89.2L166.4,83.8L172.9,83.8L173.4,81.7L175.4,81.4L178.1,78.8L179.2,75.2L182.3,73.8L183.9,71.0L185.5,71.5L186.8,67.4L182.3,67.4L182.3,62.1L168.9,62.1L165.1,64.6L159.9,65.8L153.2,70.2L150.0,71.1L144.4,74.6L142.6,77.9Z"/>
    <path class="wtc-county" id="wtc-county-huron" data-county="Huron" d="M538.1,286.8L537.4,281.9L535.9,276.7L533.6,274.7L529.8,268.1L526.4,266.0L521.3,264.6L518.8,263.0L511.9,264.6L509.8,267.1L502.2,268.6L497.1,269.1L495.9,271.3L493.5,272.6L488.1,272.4L492.8,274.1L491.7,275.6L487.4,277.3L486.5,274.6L484.5,279.3L482.5,281.7L483.8,284.2L484.3,288.2L506.0,287.7L538.1,286.8Z"/>
    <path class="wtc-county" id="wtc-county-ingham" data-county="Ingham" d="M413.4,344.3L413.4,366.1L442.1,365.9L442.1,360.6L441.2,343.9L428.2,343.9L428.2,344.3L413.4,344.3Z"/>
    <path class="wtc-county" id="wtc-county-ionia" data-county="Ionia" d="M369.0,322.5L369.2,344.3L383.8,344.3L398.6,344.3L398.6,322.5L369.0,322.5Z"/>
    <path class="wtc-county" id="wtc-county-iosco" data-county="Iosco" d="M458.0,235.7L458.3,257.3L478.2,257.2L479.1,253.3L481.6,250.3L487.0,250.4L490.1,247.0L492.8,246.2L493.7,235.5L458.0,235.7Z"/>
    <path class="wtc-county" id="wtc-county-iron" data-county="Iron" d="M139.1,116.2L139.1,121.7L139.1,136.4L142.6,137.8L150.3,141.1L154.8,140.7L158.3,141.5L159.5,142.9L162.6,143.1L163.3,141.4L169.3,141.3L169.8,142.7L174.5,143.8L177.2,143.0L182.6,145.5L185.7,144.8L193.8,147.3L193.8,127.0L193.8,116.2L158.6,116.2L139.1,116.2Z"/>
    <path class="wtc-county" id="wtc-county-isabella" data-county="Isabella" d="M382.9,279.1L383.1,300.8L398.1,300.8L412.9,300.8L413.2,279.0L382.9,279.1Z"/>
    <path class="wtc-county" id="wtc-county-jackson" data-county="Jackson" d="M406.0,366.1L406.0,371.5L406.7,388.0L428.2,387.9L442.8,388.0L442.8,365.9L442.1,365.9L413.4,366.1L406.0,366.1Z"/>
    <path class="wtc-county" id="wtc-county-kalamazoo" data-county="Kalamazoo" d="M340.7,366.2L340.7,388.1L370.1,388.0L369.9,366.2L354.6,366.1L340.7,366.2Z"/>
    <path class="wtc-county" id="wtc-county-kalkaska" data-county="Kalkaska" d="M367.6,216.6L367.6,235.4L397.9,235.5L398.1,213.8L370.3,213.7L368.1,214.3L367.6,216.6Z"/>
    <path class="wtc-county" id="wtc-county-kent" data-county="Kent" d="M339.1,311.6L339.1,317.1L339.1,328.0L339.6,335.3L339.6,344.4L354.4,344.4L369.2,344.3L369.0,322.5L369.0,311.6L353.3,311.6L339.1,311.6Z"/>
    <path class="wtc-county" id="wtc-county-keweenaw" data-county="Keweenaw" d="M186.8,67.4L190.9,66.4L197.6,61.3L204.8,58.3L203.7,55.7L208.4,55.2L212.6,55.9L216.4,54.6L218.9,54.9L218.7,52.5L213.5,50.4L202.3,50.0L189.7,51.3L176.7,55.9L172.3,58.7L168.9,62.1L182.3,62.1L182.3,67.4L186.8,67.4ZM122.7,25.2L126.7,28.0L130.8,28.1L144.0,24.2L138.8,24.2L138.4,23.2L147.8,19.6L159.2,16.8L164.8,13.8L164.8,12.2L171.6,7.9L174.3,7.0L174.5,5.5L168.2,7.1L166.9,6.5L159.9,8.8L150.3,14.0L148.7,13.9L127.4,21.5L122.7,25.2Z"/>
    <path class="wtc-county" id="wtc-county-lake" data-county="Lake" d="M323.2,257.0L323.7,279.0L353.3,279.0L353.3,257.1L337.1,257.2L323.2,257.0Z"/>
    <path class="wtc-county" id="wtc-county-lapeer" data-county="Lapeer" d="M506.0,309.5L491.5,309.8L491.5,315.2L484.7,315.4L484.7,316.0L484.7,326.8L485.2,337.4L507.2,336.9L514.6,336.6L513.7,320.3L513.4,312.2L506.0,312.2L506.0,309.5Z"/>
    <path class="wtc-county" id="wtc-county-leelanau" data-county="Leelanau" d="M333.3,177.2L336.5,181.3L336.2,178.2L333.3,177.2ZM321.9,196.2L322.3,198.7L326.1,201.5L327.5,196.3L323.2,195.0L321.9,196.2ZM348.6,219.0L347.7,214.4L349.5,209.9L350.8,209.5L350.8,205.5L347.9,206.6L353.1,202.2L350.4,197.9L351.0,195.6L355.3,193.9L354.6,191.8L351.9,193.7L349.9,193.3L347.4,195.8L344.1,200.9L341.8,201.7L339.8,206.3L338.0,208.1L334.2,208.8L330.2,206.9L326.6,211.2L323.7,210.2L321.4,212.1L321.4,218.8L337.6,219.1L348.6,219.0ZM316.3,204.3L320.1,204.5L318.7,201.9L316.3,204.3Z"/>
    <path class="wtc-county" id="wtc-county-lenawee" data-county="Lenawee" d="M428.2,387.9L428.4,410.8L458.5,409.9L465.9,409.7L465.2,387.3L450.4,387.5L442.8,388.0L428.2,387.9Z"/>
    <path class="wtc-county" id="wtc-county-livingston" data-county="Livingston" d="M441.2,343.9L442.1,360.6L442.1,365.9L442.8,365.9L454.4,366.0L471.9,365.5L470.6,343.5L455.8,343.6L441.2,343.9Z"/>
    <path class="wtc-county" id="wtc-county-luce" data-county="Luce" d="M334.4,110.9L334.4,127.1L373.7,127.1L373.7,95.2L358.4,99.9L351.7,100.3L343.9,100.1L334.4,99.3L334.4,110.9Z"/>
    <path class="wtc-county" id="wtc-county-mackinac" data-county="Mackinac" d="M410.3,151.0L416.5,155.6L419.7,158.9L424.8,159.8L428.6,156.7L414.1,153.3L412.0,150.1L410.3,151.0ZM334.4,127.1L334.4,144.4L337.8,143.7L345.0,144.9L347.0,144.5L350.8,140.6L356.4,136.5L360.7,137.1L361.8,136.1L364.7,137.3L368.8,137.0L376.2,139.7L379.1,139.3L387.6,141.8L392.5,145.2L393.7,146.8L398.4,148.8L399.0,150.4L404.4,152.7L407.1,151.6L405.1,148.2L404.9,145.8L408.2,144.1L407.8,141.4L410.0,139.2L412.9,140.8L415.9,140.4L419.2,143.0L427.5,146.7L430.4,145.2L443.9,143.8L436.0,143.4L436.0,138.0L428.2,138.0L428.2,132.6L381.5,132.6L381.3,127.1L373.7,127.1L334.4,127.1Z"/>
    <path class="wtc-county" id="wtc-county-macomb" data-county="Macomb" d="M507.2,336.9L508.3,364.5L521.5,364.2L521.3,359.7L523.8,356.9L527.1,357.1L526.7,354.7L524.7,353.3L526.2,351.6L531.8,349.7L530.3,347.4L529.8,336.3L514.6,336.6L507.2,336.9Z"/>
    <path class="wtc-county" id="wtc-county-manistee" data-county="Manistee" d="M311.3,235.1L309.3,245.9L304.6,251.9L301.9,256.3L323.2,257.0L337.1,257.2L337.3,235.4L311.3,235.1Z"/>
    <path class="wtc-county" id="wtc-county-marquette" data-county="Marquette" d="M193.8,116.2L193.8,127.0L225.0,127.0L225.0,143.3L240.4,143.4L248.3,143.4L248.5,132.5L256.1,132.5L256.1,111.5L247.4,112.0L241.6,111.2L239.1,109.6L239.5,105.4L235.3,104.6L232.1,102.0L230.8,99.4L227.0,96.8L226.3,93.5L221.4,90.2L218.0,90.7L216.2,88.7L212.4,86.8L210.6,87.2L207.2,85.6L198.3,85.4L198.3,94.6L201.6,94.6L201.6,100.0L193.8,100.0L193.8,116.2Z"/>
    <path class="wtc-county" id="wtc-county-mason" data-county="Mason" d="M301.9,256.3L299.2,260.0L294.7,262.7L293.8,264.4L297.0,269.3L299.0,276.5L299.0,278.7L323.7,279.0L323.2,257.0L301.9,256.3Z"/>
    <path class="wtc-county" id="wtc-county-mecosta" data-county="Mecosta" d="M353.3,279.0L353.3,300.7L383.1,300.8L382.9,279.1L353.3,279.0Z"/>
    <path class="wtc-county" id="wtc-county-menominee" data-county="Menominee" d="M210.6,159.8L212.9,160.5L214.6,162.9L212.0,163.5L215.1,167.6L213.3,171.3L214.0,173.8L212.6,176.0L209.7,177.8L210.4,179.8L208.8,181.1L210.4,183.6L216.4,183.1L220.0,180.6L222.5,181.9L222.9,183.7L220.5,186.3L217.1,192.6L217.6,194.2L220.5,195.7L222.3,198.2L226.5,199.0L225.2,197.2L234.4,187.9L238.9,181.9L243.1,178.4L246.9,170.5L243.1,170.5L243.1,148.8L240.4,148.8L240.4,143.4L225.0,143.3L225.0,148.8L220.0,148.8L220.0,159.7L210.6,159.8Z"/>
    <path class="wtc-county" id="wtc-county-midland" data-county="Midland" d="M413.2,279.0L412.9,300.8L428.0,300.8L428.0,299.9L440.3,299.8L440.5,294.4L440.5,278.3L428.2,278.2L428.0,279.1L413.2,279.0Z"/>
    <path class="wtc-county" id="wtc-county-missaukee" data-county="Missaukee" d="M367.6,235.4L367.4,240.9L367.6,257.1L383.1,257.2L397.7,257.3L397.5,240.2L397.9,235.5L367.6,235.4Z"/>
    <path class="wtc-county" id="wtc-county-monroe" data-county="Monroe" d="M465.2,387.3L465.9,409.7L485.2,409.1L487.0,408.6L485.8,404.4L489.7,400.5L492.1,399.9L493.7,396.4L496.6,396.2L498.0,394.1L501.5,392.0L501.8,390.6L494.6,386.6L479.8,387.1L465.2,387.3Z"/>
    <path class="wtc-county" id="wtc-county-montcalm" data-county="Montcalm" d="M353.3,300.7L353.3,311.6L369.0,311.6L369.0,322.5L398.6,322.5L398.8,311.7L398.1,311.7L398.1,300.8L383.1,300.8L353.3,300.7Z"/>
    <path class="wtc-county" id="wtc-county-montmorency" data-county="Montmorency" d="M428.2,192.5L427.7,214.0L458.0,213.9L457.8,203.1L458.5,203.0L458.5,192.3L435.6,192.5L428.2,192.5Z"/>
    <path class="wtc-county" id="wtc-county-muskegon" data-county="Muskegon" d="M297.2,300.4L298.8,305.1L301.2,310.2L309.1,322.5L331.7,322.5L331.7,317.0L339.1,317.1L339.1,311.6L323.7,311.6L323.4,300.7L297.2,300.4Z"/>
    <path class="wtc-county" id="wtc-county-newaygo" data-county="Newaygo" d="M323.4,300.7L323.7,311.6L339.1,311.6L353.3,311.6L353.3,300.7L353.3,279.0L323.7,279.0L323.4,300.7Z"/>
    <path class="wtc-county" id="wtc-county-oakland" data-county="Oakland" d="M485.2,337.4L485.2,337.7L470.4,338.0L470.6,343.5L471.9,365.5L478.9,365.3L508.3,364.5L507.2,336.9L485.2,337.4Z"/>
    <path class="wtc-county" id="wtc-county-oceana" data-county="Oceana" d="M299.0,278.7L297.2,283.3L292.3,288.7L292.3,291.3L297.2,300.4L323.4,300.7L323.7,279.0L299.0,278.7Z"/>
    <path class="wtc-county" id="wtc-county-ogemaw" data-county="Ogemaw" d="M427.7,235.8L428.0,257.4L440.5,257.3L458.3,257.3L458.0,235.7L427.7,235.8Z"/>
    <path class="wtc-county" id="wtc-county-ontonagon" data-county="Ontonagon" d="M83.0,94.6L84.5,94.6L84.5,105.4L92.2,105.4L92.2,110.8L115.7,110.8L115.7,121.6L139.1,121.7L139.1,116.2L139.3,99.9L146.9,100.0L147.1,94.6L142.6,94.7L142.6,77.9L139.3,80.1L129.6,80.9L122.9,86.0L111.2,90.0L106.3,89.8L99.8,91.3L96.4,90.4L89.0,91.3L83.0,94.6Z"/>
    <path class="wtc-county" id="wtc-county-osceola" data-county="Osceola" d="M353.3,257.1L353.3,279.0L382.9,279.1L383.1,257.2L367.6,257.1L353.3,257.1Z"/>
    <path class="wtc-county" id="wtc-county-oscoda" data-county="Oscoda" d="M427.7,214.0L427.7,235.8L458.0,235.7L458.0,213.9L427.7,214.0Z"/>
    <path class="wtc-county" id="wtc-county-otsego" data-county="Otsego" d="M397.5,197.6L397.5,203.1L398.1,213.8L427.7,214.0L428.2,192.5L405.1,192.3L405.1,197.7L397.5,197.6Z"/>
    <path class="wtc-county" id="wtc-county-ottawa" data-county="Ottawa" d="M309.1,322.5L311.6,329.0L312.9,338.7L312.9,344.5L339.6,344.4L339.6,335.3L339.1,328.0L339.1,317.1L331.7,317.0L331.7,322.5L309.1,322.5Z"/>
    <path class="wtc-county" id="wtc-county-presque-isle" data-county="Presque Isle" d="M438.3,165.8L435.2,165.8L435.4,187.3L435.6,192.5L458.5,192.3L489.2,192.0L487.6,189.6L489.7,188.1L487.2,186.8L482.5,182.6L476.0,182.9L468.3,179.1L463.2,178.7L456.7,174.6L454.9,174.1L447.5,174.3L443.7,172.9L443.0,169.8L438.3,165.8Z"/>
    <path class="wtc-county" id="wtc-county-roscommon" data-county="Roscommon" d="M397.9,235.5L397.5,240.2L397.7,257.3L412.9,257.4L428.0,257.4L427.7,235.8L421.5,235.5L397.9,235.5Z"/>
    <path class="wtc-county" id="wtc-county-saginaw" data-county="Saginaw" d="M440.5,294.4L440.3,299.8L428.0,299.9L428.0,300.8L428.0,321.9L455.3,321.7L455.3,316.2L469.9,316.1L470.1,309.6L469.9,300.0L462.3,300.0L462.5,297.3L447.7,297.2L447.9,294.5L440.5,294.4Z"/>
    <path class="wtc-county" id="wtc-county-st-clair" data-county="St. Clair" d="M513.7,320.3L514.6,336.6L529.8,336.3L530.3,347.4L531.8,349.7L533.8,349.5L537.0,350.9L533.6,354.2L531.4,355.1L533.4,356.5L533.2,360.0L535.9,357.8L539.2,358.0L543.3,354.5L544.2,350.9L546.9,344.8L546.0,342.3L547.5,334.5L550.0,332.0L549.6,329.4L545.5,323.5L544.6,319.4L513.7,320.3Z"/>
    <path class="wtc-county" id="wtc-county-st-joseph" data-county="St. Joseph" d="M340.7,388.1L340.9,405.0L339.1,407.5L347.2,407.5L370.3,407.5L370.1,388.0L340.7,388.1Z"/>
    <path class="wtc-county" id="wtc-county-sanilac" data-county="Sanilac" d="M506.0,309.5L506.0,312.2L513.4,312.2L513.7,320.3L544.6,319.4L543.3,315.9L542.4,302.6L538.6,293.0L538.1,286.8L506.0,287.7L506.9,309.5L506.0,309.5Z"/>
    <path class="wtc-county" id="wtc-county-schoolcraft" data-county="Schoolcraft" d="M334.4,110.9L303.3,110.8L303.3,121.7L287.6,121.6L287.6,132.5L295.4,132.6L295.4,148.9L297.4,148.9L297.2,157.6L300.1,155.3L303.3,155.5L305.3,151.7L305.7,148.3L308.6,146.0L313.8,144.8L316.0,145.3L321.4,144.6L326.1,145.5L331.3,147.5L330.8,145.7L334.4,144.4L334.4,127.1L334.4,110.9Z"/>
    <path class="wtc-county" id="wtc-county-shiawassee" data-county="Shiawassee" d="M428.0,321.9L428.0,322.6L428.2,343.9L441.2,343.9L455.8,343.6L455.3,321.7L428.0,321.9Z"/>
    <path class="wtc-county" id="wtc-county-tuscola" data-county="Tuscola" d="M469.7,292.3L469.9,300.0L470.1,309.6L469.9,316.1L484.7,316.0L484.7,315.4L491.5,315.2L491.5,309.8L506.0,309.5L506.9,309.5L506.0,287.7L484.3,288.2L483.8,284.2L482.5,285.7L479.3,285.7L473.1,292.2L469.7,292.3Z"/>
    <path class="wtc-county" id="wtc-county-van-buren" data-county="Van Buren" d="M308.9,366.2L307.5,370.0L303.3,377.2L312.0,377.2L312.0,388.0L340.7,388.1L340.7,366.2L308.9,366.2Z"/>
    <path class="wtc-county" id="wtc-county-washtenaw" data-county="Washtenaw" d="M442.8,365.9L442.8,388.0L450.4,387.5L465.2,387.3L479.8,387.1L479.6,376.0L478.9,365.3L471.9,365.5L454.4,366.0L442.8,365.9Z"/>
    <path class="wtc-county" id="wtc-county-wayne" data-county="Wayne" d="M478.9,365.3L479.6,376.0L479.8,387.1L494.6,386.6L501.8,390.6L501.8,388.3L505.1,386.9L505.8,384.6L505.4,377.8L509.4,372.6L516.1,371.2L519.9,368.4L521.5,364.2L508.3,364.5L478.9,365.3Z"/>
    <path class="wtc-county" id="wtc-county-wexford" data-county="Wexford" d="M337.3,235.4L337.1,257.2L353.3,257.1L367.6,257.1L367.4,240.9L367.6,235.4L337.3,235.4Z"/>
  </g>
</svg>