<?xml version="1.0" encoding="UTF-8"?>
<svg xmlns="http://www.w3.org/2000/svg" viewBox="0 0 520 560" id="wtc-michigan-map" role="img" aria-label="Michigan county map">
  <title>Michigan Counties</title>
  <g class="wtc-counties">
    <path class="wtc-county" id="wtc-county-antrim" data-county="Antrim" d="M325.4,291.1L318.8,287.3L319.8,285.5L319.9,284.4L321.0,283.1L321.6,281.5L322.6,276.1L322.4,274.5L322.5,272.2L322.7,271.5L323.4,270.4L323.3,266.5L323.0,265.8L322.7,264.5L322.5,261.4L322.1,260.7L322.1,259.2L332.0,259.4L332.0,266.5L354.1,266.6L354.7,287.4L327.9,287.3Z"/>
    <path class="wtc-county" id="wtc-county-barry" data-county="Barry" d="M341.0,455.7L341.2,483.8L327.4,484.0L312.7,483.8L312.5,455.9L326.8,455.8Z"/>
    <path class="wtc-county" id="wtc-county-branch" data-county="Branch" d="M329.8,512.0L356.0,512.0L356.1,537.2L356.1,537.2L349.6,537.2L347.9,537.2L347.8,537.2L347.2,537.2L347.1,537.2L343.2,537.2L343.1,537.2L338.4,537.2L338.1,537.2L335.1,537.2L333.6,537.2L333.6,537.2L331.4,537.2L329.1,537.2L329.0,537.2L329.0,537.2L327.9,537.2L327.8,537.2L327.8,512.0Z"/>
    <path class="wtc-county" id="wtc-county-clare" data-county="Clare" d="M369.2,343.6L369.2,343.8L369.3,371.5L340.1,371.6L340.2,343.3L354.5,343.6Z"/>
    <path class="wtc-county" id="wtc-county-clinton" data-county="Clinton" d="M383.7,427.7L383.8,440.8L384.0,455.3L384.0,455.7L369.5,455.8L355.3,455.7L355.4,427.6Z"/>
    <path class="wtc-county" id="wtc-county-eaton" data-county="Eaton" d="M369.6,483.8L362.5,483.8L341.2,483.8L341.0,455.7L355.3,455.7L369.5,455.8Z"/>
    <path class="wtc-county" id="wtc-county-gratiot" data-county="Gratiot" d="M369.2,399.6L383.6,399.6L383.7,426.8L383.7,427.1L383.7,427.2L383.7,427.7L355.4,427.6L354.8,399.6Z"/>
    <path class="wtc-county" id="wtc-county-houghton" data-county="Houghton" d="M137.0,119.7L137.0,119.7L130.9,119.7L130.9,126.7L123.2,126.7L123.2,161.5L104.3,161.5L104.4,140.5L112.0,140.6L112.0,133.7L107.9,133.7L107.8,112.1L108.3,111.4L108.4,111.3L108.4,111.2L108.9,110.1L109.0,110.0L109.3,108.7L109.6,107.8L109.6,107.8L109.9,107.5L110.4,106.8L110.4,106.7L110.4,106.7L110.5,106.6L110.7,106.5L110.7,106.5L111.5,106.1L112.5,105.5L112.6,105.5L112.6,105.5L113.0,105.5L114.3,104.1L114.3,104.0L114.3,104.0L114.9,103.5L114.9,103.4L115.0,103.4L115.0,103.4L115.0,103.3L115.1,103.3L116.0,102.8L116.5,102.6L116.8,102.6L116.9,102.6L117.1,102.6L117.2,102.6L118.0,102.2L118.9,101.2L119.1,100.9L119.1,100.9L120.1,99.8L120.2,99.7L120.2,99.7L121.2,98.9L121.8,98.3L121.8,98.3L121.9,98.2L122.0,98.2L122.0,98.2L122.0,98.2L123.3,97.3L123.4,97.2L123.5,97.1L123.6,97.1L123.6,97.1L123.9,96.9L124.5,96.6L124.6,96.5L125.1,96.5L125.4,96.5L125.5,96.5L125.9,96.3L126.5,96.0L126.5,96.0L126.6,96.0L126.8,95.8L127.4,95.5L127.4,95.5L127.5,95.5L128.1,95.4L128.9,95.2L128.9,95.2L128.9,95.2L129.5,94.9L129.6,94.9L129.6,94.9L129.7,94.8L132.4,92.4L132.9,92.0L133.1,91.8L133.1,91.8L133.3,91.7L146.2,91.7L146.2,98.6L150.5,98.6L150.4,98.7L150.4,98.7L150.0,99.3L149.9,99.5L149.9,99.5L149.7,100.3L149.6,100.6L149.6,100.9L149.6,100.9L149.6,101.0L149.6,101.8L149.6,102.0L149.6,102.1L149.8,102.6L149.8,102.6L149.8,102.6L149.9,102.7L149.9,102.7L149.9,102.7L150.1,102.7L150.2,102.7L150.2,103.0L149.7,103.5L149.3,103.8L149.1,103.8L149.1,103.7L149.1,103.5L149.1,103.4L149.1,103.4L148.9,103.2L148.9,103.2L148.9,103.2L148.8,103.2L148.8,103.2L148.4,103.0L148.3,103.0L148.3,103.0L147.8,103.2L147.2,103.6L147.2,103.6L147.2,103.6L146.8,104.3L146.8,104.3L146.8,104.3L146.7,104.5L146.8,104.6L146.8,104.6L146.8,104.6L146.8,104.7L146.9,105.0L146.9,105.0L146.9,105.1L146.8,105.3L146.8,105.3L146.8,105.4L146.8,105.5L146.8,105.5L146.8,105.6L146.8,105.6L146.8,105.6L146.7,105.7L146.7,105.8L146.7,105.8L146.6,105.9L146.6,106.0L146.5,106.3L146.3,106.7L146.2,106.8L146.2,106.8L146.2,106.8L145.3,107.3L145.2,107.4L144.1,108.0L143.8,108.2L143.7,108.2L143.4,108.3L143.3,108.3L143.3,108.3L143.2,108.4L143.1,108.6L142.9,109.2L142.8,110.1L142.8,110.1L142.7,110.9L142.6,111.1L142.6,111.1L142.6,111.3L142.6,111.4L142.5,111.5L142.5,111.5L142.5,111.6L142.0,113.2L142.0,113.2L142.0,113.3L141.6,113.7L141.6,113.8L141.3,114.0L141.0,114.3L140.9,114.4L140.9,114.4L140.9,114.4L140.9,114.4L140.9,114.5L140.8,114.6L140.7,114.6L140.7,114.7L139.8,116.1L139.7,116.1L139.7,116.2L139.4,116.4L139.4,116.5L139.4,116.5L139.1,116.6L139.1,116.6L137.4,117.0L137.1,119.0Z"/>
    <path class="wtc-county" id="wtc-county-isabella" data-county="Isabella" d="M340.4,399.6L340.1,371.6L369.3,371.5L369.2,399.6L354.8,399.6Z"/>
    <path class="wtc-county" id="wtc-county-kalamazoo" data-county="Kalamazoo" d="M327.4,484.0L327.4,484.2L327.6,498.0L327.8,512.0L299.4,512.2L299.3,483.9L312.7,483.8Z"/>
    <path class="wtc-county" id="wtc-county-keweenaw" data-county="Keweenaw" d="M122.9,24.8L123.4,24.4L123.4,24.1L123.5,23.9L124.5,22.9L127.1,21.6L129.3,21.0L131.2,20.0L132.5,20.8L133.9,20.6L134.5,20.0L135.1,19.6L136.4,19.3L137.2,19.4L138.7,18.7L139.0,19.6L138.9,20.4L138.4,20.7L137.1,21.0L136.5,21.3L135.9,21.8L134.9,23.0L133.3,24.3L130.0,26.6L129.3,27.3L129.3,27.8L129.4,28.1L129.5,28.6L129.5,29.0L129.2,29.4L123.7,33.2L120.8,34.5L117.6,35.6L116.4,35.8L114.0,36.9L112.7,36.9L109.9,37.9L108.8,38.5L108.4,39.1L106.1,40.3L105.7,41.4L105.7,42.0L106.3,42.6L107.3,42.6L109.9,42.0L109.9,42.1L109.1,42.9L103.9,44.8L102.4,45.5L101.1,45.8L100.4,46.0L97.3,47.4L96.3,47.9L94.3,48.3L92.3,47.7L92.2,47.6L92.2,46.9L91.6,46.2L89.6,46.1L89.6,45.9L89.6,45.8L90.0,45.6L88.9,44.5L88.6,44.6L88.4,44.1L88.9,43.1L90.1,42.6L90.5,42.1L90.4,41.5L90.8,41.1L93.0,39.4L98.0,36.7L102.7,34.7L104.2,33.9L107.4,32.5L107.9,32.4L108.2,32.5L108.9,32.5L110.1,31.8L110.1,31.6L110.2,31.3L113.7,29.5L114.9,29.5L115.3,29.7L116.6,29.0L117.6,28.4L117.6,27.7L118.0,27.3L119.2,26.6L120.2,25.9L121.6,25.2L122.2,25.2ZM133.3,91.7L133.7,91.3L133.9,91.1L134.0,91.1L134.1,90.9L134.8,90.1L135.3,89.6L135.4,89.5L135.8,88.4L135.8,88.3L136.1,87.9L136.1,87.8L136.5,87.3L136.5,87.3L138.1,85.7L138.1,85.6L138.2,85.6L138.9,84.8L138.9,84.8L140.0,84.1L140.1,84.1L140.4,83.9L140.6,83.8L140.7,83.7L141.3,83.5L142.5,83.1L144.6,82.2L145.9,81.5L146.0,81.4L147.0,80.7L147.0,80.7L147.1,80.7L147.6,80.5L149.8,80.1L149.8,80.1L149.8,80.0L150.4,79.7L150.5,79.7L150.6,79.6L151.0,79.1L151.1,78.8L151.1,78.6L151.1,78.6L151.3,78.5L151.4,78.5L151.7,78.4L151.7,78.4L151.8,78.3L153.2,77.8L153.2,77.8L153.4,77.8L154.0,77.8L154.1,77.8L154.1,77.8L155.1,77.6L155.1,77.6L155.1,77.6L155.6,77.5L155.7,77.5L155.8,77.4L155.9,77.4L156.4,77.3L156.5,77.3L158.8,77.0L158.8,77.0L159.1,76.9L159.1,76.9L159.2,77.0L159.3,77.0L159.3,77.0L159.3,77.0L159.3,77.0L159.4,77.0L159.4,77.0L159.6,77.0L159.7,77.0L159.8,77.0L159.8,77.0L160.2,77.0L161.2,76.9L161.3,76.8L161.3,76.4L161.3,76.4L161.4,76.4L161.8,76.4L161.8,76.4L162.0,76.3L162.3,76.3L162.3,76.3L162.6,76.3L162.9,76.3L163.2,76.3L163.3,76.3L163.4,76.2L163.6,76.2L163.6,76.2L163.6,76.2L165.3,76.1L165.3,76.1L165.5,76.1L165.5,76.1L166.5,76.1L166.7,76.1L166.8,76.1L166.8,76.1L166.8,76.1L166.9,76.1L167.0,76.1L167.0,76.1L167.1,76.1L167.4,76.1L168.5,76.1L168.5,76.1L168.5,76.1L168.6,76.2L168.6,76.2L168.9,76.2L169.0,76.2L169.0,76.2L169.0,76.2L170.1,76.3L170.4,76.5L175.3,76.7L176.2,76.6L178.9,77.6L180.5,78.5L181.4,79.3L181.7,82.0L181.6,82.4L181.1,82.4L179.8,82.0L179.2,82.1L178.8,82.2L178.4,82.6L176.3,83.1L175.4,83.7L174.7,83.6L174.2,83.3L173.4,82.9L172.9,82.9L171.3,82.8L167.8,83.3L166.8,83.5L166.3,84.6L166.3,85.0L166.5,85.5L167.0,86.0L167.4,86.1L167.9,86.8L168.0,87.1L167.6,87.7L167.5,87.8L166.7,87.8L166.1,87.9L164.9,88.7L163.2,90.0L160.9,90.7L160.6,90.9L159.9,91.6L158.4,93.7L157.7,93.8L157.1,94.2L156.3,95.4L154.4,97.3L152.5,97.9L151.8,97.8L151.4,97.9L150.5,98.6L146.2,98.6L146.2,91.7Z"/>
    <path class="wtc-county" id="wtc-county-lake" data-county="Lake" d="M282.5,343.1L295.9,343.3L296.0,343.3L311.4,343.3L311.5,371.4L282.8,371.4L282.7,371.2Z"/>
    <path class="wtc-county" id="wtc-county-lenawee" data-county="Lenawee" d="M413.1,540.4L384.1,541.4L384.0,511.9L398.0,512.0L419.6,511.2L420.2,540.1L413.2,540.4Z"/>
    <path class="wtc-county" id="wtc-county-mackinac" data-county="Mackinac" d="M370.1,210.1L370.0,210.0L369.8,209.7L369.0,208.8L369.0,208.8L368.9,208.7L368.2,207.7L367.9,207.4L367.3,207.2L366.6,206.7L366.6,206.4L366.8,204.7L367.1,204.6L367.9,204.8L368.3,205.2L369.2,206.5L369.5,207.3L370.3,209.4L371.0,209.9L373.4,210.8L374.8,210.7L376.1,211.0L379.8,212.5L380.1,212.4L380.5,212.1L380.6,211.5L380.5,211.0L380.6,210.9L381.1,211.7L381.6,212.7L384.4,213.7L384.4,213.9L383.6,215.0L383.4,215.8L382.1,216.7L382.0,216.9L382.1,217.3L381.4,217.7L380.6,217.8L379.9,217.4L378.7,217.3L377.6,216.9L376.7,217.1L375.7,216.5L375.3,215.9L375.2,215.2L374.2,214.4L372.7,212.3L372.0,211.8L370.8,211.3L370.4,210.9L370.3,210.4ZM399.0,197.1L397.4,197.3L397.4,197.3L395.7,198.0L395.5,198.1L395.4,198.0L395.3,198.0L395.2,197.8L393.7,197.9L393.0,197.9L392.7,197.9L391.5,198.0L390.6,198.8L390.5,198.9L390.1,198.9L390.1,198.9L389.8,198.9L388.9,198.9L386.7,198.9L386.6,198.9L386.6,198.9L386.6,198.9L386.3,198.9L386.3,198.9L386.2,198.9L386.2,198.9L386.2,198.9L386.0,198.9L386.0,198.9L385.9,199.0L385.1,199.7L384.6,200.1L384.6,200.1L384.6,200.1L384.3,200.2L383.2,200.8L383.2,200.8L382.5,200.4L382.3,200.2L381.9,200.0L381.9,199.9L381.8,199.9L381.8,199.9L381.8,199.9L381.8,199.9L381.1,199.4L380.0,198.7L380.0,198.7L379.6,197.6L379.5,197.6L379.5,197.5L379.2,197.1L379.1,197.1L379.1,197.1L379.1,197.1L378.1,197.7L377.9,197.9L377.3,197.4L377.0,197.2L376.9,197.1L376.9,197.1L376.8,196.9L376.7,196.8L376.8,196.6L376.8,196.5L376.8,196.5L376.7,196.3L376.6,196.3L376.4,196.3L375.3,196.1L374.9,196.4L374.9,197.7L374.2,197.9L373.8,197.8L373.6,197.5L373.6,197.1L373.9,196.0L373.7,194.9L373.2,193.8L373.0,193.5L371.9,192.7L370.8,192.9L370.5,193.2L369.1,193.2L366.8,191.3L366.3,191.1L365.6,191.3L365.1,191.6L364.4,192.5L364.1,193.2L364.1,194.0L364.5,197.0L364.6,197.2L364.5,197.5L364.4,197.7L363.4,197.7L362.2,198.0L361.8,198.5L361.3,199.7L361.2,200.0L361.6,200.8L362.5,201.2L362.8,201.8L362.8,202.1L361.6,202.8L361.8,203.6L361.8,203.8L362.3,205.5L362.3,205.5L362.7,206.2L362.7,206.2L362.7,206.2L363.0,206.6L363.5,207.1L363.5,207.2L363.6,207.2L363.5,207.4L363.5,207.4L363.3,207.5L363.3,207.5L363.3,207.5L363.3,207.5L363.2,207.6L363.2,207.6L363.1,207.6L362.4,207.6L362.4,207.6L362.4,207.6L362.3,207.6L362.3,207.7L362.2,207.8L362.2,207.9L362.1,208.5L362.0,208.5L360.8,208.6L360.8,208.6L360.5,208.4L360.3,208.3L360.1,208.1L359.2,207.5L359.1,207.5L358.0,206.7L356.3,206.0L355.8,205.7L355.7,205.7L355.7,205.6L355.5,205.4L355.5,205.4L355.5,205.3L355.3,204.9L355.3,204.9L355.3,204.9L355.3,204.7L355.3,204.5L355.3,204.4L355.3,204.3L355.3,204.3L355.2,204.0L355.1,203.8L355.0,203.6L355.0,203.6L355.0,203.5L354.9,203.5L354.8,203.5L354.5,203.4L354.4,203.4L354.4,203.4L354.2,203.3L354.0,203.2L353.9,203.1L353.9,203.1L353.5,202.8L353.3,202.7L353.2,202.6L353.2,202.6L352.9,202.3L352.8,202.2L352.8,202.2L352.8,202.1L351.4,201.5L351.4,201.5L350.5,201.0L350.5,200.9L349.3,199.0L349.3,198.9L349.3,198.9L347.2,196.6L347.1,196.5L347.0,196.4L347.0,196.4L346.0,195.5L345.3,194.9L344.9,194.6L344.8,194.6L344.7,194.5L344.2,194.3L342.7,193.7L342.6,193.7L342.5,193.6L342.2,193.5L342.1,193.5L340.5,193.2L340.2,193.1L340.1,193.1L339.3,192.7L339.3,192.7L339.1,192.6L339.1,192.6L338.6,192.3L338.0,191.9L337.9,191.8L337.8,191.8L337.8,191.8L337.6,191.6L337.4,191.6L337.2,191.4L337.1,191.4L337.0,191.4L336.9,191.3L336.7,191.3L336.6,191.3L336.3,191.3L336.3,191.3L336.3,191.3L334.0,191.5L333.7,191.6L333.7,191.7L333.6,191.7L332.8,191.1L332.5,190.9L332.3,190.7L332.2,190.6L332.1,190.5L332.1,190.5L332.1,190.5L332.0,190.5L331.9,190.4L330.5,190.2L330.1,190.2L329.4,190.1L329.3,190.0L328.7,189.8L328.1,189.5L328.1,189.5L328.0,189.4L327.7,189.2L327.1,188.9L326.7,188.6L326.4,188.4L325.2,187.9L325.2,187.9L325.2,187.9L324.0,187.9L324.0,187.9L324.0,187.9L323.3,188.4L323.3,188.4L322.5,188.7L322.5,188.7L322.4,188.7L322.4,188.6L322.4,188.6L321.9,188.0L321.7,187.7L321.1,187.4L320.8,187.2L320.6,187.2L319.7,187.1L319.6,187.2L319.5,187.2L319.4,187.3L319.1,187.5L319.0,187.5L318.8,187.6L318.8,187.6L318.8,187.6L318.8,187.6L318.8,187.7L318.8,187.8L318.8,187.8L318.9,187.9L318.9,187.9L318.6,188.4L318.6,188.4L318.5,188.5L318.1,188.3L317.3,188.0L317.2,187.9L316.7,187.7L316.5,187.6L316.5,187.6L316.5,187.6L316.1,187.6L315.3,187.5L315.3,187.5L315.3,187.5L314.5,187.7L314.0,188.0L314.0,188.0L314.0,188.0L313.6,188.3L313.5,188.4L313.5,188.4L313.3,188.6L312.9,188.9L312.8,188.9L312.7,189.1L312.5,189.3L311.6,190.2L311.4,190.4L309.0,192.9L308.3,194.4L308.2,194.7L308.2,194.7L307.7,195.2L307.5,195.4L307.5,195.4L307.5,195.4L306.4,196.5L306.4,196.5L306.4,196.6L306.4,196.6L306.3,196.7L306.3,196.7L306.2,196.9L306.2,197.0L305.9,197.5L305.9,197.5L305.4,198.0L305.3,198.0L303.9,198.4L303.4,198.6L303.3,198.6L303.1,198.5L302.9,198.5L302.9,198.4L302.8,198.4L302.2,198.3L301.7,198.1L301.7,198.1L301.3,198.1L300.6,198.2L300.6,198.2L299.6,197.9L298.9,197.7L298.7,197.6L297.7,197.2L297.7,197.2L297.7,197.1L296.6,197.0L296.5,197.0L296.5,197.0L296.1,197.0L296.1,197.0L296.1,197.0L295.9,197.1L295.6,197.3L295.6,197.3L295.6,197.3L295.4,197.7L295.2,197.9L295.2,198.0L295.1,198.0L295.0,198.0L295.0,198.0L294.9,198.1L294.8,198.1L294.8,198.1L294.6,198.2L294.6,198.1L293.5,197.9L293.5,197.9L293.2,197.9L293.2,175.6L331.1,175.6L338.7,175.5L338.7,182.6L384.0,182.6L384.0,189.6L391.5,189.6L391.5,196.6Z"/>
    <path class="wtc-county" id="wtc-county-marquette" data-county="Marquette" d="M161.5,121.8L162.2,122.1L162.3,122.1L162.4,122.1L162.5,122.1L164.0,122.2L164.0,122.2L165.1,122.3L165.1,122.3L165.2,122.3L165.3,122.3L165.7,122.2L166.7,122.1L166.8,122.1L166.9,122.1L166.9,122.1L167.0,122.1L169.3,122.0L169.4,122.0L169.6,122.0L169.6,122.0L169.7,122.0L170.2,122.0L170.2,122.0L170.3,122.0L171.0,122.7L171.8,123.4L171.8,123.4L171.8,123.4L173.5,124.1L173.5,124.1L173.6,124.1L173.8,124.1L174.0,124.0L174.5,123.7L174.7,123.6L175.3,123.5L175.5,123.7L175.5,123.8L175.5,123.8L176.7,124.3L177.0,124.4L177.3,124.4L177.4,124.4L177.4,124.4L177.7,124.6L177.7,124.6L177.7,124.7L177.7,124.7L177.7,124.8L177.7,124.9L177.7,125.0L177.7,125.0L177.6,125.2L177.6,125.2L177.7,125.5L178.4,125.9L178.4,125.9L178.4,125.9L179.0,126.0L179.0,126.0L179.0,126.0L179.1,125.9L179.4,125.7L179.5,125.6L179.6,125.6L179.6,125.6L179.7,125.6L179.8,125.6L179.9,125.6L179.9,125.6L179.9,125.6L180.2,126.8L180.2,126.8L180.2,126.9L180.1,127.1L180.1,127.1L180.2,127.1L180.3,127.9L180.4,128.3L180.7,128.6L180.8,128.7L180.8,128.7L181.5,128.8L182.7,128.7L183.2,128.2L183.2,128.2L183.2,128.2L183.1,127.7L183.1,127.7L183.1,127.5L183.1,127.5L183.2,127.5L183.5,127.4L183.5,127.4L183.6,127.5L183.9,127.8L183.9,127.9L184.0,128.5L184.0,128.5L184.0,128.6L184.0,128.7L183.9,128.8L183.9,128.9L184.0,129.2L184.6,129.6L185.3,129.9L185.6,129.8L185.8,129.8L185.9,129.8L185.9,129.8L186.4,129.9L186.7,130.4L186.7,130.4L186.7,130.4L186.7,130.5L186.8,130.5L187.2,131.0L187.3,131.1L187.4,131.2L187.6,131.4L187.6,131.4L187.8,131.6L187.9,131.7L187.9,131.8L188.7,132.2L188.7,132.3L188.7,132.7L188.8,133.4L188.9,133.9L188.9,133.9L188.9,134.0L188.9,134.0L188.9,134.3L188.9,134.3L188.9,134.5L188.9,134.6L189.0,134.6L189.0,134.7L189.0,134.9L189.1,135.3L189.1,135.4L189.3,136.1L189.4,136.3L189.4,136.5L189.5,136.6L190.0,137.3L190.4,137.6L191.0,138.1L191.2,138.3L191.3,138.4L191.5,138.5L191.8,138.8L192.4,139.3L192.4,139.3L192.5,139.4L193.0,139.9L193.0,139.9L193.0,140.2L193.0,140.7L193.0,140.7L193.3,141.3L194.0,142.7L194.2,143.1L194.3,143.2L194.3,143.2L194.8,143.5L194.9,143.6L194.9,143.6L196.3,144.1L196.4,144.1L196.5,144.4L196.4,144.9L196.6,145.8L197.4,146.5L197.9,146.8L199.8,146.9L200.3,147.4L201.5,147.5L201.6,148.6L200.9,149.2L200.9,149.3L201.6,150.7L202.0,151.2L201.1,151.6L200.8,152.4L201.1,153.1L201.6,153.7L202.5,154.5L203.4,154.9L203.4,155.0L205.8,155.7L205.9,155.7L206.0,155.7L209.0,156.0L209.0,156.0L209.1,156.0L212.3,155.8L212.4,155.8L212.6,155.7L214.1,155.2L214.1,155.2L215.8,155.4L217.0,155.5L217.6,155.4L217.6,182.5L210.1,182.5L210.0,196.6L202.4,196.5L187.4,196.5L187.4,175.5L157.1,175.5L157.2,161.5L157.2,140.7L164.7,140.6L161.5,133.7Z"/>
    <path class="wtc-county" id="wtc-county-mecosta" data-county="Mecosta" d="M311.5,399.5L311.5,371.4L340.1,371.6L340.4,399.6Z"/>
    <path class="wtc-county" id="wtc-county-midland" data-county="Midland" d="M383.6,399.6L369.2,399.6L369.3,371.5L395.8,370.6L395.8,391.3L395.6,398.3Z"/>
    <path class="wtc-county" id="wtc-county-montcalm" data-county="Montcalm" d="M326.6,427.6L326.6,413.5L311.5,413.5L311.5,399.5L340.4,399.6L354.8,399.6L355.4,427.6Z"/>
    <path class="wtc-county" id="wtc-county-newaygo" data-county="Newaygo" d="M311.5,413.5L311.0,413.5L297.7,413.6L282.7,413.5L282.7,399.5L282.8,371.4L311.5,371.4L311.5,399.5Z"/>
    <path class="wtc-county" id="wtc-county-osceola" data-county="Osceola" d="M340.2,343.3L340.1,371.6L311.5,371.4L311.4,343.3L325.3,343.3Z"/>
    <path class="wtc-county" id="wtc-county-roscommon" data-county="Roscommon" d="M369.2,343.6L354.5,343.6L354.2,322.6L354.5,315.4L383.5,315.7L383.8,342.4L383.7,343.6Z"/>
    <path class="wtc-county" id="wtc-county-shiawassee" data-county="Shiawassee" d="M383.8,440.8L383.7,427.7L383.7,427.2L383.7,427.1L383.7,426.8L410.2,426.5L410.3,446.8L410.6,454.9L396.4,455.2L384.0,455.3Z"/>
    <path class="wtc-county" id="wtc-county-washtenaw" data-county="Washtenaw" d="M433.6,503.8L433.8,510.9L419.6,511.2L398.0,512.0L398.0,483.6L409.3,483.6L426.2,483.1L433.0,482.7L433.3,489.7Z"/>
    <path class="wtc-county" id="wtc-county-wexford" data-county="Wexford" d="M325.3,343.3L311.4,343.3L296.0,343.3L295.9,343.3L296.1,315.2L325.3,315.3Z"/>
    <path class="wtc-county" id="wtc-county-alger" data-county="Alger" d="M217.6,182.5L217.6,155.4L218.2,155.4L218.7,154.8L220.0,153.8L221.9,153.4L222.8,153.0L223.6,152.3L224.1,152.4L226.0,152.9L226.8,153.7L226.9,154.3L227.9,156.3L227.9,156.7L227.7,157.0L227.8,157.3L229.0,157.9L230.5,157.8L231.4,158.4L231.7,159.0L231.7,159.8L232.2,160.1L233.7,160.4L234.5,160.4L235.8,160.1L236.1,159.1L236.2,158.2L236.5,157.7L237.5,156.8L238.6,156.7L239.7,156.7L240.6,157.0L240.9,157.3L240.9,157.6L242.1,159.5L242.6,159.9L242.9,160.0L243.6,158.7L243.5,158.0L243.6,157.3L243.8,155.2L243.0,154.8L242.7,154.1L242.2,151.5L243.0,150.6L244.1,150.1L244.2,150.4L244.5,150.5L245.4,150.3L245.6,150.2L247.2,152.3L247.1,153.6L246.9,154.3L246.7,154.7L246.3,155.0L246.1,155.7L246.0,156.2L246.6,156.8L247.2,156.9L247.6,156.3L247.7,155.9L248.1,155.6L248.3,155.6L248.4,156.8L248.3,157.4L249.7,158.0L251.4,156.1L253.4,154.6L255.2,153.0L255.8,152.1L256.0,151.6L256.7,150.9L257.3,150.9L258.2,151.2L258.7,151.1L261.5,150.0L263.9,148.8L273.7,142.6L275.3,141.4L276.7,141.1L277.8,142.4L278.3,142.5L279.0,142.6L280.6,142.3L282.8,141.5L285.4,141.0L287.9,140.8L289.7,140.2L292.5,139.7L293.3,139.7L293.2,154.7L263.0,154.6L263.0,168.6L247.9,168.5L247.9,182.6Z"/>
    <path class="wtc-county" id="wtc-county-allegan" data-county="Allegan" d="M298.2,455.9L302.4,455.9L312.5,455.9L312.7,483.8L299.3,483.9L268.5,484.0L269.3,482.0L270.0,479.1L270.5,474.7L270.5,474.3L270.9,472.3L270.9,472.3L270.9,472.2L270.9,472.1L271.1,471.4L271.3,470.8L271.4,470.0L271.4,470.0L271.4,469.9L271.2,466.4L271.4,465.8L272.0,464.3L272.5,462.0L272.6,459.8L272.5,456.3L272.5,455.9Z"/>
    <path class="wtc-county" id="wtc-county-alpena" data-county="Alpena" d="M442.9,259.3L443.1,259.6L443.3,259.6L444.1,261.3L444.1,262.1L444.4,262.5L444.6,262.8L445.3,262.9L445.9,264.1L447.2,264.5L447.3,264.7L447.1,264.9L447.1,265.6L447.7,268.0L448.3,268.7L448.8,270.4L448.7,270.9L449.4,272.3L449.6,272.4L449.9,272.9L450.3,273.8L449.9,274.1L448.9,273.8L448.1,273.4L445.8,272.6L444.7,271.9L444.1,270.9L442.2,270.3L440.1,271.3L439.6,271.9L439.0,273.1L438.9,273.4L439.4,274.6L440.0,275.0L440.3,275.3L440.0,276.0L439.8,276.0L439.2,276.8L439.5,279.8L439.8,280.7L440.2,281.4L440.7,281.9L441.9,282.5L442.2,283.5L442.5,283.8L445.0,285.1L447.0,285.6L446.9,287.4L412.7,287.5L413.1,259.7Z"/>
    <path class="wtc-county" id="wtc-county-bay" data-county="Bay" d="M424.1,398.6L416.9,398.6L411.0,395.1L402.8,395.0L402.9,391.5L395.8,391.3L395.8,370.6L395.9,356.8L403.2,356.8L403.2,363.7L411.3,363.8L411.0,364.7L410.9,368.2L410.4,373.7L410.2,374.6L409.2,375.9L408.7,375.9L408.6,376.0L408.7,376.7L409.6,379.5L410.2,380.7L411.4,383.0L412.1,383.7L414.9,385.2L417.1,385.4L417.6,385.5L419.3,386.4L419.8,386.5L419.8,386.0L422.5,387.3L423.8,389.0L424.1,389.1L424.1,389.2Z"/>
    <path class="wtc-county" id="wtc-county-benzie" data-county="Benzie" d="M271.0,314.8L271.6,312.3L271.7,310.9L271.5,308.7L271.1,307.5L269.7,304.3L269.4,303.1L269.6,301.2L269.7,300.8L270.1,300.2L271.0,299.7L274.7,298.5L274.8,298.3L275.4,297.9L275.4,297.9L277.6,297.9L277.7,297.9L277.8,297.9L277.8,297.9L278.5,297.7L278.7,297.6L278.7,297.6L279.6,296.9L279.7,296.8L280.4,295.5L280.4,295.3L280.4,295.2L280.4,295.2L280.6,294.8L280.6,294.5L280.7,293.8L296.2,294.1L296.1,315.2Z"/>
    <path class="wtc-county" id="wtc-county-berrien" data-county="Berrien" d="M249.9,522.3L251.0,519.3L251.0,519.2L251.0,519.2L251.0,519.2L251.0,519.1L251.1,518.7L251.4,517.8L251.5,517.8L251.9,516.9L251.9,516.9L252.1,516.4L252.2,516.4L252.3,516.0L252.4,515.9L252.7,515.3L252.8,515.0L252.9,514.9L252.9,514.9L252.9,514.8L254.3,511.9L254.8,511.0L255.5,509.3L255.8,508.3L256.1,507.9L256.9,507.0L256.9,507.0L257.0,506.9L257.0,506.9L257.0,506.8L257.0,506.8L257.1,506.8L258.4,504.9L258.5,504.8L258.6,504.7L258.7,504.6L260.7,502.0L260.8,501.8L261.0,501.5L261.0,501.5L261.0,501.4L261.2,501.2L261.3,501.1L261.3,501.0L261.3,501.0L261.7,500.4L261.8,500.3L261.9,500.1L261.9,500.1L262.0,499.9L262.1,499.8L262.1,499.8L263.0,498.2L271.6,498.2L271.6,512.1L271.4,537.2L269.0,537.1L254.8,537.2L253.7,537.2L253.4,537.2L246.4,537.2L246.3,537.2L240.0,537.2L239.9,537.2L236.7,537.1L236.7,537.1L236.6,537.1L236.5,537.1L235.3,537.1L235.2,537.1L235.3,537.1L236.6,536.2L236.6,536.2L237.1,535.9L237.1,535.9L237.1,535.8L238.1,535.2L238.1,535.2L238.2,535.1L238.3,535.1L239.7,534.0L240.7,533.2L241.7,532.4L241.8,532.3L242.9,531.3L244.0,530.3L244.0,530.3L245.9,528.3L245.9,528.2L246.1,528.1L246.2,528.0L246.2,528.0L247.0,527.1L247.0,527.0L247.4,526.7L247.4,526.7L247.5,526.5L247.6,526.4L247.8,526.1L247.8,526.1L247.9,526.1L248.1,525.7L248.1,525.7L248.1,525.6L248.2,525.6L248.8,524.6L248.9,524.4L249.0,524.3L249.5,523.3L249.6,523.2L249.6,523.2L249.6,523.0L249.7,522.9L249.7,522.8L249.9,522.6L249.9,522.5Z"/>
    <path class="wtc-county" id="wtc-county-cass" data-county="Cass" d="M271.6,512.1L299.4,512.2L299.6,534.0L297.7,537.2L297.7,537.2L292.8,537.2L292.6,537.2L291.8,537.2L286.6,537.2L286.6,537.2L285.6,537.2L284.9,537.2L281.3,537.1L277.5,537.1L277.5,537.1L277.4,537.1L271.9,537.2L271.4,537.2L271.4,537.2Z"/>
    <path class="wtc-county" id="wtc-county-cheboygan" data-county="Cheboygan" d="M361.7,212.5L362.0,212.5L362.5,213.3L362.7,214.2L364.7,215.0L364.9,215.6L367.0,216.3L369.4,217.8L371.3,218.7L372.4,219.4L372.5,219.7L373.3,220.3L373.3,220.3L373.4,220.3L378.0,223.4L379.2,223.2L379.6,222.4L380.1,222.0L380.9,222.0L381.7,222.5L383.2,223.1L386.0,222.4L388.4,223.3L389.6,224.0L392.9,224.8L393.6,225.4L390.7,225.5L391.0,259.9L383.8,259.9L361.6,259.7L361.5,259.6L361.7,252.6Z"/>
    <path class="wtc-county" id="wtc-county-chippewa" data-county="Chippewa" d="M399.4,175.9L398.8,176.5L398.4,176.6L397.8,176.6L397.1,177.2L397.0,177.3L396.9,177.3L396.8,177.3L396.8,177.3L396.7,177.2L396.7,177.1L396.7,177.0L396.3,176.6L394.9,176.4L392.7,176.7L391.8,177.3L390.9,178.7L391.1,179.8L391.0,180.9L390.7,181.2L392.6,182.2L394.0,182.0L395.2,180.5L395.6,180.7L398.4,180.8L399.0,181.3L399.1,181.7L399.9,183.2L400.1,183.4L400.5,183.5L402.3,183.6L404.3,184.7L404.0,185.4L403.6,185.2L402.8,185.7L402.2,186.2L401.7,187.0L401.6,187.6L401.6,187.9L401.9,188.3L402.8,189.0L404.2,190.9L405.6,191.8L406.6,192.7L408.1,193.1L408.9,193.0L409.3,192.8L409.6,193.0L409.8,193.7L410.1,193.9L411.4,194.4L411.9,195.4L413.6,195.9L413.9,195.8L415.3,193.3L416.2,193.6L416.9,195.2L418.4,195.7L419.4,195.0L420.1,193.9L420.1,192.8L419.6,191.2L418.2,190.8L417.3,189.4L416.6,187.0L417.1,186.6L417.3,186.6L418.4,187.1L419.2,187.8L419.7,188.0L420.7,187.9L422.4,188.0L422.6,187.8L422.9,187.2L423.8,187.0L426.4,187.3L428.0,187.0L428.6,187.1L429.2,187.6L430.2,188.1L431.2,188.1L431.5,188.6L431.7,189.3L431.8,189.7L432.2,190.4L432.9,190.6L433.3,191.5L433.5,192.4L433.7,193.6L434.1,194.4L436.4,195.4L436.8,195.4L437.3,195.7L437.7,196.3L437.8,196.6L437.2,197.6L436.8,197.9L435.5,201.1L435.1,201.5L434.5,201.9L432.4,202.4L431.1,202.1L428.1,200.8L426.6,199.8L424.8,200.6L422.9,200.7L422.1,200.4L421.5,200.4L420.1,200.6L419.9,200.8L418.8,200.7L417.9,200.4L417.8,199.9L417.5,199.7L416.6,199.9L416.3,200.1L415.9,200.0L415.5,199.2L415.2,199.1L414.1,198.6L413.2,198.1L413.1,197.9L411.3,198.1L410.7,198.7L408.8,198.1L406.8,198.0L406.1,198.5L404.9,198.7L401.1,197.7L400.5,198.0L399.6,197.5L399.4,197.2L399.2,197.1L399.0,197.1L391.5,196.6L391.5,189.6L384.0,189.6L384.0,182.6L338.7,182.6L338.7,175.5L331.1,175.6L331.1,134.4L335.0,133.8L341.7,134.3L343.3,134.1L344.9,133.3L346.1,133.1L347.6,133.1L348.3,133.2L348.4,133.3L346.3,135.3L345.0,136.6L344.3,137.9L343.8,139.1L343.7,140.2L343.8,140.9L343.4,145.0L343.3,146.9L343.4,148.5L343.6,149.5L343.7,150.7L343.8,150.7L344.0,151.3L343.9,151.6L342.7,152.0L342.3,152.4L342.1,152.9L342.2,153.9L342.5,154.7L343.5,156.0L344.0,156.4L344.6,156.7L347.3,157.0L348.2,156.6L348.7,156.1L349.3,155.9L349.5,156.6L350.2,157.5L350.6,157.7L351.9,157.8L353.0,157.7L353.9,157.5L354.6,158.3L354.9,159.2L355.8,159.6L357.6,159.4L359.4,158.8L362.2,157.6L364.3,156.3L364.9,156.0L366.4,156.5L367.8,156.3L368.7,157.3L369.2,158.5L370.6,159.9L371.3,160.9L372.6,161.6L375.5,159.9L376.1,159.9L377.0,160.5L377.4,160.3L378.0,159.8L378.4,158.8L378.4,158.0L377.9,157.7L379.0,155.9L380.5,155.0L382.1,155.1L383.3,154.3L386.3,155.0L390.0,155.4L392.3,152.3L394.2,151.8L397.5,152.4L398.1,152.6L398.8,153.6L399.2,154.7L398.4,157.5L397.1,161.6L397.5,165.3L398.9,173.7Z"/>
    <path class="wtc-county" id="wtc-county-delta" data-county="Delta" d="M257.3,214.9L256.9,214.7L256.1,214.9L255.7,215.8L255.1,215.6L254.6,215.2L254.0,215.3L253.8,215.7L253.5,216.6L253.3,217.9L252.9,218.7L252.6,218.9L252.4,218.9L250.6,218.2L250.0,218.6L249.7,219.1L249.7,221.0L249.6,222.2L249.2,222.3L248.1,222.0L247.6,222.2L247.3,222.5L247.1,222.8L247.8,225.9L247.8,227.1L247.4,226.5L246.8,226.1L245.9,226.3L244.8,225.9L243.6,224.8L243.5,224.4L243.1,223.7L242.3,223.6L241.7,222.1L241.7,221.4L241.8,220.8L242.5,220.3L243.4,220.5L244.2,220.2L244.9,219.4L244.9,218.8L244.6,218.7L244.5,217.9L245.0,217.2L246.0,216.9L246.8,215.7L246.7,214.4L246.9,212.9L247.8,212.8L248.1,213.1L249.0,213.5L249.8,213.2L250.2,212.4L250.0,212.1L249.9,211.9L250.2,211.4L250.6,211.0L251.0,211.1L251.4,210.8L251.5,210.4L251.3,209.7L251.5,208.9L251.9,208.6L252.1,208.5L252.5,208.2L253.1,207.2L253.2,206.9L253.1,205.4L252.9,204.8L252.4,204.2L251.6,203.7L250.8,203.4L249.8,203.5L249.2,204.6L248.6,205.3L248.0,205.4L247.3,206.0L246.8,206.6L246.9,208.0L246.0,208.7L241.5,207.8L241.1,207.5L240.2,206.3L239.8,206.0L239.2,206.1L237.8,206.6L237.7,207.1L237.8,209.1L238.1,209.3L238.3,209.7L238.4,210.6L237.6,211.9L236.6,213.1L235.4,213.9L235.3,214.3L235.5,214.6L235.4,214.9L234.4,216.2L234.2,217.2L234.4,217.7L232.5,218.7L232.1,218.6L231.0,218.6L230.4,218.8L229.4,219.7L228.0,219.9L226.8,221.7L226.7,221.6L226.6,220.8L226.5,220.2L225.8,219.8L225.6,219.1L225.7,217.9L226.0,217.2L226.1,215.3L225.8,214.2L225.8,212.1L225.4,210.6L224.3,208.9L224.3,208.9L224.3,208.9L223.5,208.3L222.8,208.5L222.2,208.7L221.6,209.6L221.5,209.7L221.2,210.5L221.2,210.7L221.2,210.7L221.1,211.0L221.1,211.0L221.1,211.1L221.1,211.4L221.1,211.8L221.1,211.9L221.1,212.4L221.1,213.2L221.1,213.2L220.8,214.2L220.8,214.8L220.9,215.2L221.3,215.4L221.5,215.7L221.2,216.6L220.9,216.9L220.4,218.0L221.0,218.8L221.1,218.9L220.9,218.9L220.2,219.1L220.1,219.1L220.1,219.1L219.0,219.4L218.9,219.5L218.6,219.7L218.6,219.7L218.6,219.9L218.6,220.0L217.9,220.7L217.9,220.7L216.9,221.0L216.8,221.0L215.8,221.7L215.6,221.8L214.9,222.2L214.2,222.6L214.2,222.7L213.1,224.2L212.8,224.7L211.9,226.3L211.6,226.8L211.4,227.1L211.1,227.7L210.6,228.3L210.5,228.5L209.5,230.1L208.9,231.2L208.8,231.3L208.7,231.5L208.7,231.5L208.7,231.6L204.9,231.6L205.0,203.5L202.4,196.5L210.0,196.6L210.1,182.5L217.6,182.5L247.9,182.6L255.5,182.6L255.5,203.7Z"/>
    <path class="wtc-county" id="wtc-county-dickinson" data-county="Dickinson" d="M174.6,217.7L172.2,215.5L164.7,211.8L161.8,212.3L161.2,213.0L160.7,213.0L159.9,213.1L158.5,212.6L156.3,210.7L156.0,209.9L156.2,209.6L157.3,208.4L157.8,208.2L158.9,207.0L159.8,205.7L159.8,205.4L158.0,202.6L157.1,201.9L157.2,201.7L157.1,175.5L187.4,175.5L187.4,196.5L187.3,203.5L182.5,203.5L182.5,217.7Z"/>
    <path class="wtc-county" id="wtc-county-emmet" data-county="Emmet" d="M339.7,246.4L341.1,246.5L341.5,246.5L341.6,246.6L341.7,246.6L341.8,246.6L342.2,246.6L342.7,246.8L342.7,246.8L342.9,246.8L342.9,246.8L342.9,246.8L343.5,246.8L344.2,246.4L345.6,246.1L347.0,245.9L348.0,245.7L350.6,244.3L350.8,243.5L350.8,242.9L350.6,242.3L350.2,242.0L346.9,241.4L346.9,241.4L346.8,241.4L346.7,241.4L346.7,241.4L346.6,241.4L346.1,241.5L346.1,241.7L346.2,241.8L346.3,241.9L346.3,241.9L346.4,242.0L346.5,242.0L346.8,242.1L346.9,242.1L346.8,242.2L345.9,241.9L343.4,240.9L343.2,240.8L343.1,240.8L343.0,240.8L342.7,240.4L342.5,240.2L342.4,240.1L342.3,240.0L341.3,238.9L341.2,238.9L340.2,237.6L340.2,237.5L339.6,236.0L339.2,234.8L338.9,233.9L338.9,233.9L338.8,233.5L338.8,233.5L338.5,232.5L338.5,232.3L338.5,232.3L338.4,231.4L338.4,231.3L338.3,230.2L338.3,230.1L338.3,230.1L338.3,230.1L338.3,229.8L338.3,229.7L338.3,229.6L338.3,229.6L338.4,229.5L338.7,228.8L338.7,228.8L338.7,228.7L338.7,228.7L339.0,228.5L339.0,228.4L339.1,228.4L339.1,228.3L339.2,228.2L339.3,228.2L339.3,228.2L339.3,228.1L339.3,228.1L339.7,227.8L339.7,227.7L339.8,227.6L340.7,226.2L340.7,226.2L340.9,225.8L340.9,225.7L340.9,225.7L340.9,225.6L341.0,225.2L341.0,225.2L341.2,225.0L341.5,224.7L341.6,224.6L341.8,224.4L341.8,224.4L342.8,224.1L343.0,224.0L343.4,223.9L344.3,223.5L344.3,223.5L344.6,223.4L344.6,223.4L344.7,223.3L345.1,223.1L345.2,223.0L345.4,222.7L345.4,222.7L345.7,222.1L345.7,222.0L345.7,222.0L347.1,220.8L347.3,220.6L347.3,220.6L348.8,218.8L348.9,218.7L349.0,218.4L349.1,217.9L349.1,217.8L349.0,217.3L349.0,217.2L349.0,217.2L348.9,217.1L348.8,216.9L348.7,216.8L348.5,216.6L348.5,216.6L348.4,216.5L348.3,216.4L348.2,216.4L348.0,216.3L347.4,215.9L346.6,215.3L346.5,215.3L346.5,215.3L346.5,215.3L346.5,215.3L346.4,215.3L346.4,215.3L345.7,215.2L345.4,215.2L345.3,215.2L344.8,214.9L344.6,214.7L344.9,214.5L345.1,214.4L345.8,214.7L349.2,214.7L349.3,214.7L349.6,214.8L349.9,214.9L350.0,214.9L350.1,215.0L350.2,215.0L350.3,215.1L350.3,215.1L350.9,215.5L353.5,215.3L355.1,215.9L356.9,215.8L357.0,215.8L357.1,215.8L357.2,215.8L357.3,215.8L357.5,215.8L357.6,215.7L358.0,215.5L358.2,215.4L358.3,215.3L358.3,215.3L358.3,215.3L358.7,214.7L358.7,214.6L358.8,213.9L358.4,213.5L358.1,213.2L358.0,213.2L358.0,213.1L358.8,212.5L359.1,212.4L359.2,212.4L359.2,212.3L360.5,212.9L361.1,212.8L361.6,212.4L361.7,212.5L361.7,252.6L344.8,253.5Z"/>
    <path class="wtc-county" id="wtc-county-gladwin" data-county="Gladwin" d="M369.2,343.6L383.7,343.6L395.9,343.5L395.9,356.8L395.8,370.6L369.3,371.5L369.2,343.8Z"/>
    <path class="wtc-county" id="wtc-county-ingham" data-county="Ingham" d="M396.4,455.2L396.7,460.5L397.4,483.6L369.6,483.8L369.5,455.8L384.0,455.7L384.0,455.3Z"/>
    <path class="wtc-county" id="wtc-county-iosco" data-county="Iosco" d="M447.1,315.3L447.2,317.4L446.6,320.8L446.6,322.0L446.7,323.1L446.9,323.6L446.9,324.0L446.2,326.6L446.1,327.7L446.3,329.1L446.0,329.7L445.6,330.0L445.1,329.8L444.3,329.8L443.8,330.2L442.1,332.3L441.3,332.8L441.0,333.4L440.6,334.6L440.4,334.8L439.6,335.2L439.4,334.5L439.3,334.5L438.5,334.2L438.4,334.1L437.4,334.0L436.1,334.3L435.6,334.5L434.6,335.5L433.9,336.6L433.2,338.3L432.9,339.6L432.9,340.6L432.2,343.4L412.9,343.5L412.8,315.6Z"/>
    <path class="wtc-county" id="wtc-county-jackson" data-county="Jackson" d="M398.0,512.0L384.0,511.9L363.1,512.1L362.5,483.8L369.6,483.8L397.4,483.6L398.0,483.6Z"/>
    <path class="wtc-county" id="wtc-county-kalkaska" data-county="Kalkaska" d="M354.5,315.4L325.3,315.3L325.4,291.1L327.9,287.3L354.7,287.4Z"/>
    <path class="wtc-county" id="wtc-county-kent" data-county="Kent" d="M297.7,413.6L311.0,413.5L311.5,413.5L326.6,413.5L326.6,427.6L326.8,455.8L312.5,455.9L302.4,455.9L298.2,455.9L298.1,438.3L297.9,434.7L297.7,420.7Z"/>
    <path class="wtc-county" id="wtc-county-lapeer" data-county="Lapeer" d="M438.5,419.2L445.1,418.2L444.9,411.2L459.1,410.8L459.2,414.3L466.3,414.2L466.6,424.8L467.3,445.8L466.2,445.8L464.9,446.0L460.1,446.2L439.0,446.8Z"/>
    <path class="wtc-county" id="wtc-county-livingston" data-county="Livingston" d="M424.9,454.7L425.1,461.7L426.2,483.1L409.3,483.6L398.0,483.6L397.4,483.6L396.7,460.5L396.4,455.2L410.6,454.9Z"/>
    <path class="wtc-county" id="wtc-county-luce" data-county="Luce" d="M293.3,139.7L293.7,139.7L293.7,139.7L294.7,139.8L294.7,139.8L296.2,140.2L297.4,140.4L297.5,140.4L297.6,140.5L300.1,140.7L300.1,140.7L300.6,140.8L300.8,140.8L300.9,140.8L302.3,140.8L303.1,140.7L304.8,140.5L305.1,140.5L305.4,140.5L306.4,140.6L307.8,140.6L308.2,140.7L309.5,140.9L309.6,140.9L309.6,140.9L310.0,141.0L310.0,141.0L310.2,141.0L311.7,141.0L312.4,141.0L312.7,141.0L314.7,140.9L316.3,140.5L316.4,140.5L323.2,137.8L323.6,137.6L324.5,137.1L327.6,135.5L328.0,135.3L329.9,134.6L330.0,134.6L330.0,134.6L331.1,134.4L331.1,175.6L293.2,175.6L293.2,154.7Z"/>
    <path class="wtc-county" id="wtc-county-macomb" data-county="Macomb" d="M461.3,481.8L461.1,474.7L461.0,473.5L461.0,472.4L460.3,453.3L460.1,446.2L464.9,446.0L466.2,445.8L467.3,445.8L482.1,445.5L484.0,462.7L482.9,462.8L481.3,463.8L480.5,465.0L479.6,465.2L478.9,465.0L478.6,465.1L477.6,466.2L477.2,467.3L477.3,468.1L477.8,468.6L479.1,469.2L479.2,469.6L479.1,470.0L479.2,470.8L479.6,471.7L479.5,472.3L479.4,472.4L479.1,472.0L478.6,471.8L477.2,471.8L476.4,472.0L475.7,472.6L475.5,473.0L475.4,473.6L474.9,474.1L474.8,474.2L473.9,475.6L473.5,477.4L473.4,479.8L474.2,481.4Z"/>
    <path class="wtc-county" id="wtc-county-manistee" data-county="Manistee" d="M261.7,342.2L262.1,341.3L262.1,341.3L263.2,339.8L263.7,338.5L263.7,338.5L263.8,338.1L264.0,337.6L264.3,336.5L265.3,335.4L265.3,335.3L265.8,334.1L265.8,334.0L265.9,333.8L266.0,333.7L266.0,333.7L266.1,333.4L266.2,333.3L266.2,333.2L266.7,332.3L266.7,332.3L266.9,331.7L268.8,328.7L269.9,324.3L270.1,322.6L270.1,321.5L269.9,320.2L269.9,319.1L270.0,317.6L270.0,317.6L270.0,317.6L270.3,317.2L270.7,316.1L271.0,314.8L296.1,315.2L295.9,343.3L282.5,343.1Z"/>
    <path class="wtc-county" id="wtc-county-monroe" data-county="Monroe" d="M443.9,528.0L443.8,527.9L443.4,528.2L443.3,528.2L442.8,529.0L442.6,529.4L442.4,529.7L441.7,531.3L441.6,531.5L440.8,532.1L440.8,532.1L440.6,532.2L440.6,532.2L440.3,532.4L440.1,532.4L440.0,532.6L440.0,532.6L439.8,532.9L439.7,533.2L439.6,533.8L439.6,534.0L439.6,534.3L439.6,534.8L439.9,536.3L439.9,536.4L439.9,536.4L439.9,536.4L440.0,536.7L440.1,536.9L440.2,537.1L440.2,537.1L440.2,537.2L440.2,537.2L440.3,537.4L440.5,537.9L440.5,537.9L440.5,538.0L440.6,538.2L440.7,538.7L440.7,538.7L440.7,538.7L440.1,539.0L439.0,539.2L438.9,539.4L436.3,539.4L436.2,539.4L435.9,539.5L435.9,539.5L431.0,539.6L430.5,539.7L430.4,539.7L427.9,539.8L427.7,539.8L426.1,539.8L424.9,539.9L420.2,540.1L419.6,511.2L433.8,510.9L448.5,510.2L455.1,515.4L455.4,516.3L455.0,517.2L454.8,517.3L453.7,517.4L453.7,518.2L453.2,518.7L453.2,518.7L452.9,518.7L452.9,518.7L452.8,518.7L452.6,518.8L452.5,518.8L452.5,518.8L452.5,518.8L452.5,518.9L451.3,520.0L451.3,520.0L451.3,520.1L450.9,520.8L450.8,521.0L450.8,521.1L450.8,521.2L450.8,521.4L450.8,521.6L450.8,521.8L450.1,522.7L450.0,522.7L449.0,522.3L448.7,522.3L448.6,522.3L448.5,522.3L448.3,522.3L448.3,522.3L448.0,522.4L448.0,522.4L447.9,522.5L447.3,523.0L446.7,523.9L446.6,523.9L446.6,523.9L446.6,524.1L446.4,524.7L446.2,525.2L446.2,525.3L446.2,525.6L446.1,525.7L446.1,526.2L446.1,526.2L446.1,526.5L446.0,526.7L445.7,527.5L444.6,528.5L444.2,528.7Z"/>
    <path class="wtc-county" id="wtc-county-iron" data-county="Iron" d="M107.9,189.4L107.2,189.1L106.9,188.9L104.4,187.5L104.4,187.5L104.4,168.5L104.3,161.5L123.2,161.5L157.2,161.5L157.1,175.5L157.2,201.7L157.1,201.9L155.8,201.0L153.6,199.8L152.0,199.4L151.5,199.8L149.7,199.5L149.5,199.2L149.1,198.3L146.4,199.3L141.5,196.2L138.6,196.8L134.6,196.0L134.2,195.7L134.0,195.3L133.6,193.9L132.1,193.6L127.2,196.1L127.0,196.3L125.7,196.6L124.0,196.3L123.7,195.4L123.7,195.4L123.5,194.5L123.2,194.3L122.9,194.2L120.1,193.2L119.5,193.2L117.7,193.8L114.9,193.6L113.4,192.8L113.0,192.2L112.9,192.1Z"/>
    <path class="wtc-county" id="wtc-county-oakland" data-county="Oakland" d="M447.2,482.2L440.1,482.4L433.0,482.7L426.2,483.1L425.1,461.7L424.9,454.7L424.7,447.6L439.0,446.8L460.1,446.2L460.3,453.3L461.0,472.4L461.0,473.5L461.1,474.7L461.3,481.8L448.9,482.1Z"/>
    <path class="wtc-county" id="wtc-county-ontonagon" data-county="Ontonagon" d="M93.6,117.5L93.6,117.5L95.2,116.0L95.2,116.0L95.2,115.9L96.0,115.3L96.1,115.3L96.3,115.3L96.7,115.2L96.7,115.2L96.8,115.4L97.0,115.6L97.4,115.8L98.6,115.9L100.0,115.7L100.3,115.5L100.9,115.1L101.4,114.8L101.5,114.8L102.1,114.6L102.1,114.8L102.4,115.1L103.9,115.1L103.9,115.1L104.3,115.0L104.3,115.0L104.6,115.0L104.9,114.8L105.1,114.7L105.1,114.7L105.4,114.6L106.2,114.1L106.3,114.1L106.4,113.9L107.2,113.1L107.8,112.1L107.9,133.7L112.0,133.7L112.0,140.6L104.4,140.5L104.3,161.5L104.4,168.5L81.7,168.5L81.7,154.6L59.0,154.6L59.1,147.6L51.6,147.6L50.2,133.6L50.1,133.6L50.9,132.8L51.7,132.0L52.3,131.4L52.4,131.3L52.5,131.2L52.6,131.1L52.8,131.0L53.0,130.9L53.5,130.5L53.6,130.5L53.6,130.5L53.8,130.4L56.0,129.4L56.2,129.3L56.2,129.3L58.0,128.9L60.0,128.5L60.3,128.4L60.4,128.4L60.7,128.4L60.9,128.4L61.0,128.4L61.0,128.4L61.0,128.4L62.8,128.2L62.8,128.2L62.9,128.2L63.1,128.2L63.9,128.4L63.9,128.4L64.4,128.6L64.7,128.7L64.9,128.8L65.0,128.8L65.3,129.1L65.4,129.3L66.4,129.3L67.6,128.9L68.9,128.5L69.2,128.3L69.3,128.3L69.4,128.3L69.7,128.2L71.0,128.0L71.1,128.0L71.2,128.0L71.4,128.0L71.5,127.9L72.0,127.7L72.6,127.6L72.6,127.5L72.7,127.5L73.6,127.5L73.6,127.5L73.6,127.5L73.7,127.5L74.0,127.7L74.1,127.8L74.1,127.8L74.1,127.8L74.5,127.8L75.1,127.8L75.3,127.8L75.3,127.8L75.3,127.8L75.4,127.8L75.4,127.8L75.4,127.8L75.4,127.8L76.4,127.8L76.7,127.7L76.7,127.7L76.8,127.7L76.9,127.7L76.9,127.7L77.2,127.7L77.4,127.7L77.6,127.6L78.7,127.3L78.8,127.3L79.6,127.0L79.9,126.8L81.3,126.2L81.4,126.2L83.5,125.2L84.6,124.6L85.4,124.2L86.5,123.6L87.0,123.4L88.7,122.6L88.7,122.5L90.0,121.8L90.0,121.8L90.1,121.7L91.5,120.4L91.6,120.3L91.7,120.1L92.7,118.8Z"/>
    <path class="wtc-county" id="wtc-county-oscoda" data-county="Oscoda" d="M383.5,287.7L412.7,287.5L412.8,315.6L383.5,315.7Z"/>
    <path class="wtc-county" id="wtc-county-saginaw" data-county="Saginaw" d="M402.9,391.5L402.8,395.0L411.0,395.1L416.9,398.6L424.1,398.6L424.3,419.3L424.3,419.4L417.1,419.4L410.0,419.4L410.2,426.5L383.7,426.8L383.6,399.6L395.6,398.3L395.8,391.3Z"/>
    <path class="wtc-county" id="wtc-county-st-clair" data-county="St. Clair" d="M496.4,423.6L496.4,423.6L496.5,424.2L496.5,424.2L496.6,424.5L496.8,425.3L496.9,425.6L496.9,425.7L496.9,425.7L496.9,425.7L496.9,425.7L497.0,426.1L497.0,426.3L497.1,427.5L497.1,427.7L497.1,427.7L497.1,427.7L497.4,428.8L497.4,428.9L498.3,430.1L499.1,432.2L499.1,432.3L499.5,433.1L500.0,434.0L501.2,436.6L501.6,436.8L499.7,442.3L499.3,443.1L498.4,446.3L497.5,458.7L496.0,466.4L495.4,468.3L495.2,468.8L491.5,473.2L491.1,473.4L490.1,473.6L489.0,472.9L485.7,475.7L485.3,476.0L485.4,475.2L485.7,474.6L486.2,474.4L486.6,473.8L485.6,472.8L485.6,471.5L485.2,470.4L484.4,470.6L483.8,470.2L483.7,469.6L484.4,468.9L485.5,468.7L485.6,467.9L485.1,467.4L485.1,467.3L486.3,466.4L487.8,466.9L488.7,466.1L488.9,465.6L489.1,464.9L489.1,464.2L488.7,463.5L488.4,463.4L486.9,463.1L486.0,462.4L485.4,462.2L484.4,462.2L484.1,462.7L484.0,462.7L482.1,445.5L467.3,445.8L466.6,424.8Z"/>
    <path class="wtc-county" id="wtc-county-tuscola" data-county="Tuscola" d="M424.3,419.3L424.1,398.6L424.1,389.2L424.1,389.1L425.9,389.6L426.1,389.5L426.8,388.9L429.0,386.5L430.4,384.8L432.3,382.0L432.9,381.9L433.2,381.3L433.0,380.8L433.7,380.1L434.6,379.4L435.2,379.3L435.3,379.6L435.7,379.9L437.3,379.6L437.9,378.9L438.1,378.4L438.2,383.4L459.2,382.7L460.1,410.8L459.1,410.8L444.9,411.2L445.1,418.2L438.5,419.2Z"/>
    <path class="wtc-county" id="wtc-county-van-buren" data-county="Van Buren" d="M271.6,512.1L271.6,498.2L263.0,498.2L263.6,497.3L265.6,492.8L267.1,488.9L267.9,486.0L267.9,485.4L268.3,484.5L268.5,484.0L299.3,483.9L299.4,512.2Z"/>
    <path class="wtc-county" id="wtc-county-wayne" data-county="Wayne" d="M433.0,482.7L440.1,482.4L447.2,482.2L448.9,482.1L461.3,481.8L474.2,481.4L474.2,481.5L473.2,484.9L473.1,485.7L472.8,486.4L472.5,486.7L471.5,487.3L471.2,487.6L470.7,488.8L470.9,489.4L468.8,490.4L467.0,491.0L465.2,491.2L462.5,492.2L461.5,492.9L460.5,494.4L458.6,498.6L458.4,501.5L458.3,503.7L458.8,506.7L458.3,510.7L456.8,510.9L456.2,511.9L456.0,511.9L455.0,512.5L454.9,512.8L455.1,512.9L455.1,513.6L455.0,515.3L455.1,515.4L455.1,515.4L448.5,510.2L433.8,510.9L433.6,503.8L433.3,489.7Z"/>
    <path class="wtc-county" id="wtc-county-calhoun" data-county="Calhoun" d="M329.8,512.0L327.8,512.0L327.6,498.0L327.4,484.2L327.4,484.0L341.2,483.8L362.5,483.8L363.1,512.1L356.0,512.0Z"/>
    <path class="wtc-county" id="wtc-county-crawford" data-county="Crawford" d="M383.5,287.7L383.5,315.7L354.5,315.4L354.7,287.4Z"/>
    <path class="wtc-county" id="wtc-county-genesee" data-county="Genesee" d="M410.3,446.8L410.2,426.5L410.0,419.4L417.1,419.4L424.3,419.4L424.3,419.3L438.5,419.2L439.0,446.8L424.7,447.6L424.9,454.7L410.6,454.9Z"/>
    <path class="wtc-county" id="wtc-county-hillsdale" data-county="Hillsdale" d="M382.0,541.5L381.8,541.5L381.8,541.5L379.5,541.6L357.2,542.3L357.2,541.4L357.2,540.3L357.2,539.3L357.2,539.0L357.2,538.5L356.4,537.2L356.1,537.2L356.0,512.0L363.1,512.1L384.0,511.9L384.1,541.4Z"/>
    <path class="wtc-county" id="wtc-county-huron" data-county="Huron" d="M490.1,381.5L459.2,382.7L438.2,383.4L438.1,378.4L438.2,378.0L438.6,377.5L439.8,375.8L439.8,375.4L439.7,375.1L439.4,375.0L439.9,373.8L440.6,372.7L441.2,372.6L441.5,372.3L441.5,372.1L441.4,371.3L441.5,370.6L441.7,370.1L442.8,369.6L442.8,369.4L442.8,369.1L444.7,368.1L446.3,366.2L446.3,365.1L446.2,364.8L445.7,364.3L445.3,364.1L445.3,363.8L445.4,363.7L445.9,363.4L447.1,363.2L447.9,362.8L449.3,361.6L450.1,360.1L450.5,359.1L450.5,358.7L452.6,358.1L454.5,357.9L455.4,358.0L457.6,357.4L458.2,357.1L459.1,356.5L459.8,356.3L461.6,356.5L462.4,356.3L462.8,356.1L463.5,355.3L464.5,353.3L464.9,352.9L466.4,352.8L466.9,352.6L468.3,351.3L468.8,351.3L469.0,351.5L469.5,351.6L470.6,351.0L471.4,350.9L473.0,352.5L473.8,353.0L476.4,353.6L478.8,354.7L479.1,355.5L479.4,355.8L480.5,356.0L481.7,356.9L482.1,357.4L482.8,358.8L483.7,360.6L483.9,360.8L484.9,363.2L485.8,366.0L487.2,367.2L487.9,368.5L487.9,369.0L487.7,369.1L487.6,369.3L487.8,369.7L488.5,370.2L489.4,375.2L489.4,376.2L489.5,377.0L489.8,377.6Z"/>
    <path class="wtc-county" id="wtc-county-missaukee" data-county="Missaukee" d="M354.5,315.4L354.2,322.6L354.5,343.6L340.2,343.3L325.3,343.3L325.3,315.3Z"/>
    <path class="wtc-county" id="wtc-county-montmorency" data-county="Montmorency" d="M383.5,287.7L383.8,259.9L391.0,259.9L413.1,259.7L412.7,287.5Z"/>
    <path class="wtc-county" id="wtc-county-ogemaw" data-county="Ogemaw" d="M383.5,315.7L412.8,315.6L412.9,343.5L395.9,343.5L383.7,343.6L383.8,342.4Z"/>
    <path class="wtc-county" id="wtc-county-otsego" data-county="Otsego" d="M383.5,287.7L354.7,287.4L354.1,266.6L361.5,266.7L361.6,259.7L383.8,259.9Z"/>
    <path class="wtc-county" id="wtc-county-st-joseph" data-county="St. Joseph" d="M301.7,537.2L300.2,537.2L300.2,537.2L298.7,537.2L297.7,537.2L299.6,534.0L299.4,512.2L327.8,512.0L327.8,537.2L327.5,537.2L326.9,537.2L326.3,537.2L325.5,537.2L324.3,537.2L322.6,537.2L319.7,537.2L319.4,537.2L314.3,537.2L314.2,537.2L308.8,537.2L308.7,537.2L307.9,537.2L307.7,537.2L307.3,537.2L306.4,537.2L306.2,537.2L305.6,537.2Z"/>
    <path class="wtc-county" id="wtc-county-alcona" data-county="Alcona" d="M446.9,287.4L446.9,287.8L446.9,287.8L446.9,287.8L447.1,288.2L447.4,288.7L447.4,288.7L447.4,288.8L447.4,288.8L447.5,288.8L447.7,289.1L447.8,289.2L448.2,289.7L448.2,290.2L448.3,290.8L448.5,292.6L448.5,292.6L448.5,292.9L448.5,293.0L448.5,293.8L448.4,295.4L448.4,295.4L448.3,295.7L448.3,295.7L448.3,295.8L448.4,296.1L448.4,296.3L448.4,296.3L448.4,296.4L448.4,296.6L448.8,297.7L448.8,297.8L448.9,298.0L449.1,298.3L449.2,298.4L449.2,298.5L449.6,298.8L449.7,299.0L449.8,299.0L449.8,299.0L449.8,299.8L449.7,300.0L449.7,300.1L449.7,300.1L449.7,300.2L449.7,300.3L449.7,300.3L449.7,300.6L449.6,301.0L449.6,301.2L449.5,301.5L449.5,301.6L449.1,303.1L449.0,303.3L449.0,303.4L449.0,303.5L449.0,303.6L448.9,303.9L448.5,304.6L447.8,305.8L447.8,305.8L447.7,306.2L447.6,306.4L447.6,306.4L447.3,307.5L447.3,307.5L447.3,307.5L447.3,308.0L447.3,308.0L447.3,308.3L447.3,308.4L447.3,308.6L447.3,308.7L447.4,310.5L447.4,310.5L447.4,310.6L447.4,310.7L447.4,310.8L447.4,310.9L447.4,310.9L447.4,311.0L447.4,311.1L447.4,311.1L447.7,312.3L447.7,312.3L447.7,312.4L447.7,312.4L447.7,313.1L447.7,313.3L447.6,313.4L447.6,313.5L447.5,313.6L447.5,313.7L447.1,315.1L447.1,315.1L447.1,315.1L447.1,315.3L412.8,315.6L412.7,287.5Z"/>
    <path class="wtc-county" id="wtc-county-leelanau" data-county="Leelanau" d="M306.8,294.1L296.2,294.1L280.7,293.8L280.7,291.7L281.1,290.4L281.1,289.3L280.8,286.8L280.7,285.3L280.8,284.4L281.0,283.6L281.5,283.1L282.8,282.8L283.2,283.4L283.8,283.8L284.5,284.1L285.5,284.0L286.3,283.5L286.7,282.8L287.1,281.7L287.4,281.2L287.9,280.7L288.6,279.7L288.8,278.8L289.2,278.5L290.2,278.5L291.3,279.0L291.6,279.4L292.3,280.5L292.9,280.9L293.9,281.0L295.0,280.8L296.2,280.4L296.7,280.0L298.3,277.7L298.5,277.3L298.6,275.9L298.9,274.7L299.5,274.1L300.4,271.8L300.7,271.5L302.5,270.7L303.5,269.8L304.3,268.5L304.7,267.5L304.7,266.6L305.9,264.2L308.1,260.9L308.4,261.1L308.5,261.4L308.8,261.6L309.7,261.6L310.1,261.4L311.4,260.4L311.6,259.8L312.2,259.0L312.8,259.0L313.7,260.7L313.4,261.7L313.1,262.0L312.1,262.5L311.6,263.2L311.5,263.3L311.5,263.4L311.4,263.5L311.4,263.6L311.3,263.6L311.1,263.6L311.0,263.5L310.8,263.4L309.8,263.6L309.3,263.9L308.4,265.7L308.7,266.8L310.3,270.2L310.9,270.5L311.3,271.2L311.3,272.5L311.0,272.6L310.8,272.5L309.4,272.7L309.3,274.2L308.7,274.9L307.9,275.6L308.8,276.7L309.0,276.7L309.1,278.0L309.1,281.9L308.0,282.2L307.7,282.3L306.8,284.8L306.5,285.3L306.3,286.1L306.1,288.1L306.1,289.5L306.7,291.2L307.0,292.9L306.8,294.1ZM279.4,275.3L278.1,276.0L277.0,276.2L275.7,275.8L275.6,275.1L275.7,274.5L276.5,272.7L276.7,272.5L278.0,272.1L279.4,272.6L280.3,273.5L279.4,273.4L279.2,273.5L279.0,273.9L278.9,274.1L279.0,274.5ZM283.1,263.2L284.7,263.4L285.5,263.7L285.7,263.8L286.5,264.8L286.5,266.2L286.3,266.9L286.0,268.9L286.1,269.5L286.5,270.1L286.5,270.9L285.2,271.5L284.3,270.8L283.9,270.2L282.8,269.0L281.9,268.3L281.5,267.8L281.4,267.5L281.1,264.7L281.5,263.7L282.0,263.2L282.4,263.1Z"/>
    <path class="wtc-county" id="wtc-county-mason" data-county="Mason" d="M259.0,371.1L259.0,369.8L259.0,369.7L259.0,369.6L259.0,369.4L259.0,369.4L258.9,368.7L258.9,368.4L258.9,368.2L258.8,368.2L258.8,368.1L258.8,368.0L258.2,365.5L258.1,365.2L258.1,365.0L258.1,364.5L258.0,363.2L258.0,363.2L258.0,363.1L257.9,362.7L257.8,362.2L257.6,361.4L257.1,359.0L257.1,358.9L257.1,358.9L257.1,358.9L256.0,356.7L255.9,356.5L255.8,356.4L254.8,354.8L254.7,354.7L254.6,354.5L254.6,354.5L254.3,353.9L254.0,352.7L254.0,351.9L254.0,351.9L254.0,351.9L254.3,351.2L254.3,351.1L254.4,351.1L254.8,350.5L254.8,350.5L255.0,350.4L256.7,349.1L257.6,348.4L258.0,348.1L258.1,348.1L258.1,348.0L258.1,348.0L259.1,346.9L259.3,346.7L259.3,346.6L259.4,346.5L259.6,346.2L259.6,346.1L260.9,343.9L261.0,343.6L261.1,343.5L261.1,343.4L261.7,342.2L282.5,343.1L282.7,371.2L282.8,371.4L259.9,371.1Z"/>
    <path class="wtc-county" id="wtc-county-arenac" data-county="Arenac" d="M432.2,343.4L432.2,343.4L432.2,343.6L432.1,343.7L432.0,344.0L432.0,344.4L432.0,344.9L432.0,345.0L432.0,345.0L432.0,346.1L432.0,346.2L432.0,346.4L432.0,346.6L432.0,346.8L432.0,346.9L431.7,348.4L430.8,349.6L430.6,350.2L430.7,351.0L431.1,352.0L430.0,352.2L428.8,352.1L427.1,352.4L425.3,353.7L424.8,354.9L425.3,357.1L423.5,357.1L421.4,357.3L421.2,357.5L420.6,357.7L420.3,357.8L420.2,357.8L420.2,357.8L420.2,357.8L419.3,357.8L418.7,357.8L416.3,357.5L416.3,357.5L416.3,357.5L416.3,357.5L416.3,357.5L415.1,358.1L414.9,358.2L414.9,358.3L414.9,358.3L414.8,358.4L414.7,358.4L414.7,358.5L414.7,358.6L414.7,358.6L414.7,358.6L414.6,358.6L414.6,358.8L414.6,358.8L414.6,358.8L414.5,359.0L414.5,359.0L414.4,359.0L414.4,359.0L414.4,359.0L414.4,359.0L414.4,359.1L413.8,359.8L413.8,359.8L413.4,359.9L413.3,359.9L413.2,360.2L413.2,360.2L412.9,360.9L412.8,360.9L412.8,360.9L412.6,361.9L412.5,362.8L411.5,363.2L411.3,363.8L403.2,363.7L403.2,356.8L395.9,356.8L395.9,343.5L412.9,343.5Z"/>
    <path class="wtc-county" id="wtc-county-menominee" data-county="Menominee" d="M206.2,237.6L205.5,238.3L205.3,238.5L204.7,239.6L204.5,239.9L204.5,240.0L204.5,240.2L204.5,240.3L204.5,240.7L204.5,240.7L204.6,241.0L204.7,241.1L204.8,241.2L204.9,241.2L204.9,241.3L205.0,241.3L204.9,241.3L204.8,241.7L204.8,241.7L204.7,241.9L204.7,242.0L204.3,242.5L204.2,242.6L203.5,243.1L203.4,243.1L202.9,243.7L202.9,243.8L202.9,243.9L202.6,244.6L202.2,245.0L201.2,246.0L201.1,246.0L201.1,246.1L201.1,246.1L201.0,246.2L200.9,246.2L200.8,246.6L200.5,247.8L199.9,248.6L198.8,250.1L198.6,250.5L198.3,251.2L198.2,251.3L198.2,251.5L198.1,252.3L197.1,253.3L197.1,253.4L196.6,253.9L196.5,253.9L194.6,256.6L194.2,257.1L194.2,257.2L193.7,257.9L192.6,259.2L192.3,259.5L191.5,260.5L191.3,260.7L191.0,260.8L190.6,261.1L189.5,262.3L189.3,262.6L189.1,262.8L188.6,263.7L188.3,264.1L187.9,265.1L187.9,265.1L187.8,265.3L187.7,266.0L187.7,266.1L187.7,266.2L187.7,266.2L187.7,266.3L187.8,266.8L187.9,266.9L188.0,267.1L188.1,267.2L188.1,267.3L188.2,267.4L188.3,267.5L188.3,267.5L188.3,267.5L188.3,267.5L188.3,267.6L188.4,267.7L188.5,267.7L188.5,267.8L188.9,268.1L189.0,268.2L189.0,268.2L189.5,268.1L189.0,268.3L184.8,267.3L180.5,262.2L180.2,261.7L179.8,260.0L180.0,259.7L180.4,259.3L181.6,256.3L181.9,255.1L181.8,255.0L185.5,248.6L185.5,247.7L184.9,246.2L183.9,245.1L183.2,244.6L182.7,244.5L181.2,245.5L179.2,247.6L178.0,247.7L176.9,247.5L174.3,247.6L174.2,247.7L174.0,248.1L173.3,248.5L171.2,247.6L171.0,247.4L172.7,241.8L175.1,238.9L175.5,238.6L175.9,237.9L176.4,236.9L176.7,235.7L177.0,230.3L176.8,226.2L176.6,226.1L174.9,223.8L174.9,222.8L177.4,221.7L177.5,221.1L175.9,218.9L174.6,217.7L182.5,217.7L182.5,203.5L187.3,203.5L187.4,196.5L202.4,196.5L205.0,203.5L204.9,231.6L208.7,231.6L207.7,234.2L207.2,235.5L207.2,235.6Z"/>
    <path class="wtc-county" id="wtc-county-baraga" data-county="Baraga" d="M150.2,120.1L152.5,118.9L153.5,118.3L154.1,118.1L154.1,118.1L154.3,117.9L154.3,117.9L154.4,117.9L154.4,117.9L154.4,117.9L154.5,117.8L154.6,117.8L154.8,117.6L154.8,117.6L154.8,117.6L155.4,117.4L155.5,117.4L155.5,117.4L155.6,117.5L155.6,117.5L155.6,117.5L155.6,117.5L155.6,117.5L155.7,117.5L156.2,117.8L156.2,117.8L156.1,118.0L155.2,119.3L154.8,119.6L154.1,120.2L153.9,120.4L153.9,120.4L153.6,120.6L153.6,120.7L153.5,120.8L153.0,121.2L152.9,121.3L153.2,121.7L153.2,121.8L153.6,122.4L154.4,122.4L154.5,122.4L156.4,122.0L156.6,122.0L156.6,122.0L156.7,122.0L156.7,122.0L156.8,121.9L157.8,121.5L157.9,121.5L158.0,121.4L158.0,121.4L158.1,121.4L158.1,121.4L158.2,121.4L158.2,121.4L158.3,121.4L158.3,121.4L158.3,121.4L159.2,121.2L159.2,121.2L159.3,121.2L159.3,121.2L159.4,121.2L159.7,121.2L160.3,121.3L160.4,121.3L161.5,121.8L161.5,133.7L164.7,140.6L157.2,140.7L157.2,161.5L123.2,161.5L123.2,126.7L130.9,126.7L130.9,119.7L137.0,119.7L137.0,119.7L136.9,120.0L136.9,120.1L136.8,120.6L136.8,120.6L136.7,120.7L136.7,120.8L136.7,120.9L136.6,121.3L135.6,123.7L135.5,123.9L135.5,124.3L135.4,125.4L135.4,126.4L135.4,126.4L135.4,126.7L135.3,126.8L135.0,128.3L135.1,128.7L135.6,130.4L136.3,131.9L137.7,131.9L138.0,131.4L139.1,129.9L141.2,127.8L141.1,127.3L141.1,127.1L141.2,127.0L141.2,126.8L141.3,126.6L141.4,126.4L141.5,126.2L141.7,126.2L141.9,126.2L142.3,126.3L142.4,126.3L142.4,126.3L142.5,126.3L142.9,126.3L143.0,126.3L143.0,126.3L143.2,126.0L144.0,125.2L144.1,125.1L144.1,125.1L145.5,123.7L145.5,123.6L145.6,123.6L145.6,123.5L145.7,123.5L145.8,123.4L146.1,123.1L146.3,123.0L146.7,122.6L146.8,122.6L146.9,122.5L147.2,122.3L147.2,122.3L147.2,122.3L147.5,122.1L147.6,122.0L147.7,122.0L147.8,121.9L148.4,121.5L148.6,121.3L149.1,120.8L149.3,120.6L149.3,120.6L149.5,120.4L149.5,120.4L149.6,120.3L149.6,120.3L149.7,120.3L149.7,120.3L149.8,120.2L150.0,120.1L150.0,120.1L150.1,120.1Z"/>
    <path class="wtc-county" id="wtc-county-charlevoix" data-county="Charlevoix" d="M311.3,214.7L312.3,214.9L312.6,215.4L313.1,215.5L313.8,215.5L314.9,215.1L315.2,215.2L315.4,215.8L315.1,216.1L314.8,216.1L314.7,216.1L314.8,215.9L314.7,215.6L314.4,215.6L314.0,215.9L314.0,216.4L314.0,216.5L314.6,216.8L315.4,217.4L315.6,219.1L315.6,219.7L315.1,220.3L314.9,221.1L315.1,221.9L315.3,222.4L315.9,223.4L316.1,225.9L315.8,226.8L314.7,227.9L314.2,228.2L313.7,228.3L313.5,228.5L313.2,229.4L312.8,229.6L311.6,229.8L308.2,229.0L307.9,228.7L307.4,227.7L308.0,225.6L308.7,225.0L309.0,224.4L308.9,223.8L308.7,222.9L309.0,221.0L309.2,220.4L309.8,219.7L310.2,219.5L310.9,218.6L311.4,217.1L311.4,215.9L311.2,215.5L311.2,214.9ZM361.6,259.7L361.5,266.7L354.1,266.6L332.0,266.5L332.0,259.4L322.1,259.2L322.0,257.0L323.0,254.1L324.0,253.2L325.3,252.3L325.9,251.5L326.9,250.7L327.7,250.5L328.0,250.7L329.0,250.5L329.6,250.2L330.1,249.7L330.3,249.3L331.3,248.6L332.8,247.2L333.6,246.9L334.5,246.9L336.8,246.1L339.7,246.4L344.8,253.5L361.7,252.6L361.5,259.6Z"/>
    <path class="wtc-county" id="wtc-county-muskegon" data-county="Muskegon" d="M257.1,399.1L257.2,399.1L282.7,399.5L282.7,413.5L297.7,413.6L297.7,420.7L290.6,420.6L290.7,427.6L268.6,427.7L268.1,426.2L267.0,423.8L266.3,422.1L266.2,422.1L266.0,421.5L265.1,419.8L264.3,418.0L264.0,417.5L264.0,417.5L263.9,417.4L263.9,417.3L263.8,417.1L263.8,417.0L263.7,416.8L263.4,416.3L261.9,413.3L261.9,413.2L261.7,412.9L261.7,412.9L261.6,412.6L261.5,412.5L261.4,412.2L261.3,412.0L261.2,411.7L260.8,410.8L260.7,410.6L260.7,410.6L260.6,410.4L260.4,409.9L260.2,409.2L259.2,406.5L258.8,405.3L258.8,405.3L258.8,405.2L258.8,405.2L258.6,404.6L258.6,404.6L258.6,404.6L258.6,404.4L258.0,402.4L258.0,402.4L257.6,401.0L257.5,400.6L257.5,400.4L257.4,400.2Z"/>
    <path class="wtc-county" id="wtc-county-oceana" data-county="Oceana" d="M257.1,399.1L256.8,397.5L256.8,397.5L256.7,397.5L256.3,396.1L256.2,396.0L256.1,395.8L256.1,395.7L256.1,395.6L256.0,395.4L256.0,395.4L256.0,395.3L255.9,395.3L255.9,395.2L255.9,395.2L254.5,392.4L254.3,392.0L254.3,392.0L254.1,391.7L254.0,391.4L254.0,391.3L253.9,391.2L253.9,391.2L253.9,391.1L253.8,391.0L253.7,390.9L253.7,390.7L253.6,390.7L253.6,390.7L253.1,389.4L252.6,387.5L252.5,387.4L252.5,387.2L252.5,387.2L252.5,387.1L252.5,387.0L252.5,387.0L252.4,386.2L252.4,386.1L252.4,386.0L252.4,385.4L252.4,385.2L252.4,385.2L252.5,384.2L252.5,384.1L252.6,384.0L253.1,382.6L253.1,382.6L253.2,382.4L253.2,382.3L253.8,381.5L253.9,381.4L254.0,381.2L254.2,380.9L254.2,380.9L254.4,380.7L254.5,380.6L254.6,380.5L254.7,380.3L254.7,380.3L254.7,380.2L255.1,379.8L255.6,379.2L255.7,379.1L256.0,378.7L256.0,378.6L256.0,378.6L256.1,378.6L257.1,377.2L257.2,377.0L257.3,376.9L258.2,375.0L258.2,375.0L258.2,375.0L258.3,374.6L258.6,373.6L258.6,373.6L259.0,371.5L259.0,371.4L259.0,371.2L259.0,371.1L259.9,371.1L282.8,371.4L282.7,399.5L257.2,399.1Z"/>
    <path class="wtc-county" id="wtc-county-ottawa" data-county="Ottawa" d="M297.7,420.7L297.9,434.7L298.1,438.3L298.2,455.9L272.5,455.9L272.3,454.6L272.3,450.6L272.3,448.6L272.1,446.6L272.0,443.7L271.4,438.1L271.0,435.9L270.3,433.2L270.0,432.6L269.9,431.8L269.7,430.5L268.6,427.7L290.7,427.6L290.6,420.6Z"/>
    <path class="wtc-county" id="wtc-county-presque-isle" data-county="Presque Isle" d="M393.6,225.4L394.1,225.9L395.0,227.2L396.4,228.8L397.5,229.7L398.1,230.6L398.3,231.1L398.3,232.2L398.5,233.7L398.9,234.6L399.3,235.2L400.1,235.9L401.3,236.4L402.5,236.5L403.5,236.2L403.7,236.0L404.2,235.9L405.3,236.1L406.0,236.4L407.3,236.1L409.6,236.2L411.4,236.8L413.1,238.2L414.5,239.9L415.5,240.9L417.6,242.2L418.7,242.4L419.6,242.3L420.7,242.8L421.8,242.8L422.7,242.7L424.2,244.0L426.0,245.0L427.4,246.0L430.1,247.5L431.9,248.0L433.1,247.7L433.3,247.5L433.4,247.1L433.8,247.1L434.9,248.0L435.2,248.0L436.3,247.1L436.8,247.3L437.5,248.4L437.5,248.4L438.1,249.2L439.4,250.9L440.2,251.5L440.7,252.0L440.8,252.4L440.8,252.5L440.8,252.5L440.8,252.5L440.9,252.6L442.1,253.4L442.1,253.4L442.1,253.4L442.2,253.4L442.2,253.5L442.9,253.6L443.1,253.9L443.3,254.3L442.9,255.4L441.4,256.2L441.4,256.7L441.8,257.7L442.9,259.3L413.1,259.7L391.0,259.9L390.7,225.5Z"/>
    <path class="wtc-county" id="wtc-county-sanilac" data-county="Sanilac" d="M466.6,424.8L466.3,414.2L459.2,414.3L459.1,410.8L460.1,410.8L459.2,382.7L490.1,381.5L490.2,382.5L490.2,383.2L490.5,388.6L490.6,389.6L490.9,390.3L491.4,393.3L492.6,396.7L492.6,397.1L493.3,399.8L494.2,401.9L494.2,402.4L494.1,403.1L494.4,407.5L494.3,409.1L494.7,410.3L494.8,411.7L494.6,412.6L495.2,419.0L495.4,420.1L496.0,421.3L496.4,423.6Z"/>
    <path class="wtc-county" id="wtc-county-schoolcraft" data-county="Schoolcraft" d="M293.2,197.9L292.2,197.9L291.5,198.0L290.6,198.7L290.4,198.9L290.4,198.9L289.7,199.5L289.5,200.3L289.5,200.8L290.1,201.2L290.5,201.6L290.3,201.8L289.9,201.7L287.9,200.5L285.1,199.3L282.0,198.4L280.7,198.2L279.4,198.0L277.6,198.2L276.3,198.8L276.0,199.0L275.4,199.1L273.2,198.3L272.5,198.3L271.7,198.7L271.2,199.5L271.0,199.7L270.1,199.8L269.7,199.5L268.3,200.0L266.0,202.2L265.5,202.9L265.0,207.3L264.0,208.7L263.6,211.0L263.8,211.6L263.1,212.3L262.7,212.3L261.2,212.3L260.8,211.8L259.9,212.0L259.4,212.3L259.2,212.6L259.2,212.9L259.3,213.2L259.2,213.4L259.0,214.1L258.8,214.3L258.8,214.3L258.5,214.6L258.5,214.7L258.3,214.7L257.6,215.0L257.3,214.9L255.5,203.7L255.5,182.6L247.9,182.6L247.9,168.5L263.0,168.6L263.0,154.6L293.2,154.7L293.2,175.6Z"/>
    <path class="wtc-county" id="wtc-county-gogebic" data-county="Gogebic" d="M104.4,187.5L100.3,185.3L96.2,183.7L94.0,183.1L93.7,183.0L92.0,182.6L91.6,182.5L91.5,182.5L91.4,182.4L90.6,182.2L90.5,182.2L87.1,181.3L87.1,181.3L48.9,171.5L48.8,171.5L47.7,171.2L36.1,168.2L36.1,166.4L36.1,166.4L35.2,165.1L35.2,165.1L33.3,159.9L33.3,159.9L32.6,159.8L31.0,156.7L26.2,153.5L24.8,153.6L24.4,153.7L24.4,153.7L21.8,151.8L20.8,151.9L19.2,151.5L19.2,151.5L18.3,150.4L18.3,150.4L18.1,149.7L18.1,149.7L19.3,148.9L19.4,148.9L19.4,148.9L19.4,148.9L19.5,148.8L20.9,147.9L21.9,147.2L22.0,147.1L22.3,146.9L22.4,146.9L23.6,146.4L23.6,146.4L24.9,146.8L25.5,146.4L26.2,146.1L26.2,146.1L26.3,146.0L26.5,145.9L26.6,145.9L27.3,145.5L27.3,145.5L28.2,145.3L28.3,145.2L29.0,145.0L33.5,143.3L37.3,142.5L40.6,141.5L41.7,141.0L43.6,139.5L44.2,138.7L45.0,138.1L46.0,137.6L48.3,135.7L49.0,134.9L49.9,133.8L50.1,133.6L50.2,133.6L51.6,147.6L59.1,147.6L59.0,154.6L81.7,154.6L81.7,168.5L104.4,168.5Z"/>
    <path class="wtc-county" id="wtc-county-grand-traverse" data-county="Grand Traverse" d="M306.8,294.1L307.1,294.4L307.6,294.7L307.8,294.7L307.8,294.8L308.0,294.8L308.1,294.8L308.6,294.9L308.8,294.9L308.9,294.9L309.3,294.8L309.3,294.8L309.3,294.8L309.6,294.6L309.6,294.6L309.6,294.6L309.6,294.6L309.7,293.8L309.8,293.5L309.8,293.5L309.8,293.4L310.4,291.5L310.4,291.4L312.5,286.9L312.9,286.5L313.3,286.2L313.4,284.9L313.4,284.9L313.4,284.9L312.1,284.8L312.1,284.8L311.7,285.0L311.4,284.4L311.5,284.3L311.5,284.3L311.8,283.9L311.9,283.9L311.9,283.9L312.2,283.5L312.9,282.7L312.9,282.6L313.0,282.5L313.3,282.0L313.4,281.3L313.5,281.1L314.1,279.2L314.1,279.1L314.0,279.0L314.0,278.7L314.0,278.6L314.0,278.3L314.1,278.1L314.1,278.0L315.7,276.8L315.7,276.8L316.8,276.7L316.9,277.1L317.0,277.3L317.1,277.5L317.1,277.6L317.2,278.1L317.2,278.2L317.3,278.6L317.4,279.1L317.3,279.3L317.1,279.3L317.0,279.3L317.0,279.2L317.0,279.2L316.8,279.3L316.2,279.7L316.0,281.0L315.9,281.3L315.8,281.6L315.8,281.8L315.8,281.8L315.8,281.8L315.8,281.9L315.8,282.0L315.8,282.0L315.8,282.0L315.8,282.1L315.7,283.2L315.7,283.4L315.9,283.8L316.0,283.9L316.0,283.9L315.9,284.2L315.9,284.3L315.4,286.8L315.2,287.3L315.2,287.6L315.1,287.6L314.8,288.2L314.8,288.2L314.6,288.3L314.5,288.3L314.3,288.4L314.1,288.4L314.1,288.4L313.6,288.8L313.3,289.1L313.0,289.3L312.9,289.3L312.7,289.6L312.5,289.8L312.4,289.9L312.2,290.3L312.1,290.4L312.0,290.5L311.9,290.6L311.8,290.9L311.6,291.3L311.6,291.3L311.6,291.4L311.6,292.0L311.6,292.1L311.6,292.4L311.6,292.4L311.6,292.5L311.6,292.9L311.6,292.9L311.1,294.1L311.0,294.5L310.7,295.1L310.7,295.3L310.7,295.3L310.7,295.3L311.0,295.7L312.0,296.2L312.0,296.2L312.0,296.2L313.0,296.4L313.6,296.3L313.9,296.0L314.7,295.0L315.0,294.7L315.0,294.7L315.0,294.6L315.1,294.3L315.0,294.2L315.0,293.8L315.0,293.6L314.9,293.4L314.7,293.1L314.8,293.0L314.8,292.9L315.3,291.8L315.5,291.7L316.2,291.2L316.4,291.1L316.7,291.0L316.8,290.9L316.8,290.9L316.8,290.9L316.8,290.9L317.5,290.1L317.5,290.1L317.5,290.1L317.5,290.0L317.7,289.2L317.9,288.9L317.9,288.9L317.9,288.9L317.9,288.7L318.0,288.7L318.1,288.4L318.8,287.3L325.4,291.1L325.3,315.3L296.1,315.2L296.2,294.1Z"/>
    <path class="wtc-county" id="wtc-county-ionia" data-county="Ionia" d="M326.6,427.6L355.4,427.6L355.3,455.7L341.0,455.7L326.8,455.8Z"/>
  </g>
</svg>