<?xml version="1.0" encoding="UTF-8"?>
<svg xmlns="http://www.w3.org/2000/svg" viewBox="0 0 455 600" id="wtc-state-map-NH" role="img" aria-label="nh county map">
  <title>nh Counties</title>
  <g class="wtc-counties">
    <path class="wtc-county" id="wtc-county-belknap" data-county="Belknap" d="M246.0,346.0L248.1,358.2L224.0,360.7L223.3,372.9L216.5,378.0L208.2,378.8L208.9,383.9L218.5,396.1L226.1,397.7L233.0,408.6L242.6,405.3L303.1,437.2L317.6,423.9L311.4,393.3L316.9,388.7L299.0,382.4L246.0,346.0Z"/>
    <path class="wtc-county" id="wtc-county-carroll" data-county="Carroll" d="M268.7,259.6L268.7,268.1L274.2,270.4L274.9,281.5L281.8,287.1L274.9,296.0L279.1,316.4L239.9,320.7L246.0,346.0L299.0,382.4L316.9,388.7L323.8,382.1L326.5,394.7L341.0,390.3L343.7,399.4L355.4,388.2L353.4,382.6L350.6,340.1L346.5,245.6L339.6,245.9L340.3,254.8L299.7,253.5L290.1,273.9L288.7,282.6L282.5,282.6L279.8,268.5L268.7,259.6Z"/>
    <path class="wtc-county" id="wtc-county-cheshire" data-county="Cheshire" d="M69.9,460.9L73.4,475.9L67.2,481.3L71.3,489.9L65.8,497.3L56.9,499.0L56.2,508.3L50.0,520.4L58.3,537.2L62.4,535.5L68.6,544.2L102.3,545.2L170.4,547.0L166.9,532.4L161.4,532.2L155.2,502.7L144.9,502.4L145.6,488.3L149.1,467.2L122.2,466.7L126.4,457.0L84.4,461.8L85.1,466.5L74.1,465.9L69.9,460.9Z"/>
    <path class="wtc-county" id="wtc-county-coos" data-county="Coos" d="M201.3,222.4L214.4,236.7L235.7,241.8L237.8,251.5L250.9,249.9L263.2,252.5L268.7,259.6L279.8,268.5L282.5,282.6L288.7,282.6L290.1,273.9L299.7,253.5L340.3,254.8L339.6,245.9L346.5,245.6L342.3,174.6L332.0,50.0L323.1,61.5L303.8,60.7L293.5,50.7L278.4,57.6L275.6,61.9L263.2,63.7L272.2,69.6L264.6,81.8L266.7,84.2L254.3,94.8L252.2,106.0L244.7,110.9L253.6,125.6L241.2,137.9L238.5,148.5L228.2,157.0L235.7,173.8L242.6,180.1L241.2,192.1L233.7,194.2L237.8,203.9L226.8,207.6L222.0,215.0L212.3,221.4L201.3,222.4Z"/>
    <path class="wtc-county" id="wtc-county-grafton" data-county="Grafton" d="M117.4,344.2L104.3,351.3L98.2,358.5L93.3,377.0L116.7,379.8L143.6,387.7L169.0,390.6L185.5,374.8L191.7,387.7L202.7,383.1L208.9,383.9L208.2,378.8L216.5,378.0L223.3,372.9L224.0,360.7L248.1,358.2L246.0,346.0L239.9,320.7L279.1,316.4L274.9,296.0L281.8,287.1L274.9,281.5L274.2,270.4L268.7,268.1L268.7,259.6L263.2,252.5L250.9,249.9L237.8,251.5L235.7,241.8L214.4,236.7L201.3,222.4L195.8,223.7L192.4,232.3L187.6,233.6L160.1,235.5L150.4,238.8L143.6,248.9L147.7,254.5L143.6,263.9L149.1,270.0L146.3,279.2L150.4,282.8L142.2,294.2L133.9,301.4L133.9,315.4L120.9,326.4L121.5,337.0L117.4,344.2Z"/>
    <path class="wtc-county" id="wtc-county-hillsborough" data-county="Hillsborough" d="M149.1,467.2L145.6,488.3L144.9,502.4L155.2,502.7L161.4,532.2L166.9,532.4L170.4,547.0L175.9,547.2L292.1,550.0L299.0,542.4L301.1,541.3L298.3,538.8L281.1,535.5L274.2,525.8L266.7,525.5L261.9,505.2L274.9,503.7L272.9,490.1L263.9,488.4L248.8,478.7L225.4,481.5L219.9,462.7L184.1,469.8L173.1,452.2L154.6,455.8L149.1,467.2Z"/>
    <path class="wtc-county" id="wtc-county-merrimack" data-county="Merrimack" d="M169.0,390.6L154.6,408.2L146.3,407.4L147.0,419.4L139.4,430.1L144.2,443.0L154.6,455.8L173.1,452.2L184.1,469.8L219.9,462.7L225.4,481.5L248.8,478.7L263.9,488.4L272.9,490.1L273.6,484.0L301.1,439.2L303.1,437.2L242.6,405.3L233.0,408.6L226.1,397.7L218.5,396.1L208.9,383.9L202.7,383.1L191.7,387.7L185.5,374.8L169.0,390.6Z"/>
    <path class="wtc-county" id="wtc-county-rockingham" data-county="Rockingham" d="M272.9,490.1L274.9,503.7L261.9,505.2L266.7,525.5L274.2,525.8L281.1,535.5L298.3,538.8L301.1,541.3L313.5,542.3L312.8,532.1L323.1,526.1L336.2,529.1L342.3,518.9L367.1,513.6L377.4,518.6L382.9,516.4L384.3,509.2L404.9,480.5L382.9,468.3L374.7,468.0L371.9,476.6L360.9,474.6L334.1,476.2L343.0,465.5L301.1,439.2L273.6,484.0L272.9,490.1Z"/>
    <path class="wtc-county" id="wtc-county-strafford" data-county="Strafford" d="M303.1,437.2L301.1,439.2L343.0,465.5L334.1,476.2L360.9,474.6L371.9,476.6L374.7,468.0L382.9,468.3L380.9,455.8L385.0,448.9L356.8,427.8L350.6,419.1L356.1,402.5L355.4,388.2L343.7,399.4L341.0,390.3L326.5,394.7L323.8,382.1L316.9,388.7L311.4,393.3L317.6,423.9L303.1,437.2Z"/>
    <path class="wtc-county" id="wtc-county-sullivan" data-county="Sullivan" d="M73.4,447.3L69.9,460.9L74.1,465.9L85.1,466.5L84.4,461.8L126.4,457.0L122.2,466.7L149.1,467.2L154.6,455.8L144.2,443.0L139.4,430.1L147.0,419.4L146.3,407.4L154.6,408.2L169.0,390.6L143.6,387.7L116.7,379.8L93.3,377.0L83.7,381.9L80.3,394.1L83.7,399.9L76.8,422.1L81.0,432.0L73.4,447.3Z"/>
  </g>
</svg>