<?xml version="1.0" encoding="UTF-8"?>
<svg xmlns="http://www.w3.org/2000/svg" viewBox="0 0 600 278" id="wtc-state-map-KY" role="img" aria-label="ky county map">
  <title>ky Counties</title>
  <g class="wtc-counties">
    <path class="wtc-county" id="wtc-county-adair" data-county="Adair" d="M311.1,91.1L312.8,84.2L316.9,80.7L316.1,79.6L330.8,78.7L332.8,83.5L335.4,86.0L343.6,96.2L342.6,101.0L335.4,104.6L333.5,102.0L325.5,100.3L325.8,99.0L322.9,96.6L321.0,95.0L311.1,91.1Z"/>
    <path class="wtc-county" id="wtc-county-allen" data-county="Allen" d="M252.1,68.7L251.8,60.3L265.6,59.6L281.0,58.8L282.9,61.1L281.0,65.2L279.3,67.6L274.7,70.7L275.7,72.3L274.2,74.0L274.2,76.6L267.5,78.0L268.2,79.3L265.6,77.6L261.5,76.5L261.7,75.2L252.1,68.7Z"/>
    <path class="wtc-county" id="wtc-county-anderson" data-county="Anderson" d="M339.7,153.4L337.8,150.6L335.2,150.7L335.2,149.0L336.1,144.0L338.1,145.3L339.3,143.7L344.6,143.6L347.4,144.5L348.2,146.5L350.6,147.7L354.2,146.8L360.2,148.9L356.6,154.0L358.0,156.5L355.6,158.7L353.0,157.1L344.8,159.5L343.4,155.7L339.7,153.4Z"/>
    <path class="wtc-county" id="wtc-county-ballard" data-county="Ballard" d="M66.6,88.3L65.9,85.6L69.3,82.6L71.4,80.0L72.6,78.1L77.2,79.1L78.9,78.4L83.7,79.9L90.5,80.7L82.5,99.1L79.1,99.1L76.0,97.9L72.9,95.5L70.7,91.7L66.6,88.3Z"/>
    <path class="wtc-county" id="wtc-county-barren" data-county="Barren" d="M268.2,79.3L267.5,78.0L274.2,76.6L274.2,74.0L275.7,72.3L274.7,70.7L279.3,67.6L281.0,65.2L292.3,71.8L296.9,73.1L295.7,91.1L294.5,93.0L296.6,95.1L285.8,93.7L275.7,95.0L274.5,87.3L271.8,87.9L268.2,79.3Z"/>
    <path class="wtc-county" id="wtc-county-bath" data-county="Bath" d="M415.1,163.7L415.4,161.5L421.6,160.0L425.7,156.3L426.9,153.6L429.8,150.8L436.6,152.7L439.7,151.3L442.3,152.4L442.1,154.8L447.2,154.2L449.6,156.2L444.7,157.2L445.5,158.8L439.0,160.9L440.9,162.2L438.0,163.4L434.2,164.9L434.4,166.6L430.8,170.0L426.9,169.6L423.8,170.8L415.1,163.7Z"/>
    <path class="wtc-county" id="wtc-county-bell" data-county="Bell" d="M421.9,62.7L416.6,60.0L418.3,56.1L434.4,55.8L435.4,57.0L437.3,58.5L445.2,61.4L449.8,61.2L449.8,63.4L447.2,65.9L448.1,69.2L446.4,70.8L448.4,73.6L447.9,76.7L446.4,79.6L441.1,80.8L442.8,79.2L441.6,77.3L434.9,74.0L431.0,70.4L427.9,70.3L426.4,66.8L421.9,62.7Z"/>
    <path class="wtc-county" id="wtc-county-boone" data-county="Boone" d="M358.5,225.0L353.9,222.4L354.7,220.0L357.8,215.4L355.2,213.2L355.2,211.3L360.0,210.7L360.2,208.3L369.4,203.0L372.3,204.7L373.5,209.8L371.8,222.9L368.2,224.5L364.5,227.7L362.9,227.8L358.5,225.0Z"/>
    <path class="wtc-county" id="wtc-county-bourbon" data-county="Bourbon" d="M383.8,169.8L386.7,164.8L388.6,164.8L389.8,162.8L388.2,158.5L394.4,155.4L408.1,158.6L415.1,163.7L414.4,165.5L411.8,165.2L409.3,166.6L409.8,168.1L407.2,168.2L402.4,174.7L400.7,175.8L394.9,172.0L388.2,169.5L383.8,169.8Z"/>
    <path class="wtc-county" id="wtc-county-boyd" data-county="Boyd" d="M503.0,184.8L496.3,179.9L492.9,176.0L496.1,175.2L495.3,174.1L494.6,167.2L498.5,166.8L500.9,168.4L506.6,168.7L507.1,167.4L509.3,168.6L509.5,171.9L507.6,174.0L507.9,179.2L506.4,182.9L503.0,184.8Z"/>
    <path class="wtc-county" id="wtc-county-boyle" data-county="Boyle" d="M344.6,126.1L343.8,120.3L346.2,119.6L353.2,119.5L356.8,120.6L363.3,123.1L369.4,125.2L369.4,126.3L366.7,128.6L366.2,130.6L363.6,131.6L344.8,129.3L344.6,126.1Z"/>
    <path class="wtc-county" id="wtc-county-bracken" data-county="Bracken" d="M398.0,206.4L397.8,206.0L399.7,189.9L399.2,188.1L402.8,188.1L405.5,188.7L407.9,190.9L411.3,190.0L414.2,190.7L419.9,202.4L415.1,203.7L410.1,202.6L399.2,204.9L398.0,206.4Z"/>
    <path class="wtc-county" id="wtc-county-breathitt" data-county="Breathitt" d="M441.9,117.7L444.7,111.7L443.8,110.2L444.0,106.2L450.5,109.1L453.7,106.4L455.1,106.4L458.5,109.2L462.6,110.5L466.2,113.5L467.4,111.6L472.4,110.9L471.7,114.4L476.5,119.1L478.7,117.7L484.2,117.5L479.4,120.6L479.9,122.9L478.0,123.0L474.6,126.1L471.7,124.5L469.1,126.8L464.0,128.7L458.5,129.0L454.4,130.7L452.7,130.1L449.8,126.0L447.4,125.3L445.7,126.6L441.9,117.7Z"/>
    <path class="wtc-county" id="wtc-county-breckinridge" data-county="Breckinridge" d="M235.5,140.3L234.0,136.9L237.6,127.7L236.4,128.2L236.4,125.3L239.5,121.6L240.8,124.0L243.4,123.3L245.1,125.6L251.8,121.8L256.2,121.5L255.7,123.2L261.0,123.6L269.2,137.3L263.2,142.6L250.6,150.9L246.5,153.9L244.1,152.7L244.1,148.3L245.3,146.1L239.8,145.6L239.3,141.9L235.5,140.3Z"/>
    <path class="wtc-county" id="wtc-county-bullitt" data-county="Bullitt" d="M283.6,150.8L285.5,150.3L285.8,147.0L289.2,147.2L291.8,143.4L291.6,141.4L296.9,138.2L300.7,138.4L307.7,143.2L307.2,144.9L309.6,146.0L310.6,148.5L313.7,150.2L311.8,151.6L314.9,157.3L317.8,158.8L308.4,155.9L298.8,156.7L287.2,153.6L283.6,150.8Z"/>
    <path class="wtc-county" id="wtc-county-butler" data-county="Butler" d="M219.1,98.0L219.3,95.7L217.6,95.8L217.4,93.3L219.3,89.7L216.2,88.4L222.7,87.5L234.2,83.7L238.1,93.6L237.6,95.9L246.1,96.5L248.0,94.0L252.6,95.1L248.0,105.3L246.8,108.0L238.3,110.2L228.5,104.1L227.3,105.6L224.6,105.8L225.1,103.3L220.0,99.5L219.1,98.0Z"/>
    <path class="wtc-county" id="wtc-county-caldwell" data-county="Caldwell" d="M158.6,109.2L141.8,99.7L139.1,98.7L138.9,95.8L142.2,95.5L146.8,88.3L153.3,81.1L154.8,80.4L161.0,82.1L163.2,83.9L164.6,85.2L166.6,93.8L162.0,97.8L158.4,99.9L158.1,103.4L155.3,105.3L157.7,107.3L158.6,109.2Z"/>
    <path class="wtc-county" id="wtc-county-calloway" data-county="Calloway" d="M112.6,67.0L112.4,50.3L141.5,50.0L143.0,53.7L140.6,62.2L137.7,66.8L112.6,67.0Z"/>
    <path class="wtc-county" id="wtc-county-campbell" data-county="Campbell" d="M392.2,219.4L384.8,221.7L383.8,225.6L381.9,226.1L379.7,224.3L380.7,219.4L383.3,217.5L382.6,214.3L384.1,211.8L382.4,207.9L385.5,204.9L387.7,205.4L398.0,209.6L397.5,211.3L394.2,215.0L392.2,219.4Z"/>
    <path class="wtc-county" id="wtc-county-carlisle" data-county="Carlisle" d="M71.4,80.0L68.8,73.5L66.4,73.0L66.1,70.8L69.7,69.3L71.2,70.1L73.6,68.5L90.7,68.5L90.7,80.2L90.5,80.7L83.7,79.9L78.9,78.4L77.2,79.1L72.6,78.1L71.4,80.0Z"/>
    <path class="wtc-county" id="wtc-county-carroll" data-county="Carroll" d="M333.0,197.2L329.1,200.3L324.1,200.2L331.1,192.9L332.3,189.8L335.2,190.1L341.4,190.9L348.2,193.6L350.8,195.3L348.9,196.5L344.8,202.0L334.9,197.0L333.0,197.2Z"/>
    <path class="wtc-county" id="wtc-county-carter" data-county="Carter" d="M457.8,172.3L459.9,167.8L460.4,164.9L464.3,163.7L465.9,166.7L470.0,168.6L475.1,165.7L477.3,162.9L479.9,164.7L482.3,162.4L485.7,162.6L488.6,164.0L490.5,163.6L494.6,167.2L495.3,174.1L496.1,175.2L492.9,176.0L486.7,177.6L482.6,177.3L477.3,182.1L469.6,184.7L464.7,179.5L465.2,173.6L457.8,172.3Z"/>
    <path class="wtc-county" id="wtc-county-casey" data-county="Casey" d="M341.4,111.5L337.8,109.5L335.4,104.6L342.6,101.0L343.6,96.2L349.6,90.6L353.2,91.6L365.3,99.7L365.0,103.0L366.2,103.8L365.0,107.9L360.2,110.0L356.6,112.4L355.9,115.1L356.8,120.6L353.2,119.5L346.2,119.6L343.8,120.3L343.6,111.4L341.4,111.5Z"/>
    <path class="wtc-county" id="wtc-county-christian" data-county="Christian" d="M166.6,93.8L164.6,85.2L163.2,83.9L168.0,81.5L167.3,75.6L167.1,67.4L165.6,59.4L169.2,59.5L189.7,59.7L195.0,88.6L193.3,91.0L189.9,92.6L189.9,94.3L187.3,92.6L179.6,92.2L177.4,90.8L166.6,93.8Z"/>
    <path class="wtc-county" id="wtc-county-clark" data-county="Clark" d="M394.4,155.4L394.7,152.1L392.0,150.9L392.0,148.5L390.1,144.0L391.0,143.6L395.4,145.3L395.9,142.6L401.2,142.7L408.1,141.0L409.8,139.8L413.4,139.9L414.2,145.3L415.8,146.2L408.1,158.6L394.4,155.4Z"/>
    <path class="wtc-county" id="wtc-county-clay" data-county="Clay" d="M417.3,100.6L417.5,97.6L415.6,95.1L418.5,91.3L421.4,91.7L422.8,89.9L422.4,87.4L426.0,85.6L428.6,86.3L431.3,84.2L437.8,81.0L441.1,80.8L446.4,79.6L446.4,84.0L443.5,89.1L443.8,95.0L446.9,97.4L446.7,99.6L445.2,101.1L440.7,103.4L436.8,107.8L435.1,106.4L428.1,107.1L421.9,103.5L420.2,100.8L417.3,100.6Z"/>
    <path class="wtc-county" id="wtc-county-clinton" data-county="Clinton" d="M326.7,58.6L327.9,58.7L348.2,58.0L346.5,58.5L346.5,62.0L345.0,64.8L346.2,67.4L344.8,70.8L342.1,74.3L338.5,72.1L330.8,76.1L332.0,74.0L329.9,66.6L326.7,58.6Z"/>
    <path class="wtc-county" id="wtc-county-crittenden" data-county="Crittenden" d="M121.1,110.9L123.9,110.5L125.4,106.3L130.4,102.1L131.9,98.5L130.4,96.0L132.1,93.6L132.9,92.2L137.2,94.2L138.9,95.8L139.1,98.7L141.8,99.7L158.6,109.2L155.7,108.9L155.5,112.0L151.6,110.5L149.2,112.3L149.7,115.9L145.4,117.7L144.2,120.4L141.0,117.7L139.6,115.5L128.0,114.4L125.1,113.8L121.1,110.9Z"/>
    <path class="wtc-county" id="wtc-county-cumberland" data-county="Cumberland" d="M316.1,79.6L314.7,76.6L312.5,74.8L308.9,73.7L306.0,75.2L307.9,72.9L306.5,71.6L307.0,68.8L310.1,68.6L311.8,65.7L314.9,65.9L313.2,63.0L317.1,58.1L326.7,58.6L329.9,66.6L332.0,74.0L330.6,73.9L327.9,76.9L330.8,78.7L316.1,79.6Z"/>
    <path class="wtc-county" id="wtc-county-daviess" data-county="Daviess" d="M192.1,144.0L190.7,138.7L194.0,136.2L190.7,133.5L185.8,132.4L184.9,129.6L194.7,125.5L205.8,121.8L209.7,121.4L215.7,126.0L217.1,125.6L224.6,129.0L221.2,131.3L224.1,133.2L224.6,136.9L222.0,140.2L218.1,139.9L219.3,142.9L216.9,144.8L213.1,144.0L213.8,146.2L209.2,143.7L208.0,138.1L206.3,136.6L203.7,136.4L201.7,140.0L197.4,140.7L194.3,142.7L192.1,144.0Z"/>
    <path class="wtc-county" id="wtc-county-edmonson" data-county="Edmonson" d="M248.0,105.3L252.6,95.1L260.5,89.1L264.8,90.8L266.5,88.9L271.8,87.9L274.5,87.3L275.7,95.0L276.2,98.2L268.9,106.3L248.0,105.3Z"/>
    <path class="wtc-county" id="wtc-county-elliott" data-county="Elliott" d="M463.1,158.6L462.6,155.5L465.7,153.8L467.6,151.6L471.5,151.1L479.2,151.3L481.8,154.2L488.1,158.4L485.7,162.6L482.3,162.4L479.9,164.7L477.3,162.9L475.1,165.7L470.0,168.6L465.9,166.7L464.3,163.7L466.9,162.6L465.7,159.7L463.1,158.6Z"/>
    <path class="wtc-county" id="wtc-county-estill" data-county="Estill" d="M408.1,141.0L405.5,138.3L408.6,137.5L407.2,133.1L407.7,128.6L405.0,126.8L407.4,121.8L410.5,121.5L415.8,122.7L419.9,120.2L424.8,126.4L425.5,128.4L430.5,131.7L432.2,131.8L428.6,134.5L425.7,133.8L425.0,135.1L419.9,134.7L416.1,137.4L416.1,140.4L413.4,139.9L409.8,139.8L408.1,141.0Z"/>
    <path class="wtc-county" id="wtc-county-fayette" data-county="Fayette" d="M371.5,158.7L369.4,151.1L373.9,150.0L381.4,146.8L383.3,144.8L384.3,140.6L386.0,142.2L387.7,140.5L389.1,141.4L388.2,144.2L391.0,143.6L390.1,144.0L392.0,148.5L392.0,150.9L394.7,152.1L394.4,155.4L388.2,158.5L389.8,162.8L388.6,164.8L386.7,164.8L372.0,159.5L371.5,158.7Z"/>
    <path class="wtc-county" id="wtc-county-fleming" data-county="Fleming" d="M418.3,183.9L414.9,180.3L417.1,179.2L419.2,175.0L422.1,175.1L424.8,172.0L423.8,170.8L426.9,169.6L430.8,170.0L434.4,166.6L434.2,164.9L438.0,163.4L446.7,168.9L447.9,172.6L447.2,174.3L450.3,176.5L449.3,177.6L441.6,179.8L440.4,184.5L437.5,186.1L423.1,181.5L418.3,183.9Z"/>
    <path class="wtc-county" id="wtc-county-floyd" data-county="Floyd" d="M484.7,131.8L484.2,129.3L487.1,126.7L488.1,121.7L487.6,117.9L485.7,116.4L492.0,115.1L491.7,111.6L495.3,112.5L497.0,111.5L496.5,107.4L497.3,104.4L500.1,102.9L502.8,104.4L504.0,107.4L503.0,108.6L506.2,109.7L508.3,113.7L507.6,117.5L505.9,117.6L507.6,126.8L506.6,128.7L510.0,129.7L504.7,132.1L496.5,134.5L489.3,132.7L487.4,130.9L484.7,131.8Z"/>
    <path class="wtc-county" id="wtc-county-franklin" data-county="Franklin" d="M346.7,173.4L349.4,173.1L346.5,169.3L346.2,161.7L344.8,159.5L353.0,157.1L355.6,158.7L355.6,160.3L365.0,164.0L363.8,174.5L360.5,173.6L355.2,174.8L352.7,176.0L346.7,173.4Z"/>
    <path class="wtc-county" id="wtc-county-fulton" data-county="Fulton" d="M56.0,59.1L53.1,58.3L50.0,50.1L54.8,50.4L57.9,50.7L78.2,50.3L89.3,50.4L84.4,55.4L82.0,56.3L76.3,56.4L68.3,60.2L66.4,60.3L63.7,55.6L60.6,54.6L56.0,59.1ZM45.4,50.0L46.9,52.2L45.7,55.0L40.6,55.1L39.6,53.4L41.8,50.1L45.4,50.0Z"/>
    <path class="wtc-county" id="wtc-county-gallatin" data-county="Gallatin" d="M360.2,208.3L357.8,206.6L359.2,204.0L353.9,204.2L344.8,202.0L348.9,196.5L350.8,195.3L355.2,197.7L360.9,199.2L361.2,202.2L369.4,203.0L360.2,208.3Z"/>
    <path class="wtc-county" id="wtc-county-garrard" data-county="Garrard" d="M365.5,138.5L367.0,135.0L366.2,132.8L363.6,131.6L366.2,130.6L366.7,128.6L369.4,126.3L372.0,123.6L381.9,116.9L383.6,116.3L388.4,115.5L390.3,119.9L388.6,123.5L384.8,126.9L378.3,135.4L375.4,132.7L370.3,136.6L372.3,137.7L368.2,139.2L365.5,138.5Z"/>
    <path class="wtc-county" id="wtc-county-grant" data-county="Grant" d="M369.4,203.0L361.2,202.2L360.9,199.2L361.7,192.4L367.9,188.4L371.5,183.4L374.7,182.6L376.1,183.9L380.9,184.9L381.6,187.3L377.8,204.0L372.3,204.7L369.4,203.0Z"/>
    <path class="wtc-county" id="wtc-county-graves" data-county="Graves" d="M90.7,68.5L90.5,50.4L110.5,50.3L112.4,50.3L112.6,67.0L112.6,79.9L98.2,79.9L90.7,80.2L90.7,68.5Z"/>
    <path class="wtc-county" id="wtc-county-grayson" data-county="Grayson" d="M239.5,121.6L234.7,120.4L238.3,110.2L246.8,108.0L248.0,105.3L268.9,106.3L274.0,107.4L274.5,109.3L278.1,110.2L276.2,113.9L275.7,117.0L271.8,121.8L267.5,121.0L263.9,122.3L262.9,124.1L261.0,123.6L255.7,123.2L256.2,121.5L251.8,121.8L245.1,125.6L243.4,123.3L240.8,124.0L239.5,121.6Z"/>
    <path class="wtc-county" id="wtc-county-green" data-county="Green" d="M302.4,112.1L302.9,110.4L300.5,108.0L299.8,104.0L301.4,101.7L300.5,96.0L304.1,92.1L311.1,91.1L321.0,95.0L322.9,96.6L320.2,99.7L317.6,104.2L314.5,108.2L307.2,112.7L307.2,115.3L303.9,115.4L302.4,112.1Z"/>
    <path class="wtc-county" id="wtc-county-greenup" data-county="Greenup" d="M477.7,198.2L479.2,196.7L475.8,193.3L475.8,190.8L472.4,186.8L469.6,184.7L477.3,182.1L482.6,177.3L486.7,177.6L492.9,176.0L496.3,179.9L503.0,184.8L499.2,188.3L493.2,189.2L491.0,190.8L488.8,197.2L489.5,199.7L487.9,201.6L482.8,199.8L479.2,199.8L477.7,198.2Z"/>
    <path class="wtc-county" id="wtc-county-hancock" data-county="Hancock" d="M213.8,146.2L213.1,144.0L216.9,144.8L219.3,142.9L218.1,139.9L222.0,140.2L224.6,136.9L224.1,133.2L236.4,128.2L237.6,127.7L234.0,136.9L235.5,140.3L236.2,144.6L233.8,145.2L231.4,143.7L228.9,145.0L226.1,150.1L224.6,150.8L222.0,150.0L218.6,147.0L213.8,146.2Z"/>
    <path class="wtc-county" id="wtc-county-hardin" data-county="Hardin" d="M261.0,123.6L262.9,124.1L263.9,122.3L267.5,121.0L271.8,121.8L275.7,117.0L276.2,113.9L286.5,113.3L287.7,120.3L291.3,122.3L292.8,125.6L297.1,127.6L300.7,132.9L297.6,135.7L296.9,138.2L291.6,141.4L291.8,143.4L289.2,147.2L285.8,147.0L285.5,150.3L283.6,150.8L283.1,151.4L279.5,150.8L281.0,142.5L278.8,138.7L269.2,137.3L261.0,123.6Z"/>
    <path class="wtc-county" id="wtc-county-harlan" data-county="Harlan" d="M447.9,76.7L448.4,73.6L446.4,70.8L448.1,69.2L447.2,65.9L449.8,63.4L449.8,61.2L451.7,61.4L459.7,64.2L467.6,66.3L471.5,66.5L472.0,69.4L475.8,74.0L482.8,74.2L488.8,76.6L490.3,78.9L489.5,82.0L484.7,84.8L478.2,82.7L470.5,80.8L472.4,83.8L468.6,85.2L465.2,84.0L463.3,81.6L459.0,79.7L453.9,78.4L453.2,76.4L447.9,76.7Z"/>
    <path class="wtc-county" id="wtc-county-harrison" data-county="Harrison" d="M376.1,183.9L378.3,179.9L382.9,175.9L384.5,170.9L383.8,169.8L388.2,169.5L394.9,172.0L400.7,175.8L406.7,181.7L404.8,183.3L401.2,184.3L402.8,188.1L399.2,188.1L399.7,189.9L386.7,188.5L383.6,186.4L381.6,187.3L380.9,184.9L376.1,183.9Z"/>
    <path class="wtc-county" id="wtc-county-hart" data-county="Hart" d="M276.2,113.9L278.1,110.2L274.5,109.3L274.0,107.4L268.9,106.3L276.2,98.2L275.7,95.0L285.8,93.7L296.6,95.1L300.5,96.0L301.4,101.7L299.8,104.0L300.5,108.0L302.9,110.4L302.4,112.1L286.5,113.3L276.2,113.9Z"/>
    <path class="wtc-county" id="wtc-county-henderson" data-county="Henderson" d="M165.4,144.0L156.5,142.6L153.8,145.6L150.2,144.2L157.7,134.9L161.5,132.7L161.8,128.7L163.0,126.6L179.1,127.2L184.9,129.6L185.8,132.4L190.7,133.5L194.0,136.2L190.7,138.7L192.1,144.0L186.8,146.6L182.0,146.9L178.6,144.8L175.2,145.9L173.8,148.7L171.9,149.0L170.2,145.2L172.8,141.5L169.7,139.2L167.1,139.4L167.8,143.7L165.4,144.0Z"/>
    <path class="wtc-county" id="wtc-county-henry" data-county="Henry" d="M325.5,183.9L323.4,181.7L324.6,178.0L327.5,174.9L346.7,173.4L352.7,176.0L355.2,174.8L353.5,176.0L354.4,178.8L348.9,180.2L349.4,182.6L347.2,183.6L347.9,185.3L344.6,185.1L346.2,187.9L341.4,190.9L335.2,190.1L327.7,184.1L325.5,183.9Z"/>
    <path class="wtc-county" id="wtc-county-hickman" data-county="Hickman" d="M69.7,69.3L69.5,67.1L65.7,67.2L64.7,64.7L66.9,62.6L66.4,60.3L68.3,60.2L76.3,56.4L82.0,56.3L84.4,55.4L89.3,50.4L89.7,50.4L90.5,50.4L90.7,68.5L73.6,68.5L71.2,70.1L69.7,69.3Z"/>
    <path class="wtc-county" id="wtc-county-hopkins" data-county="Hopkins" d="M157.7,107.3L155.3,105.3L158.1,103.4L158.4,99.9L162.0,97.8L166.6,93.8L177.4,90.8L179.6,92.2L187.3,92.6L189.9,94.3L191.6,96.6L186.3,101.3L186.8,104.7L189.0,104.5L192.3,110.1L188.7,112.3L188.0,116.5L188.7,118.5L187.0,122.0L178.9,116.5L172.4,114.7L157.7,107.3Z"/>
    <path class="wtc-county" id="wtc-county-jackson" data-county="Jackson" d="M400.2,118.8L400.0,116.3L402.8,111.8L402.1,109.6L405.0,107.8L404.3,105.2L410.3,101.7L417.3,100.6L420.2,100.8L421.9,103.5L428.1,107.1L425.7,109.4L423.6,113.8L421.4,115.8L421.4,118.5L419.9,120.2L415.8,122.7L410.5,121.5L407.4,121.8L402.1,121.1L400.2,118.8Z"/>
    <path class="wtc-county" id="wtc-county-jefferson" data-county="Jefferson" d="M286.0,162.9L285.8,156.6L284.6,152.6L283.1,151.4L283.6,150.8L287.2,153.6L298.8,156.7L308.4,155.9L317.8,158.8L318.1,160.7L319.3,168.6L315.2,170.0L303.6,176.4L301.2,171.1L296.6,168.8L293.5,170.2L290.8,169.4L289.4,165.8L286.0,162.9Z"/>
    <path class="wtc-county" id="wtc-county-jessamine" data-county="Jessamine" d="M366.0,141.6L365.5,138.5L368.2,139.2L372.3,137.7L370.3,136.6L375.4,132.7L378.3,135.4L382.6,137.7L380.9,140.2L384.3,140.6L383.3,144.8L381.4,146.8L373.9,150.0L369.4,151.1L366.0,141.6Z"/>
    <path class="wtc-county" id="wtc-county-johnson" data-county="Johnson" d="M481.4,148.5L483.3,145.0L480.4,141.4L481.4,138.7L484.0,137.1L484.7,131.8L487.4,130.9L489.3,132.7L496.5,134.5L504.7,132.1L504.0,135.9L502.6,136.6L504.5,138.9L502.8,140.9L506.6,142.7L502.3,143.6L492.0,148.7L484.0,150.9L481.4,148.5Z"/>
    <path class="wtc-county" id="wtc-county-kenton" data-county="Kenton" d="M371.8,222.9L373.5,209.8L372.3,204.7L377.8,204.0L385.5,204.9L382.4,207.9L384.1,211.8L382.6,214.3L383.3,217.5L380.7,219.4L379.7,224.3L376.6,224.6L371.8,222.9Z"/>
    <path class="wtc-county" id="wtc-county-knott" data-county="Knott" d="M484.2,117.5L478.7,117.7L476.5,119.1L471.7,114.4L472.4,110.9L473.2,106.0L472.2,101.8L472.9,99.9L476.3,100.2L477.0,98.2L480.6,96.9L482.1,95.3L487.9,98.3L489.1,100.0L492.9,101.8L498.7,101.9L500.1,102.9L497.3,104.4L496.5,107.4L497.0,111.5L495.3,112.5L491.7,111.6L492.0,115.1L485.7,116.4L484.2,117.5Z"/>
    <path class="wtc-county" id="wtc-county-knox" data-county="Knox" d="M407.4,80.8L409.1,74.0L411.8,71.6L414.6,70.4L414.4,67.6L416.3,65.4L421.9,62.7L426.4,66.8L427.9,70.3L431.0,70.4L434.9,74.0L441.6,77.3L442.8,79.2L441.1,80.8L437.8,81.0L431.3,84.2L428.6,86.3L426.0,85.6L422.4,87.4L418.7,86.2L418.3,83.5L416.3,82.2L411.5,83.0L407.4,80.8Z"/>
    <path class="wtc-county" id="wtc-county-larue" data-county="Larue" d="M300.7,132.9L297.1,127.6L292.8,125.6L291.3,122.3L287.7,120.3L286.5,113.3L302.4,112.1L303.9,115.4L307.2,115.3L311.1,114.2L313.0,116.2L315.2,115.0L312.8,120.6L311.6,121.0L309.4,120.9L308.7,118.8L304.6,120.8L307.9,126.6L306.3,126.7L306.7,130.3L303.6,130.5L300.7,132.9Z"/>
    <path class="wtc-county" id="wtc-county-laurel" data-county="Laurel" d="M389.6,81.0L390.3,79.7L393.7,80.1L395.9,81.2L397.8,79.8L398.7,81.1L401.4,79.7L405.3,81.8L407.4,80.8L411.5,83.0L416.3,82.2L418.3,83.5L418.7,86.2L422.4,87.4L422.8,89.9L421.4,91.7L418.5,91.3L415.6,95.1L417.5,97.6L417.3,100.6L410.3,101.7L404.3,105.2L403.6,104.1L399.0,102.6L399.0,100.0L396.6,99.8L393.4,95.1L394.2,93.9L394.9,90.6L391.8,87.9L392.2,83.7L390.1,83.0L389.6,81.0Z"/>
    <path class="wtc-county" id="wtc-county-lawrence" data-county="Lawrence" d="M479.2,151.3L481.4,148.5L484.0,150.9L492.0,148.7L502.3,143.6L506.6,142.7L508.8,147.8L511.9,148.3L514.4,147.2L516.8,149.6L513.2,150.8L511.0,155.4L508.6,158.0L505.0,160.2L505.0,162.3L506.9,162.3L507.1,167.4L506.6,168.7L500.9,168.4L498.5,166.8L494.6,167.2L490.5,163.6L488.6,164.0L485.7,162.6L488.1,158.4L481.8,154.2L479.2,151.3Z"/>
    <path class="wtc-county" id="wtc-county-lee" data-county="Lee" d="M419.9,120.2L421.4,118.5L425.0,116.4L430.8,116.9L431.5,118.7L435.1,118.1L438.0,120.0L439.0,118.0L441.9,117.7L445.7,126.6L439.2,128.5L433.2,131.8L432.2,131.8L430.5,131.7L425.5,128.4L424.8,126.4L419.9,120.2Z"/>
    <path class="wtc-county" id="wtc-county-leslie" data-county="Leslie" d="M446.7,99.6L446.9,97.4L443.8,95.0L443.5,89.1L446.4,84.0L446.4,79.6L447.9,76.7L453.2,76.4L453.9,78.4L459.0,79.7L463.3,81.6L465.2,84.0L468.6,85.2L469.6,90.6L465.5,92.9L467.1,95.5L463.5,97.4L459.0,98.9L457.0,103.6L453.9,105.3L449.8,103.4L446.7,99.6Z"/>
    <path class="wtc-county" id="wtc-county-letcher" data-county="Letcher" d="M472.4,83.8L470.5,80.8L478.2,82.7L484.7,84.8L489.5,82.0L492.4,84.2L495.3,84.3L499.2,86.5L499.2,91.5L505.2,94.1L509.8,96.9L505.7,100.4L502.8,99.0L498.7,101.9L492.9,101.8L489.1,100.0L487.9,98.3L482.1,95.3L480.6,96.9L476.8,92.1L477.7,87.9L475.8,86.6L477.0,84.9L472.4,83.8Z"/>
    <path class="wtc-county" id="wtc-county-lewis" data-county="Lewis" d="M462.8,192.3L459.9,191.2L458.7,193.6L456.1,195.0L449.3,196.2L445.7,198.0L439.5,196.8L437.3,193.6L438.7,191.9L437.5,186.1L440.4,184.5L441.6,179.8L449.3,177.6L450.3,176.5L452.9,177.5L457.8,172.3L465.2,173.6L464.7,179.5L469.6,184.7L472.4,186.8L475.8,190.8L475.8,193.3L479.2,196.7L477.7,198.2L472.7,195.6L471.5,193.0L462.8,192.3Z"/>
    <path class="wtc-county" id="wtc-county-lincoln" data-county="Lincoln" d="M356.8,120.6L355.9,115.1L356.6,112.4L360.2,110.0L365.0,107.9L366.2,103.8L365.0,103.0L365.3,99.7L376.3,107.6L380.0,105.8L383.6,116.3L381.9,116.9L372.0,123.6L369.4,126.3L369.4,125.2L363.3,123.1L356.8,120.6Z"/>
    <path class="wtc-county" id="wtc-county-livingston" data-county="Livingston" d="M107.3,89.0L109.7,86.1L112.9,85.3L116.5,87.1L120.6,88.0L124.4,87.0L129.0,82.5L131.2,83.7L130.0,85.6L129.7,89.2L132.1,93.6L130.4,96.0L131.9,98.5L130.4,102.1L125.4,106.3L123.9,110.5L121.1,110.9L117.4,112.3L117.4,112.2L113.1,109.7L112.6,106.5L110.5,102.8L110.9,101.4L115.0,97.6L116.7,93.8L114.3,88.7L112.4,88.3L107.3,89.0Z"/>
    <path class="wtc-county" id="wtc-county-logan" data-county="Logan" d="M208.7,87.8L208.2,59.8L228.2,60.2L228.9,65.4L233.0,73.3L235.5,75.4L238.3,75.9L234.2,83.7L222.7,87.5L216.2,88.4L208.7,87.8Z"/>
    <path class="wtc-county" id="wtc-county-lyon" data-county="Lyon" d="M132.1,93.6L129.7,89.2L130.0,85.6L131.2,83.7L129.0,82.5L132.4,79.4L134.5,74.8L144.9,77.7L153.3,81.1L146.8,88.3L142.2,95.5L138.9,95.8L137.2,94.2L132.9,92.2L132.1,93.6Z"/>
    <path class="wtc-county" id="wtc-county-mccracken" data-county="McCracken" d="M82.5,99.1L90.5,80.7L90.7,80.2L98.2,79.9L112.6,79.9L112.9,85.3L109.7,86.1L107.3,89.0L103.0,91.8L94.6,94.2L91.2,96.4L83.0,98.9L82.5,99.1Z"/>
    <path class="wtc-county" id="wtc-county-mccreary" data-county="McCreary" d="M374.9,74.8L374.7,70.6L371.8,69.9L371.1,68.3L368.4,67.8L368.4,66.3L361.4,57.1L377.1,56.6L396.1,56.3L398.3,56.4L393.0,62.0L392.0,67.6L390.1,69.0L390.6,72.8L392.5,74.3L392.0,76.4L393.7,80.1L390.3,79.7L389.6,81.0L385.7,80.2L374.9,74.8Z"/>
    <path class="wtc-county" id="wtc-county-mclean" data-county="McLean" d="M179.1,127.2L179.8,124.1L185.6,123.3L187.0,122.0L188.7,118.5L188.0,116.5L188.7,112.3L192.3,110.1L198.1,109.3L200.8,111.5L205.6,111.7L205.3,116.0L209.7,121.4L205.8,121.8L194.7,125.5L184.9,129.6L179.1,127.2Z"/>
    <path class="wtc-county" id="wtc-county-madison" data-county="Madison" d="M378.3,135.4L384.8,126.9L388.6,123.5L390.3,119.9L393.2,119.8L395.6,118.3L400.2,118.8L402.1,121.1L407.4,121.8L405.0,126.8L407.7,128.6L407.2,133.1L408.6,137.5L405.5,138.3L408.1,141.0L401.2,142.7L395.9,142.6L395.4,145.3L391.0,143.6L388.2,144.2L389.1,141.4L387.7,140.5L386.0,142.2L384.3,140.6L380.9,140.2L382.6,137.7L378.3,135.4Z"/>
    <path class="wtc-county" id="wtc-county-magoffin" data-county="Magoffin" d="M480.4,141.4L478.5,143.2L476.8,142.1L472.0,143.8L473.2,141.7L466.7,138.7L465.5,136.8L462.6,135.4L464.5,133.7L463.1,131.6L464.0,128.7L469.1,126.8L471.7,124.5L474.6,126.1L478.0,123.0L479.9,122.9L479.4,120.6L484.2,117.5L485.7,116.4L487.6,117.9L488.1,121.7L487.1,126.7L484.2,129.3L484.7,131.8L484.0,137.1L481.4,138.7L480.4,141.4Z"/>
    <path class="wtc-county" id="wtc-county-marion" data-county="Marion" d="M311.6,121.0L312.8,120.6L315.2,115.0L319.5,115.7L323.6,115.3L327.7,112.9L328.2,111.7L334.9,115.0L337.8,114.2L341.4,111.5L343.6,111.4L343.8,120.3L344.6,126.1L329.1,126.1L323.6,127.5L321.4,128.9L321.4,130.9L319.5,132.8L316.4,129.8L311.6,121.0Z"/>
    <path class="wtc-county" id="wtc-county-marshall" data-county="Marshall" d="M112.6,79.9L112.6,67.0L137.7,66.8L134.5,74.8L132.4,79.4L129.0,82.5L124.4,87.0L120.6,88.0L116.5,87.1L112.9,85.3L112.6,79.9Z"/>
    <path class="wtc-county" id="wtc-county-martin" data-county="Martin" d="M506.6,142.7L502.8,140.9L504.5,138.9L502.6,136.6L504.0,135.9L504.7,132.1L510.0,129.7L512.9,130.4L517.2,128.6L520.6,128.8L521.8,130.5L520.1,131.6L522.5,133.4L525.4,133.5L525.0,136.5L522.5,137.6L519.4,141.1L519.7,143.0L516.0,144.1L514.4,147.2L511.9,148.3L508.8,147.8L506.6,142.7Z"/>
    <path class="wtc-county" id="wtc-county-mason" data-county="Mason" d="M414.2,190.7L415.6,190.2L416.3,186.6L418.3,183.9L423.1,181.5L437.5,186.1L438.7,191.9L437.3,193.6L433.4,193.8L429.3,194.6L428.1,197.5L424.5,199.0L423.8,201.0L419.9,202.4L414.2,190.7Z"/>
    <path class="wtc-county" id="wtc-county-meade" data-county="Meade" d="M248.5,159.0L250.4,156.6L248.9,154.2L246.5,153.9L250.6,150.9L263.2,142.6L269.2,137.3L278.8,138.7L281.0,142.5L279.5,150.8L277.1,150.2L276.2,148.1L273.0,151.5L267.7,151.5L261.5,154.7L261.2,160.1L257.1,163.0L254.2,163.8L254.5,161.9L257.6,161.2L257.4,159.8L254.2,159.6L252.3,158.0L248.5,159.0Z"/>
    <path class="wtc-county" id="wtc-county-menifee" data-county="Menifee" d="M429.8,150.8L428.6,150.1L429.1,145.3L430.3,143.8L438.2,139.1L441.1,138.7L445.5,139.5L447.4,141.6L447.4,143.5L450.8,147.0L451.5,153.1L447.2,154.2L442.1,154.8L442.3,152.4L439.7,151.3L436.6,152.7L429.8,150.8Z"/>
    <path class="wtc-county" id="wtc-county-mercer" data-county="Mercer" d="M344.6,143.6L346.5,141.1L344.8,129.3L363.6,131.6L366.2,132.8L367.0,135.0L365.5,138.5L366.0,141.6L362.1,140.6L361.2,144.7L358.0,145.2L360.2,146.6L360.2,148.9L354.2,146.8L350.6,147.7L348.2,146.5L347.4,144.5L344.6,143.6Z"/>
    <path class="wtc-county" id="wtc-county-metcalfe" data-county="Metcalfe" d="M296.6,95.1L294.5,93.0L295.7,91.1L296.9,73.1L305.3,72.5L306.5,71.6L307.9,72.9L306.0,75.2L308.9,73.7L312.5,74.8L314.7,76.6L316.1,79.6L316.9,80.7L312.8,84.2L311.1,91.1L304.1,92.1L300.5,96.0L296.6,95.1Z"/>
    <path class="wtc-county" id="wtc-county-monroe" data-county="Monroe" d="M281.0,65.2L282.9,61.1L281.0,58.8L293.5,58.4L313.7,57.9L317.1,58.1L313.2,63.0L314.9,65.9L311.8,65.7L310.1,68.6L307.0,68.8L306.5,71.6L305.3,72.5L296.9,73.1L292.3,71.8L281.0,65.2Z"/>
    <path class="wtc-county" id="wtc-county-montgomery" data-county="Montgomery" d="M415.1,163.7L408.1,158.6L415.8,146.2L421.6,144.5L426.0,144.1L429.1,145.3L428.6,150.1L429.8,150.8L426.9,153.6L425.7,156.3L421.6,160.0L415.4,161.5L415.1,163.7Z"/>
    <path class="wtc-county" id="wtc-county-morgan" data-county="Morgan" d="M451.5,153.1L450.8,147.0L447.4,143.5L447.4,141.6L451.7,138.7L454.9,138.4L458.2,136.0L458.7,134.3L463.1,131.6L464.5,133.7L462.6,135.4L465.5,136.8L466.7,138.7L473.2,141.7L472.0,143.8L476.8,142.1L478.5,143.2L480.4,141.4L483.3,145.0L481.4,148.5L479.2,151.3L471.5,151.1L467.6,151.6L465.7,153.8L462.6,155.5L463.1,158.6L458.2,156.5L455.1,154.3L451.5,153.1Z"/>
    <path class="wtc-county" id="wtc-county-muhlenberg" data-county="Muhlenberg" d="M192.3,110.1L189.0,104.5L186.8,104.7L186.3,101.3L191.6,96.6L189.9,94.3L189.9,92.6L193.3,91.0L195.0,88.6L195.5,86.5L204.4,86.8L208.7,87.8L216.2,88.4L219.3,89.7L217.4,93.3L217.6,95.8L219.3,95.7L219.1,98.0L213.5,101.8L213.3,105.0L208.7,108.6L206.3,107.9L205.3,105.7L203.2,106.3L205.8,109.0L205.6,111.7L200.8,111.5L198.1,109.3L192.3,110.1Z"/>
    <path class="wtc-county" id="wtc-county-nelson" data-county="Nelson" d="M296.9,138.2L297.6,135.7L300.7,132.9L303.6,130.5L306.7,130.3L306.3,126.7L307.9,126.6L304.6,120.8L308.7,118.8L309.4,120.9L311.6,121.0L316.4,129.8L319.5,132.8L322.9,134.6L322.6,136.4L325.8,137.0L326.5,139.5L332.8,140.5L333.0,144.0L336.1,144.0L335.2,149.0L319.7,146.8L313.7,150.2L310.6,148.5L309.6,146.0L307.2,144.9L307.7,143.2L300.7,138.4L296.9,138.2Z"/>
    <path class="wtc-county" id="wtc-county-nicholas" data-county="Nicholas" d="M400.7,175.8L402.4,174.7L407.2,168.2L409.8,168.1L409.3,166.6L411.8,165.2L414.4,165.5L415.1,163.7L423.8,170.8L424.8,172.0L422.1,175.1L419.2,175.0L417.1,179.2L414.9,180.3L413.0,179.9L406.7,181.7L400.7,175.8Z"/>
    <path class="wtc-county" id="wtc-county-ohio" data-county="Ohio" d="M205.6,111.7L205.8,109.0L203.2,106.3L205.3,105.7L206.3,107.9L208.7,108.6L213.3,105.0L213.5,101.8L219.1,98.0L220.0,99.5L225.1,103.3L224.6,105.8L227.3,105.6L228.5,104.1L238.3,110.2L234.7,120.4L239.5,121.6L236.4,125.3L236.4,128.2L224.1,133.2L221.2,131.3L224.6,129.0L217.1,125.6L215.7,126.0L209.7,121.4L205.3,116.0L205.6,111.7Z"/>
    <path class="wtc-county" id="wtc-county-oldham" data-county="Oldham" d="M303.6,176.4L315.2,170.0L320.5,171.5L324.8,171.6L327.5,174.9L324.6,178.0L323.4,181.7L325.5,183.9L321.2,185.6L317.3,186.0L314.7,184.8L313.0,182.3L305.8,180.3L303.6,176.4Z"/>
    <path class="wtc-county" id="wtc-county-owen" data-county="Owen" d="M341.4,190.9L346.2,187.9L344.6,185.1L347.9,185.3L347.2,183.6L349.4,182.6L348.9,180.2L354.4,178.8L353.5,176.0L355.2,174.8L360.5,173.6L363.8,174.5L371.8,179.8L374.7,182.6L371.5,183.4L367.9,188.4L361.7,192.4L360.9,199.2L355.2,197.7L350.8,195.3L348.2,193.6L341.4,190.9Z"/>
    <path class="wtc-county" id="wtc-county-owsley" data-county="Owsley" d="M421.4,118.5L421.4,115.8L423.6,113.8L425.7,109.4L428.1,107.1L435.1,106.4L436.8,107.8L440.7,103.4L445.2,101.1L443.8,103.0L444.0,106.2L443.8,110.2L444.7,111.7L441.9,117.7L439.0,118.0L438.0,120.0L435.1,118.1L431.5,118.7L430.8,116.9L425.0,116.4L421.4,118.5Z"/>
    <path class="wtc-county" id="wtc-county-pendleton" data-county="Pendleton" d="M377.8,204.0L381.6,187.3L383.6,186.4L386.7,188.5L399.7,189.9L397.8,206.0L398.0,206.4L398.0,209.6L387.7,205.4L385.5,204.9L377.8,204.0Z"/>
    <path class="wtc-county" id="wtc-county-perry" data-county="Perry" d="M444.0,106.2L443.8,103.0L445.2,101.1L446.7,99.6L449.8,103.4L453.9,105.3L457.0,103.6L459.0,98.9L463.5,97.4L467.1,95.5L465.5,92.9L469.6,90.6L468.6,85.2L472.4,83.8L477.0,84.9L475.8,86.6L477.7,87.9L476.8,92.1L480.6,96.9L477.0,98.2L476.3,100.2L472.9,99.9L472.2,101.8L473.2,106.0L472.4,110.9L467.4,111.6L466.2,113.5L462.6,110.5L458.5,109.2L455.1,106.4L453.7,106.4L450.5,109.1L444.0,106.2Z"/>
    <path class="wtc-county" id="wtc-county-pike" data-county="Pike" d="M500.1,102.9L498.7,101.9L502.8,99.0L505.7,100.4L509.8,96.9L510.7,97.4L515.1,99.3L524.0,101.5L526.6,103.6L550.0,119.8L546.6,119.6L539.9,121.3L539.2,123.4L537.2,123.5L535.5,125.8L533.4,125.7L531.7,128.1L528.1,128.7L525.4,133.5L522.5,133.4L520.1,131.6L521.8,130.5L520.6,128.8L517.2,128.6L512.9,130.4L510.0,129.7L506.6,128.7L507.6,126.8L505.9,117.6L507.6,117.5L508.3,113.7L506.2,109.7L503.0,108.6L504.0,107.4L502.8,104.4L500.1,102.9Z"/>
    <path class="wtc-county" id="wtc-county-powell" data-county="Powell" d="M415.8,146.2L414.2,145.3L413.4,139.9L416.1,140.4L416.1,137.4L419.9,134.7L425.0,135.1L425.7,133.8L428.6,134.5L432.2,131.8L433.2,131.8L438.2,139.1L430.3,143.8L429.1,145.3L426.0,144.1L421.6,144.5L415.8,146.2Z"/>
    <path class="wtc-county" id="wtc-county-pulaski" data-county="Pulaski" d="M353.2,91.6L352.7,86.9L357.6,83.6L361.9,80.9L366.2,82.5L368.4,82.1L372.0,76.8L374.9,74.8L385.7,80.2L389.6,81.0L390.1,83.0L392.2,83.7L391.8,87.9L394.9,90.6L394.2,93.9L380.0,105.8L376.3,107.6L365.3,99.7L353.2,91.6Z"/>
    <path class="wtc-county" id="wtc-county-robertson" data-county="Robertson" d="M402.8,188.1L401.2,184.3L404.8,183.3L406.7,181.7L413.0,179.9L414.9,180.3L418.3,183.9L416.3,186.6L415.6,190.2L414.2,190.7L411.3,190.0L407.9,190.9L405.5,188.7L402.8,188.1Z"/>
    <path class="wtc-county" id="wtc-county-rockcastle" data-county="Rockcastle" d="M383.6,116.3L380.0,105.8L394.2,93.9L393.4,95.1L396.6,99.8L399.0,100.0L399.0,102.6L403.6,104.1L404.3,105.2L405.0,107.8L402.1,109.6L402.8,111.8L400.0,116.3L400.2,118.8L395.6,118.3L393.2,119.8L390.3,119.9L388.4,115.5L383.6,116.3Z"/>
    <path class="wtc-county" id="wtc-county-rowan" data-county="Rowan" d="M438.0,163.4L440.9,162.2L439.0,160.9L445.5,158.8L444.7,157.2L449.6,156.2L447.2,154.2L451.5,153.1L455.1,154.3L458.2,156.5L463.1,158.6L465.7,159.7L466.9,162.6L464.3,163.7L460.4,164.9L459.9,167.8L457.8,172.3L452.9,177.5L450.3,176.5L447.2,174.3L447.9,172.6L446.7,168.9L438.0,163.4Z"/>
    <path class="wtc-county" id="wtc-county-russell" data-county="Russell" d="M330.8,78.7L327.9,76.9L330.6,73.9L332.0,74.0L330.8,76.1L338.5,72.1L342.1,74.3L349.1,78.1L350.1,81.1L352.7,80.1L357.6,83.6L352.7,86.9L353.2,91.6L349.6,90.6L343.6,96.2L335.4,86.0L332.8,83.5L330.8,78.7Z"/>
    <path class="wtc-county" id="wtc-county-scott" data-county="Scott" d="M363.8,174.5L365.0,164.0L366.2,162.5L370.1,162.7L369.8,160.6L371.5,158.7L372.0,159.5L386.7,164.8L383.8,169.8L384.5,170.9L382.9,175.9L378.3,179.9L376.1,183.9L374.7,182.6L371.8,179.8L363.8,174.5Z"/>
    <path class="wtc-county" id="wtc-county-shelby" data-county="Shelby" d="M327.5,174.9L324.8,171.6L320.5,171.5L315.2,170.0L319.3,168.6L318.1,160.7L330.8,156.9L339.7,153.4L343.4,155.7L344.8,159.5L346.2,161.7L346.5,169.3L349.4,173.1L346.7,173.4L327.5,174.9Z"/>
    <path class="wtc-county" id="wtc-county-simpson" data-county="Simpson" d="M228.2,60.2L239.8,60.4L241.5,59.2L245.3,60.4L251.8,60.3L252.1,68.7L252.6,70.8L240.3,72.4L238.3,75.9L235.5,75.4L233.0,73.3L228.9,65.4L228.2,60.2Z"/>
    <path class="wtc-county" id="wtc-county-spencer" data-county="Spencer" d="M317.8,158.8L314.9,157.3L311.8,151.6L313.7,150.2L319.7,146.8L335.2,149.0L335.2,150.7L337.8,150.6L339.7,153.4L330.8,156.9L318.1,160.7L317.8,158.8Z"/>
    <path class="wtc-county" id="wtc-county-taylor" data-county="Taylor" d="M307.2,115.3L307.2,112.7L314.5,108.2L317.6,104.2L320.2,99.7L322.9,96.6L325.8,99.0L325.5,100.3L333.5,102.0L335.4,104.6L337.8,109.5L341.4,111.5L337.8,114.2L334.9,115.0L328.2,111.7L327.7,112.9L323.6,115.3L319.5,115.7L315.2,115.0L313.0,116.2L311.1,114.2L307.2,115.3Z"/>
    <path class="wtc-county" id="wtc-county-todd" data-county="Todd" d="M189.7,59.7L204.6,59.7L208.2,59.8L208.7,87.8L204.4,86.8L195.5,86.5L195.0,88.6L189.7,59.7Z"/>
    <path class="wtc-county" id="wtc-county-trigg" data-county="Trigg" d="M134.5,74.8L137.7,66.8L140.6,62.2L155.3,61.2L155.0,59.2L165.6,59.4L167.1,67.4L167.3,75.6L168.0,81.5L163.2,83.9L161.0,82.1L154.8,80.4L153.3,81.1L144.9,77.7L134.5,74.8Z"/>
    <path class="wtc-county" id="wtc-county-trimble" data-county="Trimble" d="M324.1,200.2L319.0,200.3L316.1,198.4L317.8,190.2L318.5,187.1L317.3,186.0L321.2,185.6L325.5,183.9L327.7,184.1L335.2,190.1L332.3,189.8L331.1,192.9L324.1,200.2Z"/>
    <path class="wtc-county" id="wtc-county-union" data-county="Union" d="M143.2,137.4L141.3,133.6L137.2,131.6L134.5,128.3L136.2,122.3L140.3,119.2L141.0,117.7L144.2,120.4L145.4,117.7L149.7,115.9L158.4,122.6L163.0,126.6L161.8,128.7L161.5,132.7L157.7,134.9L150.2,144.2L149.2,142.2L151.6,138.3L148.7,135.5L143.2,137.4Z"/>
    <path class="wtc-county" id="wtc-county-warren" data-county="Warren" d="M252.6,95.1L248.0,94.0L246.1,96.5L237.6,95.9L238.1,93.6L234.2,83.7L238.3,75.9L240.3,72.4L252.6,70.8L252.1,68.7L261.7,75.2L261.5,76.5L265.6,77.6L268.2,79.3L271.8,87.9L266.5,88.9L264.8,90.8L260.5,89.1L252.6,95.1Z"/>
    <path class="wtc-county" id="wtc-county-washington" data-county="Washington" d="M319.5,132.8L321.4,130.9L321.4,128.9L323.6,127.5L329.1,126.1L344.6,126.1L344.8,129.3L346.5,141.1L344.6,143.6L339.3,143.7L338.1,145.3L336.1,144.0L333.0,144.0L332.8,140.5L326.5,139.5L325.8,137.0L322.6,136.4L322.9,134.6L319.5,132.8Z"/>
    <path class="wtc-county" id="wtc-county-wayne" data-county="Wayne" d="M342.1,74.3L344.8,70.8L346.2,67.4L345.0,64.8L346.5,62.0L346.5,58.5L348.2,58.0L360.9,57.1L361.4,57.1L368.4,66.3L368.4,67.8L371.1,68.3L371.8,69.9L374.7,70.6L374.9,74.8L372.0,76.8L368.4,82.1L366.2,82.5L361.9,80.9L357.6,83.6L352.7,80.1L350.1,81.1L349.1,78.1L342.1,74.3Z"/>
    <path class="wtc-county" id="wtc-county-webster" data-county="Webster" d="M149.7,115.9L149.2,112.3L151.6,110.5L155.5,112.0L155.7,108.9L158.6,109.2L157.7,107.3L172.4,114.7L178.9,116.5L187.0,122.0L185.6,123.3L179.8,124.1L179.1,127.2L163.0,126.6L158.4,122.6L149.7,115.9Z"/>
    <path class="wtc-county" id="wtc-county-whitley" data-county="Whitley" d="M393.7,80.1L392.0,76.4L392.5,74.3L390.6,72.8L390.1,69.0L392.0,67.6L393.0,62.0L398.3,56.4L414.4,56.2L418.3,56.1L416.6,60.0L421.9,62.7L416.3,65.4L414.4,67.6L414.6,70.4L411.8,71.6L409.1,74.0L407.4,80.8L405.3,81.8L401.4,79.7L398.7,81.1L397.8,79.8L395.9,81.2L393.7,80.1Z"/>
    <path class="wtc-county" id="wtc-county-wolfe" data-county="Wolfe" d="M438.2,139.1L433.2,131.8L439.2,128.5L445.7,126.6L447.4,125.3L449.8,126.0L452.7,130.1L454.4,130.7L458.5,129.0L464.0,128.7L463.1,131.6L458.7,134.3L458.2,136.0L454.9,138.4L451.7,138.7L447.4,141.6L445.5,139.5L441.1,138.7L438.2,139.1Z"/>
    <path class="wtc-county" id="wtc-county-woodford" data-county="Woodford" d="M365.0,164.0L355.6,160.3L355.6,158.7L358.0,156.5L356.6,154.0L360.2,148.9L360.2,146.6L358.0,145.2L361.2,144.7L362.1,140.6L366.0,141.6L369.4,151.1L371.5,158.7L369.8,160.6L370.1,162.7L366.2,162.5L365.0,164.0Z"/>
  </g>
</svg>