<?xml version="1.0" encoding="UTF-8"?>
<svg xmlns="http://www.w3.org/2000/svg" viewBox="0 0 542 600" id="wtc-state-map-ID" role="img" aria-label="id county map">
  <title>id Counties</title>
  <g class="wtc-counties">
    <path class="wtc-county" id="wtc-county-ada" data-county="Ada" d="M102.0,420.3L102.0,432.6L104.8,432.6L104.8,445.1L102.0,445.1L102.2,457.1L108.3,456.9L111.7,461.4L111.2,464.1L114.7,466.3L117.3,469.3L119.6,469.8L140.1,469.8L140.3,435.7L135.7,433.0L118.6,420.3L102.0,420.3Z"/>
    <path class="wtc-county" id="wtc-county-adams" data-county="Adams" d="M82.8,329.7L78.2,333.7L77.4,336.8L79.2,340.3L76.9,344.5L74.3,346.6L94.0,346.8L94.0,359.3L95.6,362.7L100.9,362.7L100.9,371.5L109.6,374.9L117.3,374.9L121.7,373.4L123.4,370.1L127.5,371.0L125.5,364.7L127.3,357.1L123.7,351.4L124.5,345.1L127.0,342.2L127.5,339.4L130.4,336.9L129.1,334.6L132.2,330.8L128.6,329.4L128.3,327.6L116.8,327.5L118.3,326.1L114.2,316.1L89.7,316.1L86.6,325.3L83.3,327.7L82.8,329.7Z"/>
    <path class="wtc-county" id="wtc-county-bannock" data-county="Bannock" d="M419.3,476.3L377.1,476.3L373.5,478.5L370.9,478.6L370.4,481.3L371.2,484.6L373.7,482.4L377.8,482.0L381.9,479.7L386.8,484.1L387.0,492.8L388.3,492.8L388.3,496.9L391.1,496.9L391.1,499.5L394.0,501.0L394.0,503.1L396.8,503.1L396.3,508.4L394.2,508.7L394.0,513.3L396.5,513.3L399.3,517.2L402.7,516.8L402.9,521.6L400.4,524.4L400.6,526.1L404.2,526.4L405.2,524.2L410.3,524.2L412.6,528.1L414.9,528.8L424.9,528.8L424.9,530.9L431.1,530.9L431.3,519.5L432.6,519.5L432.1,514.3L429.8,511.8L429.8,505.2L427.7,503.8L427.7,501.1L425.9,497.9L419.8,497.9L416.2,499.3L413.9,495.6L413.4,492.8L415.2,489.9L413.2,485.3L414.7,481.8L418.0,481.4L417.5,479.7L420.1,478.5L419.3,476.3Z"/>
    <path class="wtc-county" id="wtc-county-bear-lake" data-county="Bear Lake" d="M491.7,512.5L490.7,513.4L483.0,515.4L478.4,515.0L479.2,508.3L477.9,506.1L475.1,509.8L468.9,507.1L452.3,507.1L449.7,508.5L453.8,518.5L452.3,519.6L452.3,521.3L455.6,524.1L453.1,525.9L453.3,528.6L455.1,529.4L451.3,531.6L450.5,534.4L451.8,538.2L453.3,539.0L452.3,542.1L458.4,544.2L459.0,549.2L491.7,549.0L491.7,512.5Z"/>
    <path class="wtc-county" id="wtc-county-benewah" data-county="Benewah" d="M64.3,166.6L64.3,174.2L64.6,183.6L69.7,184.4L68.9,186.3L71.2,187.9L74.8,187.1L79.2,190.3L106.0,190.0L106.0,191.1L115.0,191.1L115.0,163.1L96.8,163.1L93.8,164.1L93.8,166.2L86.1,166.2L86.1,165.2L80.7,165.5L80.7,166.6L64.3,166.6Z"/>
    <path class="wtc-county" id="wtc-county-bingham" data-county="Bingham" d="M352.0,469.9L352.0,487.6L365.6,487.6L367.1,486.6L370.4,481.3L370.9,478.6L373.5,478.5L377.1,476.3L419.3,476.3L453.1,476.4L453.1,457.8L436.4,457.8L436.4,451.8L420.6,451.7L420.8,448.6L416.5,448.6L416.5,447.5L386.8,447.5L386.8,433.2L374.0,433.4L374.0,439.4L365.6,439.6L365.6,445.8L357.1,445.8L356.3,457.6L352.0,457.6L352.0,469.9Z"/>
    <path class="wtc-county" id="wtc-county-blaine" data-county="Blaine" d="M212.0,411.0L210.2,412.7L210.7,416.7L220.7,419.7L220.2,421.4L224.0,420.6L227.1,421.4L230.2,419.8L232.0,424.4L233.8,425.2L232.2,429.0L234.0,430.7L232.5,435.8L239.4,438.0L238.6,440.0L241.2,442.3L245.0,443.8L242.2,446.8L243.7,449.4L243.2,454.1L253.2,454.6L252.9,459.5L254.5,459.5L254.5,463.6L301.6,463.6L323.1,463.6L323.1,488.6L319.0,488.6L319.0,501.4L325.9,500.1L330.7,504.3L335.6,504.6L335.6,501.0L339.7,501.0L339.7,494.8L335.6,494.8L335.1,488.7L335.1,469.9L352.0,469.9L352.0,457.6L326.7,457.6L326.7,451.7L307.2,451.6L307.2,442.4L304.6,442.2L302.6,436.2L300.5,435.8L295.7,437.3L294.4,435.1L290.1,431.5L283.1,427.4L280.8,423.3L279.0,422.7L276.2,425.5L272.9,425.0L271.1,422.7L261.6,418.6L260.4,414.6L255.5,415.6L251.9,414.0L245.0,413.8L243.5,417.6L239.6,417.1L238.1,414.1L232.7,411.7L223.3,411.7L223.3,407.0L218.9,407.0L212.0,411.0Z"/>
    <path class="wtc-county" id="wtc-county-boise" data-county="Boise" d="M123.4,395.8L119.1,395.8L118.6,420.3L135.7,433.0L140.3,435.7L147.5,435.7L150.6,434.7L154.9,431.5L160.3,430.4L165.4,425.9L164.7,424.7L167.7,420.9L170.8,421.3L171.6,417.5L174.1,414.4L183.8,411.9L189.5,411.1L195.9,401.6L193.6,399.5L198.2,401.2L200.2,407.7L205.1,410.8L207.1,409.5L210.5,410.2L212.3,407.8L211.2,405.8L206.4,403.9L210.0,400.4L206.6,398.0L208.7,396.5L204.1,394.0L202.3,394.4L197.9,392.1L198.4,389.5L197.2,385.4L189.5,383.4L189.0,382.4L184.9,381.7L184.9,384.8L174.4,389.9L131.6,389.7L130.4,395.8L123.4,395.8Z"/>
    <path class="wtc-county" id="wtc-county-bonner" data-county="Bonner" d="M64.3,118.1L64.3,123.0L93.5,123.0L93.5,122.0L102.7,122.0L102.7,129.2L115.0,129.1L115.0,120.1L119.1,116.9L121.9,116.5L127.0,119.8L130.1,119.0L135.2,123.0L135.0,105.9L135.2,85.5L82.8,85.6L82.5,60.9L65.1,61.0L64.8,67.9L64.8,94.9L64.3,118.1Z"/>
    <path class="wtc-county" id="wtc-county-bonneville" data-county="Bonneville" d="M386.8,433.2L386.8,447.5L416.5,447.5L416.5,448.6L420.8,448.6L420.6,451.7L436.4,451.8L436.4,457.8L453.1,457.8L453.1,476.4L492.0,476.5L492.0,455.4L492.0,442.1L491.2,440.8L484.8,438.9L480.2,439.1L477.6,433.5L466.6,433.5L450.5,433.2L386.8,433.2Z"/>
    <path class="wtc-county" id="wtc-county-boundary" data-county="Boundary" d="M65.1,50.1L65.1,61.0L82.5,60.9L82.8,85.6L135.2,85.5L135.2,50.0L108.9,50.1L65.1,50.1Z"/>
    <path class="wtc-county" id="wtc-county-butte" data-county="Butte" d="M329.7,389.9L322.8,389.9L322.8,402.3L320.0,402.3L320.8,412.7L320.0,415.3L323.3,416.5L325.6,420.1L321.0,420.2L320.5,422.6L314.9,426.6L298.2,433.4L295.7,437.3L300.5,435.8L302.6,436.2L304.6,442.2L307.2,442.4L307.2,451.6L326.7,451.7L326.7,457.6L352.0,457.6L356.3,457.6L357.1,445.8L365.6,445.8L365.6,439.6L374.0,439.4L374.0,433.4L374.3,408.6L353.0,408.5L352.8,389.9L329.7,389.9Z"/>
    <path class="wtc-county" id="wtc-county-camas" data-county="Camas" d="M210.7,416.7L208.4,419.2L206.9,424.7L209.2,426.8L207.4,429.9L207.4,433.7L204.1,434.8L203.8,463.8L238.9,463.7L254.5,463.6L254.5,459.5L252.9,459.5L253.2,454.6L243.2,454.1L243.7,449.4L242.2,446.8L245.0,443.8L241.2,442.3L238.6,440.0L239.4,438.0L232.5,435.8L234.0,430.7L232.2,429.0L233.8,425.2L232.0,424.4L230.2,419.8L227.1,421.4L224.0,420.6L220.2,421.4L220.7,419.7L210.7,416.7Z"/>
    <path class="wtc-county" id="wtc-county-canyon" data-county="Canyon" d="M68.7,415.1L65.9,416.6L65.4,420.2L65.4,429.3L69.7,430.3L70.5,432.5L73.5,434.8L80.5,436.6L83.0,440.3L83.0,443.7L90.4,449.3L94.3,451.4L97.3,456.0L102.2,457.1L102.0,445.1L104.8,445.1L104.8,432.6L102.0,432.6L102.0,420.3L87.9,420.3L77.9,421.3L74.8,420.3L73.5,418.2L70.5,418.2L70.5,415.1L68.7,415.1Z"/>
    <path class="wtc-county" id="wtc-county-caribou" data-county="Caribou" d="M419.3,476.3L420.1,478.5L417.5,479.7L418.0,481.4L414.7,481.8L413.2,485.3L415.2,489.9L413.4,492.8L413.9,495.6L416.2,499.3L419.8,497.9L425.9,497.9L427.7,501.1L427.7,503.8L429.8,505.2L429.8,511.8L432.1,514.3L432.6,519.5L452.3,519.6L453.8,518.5L449.7,508.5L452.3,507.1L468.9,507.1L475.1,509.8L477.9,506.1L479.2,508.3L478.4,515.0L483.0,515.4L490.7,513.4L491.7,512.5L492.0,497.6L492.0,476.5L453.1,476.4L419.3,476.3Z"/>
    <path class="wtc-county" id="wtc-county-cassia" data-county="Cassia" d="M281.1,511.7L276.5,512.5L276.2,519.4L260.9,519.4L261.1,549.6L278.3,549.6L293.9,550.0L352.5,549.3L352.5,525.8L352.2,507.2L340.0,507.1L340.0,504.4L335.6,504.6L330.7,504.3L325.9,500.1L319.0,501.4L317.4,501.1L311.6,503.1L305.9,510.9L299.8,511.9L297.0,509.5L293.4,511.0L289.0,510.0L286.0,511.0L281.1,511.7Z"/>
    <path class="wtc-county" id="wtc-county-clark" data-county="Clark" d="M352.8,389.9L353.0,408.5L374.3,408.6L374.3,402.4L412.6,402.4L421.3,402.4L421.3,396.3L430.0,396.3L430.0,393.2L433.9,393.2L434.4,383.9L438.7,383.9L438.7,377.9L451.0,377.9L451.0,367.4L444.9,366.6L444.1,367.8L436.4,370.2L433.1,366.4L427.5,366.9L424.2,368.4L421.6,367.6L416.2,369.4L414.2,368.1L410.6,368.6L407.5,366.4L403.4,366.0L401.1,368.1L398.8,368.1L398.3,371.9L396.3,374.6L390.1,372.3L388.1,373.5L385.3,372.1L376.8,371.9L372.5,370.6L368.1,372.0L364.3,376.4L365.8,379.7L365.8,390.1L352.8,389.9Z"/>
    <path class="wtc-county" id="wtc-county-clearwater" data-county="Clearwater" d="M106.0,219.1L106.6,228.4L112.2,228.2L112.2,230.6L116.5,234.5L124.5,234.5L126.5,237.4L129.3,238.7L133.2,238.2L138.5,242.1L141.6,243.4L149.3,243.8L154.4,244.9L157.2,241.2L158.3,237.3L164.7,232.8L164.9,230.2L238.9,218.8L235.3,215.9L236.8,213.5L233.0,211.4L226.6,214.3L225.0,213.2L226.6,209.9L217.9,206.3L213.8,202.7L214.8,198.4L212.5,197.4L150.8,197.4L115.0,197.3L115.0,219.2L106.0,219.1Z"/>
    <path class="wtc-county" id="wtc-county-custer" data-county="Custer" d="M223.3,348.9L216.3,352.6L213.0,355.2L203.6,351.7L199.2,354.5L200.0,355.7L197.9,360.4L195.6,362.0L189.7,363.2L188.2,365.6L189.7,369.5L192.8,370.0L193.8,372.2L192.3,379.0L189.0,382.4L189.5,383.4L197.2,385.4L198.4,389.5L197.9,392.1L202.3,394.4L204.1,394.0L208.7,396.5L206.6,398.0L210.0,400.4L206.4,403.9L211.2,405.8L212.3,407.8L210.5,410.2L212.0,411.0L218.9,407.0L223.3,407.0L223.3,411.7L232.7,411.7L238.1,414.1L239.6,417.1L243.5,417.6L245.0,413.8L251.9,414.0L255.5,415.6L260.4,414.6L261.6,418.6L271.1,422.7L272.9,425.0L276.2,425.5L279.0,422.7L280.8,423.3L283.1,427.4L290.1,431.5L294.4,435.1L295.7,437.3L298.2,433.4L314.9,426.6L320.5,422.6L321.0,420.2L325.6,420.1L323.3,416.5L320.0,415.3L320.8,412.7L320.0,402.3L322.8,402.3L322.8,389.9L329.7,389.9L328.2,384.0L323.6,379.3L320.5,374.3L316.7,376.5L310.5,374.9L305.4,374.5L303.4,373.2L294.1,371.3L283.1,362.4L280.8,361.3L275.2,352.6L271.6,354.5L265.7,353.3L266.8,351.1L267.3,345.1L262.4,346.0L261.4,347.9L256.8,350.0L256.0,352.5L252.4,353.8L254.7,356.0L253.7,358.6L250.1,360.1L249.1,362.9L244.5,363.5L240.7,365.5L238.1,364.0L238.6,362.4L234.0,359.3L230.4,360.2L222.7,353.3L224.3,349.9L223.3,348.9Z"/>
    <path class="wtc-county" id="wtc-county-elmore" data-county="Elmore" d="M119.6,469.8L125.0,472.0L124.2,474.4L128.6,475.4L128.3,476.9L135.0,478.9L137.8,481.5L141.1,481.9L140.6,480.0L143.2,477.7L149.6,480.1L153.4,479.8L154.9,482.3L160.3,482.2L165.4,481.0L166.7,482.3L172.1,481.9L174.1,483.1L178.5,482.7L178.5,488.5L177.4,488.4L177.4,494.4L207.1,494.4L207.1,484.2L203.8,484.0L203.8,463.8L204.1,434.8L207.4,433.7L207.4,429.9L209.2,426.8L206.9,424.7L208.4,419.2L210.7,416.7L210.2,412.7L212.0,411.0L210.5,410.2L207.1,409.5L205.1,410.8L200.2,407.7L198.2,401.2L193.6,399.5L195.9,401.6L189.5,411.1L183.8,411.9L174.1,414.4L171.6,417.5L170.8,421.3L167.7,420.9L164.7,424.7L165.4,425.9L160.3,430.4L154.9,431.5L150.6,434.7L147.5,435.7L140.3,435.7L140.1,469.8L119.6,469.8Z"/>
    <path class="wtc-county" id="wtc-county-franklin" data-county="Franklin" d="M414.9,528.8L418.8,532.2L418.8,537.1L416.0,537.0L416.0,549.3L459.0,549.2L458.4,544.2L452.3,542.1L453.3,539.0L451.8,538.2L450.5,534.4L451.3,531.6L455.1,529.4L453.3,528.6L453.1,525.9L455.6,524.1L452.3,521.3L452.3,519.6L432.6,519.5L431.3,519.5L431.1,530.9L424.9,530.9L424.9,528.8L414.9,528.8Z"/>
    <path class="wtc-county" id="wtc-county-fremont" data-county="Fremont" d="M412.6,402.4L412.6,408.6L425.4,408.6L425.4,411.8L435.4,411.8L435.4,413.8L445.4,413.8L445.4,414.9L455.4,414.9L457.2,412.3L461.0,411.7L464.8,412.9L466.6,412.1L470.0,410.3L473.0,412.3L478.2,410.2L481.7,411.4L487.1,408.8L491.7,407.7L491.5,381.3L491.7,372.7L486.3,371.3L484.8,368.3L478.7,364.7L479.2,362.1L472.0,354.9L468.2,353.0L465.6,355.9L460.8,356.0L461.8,358.1L457.7,364.1L461.5,368.0L453.3,366.4L451.0,367.4L451.0,377.9L438.7,377.9L438.7,383.9L434.4,383.9L433.9,393.2L430.0,393.2L430.0,396.3L421.3,396.3L421.3,402.4L412.6,402.4Z"/>
    <path class="wtc-county" id="wtc-county-gem" data-county="Gem" d="M106.3,395.8L106.3,401.9L100.7,401.8L100.7,405.9L97.9,405.9L97.9,408.0L87.9,407.9L87.9,420.3L102.0,420.3L118.6,420.3L119.1,395.8L123.4,395.8L123.4,383.5L127.8,383.4L127.5,371.0L123.4,370.1L121.7,373.4L117.3,374.9L115.8,376.5L115.3,381.1L113.7,383.6L114.2,386.8L113.0,395.8L106.3,395.8Z"/>
    <path class="wtc-county" id="wtc-county-gooding" data-county="Gooding" d="M203.8,463.8L203.8,484.0L207.1,484.2L212.8,483.9L216.9,487.9L214.3,491.2L214.6,494.4L219.9,495.3L220.7,498.2L223.3,501.8L228.1,501.1L237.3,502.8L237.1,488.5L238.9,488.5L238.9,463.7L203.8,463.8Z"/>
    <path class="wtc-county" id="wtc-county-idaho" data-county="Idaho" d="M82.0,274.2L84.3,277.1L88.9,276.8L91.5,279.6L96.3,279.8L100.4,282.7L100.4,285.9L103.7,288.9L105.5,292.3L99.4,298.9L99.1,302.2L96.6,303.6L90.4,312.8L89.7,316.1L114.2,316.1L118.3,326.1L116.8,327.5L128.3,327.6L129.8,323.9L132.9,324.3L140.3,319.6L140.3,321.3L210.0,321.2L231.7,321.2L233.0,318.6L238.1,314.2L233.5,310.8L229.9,307.0L224.5,304.1L224.5,299.0L230.9,300.2L234.0,301.7L236.1,298.3L241.4,294.9L243.0,292.0L240.9,289.8L245.5,287.5L245.8,284.6L240.9,280.1L245.5,274.6L251.9,274.5L253.7,271.9L250.4,268.5L251.9,265.5L247.1,263.9L246.0,260.6L248.3,257.0L244.0,255.0L244.5,252.0L249.4,251.6L249.1,246.7L247.6,244.9L250.9,243.4L251.2,236.3L254.5,232.3L252.7,228.1L255.8,227.9L258.3,220.4L257.6,216.9L255.5,216.2L248.9,217.6L247.8,218.9L242.2,218.0L238.9,218.8L164.9,230.2L164.7,232.8L158.3,237.3L157.2,241.2L154.4,244.9L149.3,243.8L141.6,243.4L138.5,242.1L133.2,238.2L129.3,238.7L126.5,237.4L131.9,244.8L137.5,247.5L134.7,249.0L128.1,248.9L124.7,253.1L120.4,251.8L108.1,249.6L106.3,250.2L104.3,255.3L102.0,254.8L102.0,261.3L100.7,264.0L95.3,261.4L92.5,261.7L92.5,264.3L88.6,264.2L84.5,268.1L86.6,271.5L82.0,274.2Z"/>
    <path class="wtc-county" id="wtc-county-jefferson" data-county="Jefferson" d="M374.3,408.6L374.0,433.4L386.8,433.2L450.5,433.2L450.5,431.1L443.9,431.1L439.5,429.6L435.9,426.8L428.8,423.1L424.9,424.1L425.4,421.0L425.4,411.8L425.4,408.6L412.6,408.6L412.6,402.4L374.3,402.4L374.3,408.6Z"/>
    <path class="wtc-county" id="wtc-county-jerome" data-county="Jerome" d="M238.9,488.5L237.1,488.5L237.3,502.8L242.7,504.0L248.1,506.4L254.5,506.5L257.6,508.3L263.7,509.3L268.3,511.2L271.9,513.9L278.3,511.5L281.1,511.7L286.0,511.0L286.0,494.6L277.8,494.6L277.8,491.5L256.5,491.4L255.2,488.5L238.9,488.5Z"/>
    <path class="wtc-county" id="wtc-county-kootenai" data-county="Kootenai" d="M64.3,123.0L64.3,166.6L80.7,166.6L80.7,165.5L86.1,165.2L86.1,166.2L93.8,166.2L93.8,164.1L96.8,163.1L115.0,163.1L115.0,129.1L102.7,129.2L102.7,122.0L93.5,122.0L93.5,123.0L64.3,123.0Z"/>
    <path class="wtc-county" id="wtc-county-latah" data-county="Latah" d="M64.6,183.6L64.6,225.3L87.4,225.2L88.9,222.1L94.3,219.1L106.0,219.1L115.0,219.2L115.0,197.3L115.0,191.1L106.0,191.1L106.0,190.0L79.2,190.3L74.8,187.1L71.2,187.9L68.9,186.3L69.7,184.4L64.6,183.6Z"/>
    <path class="wtc-county" id="wtc-county-lemhi" data-county="Lemhi" d="M223.3,348.9L224.3,349.9L222.7,353.3L230.4,360.2L234.0,359.3L238.6,362.4L238.1,364.0L240.7,365.5L244.5,363.5L249.1,362.9L250.1,360.1L253.7,358.6L254.7,356.0L252.4,353.8L256.0,352.5L256.8,350.0L261.4,347.9L262.4,346.0L267.3,345.1L266.8,351.1L265.7,353.3L271.6,354.5L275.2,352.6L280.8,361.3L283.1,362.4L294.1,371.3L303.4,373.2L305.4,374.5L310.5,374.9L316.7,376.5L320.5,374.3L323.6,379.3L328.2,384.0L329.7,389.9L352.8,389.9L365.8,390.1L365.8,379.7L363.5,381.0L360.7,378.3L356.1,376.8L352.2,374.4L350.7,371.1L352.0,369.1L346.6,364.1L348.9,361.2L347.6,358.1L343.0,351.4L334.8,347.9L328.2,350.6L327.2,348.1L320.0,344.9L317.2,338.9L320.8,338.1L321.3,334.8L320.3,331.0L315.4,328.6L315.9,327.0L311.6,326.1L309.8,321.7L303.6,317.2L303.4,315.0L299.8,311.7L300.3,307.4L298.2,306.3L296.7,302.8L298.2,300.9L298.0,298.1L293.1,298.1L294.9,292.3L291.1,290.8L288.0,290.9L288.5,289.3L285.2,286.3L282.1,285.0L279.8,285.8L280.3,288.3L276.5,290.5L271.6,295.5L266.8,297.1L263.4,296.4L262.7,299.9L256.5,302.5L255.2,300.3L251.7,298.9L248.3,295.3L241.4,294.9L236.1,298.3L234.0,301.7L230.9,300.2L224.5,299.0L224.5,304.1L229.9,307.0L233.5,310.8L238.1,314.2L233.0,318.6L231.7,321.2L229.7,322.4L229.7,334.9L228.9,340.6L229.7,343.0L226.8,344.1L226.6,346.5L223.3,348.9Z"/>
    <path class="wtc-county" id="wtc-county-lewis" data-county="Lewis" d="M112.2,230.6L108.9,230.6L112.4,234.2L112.2,239.5L105.3,238.9L103.7,240.7L87.6,240.7L89.9,246.6L88.6,247.0L88.6,264.2L92.5,264.3L92.5,261.7L95.3,261.4L100.7,264.0L102.0,261.3L102.0,254.8L104.3,255.3L106.3,250.2L108.1,249.6L120.4,251.8L124.7,253.1L128.1,248.9L134.7,249.0L137.5,247.5L131.9,244.8L126.5,237.4L124.5,234.5L116.5,234.5L112.2,230.6Z"/>
    <path class="wtc-county" id="wtc-county-lincoln" data-county="Lincoln" d="M238.9,463.7L238.9,488.5L255.2,488.5L256.5,491.4L277.8,491.5L277.8,494.6L286.0,494.6L298.0,494.6L298.0,488.6L301.6,488.6L301.6,463.6L254.5,463.6L238.9,463.7Z"/>
    <path class="wtc-county" id="wtc-county-madison" data-county="Madison" d="M425.4,411.8L425.4,421.0L424.9,424.1L428.8,423.1L435.9,426.8L439.5,429.6L443.9,431.1L450.5,431.1L450.5,433.2L466.6,433.5L466.6,412.1L464.8,412.9L461.0,411.7L457.2,412.3L455.4,414.9L445.4,414.9L445.4,413.8L435.4,413.8L435.4,411.8L425.4,411.8Z"/>
    <path class="wtc-county" id="wtc-county-minidoka" data-county="Minidoka" d="M286.0,494.6L286.0,511.0L289.0,510.0L293.4,511.0L297.0,509.5L299.8,511.9L305.9,510.9L311.6,503.1L317.4,501.1L319.0,501.4L319.0,488.6L323.1,488.6L323.1,463.6L301.6,463.6L301.6,488.6L298.0,488.6L298.0,494.6L286.0,494.6Z"/>
    <path class="wtc-county" id="wtc-county-nez-perce" data-county="Nez Perce" d="M64.6,233.6L63.6,239.5L67.9,242.6L70.0,245.9L70.0,249.7L73.0,252.2L68.7,257.9L70.5,258.6L73.3,264.3L77.4,270.8L82.0,274.2L86.6,271.5L84.5,268.1L88.6,264.2L88.6,247.0L89.9,246.6L87.6,240.7L103.7,240.7L105.3,238.9L112.2,239.5L112.4,234.2L108.9,230.6L112.2,230.6L112.2,228.2L106.6,228.4L106.0,219.1L94.3,219.1L88.9,222.1L87.4,225.2L64.6,225.3L64.6,233.6Z"/>
    <path class="wtc-county" id="wtc-county-oneida" data-county="Oneida" d="M352.5,525.8L352.5,549.3L410.1,549.1L412.1,549.4L416.0,549.3L416.0,537.0L418.8,537.1L418.8,532.2L414.9,528.8L412.6,528.1L410.3,524.2L405.2,524.2L404.2,526.4L400.6,526.1L400.4,524.4L402.9,521.6L402.7,516.8L399.3,517.2L396.5,513.3L394.0,513.3L388.3,513.3L388.3,519.5L377.1,519.5L377.1,525.7L352.5,525.8Z"/>
    <path class="wtc-county" id="wtc-county-owyhee" data-county="Owyhee" d="M65.4,429.3L65.4,549.1L66.1,549.2L112.4,549.4L187.4,549.4L207.1,549.4L207.1,494.4L177.4,494.4L177.4,488.4L178.5,488.5L178.5,482.7L174.1,483.1L172.1,481.9L166.7,482.3L165.4,481.0L160.3,482.2L154.9,482.3L153.4,479.8L149.6,480.1L143.2,477.7L140.6,480.0L141.1,481.9L137.8,481.5L135.0,478.9L128.3,476.9L128.6,475.4L124.2,474.4L125.0,472.0L119.6,469.8L117.3,469.3L114.7,466.3L111.2,464.1L111.7,461.4L108.3,456.9L102.2,457.1L97.3,456.0L94.3,451.4L90.4,449.3L83.0,443.7L83.0,440.3L80.5,436.6L73.5,434.8L70.5,432.5L69.7,430.3L65.4,429.3Z"/>
    <path class="wtc-county" id="wtc-county-payette" data-county="Payette" d="M74.6,395.6L72.0,399.4L68.9,400.5L69.2,403.1L72.0,405.0L71.8,407.7L68.7,412.6L68.7,415.1L70.5,415.1L70.5,418.2L73.5,418.2L74.8,420.3L77.9,421.3L87.9,420.3L87.9,407.9L97.9,408.0L97.9,405.9L100.7,405.9L100.7,401.8L106.3,401.9L106.3,395.8L74.6,395.6Z"/>
    <path class="wtc-county" id="wtc-county-power" data-county="Power" d="M352.0,469.9L335.1,469.9L335.1,488.7L335.6,494.8L339.7,494.8L339.7,501.0L335.6,501.0L335.6,504.6L340.0,504.4L340.0,507.1L352.2,507.2L352.5,525.8L377.1,525.7L377.1,519.5L388.3,519.5L388.3,513.3L394.0,513.3L394.2,508.7L396.3,508.4L396.8,503.1L394.0,503.1L394.0,501.0L391.1,499.5L391.1,496.9L388.3,496.9L388.3,492.8L387.0,492.8L386.8,484.1L381.9,479.7L377.8,482.0L373.7,482.4L371.2,484.6L370.4,481.3L367.1,486.6L365.6,487.6L352.0,487.6L352.0,469.9Z"/>
    <path class="wtc-county" id="wtc-county-shoshone" data-county="Shoshone" d="M135.2,123.0L130.1,119.0L127.0,119.8L121.9,116.5L119.1,116.9L115.0,120.1L115.0,129.1L115.0,163.1L115.0,191.1L115.0,197.3L150.8,197.4L212.5,197.4L209.7,194.7L206.4,194.7L204.8,191.1L200.0,186.0L195.6,182.7L192.5,181.9L191.3,179.7L188.5,179.2L189.0,176.9L186.7,174.4L180.5,173.8L172.3,171.0L170.5,167.7L158.5,162.4L155.7,162.5L158.8,160.3L164.4,159.8L165.2,158.5L161.1,158.0L159.8,154.6L157.0,154.3L157.5,152.2L160.8,150.2L157.7,146.8L158.3,143.0L154.9,141.5L153.1,138.6L151.1,139.0L149.0,133.6L145.2,132.3L135.2,123.0Z"/>
    <path class="wtc-county" id="wtc-county-teton" data-county="Teton" d="M466.6,412.1L466.6,433.5L477.6,433.5L480.2,439.1L484.8,438.9L491.2,440.8L492.0,442.1L491.7,429.3L491.7,407.7L487.1,408.8L481.7,411.4L478.2,410.2L473.0,412.3L470.0,410.3L466.6,412.1Z"/>
    <path class="wtc-county" id="wtc-county-twin-falls" data-county="Twin Falls" d="M207.1,494.4L207.1,549.4L223.8,549.0L238.6,549.6L261.1,549.6L260.9,519.4L276.2,519.4L276.5,512.5L281.1,511.7L278.3,511.5L271.9,513.9L268.3,511.2L263.7,509.3L257.6,508.3L254.5,506.5L248.1,506.4L242.7,504.0L237.3,502.8L228.1,501.1L223.3,501.8L220.7,498.2L219.9,495.3L214.6,494.4L214.3,491.2L216.9,487.9L212.8,483.9L207.1,484.2L207.1,494.4Z"/>
    <path class="wtc-county" id="wtc-county-valley" data-county="Valley" d="M127.5,371.0L127.8,383.4L123.4,383.5L123.4,395.8L130.4,395.8L131.6,389.7L174.4,389.9L184.9,384.8L184.9,381.7L189.0,382.4L192.3,379.0L193.8,372.2L192.8,370.0L189.7,369.5L188.2,365.6L189.7,363.2L195.6,362.0L197.9,360.4L200.0,355.7L199.2,354.5L203.6,351.7L213.0,355.2L216.3,352.6L223.3,348.9L226.6,346.5L226.8,344.1L229.7,343.0L228.9,340.6L229.7,334.9L229.7,322.4L231.7,321.2L210.0,321.2L140.3,321.3L140.3,319.6L132.9,324.3L129.8,323.9L128.3,327.6L128.6,329.4L132.2,330.8L129.1,334.6L130.4,336.9L127.5,339.4L127.0,342.2L124.5,345.1L123.7,351.4L127.3,357.1L125.5,364.7L127.5,371.0Z"/>
    <path class="wtc-county" id="wtc-county-washington" data-county="Washington" d="M74.3,346.6L72.3,350.4L64.1,353.4L60.5,359.1L58.4,365.1L55.9,369.1L51.3,372.1L52.0,376.1L50.0,378.3L53.8,382.5L51.5,385.0L55.1,388.1L60.0,386.6L64.1,390.2L69.2,389.5L69.7,392.7L74.3,393.7L74.6,395.6L106.3,395.8L113.0,395.8L114.2,386.8L113.7,383.6L115.3,381.1L115.8,376.5L117.3,374.9L109.6,374.9L100.9,371.5L100.9,362.7L95.6,362.7L94.0,359.3L94.0,346.8L74.3,346.6Z"/>
  </g>
</svg>