<?xml version="1.0" encoding="UTF-8"?>
<svg xmlns="http://www.w3.org/2000/svg" viewBox="0 0 600 515" id="wtc-state-map-OH" role="img" aria-label="oh county map">
  <title>oh Counties</title>
  <g class="wtc-counties">
    <path class="wtc-county" id="wtc-county-adams" data-county="Adams" d="M179.7,77.4L186.4,77.1L190.1,82.6L201.0,84.8L207.2,81.6L218.9,79.6L223.5,77.2L225.6,73.0L230.6,75.0L230.2,121.2L225.1,125.4L216.8,125.8L190.5,121.6L183.4,121.7L179.7,82.0L179.7,77.4Z"/>
    <path class="wtc-county" id="wtc-county-allen" data-county="Allen" d="M105.9,335.4L105.9,330.4L99.2,330.3L99.2,315.1L119.6,315.2L119.6,311.8L133.0,312.0L133.0,310.2L159.3,310.4L159.3,330.8L159.3,342.4L145.9,342.3L145.9,340.6L132.6,340.6L132.6,335.6L105.9,335.4Z"/>
    <path class="wtc-county" id="wtc-county-ashland" data-county="Ashland" d="M338.6,359.3L326.9,359.3L327.3,350.8L329.0,350.8L329.0,331.2L332.7,329.4L333.6,320.0L338.2,320.0L338.6,300.0L352.3,301.5L351.9,313.1L363.2,313.1L362.8,350.7L357.8,350.7L357.8,359.1L338.6,359.3Z"/>
    <path class="wtc-county" id="wtc-county-ashtabula" data-county="Ashtabula" d="M493.7,451.0L493.3,434.8L493.7,410.0L549.6,409.8L549.6,450.4L549.6,465.3L542.5,462.9L515.4,456.0L505.4,452.6L493.7,451.0Z"/>
    <path class="wtc-county" id="wtc-county-athens" data-county="Athens" d="M344.0,164.0L343.2,153.6L347.3,153.4L346.5,143.0L382.4,141.2L406.1,140.3L409.5,144.4L409.9,150.6L398.6,151.0L399.0,154.4L394.9,156.3L395.7,171.7L371.1,172.8L372.4,183.3L359.4,183.9L358.2,173.5L345.2,174.3L344.0,164.0Z"/>
    <path class="wtc-county" id="wtc-county-auglaize" data-county="Auglaize" d="M92.5,315.1L92.5,277.2L95.0,276.7L95.0,279.5L105.9,279.6L105.9,291.4L145.1,291.6L145.9,297.7L159.3,298.1L159.3,310.4L133.0,310.2L133.0,312.0L119.6,311.8L119.6,315.2L99.2,315.1L92.5,315.1Z"/>
    <path class="wtc-county" id="wtc-county-belmont" data-county="Belmont" d="M466.6,229.9L466.2,220.2L514.6,218.1L518.3,220.1L516.6,226.1L522.1,225.0L521.2,230.2L524.1,232.1L525.0,239.3L524.1,244.3L527.9,247.3L528.3,253.8L507.5,254.0L468.3,255.6L467.8,255.3L466.6,229.9Z"/>
    <path class="wtc-county" id="wtc-county-brown" data-county="Brown" d="M139.2,92.7L148.0,94.6L156.3,92.4L163.0,89.9L164.3,86.5L170.5,83.9L172.6,78.9L179.7,77.4L179.7,82.0L183.4,121.7L160.1,121.8L160.9,148.0L146.3,148.9L139.2,92.7Z"/>
    <path class="wtc-county" id="wtc-county-butler" data-county="Butler" d="M50.4,179.9L50.0,154.8L70.9,154.8L72.1,155.6L104.2,153.3L105.9,167.3L106.7,183.0L103.0,182.5L103.0,187.8L89.6,188.0L89.6,185.4L50.8,185.2L50.4,179.9Z"/>
    <path class="wtc-county" id="wtc-county-carroll" data-county="Carroll" d="M457.0,311.2L456.6,301.3L463.3,301.1L462.4,285.8L500.8,284.8L502.5,289.8L503.3,300.1L509.5,300.0L510.0,305.1L510.0,310.2L503.3,310.3L503.7,320.0L483.7,320.1L466.2,319.6L465.8,311.1L457.0,311.2Z"/>
    <path class="wtc-county" id="wtc-county-champaign" data-county="Champaign" d="M142.6,256.9L141.3,240.1L201.4,236.6L203.0,248.4L203.9,261.7L197.6,262.2L170.1,264.0L170.5,265.7L143.8,267.3L142.6,256.9Z"/>
    <path class="wtc-county" id="wtc-county-clark" data-county="Clark" d="M139.2,221.6L139.2,218.2L152.2,217.4L152.2,215.6L165.5,214.9L165.1,212.0L186.4,209.1L193.0,208.6L202.2,236.6L201.4,236.6L141.3,240.1L139.2,221.6Z"/>
    <path class="wtc-county" id="wtc-county-clermont" data-county="Clermont" d="M115.1,150.8L108.0,145.3L113.4,143.0L110.5,139.6L108.4,121.9L111.7,114.2L117.6,107.8L118.4,104.8L118.4,99.3L120.5,96.7L139.2,92.7L146.3,148.9L144.7,148.9L115.1,150.8Z"/>
    <path class="wtc-county" id="wtc-county-clinton" data-county="Clinton" d="M144.7,148.9L146.3,148.9L160.9,148.0L167.2,145.2L170.5,149.9L193.0,163.3L194.7,182.5L183.9,183.2L148.0,185.4L144.7,148.9Z"/>
    <path class="wtc-county" id="wtc-county-columbiana" data-county="Columbiana" d="M483.7,340.2L483.7,320.1L503.7,320.0L503.3,310.3L510.0,310.2L510.0,305.1L523.3,304.9L523.3,303.3L532.5,303.2L536.2,307.1L542.1,307.0L549.6,309.7L549.6,334.5L549.6,340.1L514.6,340.1L514.6,343.5L505.8,343.5L505.8,340.1L483.7,340.2Z"/>
    <path class="wtc-county" id="wtc-county-coshocton" data-county="Coshocton" d="M356.1,288.5L354.8,263.3L356.5,263.2L356.1,254.9L410.7,253.2L416.1,253.0L416.1,261.4L421.6,261.2L422.4,278.3L411.1,278.6L411.6,287.1L356.1,288.5Z"/>
    <path class="wtc-county" id="wtc-county-crawford" data-county="Crawford" d="M248.5,350.9L248.5,317.2L278.1,317.4L278.1,318.3L293.1,318.2L293.5,351.2L281.4,351.3L278.5,350.9L248.5,350.9Z"/>
    <path class="wtc-county" id="wtc-county-cuyahoga" data-county="Cuyahoga" d="M381.5,410.5L381.1,392.5L392.0,392.4L392.0,383.7L414.5,383.9L428.2,384.0L424.5,392.4L448.2,392.1L448.7,417.9L437.4,417.9L437.0,425.1L432.4,423.1L420.3,414.5L408.2,408.4L399.9,409.3L392.0,407.8L381.5,410.5Z"/>
    <path class="wtc-county" id="wtc-county-darke" data-county="Darke" d="M50.8,225.9L88.8,226.1L95.9,226.2L95.0,258.4L95.0,276.7L52.1,276.5L52.1,271.6L51.3,250.5L51.3,236.1L50.8,225.9Z"/>
    <path class="wtc-county" id="wtc-county-defiance" data-county="Defiance" d="M52.1,401.2L52.1,383.2L52.1,381.1L92.1,381.2L92.1,376.0L105.5,376.0L105.5,370.9L118.8,371.0L118.8,401.4L105.5,401.3L52.1,401.2Z"/>
    <path class="wtc-county" id="wtc-county-delaware" data-county="Delaware" d="M232.7,287.0L232.7,263.9L241.4,263.9L241.8,252.1L289.4,250.1L290.6,267.7L291.0,276.2L269.8,277.2L270.2,283.8L258.9,284.1L258.9,285.9L232.7,287.0Z"/>
    <path class="wtc-county" id="wtc-county-erie" data-county="Erie" d="M292.3,421.8L298.1,419.9L299.0,423.5L292.3,421.8ZM267.3,404.9L266.8,401.6L279.4,401.7L279.8,385.4L337.7,384.7L337.3,401.4L321.9,396.0L312.7,398.1L306.0,401.4L296.9,409.1L291.9,407.2L282.7,408.0L267.3,404.9Z"/>
    <path class="wtc-county" id="wtc-county-fairfield" data-county="Fairfield" d="M281.9,211.7L279.8,184.5L292.7,183.7L292.7,185.4L305.6,184.8L306.0,190.0L320.2,189.3L320.6,196.2L334.4,195.4L335.2,205.6L330.7,205.8L331.5,216.1L322.7,216.6L324.0,227.5L322.7,226.8L286.9,228.5L284.4,215.0L281.9,211.7Z"/>
    <path class="wtc-county" id="wtc-county-fayette" data-county="Fayette" d="M185.5,202.6L183.9,183.2L194.7,182.5L193.0,163.3L218.1,163.2L230.6,179.4L232.2,200.1L185.5,202.6Z"/>
    <path class="wtc-county" id="wtc-county-franklin" data-county="Franklin" d="M237.7,248.0L236.8,241.1L231.8,241.1L232.7,232.0L235.2,227.7L232.2,225.9L233.1,213.7L281.9,211.7L284.4,215.0L286.9,228.5L289.4,250.1L241.8,252.1L241.8,247.9L237.7,248.0Z"/>
    <path class="wtc-county" id="wtc-county-fulton" data-county="Fulton" d="M98.8,433.7L99.2,423.4L100.9,423.4L101.3,411.4L105.5,411.4L105.5,408.1L158.8,408.3L159.3,435.4L103.4,433.8L98.8,433.7Z"/>
    <path class="wtc-county" id="wtc-county-gallia" data-county="Gallia" d="M311.1,101.3L310.2,93.6L321.5,92.8L323.6,89.3L322.7,82.4L336.5,81.6L335.7,71.2L344.4,70.9L352.3,71.9L357.8,75.1L356.5,85.1L352.3,95.6L361.1,100.8L361.1,107.5L366.1,114.5L366.5,119.7L340.2,120.9L340.2,122.6L327.3,123.4L324.8,101.3L311.1,102.3L311.1,101.3Z"/>
    <path class="wtc-county" id="wtc-county-geauga" data-county="Geauga" d="M448.7,417.9L448.2,392.1L493.7,392.1L493.7,410.0L493.3,434.8L482.0,434.7L482.0,426.2L459.5,426.2L459.5,417.9L448.7,417.9Z"/>
    <path class="wtc-county" id="wtc-county-greene" data-county="Greene" d="M139.2,218.2L134.7,216.7L132.2,192.1L132.2,186.4L148.0,185.4L183.9,183.2L185.5,202.6L186.4,209.1L165.1,212.0L165.5,214.9L152.2,215.6L152.2,217.4L139.2,218.2Z"/>
    <path class="wtc-county" id="wtc-county-guernsey" data-county="Guernsey" d="M410.7,253.2L409.0,227.6L413.6,227.5L413.2,217.2L426.6,216.8L426.6,223.7L439.9,223.3L440.3,226.7L449.1,226.4L449.1,229.8L466.6,229.9L467.8,255.3L454.5,255.5L454.5,260.4L421.6,261.2L416.1,261.4L416.1,253.0L410.7,253.2Z"/>
    <path class="wtc-county" id="wtc-county-hamilton" data-county="Hamilton" d="M50.0,154.8L50.0,131.5L57.5,136.3L60.4,136.1L66.7,130.7L72.9,128.0L81.3,130.8L86.7,130.3L90.5,133.4L93.8,132.6L95.5,125.8L108.4,121.9L110.5,139.6L113.4,143.0L108.0,145.3L115.1,150.8L115.1,152.8L104.2,153.3L72.1,155.6L70.9,154.8L50.0,154.8Z"/>
    <path class="wtc-county" id="wtc-county-hancock" data-county="Hancock" d="M159.3,371.2L159.3,342.4L159.3,330.8L201.8,330.6L201.8,340.6L206.0,340.6L206.0,345.7L208.5,345.7L208.5,350.7L212.6,350.7L212.6,371.1L159.3,371.2Z"/>
    <path class="wtc-county" id="wtc-county-hardin" data-county="Hardin" d="M159.3,330.8L159.3,310.4L159.3,298.1L159.3,297.3L201.0,294.6L201.0,294.0L213.1,294.2L212.6,315.3L210.6,317.1L203.9,317.0L203.9,330.6L201.8,330.6L159.3,330.8Z"/>
    <path class="wtc-county" id="wtc-county-harrison" data-county="Harrison" d="M454.5,260.4L454.5,255.5L467.8,255.3L468.3,255.6L507.5,254.0L509.5,284.6L500.8,284.8L462.4,285.8L462.0,270.8L454.9,270.9L454.5,260.4Z"/>
    <path class="wtc-county" id="wtc-county-henry" data-county="Henry" d="M105.5,408.1L105.5,401.3L118.8,401.4L118.8,371.0L159.3,371.2L158.8,399.8L158.8,408.3L105.5,408.1Z"/>
    <path class="wtc-county" id="wtc-county-highland" data-county="Highland" d="M160.9,148.0L160.1,121.8L183.4,121.7L190.5,121.6L216.8,125.8L220.6,142.3L221.4,148.4L216.0,150.4L218.1,163.2L193.0,163.3L170.5,149.9L167.2,145.2L160.9,148.0Z"/>
    <path class="wtc-county" id="wtc-county-hocking" data-county="Hocking" d="M291.5,173.8L290.6,162.1L304.0,161.3L304.0,163.0L317.7,162.3L318.1,165.3L344.0,164.0L345.2,174.3L358.2,173.5L359.4,183.9L346.9,184.6L347.3,187.9L333.6,188.6L334.4,195.4L320.6,196.2L320.2,189.3L306.0,190.0L305.6,184.8L292.7,185.4L292.7,183.7L291.5,173.8Z"/>
    <path class="wtc-county" id="wtc-county-holmes" data-county="Holmes" d="M363.2,313.1L351.9,313.1L352.3,301.5L356.9,302.1L356.1,288.5L411.6,287.1L416.1,287.0L416.1,309.0L418.6,309.3L418.2,313.1L363.2,313.1Z"/>
    <path class="wtc-county" id="wtc-county-huron" data-county="Huron" d="M279.8,385.4L280.2,381.4L281.4,351.3L293.5,351.2L327.3,350.8L326.9,359.3L338.6,359.3L337.7,384.7L279.8,385.4Z"/>
    <path class="wtc-county" id="wtc-county-jackson" data-county="Jackson" d="M286.4,138.9L283.9,113.3L290.2,113.0L289.4,102.5L302.3,101.8L311.1,101.3L311.1,102.3L324.8,101.3L327.3,123.4L328.6,135.3L314.8,136.1L315.2,140.3L301.9,141.3L302.3,142.8L288.9,143.5L286.4,138.9Z"/>
    <path class="wtc-county" id="wtc-county-jefferson" data-county="Jefferson" d="M510.0,305.1L509.5,300.0L503.3,300.1L502.5,289.8L500.8,284.8L509.5,284.6L507.5,254.0L528.3,253.8L530.8,257.1L534.2,264.0L538.3,266.3L540.4,272.8L539.6,278.5L537.1,281.4L540.8,289.3L537.1,297.7L532.5,303.2L523.3,303.3L523.3,304.9L510.0,305.1Z"/>
    <path class="wtc-county" id="wtc-county-knox" data-county="Knox" d="M291.0,276.2L290.6,267.7L322.3,266.3L322.3,264.1L354.8,263.3L356.1,288.5L356.9,302.1L352.3,301.5L338.6,300.0L334.0,299.5L305.2,299.4L303.1,299.4L302.7,275.6L291.0,276.2Z"/>
    <path class="wtc-county" id="wtc-county-lake" data-county="Lake" d="M437.0,425.1L437.4,417.9L448.7,417.9L459.5,417.9L459.5,426.2L482.0,426.2L482.0,434.7L493.3,434.8L493.7,451.0L480.8,446.6L464.9,440.1L460.8,440.0L442.4,429.9L437.0,425.1Z"/>
    <path class="wtc-county" id="wtc-county-lawrence" data-county="Lawrence" d="M283.1,69.5L293.5,68.0L300.2,61.9L306.0,58.6L308.5,52.2L313.6,50.0L318.6,50.9L330.7,54.2L340.2,55.3L342.3,60.2L344.4,70.9L335.7,71.2L336.5,81.6L322.7,82.4L323.6,89.3L321.5,92.8L310.2,93.6L311.1,101.3L302.3,101.8L300.6,90.0L296.9,90.3L295.6,81.8L288.9,82.1L288.5,78.0L291.9,72.6L283.1,69.5Z"/>
    <path class="wtc-county" id="wtc-county-licking" data-county="Licking" d="M289.4,250.1L286.9,228.5L322.7,226.8L324.0,227.5L329.0,226.5L350.7,225.5L350.7,229.9L354.4,229.8L356.1,254.9L356.5,263.2L354.8,263.3L322.3,264.1L322.3,266.3L290.6,267.7L289.4,250.1Z"/>
    <path class="wtc-county" id="wtc-county-logan" data-county="Logan" d="M145.1,291.6L145.1,271.9L143.8,267.3L170.5,265.7L170.1,264.0L197.6,262.2L201.0,294.0L201.0,294.6L159.3,297.3L159.3,298.1L145.9,297.7L145.1,291.6Z"/>
    <path class="wtc-county" id="wtc-county-lorain" data-county="Lorain" d="M337.3,401.4L337.7,384.7L338.6,359.3L357.8,359.1L358.2,367.6L369.0,367.6L369.4,374.9L380.7,374.9L381.1,383.7L392.0,383.7L392.0,392.4L381.1,392.5L381.5,410.5L376.5,411.6L355.3,405.6L348.2,402.1L337.3,401.4Z"/>
    <path class="wtc-county" id="wtc-county-lucas" data-county="Lucas" d="M158.8,408.3L158.8,399.8L174.7,405.8L178.9,408.9L179.7,413.1L190.5,418.0L195.1,423.4L213.1,423.6L242.2,424.1L234.3,426.7L223.5,433.2L218.1,431.5L209.3,434.3L208.9,436.9L173.0,435.8L159.3,435.4L158.8,408.3Z"/>
    <path class="wtc-county" id="wtc-county-madison" data-county="Madison" d="M186.4,209.1L185.5,202.6L232.2,200.1L233.1,213.7L232.2,225.9L235.2,227.7L232.7,232.0L231.8,241.1L236.8,241.1L237.7,248.0L203.0,248.4L201.4,236.6L202.2,236.6L193.0,208.6L186.4,209.1Z"/>
    <path class="wtc-county" id="wtc-county-mahoning" data-county="Mahoning" d="M483.7,350.3L483.7,340.2L505.8,340.1L505.8,343.5L514.6,343.5L514.6,340.1L549.6,340.1L549.6,366.2L549.6,367.2L493.7,367.3L493.7,350.2L483.7,350.3Z"/>
    <path class="wtc-county" id="wtc-county-marion" data-county="Marion" d="M212.6,315.3L213.1,294.2L232.7,294.4L232.7,287.0L258.9,285.9L259.8,291.8L266.4,292.5L266.4,309.4L277.7,310.6L278.1,317.4L248.5,317.2L226.0,317.1L226.0,315.3L212.6,315.3Z"/>
    <path class="wtc-county" id="wtc-county-medina" data-county="Medina" d="M357.8,359.1L357.8,350.7L362.8,350.7L414.1,350.3L414.5,383.9L392.0,383.7L381.1,383.7L380.7,374.9L369.4,374.9L369.0,367.6L358.2,367.6L357.8,359.1Z"/>
    <path class="wtc-county" id="wtc-county-meigs" data-county="Meigs" d="M340.2,122.6L340.2,120.9L366.5,119.7L366.1,114.5L374.4,122.7L379.9,118.7L384.4,118.6L389.4,110.7L386.1,107.9L388.2,105.2L394.5,106.9L395.7,111.1L399.5,113.1L403.2,110.6L404.9,121.7L400.7,124.6L399.5,128.8L407.0,130.4L406.1,140.3L382.4,141.2L346.5,143.0L341.9,143.2L340.2,122.6Z"/>
    <path class="wtc-county" id="wtc-county-mercer" data-county="Mercer" d="M52.1,302.0L52.1,276.5L95.0,276.7L92.5,277.2L92.5,315.1L92.5,320.1L52.1,320.1L52.1,302.0Z"/>
    <path class="wtc-county" id="wtc-county-miami" data-county="Miami" d="M95.0,258.4L95.9,226.2L127.1,226.6L127.1,222.2L139.2,221.6L141.3,240.1L142.6,256.9L120.1,258.7L95.0,258.4Z"/>
    <path class="wtc-county" id="wtc-county-monroe" data-county="Monroe" d="M466.2,220.2L457.4,220.4L457.0,201.5L461.2,201.5L461.2,189.7L465.3,186.6L489.5,185.8L489.5,182.0L500.4,189.8L507.9,191.4L509.5,199.7L513.3,203.1L509.1,207.3L514.1,212.1L514.6,218.1L466.2,220.2Z"/>
    <path class="wtc-county" id="wtc-county-montgomery" data-county="Montgomery" d="M88.8,226.1L89.6,188.0L103.0,187.8L132.2,186.4L132.2,192.1L134.7,216.7L139.2,218.2L139.2,221.6L127.1,222.2L127.1,226.6L95.9,226.2L88.8,226.1Z"/>
    <path class="wtc-county" id="wtc-county-morgan" data-county="Morgan" d="M369.0,208.9L368.6,203.9L374.9,203.5L372.4,183.3L371.1,172.8L395.7,171.7L398.2,176.8L411.6,175.2L412.0,181.0L409.9,181.0L410.7,187.1L425.7,187.5L425.7,196.4L419.1,196.6L419.5,206.9L412.8,207.1L369.0,208.9Z"/>
    <path class="wtc-county" id="wtc-county-morrow" data-county="Morrow" d="M258.9,285.9L258.9,284.1L270.2,283.8L269.8,277.2L291.0,276.2L302.7,275.6L303.1,299.4L305.2,299.4L304.8,317.9L293.1,318.2L278.1,318.3L278.1,317.4L277.7,310.6L266.4,309.4L266.4,292.5L259.8,291.8L258.9,285.9Z"/>
    <path class="wtc-county" id="wtc-county-muskingum" data-county="Muskingum" d="M356.1,254.9L354.4,229.8L350.7,229.9L350.7,225.5L359.0,225.0L357.8,214.7L369.4,214.2L369.0,208.9L412.8,207.1L413.2,217.2L413.6,227.5L409.0,227.6L410.7,253.2L356.1,254.9Z"/>
    <path class="wtc-county" id="wtc-county-noble" data-county="Noble" d="M413.2,217.2L412.8,207.1L419.5,206.9L419.1,196.6L425.7,196.4L425.7,187.5L439.1,187.1L439.1,194.4L445.7,192.6L447.8,189.2L460.8,188.1L461.2,189.7L461.2,201.5L457.0,201.5L457.4,220.4L466.2,220.2L466.6,229.9L449.1,229.8L449.1,226.4L440.3,226.7L439.9,223.3L426.6,223.7L426.6,216.8L413.2,217.2Z"/>
    <path class="wtc-county" id="wtc-county-ottawa" data-county="Ottawa" d="M279.8,426.9L279.8,424.7L285.6,428.9L286.9,432.4L282.3,435.9L279.8,426.9ZM213.1,423.6L213.5,409.8L222.2,409.9L222.2,404.8L267.3,404.9L282.7,408.0L291.9,407.2L296.9,409.1L294.4,414.7L286.4,414.5L280.6,420.0L277.7,418.7L276.9,413.7L269.3,411.4L261.4,414.3L253.9,420.9L242.2,424.1L213.1,423.6Z"/>
    <path class="wtc-county" id="wtc-county-paulding" data-county="Paulding" d="M52.1,381.1L52.1,350.4L98.8,350.5L105.5,350.6L105.5,370.9L105.5,376.0L92.1,376.0L92.1,381.2L52.1,381.1Z"/>
    <path class="wtc-county" id="wtc-county-perry" data-county="Perry" d="M324.0,227.5L322.7,216.6L331.5,216.1L330.7,205.8L335.2,205.6L334.4,195.4L333.6,188.6L347.3,187.9L346.9,184.6L359.4,183.9L372.4,183.3L374.9,203.5L368.6,203.9L369.0,208.9L369.4,214.2L357.8,214.7L359.0,225.0L350.7,225.5L329.0,226.5L324.0,227.5Z"/>
    <path class="wtc-county" id="wtc-county-pickaway" data-county="Pickaway" d="M232.2,200.1L230.6,179.4L262.3,178.2L261.8,175.1L291.5,173.8L292.7,183.7L279.8,184.5L281.9,211.7L233.1,213.7L232.2,200.1Z"/>
    <path class="wtc-county" id="wtc-county-pike" data-county="Pike" d="M220.6,142.3L216.8,125.8L225.1,125.4L230.2,121.2L236.4,118.4L236.8,114.7L261.4,114.3L283.9,113.3L286.4,138.9L220.6,142.3Z"/>
    <path class="wtc-county" id="wtc-county-portage" data-county="Portage" d="M448.2,392.1L448.2,350.3L483.7,350.3L493.7,350.2L493.7,367.3L493.7,392.1L448.2,392.1Z"/>
    <path class="wtc-county" id="wtc-county-preble" data-county="Preble" d="M50.8,203.7L50.8,185.2L89.6,185.4L89.6,188.0L88.8,226.1L50.8,225.9L50.8,203.7Z"/>
    <path class="wtc-county" id="wtc-county-putnam" data-county="Putnam" d="M98.8,350.5L99.2,340.4L105.9,340.4L105.9,335.4L132.6,335.6L132.6,340.6L145.9,340.6L145.9,342.3L159.3,342.4L159.3,371.2L118.8,371.0L105.5,370.9L105.5,350.6L98.8,350.5Z"/>
    <path class="wtc-county" id="wtc-county-richland" data-county="Richland" d="M293.5,351.2L293.1,318.2L304.8,317.9L305.2,299.4L334.0,299.5L338.6,300.0L338.2,320.0L333.6,320.0L332.7,329.4L329.0,331.2L329.0,350.8L327.3,350.8L293.5,351.2Z"/>
    <path class="wtc-county" id="wtc-county-ross" data-county="Ross" d="M218.1,163.2L216.0,150.4L221.4,148.4L220.6,142.3L286.4,138.9L288.9,143.5L290.6,162.1L291.5,173.8L261.8,175.1L262.3,178.2L230.6,179.4L218.1,163.2Z"/>
    <path class="wtc-county" id="wtc-county-sandusky" data-county="Sandusky" d="M213.5,409.8L212.6,381.2L232.7,381.1L252.7,381.6L280.2,381.4L279.8,385.4L279.4,401.7L266.8,401.6L267.3,404.9L222.2,404.8L222.2,409.9L213.5,409.8Z"/>
    <path class="wtc-county" id="wtc-county-scioto" data-county="Scioto" d="M230.2,121.2L230.6,75.0L245.6,76.1L247.7,80.5L256.4,85.1L258.9,87.8L265.2,87.8L273.9,91.0L276.9,87.7L275.6,83.3L279.4,72.3L283.1,69.5L291.9,72.6L288.5,78.0L288.9,82.1L295.6,81.8L296.9,90.3L300.6,90.0L302.3,101.8L289.4,102.5L290.2,113.0L283.9,113.3L261.4,114.3L236.8,114.7L236.4,118.4L230.2,121.2Z"/>
    <path class="wtc-county" id="wtc-county-seneca" data-county="Seneca" d="M212.6,371.1L212.6,350.7L248.5,350.9L278.5,350.9L281.4,351.3L280.2,381.4L252.7,381.6L232.7,381.1L212.6,381.2L212.6,371.1Z"/>
    <path class="wtc-county" id="wtc-county-shelby" data-county="Shelby" d="M95.0,276.7L95.0,258.4L120.1,258.7L142.6,256.9L143.8,267.3L145.1,271.9L145.1,291.6L105.9,291.4L105.9,279.6L95.0,279.5L95.0,276.7Z"/>
    <path class="wtc-county" id="wtc-county-stark" data-county="Stark" d="M418.2,313.1L418.6,309.3L439.5,311.7L457.0,311.2L465.8,311.1L466.2,319.6L483.7,320.1L483.7,340.2L483.7,350.3L448.2,350.3L445.3,350.3L444.9,340.8L418.6,341.7L418.2,313.1Z"/>
    <path class="wtc-county" id="wtc-county-summit" data-county="Summit" d="M414.5,383.9L414.1,350.3L418.6,350.3L418.6,341.7L444.9,340.8L445.3,350.3L448.2,350.3L448.2,392.1L424.5,392.4L428.2,384.0L414.5,383.9Z"/>
    <path class="wtc-county" id="wtc-county-trumbull" data-county="Trumbull" d="M493.7,392.1L493.7,367.3L549.6,367.2L550.0,376.0L549.6,408.5L549.6,409.8L493.7,410.0L493.7,392.1Z"/>
    <path class="wtc-county" id="wtc-county-tuscarawas" data-county="Tuscarawas" d="M411.6,287.1L411.1,278.6L422.4,278.3L421.6,261.2L454.5,260.4L454.9,270.9L462.0,270.8L462.4,285.8L463.3,301.1L456.6,301.3L457.0,311.2L439.5,311.7L418.6,309.3L416.1,309.0L416.1,287.0L411.6,287.1Z"/>
    <path class="wtc-county" id="wtc-county-union" data-county="Union" d="M201.0,294.0L197.6,262.2L203.9,261.7L203.0,248.4L237.7,248.0L241.8,247.9L241.8,252.1L241.4,263.9L232.7,263.9L232.7,287.0L232.7,294.4L213.1,294.2L201.0,294.0Z"/>
    <path class="wtc-county" id="wtc-county-van-wert" data-county="Van Wert" d="M52.1,350.4L52.1,342.7L52.1,320.1L92.5,320.1L92.5,315.1L99.2,315.1L99.2,330.3L105.9,330.4L105.9,335.4L105.9,340.4L99.2,340.4L98.8,350.5L52.1,350.4Z"/>
    <path class="wtc-county" id="wtc-county-vinton" data-county="Vinton" d="M290.6,162.1L288.9,143.5L302.3,142.8L301.9,141.3L315.2,140.3L314.8,136.1L328.6,135.3L327.3,123.4L340.2,122.6L341.9,143.2L346.5,143.0L347.3,153.4L343.2,153.6L344.0,164.0L318.1,165.3L317.7,162.3L304.0,163.0L304.0,161.3L290.6,162.1Z"/>
    <path class="wtc-county" id="wtc-county-warren" data-county="Warren" d="M103.0,187.8L103.0,182.5L106.7,183.0L105.9,167.3L104.2,153.3L115.1,152.8L115.1,150.8L144.7,148.9L148.0,185.4L132.2,186.4L103.0,187.8Z"/>
    <path class="wtc-county" id="wtc-county-washington" data-county="Washington" d="M395.7,171.7L394.9,156.3L399.0,154.4L398.6,151.0L409.9,150.6L409.5,144.4L413.6,145.6L414.9,151.1L427.8,150.4L429.1,158.7L439.5,166.3L443.2,166.8L450.8,159.1L462.4,164.2L469.5,165.0L474.1,170.4L479.9,172.5L482.0,176.0L489.5,182.0L489.5,185.8L465.3,186.6L461.2,189.7L460.8,188.1L447.8,189.2L445.7,192.6L439.1,194.4L439.1,187.1L425.7,187.5L410.7,187.1L409.9,181.0L412.0,181.0L411.6,175.2L398.2,176.8L395.7,171.7Z"/>
    <path class="wtc-county" id="wtc-county-wayne" data-county="Wayne" d="M362.8,350.7L363.2,313.1L418.2,313.1L418.6,341.7L418.6,350.3L414.1,350.3L362.8,350.7Z"/>
    <path class="wtc-county" id="wtc-county-williams" data-county="Williams" d="M51.7,432.6L51.7,413.3L52.1,401.2L105.5,401.3L105.5,408.1L105.5,411.4L101.3,411.4L100.9,423.4L99.2,423.4L98.8,433.7L51.7,432.6Z"/>
    <path class="wtc-county" id="wtc-county-wood" data-county="Wood" d="M158.8,399.8L159.3,371.2L212.6,371.1L212.6,381.2L213.5,409.8L213.1,423.6L195.1,423.4L190.5,418.0L179.7,413.1L178.9,408.9L174.7,405.8L158.8,399.8Z"/>
    <path class="wtc-county" id="wtc-county-wyandot" data-county="Wyandot" d="M212.6,350.7L208.5,350.7L208.5,345.7L206.0,345.7L206.0,340.6L201.8,340.6L201.8,330.6L203.9,330.6L203.9,317.0L210.6,317.1L212.6,315.3L226.0,315.3L226.0,317.1L248.5,317.2L248.5,350.9L212.6,350.7Z"/>
  </g>
</svg>