<?xml version="1.0" encoding="UTF-8"?>
<svg xmlns="http://www.w3.org/2000/svg" viewBox="0 0 525 600" id="wtc-state-map-VT" role="img" aria-label="vt county map">
  <title>vt Counties</title>
  <g class="wtc-counties">
    <path class="wtc-county" id="wtc-county-addison" data-county="Addison" d="M77.4,385.8L60.2,369.4L56.3,352.7L50.0,337.9L57.1,332.8L56.3,313.5L64.1,300.9L63.3,286.3L69.6,278.2L66.5,274.3L101.0,277.1L97.8,292.5L139.4,294.6L142.5,285.5L155.1,290.2L150.4,302.4L155.9,300.8L173.1,306.9L175.5,297.9L191.2,319.7L202.1,334.5L166.1,343.9L160.6,363.8L156.6,363.4L151.9,392.2L102.5,386.3L77.4,385.8Z"/>
    <path class="wtc-county" id="wtc-county-bennington" data-county="Bennington" d="M86.1,97.3L85.3,73.3L82.2,66.3L88.4,54.1L141.0,53.0L161.4,52.6L162.9,93.7L144.1,94.3L146.5,135.2L174.7,134.5L176.3,154.5L179.4,166.9L185.7,165.4L184.9,175.0L174.7,175.4L90.0,178.4L86.1,97.3Z"/>
    <path class="wtc-county" id="wtc-county-caledonia" data-county="Caledonia" d="M282.9,455.8L269.6,438.7L315.8,420.9L316.6,417.9L305.6,402.5L294.7,393.3L295.5,387.7L283.7,372.6L297.8,368.1L326.0,370.2L355.8,362.7L349.6,369.6L354.3,380.3L349.6,386.7L357.4,398.2L368.4,401.9L399.7,404.2L379.4,424.4L395.8,436.4L384.1,447.7L399.0,461.6L384.1,469.5L399.7,484.7L377.8,496.1L361.3,480.7L339.4,491.8L344.9,477.6L332.3,481.9L307.2,446.6L282.9,455.8Z"/>
    <path class="wtc-county" id="wtc-county-chittenden" data-county="Chittenden" d="M67.3,451.3L72.0,447.5L79.0,437.4L82.2,424.4L72.7,409.4L77.4,385.8L102.5,386.3L151.9,392.2L156.6,363.4L168.4,388.4L165.3,389.7L177.8,407.9L184.1,406.6L188.8,413.4L181.0,416.2L188.8,426.9L181.0,428.4L188.8,438.7L182.5,441.0L183.3,448.8L162.1,466.5L137.8,470.4L96.3,486.0L94.7,470.0L87.6,457.3L67.3,451.3Z"/>
    <path class="wtc-county" id="wtc-county-essex" data-county="Essex" d="M386.4,548.5L380.1,526.4L391.9,519.6L369.9,499.9L377.8,496.1L399.7,484.7L384.1,469.5L399.0,461.6L384.1,447.7L395.8,436.4L379.4,424.4L399.7,404.2L405.2,405.7L409.2,415.4L415.4,416.9L428.0,418.1L439.0,425.4L444.4,433.8L457.0,438.0L452.3,449.0L460.9,451.5L462.5,465.2L454.6,472.3L446.0,491.4L457.8,501.2L460.9,513.2L475.0,527.3L464.8,544.0L473.5,549.6L386.4,548.5Z"/>
    <path class="wtc-county" id="wtc-county-franklin" data-county="Franklin" d="M104.1,549.6L93.1,535.5L104.1,526.7L100.2,508.0L89.2,496.9L96.3,486.0L137.8,470.4L162.1,466.5L170.0,471.7L178.6,483.6L190.4,479.4L193.5,489.9L201.3,499.9L230.4,503.3L238.2,498.9L248.4,510.2L246.8,532.5L242.9,548.5L217.0,550.0L104.1,549.6Z"/>
    <path class="wtc-county" id="wtc-county-grand-isle" data-county="Grand Isle" d="M71.2,549.1L72.0,528.6L66.5,523.0L63.3,511.1L73.5,500.5L65.7,490.1L64.1,472.9L61.0,467.0L67.3,451.3L87.6,457.3L94.7,470.0L96.3,486.0L89.2,496.9L100.2,508.0L104.1,526.7L93.1,535.5L104.1,549.6L71.2,549.1Z"/>
    <path class="wtc-county" id="wtc-county-lamoille" data-county="Lamoille" d="M238.2,498.9L230.4,503.3L201.3,499.9L193.5,489.9L190.4,479.4L178.6,483.6L170.0,471.7L162.1,466.5L183.3,448.8L182.5,441.0L188.8,438.7L181.0,428.4L188.8,426.9L221.7,415.1L234.3,432.9L257.0,420.5L269.6,438.7L282.9,455.8L283.7,457.5L259.4,466.7L273.5,486.0L238.2,498.9Z"/>
    <path class="wtc-county" id="wtc-county-orange" data-county="Orange" d="M191.2,319.7L193.5,312.6L264.1,292.9L319.8,278.0L324.5,286.3L323.7,298.3L338.6,310.9L338.6,326.8L348.0,335.1L357.4,348.0L352.7,352.2L355.8,362.7L326.0,370.2L297.8,368.1L283.7,372.6L272.7,376.4L267.2,356.3L242.1,363.6L235.9,363.1L214.7,331.0L202.1,334.5L191.2,319.7Z"/>
    <path class="wtc-county" id="wtc-county-orleans" data-county="Orleans" d="M242.9,548.5L246.8,532.5L248.4,510.2L238.2,498.9L273.5,486.0L259.4,466.7L283.7,457.5L282.9,455.8L307.2,446.6L332.3,481.9L344.9,477.6L339.4,491.8L361.3,480.7L377.8,496.1L369.9,499.9L391.9,519.6L380.1,526.4L386.4,548.5L297.0,547.4L242.9,548.5Z"/>
    <path class="wtc-county" id="wtc-county-rutland" data-county="Rutland" d="M66.5,274.3L57.1,260.0L51.6,238.6L59.4,233.7L64.9,246.1L79.8,246.1L81.4,236.2L91.6,230.7L90.0,178.4L174.7,175.4L177.8,190.8L184.1,192.8L198.2,187.0L205.3,212.0L191.9,217.8L195.9,238.8L199.0,238.1L211.5,258.9L184.9,266.2L193.5,285.4L191.9,289.7L173.9,293.1L173.1,297.2L155.1,290.2L142.5,285.5L139.4,294.6L97.8,292.5L101.0,277.1L66.5,274.3Z"/>
    <path class="wtc-county" id="wtc-county-washington" data-county="Washington" d="M156.6,363.4L160.6,363.8L166.1,343.9L202.1,334.5L214.7,331.0L235.9,363.1L242.1,363.6L267.2,356.3L272.7,376.4L283.7,372.6L295.5,387.7L294.7,393.3L305.6,402.5L316.6,417.9L315.8,420.9L269.6,438.7L257.0,420.5L234.3,432.9L221.7,415.1L188.8,426.9L181.0,416.2L188.8,413.4L184.1,406.6L177.8,407.9L165.3,389.7L168.4,388.4L156.6,363.4Z"/>
    <path class="wtc-county" id="wtc-county-windham" data-county="Windham" d="M185.7,165.4L179.4,166.9L176.3,154.5L174.7,134.5L146.5,135.2L144.1,94.3L162.9,93.7L161.4,52.6L264.1,50.0L257.0,59.9L252.3,58.1L242.9,77.2L250.0,90.9L250.8,101.6L260.9,103.5L267.2,111.9L262.5,121.7L269.6,127.9L265.7,145.0L269.6,160.5L244.5,161.1L214.7,158.3L185.7,165.4Z"/>
    <path class="wtc-county" id="wtc-county-windsor" data-county="Windsor" d="M191.2,319.7L175.5,297.9L173.1,306.9L155.9,300.8L150.4,302.4L155.1,290.2L173.1,297.2L173.9,293.1L191.9,289.7L193.5,285.4L184.9,266.2L211.5,258.9L199.0,238.1L195.9,238.8L191.9,217.8L205.3,212.0L198.2,187.0L184.1,192.8L177.8,190.8L174.7,175.4L184.9,175.0L185.7,165.4L214.7,158.3L244.5,161.1L269.6,160.5L278.2,178.0L273.5,189.3L281.3,214.6L277.4,221.2L281.3,235.1L292.3,240.7L297.8,261.7L304.9,270.0L319.8,278.0L264.1,292.9L193.5,312.6L191.2,319.7Z"/>
  </g>
</svg>