<?xml version="1.0" encoding="UTF-8"?>
<svg xmlns="http://www.w3.org/2000/svg" viewBox="0 0 600 446" id="wtc-state-map-MO" role="img" aria-label="mo county map">
  <title>mo Counties</title>
  <g class="wtc-counties">
    <path class="wtc-county" id="wtc-county-adair" data-county="Adair" d="M268.2,70.3L268.2,93.2L269.1,93.2L306.7,93.2L306.5,73.3L306.2,70.0L281.2,70.3L268.2,70.3Z"/>
    <path class="wtc-county" id="wtc-county-andrew" data-county="Andrew" d="M104.4,86.3L105.2,87.9L103.0,90.8L106.8,92.5L108.4,100.3L108.1,103.7L113.0,104.4L111.9,106.2L116.7,109.4L137.5,109.5L137.2,93.1L137.2,86.6L104.4,86.3Z"/>
    <path class="wtc-county" id="wtc-county-atchison" data-county="Atchison" d="M50.3,52.1L50.0,56.2L54.3,56.8L55.7,54.3L58.6,55.4L55.1,58.1L55.4,60.7L58.3,62.9L58.1,65.4L61.3,72.5L66.1,74.2L65.9,76.2L94.1,76.4L94.1,60.1L92.5,60.1L92.5,52.6L79.6,52.5L50.3,52.1Z"/>
    <path class="wtc-county" id="wtc-county-audrain" data-county="Audrain" d="M309.1,144.9L308.9,152.5L324.8,153.0L324.2,166.2L360.0,166.6L360.3,159.9L376.7,160.3L374.5,147.1L353.6,146.7L353.6,145.6L325.8,145.5L309.1,144.9Z"/>
    <path class="wtc-county" id="wtc-county-barry" data-county="Barry" d="M176.7,358.5L192.6,358.5L213.6,358.5L214.4,334.4L211.5,334.4L211.7,326.7L177.8,326.1L177.3,339.8L177.6,340.5L176.7,358.5Z"/>
    <path class="wtc-county" id="wtc-county-barton" data-county="Barton" d="M136.4,271.9L136.4,293.7L176.5,294.7L177.0,277.4L177.0,273.0L136.4,271.9Z"/>
    <path class="wtc-county" id="wtc-county-bates" data-county="Bates" d="M136.7,216.8L136.7,241.5L164.6,242.1L164.6,244.0L170.8,241.7L174.3,243.2L178.1,243.2L178.9,229.9L177.0,229.9L177.6,212.4L176.2,211.8L169.5,212.6L165.7,211.5L163.3,212.2L159.3,210.6L136.7,210.2L136.7,216.8Z"/>
    <path class="wtc-county" id="wtc-county-benton" data-county="Benton" d="M219.0,207.5L219.3,212.4L218.2,230.4L220.3,231.1L219.8,240.5L252.6,241.3L253.2,232.0L251.3,232.0L251.8,226.2L252.4,206.3L235.7,205.8L235.7,208.0L219.0,207.5Z"/>
    <path class="wtc-county" id="wtc-county-bollinger" data-county="Bollinger" d="M466.0,297.3L465.8,314.5L474.1,314.5L474.1,317.9L482.7,317.9L485.4,316.8L485.4,311.4L492.4,311.5L492.7,304.5L492.9,276.0L471.4,276.1L472.0,280.4L471.4,297.5L466.0,297.3Z"/>
    <path class="wtc-county" id="wtc-county-boone" data-county="Boone" d="M300.3,152.3L294.1,164.3L290.0,171.1L290.6,173.2L295.2,176.8L299.2,183.1L304.0,185.3L301.9,188.7L303.0,190.5L306.7,193.1L305.4,194.9L315.9,197.8L316.4,192.4L320.2,188.6L322.3,184.9L320.5,181.1L321.0,175.2L322.9,169.2L322.6,166.1L324.2,166.2L324.8,153.0L308.9,152.5L300.3,152.3Z"/>
    <path class="wtc-county" id="wtc-county-buchanan" data-county="Buchanan" d="M103.6,124.8L104.1,126.4L99.5,127.9L99.8,131.0L137.5,131.2L137.5,115.0L137.5,109.5L116.7,109.4L116.5,111.2L113.2,111.8L114.0,114.1L117.3,113.1L117.0,116.2L114.3,116.6L110.8,115.1L109.5,119.9L105.4,121.1L103.6,124.8Z"/>
    <path class="wtc-county" id="wtc-county-butler" data-county="Butler" d="M431.6,326.4L432.9,329.7L432.7,335.1L435.4,335.1L435.4,345.0L438.1,345.0L438.1,351.5L439.4,351.6L439.1,358.5L466.0,358.6L468.2,355.1L468.5,351.9L471.4,348.7L472.0,343.7L467.1,338.0L467.7,335.6L466.3,332.8L463.1,330.0L463.1,326.8L456.1,326.4L431.6,326.4Z"/>
    <path class="wtc-county" id="wtc-county-caldwell" data-county="Caldwell" d="M167.1,115.1L167.1,131.5L200.7,131.7L200.7,125.2L200.7,112.2L167.1,111.8L167.1,115.1Z"/>
    <path class="wtc-county" id="wtc-county-callaway" data-county="Callaway" d="M324.2,166.2L322.6,166.1L322.9,169.2L321.0,175.2L320.5,181.1L322.3,184.9L320.2,188.6L316.4,192.4L315.9,197.8L317.2,200.6L319.9,202.3L327.7,204.2L331.8,203.2L336.6,201.2L341.7,196.7L346.0,195.0L350.6,194.6L353.0,193.0L358.9,193.2L360.0,166.6L324.2,166.2Z"/>
    <path class="wtc-county" id="wtc-county-camden" data-county="Camden" d="M251.8,226.2L251.3,232.0L253.2,232.0L252.6,241.3L252.1,253.3L268.2,253.8L286.0,254.0L287.6,257.9L291.4,260.9L294.9,258.9L298.7,259.1L301.9,256.5L302.2,244.4L293.8,244.3L288.4,238.8L287.1,233.2L284.4,233.1L284.4,230.0L280.4,229.3L275.8,230.0L275.2,231.8L260.4,231.2L262.6,229.4L260.4,228.9L258.3,231.8L256.4,227.8L253.2,225.6L251.8,226.2Z"/>
    <path class="wtc-county" id="wtc-county-cape-girardeau" data-county="Cape Girardeau" d="M492.9,276.0L492.7,304.5L492.4,311.5L499.9,311.5L503.4,310.4L505.9,306.1L511.0,304.5L511.0,303.4L520.7,302.1L518.5,299.5L520.9,295.8L524.7,295.1L525.8,291.1L518.8,280.8L518.2,278.5L513.1,277.9L512.3,275.7L510.4,276.8L502.9,275.9L501.3,276.7L497.3,275.7L492.9,276.0Z"/>
    <path class="wtc-county" id="wtc-county-carroll" data-county="Carroll" d="M200.7,131.7L200.7,155.4L204.2,155.5L208.8,152.3L213.6,153.0L215.5,154.6L220.6,154.2L220.6,149.8L221.7,149.1L226.8,150.9L227.9,154.0L232.5,152.2L232.7,147.8L236.8,147.6L238.4,145.6L240.3,146.4L243.2,143.6L242.4,140.9L245.1,140.6L247.0,142.6L249.7,142.2L248.9,139.8L241.6,137.9L240.5,135.5L237.8,136.4L236.2,132.1L237.6,129.8L236.8,124.8L200.7,125.2L200.7,131.7Z"/>
    <path class="wtc-county" id="wtc-county-carter" data-county="Carter" d="M390.7,329.7L390.7,334.0L398.8,334.2L415.2,334.9L432.7,335.1L432.9,329.7L431.6,326.4L430.2,323.2L427.6,320.9L427.8,317.2L424.1,317.2L410.1,316.9L410.3,313.6L406.0,313.8L399.6,314.5L391.2,314.5L390.7,329.7Z"/>
    <path class="wtc-county" id="wtc-county-cass" data-county="Cass" d="M136.9,190.6L136.7,210.2L159.3,210.6L163.3,212.2L165.7,211.5L169.5,212.6L176.2,211.8L177.6,212.4L177.8,203.4L173.5,203.3L173.8,196.8L173.0,196.8L173.5,183.5L145.8,182.9L136.9,182.4L136.9,190.6Z"/>
    <path class="wtc-county" id="wtc-county-cedar" data-county="Cedar" d="M177.0,273.0L177.0,277.4L211.5,278.0L211.7,265.3L210.1,265.3L210.4,258.7L196.7,258.4L196.9,254.0L177.6,253.4L177.0,264.3L177.0,273.0Z"/>
    <path class="wtc-county" id="wtc-county-chariton" data-county="Chariton" d="M237.6,118.2L236.0,119.9L237.8,124.3L236.8,124.8L237.6,129.8L236.2,132.1L237.8,136.4L240.5,135.5L241.6,137.9L248.9,139.8L249.7,142.2L254.3,147.2L260.4,147.6L260.7,149.8L265.3,154.3L268.8,154.0L273.4,145.2L279.5,146.9L280.4,125.4L280.6,125.2L280.9,118.7L268.2,118.5L251.3,118.0L237.6,118.2Z"/>
    <path class="wtc-county" id="wtc-county-christian" data-county="Christian" d="M212.0,313.6L211.7,321.2L232.2,321.5L231.9,334.6L234.6,334.7L264.2,335.3L264.7,315.6L264.7,314.5L252.6,314.3L212.0,313.6Z"/>
    <path class="wtc-county" id="wtc-county-clark" data-county="Clark" d="M336.3,73.4L336.3,76.7L370.2,77.4L370.5,75.2L374.0,68.8L376.2,67.6L371.0,67.2L368.1,65.2L367.8,61.6L365.1,61.5L360.8,57.8L361.1,55.5L356.2,54.6L353.8,51.2L352.7,50.0L336.9,50.6L336.3,73.4Z"/>
    <path class="wtc-county" id="wtc-county-clay" data-county="Clay" d="M137.5,159.0L136.9,162.5L143.4,159.8L146.3,160.1L148.0,161.9L152.5,158.5L153.3,156.5L155.0,158.7L160.9,153.2L163.3,153.2L166.5,155.4L166.8,136.9L137.5,136.8L137.5,159.0Z"/>
    <path class="wtc-county" id="wtc-county-clinton" data-county="Clinton" d="M137.5,115.0L137.5,131.2L137.5,136.8L166.8,136.9L167.1,131.5L167.1,115.1L137.5,115.0Z"/>
    <path class="wtc-county" id="wtc-county-cole" data-county="Cole" d="M303.0,190.5L295.4,213.9L302.2,214.0L301.9,220.4L311.3,220.7L313.7,221.8L318.0,220.8L318.0,218.2L324.0,215.9L319.9,211.2L323.7,211.7L329.3,211.0L331.8,208.4L330.7,206.6L331.8,203.2L327.7,204.2L319.9,202.3L317.2,200.6L315.9,197.8L305.4,194.9L306.7,193.1L303.0,190.5Z"/>
    <path class="wtc-county" id="wtc-county-cooper" data-county="Cooper" d="M253.7,176.4L252.9,194.0L269.6,194.7L286.3,195.0L286.3,193.9L295.2,176.8L290.6,173.2L287.9,173.4L278.7,172.2L273.1,173.1L268.5,172.3L263.9,169.4L262.3,166.1L254.0,173.1L253.7,176.4Z"/>
    <path class="wtc-county" id="wtc-county-crawford" data-county="Crawford" d="M379.9,230.2L367.3,230.1L367.5,234.5L368.1,234.5L367.8,261.8L384.5,261.9L384.2,268.5L396.1,268.7L396.6,265.4L400.1,265.4L400.4,255.7L400.4,230.7L379.9,230.7L379.9,230.2Z"/>
    <path class="wtc-county" id="wtc-county-dade" data-county="Dade" d="M176.5,294.7L176.2,299.1L178.6,299.2L210.7,299.8L210.9,288.9L211.5,278.0L177.0,277.4L176.5,294.7Z"/>
    <path class="wtc-county" id="wtc-county-dallas" data-county="Dallas" d="M243.5,260.7L243.2,266.2L244.6,266.2L243.8,289.7L252.1,289.8L252.1,284.4L268.5,284.6L269.1,266.9L268.0,266.9L268.2,253.8L252.1,253.3L243.8,253.1L243.5,260.7Z"/>
    <path class="wtc-county" id="wtc-county-daviess" data-county="Daviess" d="M166.3,85.7L166.3,93.4L167.3,93.4L167.1,111.8L200.7,112.2L200.4,99.0L200.2,86.1L166.3,85.7Z"/>
    <path class="wtc-county" id="wtc-county-dekalb" data-county="DeKalb" d="M137.2,93.1L137.5,109.5L137.5,115.0L167.1,115.1L167.1,111.8L167.3,93.4L166.3,93.4L157.9,93.1L137.2,93.1Z"/>
    <path class="wtc-county" id="wtc-county-dent" data-county="Dent" d="M367.8,261.8L347.1,261.6L346.8,276.0L350.9,276.1L350.9,289.1L358.9,289.2L391.5,289.8L391.8,283.3L384.0,283.1L384.0,276.5L395.8,276.8L396.1,268.7L384.2,268.5L384.5,261.9L367.8,261.8Z"/>
    <path class="wtc-county" id="wtc-county-douglas" data-county="Douglas" d="M264.7,315.6L264.2,335.3L275.2,335.5L324.0,336.4L325.3,336.4L325.8,316.7L313.7,316.5L281.2,315.9L264.7,315.6Z"/>
    <path class="wtc-county" id="wtc-county-dunklin" data-county="Dunklin" d="M454.2,396.3L460.9,396.2L485.4,396.0L485.4,366.8L486.0,355.0L485.4,348.7L471.4,348.7L468.5,351.9L468.2,355.1L466.0,358.6L471.2,358.6L472.5,363.2L471.7,364.1L477.6,367.0L476.3,375.5L473.8,376.0L473.0,378.7L468.2,380.9L466.0,382.1L464.7,385.4L458.5,389.2L454.2,396.3Z"/>
    <path class="wtc-county" id="wtc-county-franklin" data-county="Franklin" d="M379.9,193.5L379.9,230.2L379.9,230.7L400.4,230.7L424.1,230.7L425.1,223.8L427.3,214.8L427.3,211.0L427.6,198.0L424.3,201.4L415.4,205.4L410.1,204.9L406.8,203.8L403.3,200.3L397.4,201.1L390.4,199.4L390.4,197.8L383.7,192.9L379.9,193.5Z"/>
    <path class="wtc-county" id="wtc-county-gasconade" data-county="Gasconade" d="M359.2,224.4L359.2,234.5L360.3,234.5L367.5,234.5L367.3,230.1L379.9,230.2L379.9,193.5L376.2,192.7L371.0,192.5L366.5,195.2L359.5,193.2L359.2,224.4Z"/>
    <path class="wtc-county" id="wtc-county-gentry" data-county="Gentry" d="M137.2,86.6L137.2,93.1L157.9,93.1L166.3,93.4L166.3,85.7L166.5,67.2L137.7,67.0L137.2,86.6Z"/>
    <path class="wtc-county" id="wtc-county-greene" data-county="Greene" d="M210.9,288.9L210.7,299.8L212.3,299.8L212.0,313.6L252.6,314.3L252.9,300.7L251.8,300.7L252.1,289.8L243.8,289.7L210.9,288.9Z"/>
    <path class="wtc-county" id="wtc-county-grundy" data-county="Grundy" d="M200.4,76.2L200.2,86.1L200.4,99.0L230.3,98.4L230.3,93.5L230.0,76.0L200.4,76.2Z"/>
    <path class="wtc-county" id="wtc-county-harrison" data-county="Harrison" d="M165.2,53.2L165.2,60.8L166.5,60.8L166.5,67.2L166.3,85.7L200.2,86.1L200.4,76.2L200.2,60.6L199.4,60.6L199.4,52.7L181.3,53.0L165.2,53.2Z"/>
    <path class="wtc-county" id="wtc-county-henry" data-county="Henry" d="M177.6,212.4L177.0,229.9L178.9,229.9L215.8,230.9L218.2,230.4L219.3,212.4L219.0,207.5L219.3,204.3L177.8,203.4L177.6,212.4Z"/>
    <path class="wtc-county" id="wtc-county-hickory" data-county="Hickory" d="M214.4,258.9L214.4,260.0L243.5,260.7L243.8,253.1L252.1,253.3L252.6,241.3L219.8,240.5L219.3,252.4L215.0,252.4L214.4,258.9Z"/>
    <path class="wtc-county" id="wtc-county-holt" data-county="Holt" d="M65.9,76.2L66.1,76.3L71.3,77.4L71.8,82.4L78.3,87.3L76.1,92.4L84.4,96.0L88.8,99.9L92.2,100.6L92.5,103.3L96.0,102.9L97.4,105.3L104.4,106.2L108.1,103.7L108.4,100.3L106.8,92.5L103.0,90.8L105.2,87.9L104.4,86.3L102.7,84.7L102.2,76.5L94.1,76.4L65.9,76.2Z"/>
    <path class="wtc-county" id="wtc-county-howard" data-county="Howard" d="M268.8,154.0L261.5,163.0L264.5,163.8L262.3,166.1L263.9,169.4L268.5,172.3L273.1,173.1L278.7,172.2L287.9,173.4L290.6,173.2L290.0,171.1L294.1,164.3L300.3,152.3L279.5,146.9L273.4,145.2L268.8,154.0Z"/>
    <path class="wtc-county" id="wtc-county-howell" data-county="Howell" d="M323.4,358.5L357.1,358.4L356.5,349.0L357.1,336.9L358.1,336.9L358.1,329.3L358.4,317.3L325.8,316.7L325.3,336.4L324.0,336.4L323.4,358.5Z"/>
    <path class="wtc-county" id="wtc-county-iron" data-county="Iron" d="M396.1,268.7L395.8,276.8L399.8,276.8L408.4,275.7L424.9,275.7L424.6,292.9L426.2,293.0L425.9,300.7L427.3,300.6L441.3,300.5L441.3,297.1L441.6,276.1L442.4,272.7L434.0,272.7L434.0,265.8L416.8,265.9L400.1,265.4L396.6,265.4L396.1,268.7Z"/>
    <path class="wtc-county" id="wtc-county-jackson" data-county="Jackson" d="M136.9,167.7L136.9,182.4L145.8,182.9L173.5,183.5L174.1,177.2L174.6,160.2L172.4,158.1L168.4,157.2L169.8,155.0L166.5,155.4L163.3,153.2L160.9,153.2L155.0,158.7L153.3,156.5L152.5,158.5L148.0,161.9L146.3,160.1L143.4,159.8L136.9,162.5L136.9,167.7Z"/>
    <path class="wtc-county" id="wtc-county-jasper" data-county="Jasper" d="M136.4,295.6L136.1,316.6L178.1,317.4L178.6,299.2L176.2,299.1L176.5,294.7L136.4,293.7L136.4,295.6Z"/>
    <path class="wtc-county" id="wtc-county-jefferson" data-county="Jefferson" d="M427.3,211.0L427.3,214.8L425.1,223.8L424.1,230.7L431.3,238.3L434.6,240.2L436.7,240.7L436.4,244.8L438.6,245.7L451.2,242.8L457.7,238.9L460.4,239.4L463.6,236.4L460.7,233.2L455.8,230.0L454.5,225.4L454.7,220.4L456.9,216.9L457.2,211.9L451.5,211.7L452.0,208.4L438.1,208.4L436.4,210.6L432.9,210.1L431.6,212.5L430.2,210.6L427.3,211.0Z"/>
    <path class="wtc-county" id="wtc-county-johnson" data-county="Johnson" d="M173.5,183.5L173.0,196.8L173.8,196.8L173.5,203.3L177.8,203.4L219.3,204.3L219.5,193.9L220.6,179.4L220.3,176.4L195.0,175.7L194.8,177.8L174.1,177.2L173.5,183.5Z"/>
    <path class="wtc-county" id="wtc-county-knox" data-county="Knox" d="M306.5,73.3L306.7,93.2L306.7,99.5L311.0,99.6L336.1,99.8L336.3,76.7L336.3,73.4L306.5,73.3Z"/>
    <path class="wtc-county" id="wtc-county-laclede" data-county="Laclede" d="M268.2,253.8L268.0,266.9L269.1,266.9L268.5,284.6L280.9,284.8L313.7,285.5L313.7,275.6L313.7,272.3L301.6,267.4L301.9,256.5L298.7,259.1L294.9,258.9L291.4,260.9L287.6,257.9L286.0,254.0L268.2,253.8Z"/>
    <path class="wtc-county" id="wtc-county-lafayette" data-county="Lafayette" d="M174.6,160.2L174.1,177.2L194.8,177.8L195.0,175.7L220.3,176.4L220.3,175.3L221.7,149.1L220.6,149.8L220.6,154.2L215.5,154.6L213.6,153.0L208.8,152.3L204.2,155.5L200.7,155.4L194.5,154.9L190.2,157.2L187.0,157.5L185.4,160.2L183.5,159.6L185.4,157.2L184.0,155.6L180.5,156.6L180.8,159.4L177.8,160.9L174.6,160.2Z"/>
    <path class="wtc-county" id="wtc-county-lawrence" data-county="Lawrence" d="M178.1,317.4L177.8,326.1L211.7,326.7L211.7,321.2L212.0,313.6L212.3,299.8L210.7,299.8L178.6,299.2L178.1,317.4Z"/>
    <path class="wtc-county" id="wtc-county-lewis" data-county="Lewis" d="M336.3,76.7L336.1,99.8L344.4,99.9L374.8,100.1L370.5,93.3L368.9,82.7L369.7,81.0L370.2,77.4L336.3,76.7Z"/>
    <path class="wtc-county" id="wtc-county-lincoln" data-county="Lincoln" d="M388.0,160.5L387.7,171.5L393.4,171.6L393.4,176.0L399.3,176.1L399.0,180.6L410.6,180.7L411.9,179.5L412.5,179.5L413.0,179.4L421.9,180.2L422.2,177.7L428.1,176.6L431.3,177.3L432.7,175.9L431.9,172.2L428.9,166.7L431.3,164.4L429.2,159.4L428.4,154.2L393.6,154.0L393.6,160.6L388.0,160.5Z"/>
    <path class="wtc-county" id="wtc-county-linn" data-county="Linn" d="M230.3,98.4L230.3,118.2L237.6,118.2L251.3,118.0L268.2,118.5L269.1,93.2L268.2,93.2L230.3,93.5L230.3,98.4Z"/>
    <path class="wtc-county" id="wtc-county-livingston" data-county="Livingston" d="M200.4,99.0L200.7,112.2L200.7,125.2L236.8,124.8L237.8,124.3L236.0,119.9L237.6,118.2L230.3,118.2L230.3,98.4L200.4,99.0Z"/>
    <path class="wtc-county" id="wtc-county-mcdonald" data-county="McDonald" d="M136.1,338.4L136.1,345.8L136.1,358.4L176.7,358.5L177.6,340.5L177.3,339.8L136.1,338.4Z"/>
    <path class="wtc-county" id="wtc-county-macon" data-county="Macon" d="M269.1,93.2L268.2,118.5L280.9,118.7L280.6,125.2L310.0,125.6L311.0,99.6L306.7,99.5L306.7,93.2L269.1,93.2Z"/>
    <path class="wtc-county" id="wtc-county-madison" data-county="Madison" d="M442.4,272.7L441.6,276.1L441.3,297.1L466.0,297.3L471.4,297.5L472.0,280.4L471.4,276.1L471.4,272.9L442.4,272.7Z"/>
    <path class="wtc-county" id="wtc-county-maries" data-county="Maries" d="M317.8,224.0L317.8,233.8L318.8,233.9L318.6,244.7L330.9,245.2L335.0,245.2L340.4,242.1L360.0,242.1L360.3,234.5L359.2,234.5L359.2,224.4L342.8,224.0L330.7,224.3L317.8,224.0Z"/>
    <path class="wtc-county" id="wtc-county-marion" data-county="Marion" d="M344.4,99.9L343.9,121.6L353.8,121.7L353.8,119.5L384.5,119.6L379.7,116.1L380.2,114.1L379.4,110.4L375.3,108.2L374.0,105.7L376.2,101.5L374.8,100.1L344.4,99.9Z"/>
    <path class="wtc-county" id="wtc-county-mercer" data-county="Mercer" d="M199.4,52.7L199.4,60.6L200.2,60.6L200.4,76.2L230.0,76.0L230.0,67.3L229.5,52.5L215.8,52.5L199.4,52.7Z"/>
    <path class="wtc-county" id="wtc-county-miller" data-county="Miller" d="M285.7,213.7L284.9,219.8L280.9,219.8L280.4,229.3L284.4,230.0L284.4,233.1L287.1,233.2L288.4,238.8L293.8,244.3L302.2,244.4L318.6,244.7L318.8,233.9L317.8,233.8L317.8,224.0L318.0,220.8L313.7,221.8L311.3,220.7L301.9,220.4L302.2,214.0L295.4,213.9L285.7,213.7Z"/>
    <path class="wtc-county" id="wtc-county-mississippi" data-county="Mississippi" d="M534.1,320.3L529.3,321.4L529.3,323.5L526.6,323.6L525.2,325.8L522.6,325.7L522.6,328.0L519.9,328.0L518.5,330.7L521.2,333.5L525.2,340.0L529.3,343.2L532.8,348.5L537.9,353.6L541.4,352.4L544.3,347.1L544.9,344.5L542.5,342.2L543.5,339.4L547.8,339.6L548.1,337.1L544.1,335.4L544.3,332.9L547.0,332.4L550.0,325.2L547.6,322.3L544.6,323.2L542.5,319.7L537.9,316.1L534.1,316.9L538.2,319.8L537.4,321.4L534.1,320.3Z"/>
    <path class="wtc-county" id="wtc-county-moniteau" data-county="Moniteau" d="M269.6,194.7L269.3,201.2L285.7,213.7L295.4,213.9L303.0,190.5L301.9,188.7L304.0,185.3L299.2,183.1L295.2,176.8L286.3,193.9L286.3,195.0L269.6,194.7Z"/>
    <path class="wtc-county" id="wtc-county-monroe" data-county="Monroe" d="M310.0,125.6L309.1,144.9L325.8,145.5L353.6,145.6L354.1,126.1L353.8,121.7L343.9,121.6L318.6,121.3L318.6,125.4L310.0,125.6Z"/>
    <path class="wtc-county" id="wtc-county-montgomery" data-county="Montgomery" d="M358.9,193.2L359.5,193.2L366.5,195.2L371.0,192.5L376.2,192.7L376.4,182.6L387.7,182.7L387.7,171.5L388.0,160.5L376.7,160.3L360.3,159.9L360.0,166.6L358.9,193.2Z"/>
    <path class="wtc-county" id="wtc-county-morgan" data-county="Morgan" d="M252.4,206.3L251.8,226.2L253.2,225.6L256.4,227.8L258.3,231.8L260.4,228.9L262.6,229.4L260.4,231.2L275.2,231.8L275.8,230.0L280.4,229.3L280.9,219.8L284.9,219.8L285.7,213.7L269.3,201.2L269.6,194.7L252.9,194.0L252.4,206.3Z"/>
    <path class="wtc-county" id="wtc-county-new-madrid" data-county="New Madrid" d="M485.4,348.7L486.0,355.0L485.4,366.8L501.0,367.0L502.6,363.9L506.7,365.9L511.5,365.1L516.6,368.9L516.6,370.7L519.3,367.9L516.6,364.1L518.5,360.0L516.9,358.6L514.5,354.8L515.6,352.9L521.2,353.0L522.6,356.2L520.9,358.6L520.4,360.6L523.9,361.1L526.0,358.5L529.5,349.4L532.8,348.5L529.3,343.2L525.2,340.0L521.2,333.5L518.5,330.7L505.6,331.5L504.5,331.5L505.1,340.4L504.8,348.9L485.4,348.7Z"/>
    <path class="wtc-county" id="wtc-county-newton" data-county="Newton" d="M136.1,321.0L136.1,338.4L177.3,339.8L177.8,326.1L178.1,317.4L136.1,316.6L136.1,321.0Z"/>
    <path class="wtc-county" id="wtc-county-nodaway" data-county="Nodaway" d="M92.5,52.6L92.5,60.1L94.1,60.1L94.1,76.4L102.2,76.5L102.7,84.7L104.4,86.3L137.2,86.6L137.7,67.0L136.9,67.0L136.9,60.6L135.3,60.6L135.0,53.2L114.0,52.9L92.5,52.6Z"/>
    <path class="wtc-county" id="wtc-county-oregon" data-county="Oregon" d="M358.1,329.3L358.1,336.9L357.1,336.9L356.5,349.0L357.1,358.4L373.7,358.6L377.0,358.6L398.0,358.6L398.8,334.2L390.7,334.0L390.7,329.7L358.1,329.3Z"/>
    <path class="wtc-county" id="wtc-county-osage" data-county="Osage" d="M318.0,220.8L317.8,224.0L330.7,224.3L342.8,224.0L359.2,224.4L359.5,193.2L358.9,193.2L353.0,193.0L350.6,194.6L346.0,195.0L341.7,196.7L336.6,201.2L331.8,203.2L330.7,206.6L331.8,208.4L329.3,211.0L323.7,211.7L319.9,211.2L324.0,215.9L318.0,218.2L318.0,220.8Z"/>
    <path class="wtc-county" id="wtc-county-ozark" data-county="Ozark" d="M274.7,358.6L292.7,358.5L321.3,358.5L323.4,358.5L324.0,336.4L275.2,335.5L274.7,358.6Z"/>
    <path class="wtc-county" id="wtc-county-pemiscot" data-county="Pemiscot" d="M485.4,366.8L485.4,396.0L502.4,395.9L505.6,394.4L506.4,389.6L512.3,387.0L513.1,384.7L510.2,382.0L504.5,378.3L505.3,376.9L513.4,378.0L517.4,377.0L517.2,375.3L511.5,372.7L511.5,370.4L516.6,370.7L516.6,368.9L511.5,365.1L506.7,365.9L502.6,363.9L501.0,367.0L485.4,366.8Z"/>
    <path class="wtc-county" id="wtc-county-perry" data-county="Perry" d="M471.4,272.9L471.4,276.1L492.9,276.0L497.3,275.7L501.3,276.7L502.9,275.9L510.4,276.8L512.3,275.7L513.1,277.9L518.2,278.5L518.2,278.1L521.7,276.3L519.3,274.1L518.8,269.0L513.7,267.4L511.2,264.7L507.5,264.5L506.9,260.7L501.8,257.5L497.8,256.7L497.5,254.8L494.0,253.0L489.7,255.7L487.0,255.3L482.5,259.3L474.1,270.6L471.4,272.9Z"/>
    <path class="wtc-county" id="wtc-county-pettis" data-county="Pettis" d="M219.3,204.3L219.0,207.5L235.7,208.0L235.7,205.8L252.4,206.3L252.9,194.0L253.7,176.4L220.3,175.3L220.3,176.4L220.6,179.4L219.5,193.9L219.3,204.3Z"/>
    <path class="wtc-county" id="wtc-county-phelps" data-county="Phelps" d="M330.9,245.2L330.4,275.7L346.8,276.0L347.1,261.6L367.8,261.8L368.1,234.5L367.5,234.5L360.3,234.5L360.0,242.1L340.4,242.1L335.0,245.2L330.9,245.2Z"/>
    <path class="wtc-county" id="wtc-county-pike" data-county="Pike" d="M394.2,126.1L392.3,126.1L372.9,137.2L374.5,147.1L376.7,160.3L388.0,160.5L393.6,160.6L393.6,154.0L428.4,154.2L423.0,147.8L412.2,141.0L407.1,138.9L402.8,135.5L399.8,130.6L396.3,130.1L394.2,126.1Z"/>
    <path class="wtc-county" id="wtc-county-platte" data-county="Platte" d="M99.8,131.0L103.8,133.7L104.1,135.5L108.4,137.5L110.0,139.6L113.2,142.2L116.7,142.8L114.3,144.4L115.9,149.5L120.8,152.9L120.0,154.7L124.5,156.0L125.3,157.5L129.1,158.2L131.5,157.2L132.9,159.2L137.5,159.0L137.5,136.8L137.5,131.2L99.8,131.0Z"/>
    <path class="wtc-county" id="wtc-county-polk" data-county="Polk" d="M210.4,258.7L210.1,265.3L211.7,265.3L211.5,278.0L210.9,288.9L243.8,289.7L244.6,266.2L243.2,266.2L243.5,260.7L214.4,260.0L214.4,258.9L210.4,258.7Z"/>
    <path class="wtc-county" id="wtc-county-pulaski" data-county="Pulaski" d="M301.9,256.5L301.6,267.4L313.7,272.3L313.7,275.6L330.4,275.7L330.9,245.2L318.6,244.7L302.2,244.4L301.9,256.5Z"/>
    <path class="wtc-county" id="wtc-county-putnam" data-county="Putnam" d="M229.5,52.5L230.0,67.3L268.5,67.1L268.2,70.3L281.2,70.3L281.2,66.4L282.5,65.4L279.3,62.6L281.7,58.6L280.1,56.4L281.2,54.0L279.0,51.8L250.2,52.3L229.5,52.5Z"/>
    <path class="wtc-county" id="wtc-county-ralls" data-county="Ralls" d="M353.6,145.6L353.6,146.7L374.5,147.1L372.9,137.2L392.3,126.1L394.2,126.1L390.7,124.7L384.5,119.6L353.8,119.5L353.8,121.7L354.1,126.1L353.6,145.6Z"/>
    <path class="wtc-county" id="wtc-county-randolph" data-county="Randolph" d="M280.6,125.2L280.4,125.4L279.5,146.9L300.3,152.3L308.9,152.5L309.1,144.9L310.0,125.6L280.6,125.2Z"/>
    <path class="wtc-county" id="wtc-county-ray" data-county="Ray" d="M166.8,136.9L166.5,155.4L169.8,155.0L168.4,157.2L172.4,158.1L174.6,160.2L177.8,160.9L180.8,159.4L180.5,156.6L184.0,155.6L185.4,157.2L183.5,159.6L185.4,160.2L187.0,157.5L190.2,157.2L194.5,154.9L200.7,155.4L200.7,131.7L167.1,131.5L166.8,136.9Z"/>
    <path class="wtc-county" id="wtc-county-reynolds" data-county="Reynolds" d="M395.8,276.8L384.0,276.5L384.0,283.1L391.8,283.3L391.5,289.8L394.5,289.9L394.2,297.5L395.5,297.5L395.5,301.8L398.2,301.8L398.0,306.0L400.9,305.7L402.3,308.7L405.0,308.2L406.3,310.2L406.0,313.8L410.3,313.6L410.1,316.9L424.1,317.2L424.1,310.6L427.3,308.5L427.3,300.6L425.9,300.7L426.2,293.0L424.6,292.9L424.9,275.7L408.4,275.7L399.8,276.8L395.8,276.8Z"/>
    <path class="wtc-county" id="wtc-county-ripley" data-county="Ripley" d="M398.8,334.2L398.0,358.6L423.5,358.5L439.1,358.5L439.4,351.6L438.1,351.5L438.1,345.0L435.4,345.0L435.4,335.1L432.7,335.1L415.2,334.9L398.8,334.2Z"/>
    <path class="wtc-county" id="wtc-county-st-charles" data-county="St. Charles" d="M410.6,180.7L410.1,204.9L415.4,205.4L424.3,201.4L427.6,198.0L432.7,194.4L442.1,194.5L442.6,191.1L445.6,189.6L449.4,183.9L455.3,183.9L457.7,179.5L460.1,179.4L463.3,182.1L468.7,184.6L472.0,183.8L473.6,185.6L473.8,182.3L463.6,177.0L461.7,176.8L459.3,176.7L452.0,173.8L448.5,173.4L446.9,174.0L444.5,178.3L441.6,180.4L438.6,180.8L435.4,179.1L432.7,175.9L431.3,177.3L428.1,176.6L422.2,177.7L421.9,180.2L413.0,179.4L412.5,179.5L411.9,179.5L410.6,180.7Z"/>
    <path class="wtc-county" id="wtc-county-st-clair" data-county="St. Clair" d="M178.1,243.2L177.6,253.4L196.9,254.0L196.7,258.4L210.4,258.7L214.4,258.9L215.0,252.4L219.3,252.4L219.8,240.5L220.3,231.1L218.2,230.4L215.8,230.9L178.9,229.9L178.1,243.2Z"/>
    <path class="wtc-county" id="wtc-county-ste-genevieve" data-county="Ste. Genevieve" d="M451.2,242.8L458.2,247.3L448.0,255.0L467.4,270.7L470.9,268.5L474.1,270.6L482.5,259.3L487.0,255.3L484.3,251.5L487.6,249.9L486.8,248.2L482.5,248.6L477.9,244.8L475.7,244.8L472.8,241.3L466.8,239.4L463.6,236.4L460.4,239.4L457.7,238.9L451.2,242.8Z"/>
    <path class="wtc-county" id="wtc-county-st-francois" data-county="St. Francois" d="M434.0,265.8L434.0,272.7L442.4,272.7L471.4,272.9L474.1,270.6L470.9,268.5L467.4,270.7L448.0,255.0L458.2,247.3L451.2,242.8L438.6,245.7L436.4,244.8L436.7,240.7L434.6,240.2L434.0,265.8Z"/>
    <path class="wtc-county" id="wtc-county-st-louis" data-county="St. Louis" d="M470.1,188.0L463.6,192.1L459.8,196.8L458.5,201.0L460.1,203.8L463.1,206.1L468.7,200.1L468.7,196.5L466.6,191.8L470.1,188.0Z"/>
    <path class="wtc-county" id="wtc-county-saline" data-county="Saline" d="M221.7,149.1L220.3,175.3L253.7,176.4L254.0,173.1L262.3,166.1L264.5,163.8L261.5,163.0L268.8,154.0L265.3,154.3L260.7,149.8L260.4,147.6L254.3,147.2L249.7,142.2L247.0,142.6L245.1,140.6L242.4,140.9L243.2,143.6L240.3,146.4L238.4,145.6L236.8,147.6L232.7,147.8L232.5,152.2L227.9,154.0L226.8,150.9L221.7,149.1Z"/>
    <path class="wtc-county" id="wtc-county-schuyler" data-county="Schuyler" d="M279.0,51.8L281.2,54.0L280.1,56.4L281.7,58.6L279.3,62.6L282.5,65.4L281.2,66.4L281.2,70.3L306.2,70.0L306.2,51.2L284.7,51.7L279.0,51.8Z"/>
    <path class="wtc-county" id="wtc-county-scotland" data-county="Scotland" d="M306.2,51.2L306.2,70.0L306.5,73.3L336.3,73.4L336.9,50.6L319.1,51.0L306.2,51.2Z"/>
    <path class="wtc-county" id="wtc-county-scott" data-county="Scott" d="M499.9,311.5L498.3,314.4L503.4,321.7L503.7,324.4L506.1,326.7L505.6,331.5L518.5,330.7L519.9,328.0L522.6,328.0L522.6,325.7L525.2,325.8L526.6,323.6L529.3,323.5L529.3,321.4L534.1,320.3L529.0,317.9L529.3,314.5L526.3,311.6L522.8,306.0L523.1,302.9L520.7,302.1L511.0,303.4L511.0,304.5L505.9,306.1L503.4,310.4L499.9,311.5Z"/>
    <path class="wtc-county" id="wtc-county-shannon" data-county="Shannon" d="M358.4,317.3L358.1,329.3L390.7,329.7L391.2,314.5L399.6,314.5L406.0,313.8L406.3,310.2L405.0,308.2L402.3,308.7L400.9,305.7L398.0,306.0L398.2,301.8L395.5,301.8L395.5,297.5L394.2,297.5L394.5,289.9L391.5,289.8L358.9,289.2L358.9,302.3L358.4,317.3Z"/>
    <path class="wtc-county" id="wtc-county-shelby" data-county="Shelby" d="M311.0,99.6L310.0,125.6L318.6,125.4L318.6,121.3L343.9,121.6L344.4,99.9L336.1,99.8L311.0,99.6Z"/>
    <path class="wtc-county" id="wtc-county-stoddard" data-county="Stoddard" d="M463.1,326.8L463.1,330.0L466.3,332.8L467.7,335.6L467.1,338.0L472.0,343.7L471.4,348.7L485.4,348.7L504.8,348.9L505.1,340.4L504.5,331.5L505.6,331.5L506.1,326.7L503.7,324.4L503.4,321.7L498.3,314.4L499.9,311.5L492.4,311.5L485.4,311.4L485.4,316.8L482.7,317.9L474.1,317.9L471.4,317.8L471.2,320.4L468.5,321.4L465.8,325.7L463.1,326.8Z"/>
    <path class="wtc-county" id="wtc-county-stone" data-county="Stone" d="M211.7,326.7L211.5,334.4L214.4,334.4L213.6,358.5L233.8,358.5L234.6,334.7L231.9,334.6L232.2,321.5L211.7,321.2L211.7,326.7Z"/>
    <path class="wtc-county" id="wtc-county-sullivan" data-county="Sullivan" d="M230.0,67.3L230.0,76.0L230.3,93.5L268.2,93.2L268.2,70.3L268.5,67.1L230.0,67.3Z"/>
    <path class="wtc-county" id="wtc-county-taney" data-county="Taney" d="M234.6,334.7L233.8,358.5L235.4,358.6L268.5,358.6L274.7,358.6L275.2,335.5L264.2,335.3L234.6,334.7Z"/>
    <path class="wtc-county" id="wtc-county-texas" data-county="Texas" d="M313.7,285.5L313.5,301.8L313.7,316.5L325.8,316.7L358.4,317.3L358.9,302.3L358.9,289.2L350.9,289.1L350.9,276.1L346.8,276.0L330.4,275.7L313.7,275.6L313.7,285.5Z"/>
    <path class="wtc-county" id="wtc-county-vernon" data-county="Vernon" d="M136.7,243.2L136.1,270.5L136.4,271.9L177.0,273.0L177.0,264.3L177.6,253.4L178.1,243.2L174.3,243.2L170.8,241.7L164.6,244.0L164.6,242.1L136.7,241.5L136.7,243.2Z"/>
    <path class="wtc-county" id="wtc-county-warren" data-county="Warren" d="M387.7,171.5L387.7,182.7L376.4,182.6L376.2,192.7L379.9,193.5L383.7,192.9L390.4,197.8L390.4,199.4L397.4,201.1L403.3,200.3L406.8,203.8L410.1,204.9L410.6,180.7L399.0,180.6L399.3,176.1L393.4,176.0L393.4,171.6L387.7,171.5Z"/>
    <path class="wtc-county" id="wtc-county-washington" data-county="Washington" d="M400.4,230.7L400.4,255.7L400.1,265.4L416.8,265.9L434.0,265.8L434.6,240.2L431.3,238.3L424.1,230.7L400.4,230.7Z"/>
    <path class="wtc-county" id="wtc-county-wayne" data-county="Wayne" d="M427.3,300.6L427.3,308.5L424.1,310.6L424.1,317.2L427.8,317.2L427.6,320.9L430.2,323.2L431.6,326.4L456.1,326.4L463.1,326.8L465.8,325.7L468.5,321.4L471.2,320.4L471.4,317.8L474.1,317.9L474.1,314.5L465.8,314.5L466.0,297.3L441.3,297.1L441.3,300.5L427.3,300.6Z"/>
    <path class="wtc-county" id="wtc-county-webster" data-county="Webster" d="M252.1,289.8L251.8,300.7L252.9,300.7L252.6,314.3L264.7,314.5L264.7,315.6L281.2,315.9L281.7,301.2L280.6,301.2L280.9,284.8L268.5,284.6L252.1,284.4L252.1,289.8Z"/>
    <path class="wtc-county" id="wtc-county-worth" data-county="Worth" d="M135.0,53.2L135.3,60.6L136.9,60.6L136.9,67.0L137.7,67.0L166.5,67.2L166.5,60.8L165.2,60.8L165.2,53.2L147.1,53.2L135.0,53.2Z"/>
    <path class="wtc-county" id="wtc-county-wright" data-county="Wright" d="M280.9,284.8L280.6,301.2L281.7,301.2L281.2,315.9L313.7,316.5L313.5,301.8L313.7,285.5L280.9,284.8Z"/>
    <path class="wtc-county" id="wtc-county-st-louis" data-county="St. Louis" d="M470.1,188.0L463.6,192.1L459.8,196.8L458.5,201.0L460.1,203.8L463.1,206.1L468.7,200.1L468.7,196.5L466.6,191.8L470.1,188.0Z"/>
  </g>
</svg>