<?xml version="1.0" encoding="UTF-8"?>
<svg xmlns="http://www.w3.org/2000/svg" viewBox="0 0 600 340" id="wtc-state-map-IA" role="img" aria-label="ia county map">
  <title>ia Counties</title>
  <g class="wtc-counties">
    <path class="wtc-county" id="wtc-county-adair" data-county="Adair" d="M198.7,203.7L199.0,217.1L198.7,230.4L216.4,230.5L234.1,230.5L234.1,203.8L198.7,203.7Z"/>
    <path class="wtc-county" id="wtc-county-adams" data-county="Adams" d="M181.3,230.4L181.3,250.2L216.4,250.3L216.4,230.5L198.7,230.4L181.3,230.4Z"/>
    <path class="wtc-county" id="wtc-county-allamakee" data-county="Allamakee" d="M436.7,50.1L436.7,62.2L437.2,82.3L470.1,82.4L470.1,78.4L472.6,76.9L474.3,73.4L479.2,69.4L475.6,64.4L468.2,61.7L467.9,56.0L465.7,53.5L467.1,50.1L436.7,50.1Z"/>
    <path class="wtc-county" id="wtc-county-appanoose" data-county="Appanoose" d="M322.2,250.4L322.2,274.7L351.8,274.2L357.6,274.1L357.6,250.4L322.2,250.4Z"/>
    <path class="wtc-county" id="wtc-county-audubon" data-county="Audubon" d="M168.6,176.1L168.6,196.2L172.7,196.2L172.7,203.7L198.7,203.7L198.7,196.2L195.4,196.2L195.4,176.2L168.6,176.1Z"/>
    <path class="wtc-county" id="wtc-county-benton" data-county="Benton" d="M383.9,142.7L383.9,176.2L419.8,176.2L419.5,169.5L419.8,142.5L401.9,142.7L383.9,142.7Z"/>
    <path class="wtc-county" id="wtc-county-black-hawk" data-county="Black Hawk" d="M364.0,116.2L364.0,122.8L364.0,129.4L365.6,129.4L365.6,142.7L383.9,142.7L401.9,142.7L401.9,129.5L400.5,129.5L400.5,116.2L364.0,116.2Z"/>
    <path class="wtc-county" id="wtc-county-boone" data-county="Boone" d="M240.2,149.4L240.2,176.1L267.0,176.1L276.1,176.1L276.1,149.5L258.1,149.4L240.2,149.4Z"/>
    <path class="wtc-county" id="wtc-county-bremer" data-county="Bremer" d="M364.0,95.7L364.0,116.2L400.5,116.2L400.5,95.7L364.0,95.7Z"/>
    <path class="wtc-county" id="wtc-county-buchanan" data-county="Buchanan" d="M400.5,116.2L400.5,129.5L401.9,129.5L401.9,142.7L419.8,142.5L437.8,142.7L437.8,129.4L437.0,129.4L437.0,116.0L400.5,116.2Z"/>
    <path class="wtc-county" id="wtc-county-buena-vista" data-county="Buena Vista" d="M145.9,95.5L145.9,122.3L182.4,122.4L182.4,95.5L145.9,95.5Z"/>
    <path class="wtc-county" id="wtc-county-butler" data-county="Butler" d="M327.8,95.7L327.8,122.7L364.0,122.8L364.0,116.2L364.0,95.7L327.8,95.7Z"/>
    <path class="wtc-county" id="wtc-county-calhoun" data-county="Calhoun" d="M182.4,122.4L182.4,129.1L186.8,129.1L186.5,149.4L204.2,149.4L222.2,149.5L222.2,129.1L218.6,129.1L218.6,122.6L182.4,122.4Z"/>
    <path class="wtc-county" id="wtc-county-carroll" data-county="Carroll" d="M168.9,149.4L168.6,176.1L195.4,176.2L204.2,176.2L204.2,149.4L186.5,149.4L168.9,149.4Z"/>
    <path class="wtc-county" id="wtc-county-cass" data-county="Cass" d="M163.9,203.7L163.9,230.3L181.3,230.4L198.7,230.4L199.0,217.1L198.7,203.7L172.7,203.7L163.9,203.7Z"/>
    <path class="wtc-county" id="wtc-county-cedar" data-county="Cedar" d="M455.5,176.4L455.5,196.5L491.4,196.6L491.7,183.2L491.7,169.7L455.5,169.6L455.5,176.4Z"/>
    <path class="wtc-county" id="wtc-county-cerro-gordo" data-county="Cerro Gordo" d="M291.6,68.9L291.3,95.6L327.8,95.7L327.8,72.2L327.8,68.9L291.6,68.9Z"/>
    <path class="wtc-county" id="wtc-county-cherokee" data-county="Cherokee" d="M109.7,95.6L109.4,122.4L118.5,122.4L145.9,122.3L145.9,95.5L109.7,95.6Z"/>
    <path class="wtc-county" id="wtc-county-chickasaw" data-county="Chickasaw" d="M364.0,72.2L364.0,95.7L400.5,95.7L400.5,82.2L400.5,72.2L364.0,72.2Z"/>
    <path class="wtc-county" id="wtc-county-clarke" data-county="Clarke" d="M251.8,230.5L251.5,250.5L286.9,250.4L286.9,230.2L268.9,230.1L251.8,230.5Z"/>
    <path class="wtc-county" id="wtc-county-clay" data-county="Clay" d="M145.9,68.9L145.9,95.5L182.4,95.5L182.4,68.9L145.9,68.9Z"/>
    <path class="wtc-county" id="wtc-county-clayton" data-county="Clayton" d="M437.2,82.3L437.0,116.0L473.4,115.8L491.7,115.9L491.7,113.6L485.3,111.8L478.7,107.8L475.9,97.6L472.6,95.9L471.8,89.5L470.1,82.4L437.2,82.3Z"/>
    <path class="wtc-county" id="wtc-county-clinton" data-county="Clinton" d="M491.7,163.0L491.7,169.7L491.7,183.2L500.2,183.2L505.8,186.0L508.8,184.0L516.3,184.2L519.3,182.8L524.6,183.0L529.3,186.4L536.5,186.5L542.0,182.3L547.0,180.3L546.7,177.5L549.2,171.1L548.1,168.9L550.0,164.9L548.9,163.1L491.7,163.0Z"/>
    <path class="wtc-county" id="wtc-county-crawford" data-county="Crawford" d="M124.1,149.3L124.1,176.2L132.9,176.1L168.6,176.1L168.9,149.4L150.9,149.4L124.1,149.3Z"/>
    <path class="wtc-county" id="wtc-county-dallas" data-county="Dallas" d="M231.0,176.2L231.3,196.3L234.1,196.3L234.1,203.8L260.6,203.9L268.9,203.1L268.9,196.3L267.0,196.3L267.0,176.1L240.2,176.1L231.0,176.2Z"/>
    <path class="wtc-county" id="wtc-county-davis" data-county="Davis" d="M357.6,250.4L357.6,274.1L379.7,273.6L393.0,273.3L393.0,250.3L357.6,250.4Z"/>
    <path class="wtc-county" id="wtc-county-decatur" data-county="Decatur" d="M251.5,250.5L251.5,275.4L270.0,275.1L286.9,274.9L286.9,250.4L251.5,250.5Z"/>
    <path class="wtc-county" id="wtc-county-delaware" data-county="Delaware" d="M437.0,116.0L437.0,129.4L437.8,129.4L437.8,142.7L455.7,142.7L473.7,142.8L473.4,115.8L437.0,116.0Z"/>
    <path class="wtc-county" id="wtc-county-des-moines" data-county="Des Moines" d="M455.2,236.9L455.2,257.0L452.2,257.0L461.3,260.1L462.1,261.6L475.1,266.0L476.8,256.1L479.5,254.3L483.4,249.9L486.4,248.7L488.1,241.6L487.8,237.2L487.8,237.0L455.2,236.9Z"/>
    <path class="wtc-county" id="wtc-county-dickinson" data-county="Dickinson" d="M145.9,50.1L145.9,68.9L182.4,68.9L182.4,50.1L145.9,50.1Z"/>
    <path class="wtc-county" id="wtc-county-dubuque" data-county="Dubuque" d="M473.4,115.8L473.7,142.8L491.7,142.9L509.6,142.9L509.6,136.1L524.3,136.2L517.9,133.6L517.4,131.8L511.3,129.5L511.3,126.4L511.3,124.0L506.3,116.7L491.7,113.6L491.7,115.9L473.4,115.8Z"/>
    <path class="wtc-county" id="wtc-county-emmet" data-county="Emmet" d="M182.4,50.1L182.4,68.9L218.6,68.9L218.6,50.0L187.1,50.0L182.4,50.1Z"/>
    <path class="wtc-county" id="wtc-county-fayette" data-county="Fayette" d="M400.5,95.7L400.5,116.2L437.0,116.0L437.2,82.3L400.5,82.2L400.5,95.7Z"/>
    <path class="wtc-county" id="wtc-county-floyd" data-county="Floyd" d="M327.8,72.2L327.8,95.7L364.0,95.7L364.0,72.2L327.8,72.2Z"/>
    <path class="wtc-county" id="wtc-county-franklin" data-county="Franklin" d="M291.3,95.6L291.3,122.6L327.8,122.7L327.8,95.7L291.3,95.6Z"/>
    <path class="wtc-county" id="wtc-county-fremont" data-county="Fremont" d="M111.6,259.2L108.0,261.6L107.5,264.1L111.6,267.9L115.2,269.0L118.0,272.7L116.9,274.5L147.0,274.9L147.3,263.5L146.2,263.5L146.2,250.2L113.0,250.2L111.1,252.4L110.5,257.1L111.6,259.2Z"/>
    <path class="wtc-county" id="wtc-county-greene" data-county="Greene" d="M204.2,149.4L204.2,176.2L231.0,176.2L240.2,176.1L240.2,149.4L222.2,149.5L204.2,149.4Z"/>
    <path class="wtc-county" id="wtc-county-grundy" data-county="Grundy" d="M327.8,122.7L327.8,129.3L329.4,129.3L329.7,149.5L347.7,149.4L347.7,142.7L365.6,142.7L365.6,129.4L364.0,129.4L364.0,122.8L327.8,122.7Z"/>
    <path class="wtc-county" id="wtc-county-guthrie" data-county="Guthrie" d="M195.4,176.2L195.4,196.2L198.7,196.2L198.7,203.7L234.1,203.8L234.1,196.3L231.3,196.3L231.0,176.2L204.2,176.2L195.4,176.2Z"/>
    <path class="wtc-county" id="wtc-county-hamilton" data-county="Hamilton" d="M255.1,122.6L254.8,129.3L258.1,129.3L258.1,149.4L276.1,149.5L294.1,149.5L294.1,129.3L291.3,129.3L291.3,122.6L255.1,122.6Z"/>
    <path class="wtc-county" id="wtc-county-hancock" data-county="Hancock" d="M255.1,68.9L255.1,95.7L291.3,95.6L291.6,68.9L255.1,68.9Z"/>
    <path class="wtc-county" id="wtc-county-hardin" data-county="Hardin" d="M291.3,122.6L291.3,129.3L294.1,129.3L294.1,149.5L312.0,149.5L329.7,149.5L329.4,129.3L327.8,129.3L327.8,122.7L291.3,122.6Z"/>
    <path class="wtc-county" id="wtc-county-harrison" data-county="Harrison" d="M88.1,175.9L90.4,179.4L93.7,180.9L92.8,184.0L90.6,185.3L92.3,188.9L89.2,190.0L91.5,192.8L89.5,195.3L92.6,197.9L91.7,201.6L95.9,203.5L96.4,201.0L98.9,201.1L98.9,203.5L137.3,203.6L137.3,196.2L132.6,196.2L132.9,176.1L124.1,176.2L88.1,175.9Z"/>
    <path class="wtc-county" id="wtc-county-henry" data-county="Henry" d="M428.4,250.2L428.4,256.9L452.2,257.0L455.2,257.0L455.2,236.9L455.2,230.2L446.4,230.1L428.7,230.1L428.4,250.2Z"/>
    <path class="wtc-county" id="wtc-county-howard" data-county="Howard" d="M364.3,50.1L364.0,72.2L400.5,72.2L400.7,50.0L372.3,50.1L364.3,50.1Z"/>
    <path class="wtc-county" id="wtc-county-humboldt" data-county="Humboldt" d="M218.6,95.6L218.6,115.9L254.8,116.0L255.1,95.7L218.6,95.6Z"/>
    <path class="wtc-county" id="wtc-county-ida" data-county="Ida" d="M118.5,122.4L118.5,129.0L124.4,129.1L124.1,149.3L150.9,149.4L150.9,129.1L145.9,129.1L145.9,122.3L118.5,122.4Z"/>
    <path class="wtc-county" id="wtc-county-iowa" data-county="Iowa" d="M383.9,176.2L383.6,182.8L383.9,203.3L411.0,203.3L419.8,203.2L420.1,196.3L419.8,176.2L383.9,176.2Z"/>
    <path class="wtc-county" id="wtc-county-jackson" data-county="Jackson" d="M491.7,142.9L491.7,163.0L548.9,163.1L547.8,159.7L548.3,156.6L544.7,153.9L536.2,150.7L531.8,149.0L527.6,144.1L528.4,140.2L524.3,136.2L509.6,136.1L509.6,142.9L491.7,142.9Z"/>
    <path class="wtc-county" id="wtc-county-jasper" data-county="Jasper" d="M302.9,176.2L302.9,196.3L304.6,196.3L304.6,203.5L339.7,203.4L348.5,203.4L348.5,196.3L347.7,196.3L347.7,176.2L312.0,176.2L302.9,176.2Z"/>
    <path class="wtc-county" id="wtc-county-jefferson" data-county="Jefferson" d="M393.0,230.1L393.0,250.3L428.4,250.2L428.7,230.1L411.0,230.0L393.0,230.1Z"/>
    <path class="wtc-county" id="wtc-county-johnson" data-county="Johnson" d="M419.8,176.2L420.1,196.3L419.8,203.2L443.9,203.2L444.1,206.5L446.6,210.0L455.5,210.0L455.5,196.5L455.5,176.4L419.8,176.2Z"/>
    <path class="wtc-county" id="wtc-county-jones" data-county="Jones" d="M455.7,142.7L455.5,169.6L491.7,169.7L491.7,163.0L491.7,142.9L473.7,142.8L455.7,142.7Z"/>
    <path class="wtc-county" id="wtc-county-keokuk" data-county="Keokuk" d="M375.0,203.3L375.3,230.1L393.0,230.1L411.0,230.0L411.0,203.3L383.9,203.3L375.0,203.3Z"/>
    <path class="wtc-county" id="wtc-county-kossuth" data-county="Kossuth" d="M218.6,50.0L218.6,68.9L218.6,95.6L255.1,95.7L255.1,68.9L255.1,50.1L233.8,50.1L218.6,50.0Z"/>
    <path class="wtc-county" id="wtc-county-lee" data-county="Lee" d="M428.4,256.9L428.7,273.5L431.1,277.0L436.1,278.0L435.8,280.3L440.3,284.1L443.0,284.2L443.3,288.0L446.4,290.0L451.6,290.5L454.9,289.4L454.4,286.1L455.5,280.1L452.4,277.8L456.0,273.3L464.6,270.4L469.6,270.5L474.5,267.8L475.1,266.0L462.1,261.6L461.3,260.1L452.2,257.0L428.4,256.9Z"/>
    <path class="wtc-county" id="wtc-county-linn" data-county="Linn" d="M419.8,142.5L419.5,169.5L419.8,176.2L455.5,176.4L455.5,169.6L455.7,142.7L437.8,142.7L419.8,142.5Z"/>
    <path class="wtc-county" id="wtc-county-louisa" data-county="Louisa" d="M446.6,210.0L446.4,230.1L455.2,230.2L455.2,236.9L487.8,237.0L487.8,235.2L484.2,230.2L480.6,229.8L475.1,224.2L478.1,216.9L455.5,216.7L455.5,210.0L446.6,210.0Z"/>
    <path class="wtc-county" id="wtc-county-lucas" data-county="Lucas" d="M286.9,230.2L286.9,250.4L322.2,250.4L322.2,230.2L304.6,230.2L286.9,230.2Z"/>
    <path class="wtc-county" id="wtc-county-lyon" data-county="Lyon" d="M52.8,50.1L54.1,51.5L52.2,54.0L58.3,58.2L58.0,65.5L54.1,65.8L56.1,68.6L91.2,68.8L109.4,68.7L109.4,50.1L94.8,50.1L63.8,50.1L52.8,50.1Z"/>
    <path class="wtc-county" id="wtc-county-madison" data-county="Madison" d="M234.1,203.8L234.1,230.5L251.8,230.5L268.9,230.1L268.9,203.1L260.6,203.9L234.1,203.8Z"/>
    <path class="wtc-county" id="wtc-county-mahaska" data-county="Mahaska" d="M339.7,203.4L339.7,230.2L357.4,230.2L375.3,230.1L375.0,203.3L348.5,203.4L339.7,203.4Z"/>
    <path class="wtc-county" id="wtc-county-marion" data-county="Marion" d="M304.6,203.5L304.6,204.8L304.6,230.2L322.2,230.2L339.7,230.2L339.7,203.4L304.6,203.5Z"/>
    <path class="wtc-county" id="wtc-county-marshall" data-county="Marshall" d="M312.0,149.5L312.0,176.2L347.7,176.2L347.7,149.4L329.7,149.5L312.0,149.5Z"/>
    <path class="wtc-county" id="wtc-county-mills" data-county="Mills" d="M108.0,230.3L109.1,236.4L108.0,238.5L109.4,243.0L111.9,244.3L111.1,247.2L113.0,250.2L146.2,250.2L146.2,230.3L108.0,230.3Z"/>
    <path class="wtc-county" id="wtc-county-mitchell" data-county="Mitchell" d="M327.8,50.1L327.8,68.9L327.8,72.2L364.0,72.2L364.3,50.1L327.8,50.1Z"/>
    <path class="wtc-county" id="wtc-county-monona" data-county="Monona" d="M71.3,149.0L71.8,152.7L77.9,156.4L77.6,161.9L81.8,163.6L80.4,164.6L84.5,165.4L84.3,167.4L88.7,167.8L87.9,172.1L86.2,172.8L88.1,175.9L124.1,176.2L124.1,149.3L71.3,149.0Z"/>
    <path class="wtc-county" id="wtc-county-monroe" data-county="Monroe" d="M322.2,230.2L322.2,250.4L357.6,250.4L357.4,230.2L339.7,230.2L322.2,230.2Z"/>
    <path class="wtc-county" id="wtc-county-montgomery" data-county="Montgomery" d="M146.2,230.3L146.2,250.2L181.3,250.2L181.3,230.4L163.9,230.3L146.2,230.3Z"/>
    <path class="wtc-county" id="wtc-county-muscatine" data-county="Muscatine" d="M455.5,210.0L455.5,216.7L478.1,216.9L480.3,210.6L485.6,209.2L489.2,210.2L495.6,207.5L500.2,207.7L500.5,196.7L491.4,196.6L455.5,196.5L455.5,210.0Z"/>
    <path class="wtc-county" id="wtc-county-obrien" data-county="O'Brien" d="M109.4,68.7L109.4,88.8L109.7,95.6L145.9,95.5L145.9,68.9L109.4,68.7Z"/>
    <path class="wtc-county" id="wtc-county-osceola" data-county="Osceola" d="M109.4,50.1L109.4,68.7L145.9,68.9L145.9,50.1L140.7,50.0L109.4,50.1Z"/>
    <path class="wtc-county" id="wtc-county-page" data-county="Page" d="M146.2,250.2L146.2,263.5L147.3,263.5L147.0,274.9L160.3,275.1L182.4,275.3L182.4,263.6L181.3,263.6L181.3,250.2L146.2,250.2Z"/>
    <path class="wtc-county" id="wtc-county-palo-alto" data-county="Palo Alto" d="M182.4,68.9L182.4,95.5L218.6,95.6L218.6,68.9L182.4,68.9Z"/>
    <path class="wtc-county" id="wtc-county-plymouth" data-county="Plymouth" d="M57.5,95.6L56.9,100.0L53.9,101.1L53.0,104.5L50.0,106.2L50.3,111.3L54.4,113.0L59.1,117.0L60.2,122.4L109.4,122.4L109.7,95.6L57.5,95.6Z"/>
    <path class="wtc-county" id="wtc-county-pocahontas" data-county="Pocahontas" d="M182.4,95.5L182.4,122.4L218.6,122.6L218.6,115.9L218.6,95.6L182.4,95.5Z"/>
    <path class="wtc-county" id="wtc-county-polk" data-county="Polk" d="M267.0,176.1L267.0,196.3L268.9,196.3L268.9,203.1L295.7,203.5L297.9,204.7L304.6,204.8L304.6,203.5L304.6,196.3L302.9,196.3L302.9,176.2L276.1,176.1L267.0,176.1Z"/>
    <path class="wtc-county" id="wtc-county-pottawattamie" data-county="Pottawattamie" d="M98.9,203.5L98.4,206.2L103.9,206.8L103.6,212.5L102.2,216.4L107.8,218.2L104.2,220.9L105.6,225.1L104.7,227.9L111.1,229.1L108.0,230.3L146.2,230.3L163.9,230.3L163.9,203.7L137.3,203.6L98.9,203.5Z"/>
    <path class="wtc-county" id="wtc-county-poweshiek" data-county="Poweshiek" d="M347.7,176.2L347.7,196.3L348.5,196.3L348.5,203.4L375.0,203.3L383.9,203.3L383.6,182.8L383.9,176.2L347.7,176.2Z"/>
    <path class="wtc-county" id="wtc-county-ringgold" data-county="Ringgold" d="M216.4,250.3L216.4,275.6L234.9,275.6L251.5,275.4L251.5,250.5L216.4,250.3Z"/>
    <path class="wtc-county" id="wtc-county-sac" data-county="Sac" d="M145.9,122.3L145.9,129.1L150.9,129.1L150.9,149.4L168.9,149.4L186.5,149.4L186.8,129.1L182.4,129.1L182.4,122.4L145.9,122.3Z"/>
    <path class="wtc-county" id="wtc-county-scott" data-county="Scott" d="M491.7,183.2L491.4,196.6L500.5,196.7L500.2,207.7L504.1,207.9L510.8,206.8L515.2,203.1L517.9,202.2L525.1,202.3L530.1,198.5L534.5,197.1L534.2,192.8L536.7,188.9L536.5,186.5L529.3,186.4L524.6,183.0L519.3,182.8L516.3,184.2L508.8,184.0L505.8,186.0L500.2,183.2L491.7,183.2Z"/>
    <path class="wtc-county" id="wtc-county-shelby" data-county="Shelby" d="M132.9,176.1L132.6,196.2L137.3,196.2L137.3,203.6L163.9,203.7L172.7,203.7L172.7,196.2L168.6,196.2L168.6,176.1L132.9,176.1Z"/>
    <path class="wtc-county" id="wtc-county-sioux" data-county="Sioux" d="M56.1,68.6L55.5,71.3L62.2,71.5L62.7,77.0L65.2,79.3L63.8,82.2L59.4,84.7L60.8,88.4L58.6,90.3L60.2,91.7L57.5,95.6L109.7,95.6L109.4,88.8L109.4,68.7L91.2,68.8L56.1,68.6Z"/>
    <path class="wtc-county" id="wtc-county-story" data-county="Story" d="M276.1,149.5L276.1,176.1L302.9,176.2L312.0,176.2L312.0,149.5L294.1,149.5L276.1,149.5Z"/>
    <path class="wtc-county" id="wtc-county-tama" data-county="Tama" d="M365.6,142.7L347.7,142.7L347.7,149.4L347.7,176.2L383.9,176.2L383.9,142.7L365.6,142.7Z"/>
    <path class="wtc-county" id="wtc-county-taylor" data-county="Taylor" d="M181.3,250.2L181.3,263.6L182.4,263.6L182.4,275.3L204.0,275.6L216.4,275.6L216.4,250.3L181.3,250.2Z"/>
    <path class="wtc-county" id="wtc-county-union" data-county="Union" d="M216.4,230.5L216.4,250.3L251.5,250.5L251.8,230.5L234.1,230.5L216.4,230.5Z"/>
    <path class="wtc-county" id="wtc-county-van-buren" data-county="Van Buren" d="M393.0,250.3L393.0,273.3L411.2,272.9L427.6,272.3L428.7,273.5L428.4,256.9L428.4,250.2L393.0,250.3Z"/>
    <path class="wtc-county" id="wtc-county-wapello" data-county="Wapello" d="M357.4,230.2L357.6,250.4L393.0,250.3L393.0,230.1L375.3,230.1L357.4,230.2Z"/>
    <path class="wtc-county" id="wtc-county-warren" data-county="Warren" d="M268.9,203.1L268.9,230.1L286.9,230.2L304.6,230.2L304.6,204.8L297.9,204.7L295.7,203.5L268.9,203.1Z"/>
    <path class="wtc-county" id="wtc-county-washington" data-county="Washington" d="M411.0,203.3L411.0,230.0L428.7,230.1L446.4,230.1L446.6,210.0L444.1,206.5L443.9,203.2L419.8,203.2L411.0,203.3Z"/>
    <path class="wtc-county" id="wtc-county-wayne" data-county="Wayne" d="M286.9,250.4L286.9,274.9L301.0,274.9L322.2,274.7L322.2,250.4L286.9,250.4Z"/>
    <path class="wtc-county" id="wtc-county-webster" data-county="Webster" d="M218.6,115.9L218.6,122.6L218.6,129.1L222.2,129.1L222.2,149.5L240.2,149.4L258.1,149.4L258.1,129.3L254.8,129.3L255.1,122.6L254.8,116.0L218.6,115.9Z"/>
    <path class="wtc-county" id="wtc-county-winnebago" data-county="Winnebago" d="M255.1,50.1L255.1,68.9L291.6,68.9L291.6,50.1L280.0,50.1L255.1,50.1Z"/>
    <path class="wtc-county" id="wtc-county-winneshiek" data-county="Winneshiek" d="M400.5,72.2L400.5,82.2L437.2,82.3L436.7,62.2L436.7,50.1L427.6,50.0L400.7,50.0L400.5,72.2Z"/>
    <path class="wtc-county" id="wtc-county-woodbury" data-county="Woodbury" d="M60.2,122.4L61.9,122.8L60.8,125.7L64.4,127.8L68.2,128.3L69.3,131.2L66.9,134.1L66.9,139.2L69.9,141.1L71.3,144.3L73.8,147.9L71.3,149.0L124.1,149.3L124.4,129.1L118.5,129.0L118.5,122.4L109.4,122.4L60.2,122.4Z"/>
    <path class="wtc-county" id="wtc-county-worth" data-county="Worth" d="M291.6,50.1L291.6,68.9L327.8,68.9L327.8,50.1L325.8,50.1L291.6,50.1Z"/>
    <path class="wtc-county" id="wtc-county-wright" data-county="Wright" d="M254.8,116.0L255.1,122.6L291.3,122.6L291.3,95.6L255.1,95.7L254.8,116.0Z"/>
  </g>
</svg>