<?xml version="1.0" encoding="UTF-8"?>
<svg xmlns="http://www.w3.org/2000/svg" viewBox="0 0 474 600" id="wtc-state-map-AL" role="img" aria-label="al county map">
  <title>al Counties</title>
  <g class="wtc-counties">
    <path class="wtc-county" id="wtc-county-autauga" data-county="Autauga" d="M212.7,294.9L214.6,305.0L213.9,308.2L218.7,317.2L222.5,319.9L220.2,322.5L223.2,325.5L223.2,328.7L225.1,332.1L227.7,328.7L227.4,323.1L233.4,322.2L234.1,326.6L237.1,327.4L240.1,322.8L243.9,321.9L244.2,325.2L251.7,326.3L252.9,328.9L256.6,328.3L260.4,324.8L260.7,321.9L265.6,321.5L265.2,290.4L233.7,290.5L234.1,295.2L212.7,294.9Z"/>
    <path class="wtc-county" id="wtc-county-baldwin" data-county="Baldwin" d="M98.7,501.7L106.2,504.6L108.9,508.9L110.0,515.7L106.6,522.4L109.2,530.4L116.7,534.7L119.4,538.5L125.0,542.8L123.9,545.9L110.7,548.3L106.2,546.0L99.5,549.6L120.5,549.3L135.5,547.1L149.7,544.0L155.4,541.7L152.7,539.5L156.1,538.2L159.1,530.8L165.9,527.7L158.4,523.1L157.2,518.1L162.9,509.0L161.7,502.8L148.2,495.6L147.1,491.9L138.5,484.8L137.7,482.8L142.6,472.5L141.5,469.0L139.6,469.0L139.6,443.2L133.2,441.4L129.1,437.1L124.2,437.7L119.4,436.7L122.0,439.2L117.5,440.0L113.4,446.2L108.5,449.2L105.1,448.6L105.9,451.7L102.5,451.8L105.9,453.4L102.1,459.4L105.9,463.7L103.2,467.9L103.2,472.1L107.4,475.5L101.4,480.6L101.7,483.2L105.5,486.8L101.0,488.4L96.9,494.5L98.7,501.7Z"/>
    <path class="wtc-county" id="wtc-county-barbour" data-county="Barbour" d="M344.4,376.8L342.1,379.3L343.6,386.9L340.2,390.6L338.0,395.8L338.4,399.8L335.0,404.2L369.5,404.1L369.5,394.9L390.5,395.4L391.6,391.2L397.6,388.0L399.9,389.1L399.9,387.3L398.4,381.1L399.5,377.1L404.7,370.6L406.6,365.3L407.7,357.8L393.5,357.8L386.0,348.9L370.2,349.0L368.4,349.8L368.4,362.7L359.4,362.9L359.4,364.3L351.1,364.9L350.0,368.3L345.1,373.6L344.4,376.8Z"/>
    <path class="wtc-county" id="wtc-county-bibb" data-county="Bibb" d="M159.9,259.5L159.9,272.9L170.7,272.9L170.7,277.4L201.9,276.9L216.9,276.9L216.5,254.6L210.9,253.1L207.1,249.5L207.1,243.3L201.5,242.5L201.1,234.1L197.4,234.0L193.2,236.7L188.0,235.5L183.1,239.3L183.1,246.2L174.5,245.9L171.5,250.0L170.7,259.2L159.9,259.5Z"/>
    <path class="wtc-county" id="wtc-county-blount" data-county="Blount" d="M207.9,170.2L209.0,174.7L216.1,171.7L229.2,172.0L240.9,179.8L248.0,179.9L248.4,176.0L266.0,172.5L272.7,167.2L274.6,161.6L269.7,161.6L273.9,156.8L273.9,151.1L276.9,145.0L265.6,133.9L261.1,128.3L254.4,129.0L245.7,142.9L240.1,144.1L238.6,146.5L234.9,146.8L235.2,151.2L225.9,160.3L222.9,159.8L216.1,164.0L212.0,164.8L212.4,168.6L207.9,170.2Z"/>
    <path class="wtc-county" id="wtc-county-bullock" data-county="Bullock" d="M317.0,335.6L309.9,335.9L308.7,338.1L308.7,358.9L319.6,359.4L320.7,367.7L330.5,367.7L330.5,376.8L344.4,376.8L345.1,373.6L350.0,368.3L351.1,364.9L359.4,364.3L359.4,362.9L368.4,362.7L368.4,349.8L370.2,349.0L368.4,349.0L367.6,339.8L323.4,340.1L321.1,333.9L317.0,335.6Z"/>
    <path class="wtc-county" id="wtc-county-butler" data-county="Butler" d="M219.1,368.3L213.5,368.3L213.9,382.0L213.9,390.1L213.9,402.7L218.0,411.7L221.0,413.9L235.2,414.0L256.2,413.8L256.2,400.3L261.5,400.3L261.9,395.5L261.9,368.0L219.1,368.3Z"/>
    <path class="wtc-county" id="wtc-county-calhoun" data-county="Calhoun" d="M301.6,171.8L303.9,180.1L293.4,185.7L293.4,188.8L303.5,189.5L305.7,192.3L306.1,197.0L309.1,198.5L330.1,198.6L329.7,201.7L335.4,201.8L335.4,197.1L344.4,194.3L346.2,192.1L346.2,179.1L351.9,176.0L351.9,171.4L346.6,171.3L346.6,168.4L350.0,166.9L357.5,166.9L357.5,161.5L357.9,159.9L335.7,158.6L335.7,162.1L324.5,159.9L318.9,161.3L318.9,165.1L311.7,164.3L309.1,169.5L301.6,171.8Z"/>
    <path class="wtc-county" id="wtc-county-chambers" data-county="Chambers" d="M351.1,248.6L351.1,288.2L382.2,287.9L383.4,286.4L399.5,285.8L400.2,283.5L395.4,279.5L396.9,276.3L393.5,273.4L388.6,248.5L351.1,248.6Z"/>
    <path class="wtc-county" id="wtc-county-cherokee" data-county="Cherokee" d="M359.4,100.6L352.6,104.8L352.6,109.4L346.6,117.0L342.5,119.5L328.6,130.3L324.9,129.8L324.9,134.5L325.2,143.8L330.5,142.3L329.7,144.9L336.1,156.4L335.7,158.6L357.9,159.9L357.5,161.5L361.2,159.9L371.4,159.1L369.1,146.9L364.6,125.4L359.4,100.6Z"/>
    <path class="wtc-county" id="wtc-county-chilton" data-county="Chilton" d="M201.9,276.9L202.2,288.1L202.2,295.0L212.7,294.9L234.1,295.2L233.7,290.5L265.2,290.4L265.2,285.9L269.4,285.6L260.7,279.2L261.5,274.0L258.5,272.9L254.7,267.2L254.4,257.7L250.6,257.9L244.6,252.5L222.5,252.7L216.5,252.3L216.5,254.6L216.9,276.9L201.9,276.9Z"/>
    <path class="wtc-county" id="wtc-county-choctaw" data-county="Choctaw" d="M50.0,375.3L51.1,395.8L90.5,395.7L88.6,389.3L84.5,390.2L80.7,383.0L84.9,378.5L86.0,374.3L90.5,372.5L86.7,369.5L92.4,368.6L92.0,365.3L87.5,362.5L87.1,358.7L92.4,357.8L95.0,355.7L95.7,349.1L98.7,344.9L97.6,334.5L107.0,331.8L55.6,332.1L54.5,340.5L50.0,375.3Z"/>
    <path class="wtc-county" id="wtc-county-clarke" data-county="Clarke" d="M92.0,365.3L92.4,368.6L86.7,369.5L90.5,372.5L86.0,374.3L84.9,378.5L80.7,383.0L84.5,390.2L88.6,389.3L90.5,395.7L90.1,399.9L92.0,406.7L97.6,411.1L106.2,414.2L109.2,417.4L108.9,424.4L105.5,429.6L110.4,428.9L109.2,435.0L103.6,435.7L104.4,440.8L101.0,441.7L105.5,443.3L105.1,448.6L108.5,449.2L113.4,446.2L117.5,440.0L122.0,439.2L119.4,436.7L124.2,437.7L122.0,434.4L125.4,430.9L128.4,432.9L130.2,426.9L137.4,424.3L138.9,425.9L143.7,423.6L145.2,418.9L139.2,415.0L144.9,411.0L144.9,395.9L150.1,395.9L149.7,383.7L151.6,382.2L139.2,382.3L139.2,377.9L134.4,377.1L134.4,365.2L92.0,365.3Z"/>
    <path class="wtc-county" id="wtc-county-clay" data-county="Clay" d="M324.1,207.7L318.5,207.7L318.5,212.4L316.6,212.4L316.6,218.5L311.0,219.9L310.6,229.1L296.4,228.9L296.0,239.5L290.4,239.4L290.4,248.9L307.6,248.9L307.6,250.4L311.0,248.8L344.7,248.7L345.1,225.9L345.9,208.1L333.1,207.7L331.2,210.7L322.2,210.0L324.1,207.7Z"/>
    <path class="wtc-county" id="wtc-county-cleburne" data-county="Cleburne" d="M324.1,207.7L322.2,210.0L331.2,210.7L333.1,207.7L345.9,208.1L376.2,208.4L381.1,209.4L377.7,191.6L372.5,165.6L371.4,159.1L361.2,159.9L357.5,161.5L357.5,166.9L350.0,166.9L346.6,168.4L346.6,171.3L351.9,171.4L351.9,176.0L346.2,179.1L346.2,192.1L344.4,194.3L335.4,197.1L335.4,201.8L329.7,201.7L324.1,207.7Z"/>
    <path class="wtc-county" id="wtc-county-coffee" data-county="Coffee" d="M288.1,422.8L288.5,448.7L330.5,448.2L330.5,404.2L293.4,404.2L293.4,412.6L288.1,413.4L288.1,422.8Z"/>
    <path class="wtc-county" id="wtc-county-colbert" data-county="Colbert" d="M89.4,62.1L84.9,94.6L148.6,96.1L152.0,89.9L157.6,86.3L156.9,82.6L159.5,81.2L160.6,75.1L159.5,71.7L149.4,68.4L143.0,69.7L140.0,71.9L130.2,74.6L127.6,77.5L119.7,78.9L116.7,77.9L107.7,71.3L104.7,64.7L95.4,60.6L89.4,62.1Z"/>
    <path class="wtc-county" id="wtc-county-conecuh" data-county="Conecuh" d="M213.9,390.1L205.2,393.7L198.9,393.7L198.1,398.0L189.9,401.7L186.5,414.5L182.4,420.8L180.1,421.3L173.0,426.9L166.6,435.6L162.9,437.4L159.5,441.6L228.5,441.5L228.5,449.7L235.2,448.7L235.2,432.7L239.0,430.2L237.9,423.2L235.2,423.2L235.2,414.0L221.0,413.9L218.0,411.7L213.9,402.7L213.9,390.1Z"/>
    <path class="wtc-county" id="wtc-county-coosa" data-county="Coosa" d="M254.4,257.7L254.7,267.2L258.5,272.9L261.5,274.0L260.7,279.2L269.4,285.6L307.6,285.4L307.6,250.4L307.6,248.9L290.4,248.9L257.4,249.1L255.1,250.6L254.4,257.7Z"/>
    <path class="wtc-county" id="wtc-county-covington" data-county="Covington" d="M235.2,414.0L235.2,423.2L237.9,423.2L239.0,430.2L235.2,432.7L235.2,448.7L235.2,468.7L236.7,469.3L267.9,469.4L288.9,469.4L288.5,448.7L288.1,422.8L281.0,422.6L279.5,421.2L279.1,413.6L273.1,417.9L270.5,417.9L267.1,421.7L266.7,413.7L256.2,413.8L235.2,414.0Z"/>
    <path class="wtc-county" id="wtc-county-crenshaw" data-county="Crenshaw" d="M261.9,368.0L261.9,395.5L261.5,400.3L256.2,400.3L256.2,413.8L266.7,413.7L267.1,421.7L270.5,417.9L273.1,417.9L279.1,413.6L279.5,421.2L281.0,422.6L288.1,422.8L288.1,413.4L293.4,412.6L293.4,404.2L289.6,404.3L293.0,399.5L293.0,386.1L287.7,386.2L289.2,381.8L290.4,371.6L288.5,367.8L276.9,368.0L276.9,359.0L266.0,359.0L266.4,368.1L261.9,368.0Z"/>
    <path class="wtc-county" id="wtc-county-cullman" data-county="Cullman" d="M188.4,156.1L192.5,159.6L195.5,165.1L194.4,166.9L203.4,166.9L203.4,169.4L207.9,170.2L212.4,168.6L212.0,164.8L216.1,164.0L222.9,159.8L225.9,160.3L235.2,151.2L234.9,146.8L238.6,146.5L240.1,144.1L245.7,142.9L254.4,129.0L261.1,128.3L258.5,123.7L247.6,123.5L192.5,122.5L192.5,124.0L192.5,156.2L188.4,156.1Z"/>
    <path class="wtc-county" id="wtc-county-dale" data-county="Dale" d="M330.5,404.2L330.5,448.2L338.7,448.4L343.6,440.7L350.0,440.3L362.4,443.0L362.4,438.8L369.5,438.9L369.5,435.8L369.5,404.1L335.0,404.2L330.5,404.2Z"/>
    <path class="wtc-county" id="wtc-county-dallas" data-county="Dallas" d="M154.6,332.2L154.6,336.6L157.6,336.2L163.2,339.3L165.9,343.7L170.0,343.5L174.9,349.2L176.7,349.0L179.7,353.7L184.2,355.3L185.4,359.4L213.9,359.3L213.5,340.8L224.0,340.8L219.1,337.5L218.7,334.6L222.1,332.4L219.9,329.9L223.2,328.7L223.2,325.5L220.2,322.5L222.5,319.9L218.7,317.2L213.9,308.2L214.6,305.0L212.7,294.9L202.2,295.0L202.2,288.1L198.9,299.4L199.6,301.7L195.5,304.7L195.5,308.2L192.1,313.2L159.9,313.9L159.9,332.1L154.6,332.2Z"/>
    <path class="wtc-county" id="wtc-county-dekalb" data-county="DeKalb" d="M302.4,105.6L297.1,110.7L297.5,134.4L324.9,134.5L324.9,129.8L328.6,130.3L342.5,119.5L346.6,117.0L352.6,109.4L352.6,104.8L359.4,100.6L357.9,93.8L357.1,90.2L352.2,65.4L347.4,68.4L344.0,76.5L340.6,77.6L330.9,90.1L308.0,105.2L302.4,105.6Z"/>
    <path class="wtc-county" id="wtc-county-elmore" data-county="Elmore" d="M269.4,285.6L265.2,285.9L265.2,290.4L265.6,321.5L266.7,319.7L272.4,319.1L276.1,321.3L274.6,318.0L281.0,311.9L286.2,314.7L288.5,318.7L295.2,319.0L303.9,321.9L306.1,320.4L311.4,316.9L319.6,317.5L321.9,314.8L320.4,312.8L319.6,301.3L320.4,296.6L317.7,293.5L321.1,285.5L307.6,285.4L269.4,285.6Z"/>
    <path class="wtc-county" id="wtc-county-escambia" data-county="Escambia" d="M139.6,443.2L139.6,469.0L141.5,469.0L186.9,468.9L226.6,469.0L236.7,469.3L235.2,468.7L235.2,448.7L228.5,449.7L228.5,441.5L159.5,441.6L153.1,441.6L145.6,445.0L139.6,443.2Z"/>
    <path class="wtc-county" id="wtc-county-etowah" data-county="Etowah" d="M276.9,145.0L273.9,151.1L273.9,156.8L269.7,161.6L274.6,161.6L279.5,156.4L282.1,159.0L287.7,156.5L291.1,159.0L291.1,163.0L293.7,165.9L296.7,165.4L298.6,169.8L301.6,171.8L309.1,169.5L311.7,164.3L318.9,165.1L318.9,161.3L324.5,159.9L335.7,162.1L335.7,158.6L336.1,156.4L329.7,144.9L330.5,142.3L325.2,143.8L324.9,134.5L297.5,134.4L297.5,135.9L288.9,136.3L276.9,145.0Z"/>
    <path class="wtc-county" id="wtc-county-fayette" data-county="Fayette" d="M104.7,163.7L105.1,205.1L116.4,205.0L134.4,205.4L134.4,199.3L138.1,199.2L138.1,196.1L159.9,196.9L159.9,187.9L149.0,187.5L148.6,169.2L137.7,168.7L137.7,164.2L104.7,163.7Z"/>
    <path class="wtc-county" id="wtc-county-franklin" data-county="Franklin" d="M83.4,107.0L81.5,121.8L109.2,122.7L137.7,123.2L148.6,123.5L148.6,96.1L84.9,94.6L83.4,107.0Z"/>
    <path class="wtc-county" id="wtc-county-geneva" data-county="Geneva" d="M288.5,448.7L288.9,469.4L305.0,469.5L360.9,469.1L362.0,469.0L362.4,447.9L338.7,448.4L330.5,448.2L288.5,448.7Z"/>
    <path class="wtc-county" id="wtc-county-greene" data-county="Greene" d="M81.5,260.3L81.1,266.9L77.7,267.6L80.7,273.2L83.4,275.2L81.1,277.7L85.6,277.2L88.6,280.8L92.0,280.2L91.6,283.4L88.2,283.7L90.5,290.2L87.5,291.1L91.2,292.9L93.9,291.5L93.5,297.1L91.2,299.6L93.9,302.4L102.1,300.5L107.0,298.2L109.6,300.0L114.5,299.4L114.1,302.6L110.4,302.4L114.9,308.7L119.0,309.5L121.6,303.5L127.2,302.8L125.7,300.3L120.5,300.5L119.0,298.1L125.4,298.1L126.5,296.2L121.6,295.9L120.9,289.5L117.1,289.8L119.7,285.7L113.0,284.6L118.2,281.3L117.1,276.4L120.1,270.5L124.6,269.5L123.1,267.4L126.9,266.4L129.1,259.1L129.9,258.0L117.1,258.0L116.4,243.8L106.6,248.0L102.9,251.7L96.9,253.2L95.0,256.4L84.1,255.8L81.5,260.3Z"/>
    <path class="wtc-county" id="wtc-county-hale" data-county="Hale" d="M129.1,259.1L126.9,266.4L123.1,267.4L124.6,269.5L120.1,270.5L117.1,276.4L118.2,281.3L113.0,284.6L119.7,285.7L117.1,289.8L120.9,289.5L121.6,295.9L126.5,296.2L125.4,298.1L119.0,298.1L120.5,300.5L125.7,300.3L127.2,302.8L121.6,303.5L119.0,309.5L128.0,309.5L128.0,314.0L149.4,314.0L149.4,295.8L154.6,295.7L154.6,277.5L159.9,277.5L159.9,272.9L159.9,259.5L129.1,259.1Z"/>
    <path class="wtc-county" id="wtc-county-henry" data-county="Henry" d="M369.5,404.1L369.5,435.8L394.2,436.6L403.6,436.6L403.2,430.9L406.2,423.7L405.5,419.9L408.1,414.7L407.0,404.0L399.9,396.2L399.9,389.1L397.6,388.0L391.6,391.2L390.5,395.4L369.5,394.9L369.5,404.1Z"/>
    <path class="wtc-county" id="wtc-county-houston" data-county="Houston" d="M369.5,435.8L369.5,438.9L362.4,438.8L362.4,443.0L350.0,440.3L343.6,440.7L338.7,448.4L362.4,447.9L362.0,469.0L412.6,468.7L410.4,460.9L409.2,457.5L401.7,449.3L402.9,444.5L401.0,439.9L403.6,436.6L394.2,436.6L369.5,435.8Z"/>
    <path class="wtc-county" id="wtc-county-jackson" data-county="Jackson" d="M276.1,51.8L281.4,56.6L277.6,56.6L272.0,64.1L274.2,68.5L272.7,70.0L273.1,75.7L271.2,78.5L270.9,89.2L274.2,92.7L293.0,92.7L293.0,100.9L298.2,100.8L299.4,106.6L302.4,105.6L308.0,105.2L330.9,90.1L340.6,77.6L344.0,76.5L347.4,68.4L352.2,65.4L349.6,52.5L322.6,52.1L276.1,51.8Z"/>
    <path class="wtc-county" id="wtc-county-jefferson" data-county="Jefferson" d="M176.0,206.3L174.1,209.0L169.6,208.4L168.9,212.2L174.5,213.8L179.7,218.6L179.7,221.6L183.5,222.4L187.2,227.8L197.4,231.0L197.4,234.0L201.1,234.1L206.0,234.1L207.1,231.8L216.5,225.1L221.7,225.1L221.7,222.1L227.4,221.5L230.0,216.4L233.4,216.3L238.6,211.1L245.4,211.0L249.9,205.7L254.4,205.1L254.4,202.8L251.0,201.2L251.0,195.0L253.6,191.3L253.6,184.4L251.7,179.9L248.0,179.9L240.9,179.8L229.2,172.0L216.1,171.7L209.0,174.7L207.1,177.6L201.5,179.1L200.0,188.0L198.1,191.3L194.4,191.2L194.4,194.2L185.4,195.7L182.7,199.3L184.6,201.8L176.0,206.3Z"/>
    <path class="wtc-county" id="wtc-county-lamar" data-county="Lamar" d="M73.6,182.0L71.0,204.0L105.1,205.1L104.7,163.7L104.7,153.0L101.0,152.9L101.0,149.9L77.7,149.3L73.6,182.0Z"/>
    <path class="wtc-county" id="wtc-county-lauderdale" data-county="Lauderdale" d="M101.0,50.3L78.5,50.0L78.5,51.3L83.4,59.0L89.4,62.1L95.4,60.6L104.7,64.7L107.7,71.3L116.7,77.9L119.7,78.9L127.6,77.5L130.2,74.6L140.0,71.9L143.0,69.7L149.4,68.4L159.5,71.7L168.1,72.2L173.0,76.9L176.7,76.1L174.9,74.5L181.6,70.1L182.0,51.0L180.5,50.9L140.7,50.4L101.0,50.3Z"/>
    <path class="wtc-county" id="wtc-county-lawrence" data-county="Lawrence" d="M148.6,96.1L148.6,123.5L192.5,124.0L192.5,122.5L193.2,83.7L189.5,79.7L180.9,75.6L176.7,76.1L173.0,76.9L168.1,72.2L159.5,71.7L160.6,75.1L159.5,81.2L156.9,82.6L157.6,86.3L152.0,89.9L148.6,96.1Z"/>
    <path class="wtc-county" id="wtc-county-lee" data-county="Lee" d="M351.1,288.2L349.2,289.7L342.1,289.8L340.2,291.4L340.2,302.0L344.0,305.0L362.0,312.3L367.2,312.3L367.6,321.5L378.5,321.4L378.1,315.3L407.0,314.9L406.6,311.3L412.6,311.0L410.7,307.6L404.4,300.8L402.1,296.9L399.5,285.8L383.4,286.4L382.2,287.9L351.1,288.2Z"/>
    <path class="wtc-county" id="wtc-county-limestone" data-county="Limestone" d="M182.0,51.0L181.6,70.1L174.9,74.5L176.7,76.1L180.9,75.6L189.5,79.7L193.2,83.7L213.9,94.8L225.9,97.8L226.6,71.5L226.6,51.7L221.0,51.7L182.0,51.0Z"/>
    <path class="wtc-county" id="wtc-county-lowndes" data-county="Lowndes" d="M223.2,328.7L219.9,329.9L222.1,332.4L218.7,334.6L219.1,337.5L224.0,340.8L213.5,340.8L213.9,359.3L219.1,359.3L219.1,368.3L261.9,368.0L266.4,368.1L266.0,359.0L266.0,338.7L257.7,334.6L258.9,329.7L256.6,328.3L252.9,328.9L251.7,326.3L244.2,325.2L243.9,321.9L240.1,322.8L237.1,327.4L234.1,326.6L233.4,322.2L227.4,323.1L227.7,328.7L225.1,332.1L223.2,328.7Z"/>
    <path class="wtc-county" id="wtc-county-macon" data-county="Macon" d="M306.1,320.4L309.5,329.2L317.0,335.6L321.1,333.9L323.4,340.1L367.6,339.8L367.6,321.5L367.2,312.3L362.0,312.3L344.0,305.0L340.2,302.0L338.4,303.5L329.7,303.5L329.7,312.7L320.4,312.8L321.9,314.8L319.6,317.5L311.4,316.9L306.1,320.4Z"/>
    <path class="wtc-county" id="wtc-county-madison" data-county="Madison" d="M226.6,51.7L226.6,71.5L225.9,97.8L230.0,97.3L233.0,94.4L237.9,95.0L239.0,97.7L244.2,95.1L249.1,95.2L251.0,98.3L252.9,103.0L259.6,105.6L264.1,105.2L267.5,101.2L273.1,102.1L276.9,94.8L274.2,92.7L270.9,89.2L271.2,78.5L273.1,75.7L272.7,70.0L274.2,68.5L272.0,64.1L277.6,56.6L281.4,56.6L276.1,51.8L275.4,51.8L226.6,51.7Z"/>
    <path class="wtc-county" id="wtc-county-marengo" data-county="Marengo" d="M107.0,331.8L97.6,334.5L98.7,344.9L95.7,349.1L95.0,355.7L92.4,357.8L87.1,358.7L87.5,362.5L92.0,365.3L134.4,365.2L138.9,363.7L138.9,350.5L149.4,350.4L149.4,337.7L154.6,336.6L154.6,332.2L149.4,332.2L149.4,314.0L128.0,314.0L128.0,309.5L119.0,309.5L114.9,308.7L114.9,310.5L108.5,310.2L104.4,314.9L96.1,319.0L94.6,324.9L102.5,328.3L107.0,331.8Z"/>
    <path class="wtc-county" id="wtc-county-marion" data-county="Marion" d="M78.1,146.3L77.7,149.3L101.0,149.9L101.0,152.9L104.7,153.0L104.7,163.7L137.7,164.2L137.7,155.1L137.7,123.2L109.2,122.7L81.5,121.8L78.1,146.3Z"/>
    <path class="wtc-county" id="wtc-county-marshall" data-county="Marshall" d="M251.0,98.3L247.6,116.6L247.6,123.5L258.5,123.7L261.1,128.3L265.6,133.9L276.9,145.0L288.9,136.3L297.5,135.9L297.5,134.4L297.1,110.7L302.4,105.6L299.4,106.6L298.2,100.8L293.0,100.9L293.0,92.7L274.2,92.7L276.9,94.8L273.1,102.1L267.5,101.2L264.1,105.2L259.6,105.6L252.9,103.0L251.0,98.3Z"/>
    <path class="wtc-county" id="wtc-county-mobile" data-county="Mobile" d="M65.0,548.7L70.2,550.0L77.7,548.5L84.5,548.3L88.2,549.7L91.6,547.2L86.4,543.6L86.0,545.9L65.0,548.7ZM54.5,456.8L55.2,469.0L56.4,496.4L58.2,534.7L65.0,532.7L66.9,534.7L72.5,533.3L80.0,536.9L79.6,540.1L85.2,539.8L88.2,533.8L88.6,520.9L90.9,518.0L90.5,514.4L93.9,509.3L93.1,505.8L98.7,501.7L96.9,494.5L101.0,488.4L105.5,486.8L101.7,483.2L101.4,480.6L107.4,475.5L103.2,472.1L103.2,467.9L105.9,463.7L102.1,459.4L105.9,453.4L102.5,451.8L100.6,450.6L96.9,453.7L65.0,453.8L65.0,456.8L54.5,456.8Z"/>
    <path class="wtc-county" id="wtc-county-monroe" data-county="Monroe" d="M151.6,382.2L149.7,383.7L150.1,395.9L144.9,395.9L144.9,411.0L139.2,415.0L145.2,418.9L143.7,423.6L138.9,425.9L137.4,424.3L130.2,426.9L128.4,432.9L125.4,430.9L122.0,434.4L124.2,437.7L129.1,437.1L133.2,441.4L139.6,443.2L145.6,445.0L153.1,441.6L159.5,441.6L162.9,437.4L166.6,435.6L173.0,426.9L180.1,421.3L182.4,420.8L186.5,414.5L189.9,401.7L198.1,398.0L198.9,393.7L205.2,393.7L213.9,390.1L213.9,382.0L181.6,382.3L178.6,381.9L151.6,382.2Z"/>
    <path class="wtc-county" id="wtc-county-montgomery" data-county="Montgomery" d="M265.6,321.5L260.7,321.9L260.4,324.8L256.6,328.3L258.9,329.7L257.7,334.6L266.0,338.7L266.0,359.0L276.9,359.0L276.9,368.0L288.5,367.8L309.1,367.7L308.7,358.9L308.7,338.1L309.9,335.9L317.0,335.6L309.5,329.2L306.1,320.4L303.9,321.9L295.2,319.0L288.5,318.7L286.2,314.7L281.0,311.9L274.6,318.0L276.1,321.3L272.4,319.1L266.7,319.7L265.6,321.5Z"/>
    <path class="wtc-county" id="wtc-county-morgan" data-county="Morgan" d="M193.2,83.7L192.5,122.5L247.6,123.5L247.6,116.6L251.0,98.3L249.1,95.2L244.2,95.1L239.0,97.7L237.9,95.0L233.0,94.4L230.0,97.3L225.9,97.8L213.9,94.8L193.2,83.7Z"/>
    <path class="wtc-county" id="wtc-county-perry" data-county="Perry" d="M159.9,272.9L159.9,277.5L154.6,277.5L154.6,295.7L149.4,295.8L149.4,314.0L149.4,332.2L154.6,332.2L159.9,332.1L159.9,313.9L192.1,313.2L195.5,308.2L195.5,304.7L199.6,301.7L198.9,299.4L202.2,288.1L201.9,276.9L170.7,277.4L170.7,272.9L159.9,272.9Z"/>
    <path class="wtc-county" id="wtc-county-pickens" data-county="Pickens" d="M67.6,229.7L63.9,260.7L81.5,260.3L84.1,255.8L95.0,256.4L96.9,253.2L102.9,251.7L106.6,248.0L116.4,243.8L116.4,205.0L105.1,205.1L71.0,204.0L67.6,229.7Z"/>
    <path class="wtc-county" id="wtc-county-pike" data-county="Pike" d="M288.5,367.8L290.4,371.6L289.2,381.8L287.7,386.2L293.0,386.1L293.0,399.5L289.6,404.3L293.4,404.2L330.5,404.2L335.0,404.2L338.4,399.8L338.0,395.8L340.2,390.6L343.6,386.9L342.1,379.3L344.4,376.8L330.5,376.8L330.5,367.7L320.7,367.7L319.6,359.4L308.7,358.9L309.1,367.7L288.5,367.8Z"/>
    <path class="wtc-county" id="wtc-county-randolph" data-county="Randolph" d="M345.9,208.1L345.1,225.9L344.7,248.7L351.1,248.6L388.6,248.5L388.2,246.3L382.2,215.1L381.1,209.4L376.2,208.4L345.9,208.1Z"/>
    <path class="wtc-county" id="wtc-county-russell" data-county="Russell" d="M367.6,321.5L367.6,339.8L368.4,349.0L370.2,349.0L386.0,348.9L393.5,357.8L407.7,357.8L407.0,350.1L411.9,345.5L417.1,343.6L416.4,341.4L421.2,340.2L424.2,336.8L419.7,333.2L413.0,330.6L414.9,324.8L416.7,320.1L413.4,316.9L412.6,311.0L406.6,311.3L407.0,314.9L378.1,315.3L378.5,321.4L367.6,321.5Z"/>
    <path class="wtc-county" id="wtc-county-st-clair" data-county="St. Clair" d="M274.6,161.6L272.7,167.2L266.0,172.5L248.4,176.0L248.0,179.9L251.7,179.9L253.6,184.4L253.6,191.3L251.0,195.0L251.0,201.2L254.4,202.8L258.1,202.8L258.1,207.3L269.0,207.3L269.0,219.0L276.1,212.5L279.1,206.4L284.0,208.1L288.5,203.0L285.5,198.4L289.2,197.8L290.4,190.9L287.0,187.8L293.4,188.8L293.4,185.7L303.9,180.1L301.6,171.8L298.6,169.8L296.7,165.4L293.7,165.9L291.1,163.0L291.1,159.0L287.7,156.5L282.1,159.0L279.5,156.4L274.6,161.6Z"/>
    <path class="wtc-county" id="wtc-county-shelby" data-county="Shelby" d="M201.1,234.1L201.5,242.5L207.1,243.3L207.1,249.5L210.9,253.1L216.5,254.6L216.5,252.3L222.5,252.7L244.6,252.5L250.6,257.9L254.4,257.7L255.1,250.6L257.4,249.1L260.4,246.7L255.9,241.1L260.4,238.7L259.6,236.3L263.7,233.7L263.4,230.3L267.5,231.0L271.2,229.0L270.1,224.7L272.7,222.9L269.0,219.0L269.0,207.3L258.1,207.3L258.1,202.8L254.4,202.8L254.4,205.1L249.9,205.7L245.4,211.0L238.6,211.1L233.4,216.3L230.0,216.4L227.4,221.5L221.7,222.1L221.7,225.1L216.5,225.1L207.1,231.8L206.0,234.1L201.1,234.1Z"/>
    <path class="wtc-county" id="wtc-county-sumter" data-county="Sumter" d="M59.0,303.9L55.6,332.1L107.0,331.8L102.5,328.3L94.6,324.9L96.1,319.0L104.4,314.9L108.5,310.2L114.9,310.5L114.9,308.7L110.4,302.4L114.1,302.6L114.5,299.4L109.6,300.0L107.0,298.2L102.1,300.5L93.9,302.4L91.2,299.6L93.5,297.1L93.9,291.5L91.2,292.9L87.5,291.1L90.5,290.2L88.2,283.7L91.6,283.4L92.0,280.2L88.6,280.8L85.6,277.2L81.1,277.7L83.4,275.2L80.7,273.2L77.7,267.6L81.1,266.9L81.5,260.3L63.9,260.7L63.1,267.2L61.2,286.2L59.0,303.9Z"/>
    <path class="wtc-county" id="wtc-county-talladega" data-county="Talladega" d="M269.0,219.0L272.7,222.9L270.1,224.7L271.2,229.0L267.5,231.0L263.4,230.3L263.7,233.7L259.6,236.3L260.4,238.7L255.9,241.1L260.4,246.7L257.4,249.1L290.4,248.9L290.4,239.4L296.0,239.5L296.4,228.9L310.6,229.1L311.0,219.9L316.6,218.5L316.6,212.4L318.5,212.4L318.5,207.7L324.1,207.7L329.7,201.7L330.1,198.6L309.1,198.5L306.1,197.0L305.7,192.3L303.5,189.5L293.4,188.8L287.0,187.8L290.4,190.9L289.2,197.8L285.5,198.4L288.5,203.0L284.0,208.1L279.1,206.4L276.1,212.5L269.0,219.0Z"/>
    <path class="wtc-county" id="wtc-county-tallapoosa" data-county="Tallapoosa" d="M307.6,250.4L307.6,285.4L321.1,285.5L317.7,293.5L320.4,296.6L319.6,301.3L320.4,312.8L329.7,312.7L329.7,303.5L338.4,303.5L340.2,302.0L340.2,291.4L342.1,289.8L349.2,289.7L351.1,288.2L351.1,248.6L344.7,248.7L311.0,248.8L307.6,250.4Z"/>
    <path class="wtc-county" id="wtc-county-tuscaloosa" data-county="Tuscaloosa" d="M116.4,205.0L116.4,243.8L117.1,258.0L129.9,258.0L129.1,259.1L159.9,259.5L170.7,259.2L171.5,250.0L174.5,245.9L183.1,246.2L183.1,239.3L188.0,235.5L193.2,236.7L197.4,234.0L197.4,231.0L187.2,227.8L183.5,222.4L179.7,221.6L179.7,218.6L174.5,213.8L168.9,212.2L169.6,208.4L174.1,209.0L176.0,206.3L170.7,206.1L170.7,198.4L159.9,196.9L138.1,196.1L138.1,199.2L134.4,199.3L134.4,205.4L116.4,205.0Z"/>
    <path class="wtc-county" id="wtc-county-walker" data-county="Walker" d="M137.7,155.1L137.7,164.2L137.7,168.7L148.6,169.2L149.0,187.5L159.9,187.9L159.9,196.9L170.7,198.4L170.7,206.1L176.0,206.3L184.6,201.8L182.7,199.3L185.4,195.7L194.4,194.2L194.4,191.2L198.1,191.3L200.0,188.0L201.5,179.1L207.1,177.6L209.0,174.7L207.9,170.2L203.4,169.4L203.4,166.9L194.4,166.9L195.5,165.1L192.5,159.6L188.4,156.1L152.0,155.7L137.7,155.1Z"/>
    <path class="wtc-county" id="wtc-county-washington" data-county="Washington" d="M51.1,395.8L52.6,423.3L54.5,456.8L65.0,456.8L65.0,453.8L96.9,453.7L100.6,450.6L102.5,451.8L105.9,451.7L105.1,448.6L105.5,443.3L101.0,441.7L104.4,440.8L103.6,435.7L109.2,435.0L110.4,428.9L105.5,429.6L108.9,424.4L109.2,417.4L106.2,414.2L97.6,411.1L92.0,406.7L90.1,399.9L90.5,395.7L51.1,395.8Z"/>
    <path class="wtc-county" id="wtc-county-wilcox" data-county="Wilcox" d="M134.4,365.2L134.4,377.1L139.2,377.9L139.2,382.3L151.6,382.2L178.6,381.9L181.6,382.3L213.9,382.0L213.5,368.3L219.1,368.3L219.1,359.3L213.9,359.3L185.4,359.4L184.2,355.3L179.7,353.7L176.7,349.0L174.9,349.2L170.0,343.5L165.9,343.7L163.2,339.3L157.6,336.2L154.6,336.6L149.4,337.7L149.4,350.4L138.9,350.5L138.9,363.7L134.4,365.2Z"/>
    <path class="wtc-county" id="wtc-county-winston" data-county="Winston" d="M137.7,123.2L137.7,155.1L152.0,155.7L188.4,156.1L192.5,156.2L192.5,124.0L148.6,123.5L137.7,123.2Z"/>
  </g>
</svg>