<?xml version="1.0" encoding="UTF-8"?>
<svg xmlns="http://www.w3.org/2000/svg" viewBox="0 0 474 600" id="wtc-state-map-AL" role="img" aria-label="al county map">
  <title>al Counties</title>
  <g class="wtc-counties">
    <path class="wtc-county" id="wtc-county-autauga" data-county="Autauga" d="M212.7,305.1L214.6,295.0L213.9,291.8L218.7,282.8L222.5,280.1L220.2,277.5L223.2,274.5L223.2,271.3L225.1,267.9L227.7,271.3L227.4,276.9L233.4,277.8L234.1,273.4L237.1,272.6L240.1,277.2L243.9,278.1L244.2,274.8L251.7,273.7L252.9,271.1L256.6,271.7L260.4,275.2L260.7,278.1L265.6,278.5L265.2,309.6L233.7,309.5L234.1,304.8L212.7,305.1Z"/>
    <path class="wtc-county" id="wtc-county-baldwin" data-county="Baldwin" d="M98.7,98.3L106.2,95.4L108.9,91.1L110.0,84.3L106.6,77.6L109.2,69.6L116.7,65.3L119.4,61.5L125.0,57.2L123.9,54.1L110.7,51.7L106.2,54.0L99.5,50.4L120.5,50.7L135.5,52.9L149.7,56.0L155.4,58.3L152.7,60.5L156.1,61.8L159.1,69.2L165.9,72.3L158.4,76.9L157.2,81.9L162.9,91.0L161.7,97.2L148.2,104.4L147.1,108.1L138.5,115.2L137.7,117.2L142.6,127.5L141.5,131.0L139.6,131.0L139.6,156.8L133.2,158.6L129.1,162.9L124.2,162.3L119.4,163.3L122.0,160.8L117.5,160.0L113.4,153.8L108.5,150.8L105.1,151.4L105.9,148.3L102.5,148.2L105.9,146.6L102.1,140.6L105.9,136.3L103.2,132.1L103.2,127.9L107.4,124.5L101.4,119.4L101.7,116.8L105.5,113.2L101.0,111.6L96.9,105.5L98.7,98.3Z"/>
    <path class="wtc-county" id="wtc-county-barbour" data-county="Barbour" d="M344.4,223.2L342.1,220.7L343.6,213.1L340.2,209.4L338.0,204.2L338.4,200.2L335.0,195.8L369.5,195.9L369.5,205.1L390.5,204.6L391.6,208.8L397.6,212.0L399.9,210.9L399.9,212.7L398.4,218.9L399.5,222.9L404.7,229.4L406.6,234.7L407.7,242.2L393.5,242.2L386.0,251.1L370.2,251.0L368.4,250.2L368.4,237.3L359.4,237.1L359.4,235.7L351.1,235.1L350.0,231.7L345.1,226.4L344.4,223.2Z"/>
    <path class="wtc-county" id="wtc-county-bibb" data-county="Bibb" d="M159.9,340.5L159.9,327.1L170.7,327.1L170.7,322.6L201.9,323.1L216.9,323.1L216.5,345.4L210.9,346.9L207.1,350.5L207.1,356.7L201.5,357.5L201.1,365.9L197.4,366.0L193.2,363.3L188.0,364.5L183.1,360.7L183.1,353.8L174.5,354.1L171.5,350.0L170.7,340.8L159.9,340.5Z"/>
    <path class="wtc-county" id="wtc-county-blount" data-county="Blount" d="M207.9,429.8L209.0,425.3L216.1,428.3L229.2,428.0L240.9,420.2L248.0,420.1L248.4,424.0L266.0,427.5L272.7,432.8L274.6,438.4L269.7,438.4L273.9,443.2L273.9,448.9L276.9,455.0L265.6,466.1L261.1,471.7L254.4,471.0L245.7,457.1L240.1,455.9L238.6,453.5L234.9,453.2L235.2,448.8L225.9,439.7L222.9,440.2L216.1,436.0L212.0,435.2L212.4,431.4L207.9,429.8Z"/>
    <path class="wtc-county" id="wtc-county-bullock" data-county="Bullock" d="M317.0,264.4L309.9,264.1L308.7,261.9L308.7,241.1L319.6,240.6L320.7,232.3L330.5,232.3L330.5,223.2L344.4,223.2L345.1,226.4L350.0,231.7L351.1,235.1L359.4,235.7L359.4,237.1L368.4,237.3L368.4,250.2L370.2,251.0L368.4,251.0L367.6,260.2L323.4,259.9L321.1,266.1L317.0,264.4Z"/>
    <path class="wtc-county" id="wtc-county-butler" data-county="Butler" d="M219.1,231.7L213.5,231.7L213.9,218.0L213.9,209.9L213.9,197.3L218.0,188.3L221.0,186.1L235.2,186.0L256.2,186.2L256.2,199.7L261.5,199.7L261.9,204.5L261.9,232.0L219.1,231.7Z"/>
    <path class="wtc-county" id="wtc-county-calhoun" data-county="Calhoun" d="M301.6,428.2L303.9,419.9L293.4,414.3L293.4,411.2L303.5,410.5L305.7,407.7L306.1,403.0L309.1,401.5L330.1,401.4L329.7,398.3L335.4,398.2L335.4,402.9L344.4,405.7L346.2,407.9L346.2,420.9L351.9,424.0L351.9,428.6L346.6,428.7L346.6,431.6L350.0,433.1L357.5,433.1L357.5,438.5L357.9,440.1L335.7,441.4L335.7,437.9L324.5,440.1L318.9,438.7L318.9,434.9L311.7,435.7L309.1,430.5L301.6,428.2Z"/>
    <path class="wtc-county" id="wtc-county-chambers" data-county="Chambers" d="M351.1,351.4L351.1,311.8L382.2,312.1L383.4,313.6L399.5,314.2L400.2,316.5L395.4,320.5L396.9,323.7L393.5,326.6L388.6,351.5L351.1,351.4Z"/>
    <path class="wtc-county" id="wtc-county-cherokee" data-county="Cherokee" d="M359.4,499.4L352.6,495.2L352.6,490.6L346.6,483.0L342.5,480.5L328.6,469.7L324.9,470.2L324.9,465.5L325.2,456.2L330.5,457.7L329.7,455.1L336.1,443.6L335.7,441.4L357.9,440.1L357.5,438.5L361.2,440.1L371.4,440.9L369.1,453.1L364.6,474.6L359.4,499.4Z"/>
    <path class="wtc-county" id="wtc-county-chilton" data-county="Chilton" d="M201.9,323.1L202.2,311.9L202.2,305.0L212.7,305.1L234.1,304.8L233.7,309.5L265.2,309.6L265.2,314.1L269.4,314.4L260.7,320.8L261.5,326.0L258.5,327.1L254.7,332.8L254.4,342.3L250.6,342.1L244.6,347.5L222.5,347.3L216.5,347.7L216.5,345.4L216.9,323.1L201.9,323.1Z"/>
    <path class="wtc-county" id="wtc-county-choctaw" data-county="Choctaw" d="M50.0,224.7L51.1,204.2L90.5,204.3L88.6,210.7L84.5,209.8L80.7,217.0L84.9,221.5L86.0,225.7L90.5,227.5L86.7,230.5L92.4,231.4L92.0,234.7L87.5,237.5L87.1,241.3L92.4,242.2L95.0,244.3L95.7,250.9L98.7,255.1L97.6,265.5L107.0,268.2L55.6,267.9L54.5,259.5L50.0,224.7Z"/>
    <path class="wtc-county" id="wtc-county-clarke" data-county="Clarke" d="M92.0,234.7L92.4,231.4L86.7,230.5L90.5,227.5L86.0,225.7L84.9,221.5L80.7,217.0L84.5,209.8L88.6,210.7L90.5,204.3L90.1,200.1L92.0,193.3L97.6,188.9L106.2,185.8L109.2,182.6L108.9,175.6L105.5,170.4L110.4,171.1L109.2,165.0L103.6,164.3L104.4,159.2L101.0,158.3L105.5,156.7L105.1,151.4L108.5,150.8L113.4,153.8L117.5,160.0L122.0,160.8L119.4,163.3L124.2,162.3L122.0,165.6L125.4,169.1L128.4,167.1L130.2,173.1L137.4,175.7L138.9,174.1L143.7,176.4L145.2,181.1L139.2,185.0L144.9,189.0L144.9,204.1L150.1,204.1L149.7,216.3L151.6,217.8L139.2,217.7L139.2,222.1L134.4,222.9L134.4,234.8L92.0,234.7Z"/>
    <path class="wtc-county" id="wtc-county-clay" data-county="Clay" d="M324.1,392.3L318.5,392.3L318.5,387.6L316.6,387.6L316.6,381.5L311.0,380.1L310.6,370.9L296.4,371.1L296.0,360.5L290.4,360.6L290.4,351.1L307.6,351.1L307.6,349.6L311.0,351.2L344.7,351.3L345.1,374.1L345.9,391.9L333.1,392.3L331.2,389.3L322.2,390.0L324.1,392.3Z"/>
    <path class="wtc-county" id="wtc-county-cleburne" data-county="Cleburne" d="M324.1,392.3L322.2,390.0L331.2,389.3L333.1,392.3L345.9,391.9L376.2,391.6L381.1,390.6L377.7,408.4L372.5,434.4L371.4,440.9L361.2,440.1L357.5,438.5L357.5,433.1L350.0,433.1L346.6,431.6L346.6,428.7L351.9,428.6L351.9,424.0L346.2,420.9L346.2,407.9L344.4,405.7L335.4,402.9L335.4,398.2L329.7,398.3L324.1,392.3Z"/>
    <path class="wtc-county" id="wtc-county-coffee" data-county="Coffee" d="M288.1,177.2L288.5,151.3L330.5,151.8L330.5,195.8L293.4,195.8L293.4,187.4L288.1,186.6L288.1,177.2Z"/>
    <path class="wtc-county" id="wtc-county-colbert" data-county="Colbert" d="M89.4,537.9L84.9,505.4L148.6,503.9L152.0,510.1L157.6,513.7L156.9,517.4L159.5,518.8L160.6,524.9L159.5,528.3L149.4,531.6L143.0,530.3L140.0,528.1L130.2,525.4L127.6,522.5L119.7,521.1L116.7,522.1L107.7,528.7L104.7,535.3L95.4,539.4L89.4,537.9Z"/>
    <path class="wtc-county" id="wtc-county-conecuh" data-county="Conecuh" d="M213.9,209.9L205.2,206.3L198.9,206.3L198.1,202.0L189.9,198.3L186.5,185.5L182.4,179.2L180.1,178.7L173.0,173.1L166.6,164.4L162.9,162.6L159.5,158.4L228.5,158.5L228.5,150.3L235.2,151.3L235.2,167.3L239.0,169.8L237.9,176.8L235.2,176.8L235.2,186.0L221.0,186.1L218.0,188.3L213.9,197.3L213.9,209.9Z"/>
    <path class="wtc-county" id="wtc-county-coosa" data-county="Coosa" d="M254.4,342.3L254.7,332.8L258.5,327.1L261.5,326.0L260.7,320.8L269.4,314.4L307.6,314.6L307.6,349.6L307.6,351.1L290.4,351.1L257.4,350.9L255.1,349.4L254.4,342.3Z"/>
    <path class="wtc-county" id="wtc-county-covington" data-county="Covington" d="M235.2,186.0L235.2,176.8L237.9,176.8L239.0,169.8L235.2,167.3L235.2,151.3L235.2,131.3L236.7,130.7L267.9,130.6L288.9,130.6L288.5,151.3L288.1,177.2L281.0,177.4L279.5,178.8L279.1,186.4L273.1,182.1L270.5,182.1L267.1,178.3L266.7,186.3L256.2,186.2L235.2,186.0Z"/>
    <path class="wtc-county" id="wtc-county-crenshaw" data-county="Crenshaw" d="M261.9,232.0L261.9,204.5L261.5,199.7L256.2,199.7L256.2,186.2L266.7,186.3L267.1,178.3L270.5,182.1L273.1,182.1L279.1,186.4L279.5,178.8L281.0,177.4L288.1,177.2L288.1,186.6L293.4,187.4L293.4,195.8L289.6,195.7L293.0,200.5L293.0,213.9L287.7,213.8L289.2,218.2L290.4,228.4L288.5,232.2L276.9,232.0L276.9,241.0L266.0,241.0L266.4,231.9L261.9,232.0Z"/>
    <path class="wtc-county" id="wtc-county-cullman" data-county="Cullman" d="M188.4,443.9L192.5,440.4L195.5,434.9L194.4,433.1L203.4,433.1L203.4,430.6L207.9,429.8L212.4,431.4L212.0,435.2L216.1,436.0L222.9,440.2L225.9,439.7L235.2,448.8L234.9,453.2L238.6,453.5L240.1,455.9L245.7,457.1L254.4,471.0L261.1,471.7L258.5,476.3L247.6,476.5L192.5,477.5L192.5,476.0L192.5,443.8L188.4,443.9Z"/>
    <path class="wtc-county" id="wtc-county-dale" data-county="Dale" d="M330.5,195.8L330.5,151.8L338.7,151.6L343.6,159.3L350.0,159.7L362.4,157.0L362.4,161.2L369.5,161.1L369.5,164.2L369.5,195.9L335.0,195.8L330.5,195.8Z"/>
    <path class="wtc-county" id="wtc-county-dallas" data-county="Dallas" d="M154.6,267.8L154.6,263.4L157.6,263.8L163.2,260.7L165.9,256.3L170.0,256.5L174.9,250.8L176.7,251.0L179.7,246.3L184.2,244.7L185.4,240.6L213.9,240.7L213.5,259.2L224.0,259.2L219.1,262.5L218.7,265.4L222.1,267.6L219.9,270.1L223.2,271.3L223.2,274.5L220.2,277.5L222.5,280.1L218.7,282.8L213.9,291.8L214.6,295.0L212.7,305.1L202.2,305.0L202.2,311.9L198.9,300.6L199.6,298.3L195.5,295.3L195.5,291.8L192.1,286.8L159.9,286.1L159.9,267.9L154.6,267.8Z"/>
    <path class="wtc-county" id="wtc-county-dekalb" data-county="DeKalb" d="M302.4,494.4L297.1,489.3L297.5,465.6L324.9,465.5L324.9,470.2L328.6,469.7L342.5,480.5L346.6,483.0L352.6,490.6L352.6,495.2L359.4,499.4L357.9,506.2L357.1,509.8L352.2,534.6L347.4,531.6L344.0,523.5L340.6,522.4L330.9,509.9L308.0,494.8L302.4,494.4Z"/>
    <path class="wtc-county" id="wtc-county-elmore" data-county="Elmore" d="M269.4,314.4L265.2,314.1L265.2,309.6L265.6,278.5L266.7,280.3L272.4,280.9L276.1,278.7L274.6,282.0L281.0,288.1L286.2,285.3L288.5,281.3L295.2,281.0L303.9,278.1L306.1,279.6L311.4,283.1L319.6,282.5L321.9,285.2L320.4,287.2L319.6,298.7L320.4,303.4L317.7,306.5L321.1,314.5L307.6,314.6L269.4,314.4Z"/>
    <path class="wtc-county" id="wtc-county-escambia" data-county="Escambia" d="M139.6,156.8L139.6,131.0L141.5,131.0L186.9,131.1L226.6,131.0L236.7,130.7L235.2,131.3L235.2,151.3L228.5,150.3L228.5,158.5L159.5,158.4L153.1,158.4L145.6,155.0L139.6,156.8Z"/>
    <path class="wtc-county" id="wtc-county-etowah" data-county="Etowah" d="M276.9,455.0L273.9,448.9L273.9,443.2L269.7,438.4L274.6,438.4L279.5,443.6L282.1,441.0L287.7,443.5L291.1,441.0L291.1,437.0L293.7,434.1L296.7,434.6L298.6,430.2L301.6,428.2L309.1,430.5L311.7,435.7L318.9,434.9L318.9,438.7L324.5,440.1L335.7,437.9L335.7,441.4L336.1,443.6L329.7,455.1L330.5,457.7L325.2,456.2L324.9,465.5L297.5,465.6L297.5,464.1L288.9,463.7L276.9,455.0Z"/>
    <path class="wtc-county" id="wtc-county-fayette" data-county="Fayette" d="M104.7,436.3L105.1,394.9L116.4,395.0L134.4,394.6L134.4,400.7L138.1,400.8L138.1,403.9L159.9,403.1L159.9,412.1L149.0,412.5L148.6,430.8L137.7,431.3L137.7,435.8L104.7,436.3Z"/>
    <path class="wtc-county" id="wtc-county-franklin" data-county="Franklin" d="M83.4,493.0L81.5,478.2L109.2,477.3L137.7,476.8L148.6,476.5L148.6,503.9L84.9,505.4L83.4,493.0Z"/>
    <path class="wtc-county" id="wtc-county-geneva" data-county="Geneva" d="M288.5,151.3L288.9,130.6L305.0,130.5L360.9,130.9L362.0,131.0L362.4,152.1L338.7,151.6L330.5,151.8L288.5,151.3Z"/>
    <path class="wtc-county" id="wtc-county-greene" data-county="Greene" d="M81.5,339.7L81.1,333.1L77.7,332.4L80.7,326.8L83.4,324.8L81.1,322.3L85.6,322.8L88.6,319.2L92.0,319.8L91.6,316.6L88.2,316.3L90.5,309.8L87.5,308.9L91.2,307.1L93.9,308.5L93.5,302.9L91.2,300.4L93.9,297.6L102.1,299.5L107.0,301.8L109.6,300.0L114.5,300.6L114.1,297.4L110.4,297.6L114.9,291.3L119.0,290.5L121.6,296.5L127.2,297.2L125.7,299.7L120.5,299.5L119.0,301.9L125.4,301.9L126.5,303.8L121.6,304.1L120.9,310.5L117.1,310.2L119.7,314.3L113.0,315.4L118.2,318.7L117.1,323.6L120.1,329.5L124.6,330.5L123.1,332.6L126.9,333.6L129.1,340.9L129.9,342.0L117.1,342.0L116.4,356.2L106.6,352.0L102.9,348.3L96.9,346.8L95.0,343.6L84.1,344.2L81.5,339.7Z"/>
    <path class="wtc-county" id="wtc-county-hale" data-county="Hale" d="M129.1,340.9L126.9,333.6L123.1,332.6L124.6,330.5L120.1,329.5L117.1,323.6L118.2,318.7L113.0,315.4L119.7,314.3L117.1,310.2L120.9,310.5L121.6,304.1L126.5,303.8L125.4,301.9L119.0,301.9L120.5,299.5L125.7,299.7L127.2,297.2L121.6,296.5L119.0,290.5L128.0,290.5L128.0,286.0L149.4,286.0L149.4,304.2L154.6,304.3L154.6,322.5L159.9,322.5L159.9,327.1L159.9,340.5L129.1,340.9Z"/>
    <path class="wtc-county" id="wtc-county-henry" data-county="Henry" d="M369.5,195.9L369.5,164.2L394.2,163.4L403.6,163.4L403.2,169.1L406.2,176.3L405.5,180.1L408.1,185.3L407.0,196.0L399.9,203.8L399.9,210.9L397.6,212.0L391.6,208.8L390.5,204.6L369.5,205.1L369.5,195.9Z"/>
    <path class="wtc-county" id="wtc-county-houston" data-county="Houston" d="M369.5,164.2L369.5,161.1L362.4,161.2L362.4,157.0L350.0,159.7L343.6,159.3L338.7,151.6L362.4,152.1L362.0,131.0L412.6,131.3L410.4,139.1L409.2,142.5L401.7,150.7L402.9,155.5L401.0,160.1L403.6,163.4L394.2,163.4L369.5,164.2Z"/>
    <path class="wtc-county" id="wtc-county-jackson" data-county="Jackson" d="M276.1,548.2L281.4,543.4L277.6,543.4L272.0,535.9L274.2,531.5L272.7,530.0L273.1,524.3L271.2,521.5L270.9,510.8L274.2,507.3L293.0,507.3L293.0,499.1L298.2,499.2L299.4,493.4L302.4,494.4L308.0,494.8L330.9,509.9L340.6,522.4L344.0,523.5L347.4,531.6L352.2,534.6L349.6,547.5L322.6,547.9L276.1,548.2Z"/>
    <path class="wtc-county" id="wtc-county-jefferson" data-county="Jefferson" d="M176.0,393.7L174.1,391.0L169.6,391.6L168.9,387.8L174.5,386.2L179.7,381.4L179.7,378.4L183.5,377.6L187.2,372.2L197.4,369.0L197.4,366.0L201.1,365.9L206.0,365.9L207.1,368.2L216.5,374.9L221.7,374.9L221.7,377.9L227.4,378.5L230.0,383.6L233.4,383.7L238.6,388.9L245.4,389.0L249.9,394.3L254.4,394.9L254.4,397.2L251.0,398.8L251.0,405.0L253.6,408.7L253.6,415.6L251.7,420.1L248.0,420.1L240.9,420.2L229.2,428.0L216.1,428.3L209.0,425.3L207.1,422.4L201.5,420.9L200.0,412.0L198.1,408.7L194.4,408.8L194.4,405.8L185.4,404.3L182.7,400.7L184.6,398.2L176.0,393.7Z"/>
    <path class="wtc-county" id="wtc-county-lamar" data-county="Lamar" d="M73.6,418.0L71.0,396.0L105.1,394.9L104.7,436.3L104.7,447.0L101.0,447.1L101.0,450.1L77.7,450.7L73.6,418.0Z"/>
    <path class="wtc-county" id="wtc-county-lauderdale" data-county="Lauderdale" d="M101.0,549.7L78.5,550.0L78.5,548.7L83.4,541.0L89.4,537.9L95.4,539.4L104.7,535.3L107.7,528.7L116.7,522.1L119.7,521.1L127.6,522.5L130.2,525.4L140.0,528.1L143.0,530.3L149.4,531.6L159.5,528.3L168.1,527.8L173.0,523.1L176.7,523.9L174.9,525.5L181.6,529.9L182.0,549.0L180.5,549.1L140.7,549.6L101.0,549.7Z"/>
    <path class="wtc-county" id="wtc-county-lawrence" data-county="Lawrence" d="M148.6,503.9L148.6,476.5L192.5,476.0L192.5,477.5L193.2,516.3L189.5,520.3L180.9,524.4L176.7,523.9L173.0,523.1L168.1,527.8L159.5,528.3L160.6,524.9L159.5,518.8L156.9,517.4L157.6,513.7L152.0,510.1L148.6,503.9Z"/>
    <path class="wtc-county" id="wtc-county-lee" data-county="Lee" d="M351.1,311.8L349.2,310.3L342.1,310.2L340.2,308.6L340.2,298.0L344.0,295.0L362.0,287.7L367.2,287.7L367.6,278.5L378.5,278.6L378.1,284.7L407.0,285.1L406.6,288.7L412.6,289.0L410.7,292.4L404.4,299.2L402.1,303.1L399.5,314.2L383.4,313.6L382.2,312.1L351.1,311.8Z"/>
    <path class="wtc-county" id="wtc-county-limestone" data-county="Limestone" d="M182.0,549.0L181.6,529.9L174.9,525.5L176.7,523.9L180.9,524.4L189.5,520.3L193.2,516.3L213.9,505.2L225.9,502.2L226.6,528.5L226.6,548.3L221.0,548.3L182.0,549.0Z"/>
    <path class="wtc-county" id="wtc-county-lowndes" data-county="Lowndes" d="M223.2,271.3L219.9,270.1L222.1,267.6L218.7,265.4L219.1,262.5L224.0,259.2L213.5,259.2L213.9,240.7L219.1,240.7L219.1,231.7L261.9,232.0L266.4,231.9L266.0,241.0L266.0,261.3L257.7,265.4L258.9,270.3L256.6,271.7L252.9,271.1L251.7,273.7L244.2,274.8L243.9,278.1L240.1,277.2L237.1,272.6L234.1,273.4L233.4,277.8L227.4,276.9L227.7,271.3L225.1,267.9L223.2,271.3Z"/>
    <path class="wtc-county" id="wtc-county-macon" data-county="Macon" d="M306.1,279.6L309.5,270.8L317.0,264.4L321.1,266.1L323.4,259.9L367.6,260.2L367.6,278.5L367.2,287.7L362.0,287.7L344.0,295.0L340.2,298.0L338.4,296.5L329.7,296.5L329.7,287.3L320.4,287.2L321.9,285.2L319.6,282.5L311.4,283.1L306.1,279.6Z"/>
    <path class="wtc-county" id="wtc-county-madison" data-county="Madison" d="M226.6,548.3L226.6,528.5L225.9,502.2L230.0,502.7L233.0,505.6L237.9,505.0L239.0,502.3L244.2,504.9L249.1,504.8L251.0,501.7L252.9,497.0L259.6,494.4L264.1,494.8L267.5,498.8L273.1,497.9L276.9,505.2L274.2,507.3L270.9,510.8L271.2,521.5L273.1,524.3L272.7,530.0L274.2,531.5L272.0,535.9L277.6,543.4L281.4,543.4L276.1,548.2L275.4,548.2L226.6,548.3Z"/>
    <path class="wtc-county" id="wtc-county-marengo" data-county="Marengo" d="M107.0,268.2L97.6,265.5L98.7,255.1L95.7,250.9L95.0,244.3L92.4,242.2L87.1,241.3L87.5,237.5L92.0,234.7L134.4,234.8L138.9,236.3L138.9,249.5L149.4,249.6L149.4,262.3L154.6,263.4L154.6,267.8L149.4,267.8L149.4,286.0L128.0,286.0L128.0,290.5L119.0,290.5L114.9,291.3L114.9,289.5L108.5,289.8L104.4,285.1L96.1,281.0L94.6,275.1L102.5,271.7L107.0,268.2Z"/>
    <path class="wtc-county" id="wtc-county-marion" data-county="Marion" d="M78.1,453.7L77.7,450.7L101.0,450.1L101.0,447.1L104.7,447.0L104.7,436.3L137.7,435.8L137.7,444.9L137.7,476.8L109.2,477.3L81.5,478.2L78.1,453.7Z"/>
    <path class="wtc-county" id="wtc-county-marshall" data-county="Marshall" d="M251.0,501.7L247.6,483.4L247.6,476.5L258.5,476.3L261.1,471.7L265.6,466.1L276.9,455.0L288.9,463.7L297.5,464.1L297.5,465.6L297.1,489.3L302.4,494.4L299.4,493.4L298.2,499.2L293.0,499.1L293.0,507.3L274.2,507.3L276.9,505.2L273.1,497.9L267.5,498.8L264.1,494.8L259.6,494.4L252.9,497.0L251.0,501.7Z"/>
    <path class="wtc-county" id="wtc-county-mobile" data-county="Mobile" d="M65.0,51.3L70.2,50.0L77.7,51.5L84.5,51.7L88.2,50.3L91.6,52.8L86.4,56.4L86.0,54.1L65.0,51.3ZM54.5,143.2L55.2,131.0L56.4,103.6L58.2,65.3L65.0,67.3L66.9,65.3L72.5,66.7L80.0,63.1L79.6,59.9L85.2,60.2L88.2,66.2L88.6,79.1L90.9,82.0L90.5,85.6L93.9,90.7L93.1,94.2L98.7,98.3L96.9,105.5L101.0,111.6L105.5,113.2L101.7,116.8L101.4,119.4L107.4,124.5L103.2,127.9L103.2,132.1L105.9,136.3L102.1,140.6L105.9,146.6L102.5,148.2L100.6,149.4L96.9,146.3L65.0,146.2L65.0,143.2L54.5,143.2Z"/>
    <path class="wtc-county" id="wtc-county-monroe" data-county="Monroe" d="M151.6,217.8L149.7,216.3L150.1,204.1L144.9,204.1L144.9,189.0L139.2,185.0L145.2,181.1L143.7,176.4L138.9,174.1L137.4,175.7L130.2,173.1L128.4,167.1L125.4,169.1L122.0,165.6L124.2,162.3L129.1,162.9L133.2,158.6L139.6,156.8L145.6,155.0L153.1,158.4L159.5,158.4L162.9,162.6L166.6,164.4L173.0,173.1L180.1,178.7L182.4,179.2L186.5,185.5L189.9,198.3L198.1,202.0L198.9,206.3L205.2,206.3L213.9,209.9L213.9,218.0L181.6,217.7L178.6,218.1L151.6,217.8Z"/>
    <path class="wtc-county" id="wtc-county-montgomery" data-county="Montgomery" d="M265.6,278.5L260.7,278.1L260.4,275.2L256.6,271.7L258.9,270.3L257.7,265.4L266.0,261.3L266.0,241.0L276.9,241.0L276.9,232.0L288.5,232.2L309.1,232.3L308.7,241.1L308.7,261.9L309.9,264.1L317.0,264.4L309.5,270.8L306.1,279.6L303.9,278.1L295.2,281.0L288.5,281.3L286.2,285.3L281.0,288.1L274.6,282.0L276.1,278.7L272.4,280.9L266.7,280.3L265.6,278.5Z"/>
    <path class="wtc-county" id="wtc-county-morgan" data-county="Morgan" d="M193.2,516.3L192.5,477.5L247.6,476.5L247.6,483.4L251.0,501.7L249.1,504.8L244.2,504.9L239.0,502.3L237.9,505.0L233.0,505.6L230.0,502.7L225.9,502.2L213.9,505.2L193.2,516.3Z"/>
    <path class="wtc-county" id="wtc-county-perry" data-county="Perry" d="M159.9,327.1L159.9,322.5L154.6,322.5L154.6,304.3L149.4,304.2L149.4,286.0L149.4,267.8L154.6,267.8L159.9,267.9L159.9,286.1L192.1,286.8L195.5,291.8L195.5,295.3L199.6,298.3L198.9,300.6L202.2,311.9L201.9,323.1L170.7,322.6L170.7,327.1L159.9,327.1Z"/>
    <path class="wtc-county" id="wtc-county-pickens" data-county="Pickens" d="M67.6,370.3L63.9,339.3L81.5,339.7L84.1,344.2L95.0,343.6L96.9,346.8L102.9,348.3L106.6,352.0L116.4,356.2L116.4,395.0L105.1,394.9L71.0,396.0L67.6,370.3Z"/>
    <path class="wtc-county" id="wtc-county-pike" data-county="Pike" d="M288.5,232.2L290.4,228.4L289.2,218.2L287.7,213.8L293.0,213.9L293.0,200.5L289.6,195.7L293.4,195.8L330.5,195.8L335.0,195.8L338.4,200.2L338.0,204.2L340.2,209.4L343.6,213.1L342.1,220.7L344.4,223.2L330.5,223.2L330.5,232.3L320.7,232.3L319.6,240.6L308.7,241.1L309.1,232.3L288.5,232.2Z"/>
    <path class="wtc-county" id="wtc-county-randolph" data-county="Randolph" d="M345.9,391.9L345.1,374.1L344.7,351.3L351.1,351.4L388.6,351.5L388.2,353.7L382.2,384.9L381.1,390.6L376.2,391.6L345.9,391.9Z"/>
    <path class="wtc-county" id="wtc-county-russell" data-county="Russell" d="M367.6,278.5L367.6,260.2L368.4,251.0L370.2,251.0L386.0,251.1L393.5,242.2L407.7,242.2L407.0,249.9L411.9,254.5L417.1,256.4L416.4,258.6L421.2,259.8L424.2,263.2L419.7,266.8L413.0,269.4L414.9,275.2L416.7,279.9L413.4,283.1L412.6,289.0L406.6,288.7L407.0,285.1L378.1,284.7L378.5,278.6L367.6,278.5Z"/>
    <path class="wtc-county" id="wtc-county-st-clair" data-county="St. Clair" d="M274.6,438.4L272.7,432.8L266.0,427.5L248.4,424.0L248.0,420.1L251.7,420.1L253.6,415.6L253.6,408.7L251.0,405.0L251.0,398.8L254.4,397.2L258.1,397.2L258.1,392.7L269.0,392.7L269.0,381.0L276.1,387.5L279.1,393.6L284.0,391.9L288.5,397.0L285.5,401.6L289.2,402.2L290.4,409.1L287.0,412.2L293.4,411.2L293.4,414.3L303.9,419.9L301.6,428.2L298.6,430.2L296.7,434.6L293.7,434.1L291.1,437.0L291.1,441.0L287.7,443.5L282.1,441.0L279.5,443.6L274.6,438.4Z"/>
    <path class="wtc-county" id="wtc-county-shelby" data-county="Shelby" d="M201.1,365.9L201.5,357.5L207.1,356.7L207.1,350.5L210.9,346.9L216.5,345.4L216.5,347.7L222.5,347.3L244.6,347.5L250.6,342.1L254.4,342.3L255.1,349.4L257.4,350.9L260.4,353.3L255.9,358.9L260.4,361.3L259.6,363.7L263.7,366.3L263.4,369.7L267.5,369.0L271.2,371.0L270.1,375.3L272.7,377.1L269.0,381.0L269.0,392.7L258.1,392.7L258.1,397.2L254.4,397.2L254.4,394.9L249.9,394.3L245.4,389.0L238.6,388.9L233.4,383.7L230.0,383.6L227.4,378.5L221.7,377.9L221.7,374.9L216.5,374.9L207.1,368.2L206.0,365.9L201.1,365.9Z"/>
    <path class="wtc-county" id="wtc-county-sumter" data-county="Sumter" d="M59.0,296.1L55.6,267.9L107.0,268.2L102.5,271.7L94.6,275.1L96.1,281.0L104.4,285.1L108.5,289.8L114.9,289.5L114.9,291.3L110.4,297.6L114.1,297.4L114.5,300.6L109.6,300.0L107.0,301.8L102.1,299.5L93.9,297.6L91.2,300.4L93.5,302.9L93.9,308.5L91.2,307.1L87.5,308.9L90.5,309.8L88.2,316.3L91.6,316.6L92.0,319.8L88.6,319.2L85.6,322.8L81.1,322.3L83.4,324.8L80.7,326.8L77.7,332.4L81.1,333.1L81.5,339.7L63.9,339.3L63.1,332.8L61.2,313.8L59.0,296.1Z"/>
    <path class="wtc-county" id="wtc-county-talladega" data-county="Talladega" d="M269.0,381.0L272.7,377.1L270.1,375.3L271.2,371.0L267.5,369.0L263.4,369.7L263.7,366.3L259.6,363.7L260.4,361.3L255.9,358.9L260.4,353.3L257.4,350.9L290.4,351.1L290.4,360.6L296.0,360.5L296.4,371.1L310.6,370.9L311.0,380.1L316.6,381.5L316.6,387.6L318.5,387.6L318.5,392.3L324.1,392.3L329.7,398.3L330.1,401.4L309.1,401.5L306.1,403.0L305.7,407.7L303.5,410.5L293.4,411.2L287.0,412.2L290.4,409.1L289.2,402.2L285.5,401.6L288.5,397.0L284.0,391.9L279.1,393.6L276.1,387.5L269.0,381.0Z"/>
    <path class="wtc-county" id="wtc-county-tallapoosa" data-county="Tallapoosa" d="M307.6,349.6L307.6,314.6L321.1,314.5L317.7,306.5L320.4,303.4L319.6,298.7L320.4,287.2L329.7,287.3L329.7,296.5L338.4,296.5L340.2,298.0L340.2,308.6L342.1,310.2L349.2,310.3L351.1,311.8L351.1,351.4L344.7,351.3L311.0,351.2L307.6,349.6Z"/>
    <path class="wtc-county" id="wtc-county-tuscaloosa" data-county="Tuscaloosa" d="M116.4,395.0L116.4,356.2L117.1,342.0L129.9,342.0L129.1,340.9L159.9,340.5L170.7,340.8L171.5,350.0L174.5,354.1L183.1,353.8L183.1,360.7L188.0,364.5L193.2,363.3L197.4,366.0L197.4,369.0L187.2,372.2L183.5,377.6L179.7,378.4L179.7,381.4L174.5,386.2L168.9,387.8L169.6,391.6L174.1,391.0L176.0,393.7L170.7,393.9L170.7,401.6L159.9,403.1L138.1,403.9L138.1,400.8L134.4,400.7L134.4,394.6L116.4,395.0Z"/>
    <path class="wtc-county" id="wtc-county-walker" data-county="Walker" d="M137.7,444.9L137.7,435.8L137.7,431.3L148.6,430.8L149.0,412.5L159.9,412.1L159.9,403.1L170.7,401.6L170.7,393.9L176.0,393.7L184.6,398.2L182.7,400.7L185.4,404.3L194.4,405.8L194.4,408.8L198.1,408.7L200.0,412.0L201.5,420.9L207.1,422.4L209.0,425.3L207.9,429.8L203.4,430.6L203.4,433.1L194.4,433.1L195.5,434.9L192.5,440.4L188.4,443.9L152.0,444.3L137.7,444.9Z"/>
    <path class="wtc-county" id="wtc-county-washington" data-county="Washington" d="M51.1,204.2L52.6,176.7L54.5,143.2L65.0,143.2L65.0,146.2L96.9,146.3L100.6,149.4L102.5,148.2L105.9,148.3L105.1,151.4L105.5,156.7L101.0,158.3L104.4,159.2L103.6,164.3L109.2,165.0L110.4,171.1L105.5,170.4L108.9,175.6L109.2,182.6L106.2,185.8L97.6,188.9L92.0,193.3L90.1,200.1L90.5,204.3L51.1,204.2Z"/>
    <path class="wtc-county" id="wtc-county-wilcox" data-county="Wilcox" d="M134.4,234.8L134.4,222.9L139.2,222.1L139.2,217.7L151.6,217.8L178.6,218.1L181.6,217.7L213.9,218.0L213.5,231.7L219.1,231.7L219.1,240.7L213.9,240.7L185.4,240.6L184.2,244.7L179.7,246.3L176.7,251.0L174.9,250.8L170.0,256.5L165.9,256.3L163.2,260.7L157.6,263.8L154.6,263.4L149.4,262.3L149.4,249.6L138.9,249.5L138.9,236.3L134.4,234.8Z"/>
    <path class="wtc-county" id="wtc-county-winston" data-county="Winston" d="M137.7,476.8L137.7,444.9L152.0,444.3L188.4,443.9L192.5,443.8L192.5,476.0L148.6,476.5L137.7,476.8Z"/>
  </g>
</svg>