<?xml version="1.0" encoding="UTF-8"?>
<svg xmlns="http://www.w3.org/2000/svg" viewBox="0 0 367 600" id="wtc-state-map-DE" role="img" aria-label="de county map">
  <title>de Counties</title>
  <g class="wtc-counties">
    <path class="wtc-county" id="wtc-county-kent" data-county="Kent" d="M60.4,245.0L61.7,263.3L65.5,300.5L74.6,413.3L134.2,411.4L147.1,404.0L160.1,386.6L189.9,381.4L197.6,365.9L222.3,371.5L210.6,342.9L189.9,328.1L187.3,289.0L193.8,278.1L189.9,260.2L176.9,239.1L149.7,220.2L135.5,224.2L123.8,240.6L95.3,247.1L60.4,245.0Z"/>
    <path class="wtc-county" id="wtc-county-new-castle" data-county="New Castle" d="M50.0,91.5L50.0,118.2L57.8,215.8L60.4,245.0L95.3,247.1L123.8,240.6L135.5,224.2L149.7,220.2L140.7,201.9L122.5,185.8L122.5,173.1L132.9,164.4L131.6,149.2L117.3,139.6L114.8,127.5L143.3,102.4L151.0,104.6L162.7,94.6L169.2,75.7L186.0,65.5L184.7,62.7L154.9,51.2L119.9,50.0L95.3,55.6L75.9,66.1L50.0,91.5Z"/>
    <path class="wtc-county" id="wtc-county-sussex" data-county="Sussex" d="M74.6,413.3L79.8,483.7L82.4,510.6L85.0,546.9L211.9,549.7L316.8,550.0L311.6,474.4L305.1,434.4L300.0,423.2L287.0,430.7L266.3,421.7L224.8,383.5L222.3,371.5L197.6,365.9L189.9,381.4L160.1,386.6L147.1,404.0L134.2,411.4L74.6,413.3Z"/>
  </g>
</svg>