<?xml version="1.0" encoding="UTF-8"?>
<svg xmlns="http://www.w3.org/2000/svg" viewBox="0 0 600 501" id="wtc-state-map-FL" role="img" aria-label="fl county map">
  <title>fl Counties</title>
  <g class="wtc-counties">
    <path class="wtc-county" id="wtc-county-alachua" data-county="Alachua" d="M377.2,127.0L377.4,127.5L377.4,144.5L377.4,146.4L384.0,146.2L384.0,150.0L394.0,149.7L406.7,149.8L406.7,153.3L407.9,153.9L411.7,153.0L416.9,152.7L416.9,150.6L417.1,137.6L416.9,134.4L415.4,130.6L413.3,130.1L411.9,126.6L408.1,125.8L402.7,126.2L398.4,123.8L394.4,123.2L393.0,120.9L385.7,119.7L382.6,121.4L381.9,124.6L377.2,127.0Z"/>
    <path class="wtc-county" id="wtc-county-baker" data-county="Baker" d="M390.4,77.4L390.4,106.8L411.2,106.4L417.3,106.4L417.3,103.5L417.3,97.9L417.3,92.0L413.8,91.6L409.3,92.2L406.7,87.9L407.4,83.9L405.8,82.4L405.3,79.2L406.5,78.4L393.0,77.6L390.4,77.4Z"/>
    <path class="wtc-county" id="wtc-county-bay" data-county="Bay" d="M157.9,90.2L157.9,98.1L162.6,100.2L172.3,105.5L177.5,109.4L183.9,112.1L187.6,116.1L191.2,118.4L195.2,119.1L197.8,120.8L197.5,102.6L198.0,78.5L194.7,78.5L191.4,78.5L191.2,87.1L167.1,86.8L165.2,88.8L159.8,88.8L157.9,90.2Z"/>
    <path class="wtc-county" id="wtc-county-bradford" data-county="Bradford" d="M393.0,120.9L394.4,123.2L398.4,123.8L402.7,126.2L408.1,125.8L411.9,126.6L413.3,130.1L415.4,130.6L416.9,134.4L417.3,134.3L417.6,132.4L417.3,106.4L411.2,106.4L411.0,108.6L405.8,113.6L403.4,114.0L400.3,118.7L393.0,120.9Z"/>
    <path class="wtc-county" id="wtc-county-brevard" data-county="Brevard" d="M504.0,195.3L488.4,195.4L488.6,207.1L487.2,207.1L489.6,207.6L490.7,211.8L494.3,214.2L494.8,216.3L492.9,218.9L495.5,224.5L495.5,241.3L495.0,241.8L495.0,259.1L518.6,259.1L519.8,256.9L522.9,256.5L518.6,249.3L514.8,241.1L513.4,235.7L512.2,228.3L512.5,223.4L513.4,220.4L517.7,217.1L515.3,212.4L514.4,208.9L505.4,197.6L504.0,195.3Z"/>
    <path class="wtc-county" id="wtc-county-broward" data-county="Broward" d="M494.3,357.0L494.3,361.8L494.8,380.3L507.5,380.3L507.5,381.7L531.8,381.7L532.8,380.9L544.3,380.5L546.2,363.6L547.2,357.8L538.7,357.4L532.5,355.6L532.5,356.9L494.3,357.0Z"/>
    <path class="wtc-county" id="wtc-county-calhoun" data-county="Calhoun" d="M198.0,78.5L197.5,102.6L215.7,102.7L217.8,100.8L222.3,88.9L221.2,88.2L224.5,86.8L223.3,85.8L224.0,81.3L227.8,75.9L212.2,75.8L211.9,78.7L198.0,78.5Z"/>
    <path class="wtc-county" id="wtc-county-charlotte" data-county="Charlotte" d="M395.8,316.7L401.5,324.5L402.7,327.0L406.2,328.3L411.0,327.0L409.1,318.6L411.7,318.0L412.8,316.1L415.7,315.9L416.6,317.6L414.7,318.2L414.7,320.5L416.6,321.3L417.1,326.1L416.6,328.2L449.2,328.3L449.4,310.9L421.8,310.8L416.9,311.0L403.9,311.0L403.9,316.7L395.8,316.7Z"/>
    <path class="wtc-county" id="wtc-county-citrus" data-county="Citrus" d="M385.5,178.7L381.4,179.6L380.3,181.0L375.3,179.4L373.7,179.6L370.6,182.0L372.2,183.3L375.3,187.8L372.5,191.4L374.6,197.6L373.7,200.0L376.7,201.7L393.0,201.6L393.0,203.6L403.4,203.5L404.1,200.2L408.1,197.5L409.5,195.2L408.6,193.3L402.7,188.4L400.1,184.2L398.2,182.4L393.0,180.7L390.4,178.5L385.5,178.7Z"/>
    <path class="wtc-county" id="wtc-county-clay" data-county="Clay" d="M417.3,103.5L417.3,106.4L417.6,132.4L417.3,134.3L420.2,132.9L424.6,132.4L426.5,129.4L429.6,129.0L432.9,126.6L448.3,126.3L446.4,121.4L446.6,118.3L441.4,114.8L440.9,113.0L441.6,107.9L441.6,103.3L417.3,103.5Z"/>
    <path class="wtc-county" id="wtc-county-collier" data-county="Collier" d="M430.8,357.2L432.4,363.4L433.6,373.1L437.2,381.5L440.9,388.6L442.8,386.4L445.4,385.7L450.4,388.8L455.3,390.9L455.6,391.8L494.8,391.7L494.8,380.3L494.3,361.8L468.8,362.3L468.6,344.9L449.2,345.2L449.4,351.1L443.1,351.2L443.1,358.0L432.4,358.1L430.8,357.2Z"/>
    <path class="wtc-county" id="wtc-county-columbia" data-county="Columbia" d="M368.0,120.3L369.9,120.6L370.1,122.6L372.2,125.0L377.2,127.0L381.9,124.6L382.6,121.4L385.7,119.7L382.6,116.4L384.7,114.5L386.4,110.9L390.7,108.9L390.4,106.8L390.4,77.4L382.2,76.9L375.3,76.5L372.7,79.0L374.6,84.6L377.0,86.0L378.1,89.8L375.3,93.9L371.5,95.0L368.2,93.7L368.5,116.7L370.6,118.1L368.0,120.3Z"/>
    <path class="wtc-county" id="wtc-county-desoto" data-county="DeSoto" d="M416.9,299.5L416.9,311.0L421.8,310.8L449.4,310.9L449.2,290.8L416.9,290.9L416.9,299.5Z"/>
    <path class="wtc-county" id="wtc-county-dixie" data-county="Dixie" d="M327.6,137.7L328.6,141.3L328.6,147.6L334.2,150.3L335.4,152.8L339.0,153.1L341.5,155.7L343.2,158.9L343.9,162.6L345.6,160.3L347.0,160.7L350.8,158.6L350.5,157.1L353.4,155.3L353.1,154.0L355.9,150.6L356.4,146.0L359.0,142.7L357.8,143.1L356.7,140.5L358.8,135.5L358.1,132.0L360.0,129.3L360.0,127.4L333.8,127.5L333.8,130.4L332.6,131.6L330.7,137.8L327.6,137.7Z"/>
    <path class="wtc-county" id="wtc-county-duval" data-county="Duval" d="M417.3,97.9L417.3,103.5L441.6,103.3L441.6,107.9L445.4,107.0L450.8,107.9L450.8,109.0L457.9,108.9L457.7,99.2L461.5,99.2L460.5,95.9L460.3,89.5L459.3,84.1L457.2,82.3L452.5,78.5L451.6,81.2L448.5,80.5L448.0,78.7L446.1,79.4L446.6,77.3L442.4,78.9L438.8,78.2L437.9,80.7L436.2,80.6L431.7,85.1L417.3,97.9Z"/>
    <path class="wtc-county" id="wtc-county-escambia" data-county="Escambia" d="M52.4,50.2L53.1,52.4L50.0,58.9L50.5,60.2L55.9,64.6L56.6,67.0L65.1,71.5L65.8,75.4L62.3,81.1L63.0,84.2L67.7,87.1L63.5,89.1L61.6,93.7L59.4,94.6L61.1,95.9L57.6,97.4L72.4,94.5L74.1,95.1L81.6,94.2L97.0,91.5L97.0,90.4L86.8,92.0L80.0,93.8L76.4,92.9L76.7,90.6L81.6,89.2L83.5,82.9L81.4,80.6L77.9,79.3L74.8,75.6L73.8,68.6L72.0,68.5L71.2,64.1L72.4,62.4L71.0,60.1L73.1,57.4L72.9,55.0L75.0,54.6L76.7,52.6L80.9,50.1L52.4,50.2Z"/>
    <path class="wtc-county" id="wtc-county-flagler" data-county="Flagler" d="M452.0,140.7L452.0,148.7L454.4,152.3L455.1,155.5L457.9,155.4L458.6,155.3L458.9,164.4L476.6,164.1L476.1,154.6L479.7,153.5L472.3,137.5L468.8,138.0L465.0,140.5L452.0,140.7Z"/>
    <path class="wtc-county" id="wtc-county-franklin" data-county="Franklin" d="M245.0,129.3L245.5,130.7L248.1,130.4L251.8,128.3L251.8,126.7L245.0,129.3ZM221.6,117.7L222.1,119.0L219.7,121.7L221.9,128.5L220.7,130.3L216.2,130.5L209.8,134.8L208.4,137.0L214.1,139.9L217.8,141.1L220.2,143.0L223.0,142.2L231.3,138.5L237.9,136.1L243.6,131.4L242.9,130.7L236.5,135.4L229.7,137.7L222.6,140.7L218.8,139.4L218.3,137.3L215.3,134.5L223.7,134.6L227.3,132.3L228.9,130.1L231.3,130.7L229.7,133.2L231.1,133.3L246.4,125.9L253.7,121.8L259.4,120.5L260.6,122.0L264.1,122.8L266.5,122.4L266.7,118.4L260.3,117.3L258.2,115.7L255.1,116.6L253.3,115.1L222.8,114.9L221.6,117.7Z"/>
    <path class="wtc-county" id="wtc-county-gadsden" data-county="Gadsden" d="M232.2,69.0L229.4,75.1L227.8,75.9L231.1,76.0L231.1,80.7L235.3,80.7L237.7,81.7L237.7,85.6L242.2,85.5L242.2,88.4L244.3,88.4L244.3,90.3L246.6,90.3L254.9,86.1L261.5,85.3L262.9,84.0L263.4,81.0L264.6,77.6L266.9,76.6L270.5,70.7L264.1,70.5L232.2,69.0Z"/>
    <path class="wtc-county" id="wtc-county-gilchrist" data-county="Gilchrist" d="M360.0,127.4L360.0,129.3L358.1,132.0L358.8,135.5L356.7,140.5L357.8,143.1L359.0,142.7L369.9,143.1L370.8,144.6L377.4,144.5L377.4,127.5L377.2,127.0L372.2,125.0L370.1,122.6L369.9,120.6L368.0,120.3L363.7,121.7L362.8,123.3L361.9,127.2L360.0,127.4Z"/>
    <path class="wtc-county" id="wtc-county-glades" data-county="Glades" d="M449.4,310.9L449.2,328.3L490.0,328.3L493.8,315.8L494.8,303.0L492.2,301.7L490.0,299.3L475.2,299.3L475.4,305.1L468.8,305.2L468.8,311.0L449.4,310.9Z"/>
    <path class="wtc-county" id="wtc-county-gulf" data-county="Gulf" d="M197.8,120.8L203.4,128.4L203.2,133.9L200.8,136.1L199.2,134.9L197.8,129.7L197.8,123.8L195.9,126.2L197.1,132.9L200.1,138.2L204.2,136.6L208.4,137.0L209.8,134.8L216.2,130.5L220.7,130.3L221.9,128.5L219.7,121.7L222.1,119.0L221.6,117.7L221.4,116.7L215.7,114.3L214.3,113.0L214.3,110.2L213.1,109.8L215.7,102.7L197.5,102.6L197.8,120.8Z"/>
    <path class="wtc-county" id="wtc-county-hamilton" data-county="Hamilton" d="M336.8,74.2L339.2,81.9L338.7,84.7L340.6,85.8L340.1,88.0L343.0,88.9L343.7,90.5L344.6,88.4L349.3,87.0L349.8,87.8L354.8,87.6L357.1,88.4L362.6,91.8L368.2,93.7L371.5,95.0L375.3,93.9L378.1,89.8L377.0,86.0L374.6,84.6L372.7,79.0L375.3,76.5L345.8,74.8L336.8,74.2Z"/>
    <path class="wtc-county" id="wtc-county-hardee" data-county="Hardee" d="M417.1,270.6L416.9,290.9L449.2,290.8L449.4,270.6L417.1,270.6Z"/>
    <path class="wtc-county" id="wtc-county-hendry" data-county="Hendry" d="M449.2,328.3L449.2,345.2L468.6,344.9L468.8,362.3L494.3,361.8L494.3,357.0L493.8,330.0L493.8,315.8L490.0,328.3L449.2,328.3Z"/>
    <path class="wtc-county" id="wtc-county-hernando" data-county="Hernando" d="M376.7,201.7L376.3,204.8L377.7,208.5L376.5,213.2L377.0,215.5L376.0,218.9L403.9,218.8L404.1,215.9L417.1,215.9L417.1,213.1L414.3,212.8L411.4,210.2L406.7,209.6L402.5,204.2L403.4,203.5L393.0,203.6L393.0,201.6L376.7,201.7Z"/>
    <path class="wtc-county" id="wtc-county-highlands" data-county="Highlands" d="M449.4,270.6L449.2,290.8L449.4,310.9L468.8,311.0L468.8,305.2L475.4,305.1L475.2,299.3L490.0,299.3L486.7,296.6L486.5,293.7L484.8,293.3L483.2,290.8L484.1,289.5L481.1,287.8L479.9,288.2L477.1,286.1L477.3,284.6L472.8,280.9L472.3,278.4L477.1,273.8L477.1,270.8L449.4,270.6Z"/>
    <path class="wtc-county" id="wtc-county-hillsborough" data-county="Hillsborough" d="M377.7,235.9L377.9,246.0L379.1,247.5L384.3,249.6L385.5,251.8L385.7,255.4L384.3,257.4L389.5,259.1L388.3,252.7L393.5,253.9L394.7,258.1L392.1,262.8L388.8,264.3L389.2,265.6L386.2,267.5L384.0,270.7L417.1,270.6L417.1,253.5L416.9,252.2L416.9,236.1L413.6,236.1L393.5,236.1L377.7,235.9Z"/>
    <path class="wtc-county" id="wtc-county-holmes" data-county="Holmes" d="M155.3,50.5L155.1,69.5L167.8,69.6L169.2,67.2L169.2,63.8L173.9,63.9L174.9,66.7L182.7,66.9L182.4,65.1L183.9,61.2L184.1,59.3L188.6,51.8L190.5,50.3L155.3,50.5Z"/>
    <path class="wtc-county" id="wtc-county-indian-river" data-county="Indian River" d="M495.0,259.1L494.1,259.1L494.8,270.9L500.9,270.8L501.1,276.4L507.5,276.4L531.1,276.5L526.9,264.5L522.9,256.5L519.8,256.9L518.6,259.1L495.0,259.1Z"/>
    <path class="wtc-county" id="wtc-county-jackson" data-county="Jackson" d="M190.5,50.3L188.6,51.8L184.1,59.3L183.9,61.2L191.6,61.2L191.6,64.1L194.9,64.2L194.7,78.5L198.0,78.5L211.9,78.7L212.2,75.8L227.8,75.9L229.4,75.1L232.2,69.0L231.5,68.0L228.9,66.3L227.5,62.1L227.1,57.4L224.5,54.5L223.0,50.0L191.2,50.2L190.5,50.3Z"/>
    <path class="wtc-county" id="wtc-county-jefferson" data-county="Jefferson" d="M284.2,97.8L283.9,109.6L287.5,109.0L289.6,110.3L292.2,103.6L293.6,103.4L294.6,99.7L299.8,97.3L300.9,95.9L303.1,94.0L301.9,92.6L302.6,90.5L305.0,90.5L307.3,87.2L306.4,82.4L310.6,79.4L313.0,79.5L315.1,77.6L314.6,73.0L305.9,72.5L288.7,71.6L288.7,75.8L290.6,81.5L286.3,81.5L286.3,84.7L284.2,87.2L284.2,97.8Z"/>
    <path class="wtc-county" id="wtc-county-lafayette" data-county="Lafayette" d="M330.7,98.7L330.5,123.2L331.6,123.2L331.6,127.5L333.8,127.5L360.0,127.4L361.9,127.2L362.8,123.3L359.7,121.0L359.5,118.6L357.4,116.3L354.5,115.1L354.1,113.7L350.5,111.5L350.3,110.5L344.4,108.6L342.7,109.6L339.9,108.4L338.5,103.7L338.5,98.7L330.7,98.7Z"/>
    <path class="wtc-county" id="wtc-county-lake" data-county="Lake" d="M423.7,184.2L423.7,211.1L423.5,224.6L430.1,224.6L430.1,223.6L434.3,223.6L434.3,224.6L443.1,224.5L443.1,196.9L443.8,195.7L459.1,195.7L458.9,193.1L462.2,189.6L463.1,188.4L463.1,182.6L456.3,177.4L455.8,175.3L453.4,175.2L451.3,170.0L449.4,168.4L445.9,168.0L444.2,163.4L444.5,178.4L443.1,178.4L443.1,184.2L423.7,184.2Z"/>
    <path class="wtc-county" id="wtc-county-lee" data-county="Lee" d="M416.6,328.2L414.5,335.1L412.4,332.9L409.3,332.7L408.6,334.1L411.4,337.0L413.3,343.4L413.6,347.1L416.9,346.5L416.9,342.8L419.7,344.1L419.9,347.1L422.5,347.6L429.1,354.0L430.8,357.2L432.4,358.1L443.1,358.0L443.1,351.2L449.4,351.1L449.2,345.2L449.2,328.3L416.6,328.2ZM403.2,333.0L403.2,335.8L404.6,340.1L407.6,346.6L409.3,348.2L414.3,351.0L416.4,350.9L419.7,349.2L416.4,348.0L414.7,348.9L410.7,347.5L408.8,345.9L404.3,334.0L403.2,333.0ZM402.7,327.0L402.9,331.5L404.1,328.7L406.2,328.3L402.7,327.0Z"/>
    <path class="wtc-county" id="wtc-county-leon" data-county="Leon" d="M246.6,90.3L241.9,93.9L242.2,96.1L272.4,95.9L273.1,97.8L284.2,97.8L284.2,87.2L286.3,84.7L286.3,81.5L290.6,81.5L288.7,75.8L288.7,71.6L283.5,71.4L270.5,70.7L266.9,76.6L264.6,77.6L263.4,81.0L262.9,84.0L261.5,85.3L254.9,86.1L246.6,90.3Z"/>
    <path class="wtc-county" id="wtc-county-levy" data-county="Levy" d="M343.9,162.6L346.5,163.0L349.8,164.8L349.1,167.4L351.2,173.0L352.9,172.8L355.0,169.9L366.1,171.2L367.8,171.9L368.0,174.7L366.8,176.6L370.6,178.0L370.6,182.0L373.7,179.6L375.3,179.4L380.3,181.0L381.4,179.6L385.5,178.7L385.5,167.5L394.2,167.4L394.0,149.7L384.0,150.0L384.0,146.2L377.4,146.4L377.4,144.5L370.8,144.6L369.9,143.1L359.0,142.7L356.4,146.0L355.9,150.6L353.1,154.0L353.4,155.3L350.5,157.1L350.8,158.6L347.0,160.7L345.6,160.3L343.9,162.6Z"/>
    <path class="wtc-county" id="wtc-county-liberty" data-county="Liberty" d="M215.7,102.7L213.1,109.8L214.3,110.2L214.3,113.0L215.7,114.3L221.4,116.7L221.6,117.7L222.8,114.9L253.3,115.1L250.2,113.9L247.8,111.7L245.0,107.4L245.0,103.8L243.1,99.7L240.5,98.4L242.2,96.1L241.9,93.9L246.6,90.3L244.3,90.3L244.3,88.4L242.2,88.4L242.2,85.5L237.7,85.6L237.7,81.7L235.3,80.7L231.1,80.7L231.1,76.0L227.8,75.9L224.0,81.3L223.3,85.8L224.5,86.8L221.2,88.2L222.3,88.9L217.8,100.8L215.7,102.7Z"/>
    <path class="wtc-county" id="wtc-county-madison" data-county="Madison" d="M314.6,73.0L315.1,77.6L313.0,79.5L310.6,79.4L306.4,82.4L307.3,87.2L305.0,90.5L302.6,90.5L301.9,92.6L303.1,94.0L300.9,95.9L324.1,95.8L324.1,98.7L330.7,98.7L338.5,98.7L341.1,95.3L340.8,93.2L343.7,90.5L343.0,88.9L340.1,88.0L340.6,85.8L338.7,84.7L339.2,81.9L336.8,74.2L331.4,73.9L314.6,73.0Z"/>
    <path class="wtc-county" id="wtc-county-manatee" data-county="Manatee" d="M384.0,270.7L383.1,273.1L380.3,274.6L377.9,278.7L374.4,280.4L374.1,278.7L371.8,277.6L374.1,281.1L375.1,284.4L378.4,287.5L404.1,287.8L403.9,299.3L416.9,299.5L416.9,290.9L417.1,270.6L384.0,270.7Z"/>
    <path class="wtc-county" id="wtc-county-marion" data-county="Marion" d="M394.0,149.7L394.2,167.4L385.5,167.5L385.5,178.7L390.4,178.5L393.0,180.7L398.2,182.4L400.1,184.2L423.7,184.2L443.1,184.2L443.1,178.4L444.5,178.4L444.2,163.4L441.6,160.2L443.3,159.4L442.4,157.1L437.6,157.2L437.6,153.3L435.5,153.3L435.3,149.6L431.0,149.6L431.0,147.4L425.1,147.6L420.4,148.6L416.9,150.6L416.9,152.7L411.7,153.0L407.9,153.9L406.7,153.3L406.7,149.8L394.0,149.7Z"/>
    <path class="wtc-county" id="wtc-county-martin" data-county="Martin" d="M507.5,299.6L507.5,305.2L493.8,315.8L542.9,316.0L542.9,315.0L546.9,315.1L544.6,308.4L542.9,305.8L541.5,300.5L539.1,295.8L533.5,295.8L533.5,299.6L507.5,299.6Z"/>
    <path class="wtc-county" id="wtc-county-miami-dade" data-county="Miami-Dade" d="M534.4,421.5L535.6,422.2L538.7,417.4L540.6,412.7L540.6,410.4L538.9,412.7L534.4,421.5ZM494.8,391.7L494.8,420.8L495.5,420.7L495.7,433.1L498.8,432.5L503.0,435.0L505.1,434.7L508.5,432.3L516.5,431.1L517.9,430.1L519.5,431.6L519.5,429.7L524.5,429.1L526.2,428.0L527.3,424.5L530.2,422.4L532.1,419.4L530.6,418.5L531.1,415.9L529.9,414.0L530.4,409.6L532.3,407.4L532.5,403.8L533.9,402.8L536.3,397.0L540.1,395.6L541.3,396.7L540.6,399.6L542.0,400.9L542.0,398.4L543.6,393.9L544.3,389.3L544.3,380.5L532.8,380.9L531.8,381.7L507.5,381.7L507.5,380.3L494.8,380.3L494.8,391.7Z"/>
    <path class="wtc-county" id="wtc-county-monroe" data-county="Monroe" d="M519.5,431.6L521.7,430.9L523.1,432.2L521.9,434.0L521.2,438.6L519.5,441.6L516.2,443.9L508.2,450.8L508.9,451.4L514.6,447.7L522.6,439.9L528.5,434.6L530.6,430.0L535.6,422.2L534.4,421.5L533.0,423.7L529.9,425.6L527.3,424.5L526.2,428.0L524.5,429.1L519.5,429.7L519.5,431.6ZM502.8,454.0L504.0,455.0L507.3,452.5L506.1,450.7L502.8,454.0ZM496.2,457.6L499.7,457.0L500.9,455.2L498.3,455.4L496.2,457.6ZM478.2,463.9L481.3,465.1L491.9,460.5L490.5,458.8L478.2,463.9ZM455.6,391.8L461.2,393.6L463.4,399.3L466.0,398.4L467.4,399.5L468.6,404.3L471.2,406.1L473.0,409.6L472.6,411.5L475.2,414.2L478.0,419.6L478.5,422.4L477.1,422.2L475.6,425.6L475.2,430.1L477.1,433.9L481.1,436.9L486.5,436.5L492.9,435.5L492.9,434.0L495.7,433.1L495.5,420.7L494.8,420.8L494.8,391.7L455.6,391.8ZM432.9,473.0L432.9,474.6L441.4,473.7L452.3,469.6L453.0,468.2L459.3,467.9L460.1,469.5L469.5,466.8L470.4,466.1L467.1,463.7L466.2,460.8L457.2,457.0L448.7,460.7L448.0,462.0L442.1,464.4L437.4,467.0L432.9,473.0ZM419.7,474.7L419.5,476.1L422.5,476.6L426.5,475.8L428.9,473.4L419.7,474.7ZM409.8,473.4L412.8,474.3L414.0,472.0L411.2,471.4L409.8,473.4ZM359.3,468.8L359.0,470.0L363.7,469.4L362.8,468.1L359.3,468.8Z"/>
    <path class="wtc-county" id="wtc-county-nassau" data-county="Nassau" d="M427.0,61.9L423.9,61.4L421.8,64.7L419.0,64.3L419.9,65.7L418.0,66.6L418.3,69.3L417.3,72.7L420.2,77.9L419.5,84.6L418.0,87.2L418.3,90.5L417.3,92.0L417.3,97.9L431.7,85.1L436.2,80.6L437.9,80.7L438.8,78.2L442.4,78.9L446.6,77.3L446.1,79.4L448.0,78.7L448.5,80.5L451.6,81.2L452.5,78.5L457.2,82.3L457.2,76.3L458.2,69.9L457.2,69.2L454.2,68.1L450.8,68.9L446.8,67.9L439.0,66.8L437.4,65.4L433.1,63.8L429.1,63.7L427.0,61.9Z"/>
    <path class="wtc-county" id="wtc-county-okaloosa" data-county="Okaloosa" d="M105.9,50.2L105.0,90.4L115.9,89.8L131.4,90.9L131.9,50.5L112.3,50.4L105.9,50.2Z"/>
    <path class="wtc-county" id="wtc-county-okeechobee" data-county="Okeechobee" d="M477.1,270.8L477.1,273.8L472.3,278.4L472.8,280.9L477.3,284.6L477.1,286.1L479.9,288.2L481.1,287.8L484.1,289.5L483.2,290.8L484.8,293.3L486.5,293.7L486.7,296.6L490.0,299.3L492.2,301.7L494.8,303.0L493.8,315.8L507.5,305.2L507.5,299.6L507.5,276.4L501.1,276.4L500.9,270.8L494.8,270.9L477.1,270.8Z"/>
    <path class="wtc-county" id="wtc-county-orange" data-county="Orange" d="M459.1,195.7L443.8,195.7L443.1,196.9L443.1,224.5L495.5,224.5L492.9,218.9L494.8,216.3L494.3,214.2L490.7,211.8L489.6,207.6L487.2,207.1L464.8,207.2L464.8,205.3L456.3,205.3L456.0,200.4L458.6,198.9L459.1,195.7Z"/>
    <path class="wtc-county" id="wtc-county-osceola" data-county="Osceola" d="M443.1,224.5L443.1,230.3L449.7,230.3L451.8,234.1L451.8,238.0L456.3,237.9L456.3,241.8L463.6,241.8L462.2,243.3L461.2,246.6L460.5,245.6L456.0,244.0L459.1,247.5L461.0,247.1L461.7,248.8L466.0,252.5L466.4,256.5L471.2,257.8L472.6,259.1L476.8,266.4L477.1,270.8L494.8,270.9L494.1,259.1L495.0,259.1L495.0,241.8L495.5,241.3L495.5,224.5L443.1,224.5Z"/>
    <path class="wtc-county" id="wtc-county-palm-beach" data-county="Palm Beach" d="M493.8,315.8L493.8,330.0L494.3,357.0L532.5,356.9L532.5,355.6L538.7,357.4L547.2,357.8L548.1,349.7L549.8,339.8L550.0,326.5L546.9,315.1L542.9,315.0L542.9,316.0L493.8,315.8Z"/>
    <path class="wtc-county" id="wtc-county-pasco" data-county="Pasco" d="M376.0,218.9L374.1,221.0L374.1,223.2L372.5,226.0L372.5,228.1L370.6,230.6L370.3,233.0L367.8,236.1L377.7,235.9L393.5,236.1L413.6,236.1L413.6,230.3L416.9,230.4L416.9,226.8L417.1,215.9L404.1,215.9L403.9,218.8L376.0,218.9ZM366.1,236.1L366.1,233.0L364.0,233.1L364.0,236.1L366.1,236.1Z"/>
    <path class="wtc-county" id="wtc-county-pinellas" data-county="Pinellas" d="M366.1,236.1L364.0,236.1L364.9,242.3L366.1,246.1L364.7,256.3L366.6,259.6L368.7,261.1L372.0,265.9L371.5,270.6L372.5,272.8L374.6,271.1L372.9,269.0L373.7,267.2L378.6,266.9L379.6,265.3L379.6,261.8L381.9,259.5L379.3,253.2L375.5,252.9L372.9,250.8L375.5,249.2L375.3,245.6L377.9,246.0L377.7,235.9L367.8,236.1L368.7,237.4L369.2,243.7L367.0,243.3L366.1,236.1Z"/>
    <path class="wtc-county" id="wtc-county-polk" data-county="Polk" d="M416.9,226.8L416.9,230.4L413.6,230.3L413.6,236.1L416.9,236.1L416.9,252.2L417.1,253.5L417.1,270.6L449.4,270.6L477.1,270.8L476.8,266.4L472.6,259.1L471.2,257.8L466.4,256.5L466.0,252.5L461.7,248.8L461.0,247.1L459.1,247.5L456.0,244.0L460.5,245.6L461.2,246.6L462.2,243.3L463.6,241.8L456.3,241.8L456.3,237.9L451.8,238.0L451.8,234.1L449.7,230.3L443.1,230.3L443.1,224.5L434.3,224.6L434.3,223.6L430.1,223.6L430.1,224.6L423.5,224.6L423.5,227.1L419.2,226.1L416.9,226.8Z"/>
    <path class="wtc-county" id="wtc-county-putnam" data-county="Putnam" d="M416.9,134.4L417.1,137.6L416.9,150.6L420.4,148.6L425.1,147.6L431.0,147.4L431.0,149.6L435.3,149.6L435.5,153.3L437.6,153.3L437.6,157.2L442.4,157.1L443.3,159.4L441.6,160.2L457.0,156.6L457.9,155.4L455.1,155.5L454.4,152.3L452.0,148.7L452.0,140.7L451.8,131.6L449.2,128.8L448.3,126.3L432.9,126.6L429.6,129.0L426.5,129.4L424.6,132.4L420.2,132.9L417.3,134.3L416.9,134.4Z"/>
    <path class="wtc-county" id="wtc-county-st-johns" data-county="St. Johns" d="M441.6,107.9L440.9,113.0L441.4,114.8L446.6,118.3L446.4,121.4L448.3,126.3L449.2,128.8L451.8,131.6L452.0,140.7L465.0,140.5L468.8,138.0L472.3,137.5L469.0,128.0L469.0,125.1L466.0,117.9L461.5,99.2L457.7,99.2L457.9,108.9L450.8,109.0L450.8,107.9L445.4,107.0L441.6,107.9Z"/>
    <path class="wtc-county" id="wtc-county-st-lucie" data-county="St. Lucie" d="M507.5,276.4L507.5,299.6L533.5,299.6L533.5,295.8L539.1,295.8L535.4,288.2L532.8,280.2L531.1,276.5L507.5,276.4Z"/>
    <path class="wtc-county" id="wtc-county-santa-rosa" data-county="Santa Rosa" d="M80.9,50.1L76.7,52.6L75.0,54.6L72.9,55.0L73.1,57.4L71.0,60.1L72.4,62.4L71.2,64.1L72.0,68.5L73.8,68.6L74.8,75.6L77.9,79.3L81.4,80.6L83.5,82.9L81.6,89.2L76.7,90.6L76.4,92.9L80.0,93.8L86.8,92.0L97.0,90.4L97.0,91.5L105.0,90.4L105.9,50.2L80.9,50.1Z"/>
    <path class="wtc-county" id="wtc-county-sarasota" data-county="Sarasota" d="M378.4,287.5L384.7,296.0L389.2,303.9L391.4,309.2L395.8,316.7L403.9,316.7L403.9,311.0L416.9,311.0L416.9,299.5L403.9,299.3L404.1,287.8L378.4,287.5Z"/>
    <path class="wtc-county" id="wtc-county-seminole" data-county="Seminole" d="M459.1,195.7L458.6,198.9L456.0,200.4L456.3,205.3L464.8,205.3L464.8,207.2L487.2,207.1L485.1,203.0L485.3,201.8L482.2,198.0L483.0,196.5L482.0,193.9L479.4,192.9L477.3,195.3L474.7,195.9L472.1,194.2L471.6,192.6L465.3,192.5L462.9,191.6L462.2,189.6L458.9,193.1L459.1,195.7Z"/>
    <path class="wtc-county" id="wtc-county-sumter" data-county="Sumter" d="M400.1,184.2L402.7,188.4L408.6,193.3L409.5,195.2L408.1,197.5L404.1,200.2L403.4,203.5L402.5,204.2L406.7,209.6L411.4,210.2L414.3,212.8L417.1,213.1L417.1,215.9L416.9,226.8L419.2,226.1L423.5,227.1L423.5,224.6L423.7,211.1L423.7,184.2L400.1,184.2Z"/>
    <path class="wtc-county" id="wtc-county-suwannee" data-county="Suwannee" d="M338.5,98.7L338.5,103.7L339.9,108.4L342.7,109.6L344.4,108.6L350.3,110.5L350.5,111.5L354.1,113.7L354.5,115.1L357.4,116.3L359.5,118.6L359.7,121.0L362.8,123.3L363.7,121.7L368.0,120.3L370.6,118.1L368.5,116.7L368.2,93.7L362.6,91.8L357.1,88.4L354.8,87.6L349.8,87.8L349.3,87.0L344.6,88.4L343.7,90.5L340.8,93.2L341.1,95.3L338.5,98.7Z"/>
    <path class="wtc-county" id="wtc-county-taylor" data-county="Taylor" d="M300.9,95.9L299.8,97.3L294.6,99.7L293.6,103.4L292.2,103.6L289.6,110.3L293.6,113.3L303.1,117.3L309.7,120.9L313.0,123.3L314.2,126.2L316.3,128.2L316.3,130.6L319.4,134.0L322.4,135.0L324.8,137.1L327.6,137.7L330.7,137.8L332.6,131.6L333.8,130.4L333.8,127.5L331.6,127.5L331.6,123.2L330.5,123.2L330.7,98.7L324.1,98.7L324.1,95.8L300.9,95.9Z"/>
    <path class="wtc-county" id="wtc-county-union" data-county="Union" d="M390.4,106.8L390.7,108.9L386.4,110.9L384.7,114.5L382.6,116.4L385.7,119.7L393.0,120.9L400.3,118.7L403.4,114.0L405.8,113.6L411.0,108.6L411.2,106.4L390.4,106.8Z"/>
    <path class="wtc-county" id="wtc-county-volusia" data-county="Volusia" d="M441.6,160.2L444.2,163.4L445.9,168.0L449.4,168.4L451.3,170.0L453.4,175.2L455.8,175.3L456.3,177.4L463.1,182.6L463.1,188.4L462.2,189.6L462.9,191.6L465.3,192.5L471.6,192.6L472.1,194.2L474.7,195.9L477.3,195.3L479.4,192.9L482.0,193.9L483.0,196.5L482.2,198.0L485.3,201.8L485.1,203.0L487.2,207.1L488.6,207.1L488.4,195.4L504.0,195.3L490.0,174.3L483.2,161.4L479.7,153.5L476.1,154.6L476.6,164.1L458.9,164.4L458.6,155.3L457.9,155.4L457.0,156.6L441.6,160.2Z"/>
    <path class="wtc-county" id="wtc-county-wakulla" data-county="Wakulla" d="M242.2,96.1L240.5,98.4L243.1,99.7L245.0,103.8L245.0,107.4L247.8,111.7L250.2,113.9L253.3,115.1L255.1,116.6L258.2,115.7L260.3,117.3L266.7,118.4L265.1,115.3L271.2,111.4L271.4,109.4L278.8,111.0L283.9,109.6L284.2,97.8L273.1,97.8L272.4,95.9L242.2,96.1Z"/>
    <path class="wtc-county" id="wtc-county-walton" data-county="Walton" d="M131.9,50.5L131.4,90.9L137.8,91.9L151.5,95.9L157.9,98.1L157.9,90.2L160.0,86.9L164.0,86.6L166.9,83.6L165.0,81.6L165.4,79.3L163.1,76.6L163.1,74.0L166.1,72.2L167.8,69.6L155.1,69.5L155.3,50.5L145.1,50.5L131.9,50.5Z"/>
    <path class="wtc-county" id="wtc-county-washington" data-county="Washington" d="M167.8,69.6L166.1,72.2L163.1,74.0L163.1,76.6L165.4,79.3L165.0,81.6L166.9,83.6L164.0,86.6L160.0,86.9L157.9,90.2L159.8,88.8L165.2,88.8L167.1,86.8L191.2,87.1L191.4,78.5L194.7,78.5L194.9,64.2L191.6,64.1L191.6,61.2L183.9,61.2L182.4,65.1L182.7,66.9L174.9,66.7L173.9,63.9L169.2,63.8L169.2,67.2L167.8,69.6Z"/>
  </g>
</svg>