<?xml version="1.0" encoding="UTF-8"?>
<svg xmlns="http://www.w3.org/2000/svg" viewBox="0 0 600 501" id="wtc-state-map-FL" role="img" aria-label="fl county map">
  <title>fl Counties</title>
  <g class="wtc-counties">
    <path class="wtc-county" id="wtc-county-alachua" data-county="Alachua" d="M377.2,374.4L377.4,373.9L377.4,357.0L377.4,355.1L384.0,355.2L384.0,351.4L394.0,351.8L406.7,351.7L406.7,348.2L407.9,347.5L411.7,348.4L416.9,348.8L416.9,350.8L417.1,363.9L416.9,367.1L415.4,370.9L413.3,371.3L411.9,374.8L408.1,375.6L402.7,375.3L398.4,377.7L394.4,378.2L393.0,380.5L385.7,381.7L382.6,380.0L381.9,376.9L377.2,374.4Z"/>
    <path class="wtc-county" id="wtc-county-baker" data-county="Baker" d="M390.4,424.0L390.4,394.6L411.2,395.1L417.3,395.1L417.3,397.9L417.3,403.6L417.3,409.5L413.8,409.9L409.3,409.2L406.7,413.5L407.4,417.5L405.8,419.0L405.3,422.2L406.5,423.0L393.0,423.9L390.4,424.0Z"/>
    <path class="wtc-county" id="wtc-county-bay" data-county="Bay" d="M157.9,411.2L157.9,403.3L162.6,401.3L172.3,395.9L177.5,392.0L183.9,389.3L187.6,385.3L191.2,383.1L195.2,382.3L197.8,380.6L197.5,398.8L198.0,422.9L194.7,423.0L191.4,423.0L191.2,414.3L167.1,414.6L165.2,412.6L159.8,412.6L157.9,411.2Z"/>
    <path class="wtc-county" id="wtc-county-bradford" data-county="Bradford" d="M393.0,380.5L394.4,378.2L398.4,377.7L402.7,375.3L408.1,375.6L411.9,374.8L413.3,371.3L415.4,370.9L416.9,367.1L417.3,367.1L417.6,369.0L417.3,395.1L411.2,395.1L411.0,392.8L405.8,387.9L403.4,387.5L400.3,382.7L393.0,380.5Z"/>
    <path class="wtc-county" id="wtc-county-brevard" data-county="Brevard" d="M504.0,306.1L488.4,306.1L488.6,294.4L487.2,294.4L489.6,293.9L490.7,289.6L494.3,287.2L494.8,285.1L492.9,282.6L495.5,276.9L495.5,260.1L495.0,259.6L495.0,242.4L518.6,242.4L519.8,244.5L522.9,244.9L518.6,252.2L514.8,260.4L513.4,265.8L512.2,273.1L512.5,278.0L513.4,281.1L517.7,284.3L515.3,289.0L514.4,292.6L505.4,303.9L504.0,306.1Z"/>
    <path class="wtc-county" id="wtc-county-broward" data-county="Broward" d="M494.3,144.5L494.3,139.6L494.8,121.2L507.5,121.1L507.5,119.7L531.8,119.7L532.8,120.6L544.3,120.9L546.2,137.8L547.2,143.6L538.7,144.1L532.5,145.9L532.5,144.5L494.3,144.5Z"/>
    <path class="wtc-county" id="wtc-county-calhoun" data-county="Calhoun" d="M198.0,422.9L197.5,398.8L215.7,398.8L217.8,400.6L222.3,412.5L221.2,413.2L224.5,414.7L223.3,415.6L224.0,420.1L227.8,425.5L212.2,425.6L211.9,422.7L198.0,422.9Z"/>
    <path class="wtc-county" id="wtc-county-charlotte" data-county="Charlotte" d="M395.8,184.8L401.5,177.0L402.7,174.5L406.2,173.1L411.0,174.5L409.1,182.8L411.7,183.5L412.8,185.3L415.7,185.5L416.6,183.8L414.7,183.2L414.7,181.0L416.6,180.2L417.1,175.3L416.6,173.2L449.2,173.2L449.4,190.5L421.8,190.6L416.9,190.4L403.9,190.5L403.9,184.7L395.8,184.8Z"/>
    <path class="wtc-county" id="wtc-county-citrus" data-county="Citrus" d="M385.5,322.8L381.4,321.8L380.3,320.5L375.3,322.1L373.7,321.9L370.6,319.4L372.2,318.1L375.3,313.6L372.5,310.0L374.6,303.9L373.7,301.5L376.7,299.7L393.0,299.8L393.0,297.9L403.4,298.0L404.1,301.3L408.1,304.0L409.5,306.2L408.6,308.1L402.7,313.1L400.1,317.3L398.2,319.1L393.0,320.7L390.4,323.0L385.5,322.8Z"/>
    <path class="wtc-county" id="wtc-county-clay" data-county="Clay" d="M417.3,397.9L417.3,395.1L417.6,369.0L417.3,367.1L420.2,368.5L424.6,369.0L426.5,372.1L429.6,372.5L432.9,374.9L448.3,375.1L446.4,380.1L446.6,383.1L441.4,386.7L440.9,388.4L441.6,393.6L441.6,398.2L417.3,397.9Z"/>
    <path class="wtc-county" id="wtc-county-collier" data-county="Collier" d="M430.8,144.2L432.4,138.1L433.6,128.3L437.2,119.9L440.9,112.8L442.8,115.0L445.4,115.8L450.4,112.7L455.3,110.5L455.6,109.6L494.8,109.7L494.8,121.2L494.3,139.6L468.8,139.2L468.6,156.6L449.2,156.3L449.4,150.3L443.1,150.2L443.1,143.4L432.4,143.3L430.8,144.2Z"/>
    <path class="wtc-county" id="wtc-county-columbia" data-county="Columbia" d="M368.0,381.2L369.9,380.9L370.1,378.8L372.2,376.4L377.2,374.4L381.9,376.9L382.6,380.0L385.7,381.7L382.6,385.0L384.7,386.9L386.4,390.6L390.7,392.6L390.4,394.6L390.4,424.0L382.2,424.5L375.3,424.9L372.7,422.4L374.6,416.9L377.0,415.5L378.1,411.6L375.3,407.5L371.5,406.5L368.2,407.8L368.5,384.7L370.6,383.4L368.0,381.2Z"/>
    <path class="wtc-county" id="wtc-county-desoto" data-county="DeSoto" d="M416.9,202.0L416.9,190.4L421.8,190.6L449.4,190.5L449.2,210.7L416.9,210.6L416.9,202.0Z"/>
    <path class="wtc-county" id="wtc-county-dixie" data-county="Dixie" d="M327.6,363.7L328.6,360.1L328.6,353.9L334.2,351.2L335.4,348.7L339.0,348.3L341.5,345.8L343.2,342.5L343.9,338.8L345.6,341.2L347.0,340.7L350.8,342.8L350.5,344.4L353.4,346.1L353.1,347.5L355.9,350.8L356.4,355.4L359.0,358.7L357.8,358.4L356.7,360.9L358.8,366.0L358.1,369.5L360.0,372.1L360.0,374.0L333.8,374.0L333.8,371.0L332.6,369.9L330.7,363.6L327.6,363.7Z"/>
    <path class="wtc-county" id="wtc-county-duval" data-county="Duval" d="M417.3,403.6L417.3,397.9L441.6,398.2L441.6,393.6L445.4,394.4L450.8,393.5L450.8,392.5L457.9,392.6L457.7,402.2L461.5,402.2L460.5,405.6L460.3,411.9L459.3,417.3L457.2,419.2L452.5,422.9L451.6,420.3L448.5,421.0L448.0,422.7L446.1,422.1L446.6,424.1L442.4,422.5L438.8,423.2L437.9,420.8L436.2,420.8L431.7,416.4L417.3,403.6Z"/>
    <path class="wtc-county" id="wtc-county-escambia" data-county="Escambia" d="M52.4,451.2L53.1,449.1L50.0,442.6L50.5,441.3L55.9,436.8L56.6,434.5L65.1,430.0L65.8,426.1L62.3,420.3L63.0,417.2L67.7,414.3L63.5,412.3L61.6,407.7L59.4,406.9L61.1,405.5L57.6,404.0L72.4,406.9L74.1,406.4L81.6,407.2L97.0,410.0L97.0,411.0L86.8,409.5L80.0,407.6L76.4,408.6L76.7,410.9L81.6,412.3L83.5,418.5L81.4,420.8L77.9,422.1L74.8,425.8L73.8,432.8L72.0,432.9L71.2,437.4L72.4,439.1L71.0,441.3L73.1,444.0L72.9,446.5L75.0,446.9L76.7,448.8L80.9,451.3L52.4,451.2Z"/>
    <path class="wtc-county" id="wtc-county-flagler" data-county="Flagler" d="M452.0,360.8L452.0,352.7L454.4,349.2L455.1,346.0L457.9,346.1L458.6,346.1L458.9,337.0L476.6,337.4L476.1,346.9L479.7,347.9L472.3,364.0L468.8,363.5L465.0,361.0L452.0,360.8Z"/>
    <path class="wtc-county" id="wtc-county-franklin" data-county="Franklin" d="M245.0,372.1L245.5,370.7L248.1,371.0L251.8,373.1L251.8,374.8L245.0,372.1ZM221.6,383.8L222.1,382.4L219.7,379.7L221.9,373.0L220.7,371.2L216.2,370.9L209.8,366.6L208.4,364.4L214.1,361.5L217.8,360.3L220.2,358.4L223.0,359.2L231.3,363.0L237.9,365.4L243.6,370.0L242.9,370.8L236.5,366.0L229.7,363.8L222.6,360.8L218.8,362.0L218.3,364.1L215.3,366.9L223.7,366.9L227.3,369.2L228.9,371.4L231.3,370.7L229.7,368.2L231.1,368.1L246.4,375.6L253.7,379.7L259.4,380.9L260.6,379.5L264.1,378.6L266.5,379.0L266.7,383.0L260.3,384.1L258.2,385.7L255.1,384.9L253.3,386.4L222.8,386.5L221.6,383.8Z"/>
    <path class="wtc-county" id="wtc-county-gadsden" data-county="Gadsden" d="M232.2,432.4L229.4,426.4L227.8,425.5L231.1,425.5L231.1,420.7L235.3,420.7L237.7,419.7L237.7,415.8L242.2,415.9L242.2,413.1L244.3,413.1L244.3,411.2L246.6,411.2L254.9,415.3L261.5,416.1L262.9,417.4L263.4,420.4L264.6,423.8L266.9,424.8L270.5,430.7L264.1,431.0L232.2,432.4Z"/>
    <path class="wtc-county" id="wtc-county-gilchrist" data-county="Gilchrist" d="M360.0,374.0L360.0,372.1L358.1,369.5L358.8,366.0L356.7,360.9L357.8,358.4L359.0,358.7L369.9,358.3L370.8,356.9L377.4,357.0L377.4,373.9L377.2,374.4L372.2,376.4L370.1,378.8L369.9,380.9L368.0,381.2L363.7,379.7L362.8,378.2L361.9,374.2L360.0,374.0Z"/>
    <path class="wtc-county" id="wtc-county-glades" data-county="Glades" d="M449.4,190.5L449.2,173.2L490.0,173.1L493.8,185.6L494.8,198.5L492.2,199.8L490.0,202.2L475.2,202.1L475.4,196.3L468.8,196.3L468.8,190.5L449.4,190.5Z"/>
    <path class="wtc-county" id="wtc-county-gulf" data-county="Gulf" d="M197.8,380.6L203.4,373.0L203.2,367.5L200.8,365.3L199.2,366.6L197.8,371.7L197.8,377.7L195.9,375.3L197.1,368.6L200.1,363.2L204.2,364.8L208.4,364.4L209.8,366.6L216.2,370.9L220.7,371.2L221.9,373.0L219.7,379.7L222.1,382.4L221.6,383.8L221.4,384.8L215.7,387.1L214.3,388.4L214.3,391.3L213.1,391.7L215.7,398.8L197.5,398.8L197.8,380.6Z"/>
    <path class="wtc-county" id="wtc-county-hamilton" data-county="Hamilton" d="M336.8,427.2L339.2,419.5L338.7,416.7L340.6,415.6L340.1,413.5L343.0,412.6L343.7,410.9L344.6,413.1L349.3,414.4L349.8,413.6L354.8,413.9L357.1,413.1L362.6,409.6L368.2,407.8L371.5,406.5L375.3,407.5L378.1,411.6L377.0,415.5L374.6,416.9L372.7,422.4L375.3,424.9L345.8,426.6L336.8,427.2Z"/>
    <path class="wtc-county" id="wtc-county-hardee" data-county="Hardee" d="M417.1,230.8L416.9,210.6L449.2,210.7L449.4,230.9L417.1,230.8Z"/>
    <path class="wtc-county" id="wtc-county-hendry" data-county="Hendry" d="M449.2,173.2L449.2,156.3L468.6,156.6L468.8,139.2L494.3,139.6L494.3,144.5L493.8,171.5L493.8,185.6L490.0,173.1L449.2,173.2Z"/>
    <path class="wtc-county" id="wtc-county-hernando" data-county="Hernando" d="M376.7,299.7L376.3,296.7L377.7,293.0L376.5,288.3L377.0,285.9L376.0,282.6L403.9,282.7L404.1,285.6L417.1,285.6L417.1,288.4L414.3,288.6L411.4,291.3L406.7,291.8L402.5,297.2L403.4,298.0L393.0,297.9L393.0,299.8L376.7,299.7Z"/>
    <path class="wtc-county" id="wtc-county-highlands" data-county="Highlands" d="M449.4,230.9L449.2,210.7L449.4,190.5L468.8,190.5L468.8,196.3L475.4,196.3L475.2,202.1L490.0,202.2L486.7,204.8L486.5,207.7L484.8,208.1L483.2,210.7L484.1,211.9L481.1,213.7L479.9,213.2L477.1,215.4L477.3,216.8L472.8,220.5L472.3,223.1L477.1,227.6L477.1,230.6L449.4,230.9Z"/>
    <path class="wtc-county" id="wtc-county-hillsborough" data-county="Hillsborough" d="M377.7,265.5L377.9,255.4L379.1,254.0L384.3,251.9L385.5,249.7L385.7,246.0L384.3,244.1L389.5,242.4L388.3,248.8L393.5,247.6L394.7,243.3L392.1,238.6L388.8,237.1L389.2,235.8L386.2,233.9L384.0,230.7L417.1,230.8L417.1,248.0L416.9,249.3L416.9,265.4L413.6,265.4L393.5,265.3L377.7,265.5Z"/>
    <path class="wtc-county" id="wtc-county-holmes" data-county="Holmes" d="M155.3,450.9L155.1,431.9L167.8,431.8L169.2,434.2L169.2,437.7L173.9,437.5L174.9,434.7L182.7,434.5L182.4,436.3L183.9,440.3L184.1,442.1L188.6,449.7L190.5,451.2L155.3,450.9Z"/>
    <path class="wtc-county" id="wtc-county-indian-river" data-county="Indian River" d="M495.0,242.4L494.1,242.4L494.8,230.5L500.9,230.6L501.1,225.0L507.5,225.0L531.1,225.0L526.9,237.0L522.9,244.9L519.8,244.5L518.6,242.4L495.0,242.4Z"/>
    <path class="wtc-county" id="wtc-county-jackson" data-county="Jackson" d="M190.5,451.2L188.6,449.7L184.1,442.1L183.9,440.3L191.6,440.2L191.6,437.3L194.9,437.3L194.7,423.0L198.0,422.9L211.9,422.7L212.2,425.6L227.8,425.5L229.4,426.4L232.2,432.4L231.5,433.5L228.9,435.1L227.5,439.4L227.1,444.0L224.5,447.0L223.0,451.4L191.2,451.2L190.5,451.2Z"/>
    <path class="wtc-county" id="wtc-county-jefferson" data-county="Jefferson" d="M284.2,403.6L283.9,391.9L287.5,392.4L289.6,391.2L292.2,397.9L293.6,398.0L294.6,401.8L299.8,404.1L300.9,405.6L303.1,407.4L301.9,408.8L302.6,411.0L305.0,411.0L307.3,414.2L306.4,419.0L310.6,422.0L313.0,421.9L315.1,423.9L314.6,428.4L305.9,428.9L288.7,429.8L288.7,425.7L290.6,420.0L286.3,420.0L286.3,416.7L284.2,414.2L284.2,403.6Z"/>
    <path class="wtc-county" id="wtc-county-lafayette" data-county="Lafayette" d="M330.7,402.7L330.5,378.3L331.6,378.2L331.6,373.9L333.8,374.0L360.0,374.0L361.9,374.2L362.8,378.2L359.7,380.4L359.5,382.8L357.4,385.2L354.5,386.4L354.1,387.7L350.5,389.9L350.3,391.0L344.4,392.8L342.7,391.8L339.9,393.1L338.5,397.7L338.5,402.7L330.7,402.7Z"/>
    <path class="wtc-county" id="wtc-county-lake" data-county="Lake" d="M423.7,317.2L423.7,290.4L423.5,276.8L430.1,276.9L430.1,277.9L434.3,277.9L434.3,276.9L443.1,276.9L443.1,304.5L443.8,305.8L459.1,305.7L458.9,308.3L462.2,311.9L463.1,313.1L463.1,318.8L456.3,324.0L455.8,326.2L453.4,326.3L451.3,331.5L449.4,333.0L445.9,333.4L444.2,338.0L444.5,323.0L443.1,323.0L443.1,317.3L423.7,317.2Z"/>
    <path class="wtc-county" id="wtc-county-lee" data-county="Lee" d="M416.6,173.2L414.5,166.3L412.4,168.5L409.3,168.7L408.6,167.4L411.4,164.5L413.3,158.1L413.6,154.4L416.9,155.0L416.9,158.6L419.7,157.3L419.9,154.4L422.5,153.8L429.1,147.5L430.8,144.2L432.4,143.3L443.1,143.4L443.1,150.2L449.4,150.3L449.2,156.3L449.2,173.2L416.6,173.2ZM403.2,168.5L403.2,165.7L404.6,161.4L407.6,154.9L409.3,153.3L414.3,150.5L416.4,150.5L419.7,152.3L416.4,153.5L414.7,152.5L410.7,154.0L408.8,155.5L404.3,167.5L403.2,168.5ZM402.7,174.5L402.9,169.9L404.1,172.7L406.2,173.1L402.7,174.5Z"/>
    <path class="wtc-county" id="wtc-county-leon" data-county="Leon" d="M246.6,411.2L241.9,407.5L242.2,405.3L272.4,405.6L273.1,403.6L284.2,403.6L284.2,414.2L286.3,416.7L286.3,420.0L290.6,420.0L288.7,425.7L288.7,429.8L283.5,430.1L270.5,430.7L266.9,424.8L264.6,423.8L263.4,420.4L262.9,417.4L261.5,416.1L254.9,415.3L246.6,411.2Z"/>
    <path class="wtc-county" id="wtc-county-levy" data-county="Levy" d="M343.9,338.8L346.5,338.4L349.8,336.6L349.1,334.1L351.2,328.4L352.9,328.7L355.0,331.5L366.1,330.2L367.8,329.5L368.0,326.7L366.8,324.9L370.6,323.4L370.6,319.4L373.7,321.9L375.3,322.1L380.3,320.5L381.4,321.8L385.5,322.8L385.5,334.0L394.2,334.0L394.0,351.8L384.0,351.4L384.0,355.2L377.4,355.1L377.4,357.0L370.8,356.9L369.9,358.3L359.0,358.7L356.4,355.4L355.9,350.8L353.1,347.5L353.4,346.1L350.5,344.4L350.8,342.8L347.0,340.7L345.6,341.2L343.9,338.8Z"/>
    <path class="wtc-county" id="wtc-county-liberty" data-county="Liberty" d="M215.7,398.8L213.1,391.7L214.3,391.3L214.3,388.4L215.7,387.1L221.4,384.8L221.6,383.8L222.8,386.5L253.3,386.4L250.2,387.5L247.8,389.7L245.0,394.0L245.0,397.6L243.1,401.7L240.5,403.1L242.2,405.3L241.9,407.5L246.6,411.2L244.3,411.2L244.3,413.1L242.2,413.1L242.2,415.9L237.7,415.8L237.7,419.7L235.3,420.7L231.1,420.7L231.1,425.5L227.8,425.5L224.0,420.1L223.3,415.6L224.5,414.7L221.2,413.2L222.3,412.5L217.8,400.6L215.7,398.8Z"/>
    <path class="wtc-county" id="wtc-county-madison" data-county="Madison" d="M314.6,428.4L315.1,423.9L313.0,421.9L310.6,422.0L306.4,419.0L307.3,414.2L305.0,411.0L302.6,411.0L301.9,408.8L303.1,407.4L300.9,405.6L324.1,405.6L324.1,402.7L330.7,402.7L338.5,402.7L341.1,406.1L340.8,408.3L343.7,410.9L343.0,412.6L340.1,413.5L340.6,415.6L338.7,416.7L339.2,419.5L336.8,427.2L331.4,427.5L314.6,428.4Z"/>
    <path class="wtc-county" id="wtc-county-manatee" data-county="Manatee" d="M384.0,230.7L383.1,228.4L380.3,226.8L377.9,222.7L374.4,221.0L374.1,222.7L371.8,223.8L374.1,220.4L375.1,217.1L378.4,213.9L404.1,213.7L403.9,202.2L416.9,202.0L416.9,210.6L417.1,230.8L384.0,230.7Z"/>
    <path class="wtc-county" id="wtc-county-marion" data-county="Marion" d="M394.0,351.8L394.2,334.0L385.5,334.0L385.5,322.8L390.4,323.0L393.0,320.7L398.2,319.1L400.1,317.3L423.7,317.2L443.1,317.3L443.1,323.0L444.5,323.0L444.2,338.0L441.6,341.2L443.3,342.1L442.4,344.3L437.6,344.3L437.6,348.1L435.5,348.1L435.3,351.9L431.0,351.8L431.0,354.1L425.1,353.8L420.4,352.8L416.9,350.8L416.9,348.8L411.7,348.4L407.9,347.5L406.7,348.2L406.7,351.7L394.0,351.8Z"/>
    <path class="wtc-county" id="wtc-county-martin" data-county="Martin" d="M507.5,201.9L507.5,196.3L493.8,185.6L542.9,185.4L542.9,186.4L546.9,186.3L544.6,193.1L542.9,195.7L541.5,201.0L539.1,205.6L533.5,205.7L533.5,201.9L507.5,201.9Z"/>
    <path class="wtc-county" id="wtc-county-miami-dade" data-county="Miami-Dade" d="M534.4,79.9L535.6,79.3L538.7,84.0L540.6,88.7L540.6,91.0L538.9,88.7L534.4,79.9ZM494.8,109.7L494.8,80.7L495.5,80.7L495.7,68.4L498.8,69.0L503.0,66.4L505.1,66.8L508.5,69.1L516.5,70.3L517.9,71.4L519.5,69.9L519.5,71.7L524.5,72.3L526.2,73.4L527.3,76.9L530.2,79.0L532.1,82.0L530.6,82.9L531.1,85.5L529.9,87.4L530.4,91.8L532.3,94.1L532.5,97.7L533.9,98.6L536.3,104.4L540.1,105.8L541.3,104.7L540.6,101.8L542.0,100.5L542.0,103.0L543.6,107.6L544.3,112.1L544.3,120.9L532.8,120.6L531.8,119.7L507.5,119.7L507.5,121.1L494.8,121.2L494.8,109.7Z"/>
    <path class="wtc-county" id="wtc-county-monroe" data-county="Monroe" d="M519.5,69.9L521.7,70.5L523.1,69.2L521.9,67.4L521.2,62.8L519.5,59.8L516.2,57.6L508.2,50.7L508.9,50.0L514.6,53.7L522.6,61.6L528.5,66.8L530.6,71.5L535.6,79.3L534.4,79.9L533.0,77.7L529.9,75.8L527.3,76.9L526.2,73.4L524.5,72.3L519.5,71.7L519.5,69.9ZM502.8,47.4L504.0,46.4L507.3,48.9L506.1,50.8L502.8,47.4ZM496.2,43.8L499.7,44.4L500.9,46.3L498.3,46.0L496.2,43.8ZM478.2,37.5L481.3,36.4L491.9,40.9L490.5,42.6L478.2,37.5ZM455.6,109.6L461.2,107.9L463.4,102.2L466.0,103.0L467.4,102.0L468.6,97.2L471.2,95.4L473.0,91.9L472.6,89.9L475.2,87.3L478.0,81.8L478.5,79.0L477.1,79.2L475.6,75.8L475.2,71.4L477.1,67.5L481.1,64.6L486.5,64.9L492.9,65.9L492.9,67.4L495.7,68.4L495.5,80.7L494.8,80.7L494.8,109.7L455.6,109.6ZM432.9,28.4L432.9,26.9L441.4,27.7L452.3,31.9L453.0,33.2L459.3,33.5L460.1,32.0L469.5,34.7L470.4,35.3L467.1,37.7L466.2,40.7L457.2,44.5L448.7,40.7L448.0,39.4L442.1,37.0L437.4,34.4L432.9,28.4ZM419.7,26.7L419.5,25.3L422.5,24.9L426.5,25.6L428.9,28.1L419.7,26.7ZM409.8,28.0L412.8,27.1L414.0,29.4L411.2,30.0L409.8,28.0ZM359.3,32.6L359.0,31.5L363.7,32.0L362.8,33.3L359.3,32.6Z"/>
    <path class="wtc-county" id="wtc-county-nassau" data-county="Nassau" d="M427.0,439.6L423.9,440.0L421.8,436.7L419.0,437.1L419.9,435.8L418.0,434.9L418.3,432.1L417.3,428.7L420.2,423.6L419.5,416.9L418.0,414.2L418.3,410.9L417.3,409.5L417.3,403.6L431.7,416.4L436.2,420.8L437.9,420.8L438.8,423.2L442.4,422.5L446.6,424.1L446.1,422.1L448.0,422.7L448.5,421.0L451.6,420.3L452.5,422.9L457.2,419.2L457.2,425.2L458.2,431.6L457.2,432.3L454.2,433.4L450.8,432.5L446.8,433.5L439.0,434.6L437.4,436.0L433.1,437.6L429.1,437.8L427.0,439.6Z"/>
    <path class="wtc-county" id="wtc-county-okaloosa" data-county="Okaloosa" d="M105.9,451.2L105.0,411.0L115.9,411.7L131.4,410.5L131.9,451.0L112.3,451.0L105.9,451.2Z"/>
    <path class="wtc-county" id="wtc-county-okeechobee" data-county="Okeechobee" d="M477.1,230.6L477.1,227.6L472.3,223.1L472.8,220.5L477.3,216.8L477.1,215.4L479.9,213.2L481.1,213.7L484.1,211.9L483.2,210.7L484.8,208.1L486.5,207.7L486.7,204.8L490.0,202.2L492.2,199.8L494.8,198.5L493.8,185.6L507.5,196.3L507.5,201.9L507.5,225.0L501.1,225.0L500.9,230.6L494.8,230.5L477.1,230.6Z"/>
    <path class="wtc-county" id="wtc-county-orange" data-county="Orange" d="M459.1,305.7L443.8,305.8L443.1,304.5L443.1,276.9L495.5,276.9L492.9,282.6L494.8,285.1L494.3,287.2L490.7,289.6L489.6,293.9L487.2,294.4L464.8,294.2L464.8,296.1L456.3,296.2L456.0,301.0L458.6,302.6L459.1,305.7Z"/>
    <path class="wtc-county" id="wtc-county-osceola" data-county="Osceola" d="M443.1,276.9L443.1,271.1L449.7,271.1L451.8,267.3L451.8,263.5L456.3,263.5L456.3,259.7L463.6,259.6L462.2,258.2L461.2,254.9L460.5,255.9L456.0,257.5L459.1,254.0L461.0,254.3L461.7,252.7L466.0,248.9L466.4,245.0L471.2,243.7L472.6,242.3L476.8,235.0L477.1,230.6L494.8,230.5L494.1,242.4L495.0,242.4L495.0,259.6L495.5,260.1L495.5,276.9L443.1,276.9Z"/>
    <path class="wtc-county" id="wtc-county-palm-beach" data-county="Palm Beach" d="M493.8,185.6L493.8,171.5L494.3,144.5L532.5,144.5L532.5,145.9L538.7,144.1L547.2,143.6L548.1,151.8L549.8,161.6L550.0,174.9L546.9,186.3L542.9,186.4L542.9,185.4L493.8,185.6Z"/>
    <path class="wtc-county" id="wtc-county-pasco" data-county="Pasco" d="M376.0,282.6L374.1,280.5L374.1,278.3L372.5,275.4L372.5,273.3L370.6,270.8L370.3,268.5L367.8,265.4L377.7,265.5L393.5,265.3L413.6,265.4L413.6,271.1L416.9,271.1L416.9,274.6L417.1,285.6L404.1,285.6L403.9,282.7L376.0,282.6ZM366.1,265.4L366.1,268.4L364.0,268.4L364.0,265.4L366.1,265.4Z"/>
    <path class="wtc-county" id="wtc-county-pinellas" data-county="Pinellas" d="M366.1,265.4L364.0,265.4L364.9,259.1L366.1,255.4L364.7,245.1L366.6,241.8L368.7,240.4L372.0,235.6L371.5,230.9L372.5,228.6L374.6,230.3L372.9,232.4L373.7,234.3L378.6,234.6L379.6,236.1L379.6,239.6L381.9,242.0L379.3,248.2L375.5,248.5L372.9,250.6L375.5,252.2L375.3,255.9L377.9,255.4L377.7,265.5L367.8,265.4L368.7,264.1L369.2,257.8L367.0,258.2L366.1,265.4Z"/>
    <path class="wtc-county" id="wtc-county-polk" data-county="Polk" d="M416.9,274.6L416.9,271.1L413.6,271.1L413.6,265.4L416.9,265.4L416.9,249.3L417.1,248.0L417.1,230.8L449.4,230.9L477.1,230.6L476.8,235.0L472.6,242.3L471.2,243.7L466.4,245.0L466.0,248.9L461.7,252.7L461.0,254.3L459.1,254.0L456.0,257.5L460.5,255.9L461.2,254.9L462.2,258.2L463.6,259.6L456.3,259.7L456.3,263.5L451.8,263.5L451.8,267.3L449.7,271.1L443.1,271.1L443.1,276.9L434.3,276.9L434.3,277.9L430.1,277.9L430.1,276.9L423.5,276.8L423.5,274.4L419.2,275.4L416.9,274.6Z"/>
    <path class="wtc-county" id="wtc-county-putnam" data-county="Putnam" d="M416.9,367.1L417.1,363.9L416.9,350.8L420.4,352.8L425.1,353.8L431.0,354.1L431.0,351.8L435.3,351.9L435.5,348.1L437.6,348.1L437.6,344.3L442.4,344.3L443.3,342.1L441.6,341.2L457.0,344.8L457.9,346.1L455.1,346.0L454.4,349.2L452.0,352.7L452.0,360.8L451.8,369.8L449.2,372.7L448.3,375.1L432.9,374.9L429.6,372.5L426.5,372.1L424.6,369.0L420.2,368.5L417.3,367.1L416.9,367.1Z"/>
    <path class="wtc-county" id="wtc-county-st-johns" data-county="St. Johns" d="M441.6,393.6L440.9,388.4L441.4,386.7L446.6,383.1L446.4,380.1L448.3,375.1L449.2,372.7L451.8,369.8L452.0,360.8L465.0,361.0L468.8,363.5L472.3,364.0L469.0,373.4L469.0,376.3L466.0,383.6L461.5,402.2L457.7,402.2L457.9,392.6L450.8,392.5L450.8,393.5L445.4,394.4L441.6,393.6Z"/>
    <path class="wtc-county" id="wtc-county-st-lucie" data-county="St. Lucie" d="M507.5,225.0L507.5,201.9L533.5,201.9L533.5,205.7L539.1,205.6L535.4,213.3L532.8,221.2L531.1,225.0L507.5,225.0Z"/>
    <path class="wtc-county" id="wtc-county-santa-rosa" data-county="Santa Rosa" d="M80.9,451.3L76.7,448.8L75.0,446.9L72.9,446.5L73.1,444.0L71.0,441.3L72.4,439.1L71.2,437.4L72.0,432.9L73.8,432.8L74.8,425.8L77.9,422.1L81.4,420.8L83.5,418.5L81.6,412.3L76.7,410.9L76.4,408.6L80.0,407.6L86.8,409.5L97.0,411.0L97.0,410.0L105.0,411.0L105.9,451.2L80.9,451.3Z"/>
    <path class="wtc-county" id="wtc-county-sarasota" data-county="Sarasota" d="M378.4,213.9L384.7,205.5L389.2,197.6L391.4,192.3L395.8,184.8L403.9,184.7L403.9,190.5L416.9,190.4L416.9,202.0L403.9,202.2L404.1,213.7L378.4,213.9Z"/>
    <path class="wtc-county" id="wtc-county-seminole" data-county="Seminole" d="M459.1,305.7L458.6,302.6L456.0,301.0L456.3,296.2L464.8,296.1L464.8,294.2L487.2,294.4L485.1,298.4L485.3,299.7L482.2,303.4L483.0,304.9L482.0,307.5L479.4,308.5L477.3,306.1L474.7,305.5L472.1,307.3L471.6,308.8L465.3,308.9L462.9,309.8L462.2,311.9L458.9,308.3L459.1,305.7Z"/>
    <path class="wtc-county" id="wtc-county-sumter" data-county="Sumter" d="M400.1,317.3L402.7,313.1L408.6,308.1L409.5,306.2L408.1,304.0L404.1,301.3L403.4,298.0L402.5,297.2L406.7,291.8L411.4,291.3L414.3,288.6L417.1,288.4L417.1,285.6L416.9,274.6L419.2,275.4L423.5,274.4L423.5,276.8L423.7,290.4L423.7,317.2L400.1,317.3Z"/>
    <path class="wtc-county" id="wtc-county-suwannee" data-county="Suwannee" d="M338.5,402.7L338.5,397.7L339.9,393.1L342.7,391.8L344.4,392.8L350.3,391.0L350.5,389.9L354.1,387.7L354.5,386.4L357.4,385.2L359.5,382.8L359.7,380.4L362.8,378.2L363.7,379.7L368.0,381.2L370.6,383.4L368.5,384.7L368.2,407.8L362.6,409.6L357.1,413.1L354.8,413.9L349.8,413.6L349.3,414.4L344.6,413.1L343.7,410.9L340.8,408.3L341.1,406.1L338.5,402.7Z"/>
    <path class="wtc-county" id="wtc-county-taylor" data-county="Taylor" d="M300.9,405.6L299.8,404.1L294.6,401.8L293.6,398.0L292.2,397.9L289.6,391.2L293.6,388.2L303.1,384.1L309.7,380.6L313.0,378.1L314.2,375.2L316.3,373.2L316.3,370.9L319.4,367.4L322.4,366.5L324.8,364.3L327.6,363.7L330.7,363.6L332.6,369.9L333.8,371.0L333.8,374.0L331.6,373.9L331.6,378.2L330.5,378.3L330.7,402.7L324.1,402.7L324.1,405.6L300.9,405.6Z"/>
    <path class="wtc-county" id="wtc-county-union" data-county="Union" d="M390.4,394.6L390.7,392.6L386.4,390.6L384.7,386.9L382.6,385.0L385.7,381.7L393.0,380.5L400.3,382.7L403.4,387.5L405.8,387.9L411.0,392.8L411.2,395.1L390.4,394.6Z"/>
    <path class="wtc-county" id="wtc-county-volusia" data-county="Volusia" d="M441.6,341.2L444.2,338.0L445.9,333.4L449.4,333.0L451.3,331.5L453.4,326.3L455.8,326.2L456.3,324.0L463.1,318.8L463.1,313.1L462.2,311.9L462.9,309.8L465.3,308.9L471.6,308.8L472.1,307.3L474.7,305.5L477.3,306.1L479.4,308.5L482.0,307.5L483.0,304.9L482.2,303.4L485.3,299.7L485.1,298.4L487.2,294.4L488.6,294.4L488.4,306.1L504.0,306.1L490.0,327.1L483.2,340.1L479.7,347.9L476.1,346.9L476.6,337.4L458.9,337.0L458.6,346.1L457.9,346.1L457.0,344.8L441.6,341.2Z"/>
    <path class="wtc-county" id="wtc-county-wakulla" data-county="Wakulla" d="M242.2,405.3L240.5,403.1L243.1,401.7L245.0,397.6L245.0,394.0L247.8,389.7L250.2,387.5L253.3,386.4L255.1,384.9L258.2,385.7L260.3,384.1L266.7,383.0L265.1,386.2L271.2,390.1L271.4,392.1L278.8,390.4L283.9,391.9L284.2,403.6L273.1,403.6L272.4,405.6L242.2,405.3Z"/>
    <path class="wtc-county" id="wtc-county-walton" data-county="Walton" d="M131.9,451.0L131.4,410.5L137.8,409.5L151.5,405.6L157.9,403.3L157.9,411.2L160.0,414.5L164.0,414.8L166.9,417.9L165.0,419.8L165.4,422.2L163.1,424.9L163.1,427.5L166.1,429.2L167.8,431.8L155.1,431.9L155.3,450.9L145.1,451.0L131.9,451.0Z"/>
    <path class="wtc-county" id="wtc-county-washington" data-county="Washington" d="M167.8,431.8L166.1,429.2L163.1,427.5L163.1,424.9L165.4,422.2L165.0,419.8L166.9,417.9L164.0,414.8L160.0,414.5L157.9,411.2L159.8,412.6L165.2,412.6L167.1,414.6L191.2,414.3L191.4,423.0L194.7,423.0L194.9,437.3L191.6,437.3L191.6,440.2L183.9,440.3L182.4,436.3L182.7,434.5L174.9,434.7L173.9,437.5L169.2,437.7L169.2,434.2L167.8,431.8Z"/>
  </g>
</svg>