<?xml version="1.0" encoding="UTF-8"?>
<svg xmlns="http://www.w3.org/2000/svg" viewBox="0 0 600 386" id="wtc-state-map-CO" role="img" aria-label="co county map">
  <title>co Counties</title>
  <g class="wtc-counties">
    <path class="wtc-county" id="wtc-county-adams" data-county="Adams" d="M335.4,258.2L335.4,249.4L345.4,248.9L347.4,249.9L354.1,249.9L354.1,253.0L358.4,253.2L358.4,257.1L362.0,257.6L367.6,257.1L366.4,255.3L366.4,251.6L356.1,251.7L358.2,247.8L351.5,248.1L347.4,245.8L376.9,245.6L431.3,245.8L431.6,264.4L399.9,264.4L375.6,264.3L342.1,264.3L340.0,262.0L338.2,263.0L338.2,258.7L335.4,258.2Z"/>
    <path class="wtc-county" id="wtc-county-alamosa" data-county="Alamosa" d="M265.1,79.1L265.1,76.0L286.3,76.0L304.0,90.7L304.7,91.7L303.5,93.1L305.2,97.9L305.2,100.9L306.8,104.1L265.3,103.9L265.1,79.1Z"/>
    <path class="wtc-county" id="wtc-county-arapahoe" data-county="Arapahoe" d="M335.4,237.3L335.7,233.4L363.3,233.3L430.8,233.4L431.3,233.4L431.3,245.8L376.9,245.6L347.4,245.8L348.7,242.6L346.2,242.4L346.2,240.6L350.0,239.8L347.4,237.5L341.0,240.6L336.7,239.6L335.4,238.0L335.4,237.9L335.4,237.3Z"/>
    <path class="wtc-county" id="wtc-county-archuleta" data-county="Archuleta" d="M162.3,80.6L162.3,50.5L166.6,50.5L205.5,50.6L206.0,50.0L234.1,50.1L226.0,60.5L225.4,64.4L219.6,66.8L219.6,79.3L217.3,79.3L217.3,78.8L187.6,78.5L187.6,80.7L162.3,80.6Z"/>
    <path class="wtc-county" id="wtc-county-baca" data-county="Baca" d="M476.3,96.3L476.3,77.7L475.8,77.7L475.6,50.6L481.7,50.6L497.6,50.5L503.2,50.2L550.0,50.0L550.0,78.2L550.0,96.4L499.6,96.4L476.3,96.3Z"/>
    <path class="wtc-county" id="wtc-county-bent" data-county="Bent" d="M453.3,140.7L453.3,109.1L452.8,96.4L476.3,96.3L499.6,96.4L499.6,109.2L500.1,109.3L500.1,140.8L453.3,140.7Z"/>
    <path class="wtc-county" id="wtc-county-boulder" data-county="Boulder" d="M292.7,282.9L290.9,278.6L291.7,275.6L294.0,274.7L293.7,267.5L290.2,265.3L289.9,260.1L291.2,259.5L310.9,259.5L310.9,258.1L328.8,258.1L331.3,261.2L332.9,261.3L335.4,264.3L335.2,264.4L335.4,282.9L318.5,283.0L310.4,282.7L292.7,282.9Z"/>
    <path class="wtc-county" id="wtc-county-broomfield" data-county="Broomfield" d="M328.8,258.1L334.1,257.1L335.4,258.2L338.2,258.7L338.2,263.0L340.0,262.0L342.1,264.3L342.1,267.4L339.3,266.1L340.0,264.9L335.4,264.3L332.9,261.3L331.3,261.2L328.8,258.1Z"/>
    <path class="wtc-county" id="wtc-county-chaffee" data-county="Chaffee" d="M225.2,192.9L228.0,192.9L234.4,186.8L238.2,187.5L244.9,186.1L242.8,182.7L238.0,179.6L238.2,173.3L235.9,171.4L237.5,168.7L241.6,165.9L243.4,161.8L244.4,157.0L250.5,151.9L262.5,152.0L263.8,154.3L267.1,153.6L272.5,157.7L274.6,157.8L274.8,160.8L276.6,164.7L274.0,166.7L273.3,170.2L270.2,171.2L272.3,176.2L274.6,179.3L272.0,182.5L273.3,183.9L269.7,184.7L270.5,186.3L265.9,189.0L260.0,188.8L260.2,192.1L255.9,192.4L254.3,197.0L226.7,197.2L225.2,192.9Z"/>
    <path class="wtc-county" id="wtc-county-cheyenne" data-county="Cheyenne" d="M470.2,195.7L469.9,171.0L469.4,165.4L477.4,165.6L549.7,165.6L549.7,171.5L549.7,196.4L501.9,195.8L470.2,195.7Z"/>
    <path class="wtc-county" id="wtc-county-clear-creek" data-county="Clear Creek" d="M273.3,242.8L273.3,241.0L278.6,238.9L282.7,238.3L284.0,236.6L280.2,233.3L297.3,233.5L310.9,233.3L310.9,246.2L303.7,247.0L294.2,253.1L290.2,253.7L286.8,250.3L282.2,250.3L280.7,249.0L276.1,249.8L276.3,245.5L273.3,242.8Z"/>
    <path class="wtc-county" id="wtc-county-conejos" data-county="Conejos" d="M219.6,79.3L219.6,66.8L225.4,64.4L226.0,60.5L234.1,50.1L267.6,50.2L288.1,50.2L284.3,53.5L286.6,57.9L285.8,60.2L287.3,63.4L286.1,68.2L287.9,71.2L285.5,75.0L286.3,76.0L265.1,76.0L265.1,79.1L233.1,79.0L219.6,79.3Z"/>
    <path class="wtc-county" id="wtc-county-costilla" data-county="Costilla" d="M286.3,76.0L285.5,75.0L287.9,71.2L286.1,68.2L287.3,63.4L285.8,60.2L286.6,57.9L284.3,53.5L288.1,50.2L323.4,50.2L328.3,50.2L328.3,71.4L327.5,71.1L327.5,78.2L330.1,79.9L328.0,83.1L326.7,83.1L326.5,89.4L323.7,92.0L326.0,94.7L322.4,94.7L318.0,97.4L312.9,96.1L310.6,94.2L307.8,94.1L304.7,91.7L304.0,90.7L286.3,76.0Z"/>
    <path class="wtc-county" id="wtc-county-crowley" data-county="Crowley" d="M406.8,159.0L406.3,132.2L410.9,132.2L412.4,131.2L421.4,130.6L422.1,129.8L437.7,129.8L437.7,134.0L445.4,134.0L445.9,140.7L445.7,146.2L445.9,158.6L438.0,159.0L406.8,159.0Z"/>
    <path class="wtc-county" id="wtc-county-custer" data-county="Custer" d="M282.5,140.7L283.0,139.2L291.2,133.1L292.5,128.4L294.5,126.6L296.3,122.4L299.4,118.3L302.9,117.5L305.5,114.3L309.8,114.0L316.8,117.4L319.8,115.2L322.1,119.1L325.4,122.3L328.8,122.2L330.3,118.3L333.1,118.6L335.7,115.7L335.7,140.2L282.5,140.7Z"/>
    <path class="wtc-county" id="wtc-county-delta" data-county="Delta" d="M161.0,208.5L151.3,203.2L147.7,199.2L142.1,196.1L135.7,198.7L132.1,197.3L126.7,197.3L118.8,191.6L119.3,190.7L115.5,186.4L98.6,180.9L98.6,169.4L161.0,169.4L161.0,208.5Z"/>
    <path class="wtc-county" id="wtc-county-denver" data-county="Denver" d="M335.4,249.4L335.4,242.7L333.4,240.8L335.4,239.5L331.3,237.7L335.4,237.3L335.4,237.9L335.4,238.0L336.7,239.6L341.0,240.6L347.4,237.5L350.0,239.8L346.2,240.6L346.2,242.4L348.7,242.6L347.4,245.8L351.5,248.1L358.2,247.8L356.1,251.7L366.4,251.6L366.4,255.3L367.6,257.1L362.0,257.6L358.4,257.1L358.4,253.2L354.1,253.0L354.1,249.9L347.4,249.9L345.4,248.9L335.4,249.4Z"/>
    <path class="wtc-county" id="wtc-county-dolores" data-county="Dolores" d="M51.3,113.3L51.3,88.3L51.0,85.1L60.2,95.5L113.9,95.8L127.5,96.1L127.7,100.1L134.4,102.0L135.4,105.8L126.2,111.6L119.1,110.4L117.5,111.5L115.5,109.8L110.6,109.0L107.3,114.3L67.4,114.3L66.9,113.3L51.3,113.3Z"/>
    <path class="wtc-county" id="wtc-county-douglas" data-county="Douglas" d="M335.7,233.4L333.1,228.3L329.5,226.6L330.6,224.0L327.0,222.1L327.5,218.8L322.6,210.6L315.7,202.3L337.0,202.3L363.3,202.2L363.3,233.3L335.7,233.4Z"/>
    <path class="wtc-county" id="wtc-county-eagle" data-county="Eagle" d="M194.2,258.5L188.6,258.5L188.6,219.1L237.5,218.8L239.5,220.2L242.8,218.2L247.7,217.9L253.3,220.0L253.3,221.5L250.0,226.4L249.7,230.5L252.8,230.9L252.8,234.2L255.1,236.3L254.6,239.6L251.5,240.2L249.2,242.9L247.2,243.2L243.6,246.9L240.5,247.6L237.7,253.0L237.0,258.9L223.4,258.9L221.4,258.5L194.2,258.5Z"/>
    <path class="wtc-county" id="wtc-county-elbert" data-county="Elbert" d="M363.3,233.3L363.3,202.2L406.8,202.2L406.5,183.7L430.6,183.6L430.3,202.2L430.8,233.4L363.3,233.3Z"/>
    <path class="wtc-county" id="wtc-county-el-paso" data-county="El Paso" d="M337.0,202.3L337.2,183.7L334.4,183.7L334.1,178.7L343.6,178.5L343.4,168.1L343.4,158.8L370.2,158.8L406.8,159.0L406.5,183.7L406.8,202.2L363.3,202.2L337.0,202.3Z"/>
    <path class="wtc-county" id="wtc-county-fremont" data-county="Fremont" d="M267.1,153.6L275.8,146.0L278.1,143.0L282.5,140.7L335.7,140.2L343.6,140.2L343.4,158.8L343.4,168.1L322.1,167.9L322.4,171.4L315.7,171.4L270.2,171.2L273.3,170.2L274.0,166.7L276.6,164.7L274.8,160.8L274.6,157.8L272.5,157.7L267.1,153.6Z"/>
    <path class="wtc-county" id="wtc-county-garfield" data-county="Garfield" d="M50.5,228.5L50.5,219.1L96.3,219.1L166.1,219.1L188.6,219.1L188.6,258.5L194.2,258.5L194.5,264.5L194.0,270.8L174.0,270.7L174.0,258.2L165.9,258.4L165.9,252.1L147.2,252.2L129.8,251.8L129.8,242.5L86.1,242.5L86.1,239.3L61.8,239.4L61.8,240.1L50.5,240.1L50.5,228.5Z"/>
    <path class="wtc-county" id="wtc-county-gilpin" data-county="Gilpin" d="M291.2,259.5L289.4,256.5L290.2,253.7L294.2,253.1L303.7,247.0L310.9,246.2L310.9,258.1L310.9,259.5L291.2,259.5Z"/>
    <path class="wtc-county" id="wtc-county-grand" data-county="Grand" d="M221.6,296.0L221.4,288.6L222.9,288.6L222.6,264.4L223.4,258.9L237.0,258.9L239.8,258.2L250.0,258.2L253.6,254.6L258.7,253.2L262.0,250.5L263.8,244.7L268.2,241.8L273.3,242.8L276.3,245.5L276.1,249.8L280.7,249.0L282.2,250.3L286.8,250.3L290.2,253.7L289.4,256.5L291.2,259.5L289.9,260.1L290.2,265.3L293.7,267.5L294.0,274.7L291.7,275.6L290.9,278.6L292.7,282.9L290.4,285.9L284.5,289.9L281.2,294.3L281.7,298.1L278.4,298.9L275.3,297.7L275.1,293.5L272.0,291.7L271.0,289.2L266.1,290.7L258.2,287.9L256.1,288.7L251.5,287.4L249.5,289.8L246.9,289.6L246.7,287.8L242.6,289.8L240.0,288.9L235.4,289.8L232.9,293.4L230.1,290.4L224.4,291.2L223.4,294.8L221.6,296.0Z"/>
    <path class="wtc-county" id="wtc-county-gunnison" data-county="Gunnison" d="M151.5,143.3L154.9,139.6L156.6,133.1L156.1,132.3L196.5,132.3L196.8,152.1L250.5,151.9L244.4,157.0L243.4,161.8L241.6,165.9L237.5,168.7L235.9,171.4L238.2,173.3L238.0,179.6L242.8,182.7L244.9,186.1L238.2,187.5L234.4,186.8L228.0,192.9L225.2,192.9L221.4,196.2L218.5,197.0L214.7,196.1L210.9,191.5L207.5,192.1L206.5,193.7L203.5,192.4L196.5,196.1L197.1,197.9L191.9,201.5L176.6,201.5L175.6,203.9L171.5,205.4L169.9,207.1L170.2,210.1L168.7,211.3L166.1,211.4L164.6,209.5L161.0,208.5L161.0,169.4L161.0,143.3L151.5,143.3Z"/>
    <path class="wtc-county" id="wtc-county-hinsdale" data-county="Hinsdale" d="M156.1,132.3L156.4,128.8L160.2,126.1L157.7,121.7L154.6,121.2L156.1,119.3L158.7,117.8L159.7,114.8L158.4,112.8L160.0,109.4L163.3,108.2L164.1,106.3L162.3,105.3L162.3,96.1L162.3,80.6L187.6,80.7L187.9,98.6L186.3,98.7L186.8,117.4L191.9,119.0L196.8,118.6L196.5,132.3L156.1,132.3Z"/>
    <path class="wtc-county" id="wtc-county-huerfano" data-county="Huerfano" d="M306.8,104.1L305.2,100.9L305.2,97.9L303.5,93.1L304.7,91.7L307.8,94.1L310.6,94.2L312.9,96.1L318.0,97.4L322.4,94.7L326.0,94.7L323.7,92.0L326.5,89.4L326.7,83.1L328.0,83.1L330.1,79.9L327.5,78.2L327.5,71.1L328.3,71.4L331.3,71.8L339.3,76.8L344.1,78.7L347.7,78.1L356.9,79.5L361.0,82.1L361.5,85.9L363.3,85.8L370.7,91.1L371.7,94.4L377.9,103.1L385.5,108.8L364.3,114.7L338.2,113.3L335.7,115.7L333.1,118.6L330.3,118.3L328.8,122.2L325.4,122.3L322.1,119.1L319.8,115.2L316.8,117.4L309.8,114.0L305.5,114.3L308.6,111.2L308.3,107.8L306.8,107.2L306.8,104.1Z"/>
    <path class="wtc-county" id="wtc-county-jackson" data-county="Jackson" d="M206.8,335.7L205.8,333.4L207.5,330.2L210.9,328.2L212.4,328.9L215.7,326.4L218.8,327.5L222.6,322.2L220.1,316.8L220.3,313.9L217.8,308.2L218.0,305.3L221.4,300.6L221.6,296.0L223.4,294.8L224.4,291.2L230.1,290.4L232.9,293.4L235.4,289.8L240.0,288.9L242.6,289.8L246.7,287.8L246.9,289.6L249.5,289.8L251.5,287.4L256.1,288.7L258.2,287.9L266.1,290.7L271.0,289.2L272.0,291.7L275.1,293.5L275.3,297.7L278.4,298.9L277.4,301.4L274.6,301.0L274.3,304.6L271.7,310.0L264.6,321.6L259.0,326.3L258.2,328.5L254.6,331.1L254.3,335.4L245.1,335.5L206.8,335.7Z"/>
    <path class="wtc-county" id="wtc-county-jefferson" data-county="Jefferson" d="M310.9,233.3L310.9,202.2L315.7,202.3L322.6,210.6L327.5,218.8L327.0,222.1L330.6,224.0L329.5,226.6L333.1,228.3L335.7,233.4L335.4,237.3L331.3,237.7L335.4,239.5L333.4,240.8L335.4,242.7L335.4,249.4L335.4,258.2L334.1,257.1L328.8,258.1L310.9,258.1L310.9,246.2L310.9,233.3Z"/>
    <path class="wtc-county" id="wtc-county-kiowa" data-county="Kiowa" d="M445.9,158.6L445.7,146.2L445.9,140.7L453.3,140.7L500.1,140.8L549.7,140.9L549.7,165.6L477.4,165.6L469.4,165.4L469.4,159.2L445.9,159.1L445.9,158.6Z"/>
    <path class="wtc-county" id="wtc-county-kit-carson" data-county="Kit Carson" d="M470.7,233.3L470.7,202.2L470.2,195.7L501.9,195.8L549.7,196.4L549.7,202.5L549.5,214.6L549.5,233.5L549.5,233.9L495.8,233.5L470.7,233.3Z"/>
    <path class="wtc-county" id="wtc-county-lake" data-county="Lake" d="M237.5,218.8L237.2,215.6L233.4,215.3L233.6,212.5L231.8,204.9L228.0,204.1L228.3,201.6L226.2,199.3L226.7,197.2L254.3,197.0L255.9,199.2L253.1,200.5L255.6,202.8L254.9,207.9L254.9,215.1L257.2,215.9L258.4,220.0L253.3,220.0L247.7,217.9L242.8,218.2L239.5,220.2L237.5,218.8Z"/>
    <path class="wtc-county" id="wtc-county-la-plata" data-county="La Plata" d="M127.5,96.1L123.9,92.7L122.9,87.8L123.1,83.6L119.8,81.5L118.0,78.0L111.4,75.8L109.8,71.4L107.8,68.4L104.5,66.0L104.7,60.9L103.5,59.8L101.7,54.4L98.3,50.5L107.8,50.4L162.3,50.5L162.3,80.6L162.3,96.1L127.5,96.1Z"/>
    <path class="wtc-county" id="wtc-county-larimer" data-county="Larimer" d="M254.3,335.4L254.6,331.1L258.2,328.5L259.0,326.3L264.6,321.6L271.7,310.0L274.3,304.6L274.6,301.0L277.4,301.4L278.4,298.9L281.7,298.1L281.2,294.3L284.5,289.9L290.4,285.9L292.7,282.9L310.4,282.7L318.5,283.0L335.4,282.9L335.2,289.2L343.1,289.2L343.1,306.7L343.4,312.9L343.4,335.4L319.6,335.4L287.6,335.3L254.3,335.4Z"/>
    <path class="wtc-county" id="wtc-county-las-animas" data-county="Las Animas" d="M328.3,71.4L328.3,50.2L339.3,50.1L386.3,50.1L409.8,50.2L475.6,50.6L475.8,77.7L476.3,77.7L476.3,96.3L452.8,96.4L406.3,96.4L406.0,102.9L385.5,108.8L377.9,103.1L371.7,94.4L370.7,91.1L363.3,85.8L361.5,85.9L361.0,82.1L356.9,79.5L347.7,78.1L344.1,78.7L339.3,76.8L331.3,71.8L328.3,71.4Z"/>
    <path class="wtc-county" id="wtc-county-lincoln" data-county="Lincoln" d="M406.5,183.7L406.8,159.0L438.0,159.0L445.9,158.6L445.9,159.1L469.4,159.2L469.4,165.4L469.9,171.0L470.2,195.7L470.7,202.2L470.7,233.3L431.3,233.4L430.8,233.4L430.3,202.2L430.6,183.6L406.5,183.7Z"/>
    <path class="wtc-county" id="wtc-county-logan" data-county="Logan" d="M440.8,335.7L440.8,314.3L440.3,313.9L440.3,301.6L448.5,301.6L448.5,295.4L454.1,295.3L497.3,295.5L505.8,295.5L505.8,314.6L506.5,317.7L506.5,335.7L454.6,335.7L440.8,335.7Z"/>
    <path class="wtc-county" id="wtc-county-mesa" data-county="Mesa" d="M50.5,219.1L50.5,186.3L50.0,173.0L50.0,157.4L98.3,157.4L98.6,169.4L98.6,180.9L115.5,186.4L119.3,190.7L118.8,191.6L126.7,197.3L132.1,197.3L135.7,198.7L142.1,196.1L147.7,199.2L151.3,203.2L161.0,208.5L164.6,209.5L166.1,211.4L168.7,211.3L169.7,212.2L163.6,215.5L166.1,219.1L96.3,219.1L50.5,219.1Z"/>
    <path class="wtc-county" id="wtc-county-mineral" data-county="Mineral" d="M196.8,118.6L191.9,119.0L186.8,117.4L186.3,98.7L187.9,98.6L187.6,80.7L187.6,78.5L217.3,78.8L217.3,79.3L217.3,97.9L218.5,97.9L218.5,110.0L218.5,112.7L212.9,113.6L210.9,115.6L207.5,116.0L205.2,119.0L200.6,118.5L199.1,120.0L196.8,118.6Z"/>
    <path class="wtc-county" id="wtc-county-moffat" data-county="Moffat" d="M50.8,311.5L50.5,299.9L50.5,280.2L80.9,280.1L165.3,280.2L165.1,288.1L165.9,288.1L166.1,302.9L170.2,302.9L170.2,307.0L174.3,307.0L174.0,335.7L131.3,335.7L112.7,335.6L50.8,335.6L50.8,311.5Z"/>
    <path class="wtc-county" id="wtc-county-montezuma" data-county="Montezuma" d="M51.0,85.1L51.0,50.4L98.3,50.5L101.7,54.4L103.5,59.8L104.7,60.9L104.5,66.0L107.8,68.4L109.8,71.4L111.4,75.8L118.0,78.0L119.8,81.5L123.1,83.6L122.9,87.8L123.9,92.7L127.5,96.1L113.9,95.8L60.2,95.5L51.0,85.1Z"/>
    <path class="wtc-county" id="wtc-county-montrose" data-county="Montrose" d="M50.0,157.4L50.0,141.4L51.3,132.7L60.7,132.8L128.0,132.6L129.3,132.6L129.8,137.3L124.7,140.0L119.3,140.0L118.0,144.1L116.0,145.4L151.5,145.4L151.5,143.3L161.0,143.3L161.0,169.4L98.6,169.4L98.3,157.4L50.0,157.4Z"/>
    <path class="wtc-county" id="wtc-county-morgan" data-county="Morgan" d="M440.3,301.6L399.9,301.6L399.9,264.4L431.6,264.4L448.2,264.4L448.2,289.2L448.5,295.4L448.5,301.6L440.3,301.6Z"/>
    <path class="wtc-county" id="wtc-county-otero" data-county="Otero" d="M406.3,132.2L406.3,109.1L406.0,102.9L406.3,96.4L452.8,96.4L453.3,109.1L453.3,140.7L445.9,140.7L445.4,134.0L437.7,134.0L437.7,129.8L422.1,129.8L421.4,130.6L412.4,131.2L410.9,132.2L406.3,132.2Z"/>
    <path class="wtc-county" id="wtc-county-ouray" data-county="Ouray" d="M151.5,143.3L151.5,145.4L116.0,145.4L118.0,144.1L119.3,140.0L124.7,140.0L129.8,137.3L129.3,132.6L128.0,132.6L129.0,130.1L133.1,130.0L132.6,123.6L136.2,121.3L140.0,120.9L144.6,116.8L144.1,115.0L147.2,114.1L151.3,116.1L151.0,119.3L156.1,119.3L154.6,121.2L157.7,121.7L160.2,126.1L156.4,128.8L156.1,132.3L156.6,133.1L154.9,139.6L151.5,143.3Z"/>
    <path class="wtc-county" id="wtc-county-park" data-county="Park" d="M258.4,220.0L257.2,215.9L254.9,215.1L254.9,207.9L255.6,202.8L253.1,200.5L255.9,199.2L254.3,197.0L255.9,192.4L260.2,192.1L260.0,188.8L265.9,189.0L270.5,186.3L269.7,184.7L273.3,183.9L272.0,182.5L274.6,179.3L272.3,176.2L270.2,171.2L315.7,171.4L315.7,202.3L310.9,202.2L310.9,233.3L297.3,233.5L280.2,233.3L280.9,231.4L277.4,229.8L278.4,229.0L274.3,225.6L270.5,224.2L271.5,222.6L268.4,221.6L266.4,218.8L264.1,218.6L258.4,220.0Z"/>
    <path class="wtc-county" id="wtc-county-phillips" data-county="Phillips" d="M506.5,317.7L505.8,314.6L505.8,295.5L549.2,295.6L549.2,314.0L549.2,317.7L506.5,317.7Z"/>
    <path class="wtc-county" id="wtc-county-pitkin" data-county="Pitkin" d="M166.1,219.1L163.6,215.5L169.7,212.2L168.7,211.3L170.2,210.1L169.9,207.1L171.5,205.4L175.6,203.9L176.6,201.5L191.9,201.5L197.1,197.9L196.5,196.1L203.5,192.4L206.5,193.7L207.5,192.1L210.9,191.5L214.7,196.1L218.5,197.0L221.4,196.2L225.2,192.9L226.7,197.2L226.2,199.3L228.3,201.6L228.0,204.1L231.8,204.9L233.6,212.5L233.4,215.3L237.2,215.6L237.5,218.8L188.6,219.1L166.1,219.1Z"/>
    <path class="wtc-county" id="wtc-county-prowers" data-county="Prowers" d="M500.1,140.8L500.1,109.3L499.6,109.2L499.6,96.4L550.0,96.4L550.0,103.1L549.7,140.5L549.7,140.9L500.1,140.8Z"/>
    <path class="wtc-county" id="wtc-county-pueblo" data-county="Pueblo" d="M335.7,140.2L335.7,115.7L338.2,113.3L364.3,114.7L385.5,108.8L406.0,102.9L406.3,109.1L406.3,132.2L406.8,159.0L370.2,158.8L343.4,158.8L343.6,140.2L335.7,140.2Z"/>
    <path class="wtc-county" id="wtc-county-rio-blanco" data-county="Rio Blanco" d="M50.5,280.2L50.5,240.1L61.8,240.1L61.8,239.4L86.1,239.3L86.1,242.5L129.8,242.5L129.8,251.8L147.2,252.2L165.9,252.1L165.9,258.4L174.0,258.2L174.0,270.7L194.0,270.8L194.0,280.3L165.3,280.2L80.9,280.1L50.5,280.2Z"/>
    <path class="wtc-county" id="wtc-county-rio-grande" data-county="Rio Grande" d="M218.5,110.0L218.5,97.9L217.3,97.9L217.3,79.3L219.6,79.3L233.1,79.0L265.1,79.1L265.3,103.9L226.2,103.8L226.2,110.0L218.5,110.0Z"/>
    <path class="wtc-county" id="wtc-county-routt" data-county="Routt" d="M174.0,335.7L174.3,307.0L170.2,307.0L170.2,302.9L166.1,302.9L165.9,288.1L165.1,288.1L165.3,280.2L194.0,280.3L194.0,270.8L194.5,264.5L194.2,258.5L221.4,258.5L223.4,258.9L222.6,264.4L222.9,288.6L221.4,288.6L221.6,296.0L221.4,300.6L218.0,305.3L217.8,308.2L220.3,313.9L220.1,316.8L222.6,322.2L218.8,327.5L215.7,326.4L212.4,328.9L210.9,328.2L207.5,330.2L205.8,333.4L206.8,335.7L174.0,335.7Z"/>
    <path class="wtc-county" id="wtc-county-saguache" data-county="Saguache" d="M196.5,132.3L196.8,118.6L199.1,120.0L200.6,118.5L205.2,119.0L207.5,116.0L210.9,115.6L212.9,113.6L218.5,112.7L218.5,110.0L226.2,110.0L226.2,103.8L265.3,103.9L306.8,104.1L306.8,107.2L308.3,107.8L308.6,111.2L305.5,114.3L302.9,117.5L299.4,118.3L296.3,122.4L294.5,126.6L292.5,128.4L291.2,133.1L283.0,139.2L282.5,140.7L278.1,143.0L275.8,146.0L267.1,153.6L263.8,154.3L262.5,152.0L250.5,151.9L196.8,152.1L196.5,132.3Z"/>
    <path class="wtc-county" id="wtc-county-san-juan" data-county="San Juan" d="M135.4,105.8L134.4,102.0L127.7,100.1L127.5,96.1L162.3,96.1L162.3,105.3L164.1,106.3L163.3,108.2L160.0,109.4L158.4,112.8L159.7,114.8L158.7,117.8L156.1,119.3L151.0,119.3L151.3,116.1L147.2,114.1L144.1,115.0L141.0,112.4L140.0,109.1L135.4,105.8Z"/>
    <path class="wtc-county" id="wtc-county-san-miguel" data-county="San Miguel" d="M51.3,132.7L51.3,113.3L66.9,113.3L67.4,114.3L107.3,114.3L110.6,109.0L115.5,109.8L117.5,111.5L119.1,110.4L126.2,111.6L135.4,105.8L140.0,109.1L141.0,112.4L144.1,115.0L144.6,116.8L140.0,120.9L136.2,121.3L132.6,123.6L133.1,130.0L129.0,130.1L128.0,132.6L60.7,132.8L51.3,132.7Z"/>
    <path class="wtc-county" id="wtc-county-sedgwick" data-county="Sedgwick" d="M506.5,335.7L506.5,317.7L549.2,317.7L549.2,335.7L508.8,335.7L506.5,335.7Z"/>
    <path class="wtc-county" id="wtc-county-summit" data-county="Summit" d="M237.0,258.9L237.7,253.0L240.5,247.6L243.6,246.9L247.2,243.2L249.2,242.9L251.5,240.2L254.6,239.6L255.1,236.3L252.8,234.2L252.8,230.9L249.7,230.5L250.0,226.4L253.3,221.5L253.3,220.0L258.4,220.0L264.1,218.6L266.4,218.8L268.4,221.6L271.5,222.6L270.5,224.2L274.3,225.6L278.4,229.0L277.4,229.8L280.9,231.4L280.2,233.3L284.0,236.6L282.7,238.3L278.6,238.9L273.3,241.0L273.3,242.8L268.2,241.8L263.8,244.7L262.0,250.5L258.7,253.2L253.6,254.6L250.0,258.2L239.8,258.2L237.0,258.9Z"/>
    <path class="wtc-county" id="wtc-county-teller" data-county="Teller" d="M315.7,202.3L315.7,171.4L322.4,171.4L322.1,167.9L343.4,168.1L343.6,178.5L334.1,178.7L334.4,183.7L337.2,183.7L337.0,202.3L315.7,202.3Z"/>
    <path class="wtc-county" id="wtc-county-washington" data-county="Washington" d="M431.3,245.8L431.3,233.4L470.7,233.3L495.8,233.5L495.8,264.5L496.5,264.5L496.5,289.3L497.3,289.3L497.3,295.5L454.1,295.3L448.5,295.4L448.2,289.2L448.2,264.4L431.6,264.4L431.3,245.8Z"/>
    <path class="wtc-county" id="wtc-county-weld" data-county="Weld" d="M343.4,335.4L343.4,312.9L343.1,306.7L343.1,289.2L335.2,289.2L335.4,282.9L335.2,264.4L335.4,264.3L340.0,264.9L339.3,266.1L342.1,267.4L342.1,264.3L375.6,264.3L399.9,264.4L399.9,301.6L440.3,301.6L440.3,313.9L440.8,314.3L440.8,335.7L406.8,335.6L375.1,335.7L343.4,335.4Z"/>
    <path class="wtc-county" id="wtc-county-yuma" data-county="Yuma" d="M497.3,295.5L497.3,289.3L496.5,289.3L496.5,264.5L495.8,264.5L495.8,233.5L549.5,233.9L549.2,264.5L549.2,289.2L549.2,295.6L505.8,295.5L497.3,295.5Z"/>
  </g>
</svg>