<?xml version="1.0" encoding="UTF-8"?>
<svg xmlns="http://www.w3.org/2000/svg" viewBox="0 0 600 386" id="wtc-state-map-CO" role="img" aria-label="co county map">
  <title>co Counties</title>
  <g class="wtc-counties">
    <path class="wtc-county" id="wtc-county-adams" data-county="Adams" d="M335.4,127.6L335.4,136.4L345.4,136.9L347.4,135.8L354.1,135.8L354.1,132.8L358.4,132.5L358.4,128.7L362.0,128.1L367.6,128.6L366.4,130.4L366.4,134.1L356.1,134.0L358.2,137.9L351.5,137.6L347.4,140.0L376.9,140.1L431.3,140.0L431.6,121.4L399.9,121.4L375.6,121.4L342.1,121.4L340.0,123.7L338.2,122.8L338.2,127.1L335.4,127.6Z"/>
    <path class="wtc-county" id="wtc-county-alamosa" data-county="Alamosa" d="M265.1,306.7L265.1,309.8L286.3,309.8L304.0,295.0L304.7,294.1L303.5,292.6L305.2,287.8L305.2,284.8L306.8,281.7L265.3,281.9L265.1,306.7Z"/>
    <path class="wtc-county" id="wtc-county-arapahoe" data-county="Arapahoe" d="M335.4,148.4L335.7,152.3L363.3,152.4L430.8,152.3L431.3,152.3L431.3,140.0L376.9,140.1L347.4,140.0L348.7,143.1L346.2,143.3L346.2,145.1L350.0,145.9L347.4,148.2L341.0,145.1L336.7,146.2L335.4,147.7L335.4,147.9L335.4,148.4Z"/>
    <path class="wtc-county" id="wtc-county-archuleta" data-county="Archuleta" d="M162.3,305.1L162.3,335.2L166.6,335.2L205.5,335.2L206.0,335.7L234.1,335.7L226.0,325.2L225.4,321.4L219.6,318.9L219.6,306.5L217.3,306.4L217.3,307.0L187.6,307.3L187.6,305.1L162.3,305.1Z"/>
    <path class="wtc-county" id="wtc-county-baca" data-county="Baca" d="M476.3,289.4L476.3,308.0L475.8,308.0L475.6,335.2L481.7,335.2L497.6,335.2L503.2,335.6L550.0,335.7L550.0,307.5L550.0,289.3L499.6,289.3L476.3,289.4Z"/>
    <path class="wtc-county" id="wtc-county-bent" data-county="Bent" d="M453.3,245.1L453.3,276.6L452.8,289.3L476.3,289.4L499.6,289.3L499.6,276.5L500.1,276.5L500.1,245.0L453.3,245.1Z"/>
    <path class="wtc-county" id="wtc-county-boulder" data-county="Boulder" d="M292.7,102.9L290.9,107.1L291.7,110.2L294.0,111.0L293.7,118.2L290.2,120.4L289.9,125.7L291.2,126.3L310.9,126.2L310.9,127.7L328.8,127.6L331.3,124.6L332.9,124.4L335.4,121.4L335.2,121.4L335.4,102.8L318.5,102.7L310.4,103.1L292.7,102.9Z"/>
    <path class="wtc-county" id="wtc-county-broomfield" data-county="Broomfield" d="M328.8,127.6L334.1,128.6L335.4,127.6L338.2,127.1L338.2,122.8L340.0,123.7L342.1,121.4L342.1,118.3L339.3,119.6L340.0,120.9L335.4,121.4L332.9,124.4L331.3,124.6L328.8,127.6Z"/>
    <path class="wtc-county" id="wtc-county-chaffee" data-county="Chaffee" d="M225.2,192.9L228.0,192.8L234.4,198.9L238.2,198.2L244.9,199.6L242.8,203.0L238.0,206.2L238.2,212.4L235.9,214.4L237.5,217.0L241.6,219.8L243.4,224.0L244.4,228.7L250.5,233.8L262.5,233.8L263.8,231.4L267.1,232.2L272.5,228.1L274.6,227.9L274.8,224.9L276.6,221.1L274.0,219.1L273.3,215.5L270.2,214.5L272.3,209.6L274.6,206.5L272.0,203.2L273.3,201.8L269.7,201.1L270.5,199.4L265.9,196.8L260.0,197.0L260.2,193.6L255.9,193.4L254.3,188.7L226.7,188.6L225.2,192.9Z"/>
    <path class="wtc-county" id="wtc-county-cheyenne" data-county="Cheyenne" d="M470.2,190.1L469.9,214.8L469.4,220.4L477.4,220.2L549.7,220.1L549.7,214.2L549.7,189.4L501.9,189.9L470.2,190.1Z"/>
    <path class="wtc-county" id="wtc-county-clear-creek" data-county="Clear Creek" d="M273.3,142.9L273.3,144.8L278.6,146.8L282.7,147.4L284.0,149.2L280.2,152.5L297.3,152.2L310.9,152.4L310.9,139.5L303.7,138.7L294.2,132.6L290.2,132.0L286.8,135.4L282.2,135.5L280.7,136.7L276.1,135.9L276.3,140.2L273.3,142.9Z"/>
    <path class="wtc-county" id="wtc-county-conejos" data-county="Conejos" d="M219.6,306.5L219.6,318.9L225.4,321.4L226.0,325.2L234.1,335.7L267.6,335.6L288.1,335.5L284.3,332.2L286.6,327.8L285.8,325.6L287.3,322.3L286.1,317.6L287.9,314.6L285.5,310.8L286.3,309.8L265.1,309.8L265.1,306.7L233.1,306.8L219.6,306.5Z"/>
    <path class="wtc-county" id="wtc-county-costilla" data-county="Costilla" d="M286.3,309.8L285.5,310.8L287.9,314.6L286.1,317.6L287.3,322.3L285.8,325.6L286.6,327.8L284.3,332.2L288.1,335.5L323.4,335.6L328.3,335.6L328.3,314.3L327.5,314.6L327.5,307.5L330.1,305.9L328.0,302.6L326.7,302.7L326.5,296.3L323.7,293.7L326.0,291.1L322.4,291.0L318.0,288.3L312.9,289.6L310.6,291.5L307.8,291.6L304.7,294.1L304.0,295.0L286.3,309.8Z"/>
    <path class="wtc-county" id="wtc-county-crowley" data-county="Crowley" d="M406.8,226.7L406.3,253.5L410.9,253.5L412.4,254.6L421.4,255.2L422.1,255.9L437.7,255.9L437.7,251.8L445.4,251.7L445.9,245.1L445.7,239.6L445.9,227.1L438.0,226.7L406.8,226.7Z"/>
    <path class="wtc-county" id="wtc-county-custer" data-county="Custer" d="M282.5,245.1L283.0,246.6L291.2,252.6L292.5,257.4L294.5,259.2L296.3,263.3L299.4,267.4L302.9,268.3L305.5,271.4L309.8,271.8L316.8,268.3L319.8,270.5L322.1,266.6L325.4,263.4L328.8,263.6L330.3,267.4L333.1,267.1L335.7,270.0L335.7,245.6L282.5,245.1Z"/>
    <path class="wtc-county" id="wtc-county-delta" data-county="Delta" d="M161.0,177.2L151.3,182.6L147.7,186.5L142.1,189.6L135.7,187.1L132.1,188.4L126.7,188.5L118.8,194.2L119.3,195.0L115.5,199.4L98.6,204.9L98.6,216.4L161.0,216.3L161.0,177.2Z"/>
    <path class="wtc-county" id="wtc-county-denver" data-county="Denver" d="M335.4,136.4L335.4,143.0L333.4,144.9L335.4,146.3L331.3,148.1L335.4,148.4L335.4,147.9L335.4,147.7L336.7,146.2L341.0,145.1L347.4,148.2L350.0,145.9L346.2,145.1L346.2,143.3L348.7,143.1L347.4,140.0L351.5,137.6L358.2,137.9L356.1,134.0L366.4,134.1L366.4,130.4L367.6,128.6L362.0,128.1L358.4,128.7L358.4,132.5L354.1,132.8L354.1,135.8L347.4,135.8L345.4,136.9L335.4,136.4Z"/>
    <path class="wtc-county" id="wtc-county-dolores" data-county="Dolores" d="M51.3,272.4L51.3,297.4L51.0,300.7L60.2,290.2L113.9,290.0L127.5,289.6L127.7,285.6L134.4,283.8L135.4,280.0L126.2,274.2L119.1,275.4L117.5,274.3L115.5,275.9L110.6,276.7L107.3,271.5L67.4,271.4L66.9,272.4L51.3,272.4Z"/>
    <path class="wtc-county" id="wtc-county-douglas" data-county="Douglas" d="M335.7,152.3L333.1,157.4L329.5,159.1L330.6,161.8L327.0,163.7L327.5,166.9L322.6,175.1L315.7,183.4L337.0,183.4L363.3,183.5L363.3,152.4L335.7,152.3Z"/>
    <path class="wtc-county" id="wtc-county-eagle" data-county="Eagle" d="M194.2,127.2L188.6,127.2L188.6,166.6L237.5,166.9L239.5,165.6L242.8,167.5L247.7,167.8L253.3,165.7L253.3,164.3L250.0,159.4L249.7,155.3L252.8,154.9L252.8,151.6L255.1,149.5L254.6,146.2L251.5,145.6L249.2,142.9L247.2,142.6L243.6,138.9L240.5,138.1L237.7,132.8L237.0,126.8L223.4,126.8L221.4,127.2L194.2,127.2Z"/>
    <path class="wtc-county" id="wtc-county-elbert" data-county="Elbert" d="M363.3,152.4L363.3,183.5L406.8,183.6L406.5,202.1L430.6,202.2L430.3,183.6L430.8,152.3L363.3,152.4Z"/>
    <path class="wtc-county" id="wtc-county-el-paso" data-county="El Paso" d="M337.0,183.4L337.2,202.1L334.4,202.0L334.1,207.0L343.6,207.2L343.4,217.7L343.4,227.0L370.2,226.9L406.8,226.7L406.5,202.1L406.8,183.6L363.3,183.5L337.0,183.4Z"/>
    <path class="wtc-county" id="wtc-county-fremont" data-county="Fremont" d="M267.1,232.2L275.8,239.7L278.1,242.7L282.5,245.1L335.7,245.6L343.6,245.6L343.4,227.0L343.4,217.7L322.1,217.8L322.4,214.3L315.7,214.3L270.2,214.5L273.3,215.5L274.0,219.1L276.6,221.1L274.8,224.9L274.6,227.9L272.5,228.1L267.1,232.2Z"/>
    <path class="wtc-county" id="wtc-county-garfield" data-county="Garfield" d="M50.5,157.2L50.5,166.6L96.3,166.6L166.1,166.6L188.6,166.6L188.6,127.2L194.2,127.2L194.5,121.3L194.0,114.9L174.0,115.0L174.0,127.5L165.9,127.3L165.9,133.7L147.2,133.6L129.8,133.9L129.8,143.2L86.1,143.3L86.1,146.4L61.8,146.3L61.8,145.7L50.5,145.7L50.5,157.2Z"/>
    <path class="wtc-county" id="wtc-county-gilpin" data-county="Gilpin" d="M291.2,126.3L289.4,129.2L290.2,132.0L294.2,132.6L303.7,138.7L310.9,139.5L310.9,127.7L310.9,126.2L291.2,126.3Z"/>
    <path class="wtc-county" id="wtc-county-grand" data-county="Grand" d="M221.6,89.7L221.4,97.1L222.9,97.1L222.6,121.3L223.4,126.8L237.0,126.8L239.8,127.6L250.0,127.6L253.6,131.2L258.7,132.6L262.0,135.3L263.8,141.1L268.2,144.0L273.3,142.9L276.3,140.2L276.1,135.9L280.7,136.7L282.2,135.5L286.8,135.4L290.2,132.0L289.4,129.2L291.2,126.3L289.9,125.7L290.2,120.4L293.7,118.2L294.0,111.0L291.7,110.2L290.9,107.1L292.7,102.9L290.4,99.9L284.5,95.8L281.2,91.4L281.7,87.6L278.4,86.8L275.3,88.0L275.1,92.2L272.0,94.0L271.0,96.6L266.1,95.0L258.2,97.9L256.1,97.0L251.5,98.3L249.5,96.0L246.9,96.1L246.7,97.9L242.6,96.0L240.0,96.8L235.4,95.9L232.9,92.4L230.1,95.4L224.4,94.5L223.4,91.0L221.6,89.7Z"/>
    <path class="wtc-county" id="wtc-county-gunnison" data-county="Gunnison" d="M151.5,242.5L154.9,246.2L156.6,252.7L156.1,253.5L196.5,253.5L196.8,233.6L250.5,233.8L244.4,228.7L243.4,224.0L241.6,219.8L237.5,217.0L235.9,214.4L238.2,212.4L238.0,206.2L242.8,203.0L244.9,199.6L238.2,198.2L234.4,198.9L228.0,192.8L225.2,192.9L221.4,189.6L218.5,188.8L214.7,189.7L210.9,194.3L207.5,193.7L206.5,192.0L203.5,193.3L196.5,189.7L197.1,187.8L191.9,184.2L176.6,184.2L175.6,181.8L171.5,180.4L169.9,178.6L170.2,175.7L168.7,174.4L166.1,174.4L164.6,176.3L161.0,177.2L161.0,216.3L161.0,242.5L151.5,242.5Z"/>
    <path class="wtc-county" id="wtc-county-hinsdale" data-county="Hinsdale" d="M156.1,253.5L156.4,256.9L160.2,259.7L157.7,264.1L154.6,264.5L156.1,266.4L158.7,268.0L159.7,271.0L158.4,272.9L160.0,276.4L163.3,277.5L164.1,279.5L162.3,280.5L162.3,289.6L162.3,305.1L187.6,305.1L187.9,287.1L186.3,287.1L186.8,268.3L191.9,266.8L196.8,267.1L196.5,253.5L156.1,253.5Z"/>
    <path class="wtc-county" id="wtc-county-huerfano" data-county="Huerfano" d="M306.8,281.7L305.2,284.8L305.2,287.8L303.5,292.6L304.7,294.1L307.8,291.6L310.6,291.5L312.9,289.6L318.0,288.3L322.4,291.0L326.0,291.1L323.7,293.7L326.5,296.3L326.7,302.7L328.0,302.6L330.1,305.9L327.5,307.5L327.5,314.6L328.3,314.3L331.3,313.9L339.3,308.9L344.1,307.0L347.7,307.6L356.9,306.2L361.0,303.6L361.5,299.9L363.3,299.9L370.7,294.7L371.7,291.3L377.9,282.6L385.5,277.0L364.3,271.0L338.2,272.4L335.7,270.0L333.1,267.1L330.3,267.4L328.8,263.6L325.4,263.4L322.1,266.6L319.8,270.5L316.8,268.3L309.8,271.8L305.5,271.4L308.6,274.5L308.3,277.9L306.8,278.5L306.8,281.7Z"/>
    <path class="wtc-county" id="wtc-county-jackson" data-county="Jackson" d="M206.8,50.0L205.8,52.3L207.5,55.6L210.9,57.5L212.4,56.9L215.7,59.3L218.8,58.3L222.6,63.5L220.1,68.9L220.3,71.8L217.8,77.5L218.0,80.4L221.4,85.1L221.6,89.7L223.4,91.0L224.4,94.5L230.1,95.4L232.9,92.4L235.4,95.9L240.0,96.8L242.6,96.0L246.7,97.9L246.9,96.1L249.5,96.0L251.5,98.3L256.1,97.0L258.2,97.9L266.1,95.0L271.0,96.6L272.0,94.0L275.1,92.2L275.3,88.0L278.4,86.8L277.4,84.3L274.6,84.7L274.3,81.1L271.7,75.7L264.6,64.1L259.0,59.5L258.2,57.2L254.6,54.7L254.3,50.4L245.1,50.2L206.8,50.0Z"/>
    <path class="wtc-county" id="wtc-county-jefferson" data-county="Jefferson" d="M310.9,152.4L310.9,183.5L315.7,183.4L322.6,175.1L327.5,166.9L327.0,163.7L330.6,161.8L329.5,159.1L333.1,157.4L335.7,152.3L335.4,148.4L331.3,148.1L335.4,146.3L333.4,144.9L335.4,143.0L335.4,136.4L335.4,127.6L334.1,128.6L328.8,127.6L310.9,127.7L310.9,139.5L310.9,152.4Z"/>
    <path class="wtc-county" id="wtc-county-kiowa" data-county="Kiowa" d="M445.9,227.1L445.7,239.6L445.9,245.1L453.3,245.1L500.1,245.0L549.7,244.8L549.7,220.1L477.4,220.2L469.4,220.4L469.4,226.5L445.9,226.7L445.9,227.1Z"/>
    <path class="wtc-county" id="wtc-county-kit-carson" data-county="Kit Carson" d="M470.7,152.4L470.7,183.6L470.2,190.1L501.9,189.9L549.7,189.4L549.7,183.2L549.5,171.1L549.5,152.2L549.5,151.8L495.8,152.2L470.7,152.4Z"/>
    <path class="wtc-county" id="wtc-county-lake" data-county="Lake" d="M237.5,166.9L237.2,170.2L233.4,170.5L233.6,173.3L231.8,180.8L228.0,181.6L228.3,184.1L226.2,186.4L226.7,188.6L254.3,188.7L255.9,186.6L253.1,185.3L255.6,183.0L254.9,177.8L254.9,170.6L257.2,169.9L258.4,165.7L253.3,165.7L247.7,167.8L242.8,167.5L239.5,165.6L237.5,166.9Z"/>
    <path class="wtc-county" id="wtc-county-la-plata" data-county="La Plata" d="M127.5,289.6L123.9,293.1L122.9,297.9L123.1,302.1L119.8,304.2L118.0,307.8L111.4,309.9L109.8,314.4L107.8,317.4L104.5,319.8L104.7,324.8L103.5,325.9L101.7,331.3L98.3,335.2L107.8,335.3L162.3,335.2L162.3,305.1L162.3,289.6L127.5,289.6Z"/>
    <path class="wtc-county" id="wtc-county-larimer" data-county="Larimer" d="M254.3,50.4L254.6,54.7L258.2,57.2L259.0,59.5L264.6,64.1L271.7,75.7L274.3,81.1L274.6,84.7L277.4,84.3L278.4,86.8L281.7,87.6L281.2,91.4L284.5,95.8L290.4,99.9L292.7,102.9L310.4,103.1L318.5,102.7L335.4,102.8L335.2,96.6L343.1,96.6L343.1,79.0L343.4,72.8L343.4,50.4L319.6,50.3L287.6,50.4L254.3,50.4Z"/>
    <path class="wtc-county" id="wtc-county-las-animas" data-county="Las Animas" d="M328.3,314.3L328.3,335.6L339.3,335.7L386.3,335.7L409.8,335.5L475.6,335.2L475.8,308.0L476.3,308.0L476.3,289.4L452.8,289.3L406.3,289.3L406.0,282.9L385.5,277.0L377.9,282.6L371.7,291.3L370.7,294.7L363.3,299.9L361.5,299.9L361.0,303.6L356.9,306.2L347.7,307.6L344.1,307.0L339.3,308.9L331.3,313.9L328.3,314.3Z"/>
    <path class="wtc-county" id="wtc-county-lincoln" data-county="Lincoln" d="M406.5,202.1L406.8,226.7L438.0,226.7L445.9,227.1L445.9,226.7L469.4,226.5L469.4,220.4L469.9,214.8L470.2,190.1L470.7,183.6L470.7,152.4L431.3,152.3L430.8,152.3L430.3,183.6L430.6,202.2L406.5,202.1Z"/>
    <path class="wtc-county" id="wtc-county-logan" data-county="Logan" d="M440.8,50.1L440.8,71.4L440.3,71.8L440.3,84.2L448.5,84.2L448.5,90.3L454.1,90.4L497.3,90.2L505.8,90.2L505.8,71.2L506.5,68.1L506.5,50.1L454.6,50.1L440.8,50.1Z"/>
    <path class="wtc-county" id="wtc-county-mesa" data-county="Mesa" d="M50.5,166.6L50.5,199.5L50.0,212.7L50.0,228.3L98.3,228.3L98.6,216.4L98.6,204.9L115.5,199.4L119.3,195.0L118.8,194.2L126.7,188.5L132.1,188.4L135.7,187.1L142.1,189.6L147.7,186.5L151.3,182.6L161.0,177.2L164.6,176.3L166.1,174.4L168.7,174.4L169.7,173.5L163.6,170.3L166.1,166.6L96.3,166.6L50.5,166.6Z"/>
    <path class="wtc-county" id="wtc-county-mineral" data-county="Mineral" d="M196.8,267.1L191.9,266.8L186.8,268.3L186.3,287.1L187.9,287.1L187.6,305.1L187.6,307.3L217.3,307.0L217.3,306.4L217.3,287.9L218.5,287.9L218.5,275.7L218.5,273.0L212.9,272.1L210.9,270.1L207.5,269.8L205.2,266.8L200.6,267.2L199.1,265.8L196.8,267.1Z"/>
    <path class="wtc-county" id="wtc-county-moffat" data-county="Moffat" d="M50.8,74.2L50.5,85.8L50.5,105.6L80.9,105.6L165.3,105.5L165.1,97.6L165.9,97.6L166.1,82.8L170.2,82.8L170.2,78.7L174.3,78.7L174.0,50.0L131.3,50.1L112.7,50.2L50.8,50.2L50.8,74.2Z"/>
    <path class="wtc-county" id="wtc-county-montezuma" data-county="Montezuma" d="M51.0,300.7L51.0,335.3L98.3,335.2L101.7,331.3L103.5,325.9L104.7,324.8L104.5,319.8L107.8,317.4L109.8,314.4L111.4,309.9L118.0,307.8L119.8,304.2L123.1,302.1L122.9,297.9L123.9,293.1L127.5,289.6L113.9,290.0L60.2,290.2L51.0,300.7Z"/>
    <path class="wtc-county" id="wtc-county-montrose" data-county="Montrose" d="M50.0,228.3L50.0,244.3L51.3,253.0L60.7,252.9L128.0,253.1L129.3,253.1L129.8,248.4L124.7,245.8L119.3,245.8L118.0,241.6L116.0,240.4L151.5,240.3L151.5,242.5L161.0,242.5L161.0,216.3L98.6,216.4L98.3,228.3L50.0,228.3Z"/>
    <path class="wtc-county" id="wtc-county-morgan" data-county="Morgan" d="M440.3,84.2L399.9,84.1L399.9,121.4L431.6,121.4L448.2,121.4L448.2,96.5L448.5,90.3L448.5,84.2L440.3,84.2Z"/>
    <path class="wtc-county" id="wtc-county-otero" data-county="Otero" d="M406.3,253.5L406.3,276.6L406.0,282.9L406.3,289.3L452.8,289.3L453.3,276.6L453.3,245.1L445.9,245.1L445.4,251.7L437.7,251.8L437.7,255.9L422.1,255.9L421.4,255.2L412.4,254.6L410.9,253.5L406.3,253.5Z"/>
    <path class="wtc-county" id="wtc-county-ouray" data-county="Ouray" d="M151.5,242.5L151.5,240.3L116.0,240.4L118.0,241.6L119.3,245.8L124.7,245.8L129.8,248.4L129.3,253.1L128.0,253.1L129.0,255.7L133.1,255.7L132.6,262.1L136.2,264.5L140.0,264.8L144.6,269.0L144.1,270.7L147.2,271.6L151.3,269.6L151.0,266.4L156.1,266.4L154.6,264.5L157.7,264.1L160.2,259.7L156.4,256.9L156.1,253.5L156.6,252.7L154.9,246.2L151.5,242.5Z"/>
    <path class="wtc-county" id="wtc-county-park" data-county="Park" d="M258.4,165.7L257.2,169.9L254.9,170.6L254.9,177.8L255.6,183.0L253.1,185.3L255.9,186.6L254.3,188.7L255.9,193.4L260.2,193.6L260.0,197.0L265.9,196.8L270.5,199.4L269.7,201.1L273.3,201.8L272.0,203.2L274.6,206.5L272.3,209.6L270.2,214.5L315.7,214.3L315.7,183.4L310.9,183.5L310.9,152.4L297.3,152.2L280.2,152.5L280.9,154.4L277.4,155.9L278.4,156.8L274.3,160.2L270.5,161.5L271.5,163.2L268.4,164.1L266.4,166.9L264.1,167.2L258.4,165.7Z"/>
    <path class="wtc-county" id="wtc-county-phillips" data-county="Phillips" d="M506.5,68.1L505.8,71.2L505.8,90.2L549.2,90.1L549.2,71.7L549.2,68.1L506.5,68.1Z"/>
    <path class="wtc-county" id="wtc-county-pitkin" data-county="Pitkin" d="M166.1,166.6L163.6,170.3L169.7,173.5L168.7,174.4L170.2,175.7L169.9,178.6L171.5,180.4L175.6,181.8L176.6,184.2L191.9,184.2L197.1,187.8L196.5,189.7L203.5,193.3L206.5,192.0L207.5,193.7L210.9,194.3L214.7,189.7L218.5,188.8L221.4,189.6L225.2,192.9L226.7,188.6L226.2,186.4L228.3,184.1L228.0,181.6L231.8,180.8L233.6,173.3L233.4,170.5L237.2,170.2L237.5,166.9L188.6,166.6L166.1,166.6Z"/>
    <path class="wtc-county" id="wtc-county-prowers" data-county="Prowers" d="M500.1,245.0L500.1,276.5L499.6,276.5L499.6,289.3L550.0,289.3L550.0,282.6L549.7,245.3L549.7,244.8L500.1,245.0Z"/>
    <path class="wtc-county" id="wtc-county-pueblo" data-county="Pueblo" d="M335.7,245.6L335.7,270.0L338.2,272.4L364.3,271.0L385.5,277.0L406.0,282.9L406.3,276.6L406.3,253.5L406.8,226.7L370.2,226.9L343.4,227.0L343.6,245.6L335.7,245.6Z"/>
    <path class="wtc-county" id="wtc-county-rio-blanco" data-county="Rio Blanco" d="M50.5,105.6L50.5,145.7L61.8,145.7L61.8,146.3L86.1,146.4L86.1,143.3L129.8,143.2L129.8,133.9L147.2,133.6L165.9,133.7L165.9,127.3L174.0,127.5L174.0,115.0L194.0,114.9L194.0,105.4L165.3,105.5L80.9,105.6L50.5,105.6Z"/>
    <path class="wtc-county" id="wtc-county-rio-grande" data-county="Rio Grande" d="M218.5,275.7L218.5,287.9L217.3,287.9L217.3,306.4L219.6,306.5L233.1,306.8L265.1,306.7L265.3,281.9L226.2,281.9L226.2,275.8L218.5,275.7Z"/>
    <path class="wtc-county" id="wtc-county-routt" data-county="Routt" d="M174.0,50.0L174.3,78.7L170.2,78.7L170.2,82.8L166.1,82.8L165.9,97.6L165.1,97.6L165.3,105.5L194.0,105.4L194.0,114.9L194.5,121.3L194.2,127.2L221.4,127.2L223.4,126.8L222.6,121.3L222.9,97.1L221.4,97.1L221.6,89.7L221.4,85.1L218.0,80.4L217.8,77.5L220.3,71.8L220.1,68.9L222.6,63.5L218.8,58.3L215.7,59.3L212.4,56.9L210.9,57.5L207.5,55.6L205.8,52.3L206.8,50.0L174.0,50.0Z"/>
    <path class="wtc-county" id="wtc-county-saguache" data-county="Saguache" d="M196.5,253.5L196.8,267.1L199.1,265.8L200.6,267.2L205.2,266.8L207.5,269.8L210.9,270.1L212.9,272.1L218.5,273.0L218.5,275.7L226.2,275.8L226.2,281.9L265.3,281.9L306.8,281.7L306.8,278.5L308.3,277.9L308.6,274.5L305.5,271.4L302.9,268.3L299.4,267.4L296.3,263.3L294.5,259.2L292.5,257.4L291.2,252.6L283.0,246.6L282.5,245.1L278.1,242.7L275.8,239.7L267.1,232.2L263.8,231.4L262.5,233.8L250.5,233.8L196.8,233.6L196.5,253.5Z"/>
    <path class="wtc-county" id="wtc-county-san-juan" data-county="San Juan" d="M135.4,280.0L134.4,283.8L127.7,285.6L127.5,289.6L162.3,289.6L162.3,280.5L164.1,279.5L163.3,277.5L160.0,276.4L158.4,272.9L159.7,271.0L158.7,268.0L156.1,266.4L151.0,266.4L151.3,269.6L147.2,271.6L144.1,270.7L141.0,273.4L140.0,276.6L135.4,280.0Z"/>
    <path class="wtc-county" id="wtc-county-san-miguel" data-county="San Miguel" d="M51.3,253.0L51.3,272.4L66.9,272.4L67.4,271.4L107.3,271.5L110.6,276.7L115.5,275.9L117.5,274.3L119.1,275.4L126.2,274.2L135.4,280.0L140.0,276.6L141.0,273.4L144.1,270.7L144.6,269.0L140.0,264.8L136.2,264.5L132.6,262.1L133.1,255.7L129.0,255.7L128.0,253.1L60.7,252.9L51.3,253.0Z"/>
    <path class="wtc-county" id="wtc-county-sedgwick" data-county="Sedgwick" d="M506.5,50.1L506.5,68.1L549.2,68.1L549.2,50.1L508.8,50.0L506.5,50.1Z"/>
    <path class="wtc-county" id="wtc-county-summit" data-county="Summit" d="M237.0,126.8L237.7,132.8L240.5,138.1L243.6,138.9L247.2,142.6L249.2,142.9L251.5,145.6L254.6,146.2L255.1,149.5L252.8,151.6L252.8,154.9L249.7,155.3L250.0,159.4L253.3,164.3L253.3,165.7L258.4,165.7L264.1,167.2L266.4,166.9L268.4,164.1L271.5,163.2L270.5,161.5L274.3,160.2L278.4,156.8L277.4,155.9L280.9,154.4L280.2,152.5L284.0,149.2L282.7,147.4L278.6,146.8L273.3,144.8L273.3,142.9L268.2,144.0L263.8,141.1L262.0,135.3L258.7,132.6L253.6,131.2L250.0,127.6L239.8,127.6L237.0,126.8Z"/>
    <path class="wtc-county" id="wtc-county-teller" data-county="Teller" d="M315.7,183.4L315.7,214.3L322.4,214.3L322.1,217.8L343.4,217.7L343.6,207.2L334.1,207.0L334.4,202.0L337.2,202.1L337.0,183.4L315.7,183.4Z"/>
    <path class="wtc-county" id="wtc-county-washington" data-county="Washington" d="M431.3,140.0L431.3,152.3L470.7,152.4L495.8,152.2L495.8,121.3L496.5,121.3L496.5,96.4L497.3,96.5L497.3,90.2L454.1,90.4L448.5,90.3L448.2,96.5L448.2,121.4L431.6,121.4L431.3,140.0Z"/>
    <path class="wtc-county" id="wtc-county-weld" data-county="Weld" d="M343.4,50.4L343.4,72.8L343.1,79.0L343.1,96.6L335.2,96.6L335.4,102.8L335.2,121.4L335.4,121.4L340.0,120.9L339.3,119.6L342.1,118.3L342.1,121.4L375.6,121.4L399.9,121.4L399.9,84.1L440.3,84.2L440.3,71.8L440.8,71.4L440.8,50.1L406.8,50.1L375.1,50.1L343.4,50.4Z"/>
    <path class="wtc-county" id="wtc-county-yuma" data-county="Yuma" d="M497.3,90.2L497.3,96.5L496.5,96.4L496.5,121.3L495.8,121.3L495.8,152.2L549.5,151.8L549.2,121.3L549.2,96.6L549.2,90.1L505.8,90.2L497.3,90.2Z"/>
  </g>
</svg>