<?xml version="1.0" encoding="UTF-8"?>
<svg xmlns="http://www.w3.org/2000/svg" viewBox="0 0 600 592" id="wtc-state-map-AZ" role="img" aria-label="az county map">
  <title>az Counties</title>
  <g class="wtc-counties">
    <path class="wtc-county" id="wtc-county-apache" data-county="Apache" d="M467.2,541.1L467.2,425.4L482.2,425.3L482.2,412.8L480.6,412.8L480.9,382.7L480.6,352.6L480.0,352.6L480.3,337.4L478.7,329.8L480.3,323.6L480.3,292.2L479.4,292.2L479.4,261.9L476.6,262.0L476.6,243.8L481.5,240.9L483.4,236.5L489.0,236.6L490.6,239.7L494.6,241.7L496.5,245.2L499.9,245.1L501.8,247.7L508.0,248.5L510.8,251.1L512.4,254.5L515.5,256.4L523.2,257.4L523.9,261.9L549.7,262.0L550.0,270.4L549.7,281.2L550.0,331.5L550.0,364.5L550.0,395.4L549.7,397.6L550.0,415.3L550.0,454.9L550.0,541.2L499.6,541.1L467.2,541.1Z"/>
    <path class="wtc-county" id="wtc-county-cochise" data-county="Cochise" d="M428.0,84.6L428.0,74.4L427.4,74.4L427.1,61.9L427.4,50.0L467.2,50.1L529.8,50.1L549.7,50.0L549.7,144.8L544.1,144.8L534.1,144.6L452.3,144.8L428.0,144.9L428.3,129.5L428.0,84.6Z"/>
    <path class="wtc-county" id="wtc-county-coconino" data-county="Coconino" d="M240.4,517.8L238.6,513.0L240.1,506.7L237.0,502.9L237.0,499.2L239.8,496.6L237.9,494.5L239.8,489.9L236.4,485.1L231.4,484.7L224.9,479.2L218.6,479.1L215.5,476.6L208.7,474.7L204.3,474.6L195.3,469.0L193.4,469.7L189.7,467.7L189.7,465.1L186.9,462.4L180.4,463.2L176.6,459.0L177.6,453.3L179.7,451.3L178.2,447.1L180.4,444.5L178.2,439.0L178.2,413.7L184.4,413.8L191.9,411.8L194.4,409.4L199.7,407.2L209.3,402.0L211.8,398.5L224.9,395.9L228.3,394.5L233.6,394.9L243.8,389.1L252.9,388.6L255.7,390.5L255.4,380.9L264.7,380.8L264.7,365.6L310.4,365.9L313.2,366.3L313.2,350.8L332.5,350.8L332.5,322.1L339.7,320.9L332.8,317.6L340.3,316.7L342.8,319.9L344.3,313.9L345.9,318.4L349.9,319.5L353.7,318.3L359.0,320.5L362.4,316.7L367.4,315.4L367.7,313.8L372.0,315.6L378.9,312.7L385.1,308.8L389.5,307.4L393.8,304.2L398.8,308.0L402.2,304.1L402.2,541.6L350.2,541.4L247.3,541.3L247.9,537.2L244.2,532.0L241.0,524.0L240.4,517.8Z"/>
    <path class="wtc-county" id="wtc-county-gila" data-county="Gila" d="M332.5,322.1L332.5,319.3L323.2,314.7L322.9,306.0L319.8,302.1L320.4,296.9L318.8,294.3L339.0,294.3L337.8,292.8L340.3,287.6L337.8,284.6L337.5,281.2L341.8,281.4L341.5,274.3L345.3,274.3L344.6,271.2L348.4,266.0L346.8,264.2L347.1,259.6L351.2,256.9L351.8,254.2L357.7,248.5L361.1,246.7L362.4,249.5L367.4,253.3L377.0,235.0L382.6,224.2L385.1,216.2L399.4,193.2L404.1,196.9L404.4,200.6L407.2,201.2L408.4,204.2L412.5,206.9L415.9,206.2L423.4,210.7L428.3,211.4L432.1,211.7L428.7,216.9L428.0,226.0L431.1,229.1L437.1,230.0L437.7,231.6L443.3,232.7L448.6,232.5L454.8,234.9L462.3,235.0L467.2,236.9L467.2,244.6L467.2,281.2L402.2,281.2L402.2,304.1L398.8,308.0L393.8,304.2L389.5,307.4L385.1,308.8L378.9,312.7L372.0,315.6L367.7,313.8L367.4,315.4L362.4,316.7L359.0,320.5L353.7,318.3L349.9,319.5L345.9,318.4L344.3,313.9L342.8,319.9L340.3,316.7L332.8,317.6L339.7,320.9L332.5,322.1Z"/>
    <path class="wtc-county" id="wtc-county-graham" data-county="Graham" d="M467.2,244.6L467.2,236.9L462.3,235.0L454.8,234.9L448.6,232.5L443.3,232.7L437.7,231.6L437.1,230.0L431.1,229.1L428.0,226.0L428.7,216.9L432.1,211.7L428.3,211.4L428.3,152.9L428.0,152.4L428.0,144.9L452.3,144.8L534.1,144.6L544.1,144.8L534.4,153.7L535.7,158.5L535.4,166.8L532.6,172.2L526.4,180.9L525.1,181.0L510.8,201.3L510.8,251.1L508.0,248.5L501.8,247.7L499.9,245.1L496.5,245.2L494.6,241.7L490.6,239.7L489.0,236.6L483.4,236.5L481.5,240.9L476.6,243.8L467.2,244.6Z"/>
    <path class="wtc-county" id="wtc-county-greenlee" data-county="Greenlee" d="M510.8,251.1L510.8,201.3L525.1,181.0L526.4,180.9L532.6,172.2L535.4,166.8L535.7,158.5L534.4,153.7L544.1,144.8L549.7,144.8L549.7,175.3L549.7,212.6L549.7,262.0L523.9,261.9L523.2,257.4L515.5,256.4L512.4,254.5L510.8,251.1Z"/>
    <path class="wtc-county" id="wtc-county-la-paz" data-county="La Paz" d="M66.2,232.1L64.6,230.7L57.5,229.7L60.0,225.9L57.2,221.1L61.8,218.0L61.2,207.4L59.0,202.4L63.4,197.4L64.3,198.6L68.4,196.8L70.5,197.7L75.8,196.9L97.3,197.1L97.3,234.8L124.1,234.8L124.1,227.3L178.2,227.3L178.2,281.1L178.2,308.8L175.7,306.8L160.8,308.0L156.4,302.3L148.3,299.5L143.0,302.1L134.3,300.7L133.4,303.0L126.9,302.8L117.5,303.7L112.9,307.1L108.5,307.5L108.8,303.9L101.0,299.0L100.7,297.6L95.4,296.0L92.3,293.1L83.9,290.2L82.7,288.1L82.7,283.7L74.0,275.0L76.1,273.6L76.8,269.5L74.9,269.0L74.6,265.2L76.8,260.4L77.4,254.9L74.9,254.0L73.6,245.9L74.9,242.4L72.1,240.6L66.5,234.2L66.2,232.1Z"/>
    <path class="wtc-county" id="wtc-county-maricopa" data-county="Maricopa" d="M178.2,227.3L178.2,151.6L197.8,151.6L276.2,151.8L276.2,221.5L277.1,217.6L280.9,216.6L286.5,212.3L330.0,212.3L330.3,234.9L377.0,235.0L367.4,253.3L362.4,249.5L361.1,246.7L357.7,248.5L351.8,254.2L351.2,256.9L347.1,259.6L346.8,264.2L348.4,266.0L344.6,271.2L345.3,274.3L341.5,274.3L341.8,281.4L337.5,281.2L317.6,281.2L279.6,285.4L276.8,279.1L272.8,276.2L272.8,273.0L270.0,271.0L229.2,281.2L178.2,281.1L178.2,227.3Z"/>
    <path class="wtc-county" id="wtc-county-mohave" data-county="Mohave" d="M116.0,527.7L116.0,508.8L116.6,488.5L116.3,471.4L114.7,470.3L107.2,456.7L99.8,455.8L93.2,459.6L93.9,461.7L88.3,467.0L84.2,467.2L76.8,465.8L76.1,467.7L70.8,467.8L67.1,465.9L65.6,466.9L62.8,464.8L55.0,462.5L57.2,456.5L55.9,453.3L59.6,446.1L62.8,443.8L60.0,442.0L58.7,437.8L60.3,433.4L59.3,429.6L61.5,427.3L60.6,424.4L63.4,421.6L63.4,413.9L61.5,411.2L62.8,406.9L66.2,403.4L68.0,398.6L70.8,385.3L70.8,380.0L64.3,376.8L67.4,375.1L65.6,368.1L65.2,357.1L70.2,352.9L72.4,347.7L79.6,343.0L87.6,325.2L87.0,320.9L91.1,320.4L100.7,312.9L105.1,311.5L108.5,307.5L112.9,307.1L117.5,303.7L126.9,302.8L133.4,303.0L134.3,300.7L143.0,302.1L148.3,299.5L156.4,302.3L160.8,308.0L175.7,306.8L178.2,308.8L178.2,413.7L178.2,439.0L180.4,444.5L178.2,447.1L179.7,451.3L177.6,453.3L176.6,459.0L180.4,463.2L186.9,462.4L189.7,465.1L189.7,467.7L193.4,469.7L195.3,469.0L204.3,474.6L208.7,474.7L215.5,476.6L218.6,479.1L224.9,479.2L231.4,484.7L236.4,485.1L239.8,489.9L237.9,494.5L239.8,496.6L237.0,499.2L237.0,502.9L240.1,506.7L238.6,513.0L240.4,517.8L241.0,524.0L244.2,532.0L247.9,537.2L247.3,541.3L215.8,541.3L178.2,541.3L116.0,541.3L116.0,527.7Z"/>
    <path class="wtc-county" id="wtc-county-navajo" data-county="Navajo" d="M402.2,541.6L402.2,304.1L402.2,281.2L467.2,281.2L467.2,244.6L476.6,243.8L476.6,262.0L479.4,261.9L479.4,292.2L480.3,292.2L480.3,323.6L478.7,329.8L480.3,337.4L480.0,352.6L480.6,352.6L480.9,382.7L480.6,412.8L482.2,412.8L482.2,425.3L467.2,425.4L467.2,541.1L426.5,541.1L424.6,541.6L402.2,541.6Z"/>
    <path class="wtc-county" id="wtc-county-pima" data-county="Pima" d="M178.2,151.6L178.2,111.2L196.2,105.5L262.2,85.4L348.7,58.1L348.7,66.4L366.4,66.4L366.4,84.1L393.2,84.2L393.2,84.6L428.0,84.6L428.3,129.5L428.0,144.9L428.0,152.4L393.8,152.4L392.9,152.2L366.7,152.2L366.7,151.4L349.9,151.4L331.3,151.8L276.2,151.8L197.8,151.6L178.2,151.6Z"/>
    <path class="wtc-county" id="wtc-county-pinal" data-county="Pinal" d="M377.0,235.0L330.3,234.9L330.0,212.3L286.5,212.3L280.9,216.6L277.1,217.6L276.2,221.5L276.2,151.8L331.3,151.8L349.9,151.4L366.7,151.4L366.7,152.2L392.9,152.2L393.8,152.4L428.0,152.4L428.3,152.9L428.3,211.4L423.4,210.7L415.9,206.2L412.5,206.9L408.4,204.2L407.2,201.2L404.4,200.6L404.1,196.9L399.4,193.2L385.1,216.2L382.6,224.2L377.0,235.0Z"/>
    <path class="wtc-county" id="wtc-county-santa-cruz" data-county="Santa Cruz" d="M428.0,84.6L393.2,84.6L393.2,84.2L366.4,84.1L366.4,66.4L348.7,66.4L348.7,58.1L373.9,50.0L427.4,50.0L427.1,61.9L427.4,74.4L428.0,74.4L428.0,84.6Z"/>
    <path class="wtc-county" id="wtc-county-yavapai" data-county="Yavapai" d="M178.2,413.7L178.2,308.8L178.2,281.1L229.2,281.2L270.0,271.0L272.8,273.0L272.8,276.2L276.8,279.1L279.6,285.4L317.6,281.2L337.5,281.2L337.8,284.6L340.3,287.6L337.8,292.8L339.0,294.3L318.8,294.3L320.4,296.9L319.8,302.1L322.9,306.0L323.2,314.7L332.5,319.3L332.5,322.1L332.5,350.8L313.2,350.8L313.2,366.3L310.4,365.9L264.7,365.6L264.7,380.8L255.4,380.9L255.7,390.5L252.9,388.6L243.8,389.1L233.6,394.9L228.3,394.5L224.9,395.9L211.8,398.5L209.3,402.0L199.7,407.2L194.4,409.4L191.9,411.8L184.4,413.8L178.2,413.7Z"/>
    <path class="wtc-county" id="wtc-county-yuma" data-county="Yuma" d="M58.1,170.2L52.8,162.5L50.3,161.3L50.0,156.9L51.6,155.6L50.0,150.7L164.5,115.6L178.2,111.2L178.2,151.6L178.2,227.3L124.1,227.3L124.1,234.8L97.3,234.8L97.3,197.1L75.8,196.9L78.6,189.0L80.2,187.0L79.9,181.1L74.3,176.4L74.9,173.5L67.1,171.5L59.6,172.5L58.1,170.2Z"/>
  </g>
</svg>