<?xml version="1.0" encoding="UTF-8"?>
<svg xmlns="http://www.w3.org/2000/svg" viewBox="0 0 455 600" id="wtc-state-map-NH" role="img" aria-label="nh county map">
  <title>nh Counties</title>
  <g class="wtc-counties">
    <path class="wtc-county" id="wtc-county-belknap" data-county="Belknap" d="M246.0,254.0L248.1,241.8L224.0,239.3L223.3,227.1L216.5,222.0L208.2,221.2L208.9,216.1L218.5,203.9L226.1,202.3L233.0,191.4L242.6,194.7L303.1,162.8L317.6,176.1L311.4,206.7L316.9,211.3L299.0,217.6L246.0,254.0Z"/>
    <path class="wtc-county" id="wtc-county-carroll" data-county="Carroll" d="M268.7,340.4L268.7,331.9L274.2,329.6L274.9,318.5L281.8,312.9L274.9,304.0L279.1,283.6L239.9,279.3L246.0,254.0L299.0,217.6L316.9,211.3L323.8,217.9L326.5,205.3L341.0,209.7L343.7,200.6L355.4,211.8L353.4,217.4L350.6,259.9L346.5,354.4L339.6,354.1L340.3,345.2L299.7,346.5L290.1,326.1L288.7,317.4L282.5,317.4L279.8,331.5L268.7,340.4Z"/>
    <path class="wtc-county" id="wtc-county-cheshire" data-county="Cheshire" d="M69.9,139.1L73.4,124.1L67.2,118.7L71.3,110.1L65.8,102.7L56.9,101.0L56.2,91.7L50.0,79.6L58.3,62.8L62.4,64.5L68.6,55.8L102.3,54.8L170.4,53.0L166.9,67.6L161.4,67.8L155.2,97.3L144.9,97.6L145.6,111.7L149.1,132.8L122.2,133.3L126.4,143.0L84.4,138.2L85.1,133.5L74.1,134.1L69.9,139.1Z"/>
    <path class="wtc-county" id="wtc-county-coos" data-county="Coos" d="M201.3,377.6L214.4,363.3L235.7,358.2L237.8,348.5L250.9,350.1L263.2,347.5L268.7,340.4L279.8,331.5L282.5,317.4L288.7,317.4L290.1,326.1L299.7,346.5L340.3,345.2L339.6,354.1L346.5,354.4L342.3,425.4L332.0,550.0L323.1,538.5L303.8,539.3L293.5,549.3L278.4,542.4L275.6,538.1L263.2,536.3L272.2,530.4L264.6,518.2L266.7,515.8L254.3,505.2L252.2,494.0L244.7,489.1L253.6,474.4L241.2,462.1L238.5,451.5L228.2,443.0L235.7,426.2L242.6,419.9L241.2,407.9L233.7,405.8L237.8,396.1L226.8,392.4L222.0,385.0L212.3,378.6L201.3,377.6Z"/>
    <path class="wtc-county" id="wtc-county-grafton" data-county="Grafton" d="M117.4,255.8L104.3,248.7L98.2,241.5L93.3,223.0L116.7,220.2L143.6,212.3L169.0,209.4L185.5,225.2L191.7,212.3L202.7,216.9L208.9,216.1L208.2,221.2L216.5,222.0L223.3,227.1L224.0,239.3L248.1,241.8L246.0,254.0L239.9,279.3L279.1,283.6L274.9,304.0L281.8,312.9L274.9,318.5L274.2,329.6L268.7,331.9L268.7,340.4L263.2,347.5L250.9,350.1L237.8,348.5L235.7,358.2L214.4,363.3L201.3,377.6L195.8,376.3L192.4,367.7L187.6,366.4L160.1,364.5L150.4,361.2L143.6,351.1L147.7,345.5L143.6,336.1L149.1,330.0L146.3,320.8L150.4,317.2L142.2,305.8L133.9,298.6L133.9,284.6L120.9,273.6L121.5,263.0L117.4,255.8Z"/>
    <path class="wtc-county" id="wtc-county-hillsborough" data-county="Hillsborough" d="M149.1,132.8L145.6,111.7L144.9,97.6L155.2,97.3L161.4,67.8L166.9,67.6L170.4,53.0L175.9,52.8L292.1,50.0L299.0,57.6L301.1,58.7L298.3,61.2L281.1,64.5L274.2,74.2L266.7,74.5L261.9,94.8L274.9,96.3L272.9,109.9L263.9,111.6L248.8,121.3L225.4,118.5L219.9,137.3L184.1,130.2L173.1,147.8L154.6,144.2L149.1,132.8Z"/>
    <path class="wtc-county" id="wtc-county-merrimack" data-county="Merrimack" d="M169.0,209.4L154.6,191.8L146.3,192.6L147.0,180.6L139.4,169.9L144.2,157.0L154.6,144.2L173.1,147.8L184.1,130.2L219.9,137.3L225.4,118.5L248.8,121.3L263.9,111.6L272.9,109.9L273.6,116.0L301.1,160.8L303.1,162.8L242.6,194.7L233.0,191.4L226.1,202.3L218.5,203.9L208.9,216.1L202.7,216.9L191.7,212.3L185.5,225.2L169.0,209.4Z"/>
    <path class="wtc-county" id="wtc-county-rockingham" data-county="Rockingham" d="M272.9,109.9L274.9,96.3L261.9,94.8L266.7,74.5L274.2,74.2L281.1,64.5L298.3,61.2L301.1,58.7L313.5,57.7L312.8,67.9L323.1,73.9L336.2,70.9L342.3,81.1L367.1,86.4L377.4,81.4L382.9,83.6L384.3,90.8L404.9,119.5L382.9,131.7L374.7,132.0L371.9,123.4L360.9,125.4L334.1,123.8L343.0,134.5L301.1,160.8L273.6,116.0L272.9,109.9Z"/>
    <path class="wtc-county" id="wtc-county-strafford" data-county="Strafford" d="M303.1,162.8L301.1,160.8L343.0,134.5L334.1,123.8L360.9,125.4L371.9,123.4L374.7,132.0L382.9,131.7L380.9,144.2L385.0,151.1L356.8,172.2L350.6,180.9L356.1,197.5L355.4,211.8L343.7,200.6L341.0,209.7L326.5,205.3L323.8,217.9L316.9,211.3L311.4,206.7L317.6,176.1L303.1,162.8Z"/>
    <path class="wtc-county" id="wtc-county-sullivan" data-county="Sullivan" d="M73.4,152.7L69.9,139.1L74.1,134.1L85.1,133.5L84.4,138.2L126.4,143.0L122.2,133.3L149.1,132.8L154.6,144.2L144.2,157.0L139.4,169.9L147.0,180.6L146.3,192.6L154.6,191.8L169.0,209.4L143.6,212.3L116.7,220.2L93.3,223.0L83.7,218.1L80.3,205.9L83.7,200.1L76.8,177.9L81.0,168.0L73.4,152.7Z"/>
  </g>
</svg>