<?xml version="1.0" encoding="UTF-8"?>
<svg xmlns="http://www.w3.org/2000/svg" viewBox="0 0 600 304" id="wtc-state-map-MD" role="img" aria-label="md county map">
  <title>md Counties</title>
  <g class="wtc-counties">
    <path class="wtc-county" id="wtc-county-allegany" data-county="Allegany" d="M113.1,253.5L97.3,225.5L109.9,221.7L114.3,226.9L129.7,242.2L135.0,241.2L129.7,239.9L135.0,238.1L135.8,235.6L143.4,232.3L150.7,232.4L153.6,230.7L164.9,230.3L170.6,234.0L167.7,238.7L173.0,238.6L168.5,241.7L174.2,240.6L174.6,243.0L179.9,243.7L179.0,248.2L182.3,250.1L179.0,253.5L174.6,253.5L126.5,253.5L113.1,253.5Z"/>
    <path class="wtc-county" id="wtc-county-anne-arundel" data-county="Anne Arundel" d="M348.1,183.7L348.5,180.1L358.3,176.0L364.3,170.3L365.1,163.6L367.6,161.5L365.1,156.2L363.9,148.2L365.5,143.7L372.8,145.9L372.8,141.2L383.3,139.8L380.1,145.9L387.0,151.5L384.5,156.6L387.4,161.9L391.0,161.5L392.2,165.4L389.4,169.0L398.7,173.3L393.4,178.0L395.5,180.4L394.7,186.9L383.7,192.1L382.9,195.3L377.3,195.4L373.2,198.8L364.3,196.2L359.1,192.3L354.2,186.5L348.1,183.7Z"/>
    <path class="wtc-county" id="wtc-county-baltimore" data-county="Baltimore" d="M383.3,199.2L383.3,214.0L362.7,214.0L362.7,203.4L373.2,198.8L377.3,195.4L382.9,195.3L379.3,197.4L378.1,201.8L383.3,199.2Z"/>
    <path class="wtc-county" id="wtc-county-calvert" data-county="Calvert" d="M365.5,143.7L363.9,139.5L367.2,128.9L366.7,119.7L367.2,115.6L369.2,111.8L374.4,107.2L386.6,101.3L389.8,95.9L395.9,95.7L399.5,100.1L396.3,106.1L387.4,113.8L384.5,120.1L385.4,128.7L382.9,135.8L383.3,139.8L372.8,141.2L372.8,145.9L365.5,143.7Z"/>
    <path class="wtc-county" id="wtc-county-caroline" data-county="Caroline" d="M448.9,162.9L448.9,159.0L454.5,150.9L446.8,147.2L441.2,141.5L449.3,135.3L461.4,138.7L465.9,135.6L469.9,136.7L476.0,130.9L474.4,152.9L471.5,188.2L461.4,184.3L460.2,180.1L455.3,174.1L449.7,169.4L448.9,162.9Z"/>
    <path class="wtc-county" id="wtc-county-carroll" data-county="Carroll" d="M305.7,253.2L306.1,250.8L300.8,247.0L299.2,243.3L295.1,244.1L298.0,240.2L308.1,236.9L317.8,228.1L317.4,223.9L313.8,219.2L311.3,212.0L319.0,213.6L327.5,211.6L333.6,213.0L343.7,211.5L342.5,223.6L345.3,228.5L354.2,253.3L330.3,253.2L305.7,253.2Z"/>
    <path class="wtc-county" id="wtc-county-cecil" data-county="Cecil" d="M416.9,253.4L418.9,249.4L423.4,246.4L426.2,241.9L434.3,233.3L446.4,234.9L441.6,223.1L445.6,222.5L438.3,215.8L442.8,214.5L455.7,212.8L463.0,215.1L469.1,214.6L466.7,245.1L466.7,253.4L427.8,253.4L416.9,253.4Z"/>
    <path class="wtc-county" id="wtc-county-charles" data-county="Charles" d="M315.8,130.9L317.8,130.0L309.7,127.1L303.6,121.6L299.2,113.6L302.0,102.5L306.9,99.9L320.2,105.3L328.3,109.5L333.2,98.5L338.4,95.5L339.2,92.2L348.1,88.1L348.9,90.2L344.9,96.8L347.3,99.4L344.5,102.3L350.6,108.3L355.8,116.7L367.2,115.6L366.7,119.7L359.5,122.3L358.7,129.0L345.7,133.6L334.0,133.8L327.9,132.2L325.1,128.8L320.6,138.9L315.4,135.3L315.8,130.9Z"/>
    <path class="wtc-county" id="wtc-county-dorchester" data-county="Dorchester" d="M439.6,75.9L440.4,79.4L437.5,82.3L433.1,81.1L432.7,72.3L437.5,72.9L439.6,75.9ZM439.6,123.9L438.3,122.1L433.1,125.9L424.2,126.8L423.8,130.3L418.9,127.7L416.5,130.2L411.7,128.0L408.4,124.2L412.1,119.2L415.3,119.9L413.3,116.1L405.2,114.8L414.9,100.2L414.1,96.0L417.7,94.7L424.2,86.7L427.8,85.5L434.7,87.8L436.3,85.0L440.0,91.0L437.5,93.6L441.2,96.8L442.8,101.5L446.0,100.5L446.4,95.4L442.0,94.5L446.4,87.1L449.7,87.2L449.7,93.0L452.5,97.5L458.6,99.0L458.6,102.6L463.0,113.9L470.3,117.2L476.8,122.5L476.0,130.9L469.9,136.7L465.9,135.6L461.4,138.7L449.3,135.3L444.8,129.8L444.0,126.1L439.6,123.9Z"/>
    <path class="wtc-county" id="wtc-county-frederick" data-county="Frederick" d="M253.9,208.6L260.8,206.2L266.8,206.3L269.3,201.9L274.5,200.4L278.6,196.9L311.3,211.9L311.3,212.0L313.8,219.2L317.4,223.9L317.8,228.1L308.1,236.9L298.0,240.2L295.1,244.1L299.2,243.3L300.8,247.0L306.1,250.8L305.7,253.2L278.6,253.2L277.3,253.2L272.9,249.2L274.9,248.3L271.7,244.2L266.0,241.9L262.8,233.0L260.0,229.2L260.8,225.0L253.9,208.6Z"/>
    <path class="wtc-county" id="wtc-county-garrett" data-county="Garrett" d="M51.2,253.3L50.0,195.2L54.0,195.9L67.4,205.9L72.2,205.8L74.3,209.2L76.3,212.3L88.8,218.1L94.1,225.3L97.3,225.5L113.1,253.5L60.5,253.3L51.2,253.3Z"/>
    <path class="wtc-county" id="wtc-county-harford" data-county="Harford" d="M378.9,253.3L379.3,241.3L382.9,233.4L393.9,228.6L399.5,223.9L402.8,215.9L407.6,215.9L411.2,205.8L414.1,210.2L410.8,213.5L414.5,218.5L414.5,222.7L417.7,220.0L414.9,214.8L417.7,211.8L431.5,221.2L436.3,222.5L434.7,225.6L429.9,228.0L434.3,233.3L426.2,241.9L423.4,246.4L418.9,249.4L416.9,253.4L416.1,253.4L378.9,253.3Z"/>
    <path class="wtc-county" id="wtc-county-howard" data-county="Howard" d="M311.3,211.9L309.3,210.4L315.8,202.3L322.2,200.7L329.1,195.3L330.7,190.8L342.9,186.8L348.1,183.7L354.2,186.5L359.1,192.3L364.3,196.2L353.4,202.1L355.4,205.3L348.9,207.1L343.7,211.5L333.6,213.0L327.5,211.6L319.0,213.6L311.3,212.0L311.3,211.9Z"/>
    <path class="wtc-county" id="wtc-county-kent" data-county="Kent" d="M442.8,214.5L440.4,212.9L430.7,214.0L427.8,210.4L422.2,208.0L423.0,205.7L418.1,201.6L411.7,188.5L414.5,187.1L416.9,181.4L415.7,175.3L420.6,173.6L418.9,176.6L420.1,181.7L425.0,182.6L429.9,184.1L437.5,190.4L435.1,193.7L442.0,199.1L449.7,198.9L461.0,201.1L464.6,199.3L470.3,199.8L469.9,205.5L469.1,214.6L463.0,215.1L455.7,212.8L442.8,214.5Z"/>
    <path class="wtc-county" id="wtc-county-montgomery" data-county="Montgomery" d="M278.6,196.9L272.1,191.3L271.7,185.6L275.7,184.4L278.2,180.6L293.1,178.6L302.4,175.1L302.0,170.4L305.3,168.8L313.3,168.2L317.0,164.6L325.5,171.4L329.9,168.1L331.1,171.2L342.9,186.8L330.7,190.8L329.1,195.3L322.2,200.7L315.8,202.3L309.3,210.4L311.3,211.9L278.6,196.9Z"/>
    <path class="wtc-county" id="wtc-county-prince-georges" data-county="Prince George's" d="M325.9,147.9L325.5,140.3L320.6,138.9L325.1,128.8L327.9,132.2L334.0,133.8L345.7,133.6L358.7,129.0L359.5,122.3L366.7,119.7L367.2,128.9L363.9,139.5L365.5,143.7L363.9,148.2L365.1,156.2L367.6,161.5L365.1,163.6L364.3,170.3L358.3,176.0L348.5,180.1L348.1,183.7L342.9,186.8L331.1,171.2L329.9,168.1L340.5,160.0L325.9,148.6L325.9,147.9Z"/>
    <path class="wtc-county" id="wtc-county-queen-annes" data-county="Queen Anne's" d="M425.0,182.6L422.2,177.2L424.6,172.0L420.1,169.0L411.7,170.1L408.8,175.0L402.3,165.2L400.7,155.1L405.6,156.8L405.2,161.4L410.0,161.1L416.9,165.6L420.1,164.0L420.6,155.2L424.6,158.4L431.5,158.8L429.9,162.3L432.7,165.8L448.9,162.9L449.7,169.4L455.3,174.1L460.2,180.1L461.4,184.3L471.5,188.2L470.3,199.8L464.6,199.3L461.0,201.1L449.7,198.9L442.0,199.1L435.1,193.7L437.5,190.4L429.9,184.1L425.0,182.6Z"/>
    <path class="wtc-county" id="wtc-county-st-marys" data-county="St. Mary's" d="M367.2,115.6L355.8,116.7L350.6,108.3L344.5,102.3L347.3,99.4L349.8,98.5L353.0,86.0L367.2,85.7L376.5,83.5L381.3,79.1L383.3,74.5L386.6,74.8L389.4,71.1L390.2,76.6L393.4,77.5L395.5,71.3L398.7,70.9L403.2,65.3L406.8,63.5L404.8,72.8L406.8,75.0L399.5,83.9L397.9,88.5L400.7,93.1L397.5,94.4L391.8,92.4L389.8,95.9L386.6,101.3L374.4,107.2L369.2,111.8L367.2,115.6Z"/>
    <path class="wtc-county" id="wtc-county-somerset" data-county="Somerset" d="M458.2,86.2L460.2,83.0L449.7,80.4L447.7,74.8L449.3,72.1L454.1,75.3L462.6,74.4L458.2,70.5L457.4,66.2L464.2,66.0L457.4,63.3L454.5,56.5L454.9,50.0L458.6,50.1L467.5,56.3L475.2,56.7L480.4,53.8L482.8,53.4L485.3,58.7L481.6,62.7L486.1,67.5L490.1,67.0L494.6,69.5L490.5,75.6L494.2,79.5L487.3,87.4L486.5,90.8L480.8,93.0L474.4,89.4L471.1,91.4L458.2,86.2ZM443.6,54.1L445.2,59.9L440.8,63.7L437.5,61.0L437.9,54.1L443.6,54.1ZM437.5,72.9L436.3,70.0L442.4,68.0L439.6,75.9L437.5,72.9Z"/>
    <path class="wtc-county" id="wtc-county-talbot" data-county="Talbot" d="M420.6,155.2L421.4,152.0L418.1,151.0L412.5,155.3L405.2,146.4L404.0,136.7L406.8,135.9L407.2,141.6L412.1,139.7L414.1,142.4L420.6,134.9L423.4,135.2L426.6,131.1L433.5,129.8L439.6,123.9L444.0,126.1L444.8,129.8L449.3,135.3L441.2,141.5L446.8,147.2L454.5,150.9L448.9,159.0L448.9,162.9L432.7,165.8L429.9,162.3L431.5,158.8L424.6,158.4L420.6,155.2ZM398.3,146.2L402.3,143.7L400.3,148.2L398.3,146.2Z"/>
    <path class="wtc-county" id="wtc-county-washington" data-county="Washington" d="M179.0,253.5L182.3,250.1L179.0,248.2L179.9,243.7L187.5,241.8L196.8,250.4L206.6,248.5L215.0,241.9L216.7,239.9L223.9,241.8L230.8,239.6L236.5,240.0L236.5,236.4L230.0,234.9L233.3,230.0L237.3,231.7L237.3,227.8L240.5,226.3L241.7,221.1L245.4,219.9L247.4,215.8L245.0,209.7L249.0,208.3L253.9,208.6L260.8,225.0L260.0,229.2L262.8,233.0L266.0,241.9L271.7,244.2L274.9,248.3L272.9,249.2L277.3,253.2L206.6,253.5L179.0,253.5Z"/>
    <path class="wtc-county" id="wtc-county-wicomico" data-county="Wicomico" d="M458.6,99.0L453.7,92.9L454.1,85.5L458.2,86.2L471.1,91.4L474.4,89.4L480.8,93.0L486.5,90.8L513.6,92.0L521.3,99.3L518.4,102.3L520.1,104.9L517.2,110.3L477.6,111.2L476.8,122.5L470.3,117.2L463.0,113.9L458.6,102.6L458.6,99.0Z"/>
    <path class="wtc-county" id="wtc-county-worcester" data-county="Worcester" d="M486.5,90.8L487.3,87.4L494.2,79.5L490.5,75.6L494.6,69.5L490.1,67.0L486.1,67.5L481.6,62.7L485.3,58.7L528.6,62.4L535.8,74.0L543.9,94.4L546.0,95.9L549.6,106.1L550.0,110.2L517.2,110.3L520.1,104.9L518.4,102.3L521.3,99.3L513.6,92.0L486.5,90.8Z"/>
    <path class="wtc-county" id="wtc-county-baltimore" data-county="Baltimore" d="M383.3,199.2L383.3,214.0L362.7,214.0L362.7,203.4L373.2,198.8L377.3,195.4L382.9,195.3L379.3,197.4L378.1,201.8L383.3,199.2Z"/>
  </g>
</svg>