<?xml version="1.0" encoding="UTF-8"?>
<svg xmlns="http://www.w3.org/2000/svg" viewBox="0 0 600 592" id="wtc-state-map-AZ" role="img" aria-label="az county map">
  <title>az Counties</title>
  <g class="wtc-counties">
    <path class="wtc-county" id="wtc-county-apache" data-county="Apache" d="M467.2,50.5L467.2,166.2L482.2,166.3L482.2,178.8L480.6,178.8L480.9,208.9L480.6,239.1L480.0,239.1L480.3,254.3L478.7,261.9L480.3,268.0L480.3,299.5L479.4,299.5L479.4,329.7L476.6,329.6L476.6,347.9L481.5,350.7L483.4,355.2L489.0,355.0L490.6,351.9L494.6,350.0L496.5,346.5L499.9,346.5L501.8,343.9L508.0,343.1L510.8,340.5L512.4,337.1L515.5,335.3L523.2,334.2L523.9,329.7L549.7,329.6L550.0,321.2L549.7,310.4L550.0,260.1L550.0,227.2L550.0,196.3L549.7,194.0L550.0,176.4L550.0,136.8L550.0,50.4L499.6,50.5L467.2,50.5Z"/>
    <path class="wtc-county" id="wtc-county-cochise" data-county="Cochise" d="M428.0,507.1L428.0,517.2L427.4,517.2L427.1,529.7L427.4,541.6L467.2,541.6L529.8,541.5L549.7,541.6L549.7,446.8L544.1,446.8L534.1,447.0L452.3,446.8L428.0,446.7L428.3,462.1L428.0,507.1Z"/>
    <path class="wtc-county" id="wtc-county-coconino" data-county="Coconino" d="M240.4,73.8L238.6,78.6L240.1,84.9L237.0,88.7L237.0,92.4L239.8,95.1L237.9,97.1L239.8,101.8L236.4,106.5L231.4,106.9L224.9,112.4L218.6,112.6L215.5,115.0L208.7,116.9L204.3,117.0L195.3,122.6L193.4,121.9L189.7,123.9L189.7,126.6L186.9,129.2L180.4,128.4L176.6,132.7L177.6,138.3L179.7,140.3L178.2,144.6L180.4,147.1L178.2,152.6L178.2,177.9L184.4,177.8L191.9,179.8L194.4,182.3L199.7,184.4L209.3,189.6L211.8,193.1L224.9,195.7L228.3,197.1L233.6,196.7L243.8,202.6L252.9,203.0L255.7,201.1L255.4,210.8L264.7,210.9L264.7,226.0L310.4,225.7L313.2,225.4L313.2,240.8L332.5,240.9L332.5,269.5L339.7,270.7L332.8,274.1L340.3,274.9L342.8,271.7L344.3,277.7L345.9,273.3L349.9,272.1L353.7,273.3L359.0,271.1L362.4,275.0L367.4,276.2L367.7,277.9L372.0,276.0L378.9,278.9L385.1,282.9L389.5,284.2L393.8,287.4L398.8,283.6L402.2,287.6L402.2,50.1L350.2,50.2L247.3,50.3L247.9,54.5L244.2,59.7L241.0,67.6L240.4,73.8Z"/>
    <path class="wtc-county" id="wtc-county-gila" data-county="Gila" d="M332.5,269.5L332.5,272.3L323.2,276.9L322.9,285.6L319.8,289.6L320.4,294.7L318.8,297.3L339.0,297.3L337.8,298.8L340.3,304.1L337.8,307.1L337.5,310.4L341.8,310.3L341.5,317.3L345.3,317.3L344.6,320.4L348.4,325.7L346.8,327.5L347.1,332.1L351.2,334.8L351.8,337.4L357.7,343.1L361.1,344.9L362.4,342.1L367.4,338.3L377.0,356.7L382.6,367.5L385.1,375.4L399.4,398.4L404.1,394.7L404.4,391.0L407.2,390.4L408.4,387.4L412.5,384.7L415.9,385.5L423.4,380.9L428.3,380.2L432.1,380.0L428.7,374.8L428.0,365.6L431.1,362.5L437.1,361.6L437.7,360.1L443.3,358.9L448.6,359.1L454.8,356.7L462.3,356.7L467.2,354.7L467.2,347.1L467.2,310.4L402.2,310.4L402.2,287.6L398.8,283.6L393.8,287.4L389.5,284.2L385.1,282.9L378.9,278.9L372.0,276.0L367.7,277.9L367.4,276.2L362.4,275.0L359.0,271.1L353.7,273.3L349.9,272.1L345.9,273.3L344.3,277.7L342.8,271.7L340.3,274.9L332.8,274.1L339.7,270.7L332.5,269.5Z"/>
    <path class="wtc-county" id="wtc-county-graham" data-county="Graham" d="M467.2,347.1L467.2,354.7L462.3,356.7L454.8,356.7L448.6,359.1L443.3,358.9L437.7,360.1L437.1,361.6L431.1,362.5L428.0,365.6L428.7,374.8L432.1,380.0L428.3,380.2L428.3,438.7L428.0,439.2L428.0,446.7L452.3,446.8L534.1,447.0L544.1,446.8L534.4,437.9L535.7,433.1L535.4,424.8L532.6,419.4L526.4,410.7L525.1,410.6L510.8,390.3L510.8,340.5L508.0,343.1L501.8,343.9L499.9,346.5L496.5,346.5L494.6,350.0L490.6,351.9L489.0,355.0L483.4,355.2L481.5,350.7L476.6,347.9L467.2,347.1Z"/>
    <path class="wtc-county" id="wtc-county-greenlee" data-county="Greenlee" d="M510.8,340.5L510.8,390.3L525.1,410.6L526.4,410.7L532.6,419.4L535.4,424.8L535.7,433.1L534.4,437.9L544.1,446.8L549.7,446.8L549.7,416.3L549.7,379.0L549.7,329.6L523.9,329.7L523.2,334.2L515.5,335.3L512.4,337.1L510.8,340.5Z"/>
    <path class="wtc-county" id="wtc-county-la-paz" data-county="La Paz" d="M66.2,359.5L64.6,361.0L57.5,361.9L60.0,365.7L57.2,370.6L61.8,373.6L61.2,384.2L59.0,389.2L63.4,394.3L64.3,393.0L68.4,394.9L70.5,393.9L75.8,394.7L97.3,394.5L97.3,356.9L124.1,356.8L124.1,364.3L178.2,364.3L178.2,310.5L178.2,282.9L175.7,284.9L160.8,283.6L156.4,289.3L148.3,292.2L143.0,289.6L134.3,290.9L133.4,288.7L126.9,288.8L117.5,287.9L112.9,284.5L108.5,284.1L108.8,287.8L101.0,292.6L100.7,294.0L95.4,295.6L92.3,298.6L83.9,301.4L82.7,303.5L82.7,308.0L74.0,316.6L76.1,318.1L76.8,322.2L74.9,322.6L74.6,326.4L76.8,331.2L77.4,336.7L74.9,337.6L73.6,345.8L74.9,349.2L72.1,351.0L66.5,357.5L66.2,359.5Z"/>
    <path class="wtc-county" id="wtc-county-maricopa" data-county="Maricopa" d="M178.2,364.3L178.2,440.0L197.8,440.0L276.2,439.8L276.2,370.1L277.1,374.1L280.9,375.1L286.5,379.4L330.0,379.3L330.3,356.7L377.0,356.7L367.4,338.3L362.4,342.1L361.1,344.9L357.7,343.1L351.8,337.4L351.2,334.8L347.1,332.1L346.8,327.5L348.4,325.7L344.6,320.4L345.3,317.3L341.5,317.3L341.8,310.3L337.5,310.4L317.6,310.4L279.6,306.2L276.8,312.6L272.8,315.5L272.8,318.6L270.0,320.6L229.2,310.4L178.2,310.5L178.2,364.3Z"/>
    <path class="wtc-county" id="wtc-county-mohave" data-county="Mohave" d="M116.0,63.9L116.0,82.8L116.6,103.1L116.3,120.2L114.7,121.3L107.2,135.0L99.8,135.8L93.2,132.0L93.9,129.9L88.3,124.6L84.2,124.4L76.8,125.8L76.1,123.9L70.8,123.9L67.1,125.7L65.6,124.7L62.8,126.9L55.0,129.2L57.2,135.1L55.9,138.3L59.6,145.5L62.8,147.9L60.0,149.6L58.7,153.8L60.3,158.2L59.3,162.0L61.5,164.3L60.6,167.2L63.4,170.0L63.4,177.7L61.5,180.4L62.8,184.7L66.2,188.2L68.0,193.1L70.8,206.3L70.8,211.7L64.3,214.9L67.4,216.5L65.6,223.6L65.2,234.5L70.2,238.8L72.4,243.9L79.6,248.6L87.6,266.4L87.0,270.7L91.1,271.2L100.7,278.7L105.1,280.1L108.5,284.1L112.9,284.5L117.5,287.9L126.9,288.8L133.4,288.7L134.3,290.9L143.0,289.6L148.3,292.2L156.4,289.3L160.8,283.6L175.7,284.9L178.2,282.9L178.2,177.9L178.2,152.6L180.4,147.1L178.2,144.6L179.7,140.3L177.6,138.3L176.6,132.7L180.4,128.4L186.9,129.2L189.7,126.6L189.7,123.9L193.4,121.9L195.3,122.6L204.3,117.0L208.7,116.9L215.5,115.0L218.6,112.6L224.9,112.4L231.4,106.9L236.4,106.5L239.8,101.8L237.9,97.1L239.8,95.1L237.0,92.4L237.0,88.7L240.1,84.9L238.6,78.6L240.4,73.8L241.0,67.6L244.2,59.7L247.9,54.5L247.3,50.3L215.8,50.3L178.2,50.3L116.0,50.3L116.0,63.9Z"/>
    <path class="wtc-county" id="wtc-county-navajo" data-county="Navajo" d="M402.2,50.1L402.2,287.6L402.2,310.4L467.2,310.4L467.2,347.1L476.6,347.9L476.6,329.6L479.4,329.7L479.4,299.5L480.3,299.5L480.3,268.0L478.7,261.9L480.3,254.3L480.0,239.1L480.6,239.1L480.9,208.9L480.6,178.8L482.2,178.8L482.2,166.3L467.2,166.2L467.2,50.5L426.5,50.5L424.6,50.0L402.2,50.1Z"/>
    <path class="wtc-county" id="wtc-county-pima" data-county="Pima" d="M178.2,440.0L178.2,480.4L196.2,486.2L262.2,506.2L348.7,533.5L348.7,525.3L366.4,525.3L366.4,507.5L393.2,507.5L393.2,507.0L428.0,507.1L428.3,462.1L428.0,446.7L428.0,439.2L393.8,439.2L392.9,439.5L366.7,439.5L366.7,440.3L349.9,440.3L331.3,439.8L276.2,439.8L197.8,440.0L178.2,440.0Z"/>
    <path class="wtc-county" id="wtc-county-pinal" data-county="Pinal" d="M377.0,356.7L330.3,356.7L330.0,379.3L286.5,379.4L280.9,375.1L277.1,374.1L276.2,370.1L276.2,439.8L331.3,439.8L349.9,440.3L366.7,440.3L366.7,439.5L392.9,439.5L393.8,439.2L428.0,439.2L428.3,438.7L428.3,380.2L423.4,380.9L415.9,385.5L412.5,384.7L408.4,387.4L407.2,390.4L404.4,391.0L404.1,394.7L399.4,398.4L385.1,375.4L382.6,367.5L377.0,356.7Z"/>
    <path class="wtc-county" id="wtc-county-santa-cruz" data-county="Santa Cruz" d="M428.0,507.1L393.2,507.0L393.2,507.5L366.4,507.5L366.4,525.3L348.7,525.3L348.7,533.5L373.9,541.6L427.4,541.6L427.1,529.7L427.4,517.2L428.0,517.2L428.0,507.1Z"/>
    <path class="wtc-county" id="wtc-county-yavapai" data-county="Yavapai" d="M178.2,177.9L178.2,282.9L178.2,310.5L229.2,310.4L270.0,320.6L272.8,318.6L272.8,315.5L276.8,312.6L279.6,306.2L317.6,310.4L337.5,310.4L337.8,307.1L340.3,304.1L337.8,298.8L339.0,297.3L318.8,297.3L320.4,294.7L319.8,289.6L322.9,285.6L323.2,276.9L332.5,272.3L332.5,269.5L332.5,240.9L313.2,240.8L313.2,225.4L310.4,225.7L264.7,226.0L264.7,210.9L255.4,210.8L255.7,201.1L252.9,203.0L243.8,202.6L233.6,196.7L228.3,197.1L224.9,195.7L211.8,193.1L209.3,189.6L199.7,184.4L194.4,182.3L191.9,179.8L184.4,177.8L178.2,177.9Z"/>
    <path class="wtc-county" id="wtc-county-yuma" data-county="Yuma" d="M58.1,421.4L52.8,429.1L50.3,430.3L50.0,434.8L51.6,436.0L50.0,441.0L164.5,476.0L178.2,480.4L178.2,440.0L178.2,364.3L124.1,364.3L124.1,356.8L97.3,356.9L97.3,394.5L75.8,394.7L78.6,402.7L80.2,404.6L79.9,410.5L74.3,415.2L74.9,418.2L67.1,420.1L59.6,419.1L58.1,421.4Z"/>
  </g>
</svg>