<?xml version="1.0" encoding="UTF-8"?>
<svg xmlns="http://www.w3.org/2000/svg" viewBox="0 0 463 600" id="wtc-state-map-IL" role="img" aria-label="il county map">
  <title>il Counties</title>
  <g class="wtc-counties">
    <path class="wtc-county" id="wtc-county-adams" data-county="Adams" d="M51.0,341.6L50.0,339.6L51.9,326.8L57.1,318.6L58.7,316.9L56.2,311.8L57.8,308.9L62.6,306.2L63.6,301.7L104.1,301.6L104.1,309.5L104.1,332.9L104.4,340.9L51.0,341.6Z"/>
    <path class="wtc-county" id="wtc-county-alexander" data-county="Alexander" d="M233.1,82.9L230.2,78.5L232.8,75.4L235.7,74.4L235.4,70.7L239.6,64.0L243.1,60.4L242.8,56.3L249.0,53.5L252.8,52.1L253.8,54.0L249.0,57.5L253.5,58.5L259.0,54.1L261.6,50.0L265.2,51.1L260.6,55.1L261.6,58.8L253.5,62.3L252.8,69.0L255.4,77.1L258.7,78.8L258.4,81.7L254.5,83.0L233.1,82.9Z"/>
    <path class="wtc-county" id="wtc-county-bond" data-county="Bond" d="M219.5,233.2L219.5,221.9L223.0,221.9L223.0,210.1L254.1,209.9L253.8,233.2L254.5,235.7L224.0,235.7L224.0,233.2L219.5,233.2Z"/>
    <path class="wtc-county" id="wtc-county-boone" data-county="Boone" d="M282.3,548.8L282.3,517.8L303.7,518.0L303.4,548.6L297.2,548.5L282.3,548.8Z"/>
    <path class="wtc-county" id="wtc-county-brown" data-county="Brown" d="M104.1,332.9L104.1,309.5L106.1,309.1L135.2,309.0L133.9,312.4L136.8,314.6L140.7,320.6L140.4,322.5L132.0,321.8L132.3,323.8L125.5,328.3L123.9,332.8L104.1,332.9Z"/>
    <path class="wtc-county" id="wtc-county-bureau" data-county="Bureau" d="M199.1,466.6L199.7,460.6L199.7,435.0L219.5,434.9L219.5,427.2L235.0,427.2L235.0,434.9L244.7,434.8L246.7,441.0L252.8,442.9L262.2,441.8L261.9,466.6L220.1,466.6L199.1,466.6Z"/>
    <path class="wtc-county" id="wtc-county-calhoun" data-county="Calhoun" d="M102.2,269.3L115.1,261.2L121.6,253.4L122.6,247.2L125.2,241.2L122.3,238.4L125.8,231.8L126.8,227.3L130.0,223.4L133.9,221.4L137.5,221.9L141.1,224.4L144.0,229.5L145.9,230.3L138.5,229.5L135.2,232.6L134.3,239.2L132.3,243.8L131.3,247.9L133.3,251.2L131.7,256.7L132.3,259.6L130.7,266.2L131.3,268.9L102.2,269.3Z"/>
    <path class="wtc-county" id="wtc-county-carroll" data-county="Carroll" d="M157.9,521.5L168.0,517.8L172.2,514.6L171.5,510.9L172.8,507.0L174.1,504.9L171.8,500.1L173.1,497.7L215.3,497.8L214.9,522.1L193.9,521.8L157.9,521.5Z"/>
    <path class="wtc-county" id="wtc-county-cass" data-county="Cass" d="M140.4,322.5L140.7,320.6L136.8,314.6L133.9,312.4L187.4,312.1L187.4,314.6L187.1,333.3L180.9,332.6L174.8,329.1L168.9,328.3L160.8,328.5L158.2,334.0L154.7,334.7L148.2,329.0L147.5,325.4L140.4,322.5Z"/>
    <path class="wtc-county" id="wtc-county-champaign" data-county="Champaign" d="M325.8,349.0L325.4,343.7L325.4,312.6L373.1,312.7L372.4,343.9L373.7,343.9L373.4,359.6L325.8,359.5L325.8,349.0Z"/>
    <path class="wtc-county" id="wtc-county-christian" data-county="Christian" d="M257.4,306.6L254.8,307.8L249.6,303.3L245.1,302.9L241.2,300.2L238.6,302.1L238.6,294.9L233.7,295.0L233.7,291.1L228.9,291.1L228.9,280.6L229.2,264.8L264.5,264.8L274.9,264.4L274.6,292.3L264.5,292.4L264.2,305.5L257.4,306.6Z"/>
    <path class="wtc-county" id="wtc-county-clark" data-county="Clark" d="M370.8,276.7L365.9,276.6L366.3,267.5L366.6,248.9L371.8,249.0L390.2,249.4L398.3,248.8L399.6,247.5L405.8,253.0L403.2,256.7L402.6,258.7L405.5,264.0L409.7,264.7L409.7,276.3L395.4,276.3L395.4,277.2L370.8,276.7Z"/>
    <path class="wtc-county" id="wtc-county-clay" data-county="Clay" d="M304.7,217.5L304.4,197.7L316.4,197.7L344.6,197.0L340.3,200.2L342.6,202.8L341.6,209.0L343.9,209.0L343.9,219.5L334.5,219.8L334.5,225.2L304.7,225.5L304.7,217.5Z"/>
    <path class="wtc-county" id="wtc-county-clinton" data-county="Clinton" d="M213.3,202.1L213.3,180.4L221.4,185.6L228.2,186.3L233.4,185.3L238.3,188.0L246.0,189.1L264.2,188.4L264.5,209.5L254.1,209.9L223.0,210.1L223.4,202.2L213.3,202.1Z"/>
    <path class="wtc-county" id="wtc-county-coles" data-county="Coles" d="M324.8,292.1L324.8,273.6L324.8,267.1L366.3,267.5L365.9,276.6L370.8,276.7L370.5,295.2L361.7,294.8L361.7,292.1L324.8,292.1Z"/>
    <path class="wtc-county" id="wtc-county-cook" data-county="Cook" d="M345.8,518.0L345.8,510.1L343.6,510.1L343.6,502.8L374.4,503.5L374.4,491.6L375.0,478.5L370.2,475.8L364.6,475.7L365.0,471.7L375.3,471.9L375.3,464.1L386.0,464.2L386.4,456.2L410.0,456.2L410.3,477.7L409.7,481.4L407.1,482.9L402.6,490.1L401.3,495.9L397.0,506.7L396.1,510.9L388.9,517.8L349.4,518.0L345.8,518.0Z"/>
    <path class="wtc-county" id="wtc-county-crawford" data-county="Crawford" d="M371.8,249.0L372.1,219.7L375.7,219.7L409.4,219.9L407.7,220.5L410.0,224.9L411.3,229.2L405.5,232.3L405.8,238.4L400.6,242.6L399.6,247.5L398.3,248.8L390.2,249.4L371.8,249.0Z"/>
    <path class="wtc-county" id="wtc-county-cumberland" data-county="Cumberland" d="M324.8,252.7L324.8,248.7L334.8,248.7L366.6,248.9L366.3,267.5L324.8,267.1L324.8,252.7Z"/>
    <path class="wtc-county" id="wtc-county-dekalb" data-county="DeKalb" d="M282.3,517.8L282.7,509.9L282.3,494.3L282.7,470.5L312.8,470.8L313.1,478.7L313.1,510.1L314.1,510.1L314.1,518.0L303.7,518.0L282.3,517.8Z"/>
    <path class="wtc-county" id="wtc-county-de-witt" data-county="De Witt" d="M263.5,349.0L263.9,327.9L300.2,328.5L300.2,332.5L305.3,332.5L305.3,336.3L315.4,348.9L263.5,349.0Z"/>
    <path class="wtc-county" id="wtc-county-douglas" data-county="Douglas" d="M324.5,304.7L324.8,292.1L361.7,292.1L361.7,294.8L370.5,295.2L370.2,304.8L373.1,304.8L373.1,312.7L325.4,312.6L325.4,304.7L324.5,304.7Z"/>
    <path class="wtc-county" id="wtc-county-dupage" data-county="DuPage" d="M343.6,502.8L343.6,479.2L364.6,479.6L364.6,475.7L370.2,475.8L375.0,478.5L374.4,491.6L374.4,503.5L343.6,502.8Z"/>
    <path class="wtc-county" id="wtc-county-edgar" data-county="Edgar" d="M373.1,312.7L373.1,304.8L370.2,304.8L370.5,295.2L370.8,276.7L395.4,277.2L395.4,276.3L409.7,276.3L409.7,288.1L409.4,312.9L407.4,311.7L401.9,312.8L373.1,312.7Z"/>
    <path class="wtc-county" id="wtc-county-edwards" data-county="Edwards" d="M353.9,194.3L353.6,166.1L368.2,166.4L371.8,169.2L369.5,179.1L372.4,184.1L371.4,194.4L353.9,194.3Z"/>
    <path class="wtc-county" id="wtc-county-effingham" data-county="Effingham" d="M294.6,252.7L294.3,225.3L304.7,225.5L334.5,225.2L334.8,248.7L324.8,248.7L324.8,252.7L294.6,252.7Z"/>
    <path class="wtc-county" id="wtc-county-fayette" data-county="Fayette" d="M254.5,235.7L253.8,233.2L254.1,209.9L264.5,209.5L264.5,217.4L274.2,217.2L304.7,217.5L304.7,225.5L294.3,225.3L294.6,252.7L264.5,252.9L254.5,252.9L254.5,235.7Z"/>
    <path class="wtc-county" id="wtc-county-ford" data-county="Ford" d="M325.8,379.2L325.8,359.5L373.4,359.6L373.1,367.4L356.5,367.6L355.2,413.6L344.9,413.3L346.2,379.3L325.8,379.2Z"/>
    <path class="wtc-county" id="wtc-county-franklin" data-county="Franklin" d="M265.5,154.2L266.1,148.3L263.9,141.7L260.9,138.5L263.5,138.5L263.5,130.5L303.4,130.6L303.4,134.5L303.7,154.2L265.5,154.2Z"/>
    <path class="wtc-county" id="wtc-county-fulton" data-county="Fulton" d="M146.2,348.4L145.9,340.6L168.6,340.1L176.1,344.7L180.3,350.0L183.2,357.4L188.4,359.0L193.5,362.9L198.4,369.8L198.1,379.9L187.7,380.0L188.0,387.8L146.6,388.1L146.6,380.2L146.2,348.4Z"/>
    <path class="wtc-county" id="wtc-county-gallatin" data-county="Gallatin" d="M333.5,134.6L333.5,106.8L351.0,106.8L355.2,104.5L353.0,112.7L356.5,117.0L362.1,119.7L364.6,124.8L361.1,125.0L359.8,127.6L363.7,126.9L359.1,133.1L354.9,134.6L333.5,134.7L333.5,134.6Z"/>
    <path class="wtc-county" id="wtc-county-greene" data-county="Greene" d="M131.3,268.9L130.7,266.2L132.3,259.6L131.7,256.7L133.3,251.2L131.3,247.9L132.3,243.8L134.9,249.3L138.5,250.6L142.7,249.0L158.6,248.9L158.6,253.6L168.6,253.6L168.3,256.5L173.5,256.8L172.8,280.2L159.5,280.2L134.3,280.3L131.7,274.5L131.3,268.9Z"/>
    <path class="wtc-county" id="wtc-county-grundy" data-county="Grundy" d="M313.4,455.1L314.4,423.6L344.6,424.1L345.5,424.1L345.2,432.0L344.6,455.6L313.4,455.1Z"/>
    <path class="wtc-county" id="wtc-county-hamilton" data-county="Hamilton" d="M303.7,154.2L303.4,134.5L333.5,134.6L333.5,134.7L333.9,166.0L304.0,166.1L303.7,154.2Z"/>
    <path class="wtc-county" id="wtc-county-hancock" data-county="Hancock" d="M51.6,346.0L51.0,341.6L104.4,340.9L104.8,349.2L105.1,381.2L94.4,380.9L79.8,381.1L74.0,381.2L63.9,377.8L59.7,372.5L63.3,369.8L62.0,362.8L62.6,358.9L58.7,357.7L56.2,356.3L51.9,348.6L51.6,346.0Z"/>
    <path class="wtc-county" id="wtc-county-hardin" data-county="Hardin" d="M330.0,91.0L334.8,89.2L340.3,93.0L344.2,93.9L359.8,95.4L361.7,98.3L360.8,100.4L355.2,104.5L351.0,106.8L333.5,106.8L330.0,106.8L330.0,91.0Z"/>
    <path class="wtc-county" id="wtc-county-henderson" data-county="Henderson" d="M86.3,386.4L85.6,384.3L79.8,381.1L94.4,380.9L105.1,381.2L115.5,380.9L115.8,420.0L101.2,420.1L101.5,414.9L99.6,406.7L96.0,405.2L91.5,400.1L88.2,398.0L86.3,386.4Z"/>
    <path class="wtc-county" id="wtc-county-henry" data-county="Henry" d="M147.5,443.3L147.2,427.5L188.0,427.3L198.7,427.2L198.7,435.0L199.7,435.0L199.7,460.6L199.1,466.6L169.9,466.6L169.2,462.8L165.0,461.2L156.6,460.2L152.7,457.0L147.9,455.0L147.5,443.3Z"/>
    <path class="wtc-county" id="wtc-county-iroquois" data-county="Iroquois" d="M355.2,413.6L356.5,367.6L373.1,367.4L410.0,367.8L410.0,390.0L410.0,414.7L355.2,413.6Z"/>
    <path class="wtc-county" id="wtc-county-jackson" data-county="Jackson" d="M223.4,138.9L217.9,130.2L216.2,125.2L216.9,120.6L221.4,120.3L224.3,117.1L230.5,115.2L231.1,109.1L234.1,106.5L229.8,104.2L234.4,103.4L236.3,106.8L263.2,106.8L263.5,130.5L263.5,138.5L260.9,138.5L223.4,138.9Z"/>
    <path class="wtc-county" id="wtc-county-jasper" data-county="Jasper" d="M334.5,225.2L334.5,219.8L343.9,219.5L372.1,219.7L371.8,249.0L366.6,248.9L334.8,248.7L334.5,225.2Z"/>
    <path class="wtc-county" id="wtc-county-jefferson" data-county="Jefferson" d="M263.9,162.1L263.5,154.2L265.5,154.2L303.7,154.2L304.0,166.1L304.0,185.8L284.0,186.0L263.9,185.7L263.9,162.1Z"/>
    <path class="wtc-county" id="wtc-county-jersey" data-county="Jersey" d="M173.5,256.8L168.3,256.5L168.6,253.6L158.6,253.6L158.6,248.9L142.7,249.0L138.5,250.6L134.9,249.3L132.3,243.8L134.3,239.2L135.2,232.6L138.5,229.5L145.9,230.3L150.1,229.9L158.9,226.4L161.8,226.3L162.1,233.2L173.5,233.3L173.5,256.8Z"/>
    <path class="wtc-county" id="wtc-county-jo-daviess" data-county="Jo Daviess" d="M128.7,550.0L128.7,546.4L135.9,543.6L136.5,541.6L144.0,538.5L148.8,533.9L147.9,529.2L152.7,523.5L157.9,521.5L193.9,521.8L193.2,549.8L148.2,549.8L128.7,550.0Z"/>
    <path class="wtc-county" id="wtc-county-johnson" data-county="Johnson" d="M272.9,82.4L272.9,79.2L276.8,80.8L283.3,80.0L285.3,83.0L303.1,83.1L303.4,106.8L273.3,106.5L272.9,82.4Z"/>
    <path class="wtc-county" id="wtc-county-kane" data-county="Kane" d="M314.1,518.0L314.1,510.1L313.1,510.1L313.1,478.7L343.6,479.2L343.6,502.8L343.6,510.1L345.8,510.1L345.8,518.0L314.1,518.0Z"/>
    <path class="wtc-county" id="wtc-county-kankakee" data-county="Kankakee" d="M344.6,424.1L344.9,413.3L355.2,413.6L410.0,414.7L410.0,428.8L410.0,440.7L365.9,440.2L366.3,432.3L345.2,432.0L345.5,424.1L344.6,424.1Z"/>
    <path class="wtc-county" id="wtc-county-kendall" data-county="Kendall" d="M313.1,478.7L312.8,470.8L313.4,455.1L344.6,455.6L343.6,479.2L313.1,478.7Z"/>
    <path class="wtc-county" id="wtc-county-knox" data-county="Knox" d="M147.2,419.6L146.6,388.1L188.0,387.8L188.0,411.5L188.0,427.3L147.2,427.5L147.2,419.6Z"/>
    <path class="wtc-county" id="wtc-county-lake" data-county="Lake" d="M349.4,548.8L349.4,518.0L388.9,517.8L385.4,522.9L382.1,531.3L384.7,538.8L385.4,548.4L349.4,548.8Z"/>
    <path class="wtc-county" id="wtc-county-lasalle" data-county="LaSalle" d="M282.7,470.5L261.9,470.6L261.9,466.6L262.2,441.8L262.2,423.2L272.6,423.3L272.6,407.1L283.3,407.3L283.3,423.4L314.4,423.6L313.4,455.1L312.8,470.8L282.7,470.5Z"/>
    <path class="wtc-county" id="wtc-county-lawrence" data-county="Lawrence" d="M375.7,219.7L375.3,194.4L398.7,194.3L401.6,200.7L403.9,203.2L408.4,204.1L412.9,210.0L412.6,213.3L409.4,219.9L375.7,219.7Z"/>
    <path class="wtc-county" id="wtc-county-lee" data-county="Lee" d="M220.1,495.2L220.1,466.6L261.9,466.6L261.9,470.6L282.7,470.5L282.3,494.3L244.4,493.9L244.4,495.2L234.4,496.1L233.7,495.2L220.1,495.2Z"/>
    <path class="wtc-county" id="wtc-county-livingston" data-county="Livingston" d="M314.4,423.6L283.3,423.4L283.3,407.3L283.3,391.6L314.4,391.9L315.4,379.1L325.8,379.2L346.2,379.3L344.9,413.3L344.6,424.1L314.4,423.6Z"/>
    <path class="wtc-county" id="wtc-county-logan" data-county="Logan" d="M222.7,352.4L222.7,334.6L224.7,331.8L225.0,321.4L233.4,321.4L233.4,317.5L240.5,317.4L240.5,316.1L257.4,316.0L264.2,316.1L263.9,327.9L263.5,349.0L253.2,348.9L253.2,352.9L222.7,352.4Z"/>
    <path class="wtc-county" id="wtc-county-mcdonough" data-county="McDonough" d="M105.1,381.2L104.8,349.2L146.2,348.4L146.6,380.2L115.5,380.9L105.1,381.2Z"/>
    <path class="wtc-county" id="wtc-county-mchenry" data-county="McHenry" d="M303.4,548.6L303.7,518.0L314.1,518.0L345.8,518.0L349.4,518.0L349.4,548.8L339.7,548.8L303.4,548.6Z"/>
    <path class="wtc-county" id="wtc-county-mclean" data-county="McLean" d="M252.8,377.1L253.2,352.9L253.2,348.9L263.5,349.0L315.4,348.9L325.8,349.0L325.8,359.5L325.8,379.2L315.4,379.1L314.4,391.9L283.3,391.6L278.1,391.4L278.4,383.6L272.9,383.4L272.9,380.2L267.8,379.9L264.8,377.4L252.8,377.1Z"/>
    <path class="wtc-county" id="wtc-county-macon" data-county="Macon" d="M257.4,316.0L257.4,306.6L264.2,305.5L264.5,292.4L274.6,292.3L294.0,292.2L294.0,300.1L298.9,300.0L299.8,304.8L300.2,328.5L263.9,327.9L264.2,316.1L257.4,316.0Z"/>
    <path class="wtc-county" id="wtc-county-macoupin" data-county="Macoupin" d="M172.8,280.2L173.5,256.8L173.5,233.3L214.0,233.1L213.6,280.5L193.5,280.3L172.8,280.2Z"/>
    <path class="wtc-county" id="wtc-county-madison" data-county="Madison" d="M173.5,233.3L162.1,233.2L161.8,226.3L164.1,226.0L176.4,219.6L176.1,215.7L171.8,212.7L167.6,208.1L170.2,202.6L213.3,202.1L223.4,202.2L223.0,210.1L223.0,221.9L219.5,221.9L219.5,233.2L214.0,233.1L173.5,233.3Z"/>
    <path class="wtc-county" id="wtc-county-marion" data-county="Marion" d="M264.2,188.4L263.9,185.7L284.0,186.0L304.0,185.8L304.4,197.7L304.7,217.5L274.2,217.2L264.5,217.4L264.5,209.5L264.2,188.4Z"/>
    <path class="wtc-county" id="wtc-county-marshall" data-county="Marshall" d="M219.5,427.2L219.5,411.4L236.6,411.4L234.4,406.7L264.2,407.2L272.6,407.1L272.6,423.3L262.2,423.2L244.7,423.1L247.3,427.2L235.0,427.2L219.5,427.2Z"/>
    <path class="wtc-county" id="wtc-county-mason" data-county="Mason" d="M168.6,340.1L167.3,337.1L162.4,337.5L154.7,334.7L158.2,334.0L160.8,328.5L168.9,328.3L174.8,329.1L180.9,332.6L187.1,333.3L189.3,336.3L195.8,335.0L209.4,334.9L215.3,337.5L219.8,337.3L222.7,334.6L222.7,352.4L212.3,352.3L212.3,362.9L193.5,362.9L188.4,359.0L183.2,357.4L180.3,350.0L176.1,344.7L168.6,340.1Z"/>
    <path class="wtc-county" id="wtc-county-massac" data-county="Massac" d="M283.3,80.0L283.6,73.1L294.6,69.7L299.2,66.7L310.5,63.6L316.4,59.8L323.2,58.8L323.2,67.1L303.1,83.1L285.3,83.0L283.3,80.0Z"/>
    <path class="wtc-county" id="wtc-county-menard" data-county="Menard" d="M187.1,333.3L187.4,314.6L207.5,314.7L207.5,315.9L213.6,316.0L214.0,321.3L225.0,321.4L224.7,331.8L222.7,334.6L219.8,337.3L215.3,337.5L209.4,334.9L195.8,335.0L189.3,336.3L187.1,333.3Z"/>
    <path class="wtc-county" id="wtc-county-mercer" data-county="Mercer" d="M89.9,443.9L86.3,435.4L92.8,428.8L97.0,428.3L101.2,422.5L101.2,420.3L101.2,420.1L115.8,420.0L147.2,419.6L147.2,427.5L147.5,443.3L89.9,443.9Z"/>
    <path class="wtc-county" id="wtc-county-monroe" data-county="Monroe" d="M156.0,178.0L153.4,173.7L153.0,167.7L154.7,162.2L160.5,158.3L164.1,154.5L168.0,150.9L183.5,155.2L183.5,163.1L195.8,162.8L193.5,167.7L194.5,170.8L183.5,170.8L183.5,172.1L173.5,180.1L173.8,181.5L163.1,190.0L160.2,181.5L156.0,178.0Z"/>
    <path class="wtc-county" id="wtc-county-montgomery" data-county="Montgomery" d="M213.6,280.5L214.0,233.1L219.5,233.2L224.0,233.2L224.0,235.7L254.5,235.7L254.5,252.9L264.5,252.9L264.5,264.8L229.2,264.8L228.9,280.6L213.6,280.5Z"/>
    <path class="wtc-county" id="wtc-county-morgan" data-county="Morgan" d="M135.2,309.0L132.6,304.5L143.0,304.5L143.0,301.3L153.4,301.3L153.0,293.4L156.3,293.3L156.3,290.7L159.5,290.7L159.5,280.2L172.8,280.2L193.5,280.3L193.5,283.7L188.0,298.0L187.4,312.1L133.9,312.4L135.2,309.0Z"/>
    <path class="wtc-county" id="wtc-county-moultrie" data-county="Moultrie" d="M299.8,304.8L298.9,300.0L294.0,300.1L294.0,292.2L294.3,285.6L302.4,285.5L302.4,280.3L309.6,280.3L314.4,273.7L324.8,273.6L324.8,292.1L324.5,304.7L299.8,304.8Z"/>
    <path class="wtc-county" id="wtc-county-ogle" data-county="Ogle" d="M214.9,522.1L215.3,497.8L220.1,497.7L220.1,495.2L233.7,495.2L234.4,496.1L244.4,495.2L244.4,493.9L282.3,494.3L282.7,509.9L282.3,517.8L261.3,517.7L261.3,522.5L241.2,522.3L214.9,522.1Z"/>
    <path class="wtc-county" id="wtc-county-peoria" data-county="Peoria" d="M188.0,387.8L187.7,380.0L198.1,379.9L198.4,369.8L203.6,372.4L217.5,374.7L217.5,377.8L222.1,382.4L221.4,383.5L226.6,386.7L226.9,391.0L226.3,395.1L234.4,406.7L236.6,411.4L219.5,411.4L188.0,411.5L188.0,387.8Z"/>
    <path class="wtc-county" id="wtc-county-perry" data-county="Perry" d="M223.4,162.8L223.7,155.6L223.4,138.9L260.9,138.5L263.9,141.7L266.1,148.3L265.5,154.2L263.5,154.2L263.9,162.1L223.4,162.8Z"/>
    <path class="wtc-county" id="wtc-county-piatt" data-county="Piatt" d="M300.2,328.5L299.8,304.8L324.5,304.7L325.4,304.7L325.4,312.6L325.4,343.7L325.8,349.0L315.4,348.9L305.3,336.3L305.3,332.5L300.2,332.5L300.2,328.5Z"/>
    <path class="wtc-county" id="wtc-county-pike" data-county="Pike" d="M63.6,301.7L63.0,299.3L68.8,295.1L76.2,288.9L80.5,287.2L83.1,282.5L87.3,281.9L90.8,276.0L96.0,271.8L102.2,269.3L131.3,268.9L131.7,274.5L134.3,280.3L135.2,281.9L132.0,290.8L128.4,296.7L132.6,304.5L135.2,309.0L106.1,309.1L104.1,309.5L104.1,301.6L63.6,301.7Z"/>
    <path class="wtc-county" id="wtc-county-pope" data-county="Pope" d="M303.4,106.8L303.1,83.1L323.2,67.1L323.2,58.8L325.8,59.3L329.0,66.2L326.7,71.3L321.2,76.4L320.6,78.3L323.5,83.3L324.1,87.6L330.0,90.9L330.0,91.0L330.0,106.8L303.4,106.8Z"/>
    <path class="wtc-county" id="wtc-county-pulaski" data-county="Pulaski" d="M254.5,83.0L258.4,81.7L258.7,78.8L255.4,77.1L252.8,69.0L253.5,62.3L261.6,58.8L267.1,63.4L270.0,68.5L274.2,71.7L278.4,73.3L283.0,73.3L283.6,73.1L283.3,80.0L276.8,80.8L272.9,79.2L272.9,82.4L254.5,83.0Z"/>
    <path class="wtc-county" id="wtc-county-putnam" data-county="Putnam" d="M262.2,441.8L252.8,442.9L246.7,441.0L244.7,434.8L235.0,434.9L235.0,427.2L247.3,427.2L244.7,423.1L262.2,423.2L262.2,441.8Z"/>
    <path class="wtc-county" id="wtc-county-randolph" data-county="Randolph" d="M168.0,150.9L175.1,148.6L178.6,144.4L181.2,144.4L186.7,139.7L191.9,140.3L192.9,138.2L189.0,136.3L192.3,131.7L195.5,131.2L200.7,134.5L204.9,132.3L205.2,130.0L210.1,129.1L216.2,125.2L217.9,130.2L223.4,138.9L223.7,155.6L223.4,162.8L213.6,162.8L195.8,162.8L183.5,163.1L183.5,155.2L168.0,150.9Z"/>
    <path class="wtc-county" id="wtc-county-richland" data-county="Richland" d="M343.9,219.5L343.9,209.0L341.6,209.0L342.6,202.8L340.3,200.2L344.6,197.0L353.9,197.0L353.9,194.3L371.4,194.4L375.3,194.4L375.7,219.7L372.1,219.7L343.9,219.5Z"/>
    <path class="wtc-county" id="wtc-county-rock-island" data-county="Rock Island" d="M89.9,443.9L147.5,443.3L147.9,455.0L152.7,457.0L156.6,460.2L165.0,461.2L169.2,462.8L169.9,466.6L171.8,467.7L172.2,471.9L165.7,474.8L164.7,484.5L158.2,479.6L158.6,476.8L155.6,472.2L156.0,467.1L150.8,465.5L144.9,461.0L136.5,461.1L133.3,460.1L128.1,455.8L120.3,454.5L115.8,454.7L110.3,454.9L102.8,451.8L98.6,453.0L92.4,451.3L89.9,443.9Z"/>
    <path class="wtc-county" id="wtc-county-st-clair" data-county="St. Clair" d="M163.4,191.0L163.1,190.0L173.8,181.5L173.5,180.1L183.5,172.1L183.5,170.8L194.5,170.8L193.5,167.7L195.8,162.8L213.6,162.8L213.3,180.4L213.3,202.1L170.2,202.6L170.2,198.1L163.4,191.0Z"/>
    <path class="wtc-county" id="wtc-county-saline" data-county="Saline" d="M303.4,130.6L303.4,106.8L330.0,106.8L333.5,106.8L333.5,134.6L303.4,134.5L303.4,130.6Z"/>
    <path class="wtc-county" id="wtc-county-sangamon" data-county="Sangamon" d="M187.4,314.6L187.4,312.1L188.0,298.0L193.5,283.7L193.5,280.3L213.6,280.5L228.9,280.6L228.9,291.1L233.7,291.1L233.7,295.0L238.6,294.9L238.6,302.1L241.2,300.2L245.1,302.9L249.6,303.3L254.8,307.8L257.4,306.6L257.4,316.0L240.5,316.1L240.5,317.4L233.4,317.5L233.4,321.4L225.0,321.4L214.0,321.3L213.6,316.0L207.5,315.9L207.5,314.7L187.4,314.6Z"/>
    <path class="wtc-county" id="wtc-county-schuyler" data-county="Schuyler" d="M104.4,340.9L104.1,332.9L123.9,332.8L125.5,328.3L132.3,323.8L132.0,321.8L140.4,322.5L147.5,325.4L148.2,329.0L154.7,334.7L162.4,337.5L167.3,337.1L168.6,340.1L145.9,340.6L146.2,348.4L104.8,349.2L104.4,340.9Z"/>
    <path class="wtc-county" id="wtc-county-scott" data-county="Scott" d="M132.6,304.5L128.4,296.7L132.0,290.8L135.2,281.9L134.3,280.3L159.5,280.2L159.5,290.7L156.3,290.7L156.3,293.3L153.0,293.4L153.4,301.3L143.0,301.3L143.0,304.5L132.6,304.5Z"/>
    <path class="wtc-county" id="wtc-county-shelby" data-county="Shelby" d="M264.5,264.8L264.5,252.9L294.6,252.7L324.8,252.7L324.8,267.1L324.8,273.6L314.4,273.7L309.6,280.3L302.4,280.3L302.4,285.5L294.3,285.6L294.0,292.2L274.6,292.3L274.9,264.4L264.5,264.8Z"/>
    <path class="wtc-county" id="wtc-county-stark" data-county="Stark" d="M188.0,427.3L188.0,411.5L219.5,411.4L219.5,427.2L219.5,434.9L199.7,435.0L198.7,435.0L198.7,427.2L188.0,427.3Z"/>
    <path class="wtc-county" id="wtc-county-stephenson" data-county="Stephenson" d="M193.2,549.8L193.9,521.8L214.9,522.1L241.2,522.3L240.9,549.2L201.3,549.7L193.2,549.8Z"/>
    <path class="wtc-county" id="wtc-county-tazewell" data-county="Tazewell" d="M198.4,369.8L193.5,362.9L212.3,362.9L212.3,352.3L222.7,352.4L253.2,352.9L252.8,377.1L252.5,379.1L247.3,379.1L247.3,391.1L226.9,391.0L226.6,386.7L221.4,383.5L222.1,382.4L217.5,377.8L217.5,374.7L203.6,372.4L198.4,369.8Z"/>
    <path class="wtc-county" id="wtc-county-union" data-county="Union" d="M229.8,103.8L230.5,101.0L238.9,88.5L237.6,83.7L233.1,82.9L254.5,83.0L272.9,82.4L273.3,106.5L263.2,106.8L236.3,106.8L234.4,103.4L229.8,104.2L229.8,103.8Z"/>
    <path class="wtc-county" id="wtc-county-vermilion" data-county="Vermilion" d="M373.4,359.6L373.7,343.9L372.4,343.9L373.1,312.7L401.9,312.8L407.4,311.7L409.4,312.9L409.7,336.9L410.0,366.6L410.0,367.8L373.1,367.4L373.4,359.6Z"/>
    <path class="wtc-county" id="wtc-county-wabash" data-county="Wabash" d="M371.4,194.4L372.4,184.1L369.5,179.1L371.8,169.2L368.2,166.4L368.5,166.1L371.1,164.6L374.0,169.9L375.7,167.2L377.9,170.4L380.5,167.8L384.7,175.7L387.3,176.4L390.2,180.4L390.9,185.9L398.7,189.1L398.7,194.3L375.3,194.4L371.4,194.4Z"/>
    <path class="wtc-county" id="wtc-county-warren" data-county="Warren" d="M115.8,420.0L115.5,380.9L146.6,380.2L146.6,388.1L147.2,419.6L115.8,420.0Z"/>
    <path class="wtc-county" id="wtc-county-washington" data-county="Washington" d="M213.3,180.4L213.6,162.8L223.4,162.8L263.9,162.1L263.9,185.7L264.2,188.4L246.0,189.1L238.3,188.0L233.4,185.3L228.2,186.3L221.4,185.6L213.3,180.4Z"/>
    <path class="wtc-county" id="wtc-county-wayne" data-county="Wayne" d="M304.0,185.8L304.0,166.1L333.9,166.0L353.6,166.1L353.9,194.3L353.9,197.0L344.6,197.0L316.4,197.7L304.4,197.7L304.0,185.8Z"/>
    <path class="wtc-county" id="wtc-county-white" data-county="White" d="M333.9,166.0L333.5,134.7L354.9,134.6L359.1,133.1L366.3,133.4L361.4,135.7L366.3,140.9L366.6,145.5L364.0,147.6L370.2,149.0L370.8,152.0L366.9,150.5L374.0,156.2L369.5,160.8L368.5,163.7L368.5,166.1L368.2,166.4L353.6,166.1L333.9,166.0Z"/>
    <path class="wtc-county" id="wtc-county-whiteside" data-county="Whiteside" d="M164.7,484.5L165.7,474.8L172.2,471.9L171.8,467.7L169.9,466.6L199.1,466.6L220.1,466.6L220.1,495.2L220.1,497.7L215.3,497.8L173.1,497.7L170.2,490.0L170.5,486.9L164.7,484.5Z"/>
    <path class="wtc-county" id="wtc-county-will" data-county="Will" d="M343.6,479.2L344.6,455.6L345.2,432.0L366.3,432.3L365.9,440.2L410.0,440.7L410.0,456.2L386.4,456.2L386.0,464.2L375.3,464.1L375.3,471.9L365.0,471.7L364.6,475.7L364.6,479.6L343.6,479.2Z"/>
    <path class="wtc-county" id="wtc-county-williamson" data-county="Williamson" d="M263.5,130.5L263.2,106.8L273.3,106.5L303.4,106.8L303.4,130.6L263.5,130.5Z"/>
    <path class="wtc-county" id="wtc-county-winnebago" data-county="Winnebago" d="M240.9,549.2L241.2,522.3L261.3,522.5L261.3,517.7L282.3,517.8L282.3,548.8L244.1,549.2L240.9,549.2Z"/>
    <path class="wtc-county" id="wtc-county-woodford" data-county="Woodford" d="M234.4,406.7L226.3,395.1L226.9,391.0L247.3,391.1L247.3,379.1L252.5,379.1L252.8,377.1L264.8,377.4L267.8,379.9L272.9,380.2L272.9,383.4L278.4,383.6L278.1,391.4L283.3,391.6L283.3,407.3L272.6,407.1L264.2,407.2L234.4,406.7Z"/>
  </g>
</svg>