<?xml version="1.0" encoding="UTF-8"?>
<svg xmlns="http://www.w3.org/2000/svg" viewBox="0 0 600 569" id="wtc-state-map-NM" role="img" aria-label="nm county map">
  <title>nm Counties</title>
  <g class="wtc-counties">
    <path class="wtc-county" id="wtc-county-bernalillo" data-county="Bernalillo" d="M203.1,197.2L213.8,219.0L217.4,226.1L242.3,226.1L245.3,223.1L266.6,223.4L268.1,226.1L289.8,226.1L289.8,219.5L281.8,219.2L281.8,212.1L281.8,197.6L252.7,197.4L249.1,198.6L247.6,197.4L203.1,197.2Z"/>
    <path class="wtc-county" id="wtc-county-catron" data-county="Catron" d="M50.0,316.4L50.0,363.5L83.2,363.4L99.6,364.1L136.6,364.1L136.6,341.2L141.7,341.5L160.4,341.3L160.4,313.6L160.1,312.5L160.1,276.6L159.5,276.6L159.5,250.3L50.3,250.1L50.0,298.1L50.3,308.4L50.0,316.4Z"/>
    <path class="wtc-county" id="wtc-county-chaves" data-county="Chaves" d="M358.6,369.8L358.6,383.9L355.6,383.9L355.3,420.5L396.9,420.4L397.8,420.4L397.8,383.8L482.6,383.6L486.8,383.6L486.8,348.1L490.4,348.1L490.4,333.7L507.9,333.6L507.9,326.4L490.7,326.5L490.7,313.0L480.6,313.0L480.6,291.3L472.0,291.3L454.5,291.2L454.5,298.4L441.1,298.4L402.5,298.1L402.2,290.8L393.6,290.8L393.3,312.6L393.6,312.8L393.6,347.8L394.2,355.5L392.7,355.5L392.4,369.2L375.8,369.8L358.6,369.8Z"/>
    <path class="wtc-county" id="wtc-county-cibola" data-county="Cibola" d="M50.3,218.7L50.3,250.1L159.5,250.3L162.2,250.1L202.5,250.2L202.5,218.9L213.8,219.0L203.1,197.2L199.6,190.1L193.9,190.1L167.5,190.2L167.5,186.6L158.6,186.6L158.6,190.2L98.1,190.1L97.8,218.7L50.3,218.7Z"/>
    <path class="wtc-county" id="wtc-county-colfax" data-county="Colfax" d="M366.3,50.4L365.1,53.1L368.1,57.0L365.7,62.6L365.1,67.3L365.7,72.9L358.9,72.9L357.7,75.0L354.2,76.4L355.6,80.0L353.6,82.4L355.6,86.3L353.6,87.1L358.3,92.0L355.3,95.3L357.7,99.2L356.5,111.1L395.7,111.1L395.7,114.7L431.3,114.6L466.6,114.7L466.6,50.4L439.3,50.6L384.7,50.6L372.0,50.4L366.3,50.4Z"/>
    <path class="wtc-county" id="wtc-county-curry" data-county="Curry" d="M488.9,248.1L488.9,273.0L546.4,273.0L546.4,272.2L546.4,236.3L546.4,219.2L526.6,219.2L526.6,226.6L518.0,226.5L517.7,233.7L509.1,233.7L509.1,240.9L491.5,240.8L491.5,248.0L488.9,248.1Z"/>
    <path class="wtc-county" id="wtc-county-de-baca" data-county="De Baca" d="M393.6,269.4L393.6,290.8L402.2,290.8L402.5,298.1L441.1,298.4L454.5,298.4L454.5,291.2L472.0,291.3L471.7,276.6L471.7,248.0L456.8,248.0L456.8,233.7L439.3,233.7L439.3,240.8L430.7,240.9L430.7,248.1L393.6,248.1L393.6,269.4Z"/>
    <path class="wtc-county" id="wtc-county-doa-ana" data-county="Doña Ana" d="M194.5,413.3L194.8,445.2L194.8,481.3L258.3,481.3L256.8,479.3L252.1,477.9L252.4,476.3L249.4,474.5L248.5,471.8L250.6,470.5L250.9,463.3L270.8,463.3L270.8,384.2L273.7,384.2L273.7,376.3L228.6,395.4L228.6,399.0L194.5,398.9L194.5,413.3Z"/>
    <path class="wtc-county" id="wtc-county-eddy" data-county="Eddy" d="M396.9,420.4L396.9,441.9L397.2,442.5L397.2,463.3L423.3,463.4L465.4,463.4L469.0,463.4L490.4,463.4L490.4,420.2L482.6,420.2L482.6,383.6L397.8,383.8L397.8,420.4L396.9,420.4Z"/>
    <path class="wtc-county" id="wtc-county-grant" data-county="Grant" d="M50.0,363.5L50.0,399.1L66.0,399.1L66.0,413.6L83.2,413.5L83.2,420.7L92.1,420.7L92.4,441.0L92.1,456.8L93.3,456.8L93.3,474.7L118.8,474.6L118.8,456.8L117.7,456.8L117.7,420.7L142.9,420.7L142.9,413.4L169.0,413.3L158.3,411.4L159.5,408.7L159.8,399.1L155.3,392.8L156.2,387.8L155.3,384.6L150.9,383.7L148.5,380.5L148.8,376.1L150.3,375.1L147.9,364.2L136.6,364.1L99.6,364.1L83.2,363.4L50.0,363.5Z"/>
    <path class="wtc-county" id="wtc-county-guadalupe" data-county="Guadalupe" d="M360.7,211.9L360.7,247.9L358.9,247.9L358.9,269.4L393.6,269.4L393.6,248.1L430.7,248.1L430.7,240.9L439.3,240.8L439.3,233.7L456.8,233.7L457.1,203.6L457.1,197.6L393.6,197.5L360.7,197.5L360.7,211.9Z"/>
    <path class="wtc-county" id="wtc-county-harding" data-county="Harding" d="M431.3,114.6L431.0,116.7L434.0,119.9L433.1,122.5L436.6,127.2L437.8,134.2L440.2,136.0L438.1,137.6L439.0,140.0L435.2,144.3L436.6,151.0L465.4,150.8L469.3,149.1L490.4,180.5L497.5,180.5L497.5,183.2L518.0,183.2L518.5,182.6L518.5,161.4L519.1,154.3L519.1,132.8L519.7,125.6L484.4,125.6L484.4,118.3L466.6,118.3L466.6,114.7L431.3,114.6Z"/>
    <path class="wtc-county" id="wtc-county-hidalgo" data-county="Hidalgo" d="M50.0,428.2L50.0,518.6L119.4,518.5L119.4,481.3L118.8,474.6L93.3,474.7L93.3,456.8L92.1,456.8L92.4,441.0L92.1,420.7L83.2,420.7L83.2,413.5L66.0,413.6L66.0,399.1L50.0,399.1L50.0,428.2Z"/>
    <path class="wtc-county" id="wtc-county-lea" data-county="Lea" d="M482.6,383.6L482.6,420.2L490.4,420.2L490.4,463.4L523.0,463.3L544.7,463.3L544.7,456.2L544.7,420.2L544.7,384.1L545.3,359.2L545.3,348.6L545.5,333.6L507.9,333.6L490.4,333.7L490.4,348.1L486.8,348.1L486.8,383.6L482.6,383.6Z"/>
    <path class="wtc-county" id="wtc-county-lincoln" data-county="Lincoln" d="M308.2,276.6L308.2,312.5L297.8,312.5L297.8,327.0L288.9,327.0L280.0,326.1L271.1,326.1L271.1,341.0L271.4,348.4L273.4,348.4L324.5,348.4L324.8,355.5L358.3,355.5L358.6,369.8L375.8,369.8L392.4,369.2L392.7,355.5L394.2,355.5L393.6,347.8L393.6,312.8L393.3,312.6L393.6,290.8L393.6,269.4L358.9,269.4L358.9,276.6L308.2,276.6Z"/>
    <path class="wtc-county" id="wtc-county-los-alamos" data-county="Los Alamos" d="M281.5,135.5L277.3,134.9L275.8,136.6L269.0,136.0L269.0,146.9L268.1,148.4L272.6,147.9L278.8,149.9L281.5,152.9L284.7,151.1L287.7,146.9L281.5,146.0L281.5,144.7L281.8,138.4L281.5,135.5Z"/>
    <path class="wtc-county" id="wtc-county-luna" data-county="Luna" d="M169.0,413.3L142.9,413.4L142.9,420.7L117.7,420.7L117.7,456.8L118.8,456.8L118.8,474.6L119.4,481.3L194.8,481.3L194.8,445.2L194.5,413.3L169.0,413.3Z"/>
    <path class="wtc-county" id="wtc-county-mckinley" data-county="McKinley" d="M50.3,132.5L50.3,170.2L50.0,187.1L50.3,189.2L50.3,218.7L97.8,218.7L98.1,190.1L158.6,190.2L158.6,186.6L167.5,186.6L167.5,190.2L193.9,190.1L193.9,132.8L167.5,132.7L92.4,132.5L50.3,132.5Z"/>
    <path class="wtc-county" id="wtc-county-mora" data-county="Mora" d="M325.4,134.4L324.8,143.4L355.9,143.4L375.5,148.6L382.6,153.1L384.1,151.6L405.2,150.6L436.6,151.0L435.2,144.3L439.0,140.0L438.1,137.6L440.2,136.0L437.8,134.2L436.6,127.2L433.1,122.5L434.0,119.9L431.0,116.7L431.3,114.6L395.7,114.7L395.7,111.1L356.5,111.1L350.9,113.1L351.8,116.9L349.7,118.7L350.0,121.8L344.4,129.6L340.8,131.6L337.8,134.9L332.5,134.4L331.3,135.9L325.4,134.4Z"/>
    <path class="wtc-county" id="wtc-county-otero" data-county="Otero" d="M273.7,376.3L273.7,384.2L270.8,384.2L270.8,463.3L302.2,463.2L349.1,463.3L391.5,463.3L397.2,463.3L397.2,442.5L396.9,441.9L396.9,420.4L355.3,420.5L355.6,383.9L358.6,383.9L358.6,369.8L358.3,355.5L324.8,355.5L324.5,348.4L273.4,348.4L273.7,376.3Z"/>
    <path class="wtc-county" id="wtc-county-quay" data-county="Quay" d="M457.1,203.6L456.8,233.7L456.8,248.0L471.7,248.0L488.9,248.1L491.5,248.0L491.5,240.8L509.1,240.9L509.1,233.7L517.7,233.7L518.0,226.5L526.6,226.6L526.6,219.2L546.4,219.2L546.4,200.2L546.7,163.9L546.7,154.3L519.1,154.3L518.5,161.4L518.5,182.6L518.0,183.2L497.5,183.2L497.5,195.5L479.1,195.4L479.1,193.5L457.1,203.6Z"/>
    <path class="wtc-county" id="wtc-county-rio-arriba" data-county="Rio Arriba" d="M184.4,50.1L182.3,53.0L181.8,58.2L176.4,60.2L169.6,64.8L168.1,66.8L168.1,76.8L167.5,88.1L167.8,114.6L194.2,115.0L228.9,114.8L228.9,132.8L281.5,132.6L281.5,135.5L281.8,138.4L297.5,138.4L297.8,132.5L325.4,132.5L325.4,134.4L331.3,135.9L332.5,134.4L337.8,134.9L340.8,131.6L323.9,124.4L313.8,113.6L297.2,108.2L299.0,105.8L305.5,103.4L307.0,94.2L305.8,85.2L304.9,83.2L303.4,71.0L304.3,59.4L301.6,50.4L262.8,50.6L230.1,50.6L229.5,50.0L184.4,50.1Z"/>
    <path class="wtc-county" id="wtc-county-roosevelt" data-county="Roosevelt" d="M471.7,248.0L471.7,276.6L472.0,291.3L480.6,291.3L480.6,313.0L490.7,313.0L490.7,326.5L507.9,326.4L507.9,333.6L545.5,333.6L546.1,312.6L546.4,302.5L546.4,273.0L488.9,273.0L488.9,248.1L471.7,248.0Z"/>
    <path class="wtc-county" id="wtc-county-sandoval" data-county="Sandoval" d="M167.8,114.6L167.5,132.7L193.9,132.8L193.9,190.1L199.6,190.1L203.1,197.2L247.6,197.4L249.1,198.6L252.7,197.4L281.8,197.6L281.5,190.2L281.5,152.9L278.8,149.9L272.6,147.9L268.1,148.4L269.0,146.9L269.0,136.0L275.8,136.6L277.3,134.9L281.5,135.5L281.5,132.6L228.9,132.8L228.9,114.8L194.2,115.0L167.8,114.6Z"/>
    <path class="wtc-county" id="wtc-county-san-juan" data-county="San Juan" d="M50.3,50.1L50.3,132.5L92.4,132.5L167.5,132.7L167.8,114.6L167.5,88.1L168.1,76.8L168.1,66.8L169.6,64.8L176.4,60.2L181.8,58.2L182.3,53.0L184.4,50.1L179.4,50.1L116.2,50.1L105.2,50.1L50.3,50.1Z"/>
    <path class="wtc-county" id="wtc-county-san-miguel" data-county="San Miguel" d="M324.8,143.4L325.4,161.3L325.4,190.3L325.7,211.9L360.7,211.9L360.7,197.5L393.6,197.5L457.1,197.6L457.1,203.6L479.1,193.5L479.1,195.4L497.5,195.5L497.5,183.2L497.5,180.5L490.4,180.5L469.3,149.1L465.4,150.8L436.6,151.0L405.2,150.6L384.1,151.6L382.6,153.1L375.5,148.6L355.9,143.4L324.8,143.4Z"/>
    <path class="wtc-county" id="wtc-county-santa-fe" data-county="Santa Fe" d="M281.5,152.9L281.5,190.2L281.8,197.6L281.8,212.1L325.7,211.9L325.4,190.3L325.4,161.3L324.8,143.4L325.4,134.4L325.4,132.5L297.8,132.5L297.5,138.4L281.8,138.4L281.5,144.7L281.5,146.0L287.7,146.9L284.7,151.1L281.5,152.9Z"/>
    <path class="wtc-county" id="wtc-county-sierra" data-county="Sierra" d="M160.4,341.3L141.7,341.5L136.6,341.2L136.6,364.1L147.9,364.2L150.3,375.1L148.8,376.1L148.5,380.5L150.9,383.7L155.3,384.6L156.2,387.8L155.3,392.8L159.8,399.1L159.5,408.7L158.3,411.4L169.0,413.3L194.5,413.3L194.5,398.9L228.6,399.0L228.6,395.4L273.7,376.3L273.4,348.4L271.4,348.4L271.1,341.0L262.8,341.4L160.4,341.3Z"/>
    <path class="wtc-county" id="wtc-county-socorro" data-county="Socorro" d="M159.5,250.3L159.5,276.6L160.1,276.6L160.1,312.5L160.4,313.6L160.4,341.3L262.8,341.4L271.1,341.0L271.1,326.1L280.0,326.1L288.9,327.0L297.8,327.0L297.8,312.5L308.2,312.5L308.2,276.6L267.5,276.6L267.5,261.7L264.2,261.9L260.4,260.3L238.4,254.1L228.9,250.1L202.5,250.2L162.2,250.1L159.5,250.3Z"/>
    <path class="wtc-county" id="wtc-county-taos" data-county="Taos" d="M301.6,50.4L304.3,59.4L303.4,71.0L304.9,83.2L305.8,85.2L307.0,94.2L305.5,103.4L299.0,105.8L297.2,108.2L313.8,113.6L323.9,124.4L340.8,131.6L344.4,129.6L350.0,121.8L349.7,118.7L351.8,116.9L350.9,113.1L356.5,111.1L357.7,99.2L355.3,95.3L358.3,92.0L353.6,87.1L355.6,86.3L353.6,82.4L355.6,80.0L354.2,76.4L357.7,75.0L358.9,72.9L365.7,72.9L365.1,67.3L365.7,62.6L368.1,57.0L365.1,53.1L366.3,50.4L325.4,50.4L301.6,50.4Z"/>
    <path class="wtc-county" id="wtc-county-torrance" data-county="Torrance" d="M268.1,226.1L263.6,226.1L263.4,238.8L263.6,247.8L263.1,255.0L267.5,254.9L267.5,261.7L267.5,276.6L308.2,276.6L358.9,276.6L358.9,269.4L358.9,247.9L360.7,247.9L360.7,211.9L325.7,211.9L281.8,212.1L281.8,219.2L289.8,219.5L289.8,226.1L268.1,226.1Z"/>
    <path class="wtc-county" id="wtc-county-union" data-county="Union" d="M466.6,50.4L466.6,114.7L466.6,118.3L484.4,118.3L484.4,125.6L519.7,125.6L519.1,132.8L519.1,154.3L546.7,154.3L546.7,128.1L546.7,106.5L546.4,91.3L549.7,91.3L550.0,82.9L550.0,50.0L542.9,50.0L466.6,50.4Z"/>
    <path class="wtc-county" id="wtc-county-valencia" data-county="Valencia" d="M213.8,219.0L202.5,218.9L202.5,250.2L228.9,250.1L238.4,254.1L260.4,260.3L264.2,261.9L267.5,261.7L267.5,254.9L263.1,255.0L263.6,247.8L263.4,238.8L263.6,226.1L268.1,226.1L266.6,223.4L245.3,223.1L242.3,226.1L217.4,226.1L213.8,219.0Z"/>
  </g>
</svg>