<?xml version="1.0" encoding="UTF-8"?>
<svg xmlns="http://www.w3.org/2000/svg" viewBox="0 0 600 430" id="wtc-state-map-SC" role="img" aria-label="sc county map">
  <title>sc Counties</title>
  <g class="wtc-counties">
    <path class="wtc-county" id="wtc-county-abbeville" data-county="Abbeville" d="M113.4,275.9L116.0,269.8L120.5,267.7L123.5,261.7L128.7,257.4L128.7,255.6L135.4,261.7L140.2,262.7L143.6,260.4L156.6,260.9L162.6,265.4L165.6,271.1L164.8,277.0L158.5,283.0L158.1,287.5L155.9,289.8L164.8,296.7L157.8,303.1L157.8,304.5L149.9,299.2L113.4,275.9Z"/>
    <path class="wtc-county" id="wtc-county-aiken" data-county="Aiken" d="M189.1,205.6L192.4,200.6L198.0,198.3L199.5,196.2L196.9,192.3L198.4,188.9L196.9,186.0L207.3,178.7L205.9,176.0L210.7,172.3L213.3,173.3L215.9,170.9L255.8,201.3L274.8,218.1L265.5,222.7L257.3,225.4L251.3,226.3L246.5,233.1L241.3,234.8L234.9,241.4L226.7,234.9L189.1,205.6Z"/>
    <path class="wtc-county" id="wtc-county-allendale" data-county="Allendale" d="M230.5,160.1L237.9,155.0L243.5,151.2L241.6,145.2L246.1,139.5L246.9,135.1L250.2,133.8L250.2,126.2L251.7,123.8L259.2,126.3L260.3,128.4L267.4,133.6L265.5,139.1L269.6,140.7L269.6,144.1L286.0,153.1L281.5,155.8L274.5,162.6L256.6,161.5L237.9,166.7L230.5,160.1Z"/>
    <path class="wtc-county" id="wtc-county-anderson" data-county="Anderson" d="M87.3,304.0L96.6,304.7L99.6,303.6L102.6,297.9L103.7,292.2L108.2,289.5L110.0,284.2L113.4,280.4L113.4,275.9L149.9,299.2L157.8,304.5L147.3,311.6L146.2,316.2L143.2,319.1L142.1,327.4L143.6,334.9L139.9,339.3L108.5,324.1L103.3,319.0L102.6,318.5L101.8,317.4L87.3,304.0Z"/>
    <path class="wtc-county" id="wtc-county-bamberg" data-county="Bamberg" d="M271.1,196.0L272.2,191.6L271.5,171.7L270.7,167.0L274.5,162.6L281.5,155.8L286.0,153.1L300.9,161.0L304.3,156.6L306.5,159.3L305.4,163.3L315.5,168.7L311.4,171.5L310.3,175.1L300.6,181.9L286.0,189.3L274.8,193.1L271.1,196.0Z"/>
    <path class="wtc-county" id="wtc-county-barnwell" data-county="Barnwell" d="M215.9,170.9L214.1,169.0L217.0,165.0L227.1,160.1L230.5,160.1L237.9,166.7L256.6,161.5L274.5,162.6L270.7,167.0L271.5,171.7L272.2,191.6L271.1,196.0L262.9,200.3L255.8,201.3L215.9,170.9Z"/>
    <path class="wtc-county" id="wtc-county-beaufort" data-county="Beaufort" d="M308.0,115.1L311.7,108.4L311.0,100.6L313.2,97.4L310.3,91.0L311.0,86.4L307.3,82.4L302.4,83.0L301.3,77.7L293.8,78.3L295.3,74.3L293.1,71.0L295.0,66.9L299.8,63.8L300.6,60.7L304.7,58.0L303.9,54.6L306.9,54.7L310.6,57.9L314.0,57.9L323.3,63.1L328.9,68.9L323.7,74.2L319.2,75.5L319.9,78.3L324.0,80.3L331.1,76.7L331.9,73.0L339.0,74.8L350.9,80.3L353.5,86.9L348.3,92.9L348.7,96.9L345.7,98.1L340.8,105.2L333.7,106.8L329.6,110.1L328.9,115.8L321.4,117.3L318.8,116.6L312.5,119.6L308.0,115.1Z"/>
    <path class="wtc-county" id="wtc-county-berkeley" data-county="Berkeley" d="M375.1,196.4L371.8,181.4L365.8,177.8L362.5,179.2L360.6,177.1L363.9,170.9L367.3,169.2L363.9,165.7L369.2,162.7L382.6,152.5L388.2,149.1L392.7,150.3L397.1,140.0L403.5,141.0L402.0,137.6L405.3,135.0L405.7,132.0L409.1,132.7L409.1,135.7L412.4,136.8L416.5,142.0L422.9,145.9L422.9,149.1L426.6,151.8L435.2,162.8L444.1,166.5L447.8,165.6L450.8,170.2L455.7,172.5L431.8,182.0L423.6,184.6L421.0,188.6L413.5,192.2L409.4,197.4L401.2,202.3L389.7,202.9L387.8,202.0L382.6,200.0L382.6,196.9L375.1,196.4Z"/>
    <path class="wtc-county" id="wtc-county-calhoun" data-county="Calhoun" d="M293.1,241.8L290.5,240.8L288.3,227.9L290.5,227.8L293.1,231.5L297.9,231.1L302.1,228.9L290.1,223.7L297.9,215.3L300.2,217.1L300.6,213.6L306.2,214.6L314.4,213.0L326.3,204.6L329.6,199.2L334.9,199.2L333.4,202.2L337.1,206.3L334.9,207.5L340.8,209.0L345.3,206.3L346.8,208.3L346.0,211.8L341.9,215.6L342.7,217.2L334.5,224.3L333.7,227.5L329.6,230.6L327.0,228.8L319.2,230.7L312.1,231.2L306.9,235.1L303.2,234.8L295.7,238.5L293.1,241.8Z"/>
    <path class="wtc-county" id="wtc-county-charleston" data-county="Charleston" d="M356.5,135.6L356.1,130.7L353.1,128.3L351.3,123.3L354.3,120.7L354.6,116.0L358.0,114.3L358.0,106.1L355.0,103.2L361.7,98.4L368.8,101.6L369.5,100.2L377.0,104.2L379.2,102.6L385.6,107.8L394.5,109.8L398.2,109.3L400.9,112.9L410.2,117.6L412.0,122.8L405.7,124.8L406.1,127.6L410.2,128.3L413.9,124.9L426.6,130.1L429.9,134.8L436.7,138.8L442.2,140.6L442.2,143.5L439.3,142.6L438.1,145.4L441.9,151.0L447.8,154.0L451.9,150.5L458.3,151.9L464.6,151.0L468.0,159.7L472.1,161.7L474.3,164.3L465.7,166.3L455.7,172.5L450.8,170.2L447.8,165.6L444.1,166.5L435.2,162.8L426.6,151.8L422.9,149.1L422.9,145.9L416.5,142.0L412.4,136.8L409.1,135.7L409.1,132.7L405.7,132.0L405.3,135.0L402.0,137.6L403.5,141.0L397.1,140.0L392.7,150.3L388.2,149.1L382.6,152.5L380.7,150.6L386.7,148.8L383.7,148.2L390.0,142.8L388.2,138.5L381.5,137.3L381.8,131.5L366.9,135.0L356.5,135.6Z"/>
    <path class="wtc-county" id="wtc-county-cherokee" data-county="Cherokee" d="M203.6,377.2L211.8,361.8L215.9,351.1L220.4,349.0L227.1,347.7L227.9,345.7L233.4,346.4L237.9,344.6L244.3,344.2L246.9,341.4L243.1,352.5L245.0,356.3L243.5,360.9L247.2,363.1L251.7,363.1L252.8,372.2L256.2,375.2L214.4,376.8L203.6,377.2Z"/>
    <path class="wtc-county" id="wtc-county-chester" data-county="Chester" d="M244.6,339.6L247.2,333.2L244.3,331.5L246.9,329.4L247.2,324.3L251.3,320.0L250.6,313.6L268.9,312.8L294.2,311.1L307.3,310.7L305.0,319.9L308.8,326.5L305.0,339.5L244.6,339.6Z"/>
    <path class="wtc-county" id="wtc-county-chesterfield" data-county="Chesterfield" d="M340.1,339.1L344.6,333.4L347.5,327.4L353.5,322.7L355.7,318.1L358.7,314.9L359.5,311.0L364.3,305.9L365.1,298.5L368.8,295.1L368.4,292.3L393.4,305.3L400.1,306.3L402.0,304.9L410.2,305.2L415.8,309.4L418.8,317.4L421.4,317.9L419.5,321.6L415.8,322.4L411.3,326.5L409.4,331.3L406.1,333.7L405.7,338.0L365.1,338.8L340.1,339.1Z"/>
    <path class="wtc-county" id="wtc-county-clarendon" data-county="Clarendon" d="M342.7,217.2L341.9,215.6L346.0,211.8L346.8,208.3L351.6,204.8L353.1,199.9L361.3,195.0L369.5,196.7L375.1,196.4L382.6,196.9L382.6,200.0L387.8,202.0L399.0,223.5L400.9,225.3L398.6,230.1L407.2,235.3L411.3,242.3L403.8,242.4L400.9,248.6L385.6,240.6L384.1,240.5L371.8,233.8L369.9,232.0L356.9,230.1L357.6,224.6L353.1,224.3L353.5,227.1L348.7,224.6L346.4,220.4L342.7,217.2Z"/>
    <path class="wtc-county" id="wtc-county-colleton" data-county="Colleton" d="M286.0,153.1L294.6,143.2L295.7,140.0L304.7,133.0L312.5,119.6L318.8,116.6L321.4,117.3L328.9,115.8L329.6,110.1L333.7,106.8L340.8,105.2L345.7,98.1L348.7,96.9L354.3,98.2L355.0,95.5L360.6,98.0L363.6,96.1L369.5,100.2L368.8,101.6L361.7,98.4L355.0,103.2L358.0,106.1L358.0,114.3L354.6,116.0L354.3,120.7L351.3,123.3L353.1,128.3L356.1,130.7L356.5,135.6L358.4,138.5L356.1,141.5L355.0,147.8L358.0,153.7L349.0,157.0L343.1,157.5L336.7,156.3L328.5,161.1L324.4,166.5L316.2,169.1L315.5,168.7L305.4,163.3L306.5,159.3L304.3,156.6L300.9,161.0L286.0,153.1Z"/>
    <path class="wtc-county" id="wtc-county-darlington" data-county="Darlington" d="M368.4,292.3L368.4,292.0L372.9,287.8L380.0,292.3L380.0,288.1L384.1,283.7L386.7,274.7L381.8,271.0L384.5,267.6L390.8,263.1L418.8,280.7L424.0,280.2L426.2,284.9L431.1,283.8L433.7,285.9L430.3,291.3L431.1,295.7L427.7,295.1L424.3,299.6L424.3,302.8L427.3,304.9L423.6,306.7L418.0,304.7L415.8,309.4L410.2,305.2L402.0,304.9L400.1,306.3L393.4,305.3L368.4,292.3Z"/>
    <path class="wtc-county" id="wtc-county-dillon" data-county="Dillon" d="M436.3,285.1L439.6,284.3L445.2,278.2L452.3,284.2L463.1,285.2L470.6,282.2L479.9,280.8L484.0,284.1L488.9,280.6L494.8,285.3L476.5,300.5L465.0,310.8L455.3,318.7L436.3,285.1Z"/>
    <path class="wtc-county" id="wtc-county-dorchester" data-county="Dorchester" d="M316.2,169.1L324.4,166.5L328.5,161.1L336.7,156.3L343.1,157.5L349.0,157.0L358.0,153.7L355.0,147.8L356.1,141.5L358.4,138.5L356.5,135.6L366.9,135.0L381.8,131.5L381.5,137.3L388.2,138.5L390.0,142.8L383.7,148.2L386.7,148.8L380.7,150.6L382.6,152.5L369.2,162.7L363.9,165.7L367.3,169.2L363.9,170.9L360.6,177.1L353.9,177.1L347.9,179.4L346.0,185.1L316.2,169.1Z"/>
    <path class="wtc-county" id="wtc-county-edgefield" data-county="Edgefield" d="M185.7,249.4L174.2,246.9L174.2,242.5L178.6,236.5L172.7,229.9L171.6,225.5L173.4,222.1L180.5,216.2L178.6,212.3L187.6,207.0L189.1,205.6L226.7,234.9L207.7,240.3L204.0,243.0L201.4,251.7L189.8,250.3L185.7,249.4Z"/>
    <path class="wtc-county" id="wtc-county-fairfield" data-county="Fairfield" d="M250.6,313.6L250.6,305.6L250.6,301.4L256.2,288.1L261.4,279.1L265.5,278.1L276.0,272.3L275.6,277.1L284.5,276.4L298.3,280.4L312.5,282.1L318.5,293.4L315.8,297.1L311.0,297.7L306.9,301.7L305.0,304.8L307.3,310.7L294.2,311.1L268.9,312.8L250.6,313.6Z"/>
    <path class="wtc-county" id="wtc-county-florence" data-county="Florence" d="M390.8,263.1L395.6,261.9L398.2,259.2L408.3,254.4L409.4,252.9L400.9,248.6L403.8,242.4L411.3,242.3L415.4,242.0L419.1,237.1L425.1,237.0L427.0,234.9L431.8,235.0L450.4,230.9L456.4,231.8L465.7,235.0L468.3,233.3L469.5,236.2L463.9,237.8L450.8,249.0L448.6,253.6L448.6,264.3L442.6,273.5L445.2,278.2L439.6,284.3L436.3,285.1L433.7,285.9L431.1,283.8L426.2,284.9L424.0,280.2L418.8,280.7L390.8,263.1Z"/>
    <path class="wtc-county" id="wtc-county-georgetown" data-county="Georgetown" d="M469.1,231.3L461.3,224.3L456.0,212.2L457.2,210.3L450.4,203.9L446.3,202.0L440.8,196.4L436.3,188.9L431.8,185.3L431.8,182.0L455.7,172.5L465.7,166.3L474.3,164.3L472.1,161.7L476.5,163.3L481.8,167.5L484.4,171.8L483.3,176.7L488.1,192.2L493.3,200.5L499.3,205.7L501.9,209.7L491.8,209.7L487.7,219.3L482.5,223.7L476.5,222.6L472.8,224.7L469.1,231.3Z"/>
    <path class="wtc-county" id="wtc-county-greenville" data-county="Greenville" d="M130.9,373.0L122.3,370.5L111.1,365.2L112.6,363.1L120.1,364.8L123.8,364.3L131.3,365.8L128.3,362.3L128.7,358.9L134.6,359.7L136.9,350.4L139.1,347.2L139.9,339.3L143.6,334.9L142.1,327.4L143.2,319.1L146.2,316.2L147.3,311.6L157.8,304.5L166.0,309.9L166.0,315.2L175.3,335.8L167.1,342.5L168.2,378.5L153.7,378.0L149.9,380.5L145.5,375.8L142.8,376.6L130.9,373.0Z"/>
    <path class="wtc-county" id="wtc-county-greenwood" data-county="Greenwood" d="M164.8,296.7L155.9,289.8L158.1,287.5L158.5,283.0L164.8,277.0L165.6,271.1L162.6,265.4L156.6,260.9L158.9,251.2L166.0,255.6L169.7,251.9L174.9,252.8L185.7,252.5L185.7,249.4L189.8,250.3L191.7,254.0L196.2,258.3L198.0,262.3L204.0,268.3L196.2,275.3L192.8,278.9L189.8,279.3L182.0,285.3L177.9,285.8L173.0,288.5L171.9,291.4L164.8,296.7Z"/>
    <path class="wtc-county" id="wtc-county-hampton" data-county="Hampton" d="M251.7,123.8L249.9,119.3L252.1,118.6L253.6,114.3L251.0,111.8L254.0,108.3L261.0,104.5L265.1,104.3L292.7,124.7L300.2,117.8L298.7,113.2L304.7,111.0L308.0,115.1L312.5,119.6L304.7,133.0L295.7,140.0L294.6,143.2L286.0,153.1L269.6,144.1L269.6,140.7L265.5,139.1L267.4,133.6L260.3,128.4L259.2,126.3L251.7,123.8Z"/>
    <path class="wtc-county" id="wtc-county-horry" data-county="Horry" d="M488.9,280.6L488.5,277.2L482.1,272.6L480.6,268.0L476.2,263.5L476.9,261.2L471.0,257.2L466.9,251.1L471.3,243.9L474.7,243.0L475.1,235.0L482.5,223.7L487.7,219.3L491.8,209.7L501.9,209.7L508.6,216.8L521.7,227.6L531.7,233.5L545.2,238.0L550.0,238.7L538.4,248.4L494.8,285.3L488.9,280.6Z"/>
    <path class="wtc-county" id="wtc-county-jasper" data-county="Jasper" d="M265.1,104.3L265.5,102.0L274.1,94.8L272.6,91.8L278.2,82.4L279.7,82.8L281.9,76.0L278.2,71.5L279.3,70.0L282.3,66.1L280.8,63.7L282.7,58.2L290.5,55.2L294.6,56.7L302.8,50.4L306.2,50.0L304.3,51.9L306.9,54.7L303.9,54.6L304.7,58.0L300.6,60.7L299.8,63.8L295.0,66.9L293.1,71.0L295.3,74.3L293.8,78.3L301.3,77.7L302.4,83.0L307.3,82.4L311.0,86.4L310.3,91.0L313.2,97.4L311.0,100.6L311.7,108.4L308.0,115.1L304.7,111.0L298.7,113.2L300.2,117.8L292.7,124.7L265.1,104.3Z"/>
    <path class="wtc-county" id="wtc-county-kershaw" data-county="Kershaw" d="M306.9,301.7L311.0,297.7L315.8,297.1L318.5,293.4L312.5,282.1L308.0,273.1L309.9,272.3L323.7,261.4L334.1,264.5L337.8,264.6L348.3,271.8L353.5,277.7L352.8,283.7L361.7,285.7L360.6,289.5L364.3,289.4L368.4,292.0L368.4,292.3L368.8,295.1L365.1,298.5L364.3,305.9L359.5,311.0L358.7,314.9L355.7,318.1L341.2,312.4L343.4,306.6L341.2,305.4L334.5,306.1L330.0,303.9L326.7,307.7L321.4,304.1L321.1,310.3L306.9,301.7Z"/>
    <path class="wtc-county" id="wtc-county-lancaster" data-county="Lancaster" d="M304.3,366.0L303.9,359.8L306.2,356.4L306.5,354.7L306.5,354.6L308.0,350.7L306.9,343.8L308.4,342.3L305.0,339.5L308.8,326.5L305.0,319.9L307.3,310.7L305.0,304.8L306.9,301.7L321.1,310.3L321.4,304.1L326.7,307.7L330.0,303.9L334.5,306.1L341.2,305.4L343.4,306.6L341.2,312.4L355.7,318.1L353.5,322.7L347.5,327.4L344.6,333.4L340.1,339.1L315.5,339.4L317.0,351.4L311.0,358.2L304.3,366.0Z"/>
    <path class="wtc-county" id="wtc-county-laurens" data-county="Laurens" d="M157.8,304.5L157.8,303.1L164.8,296.7L171.9,291.4L173.0,288.5L177.9,285.8L182.0,285.3L189.8,279.3L192.8,278.9L196.2,275.3L200.6,281.5L201.8,285.7L207.3,289.8L212.9,292.1L219.3,300.9L221.5,301.2L227.5,309.6L224.1,312.2L220.0,311.7L205.9,315.9L204.7,314.5L199.9,316.9L193.5,322.4L190.2,322.9L183.1,327.4L181.6,331.5L178.6,332.1L175.3,335.8L166.0,315.2L166.0,309.9L157.8,304.5Z"/>
    <path class="wtc-county" id="wtc-county-lee" data-county="Lee" d="M348.3,271.8L348.3,265.9L356.1,262.7L364.7,262.6L367.7,258.3L370.3,257.8L372.1,253.4L378.9,254.7L379.6,249.2L390.8,255.0L395.6,255.1L398.2,259.2L395.6,261.9L390.8,263.1L384.5,267.6L381.8,271.0L386.7,274.7L384.1,283.7L380.0,288.1L380.0,292.3L372.9,287.8L368.4,292.0L364.3,289.4L360.6,289.5L361.7,285.7L352.8,283.7L353.5,277.7L348.3,271.8Z"/>
    <path class="wtc-county" id="wtc-county-lexington" data-county="Lexington" d="M245.4,262.1L234.9,241.4L241.3,234.8L246.5,233.1L251.3,226.3L257.3,225.4L265.5,222.7L274.8,218.1L285.3,222.6L290.1,223.7L302.1,228.9L297.9,231.1L293.1,231.5L290.5,227.8L288.3,227.9L290.5,240.8L293.1,241.8L292.7,247.1L288.6,254.4L283.8,256.6L280.1,261.3L276.3,263.5L265.9,264.4L262.2,268.9L263.3,271.4L259.2,274.7L252.5,272.7L249.1,267.7L254.0,262.6L245.7,263.3L245.4,262.1Z"/>
    <path class="wtc-county" id="wtc-county-mccormick" data-county="McCormick" d="M128.7,255.6L132.0,249.6L136.1,248.3L143.2,241.9L154.0,237.2L164.8,228.5L167.8,221.6L170.1,215.8L174.9,212.4L178.6,212.3L180.5,216.2L173.4,222.1L171.6,225.5L172.7,229.9L178.6,236.5L174.2,242.5L174.2,246.9L185.7,249.4L185.7,252.5L174.9,252.8L169.7,251.9L166.0,255.6L158.9,251.2L156.6,260.9L143.6,260.4L140.2,262.7L135.4,261.7L128.7,255.6Z"/>
    <path class="wtc-county" id="wtc-county-marion" data-county="Marion" d="M445.2,278.2L442.6,273.5L448.6,264.3L448.6,253.6L450.8,249.0L463.9,237.8L469.5,236.2L468.3,233.3L469.1,231.3L472.8,224.7L476.5,222.6L482.5,223.7L475.1,235.0L474.7,243.0L471.3,243.9L466.9,251.1L471.0,257.2L476.9,261.2L476.2,263.5L480.6,268.0L482.1,272.6L488.5,277.2L488.9,280.6L484.0,284.1L479.9,280.8L470.6,282.2L463.1,285.2L452.3,284.2L445.2,278.2Z"/>
    <path class="wtc-county" id="wtc-county-marlboro" data-county="Marlboro" d="M405.7,338.0L406.1,333.7L409.4,331.3L411.3,326.5L415.8,322.4L419.5,321.6L421.4,317.9L418.8,317.4L415.8,309.4L418.0,304.7L423.6,306.7L427.3,304.9L424.3,302.8L424.3,299.6L427.7,295.1L431.1,295.7L430.3,291.3L433.7,285.9L436.3,285.1L455.3,318.7L454.2,319.7L432.2,337.8L430.3,337.8L405.7,338.0Z"/>
    <path class="wtc-county" id="wtc-county-newberry" data-county="Newberry" d="M196.2,275.3L204.0,268.3L205.1,272.8L212.9,271.5L218.5,273.7L228.2,269.3L238.3,262.7L245.4,262.1L245.7,263.3L254.0,262.6L249.1,267.7L252.5,272.7L259.2,274.7L261.4,279.1L256.2,288.1L250.6,301.4L250.6,305.6L243.9,305.1L238.3,300.4L236.8,303.7L227.5,309.6L221.5,301.2L219.3,300.9L212.9,292.1L207.3,289.8L201.8,285.7L200.6,281.5L196.2,275.3Z"/>
    <path class="wtc-county" id="wtc-county-oconee" data-county="Oconee" d="M75.4,358.1L74.2,351.7L62.7,345.6L53.0,336.3L53.4,333.1L50.0,328.6L51.5,325.6L62.7,317.7L69.0,317.1L75.7,310.0L81.3,305.7L87.3,304.0L101.8,317.4L102.6,318.5L103.3,319.0L101.8,329.5L97.0,331.3L98.8,336.5L97.4,337.6L95.5,355.2L92.5,356.9L97.4,363.9L85.8,360.9L75.4,358.1Z"/>
    <path class="wtc-county" id="wtc-county-orangeburg" data-county="Orangeburg" d="M255.8,201.3L262.9,200.3L271.1,196.0L274.8,193.1L286.0,189.3L300.6,181.9L310.3,175.1L311.4,171.5L315.5,168.7L316.2,169.1L346.0,185.1L347.9,179.4L353.9,177.1L360.6,177.1L362.5,179.2L365.8,177.8L371.8,181.4L375.1,196.4L369.5,196.7L361.3,195.0L353.1,199.9L351.6,204.8L346.8,208.3L345.3,206.3L340.8,209.0L334.9,207.5L337.1,206.3L333.4,202.2L334.9,199.2L329.6,199.2L326.3,204.6L314.4,213.0L306.2,214.6L300.6,213.6L300.2,217.1L297.9,215.3L290.1,223.7L285.3,222.6L274.8,218.1L255.8,201.3Z"/>
    <path class="wtc-county" id="wtc-county-pickens" data-county="Pickens" d="M97.4,363.9L92.5,356.9L95.5,355.2L97.4,337.6L98.8,336.5L97.0,331.3L101.8,329.5L103.3,319.0L108.5,324.1L139.9,339.3L139.1,347.2L136.9,350.4L134.6,359.7L128.7,358.9L128.3,362.3L131.3,365.8L123.8,364.3L120.1,364.8L112.6,363.1L111.1,365.2L109.3,367.0L97.4,363.9Z"/>
    <path class="wtc-county" id="wtc-county-richland" data-county="Richland" d="M261.4,279.1L259.2,274.7L263.3,271.4L262.2,268.9L265.9,264.4L276.3,263.5L280.1,261.3L283.8,256.6L288.6,254.4L292.7,247.1L293.1,241.8L295.7,238.5L303.2,234.8L306.9,235.1L312.1,231.2L319.2,230.7L327.0,228.8L329.6,230.6L333.7,227.5L336.4,232.0L332.6,238.9L333.7,247.3L331.1,254.2L336.0,258.3L332.3,262.8L334.1,264.5L323.7,261.4L309.9,272.3L308.0,273.1L312.5,282.1L298.3,280.4L284.5,276.4L275.6,277.1L276.0,272.3L265.5,278.1L261.4,279.1Z"/>
    <path class="wtc-county" id="wtc-county-saluda" data-county="Saluda" d="M204.0,268.3L198.0,262.3L196.2,258.3L191.7,254.0L189.8,250.3L201.4,251.7L204.0,243.0L207.7,240.3L226.7,234.9L234.9,241.4L245.4,262.1L238.3,262.7L228.2,269.3L218.5,273.7L212.9,271.5L205.1,272.8L204.0,268.3Z"/>
    <path class="wtc-county" id="wtc-county-spartanburg" data-county="Spartanburg" d="M168.2,378.5L167.1,342.5L175.3,335.8L178.6,332.1L181.6,331.5L183.1,327.4L190.2,322.9L193.5,322.4L199.9,316.9L204.7,314.5L205.9,315.9L208.8,324.9L212.9,341.2L220.4,349.0L215.9,351.1L211.8,361.8L203.6,377.2L193.5,377.5L168.2,378.5Z"/>
    <path class="wtc-county" id="wtc-county-sumter" data-county="Sumter" d="M334.1,264.5L332.3,262.8L336.0,258.3L331.1,254.2L333.7,247.3L332.6,238.9L336.4,232.0L333.7,227.5L334.5,224.3L342.7,217.2L346.4,220.4L348.7,224.6L353.5,227.1L353.1,224.3L357.6,224.6L356.9,230.1L369.9,232.0L371.8,233.8L384.1,240.5L385.6,240.6L400.9,248.6L409.4,252.9L408.3,254.4L398.2,259.2L395.6,255.1L390.8,255.0L379.6,249.2L378.9,254.7L372.1,253.4L370.3,257.8L367.7,258.3L364.7,262.6L356.1,262.7L348.3,265.9L348.3,271.8L337.8,264.6L334.1,264.5Z"/>
    <path class="wtc-county" id="wtc-county-union" data-county="Union" d="M205.9,315.9L220.0,311.7L224.1,312.2L227.5,309.6L236.8,303.7L238.3,300.4L243.9,305.1L250.6,305.6L250.6,313.6L251.3,320.0L247.2,324.3L246.9,329.4L244.3,331.5L247.2,333.2L244.6,339.6L246.9,341.4L244.3,344.2L237.9,344.6L233.4,346.4L227.9,345.7L227.1,347.7L220.4,349.0L212.9,341.2L208.8,324.9L205.9,315.9Z"/>
    <path class="wtc-county" id="wtc-county-williamsburg" data-county="Williamsburg" d="M387.8,202.0L389.7,202.9L401.2,202.3L409.4,197.4L413.5,192.2L421.0,188.6L423.6,184.6L431.8,182.0L431.8,185.3L436.3,188.9L440.8,196.4L446.3,202.0L450.4,203.9L457.2,210.3L456.0,212.2L461.3,224.3L469.1,231.3L468.3,233.3L465.7,235.0L456.4,231.8L450.4,230.9L431.8,235.0L427.0,234.9L425.1,237.0L419.1,237.1L415.4,242.0L411.3,242.3L407.2,235.3L398.6,230.1L400.9,225.3L399.0,223.5L387.8,202.0Z"/>
    <path class="wtc-county" id="wtc-county-york" data-county="York" d="M256.2,375.2L252.8,372.2L251.7,363.1L247.2,363.1L243.5,360.9L245.0,356.3L243.1,352.5L246.9,341.4L244.6,339.6L305.0,339.5L308.4,342.3L306.9,343.8L308.0,350.7L306.5,354.6L306.5,354.7L306.2,356.4L303.9,359.8L304.3,366.0L301.3,369.2L290.1,362.7L288.3,364.6L290.9,368.9L290.1,373.6L260.3,375.1L256.2,375.2Z"/>
  </g>
</svg>