<?xml version="1.0" encoding="UTF-8"?>
<svg xmlns="http://www.w3.org/2000/svg" viewBox="0 0 600 446" id="wtc-state-map-MO" role="img" aria-label="mo county map">
  <title>mo Counties</title>
  <g class="wtc-counties">
    <path class="wtc-county" id="wtc-county-adair" data-county="Adair" d="M268.2,376.0L268.2,353.0L269.1,353.0L306.7,353.0L306.5,372.9L306.2,376.2L281.2,376.0L268.2,376.0Z"/>
    <path class="wtc-county" id="wtc-county-andrew" data-county="Andrew" d="M104.4,360.0L105.2,358.4L103.0,355.5L106.8,353.7L108.4,346.0L108.1,342.6L113.0,341.9L111.9,340.1L116.7,336.8L137.5,336.7L137.2,353.2L137.2,359.7L104.4,360.0Z"/>
    <path class="wtc-county" id="wtc-county-atchison" data-county="Atchison" d="M50.3,394.1L50.0,390.1L54.3,389.5L55.7,392.0L58.6,390.8L55.1,388.1L55.4,385.6L58.3,383.4L58.1,380.9L61.3,373.8L66.1,372.1L65.9,370.0L94.1,369.8L94.1,386.1L92.5,386.1L92.5,393.6L79.6,393.7L50.3,394.1Z"/>
    <path class="wtc-county" id="wtc-county-audrain" data-county="Audrain" d="M309.1,301.3L308.9,293.7L324.8,293.3L324.2,280.1L360.0,279.7L360.3,286.4L376.7,285.9L374.5,299.2L353.6,299.6L353.6,300.7L325.8,300.8L309.1,301.3Z"/>
    <path class="wtc-county" id="wtc-county-barry" data-county="Barry" d="M176.7,87.7L192.6,87.7L213.6,87.7L214.4,111.8L211.5,111.9L211.7,119.6L177.8,120.2L177.3,106.4L177.6,105.7L176.7,87.7Z"/>
    <path class="wtc-county" id="wtc-county-barton" data-county="Barton" d="M136.4,174.3L136.4,152.6L176.5,151.5L177.0,168.9L177.0,173.3L136.4,174.3Z"/>
    <path class="wtc-county" id="wtc-county-bates" data-county="Bates" d="M136.7,229.4L136.7,204.8L164.6,204.1L164.6,202.3L170.8,204.6L174.3,203.1L178.1,203.0L178.9,216.4L177.0,216.4L177.6,233.8L176.2,234.5L169.5,233.7L165.7,234.7L163.3,234.0L159.3,235.6L136.7,236.1L136.7,229.4Z"/>
    <path class="wtc-county" id="wtc-county-benton" data-county="Benton" d="M219.0,238.7L219.3,233.8L218.2,215.9L220.3,215.2L219.8,205.8L252.6,205.0L253.2,214.2L251.3,214.3L251.8,220.0L252.4,240.0L235.7,240.5L235.7,238.3L219.0,238.7Z"/>
    <path class="wtc-county" id="wtc-county-bollinger" data-county="Bollinger" d="M466.0,148.9L465.8,131.8L474.1,131.7L474.1,128.4L482.7,128.3L485.4,129.4L485.4,134.9L492.4,134.8L492.7,141.7L492.9,170.2L471.4,170.1L472.0,165.9L471.4,148.7L466.0,148.9Z"/>
    <path class="wtc-county" id="wtc-county-boone" data-county="Boone" d="M300.3,293.9L294.1,281.9L290.0,275.2L290.6,273.0L295.2,269.4L299.2,263.1L304.0,260.9L301.9,257.6L303.0,255.7L306.7,253.1L305.4,251.4L315.9,248.5L316.4,253.9L320.2,257.7L322.3,261.4L320.5,265.2L321.0,271.0L322.9,277.0L322.6,280.1L324.2,280.1L324.8,293.3L308.9,293.7L300.3,293.9Z"/>
    <path class="wtc-county" id="wtc-county-buchanan" data-county="Buchanan" d="M103.6,321.4L104.1,319.9L99.5,318.3L99.8,315.2L137.5,315.0L137.5,331.3L137.5,336.7L116.7,336.8L116.5,335.1L113.2,334.5L114.0,332.2L117.3,333.2L117.0,330.0L114.3,329.7L110.8,331.2L109.5,326.4L105.4,325.2L103.6,321.4Z"/>
    <path class="wtc-county" id="wtc-county-butler" data-county="Butler" d="M431.6,119.8L432.9,116.5L432.7,111.2L435.4,111.1L435.4,101.3L438.1,101.3L438.1,94.8L439.4,94.7L439.1,87.7L466.0,87.7L468.2,91.2L468.5,94.4L471.4,97.6L472.0,102.6L467.1,108.2L467.7,110.6L466.3,113.5L463.1,116.3L463.1,119.5L456.1,119.8L431.6,119.8Z"/>
    <path class="wtc-county" id="wtc-county-caldwell" data-county="Caldwell" d="M167.1,331.2L167.1,314.8L200.7,314.6L200.7,321.1L200.7,334.1L167.1,334.4L167.1,331.2Z"/>
    <path class="wtc-county" id="wtc-county-callaway" data-county="Callaway" d="M324.2,280.1L322.6,280.1L322.9,277.0L321.0,271.0L320.5,265.2L322.3,261.4L320.2,257.7L316.4,253.9L315.9,248.5L317.2,245.7L319.9,243.9L327.7,242.1L331.8,243.1L336.6,245.1L341.7,249.6L346.0,251.3L350.6,251.7L353.0,253.3L358.9,253.0L360.0,279.7L324.2,280.1Z"/>
    <path class="wtc-county" id="wtc-county-camden" data-county="Camden" d="M251.8,220.0L251.3,214.3L253.2,214.2L252.6,205.0L252.1,193.0L268.2,192.5L286.0,192.2L287.6,188.3L291.4,185.3L294.9,187.4L298.7,187.1L301.9,189.8L302.2,201.9L293.8,202.0L288.4,207.5L287.1,213.1L284.4,213.1L284.4,216.2L280.4,216.9L275.8,216.2L275.2,214.5L260.4,215.1L262.6,216.8L260.4,217.4L258.3,214.4L256.4,218.4L253.2,220.7L251.8,220.0Z"/>
    <path class="wtc-county" id="wtc-county-cape-girardeau" data-county="Cape Girardeau" d="M492.9,170.2L492.7,141.7L492.4,134.8L499.9,134.8L503.4,135.9L505.9,140.2L511.0,141.7L511.0,142.8L520.7,144.2L518.5,146.7L520.9,150.4L524.7,151.1L525.8,155.1L518.8,165.5L518.2,167.8L513.1,168.4L512.3,170.5L510.4,169.4L502.9,170.3L501.3,169.5L497.3,170.5L492.9,170.2Z"/>
    <path class="wtc-county" id="wtc-county-carroll" data-county="Carroll" d="M200.7,314.6L200.7,290.8L204.2,290.8L208.8,293.9L213.6,293.3L215.5,291.7L220.6,292.0L220.6,296.5L221.7,297.2L226.8,295.3L227.9,292.2L232.5,294.0L232.7,298.5L236.8,298.6L238.4,300.6L240.3,299.8L243.2,302.7L242.4,305.4L245.1,305.6L247.0,303.6L249.7,304.0L248.9,306.5L241.6,308.3L240.5,310.7L237.8,309.8L236.2,314.2L237.6,316.5L236.8,321.4L200.7,321.1L200.7,314.6Z"/>
    <path class="wtc-county" id="wtc-county-carter" data-county="Carter" d="M390.7,116.6L390.7,112.3L398.8,112.1L415.2,111.3L432.7,111.2L432.9,116.5L431.6,119.8L430.2,123.1L427.6,125.4L427.8,129.0L424.1,129.1L410.1,129.4L410.3,132.6L406.0,132.5L399.6,131.8L391.2,131.8L390.7,116.6Z"/>
    <path class="wtc-county" id="wtc-county-cass" data-county="Cass" d="M136.9,255.7L136.7,236.1L159.3,235.6L163.3,234.0L165.7,234.7L169.5,233.7L176.2,234.5L177.6,233.8L177.8,242.8L173.5,243.0L173.8,249.5L173.0,249.5L173.5,262.7L145.8,263.4L136.9,263.8L136.9,255.7Z"/>
    <path class="wtc-county" id="wtc-county-cedar" data-county="Cedar" d="M177.0,173.3L177.0,168.9L211.5,168.3L211.7,180.9L210.1,181.0L210.4,187.5L196.7,187.9L196.9,192.3L177.6,192.9L177.0,182.0L177.0,173.3Z"/>
    <path class="wtc-county" id="wtc-county-chariton" data-county="Chariton" d="M237.6,328.0L236.0,326.4L237.8,322.0L236.8,321.4L237.6,316.5L236.2,314.2L237.8,309.8L240.5,310.7L241.6,308.3L248.9,306.5L249.7,304.0L254.3,299.1L260.4,298.7L260.7,296.5L265.3,291.9L268.8,292.2L273.4,301.1L279.5,299.4L280.4,320.9L280.6,321.0L280.9,327.6L268.2,327.7L251.3,328.2L237.6,328.0Z"/>
    <path class="wtc-county" id="wtc-county-christian" data-county="Christian" d="M212.0,132.7L211.7,125.0L232.2,124.8L231.9,111.6L234.6,111.6L264.2,111.0L264.7,130.6L264.7,131.7L252.6,132.0L212.0,132.7Z"/>
    <path class="wtc-county" id="wtc-county-clark" data-county="Clark" d="M336.3,372.8L336.3,369.5L370.2,368.9L370.5,371.1L374.0,377.4L376.2,378.6L371.0,379.1L368.1,381.1L367.8,384.7L365.1,384.8L360.8,388.5L361.1,390.8L356.2,391.7L353.8,395.1L352.7,396.3L336.9,395.7L336.3,372.8Z"/>
    <path class="wtc-county" id="wtc-county-clay" data-county="Clay" d="M137.5,287.2L136.9,283.8L143.4,286.4L146.3,286.2L148.0,284.3L152.5,287.8L153.3,289.8L155.0,287.5L160.9,293.0L163.3,293.0L166.5,290.8L166.8,309.4L137.5,309.5L137.5,287.2Z"/>
    <path class="wtc-county" id="wtc-county-clinton" data-county="Clinton" d="M137.5,331.3L137.5,315.0L137.5,309.5L166.8,309.4L167.1,314.8L167.1,331.2L137.5,331.3Z"/>
    <path class="wtc-county" id="wtc-county-cole" data-county="Cole" d="M303.0,255.7L295.4,232.4L302.2,232.2L301.9,225.9L311.3,225.6L313.7,224.5L318.0,225.4L318.0,228.1L324.0,230.4L319.9,235.0L323.7,234.6L329.3,235.3L331.8,237.8L330.7,239.6L331.8,243.1L327.7,242.1L319.9,243.9L317.2,245.7L315.9,248.5L305.4,251.4L306.7,253.1L303.0,255.7Z"/>
    <path class="wtc-county" id="wtc-county-cooper" data-county="Cooper" d="M253.7,269.9L252.9,252.2L269.6,251.6L286.3,251.3L286.3,252.4L295.2,269.4L290.6,273.0L287.9,272.9L278.7,274.1L273.1,273.2L268.5,273.9L263.9,276.8L262.3,280.1L254.0,273.2L253.7,269.9Z"/>
    <path class="wtc-county" id="wtc-county-crawford" data-county="Crawford" d="M379.9,216.0L367.3,216.1L367.5,211.7L368.1,211.7L367.8,184.5L384.5,184.4L384.2,177.8L396.1,177.6L396.6,180.9L400.1,180.8L400.4,190.6L400.4,215.6L379.9,215.6L379.9,216.0Z"/>
    <path class="wtc-county" id="wtc-county-dade" data-county="Dade" d="M176.5,151.5L176.2,147.1L178.6,147.1L210.7,146.5L210.9,157.4L211.5,168.3L177.0,168.9L176.5,151.5Z"/>
    <path class="wtc-county" id="wtc-county-dallas" data-county="Dallas" d="M243.5,185.5L243.2,180.0L244.6,180.0L243.8,156.6L252.1,156.5L252.1,161.9L268.5,161.6L269.1,179.4L268.0,179.4L268.2,192.5L252.1,193.0L243.8,193.1L243.5,185.5Z"/>
    <path class="wtc-county" id="wtc-county-daviess" data-county="Daviess" d="M166.3,360.5L166.3,352.8L167.3,352.8L167.1,334.4L200.7,334.1L200.4,347.2L200.2,360.2L166.3,360.5Z"/>
    <path class="wtc-county" id="wtc-county-dekalb" data-county="DeKalb" d="M137.2,353.2L137.5,336.7L137.5,331.3L167.1,331.2L167.1,334.4L167.3,352.8L166.3,352.8L157.9,353.2L137.2,353.2Z"/>
    <path class="wtc-county" id="wtc-county-dent" data-county="Dent" d="M367.8,184.5L347.1,184.7L346.8,170.2L350.9,170.2L350.9,157.1L358.9,157.0L391.5,156.5L391.8,163.0L384.0,163.2L384.0,169.8L395.8,169.4L396.1,177.6L384.2,177.8L384.5,184.4L367.8,184.5Z"/>
    <path class="wtc-county" id="wtc-county-douglas" data-county="Douglas" d="M264.7,130.6L264.2,111.0L275.2,110.8L324.0,109.9L325.3,109.9L325.8,129.5L313.7,129.8L281.2,130.3L264.7,130.6Z"/>
    <path class="wtc-county" id="wtc-county-dunklin" data-county="Dunklin" d="M454.2,50.0L460.9,50.1L485.4,50.3L485.4,79.5L486.0,91.3L485.4,97.5L471.4,97.6L468.5,94.4L468.2,91.2L466.0,87.7L471.2,87.7L472.5,83.1L471.7,82.1L477.6,79.3L476.3,70.7L473.8,70.3L473.0,67.5L468.2,65.4L466.0,64.2L464.7,60.8L458.5,57.1L454.2,50.0Z"/>
    <path class="wtc-county" id="wtc-county-franklin" data-county="Franklin" d="M379.9,252.8L379.9,216.0L379.9,215.6L400.4,215.6L424.1,215.6L425.1,222.5L427.3,231.4L427.3,235.3L427.6,248.2L424.3,244.9L415.4,240.8L410.1,241.4L406.8,242.5L403.3,245.9L397.4,245.2L390.4,246.9L390.4,248.5L383.7,253.4L379.9,252.8Z"/>
    <path class="wtc-county" id="wtc-county-gasconade" data-county="Gasconade" d="M359.2,221.9L359.2,211.8L360.3,211.8L367.5,211.7L367.3,216.1L379.9,216.0L379.9,252.8L376.2,253.5L371.0,253.8L366.5,251.0L359.5,253.1L359.2,221.9Z"/>
    <path class="wtc-county" id="wtc-county-gentry" data-county="Gentry" d="M137.2,359.7L137.2,353.2L157.9,353.2L166.3,352.8L166.3,360.5L166.5,379.1L137.7,379.3L137.2,359.7Z"/>
    <path class="wtc-county" id="wtc-county-greene" data-county="Greene" d="M210.9,157.4L210.7,146.5L212.3,146.4L212.0,132.7L252.6,132.0L252.9,145.6L251.8,145.6L252.1,156.5L243.8,156.6L210.9,157.4Z"/>
    <path class="wtc-county" id="wtc-county-grundy" data-county="Grundy" d="M200.4,370.0L200.2,360.2L200.4,347.2L230.3,347.8L230.3,352.7L230.0,370.2L200.4,370.0Z"/>
    <path class="wtc-county" id="wtc-county-harrison" data-county="Harrison" d="M165.2,393.1L165.2,385.5L166.5,385.5L166.5,379.1L166.3,360.5L200.2,360.2L200.4,370.0L200.2,385.7L199.4,385.6L199.4,393.6L181.3,393.3L165.2,393.1Z"/>
    <path class="wtc-county" id="wtc-county-henry" data-county="Henry" d="M177.6,233.8L177.0,216.4L178.9,216.4L215.8,215.4L218.2,215.9L219.3,233.8L219.0,238.7L219.3,242.0L177.8,242.8L177.6,233.8Z"/>
    <path class="wtc-county" id="wtc-county-hickory" data-county="Hickory" d="M214.4,187.4L214.4,186.3L243.5,185.5L243.8,193.1L252.1,193.0L252.6,205.0L219.8,205.8L219.3,193.8L215.0,193.9L214.4,187.4Z"/>
    <path class="wtc-county" id="wtc-county-holt" data-county="Holt" d="M65.9,370.0L66.1,369.9L71.3,368.8L71.8,363.9L78.3,359.0L76.1,353.9L84.4,350.3L88.8,346.4L92.2,345.7L92.5,342.9L96.0,343.3L97.4,341.0L104.4,340.1L108.1,342.6L108.4,346.0L106.8,353.7L103.0,355.5L105.2,358.4L104.4,360.0L102.7,361.5L102.2,369.8L94.1,369.8L65.9,370.0Z"/>
    <path class="wtc-county" id="wtc-county-howard" data-county="Howard" d="M268.8,292.2L261.5,283.3L264.5,282.4L262.3,280.1L263.9,276.8L268.5,273.9L273.1,273.2L278.7,274.1L287.9,272.9L290.6,273.0L290.0,275.2L294.1,281.9L300.3,293.9L279.5,299.4L273.4,301.1L268.8,292.2Z"/>
    <path class="wtc-county" id="wtc-county-howell" data-county="Howell" d="M323.4,87.7L357.1,87.8L356.5,97.2L357.1,109.4L358.1,109.4L358.1,117.0L358.4,129.0L325.8,129.5L325.3,109.9L324.0,109.9L323.4,87.7Z"/>
    <path class="wtc-county" id="wtc-county-iron" data-county="Iron" d="M396.1,177.6L395.8,169.4L399.8,169.4L408.4,170.6L424.9,170.5L424.6,153.3L426.2,153.2L425.9,145.6L427.3,145.6L441.3,145.8L441.3,149.1L441.6,170.2L442.4,173.6L434.0,173.5L434.0,180.4L416.8,180.4L400.1,180.8L396.6,180.9L396.1,177.6Z"/>
    <path class="wtc-county" id="wtc-county-jackson" data-county="Jackson" d="M136.9,278.6L136.9,263.8L145.8,263.4L173.5,262.7L174.1,269.1L174.6,286.1L172.4,288.1L168.4,289.0L169.8,291.2L166.5,290.8L163.3,293.0L160.9,293.0L155.0,287.5L153.3,289.8L152.5,287.8L148.0,284.3L146.3,286.2L143.4,286.4L136.9,283.8L136.9,278.6Z"/>
    <path class="wtc-county" id="wtc-county-jasper" data-county="Jasper" d="M136.4,150.7L136.1,129.6L178.1,128.9L178.6,147.1L176.2,147.1L176.5,151.5L136.4,152.6L136.4,150.7Z"/>
    <path class="wtc-county" id="wtc-county-jefferson" data-county="Jefferson" d="M427.3,235.3L427.3,231.4L425.1,222.5L424.1,215.6L431.3,208.0L434.6,206.1L436.7,205.5L436.4,201.5L438.6,200.6L451.2,203.5L457.7,207.3L460.4,206.9L463.6,209.9L460.7,213.1L455.8,216.3L454.5,220.8L454.7,225.8L456.9,229.4L457.2,234.3L451.5,234.5L452.0,237.9L438.1,237.9L436.4,235.6L432.9,236.2L431.6,233.8L430.2,235.6L427.3,235.3Z"/>
    <path class="wtc-county" id="wtc-county-johnson" data-county="Johnson" d="M173.5,262.7L173.0,249.5L173.8,249.5L173.5,243.0L177.8,242.8L219.3,242.0L219.5,252.4L220.6,266.9L220.3,269.9L195.0,270.6L194.8,268.4L174.1,269.1L173.5,262.7Z"/>
    <path class="wtc-county" id="wtc-county-knox" data-county="Knox" d="M306.5,372.9L306.7,353.0L306.7,346.7L311.0,346.7L336.1,346.5L336.3,369.5L336.3,372.8L306.5,372.9Z"/>
    <path class="wtc-county" id="wtc-county-laclede" data-county="Laclede" d="M268.2,192.5L268.0,179.4L269.1,179.4L268.5,161.6L280.9,161.4L313.7,160.8L313.7,170.6L313.7,173.9L301.6,178.9L301.9,189.8L298.7,187.1L294.9,187.4L291.4,185.3L287.6,188.3L286.0,192.2L268.2,192.5Z"/>
    <path class="wtc-county" id="wtc-county-lafayette" data-county="Lafayette" d="M174.6,286.1L174.1,269.1L194.8,268.4L195.0,270.6L220.3,269.9L220.3,271.0L221.7,297.2L220.6,296.5L220.6,292.0L215.5,291.7L213.6,293.3L208.8,293.9L204.2,290.8L200.7,290.8L194.5,291.4L190.2,289.1L187.0,288.8L185.4,286.1L183.5,286.7L185.4,289.0L184.0,290.7L180.5,289.7L180.8,286.8L177.8,285.3L174.6,286.1Z"/>
    <path class="wtc-county" id="wtc-county-lawrence" data-county="Lawrence" d="M178.1,128.9L177.8,120.2L211.7,119.6L211.7,125.0L212.0,132.7L212.3,146.4L210.7,146.5L178.6,147.1L178.1,128.9Z"/>
    <path class="wtc-county" id="wtc-county-lewis" data-county="Lewis" d="M336.3,369.5L336.1,346.5L344.4,346.3L374.8,346.1L370.5,353.0L368.9,363.6L369.7,365.3L370.2,368.9L336.3,369.5Z"/>
    <path class="wtc-county" id="wtc-county-lincoln" data-county="Lincoln" d="M388.0,285.7L387.7,274.7L393.4,274.7L393.4,270.2L399.3,270.1L399.0,265.7L410.6,265.6L411.9,266.8L412.5,266.7L413.0,266.9L421.9,266.1L422.2,268.6L428.1,269.7L431.3,269.0L432.7,270.3L431.9,274.1L428.9,279.5L431.3,281.9L429.2,286.9L428.4,292.0L393.6,292.3L393.6,285.7L388.0,285.7Z"/>
    <path class="wtc-county" id="wtc-county-linn" data-county="Linn" d="M230.3,347.8L230.3,328.0L237.6,328.0L251.3,328.2L268.2,327.7L269.1,353.0L268.2,353.0L230.3,352.7L230.3,347.8Z"/>
    <path class="wtc-county" id="wtc-county-livingston" data-county="Livingston" d="M200.4,347.2L200.7,334.1L200.7,321.1L236.8,321.4L237.8,322.0L236.0,326.4L237.6,328.0L230.3,328.0L230.3,347.8L200.4,347.2Z"/>
    <path class="wtc-county" id="wtc-county-mcdonald" data-county="McDonald" d="M136.1,107.8L136.1,100.4L136.1,87.8L176.7,87.7L177.6,105.7L177.3,106.4L136.1,107.8Z"/>
    <path class="wtc-county" id="wtc-county-macon" data-county="Macon" d="M269.1,353.0L268.2,327.7L280.9,327.6L280.6,321.0L310.0,320.6L311.0,346.7L306.7,346.7L306.7,353.0L269.1,353.0Z"/>
    <path class="wtc-county" id="wtc-county-madison" data-county="Madison" d="M442.4,173.6L441.6,170.2L441.3,149.1L466.0,148.9L471.4,148.7L472.0,165.9L471.4,170.1L471.4,173.4L442.4,173.6Z"/>
    <path class="wtc-county" id="wtc-county-maries" data-county="Maries" d="M317.8,222.2L317.8,212.4L318.8,212.4L318.6,201.6L330.9,201.1L335.0,201.0L340.4,204.1L360.0,204.1L360.3,211.8L359.2,211.8L359.2,221.9L342.8,222.3L330.7,222.0L317.8,222.2Z"/>
    <path class="wtc-county" id="wtc-county-marion" data-county="Marion" d="M344.4,346.3L343.9,324.6L353.8,324.6L353.8,326.8L384.5,326.6L379.7,330.2L380.2,332.2L379.4,335.9L375.3,338.1L374.0,340.5L376.2,344.8L374.8,346.1L344.4,346.3Z"/>
    <path class="wtc-county" id="wtc-county-mercer" data-county="Mercer" d="M199.4,393.6L199.4,385.6L200.2,385.7L200.4,370.0L230.0,370.2L230.0,378.9L229.5,393.7L215.8,393.7L199.4,393.6Z"/>
    <path class="wtc-county" id="wtc-county-miller" data-county="Miller" d="M285.7,232.6L284.9,226.4L280.9,226.4L280.4,216.9L284.4,216.2L284.4,213.1L287.1,213.1L288.4,207.5L293.8,202.0L302.2,201.9L318.6,201.6L318.8,212.4L317.8,212.4L317.8,222.2L318.0,225.4L313.7,224.5L311.3,225.6L301.9,225.9L302.2,232.2L295.4,232.4L285.7,232.6Z"/>
    <path class="wtc-county" id="wtc-county-mississippi" data-county="Mississippi" d="M534.1,126.0L529.3,124.9L529.3,122.7L526.6,122.7L525.2,120.5L522.6,120.5L522.6,118.3L519.9,118.3L518.5,115.6L521.2,112.8L525.2,106.3L529.3,103.1L532.8,97.7L537.9,92.7L541.4,93.9L544.3,99.1L544.9,101.7L542.5,104.0L543.5,106.9L547.8,106.7L548.1,109.2L544.1,110.9L544.3,113.3L547.0,113.9L550.0,121.1L547.6,124.0L544.6,123.1L542.5,126.5L537.9,130.1L534.1,129.4L538.2,126.5L537.4,124.8L534.1,126.0Z"/>
    <path class="wtc-county" id="wtc-county-moniteau" data-county="Moniteau" d="M269.6,251.6L269.3,245.0L285.7,232.6L295.4,232.4L303.0,255.7L301.9,257.6L304.0,260.9L299.2,263.1L295.2,269.4L286.3,252.4L286.3,251.3L269.6,251.6Z"/>
    <path class="wtc-county" id="wtc-county-monroe" data-county="Monroe" d="M310.0,320.6L309.1,301.3L325.8,300.8L353.6,300.7L354.1,320.2L353.8,324.6L343.9,324.6L318.6,325.0L318.6,320.8L310.0,320.6Z"/>
    <path class="wtc-county" id="wtc-county-montgomery" data-county="Montgomery" d="M358.9,253.0L359.5,253.1L366.5,251.0L371.0,253.8L376.2,253.5L376.4,263.6L387.7,263.6L387.7,274.7L388.0,285.7L376.7,285.9L360.3,286.4L360.0,279.7L358.9,253.0Z"/>
    <path class="wtc-county" id="wtc-county-morgan" data-county="Morgan" d="M252.4,240.0L251.8,220.0L253.2,220.7L256.4,218.4L258.3,214.4L260.4,217.4L262.6,216.8L260.4,215.1L275.2,214.5L275.8,216.2L280.4,216.9L280.9,226.4L284.9,226.4L285.7,232.6L269.3,245.0L269.6,251.6L252.9,252.2L252.4,240.0Z"/>
    <path class="wtc-county" id="wtc-county-new-madrid" data-county="New Madrid" d="M485.4,97.5L486.0,91.3L485.4,79.5L501.0,79.3L502.6,82.4L506.7,80.4L511.5,81.2L516.6,77.3L516.6,75.6L519.3,78.3L516.6,82.1L518.5,86.3L516.9,87.7L514.5,91.4L515.6,93.3L521.2,93.2L522.6,90.1L520.9,87.6L520.4,85.6L523.9,85.2L526.0,87.7L529.5,96.9L532.8,97.7L529.3,103.1L525.2,106.3L521.2,112.8L518.5,115.6L505.6,114.8L504.5,114.8L505.1,105.8L504.8,97.4L485.4,97.5Z"/>
    <path class="wtc-county" id="wtc-county-newton" data-county="Newton" d="M136.1,125.2L136.1,107.8L177.3,106.4L177.8,120.2L178.1,128.9L136.1,129.6L136.1,125.2Z"/>
    <path class="wtc-county" id="wtc-county-nodaway" data-county="Nodaway" d="M92.5,393.6L92.5,386.1L94.1,386.1L94.1,369.8L102.2,369.8L102.7,361.5L104.4,360.0L137.2,359.7L137.7,379.3L136.9,379.3L136.9,385.7L135.3,385.7L135.0,393.1L114.0,393.4L92.5,393.6Z"/>
    <path class="wtc-county" id="wtc-county-oregon" data-county="Oregon" d="M358.1,117.0L358.1,109.4L357.1,109.4L356.5,97.2L357.1,87.8L373.7,87.7L377.0,87.6L398.0,87.7L398.8,112.1L390.7,112.3L390.7,116.6L358.1,117.0Z"/>
    <path class="wtc-county" id="wtc-county-osage" data-county="Osage" d="M318.0,225.4L317.8,222.2L330.7,222.0L342.8,222.3L359.2,221.9L359.5,253.1L358.9,253.0L353.0,253.3L350.6,251.7L346.0,251.3L341.7,249.6L336.6,245.1L331.8,243.1L330.7,239.6L331.8,237.8L329.3,235.3L323.7,234.6L319.9,235.0L324.0,230.4L318.0,228.1L318.0,225.4Z"/>
    <path class="wtc-county" id="wtc-county-ozark" data-county="Ozark" d="M274.7,87.7L292.7,87.7L321.3,87.7L323.4,87.7L324.0,109.9L275.2,110.8L274.7,87.7Z"/>
    <path class="wtc-county" id="wtc-county-pemiscot" data-county="Pemiscot" d="M485.4,79.5L485.4,50.3L502.4,50.4L505.6,51.9L506.4,56.7L512.3,59.3L513.1,61.6L510.2,64.2L504.5,68.0L505.3,69.3L513.4,68.3L517.4,69.3L517.2,71.0L511.5,73.5L511.5,75.9L516.6,75.6L516.6,77.3L511.5,81.2L506.7,80.4L502.6,82.4L501.0,79.3L485.4,79.5Z"/>
    <path class="wtc-county" id="wtc-county-perry" data-county="Perry" d="M471.4,173.4L471.4,170.1L492.9,170.2L497.3,170.5L501.3,169.5L502.9,170.3L510.4,169.4L512.3,170.5L513.1,168.4L518.2,167.8L518.2,168.1L521.7,170.0L519.3,172.2L518.8,177.3L513.7,178.8L511.2,181.5L507.5,181.7L506.9,185.5L501.8,188.8L497.8,189.6L497.5,191.4L494.0,193.2L489.7,190.5L487.0,190.9L482.5,186.9L474.1,175.7L471.4,173.4Z"/>
    <path class="wtc-county" id="wtc-county-pettis" data-county="Pettis" d="M219.3,242.0L219.0,238.7L235.7,238.3L235.7,240.5L252.4,240.0L252.9,252.2L253.7,269.9L220.3,271.0L220.3,269.9L220.6,266.9L219.5,252.4L219.3,242.0Z"/>
    <path class="wtc-county" id="wtc-county-phelps" data-county="Phelps" d="M330.9,201.1L330.4,170.5L346.8,170.2L347.1,184.7L367.8,184.5L368.1,211.7L367.5,211.7L360.3,211.8L360.0,204.1L340.4,204.1L335.0,201.0L330.9,201.1Z"/>
    <path class="wtc-county" id="wtc-county-pike" data-county="Pike" d="M394.2,320.1L392.3,320.1L372.9,309.0L374.5,299.2L376.7,285.9L388.0,285.7L393.6,285.7L393.6,292.3L428.4,292.0L423.0,298.5L412.2,305.2L407.1,307.3L402.8,310.8L399.8,315.7L396.3,316.2L394.2,320.1Z"/>
    <path class="wtc-county" id="wtc-county-platte" data-county="Platte" d="M99.8,315.2L103.8,312.6L104.1,310.7L108.4,308.7L110.0,306.7L113.2,304.1L116.7,303.4L114.3,301.8L115.9,296.7L120.8,293.4L120.0,291.6L124.5,290.3L125.3,288.8L129.1,288.1L131.5,289.1L132.9,287.1L137.5,287.2L137.5,309.5L137.5,315.0L99.8,315.2Z"/>
    <path class="wtc-county" id="wtc-county-polk" data-county="Polk" d="M210.4,187.5L210.1,181.0L211.7,180.9L211.5,168.3L210.9,157.4L243.8,156.6L244.6,180.0L243.2,180.0L243.5,185.5L214.4,186.3L214.4,187.4L210.4,187.5Z"/>
    <path class="wtc-county" id="wtc-county-pulaski" data-county="Pulaski" d="M301.9,189.8L301.6,178.9L313.7,173.9L313.7,170.6L330.4,170.5L330.9,201.1L318.6,201.6L302.2,201.9L301.9,189.8Z"/>
    <path class="wtc-county" id="wtc-county-putnam" data-county="Putnam" d="M229.5,393.7L230.0,378.9L268.5,379.2L268.2,376.0L281.2,376.0L281.2,379.8L282.5,380.9L279.3,383.7L281.7,387.7L280.1,389.8L281.2,392.3L279.0,394.5L250.2,394.0L229.5,393.7Z"/>
    <path class="wtc-county" id="wtc-county-ralls" data-county="Ralls" d="M353.6,300.7L353.6,299.6L374.5,299.2L372.9,309.0L392.3,320.1L394.2,320.1L390.7,321.5L384.5,326.6L353.8,326.8L353.8,324.6L354.1,320.2L353.6,300.7Z"/>
    <path class="wtc-county" id="wtc-county-randolph" data-county="Randolph" d="M280.6,321.0L280.4,320.9L279.5,299.4L300.3,293.9L308.9,293.7L309.1,301.3L310.0,320.6L280.6,321.0Z"/>
    <path class="wtc-county" id="wtc-county-ray" data-county="Ray" d="M166.8,309.4L166.5,290.8L169.8,291.2L168.4,289.0L172.4,288.1L174.6,286.1L177.8,285.3L180.8,286.8L180.5,289.7L184.0,290.7L185.4,289.0L183.5,286.7L185.4,286.1L187.0,288.8L190.2,289.1L194.5,291.4L200.7,290.8L200.7,314.6L167.1,314.8L166.8,309.4Z"/>
    <path class="wtc-county" id="wtc-county-reynolds" data-county="Reynolds" d="M395.8,169.4L384.0,169.8L384.0,163.2L391.8,163.0L391.5,156.5L394.5,156.4L394.2,148.7L395.5,148.8L395.5,144.4L398.2,144.4L398.0,140.3L400.9,140.6L402.3,137.5L405.0,138.0L406.3,136.0L406.0,132.5L410.3,132.6L410.1,129.4L424.1,129.1L424.1,135.7L427.3,137.8L427.3,145.6L425.9,145.6L426.2,153.2L424.6,153.3L424.9,170.5L408.4,170.6L399.8,169.4L395.8,169.4Z"/>
    <path class="wtc-county" id="wtc-county-ripley" data-county="Ripley" d="M398.8,112.1L398.0,87.7L423.5,87.7L439.1,87.7L439.4,94.7L438.1,94.8L438.1,101.3L435.4,101.3L435.4,111.1L432.7,111.2L415.2,111.3L398.8,112.1Z"/>
    <path class="wtc-county" id="wtc-county-st-charles" data-county="St. Charles" d="M410.6,265.6L410.1,241.4L415.4,240.8L424.3,244.9L427.6,248.2L432.7,251.9L442.1,251.8L442.6,255.1L445.6,256.7L449.4,262.4L455.3,262.4L457.7,266.7L460.1,266.9L463.3,264.2L468.7,261.6L472.0,262.5L473.6,260.7L473.8,264.0L463.6,269.2L461.7,269.5L459.3,269.6L452.0,272.5L448.5,272.9L446.9,272.2L444.5,268.0L441.6,265.9L438.6,265.4L435.4,267.1L432.7,270.3L431.3,269.0L428.1,269.7L422.2,268.6L421.9,266.1L413.0,266.9L412.5,266.7L411.9,266.8L410.6,265.6Z"/>
    <path class="wtc-county" id="wtc-county-st-clair" data-county="St. Clair" d="M178.1,203.0L177.6,192.9L196.9,192.3L196.7,187.9L210.4,187.5L214.4,187.4L215.0,193.9L219.3,193.8L219.8,205.8L220.3,215.2L218.2,215.9L215.8,215.4L178.9,216.4L178.1,203.0Z"/>
    <path class="wtc-county" id="wtc-county-ste-genevieve" data-county="Ste. Genevieve" d="M451.2,203.5L458.2,198.9L448.0,191.2L467.4,175.5L470.9,177.8L474.1,175.7L482.5,186.9L487.0,190.9L484.3,194.8L487.6,196.3L486.8,198.1L482.5,197.6L477.9,201.5L475.7,201.5L472.8,205.0L466.8,206.9L463.6,209.9L460.4,206.9L457.7,207.3L451.2,203.5Z"/>
    <path class="wtc-county" id="wtc-county-st-francois" data-county="St. Francois" d="M434.0,180.4L434.0,173.5L442.4,173.6L471.4,173.4L474.1,175.7L470.9,177.8L467.4,175.5L448.0,191.2L458.2,198.9L451.2,203.5L438.6,200.6L436.4,201.5L436.7,205.5L434.6,206.1L434.0,180.4Z"/>
    <path class="wtc-county" id="wtc-county-st-louis" data-county="St. Louis" d="M470.1,258.2L463.6,254.2L459.8,249.5L458.5,245.3L460.1,242.5L463.1,240.2L468.7,246.1L468.7,249.8L466.6,254.4L470.1,258.2Z"/>
    <path class="wtc-county" id="wtc-county-saline" data-county="Saline" d="M221.7,297.2L220.3,271.0L253.7,269.9L254.0,273.2L262.3,280.1L264.5,282.4L261.5,283.3L268.8,292.2L265.3,291.9L260.7,296.5L260.4,298.7L254.3,299.1L249.7,304.0L247.0,303.6L245.1,305.6L242.4,305.4L243.2,302.7L240.3,299.8L238.4,300.6L236.8,298.6L232.7,298.5L232.5,294.0L227.9,292.2L226.8,295.3L221.7,297.2Z"/>
    <path class="wtc-county" id="wtc-county-schuyler" data-county="Schuyler" d="M279.0,394.5L281.2,392.3L280.1,389.8L281.7,387.7L279.3,383.7L282.5,380.9L281.2,379.8L281.2,376.0L306.2,376.2L306.2,395.0L284.7,394.5L279.0,394.5Z"/>
    <path class="wtc-county" id="wtc-county-scotland" data-county="Scotland" d="M306.2,395.0L306.2,376.2L306.5,372.9L336.3,372.8L336.9,395.7L319.1,395.3L306.2,395.0Z"/>
    <path class="wtc-county" id="wtc-county-scott" data-county="Scott" d="M499.9,134.8L498.3,131.9L503.4,124.6L503.7,121.8L506.1,119.6L505.6,114.8L518.5,115.6L519.9,118.3L522.6,118.3L522.6,120.5L525.2,120.5L526.6,122.7L529.3,122.7L529.3,124.9L534.1,126.0L529.0,128.3L529.3,131.7L526.3,134.7L522.8,140.3L523.1,143.3L520.7,144.2L511.0,142.8L511.0,141.7L505.9,140.2L503.4,135.9L499.9,134.8Z"/>
    <path class="wtc-county" id="wtc-county-shannon" data-county="Shannon" d="M358.4,129.0L358.1,117.0L390.7,116.6L391.2,131.8L399.6,131.8L406.0,132.5L406.3,136.0L405.0,138.0L402.3,137.5L400.9,140.6L398.0,140.3L398.2,144.4L395.5,144.4L395.5,148.8L394.2,148.7L394.5,156.4L391.5,156.5L358.9,157.0L358.9,144.0L358.4,129.0Z"/>
    <path class="wtc-county" id="wtc-county-shelby" data-county="Shelby" d="M311.0,346.7L310.0,320.6L318.6,320.8L318.6,325.0L343.9,324.6L344.4,346.3L336.1,346.5L311.0,346.7Z"/>
    <path class="wtc-county" id="wtc-county-stoddard" data-county="Stoddard" d="M463.1,119.5L463.1,116.3L466.3,113.5L467.7,110.6L467.1,108.2L472.0,102.6L471.4,97.6L485.4,97.5L504.8,97.4L505.1,105.8L504.5,114.8L505.6,114.8L506.1,119.6L503.7,121.8L503.4,124.6L498.3,131.9L499.9,134.8L492.4,134.8L485.4,134.9L485.4,129.4L482.7,128.3L474.1,128.4L471.4,128.4L471.2,125.9L468.5,124.8L465.8,120.5L463.1,119.5Z"/>
    <path class="wtc-county" id="wtc-county-stone" data-county="Stone" d="M211.7,119.6L211.5,111.9L214.4,111.8L213.6,87.7L233.8,87.7L234.6,111.6L231.9,111.6L232.2,124.8L211.7,125.0L211.7,119.6Z"/>
    <path class="wtc-county" id="wtc-county-sullivan" data-county="Sullivan" d="M230.0,378.9L230.0,370.2L230.3,352.7L268.2,353.0L268.2,376.0L268.5,379.2L230.0,378.9Z"/>
    <path class="wtc-county" id="wtc-county-taney" data-county="Taney" d="M234.6,111.6L233.8,87.7L235.4,87.7L268.5,87.7L274.7,87.7L275.2,110.8L264.2,111.0L234.6,111.6Z"/>
    <path class="wtc-county" id="wtc-county-texas" data-county="Texas" d="M313.7,160.8L313.5,144.4L313.7,129.8L325.8,129.5L358.4,129.0L358.9,144.0L358.9,157.0L350.9,157.1L350.9,170.2L346.8,170.2L330.4,170.5L313.7,170.6L313.7,160.8Z"/>
    <path class="wtc-county" id="wtc-county-vernon" data-county="Vernon" d="M136.7,203.1L136.1,175.8L136.4,174.3L177.0,173.3L177.0,182.0L177.6,192.9L178.1,203.0L174.3,203.1L170.8,204.6L164.6,202.3L164.6,204.1L136.7,204.8L136.7,203.1Z"/>
    <path class="wtc-county" id="wtc-county-warren" data-county="Warren" d="M387.7,274.7L387.7,263.6L376.4,263.6L376.2,253.5L379.9,252.8L383.7,253.4L390.4,248.5L390.4,246.9L397.4,245.2L403.3,245.9L406.8,242.5L410.1,241.4L410.6,265.6L399.0,265.7L399.3,270.1L393.4,270.2L393.4,274.7L387.7,274.7Z"/>
    <path class="wtc-county" id="wtc-county-washington" data-county="Washington" d="M400.4,215.6L400.4,190.6L400.1,180.8L416.8,180.4L434.0,180.4L434.6,206.1L431.3,208.0L424.1,215.6L400.4,215.6Z"/>
    <path class="wtc-county" id="wtc-county-wayne" data-county="Wayne" d="M427.3,145.6L427.3,137.8L424.1,135.7L424.1,129.1L427.8,129.0L427.6,125.4L430.2,123.1L431.6,119.8L456.1,119.8L463.1,119.5L465.8,120.5L468.5,124.8L471.2,125.9L471.4,128.4L474.1,128.4L474.1,131.7L465.8,131.8L466.0,148.9L441.3,149.1L441.3,145.8L427.3,145.6Z"/>
    <path class="wtc-county" id="wtc-county-webster" data-county="Webster" d="M252.1,156.5L251.8,145.6L252.9,145.6L252.6,132.0L264.7,131.7L264.7,130.6L281.2,130.3L281.7,145.1L280.6,145.1L280.9,161.4L268.5,161.6L252.1,161.9L252.1,156.5Z"/>
    <path class="wtc-county" id="wtc-county-worth" data-county="Worth" d="M135.0,393.1L135.3,385.7L136.9,385.7L136.9,379.3L137.7,379.3L166.5,379.1L166.5,385.5L165.2,385.5L165.2,393.1L147.1,393.0L135.0,393.1Z"/>
    <path class="wtc-county" id="wtc-county-wright" data-county="Wright" d="M280.9,161.4L280.6,145.1L281.7,145.1L281.2,130.3L313.7,129.8L313.5,144.4L313.7,160.8L280.9,161.4Z"/>
    <path class="wtc-county" id="wtc-county-st-louis" data-county="St. Louis" d="M470.1,258.2L463.6,254.2L459.8,249.5L458.5,245.3L460.1,242.5L463.1,240.2L468.7,246.1L468.7,249.8L466.6,254.4L470.1,258.2Z"/>
  </g>
</svg>