<?xml version="1.0" encoding="UTF-8"?>
<svg xmlns="http://www.w3.org/2000/svg" viewBox="0 0 600 278" id="wtc-state-map-KY" role="img" aria-label="ky county map">
  <title>ky Counties</title>
  <g class="wtc-counties">
    <path class="wtc-county" id="wtc-county-adair" data-county="Adair" d="M311.1,186.7L312.8,193.5L316.9,197.1L316.1,198.2L330.8,199.1L332.8,194.2L335.4,191.8L343.6,181.5L342.6,176.8L335.4,173.2L333.5,175.8L325.5,177.5L325.8,178.8L322.9,181.1L321.0,182.8L311.1,186.7Z"/>
    <path class="wtc-county" id="wtc-county-allen" data-county="Allen" d="M252.1,209.0L251.8,217.5L265.6,218.2L281.0,219.0L282.9,216.7L281.0,212.6L279.3,210.2L274.7,207.1L275.7,205.5L274.2,203.8L274.2,201.2L267.5,199.8L268.2,198.4L265.6,200.2L261.5,201.3L261.7,202.5L252.1,209.0Z"/>
    <path class="wtc-county" id="wtc-county-anderson" data-county="Anderson" d="M339.7,124.4L337.8,127.2L335.2,127.1L335.2,128.8L336.1,133.8L338.1,132.5L339.3,134.0L344.6,134.2L347.4,133.2L348.2,131.3L350.6,130.1L354.2,130.9L360.2,128.9L356.6,123.7L358.0,121.3L355.6,119.1L353.0,120.7L344.8,118.3L343.4,122.1L339.7,124.4Z"/>
    <path class="wtc-county" id="wtc-county-ballard" data-county="Ballard" d="M66.6,189.4L65.9,192.2L69.3,195.2L71.4,197.8L72.6,199.7L77.2,198.7L78.9,199.4L83.7,197.9L90.5,197.1L82.5,178.7L79.1,178.7L76.0,179.9L72.9,182.3L70.7,186.0L66.6,189.4Z"/>
    <path class="wtc-county" id="wtc-county-barren" data-county="Barren" d="M268.2,198.4L267.5,199.8L274.2,201.2L274.2,203.8L275.7,205.5L274.7,207.1L279.3,210.2L281.0,212.6L292.3,206.0L296.9,204.7L295.7,186.7L294.5,184.8L296.6,182.6L285.8,184.1L275.7,182.8L274.5,190.5L271.8,189.9L268.2,198.4Z"/>
    <path class="wtc-county" id="wtc-county-bath" data-county="Bath" d="M415.1,114.0L415.4,116.3L421.6,117.8L425.7,121.5L426.9,124.1L429.8,127.0L436.6,125.1L439.7,126.4L442.3,125.3L442.1,123.0L447.2,123.6L449.6,121.6L444.7,120.6L445.5,118.9L439.0,116.9L440.9,115.6L438.0,114.3L434.2,112.9L434.4,111.2L430.8,107.8L426.9,108.2L423.8,107.0L415.1,114.0Z"/>
    <path class="wtc-county" id="wtc-county-bell" data-county="Bell" d="M421.9,215.0L416.6,217.8L418.3,221.7L434.4,222.0L435.4,220.8L437.3,219.2L445.2,216.4L449.8,216.5L449.8,214.3L447.2,211.9L448.1,208.6L446.4,207.0L448.4,204.1L447.9,201.0L446.4,198.1L441.1,197.0L442.8,198.6L441.6,200.5L434.9,203.8L431.0,207.4L427.9,207.4L426.4,210.9L421.9,215.0Z"/>
    <path class="wtc-county" id="wtc-county-boone" data-county="Boone" d="M358.5,52.8L353.9,55.4L354.7,57.8L357.8,62.4L355.2,64.6L355.2,66.5L360.0,67.1L360.2,69.4L369.4,74.8L372.3,73.1L373.5,67.9L371.8,54.8L368.2,53.2L364.5,50.1L362.9,50.0L358.5,52.8Z"/>
    <path class="wtc-county" id="wtc-county-bourbon" data-county="Bourbon" d="M383.8,107.9L386.7,113.0L388.6,112.9L389.8,115.0L388.2,119.3L394.4,122.4L408.1,119.2L415.1,114.0L414.4,112.3L411.8,112.5L409.3,111.2L409.8,109.7L407.2,109.5L402.4,103.1L400.7,102.0L394.9,105.8L388.2,108.3L383.8,107.9Z"/>
    <path class="wtc-county" id="wtc-county-boyd" data-county="Boyd" d="M503.0,93.0L496.3,97.8L492.9,101.8L496.1,102.6L495.3,103.7L494.6,110.6L498.5,111.0L500.9,109.4L506.6,109.1L507.1,110.4L509.3,109.2L509.5,105.9L507.6,103.8L507.9,98.6L506.4,94.9L503.0,93.0Z"/>
    <path class="wtc-county" id="wtc-county-boyle" data-county="Boyle" d="M344.6,151.7L343.8,157.4L346.2,158.2L353.2,158.3L356.8,157.2L363.3,154.7L369.4,152.5L369.4,151.5L366.7,149.1L366.2,147.2L363.6,146.2L344.8,148.5L344.6,151.7Z"/>
    <path class="wtc-county" id="wtc-county-bracken" data-county="Bracken" d="M398.0,71.4L397.8,71.7L399.7,87.9L399.2,89.7L402.8,89.7L405.5,89.1L407.9,86.8L411.3,87.8L414.2,87.1L419.9,75.4L415.1,74.1L410.1,75.2L399.2,72.9L398.0,71.4Z"/>
    <path class="wtc-county" id="wtc-county-breathitt" data-county="Breathitt" d="M441.9,160.0L444.7,166.0L443.8,167.6L444.0,171.6L450.5,168.6L453.7,171.3L455.1,171.3L458.5,168.6L462.6,167.2L466.2,164.3L467.4,166.2L472.4,166.8L471.7,163.3L476.5,158.7L478.7,160.0L484.2,160.3L479.4,157.2L479.9,154.9L478.0,154.8L474.6,151.6L471.7,153.3L469.1,150.9L464.0,149.1L458.5,148.7L454.4,147.1L452.7,147.7L449.8,151.7L447.4,152.4L445.7,151.2L441.9,160.0Z"/>
    <path class="wtc-county" id="wtc-county-breckinridge" data-county="Breckinridge" d="M235.5,137.5L234.0,140.8L237.6,150.1L236.4,149.6L236.4,152.5L239.5,156.2L240.8,153.8L243.4,154.5L245.1,152.2L251.8,156.0L256.2,156.3L255.7,154.6L261.0,154.2L269.2,140.4L263.2,135.2L250.6,126.9L246.5,123.8L244.1,125.1L244.1,129.5L245.3,131.7L239.8,132.2L239.3,135.8L235.5,137.5Z"/>
    <path class="wtc-county" id="wtc-county-bullitt" data-county="Bullitt" d="M283.6,127.0L285.5,127.5L285.8,130.8L289.2,130.6L291.8,134.3L291.6,136.4L296.9,139.6L300.7,139.3L307.7,134.6L307.2,132.9L309.6,131.7L310.6,129.3L313.7,127.5L311.8,126.1L314.9,120.4L317.8,119.0L308.4,121.9L298.8,121.1L287.2,124.2L283.6,127.0Z"/>
    <path class="wtc-county" id="wtc-county-butler" data-county="Butler" d="M219.1,179.8L219.3,182.1L217.6,181.9L217.4,184.4L219.3,188.1L216.2,189.4L222.7,190.2L234.2,194.1L238.1,184.2L237.6,181.9L246.1,181.3L248.0,183.8L252.6,182.6L248.0,172.5L246.8,169.7L238.3,167.5L228.5,173.6L227.3,172.1L224.6,172.0L225.1,174.5L220.0,178.3L219.1,179.8Z"/>
    <path class="wtc-county" id="wtc-county-caldwell" data-county="Caldwell" d="M158.6,168.6L141.8,178.1L139.1,179.1L138.9,181.9L142.2,182.3L146.8,189.5L153.3,196.7L154.8,197.3L161.0,195.7L163.2,193.9L164.6,192.6L166.6,184.0L162.0,180.0L158.4,177.9L158.1,174.3L155.3,172.4L157.7,170.5L158.6,168.6Z"/>
    <path class="wtc-county" id="wtc-county-calloway" data-county="Calloway" d="M112.6,210.8L112.4,227.5L141.5,227.8L143.0,224.1L140.6,215.6L137.7,211.0L112.6,210.8Z"/>
    <path class="wtc-county" id="wtc-county-campbell" data-county="Campbell" d="M392.2,58.4L384.8,56.1L383.8,52.1L381.9,51.7L379.7,53.5L380.7,58.4L383.3,60.3L382.6,63.5L384.1,66.0L382.4,69.8L385.5,72.8L387.7,72.4L398.0,68.2L397.5,66.5L394.2,62.8L392.2,58.4Z"/>
    <path class="wtc-county" id="wtc-county-carlisle" data-county="Carlisle" d="M71.4,197.8L68.8,204.3L66.4,204.8L66.1,207.0L69.7,208.5L71.2,207.7L73.6,209.3L90.7,209.3L90.7,197.6L90.5,197.1L83.7,197.9L78.9,199.4L77.2,198.7L72.6,199.7L71.4,197.8Z"/>
    <path class="wtc-county" id="wtc-county-carroll" data-county="Carroll" d="M333.0,80.6L329.1,77.4L324.1,77.6L331.1,84.9L332.3,88.0L335.2,87.6L341.4,86.9L348.2,84.2L350.8,82.5L348.9,81.3L344.8,75.8L334.9,80.8L333.0,80.6Z"/>
    <path class="wtc-county" id="wtc-county-carter" data-county="Carter" d="M457.8,105.5L459.9,110.0L460.4,112.8L464.3,114.0L465.9,111.0L470.0,109.2L475.1,112.0L477.3,114.9L479.9,113.1L482.3,115.4L485.7,115.2L488.6,113.8L490.5,114.2L494.6,110.6L495.3,103.7L496.1,102.6L492.9,101.8L486.7,100.2L482.6,100.5L477.3,95.7L469.6,93.1L464.7,98.3L465.2,104.2L457.8,105.5Z"/>
    <path class="wtc-county" id="wtc-county-casey" data-county="Casey" d="M341.4,166.3L337.8,168.2L335.4,173.2L342.6,176.8L343.6,181.5L349.6,187.2L353.2,186.2L365.3,178.0L365.0,174.8L366.2,173.9L365.0,169.8L360.2,167.8L356.6,165.3L355.9,162.7L356.8,157.2L353.2,158.3L346.2,158.2L343.8,157.4L343.6,166.4L341.4,166.3Z"/>
    <path class="wtc-county" id="wtc-county-christian" data-county="Christian" d="M166.6,184.0L164.6,192.6L163.2,193.9L168.0,196.3L167.3,202.2L167.1,210.4L165.6,218.4L169.2,218.3L189.7,218.1L195.0,189.2L193.3,186.8L189.9,185.2L189.9,183.5L187.3,185.2L179.6,185.6L177.4,187.0L166.6,184.0Z"/>
    <path class="wtc-county" id="wtc-county-clark" data-county="Clark" d="M394.4,122.4L394.7,125.6L392.0,126.8L392.0,129.3L390.1,133.8L391.0,134.2L395.4,132.5L395.9,135.2L401.2,135.0L408.1,136.8L409.8,138.0L413.4,137.9L414.2,132.4L415.8,131.6L408.1,119.2L394.4,122.4Z"/>
    <path class="wtc-county" id="wtc-county-clay" data-county="Clay" d="M417.3,177.2L417.5,180.2L415.6,182.7L418.5,186.4L421.4,186.0L422.8,187.9L422.4,190.4L426.0,192.2L428.6,191.5L431.3,193.6L437.8,196.8L441.1,197.0L446.4,198.1L446.4,193.8L443.5,188.7L443.8,182.8L446.9,180.3L446.7,178.2L445.2,176.7L440.7,174.4L436.8,170.0L435.1,171.4L428.1,170.6L421.9,174.3L420.2,177.0L417.3,177.2Z"/>
    <path class="wtc-county" id="wtc-county-clinton" data-county="Clinton" d="M326.7,219.1L327.9,219.1L348.2,219.8L346.5,219.2L346.5,215.7L345.0,213.0L346.2,210.4L344.8,207.0L342.1,203.5L338.5,205.6L330.8,201.7L332.0,203.8L329.9,211.2L326.7,219.1Z"/>
    <path class="wtc-county" id="wtc-county-crittenden" data-county="Crittenden" d="M121.1,166.8L123.9,167.3L125.4,171.5L130.4,175.7L131.9,179.3L130.4,181.8L132.1,184.1L132.9,185.6L137.2,183.6L138.9,181.9L139.1,179.1L141.8,178.1L158.6,168.6L155.7,168.9L155.5,165.8L151.6,167.3L149.2,165.5L149.7,161.8L145.4,160.0L144.2,157.3L141.0,160.1L139.6,162.3L128.0,163.4L125.1,164.0L121.1,166.8Z"/>
    <path class="wtc-county" id="wtc-county-cumberland" data-county="Cumberland" d="M316.1,198.2L314.7,201.1L312.5,202.9L308.9,204.0L306.0,202.6L307.9,204.9L306.5,206.2L307.0,209.0L310.1,209.2L311.8,212.0L314.9,211.9L313.2,214.8L317.1,219.6L326.7,219.1L329.9,211.2L332.0,203.8L330.6,203.9L327.9,200.9L330.8,199.1L316.1,198.2Z"/>
    <path class="wtc-county" id="wtc-county-daviess" data-county="Daviess" d="M192.1,133.8L190.7,139.1L194.0,141.5L190.7,144.2L185.8,145.4L184.9,148.2L194.7,152.3L205.8,156.0L209.7,156.4L215.7,151.7L217.1,152.2L224.6,148.8L221.2,146.4L224.1,144.5L224.6,140.9L222.0,137.6L218.1,137.9L219.3,134.9L216.9,133.0L213.1,133.8L213.8,131.6L209.2,134.0L208.0,139.6L206.3,141.2L203.7,141.4L201.7,137.8L197.4,137.0L194.3,135.1L192.1,133.8Z"/>
    <path class="wtc-county" id="wtc-county-edmonson" data-county="Edmonson" d="M248.0,172.5L252.6,182.6L260.5,188.6L264.8,187.0L266.5,188.9L271.8,189.9L274.5,190.5L275.7,182.8L276.2,179.6L268.9,171.5L248.0,172.5Z"/>
    <path class="wtc-county" id="wtc-county-elliott" data-county="Elliott" d="M463.1,119.2L462.6,122.3L465.7,124.0L467.6,126.2L471.5,126.7L479.2,126.4L481.8,123.6L488.1,119.3L485.7,115.2L482.3,115.4L479.9,113.1L477.3,114.9L475.1,112.0L470.0,109.2L465.9,111.0L464.3,114.0L466.9,115.1L465.7,118.1L463.1,119.2Z"/>
    <path class="wtc-county" id="wtc-county-estill" data-county="Estill" d="M408.1,136.8L405.5,139.5L408.6,140.3L407.2,144.7L407.7,149.2L405.0,150.9L407.4,156.0L410.5,156.2L415.8,155.0L419.9,157.6L424.8,151.3L425.5,149.4L430.5,146.0L432.2,146.0L428.6,143.3L425.7,144.0L425.0,142.7L419.9,143.1L416.1,140.3L416.1,137.3L413.4,137.9L409.8,138.0L408.1,136.8Z"/>
    <path class="wtc-county" id="wtc-county-fayette" data-county="Fayette" d="M371.5,119.1L369.4,126.7L373.9,127.8L381.4,130.9L383.3,133.0L384.3,137.2L386.0,135.5L387.7,137.3L389.1,136.4L388.2,133.5L391.0,134.2L390.1,133.8L392.0,129.3L392.0,126.8L394.7,125.6L394.4,122.4L388.2,119.3L389.8,115.0L388.6,112.9L386.7,113.0L372.0,118.3L371.5,119.1Z"/>
    <path class="wtc-county" id="wtc-county-fleming" data-county="Fleming" d="M418.3,93.9L414.9,97.4L417.1,98.5L419.2,102.7L422.1,102.6L424.8,105.8L423.8,107.0L426.9,108.2L430.8,107.8L434.4,111.2L434.2,112.9L438.0,114.3L446.7,108.9L447.9,105.2L447.2,103.4L450.3,101.3L449.3,100.2L441.6,98.0L440.4,93.2L437.5,91.7L423.1,96.3L418.3,93.9Z"/>
    <path class="wtc-county" id="wtc-county-floyd" data-county="Floyd" d="M484.7,146.0L484.2,148.5L487.1,151.1L488.1,156.1L487.6,159.9L485.7,161.4L492.0,162.7L491.7,166.2L495.3,165.2L497.0,166.3L496.5,170.4L497.3,173.4L500.1,174.9L502.8,173.4L504.0,170.4L503.0,169.2L506.2,168.1L508.3,164.1L507.6,160.3L505.9,160.2L507.6,150.9L506.6,149.0L510.0,148.1L504.7,145.7L496.5,143.3L489.3,145.1L487.4,146.8L484.7,146.0Z"/>
    <path class="wtc-county" id="wtc-county-franklin" data-county="Franklin" d="M346.7,104.4L349.4,104.6L346.5,108.5L346.2,116.1L344.8,118.3L353.0,120.7L355.6,119.1L355.6,117.4L365.0,113.8L363.8,103.3L360.5,104.2L355.2,103.0L352.7,101.8L346.7,104.4Z"/>
    <path class="wtc-county" id="wtc-county-fulton" data-county="Fulton" d="M56.0,218.7L53.1,219.5L50.0,227.7L54.8,227.4L57.9,227.1L78.2,227.4L89.3,227.4L84.4,222.4L82.0,221.4L76.3,221.4L68.3,217.6L66.4,217.5L63.7,222.2L60.6,223.2L56.0,218.7ZM45.4,227.8L46.9,225.6L45.7,222.8L40.6,222.6L39.6,224.4L41.8,227.7L45.4,227.8Z"/>
    <path class="wtc-county" id="wtc-county-gallatin" data-county="Gallatin" d="M360.2,69.4L357.8,71.2L359.2,73.7L353.9,73.6L344.8,75.8L348.9,81.3L350.8,82.5L355.2,80.1L360.9,78.6L361.2,75.6L369.4,74.8L360.2,69.4Z"/>
    <path class="wtc-county" id="wtc-county-garrard" data-county="Garrard" d="M365.5,139.3L367.0,142.8L366.2,144.9L363.6,146.2L366.2,147.2L366.7,149.1L369.4,151.5L372.0,154.2L381.9,160.9L383.6,161.4L388.4,162.3L390.3,157.9L388.6,154.3L384.8,150.9L378.3,142.4L375.4,145.1L370.3,141.1L372.3,140.1L368.2,138.6L365.5,139.3Z"/>
    <path class="wtc-county" id="wtc-county-grant" data-county="Grant" d="M369.4,74.8L361.2,75.6L360.9,78.6L361.7,85.4L367.9,89.4L371.5,94.4L374.7,95.2L376.1,93.9L380.9,92.8L381.6,90.5L377.8,73.8L372.3,73.1L369.4,74.8Z"/>
    <path class="wtc-county" id="wtc-county-graves" data-county="Graves" d="M90.7,209.3L90.5,227.4L110.5,227.5L112.4,227.5L112.6,210.8L112.6,197.9L98.2,197.9L90.7,197.6L90.7,209.3Z"/>
    <path class="wtc-county" id="wtc-county-grayson" data-county="Grayson" d="M239.5,156.2L234.7,157.4L238.3,167.5L246.8,169.7L248.0,172.5L268.9,171.5L274.0,170.4L274.5,168.5L278.1,167.5L276.2,163.8L275.7,160.7L271.8,156.0L267.5,156.8L263.9,155.4L262.9,153.6L261.0,154.2L255.7,154.6L256.2,156.3L251.8,156.0L245.1,152.2L243.4,154.5L240.8,153.8L239.5,156.2Z"/>
    <path class="wtc-county" id="wtc-county-green" data-county="Green" d="M302.4,165.7L302.9,167.4L300.5,169.8L299.8,173.8L301.4,176.1L300.5,181.8L304.1,185.6L311.1,186.7L321.0,182.8L322.9,181.1L320.2,178.1L317.6,173.5L314.5,169.6L307.2,165.1L307.2,162.5L303.9,162.3L302.4,165.7Z"/>
    <path class="wtc-county" id="wtc-county-greenup" data-county="Greenup" d="M477.7,79.6L479.2,81.1L475.8,84.5L475.8,87.0L472.4,91.0L469.6,93.1L477.3,95.7L482.6,100.5L486.7,100.2L492.9,101.8L496.3,97.8L503.0,93.0L499.2,89.5L493.2,88.6L491.0,87.0L488.8,80.6L489.5,78.1L487.9,76.2L482.8,78.0L479.2,78.0L477.7,79.6Z"/>
    <path class="wtc-county" id="wtc-county-hancock" data-county="Hancock" d="M213.8,131.6L213.1,133.8L216.9,133.0L219.3,134.9L218.1,137.9L222.0,137.6L224.6,140.9L224.1,144.5L236.4,149.6L237.6,150.1L234.0,140.8L235.5,137.5L236.2,133.2L233.8,132.6L231.4,134.0L228.9,132.8L226.1,127.6L224.6,127.0L222.0,127.8L218.6,130.8L213.8,131.6Z"/>
    <path class="wtc-county" id="wtc-county-hardin" data-county="Hardin" d="M261.0,154.2L262.9,153.6L263.9,155.4L267.5,156.8L271.8,156.0L275.7,160.7L276.2,163.8L286.5,164.5L287.7,157.5L291.3,155.5L292.8,152.2L297.1,150.1L300.7,144.9L297.6,142.1L296.9,139.6L291.6,136.4L291.8,134.3L289.2,130.6L285.8,130.8L285.5,127.5L283.6,127.0L283.1,126.4L279.5,127.0L281.0,135.3L278.8,139.1L269.2,140.4L261.0,154.2Z"/>
    <path class="wtc-county" id="wtc-county-harlan" data-county="Harlan" d="M447.9,201.0L448.4,204.1L446.4,207.0L448.1,208.6L447.2,211.9L449.8,214.3L449.8,216.5L451.7,216.4L459.7,213.5L467.6,211.5L471.5,211.3L472.0,208.4L475.8,203.8L482.8,203.6L488.8,201.2L490.3,198.9L489.5,195.8L484.7,193.0L478.2,195.1L470.5,196.9L472.4,193.9L468.6,192.6L465.2,193.8L463.3,196.1L459.0,198.0L453.9,199.4L453.2,201.4L447.9,201.0Z"/>
    <path class="wtc-county" id="wtc-county-harrison" data-county="Harrison" d="M376.1,93.9L378.3,97.8L382.9,101.9L384.5,106.8L383.8,107.9L388.2,108.3L394.9,105.8L400.7,102.0L406.7,96.1L404.8,94.5L401.2,93.5L402.8,89.7L399.2,89.7L399.7,87.9L386.7,89.3L383.6,91.4L381.6,90.5L380.9,92.8L376.1,93.9Z"/>
    <path class="wtc-county" id="wtc-county-hart" data-county="Hart" d="M276.2,163.8L278.1,167.5L274.5,168.5L274.0,170.4L268.9,171.5L276.2,179.6L275.7,182.8L285.8,184.1L296.6,182.6L300.5,181.8L301.4,176.1L299.8,173.8L300.5,169.8L302.9,167.4L302.4,165.7L286.5,164.5L276.2,163.8Z"/>
    <path class="wtc-county" id="wtc-county-henderson" data-county="Henderson" d="M165.4,133.8L156.5,135.2L153.8,132.2L150.2,133.5L157.7,142.9L161.5,145.1L161.8,149.1L163.0,151.2L179.1,150.6L184.9,148.2L185.8,145.4L190.7,144.2L194.0,141.5L190.7,139.1L192.1,133.8L186.8,131.2L182.0,130.9L178.6,133.0L175.2,131.9L173.8,129.1L171.9,128.7L170.2,132.5L172.8,136.2L169.7,138.5L167.1,138.4L167.8,134.0L165.4,133.8Z"/>
    <path class="wtc-county" id="wtc-county-henry" data-county="Henry" d="M325.5,93.9L323.4,96.1L324.6,99.8L327.5,102.9L346.7,104.4L352.7,101.8L355.2,103.0L353.5,101.8L354.4,99.0L348.9,97.6L349.4,95.1L347.2,94.2L347.9,92.5L344.6,92.7L346.2,89.9L341.4,86.9L335.2,87.6L327.7,93.6L325.5,93.9Z"/>
    <path class="wtc-county" id="wtc-county-hickman" data-county="Hickman" d="M69.7,208.5L69.5,210.7L65.7,210.5L64.7,213.1L66.9,215.2L66.4,217.5L68.3,217.6L76.3,221.4L82.0,221.4L84.4,222.4L89.3,227.4L89.7,227.4L90.5,227.4L90.7,209.3L73.6,209.3L71.2,207.7L69.7,208.5Z"/>
    <path class="wtc-county" id="wtc-county-hopkins" data-county="Hopkins" d="M157.7,170.5L155.3,172.4L158.1,174.3L158.4,177.9L162.0,180.0L166.6,184.0L177.4,187.0L179.6,185.6L187.3,185.2L189.9,183.5L191.6,181.1L186.3,176.5L186.8,173.1L189.0,173.2L192.3,167.7L188.7,165.5L188.0,161.3L188.7,159.2L187.0,155.8L178.9,161.3L172.4,163.0L157.7,170.5Z"/>
    <path class="wtc-county" id="wtc-county-jackson" data-county="Jackson" d="M400.2,158.9L400.0,161.4L402.8,166.0L402.1,168.2L405.0,170.0L404.3,172.6L410.3,176.1L417.3,177.2L420.2,177.0L421.9,174.3L428.1,170.6L425.7,168.4L423.6,164.0L421.4,162.0L421.4,159.3L419.9,157.6L415.8,155.0L410.5,156.2L407.4,156.0L402.1,156.6L400.2,158.9Z"/>
    <path class="wtc-county" id="wtc-county-jefferson" data-county="Jefferson" d="M286.0,114.8L285.8,121.1L284.6,125.2L283.1,126.4L283.6,127.0L287.2,124.2L298.8,121.1L308.4,121.9L317.8,119.0L318.1,117.0L319.3,109.2L315.2,107.8L303.6,101.4L301.2,106.7L296.6,109.0L293.5,107.6L290.8,108.3L289.4,112.0L286.0,114.8Z"/>
    <path class="wtc-county" id="wtc-county-jessamine" data-county="Jessamine" d="M366.0,136.2L365.5,139.3L368.2,138.6L372.3,140.1L370.3,141.1L375.4,145.1L378.3,142.4L382.6,140.1L380.9,137.6L384.3,137.2L383.3,133.0L381.4,130.9L373.9,127.8L369.4,126.7L366.0,136.2Z"/>
    <path class="wtc-county" id="wtc-county-johnson" data-county="Johnson" d="M481.4,129.3L483.3,132.8L480.4,136.4L481.4,139.1L484.0,140.7L484.7,146.0L487.4,146.8L489.3,145.1L496.5,143.3L504.7,145.7L504.0,141.8L502.6,141.2L504.5,138.8L502.8,136.9L506.6,135.0L502.3,134.2L492.0,129.1L484.0,126.9L481.4,129.3Z"/>
    <path class="wtc-county" id="wtc-county-kenton" data-county="Kenton" d="M371.8,54.8L373.5,67.9L372.3,73.1L377.8,73.8L385.5,72.8L382.4,69.8L384.1,66.0L382.6,63.5L383.3,60.3L380.7,58.4L379.7,53.5L376.6,53.2L371.8,54.8Z"/>
    <path class="wtc-county" id="wtc-county-knott" data-county="Knott" d="M484.2,160.3L478.7,160.0L476.5,158.7L471.7,163.3L472.4,166.8L473.2,171.7L472.2,176.0L472.9,177.9L476.3,177.6L477.0,179.5L480.6,180.9L482.1,182.5L487.9,179.5L489.1,177.8L492.9,176.0L498.7,175.8L500.1,174.9L497.3,173.4L496.5,170.4L497.0,166.3L495.3,165.2L491.7,166.2L492.0,162.7L485.7,161.4L484.2,160.3Z"/>
    <path class="wtc-county" id="wtc-county-knox" data-county="Knox" d="M407.4,197.0L409.1,203.8L411.8,206.2L414.6,207.4L414.4,210.2L416.3,212.3L421.9,215.0L426.4,210.9L427.9,207.4L431.0,207.4L434.9,203.8L441.6,200.5L442.8,198.6L441.1,197.0L437.8,196.8L431.3,193.6L428.6,191.5L426.0,192.2L422.4,190.4L418.7,191.6L418.3,194.3L416.3,195.6L411.5,194.8L407.4,197.0Z"/>
    <path class="wtc-county" id="wtc-county-larue" data-county="Larue" d="M300.7,144.9L297.1,150.1L292.8,152.2L291.3,155.5L287.7,157.5L286.5,164.5L302.4,165.7L303.9,162.3L307.2,162.5L311.1,163.6L313.0,161.6L315.2,162.8L312.8,157.2L311.6,156.8L309.4,156.9L308.7,158.9L304.6,157.0L307.9,151.2L306.3,151.1L306.7,147.5L303.6,147.3L300.7,144.9Z"/>
    <path class="wtc-county" id="wtc-county-laurel" data-county="Laurel" d="M389.6,196.8L390.3,198.1L393.7,197.7L395.9,196.5L397.8,198.0L398.7,196.7L401.4,198.1L405.3,196.0L407.4,197.0L411.5,194.8L416.3,195.6L418.3,194.3L418.7,191.6L422.4,190.4L422.8,187.9L421.4,186.0L418.5,186.4L415.6,182.7L417.5,180.2L417.3,177.2L410.3,176.1L404.3,172.6L403.6,173.7L399.0,175.2L399.0,177.7L396.6,178.0L393.4,182.6L394.2,183.9L394.9,187.2L391.8,189.8L392.2,194.1L390.1,194.7L389.6,196.8Z"/>
    <path class="wtc-county" id="wtc-county-lawrence" data-county="Lawrence" d="M479.2,126.4L481.4,129.3L484.0,126.9L492.0,129.1L502.3,134.2L506.6,135.0L508.8,130.0L511.9,129.4L514.4,130.6L516.8,128.2L513.2,127.0L511.0,122.3L508.6,119.7L505.0,117.6L505.0,115.4L506.9,115.4L507.1,110.4L506.6,109.1L500.9,109.4L498.5,111.0L494.6,110.6L490.5,114.2L488.6,113.8L485.7,115.2L488.1,119.3L481.8,123.6L479.2,126.4Z"/>
    <path class="wtc-county" id="wtc-county-lee" data-county="Lee" d="M419.9,157.6L421.4,159.3L425.0,161.4L430.8,160.9L431.5,159.1L435.1,159.7L438.0,157.8L439.0,159.8L441.9,160.0L445.7,151.2L439.2,149.3L433.2,146.0L432.2,146.0L430.5,146.0L425.5,149.4L424.8,151.3L419.9,157.6Z"/>
    <path class="wtc-county" id="wtc-county-leslie" data-county="Leslie" d="M446.7,178.2L446.9,180.3L443.8,182.8L443.5,188.7L446.4,193.8L446.4,198.1L447.9,201.0L453.2,201.4L453.9,199.4L459.0,198.0L463.3,196.1L465.2,193.8L468.6,192.6L469.6,187.1L465.5,184.8L467.1,182.3L463.5,180.3L459.0,178.9L457.0,174.2L453.9,172.5L449.8,174.3L446.7,178.2Z"/>
    <path class="wtc-county" id="wtc-county-letcher" data-county="Letcher" d="M472.4,193.9L470.5,196.9L478.2,195.1L484.7,193.0L489.5,195.8L492.4,193.6L495.3,193.5L499.2,191.2L499.2,186.3L505.2,183.7L509.8,180.9L505.7,177.4L502.8,178.8L498.7,175.8L492.9,176.0L489.1,177.8L487.9,179.5L482.1,182.5L480.6,180.9L476.8,185.7L477.7,189.8L475.8,191.2L477.0,192.8L472.4,193.9Z"/>
    <path class="wtc-county" id="wtc-county-lewis" data-county="Lewis" d="M462.8,85.5L459.9,86.6L458.7,84.1L456.1,82.7L449.3,81.6L445.7,79.7L439.5,81.0L437.3,84.2L438.7,85.9L437.5,91.7L440.4,93.2L441.6,98.0L449.3,100.2L450.3,101.3L452.9,100.3L457.8,105.5L465.2,104.2L464.7,98.3L469.6,93.1L472.4,91.0L475.8,87.0L475.8,84.5L479.2,81.1L477.7,79.6L472.7,82.2L471.5,84.8L462.8,85.5Z"/>
    <path class="wtc-county" id="wtc-county-lincoln" data-county="Lincoln" d="M356.8,157.2L355.9,162.7L356.6,165.3L360.2,167.8L365.0,169.8L366.2,173.9L365.0,174.8L365.3,178.0L376.3,170.1L380.0,172.0L383.6,161.4L381.9,160.9L372.0,154.2L369.4,151.5L369.4,152.5L363.3,154.7L356.8,157.2Z"/>
    <path class="wtc-county" id="wtc-county-livingston" data-county="Livingston" d="M107.3,188.8L109.7,191.7L112.9,192.5L116.5,190.7L120.6,189.7L124.4,190.8L129.0,195.3L131.2,194.1L130.0,192.2L129.7,188.6L132.1,184.1L130.4,181.8L131.9,179.3L130.4,175.7L125.4,171.5L123.9,167.3L121.1,166.8L117.4,165.5L117.4,165.6L113.1,168.1L112.6,171.2L110.5,175.0L110.9,176.4L115.0,180.2L116.7,184.0L114.3,189.1L112.4,189.5L107.3,188.8Z"/>
    <path class="wtc-county" id="wtc-county-logan" data-county="Logan" d="M208.7,190.0L208.2,218.0L228.2,217.6L228.9,212.3L233.0,204.5L235.5,202.4L238.3,201.9L234.2,194.1L222.7,190.2L216.2,189.4L208.7,190.0Z"/>
    <path class="wtc-county" id="wtc-county-lyon" data-county="Lyon" d="M132.1,184.1L129.7,188.6L130.0,192.2L131.2,194.1L129.0,195.3L132.4,198.4L134.5,202.9L144.9,200.0L153.3,196.7L146.8,189.5L142.2,182.3L138.9,181.9L137.2,183.6L132.9,185.6L132.1,184.1Z"/>
    <path class="wtc-county" id="wtc-county-mccracken" data-county="McCracken" d="M82.5,178.7L90.5,197.1L90.7,197.6L98.2,197.9L112.6,197.9L112.9,192.5L109.7,191.7L107.3,188.8L103.0,185.9L94.6,183.6L91.2,181.4L83.0,178.8L82.5,178.7Z"/>
    <path class="wtc-county" id="wtc-county-mccreary" data-county="McCreary" d="M374.9,202.9L374.7,207.2L371.8,207.8L371.1,209.5L368.4,210.0L368.4,211.5L361.4,220.6L377.1,221.1L396.1,221.4L398.3,221.4L393.0,215.7L392.0,210.2L390.1,208.8L390.6,204.9L392.5,203.4L392.0,201.4L393.7,197.7L390.3,198.1L389.6,196.8L385.7,197.6L374.9,202.9Z"/>
    <path class="wtc-county" id="wtc-county-mclean" data-county="McLean" d="M179.1,150.6L179.8,153.7L185.6,154.5L187.0,155.8L188.7,159.2L188.0,161.3L188.7,165.5L192.3,167.7L198.1,168.5L200.8,166.3L205.6,166.1L205.3,161.8L209.7,156.4L205.8,156.0L194.7,152.3L184.9,148.2L179.1,150.6Z"/>
    <path class="wtc-county" id="wtc-county-madison" data-county="Madison" d="M378.3,142.4L384.8,150.9L388.6,154.3L390.3,157.9L393.2,158.0L395.6,159.5L400.2,158.9L402.1,156.6L407.4,156.0L405.0,150.9L407.7,149.2L407.2,144.7L408.6,140.3L405.5,139.5L408.1,136.8L401.2,135.0L395.9,135.2L395.4,132.5L391.0,134.2L388.2,133.5L389.1,136.4L387.7,137.3L386.0,135.5L384.3,137.2L380.9,137.6L382.6,140.1L378.3,142.4Z"/>
    <path class="wtc-county" id="wtc-county-magoffin" data-county="Magoffin" d="M480.4,136.4L478.5,134.6L476.8,135.7L472.0,134.0L473.2,136.1L466.7,139.1L465.5,141.0L462.6,142.4L464.5,144.1L463.1,146.2L464.0,149.1L469.1,150.9L471.7,153.3L474.6,151.6L478.0,154.8L479.9,154.9L479.4,157.2L484.2,160.3L485.7,161.4L487.6,159.9L488.1,156.1L487.1,151.1L484.2,148.5L484.7,146.0L484.0,140.7L481.4,139.1L480.4,136.4Z"/>
    <path class="wtc-county" id="wtc-county-marion" data-county="Marion" d="M311.6,156.8L312.8,157.2L315.2,162.8L319.5,162.1L323.6,162.5L327.7,164.8L328.2,166.0L334.9,162.8L337.8,163.6L341.4,166.3L343.6,166.4L343.8,157.4L344.6,151.7L329.1,151.7L323.6,150.3L321.4,148.9L321.4,146.9L319.5,145.0L316.4,148.0L311.6,156.8Z"/>
    <path class="wtc-county" id="wtc-county-marshall" data-county="Marshall" d="M112.6,197.9L112.6,210.8L137.7,211.0L134.5,202.9L132.4,198.4L129.0,195.3L124.4,190.8L120.6,189.7L116.5,190.7L112.9,192.5L112.6,197.9Z"/>
    <path class="wtc-county" id="wtc-county-martin" data-county="Martin" d="M506.6,135.0L502.8,136.9L504.5,138.8L502.6,141.2L504.0,141.8L504.7,145.7L510.0,148.1L512.9,147.4L517.2,149.1L520.6,149.0L521.8,147.2L520.1,146.2L522.5,144.4L525.4,144.3L525.0,141.3L522.5,140.2L519.4,136.7L519.7,134.7L516.0,133.6L514.4,130.6L511.9,129.4L508.8,130.0L506.6,135.0Z"/>
    <path class="wtc-county" id="wtc-county-mason" data-county="Mason" d="M414.2,87.1L415.6,87.5L416.3,91.2L418.3,93.9L423.1,96.3L437.5,91.7L438.7,85.9L437.3,84.2L433.4,84.0L429.3,83.1L428.1,80.3L424.5,78.8L423.8,76.8L419.9,75.4L414.2,87.1Z"/>
    <path class="wtc-county" id="wtc-county-meade" data-county="Meade" d="M248.5,118.8L250.4,121.1L248.9,123.6L246.5,123.8L250.6,126.9L263.2,135.2L269.2,140.4L278.8,139.1L281.0,135.3L279.5,127.0L277.1,127.6L276.2,129.7L273.0,126.3L267.7,126.3L261.5,123.1L261.2,117.7L257.1,114.8L254.2,113.9L254.5,115.9L257.6,116.6L257.4,118.0L254.2,118.1L252.3,119.8L248.5,118.8Z"/>
    <path class="wtc-county" id="wtc-county-menifee" data-county="Menifee" d="M429.8,127.0L428.6,127.7L429.1,132.4L430.3,133.9L438.2,138.7L441.1,139.1L445.5,138.3L447.4,136.2L447.4,134.3L450.8,130.8L451.5,124.6L447.2,123.6L442.1,123.0L442.3,125.3L439.7,126.4L436.6,125.1L429.8,127.0Z"/>
    <path class="wtc-county" id="wtc-county-mercer" data-county="Mercer" d="M344.6,134.2L346.5,136.7L344.8,148.5L363.6,146.2L366.2,144.9L367.0,142.8L365.5,139.3L366.0,136.2L362.1,137.2L361.2,133.1L358.0,132.5L360.2,131.2L360.2,128.9L354.2,130.9L350.6,130.1L348.2,131.3L347.4,133.2L344.6,134.2Z"/>
    <path class="wtc-county" id="wtc-county-metcalfe" data-county="Metcalfe" d="M296.6,182.6L294.5,184.8L295.7,186.7L296.9,204.7L305.3,205.2L306.5,206.2L307.9,204.9L306.0,202.6L308.9,204.0L312.5,202.9L314.7,201.1L316.1,198.2L316.9,197.1L312.8,193.5L311.1,186.7L304.1,185.6L300.5,181.8L296.6,182.6Z"/>
    <path class="wtc-county" id="wtc-county-monroe" data-county="Monroe" d="M281.0,212.6L282.9,216.7L281.0,219.0L293.5,219.4L313.7,219.9L317.1,219.6L313.2,214.8L314.9,211.9L311.8,212.0L310.1,209.2L307.0,209.0L306.5,206.2L305.3,205.2L296.9,204.7L292.3,206.0L281.0,212.6Z"/>
    <path class="wtc-county" id="wtc-county-montgomery" data-county="Montgomery" d="M415.1,114.0L408.1,119.2L415.8,131.6L421.6,133.3L426.0,133.6L429.1,132.4L428.6,127.7L429.8,127.0L426.9,124.1L425.7,121.5L421.6,117.8L415.4,116.3L415.1,114.0Z"/>
    <path class="wtc-county" id="wtc-county-morgan" data-county="Morgan" d="M451.5,124.6L450.8,130.8L447.4,134.3L447.4,136.2L451.7,139.1L454.9,139.4L458.2,141.8L458.7,143.5L463.1,146.2L464.5,144.1L462.6,142.4L465.5,141.0L466.7,139.1L473.2,136.1L472.0,134.0L476.8,135.7L478.5,134.6L480.4,136.4L483.3,132.8L481.4,129.3L479.2,126.4L471.5,126.7L467.6,126.2L465.7,124.0L462.6,122.3L463.1,119.2L458.2,121.2L455.1,123.4L451.5,124.6Z"/>
    <path class="wtc-county" id="wtc-county-muhlenberg" data-county="Muhlenberg" d="M192.3,167.7L189.0,173.2L186.8,173.1L186.3,176.5L191.6,181.1L189.9,183.5L189.9,185.2L193.3,186.8L195.0,189.2L195.5,191.3L204.4,191.0L208.7,190.0L216.2,189.4L219.3,188.1L217.4,184.4L217.6,181.9L219.3,182.1L219.1,179.8L213.5,176.0L213.3,172.8L208.7,169.2L206.3,169.9L205.3,172.0L203.2,171.5L205.8,168.8L205.6,166.1L200.8,166.3L198.1,168.5L192.3,167.7Z"/>
    <path class="wtc-county" id="wtc-county-nelson" data-county="Nelson" d="M296.9,139.6L297.6,142.1L300.7,144.9L303.6,147.3L306.7,147.5L306.3,151.1L307.9,151.2L304.6,157.0L308.7,158.9L309.4,156.9L311.6,156.8L316.4,148.0L319.5,145.0L322.9,143.2L322.6,141.4L325.8,140.8L326.5,138.3L332.8,137.3L333.0,133.8L336.1,133.8L335.2,128.8L319.7,130.9L313.7,127.5L310.6,129.3L309.6,131.7L307.2,132.9L307.7,134.6L300.7,139.3L296.9,139.6Z"/>
    <path class="wtc-county" id="wtc-county-nicholas" data-county="Nicholas" d="M400.7,102.0L402.4,103.1L407.2,109.5L409.8,109.7L409.3,111.2L411.8,112.5L414.4,112.3L415.1,114.0L423.8,107.0L424.8,105.8L422.1,102.6L419.2,102.7L417.1,98.5L414.9,97.4L413.0,97.9L406.7,96.1L400.7,102.0Z"/>
    <path class="wtc-county" id="wtc-county-ohio" data-county="Ohio" d="M205.6,166.1L205.8,168.8L203.2,171.5L205.3,172.0L206.3,169.9L208.7,169.2L213.3,172.8L213.5,176.0L219.1,179.8L220.0,178.3L225.1,174.5L224.6,172.0L227.3,172.1L228.5,173.6L238.3,167.5L234.7,157.4L239.5,156.2L236.4,152.5L236.4,149.6L224.1,144.5L221.2,146.4L224.6,148.8L217.1,152.2L215.7,151.7L209.7,156.4L205.3,161.8L205.6,166.1Z"/>
    <path class="wtc-county" id="wtc-county-oldham" data-county="Oldham" d="M303.6,101.4L315.2,107.8L320.5,106.3L324.8,106.1L327.5,102.9L324.6,99.8L323.4,96.1L325.5,93.9L321.2,92.1L317.3,91.7L314.7,92.9L313.0,95.5L305.8,97.4L303.6,101.4Z"/>
    <path class="wtc-county" id="wtc-county-owen" data-county="Owen" d="M341.4,86.9L346.2,89.9L344.6,92.7L347.9,92.5L347.2,94.2L349.4,95.1L348.9,97.6L354.4,99.0L353.5,101.8L355.2,103.0L360.5,104.2L363.8,103.3L371.8,98.0L374.7,95.2L371.5,94.4L367.9,89.4L361.7,85.4L360.9,78.6L355.2,80.1L350.8,82.5L348.2,84.2L341.4,86.9Z"/>
    <path class="wtc-county" id="wtc-county-owsley" data-county="Owsley" d="M421.4,159.3L421.4,162.0L423.6,164.0L425.7,168.4L428.1,170.6L435.1,171.4L436.8,170.0L440.7,174.4L445.2,176.7L443.8,174.7L444.0,171.6L443.8,167.6L444.7,166.0L441.9,160.0L439.0,159.8L438.0,157.8L435.1,159.7L431.5,159.1L430.8,160.9L425.0,161.4L421.4,159.3Z"/>
    <path class="wtc-county" id="wtc-county-pendleton" data-county="Pendleton" d="M377.8,73.8L381.6,90.5L383.6,91.4L386.7,89.3L399.7,87.9L397.8,71.7L398.0,71.4L398.0,68.2L387.7,72.4L385.5,72.8L377.8,73.8Z"/>
    <path class="wtc-county" id="wtc-county-perry" data-county="Perry" d="M444.0,171.6L443.8,174.7L445.2,176.7L446.7,178.2L449.8,174.3L453.9,172.5L457.0,174.2L459.0,178.9L463.5,180.3L467.1,182.3L465.5,184.8L469.6,187.1L468.6,192.6L472.4,193.9L477.0,192.8L475.8,191.2L477.7,189.8L476.8,185.7L480.6,180.9L477.0,179.5L476.3,177.6L472.9,177.9L472.2,176.0L473.2,171.7L472.4,166.8L467.4,166.2L466.2,164.3L462.6,167.2L458.5,168.6L455.1,171.3L453.7,171.3L450.5,168.6L444.0,171.6Z"/>
    <path class="wtc-county" id="wtc-county-pike" data-county="Pike" d="M500.1,174.9L498.7,175.8L502.8,178.8L505.7,177.4L509.8,180.9L510.7,180.4L515.1,178.5L524.0,176.2L526.6,174.2L550.0,158.0L546.6,158.2L539.9,156.5L539.2,154.3L537.2,154.3L535.5,152.0L533.4,152.1L531.7,149.7L528.1,149.0L525.4,144.3L522.5,144.4L520.1,146.2L521.8,147.2L520.6,149.0L517.2,149.1L512.9,147.4L510.0,148.1L506.6,149.0L507.6,150.9L505.9,160.2L507.6,160.3L508.3,164.1L506.2,168.1L503.0,169.2L504.0,170.4L502.8,173.4L500.1,174.9Z"/>
    <path class="wtc-county" id="wtc-county-powell" data-county="Powell" d="M415.8,131.6L414.2,132.4L413.4,137.9L416.1,137.3L416.1,140.3L419.9,143.1L425.0,142.7L425.7,144.0L428.6,143.3L432.2,146.0L433.2,146.0L438.2,138.7L430.3,133.9L429.1,132.4L426.0,133.6L421.6,133.3L415.8,131.6Z"/>
    <path class="wtc-county" id="wtc-county-pulaski" data-county="Pulaski" d="M353.2,186.2L352.7,190.9L357.6,194.2L361.9,196.9L366.2,195.3L368.4,195.7L372.0,201.0L374.9,202.9L385.7,197.6L389.6,196.8L390.1,194.7L392.2,194.1L391.8,189.8L394.9,187.2L394.2,183.9L380.0,172.0L376.3,170.1L365.3,178.0L353.2,186.2Z"/>
    <path class="wtc-county" id="wtc-county-robertson" data-county="Robertson" d="M402.8,89.7L401.2,93.5L404.8,94.5L406.7,96.1L413.0,97.9L414.9,97.4L418.3,93.9L416.3,91.2L415.6,87.5L414.2,87.1L411.3,87.8L407.9,86.8L405.5,89.1L402.8,89.7Z"/>
    <path class="wtc-county" id="wtc-county-rockcastle" data-county="Rockcastle" d="M383.6,161.4L380.0,172.0L394.2,183.9L393.4,182.6L396.6,178.0L399.0,177.7L399.0,175.2L403.6,173.7L404.3,172.6L405.0,170.0L402.1,168.2L402.8,166.0L400.0,161.4L400.2,158.9L395.6,159.5L393.2,158.0L390.3,157.9L388.4,162.3L383.6,161.4Z"/>
    <path class="wtc-county" id="wtc-county-rowan" data-county="Rowan" d="M438.0,114.3L440.9,115.6L439.0,116.9L445.5,118.9L444.7,120.6L449.6,121.6L447.2,123.6L451.5,124.6L455.1,123.4L458.2,121.2L463.1,119.2L465.7,118.1L466.9,115.1L464.3,114.0L460.4,112.8L459.9,110.0L457.8,105.5L452.9,100.3L450.3,101.3L447.2,103.4L447.9,105.2L446.7,108.9L438.0,114.3Z"/>
    <path class="wtc-county" id="wtc-county-russell" data-county="Russell" d="M330.8,199.1L327.9,200.9L330.6,203.9L332.0,203.8L330.8,201.7L338.5,205.6L342.1,203.5L349.1,199.6L350.1,196.7L352.7,197.7L357.6,194.2L352.7,190.9L353.2,186.2L349.6,187.2L343.6,181.5L335.4,191.8L332.8,194.2L330.8,199.1Z"/>
    <path class="wtc-county" id="wtc-county-scott" data-county="Scott" d="M363.8,103.3L365.0,113.8L366.2,115.3L370.1,115.1L369.8,117.2L371.5,119.1L372.0,118.3L386.7,113.0L383.8,107.9L384.5,106.8L382.9,101.9L378.3,97.8L376.1,93.9L374.7,95.2L371.8,98.0L363.8,103.3Z"/>
    <path class="wtc-county" id="wtc-county-shelby" data-county="Shelby" d="M327.5,102.9L324.8,106.1L320.5,106.3L315.2,107.8L319.3,109.2L318.1,117.0L330.8,120.9L339.7,124.4L343.4,122.1L344.8,118.3L346.2,116.1L346.5,108.5L349.4,104.6L346.7,104.4L327.5,102.9Z"/>
    <path class="wtc-county" id="wtc-county-simpson" data-county="Simpson" d="M228.2,217.6L239.8,217.3L241.5,218.6L245.3,217.3L251.8,217.5L252.1,209.0L252.6,207.0L240.3,205.4L238.3,201.9L235.5,202.4L233.0,204.5L228.9,212.3L228.2,217.6Z"/>
    <path class="wtc-county" id="wtc-county-spencer" data-county="Spencer" d="M317.8,119.0L314.9,120.4L311.8,126.1L313.7,127.5L319.7,130.9L335.2,128.8L335.2,127.1L337.8,127.2L339.7,124.4L330.8,120.9L318.1,117.0L317.8,119.0Z"/>
    <path class="wtc-county" id="wtc-county-taylor" data-county="Taylor" d="M307.2,162.5L307.2,165.1L314.5,169.6L317.6,173.5L320.2,178.1L322.9,181.1L325.8,178.8L325.5,177.5L333.5,175.8L335.4,173.2L337.8,168.2L341.4,166.3L337.8,163.6L334.9,162.8L328.2,166.0L327.7,164.8L323.6,162.5L319.5,162.1L315.2,162.8L313.0,161.6L311.1,163.6L307.2,162.5Z"/>
    <path class="wtc-county" id="wtc-county-todd" data-county="Todd" d="M189.7,218.1L204.6,218.0L208.2,218.0L208.7,190.0L204.4,191.0L195.5,191.3L195.0,189.2L189.7,218.1Z"/>
    <path class="wtc-county" id="wtc-county-trigg" data-county="Trigg" d="M134.5,202.9L137.7,211.0L140.6,215.6L155.3,216.6L155.0,218.6L165.6,218.4L167.1,210.4L167.3,202.2L168.0,196.3L163.2,193.9L161.0,195.7L154.8,197.3L153.3,196.7L144.9,200.0L134.5,202.9Z"/>
    <path class="wtc-county" id="wtc-county-trimble" data-county="Trimble" d="M324.1,77.6L319.0,77.4L316.1,79.3L317.8,87.6L318.5,90.6L317.3,91.7L321.2,92.1L325.5,93.9L327.7,93.6L335.2,87.6L332.3,88.0L331.1,84.9L324.1,77.6Z"/>
    <path class="wtc-county" id="wtc-county-union" data-county="Union" d="M143.2,140.4L141.3,144.2L137.2,146.2L134.5,149.4L136.2,155.5L140.3,158.5L141.0,160.1L144.2,157.3L145.4,160.0L149.7,161.8L158.4,155.1L163.0,151.2L161.8,149.1L161.5,145.1L157.7,142.9L150.2,133.5L149.2,135.6L151.6,139.5L148.7,142.2L143.2,140.4Z"/>
    <path class="wtc-county" id="wtc-county-warren" data-county="Warren" d="M252.6,182.6L248.0,183.8L246.1,181.3L237.6,181.9L238.1,184.2L234.2,194.1L238.3,201.9L240.3,205.4L252.6,207.0L252.1,209.0L261.7,202.5L261.5,201.3L265.6,200.2L268.2,198.4L271.8,189.9L266.5,188.9L264.8,187.0L260.5,188.6L252.6,182.6Z"/>
    <path class="wtc-county" id="wtc-county-washington" data-county="Washington" d="M319.5,145.0L321.4,146.9L321.4,148.9L323.6,150.3L329.1,151.7L344.6,151.7L344.8,148.5L346.5,136.7L344.6,134.2L339.3,134.0L338.1,132.5L336.1,133.8L333.0,133.8L332.8,137.3L326.5,138.3L325.8,140.8L322.6,141.4L322.9,143.2L319.5,145.0Z"/>
    <path class="wtc-county" id="wtc-county-wayne" data-county="Wayne" d="M342.1,203.5L344.8,207.0L346.2,210.4L345.0,213.0L346.5,215.7L346.5,219.2L348.2,219.8L360.9,220.6L361.4,220.6L368.4,211.5L368.4,210.0L371.1,209.5L371.8,207.8L374.7,207.2L374.9,202.9L372.0,201.0L368.4,195.7L366.2,195.3L361.9,196.9L357.6,194.2L352.7,197.7L350.1,196.7L349.1,199.6L342.1,203.5Z"/>
    <path class="wtc-county" id="wtc-county-webster" data-county="Webster" d="M149.7,161.8L149.2,165.5L151.6,167.3L155.5,165.8L155.7,168.9L158.6,168.6L157.7,170.5L172.4,163.0L178.9,161.3L187.0,155.8L185.6,154.5L179.8,153.7L179.1,150.6L163.0,151.2L158.4,155.1L149.7,161.8Z"/>
    <path class="wtc-county" id="wtc-county-whitley" data-county="Whitley" d="M393.7,197.7L392.0,201.4L392.5,203.4L390.6,204.9L390.1,208.8L392.0,210.2L393.0,215.7L398.3,221.4L414.4,221.5L418.3,221.7L416.6,217.8L421.9,215.0L416.3,212.3L414.4,210.2L414.6,207.4L411.8,206.2L409.1,203.8L407.4,197.0L405.3,196.0L401.4,198.1L398.7,196.7L397.8,198.0L395.9,196.5L393.7,197.7Z"/>
    <path class="wtc-county" id="wtc-county-wolfe" data-county="Wolfe" d="M438.2,138.7L433.2,146.0L439.2,149.3L445.7,151.2L447.4,152.4L449.8,151.7L452.7,147.7L454.4,147.1L458.5,148.7L464.0,149.1L463.1,146.2L458.7,143.5L458.2,141.8L454.9,139.4L451.7,139.1L447.4,136.2L445.5,138.3L441.1,139.1L438.2,138.7Z"/>
    <path class="wtc-county" id="wtc-county-woodford" data-county="Woodford" d="M365.0,113.8L355.6,117.4L355.6,119.1L358.0,121.3L356.6,123.7L360.2,128.9L360.2,131.2L358.0,132.5L361.2,133.1L362.1,137.2L366.0,136.2L369.4,126.7L371.5,119.1L369.8,117.2L370.1,115.1L366.2,115.3L365.0,113.8Z"/>
  </g>
</svg>