<?xml version="1.0" encoding="UTF-8"?>
<svg xmlns="http://www.w3.org/2000/svg" viewBox="0 0 600 321" id="wtc-state-map-WA" role="img" aria-label="wa county map">
  <title>wa Counties</title>
  <g class="wtc-counties">
    <path class="wtc-county" id="wtc-county-adams" data-county="Adams" d="M418.0,161.2L417.8,183.6L393.2,183.6L393.2,194.7L452.2,194.8L467.1,194.7L470.3,194.1L474.5,192.1L477.7,192.8L479.8,191.7L480.4,187.6L482.5,186.4L483.2,161.3L418.0,161.2Z"/>
    <path class="wtc-county" id="wtc-county-asotin" data-county="Asotin" d="M530.0,212.4L530.0,215.6L521.8,215.5L522.0,216.5L517.9,217.4L517.9,234.1L514.0,234.1L514.0,242.0L550.0,242.2L547.5,237.1L545.9,236.5L549.8,231.4L547.0,229.2L547.0,225.7L545.2,222.7L541.3,219.9L542.2,214.7L539.2,215.2L534.8,214.4L531.4,214.8L530.0,212.4Z"/>
    <path class="wtc-county" id="wtc-county-benton" data-county="Benton" d="M360.8,201.8L360.8,228.2L361.3,228.2L361.3,239.3L361.3,252.4L373.9,251.1L376.9,248.0L380.1,246.7L385.6,247.9L389.1,247.1L400.3,245.8L404.2,246.5L408.6,246.2L415.0,243.9L417.5,241.9L420.5,240.2L420.5,237.7L418.2,233.0L414.1,229.6L408.8,227.6L403.8,226.9L399.6,223.7L400.8,221.8L399.4,218.2L400.1,214.1L399.4,208.7L390.9,202.7L390.2,200.2L387.7,198.5L384.0,195.4L377.1,200.5L371.4,200.4L368.6,201.3L360.8,201.8Z"/>
    <path class="wtc-county" id="wtc-county-chelan" data-county="Chelan" d="M288.8,95.1L288.1,96.3L293.8,102.0L294.5,103.7L291.3,104.7L292.0,106.5L288.1,109.1L281.2,110.4L279.1,111.6L281.2,114.1L279.3,115.3L277.5,121.2L280.9,124.6L283.9,125.3L281.2,128.1L284.6,132.3L280.9,134.1L280.3,136.6L281.6,139.8L281.9,140.1L281.9,140.1L284.8,143.3L289.0,144.8L293.1,148.6L293.6,150.3L297.7,151.1L298.9,151.6L301.4,150.9L302.8,152.4L306.0,152.8L306.4,154.2L310.1,156.0L315.4,156.3L316.3,158.1L319.7,157.5L327.8,161.2L346.8,161.2L347.3,156.3L344.5,154.6L334.4,152.8L332.4,148.7L334.0,143.5L337.9,139.7L337.6,137.5L339.9,134.3L338.6,131.7L340.4,129.4L344.3,128.3L346.8,129.1L353.0,128.0L355.3,123.8L357.9,122.8L358.1,120.3L361.8,117.7L361.1,116.5L349.6,116.5L347.1,112.9L343.8,111.8L343.6,109.9L338.3,108.6L329.6,103.5L330.3,100.8L323.0,96.7L320.4,94.7L315.6,93.6L315.8,89.8L311.9,88.6L310.3,85.1L311.9,82.3L311.2,79.9L307.8,80.0L303.9,81.5L300.5,80.8L297.9,79.0L294.9,80.5L292.0,80.1L292.0,82.0L286.5,82.3L284.8,84.6L286.5,86.4L284.6,89.0L286.0,90.7L284.2,93.7L288.8,95.1Z"/>
    <path class="wtc-county" id="wtc-county-clallam" data-county="Clallam" d="M165.5,109.8L166.2,108.1L162.3,107.9L158.4,108.8L156.7,106.3L151.7,104.0L152.4,102.7L145.0,106.6L135.6,106.7L132.9,104.9L127.4,105.3L125.1,104.3L123.0,105.4L115.9,103.4L111.1,104.1L98.2,103.5L90.2,101.2L90.4,100.1L81.0,97.1L79.6,97.7L73.9,95.6L71.6,95.5L64.2,92.0L55.1,89.0L51.1,89.1L50.5,90.3L54.8,92.8L52.8,100.4L50.0,103.6L52.5,106.6L52.3,109.6L54.1,115.1L57.8,121.6L128.5,121.6L128.5,122.5L164.1,122.5L164.1,109.8L165.5,109.8Z"/>
    <path class="wtc-county" id="wtc-county-clark" data-county="Clark" d="M174.7,251.5L174.0,254.1L175.6,255.9L176.0,259.3L176.0,263.9L183.6,266.9L194.2,268.8L196.7,269.8L200.6,269.1L203.6,270.8L208.9,270.8L208.9,253.5L209.1,238.5L207.5,238.1L203.8,241.3L203.6,244.2L201.1,244.4L194.4,242.7L190.7,243.2L189.1,244.9L182.7,246.5L178.8,246.3L177.6,247.4L178.8,250.4L174.7,251.5Z"/>
    <path class="wtc-county" id="wtc-county-columbia" data-county="Columbia" d="M466.0,204.0L465.1,206.1L465.3,223.1L473.3,223.0L473.3,228.6L481.1,228.6L480.9,241.9L482.0,241.9L506.2,242.0L506.2,234.2L505.5,234.2L505.5,220.3L501.6,220.3L501.6,217.4L498.8,216.5L497.4,211.8L489.4,211.8L490.1,202.0L488.2,204.1L483.7,204.1L474.7,205.2L470.1,206.4L466.9,204.2L466.0,204.0Z"/>
    <path class="wtc-county" id="wtc-county-cowlitz" data-county="Cowlitz" d="M146.9,217.3L147.3,230.9L150.3,229.8L153.5,230.1L167.1,236.6L168.7,239.9L172.8,244.4L173.0,247.5L174.7,251.5L178.8,250.4L177.6,247.4L178.8,246.3L182.7,246.5L189.1,244.9L190.7,243.2L194.4,242.7L201.1,244.4L203.6,244.2L203.8,241.3L207.5,238.1L209.1,238.5L209.6,217.4L209.3,217.3L201.5,217.1L146.9,217.3Z"/>
    <path class="wtc-county" id="wtc-county-douglas" data-county="Douglas" d="M361.1,116.5L361.8,117.7L358.1,120.3L357.9,122.8L355.3,123.8L353.0,128.0L346.8,129.1L344.3,128.3L340.4,129.4L338.6,131.7L339.9,134.3L337.6,137.5L337.9,139.7L334.0,143.5L332.4,148.7L334.4,152.8L344.5,154.6L347.3,156.3L346.8,161.2L348.0,163.5L352.3,163.9L352.6,157.5L357.9,154.7L357.9,152.8L360.6,151.9L360.6,150.0L382.6,149.7L382.6,144.2L390.9,138.8L396.2,137.9L397.6,135.1L397.6,131.4L400.3,130.5L400.3,128.6L403.1,126.8L403.1,121.2L408.6,119.3L410.0,116.4L417.8,116.4L419.8,112.8L416.6,111.3L414.8,106.8L413.2,105.2L407.0,104.7L400.3,107.5L397.6,106.6L395.7,107.8L394.8,110.8L390.9,110.8L388.8,109.1L384.7,108.7L377.4,114.0L375.1,114.0L372.3,112.0L373.9,109.7L373.0,108.0L362.7,109.1L359.5,110.8L361.1,112.8L361.1,116.5Z"/>
    <path class="wtc-county" id="wtc-county-ferry" data-county="Ferry" d="M427.2,50.0L427.2,72.2L425.1,72.2L425.1,83.2L426.7,83.2L426.5,116.3L426.3,116.7L428.8,119.1L434.1,120.4L436.6,117.7L438.9,118.7L444.2,118.4L446.5,119.5L445.8,121.4L450.8,121.5L452.2,123.9L455.6,124.8L457.9,124.1L458.9,120.8L458.2,115.6L455.0,112.1L457.9,110.8L462.5,111.4L465.7,109.9L464.6,105.5L467.8,105.0L468.5,100.2L471.7,96.8L469.7,93.7L467.8,88.1L467.6,83.7L469.2,81.0L471.0,80.7L474.0,72.3L472.2,65.6L467.1,57.1L466.4,54.0L468.0,50.0L427.2,50.0Z"/>
    <path class="wtc-county" id="wtc-county-franklin" data-county="Franklin" d="M387.7,198.5L390.2,200.2L390.9,202.7L399.4,208.7L400.1,214.1L399.4,218.2L400.8,221.8L399.6,223.7L403.8,226.9L408.8,227.6L414.1,229.6L418.5,226.6L425.3,225.8L427.6,223.9L431.5,222.9L432.9,218.9L435.7,218.9L440.0,215.4L441.4,209.7L445.5,206.4L450.6,203.7L455.6,204.8L461.2,203.2L466.0,204.0L466.9,204.2L467.8,202.0L466.0,199.9L466.7,198.5L464.8,194.9L467.1,194.7L452.2,194.8L393.2,194.7L393.2,198.6L387.7,198.5Z"/>
    <path class="wtc-county" id="wtc-county-garfield" data-county="Garfield" d="M490.1,202.0L489.4,211.8L497.4,211.8L498.8,216.5L501.6,217.4L501.6,220.3L505.5,220.3L505.5,234.2L506.2,234.2L506.2,242.0L514.0,242.0L514.0,234.1L517.9,234.1L517.9,217.4L522.0,216.5L521.8,215.5L530.0,215.6L530.0,212.4L528.4,207.0L523.1,204.7L519.7,201.9L519.5,200.1L517.2,199.9L514.9,197.2L511.7,198.6L506.4,198.9L503.2,197.1L497.2,197.5L493.5,201.9L490.1,202.0Z"/>
    <path class="wtc-county" id="wtc-county-grant" data-county="Grant" d="M352.3,163.9L352.6,169.9L350.0,173.4L352.1,175.4L354.9,181.5L355.1,187.0L357.4,189.7L354.4,194.8L356.2,198.7L360.8,201.8L368.6,201.3L371.4,200.4L377.1,200.5L384.0,195.4L387.7,198.5L393.2,198.6L393.2,194.7L393.2,183.6L417.8,183.6L418.0,161.2L418.5,117.6L417.8,116.4L410.0,116.4L408.6,119.3L403.1,121.2L403.1,126.8L400.3,128.6L400.3,130.5L397.6,131.4L397.6,135.1L396.2,137.9L390.9,138.8L382.6,144.2L382.6,149.7L360.6,150.0L360.6,151.9L357.9,152.8L357.9,154.7L352.6,157.5L352.3,163.9Z"/>
    <path class="wtc-county" id="wtc-county-grays-harbor" data-county="Grays Harbor" d="M74.3,143.8L76.4,155.2L81.9,159.6L85.1,169.3L86.0,180.6L85.4,182.7L89.0,181.5L87.2,176.6L89.0,175.3L95.2,176.0L95.7,178.5L103.5,179.8L105.8,181.3L93.8,184.7L91.3,186.4L89.9,183.6L88.1,184.0L90.6,191.2L107.2,191.3L137.2,191.3L150.6,191.2L150.8,178.2L147.8,178.1L148.0,172.5L129.7,172.7L129.4,161.4L128.5,161.4L128.5,144.8L93.8,144.8L93.8,143.8L74.3,143.8Z"/>
    <path class="wtc-county" id="wtc-county-island" data-county="Island" d="M199.0,97.9L195.1,96.7L191.0,98.0L190.5,102.3L192.1,105.4L194.9,105.7L200.8,110.3L200.6,108.4L196.5,105.7L194.2,102.0L196.7,100.4L196.0,99.1L199.4,99.4L199.0,97.9ZM175.6,99.5L180.6,102.4L181.3,104.1L185.4,103.8L186.6,106.9L185.9,112.0L190.3,114.5L189.8,116.1L194.6,114.7L197.4,119.5L200.6,120.2L202.4,117.0L200.8,111.8L197.2,111.1L193.5,108.0L191.2,107.8L192.3,111.5L190.5,113.0L188.2,107.5L189.1,106.7L187.3,102.1L184.8,99.8L179.5,100.3L178.8,99.0L182.0,98.6L185.0,96.8L185.2,95.2L189.1,96.0L192.6,94.9L191.9,93.5L187.5,91.4L187.5,88.7L185.9,87.7L182.2,88.3L181.8,91.3L178.6,94.6L175.6,99.5Z"/>
    <path class="wtc-county" id="wtc-county-jefferson" data-county="Jefferson" d="M57.8,121.6L61.2,122.7L62.4,124.5L65.6,125.7L66.5,128.7L69.7,130.7L73.2,139.6L74.3,143.8L93.8,143.8L93.8,144.8L128.5,144.8L128.5,139.3L137.5,139.1L162.3,139.2L167.5,134.8L168.5,131.9L172.8,126.3L174.2,127.3L171.7,133.5L174.9,133.0L177.0,126.8L180.9,124.8L180.4,122.5L184.1,122.6L185.9,121.2L182.9,120.1L181.1,115.8L178.6,113.5L182.0,112.9L180.2,107.4L177.9,108.2L177.4,110.8L175.8,111.2L173.5,108.4L177.0,106.5L176.3,104.8L171.4,105.4L168.7,106.9L168.7,109.1L171.9,111.0L171.2,113.9L168.9,114.2L168.7,111.0L165.5,109.8L164.1,109.8L164.1,122.5L128.5,122.5L128.5,121.6L57.8,121.6Z"/>
    <path class="wtc-county" id="wtc-county-king" data-county="King" d="M199.4,128.2L201.1,131.3L197.4,135.8L202.9,139.0L197.8,141.1L199.4,145.0L201.7,147.2L200.4,149.1L202.2,149.7L204.0,152.9L204.0,155.7L198.1,157.5L203.4,161.5L215.7,161.5L217.8,164.6L221.9,167.0L224.9,166.9L228.8,169.1L230.9,168.1L234.8,168.8L238.0,166.9L244.9,168.4L246.5,167.7L251.1,170.3L257.5,170.5L260.3,172.5L264.4,172.4L263.5,169.4L269.5,169.1L268.5,164.4L265.3,163.6L267.2,162.1L266.9,160.0L261.4,159.5L261.2,156.5L258.9,154.5L260.7,154.2L261.4,151.0L269.5,146.9L275.0,141.5L281.6,139.8L280.3,136.6L280.9,134.1L284.6,132.3L281.2,128.1L259.6,128.0L251.3,128.2L225.4,128.4L199.4,128.2ZM191.2,155.0L191.6,156.6L195.8,156.0L196.9,154.6L201.1,153.1L196.7,151.3L197.2,148.1L194.4,145.3L192.1,149.2L191.2,155.0Z"/>
    <path class="wtc-county" id="wtc-county-kitsap" data-county="Kitsap" d="M189.8,152.1L191.0,148.0L193.3,145.3L189.8,144.5L190.0,142.4L193.3,140.3L193.3,137.4L191.6,136.3L192.6,133.2L190.0,132.5L189.3,130.3L194.4,130.3L191.2,120.0L186.1,117.8L188.2,123.1L181.1,126.9L177.4,130.9L176.7,134.9L170.1,136.4L162.9,140.5L159.7,144.7L173.5,144.7L173.5,152.1L189.8,152.1Z"/>
    <path class="wtc-county" id="wtc-county-kittitas" data-county="Kittitas" d="M281.6,139.8L275.0,141.5L269.5,146.9L261.4,151.0L260.7,154.2L258.9,154.5L261.2,156.5L261.4,159.5L266.9,160.0L267.2,162.1L265.3,163.6L268.5,164.4L269.5,169.1L263.5,169.4L264.4,172.4L265.8,173.5L270.8,172.3L274.5,173.7L283.0,178.5L283.0,179.9L287.1,183.6L312.2,183.6L312.2,189.1L320.2,189.2L320.2,194.7L354.4,194.8L357.4,189.7L355.1,187.0L354.9,181.5L352.1,175.4L350.0,173.4L352.6,169.9L352.3,163.9L348.0,163.5L346.8,161.2L327.8,161.2L319.7,157.5L316.3,158.1L315.4,156.3L310.1,156.0L306.4,154.2L306.0,152.8L302.8,152.4L301.4,150.9L298.9,151.6L297.7,151.1L293.6,150.3L293.1,148.6L289.0,144.8L284.8,143.3L281.9,140.1L281.9,140.1L281.6,139.8Z"/>
    <path class="wtc-county" id="wtc-county-klickitat" data-county="Klickitat" d="M255.5,239.1L249.7,239.1L249.7,255.8L255.7,255.9L254.3,256.6L255.2,259.5L260.5,261.3L267.2,260.8L275.0,263.0L277.0,267.1L280.3,266.9L284.6,264.1L292.4,263.9L294.3,264.9L297.9,262.9L308.7,260.1L311.0,258.7L314.9,258.1L321.8,261.5L326.9,261.2L334.7,259.7L339.3,259.4L341.8,257.1L348.2,255.7L352.8,253.9L361.3,252.4L361.3,239.3L316.1,239.3L284.4,239.2L280.3,239.1L255.5,239.1Z"/>
    <path class="wtc-county" id="wtc-county-lewis" data-county="Lewis" d="M137.2,191.3L137.5,205.9L137.9,206.0L137.9,217.4L146.9,217.3L201.5,217.1L209.3,217.3L255.5,217.1L263.5,217.1L264.2,215.7L261.0,211.5L259.8,207.8L262.4,206.2L264.0,202.2L262.4,200.4L262.6,198.2L264.6,198.0L265.1,195.5L261.2,194.4L259.6,191.8L240.3,191.8L235.5,195.2L229.3,194.6L227.7,193.6L222.2,194.4L211.8,193.1L185.4,193.2L150.6,193.0L150.6,191.2L137.2,191.3Z"/>
    <path class="wtc-county" id="wtc-county-lincoln" data-county="Lincoln" d="M418.5,117.6L418.0,161.2L483.2,161.3L491.9,161.3L492.1,125.2L488.2,123.7L484.8,125.3L481.4,124.6L477.7,127.3L473.1,124.7L471.5,121.4L467.1,117.5L464.8,117.6L458.9,120.8L457.9,124.1L455.6,124.8L452.2,123.9L450.8,121.5L445.8,121.4L446.5,119.5L444.2,118.4L438.9,118.7L436.6,117.7L434.1,120.4L428.8,119.1L426.3,116.7L418.5,117.6Z"/>
    <path class="wtc-county" id="wtc-county-mason" data-county="Mason" d="M162.3,139.2L137.5,139.1L128.5,139.3L128.5,144.8L128.5,161.4L129.4,161.4L129.7,172.7L148.0,172.5L156.1,172.5L156.1,171.2L160.0,170.1L160.7,168.3L165.0,165.8L167.1,167.9L169.8,167.3L171.2,164.6L169.6,160.7L173.5,155.4L173.5,152.1L173.5,144.7L159.7,144.7L153.3,152.9L157.2,154.4L167.3,151.0L166.6,153.1L161.8,154.0L159.0,155.5L153.8,154.8L151.0,155.2L154.0,148.7L162.3,139.2Z"/>
    <path class="wtc-county" id="wtc-county-okanogan" data-county="Okanogan" d="M298.4,50.0L296.1,51.6L299.3,53.9L302.1,52.6L303.7,58.0L305.7,58.7L305.7,63.7L309.4,67.0L304.6,72.0L302.3,74.0L304.1,76.7L306.7,75.9L308.7,77.2L307.8,80.0L311.2,79.9L311.9,82.3L310.3,85.1L311.9,88.6L315.8,89.8L315.6,93.6L320.4,94.7L323.0,96.7L330.3,100.8L329.6,103.5L338.3,108.6L343.6,109.9L343.8,111.8L347.1,112.9L349.6,116.5L361.1,116.5L361.1,112.8L359.5,110.8L362.7,109.1L373.0,108.0L373.9,109.7L372.3,112.0L375.1,114.0L377.4,114.0L384.7,108.7L388.8,109.1L390.9,110.8L394.8,110.8L395.7,107.8L397.6,106.6L400.3,107.5L407.0,104.7L413.2,105.2L414.8,106.8L416.6,111.3L419.8,112.8L417.8,116.4L418.5,117.6L426.3,116.7L426.5,116.3L426.7,83.2L425.1,83.2L425.1,72.2L427.2,72.2L427.2,50.0L389.3,50.1L350.5,50.1L298.4,50.0Z"/>
    <path class="wtc-county" id="wtc-county-pacific" data-county="Pacific" d="M90.6,191.2L90.9,194.2L95.5,196.6L99.1,196.8L98.2,195.5L102.3,195.4L103.7,194.0L107.6,196.0L101.9,198.9L99.4,201.2L103.7,207.6L100.5,212.1L97.8,210.1L97.8,213.5L100.0,215.7L99.8,217.7L95.9,217.7L95.0,210.2L95.5,204.7L92.5,201.3L93.4,210.4L93.2,217.2L91.8,224.8L94.1,224.3L95.7,221.7L98.0,222.1L102.8,226.2L104.9,226.6L109.2,223.8L112.2,224.3L114.3,223.4L114.5,217.3L137.9,217.4L137.9,206.0L137.5,205.9L137.2,191.3L107.2,191.3L90.6,191.2Z"/>
    <path class="wtc-county" id="wtc-county-pend-oreille" data-county="Pend Oreille" d="M517.2,50.0L517.2,54.9L512.8,54.9L512.8,60.5L508.7,60.5L508.7,66.5L504.3,66.5L504.3,72.0L512.6,72.0L512.6,105.4L516.7,105.4L516.7,111.0L542.0,111.1L542.4,90.3L542.4,66.0L542.7,59.8L542.7,50.1L517.2,50.0Z"/>
    <path class="wtc-county" id="wtc-county-pierce" data-county="Pierce" d="M180.4,171.3L179.5,172.5L181.8,177.0L184.1,179.3L188.7,180.1L188.9,182.2L193.3,184.0L193.5,186.4L196.0,187.4L205.4,189.0L205.2,191.4L207.5,192.9L211.8,193.1L222.2,194.4L227.7,193.6L229.3,194.6L235.5,195.2L240.3,191.8L259.6,191.8L257.1,186.8L255.2,186.1L259.6,182.9L260.3,179.2L262.8,178.0L264.9,174.3L264.4,172.4L260.3,172.5L257.5,170.5L251.1,170.3L246.5,167.7L244.9,168.4L238.0,166.9L234.8,168.8L230.9,168.1L228.8,169.1L224.9,166.9L221.9,167.0L217.8,164.6L215.7,161.5L203.4,161.5L198.1,157.5L196.5,158.7L198.8,159.5L196.5,160.9L190.7,157.7L191.2,159.3L188.9,162.3L187.1,166.6L184.1,167.5L184.1,169.3L180.4,171.3ZM173.5,155.4L173.7,159.5L171.0,161.5L175.6,167.3L179.2,169.8L181.8,168.4L181.5,165.7L183.8,164.8L177.0,160.3L178.3,156.8L182.0,154.5L180.2,159.8L186.4,164.1L189.8,159.7L188.2,157.0L190.5,153.9L189.8,152.1L173.5,152.1L173.5,155.4Z"/>
    <path class="wtc-county" id="wtc-county-san-juan" data-county="San Juan" d="M162.3,63.2L165.7,65.7L170.8,66.8L172.6,66.4L164.8,63.5L162.3,63.2ZM156.3,69.2L160.7,69.6L160.2,67.8L156.3,69.2ZM147.8,75.9L149.9,77.0L151.2,81.2L158.4,84.6L163.4,85.2L165.5,84.5L168.9,87.3L173.5,86.6L172.6,82.8L175.1,81.4L175.6,78.0L173.0,74.4L177.4,71.6L168.9,68.5L166.2,68.4L157.7,74.3L161.8,78.1L157.9,77.6L154.5,75.8L154.0,74.2L149.4,74.2L147.8,75.9ZM145.7,69.9L147.1,71.2L154.0,73.5L149.9,70.5L145.7,69.9Z"/>
    <path class="wtc-county" id="wtc-county-skagit" data-county="Skagit" d="M183.1,78.9L183.8,80.4L187.7,79.0L183.1,76.7L183.1,78.9ZM193.5,72.7L197.6,75.7L196.5,77.5L192.6,77.9L194.9,83.8L190.5,84.2L188.4,81.5L185.4,80.7L179.9,82.2L179.2,84.3L182.2,83.4L181.3,85.9L182.9,87.7L189.6,85.9L189.3,88.0L192.3,90.7L198.8,93.1L200.6,94.9L227.0,95.0L288.8,95.1L284.2,93.7L286.0,90.7L284.6,89.0L286.5,86.4L284.8,84.6L286.5,82.3L292.0,82.0L292.0,80.1L294.9,80.5L297.9,79.0L300.5,80.8L303.9,81.5L307.8,80.0L308.7,77.2L306.7,75.9L304.1,76.7L302.3,74.0L304.6,72.0L294.7,72.0L294.7,73.0L252.7,72.9L193.5,72.7ZM177.4,76.6L178.6,79.5L182.0,77.6L179.2,75.1L177.4,76.6Z"/>
    <path class="wtc-county" id="wtc-county-skamania" data-county="Skamania" d="M209.1,238.5L208.9,253.5L208.9,270.8L213.0,269.0L218.3,268.6L229.8,264.3L233.4,261.5L236.9,260.7L241.7,261.5L248.3,260.8L255.2,259.5L254.3,256.6L255.7,255.9L249.7,255.8L249.7,239.1L255.5,239.1L255.5,217.1L209.3,217.3L209.6,217.4L209.1,238.5Z"/>
    <path class="wtc-county" id="wtc-county-snohomish" data-county="Snohomish" d="M199.0,97.9L199.4,99.4L201.7,102.0L201.5,106.1L206.8,110.8L210.0,112.1L210.2,115.9L205.2,117.3L203.1,123.8L199.7,126.3L199.4,128.2L225.4,128.4L251.3,128.2L259.6,128.0L281.2,128.1L283.9,125.3L280.9,124.6L277.5,121.2L279.3,115.3L281.2,114.1L279.1,111.6L281.2,110.4L288.1,109.1L292.0,106.5L291.3,104.7L294.5,103.7L293.8,102.0L288.1,96.3L288.8,95.1L227.0,95.0L200.6,94.9L199.0,97.9Z"/>
    <path class="wtc-county" id="wtc-county-spokane" data-county="Spokane" d="M492.1,125.2L491.9,161.3L542.0,161.4L542.0,154.6L542.0,115.4L542.0,111.1L516.7,111.0L510.5,110.9L510.5,127.1L506.2,126.6L502.5,124.0L502.0,121.6L494.0,126.0L492.1,125.2Z"/>
    <path class="wtc-county" id="wtc-county-stevens" data-county="Stevens" d="M468.0,50.0L466.4,54.0L467.1,57.1L472.2,65.6L474.0,72.3L471.0,80.7L469.2,81.0L467.6,83.7L467.8,88.1L469.7,93.7L471.7,96.8L468.5,100.2L467.8,105.0L464.6,105.5L465.7,109.9L462.5,111.4L457.9,110.8L455.0,112.1L458.2,115.6L458.9,120.8L464.8,117.6L467.1,117.5L471.5,121.4L473.1,124.7L477.7,127.3L481.4,124.6L484.8,125.3L488.2,123.7L492.1,125.2L494.0,126.0L502.0,121.6L502.5,124.0L506.2,126.6L510.5,127.1L510.5,110.9L516.7,111.0L516.7,105.4L512.6,105.4L512.6,72.0L504.3,72.0L504.3,66.5L508.7,66.5L508.7,60.5L512.8,60.5L512.8,54.9L517.2,54.9L517.2,50.0L468.0,50.0Z"/>
    <path class="wtc-county" id="wtc-county-thurston" data-county="Thurston" d="M148.0,172.5L147.8,178.1L150.8,178.2L150.6,191.2L150.6,193.0L185.4,193.2L211.8,193.1L207.5,192.9L205.2,191.4L205.4,189.0L196.0,187.4L193.5,186.4L193.3,184.0L188.9,182.2L188.7,180.1L184.1,179.3L181.8,177.0L179.5,172.5L180.4,171.3L175.3,170.1L172.8,166.5L169.8,167.3L167.1,167.9L165.0,165.8L160.7,168.3L160.0,170.1L156.1,171.2L156.1,172.5L148.0,172.5Z"/>
    <path class="wtc-county" id="wtc-county-wahkiakum" data-county="Wahkiakum" d="M137.9,217.4L114.5,217.3L114.3,223.4L117.3,223.0L118.0,224.8L125.8,225.3L130.6,224.8L133.6,227.3L133.3,230.3L137.7,232.6L143.0,232.6L147.3,230.9L146.9,217.3L137.9,217.4Z"/>
    <path class="wtc-county" id="wtc-county-walla-walla" data-county="Walla Walla" d="M466.0,204.0L461.2,203.2L455.6,204.8L450.6,203.7L445.5,206.4L441.4,209.7L440.0,215.4L435.7,218.9L432.9,218.9L431.5,222.9L427.6,223.9L425.3,225.8L418.5,226.6L414.1,229.6L418.2,233.0L420.5,237.7L420.5,240.2L417.5,241.9L480.9,241.9L481.1,228.6L473.3,228.6L473.3,223.0L465.3,223.1L465.1,206.1L466.0,204.0Z"/>
    <path class="wtc-county" id="wtc-county-whatcom" data-county="Whatcom" d="M178.6,67.2L181.8,70.4L185.9,72.7L179.9,66.4L178.6,67.2ZM298.4,50.0L274.1,49.9L240.8,50.2L218.5,49.9L176.3,49.9L172.6,52.9L175.6,53.7L176.7,55.7L174.2,56.9L179.0,59.8L179.2,63.4L181.3,62.6L183.6,64.0L181.8,67.1L186.1,69.3L184.1,66.9L186.6,64.7L190.5,64.3L193.5,66.0L191.6,68.4L193.5,72.7L252.7,72.9L294.7,73.0L294.7,72.0L304.6,72.0L309.4,67.0L305.7,63.7L305.7,58.7L303.7,58.0L302.1,52.6L299.3,53.9L296.1,51.6L298.4,50.0ZM155.1,49.9L155.6,51.6L159.5,51.5L158.6,49.9L155.1,49.9Z"/>
    <path class="wtc-county" id="wtc-county-whitman" data-county="Whitman" d="M467.1,194.7L464.8,194.9L466.7,198.5L466.0,199.9L467.8,202.0L466.9,204.2L470.1,206.4L474.7,205.2L483.7,204.1L488.2,204.1L490.1,202.0L493.5,201.9L497.2,197.5L503.2,197.1L506.4,198.9L511.7,198.6L514.9,197.2L517.2,199.9L519.5,200.1L519.7,201.9L523.1,204.7L528.4,207.0L530.0,212.4L531.4,214.8L534.8,214.4L539.2,215.2L542.2,214.7L542.2,207.3L542.2,169.8L542.0,161.4L491.9,161.3L483.2,161.3L482.5,186.4L480.4,187.6L479.8,191.7L477.7,192.8L474.5,192.1L470.3,194.1L467.1,194.7Z"/>
    <path class="wtc-county" id="wtc-county-yakima" data-county="Yakima" d="M264.4,172.4L264.9,174.3L262.8,178.0L260.3,179.2L259.6,182.9L255.2,186.1L257.1,186.8L259.6,191.8L261.2,194.4L265.1,195.5L264.6,198.0L262.6,198.2L262.4,200.4L264.0,202.2L262.4,206.2L259.8,207.8L261.0,211.5L264.2,215.7L263.5,217.1L255.5,217.1L255.5,239.1L280.3,239.1L284.4,239.2L316.1,239.3L361.3,239.3L361.3,228.2L360.8,228.2L360.8,201.8L356.2,198.7L354.4,194.8L320.2,194.7L320.2,189.2L312.2,189.1L312.2,183.6L287.1,183.6L283.0,179.9L283.0,178.5L274.5,173.7L270.8,172.3L265.8,173.5L264.4,172.4Z"/>
  </g>
</svg>