<?xml version="1.0" encoding="UTF-8"?>
<svg xmlns="http://www.w3.org/2000/svg" viewBox="0 0 600 479" id="wtc-state-map-LA" role="img" aria-label="la county map">
  <title>la Counties</title>
  <g class="wtc-counties">
    <path class="wtc-county" id="wtc-county-acadia" data-county="Acadia" d="M185.0,292.9L188.4,298.7L185.0,302.7L186.0,306.4L185.3,316.9L188.7,321.5L185.3,326.1L185.6,330.1L192.2,327.8L197.0,331.3L204.9,334.2L209.3,332.6L217.9,324.8L221.7,321.1L221.4,319.4L228.6,315.8L228.6,313.1L231.7,310.3L228.6,305.4L228.6,297.1L222.0,297.1L222.0,293.0L198.0,293.0L185.0,292.9Z"/>
    <path class="wtc-county" id="wtc-county-allen" data-county="Allen" d="M151.6,254.9L151.6,281.6L137.2,281.7L137.2,298.4L143.4,298.3L143.4,296.9L171.2,297.1L171.2,292.2L185.0,292.2L189.4,284.7L188.0,283.0L188.0,253.2L166.4,253.8L166.4,255.1L151.6,254.9Z"/>
    <path class="wtc-county" id="wtc-county-ascension" data-county="Ascension" d="M339.1,308.2L334.0,323.5L330.9,328.5L330.9,332.9L340.5,331.3L344.6,332.6L349.1,328.1L375.2,323.0L376.2,317.7L374.5,316.7L370.4,322.1L368.0,320.7L364.9,315.8L363.2,316.0L357.7,310.9L357.3,308.4L351.5,305.9L342.2,305.9L339.1,308.2Z"/>
    <path class="wtc-county" id="wtc-county-assumption" data-county="Assumption" d="M319.6,336.5L316.1,338.9L316.5,341.6L320.6,347.8L323.0,353.4L328.2,354.4L332.3,357.9L331.6,367.7L330.9,373.1L333.0,374.7L340.5,366.2L346.0,358.8L351.9,347.9L351.9,345.1L348.1,345.1L348.1,341.0L345.0,341.0L344.6,332.6L340.5,331.3L330.9,332.9L319.6,336.5Z"/>
    <path class="wtc-county" id="wtc-county-avoyelles" data-county="Avoyelles" d="M218.6,246.6L218.6,249.3L222.4,253.5L222.7,257.8L225.1,257.7L262.9,257.8L263.9,256.3L263.9,245.9L269.1,241.4L271.8,239.0L273.6,233.1L272.2,230.3L276.3,225.2L263.3,220.5L261.2,217.8L254.0,214.8L250.5,217.2L251.6,220.4L246.1,221.6L244.4,216.2L244.7,212.1L243.0,210.4L237.2,211.2L233.4,214.0L229.6,214.2L226.9,211.3L223.1,212.5L223.1,232.1L225.5,246.8L218.6,246.6Z"/>
    <path class="wtc-county" id="wtc-county-beauregard" data-county="Beauregard" d="M96.4,255.8L96.7,260.0L93.6,262.7L90.5,267.9L89.5,273.9L85.4,275.9L84.7,281.5L79.9,284.0L78.8,287.3L81.3,289.3L83.0,296.7L78.8,300.4L103.2,300.4L103.2,292.0L112.8,292.0L112.8,300.4L137.2,300.4L137.2,298.4L137.2,281.7L151.6,281.6L151.6,254.9L136.9,254.9L134.8,254.4L108.0,254.6L103.9,256.7L99.8,254.7L96.4,255.8Z"/>
    <path class="wtc-county" id="wtc-county-bienville" data-county="Bienville" d="M113.9,108.3L109.1,109.5L111.1,112.3L108.7,118.0L110.8,120.4L108.7,125.0L129.3,125.0L129.3,129.1L131.7,133.3L155.4,133.4L167.4,133.5L168.8,127.4L171.2,125.0L170.9,104.2L161.3,104.1L160.9,91.6L132.4,91.6L133.1,97.2L135.5,104.0L126.9,104.1L126.9,108.4L113.9,108.3Z"/>
    <path class="wtc-county" id="wtc-county-bossier" data-county="Bossier" d="M71.6,50.0L71.3,54.2L68.9,56.7L73.0,58.4L70.9,61.3L74.4,65.5L73.4,70.3L74.0,74.9L71.3,77.1L74.7,79.4L77.8,88.1L76.1,90.5L78.8,91.0L77.5,96.2L83.0,100.3L84.7,106.1L84.0,108.6L89.5,109.3L90.2,113.7L96.4,115.8L98.1,119.8L105.6,123.6L104.6,124.9L108.7,125.0L110.8,120.4L108.7,118.0L111.1,112.3L109.1,109.5L113.9,108.3L107.3,108.3L107.0,99.9L107.0,74.7L104.3,72.6L106.3,68.9L103.6,58.9L100.8,58.1L98.8,54.2L99.8,50.1L72.7,50.0L71.6,50.0Z"/>
    <path class="wtc-county" id="wtc-county-caddo" data-county="Caddo" d="M50.0,81.2L50.0,110.0L50.0,128.8L58.6,128.8L67.5,123.3L68.5,119.6L74.0,115.0L77.5,114.7L81.3,117.3L86.1,117.1L90.9,121.8L90.9,124.8L104.6,124.9L105.6,123.6L98.1,119.8L96.4,115.8L90.2,113.7L89.5,109.3L84.0,108.6L84.7,106.1L83.0,100.3L77.5,96.2L78.8,91.0L76.1,90.5L77.8,88.1L74.7,79.4L71.3,77.1L74.0,74.9L73.4,70.3L74.4,65.5L70.9,61.3L73.0,58.4L68.9,56.7L71.3,54.2L71.6,50.0L50.0,50.0L50.0,63.2L50.0,81.2Z"/>
    <path class="wtc-county" id="wtc-county-calcasieu" data-county="Calcasieu" d="M78.8,300.4L77.1,301.6L76.4,307.0L81.9,311.3L82.3,315.6L80.6,318.8L83.7,325.3L79.5,331.1L82.6,332.7L80.6,334.0L137.2,333.9L137.2,335.2L149.9,335.2L149.9,331.0L160.6,330.9L158.5,328.1L159.9,323.9L149.9,323.9L149.9,313.9L146.8,314.0L146.8,302.6L137.2,302.6L137.2,300.4L112.8,300.4L112.8,292.0L103.2,292.0L103.2,300.4L78.8,300.4Z"/>
    <path class="wtc-county" id="wtc-county-caldwell" data-county="Caldwell" d="M215.5,133.6L215.5,154.5L244.7,154.5L254.3,154.5L254.3,150.3L256.0,150.3L254.7,148.0L254.0,139.4L258.1,138.8L255.4,133.0L255.4,131.9L247.1,131.6L247.5,126.8L244.7,125.6L246.1,121.1L242.0,121.0L235.1,121.1L235.1,122.8L230.6,122.8L229.6,121.1L215.5,121.0L215.5,133.6Z"/>
    <path class="wtc-county" id="wtc-county-cameron" data-county="Cameron" d="M67.9,351.8L61.3,356.2L60.6,358.3L63.7,360.8L69.6,368.5L78.5,364.1L84.3,363.1L104.3,361.0L116.6,361.6L121.4,360.4L132.8,360.8L146.8,364.1L154.7,366.8L174.3,375.1L186.3,378.5L186.7,360.5L186.3,335.3L174.7,335.4L149.9,335.2L137.2,335.2L137.2,333.9L80.6,334.0L78.8,336.8L74.0,340.1L71.6,346.5L67.9,351.8Z"/>
    <path class="wtc-county" id="wtc-county-catahoula" data-county="Catahoula" d="M244.7,212.1L244.4,216.2L246.1,221.6L251.6,220.4L250.5,217.2L254.0,214.8L261.2,217.8L262.2,215.2L258.4,214.3L258.4,209.3L260.2,207.2L265.7,207.4L259.1,202.7L259.1,195.8L262.2,196.3L263.9,201.2L270.5,202.0L270.5,198.5L264.6,197.9L266.3,192.4L261.9,188.5L262.9,184.1L267.0,181.2L270.5,184.5L273.6,181.8L272.5,178.5L274.2,173.2L280.1,173.5L283.5,170.3L288.7,174.1L289.0,171.3L285.6,167.1L286.6,164.1L285.9,158.8L283.9,158.7L283.9,150.4L279.1,150.4L277.0,154.7L271.2,158.8L266.3,159.8L260.2,152.0L256.0,150.3L254.3,150.3L254.3,154.5L244.7,154.5L244.4,184.4L244.7,212.1Z"/>
    <path class="wtc-county" id="wtc-county-claiborne" data-county="Claiborne" d="M126.9,50.2L126.9,79.0L131.7,79.0L133.1,86.9L132.4,91.6L160.9,91.6L163.0,88.1L162.3,82.7L166.1,79.2L166.1,75.0L176.0,74.9L176.0,50.5L150.6,50.2L126.9,50.2Z"/>
    <path class="wtc-county" id="wtc-county-concordia" data-county="Concordia" d="M289.0,171.3L288.7,174.1L283.5,170.3L280.1,173.5L274.2,173.2L272.5,178.5L273.6,181.8L270.5,184.5L267.0,181.2L262.9,184.1L261.9,188.5L266.3,192.4L264.6,197.9L270.5,198.5L270.5,202.0L263.9,201.2L262.2,196.3L259.1,195.8L259.1,202.7L265.7,207.4L260.2,207.2L258.4,209.3L258.4,214.3L262.2,215.2L261.2,217.8L263.3,220.5L276.3,225.2L272.2,230.3L273.6,233.1L271.8,239.0L278.0,239.0L278.0,243.8L277.7,246.0L280.1,243.3L284.5,241.6L287.0,236.8L281.5,232.7L281.1,230.4L284.5,224.9L279.4,220.8L279.7,217.7L285.9,218.2L291.8,216.6L292.4,213.1L288.3,210.0L288.0,206.3L285.6,205.0L288.7,201.8L290.0,205.9L292.8,208.3L295.9,207.7L295.9,205.3L291.4,199.2L291.1,193.1L297.9,191.6L302.1,188.7L300.7,186.1L294.5,187.2L291.4,184.7L293.1,181.6L296.6,183.9L302.7,183.9L303.1,175.2L304.8,173.1L302.7,171.1L289.0,171.3Z"/>
    <path class="wtc-county" id="wtc-county-de-soto" data-county="De Soto" d="M50.0,128.8L50.0,148.3L52.7,149.3L56.5,155.2L62.7,157.8L65.5,162.4L107.3,162.4L107.3,155.8L115.6,154.1L110.8,148.7L107.3,148.5L103.6,144.5L103.6,142.1L97.7,137.5L100.8,134.9L99.5,130.1L92.9,127.9L90.9,124.8L90.9,121.8L86.1,117.1L81.3,117.3L77.5,114.7L74.0,115.0L68.5,119.6L67.5,123.3L58.6,128.8L50.0,128.8Z"/>
    <path class="wtc-county" id="wtc-county-east-baton-rouge" data-county="East Baton Rouge" d="M312.4,276.8L311.7,284.1L315.5,284.2L317.5,287.6L313.7,289.6L315.8,290.6L320.9,288.8L322.3,296.8L318.5,303.0L318.5,305.9L324.4,305.9L327.5,308.0L339.1,308.2L342.2,305.9L351.5,305.9L347.0,303.8L341.9,294.7L344.0,290.7L342.6,288.9L343.6,285.1L342.2,282.9L347.4,280.2L349.5,276.8L355.3,270.1L316.8,271.4L312.4,276.8Z"/>
    <path class="wtc-county" id="wtc-county-east-carroll" data-county="East Carroll" d="M298.3,91.8L299.7,93.9L297.3,96.1L328.2,96.1L330.6,93.7L334.3,93.7L336.7,92.4L340.2,89.9L338.5,85.7L336.4,89.5L329.5,91.6L327.5,90.4L326.4,86.2L329.5,83.0L335.0,80.3L335.7,78.1L325.1,75.6L325.4,69.8L327.1,66.8L334.3,62.5L335.0,59.3L331.9,53.4L328.2,53.7L328.5,59.2L323.7,61.3L320.6,59.5L321.6,55.6L325.1,51.5L315.8,51.4L314.1,56.6L311.3,58.0L311.3,62.4L308.6,65.0L307.9,75.2L302.7,81.2L303.1,89.2L298.3,91.8Z"/>
    <path class="wtc-county" id="wtc-county-east-feliciana" data-county="East Feliciana" d="M324.0,243.3L323.0,249.3L318.5,260.0L318.5,262.8L314.4,266.3L313.0,270.4L310.3,272.0L311.3,276.4L312.4,276.8L316.8,271.4L355.3,270.1L356.7,261.1L354.6,256.7L355.6,253.9L354.3,248.7L357.7,243.3L335.4,243.3L324.0,243.3Z"/>
    <path class="wtc-county" id="wtc-county-evangeline" data-county="Evangeline" d="M185.0,292.2L185.0,292.9L198.0,293.0L200.8,291.5L201.4,288.4L205.6,287.4L220.3,287.4L220.3,284.6L225.1,284.6L225.1,280.2L228.9,274.5L228.9,265.4L225.5,263.9L225.1,257.7L222.7,257.8L222.4,253.5L218.6,249.3L218.6,246.6L213.8,246.8L209.0,243.2L199.4,247.8L199.4,251.0L196.6,253.2L188.0,253.2L188.0,283.0L189.4,284.7L185.0,292.2Z"/>
    <path class="wtc-county" id="wtc-county-franklin" data-county="Franklin" d="M255.4,133.0L258.1,138.8L254.0,139.4L254.7,148.0L256.0,150.3L260.2,152.0L266.3,159.8L271.2,158.8L277.0,154.7L279.1,150.4L283.9,150.4L283.9,158.7L285.9,158.8L292.1,154.2L290.4,151.4L293.5,148.5L292.1,145.6L294.2,139.0L292.8,133.6L293.8,128.1L289.7,128.1L291.1,123.3L290.7,118.8L295.9,117.2L294.5,112.5L297.9,112.3L295.5,108.7L280.4,108.8L274.2,112.2L271.8,115.7L268.1,115.5L266.7,124.3L262.6,127.1L261.5,130.2L255.4,133.0Z"/>
    <path class="wtc-county" id="wtc-county-grant" data-county="Grant" d="M152.3,175.4L153.0,178.2L158.9,180.1L158.5,183.6L168.8,186.1L176.4,193.7L179.1,198.1L177.7,200.1L182.2,206.1L185.0,205.8L216.2,199.3L226.5,197.5L222.4,195.2L219.0,195.8L219.0,191.9L214.8,188.5L215.9,186.8L208.7,183.9L211.7,183.5L210.4,181.2L212.1,176.6L209.7,176.1L212.4,170.6L210.7,167.0L186.0,167.0L186.0,175.3L152.3,175.4Z"/>
    <path class="wtc-county" id="wtc-county-iberia" data-county="Iberia" d="M248.8,335.4L246.1,340.4L248.1,354.8L251.2,356.4L256.0,354.6L261.5,355.3L262.2,359.0L259.5,358.8L256.7,362.2L258.8,364.1L272.9,353.6L281.1,344.2L295.9,343.1L316.5,341.6L316.1,338.9L319.6,336.5L315.1,333.2L305.8,333.3L294.5,333.3L292.4,335.7L283.5,335.7L282.5,332.4L277.7,328.4L273.6,327.3L267.7,328.5L268.1,330.2L262.6,334.7L257.1,332.4L249.9,331.9L248.8,335.4ZM243.7,378.0L242.3,379.7L262.6,389.2L267.4,387.6L267.7,384.4L272.9,381.4L270.8,379.0L267.7,379.6L259.8,374.6L252.3,374.1L251.2,376.2L247.1,375.8L243.7,378.0Z"/>
    <path class="wtc-county" id="wtc-county-iberville" data-county="Iberville" d="M273.9,291.3L279.7,296.6L281.5,309.2L287.3,315.7L295.5,317.0L296.6,329.1L303.8,329.1L305.8,333.3L315.1,333.2L319.6,336.5L330.9,332.9L330.9,328.5L334.0,323.5L339.1,308.2L327.5,308.0L311.3,308.1L310.3,306.0L303.1,299.8L299.7,295.5L294.5,291.3L287.6,292.7L285.2,291.3L273.9,291.3Z"/>
    <path class="wtc-county" id="wtc-county-jackson" data-county="Jackson" d="M170.9,104.2L171.2,125.0L168.8,127.4L167.4,133.5L215.5,133.6L215.5,121.0L215.5,116.8L205.6,108.5L205.6,100.1L185.6,100.1L186.0,104.2L170.9,104.2Z"/>
    <path class="wtc-county" id="wtc-county-jefferson" data-county="Jefferson" d="M412.0,323.3L409.9,334.2L409.9,341.9L410.9,348.0L413.7,352.1L420.5,356.2L414.7,368.4L421.9,369.7L421.6,380.1L418.8,380.7L423.6,389.0L431.9,390.4L434.6,393.6L433.2,399.3L433.9,402.8L436.7,406.1L431.2,412.5L428.1,418.9L445.9,406.4L443.2,402.4L440.5,393.4L438.7,391.6L438.7,383.5L437.7,382.1L438.0,375.5L436.3,374.9L435.3,370.1L430.2,363.9L430.2,355.3L433.9,353.0L436.0,348.9L431.2,344.2L430.2,346.5L426.4,347.7L423.3,346.7L424.7,341.5L426.4,323.1L421.6,320.7L412.0,323.3Z"/>
    <path class="wtc-county" id="wtc-county-jefferson-davis" data-county="Jefferson Davis" d="M137.2,298.4L137.2,300.4L137.2,302.6L146.8,302.6L146.8,314.0L149.9,313.9L149.9,323.9L159.9,323.9L158.5,328.1L160.6,330.9L149.9,331.0L149.9,335.2L174.7,335.4L185.6,330.1L185.3,326.1L188.7,321.5L185.3,316.9L186.0,306.4L185.0,302.7L188.4,298.7L185.0,292.9L185.0,292.2L171.2,292.2L171.2,297.1L143.4,296.9L143.4,298.3L137.2,298.4Z"/>
    <path class="wtc-county" id="wtc-county-lafayette" data-county="Lafayette" d="M217.9,324.8L225.8,325.3L233.0,327.8L236.8,326.7L238.9,331.8L248.8,335.4L249.9,331.9L254.3,324.1L253.0,320.9L247.1,321.5L247.5,318.7L250.9,316.3L247.5,314.0L250.2,312.4L248.5,307.8L249.9,304.5L246.4,303.6L242.3,304.4L240.6,302.4L237.5,304.4L236.8,307.3L231.7,310.3L228.6,313.1L228.6,315.8L221.4,319.4L221.7,321.1L217.9,324.8Z"/>
    <path class="wtc-county" id="wtc-county-lafourche" data-county="Lafourche" d="M400.6,424.2L404.7,428.5L407.5,427.3L403.0,422.0L400.6,424.2ZM351.9,347.9L346.0,358.8L340.5,366.2L352.5,366.0L352.2,363.2L356.3,363.1L359.1,360.4L363.2,368.0L369.0,371.0L373.8,376.5L377.3,377.4L381.7,381.1L388.3,388.9L392.0,391.3L396.5,397.3L399.9,399.6L400.6,407.4L403.7,406.9L407.5,409.1L411.6,417.3L409.5,417.6L410.2,420.9L414.4,422.2L413.0,425.6L415.4,426.4L428.1,418.9L431.2,412.5L436.7,406.1L433.9,402.8L433.2,399.3L434.6,393.6L431.9,390.4L423.6,389.0L418.8,380.7L421.6,380.1L421.9,369.7L414.7,368.4L403.7,368.2L402.0,366.9L401.0,361.9L395.5,360.3L391.0,356.8L390.7,353.5L385.9,349.9L376.6,348.9L373.8,349.5L370.7,348.0L361.5,346.4L361.5,347.8L351.9,347.9Z"/>
    <path class="wtc-county" id="wtc-county-lasalle" data-county="LaSalle" d="M210.7,167.0L212.4,170.6L209.7,176.1L212.1,176.6L210.4,181.2L211.7,183.5L208.7,183.9L215.9,186.8L214.8,188.5L219.0,191.9L219.0,195.8L222.4,195.2L226.5,197.5L229.9,198.5L231.0,204.5L237.5,208.3L237.2,211.2L243.0,210.4L244.7,212.1L244.4,184.4L244.7,154.5L215.5,154.5L215.5,157.5L210.7,167.0Z"/>
    <path class="wtc-county" id="wtc-county-lincoln" data-county="Lincoln" d="M176.0,74.9L166.1,75.0L166.1,79.2L162.3,82.7L163.0,88.1L160.9,91.6L161.3,104.1L170.9,104.2L186.0,104.2L185.6,100.1L205.6,100.1L205.6,91.8L205.6,83.5L195.6,83.4L195.6,78.6L193.2,78.8L190.8,75.9L184.3,74.9L176.0,74.9Z"/>
    <path class="wtc-county" id="wtc-county-livingston" data-county="Livingston" d="M349.5,276.8L347.4,280.2L342.2,282.9L343.6,285.1L342.6,288.9L344.0,290.7L341.9,294.7L347.0,303.8L351.5,305.9L357.3,308.4L357.7,310.9L363.2,316.0L364.9,315.8L368.0,320.7L370.4,322.1L374.5,316.7L376.2,317.7L383.8,320.2L387.9,316.9L390.3,312.4L390.0,304.9L386.9,299.3L384.5,297.7L382.4,292.3L382.4,276.7L349.5,276.8Z"/>
    <path class="wtc-county" id="wtc-county-madison" data-county="Madison" d="M338.1,136.1L340.5,132.5L335.4,130.5L336.1,135.6L338.1,136.1ZM295.5,108.7L297.9,112.3L294.5,112.5L295.9,117.2L290.7,118.8L291.1,123.3L289.7,128.1L293.8,128.1L310.3,128.2L315.1,125.5L318.5,127.4L323.4,124.1L328.2,123.7L329.2,127.3L335.0,126.6L337.4,124.4L342.2,126.9L344.0,123.5L343.3,119.1L347.4,119.8L352.9,113.3L351.5,111.8L349.5,115.1L341.6,113.7L341.6,108.9L344.3,107.3L341.6,104.4L338.1,106.1L330.2,102.0L331.3,97.3L333.0,97.2L338.8,101.1L342.2,100.5L340.5,98.4L333.7,95.2L334.3,93.7L330.6,93.7L328.2,96.1L297.3,96.1L294.5,100.2L295.5,108.7Z"/>
    <path class="wtc-county" id="wtc-county-morehouse" data-county="Morehouse" d="M238.9,51.1L237.2,55.2L237.2,63.2L239.9,67.4L239.2,78.4L239.9,80.7L247.8,79.5L252.6,85.8L250.9,91.3L254.7,98.2L253.6,99.2L256.0,95.5L260.9,97.9L260.9,95.5L263.9,92.9L269.4,94.2L273.6,88.9L276.6,89.0L280.1,83.7L279.7,80.3L283.9,75.9L283.2,72.2L287.0,65.7L292.1,63.5L299.3,51.3L296.9,51.3L238.9,51.1Z"/>
    <path class="wtc-county" id="wtc-county-natchitoches" data-county="Natchitoches" d="M107.3,162.4L107.3,174.8L117.3,174.8L117.3,191.8L126.9,191.7L126.9,208.4L150.3,208.7L151.3,210.0L154.7,210.0L162.0,203.1L167.4,201.0L176.4,193.7L168.8,186.1L158.5,183.6L158.9,180.1L153.0,178.2L152.3,175.4L152.7,168.4L155.4,163.8L154.7,161.2L158.5,161.9L160.9,149.4L158.9,139.8L155.4,133.4L131.7,133.3L135.2,137.5L133.8,138.6L136.5,142.1L134.5,146.7L137.9,150.2L126.9,150.2L126.2,156.1L122.8,158.3L116.3,157.3L115.6,154.1L107.3,155.8L107.3,162.4Z"/>
    <path class="wtc-county" id="wtc-county-orleans" data-county="Orleans" d="M426.4,323.1L424.7,341.5L423.3,346.7L426.4,347.7L430.2,346.5L431.2,344.2L436.0,348.9L442.9,349.2L445.3,351.6L443.5,346.5L439.4,346.1L435.6,344.1L437.7,339.9L441.1,340.7L446.6,338.7L450.4,339.1L454.2,334.8L463.8,336.2L462.8,332.9L466.9,331.7L467.6,328.5L472.7,324.4L466.9,322.1L464.1,323.4L461.1,321.9L458.0,323.6L453.8,321.6L445.9,319.9L432.9,324.0L426.4,323.1Z"/>
    <path class="wtc-county" id="wtc-county-ouachita" data-county="Ouachita" d="M205.6,100.1L205.6,108.5L215.5,116.8L215.5,121.0L229.6,121.1L230.6,122.8L235.1,122.8L235.1,121.1L242.0,121.0L244.4,112.8L246.8,107.9L250.5,104.6L253.6,99.2L254.7,98.2L250.9,91.3L252.6,85.8L247.8,79.5L239.9,80.7L239.2,78.4L236.8,81.7L224.1,89.1L223.8,91.1L219.3,92.0L205.6,91.8L205.6,100.1Z"/>
    <path class="wtc-county" id="wtc-county-plaquemines" data-county="Plaquemines" d="M472.4,383.4L475.1,386.0L478.2,382.5L472.4,383.4ZM436.0,348.9L433.9,353.0L430.2,355.3L430.2,363.9L435.3,370.1L436.3,374.9L438.0,375.5L437.7,382.1L438.7,383.5L438.7,391.6L440.5,393.4L443.2,402.4L445.9,406.4L451.8,404.1L471.0,406.8L474.5,410.5L486.1,414.0L490.9,420.4L495.1,422.7L500.5,420.4L501.9,415.3L505.4,417.2L505.7,421.4L502.6,423.3L502.6,427.7L499.5,429.5L497.8,433.4L494.7,435.8L492.3,441.3L497.5,437.9L508.1,426.6L510.9,427.9L511.5,432.4L518.8,435.4L518.1,431.8L522.2,423.9L526.0,425.9L528.7,421.6L523.2,421.3L523.9,418.6L532.1,417.4L529.7,414.0L523.6,416.3L521.5,415.3L521.5,410.4L513.3,401.3L509.5,404.9L502.6,397.4L501.6,399.9L496.1,397.1L488.5,396.9L486.8,395.2L483.7,397.7L481.3,393.9L481.7,391.1L477.5,389.1L477.9,387.3L471.0,386.4L467.2,383.4L466.9,380.7L471.0,379.5L466.9,376.9L466.9,374.8L474.8,378.8L474.8,376.2L468.6,373.0L473.8,373.5L476.5,372.1L481.3,372.5L485.8,375.2L481.3,370.5L477.9,371.0L472.4,369.5L466.9,366.1L463.5,362.1L456.6,361.7L454.2,357.9L450.1,358.7L445.3,351.6L442.9,349.2L436.0,348.9Z"/>
    <path class="wtc-county" id="wtc-county-pointe-coupee" data-county="Pointe Coupee" d="M269.1,241.4L263.9,245.9L263.9,256.3L262.9,257.8L263.6,261.3L267.4,263.8L270.8,271.6L270.8,275.1L268.8,285.1L270.8,290.1L268.8,291.3L273.9,291.3L285.2,291.3L287.6,292.7L294.5,291.3L294.8,290.0L301.4,290.0L303.1,284.5L306.2,282.6L311.3,276.7L309.3,275.9L305.2,266.5L297.9,268.5L288.0,269.0L284.2,265.6L289.4,263.2L291.4,257.4L291.1,253.8L288.3,251.2L282.1,251.1L287.0,254.4L287.6,257.7L281.5,258.5L277.7,256.9L279.4,250.1L277.7,246.0L278.0,243.8L275.3,241.5L269.1,241.4Z"/>
    <path class="wtc-county" id="wtc-county-rapides" data-county="Rapides" d="M151.3,210.0L153.0,211.4L161.3,212.8L161.3,215.6L166.1,219.1L166.1,242.2L166.4,253.8L188.0,253.2L196.6,253.2L199.4,251.0L199.4,247.8L209.0,243.2L213.8,246.8L218.6,246.6L225.5,246.8L223.1,232.1L223.1,212.5L226.9,211.3L229.6,214.2L233.4,214.0L237.2,211.2L237.5,208.3L231.0,204.5L229.9,198.5L226.5,197.5L216.2,199.3L185.0,205.8L182.2,206.1L177.7,200.1L179.1,198.1L176.4,193.7L167.4,201.0L162.0,203.1L154.7,210.0L151.3,210.0Z"/>
    <path class="wtc-county" id="wtc-county-red-river" data-county="Red River" d="M90.9,124.8L92.9,127.9L99.5,130.1L100.8,134.9L97.7,137.5L103.6,142.1L103.6,144.5L107.3,148.5L110.8,148.7L115.6,154.1L116.3,157.3L122.8,158.3L126.2,156.1L126.9,150.2L137.9,150.2L134.5,146.7L136.5,142.1L133.8,138.6L135.2,137.5L131.7,133.3L129.3,129.1L129.3,125.0L108.7,125.0L104.6,124.9L90.9,124.8Z"/>
    <path class="wtc-county" id="wtc-county-richland" data-county="Richland" d="M253.6,99.2L250.5,104.6L246.8,107.9L244.4,112.8L242.0,121.0L246.1,121.1L244.7,125.6L247.5,126.8L247.1,131.6L255.4,131.9L255.4,133.0L261.5,130.2L262.6,127.1L266.7,124.3L268.1,115.5L271.8,115.7L274.2,112.2L280.4,108.8L295.5,108.7L294.5,100.2L297.3,96.1L299.7,93.9L298.3,91.8L283.9,91.8L283.9,83.7L280.1,83.7L276.6,89.0L273.6,88.9L269.4,94.2L263.9,92.9L260.9,95.5L260.9,97.9L256.0,95.5L253.6,99.2Z"/>
    <path class="wtc-county" id="wtc-county-sabine" data-county="Sabine" d="M65.5,162.4L65.8,164.6L70.9,169.1L70.3,171.9L73.0,176.5L70.6,179.9L71.6,183.6L69.9,187.2L74.4,192.8L78.8,193.3L79.9,196.1L77.8,198.4L82.6,201.3L82.3,203.9L85.0,205.2L86.1,209.2L84.0,213.6L88.1,217.4L90.2,217.3L92.2,226.4L96.7,225.5L96.7,220.5L98.4,216.8L107.3,216.8L112.2,208.4L126.9,208.4L126.9,191.7L117.3,191.8L117.3,174.8L107.3,174.8L107.3,162.4L65.5,162.4Z"/>
    <path class="wtc-county" id="wtc-county-st-bernard" data-county="St. Bernard" d="M543.8,333.8L547.9,342.5L548.3,346.3L546.9,354.5L544.2,361.9L545.5,362.2L549.0,353.5L550.0,345.2L548.3,339.0L543.8,333.8ZM499.5,333.2L500.2,335.0L506.0,335.9L509.5,335.0L510.5,338.9L515.7,334.8L511.2,332.1L510.5,329.8L515.0,324.6L514.3,323.4L503.3,330.1L499.5,333.2ZM450.4,339.1L446.6,338.7L441.1,340.7L437.7,339.9L435.6,344.1L439.4,346.1L443.5,346.5L445.3,351.6L450.1,358.7L454.2,357.9L456.6,361.7L463.5,362.1L466.9,366.1L472.4,369.5L477.9,371.0L481.3,370.5L482.0,365.0L485.8,365.1L487.8,372.2L490.9,371.8L491.3,363.6L495.4,359.1L500.2,360.0L503.3,362.2L505.7,357.3L501.9,359.1L497.5,353.7L508.1,351.9L509.1,349.5L501.6,349.7L505.7,346.1L510.2,346.1L511.5,341.5L506.0,339.5L502.3,346.2L497.1,347.4L496.1,342.4L490.9,341.0L490.9,338.2L496.8,335.4L496.8,333.6L492.3,334.1L486.1,331.3L485.1,335.0L476.9,339.4L477.5,340.5L475.8,348.8L473.8,351.1L469.3,352.1L464.1,350.5L461.4,347.7L462.8,342.8L458.3,344.9L454.2,345.2L451.4,343.2L450.4,339.1Z"/>
    <path class="wtc-county" id="wtc-county-st-charles" data-county="St. Charles" d="M412.0,323.3L405.4,324.5L403.4,327.4L397.9,330.9L393.8,335.7L391.0,335.4L385.2,337.6L384.1,341.9L385.9,341.9L385.9,349.9L390.7,353.5L391.0,356.8L395.5,360.3L401.0,361.9L402.0,366.9L403.7,368.2L414.7,368.4L420.5,356.2L413.7,352.1L410.9,348.0L409.9,341.9L409.9,334.2L412.0,323.3Z"/>
    <path class="wtc-county" id="wtc-county-st-helena" data-county="St. Helena" d="M355.3,270.1L349.5,276.8L382.4,276.7L382.4,243.2L357.7,243.3L354.3,248.7L355.6,253.9L354.6,256.7L356.7,261.1L355.3,270.1Z"/>
    <path class="wtc-county" id="wtc-county-st-james" data-county="St. James" d="M344.6,332.6L345.0,341.0L348.1,341.0L348.1,345.1L351.9,345.1L351.9,347.9L361.5,347.8L361.5,346.4L370.7,348.0L373.8,349.5L372.8,340.7L370.7,335.4L373.5,334.1L372.5,329.9L374.2,329.7L375.2,323.0L349.1,328.1L344.6,332.6Z"/>
    <path class="wtc-county" id="wtc-county-st-john-the-baptist" data-county="St. John the Baptist" d="M375.2,323.0L374.2,329.7L372.5,329.9L373.5,334.1L370.7,335.4L372.8,340.7L373.8,349.5L376.6,348.9L385.9,349.9L385.9,341.9L384.1,341.9L385.2,337.6L391.0,335.4L393.8,335.7L397.9,330.9L403.4,327.4L405.4,324.5L412.0,323.3L421.6,320.7L421.2,316.5L407.8,310.7L390.3,312.4L387.9,316.9L383.8,320.2L376.2,317.7L375.2,323.0Z"/>
    <path class="wtc-county" id="wtc-county-st-landry" data-county="St. Landry" d="M225.1,257.7L225.5,263.9L228.9,265.4L228.9,274.5L225.1,280.2L225.1,284.6L220.3,284.6L220.3,287.4L205.6,287.4L201.4,288.4L200.8,291.5L198.0,293.0L222.0,293.0L222.0,297.1L228.6,297.1L228.6,305.4L231.7,310.3L236.8,307.3L237.5,304.4L240.6,302.4L242.3,304.4L246.4,303.6L247.5,299.9L251.2,301.1L257.8,299.0L263.3,301.2L276.0,301.2L268.8,291.3L270.8,290.1L268.8,285.1L270.8,275.1L270.8,271.6L267.4,263.8L263.6,261.3L262.9,257.8L225.1,257.7Z"/>
    <path class="wtc-county" id="wtc-county-st-martin" data-county="St. Martin" d="M295.9,343.1L301.4,348.0L305.2,354.8L304.1,359.6L307.2,361.3L320.3,362.7L323.7,364.9L328.2,365.3L331.6,367.7L332.3,357.9L328.2,354.4L323.0,353.4L320.6,347.8L316.5,341.6L295.9,343.1ZM268.8,291.3L276.0,301.2L263.3,301.2L257.8,299.0L251.2,301.1L247.5,299.9L246.4,303.6L249.9,304.5L248.5,307.8L250.2,312.4L247.5,314.0L250.9,316.3L247.5,318.7L247.1,321.5L253.0,320.9L254.3,324.1L249.9,331.9L257.1,332.4L262.6,334.7L268.1,330.2L267.7,328.5L273.6,327.3L277.7,328.4L282.5,332.4L283.5,335.7L292.4,335.7L294.5,333.3L305.8,333.3L303.8,329.1L296.6,329.1L295.5,317.0L287.3,315.7L281.5,309.2L279.7,296.6L273.9,291.3L268.8,291.3Z"/>
    <path class="wtc-county" id="wtc-county-st-mary" data-county="St. Mary" d="M258.8,364.1L259.1,366.8L266.0,363.7L270.5,362.9L281.5,364.2L281.1,371.2L279.1,373.9L288.0,374.0L290.0,383.7L293.5,383.0L296.9,389.6L306.9,385.5L310.3,388.8L307.2,391.1L306.2,394.3L309.6,393.7L308.9,397.1L313.4,396.0L318.2,392.7L314.8,388.7L315.1,383.2L318.2,382.1L320.9,378.0L324.0,376.2L325.4,377.9L333.0,374.7L330.9,373.1L331.6,367.7L328.2,365.3L323.7,364.9L320.3,362.7L307.2,361.3L304.1,359.6L305.2,354.8L301.4,348.0L295.9,343.1L281.1,344.2L272.9,353.6L258.8,364.1Z"/>
    <path class="wtc-county" id="wtc-county-st-tammany" data-county="St. Tammany" d="M412.3,270.8L413.3,277.0L413.3,304.3L418.5,309.1L421.2,316.5L421.6,320.7L426.4,323.1L432.9,324.0L445.9,319.9L453.8,321.6L458.0,323.6L461.1,321.9L464.1,323.4L466.9,322.1L472.7,324.4L476.2,324.5L482.0,321.6L477.9,321.6L473.4,317.5L472.0,312.1L472.0,306.4L466.9,300.1L466.2,294.9L459.7,290.6L458.3,287.4L454.9,284.6L454.2,278.2L451.1,275.2L436.7,275.1L412.3,270.8Z"/>
    <path class="wtc-county" id="wtc-county-tangipahoa" data-county="Tangipahoa" d="M382.4,243.2L382.4,276.7L382.4,292.3L384.5,297.7L386.9,299.3L390.0,304.9L390.3,312.4L407.8,310.7L421.2,316.5L418.5,309.1L413.3,304.3L413.3,277.0L412.3,270.8L411.6,265.7L406.5,253.7L403.4,252.3L403.4,243.2L384.1,243.2L382.4,243.2Z"/>
    <path class="wtc-county" id="wtc-county-tensas" data-county="Tensas" d="M285.9,158.8L286.6,164.1L285.6,167.1L289.0,171.3L302.7,171.1L304.8,173.1L310.6,171.9L316.1,170.4L306.2,169.5L308.6,161.8L312.7,160.9L313.4,164.4L315.8,165.8L317.5,163.5L315.1,161.0L317.2,160.0L323.7,155.4L323.0,151.3L325.4,149.2L331.9,148.1L331.9,143.9L325.4,141.8L327.1,139.8L331.6,143.0L333.3,140.0L338.1,136.6L338.1,136.1L336.1,135.6L325.1,134.7L325.8,128.2L329.2,127.3L328.2,123.7L323.4,124.1L318.5,127.4L315.1,125.5L310.3,128.2L293.8,128.1L292.8,133.6L294.2,139.0L292.1,145.6L293.5,148.5L290.4,151.4L292.1,154.2L285.9,158.8Z"/>
    <path class="wtc-county" id="wtc-county-terrebonne" data-county="Terrebonne" d="M383.1,425.6L390.0,429.0L396.5,428.3L383.1,425.6ZM364.9,429.2L365.2,430.7L374.2,429.1L373.5,427.7L364.9,429.2ZM318.2,392.7L320.3,393.2L320.3,396.7L328.2,401.9L329.5,410.5L324.4,409.1L324.7,403.5L322.3,405.3L318.2,401.0L315.5,400.1L313.0,404.8L308.9,406.0L314.4,410.9L319.9,413.0L328.5,413.9L331.9,416.7L340.9,418.4L344.6,417.3L350.8,422.0L355.3,427.5L353.6,429.2L359.1,430.5L361.1,424.3L367.7,421.6L370.4,422.6L372.1,417.9L374.9,418.5L376.2,414.0L378.6,411.8L382.8,412.1L379.3,407.0L381.4,404.7L383.8,407.3L386.2,405.5L391.0,406.6L395.5,401.4L398.9,406.0L398.6,409.6L400.3,410.1L400.6,407.4L399.9,399.6L396.5,397.3L392.0,391.3L388.3,388.9L381.7,381.1L377.3,377.4L373.8,376.5L369.0,371.0L363.2,368.0L359.1,360.4L356.3,363.1L352.2,363.2L352.5,366.0L340.5,366.2L333.0,374.7L325.4,377.9L324.0,376.2L320.9,378.0L318.2,382.1L315.1,383.2L314.8,388.7L318.2,392.7Z"/>
    <path class="wtc-county" id="wtc-county-union" data-county="Union" d="M176.0,50.5L176.0,74.9L184.3,74.9L190.8,75.9L193.2,78.8L195.6,78.6L195.6,83.4L205.6,83.5L205.6,91.8L219.3,92.0L223.8,91.1L224.1,89.1L236.8,81.7L239.2,78.4L239.9,67.4L237.2,63.2L237.2,55.2L238.9,51.1L176.0,50.5Z"/>
    <path class="wtc-county" id="wtc-county-vermilion" data-county="Vermilion" d="M185.6,330.1L174.7,335.4L186.3,335.3L186.7,360.5L186.3,378.5L214.5,383.7L221.4,383.0L230.3,378.9L241.3,378.4L239.2,376.8L243.7,375.6L242.0,374.2L235.1,375.9L232.3,370.7L235.4,368.2L229.3,367.6L226.2,365.1L226.2,362.5L232.3,361.2L234.4,363.8L239.2,361.0L247.5,358.1L248.1,354.8L246.1,340.4L248.8,335.4L238.9,331.8L236.8,326.7L233.0,327.8L225.8,325.3L217.9,324.8L209.3,332.6L204.9,334.2L197.0,331.3L192.2,327.8L185.6,330.1Z"/>
    <path class="wtc-county" id="wtc-county-vernon" data-county="Vernon" d="M96.7,225.5L98.8,225.6L96.7,233.9L99.5,236.5L100.1,240.9L95.7,242.7L95.3,245.4L99.5,249.9L96.4,251.7L96.4,255.8L99.8,254.7L103.9,256.7L108.0,254.6L134.8,254.4L136.9,254.9L151.6,254.9L166.4,255.1L166.4,253.8L166.1,242.2L166.1,219.1L161.3,215.6L161.3,212.8L153.0,211.4L151.3,210.0L150.3,208.7L126.9,208.4L112.2,208.4L107.3,216.8L98.4,216.8L96.7,220.5L96.7,225.5Z"/>
    <path class="wtc-county" id="wtc-county-washington" data-county="Washington" d="M403.4,243.2L403.4,252.3L406.5,253.7L411.6,265.7L412.3,270.8L436.7,275.1L451.1,275.2L451.4,271.3L454.2,268.4L452.8,265.4L455.2,263.4L458.3,253.1L460.7,251.5L460.4,247.8L462.8,246.0L462.8,243.0L452.5,243.1L412.0,243.1L403.4,243.2Z"/>
    <path class="wtc-county" id="wtc-county-webster" data-county="Webster" d="M99.8,50.1L98.8,54.2L100.8,58.1L103.6,58.9L106.3,68.9L104.3,72.6L107.0,74.7L107.0,99.9L107.3,108.3L113.9,108.3L126.9,108.4L126.9,104.1L135.5,104.0L133.1,97.2L132.4,91.6L133.1,86.9L131.7,79.0L126.9,79.0L126.9,50.2L102.9,50.1L99.8,50.1Z"/>
    <path class="wtc-county" id="wtc-county-west-baton-rouge" data-county="West Baton Rouge" d="M309.3,275.9L311.3,276.7L306.2,282.6L303.1,284.5L301.4,290.0L294.8,290.0L294.5,291.3L299.7,295.5L303.1,299.8L310.3,306.0L311.3,308.1L327.5,308.0L324.4,305.9L318.5,305.9L318.5,303.0L322.3,296.8L320.9,288.8L315.8,290.6L313.7,289.6L317.5,287.6L315.5,284.2L311.7,284.1L312.4,276.8L311.3,276.4L309.3,275.9Z"/>
    <path class="wtc-county" id="wtc-county-west-carroll" data-county="West Carroll" d="M299.3,51.3L292.1,63.5L287.0,65.7L283.2,72.2L283.9,75.9L279.7,80.3L280.1,83.7L283.9,83.7L283.9,91.8L298.3,91.8L303.1,89.2L302.7,81.2L307.9,75.2L308.6,65.0L311.3,62.4L311.3,58.0L314.1,56.6L315.8,51.4L299.3,51.3Z"/>
    <path class="wtc-county" id="wtc-county-west-feliciana" data-county="West Feliciana" d="M280.1,243.3L277.7,246.0L279.4,250.1L277.7,256.9L281.5,258.5L287.6,257.7L287.0,254.4L282.1,251.1L288.3,251.2L291.1,253.8L291.4,257.4L289.4,263.2L284.2,265.6L288.0,269.0L297.9,268.5L305.2,266.5L309.3,275.9L311.3,276.4L310.3,272.0L313.0,270.4L314.4,266.3L318.5,262.8L318.5,260.0L323.0,249.3L324.0,243.3L280.1,243.3ZM271.8,239.0L269.1,241.4L275.3,241.5L278.0,243.8L278.0,239.0L271.8,239.0Z"/>
    <path class="wtc-county" id="wtc-county-winn" data-county="Winn" d="M155.4,133.4L158.9,139.8L160.9,149.4L158.5,161.9L154.7,161.2L155.4,163.8L152.7,168.4L152.3,175.4L186.0,175.3L186.0,167.0L210.7,167.0L215.5,157.5L215.5,154.5L215.5,133.6L167.4,133.5L155.4,133.4Z"/>
  </g>
</svg>