<?xml version="1.0" encoding="UTF-8"?>
<svg xmlns="http://www.w3.org/2000/svg" viewBox="0 0 600 198" id="wtc-state-map-TN" role="img" aria-label="tn county map">
  <title>tn Counties</title>
  <g class="wtc-counties">
    <path class="wtc-county" id="wtc-county-anderson" data-county="Anderson" d="M388.8,79.7L388.2,81.0L390.0,82.9L392.3,83.7L394.4,86.4L395.6,89.6L398.5,94.3L398.5,92.6L400.6,93.1L402.9,89.6L405.6,89.9L410.8,87.0L408.9,84.9L417.6,78.4L415.9,77.0L413.9,73.6L412.4,71.7L410.1,75.8L408.3,76.2L401.0,75.0L400.6,78.9L396.9,76.4L392.7,76.6L390.9,79.1L388.8,79.7Z"/>
    <path class="wtc-county" id="wtc-county-bedford" data-county="Bedford" d="M261.8,107.3L260.3,118.5L260.7,121.8L263.0,125.7L264.0,125.8L268.4,126.4L270.5,126.0L271.3,127.4L274.4,128.5L275.0,126.9L277.3,126.8L283.9,123.1L284.8,117.8L284.6,110.4L279.0,108.5L274.8,110.9L274.2,109.2L270.3,108.9L269.0,107.1L262.0,106.4L261.8,107.3Z"/>
    <path class="wtc-county" id="wtc-county-benton" data-county="Benton" d="M171.0,82.2L170.8,98.0L173.1,98.1L181.6,98.4L181.6,100.1L184.9,99.8L185.5,98.4L186.8,96.9L187.6,92.9L182.6,92.3L182.0,91.1L183.2,87.5L188.0,81.6L188.2,79.9L186.1,75.1L185.9,71.1L184.5,68.7L183.9,68.3L177.8,68.4L177.4,71.2L178.5,74.2L175.4,76.5L173.1,80.6L171.0,82.2Z"/>
    <path class="wtc-county" id="wtc-county-bledsoe" data-county="Bledsoe" d="M332.0,114.1L331.4,115.7L333.3,118.5L338.2,122.8L343.4,126.4L346.7,120.6L348.6,120.4L349.8,119.4L348.0,118.5L350.7,116.1L350.2,113.9L353.8,111.2L361.2,102.9L360.6,102.5L354.8,103.8L354.2,102.3L341.8,102.7L341.1,105.2L332.0,114.1Z"/>
    <path class="wtc-county" id="wtc-county-blount" data-county="Blount" d="M403.3,111.6L406.6,113.6L408.7,113.7L409.5,115.7L414.5,115.0L413.7,117.1L417.8,118.7L416.6,120.1L417.0,120.3L419.2,119.4L420.9,117.1L424.2,116.7L427.3,114.4L433.8,114.0L433.8,107.0L431.3,105.8L426.1,95.7L422.8,98.3L419.5,98.0L417.4,96.3L412.6,96.3L413.7,98.2L409.5,97.8L406.4,98.7L405.8,100.9L404.5,100.4L403.9,102.5L405.4,103.2L404.3,105.7L406.6,108.8L403.3,111.6Z"/>
    <path class="wtc-county" id="wtc-county-bradley" data-county="Bradley" d="M359.6,130.3L356.1,136.3L355.0,139.0L356.9,144.9L358.7,146.0L357.7,147.6L367.4,147.6L369.3,147.6L371.8,142.2L371.0,141.9L373.9,136.9L373.7,133.0L372.0,132.2L369.1,128.8L364.5,126.7L360.6,130.2L359.6,130.3Z"/>
    <path class="wtc-county" id="wtc-county-campbell" data-county="Campbell" d="M399.2,55.0L399.8,58.3L397.7,60.1L395.2,59.8L394.0,62.2L394.8,66.8L395.2,72.7L392.5,74.2L392.7,76.6L396.9,76.4L400.6,78.9L401.0,75.0L408.3,76.2L410.1,75.8L412.4,71.7L413.9,73.6L415.7,71.9L415.9,68.7L417.0,66.0L418.8,66.8L419.7,64.9L418.6,64.5L415.1,56.8L414.9,55.1L401.0,55.0L399.2,55.0Z"/>
    <path class="wtc-county" id="wtc-county-cannon" data-county="Cannon" d="M290.0,91.8L290.6,94.1L288.9,95.8L287.9,102.8L286.8,106.2L290.4,108.7L296.6,109.8L299.7,108.8L298.9,105.8L303.6,99.4L305.3,98.4L305.1,97.4L298.9,91.9L297.8,91.4L293.9,91.2L290.0,91.8Z"/>
    <path class="wtc-county" id="wtc-county-carroll" data-county="Carroll" d="M143.2,85.6L142.6,100.9L142.4,101.2L148.2,101.3L150.5,99.3L172.9,99.7L173.1,98.1L170.8,98.0L171.0,82.2L171.0,80.7L152.6,80.4L152.6,82.5L145.5,82.4L145.5,85.5L143.2,85.6Z"/>
    <path class="wtc-county" id="wtc-county-carter" data-county="Carter" d="M512.3,66.3L512.3,67.8L510.0,74.5L511.3,74.2L514.8,75.7L514.2,77.0L516.4,78.2L516.8,80.1L521.2,80.5L522.0,83.0L524.9,83.1L528.0,81.6L533.6,73.9L530.7,72.5L529.5,69.9L527.8,69.9L526.2,68.0L531.6,62.4L532.6,61.9L530.5,59.8L527.4,61.1L518.7,66.1L515.2,64.9L512.3,66.3Z"/>
    <path class="wtc-county" id="wtc-county-cheatham" data-county="Cheatham" d="M234.0,62.8L232.3,65.1L230.7,64.7L224.9,68.7L224.5,70.6L227.0,70.5L232.1,71.5L231.9,73.5L229.9,74.8L231.5,75.5L230.1,76.9L232.3,79.0L231.5,80.3L230.5,86.3L237.9,86.6L238.8,83.7L241.0,81.7L241.9,76.1L246.4,68.0L246.0,67.1L241.7,67.9L240.6,66.5L234.0,62.8Z"/>
    <path class="wtc-county" id="wtc-county-chester" data-county="Chester" d="M134.7,122.2L134.7,124.7L137.4,127.9L138.1,132.6L141.8,132.6L143.5,129.0L144.9,128.5L146.4,126.0L150.5,124.8L162.3,124.9L162.5,122.7L162.3,118.4L159.4,119.0L154.0,117.3L151.7,115.2L150.7,113.0L147.8,112.9L147.8,114.0L144.3,118.6L136.2,122.2L134.7,122.2Z"/>
    <path class="wtc-county" id="wtc-county-claiborne" data-county="Claiborne" d="M414.9,55.1L415.1,56.8L418.6,64.5L419.7,64.9L422.2,64.1L423.8,64.9L425.5,64.0L427.7,66.1L429.6,69.2L431.7,68.1L433.3,69.3L436.4,69.2L437.7,68.0L442.0,68.5L443.3,67.3L446.0,67.6L446.6,65.3L449.5,65.3L450.5,62.6L448.9,58.3L444.7,54.7L432.9,54.5L432.1,55.5L418.2,55.3L414.9,55.1Z"/>
    <path class="wtc-county" id="wtc-county-clay" data-county="Clay" d="M310.9,53.3L309.4,60.3L312.1,59.3L315.9,59.0L316.3,60.5L323.3,62.0L327.9,65.9L328.7,62.9L330.8,60.4L333.9,60.0L337.0,58.7L340.1,58.5L341.1,56.1L340.5,53.0L339.5,53.0L331.2,53.5L328.3,53.7L310.9,53.3Z"/>
    <path class="wtc-county" id="wtc-county-cocke" data-county="Cocke" d="M454.1,95.2L454.1,96.6L456.8,99.5L455.3,101.0L456.1,102.5L455.9,105.7L457.2,105.6L461.3,104.8L463.0,102.8L467.3,101.3L472.3,102.2L474.2,101.2L475.0,99.3L477.7,96.5L477.1,93.4L477.9,92.4L466.1,82.2L461.9,80.1L462.3,78.7L461.3,79.0L461.7,81.8L459.4,80.5L457.8,82.0L458.4,84.3L456.8,89.3L455.9,88.7L454.7,94.8L454.1,95.2Z"/>
    <path class="wtc-county" id="wtc-county-coffee" data-county="Coffee" d="M283.9,123.1L282.5,124.5L284.6,126.8L283.7,127.6L289.5,126.0L296.6,127.1L298.7,128.7L300.1,128.6L303.8,130.2L304.2,127.8L305.7,126.8L305.1,121.3L305.9,116.7L301.8,113.8L301.3,111.1L299.7,108.8L296.6,109.8L290.4,108.7L286.8,106.2L284.6,107.1L284.6,110.4L284.8,117.8L283.9,123.1Z"/>
    <path class="wtc-county" id="wtc-county-crockett" data-county="Crockett" d="M105.7,96.0L104.9,99.7L107.6,102.3L109.9,103.3L115.7,104.4L118.8,106.5L121.5,106.9L124.4,108.2L131.6,101.6L130.4,100.9L127.5,99.1L119.2,97.1L118.0,94.9L117.8,91.0L114.6,89.2L113.6,91.3L109.5,95.7L105.7,96.0Z"/>
    <path class="wtc-county" id="wtc-county-cumberland" data-county="Cumberland" d="M340.9,101.1L340.7,101.4L341.8,102.6L341.8,102.7L354.2,102.3L354.8,103.8L360.6,102.5L361.2,102.9L368.1,99.2L369.1,99.2L372.2,97.3L374.9,94.4L372.6,89.5L368.5,85.7L367.7,83.9L366.2,84.3L363.9,81.2L361.9,80.2L360.4,80.7L356.3,80.3L354.8,79.3L350.7,81.1L347.6,83.4L342.2,83.3L342.4,86.0L341.1,90.4L342.4,94.2L344.2,94.3L342.6,100.1L340.9,101.1Z"/>
    <path class="wtc-county" id="wtc-county-davidson" data-county="Davidson" d="M246.0,67.1L246.4,68.0L241.9,76.1L241.0,81.7L238.8,83.7L237.9,86.6L238.8,89.8L245.2,86.1L253.1,87.0L263.0,91.0L263.4,88.7L265.9,87.1L267.4,84.2L268.4,85.9L269.0,83.4L268.2,81.0L265.7,79.1L264.5,75.0L261.8,74.4L261.8,72.5L257.2,69.4L255.1,65.8L251.2,68.9L247.1,66.7L246.0,67.1Z"/>
    <path class="wtc-county" id="wtc-county-decatur" data-county="Decatur" d="M172.9,99.7L172.3,111.7L169.4,116.4L169.4,122.5L171.8,125.0L176.0,124.7L179.5,122.8L181.8,124.2L184.5,124.1L182.8,122.5L180.8,121.2L183.9,119.0L184.7,117.2L181.2,111.0L182.2,108.8L181.4,105.5L183.9,102.9L184.9,99.8L181.6,100.1L181.6,98.4L173.1,98.1L172.9,99.7Z"/>
    <path class="wtc-county" id="wtc-county-dekalb" data-county="DeKalb" d="M295.3,84.2L297.8,91.4L298.9,91.9L305.1,97.4L305.3,98.4L313.2,97.8L317.1,98.9L319.8,97.6L317.7,97.5L319.6,96.0L318.1,90.8L319.2,88.3L316.9,85.4L314.8,84.4L311.7,84.6L309.8,81.5L308.0,81.7L306.5,83.7L303.8,82.4L303.8,83.5L301.1,82.8L299.5,84.1L295.3,84.2Z"/>
    <path class="wtc-county" id="wtc-county-dickson" data-county="Dickson" d="M208.3,78.9L209.1,81.2L210.2,89.6L229.2,91.5L230.5,86.3L231.5,80.3L232.3,79.0L230.1,76.9L231.5,75.5L229.9,74.8L231.9,73.5L232.1,71.5L227.0,70.5L224.5,70.6L223.4,71.1L211.4,69.8L210.8,74.8L208.3,78.9Z"/>
    <path class="wtc-county" id="wtc-county-dyer" data-county="Dyer" d="M83.2,89.1L84.0,91.0L87.7,93.4L88.3,94.7L89.2,93.5L95.8,93.3L97.2,92.2L102.0,92.3L105.7,96.0L109.5,95.7L113.6,91.3L114.6,89.2L116.1,87.6L116.7,77.3L97.7,76.9L97.5,78.3L89.2,78.5L91.4,80.5L90.8,82.3L86.3,84.3L85.6,88.0L83.2,89.1Z"/>
    <path class="wtc-county" id="wtc-county-fayette" data-county="Fayette" d="M89.0,125.2L88.3,147.2L105.1,147.3L114.0,147.2L114.2,146.2L114.9,123.9L98.3,123.6L91.0,124.1L89.0,125.2Z"/>
    <path class="wtc-county" id="wtc-county-fentress" data-county="Fentress" d="M349.4,65.7L349.4,71.6L351.7,77.8L349.6,80.8L350.7,81.1L354.8,79.3L356.3,80.3L360.4,80.7L361.9,80.2L361.4,77.1L363.1,75.3L363.7,72.7L368.1,72.0L368.9,70.3L371.6,69.6L372.4,67.5L373.7,67.8L376.2,66.4L374.3,64.0L372.0,58.9L368.9,58.9L364.3,56.2L359.8,55.6L354.2,57.2L351.3,60.3L350.5,65.5L349.4,65.7Z"/>
    <path class="wtc-county" id="wtc-county-franklin" data-county="Franklin" d="M283.7,127.6L283.9,129.8L281.2,133.3L280.4,139.6L280.4,147.4L280.8,147.4L306.5,147.6L306.7,134.2L306.1,134.0L303.8,130.2L300.1,128.6L298.7,128.7L296.6,127.1L289.5,126.0L283.7,127.6Z"/>
    <path class="wtc-county" id="wtc-county-gibson" data-county="Gibson" d="M116.7,77.3L116.1,87.6L114.6,89.2L117.8,91.0L118.0,94.9L119.2,97.1L127.5,99.1L130.4,100.9L142.4,101.2L142.6,100.9L143.2,85.6L139.1,82.7L134.7,82.0L131.6,79.0L127.9,76.3L127.7,77.5L116.7,77.3Z"/>
    <path class="wtc-county" id="wtc-county-giles" data-county="Giles" d="M229.0,121.9L228.6,124.9L228.6,133.8L228.2,136.9L229.7,137.5L228.6,139.8L228.0,146.9L228.8,147.0L250.4,147.4L251.0,131.7L250.0,128.4L249.1,129.6L246.4,128.8L245.4,123.6L243.3,122.8L241.5,123.3L239.2,122.0L233.6,120.6L231.7,121.8L229.0,121.9Z"/>
    <path class="wtc-county" id="wtc-county-grainger" data-county="Grainger" d="M429.6,79.7L431.5,82.8L433.3,84.5L432.9,81.9L435.6,83.1L435.2,80.8L437.1,81.2L437.5,79.7L440.8,78.7L444.9,79.1L446.0,76.6L453.0,72.0L455.9,73.9L457.2,72.5L455.7,66.4L451.6,64.9L449.5,65.3L446.6,65.3L446.0,67.6L443.3,67.3L442.0,68.5L437.7,68.0L436.4,69.2L433.3,69.3L431.3,73.4L431.5,77.2L429.6,79.7Z"/>
    <path class="wtc-county" id="wtc-county-greene" data-county="Greene" d="M462.3,78.7L461.9,80.1L466.1,82.2L477.9,92.4L480.6,92.2L482.2,93.7L486.4,88.8L493.2,85.4L494.9,86.8L496.3,84.6L495.3,83.6L492.2,80.7L493.2,65.0L489.1,65.5L482.7,68.2L481.2,67.8L476.9,70.2L475.6,69.8L472.5,72.5L470.0,73.2L467.1,75.2L463.8,78.3L462.3,78.7Z"/>
    <path class="wtc-county" id="wtc-county-grundy" data-county="Grundy" d="M303.8,130.2L306.1,134.0L309.0,132.9L313.8,134.5L316.5,133.1L315.4,130.2L318.5,129.3L324.1,128.5L327.2,126.2L328.5,123.4L325.6,122.0L325.6,118.8L321.4,116.2L315.9,116.4L309.0,117.7L305.9,116.7L305.1,121.3L305.7,126.8L304.2,127.8L303.8,130.2Z"/>
    <path class="wtc-county" id="wtc-county-hamblen" data-county="Hamblen" d="M457.2,72.5L455.9,73.9L453.0,72.0L446.0,76.6L444.9,79.1L445.4,80.2L450.3,80.3L456.1,81.6L458.4,84.3L457.8,82.0L459.4,80.5L461.7,81.8L461.3,79.0L462.3,78.7L463.8,78.3L467.1,75.2L464.2,72.1L462.6,69.2L459.4,72.2L457.2,72.5Z"/>
    <path class="wtc-county" id="wtc-county-hamilton" data-county="Hamilton" d="M329.1,147.8L335.5,147.8L341.1,147.7L357.7,147.6L358.7,146.0L356.9,144.9L355.0,139.0L356.1,136.3L359.6,130.3L357.7,125.9L354.6,125.0L355.4,123.2L352.5,121.7L350.7,122.2L348.6,120.4L346.7,120.6L343.4,126.4L342.4,128.5L334.1,138.4L333.9,139.9L335.5,141.8L334.1,144.6L329.1,147.8Z"/>
    <path class="wtc-county" id="wtc-county-hancock" data-county="Hancock" d="M444.7,54.7L448.9,58.3L450.5,62.6L449.5,65.3L451.6,64.9L455.7,66.4L460.7,64.7L460.1,63.7L465.0,59.5L471.3,56.6L474.8,57.8L481.6,54.9L472.7,54.9L457.0,54.9L455.9,54.6L444.7,54.7Z"/>
    <path class="wtc-county" id="wtc-county-hardeman" data-county="Hardeman" d="M114.9,123.9L114.2,146.2L114.0,147.2L124.6,147.2L135.8,147.2L137.9,147.2L138.1,132.6L137.4,127.9L134.7,124.7L134.7,122.2L121.1,122.0L115.1,121.9L114.9,123.9Z"/>
    <path class="wtc-county" id="wtc-county-hardin" data-county="Hardin" d="M162.3,124.9L161.3,147.2L162.3,147.2L171.6,147.2L171.6,146.4L184.1,146.6L184.3,129.8L182.2,129.6L183.0,126.6L181.8,124.2L179.5,122.8L176.0,124.7L171.8,125.0L169.4,122.5L162.5,122.7L162.3,124.9Z"/>
    <path class="wtc-county" id="wtc-county-hawkins" data-county="Hawkins" d="M455.7,66.4L457.2,72.5L459.4,72.2L462.6,69.2L464.2,72.1L467.1,75.2L470.0,73.2L472.5,72.5L475.6,69.8L476.9,70.2L481.2,67.8L482.7,68.2L489.1,65.5L490.3,64.2L489.1,62.8L493.4,60.6L494.5,59.2L494.5,54.9L481.6,54.9L474.8,57.8L471.3,56.6L465.0,59.5L460.1,63.7L460.7,64.7L455.7,66.4Z"/>
    <path class="wtc-county" id="wtc-county-haywood" data-county="Haywood" d="M104.9,99.7L102.4,99.4L100.1,102.7L101.0,103.8L98.7,107.5L98.5,112.5L96.6,113.4L98.5,115.3L98.3,123.6L114.9,123.9L115.1,121.9L121.1,122.0L121.5,106.9L118.8,106.5L115.7,104.4L109.9,103.3L107.6,102.3L104.9,99.7Z"/>
    <path class="wtc-county" id="wtc-county-henderson" data-county="Henderson" d="M148.2,101.3L147.8,112.9L150.7,113.0L151.7,115.2L154.0,117.3L159.4,119.0L162.3,118.4L162.5,122.7L169.4,122.5L169.4,116.4L172.3,111.7L172.9,99.7L150.5,99.3L148.2,101.3Z"/>
    <path class="wtc-county" id="wtc-county-henry" data-county="Henry" d="M153.4,60.2L152.6,80.4L171.0,80.7L171.0,82.2L173.1,80.6L175.4,76.5L178.5,74.2L177.4,71.2L177.8,68.4L183.9,68.3L179.7,63.5L180.1,60.5L155.1,60.2L153.4,60.2Z"/>
    <path class="wtc-county" id="wtc-county-hickman" data-county="Hickman" d="M199.6,98.5L198.2,108.6L202.9,111.7L207.1,109.2L209.3,110.5L214.5,111.4L221.4,108.8L227.6,105.0L228.6,97.8L229.2,91.5L210.2,89.6L210.2,90.9L205.8,92.3L202.9,94.0L200.2,94.6L199.6,98.5Z"/>
    <path class="wtc-county" id="wtc-county-houston" data-county="Houston" d="M184.5,68.7L185.9,71.1L186.1,75.1L192.8,75.7L197.3,75.2L202.7,77.5L207.3,77.7L208.3,78.9L210.8,74.8L211.4,69.8L207.1,69.4L206.9,68.0L199.6,67.9L197.3,69.3L193.6,70.2L189.5,69.8L184.5,68.7Z"/>
    <path class="wtc-county" id="wtc-county-humphreys" data-county="Humphreys" d="M186.1,75.1L188.2,79.9L188.0,81.6L183.2,87.5L182.0,91.1L182.6,92.3L187.6,92.9L186.8,96.9L185.5,98.4L188.4,98.5L191.7,100.5L193.8,98.6L199.6,98.5L200.2,94.6L202.9,94.0L205.8,92.3L210.2,90.9L210.2,89.6L209.1,81.2L208.3,78.9L207.3,77.7L202.7,77.5L197.3,75.2L192.8,75.7L186.1,75.1Z"/>
    <path class="wtc-county" id="wtc-county-jackson" data-county="Jackson" d="M308.6,65.4L307.6,72.5L308.6,74.4L311.5,75.4L319.8,76.8L325.6,75.1L327.9,73.0L327.9,71.7L327.9,65.9L323.3,62.0L316.3,60.5L315.9,59.0L312.1,59.3L309.4,60.3L308.6,65.4Z"/>
    <path class="wtc-county" id="wtc-county-jefferson" data-county="Jefferson" d="M433.3,84.5L431.1,83.8L433.1,86.9L434.2,86.7L441.6,91.2L444.5,93.6L447.8,93.0L454.1,95.2L454.7,94.8L455.9,88.7L456.8,89.3L458.4,84.3L456.1,81.6L450.3,80.3L445.4,80.2L444.9,79.1L440.8,78.7L437.5,79.7L437.1,81.2L435.2,80.8L435.6,83.1L432.9,81.9L433.3,84.5Z"/>
    <path class="wtc-county" id="wtc-county-johnson" data-county="Johnson" d="M530.5,59.8L532.6,61.9L531.6,62.4L526.2,68.0L527.8,69.9L529.5,69.9L530.7,72.5L533.6,73.9L534.5,72.6L539.2,69.1L541.5,68.5L543.2,69.6L546.7,69.6L545.2,66.6L546.1,62.7L547.3,62.2L546.5,58.2L548.3,55.2L550.0,53.8L539.6,53.7L533.8,56.4L530.5,59.8Z"/>
    <path class="wtc-county" id="wtc-county-knox" data-county="Knox" d="M417.6,78.4L408.9,84.9L410.8,87.0L405.6,89.9L402.9,89.6L400.6,93.1L398.5,92.6L398.5,94.3L398.9,95.1L404.5,100.4L405.8,100.9L406.4,98.7L409.5,97.8L413.7,98.2L412.6,96.3L417.4,96.3L419.5,98.0L422.8,98.3L426.1,95.7L433.3,91.4L433.1,86.9L431.1,83.8L433.3,84.5L431.5,82.8L429.6,79.7L418.6,79.4L417.6,78.4Z"/>
    <path class="wtc-county" id="wtc-county-lake" data-county="Lake" d="M94.1,69.7L90.2,69.5L90.2,71.3L94.6,73.3L94.8,74.6L91.6,75.3L85.4,74.5L84.8,75.6L89.2,78.5L97.5,78.3L97.7,76.9L100.8,74.2L102.2,71.0L102.2,68.8L104.7,65.5L105.5,60.1L101.4,60.4L99.7,62.3L97.0,62.0L97.5,60.5L94.3,60.4L95.6,61.5L94.1,64.7L96.2,67.6L94.1,69.7Z"/>
    <path class="wtc-county" id="wtc-county-lauderdale" data-county="Lauderdale" d="M88.3,94.7L87.7,95.7L82.7,94.5L80.9,97.0L85.0,98.8L82.7,100.4L80.5,100.4L78.6,103.0L75.1,104.1L73.2,103.1L70.1,105.1L71.3,108.5L73.2,109.3L75.7,108.2L76.3,110.1L70.9,112.1L70.3,113.3L73.0,115.8L75.3,113.3L81.7,109.4L83.6,110.2L87.9,109.5L94.8,112.1L96.6,113.4L98.5,112.5L98.7,107.5L101.0,103.8L100.1,102.7L102.4,99.4L104.9,99.7L105.7,96.0L102.0,92.3L97.2,92.2L95.8,93.3L89.2,93.5L88.3,94.7Z"/>
    <path class="wtc-county" id="wtc-county-lawrence" data-county="Lawrence" d="M207.9,123.9L207.9,135.9L206.9,138.7L207.1,143.5L206.0,146.7L228.0,146.9L228.6,139.8L229.7,137.5L228.2,136.9L228.6,133.8L228.6,124.9L229.0,121.9L224.1,121.2L222.2,120.5L215.1,120.5L215.1,122.6L211.6,123.0L211.2,123.9L207.9,123.9Z"/>
    <path class="wtc-county" id="wtc-county-lewis" data-county="Lewis" d="M202.9,111.7L203.3,114.1L201.5,115.3L201.1,117.7L199.6,119.0L203.8,119.6L203.8,121.4L206.0,121.7L207.9,123.9L211.2,123.9L211.6,123.0L215.1,122.6L215.1,120.5L222.2,120.5L224.1,121.2L225.1,119.0L224.5,115.6L222.6,115.2L220.7,113.1L221.4,108.8L214.5,111.4L209.3,110.5L207.1,109.2L202.9,111.7Z"/>
    <path class="wtc-county" id="wtc-county-lincoln" data-county="Lincoln" d="M251.0,131.7L250.4,147.4L253.5,147.4L280.4,147.4L280.4,139.6L277.5,139.5L277.5,137.0L276.1,133.3L272.1,130.0L268.4,128.9L268.4,126.4L264.0,125.8L264.0,128.0L258.5,129.8L255.6,132.3L251.0,131.7Z"/>
    <path class="wtc-county" id="wtc-county-loudon" data-county="Loudon" d="M380.5,109.7L383.8,110.9L384.0,109.3L389.8,108.1L391.3,109.9L393.6,108.5L397.5,109.1L399.6,111.0L403.3,111.6L406.6,108.8L404.3,105.7L405.4,103.2L403.9,102.5L404.5,100.4L398.9,95.1L397.9,96.4L395.2,95.3L394.2,98.8L392.3,99.7L391.7,102.5L390.2,102.1L385.7,105.5L384.6,105.5L383.6,108.2L380.5,109.7Z"/>
    <path class="wtc-county" id="wtc-county-mcminn" data-county="McMinn" d="M364.5,126.7L369.1,128.8L372.0,132.2L373.7,133.0L375.7,131.4L384.4,131.5L385.7,130.4L388.0,128.5L391.1,127.8L390.7,123.9L389.0,122.5L388.6,120.2L383.8,110.9L380.5,109.7L378.4,109.7L372.4,116.8L371.0,117.4L369.3,120.0L367.9,120.6L364.5,126.7Z"/>
    <path class="wtc-county" id="wtc-county-mcnairy" data-county="McNairy" d="M138.1,132.6L137.9,147.2L161.3,147.2L162.3,124.9L150.5,124.8L146.4,126.0L144.9,128.5L143.5,129.0L141.8,132.6L138.1,132.6Z"/>
    <path class="wtc-county" id="wtc-county-macon" data-county="Macon" d="M286.8,52.2L285.6,61.0L287.7,61.3L289.1,63.5L299.9,64.6L308.6,65.4L309.4,60.3L310.9,53.3L300.1,52.9L286.8,52.2Z"/>
    <path class="wtc-county" id="wtc-county-madison" data-county="Madison" d="M121.5,106.9L121.1,122.0L134.7,122.2L136.2,122.2L144.3,118.6L147.8,114.0L147.8,112.9L148.2,101.3L142.4,101.2L130.4,100.9L131.6,101.6L124.4,108.2L121.5,106.9Z"/>
    <path class="wtc-county" id="wtc-county-marion" data-county="Marion" d="M306.1,134.0L306.7,134.2L306.5,147.6L321.4,147.8L329.1,147.8L334.1,144.6L335.5,141.8L333.9,139.9L334.1,138.4L333.3,134.0L330.8,131.7L324.3,129.1L324.1,128.5L318.5,129.3L315.4,130.2L316.5,133.1L313.8,134.5L309.0,132.9L306.1,134.0Z"/>
    <path class="wtc-county" id="wtc-county-marshall" data-county="Marshall" d="M253.7,106.1L251.8,106.7L251.0,113.3L249.8,116.6L245.4,120.1L243.5,120.8L243.3,122.8L245.4,123.6L246.4,128.8L249.1,129.6L250.0,128.4L251.0,131.7L255.6,132.3L258.5,129.8L264.0,128.0L264.0,125.8L263.0,125.7L260.7,121.8L260.3,118.5L261.8,107.3L259.1,105.9L253.7,106.1Z"/>
    <path class="wtc-county" id="wtc-county-maury" data-county="Maury" d="M221.4,108.8L220.7,113.1L222.6,115.2L224.5,115.6L225.1,119.0L224.1,121.2L229.0,121.9L231.7,121.8L233.6,120.6L239.2,122.0L241.5,123.3L243.3,122.8L243.5,120.8L245.4,120.1L249.8,116.6L251.0,113.3L251.8,106.7L253.7,106.1L250.0,105.0L239.0,100.9L228.6,97.8L227.6,105.0L221.4,108.8Z"/>
    <path class="wtc-county" id="wtc-county-meigs" data-county="Meigs" d="M355.4,123.2L354.6,125.0L357.7,125.9L359.6,130.3L360.6,130.2L364.5,126.7L367.9,120.6L369.3,120.0L371.0,117.4L372.4,116.8L378.4,109.7L378.4,106.0L377.4,105.1L375.3,106.3L372.4,103.4L372.4,107.1L369.1,108.0L369.1,112.5L367.4,113.3L368.3,115.0L363.7,115.1L364.5,118.2L362.5,119.0L361.6,121.3L359.6,121.5L358.3,119.9L355.4,123.2Z"/>
    <path class="wtc-county" id="wtc-county-monroe" data-county="Monroe" d="M383.8,110.9L388.6,120.2L389.0,122.5L390.7,123.9L391.1,127.8L388.0,128.5L385.7,130.4L393.6,133.4L394.4,135.1L397.3,135.0L397.5,133.9L402.1,131.5L402.7,132.8L408.5,132.6L412.6,130.0L412.0,126.7L413.9,125.4L413.0,123.2L416.6,120.1L417.8,118.7L413.7,117.1L414.5,115.0L409.5,115.7L408.7,113.7L406.6,113.6L403.3,111.6L399.6,111.0L397.5,109.1L393.6,108.5L391.3,109.9L389.8,108.1L384.0,109.3L383.8,110.9Z"/>
    <path class="wtc-county" id="wtc-county-montgomery" data-county="Montgomery" d="M204.0,52.3L206.9,68.0L207.1,69.4L211.4,69.8L223.4,71.1L224.5,70.6L224.9,68.7L230.7,64.7L232.3,65.1L234.0,62.8L234.2,57.4L233.4,56.6L234.4,52.1L221.6,52.1L204.0,52.3Z"/>
    <path class="wtc-county" id="wtc-county-moore" data-county="Moore" d="M268.4,126.4L268.4,128.9L272.1,130.0L276.1,133.3L277.5,137.0L277.5,139.5L280.4,139.6L281.2,133.3L283.9,129.8L283.7,127.6L284.6,126.8L282.5,124.5L283.9,123.1L277.3,126.8L275.0,126.9L274.4,128.5L271.3,127.4L270.5,126.0L268.4,126.4Z"/>
    <path class="wtc-county" id="wtc-county-morgan" data-county="Morgan" d="M373.7,67.8L372.4,67.5L371.6,69.6L368.9,70.3L368.1,72.0L363.7,72.7L363.1,75.3L361.4,77.1L361.9,80.2L363.9,81.2L366.2,84.3L367.7,83.9L368.5,85.7L372.6,89.5L374.9,94.4L379.3,92.4L382.2,92.0L382.8,91.0L388.4,90.0L394.4,86.4L392.3,83.7L390.0,82.9L388.2,81.0L388.8,79.7L386.9,77.4L381.3,75.5L381.1,73.8L378.8,73.6L373.7,67.8Z"/>
    <path class="wtc-county" id="wtc-county-obion" data-county="Obion" d="M105.5,60.1L104.7,65.5L102.2,68.8L102.2,71.0L100.8,74.2L97.7,76.9L116.7,77.3L127.7,77.5L127.9,76.3L128.5,65.4L132.1,66.5L136.2,65.5L135.6,60.1L135.2,60.1L125.6,60.2L108.2,59.9L105.5,60.1Z"/>
    <path class="wtc-county" id="wtc-county-overton" data-county="Overton" d="M327.9,65.9L327.9,71.7L329.9,71.6L330.4,74.1L332.2,75.5L337.6,76.6L337.8,77.6L344.7,80.4L349.6,80.8L351.7,77.8L349.4,71.6L349.4,65.7L348.0,62.8L343.6,59.4L340.1,58.5L337.0,58.7L333.9,60.0L330.8,60.4L328.7,62.9L327.9,65.9Z"/>
    <path class="wtc-county" id="wtc-county-perry" data-county="Perry" d="M184.9,99.8L183.9,102.9L181.4,105.5L182.2,108.8L181.2,111.0L184.7,117.2L183.9,119.0L180.8,121.2L182.8,122.5L183.9,120.7L194.6,118.9L199.6,119.0L201.1,117.7L201.5,115.3L203.3,114.1L202.9,111.7L198.2,108.6L199.6,98.5L193.8,98.6L191.7,100.5L188.4,98.5L185.5,98.4L184.9,99.8Z"/>
    <path class="wtc-county" id="wtc-county-pickett" data-county="Pickett" d="M340.1,58.5L343.6,59.4L348.0,62.8L349.4,65.7L350.5,65.5L351.3,60.3L354.2,57.2L359.8,55.6L364.3,56.2L368.9,58.9L372.0,58.9L368.9,54.3L357.9,53.6L340.5,53.0L341.1,56.1L340.1,58.5Z"/>
    <path class="wtc-county" id="wtc-county-polk" data-county="Polk" d="M373.7,133.0L373.9,136.9L371.0,141.9L371.8,142.2L369.3,147.6L378.4,147.6L395.6,147.6L397.3,135.0L394.4,135.1L393.6,133.4L385.7,130.4L384.4,131.5L375.7,131.4L373.7,133.0Z"/>
    <path class="wtc-county" id="wtc-county-putnam" data-county="Putnam" d="M311.5,75.4L309.8,81.5L311.7,84.6L314.8,84.4L316.9,85.4L319.2,88.3L321.2,86.5L322.5,86.8L324.1,84.9L327.2,84.4L338.6,87.3L338.4,89.6L341.1,90.4L342.4,86.0L342.2,83.3L347.6,83.4L350.7,81.1L349.6,80.8L344.7,80.4L337.8,77.6L337.6,76.6L332.2,75.5L330.4,74.1L329.9,71.6L327.9,71.7L327.9,73.0L325.6,75.1L319.8,76.8L311.5,75.4Z"/>
    <path class="wtc-county" id="wtc-county-rhea" data-county="Rhea" d="M361.2,102.9L353.8,111.2L350.2,113.9L350.7,116.1L348.0,118.5L349.8,119.4L348.6,120.4L350.7,122.2L352.5,121.7L355.4,123.2L358.3,119.9L359.6,121.5L361.6,121.3L362.5,119.0L364.5,118.2L363.7,115.1L368.3,115.0L367.4,113.3L369.1,112.5L369.1,108.0L372.4,107.1L372.4,103.4L370.6,103.4L371.6,101.9L368.7,99.9L369.1,99.2L368.1,99.2L361.2,102.9Z"/>
    <path class="wtc-county" id="wtc-county-roane" data-county="Roane" d="M369.1,99.2L368.7,99.9L371.6,101.9L370.6,103.4L372.4,103.4L375.3,106.3L377.4,105.1L378.4,106.0L378.4,109.7L380.5,109.7L383.6,108.2L384.6,105.5L385.7,105.5L390.2,102.1L391.7,102.5L392.3,99.7L394.2,98.8L395.2,95.3L397.9,96.4L398.9,95.1L398.5,94.3L395.6,89.6L394.4,86.4L388.4,90.0L382.8,91.0L382.2,92.0L379.3,92.4L374.9,94.4L372.2,97.3L369.1,99.2Z"/>
    <path class="wtc-county" id="wtc-county-robertson" data-county="Robertson" d="M234.4,52.1L233.4,56.6L234.2,57.4L234.0,62.8L240.6,66.5L241.7,67.9L246.0,67.1L247.1,66.7L251.2,68.9L255.1,65.8L255.6,65.0L258.7,65.7L261.1,62.0L262.2,58.3L266.1,52.6L264.7,51.5L254.7,51.7L237.5,52.0L234.4,52.1Z"/>
    <path class="wtc-county" id="wtc-county-rutherford" data-county="Rutherford" d="M263.0,91.0L262.6,94.0L263.8,97.5L263.4,101.3L260.5,101.2L258.2,105.2L259.1,105.9L261.8,107.3L262.0,106.4L269.0,107.1L270.3,108.9L274.2,109.2L274.8,110.9L279.0,108.5L284.6,110.4L284.6,107.1L286.8,106.2L287.9,102.8L288.9,95.8L290.6,94.1L290.0,91.8L289.5,91.3L284.1,91.4L280.0,90.0L269.0,83.4L268.4,85.9L267.4,84.2L265.9,87.1L263.4,88.7L263.0,91.0Z"/>
    <path class="wtc-county" id="wtc-county-scott" data-county="Scott" d="M368.9,54.3L372.0,58.9L374.3,64.0L376.2,66.4L373.7,67.8L378.8,73.6L381.1,73.8L381.3,75.5L386.9,77.4L388.8,79.7L390.9,79.1L392.7,76.6L392.5,74.2L395.2,72.7L394.8,66.8L394.0,62.2L395.2,59.8L397.7,60.1L399.8,58.3L399.2,55.0L382.8,54.8L369.3,54.3L368.9,54.3Z"/>
    <path class="wtc-county" id="wtc-county-sequatchie" data-county="Sequatchie" d="M321.4,116.2L325.6,118.8L325.6,122.0L328.5,123.4L327.2,126.2L324.1,128.5L324.3,129.1L330.8,131.7L333.3,134.0L334.1,138.4L342.4,128.5L343.4,126.4L338.2,122.8L333.3,118.5L331.4,115.7L332.0,114.1L329.9,115.3L324.3,116.1L321.4,116.2Z"/>
    <path class="wtc-county" id="wtc-county-sevier" data-county="Sevier" d="M433.1,86.9L433.3,91.4L426.1,95.7L431.3,105.8L433.8,107.0L433.8,114.0L437.1,113.4L438.3,114.4L443.9,114.1L446.2,111.6L450.7,110.0L451.8,108.7L453.9,109.1L457.2,106.7L457.2,105.6L455.9,105.7L456.1,102.5L455.3,101.0L456.8,99.5L454.1,96.6L454.1,95.2L447.8,93.0L444.5,93.6L441.6,91.2L434.2,86.7L433.1,86.9Z"/>
    <path class="wtc-county" id="wtc-county-shelby" data-county="Shelby" d="M63.5,124.7L61.6,127.1L61.6,129.3L58.3,129.8L59.1,132.1L62.2,132.5L63.5,133.9L61.0,136.0L64.1,138.9L62.0,140.2L59.5,139.1L57.7,140.4L55.8,145.4L50.6,144.7L50.0,147.2L83.8,147.2L88.3,147.2L89.0,125.2L85.0,124.4L85.0,123.3L80.7,123.5L80.7,124.5L65.3,124.0L64.9,123.3L64.5,123.6L63.5,124.7Z"/>
    <path class="wtc-county" id="wtc-county-smith" data-county="Smith" d="M299.9,64.6L299.7,66.3L296.6,67.1L294.1,68.6L290.8,72.1L295.3,84.2L299.5,84.1L301.1,82.8L303.8,83.5L303.8,82.4L306.5,83.7L308.0,81.7L309.8,81.5L311.5,75.4L308.6,74.4L307.6,72.5L308.6,65.4L299.9,64.6Z"/>
    <path class="wtc-county" id="wtc-county-stewart" data-county="Stewart" d="M179.3,50.0L181.4,57.3L180.1,60.5L179.7,63.5L183.9,68.3L184.5,68.7L189.5,69.8L193.6,70.2L197.3,69.3L199.6,67.9L206.9,68.0L204.0,52.3L200.8,52.4L191.7,52.6L191.9,50.8L179.3,50.0Z"/>
    <path class="wtc-county" id="wtc-county-sullivan" data-county="Sullivan" d="M494.5,54.9L494.5,59.2L493.4,60.6L489.1,62.8L490.3,64.2L491.4,63.6L494.9,64.7L503.6,63.5L506.3,63.9L508.4,65.9L512.3,66.3L515.2,64.9L518.7,66.1L527.4,61.1L530.5,59.8L533.8,56.4L539.6,53.7L534.0,53.6L533.4,54.9L521.2,54.8L515.6,54.8L512.7,54.8L494.5,54.9Z"/>
    <path class="wtc-county" id="wtc-county-sumner" data-county="Sumner" d="M266.1,52.6L262.2,58.3L261.1,62.0L258.7,65.7L255.6,65.0L255.1,65.8L257.2,69.4L261.8,72.5L261.8,74.4L264.5,75.0L267.4,70.6L269.0,71.9L272.8,69.8L276.3,71.3L276.9,68.9L278.8,70.1L277.9,71.2L281.5,71.1L282.5,69.1L283.1,68.4L283.3,63.0L285.0,63.1L285.6,61.0L286.8,52.2L275.0,51.6L269.4,51.5L266.1,52.6Z"/>
    <path class="wtc-county" id="wtc-county-tipton" data-county="Tipton" d="M73.0,115.8L72.4,117.2L67.8,114.5L66.0,114.9L64.9,117.8L66.8,119.9L64.9,123.3L65.3,124.0L80.7,124.5L80.7,123.5L85.0,123.3L85.0,124.4L89.0,125.2L91.0,124.1L98.3,123.6L98.5,115.3L96.6,113.4L94.8,112.1L87.9,109.5L83.6,110.2L81.7,109.4L75.3,113.3L73.0,115.8ZM59.7,121.7L58.1,122.6L57.5,124.8L59.9,125.1L60.4,123.0L63.5,124.7L64.5,123.6L62.8,119.2L59.7,121.7Z"/>
    <path class="wtc-county" id="wtc-county-trousdale" data-county="Trousdale" d="M282.5,69.1L284.4,71.5L284.6,69.7L286.8,69.4L290.8,72.1L294.1,68.6L296.6,67.1L299.7,66.3L299.9,64.6L289.1,63.5L287.7,61.3L285.6,61.0L285.0,63.1L283.3,63.0L283.1,68.4L282.5,69.1Z"/>
    <path class="wtc-county" id="wtc-county-unicoi" data-county="Unicoi" d="M494.9,86.8L494.3,90.8L497.4,91.8L500.5,90.5L503.2,88.7L505.7,85.0L509.4,82.4L512.9,81.3L515.4,81.6L516.8,80.1L516.4,78.2L514.2,77.0L514.8,75.7L511.3,74.2L510.0,74.5L508.4,76.9L504.4,80.3L499.2,80.5L495.3,83.6L496.3,84.6L494.9,86.8Z"/>
    <path class="wtc-county" id="wtc-county-union" data-county="Union" d="M413.9,73.6L415.9,77.0L417.6,78.4L418.6,79.4L429.6,79.7L431.5,77.2L431.3,73.4L433.3,69.3L431.7,68.1L429.6,69.2L427.7,66.1L425.5,64.0L423.8,64.9L422.2,64.1L419.7,64.9L418.8,66.8L417.0,66.0L415.9,68.7L415.7,71.9L413.9,73.6Z"/>
    <path class="wtc-county" id="wtc-county-van-buren" data-county="Van Buren" d="M321.7,101.0L321.0,103.0L322.3,103.4L321.4,106.0L322.1,111.2L324.3,116.1L329.9,115.3L332.0,114.1L341.1,105.2L341.8,102.7L341.8,102.6L340.7,101.4L340.9,101.1L341.1,99.4L335.5,100.9L330.6,99.4L326.4,101.2L323.5,100.3L321.7,101.0Z"/>
    <path class="wtc-county" id="wtc-county-warren" data-county="Warren" d="M305.3,98.4L303.6,99.4L298.9,105.8L299.7,108.8L301.3,111.1L301.8,113.8L305.9,116.7L309.0,117.7L315.9,116.4L321.4,116.2L324.3,116.1L322.1,111.2L321.4,106.0L322.3,103.4L321.0,103.0L321.7,101.0L317.1,98.9L313.2,97.8L305.3,98.4Z"/>
    <path class="wtc-county" id="wtc-county-washington" data-county="Washington" d="M490.3,64.2L489.1,65.5L493.2,65.0L492.2,80.7L495.3,83.6L499.2,80.5L504.4,80.3L508.4,76.9L510.0,74.5L512.3,67.8L512.3,66.3L508.4,65.9L506.3,63.9L503.6,63.5L494.9,64.7L491.4,63.6L490.3,64.2Z"/>
    <path class="wtc-county" id="wtc-county-wayne" data-county="Wayne" d="M181.8,124.2L183.0,126.6L182.2,129.6L184.3,129.8L184.1,146.6L206.0,146.7L207.1,143.5L206.9,138.7L207.9,135.9L207.9,123.9L206.0,121.7L203.8,121.4L203.8,119.6L199.6,119.0L194.6,118.9L183.9,120.7L182.8,122.5L184.5,124.1L181.8,124.2Z"/>
    <path class="wtc-county" id="wtc-county-weakley" data-county="Weakley" d="M135.6,60.1L136.2,65.5L132.1,66.5L128.5,65.4L127.9,76.3L131.6,79.0L134.7,82.0L139.1,82.7L143.2,85.6L145.5,85.5L145.5,82.4L152.6,82.5L152.6,80.4L153.4,60.2L136.2,60.1L135.6,60.1Z"/>
    <path class="wtc-county" id="wtc-county-white" data-county="White" d="M317.1,98.9L321.7,101.0L323.5,100.3L326.4,101.2L330.6,99.4L335.5,100.9L341.1,99.4L340.9,101.1L342.6,100.1L344.2,94.3L342.4,94.2L341.1,90.4L338.4,89.6L338.6,87.3L327.2,84.4L324.1,84.9L322.5,86.8L321.2,86.5L319.2,88.3L318.1,90.8L319.6,96.0L317.7,97.5L319.8,97.6L317.1,98.9Z"/>
    <path class="wtc-county" id="wtc-county-williamson" data-county="Williamson" d="M229.2,91.5L228.6,97.8L239.0,100.9L250.0,105.0L253.7,106.1L259.1,105.9L258.2,105.2L260.5,101.2L263.4,101.3L263.8,97.5L262.6,94.0L263.0,91.0L253.1,87.0L245.2,86.1L238.8,89.8L237.9,86.6L230.5,86.3L229.2,91.5Z"/>
    <path class="wtc-county" id="wtc-county-wilson" data-county="Wilson" d="M264.5,75.0L265.7,79.1L268.2,81.0L269.0,83.4L280.0,90.0L284.1,91.4L289.5,91.3L290.0,91.8L293.9,91.2L297.8,91.4L295.3,84.2L290.8,72.1L286.8,69.4L284.6,69.7L284.4,71.5L282.5,69.1L281.5,71.1L277.9,71.2L278.8,70.1L276.9,68.9L276.3,71.3L272.8,69.8L269.0,71.9L267.4,70.6L264.5,75.0Z"/>
  </g>
</svg>