<?xml version="1.0" encoding="UTF-8"?>
<svg xmlns="http://www.w3.org/2000/svg" viewBox="0 0 600 569" id="wtc-state-map-NM" role="img" aria-label="nm county map">
  <title>nm Counties</title>
  <g class="wtc-counties">
    <path class="wtc-county" id="wtc-county-bernalillo" data-county="Bernalillo" d="M203.1,371.4L213.8,349.6L217.4,342.5L242.3,342.5L245.3,345.4L266.6,345.2L268.1,342.5L289.8,342.5L289.8,349.1L281.8,349.4L281.8,356.5L281.8,371.0L252.7,371.2L249.1,370.0L247.6,371.2L203.1,371.4Z"/>
    <path class="wtc-county" id="wtc-county-catron" data-county="Catron" d="M50.0,252.2L50.0,205.1L83.2,205.2L99.6,204.5L136.6,204.5L136.6,227.4L141.7,227.1L160.4,227.3L160.4,255.0L160.1,256.1L160.1,292.0L159.5,292.0L159.5,318.3L50.3,318.5L50.0,270.5L50.3,260.2L50.0,252.2Z"/>
    <path class="wtc-county" id="wtc-county-chaves" data-county="Chaves" d="M358.6,198.8L358.6,184.7L355.6,184.7L355.3,148.1L396.9,148.2L397.8,148.2L397.8,184.8L482.6,185.0L486.8,185.0L486.8,220.5L490.4,220.5L490.4,234.9L507.9,235.0L507.9,242.2L490.7,242.1L490.7,255.6L480.6,255.6L480.6,277.3L472.0,277.3L454.5,277.4L454.5,270.2L441.1,270.2L402.5,270.5L402.2,277.8L393.6,277.8L393.3,256.0L393.6,255.8L393.6,220.8L394.2,213.1L392.7,213.1L392.4,199.4L375.8,198.8L358.6,198.8Z"/>
    <path class="wtc-county" id="wtc-county-cibola" data-county="Cibola" d="M50.3,349.9L50.3,318.5L159.5,318.3L162.2,318.5L202.5,318.4L202.5,349.7L213.8,349.6L203.1,371.4L199.6,378.5L193.9,378.5L167.5,378.4L167.5,382.0L158.6,382.0L158.6,378.4L98.1,378.5L97.8,349.8L50.3,349.9Z"/>
    <path class="wtc-county" id="wtc-county-colfax" data-county="Colfax" d="M366.3,518.2L365.1,515.5L368.1,511.6L365.7,506.0L365.1,501.3L365.7,495.7L358.9,495.7L357.7,493.6L354.2,492.2L355.6,488.6L353.6,486.2L355.6,482.3L353.6,481.5L358.3,476.5L355.3,473.3L357.7,469.4L356.5,457.5L395.7,457.5L395.7,453.9L431.3,454.0L466.6,453.9L466.6,518.2L439.3,518.0L384.7,518.0L372.0,518.2L366.3,518.2Z"/>
    <path class="wtc-county" id="wtc-county-curry" data-county="Curry" d="M488.9,320.5L488.9,295.6L546.4,295.6L546.4,296.4L546.4,332.3L546.4,349.4L526.6,349.4L526.6,342.0L518.0,342.1L517.7,334.9L509.1,334.9L509.1,327.7L491.5,327.8L491.5,320.6L488.9,320.5Z"/>
    <path class="wtc-county" id="wtc-county-de-baca" data-county="De Baca" d="M393.6,299.2L393.6,277.8L402.2,277.8L402.5,270.5L441.1,270.2L454.5,270.2L454.5,277.4L472.0,277.3L471.7,292.0L471.7,320.6L456.8,320.6L456.8,334.9L439.3,334.9L439.3,327.8L430.7,327.7L430.7,320.5L393.6,320.5L393.6,299.2Z"/>
    <path class="wtc-county" id="wtc-county-doa-ana" data-county="Doña Ana" d="M194.5,155.3L194.8,123.4L194.8,87.3L258.3,87.3L256.8,89.3L252.1,90.7L252.4,92.3L249.4,94.1L248.5,96.8L250.6,98.1L250.9,105.3L270.8,105.3L270.8,184.4L273.7,184.4L273.7,192.3L228.6,173.2L228.6,169.6L194.5,169.7L194.5,155.3Z"/>
    <path class="wtc-county" id="wtc-county-eddy" data-county="Eddy" d="M396.9,148.2L396.9,126.7L397.2,126.1L397.2,105.3L423.3,105.2L465.4,105.2L469.0,105.2L490.4,105.2L490.4,148.4L482.6,148.4L482.6,185.0L397.8,184.8L397.8,148.2L396.9,148.2Z"/>
    <path class="wtc-county" id="wtc-county-grant" data-county="Grant" d="M50.0,205.1L50.0,169.5L66.0,169.5L66.0,155.0L83.2,155.1L83.2,147.9L92.1,147.9L92.4,127.6L92.1,111.8L93.3,111.8L93.3,93.9L118.8,94.0L118.8,111.8L117.7,111.8L117.7,147.9L142.9,147.9L142.9,155.2L169.0,155.3L158.3,157.2L159.5,159.9L159.8,169.5L155.3,175.8L156.2,180.8L155.3,183.9L150.9,184.9L148.5,188.1L148.8,192.5L150.3,193.5L147.9,204.4L136.6,204.5L99.6,204.5L83.2,205.2L50.0,205.1Z"/>
    <path class="wtc-county" id="wtc-county-guadalupe" data-county="Guadalupe" d="M360.7,356.7L360.7,320.7L358.9,320.7L358.9,299.2L393.6,299.2L393.6,320.5L430.7,320.5L430.7,327.7L439.3,327.8L439.3,334.9L456.8,334.9L457.1,365.0L457.1,371.0L393.6,371.1L360.7,371.1L360.7,356.7Z"/>
    <path class="wtc-county" id="wtc-county-harding" data-county="Harding" d="M431.3,454.0L431.0,451.9L434.0,448.7L433.1,446.1L436.6,441.4L437.8,434.4L440.2,432.6L438.1,431.0L439.0,428.6L435.2,424.3L436.6,417.6L465.4,417.8L469.3,419.5L490.4,388.1L497.5,388.1L497.5,385.4L518.0,385.4L518.5,386.0L518.5,407.2L519.1,414.3L519.1,435.8L519.7,443.0L484.4,443.0L484.4,450.3L466.6,450.3L466.6,453.9L431.3,454.0Z"/>
    <path class="wtc-county" id="wtc-county-hidalgo" data-county="Hidalgo" d="M50.0,140.4L50.0,50.0L119.4,50.1L119.4,87.3L118.8,94.0L93.3,93.9L93.3,111.8L92.1,111.8L92.4,127.6L92.1,147.9L83.2,147.9L83.2,155.1L66.0,155.0L66.0,169.5L50.0,169.5L50.0,140.4Z"/>
    <path class="wtc-county" id="wtc-county-lea" data-county="Lea" d="M482.6,185.0L482.6,148.4L490.4,148.4L490.4,105.2L523.0,105.3L544.7,105.3L544.7,112.4L544.7,148.4L544.7,184.5L545.3,209.4L545.3,220.0L545.5,235.0L507.9,235.0L490.4,234.9L490.4,220.5L486.8,220.5L486.8,185.0L482.6,185.0Z"/>
    <path class="wtc-county" id="wtc-county-lincoln" data-county="Lincoln" d="M308.2,292.0L308.2,256.1L297.8,256.1L297.8,241.6L288.9,241.6L280.0,242.5L271.1,242.5L271.1,227.6L271.4,220.2L273.4,220.2L324.5,220.2L324.8,213.1L358.3,213.1L358.6,198.8L375.8,198.8L392.4,199.4L392.7,213.1L394.2,213.1L393.6,220.8L393.6,255.8L393.3,256.0L393.6,277.8L393.6,299.2L358.9,299.2L358.9,292.0L308.2,292.0Z"/>
    <path class="wtc-county" id="wtc-county-los-alamos" data-county="Los Alamos" d="M281.5,433.1L277.3,433.7L275.8,431.9L269.0,432.6L269.0,421.7L268.1,420.2L272.6,420.7L278.8,418.7L281.5,415.7L284.7,417.5L287.7,421.7L281.5,422.6L281.5,423.9L281.8,430.2L281.5,433.1Z"/>
    <path class="wtc-county" id="wtc-county-luna" data-county="Luna" d="M169.0,155.3L142.9,155.2L142.9,147.9L117.7,147.9L117.7,111.8L118.8,111.8L118.8,94.0L119.4,87.3L194.8,87.3L194.8,123.4L194.5,155.3L169.0,155.3Z"/>
    <path class="wtc-county" id="wtc-county-mckinley" data-county="McKinley" d="M50.3,436.1L50.3,398.4L50.0,381.5L50.3,379.4L50.3,349.9L97.8,349.8L98.1,378.5L158.6,378.4L158.6,382.0L167.5,382.0L167.5,378.4L193.9,378.5L193.9,435.8L167.5,435.9L92.4,436.1L50.3,436.1Z"/>
    <path class="wtc-county" id="wtc-county-mora" data-county="Mora" d="M325.4,434.2L324.8,425.2L355.9,425.2L375.5,420.0L382.6,415.5L384.1,417.0L405.2,418.0L436.6,417.6L435.2,424.3L439.0,428.6L438.1,431.0L440.2,432.6L437.8,434.4L436.6,441.4L433.1,446.1L434.0,448.7L431.0,451.9L431.3,454.0L395.7,453.9L395.7,457.5L356.5,457.5L350.9,455.5L351.8,451.7L349.7,449.9L350.0,446.8L344.4,439.0L340.8,437.0L337.8,433.7L332.5,434.2L331.3,432.7L325.4,434.2Z"/>
    <path class="wtc-county" id="wtc-county-otero" data-county="Otero" d="M273.7,192.3L273.7,184.4L270.8,184.4L270.8,105.3L302.2,105.4L349.1,105.3L391.5,105.3L397.2,105.3L397.2,126.1L396.9,126.7L396.9,148.2L355.3,148.1L355.6,184.7L358.6,184.7L358.6,198.8L358.3,213.1L324.8,213.1L324.5,220.2L273.4,220.2L273.7,192.3Z"/>
    <path class="wtc-county" id="wtc-county-quay" data-county="Quay" d="M457.1,365.0L456.8,334.9L456.8,320.6L471.7,320.6L488.9,320.5L491.5,320.6L491.5,327.8L509.1,327.7L509.1,334.9L517.7,334.9L518.0,342.1L526.6,342.0L526.6,349.4L546.4,349.4L546.4,368.4L546.7,404.7L546.7,414.3L519.1,414.3L518.5,407.2L518.5,386.0L518.0,385.4L497.5,385.4L497.5,373.1L479.1,373.2L479.1,375.1L457.1,365.0Z"/>
    <path class="wtc-county" id="wtc-county-rio-arriba" data-county="Rio Arriba" d="M184.4,518.5L182.3,515.6L181.8,510.4L176.4,508.4L169.6,503.8L168.1,501.8L168.1,491.8L167.5,480.5L167.8,454.0L194.2,453.6L228.9,453.8L228.9,435.8L281.5,436.0L281.5,433.1L281.8,430.2L297.5,430.2L297.8,436.1L325.4,436.1L325.4,434.2L331.3,432.7L332.5,434.2L337.8,433.7L340.8,437.0L323.9,444.2L313.8,455.0L297.2,460.4L299.0,462.8L305.5,465.2L307.0,474.3L305.8,483.4L304.9,485.4L303.4,497.6L304.3,509.1L301.6,518.2L262.8,518.0L230.1,518.0L229.5,518.6L184.4,518.5Z"/>
    <path class="wtc-county" id="wtc-county-roosevelt" data-county="Roosevelt" d="M471.7,320.6L471.7,292.0L472.0,277.3L480.6,277.3L480.6,255.6L490.7,255.6L490.7,242.1L507.9,242.2L507.9,235.0L545.5,235.0L546.1,256.0L546.4,266.0L546.4,295.6L488.9,295.6L488.9,320.5L471.7,320.6Z"/>
    <path class="wtc-county" id="wtc-county-sandoval" data-county="Sandoval" d="M167.8,454.0L167.5,435.9L193.9,435.8L193.9,378.5L199.6,378.5L203.1,371.4L247.6,371.2L249.1,370.0L252.7,371.2L281.8,371.0L281.5,378.4L281.5,415.7L278.8,418.7L272.6,420.7L268.1,420.2L269.0,421.7L269.0,432.6L275.8,431.9L277.3,433.7L281.5,433.1L281.5,436.0L228.9,435.8L228.9,453.8L194.2,453.6L167.8,454.0Z"/>
    <path class="wtc-county" id="wtc-county-san-juan" data-county="San Juan" d="M50.3,518.5L50.3,436.1L92.4,436.1L167.5,435.9L167.8,454.0L167.5,480.5L168.1,491.8L168.1,501.8L169.6,503.8L176.4,508.4L181.8,510.4L182.3,515.6L184.4,518.5L179.4,518.5L116.2,518.5L105.2,518.5L50.3,518.5Z"/>
    <path class="wtc-county" id="wtc-county-san-miguel" data-county="San Miguel" d="M324.8,425.2L325.4,407.3L325.4,378.3L325.7,356.7L360.7,356.7L360.7,371.1L393.6,371.1L457.1,371.0L457.1,365.0L479.1,375.1L479.1,373.2L497.5,373.1L497.5,385.4L497.5,388.1L490.4,388.1L469.3,419.5L465.4,417.8L436.6,417.6L405.2,418.0L384.1,417.0L382.6,415.5L375.5,420.0L355.9,425.2L324.8,425.2Z"/>
    <path class="wtc-county" id="wtc-county-santa-fe" data-county="Santa Fe" d="M281.5,415.7L281.5,378.4L281.8,371.0L281.8,356.5L325.7,356.7L325.4,378.3L325.4,407.3L324.8,425.2L325.4,434.2L325.4,436.1L297.8,436.1L297.5,430.2L281.8,430.2L281.5,423.9L281.5,422.6L287.7,421.7L284.7,417.5L281.5,415.7Z"/>
    <path class="wtc-county" id="wtc-county-sierra" data-county="Sierra" d="M160.4,227.3L141.7,227.1L136.6,227.4L136.6,204.5L147.9,204.4L150.3,193.5L148.8,192.5L148.5,188.1L150.9,184.9L155.3,183.9L156.2,180.8L155.3,175.8L159.8,169.5L159.5,159.9L158.3,157.2L169.0,155.3L194.5,155.3L194.5,169.7L228.6,169.6L228.6,173.2L273.7,192.3L273.4,220.2L271.4,220.2L271.1,227.6L262.8,227.2L160.4,227.3Z"/>
    <path class="wtc-county" id="wtc-county-socorro" data-county="Socorro" d="M159.5,318.3L159.5,292.0L160.1,292.0L160.1,256.1L160.4,255.0L160.4,227.3L262.8,227.2L271.1,227.6L271.1,242.5L280.0,242.5L288.9,241.6L297.8,241.6L297.8,256.1L308.2,256.1L308.2,292.0L267.5,292.0L267.5,306.9L264.2,306.7L260.4,308.3L238.4,314.5L228.9,318.5L202.5,318.4L162.2,318.5L159.5,318.3Z"/>
    <path class="wtc-county" id="wtc-county-taos" data-county="Taos" d="M301.6,518.2L304.3,509.1L303.4,497.6L304.9,485.4L305.8,483.4L307.0,474.3L305.5,465.2L299.0,462.8L297.2,460.4L313.8,455.0L323.9,444.2L340.8,437.0L344.4,439.0L350.0,446.8L349.7,449.9L351.8,451.7L350.9,455.5L356.5,457.5L357.7,469.4L355.3,473.3L358.3,476.5L353.6,481.5L355.6,482.3L353.6,486.2L355.6,488.6L354.2,492.2L357.7,493.6L358.9,495.7L365.7,495.7L365.1,501.3L365.7,506.0L368.1,511.6L365.1,515.5L366.3,518.2L325.4,518.2L301.6,518.2Z"/>
    <path class="wtc-county" id="wtc-county-torrance" data-county="Torrance" d="M268.1,342.5L263.6,342.5L263.4,329.8L263.6,320.8L263.1,313.6L267.5,313.7L267.5,306.9L267.5,292.0L308.2,292.0L358.9,292.0L358.9,299.2L358.9,320.7L360.7,320.7L360.7,356.7L325.7,356.7L281.8,356.5L281.8,349.4L289.8,349.1L289.8,342.5L268.1,342.5Z"/>
    <path class="wtc-county" id="wtc-county-union" data-county="Union" d="M466.6,518.2L466.6,453.9L466.6,450.3L484.4,450.3L484.4,443.0L519.7,443.0L519.1,435.8L519.1,414.3L546.7,414.3L546.7,440.5L546.7,462.1L546.4,477.3L549.7,477.3L550.0,485.7L550.0,518.6L542.9,518.6L466.6,518.2Z"/>
    <path class="wtc-county" id="wtc-county-valencia" data-county="Valencia" d="M213.8,349.6L202.5,349.7L202.5,318.4L228.9,318.5L238.4,314.5L260.4,308.3L264.2,306.7L267.5,306.9L267.5,313.7L263.1,313.6L263.6,320.8L263.4,329.8L263.6,342.5L268.1,342.5L266.6,345.2L245.3,345.4L242.3,342.5L217.4,342.5L213.8,349.6Z"/>
  </g>
</svg>