<?xml version="1.0" encoding="UTF-8"?>
<svg xmlns="http://www.w3.org/2000/svg" viewBox="0 0 600 340" id="wtc-state-map-IA" role="img" aria-label="ia county map">
  <title>ia Counties</title>
  <g class="wtc-counties">
    <path class="wtc-county" id="wtc-county-adair" data-county="Adair" d="M198.7,136.7L199.0,123.4L198.7,110.1L216.4,110.0L234.1,110.0L234.1,136.7L198.7,136.7Z"/>
    <path class="wtc-county" id="wtc-county-adams" data-county="Adams" d="M181.3,110.1L181.3,90.2L216.4,90.2L216.4,110.0L198.7,110.1L181.3,110.1Z"/>
    <path class="wtc-county" id="wtc-county-allamakee" data-county="Allamakee" d="M436.7,290.4L436.7,278.2L437.2,258.2L470.1,258.0L470.1,262.0L472.6,263.6L474.3,267.0L479.2,271.0L475.6,276.0L468.2,278.8L467.9,284.4L465.7,287.0L467.1,290.4L436.7,290.4Z"/>
    <path class="wtc-county" id="wtc-county-appanoose" data-county="Appanoose" d="M322.2,90.0L322.2,65.8L351.8,66.3L357.6,66.3L357.6,90.1L322.2,90.0Z"/>
    <path class="wtc-county" id="wtc-county-audubon" data-county="Audubon" d="M168.6,164.4L168.6,144.3L172.7,144.3L172.7,136.7L198.7,136.7L198.7,144.3L195.4,144.3L195.4,164.3L168.6,164.4Z"/>
    <path class="wtc-county" id="wtc-county-benton" data-county="Benton" d="M383.9,197.8L383.9,164.3L419.8,164.2L419.5,171.0L419.8,197.9L401.9,197.8L383.9,197.8Z"/>
    <path class="wtc-county" id="wtc-county-black-hawk" data-county="Black Hawk" d="M364.0,224.3L364.0,217.7L364.0,211.0L365.6,211.0L365.6,197.7L383.9,197.8L401.9,197.8L401.9,210.9L400.5,210.9L400.5,224.3L364.0,224.3Z"/>
    <path class="wtc-county" id="wtc-county-boone" data-county="Boone" d="M240.2,191.0L240.2,164.4L267.0,164.4L276.1,164.4L276.1,191.0L258.1,191.0L240.2,191.0Z"/>
    <path class="wtc-county" id="wtc-county-bremer" data-county="Bremer" d="M364.0,244.8L364.0,224.3L400.5,224.3L400.5,244.8L364.0,244.8Z"/>
    <path class="wtc-county" id="wtc-county-buchanan" data-county="Buchanan" d="M400.5,224.3L400.5,210.9L401.9,210.9L401.9,197.8L419.8,197.9L437.8,197.7L437.8,211.0L437.0,211.0L437.0,224.4L400.5,224.3Z"/>
    <path class="wtc-county" id="wtc-county-buena-vista" data-county="Buena Vista" d="M145.9,245.0L145.9,218.2L182.4,218.0L182.4,245.0L145.9,245.0Z"/>
    <path class="wtc-county" id="wtc-county-butler" data-county="Butler" d="M327.8,244.8L327.8,217.8L364.0,217.7L364.0,224.3L364.0,244.8L327.8,244.8Z"/>
    <path class="wtc-county" id="wtc-county-calhoun" data-county="Calhoun" d="M182.4,218.0L182.4,211.4L186.8,211.4L186.5,191.0L204.2,191.0L222.2,191.0L222.2,211.3L218.6,211.3L218.6,217.9L182.4,218.0Z"/>
    <path class="wtc-county" id="wtc-county-carroll" data-county="Carroll" d="M168.9,191.1L168.6,164.4L195.4,164.3L204.2,164.3L204.2,191.0L186.5,191.0L168.9,191.1Z"/>
    <path class="wtc-county" id="wtc-county-cass" data-county="Cass" d="M163.9,136.8L163.9,110.1L181.3,110.1L198.7,110.1L199.0,123.4L198.7,136.7L172.7,136.7L163.9,136.8Z"/>
    <path class="wtc-county" id="wtc-county-cedar" data-county="Cedar" d="M455.5,164.1L455.5,143.9L491.4,143.9L491.7,157.3L491.7,170.7L455.5,170.9L455.5,164.1Z"/>
    <path class="wtc-county" id="wtc-county-cerro-gordo" data-county="Cerro Gordo" d="M291.6,271.5L291.3,244.8L327.8,244.8L327.8,268.3L327.8,271.5L291.6,271.5Z"/>
    <path class="wtc-county" id="wtc-county-cherokee" data-county="Cherokee" d="M109.7,244.9L109.4,218.0L118.5,218.1L145.9,218.2L145.9,245.0L109.7,244.9Z"/>
    <path class="wtc-county" id="wtc-county-chickasaw" data-county="Chickasaw" d="M364.0,268.3L364.0,244.8L400.5,244.8L400.5,258.2L400.5,268.3L364.0,268.3Z"/>
    <path class="wtc-county" id="wtc-county-clarke" data-county="Clarke" d="M251.8,109.9L251.5,90.0L286.9,90.0L286.9,110.3L268.9,110.3L251.8,109.9Z"/>
    <path class="wtc-county" id="wtc-county-clay" data-county="Clay" d="M145.9,271.5L145.9,245.0L182.4,245.0L182.4,271.5L145.9,271.5Z"/>
    <path class="wtc-county" id="wtc-county-clayton" data-county="Clayton" d="M437.2,258.2L437.0,224.4L473.4,224.6L491.7,224.6L491.7,226.9L485.3,228.7L478.7,232.7L475.9,242.9L472.6,244.6L471.8,251.0L470.1,258.0L437.2,258.2Z"/>
    <path class="wtc-county" id="wtc-county-clinton" data-county="Clinton" d="M491.7,177.5L491.7,170.7L491.7,157.3L500.2,157.3L505.8,154.5L508.8,156.5L516.3,156.3L519.3,157.6L524.6,157.4L529.3,154.1L536.5,154.0L542.0,158.2L547.0,160.2L546.7,162.9L549.2,169.4L548.1,171.5L550.0,175.6L548.9,177.4L491.7,177.5Z"/>
    <path class="wtc-county" id="wtc-county-crawford" data-county="Crawford" d="M124.1,191.2L124.1,164.3L132.9,164.4L168.6,164.4L168.9,191.1L150.9,191.1L124.1,191.2Z"/>
    <path class="wtc-county" id="wtc-county-dallas" data-county="Dallas" d="M231.0,164.3L231.3,144.2L234.1,144.1L234.1,136.7L260.6,136.6L268.9,137.3L268.9,144.1L267.0,144.1L267.0,164.4L240.2,164.4L231.0,164.3Z"/>
    <path class="wtc-county" id="wtc-county-davis" data-county="Davis" d="M357.6,90.1L357.6,66.3L379.7,66.9L393.0,67.1L393.0,90.2L357.6,90.1Z"/>
    <path class="wtc-county" id="wtc-county-decatur" data-county="Decatur" d="M251.5,90.0L251.5,65.1L270.0,65.3L286.9,65.5L286.9,90.0L251.5,90.0Z"/>
    <path class="wtc-county" id="wtc-county-delaware" data-county="Delaware" d="M437.0,224.4L437.0,211.0L437.8,211.0L437.8,197.7L455.7,197.7L473.7,197.7L473.4,224.6L437.0,224.4Z"/>
    <path class="wtc-county" id="wtc-county-des-moines" data-county="Des Moines" d="M455.2,103.6L455.2,83.5L452.2,83.5L461.3,80.4L462.1,78.8L475.1,74.5L476.8,84.4L479.5,86.2L483.4,90.6L486.4,91.8L488.1,98.8L487.8,103.3L487.8,103.5L455.2,103.6Z"/>
    <path class="wtc-county" id="wtc-county-dickinson" data-county="Dickinson" d="M145.9,290.4L145.9,271.5L182.4,271.5L182.4,290.4L145.9,290.4Z"/>
    <path class="wtc-county" id="wtc-county-dubuque" data-county="Dubuque" d="M473.4,224.6L473.7,197.7L491.7,197.6L509.6,197.6L509.6,204.3L524.3,204.3L517.9,206.9L517.4,208.6L511.3,210.9L511.3,214.1L511.3,216.5L506.3,223.7L491.7,226.9L491.7,224.6L473.4,224.6Z"/>
    <path class="wtc-county" id="wtc-county-emmet" data-county="Emmet" d="M182.4,290.4L182.4,271.5L218.6,271.5L218.6,290.5L187.1,290.5L182.4,290.4Z"/>
    <path class="wtc-county" id="wtc-county-fayette" data-county="Fayette" d="M400.5,244.8L400.5,224.3L437.0,224.4L437.2,258.2L400.5,258.2L400.5,244.8Z"/>
    <path class="wtc-county" id="wtc-county-floyd" data-county="Floyd" d="M327.8,268.3L327.8,244.8L364.0,244.8L364.0,268.3L327.8,268.3Z"/>
    <path class="wtc-county" id="wtc-county-franklin" data-county="Franklin" d="M291.3,244.8L291.3,217.8L327.8,217.8L327.8,244.8L291.3,244.8Z"/>
    <path class="wtc-county" id="wtc-county-fremont" data-county="Fremont" d="M111.6,81.2L108.0,78.8L107.5,76.4L111.6,72.6L115.2,71.5L118.0,67.8L116.9,65.9L147.0,65.5L147.3,76.9L146.2,77.0L146.2,90.3L113.0,90.3L111.1,88.0L110.5,83.3L111.6,81.2Z"/>
    <path class="wtc-county" id="wtc-county-greene" data-county="Greene" d="M204.2,191.0L204.2,164.3L231.0,164.3L240.2,164.4L240.2,191.0L222.2,191.0L204.2,191.0Z"/>
    <path class="wtc-county" id="wtc-county-grundy" data-county="Grundy" d="M327.8,217.8L327.8,211.1L329.4,211.1L329.7,191.0L347.7,191.0L347.7,197.7L365.6,197.7L365.6,211.0L364.0,211.0L364.0,217.7L327.8,217.8Z"/>
    <path class="wtc-county" id="wtc-county-guthrie" data-county="Guthrie" d="M195.4,164.3L195.4,144.3L198.7,144.3L198.7,136.7L234.1,136.7L234.1,144.1L231.3,144.2L231.0,164.3L204.2,164.3L195.4,164.3Z"/>
    <path class="wtc-county" id="wtc-county-hamilton" data-county="Hamilton" d="M255.1,217.8L254.8,211.2L258.1,211.2L258.1,191.0L276.1,191.0L294.1,191.0L294.1,211.1L291.3,211.1L291.3,217.8L255.1,217.8Z"/>
    <path class="wtc-county" id="wtc-county-hancock" data-county="Hancock" d="M255.1,271.5L255.1,244.8L291.3,244.8L291.6,271.5L255.1,271.5Z"/>
    <path class="wtc-county" id="wtc-county-hardin" data-county="Hardin" d="M291.3,217.8L291.3,211.1L294.1,211.1L294.1,191.0L312.0,191.0L329.7,191.0L329.4,211.1L327.8,211.1L327.8,217.8L291.3,217.8Z"/>
    <path class="wtc-county" id="wtc-county-harrison" data-county="Harrison" d="M88.1,164.6L90.4,161.1L93.7,159.5L92.8,156.5L90.6,155.2L92.3,151.6L89.2,150.5L91.5,147.7L89.5,145.1L92.6,142.5L91.7,138.8L95.9,137.0L96.4,139.4L98.9,139.4L98.9,136.9L137.3,136.9L137.3,144.3L132.6,144.3L132.9,164.4L124.1,164.3L88.1,164.6Z"/>
    <path class="wtc-county" id="wtc-county-henry" data-county="Henry" d="M428.4,90.3L428.4,83.5L452.2,83.5L455.2,83.5L455.2,103.6L455.2,110.3L446.4,110.4L428.7,110.4L428.4,90.3Z"/>
    <path class="wtc-county" id="wtc-county-howard" data-county="Howard" d="M364.3,290.4L364.0,268.3L400.5,268.3L400.7,290.5L372.3,290.4L364.3,290.4Z"/>
    <path class="wtc-county" id="wtc-county-humboldt" data-county="Humboldt" d="M218.6,244.8L218.6,224.6L254.8,224.5L255.1,244.8L218.6,244.8Z"/>
    <path class="wtc-county" id="wtc-county-ida" data-county="Ida" d="M118.5,218.1L118.5,211.5L124.4,211.4L124.1,191.2L150.9,191.1L150.9,211.4L145.9,211.4L145.9,218.2L118.5,218.1Z"/>
    <path class="wtc-county" id="wtc-county-iowa" data-county="Iowa" d="M383.9,164.3L383.6,157.6L383.9,137.1L411.0,137.2L419.8,137.3L420.1,144.1L419.8,164.2L383.9,164.3Z"/>
    <path class="wtc-county" id="wtc-county-jackson" data-county="Jackson" d="M491.7,197.6L491.7,177.5L548.9,177.4L547.8,180.7L548.3,183.9L544.7,186.6L536.2,189.8L531.8,191.4L527.6,196.3L528.4,200.3L524.3,204.3L509.6,204.3L509.6,197.6L491.7,197.6Z"/>
    <path class="wtc-county" id="wtc-county-jasper" data-county="Jasper" d="M302.9,164.3L302.9,144.1L304.6,144.1L304.6,137.0L339.7,137.1L348.5,137.1L348.5,144.2L347.7,144.2L347.7,164.3L312.0,164.3L302.9,164.3Z"/>
    <path class="wtc-county" id="wtc-county-jefferson" data-county="Jefferson" d="M393.0,110.4L393.0,90.2L428.4,90.3L428.7,110.4L411.0,110.5L393.0,110.4Z"/>
    <path class="wtc-county" id="wtc-county-johnson" data-county="Johnson" d="M419.8,164.2L420.1,144.1L419.8,137.3L443.9,137.3L444.1,134.0L446.6,130.5L455.5,130.4L455.5,143.9L455.5,164.1L419.8,164.2Z"/>
    <path class="wtc-county" id="wtc-county-jones" data-county="Jones" d="M455.7,197.7L455.5,170.9L491.7,170.7L491.7,177.5L491.7,197.6L473.7,197.7L455.7,197.7Z"/>
    <path class="wtc-county" id="wtc-county-keokuk" data-county="Keokuk" d="M375.0,137.1L375.3,110.3L393.0,110.4L411.0,110.5L411.0,137.2L383.9,137.1L375.0,137.1Z"/>
    <path class="wtc-county" id="wtc-county-kossuth" data-county="Kossuth" d="M218.6,290.5L218.6,271.5L218.6,244.8L255.1,244.8L255.1,271.5L255.1,290.3L233.8,290.4L218.6,290.5Z"/>
    <path class="wtc-county" id="wtc-county-lee" data-county="Lee" d="M428.4,83.5L428.7,66.9L431.1,63.4L436.1,62.5L435.8,60.1L440.3,56.4L443.0,56.2L443.3,52.5L446.4,50.5L451.6,50.0L454.9,51.1L454.4,54.4L455.5,60.3L452.4,62.6L456.0,67.2L464.6,70.0L469.6,70.0L474.5,72.7L475.1,74.5L462.1,78.8L461.3,80.4L452.2,83.5L428.4,83.5Z"/>
    <path class="wtc-county" id="wtc-county-linn" data-county="Linn" d="M419.8,197.9L419.5,171.0L419.8,164.2L455.5,164.1L455.5,170.9L455.7,197.7L437.8,197.7L419.8,197.9Z"/>
    <path class="wtc-county" id="wtc-county-louisa" data-county="Louisa" d="M446.6,130.5L446.4,110.4L455.2,110.3L455.2,103.6L487.8,103.5L487.8,105.3L484.2,110.3L480.6,110.7L475.1,116.3L478.1,123.6L455.5,123.8L455.5,130.4L446.6,130.5Z"/>
    <path class="wtc-county" id="wtc-county-lucas" data-county="Lucas" d="M286.9,110.3L286.9,90.0L322.2,90.0L322.2,110.3L304.6,110.3L286.9,110.3Z"/>
    <path class="wtc-county" id="wtc-county-lyon" data-county="Lyon" d="M52.8,290.4L54.1,288.9L52.2,286.5L58.3,282.3L58.0,275.0L54.1,274.7L56.1,271.9L91.2,271.7L109.4,271.7L109.4,290.4L94.8,290.4L63.8,290.4L52.8,290.4Z"/>
    <path class="wtc-county" id="wtc-county-madison" data-county="Madison" d="M234.1,136.7L234.1,110.0L251.8,109.9L268.9,110.3L268.9,137.3L260.6,136.6L234.1,136.7Z"/>
    <path class="wtc-county" id="wtc-county-mahaska" data-county="Mahaska" d="M339.7,137.1L339.7,110.3L357.4,110.3L375.3,110.3L375.0,137.1L348.5,137.1L339.7,137.1Z"/>
    <path class="wtc-county" id="wtc-county-marion" data-county="Marion" d="M304.6,137.0L304.6,135.7L304.6,110.3L322.2,110.3L339.7,110.3L339.7,137.1L304.6,137.0Z"/>
    <path class="wtc-county" id="wtc-county-marshall" data-county="Marshall" d="M312.0,191.0L312.0,164.3L347.7,164.3L347.7,191.0L329.7,191.0L312.0,191.0Z"/>
    <path class="wtc-county" id="wtc-county-mills" data-county="Mills" d="M108.0,110.2L109.1,104.0L108.0,102.0L109.4,97.5L111.9,96.2L111.1,93.3L113.0,90.3L146.2,90.3L146.2,110.2L108.0,110.2Z"/>
    <path class="wtc-county" id="wtc-county-mitchell" data-county="Mitchell" d="M327.8,290.3L327.8,271.5L327.8,268.3L364.0,268.3L364.3,290.4L327.8,290.3Z"/>
    <path class="wtc-county" id="wtc-county-monona" data-county="Monona" d="M71.3,191.4L71.8,187.7L77.9,184.0L77.6,178.5L81.8,176.9L80.4,175.8L84.5,175.1L84.3,173.1L88.7,172.7L87.9,168.3L86.2,167.6L88.1,164.6L124.1,164.3L124.1,191.2L71.3,191.4Z"/>
    <path class="wtc-county" id="wtc-county-monroe" data-county="Monroe" d="M322.2,110.3L322.2,90.0L357.6,90.1L357.4,110.3L339.7,110.3L322.2,110.3Z"/>
    <path class="wtc-county" id="wtc-county-montgomery" data-county="Montgomery" d="M146.2,110.2L146.2,90.3L181.3,90.2L181.3,110.1L163.9,110.1L146.2,110.2Z"/>
    <path class="wtc-county" id="wtc-county-muscatine" data-county="Muscatine" d="M455.5,130.4L455.5,123.8L478.1,123.6L480.3,129.9L485.6,131.3L489.2,130.3L495.6,133.0L500.2,132.8L500.5,143.8L491.4,143.9L455.5,143.9L455.5,130.4Z"/>
    <path class="wtc-county" id="wtc-county-obrien" data-county="O'Brien" d="M109.4,271.7L109.4,251.6L109.7,244.9L145.9,245.0L145.9,271.5L109.4,271.7Z"/>
    <path class="wtc-county" id="wtc-county-osceola" data-county="Osceola" d="M109.4,290.4L109.4,271.7L145.9,271.5L145.9,290.4L140.7,290.5L109.4,290.4Z"/>
    <path class="wtc-county" id="wtc-county-page" data-county="Page" d="M146.2,90.3L146.2,77.0L147.3,76.9L147.0,65.5L160.3,65.4L182.4,65.1L182.4,76.9L181.3,76.9L181.3,90.2L146.2,90.3Z"/>
    <path class="wtc-county" id="wtc-county-palo-alto" data-county="Palo Alto" d="M182.4,271.5L182.4,245.0L218.6,244.8L218.6,271.5L182.4,271.5Z"/>
    <path class="wtc-county" id="wtc-county-plymouth" data-county="Plymouth" d="M57.5,244.9L56.9,240.5L53.9,239.4L53.0,236.0L50.0,234.2L50.3,229.2L54.4,227.4L59.1,223.5L60.2,218.1L109.4,218.0L109.7,244.9L57.5,244.9Z"/>
    <path class="wtc-county" id="wtc-county-pocahontas" data-county="Pocahontas" d="M182.4,245.0L182.4,218.0L218.6,217.9L218.6,224.6L218.6,244.8L182.4,245.0Z"/>
    <path class="wtc-county" id="wtc-county-polk" data-county="Polk" d="M267.0,164.4L267.0,144.1L268.9,144.1L268.9,137.3L295.7,137.0L297.9,135.8L304.6,135.7L304.6,137.0L304.6,144.1L302.9,144.1L302.9,164.3L276.1,164.4L267.0,164.4Z"/>
    <path class="wtc-county" id="wtc-county-pottawattamie" data-county="Pottawattamie" d="M98.9,136.9L98.4,134.3L103.9,133.6L103.6,128.0L102.2,124.0L107.8,122.2L104.2,119.5L105.6,115.4L104.7,112.6L111.1,111.3L108.0,110.2L146.2,110.2L163.9,110.1L163.9,136.8L137.3,136.9L98.9,136.9Z"/>
    <path class="wtc-county" id="wtc-county-poweshiek" data-county="Poweshiek" d="M347.7,164.3L347.7,144.2L348.5,144.2L348.5,137.1L375.0,137.1L383.9,137.1L383.6,157.6L383.9,164.3L347.7,164.3Z"/>
    <path class="wtc-county" id="wtc-county-ringgold" data-county="Ringgold" d="M216.4,90.2L216.4,64.8L234.9,64.9L251.5,65.1L251.5,90.0L216.4,90.2Z"/>
    <path class="wtc-county" id="wtc-county-sac" data-county="Sac" d="M145.9,218.2L145.9,211.4L150.9,211.4L150.9,191.1L168.9,191.1L186.5,191.0L186.8,211.4L182.4,211.4L182.4,218.0L145.9,218.2Z"/>
    <path class="wtc-county" id="wtc-county-scott" data-county="Scott" d="M491.7,157.3L491.4,143.9L500.5,143.8L500.2,132.8L504.1,132.6L510.8,133.7L515.2,137.4L517.9,138.2L525.1,138.2L530.1,142.0L534.5,143.3L534.2,147.7L536.7,151.6L536.5,154.0L529.3,154.1L524.6,157.4L519.3,157.6L516.3,156.3L508.8,156.5L505.8,154.5L500.2,157.3L491.7,157.3Z"/>
    <path class="wtc-county" id="wtc-county-shelby" data-county="Shelby" d="M132.9,164.4L132.6,144.3L137.3,144.3L137.3,136.9L163.9,136.8L172.7,136.7L172.7,144.3L168.6,144.3L168.6,164.4L132.9,164.4Z"/>
    <path class="wtc-county" id="wtc-county-sioux" data-county="Sioux" d="M56.1,271.9L55.5,269.2L62.2,269.0L62.7,263.5L65.2,261.2L63.8,258.3L59.4,255.7L60.8,252.0L58.6,250.2L60.2,248.8L57.5,244.9L109.7,244.9L109.4,251.6L109.4,271.7L91.2,271.7L56.1,271.9Z"/>
    <path class="wtc-county" id="wtc-county-story" data-county="Story" d="M276.1,191.0L276.1,164.4L302.9,164.3L312.0,164.3L312.0,191.0L294.1,191.0L276.1,191.0Z"/>
    <path class="wtc-county" id="wtc-county-tama" data-county="Tama" d="M365.6,197.7L347.7,197.7L347.7,191.0L347.7,164.3L383.9,164.3L383.9,197.8L365.6,197.7Z"/>
    <path class="wtc-county" id="wtc-county-taylor" data-county="Taylor" d="M181.3,90.2L181.3,76.9L182.4,76.9L182.4,65.1L204.0,64.9L216.4,64.8L216.4,90.2L181.3,90.2Z"/>
    <path class="wtc-county" id="wtc-county-union" data-county="Union" d="M216.4,110.0L216.4,90.2L251.5,90.0L251.8,109.9L234.1,110.0L216.4,110.0Z"/>
    <path class="wtc-county" id="wtc-county-van-buren" data-county="Van Buren" d="M393.0,90.2L393.0,67.1L411.2,67.5L427.6,68.1L428.7,66.9L428.4,83.5L428.4,90.3L393.0,90.2Z"/>
    <path class="wtc-county" id="wtc-county-wapello" data-county="Wapello" d="M357.4,110.3L357.6,90.1L393.0,90.2L393.0,110.4L375.3,110.3L357.4,110.3Z"/>
    <path class="wtc-county" id="wtc-county-warren" data-county="Warren" d="M268.9,137.3L268.9,110.3L286.9,110.3L304.6,110.3L304.6,135.7L297.9,135.8L295.7,137.0L268.9,137.3Z"/>
    <path class="wtc-county" id="wtc-county-washington" data-county="Washington" d="M411.0,137.2L411.0,110.5L428.7,110.4L446.4,110.4L446.6,130.5L444.1,134.0L443.9,137.3L419.8,137.3L411.0,137.2Z"/>
    <path class="wtc-county" id="wtc-county-wayne" data-county="Wayne" d="M286.9,90.0L286.9,65.5L301.0,65.5L322.2,65.8L322.2,90.0L286.9,90.0Z"/>
    <path class="wtc-county" id="wtc-county-webster" data-county="Webster" d="M218.6,224.6L218.6,217.9L218.6,211.3L222.2,211.3L222.2,191.0L240.2,191.0L258.1,191.0L258.1,211.2L254.8,211.2L255.1,217.8L254.8,224.5L218.6,224.6Z"/>
    <path class="wtc-county" id="wtc-county-winnebago" data-county="Winnebago" d="M255.1,290.3L255.1,271.5L291.6,271.5L291.6,290.3L280.0,290.3L255.1,290.3Z"/>
    <path class="wtc-county" id="wtc-county-winneshiek" data-county="Winneshiek" d="M400.5,268.3L400.5,258.2L437.2,258.2L436.7,278.2L436.7,290.4L427.6,290.5L400.7,290.5L400.5,268.3Z"/>
    <path class="wtc-county" id="wtc-county-woodbury" data-county="Woodbury" d="M60.2,218.1L61.9,217.7L60.8,214.7L64.4,212.7L68.2,212.1L69.3,209.2L66.9,206.3L66.9,201.3L69.9,199.4L71.3,196.2L73.8,192.6L71.3,191.4L124.1,191.2L124.4,211.4L118.5,211.5L118.5,218.1L109.4,218.0L60.2,218.1Z"/>
    <path class="wtc-county" id="wtc-county-worth" data-county="Worth" d="M291.6,290.3L291.6,271.5L327.8,271.5L327.8,290.3L325.8,290.3L291.6,290.3Z"/>
    <path class="wtc-county" id="wtc-county-wright" data-county="Wright" d="M254.8,224.5L255.1,217.8L291.3,217.8L291.3,244.8L255.1,244.8L254.8,224.5Z"/>
  </g>
</svg>