<?xml version="1.0" encoding="UTF-8"?>
<svg xmlns="http://www.w3.org/2000/svg" viewBox="0 0 600 273" id="wtc-state-map-VA" role="img" aria-label="va county map">
  <title>va Counties</title>
  <g class="wtc-counties">
    <path class="wtc-county" id="wtc-county-accomack" data-county="Accomack" d="M524.7,139.8L519.4,142.6L523.6,143.6L523.4,145.1L520.2,148.4L515.7,149.2L516.6,151.0L512.8,156.6L509.4,160.6L508.7,163.6L514.7,163.3L517.7,164.8L516.2,168.1L521.9,169.5L524.3,168.7L524.5,167.5L528.7,162.2L528.5,158.9L530.9,152.5L533.4,148.9L537.4,145.0L540.6,144.6L541.7,145.7L543.4,144.3L546.6,139.3L550.0,135.3L527.2,137.2L526.0,140.0L524.7,139.8ZM505.1,145.9L505.1,148.0L506.6,146.7L505.1,145.9ZM505.3,139.7L502.3,139.7L503.0,141.9L505.3,139.7Z"/>
    <path class="wtc-county" id="wtc-county-albemarle" data-county="Albemarle" d="M336.8,134.1L346.8,151.2L345.7,152.5L348.3,152.7L350.0,151.4L356.8,151.0L357.2,148.9L368.3,136.5L371.5,133.2L374.0,129.1L364.7,126.0L347.2,120.4L347.7,121.4L344.3,122.7L342.1,124.7L339.8,129.4L340.2,132.1L336.8,134.1ZM355.5,135.3L357.7,132.8L359.8,133.4L359.6,135.6L355.7,136.3L355.5,135.3Z"/>
    <path class="wtc-county" id="wtc-county-alleghany" data-county="Alleghany" d="M264.5,139.7L257.0,145.6L252.6,151.3L253.0,153.2L250.4,155.2L251.3,157.2L254.9,159.0L259.4,160.8L266.0,157.0L266.6,157.8L272.8,154.6L278.7,148.7L287.2,150.9L291.3,145.1L288.7,144.4L286.2,146.1L282.8,143.7L279.4,144.0L274.5,143.2L271.7,139.6L267.7,139.3L264.5,139.7ZM267.4,151.1L268.7,147.9L269.8,148.5L268.3,151.8L267.4,151.1Z"/>
    <path class="wtc-county" id="wtc-county-amelia" data-county="Amelia" d="M372.6,174.4L372.8,178.6L396.8,184.2L398.5,184.7L401.5,184.7L407.2,180.5L404.0,178.6L400.6,180.2L397.9,178.1L398.5,176.4L396.2,176.1L393.6,174.5L393.8,171.5L395.1,171.4L394.5,169.1L392.3,168.0L385.5,167.0L385.5,168.2L382.6,169.4L378.5,169.2L375.5,169.8L372.6,174.4Z"/>
    <path class="wtc-county" id="wtc-county-amherst" data-county="Amherst" d="M301.3,159.6L304.7,161.2L305.3,163.5L307.2,165.6L309.6,166.5L313.8,166.2L316.2,168.5L320.0,172.6L322.1,172.8L323.0,171.2L326.0,170.7L328.5,168.4L333.4,165.7L334.9,164.1L333.2,163.9L328.1,155.0L323.2,153.5L323.0,150.1L320.6,149.7L318.9,147.9L317.0,148.6L314.7,149.4L313.4,148.0L311.5,149.0L306.6,157.0L301.3,159.6Z"/>
    <path class="wtc-county" id="wtc-county-appomattox" data-county="Appomattox" d="M334.9,164.1L333.4,165.7L328.5,168.4L326.0,170.7L331.5,179.8L331.9,181.6L335.3,181.9L335.7,183.6L337.7,184.0L340.4,182.6L343.0,183.1L346.0,181.4L349.4,177.1L351.3,175.7L351.3,172.6L349.1,173.4L348.7,171.5L346.0,170.7L344.7,169.2L337.4,163.4L334.9,164.1Z"/>
    <path class="wtc-county" id="wtc-county-arlington" data-county="Arlington" d="M438.7,81.5L435.5,84.0L436.8,85.0L439.1,86.9L443.2,87.1L443.4,85.2L438.7,81.5Z"/>
    <path class="wtc-county" id="wtc-county-augusta" data-county="Augusta" d="M296.8,126.2L296.0,127.9L298.7,126.8L301.3,127.3L297.9,131.2L298.5,131.8L316.2,142.0L317.9,143.3L323.4,141.8L324.5,143.4L326.8,143.9L330.6,140.4L332.8,140.1L334.7,135.2L336.8,134.1L340.2,132.1L339.8,129.4L342.1,124.7L333.4,118.7L332.3,118.9L313.8,108.6L308.7,112.5L307.9,114.3L303.0,120.4L303.0,122.5L301.3,124.1L298.7,124.1L296.8,126.2ZM320.4,127.8L321.7,125.9L325.1,125.1L326.6,126.1L326.0,128.4L324.3,129.6L322.1,129.4L320.4,127.8ZM330.2,132.8L332.8,131.0L335.1,131.2L334.7,134.5L331.7,135.0L330.2,132.8Z"/>
    <path class="wtc-county" id="wtc-county-bath" data-county="Bath" d="M270.2,133.1L267.2,137.7L264.5,139.7L267.7,139.3L271.7,139.6L274.5,143.2L279.4,144.0L282.8,143.7L286.2,146.1L288.7,144.4L291.1,140.7L295.5,136.7L298.5,131.8L297.9,131.2L301.3,127.3L298.7,126.8L296.0,127.9L296.8,126.2L293.8,125.1L285.3,123.8L280.0,121.1L277.9,122.1L272.6,126.2L271.1,129.1L272.3,130.6L270.2,133.1Z"/>
    <path class="wtc-county" id="wtc-county-bedford" data-county="Bedford" d="M277.0,177.8L276.4,180.4L277.0,182.8L284.3,184.8L285.3,187.2L287.0,187.0L291.9,193.7L295.1,193.5L298.7,195.8L299.8,194.9L298.1,192.7L300.9,192.9L311.9,175.1L313.4,172.9L311.3,170.6L314.7,168.4L316.2,168.5L313.8,166.2L309.6,166.5L307.2,165.6L305.3,163.5L304.7,161.2L301.3,159.6L300.0,160.2L301.5,162.2L297.7,164.6L293.6,167.3L292.3,169.5L289.6,169.1L288.1,167.4L286.2,167.9L282.3,170.9L278.9,172.3L281.1,173.5L280.4,175.4L277.0,177.8Z"/>
    <path class="wtc-county" id="wtc-county-bland" data-county="Bland" d="M195.3,182.2L191.7,183.4L193.0,185.9L190.0,186.7L189.1,188.0L192.6,188.6L192.6,190.7L187.4,192.7L184.9,192.7L181.3,194.1L182.8,195.6L186.2,199.0L191.7,195.0L195.3,193.3L198.7,194.7L201.9,194.8L206.6,193.4L213.8,191.8L212.8,189.4L217.2,187.4L207.9,179.9L209.8,178.8L209.8,178.3L201.9,179.7L195.3,182.2Z"/>
    <path class="wtc-county" id="wtc-county-botetourt" data-county="Botetourt" d="M263.4,171.1L264.3,172.0L275.7,176.7L277.0,177.8L280.4,175.4L281.1,173.5L278.9,172.3L282.3,170.9L286.2,167.9L288.1,167.4L289.6,169.1L292.3,169.5L293.6,167.3L297.7,164.6L293.0,161.8L293.2,160.9L286.6,156.9L287.4,156.2L286.4,152.6L287.2,150.9L278.7,148.7L272.8,154.6L266.6,157.8L266.2,159.2L269.8,163.9L267.2,165.9L265.1,169.9L263.4,171.1Z"/>
    <path class="wtc-county" id="wtc-county-brunswick" data-county="Brunswick" d="M383.6,223.2L392.3,223.2L400.2,223.1L406.8,213.2L406.8,202.4L403.4,201.3L400.4,197.7L396.0,196.4L393.0,196.9L388.3,196.9L386.2,194.8L384.9,209.3L383.6,223.2Z"/>
    <path class="wtc-county" id="wtc-county-buchanan" data-county="Buchanan" d="M151.3,164.3L130.6,178.6L131.9,178.0L134.5,180.0L135.3,183.6L140.0,189.6L141.3,193.2L140.4,193.7L147.2,193.1L150.0,188.6L155.1,187.7L157.9,185.9L163.4,184.2L164.9,182.0L164.5,180.6L161.9,179.3L158.1,179.1L156.6,176.5L153.6,174.9L153.2,170.3L150.0,169.2L149.8,167.5L153.6,165.8L151.3,164.3Z"/>
    <path class="wtc-county" id="wtc-county-buckingham" data-county="Buckingham" d="M348.3,152.7L348.5,155.5L343.8,156.9L342.6,158.7L338.9,158.1L337.4,163.4L344.7,169.2L346.0,170.7L348.7,171.5L349.1,173.4L351.3,172.6L353.8,175.6L356.2,176.6L358.9,176.0L371.7,158.5L372.1,155.3L361.5,152.3L358.9,151.1L357.2,148.9L356.8,151.0L350.0,151.4L348.3,152.7Z"/>
    <path class="wtc-county" id="wtc-county-campbell" data-county="Campbell" d="M300.9,192.9L303.2,192.4L303.2,190.8L307.4,188.7L309.6,190.0L311.7,188.4L316.4,192.1L319.6,190.9L321.7,192.5L327.0,194.4L328.9,193.2L332.8,194.9L337.7,184.0L335.7,183.6L335.3,181.9L331.9,181.6L331.5,179.8L326.0,170.7L323.0,171.2L322.1,172.8L316.6,175.9L314.5,176.4L311.9,175.1L300.9,192.9Z"/>
    <path class="wtc-county" id="wtc-county-caroline" data-county="Caroline" d="M407.7,137.4L409.6,139.6L411.5,139.4L413.4,141.9L414.5,141.6L417.0,143.8L419.4,143.1L420.6,144.9L420.4,147.0L422.3,148.6L422.1,150.1L425.3,149.4L431.1,144.3L431.5,142.3L434.9,143.3L434.9,139.9L436.8,138.6L441.5,139.0L440.4,136.1L435.7,132.2L437.2,129.7L439.4,129.4L438.9,128.0L434.5,126.5L433.0,125.2L430.6,125.7L430.9,123.3L432.3,122.6L426.4,122.4L423.8,122.3L415.1,130.7L407.7,137.4Z"/>
    <path class="wtc-county" id="wtc-county-carroll" data-county="Carroll" d="M224.0,203.3L217.4,205.1L206.2,207.7L212.6,215.7L213.4,214.3L215.7,214.4L213.6,216.9L218.3,222.3L226.2,222.1L231.7,222.4L231.1,218.8L232.6,216.3L236.8,217.3L240.2,215.6L240.4,213.5L230.2,200.2L227.4,202.4L224.0,203.3Z"/>
    <path class="wtc-county" id="wtc-county-charles-city" data-county="Charles City" d="M430.9,173.5L429.6,177.2L438.3,178.2L440.6,177.8L441.7,180.2L445.1,178.1L447.4,181.4L449.1,182.3L453.2,180.7L453.2,174.5L451.1,175.5L451.5,173.8L451.5,172.2L449.1,173.4L449.1,171.9L444.5,171.5L440.0,170.1L438.3,168.2L435.1,167.1L432.6,172.1L430.9,173.5Z"/>
    <path class="wtc-county" id="wtc-county-charlotte" data-county="Charlotte" d="M337.7,184.0L332.8,194.9L333.0,197.4L338.1,197.1L339.4,198.8L342.6,196.1L343.4,199.9L341.9,200.9L346.6,204.6L345.7,206.6L347.0,210.2L345.5,211.5L348.1,214.1L357.2,202.6L360.2,191.5L357.9,191.1L356.0,188.3L354.0,187.2L351.9,187.8L348.7,186.1L348.3,184.6L345.3,184.1L346.0,181.4L343.0,183.1L340.4,182.6L337.7,184.0Z"/>
    <path class="wtc-county" id="wtc-county-chesterfield" data-county="Chesterfield" d="M395.1,171.4L393.8,171.5L393.6,174.5L396.2,176.1L398.5,176.4L397.9,178.1L400.6,180.2L404.0,178.6L407.2,180.5L409.4,180.1L412.6,182.8L414.9,183.3L419.1,183.0L421.1,182.3L420.2,179.8L423.8,178.5L423.0,181.8L421.7,182.1L423.4,181.7L424.9,177.7L426.0,177.7L428.9,177.6L429.6,177.2L430.9,173.5L429.1,175.3L427.2,174.0L422.8,173.2L420.9,169.7L415.7,168.4L414.5,164.6L410.4,164.5L410.4,163.3L406.8,162.7L398.5,169.0L397.9,170.9L395.1,171.4Z"/>
    <path class="wtc-county" id="wtc-county-clarke" data-county="Clarke" d="M384.5,61.9L381.9,65.5L382.1,67.1L377.4,75.5L380.6,76.8L383.0,76.5L386.2,78.8L388.7,76.8L394.7,72.8L396.6,69.8L384.5,61.9Z"/>
    <path class="wtc-county" id="wtc-county-craig" data-county="Craig" d="M254.9,159.0L252.3,161.0L248.5,162.7L248.3,164.4L251.1,164.6L250.2,166.1L239.8,171.0L242.3,177.4L248.7,174.3L252.3,175.9L256.0,173.7L259.1,173.5L263.4,171.1L265.1,169.9L267.2,165.9L269.8,163.9L266.2,159.2L266.6,157.8L266.0,157.0L259.4,160.8L254.9,159.0Z"/>
    <path class="wtc-county" id="wtc-county-culpeper" data-county="Culpeper" d="M390.2,95.6L381.1,101.5L376.0,106.0L372.8,105.4L379.4,111.2L380.6,114.0L379.4,115.0L381.5,117.5L380.9,118.4L384.3,118.4L384.7,117.4L391.7,114.9L391.9,114.3L396.6,114.3L399.4,115.3L400.0,113.6L404.0,115.5L407.4,114.5L409.1,115.1L408.1,112.6L404.7,111.6L402.1,112.4L397.4,105.5L394.9,103.8L394.0,98.5L391.9,95.6L390.2,95.6Z"/>
    <path class="wtc-county" id="wtc-county-cumberland" data-county="Cumberland" d="M358.9,176.0L363.0,178.1L366.2,177.3L367.4,177.9L372.6,174.4L375.5,169.8L378.5,169.2L381.3,158.9L382.1,157.2L380.0,155.9L380.4,153.7L377.0,151.8L375.7,152.0L372.1,155.3L371.7,158.5L358.9,176.0Z"/>
    <path class="wtc-county" id="wtc-county-dickenson" data-county="Dickenson" d="M116.6,184.1L117.0,188.8L120.0,192.6L120.9,194.8L126.8,197.3L127.9,198.8L130.0,197.9L132.3,196.3L133.8,196.8L137.7,194.3L140.4,193.7L141.3,193.2L140.0,189.6L135.3,183.6L134.5,180.0L131.9,178.0L130.6,178.6L128.3,180.5L120.4,182.5L116.6,184.1Z"/>
    <path class="wtc-county" id="wtc-county-dinwiddie" data-county="Dinwiddie" d="M398.5,184.7L392.3,187.6L393.0,196.9L396.0,196.4L400.4,197.7L403.4,201.3L406.8,202.4L408.9,203.4L422.1,196.6L422.1,186.1L418.7,185.0L419.1,183.0L414.9,183.3L412.6,182.8L409.4,180.1L407.2,180.5L401.5,184.7L398.5,184.7Z"/>
    <path class="wtc-county" id="wtc-county-essex" data-county="Essex" d="M438.9,128.0L439.4,129.4L437.2,129.7L435.7,132.2L440.4,136.1L441.5,139.0L443.8,141.3L444.5,143.7L443.2,144.7L445.5,146.6L448.9,147.1L449.1,149.8L451.3,149.0L453.2,149.8L457.2,149.0L460.4,153.0L464.5,150.5L461.5,148.8L457.2,143.0L451.3,138.5L451.3,137.0L449.4,132.3L445.5,130.5L443.8,131.5L442.1,127.3L438.9,128.0Z"/>
    <path class="wtc-county" id="wtc-county-fairfax" data-county="Fairfax" d="M426.0,86.2L426.8,87.4L429.8,87.1L428.3,85.2L426.0,86.2Z"/>
    <path class="wtc-county" id="wtc-county-fauquier" data-county="Fauquier" d="M386.2,78.8L381.9,82.8L382.8,84.0L378.7,85.6L383.4,89.5L384.9,89.7L385.5,93.8L390.2,95.6L391.9,95.6L394.0,98.5L394.9,103.8L397.4,105.5L402.1,112.4L404.7,111.6L408.1,112.6L408.1,109.2L414.3,103.9L403.6,88.1L404.7,84.3L406.8,81.0L388.7,76.8L386.2,78.8Z"/>
    <path class="wtc-county" id="wtc-county-floyd" data-county="Floyd" d="M235.7,197.1L232.6,199.6L230.2,200.2L240.4,213.5L241.5,211.1L244.5,211.3L244.9,208.2L247.4,207.3L250.6,204.6L253.8,203.7L256.2,202.0L257.7,199.0L259.4,199.2L260.6,196.7L261.5,191.6L260.2,188.9L257.2,189.5L251.1,191.5L247.2,194.9L243.4,196.0L242.1,195.2L240.0,196.6L237.2,195.5L235.7,197.1Z"/>
    <path class="wtc-county" id="wtc-county-fluvanna" data-county="Fluvanna" d="M357.2,148.9L358.9,151.1L361.5,152.3L372.1,155.3L375.7,152.0L377.0,151.8L377.2,150.9L382.8,142.5L372.8,138.1L368.3,136.5L357.2,148.9Z"/>
    <path class="wtc-county" id="wtc-county-franklin" data-county="Franklin" d="M450.2,213.5L447.7,213.8L447.9,215.9L451.1,217.0L450.2,214.9L450.2,215.0L450.6,214.3L450.6,213.9L450.6,214.0L450.4,214.0L450.2,214.0L450.0,214.0L450.0,213.9L450.2,213.5Z"/>
    <path class="wtc-county" id="wtc-county-frederick" data-county="Frederick" d="M356.4,72.4L354.3,74.3L359.6,76.0L359.8,74.3L363.2,71.6L366.0,71.9L366.0,74.1L367.9,77.1L376.8,76.6L377.4,75.5L382.1,67.1L381.9,65.5L384.5,61.9L373.0,54.4L366.0,50.0L365.1,53.2L366.2,54.6L364.9,56.4L366.4,57.0L361.5,62.4L362.8,63.1L360.4,65.9L362.6,67.7L359.1,70.9L356.4,72.4ZM375.3,67.3L375.3,65.5L378.3,66.7L375.5,69.9L375.3,67.3Z"/>
    <path class="wtc-county" id="wtc-county-giles" data-county="Giles" d="M209.8,178.8L207.9,179.9L217.2,187.4L220.4,185.5L231.9,181.7L239.6,179.3L242.3,177.4L239.8,171.0L238.5,170.4L237.7,167.6L235.1,168.1L231.1,170.5L222.3,174.1L221.5,172.8L217.0,170.8L217.0,170.7L215.5,173.4L217.4,175.6L213.4,178.0L209.8,178.8Z"/>
    <path class="wtc-county" id="wtc-county-gloucester" data-county="Gloucester" d="M466.2,160.4L465.3,164.8L466.6,166.8L465.5,169.2L462.8,170.6L466.0,173.6L469.4,177.6L475.5,181.9L480.2,180.5L484.3,180.0L482.3,179.2L480.9,176.4L478.5,174.5L481.1,172.5L478.5,171.3L478.3,167.4L479.1,165.7L475.3,164.4L469.8,161.3L466.2,160.4Z"/>
    <path class="wtc-county" id="wtc-county-goochland" data-county="Goochland" d="M382.8,142.5L377.2,150.9L377.0,151.8L380.4,153.7L380.0,155.9L382.1,157.2L387.4,159.2L389.8,158.0L389.6,156.0L391.7,155.3L396.4,158.6L397.0,160.1L400.6,159.9L406.8,162.7L409.1,161.9L407.0,158.2L408.3,154.3L403.6,154.3L398.5,153.0L396.4,151.5L393.0,151.1L389.6,145.9L387.0,145.3L385.5,143.3L382.8,142.5Z"/>
    <path class="wtc-county" id="wtc-county-grayson" data-county="Grayson" d="M170.2,219.2L168.5,220.6L187.7,221.4L198.1,221.6L214.5,222.2L218.3,222.3L213.6,216.9L212.6,215.7L206.2,207.7L203.6,208.7L203.4,210.0L197.7,210.5L193.0,210.2L185.7,211.6L182.6,213.0L176.4,213.9L177.0,215.3L172.8,217.6L170.2,219.2Z"/>
    <path class="wtc-county" id="wtc-county-greene" data-county="Greene" d="M357.7,111.9L354.3,115.3L353.6,117.1L347.2,120.4L364.7,126.0L369.4,120.7L365.7,120.5L361.1,115.1L360.2,112.6L360.6,110.2L359.6,108.7L357.7,111.9Z"/>
    <path class="wtc-county" id="wtc-county-greensville" data-county="Greensville" d="M400.2,223.1L428.1,223.2L424.7,222.6L423.4,217.9L421.1,216.7L418.3,216.8L416.0,215.7L420.2,213.5L416.6,212.7L418.5,204.3L415.5,205.4L411.5,205.0L408.9,203.4L406.8,202.4L406.8,213.2L400.2,223.1ZM412.8,213.2L414.9,213.2L415.5,215.0L412.8,215.4L412.8,213.2Z"/>
    <path class="wtc-county" id="wtc-county-halifax" data-county="Halifax" d="M314.3,223.3L318.9,223.3L339.1,223.3L343.0,223.3L344.0,221.0L344.3,217.4L346.4,214.6L348.1,214.1L345.5,211.5L347.0,210.2L345.7,206.6L346.6,204.6L341.9,200.9L343.4,199.9L342.6,196.1L339.4,198.8L338.1,197.1L333.0,197.4L332.8,194.9L328.9,193.2L327.0,194.4L321.7,192.5L314.3,223.3Z"/>
    <path class="wtc-county" id="wtc-county-hanover" data-county="Hanover" d="M398.5,153.0L403.6,154.3L408.3,154.3L412.6,155.8L416.4,154.6L419.1,155.6L421.7,160.3L431.5,164.3L435.5,160.8L437.4,161.1L438.3,159.0L439.1,156.9L434.7,157.2L434.9,155.7L431.5,155.5L432.1,153.9L428.3,153.8L428.3,152.3L425.3,149.4L422.1,150.1L422.3,148.6L420.4,147.0L420.6,144.9L419.4,143.1L417.0,143.8L414.5,141.6L413.4,141.9L411.5,139.4L409.6,139.6L407.7,137.4L404.9,136.4L398.5,153.0Z"/>
    <path class="wtc-county" id="wtc-county-henrico" data-county="Henrico" d="M406.8,162.7L410.4,163.3L414.3,163.0L413.6,161.7L417.7,161.9L419.8,160.7L422.3,163.6L422.3,166.3L421.1,165.5L420.9,169.7L422.8,173.2L427.2,174.0L429.1,175.3L430.9,173.5L432.6,172.1L435.1,167.1L431.5,164.3L421.7,160.3L419.1,155.6L416.4,154.6L412.6,155.8L408.3,154.3L407.0,158.2L409.1,161.9L406.8,162.7Z"/>
    <path class="wtc-county" id="wtc-county-henry" data-county="Henry" d="M265.5,208.4L262.3,209.2L262.3,212.5L264.5,216.5L264.7,223.3L266.2,223.3L284.9,223.3L289.1,204.7L287.4,206.4L283.2,207.6L282.1,208.7L279.6,208.5L267.9,206.2L266.8,209.1L265.5,208.4ZM273.6,214.9L274.9,213.3L277.4,213.7L277.9,217.1L276.2,216.9L273.6,214.9Z"/>
    <path class="wtc-county" id="wtc-county-highland" data-county="Highland" d="M288.7,101.8L285.7,108.0L286.4,111.3L283.8,114.4L279.1,118.8L280.0,121.1L285.3,123.8L293.8,125.1L296.8,126.2L298.7,124.1L301.3,124.1L303.0,122.5L303.0,120.4L307.9,114.3L308.7,112.5L298.9,109.8L295.3,104.2L288.7,101.8Z"/>
    <path class="wtc-county" id="wtc-county-isle-of-wight" data-county="Isle of Wight" d="M450.2,213.5L450.0,213.9L450.0,214.0L450.2,214.0L450.4,214.0L450.6,214.0L450.6,213.9L450.6,214.3L450.2,215.0L450.2,214.9L451.1,217.0L451.7,217.3L460.6,210.9L473.6,201.1L476.4,200.4L476.2,199.0L470.9,194.8L466.2,193.9L465.1,187.7L463.6,192.7L454.7,196.4L454.0,198.8L456.6,201.8L456.6,203.3L454.5,205.0L453.6,208.7L451.5,210.6L450.2,213.5Z"/>
    <path class="wtc-county" id="wtc-county-james-city" data-county="James City" d="M451.5,173.8L451.1,175.5L453.2,174.5L453.2,180.7L454.0,181.9L457.9,182.5L460.0,184.8L461.7,183.5L466.4,183.1L468.7,186.3L470.6,185.4L470.0,183.5L469.4,182.0L465.7,181.3L461.9,181.3L461.9,178.0L460.2,175.2L461.1,174.3L465.1,174.4L466.0,173.6L462.8,170.6L461.1,168.5L459.4,170.4L456.2,169.5L452.1,170.5L451.5,173.8Z"/>
    <path class="wtc-county" id="wtc-county-king-and-queen" data-county="King and Queen" d="M441.5,139.0L436.8,138.6L434.9,139.9L434.9,143.3L436.8,143.9L439.6,149.6L441.3,150.3L443.8,153.4L450.6,155.1L451.3,157.3L452.8,157.2L458.9,163.3L458.1,165.5L461.1,168.5L462.8,170.6L465.5,169.2L466.6,166.8L465.3,164.8L466.2,160.4L462.3,157.2L460.4,153.0L457.2,149.0L453.2,149.8L451.3,149.0L449.1,149.8L448.9,147.1L445.5,146.6L443.2,144.7L444.5,143.7L443.8,141.3L441.5,139.0Z"/>
    <path class="wtc-county" id="wtc-county-king-george" data-county="King George" d="M428.7,116.2L426.6,116.4L425.3,121.4L426.4,122.4L432.3,122.6L430.9,123.3L430.6,125.7L433.0,125.2L434.5,126.5L438.9,128.0L442.1,127.3L443.0,125.0L443.0,121.4L446.0,120.4L443.8,118.4L445.1,114.7L443.2,113.1L440.6,115.1L437.4,115.1L436.2,116.4L431.5,117.2L428.7,116.2Z"/>
    <path class="wtc-county" id="wtc-county-king-william" data-county="King William" d="M425.3,149.4L428.3,152.3L428.3,153.8L432.1,153.9L431.5,155.5L434.9,155.7L434.7,157.2L439.1,156.9L438.3,159.0L440.4,159.5L446.8,162.6L447.7,161.4L449.1,163.0L454.5,162.2L453.0,164.7L456.6,163.6L458.1,165.5L458.9,163.3L452.8,157.2L451.3,157.3L450.6,155.1L443.8,153.4L441.3,150.3L439.6,149.6L436.8,143.9L434.9,143.3L431.5,142.3L431.1,144.3L425.3,149.4Z"/>
    <path class="wtc-county" id="wtc-county-lancaster" data-county="Lancaster" d="M474.9,146.4L471.5,146.6L470.2,148.1L467.0,149.2L470.4,150.6L473.2,154.7L473.2,156.8L474.7,158.1L477.0,156.7L483.6,160.0L487.7,158.5L484.9,157.3L486.0,155.8L482.8,154.0L483.4,150.6L481.3,149.9L479.6,147.1L477.2,147.4L474.9,146.4Z"/>
    <path class="wtc-county" id="wtc-county-lee" data-county="Lee" d="M62.8,216.1L58.7,216.0L51.7,218.5L50.0,219.8L62.1,220.0L73.6,220.0L74.7,220.2L90.9,220.2L93.2,215.4L100.4,212.0L100.2,211.2L103.6,208.0L99.8,205.2L97.2,202.5L91.9,204.6L85.7,204.8L82.3,208.9L81.9,211.4L78.5,211.6L71.5,213.4L64.5,216.0L62.8,216.1Z"/>
    <path class="wtc-county" id="wtc-county-loudoun" data-county="Loudoun" d="M396.6,69.8L394.7,72.8L388.7,76.8L406.8,81.0L408.9,81.7L410.6,83.7L413.0,84.3L414.0,86.7L426.2,74.2L418.3,73.1L417.0,71.1L414.9,70.5L415.1,67.5L418.5,64.6L416.4,62.7L413.6,61.9L412.3,59.6L409.1,59.7L405.5,58.4L403.0,58.6L401.1,60.8L396.6,69.8Z"/>
    <path class="wtc-county" id="wtc-county-louisa" data-county="Louisa" d="M368.3,136.5L372.8,138.1L382.8,142.5L385.5,143.3L387.0,145.3L389.6,145.9L393.0,151.1L396.4,151.5L398.5,153.0L404.9,136.4L401.9,134.9L399.1,132.4L391.3,129.9L389.1,129.9L386.4,128.7L383.6,128.8L380.4,127.9L376.4,129.2L374.0,129.1L371.5,133.2L368.3,136.5Z"/>
    <path class="wtc-county" id="wtc-county-lunenburg" data-county="Lunenburg" d="M357.2,202.6L361.5,205.0L363.0,204.2L367.4,205.1L372.1,207.6L379.8,208.1L384.9,209.3L386.2,194.8L381.5,195.2L376.4,192.8L372.8,190.4L372.3,189.1L370.2,190.0L365.1,189.9L360.2,191.5L357.2,202.6Z"/>
    <path class="wtc-county" id="wtc-county-madison" data-county="Madison" d="M366.4,99.7L363.6,102.3L363.8,103.6L360.6,106.0L359.6,108.7L360.6,110.2L360.2,112.6L361.1,115.1L365.7,120.5L369.4,120.7L371.5,123.0L376.0,121.8L375.5,121.0L378.9,120.2L380.9,118.4L381.5,117.5L379.4,115.0L380.6,114.0L379.4,111.2L372.8,105.4L366.4,99.7Z"/>
    <path class="wtc-county" id="wtc-county-mathews" data-county="Mathews" d="M479.1,165.7L478.3,167.4L478.5,171.3L481.1,172.5L484.9,174.6L488.7,177.8L490.4,173.2L489.4,167.6L487.7,165.5L485.5,166.8L484.0,164.9L481.1,164.4L479.1,165.7Z"/>
    <path class="wtc-county" id="wtc-county-mecklenburg" data-county="Mecklenburg" d="M348.1,214.1L346.4,214.6L344.3,217.4L344.0,221.0L343.0,223.3L359.4,223.3L367.2,223.2L383.6,223.2L384.9,209.3L379.8,208.1L372.1,207.6L367.4,205.1L363.0,204.2L361.5,205.0L357.2,202.6L348.1,214.1Z"/>
    <path class="wtc-county" id="wtc-county-middlesex" data-county="Middlesex" d="M460.4,153.0L462.3,157.2L466.2,160.4L469.8,161.3L475.3,164.4L479.1,165.7L481.1,164.4L484.0,164.9L487.2,162.9L480.6,161.7L479.1,159.8L472.8,159.6L470.4,156.9L468.3,152.1L464.5,150.5L460.4,153.0Z"/>
    <path class="wtc-county" id="wtc-county-montgomery" data-county="Montgomery" d="M231.9,181.7L231.5,183.7L233.0,185.3L236.6,183.9L234.5,185.9L236.4,188.3L233.4,190.9L235.7,193.3L234.3,193.3L235.7,197.1L237.2,195.5L240.0,196.6L242.1,195.2L243.4,196.0L247.2,194.9L251.1,191.5L257.2,189.5L256.6,182.3L252.6,177.9L252.3,175.9L248.7,174.3L242.3,177.4L239.6,179.3L231.9,181.7Z"/>
    <path class="wtc-county" id="wtc-county-nelson" data-county="Nelson" d="M317.9,143.3L318.5,145.4L317.0,148.6L318.9,147.9L320.6,149.7L323.0,150.1L323.2,153.5L328.1,155.0L333.2,163.9L334.9,164.1L337.4,163.4L338.9,158.1L342.6,158.7L343.8,156.9L348.5,155.5L348.3,152.7L345.7,152.5L346.8,151.2L336.8,134.1L334.7,135.2L332.8,140.1L330.6,140.4L326.8,143.9L324.5,143.4L323.4,141.8L317.9,143.3Z"/>
    <path class="wtc-county" id="wtc-county-new-kent" data-county="New Kent" d="M431.5,164.3L435.1,167.1L438.3,168.2L440.0,170.1L444.5,171.5L449.1,171.9L449.1,173.4L451.5,172.2L451.5,173.8L452.1,170.5L456.2,169.5L459.4,170.4L461.1,168.5L458.1,165.5L456.6,163.6L453.0,164.7L454.5,162.2L449.1,163.0L447.7,161.4L446.8,162.6L440.4,159.5L438.3,159.0L437.4,161.1L435.5,160.8L431.5,164.3Z"/>
    <path class="wtc-county" id="wtc-county-northampton" data-county="Northampton" d="M508.7,163.6L506.4,169.8L505.7,174.4L503.8,177.4L503.4,180.9L504.3,184.0L506.4,186.8L506.6,191.1L508.5,190.9L507.7,189.1L511.1,189.2L514.9,185.9L517.2,181.5L517.0,178.6L518.9,178.1L521.5,174.0L525.3,169.4L524.3,168.7L521.9,169.5L516.2,168.1L517.7,164.8L514.7,163.3L508.7,163.6Z"/>
    <path class="wtc-county" id="wtc-county-northumberland" data-county="Northumberland" d="M474.3,134.8L471.1,135.3L468.5,136.8L467.4,138.9L472.1,140.9L472.6,144.7L474.9,146.4L477.2,147.4L479.6,147.1L481.3,149.9L483.4,150.6L482.8,154.0L486.0,155.8L486.8,148.0L490.0,146.8L491.1,143.5L484.7,140.0L480.4,138.9L477.2,136.1L474.3,134.8Z"/>
    <path class="wtc-county" id="wtc-county-nottoway" data-county="Nottoway" d="M372.8,178.6L372.3,189.1L372.8,190.4L376.4,192.8L381.5,195.2L386.2,194.8L388.3,196.9L393.0,196.9L392.3,187.6L398.5,184.7L396.8,184.2L372.8,178.6Z"/>
    <path class="wtc-county" id="wtc-county-orange" data-county="Orange" d="M364.7,126.0L374.0,129.1L376.4,129.2L380.4,127.9L383.6,128.8L386.4,128.7L389.1,129.9L403.4,117.0L404.0,115.5L400.0,113.6L399.4,115.3L396.6,114.3L391.9,114.3L391.7,114.9L384.7,117.4L384.3,118.4L380.9,118.4L378.9,120.2L375.5,121.0L376.0,121.8L371.5,123.0L369.4,120.7L364.7,126.0Z"/>
    <path class="wtc-county" id="wtc-county-page" data-county="Page" d="M348.3,101.1L345.5,106.6L348.9,107.4L349.6,109.3L353.4,110.4L354.0,111.6L357.7,111.9L359.6,108.7L360.6,106.0L363.8,103.6L363.6,102.3L366.4,99.7L367.9,96.4L366.8,95.3L367.4,93.2L369.6,91.9L369.1,90.6L363.0,88.1L356.2,93.9L353.8,93.6L351.5,96.2L348.3,101.1Z"/>
    <path class="wtc-county" id="wtc-county-patrick" data-county="Patrick" d="M240.4,213.5L240.2,215.6L236.8,217.3L232.6,216.3L231.1,218.8L231.7,222.4L241.7,222.8L250.4,223.2L264.7,223.3L264.5,216.5L262.3,212.5L262.3,209.2L265.5,208.4L264.0,205.6L253.8,203.7L250.6,204.6L247.4,207.3L244.9,208.2L244.5,211.3L241.5,211.1L240.4,213.5Z"/>
    <path class="wtc-county" id="wtc-county-pittsylvania" data-county="Pittsylvania" d="M289.1,204.7L284.9,223.3L296.8,223.4L299.4,223.4L300.0,221.3L296.4,219.7L297.4,218.8L302.1,219.8L303.6,217.3L305.5,219.4L307.4,219.8L309.1,221.7L307.2,221.6L306.8,223.4L314.3,223.3L321.7,192.5L319.6,190.9L316.4,192.1L311.7,188.4L309.6,190.0L307.4,188.7L303.2,190.8L303.2,192.4L300.9,192.9L298.1,192.7L299.8,194.9L298.7,195.8L295.1,193.5L291.9,193.7L289.1,204.7Z"/>
    <path class="wtc-county" id="wtc-county-powhatan" data-county="Powhatan" d="M378.5,169.2L382.6,169.4L385.5,168.2L385.5,167.0L392.3,168.0L394.5,169.1L395.1,171.4L397.9,170.9L398.5,169.0L406.8,162.7L400.6,159.9L397.0,160.1L396.4,158.6L391.7,155.3L389.6,156.0L389.8,158.0L387.4,159.2L382.1,157.2L381.3,158.9L378.5,169.2Z"/>
    <path class="wtc-county" id="wtc-county-prince-edward" data-county="Prince Edward" d="M346.0,181.4L345.3,184.1L348.3,184.6L348.7,186.1L351.9,187.8L354.0,187.2L356.0,188.3L357.9,191.1L360.2,191.5L365.1,189.9L370.2,190.0L372.3,189.1L372.8,178.6L372.6,174.4L367.4,177.9L366.2,177.3L363.0,178.1L358.9,176.0L356.2,176.6L353.8,175.6L351.3,172.6L351.3,175.7L349.4,177.1L346.0,181.4Z"/>
    <path class="wtc-county" id="wtc-county-prince-george" data-county="Prince George" d="M422.1,186.1L422.1,196.6L436.6,189.5L441.5,185.3L445.1,183.6L444.9,182.3L447.4,181.4L445.1,178.1L441.7,180.2L440.6,177.8L438.3,178.2L429.6,177.2L428.9,177.6L430.6,178.8L427.7,180.7L426.4,180.4L426.0,177.7L424.9,177.7L423.4,181.7L426.2,184.5L425.3,185.9L422.1,186.1Z"/>
    <path class="wtc-county" id="wtc-county-prince-william" data-county="Prince William" d="M406.8,81.0L404.7,84.3L403.6,88.1L414.3,103.9L416.8,101.8L420.9,103.5L423.6,106.0L427.9,107.0L431.1,101.9L431.1,99.2L432.6,99.1L429.4,95.7L424.3,94.1L420.0,90.7L416.4,89.6L415.5,87.0L414.0,86.7L413.0,84.3L410.6,83.7L408.9,81.7L406.8,81.0ZM418.5,91.1L418.7,93.3L414.5,93.4L417.4,90.6L420.0,90.7L418.5,91.1Z"/>
    <path class="wtc-county" id="wtc-county-pulaski" data-county="Pulaski" d="M217.2,187.4L212.8,189.4L213.8,191.8L214.9,194.6L216.8,195.9L224.0,203.3L227.4,202.4L230.2,200.2L232.6,199.6L235.7,197.1L234.3,193.3L235.7,193.3L233.4,190.9L232.8,188.6L235.1,187.5L236.4,188.3L234.5,185.9L236.6,183.9L233.0,185.3L231.5,183.7L231.9,181.7L220.4,185.5L217.2,187.4Z"/>
    <path class="wtc-county" id="wtc-county-rappahannock" data-county="Rappahannock" d="M369.6,91.9L367.4,93.2L366.8,95.3L367.9,96.4L366.4,99.7L372.8,105.4L376.0,106.0L381.1,101.5L390.2,95.6L385.5,93.8L384.9,89.7L383.4,89.5L378.7,85.6L377.4,86.3L375.5,89.9L371.5,92.0L369.6,91.9Z"/>
    <path class="wtc-county" id="wtc-county-richmond" data-county="Richmond" d="M449.4,132.3L451.3,137.0L454.5,138.5L455.3,140.8L457.7,141.4L462.1,146.6L464.7,147.2L467.0,149.2L470.2,148.1L471.5,146.6L474.9,146.4L472.6,144.7L472.1,140.9L467.4,138.9L466.2,137.9L459.6,136.8L460.0,135.0L456.2,133.1L453.0,129.5L449.4,132.3Z"/>
    <path class="wtc-county" id="wtc-county-roanoke" data-county="Roanoke" d="M266.0,180.6L268.1,181.2L270.6,183.6L273.8,180.9L274.7,177.8L272.8,176.7L269.4,176.3L266.6,177.9L266.0,180.6Z"/>
    <path class="wtc-county" id="wtc-county-rockbridge" data-county="Rockbridge" d="M287.2,150.9L286.4,152.6L287.4,156.2L286.6,156.9L293.2,160.9L293.0,161.8L297.7,164.6L301.5,162.2L300.0,160.2L301.3,159.6L306.6,157.0L311.5,149.0L313.4,148.0L314.7,149.4L317.0,148.6L318.5,145.4L317.9,143.3L316.2,142.0L298.5,131.8L295.5,136.7L291.1,140.7L288.7,144.4L291.3,145.1L287.2,150.9ZM299.8,149.6L302.6,149.5L300.2,150.8L299.8,149.6ZM304.5,152.2L307.4,151.1L307.9,152.1L305.1,155.0L304.5,152.2Z"/>
    <path class="wtc-county" id="wtc-county-rockingham" data-county="Rockingham" d="M323.8,91.8L321.9,94.2L321.7,97.8L320.0,97.8L313.8,108.6L332.3,118.9L333.4,118.7L342.1,124.7L344.3,122.7L347.7,121.4L347.2,120.4L353.6,117.1L354.3,115.3L357.7,111.9L354.0,111.6L353.4,110.4L349.6,109.3L348.9,107.4L345.5,106.6L348.3,101.1L334.9,91.7L327.4,86.5L323.8,91.8ZM332.1,111.0L334.9,108.5L337.0,110.0L337.4,112.0L334.3,112.5L332.3,113.8L332.1,111.0Z"/>
    <path class="wtc-county" id="wtc-county-russell" data-county="Russell" d="M130.0,197.9L131.7,201.8L125.3,203.5L128.3,209.2L129.6,213.4L136.0,210.3L143.2,208.1L142.3,207.0L144.9,204.7L150.4,203.3L152.6,204.2L156.2,202.7L158.9,200.4L162.3,198.6L159.6,193.0L155.7,189.5L155.1,187.7L150.0,188.6L147.2,193.1L140.4,193.7L137.7,194.3L133.8,196.8L132.3,196.3L130.0,197.9Z"/>
    <path class="wtc-county" id="wtc-county-scott" data-county="Scott" d="M103.6,208.0L100.2,211.2L100.4,212.0L93.2,215.4L90.9,220.2L100.0,220.2L113.2,220.2L131.9,220.1L129.6,213.4L128.3,209.2L125.3,203.5L125.5,203.0L111.7,203.4L110.4,205.4L107.9,207.0L104.9,206.1L103.6,208.0Z"/>
    <path class="wtc-county" id="wtc-county-shenandoah" data-county="Shenandoah" d="M354.3,74.3L352.6,75.7L353.8,76.5L350.9,79.7L349.4,78.7L346.2,82.0L344.0,83.3L344.0,81.4L339.1,85.0L334.9,91.7L348.3,101.1L351.5,96.2L353.8,93.6L356.2,93.9L363.0,88.1L366.6,84.6L368.7,81.0L366.6,80.6L367.9,77.1L366.0,74.1L366.0,71.9L363.2,71.6L359.8,74.3L359.6,76.0L354.3,74.3Z"/>
    <path class="wtc-county" id="wtc-county-smyth" data-county="Smyth" d="M162.3,198.6L158.9,200.4L167.2,208.7L171.9,217.9L172.8,217.6L177.0,215.3L176.4,213.9L182.6,213.0L185.7,211.6L193.0,210.2L192.6,208.5L189.1,202.1L186.2,199.0L182.8,195.6L180.2,197.0L180.4,195.1L174.5,196.8L168.1,200.2L166.6,197.5L162.3,198.6Z"/>
    <path class="wtc-county" id="wtc-county-southampton" data-county="Southampton" d="M420.2,213.5L416.0,215.7L418.3,216.8L421.1,216.7L423.4,217.9L424.7,222.6L428.1,223.2L436.0,223.1L450.6,223.2L450.6,222.7L451.7,217.3L451.1,217.0L447.9,215.9L447.7,213.8L450.2,213.5L451.5,210.6L453.6,208.7L454.5,205.0L456.6,203.3L456.6,201.8L454.0,198.8L454.7,196.4L448.5,199.5L438.7,204.6L425.3,210.9L420.2,213.5Z"/>
    <path class="wtc-county" id="wtc-county-spotsylvania" data-county="Spotsylvania" d="M389.1,129.9L391.3,129.9L399.1,132.4L401.9,134.9L404.9,136.4L407.7,137.4L415.1,130.7L423.8,122.3L420.9,121.6L419.1,120.0L415.3,120.3L414.3,118.6L409.1,115.1L407.4,114.5L404.0,115.5L403.4,117.0L389.1,129.9Z"/>
    <path class="wtc-county" id="wtc-county-stafford" data-county="Stafford" d="M408.1,112.6L409.1,115.1L414.3,118.6L416.0,117.6L418.1,118.0L419.1,120.0L420.9,121.6L423.8,122.3L426.4,122.4L425.3,121.4L426.6,116.4L428.7,116.2L427.2,113.7L426.4,110.3L427.9,107.0L423.6,106.0L420.9,103.5L416.8,101.8L414.3,103.9L408.1,109.2L408.1,112.6Z"/>
    <path class="wtc-county" id="wtc-county-surry" data-county="Surry" d="M436.6,189.5L441.3,192.2L443.6,192.0L447.9,192.9L447.7,196.1L448.5,199.5L454.7,196.4L463.6,192.7L465.1,187.7L465.7,185.9L464.3,184.4L462.6,187.3L460.6,187.2L457.4,184.4L453.6,183.8L451.1,184.2L449.1,182.3L447.4,181.4L444.9,182.3L445.1,183.6L441.5,185.3L436.6,189.5Z"/>
    <path class="wtc-county" id="wtc-county-sussex" data-county="Sussex" d="M408.9,203.4L411.5,205.0L415.5,205.4L418.5,204.3L416.6,212.7L420.2,213.5L425.3,210.9L438.7,204.6L448.5,199.5L447.7,196.1L447.9,192.9L443.6,192.0L441.3,192.2L436.6,189.5L422.1,196.6L408.9,203.4Z"/>
    <path class="wtc-county" id="wtc-county-tazewell" data-county="Tazewell" d="M155.1,187.7L155.7,189.5L159.6,193.0L162.3,198.6L166.6,197.5L168.1,200.2L174.5,196.8L180.4,195.1L180.2,197.0L182.8,195.6L181.3,194.1L184.9,192.7L187.4,192.7L192.6,190.7L192.6,188.6L189.1,188.0L190.0,186.7L193.0,185.9L191.7,183.4L195.3,182.2L189.6,178.4L187.2,176.1L185.5,177.2L183.8,180.0L178.9,180.9L178.5,182.4L175.7,183.9L168.5,184.2L164.9,182.0L163.4,184.2L157.9,185.9L155.1,187.7Z"/>
    <path class="wtc-county" id="wtc-county-warren" data-county="Warren" d="M363.0,88.1L369.1,90.6L369.6,91.9L371.5,92.0L375.5,89.9L377.4,86.3L378.7,85.6L382.8,84.0L381.9,82.8L386.2,78.8L383.0,76.5L380.6,76.8L377.4,75.5L376.8,76.6L367.9,77.1L366.6,80.6L368.7,81.0L366.6,84.6L363.0,88.1Z"/>
    <path class="wtc-county" id="wtc-county-washington" data-county="Washington" d="M158.9,200.4L156.2,202.7L152.6,204.2L150.4,203.3L144.9,204.7L142.3,207.0L143.2,208.1L136.0,210.3L129.6,213.4L131.9,220.1L134.9,220.1L138.7,218.3L142.6,217.6L140.6,220.2L153.2,220.2L153.8,218.9L159.6,219.1L170.2,219.2L172.8,217.6L171.9,217.9L167.2,208.7L158.9,200.4Z"/>
    <path class="wtc-county" id="wtc-county-westmoreland" data-county="Westmoreland" d="M446.0,120.4L443.0,121.4L443.0,125.0L442.1,127.3L443.8,131.5L445.5,130.5L449.4,132.3L453.0,129.5L456.2,133.1L460.0,135.0L459.6,136.8L466.2,137.9L467.4,138.9L468.5,136.8L471.1,135.3L474.3,134.8L472.8,132.3L469.4,130.4L468.5,128.1L463.4,127.7L462.1,128.7L460.6,127.3L455.3,127.2L447.9,124.2L447.9,121.7L446.0,120.4Z"/>
    <path class="wtc-county" id="wtc-county-wise" data-county="Wise" d="M97.9,197.7L98.5,200.5L97.2,202.5L99.8,205.2L103.6,208.0L104.9,206.1L107.9,207.0L110.4,205.4L111.7,203.4L125.5,203.0L125.3,203.5L131.7,201.8L130.0,197.9L127.9,198.8L126.8,197.3L120.9,194.8L120.0,192.6L117.0,188.8L116.6,184.1L115.7,184.5L111.7,187.0L106.4,189.3L106.4,193.7L103.0,195.7L100.4,195.8L97.9,197.7ZM110.0,200.9L111.7,199.0L113.8,198.6L113.0,201.8L110.0,200.9Z"/>
    <path class="wtc-county" id="wtc-county-wythe" data-county="Wythe" d="M213.8,191.8L206.6,193.4L201.9,194.8L198.7,194.7L195.3,193.3L191.7,195.0L186.2,199.0L189.1,202.1L192.6,208.5L193.0,210.2L197.7,210.5L203.4,210.0L203.6,208.7L206.2,207.7L217.4,205.1L224.0,203.3L216.8,195.9L214.9,194.6L213.8,191.8Z"/>
    <path class="wtc-county" id="wtc-county-york" data-county="York" d="M466.0,173.6L465.1,174.4L461.1,174.3L460.2,175.2L461.9,178.0L463.0,179.8L464.7,178.8L465.7,181.3L469.4,182.0L470.0,183.5L471.5,183.1L474.5,185.6L477.7,190.1L479.1,190.5L481.5,189.8L480.4,186.9L481.5,186.4L481.7,182.8L477.0,183.4L475.5,181.9L469.4,177.6L466.0,173.6Z"/>
    <path class="wtc-county" id="wtc-county-alexandria" data-county="Alexandria" d="M439.1,86.9L437.2,87.9L437.7,89.6L440.2,89.3L443.4,90.3L443.4,90.0L443.2,87.1L439.1,86.9Z"/>
    <path class="wtc-county" id="wtc-county-bristol" data-county="Bristol" d="M134.9,220.1L140.6,220.2L142.6,217.6L138.7,218.3L134.9,220.1Z"/>
    <path class="wtc-county" id="wtc-county-buena-vista" data-county="Buena Vista" d="M304.5,152.2L305.1,155.0L307.9,152.1L307.4,151.1L304.5,152.2Z"/>
    <path class="wtc-county" id="wtc-county-charlottesville" data-county="Charlottesville" d="M355.5,135.3L355.7,136.3L359.6,135.6L359.8,133.4L357.7,132.8L355.5,135.3Z"/>
    <path class="wtc-county" id="wtc-county-chesapeake" data-county="Chesapeake" d="M480.0,204.1L477.9,207.0L476.0,222.8L486.4,222.8L497.7,222.8L497.9,216.0L500.9,215.3L500.2,213.2L496.6,210.6L493.0,209.8L491.7,205.7L487.9,206.7L487.7,208.1L482.8,208.9L481.1,207.2L482.3,205.8L480.0,204.1Z"/>
    <path class="wtc-county" id="wtc-county-colonial-heights" data-county="Colonial Heights" d="M421.7,182.1L423.0,181.8L423.8,178.5L420.2,179.8L421.1,182.3L421.7,182.1Z"/>
    <path class="wtc-county" id="wtc-county-covington" data-county="Covington" d="M267.4,151.1L268.3,151.8L269.8,148.5L268.7,147.9L267.4,151.1Z"/>
    <path class="wtc-county" id="wtc-county-danville" data-county="Danville" d="M306.8,223.4L307.2,221.6L309.1,221.7L307.4,219.8L305.5,219.4L303.6,217.3L302.1,219.8L297.4,218.8L296.4,219.7L300.0,221.3L299.4,223.4L306.8,223.4Z"/>
    <path class="wtc-county" id="wtc-county-emporia" data-county="Emporia" d="M412.8,213.2L412.8,215.4L415.5,215.0L414.9,213.2L412.8,213.2Z"/>
    <path class="wtc-county" id="wtc-county-fairfax" data-county="Fairfax" d="M426.0,86.2L426.8,87.4L429.8,87.1L428.3,85.2L426.0,86.2Z"/>
    <path class="wtc-county" id="wtc-county-franklin" data-county="Franklin" d="M450.2,213.5L447.7,213.8L447.9,215.9L451.1,217.0L450.2,214.9L450.2,215.0L450.6,214.3L450.6,213.9L450.6,214.0L450.4,214.0L450.2,214.0L450.0,214.0L450.0,213.9L450.2,213.5Z"/>
    <path class="wtc-county" id="wtc-county-fredericksburg" data-county="Fredericksburg" d="M419.1,120.0L418.1,118.0L416.0,117.6L414.3,118.6L415.3,120.3L419.1,120.0Z"/>
    <path class="wtc-county" id="wtc-county-galax" data-county="Galax" d="M212.6,215.7L213.6,216.9L215.7,214.4L213.4,214.3L212.6,215.7Z"/>
    <path class="wtc-county" id="wtc-county-hampton" data-county="Hampton" d="M479.1,190.5L478.3,194.0L481.9,196.8L486.2,195.3L487.0,196.1L488.9,191.2L487.9,189.2L487.0,190.0L481.5,189.8L479.1,190.5Z"/>
    <path class="wtc-county" id="wtc-county-harrisonburg" data-county="Harrisonburg" d="M332.1,111.0L332.3,113.8L334.3,112.5L337.4,112.0L337.0,110.0L334.9,108.5L332.1,111.0Z"/>
    <path class="wtc-county" id="wtc-county-hopewell" data-county="Hopewell" d="M426.0,177.7L426.4,180.4L427.7,180.7L430.6,178.8L428.9,177.6L426.0,177.7Z"/>
    <path class="wtc-county" id="wtc-county-lexington" data-county="Lexington" d="M299.8,149.6L300.2,150.8L302.6,149.5L299.8,149.6Z"/>
    <path class="wtc-county" id="wtc-county-lynchburg" data-county="Lynchburg" d="M316.2,168.5L314.7,168.4L311.3,170.6L313.4,172.9L311.9,175.1L314.5,176.4L316.6,175.9L322.1,172.8L320.0,172.6L316.2,168.5Z"/>
    <path class="wtc-county" id="wtc-county-manassas" data-county="Manassas" d="M417.4,90.6L414.5,93.4L418.7,93.3L418.5,91.1L417.4,90.6Z"/>
    <path class="wtc-county" id="wtc-county-manassas-park" data-county="Manassas Park" d="M420.0,90.7L417.4,90.6L418.5,91.1L420.0,90.7Z"/>
    <path class="wtc-county" id="wtc-county-martinsville" data-county="Martinsville" d="M273.6,214.9L276.2,216.9L277.9,217.1L277.4,213.7L274.9,213.3L273.6,214.9Z"/>
    <path class="wtc-county" id="wtc-county-newport-news" data-county="Newport News" d="M468.7,186.3L468.3,189.1L471.3,191.4L477.4,194.5L479.6,198.0L481.9,196.8L478.3,194.0L479.1,190.5L477.7,190.1L474.5,185.6L471.5,183.1L470.0,183.5L470.6,185.4L468.7,186.3Z"/>
    <path class="wtc-county" id="wtc-county-norfolk" data-county="Norfolk" d="M485.3,202.8L487.9,206.7L491.7,205.7L493.4,206.4L494.0,200.3L489.1,198.3L485.5,198.6L486.2,203.0L485.3,202.8Z"/>
    <path class="wtc-county" id="wtc-county-norton" data-county="Norton" d="M110.0,200.9L113.0,201.8L113.8,198.6L111.7,199.0L110.0,200.9Z"/>
    <path class="wtc-county" id="wtc-county-petersburg" data-county="Petersburg" d="M419.1,183.0L418.7,185.0L422.1,186.1L425.3,185.9L426.2,184.5L423.4,181.7L421.7,182.1L421.1,182.3L419.1,183.0Z"/>
    <path class="wtc-county" id="wtc-county-poquoson" data-county="Poquoson" d="M481.5,186.4L480.4,186.9L481.5,189.8L487.0,190.0L487.9,189.2L485.1,187.6L484.3,186.1L481.5,186.4Z"/>
    <path class="wtc-county" id="wtc-county-portsmouth" data-county="Portsmouth" d="M480.9,202.3L480.0,204.1L482.3,205.8L481.1,207.2L482.8,208.9L487.7,208.1L487.9,206.7L485.3,202.8L484.0,200.7L482.1,200.7L480.9,202.3Z"/>
    <path class="wtc-county" id="wtc-county-radford" data-county="Radford" d="M236.4,188.3L235.1,187.5L232.8,188.6L233.4,190.9L236.4,188.3Z"/>
    <path class="wtc-county" id="wtc-county-richmond" data-county="Richmond" d="M449.4,132.3L451.3,137.0L454.5,138.5L455.3,140.8L457.7,141.4L462.1,146.6L464.7,147.2L467.0,149.2L470.2,148.1L471.5,146.6L474.9,146.4L472.6,144.7L472.1,140.9L467.4,138.9L466.2,137.9L459.6,136.8L460.0,135.0L456.2,133.1L453.0,129.5L449.4,132.3Z"/>
    <path class="wtc-county" id="wtc-county-roanoke" data-county="Roanoke" d="M266.0,180.6L268.1,181.2L270.6,183.6L273.8,180.9L274.7,177.8L272.8,176.7L269.4,176.3L266.6,177.9L266.0,180.6Z"/>
    <path class="wtc-county" id="wtc-county-salem" data-county="Salem" d="M266.6,177.9L266.0,177.0L260.9,179.1L263.4,180.9L266.0,180.6L266.6,177.9Z"/>
    <path class="wtc-county" id="wtc-county-staunton" data-county="Staunton" d="M320.4,127.8L322.1,129.4L324.3,129.6L326.0,128.4L326.6,126.1L325.1,125.1L321.7,125.9L320.4,127.8Z"/>
    <path class="wtc-county" id="wtc-county-suffolk" data-county="Suffolk" d="M451.7,217.3L450.6,222.7L473.0,222.8L476.0,222.8L477.9,207.0L480.0,204.1L480.9,202.3L476.4,202.3L476.4,200.4L473.6,201.1L460.6,210.9L451.7,217.3Z"/>
    <path class="wtc-county" id="wtc-county-virginia-beach" data-county="Virginia Beach" d="M491.7,205.7L493.0,209.8L496.6,210.6L500.2,213.2L500.9,215.3L497.9,216.0L497.7,222.8L513.0,222.8L511.5,218.0L509.6,214.4L507.0,207.3L505.3,200.8L503.0,200.2L499.4,201.6L494.0,200.3L493.4,206.4L491.7,205.7Z"/>
    <path class="wtc-county" id="wtc-county-waynesboro" data-county="Waynesboro" d="M330.2,132.8L331.7,135.0L334.7,134.5L335.1,131.2L332.8,131.0L330.2,132.8Z"/>
    <path class="wtc-county" id="wtc-county-williamsburg" data-county="Williamsburg" d="M461.9,178.0L461.9,181.3L465.7,181.3L464.7,178.8L463.0,179.8L461.9,178.0Z"/>
    <path class="wtc-county" id="wtc-county-winchester" data-county="Winchester" d="M375.3,67.3L375.5,69.9L378.3,66.7L375.3,65.5L375.3,67.3Z"/>
  </g>
</svg>