<?xml version="1.0" encoding="UTF-8"?>
<svg xmlns="http://www.w3.org/2000/svg" viewBox="0 0 600 273" id="wtc-state-map-VA" role="img" aria-label="va county map">
  <title>va Counties</title>
  <g class="wtc-counties">
    <path class="wtc-county" id="wtc-county-accomack" data-county="Accomack" d="M524.7,133.6L519.4,130.8L523.6,129.7L523.4,128.3L520.2,125.0L515.7,124.1L516.6,122.4L512.8,116.8L509.4,112.8L508.7,109.8L514.7,110.1L517.7,108.6L516.2,105.3L521.9,103.9L524.3,104.7L524.5,105.9L528.7,111.2L528.5,114.5L530.9,120.9L533.4,124.4L537.4,128.4L540.6,128.8L541.7,127.7L543.4,129.1L546.6,134.1L550.0,138.1L527.2,136.2L526.0,133.4L524.7,133.6ZM505.1,127.5L505.1,125.4L506.6,126.7L505.1,127.5ZM505.3,133.7L502.3,133.7L503.0,131.5L505.3,133.7Z"/>
    <path class="wtc-county" id="wtc-county-albemarle" data-county="Albemarle" d="M336.8,139.3L346.8,122.2L345.7,120.9L348.3,120.7L350.0,122.0L356.8,122.4L357.2,124.4L368.3,136.9L371.5,140.2L374.0,144.3L364.7,147.4L347.2,153.0L347.7,151.9L344.3,150.7L342.1,148.7L339.8,144.0L340.2,141.3L336.8,139.3ZM355.5,138.0L357.7,140.6L359.8,140.0L359.6,137.8L355.7,137.1L355.5,138.0Z"/>
    <path class="wtc-county" id="wtc-county-alleghany" data-county="Alleghany" d="M264.5,133.7L257.0,127.8L252.6,122.1L253.0,120.2L250.4,118.2L251.3,116.1L254.9,114.4L259.4,112.6L266.0,116.4L266.6,115.6L272.8,118.8L278.7,124.7L287.2,122.5L291.3,128.3L288.7,129.0L286.2,127.3L282.8,129.7L279.4,129.4L274.5,130.2L271.7,133.8L267.7,134.1L264.5,133.7ZM267.4,122.3L268.7,125.5L269.8,124.9L268.3,121.5L267.4,122.3Z"/>
    <path class="wtc-county" id="wtc-county-amelia" data-county="Amelia" d="M372.6,99.0L372.8,94.8L396.8,89.2L398.5,88.7L401.5,88.7L407.2,92.9L404.0,94.8L400.6,93.2L397.9,95.3L398.5,97.0L396.2,97.3L393.6,98.9L393.8,101.9L395.1,102.0L394.5,104.3L392.3,105.4L385.5,106.4L385.5,105.2L382.6,104.0L378.5,104.2L375.5,103.6L372.6,99.0Z"/>
    <path class="wtc-county" id="wtc-county-amherst" data-county="Amherst" d="M301.3,113.8L304.7,112.2L305.3,109.9L307.2,107.7L309.6,106.9L313.8,107.2L316.2,104.8L320.0,100.8L322.1,100.6L323.0,102.2L326.0,102.7L328.5,105.0L333.4,107.6L334.9,109.3L333.2,109.5L328.1,118.4L323.2,119.9L323.0,123.3L320.6,123.7L318.9,125.5L317.0,124.8L314.7,124.0L313.4,125.4L311.5,124.3L306.6,116.4L301.3,113.8Z"/>
    <path class="wtc-county" id="wtc-county-appomattox" data-county="Appomattox" d="M334.9,109.3L333.4,107.6L328.5,105.0L326.0,102.7L331.5,93.6L331.9,91.8L335.3,91.5L335.7,89.8L337.7,89.4L340.4,90.8L343.0,90.3L346.0,92.0L349.4,96.3L351.3,97.7L351.3,100.8L349.1,100.0L348.7,101.9L346.0,102.7L344.7,104.2L337.4,110.0L334.9,109.3Z"/>
    <path class="wtc-county" id="wtc-county-arlington" data-county="Arlington" d="M438.7,191.9L435.5,189.4L436.8,188.4L439.1,186.5L443.2,186.3L443.4,188.2L438.7,191.9Z"/>
    <path class="wtc-county" id="wtc-county-augusta" data-county="Augusta" d="M296.8,147.2L296.0,145.5L298.7,146.6L301.3,146.1L297.9,142.2L298.5,141.6L316.2,131.4L317.9,130.1L323.4,131.6L324.5,130.0L326.8,129.5L330.6,133.0L332.8,133.3L334.7,138.2L336.8,139.3L340.2,141.3L339.8,144.0L342.1,148.7L333.4,154.6L332.3,154.5L313.8,164.8L308.7,160.9L307.9,159.1L303.0,153.0L303.0,150.9L301.3,149.3L298.7,149.3L296.8,147.2ZM320.4,145.6L321.7,147.5L325.1,148.3L326.6,147.3L326.0,145.0L324.3,143.7L322.1,144.0L320.4,145.6ZM330.2,140.6L332.8,142.4L335.1,142.2L334.7,138.9L331.7,138.4L330.2,140.6Z"/>
    <path class="wtc-county" id="wtc-county-bath" data-county="Bath" d="M270.2,140.3L267.2,135.7L264.5,133.7L267.7,134.1L271.7,133.8L274.5,130.2L279.4,129.4L282.8,129.7L286.2,127.3L288.7,129.0L291.1,132.6L295.5,136.7L298.5,141.6L297.9,142.2L301.3,146.1L298.7,146.6L296.0,145.5L296.8,147.2L293.8,148.3L285.3,149.6L280.0,152.3L277.9,151.3L272.6,147.2L271.1,144.3L272.3,142.8L270.2,140.3Z"/>
    <path class="wtc-county" id="wtc-county-bedford" data-county="Bedford" d="M277.0,95.6L276.4,93.0L277.0,90.6L284.3,88.6L285.3,86.2L287.0,86.4L291.9,79.7L295.1,79.9L298.7,77.5L299.8,78.5L298.1,80.7L300.9,80.5L311.9,98.3L313.4,100.5L311.3,102.8L314.7,105.0L316.2,104.8L313.8,107.2L309.6,106.9L307.2,107.7L305.3,109.9L304.7,112.2L301.3,113.8L300.0,113.1L301.5,111.2L297.7,108.8L293.6,106.1L292.3,103.9L289.6,104.3L288.1,106.0L286.2,105.5L282.3,102.5L278.9,101.1L281.1,99.9L280.4,98.0L277.0,95.6Z"/>
    <path class="wtc-county" id="wtc-county-bland" data-county="Bland" d="M195.3,91.1L191.7,90.0L193.0,87.5L190.0,86.7L189.1,85.4L192.6,84.8L192.6,82.7L187.4,80.7L184.9,80.7L181.3,79.3L182.8,77.8L186.2,74.4L191.7,78.4L195.3,80.0L198.7,78.7L201.9,78.6L206.6,80.0L213.8,81.6L212.8,84.0L217.2,86.0L207.9,93.5L209.8,94.6L209.8,95.1L201.9,93.7L195.3,91.1Z"/>
    <path class="wtc-county" id="wtc-county-botetourt" data-county="Botetourt" d="M263.4,102.2L264.3,101.4L275.7,96.7L277.0,95.6L280.4,98.0L281.1,99.9L278.9,101.1L282.3,102.5L286.2,105.5L288.1,106.0L289.6,104.3L292.3,103.9L293.6,106.1L297.7,108.8L293.0,111.6L293.2,112.5L286.6,116.5L287.4,117.2L286.4,120.8L287.2,122.5L278.7,124.7L272.8,118.8L266.6,115.6L266.2,114.2L269.8,109.5L267.2,107.5L265.1,103.5L263.4,102.2Z"/>
    <path class="wtc-county" id="wtc-county-brunswick" data-county="Brunswick" d="M383.6,50.2L392.3,50.2L400.2,50.3L406.8,60.2L406.8,71.0L403.4,72.1L400.4,75.7L396.0,77.0L393.0,76.5L388.3,76.5L386.2,78.6L384.9,64.1L383.6,50.2Z"/>
    <path class="wtc-county" id="wtc-county-buchanan" data-county="Buchanan" d="M151.3,109.1L130.6,94.8L131.9,95.4L134.5,93.4L135.3,89.8L140.0,83.8L141.3,80.2L140.4,79.7L147.2,80.2L150.0,84.8L155.1,85.6L157.9,87.5L163.4,89.2L164.9,91.3L164.5,92.8L161.9,94.1L158.1,94.3L156.6,96.9L153.6,98.5L153.2,103.1L150.0,104.2L149.8,105.9L153.6,107.6L151.3,109.1Z"/>
    <path class="wtc-county" id="wtc-county-buckingham" data-county="Buckingham" d="M348.3,120.7L348.5,117.9L343.8,116.5L342.6,114.7L338.9,115.3L337.4,110.0L344.7,104.2L346.0,102.7L348.7,101.9L349.1,100.0L351.3,100.8L353.8,97.8L356.2,96.7L358.9,97.4L371.7,114.9L372.1,118.1L361.5,121.1L358.9,122.3L357.2,124.4L356.8,122.4L350.0,122.0L348.3,120.7Z"/>
    <path class="wtc-county" id="wtc-county-campbell" data-county="Campbell" d="M300.9,80.5L303.2,81.0L303.2,82.6L307.4,84.7L309.6,83.4L311.7,85.0L316.4,81.3L319.6,82.5L321.7,80.9L327.0,79.0L328.9,80.2L332.8,78.5L337.7,89.4L335.7,89.8L335.3,91.5L331.9,91.8L331.5,93.6L326.0,102.7L323.0,102.2L322.1,100.6L316.6,97.5L314.5,97.0L311.9,98.3L300.9,80.5Z"/>
    <path class="wtc-county" id="wtc-county-caroline" data-county="Caroline" d="M407.7,136.0L409.6,133.8L411.5,134.0L413.4,131.5L414.5,131.8L417.0,129.6L419.4,130.3L420.6,128.5L420.4,126.4L422.3,124.8L422.1,123.3L425.3,124.0L431.1,129.1L431.5,131.1L434.9,130.1L434.9,133.5L436.8,134.8L441.5,134.4L440.4,137.3L435.7,141.2L437.2,143.6L439.4,144.0L438.9,145.4L434.5,146.9L433.0,148.2L430.6,147.7L430.9,150.1L432.3,150.8L426.4,151.0L423.8,151.1L415.1,142.7L407.7,136.0Z"/>
    <path class="wtc-county" id="wtc-county-carroll" data-county="Carroll" d="M224.0,70.1L217.4,68.3L206.2,65.7L212.6,57.7L213.4,59.1L215.7,59.0L213.6,56.5L218.3,51.1L226.2,51.3L231.7,51.0L231.1,54.6L232.6,57.1L236.8,56.1L240.2,57.8L240.4,59.9L230.2,73.2L227.4,71.0L224.0,70.1Z"/>
    <path class="wtc-county" id="wtc-county-charles-city" data-county="Charles City" d="M430.9,99.9L429.6,96.2L438.3,95.2L440.6,95.6L441.7,93.2L445.1,95.3L447.4,92.0L449.1,91.1L453.2,92.7L453.2,98.9L451.1,97.9L451.5,99.6L451.5,101.2L449.1,100.0L449.1,101.5L444.5,101.9L440.0,103.3L438.3,105.1L435.1,106.3L432.6,101.3L430.9,99.9Z"/>
    <path class="wtc-county" id="wtc-county-charlotte" data-county="Charlotte" d="M337.7,89.4L332.8,78.5L333.0,76.0L338.1,76.3L339.4,74.6L342.6,77.3L343.4,73.5L341.9,72.5L346.6,68.8L345.7,66.8L347.0,63.2L345.5,61.9L348.1,59.3L357.2,70.8L360.2,81.9L357.9,82.3L356.0,85.1L354.0,86.2L351.9,85.5L348.7,87.3L348.3,88.8L345.3,89.3L346.0,92.0L343.0,90.3L340.4,90.8L337.7,89.4Z"/>
    <path class="wtc-county" id="wtc-county-chesterfield" data-county="Chesterfield" d="M395.1,102.0L393.8,101.9L393.6,98.9L396.2,97.3L398.5,97.0L397.9,95.3L400.6,93.2L404.0,94.8L407.2,92.9L409.4,93.3L412.6,90.6L414.9,90.1L419.1,90.4L421.1,91.0L420.2,93.6L423.8,94.9L423.0,91.6L421.7,91.3L423.4,91.7L424.9,95.7L426.0,95.7L428.9,95.8L429.6,96.2L430.9,99.9L429.1,98.1L427.2,99.3L422.8,100.2L420.9,103.7L415.7,104.9L414.5,108.8L410.4,108.9L410.4,110.1L406.8,110.6L398.5,104.4L397.9,102.5L395.1,102.0Z"/>
    <path class="wtc-county" id="wtc-county-clarke" data-county="Clarke" d="M384.5,211.5L381.9,207.9L382.1,206.3L377.4,197.9L380.6,196.6L383.0,196.9L386.2,194.6L388.7,196.6L394.7,200.6L396.6,203.6L384.5,211.5Z"/>
    <path class="wtc-county" id="wtc-county-craig" data-county="Craig" d="M254.9,114.4L252.3,112.4L248.5,110.6L248.3,109.0L251.1,108.8L250.2,107.3L239.8,102.3L242.3,96.0L248.7,99.1L252.3,97.5L256.0,99.7L259.1,99.9L263.4,102.2L265.1,103.5L267.2,107.5L269.8,109.5L266.2,114.2L266.6,115.6L266.0,116.4L259.4,112.6L254.9,114.4Z"/>
    <path class="wtc-county" id="wtc-county-culpeper" data-county="Culpeper" d="M390.2,177.8L381.1,171.9L376.0,167.4L372.8,168.0L379.4,162.2L380.6,159.4L379.4,158.4L381.5,155.9L380.9,155.0L384.3,155.0L384.7,156.0L391.7,158.5L391.9,159.1L396.6,159.1L399.4,158.1L400.0,159.8L404.0,157.9L407.4,158.9L409.1,158.3L408.1,160.8L404.7,161.8L402.1,161.0L397.4,167.9L394.9,169.6L394.0,174.9L391.9,177.8L390.2,177.8Z"/>
    <path class="wtc-county" id="wtc-county-cumberland" data-county="Cumberland" d="M358.9,97.4L363.0,95.3L366.2,96.1L367.4,95.5L372.6,99.0L375.5,103.6L378.5,104.2L381.3,114.5L382.1,116.2L380.0,117.5L380.4,119.7L377.0,121.6L375.7,121.4L372.1,118.1L371.7,114.9L358.9,97.4Z"/>
    <path class="wtc-county" id="wtc-county-dickenson" data-county="Dickenson" d="M116.6,89.3L117.0,84.6L120.0,80.8L120.9,78.6L126.8,76.1L127.9,74.6L130.0,75.5L132.3,77.1L133.8,76.6L137.7,79.1L140.4,79.7L141.3,80.2L140.0,83.8L135.3,89.8L134.5,93.4L131.9,95.4L130.6,94.8L128.3,92.9L120.4,90.9L116.6,89.3Z"/>
    <path class="wtc-county" id="wtc-county-dinwiddie" data-county="Dinwiddie" d="M398.5,88.7L392.3,85.7L393.0,76.5L396.0,77.0L400.4,75.7L403.4,72.1L406.8,71.0L408.9,70.0L422.1,76.8L422.1,87.3L418.7,88.3L419.1,90.4L414.9,90.1L412.6,90.6L409.4,93.3L407.2,92.9L401.5,88.7L398.5,88.7Z"/>
    <path class="wtc-county" id="wtc-county-essex" data-county="Essex" d="M438.9,145.4L439.4,144.0L437.2,143.6L435.7,141.2L440.4,137.3L441.5,134.4L443.8,132.1L444.5,129.7L443.2,128.7L445.5,126.8L448.9,126.3L449.1,123.6L451.3,124.4L453.2,123.6L457.2,124.3L460.4,120.4L464.5,122.9L461.5,124.6L457.2,130.4L451.3,134.9L451.3,136.4L449.4,141.1L445.5,142.9L443.8,141.9L442.1,146.1L438.9,145.4Z"/>
    <path class="wtc-county" id="wtc-county-fairfax" data-county="Fairfax" d="M426.0,187.2L426.8,186.0L429.8,186.3L428.3,188.2L426.0,187.2Z"/>
    <path class="wtc-county" id="wtc-county-fauquier" data-county="Fauquier" d="M386.2,194.6L381.9,190.6L382.8,189.4L378.7,187.7L383.4,183.9L384.9,183.7L385.5,179.6L390.2,177.8L391.9,177.8L394.0,174.9L394.9,169.6L397.4,167.9L402.1,161.0L404.7,161.8L408.1,160.8L408.1,164.2L414.3,169.5L403.6,185.3L404.7,189.1L406.8,192.4L388.7,196.6L386.2,194.6Z"/>
    <path class="wtc-county" id="wtc-county-floyd" data-county="Floyd" d="M235.7,76.3L232.6,73.8L230.2,73.2L240.4,59.9L241.5,62.3L244.5,62.1L244.9,65.2L247.4,66.1L250.6,68.8L253.8,69.7L256.2,71.4L257.7,74.4L259.4,74.2L260.6,76.7L261.5,81.8L260.2,84.5L257.2,83.9L251.1,81.9L247.2,78.5L243.4,77.4L242.1,78.2L240.0,76.8L237.2,77.9L235.7,76.3Z"/>
    <path class="wtc-county" id="wtc-county-fluvanna" data-county="Fluvanna" d="M357.2,124.4L358.9,122.3L361.5,121.1L372.1,118.1L375.7,121.4L377.0,121.6L377.2,122.5L382.8,130.9L372.8,135.2L368.3,136.9L357.2,124.4Z"/>
    <path class="wtc-county" id="wtc-county-franklin" data-county="Franklin" d="M450.2,59.9L447.7,59.6L447.9,57.5L451.1,56.4L450.2,58.5L450.2,58.4L450.6,59.1L450.6,59.5L450.6,59.4L450.4,59.4L450.2,59.4L450.0,59.4L450.0,59.5L450.2,59.9Z"/>
    <path class="wtc-county" id="wtc-county-frederick" data-county="Frederick" d="M356.4,201.0L354.3,199.1L359.6,197.4L359.8,199.1L363.2,201.8L366.0,201.4L366.0,199.3L367.9,196.3L376.8,196.8L377.4,197.9L382.1,206.3L381.9,207.9L384.5,211.5L373.0,219.0L366.0,223.4L365.1,220.2L366.2,218.8L364.9,217.0L366.4,216.4L361.5,211.0L362.8,210.3L360.4,207.5L362.6,205.7L359.1,202.5L356.4,201.0ZM375.3,206.1L375.3,207.9L378.3,206.7L375.5,203.5L375.3,206.1Z"/>
    <path class="wtc-county" id="wtc-county-giles" data-county="Giles" d="M209.8,94.6L207.9,93.5L217.2,86.0L220.4,87.9L231.9,91.7L239.6,94.1L242.3,96.0L239.8,102.3L238.5,103.0L237.7,105.8L235.1,105.3L231.1,102.9L222.3,99.3L221.5,100.6L217.0,102.6L217.0,102.7L215.5,100.0L217.4,97.8L213.4,95.4L209.8,94.6Z"/>
    <path class="wtc-county" id="wtc-county-gloucester" data-county="Gloucester" d="M466.2,113.0L465.3,108.6L466.6,106.6L465.5,104.2L462.8,102.8L466.0,99.8L469.4,95.8L475.5,91.5L480.2,92.9L484.3,93.4L482.3,94.2L480.9,97.0L478.5,98.9L481.1,100.9L478.5,102.1L478.3,106.0L479.1,107.7L475.3,109.0L469.8,112.1L466.2,113.0Z"/>
    <path class="wtc-county" id="wtc-county-goochland" data-county="Goochland" d="M382.8,130.9L377.2,122.5L377.0,121.6L380.4,119.7L380.0,117.5L382.1,116.2L387.4,114.2L389.8,115.4L389.6,117.4L391.7,118.1L396.4,114.8L397.0,113.3L400.6,113.5L406.8,110.6L409.1,111.5L407.0,115.2L408.3,119.1L403.6,119.1L398.5,120.4L396.4,121.9L393.0,122.3L389.6,127.5L387.0,128.1L385.5,130.1L382.8,130.9Z"/>
    <path class="wtc-county" id="wtc-county-grayson" data-county="Grayson" d="M170.2,54.2L168.5,52.8L187.7,52.0L198.1,51.8L214.5,51.2L218.3,51.1L213.6,56.5L212.6,57.7L206.2,65.7L203.6,64.7L203.4,63.4L197.7,62.9L193.0,63.2L185.7,61.8L182.6,60.4L176.4,59.5L177.0,58.0L172.8,55.8L170.2,54.2Z"/>
    <path class="wtc-county" id="wtc-county-greene" data-county="Greene" d="M357.7,161.5L354.3,158.1L353.6,156.3L347.2,153.0L364.7,147.4L369.4,152.7L365.7,152.9L361.1,158.3L360.2,160.8L360.6,163.2L359.6,164.7L357.7,161.5Z"/>
    <path class="wtc-county" id="wtc-county-greensville" data-county="Greensville" d="M400.2,50.3L428.1,50.2L424.7,50.8L423.4,55.4L421.1,56.7L418.3,56.6L416.0,57.7L420.2,59.9L416.6,60.7L418.5,69.1L415.5,68.0L411.5,68.4L408.9,70.0L406.8,71.0L406.8,60.2L400.2,50.3ZM412.8,60.2L414.9,60.2L415.5,58.4L412.8,57.9L412.8,60.2Z"/>
    <path class="wtc-county" id="wtc-county-halifax" data-county="Halifax" d="M314.3,50.1L318.9,50.1L339.1,50.1L343.0,50.1L344.0,52.4L344.3,56.0L346.4,58.8L348.1,59.3L345.5,61.9L347.0,63.2L345.7,66.8L346.6,68.8L341.9,72.5L343.4,73.5L342.6,77.3L339.4,74.6L338.1,76.3L333.0,76.0L332.8,78.5L328.9,80.2L327.0,79.0L321.7,80.9L314.3,50.1Z"/>
    <path class="wtc-county" id="wtc-county-hanover" data-county="Hanover" d="M398.5,120.4L403.6,119.1L408.3,119.1L412.6,117.6L416.4,118.8L419.1,117.8L421.7,113.1L431.5,109.1L435.5,112.6L437.4,112.3L438.3,114.4L439.1,116.5L434.7,116.2L434.9,117.7L431.5,117.9L432.1,119.5L428.3,119.6L428.3,121.1L425.3,124.0L422.1,123.3L422.3,124.8L420.4,126.4L420.6,128.5L419.4,130.3L417.0,129.6L414.5,131.8L413.4,131.5L411.5,134.0L409.6,133.8L407.7,136.0L404.9,137.0L398.5,120.4Z"/>
    <path class="wtc-county" id="wtc-county-henrico" data-county="Henrico" d="M406.8,110.6L410.4,110.1L414.3,110.3L413.6,111.7L417.7,111.5L419.8,112.7L422.3,109.8L422.3,107.1L421.1,107.8L420.9,103.7L422.8,100.2L427.2,99.3L429.1,98.1L430.9,99.9L432.6,101.3L435.1,106.3L431.5,109.1L421.7,113.1L419.1,117.8L416.4,118.8L412.6,117.6L408.3,119.1L407.0,115.2L409.1,111.5L406.8,110.6Z"/>
    <path class="wtc-county" id="wtc-county-henry" data-county="Henry" d="M265.5,65.0L262.3,64.2L262.3,60.9L264.5,56.9L264.7,50.1L266.2,50.1L284.9,50.1L289.1,68.7L287.4,67.0L283.2,65.8L282.1,64.7L279.6,64.9L267.9,67.2L266.8,64.3L265.5,65.0ZM273.6,58.5L274.9,60.1L277.4,59.7L277.9,56.3L276.2,56.5L273.6,58.5Z"/>
    <path class="wtc-county" id="wtc-county-highland" data-county="Highland" d="M288.7,171.6L285.7,165.4L286.4,162.1L283.8,159.0L279.1,154.6L280.0,152.3L285.3,149.6L293.8,148.3L296.8,147.2L298.7,149.3L301.3,149.3L303.0,150.9L303.0,153.0L307.9,159.1L308.7,160.9L298.9,163.6L295.3,169.2L288.7,171.6Z"/>
    <path class="wtc-county" id="wtc-county-isle-of-wight" data-county="Isle of Wight" d="M450.2,59.9L450.0,59.5L450.0,59.4L450.2,59.4L450.4,59.4L450.6,59.4L450.6,59.5L450.6,59.1L450.2,58.4L450.2,58.5L451.1,56.4L451.7,56.1L460.6,62.5L473.6,72.3L476.4,73.0L476.2,74.4L470.9,78.6L466.2,79.5L465.1,85.6L463.6,80.7L454.7,77.0L454.0,74.6L456.6,71.6L456.6,70.1L454.5,68.4L453.6,64.7L451.5,62.8L450.2,59.9Z"/>
    <path class="wtc-county" id="wtc-county-james-city" data-county="James City" d="M451.5,99.6L451.1,97.9L453.2,98.9L453.2,92.7L454.0,91.5L457.9,90.9L460.0,88.6L461.7,89.9L466.4,90.3L468.7,87.1L470.6,88.0L470.0,89.9L469.4,91.3L465.7,92.1L461.9,92.1L461.9,95.4L460.2,98.2L461.1,99.1L465.1,99.0L466.0,99.8L462.8,102.8L461.1,104.9L459.4,103.0L456.2,103.9L452.1,102.9L451.5,99.6Z"/>
    <path class="wtc-county" id="wtc-county-king-and-queen" data-county="King and Queen" d="M441.5,134.4L436.8,134.8L434.9,133.5L434.9,130.1L436.8,129.5L439.6,123.8L441.3,123.1L443.8,120.0L450.6,118.3L451.3,116.0L452.8,116.1L458.9,110.1L458.1,107.9L461.1,104.9L462.8,102.8L465.5,104.2L466.6,106.6L465.3,108.6L466.2,113.0L462.3,116.2L460.4,120.4L457.2,124.3L453.2,123.6L451.3,124.4L449.1,123.6L448.9,126.3L445.5,126.8L443.2,128.7L444.5,129.7L443.8,132.1L441.5,134.4Z"/>
    <path class="wtc-county" id="wtc-county-king-george" data-county="King George" d="M428.7,157.2L426.6,157.0L425.3,152.0L426.4,151.0L432.3,150.8L430.9,150.1L430.6,147.7L433.0,148.2L434.5,146.9L438.9,145.4L442.1,146.1L443.0,148.4L443.0,151.9L446.0,153.0L443.8,155.0L445.1,158.7L443.2,160.2L440.6,158.3L437.4,158.3L436.2,157.0L431.5,156.2L428.7,157.2Z"/>
    <path class="wtc-county" id="wtc-county-king-william" data-county="King William" d="M425.3,124.0L428.3,121.1L428.3,119.6L432.1,119.5L431.5,117.9L434.9,117.7L434.7,116.2L439.1,116.5L438.3,114.4L440.4,113.9L446.8,110.8L447.7,112.0L449.1,110.4L454.5,111.2L453.0,108.7L456.6,109.8L458.1,107.9L458.9,110.1L452.8,116.1L451.3,116.0L450.6,118.3L443.8,120.0L441.3,123.1L439.6,123.8L436.8,129.5L434.9,130.1L431.5,131.1L431.1,129.1L425.3,124.0Z"/>
    <path class="wtc-county" id="wtc-county-lancaster" data-county="Lancaster" d="M474.9,126.9L471.5,126.8L470.2,125.3L467.0,124.2L470.4,122.8L473.2,118.6L473.2,116.6L474.7,115.3L477.0,116.7L483.6,113.4L487.7,114.9L484.9,116.1L486.0,117.6L482.8,119.4L483.4,122.8L481.3,123.5L479.6,126.3L477.2,126.0L474.9,126.9Z"/>
    <path class="wtc-county" id="wtc-county-lee" data-county="Lee" d="M62.8,57.3L58.7,57.4L51.7,54.9L50.0,53.6L62.1,53.4L73.6,53.4L74.7,53.2L90.9,53.2L93.2,58.0L100.4,61.4L100.2,62.2L103.6,65.4L99.8,68.2L97.2,70.9L91.9,68.8L85.7,68.6L82.3,64.5L81.9,62.0L78.5,61.8L71.5,60.0L64.5,57.4L62.8,57.3Z"/>
    <path class="wtc-county" id="wtc-county-loudoun" data-county="Loudoun" d="M396.6,203.6L394.7,200.6L388.7,196.6L406.8,192.4L408.9,191.7L410.6,189.7L413.0,189.1L414.0,186.7L426.2,199.2L418.3,200.3L417.0,202.3L414.9,202.9L415.1,205.9L418.5,208.8L416.4,210.7L413.6,211.5L412.3,213.8L409.1,213.7L405.5,215.0L403.0,214.8L401.1,212.5L396.6,203.6Z"/>
    <path class="wtc-county" id="wtc-county-louisa" data-county="Louisa" d="M368.3,136.9L372.8,135.2L382.8,130.9L385.5,130.1L387.0,128.1L389.6,127.5L393.0,122.3L396.4,121.9L398.5,120.4L404.9,137.0L401.9,138.5L399.1,141.0L391.3,143.5L389.1,143.5L386.4,144.7L383.6,144.6L380.4,145.5L376.4,144.2L374.0,144.3L371.5,140.2L368.3,136.9Z"/>
    <path class="wtc-county" id="wtc-county-lunenburg" data-county="Lunenburg" d="M357.2,70.8L361.5,68.4L363.0,69.1L367.4,68.3L372.1,65.8L379.8,65.3L384.9,64.1L386.2,78.6L381.5,78.2L376.4,80.6L372.8,82.9L372.3,84.3L370.2,83.4L365.1,83.5L360.2,81.9L357.2,70.8Z"/>
    <path class="wtc-county" id="wtc-county-madison" data-county="Madison" d="M366.4,173.7L363.6,171.0L363.8,169.8L360.6,167.4L359.6,164.7L360.6,163.2L360.2,160.8L361.1,158.3L365.7,152.9L369.4,152.7L371.5,150.4L376.0,151.6L375.5,152.4L378.9,153.2L380.9,155.0L381.5,155.9L379.4,158.4L380.6,159.4L379.4,162.2L372.8,168.0L366.4,173.7Z"/>
    <path class="wtc-county" id="wtc-county-mathews" data-county="Mathews" d="M479.1,107.7L478.3,106.0L478.5,102.1L481.1,100.9L484.9,98.8L488.7,95.6L490.4,100.2L489.4,105.8L487.7,107.8L485.5,106.6L484.0,108.5L481.1,109.0L479.1,107.7Z"/>
    <path class="wtc-county" id="wtc-county-mecklenburg" data-county="Mecklenburg" d="M348.1,59.3L346.4,58.8L344.3,56.0L344.0,52.4L343.0,50.1L359.4,50.1L367.2,50.2L383.6,50.2L384.9,64.1L379.8,65.3L372.1,65.8L367.4,68.3L363.0,69.1L361.5,68.4L357.2,70.8L348.1,59.3Z"/>
    <path class="wtc-county" id="wtc-county-middlesex" data-county="Middlesex" d="M460.4,120.4L462.3,116.2L466.2,113.0L469.8,112.1L475.3,109.0L479.1,107.7L481.1,109.0L484.0,108.5L487.2,110.5L480.6,111.7L479.1,113.6L472.8,113.8L470.4,116.5L468.3,121.3L464.5,122.9L460.4,120.4Z"/>
    <path class="wtc-county" id="wtc-county-montgomery" data-county="Montgomery" d="M231.9,91.7L231.5,89.7L233.0,88.1L236.6,89.5L234.5,87.5L236.4,85.1L233.4,82.5L235.7,80.1L234.3,80.0L235.7,76.3L237.2,77.9L240.0,76.8L242.1,78.2L243.4,77.4L247.2,78.5L251.1,81.9L257.2,83.9L256.6,91.0L252.6,95.5L252.3,97.5L248.7,99.1L242.3,96.0L239.6,94.1L231.9,91.7Z"/>
    <path class="wtc-county" id="wtc-county-nelson" data-county="Nelson" d="M317.9,130.1L318.5,128.0L317.0,124.8L318.9,125.5L320.6,123.7L323.0,123.3L323.2,119.9L328.1,118.4L333.2,109.5L334.9,109.3L337.4,110.0L338.9,115.3L342.6,114.7L343.8,116.5L348.5,117.9L348.3,120.7L345.7,120.9L346.8,122.2L336.8,139.3L334.7,138.2L332.8,133.3L330.6,133.0L326.8,129.5L324.5,130.0L323.4,131.6L317.9,130.1Z"/>
    <path class="wtc-county" id="wtc-county-new-kent" data-county="New Kent" d="M431.5,109.1L435.1,106.3L438.3,105.1L440.0,103.3L444.5,101.9L449.1,101.5L449.1,100.0L451.5,101.2L451.5,99.6L452.1,102.9L456.2,103.9L459.4,103.0L461.1,104.9L458.1,107.9L456.6,109.8L453.0,108.7L454.5,111.2L449.1,110.4L447.7,112.0L446.8,110.8L440.4,113.9L438.3,114.4L437.4,112.3L435.5,112.6L431.5,109.1Z"/>
    <path class="wtc-county" id="wtc-county-northampton" data-county="Northampton" d="M508.7,109.8L506.4,103.6L505.7,99.0L503.8,96.0L503.4,92.5L504.3,89.4L506.4,86.6L506.6,82.3L508.5,82.5L507.7,84.3L511.1,84.2L514.9,87.5L517.2,91.9L517.0,94.8L518.9,95.3L521.5,99.3L525.3,104.0L524.3,104.7L521.9,103.9L516.2,105.3L517.7,108.6L514.7,110.1L508.7,109.8Z"/>
    <path class="wtc-county" id="wtc-county-northumberland" data-county="Northumberland" d="M474.3,138.6L471.1,138.1L468.5,136.6L467.4,134.5L472.1,132.4L472.6,128.7L474.9,126.9L477.2,126.0L479.6,126.3L481.3,123.5L483.4,122.8L482.8,119.4L486.0,117.6L486.8,125.4L490.0,126.6L491.1,129.9L484.7,133.4L480.4,134.5L477.2,137.3L474.3,138.6Z"/>
    <path class="wtc-county" id="wtc-county-nottoway" data-county="Nottoway" d="M372.8,94.8L372.3,84.3L372.8,82.9L376.4,80.6L381.5,78.2L386.2,78.6L388.3,76.5L393.0,76.5L392.3,85.7L398.5,88.7L396.8,89.2L372.8,94.8Z"/>
    <path class="wtc-county" id="wtc-county-orange" data-county="Orange" d="M364.7,147.4L374.0,144.3L376.4,144.2L380.4,145.5L383.6,144.6L386.4,144.7L389.1,143.5L403.4,156.4L404.0,157.9L400.0,159.8L399.4,158.1L396.6,159.1L391.9,159.1L391.7,158.5L384.7,156.0L384.3,155.0L380.9,155.0L378.9,153.2L375.5,152.4L376.0,151.6L371.5,150.4L369.4,152.7L364.7,147.4Z"/>
    <path class="wtc-county" id="wtc-county-page" data-county="Page" d="M348.3,172.3L345.5,166.8L348.9,166.0L349.6,164.1L353.4,163.0L354.0,161.8L357.7,161.5L359.6,164.7L360.6,167.4L363.8,169.8L363.6,171.0L366.4,173.7L367.9,177.0L366.8,178.1L367.4,180.2L369.6,181.5L369.1,182.8L363.0,185.3L356.2,179.5L353.8,179.8L351.5,177.2L348.3,172.3Z"/>
    <path class="wtc-county" id="wtc-county-patrick" data-county="Patrick" d="M240.4,59.9L240.2,57.8L236.8,56.1L232.6,57.1L231.1,54.6L231.7,51.0L241.7,50.6L250.4,50.2L264.7,50.1L264.5,56.9L262.3,60.9L262.3,64.2L265.5,65.0L264.0,67.8L253.8,69.7L250.6,68.8L247.4,66.1L244.9,65.2L244.5,62.1L241.5,62.3L240.4,59.9Z"/>
    <path class="wtc-county" id="wtc-county-pittsylvania" data-county="Pittsylvania" d="M289.1,68.7L284.9,50.1L296.8,50.0L299.4,50.0L300.0,52.1L296.4,53.7L297.4,54.6L302.1,53.6L303.6,56.1L305.5,54.0L307.4,53.6L309.1,51.7L307.2,51.8L306.8,50.0L314.3,50.1L321.7,80.9L319.6,82.5L316.4,81.3L311.7,85.0L309.6,83.4L307.4,84.7L303.2,82.6L303.2,81.0L300.9,80.5L298.1,80.7L299.8,78.5L298.7,77.5L295.1,79.9L291.9,79.7L289.1,68.7Z"/>
    <path class="wtc-county" id="wtc-county-powhatan" data-county="Powhatan" d="M378.5,104.2L382.6,104.0L385.5,105.2L385.5,106.4L392.3,105.4L394.5,104.3L395.1,102.0L397.9,102.5L398.5,104.4L406.8,110.6L400.6,113.5L397.0,113.3L396.4,114.8L391.7,118.1L389.6,117.4L389.8,115.4L387.4,114.2L382.1,116.2L381.3,114.5L378.5,104.2Z"/>
    <path class="wtc-county" id="wtc-county-prince-edward" data-county="Prince Edward" d="M346.0,92.0L345.3,89.3L348.3,88.8L348.7,87.3L351.9,85.5L354.0,86.2L356.0,85.1L357.9,82.3L360.2,81.9L365.1,83.5L370.2,83.4L372.3,84.3L372.8,94.8L372.6,99.0L367.4,95.5L366.2,96.1L363.0,95.3L358.9,97.4L356.2,96.7L353.8,97.8L351.3,100.8L351.3,97.7L349.4,96.3L346.0,92.0Z"/>
    <path class="wtc-county" id="wtc-county-prince-george" data-county="Prince George" d="M422.1,87.3L422.1,76.8L436.6,83.9L441.5,88.1L445.1,89.8L444.9,91.0L447.4,92.0L445.1,95.3L441.7,93.2L440.6,95.6L438.3,95.2L429.6,96.2L428.9,95.8L430.6,94.6L427.7,92.7L426.4,93.0L426.0,95.7L424.9,95.7L423.4,91.7L426.2,88.9L425.3,87.5L422.1,87.3Z"/>
    <path class="wtc-county" id="wtc-county-prince-william" data-county="Prince William" d="M406.8,192.4L404.7,189.1L403.6,185.3L414.3,169.5L416.8,171.6L420.9,169.9L423.6,167.4L427.9,166.4L431.1,171.5L431.1,174.2L432.6,174.3L429.4,177.7L424.3,179.3L420.0,182.7L416.4,183.8L415.5,186.4L414.0,186.7L413.0,189.1L410.6,189.7L408.9,191.7L406.8,192.4ZM418.5,182.3L418.7,180.1L414.5,180.0L417.4,182.8L420.0,182.7L418.5,182.3Z"/>
    <path class="wtc-county" id="wtc-county-pulaski" data-county="Pulaski" d="M217.2,86.0L212.8,84.0L213.8,81.6L214.9,78.8L216.8,77.4L224.0,70.1L227.4,71.0L230.2,73.2L232.6,73.8L235.7,76.3L234.3,80.0L235.7,80.1L233.4,82.5L232.8,84.8L235.1,85.9L236.4,85.1L234.5,87.5L236.6,89.5L233.0,88.1L231.5,89.7L231.9,91.7L220.4,87.9L217.2,86.0Z"/>
    <path class="wtc-county" id="wtc-county-rappahannock" data-county="Rappahannock" d="M369.6,181.5L367.4,180.2L366.8,178.1L367.9,177.0L366.4,173.7L372.8,168.0L376.0,167.4L381.1,171.9L390.2,177.8L385.5,179.6L384.9,183.7L383.4,183.9L378.7,187.7L377.4,187.1L375.5,183.5L371.5,181.4L369.6,181.5Z"/>
    <path class="wtc-county" id="wtc-county-richmond" data-county="Richmond" d="M449.4,141.1L451.3,136.4L454.5,134.9L455.3,132.6L457.7,132.0L462.1,126.8L464.7,126.2L467.0,124.2L470.2,125.3L471.5,126.8L474.9,126.9L472.6,128.7L472.1,132.4L467.4,134.5L466.2,135.4L459.6,136.6L460.0,138.4L456.2,140.3L453.0,143.9L449.4,141.1Z"/>
    <path class="wtc-county" id="wtc-county-roanoke" data-county="Roanoke" d="M266.0,92.8L268.1,92.2L270.6,89.8L273.8,92.5L274.7,95.6L272.8,96.7L269.4,97.1L266.6,95.5L266.0,92.8Z"/>
    <path class="wtc-county" id="wtc-county-rockbridge" data-county="Rockbridge" d="M287.2,122.5L286.4,120.8L287.4,117.2L286.6,116.5L293.2,112.5L293.0,111.6L297.7,108.8L301.5,111.2L300.0,113.1L301.3,113.8L306.6,116.4L311.5,124.3L313.4,125.4L314.7,124.0L317.0,124.8L318.5,128.0L317.9,130.1L316.2,131.4L298.5,141.6L295.5,136.7L291.1,132.6L288.7,129.0L291.3,128.3L287.2,122.5ZM299.8,123.8L302.6,123.9L300.2,122.6L299.8,123.8ZM304.5,121.2L307.4,122.3L307.9,121.3L305.1,118.4L304.5,121.2Z"/>
    <path class="wtc-county" id="wtc-county-rockingham" data-county="Rockingham" d="M323.8,181.6L321.9,179.2L321.7,175.6L320.0,175.6L313.8,164.8L332.3,154.5L333.4,154.6L342.1,148.7L344.3,150.7L347.7,151.9L347.2,153.0L353.6,156.3L354.3,158.1L357.7,161.5L354.0,161.8L353.4,163.0L349.6,164.1L348.9,166.0L345.5,166.8L348.3,172.3L334.9,181.7L327.4,186.9L323.8,181.6ZM332.1,162.4L334.9,164.9L337.0,163.4L337.4,161.4L334.3,160.9L332.3,159.6L332.1,162.4Z"/>
    <path class="wtc-county" id="wtc-county-russell" data-county="Russell" d="M130.0,75.5L131.7,71.6L125.3,69.9L128.3,64.2L129.6,60.0L136.0,63.1L143.2,65.3L142.3,66.4L144.9,68.7L150.4,70.1L152.6,69.2L156.2,70.7L158.9,73.0L162.3,74.7L159.6,80.4L155.7,83.9L155.1,85.6L150.0,84.8L147.2,80.2L140.4,79.7L137.7,79.1L133.8,76.6L132.3,77.1L130.0,75.5Z"/>
    <path class="wtc-county" id="wtc-county-scott" data-county="Scott" d="M103.6,65.4L100.2,62.2L100.4,61.4L93.2,58.0L90.9,53.2L100.0,53.2L113.2,53.2L131.9,53.3L129.6,60.0L128.3,64.2L125.3,69.9L125.5,70.4L111.7,70.0L110.4,68.0L107.9,66.3L104.9,67.3L103.6,65.4Z"/>
    <path class="wtc-county" id="wtc-county-shenandoah" data-county="Shenandoah" d="M354.3,199.1L352.6,197.7L353.8,196.9L350.9,193.7L349.4,194.7L346.2,191.4L344.0,190.1L344.0,192.0L339.1,188.4L334.9,181.7L348.3,172.3L351.5,177.2L353.8,179.8L356.2,179.5L363.0,185.3L366.6,188.8L368.7,192.4L366.6,192.8L367.9,196.3L366.0,199.3L366.0,201.4L363.2,201.8L359.8,199.1L359.6,197.4L354.3,199.1Z"/>
    <path class="wtc-county" id="wtc-county-smyth" data-county="Smyth" d="M162.3,74.7L158.9,73.0L167.2,64.7L171.9,55.5L172.8,55.8L177.0,58.0L176.4,59.5L182.6,60.4L185.7,61.8L193.0,63.2L192.6,64.9L189.1,71.3L186.2,74.4L182.8,77.8L180.2,76.4L180.4,78.3L174.5,76.6L168.1,73.2L166.6,75.9L162.3,74.7Z"/>
    <path class="wtc-county" id="wtc-county-southampton" data-county="Southampton" d="M420.2,59.9L416.0,57.7L418.3,56.6L421.1,56.7L423.4,55.4L424.7,50.8L428.1,50.2L436.0,50.3L450.6,50.2L450.6,50.7L451.7,56.1L451.1,56.4L447.9,57.5L447.7,59.6L450.2,59.9L451.5,62.8L453.6,64.7L454.5,68.4L456.6,70.1L456.6,71.6L454.0,74.6L454.7,77.0L448.5,73.9L438.7,68.8L425.3,62.5L420.2,59.9Z"/>
    <path class="wtc-county" id="wtc-county-spotsylvania" data-county="Spotsylvania" d="M389.1,143.5L391.3,143.5L399.1,141.0L401.9,138.5L404.9,137.0L407.7,136.0L415.1,142.7L423.8,151.1L420.9,151.8L419.1,153.4L415.3,153.1L414.3,154.8L409.1,158.3L407.4,158.9L404.0,157.9L403.4,156.4L389.1,143.5Z"/>
    <path class="wtc-county" id="wtc-county-stafford" data-county="Stafford" d="M408.1,160.8L409.1,158.3L414.3,154.8L416.0,155.8L418.1,155.4L419.1,153.4L420.9,151.8L423.8,151.1L426.4,151.0L425.3,152.0L426.6,157.0L428.7,157.2L427.2,159.7L426.4,163.1L427.9,166.4L423.6,167.4L420.9,169.9L416.8,171.6L414.3,169.5L408.1,164.2L408.1,160.8Z"/>
    <path class="wtc-county" id="wtc-county-surry" data-county="Surry" d="M436.6,83.9L441.3,81.2L443.6,81.4L447.9,80.5L447.7,77.2L448.5,73.9L454.7,77.0L463.6,80.7L465.1,85.6L465.7,87.5L464.3,89.0L462.6,86.1L460.6,86.2L457.4,89.0L453.6,89.6L451.1,89.2L449.1,91.1L447.4,92.0L444.9,91.0L445.1,89.8L441.5,88.1L436.6,83.9Z"/>
    <path class="wtc-county" id="wtc-county-sussex" data-county="Sussex" d="M408.9,70.0L411.5,68.4L415.5,68.0L418.5,69.1L416.6,60.7L420.2,59.9L425.3,62.5L438.7,68.8L448.5,73.9L447.7,77.2L447.9,80.5L443.6,81.4L441.3,81.2L436.6,83.9L422.1,76.8L408.9,70.0Z"/>
    <path class="wtc-county" id="wtc-county-tazewell" data-county="Tazewell" d="M155.1,85.6L155.7,83.9L159.6,80.4L162.3,74.7L166.6,75.9L168.1,73.2L174.5,76.6L180.4,78.3L180.2,76.4L182.8,77.8L181.3,79.3L184.9,80.7L187.4,80.7L192.6,82.7L192.6,84.8L189.1,85.4L190.0,86.7L193.0,87.5L191.7,90.0L195.3,91.1L189.6,95.0L187.2,97.3L185.5,96.2L183.8,93.4L178.9,92.5L178.5,91.0L175.7,89.5L168.5,89.2L164.9,91.3L163.4,89.2L157.9,87.5L155.1,85.6Z"/>
    <path class="wtc-county" id="wtc-county-warren" data-county="Warren" d="M363.0,185.3L369.1,182.8L369.6,181.5L371.5,181.4L375.5,183.5L377.4,187.1L378.7,187.7L382.8,189.4L381.9,190.6L386.2,194.6L383.0,196.9L380.6,196.6L377.4,197.9L376.8,196.8L367.9,196.3L366.6,192.8L368.7,192.4L366.6,188.8L363.0,185.3Z"/>
    <path class="wtc-county" id="wtc-county-washington" data-county="Washington" d="M158.9,73.0L156.2,70.7L152.6,69.2L150.4,70.1L144.9,68.7L142.3,66.4L143.2,65.3L136.0,63.1L129.6,60.0L131.9,53.3L134.9,53.3L138.7,55.1L142.6,55.8L140.6,53.2L153.2,53.2L153.8,54.5L159.6,54.3L170.2,54.2L172.8,55.8L171.9,55.5L167.2,64.7L158.9,73.0Z"/>
    <path class="wtc-county" id="wtc-county-westmoreland" data-county="Westmoreland" d="M446.0,153.0L443.0,151.9L443.0,148.4L442.1,146.1L443.8,141.9L445.5,142.9L449.4,141.1L453.0,143.9L456.2,140.3L460.0,138.4L459.6,136.6L466.2,135.4L467.4,134.5L468.5,136.6L471.1,138.1L474.3,138.6L472.8,141.1L469.4,143.0L468.5,145.3L463.4,145.7L462.1,144.7L460.6,146.1L455.3,146.2L447.9,149.2L447.9,151.7L446.0,153.0Z"/>
    <path class="wtc-county" id="wtc-county-wise" data-county="Wise" d="M97.9,75.7L98.5,72.9L97.2,70.9L99.8,68.2L103.6,65.4L104.9,67.3L107.9,66.3L110.4,68.0L111.7,70.0L125.5,70.4L125.3,69.9L131.7,71.6L130.0,75.5L127.9,74.6L126.8,76.1L120.9,78.6L120.0,80.8L117.0,84.6L116.6,89.3L115.7,88.9L111.7,86.4L106.4,84.1L106.4,79.7L103.0,77.7L100.4,77.6L97.9,75.7ZM110.0,72.5L111.7,74.4L113.8,74.7L113.0,71.6L110.0,72.5Z"/>
    <path class="wtc-county" id="wtc-county-wythe" data-county="Wythe" d="M213.8,81.6L206.6,80.0L201.9,78.6L198.7,78.7L195.3,80.0L191.7,78.4L186.2,74.4L189.1,71.3L192.6,64.9L193.0,63.2L197.7,62.9L203.4,63.4L203.6,64.7L206.2,65.7L217.4,68.3L224.0,70.1L216.8,77.4L214.9,78.8L213.8,81.6Z"/>
    <path class="wtc-county" id="wtc-county-york" data-county="York" d="M466.0,99.8L465.1,99.0L461.1,99.1L460.2,98.2L461.9,95.4L463.0,93.6L464.7,94.6L465.7,92.1L469.4,91.3L470.0,89.9L471.5,90.3L474.5,87.8L477.7,83.3L479.1,82.8L481.5,83.6L480.4,86.5L481.5,87.0L481.7,90.6L477.0,90.0L475.5,91.5L469.4,95.8L466.0,99.8Z"/>
    <path class="wtc-county" id="wtc-county-alexandria" data-county="Alexandria" d="M439.1,186.5L437.2,185.5L437.7,183.8L440.2,184.1L443.4,183.1L443.4,183.4L443.2,186.3L439.1,186.5Z"/>
    <path class="wtc-county" id="wtc-county-bristol" data-county="Bristol" d="M134.9,53.3L140.6,53.2L142.6,55.8L138.7,55.1L134.9,53.3Z"/>
    <path class="wtc-county" id="wtc-county-buena-vista" data-county="Buena Vista" d="M304.5,121.2L305.1,118.4L307.9,121.3L307.4,122.3L304.5,121.2Z"/>
    <path class="wtc-county" id="wtc-county-charlottesville" data-county="Charlottesville" d="M355.5,138.0L355.7,137.1L359.6,137.8L359.8,140.0L357.7,140.6L355.5,138.0Z"/>
    <path class="wtc-county" id="wtc-county-chesapeake" data-county="Chesapeake" d="M480.0,69.3L477.9,66.3L476.0,50.6L486.4,50.6L497.7,50.6L497.9,57.4L500.9,58.1L500.2,60.2L496.6,62.8L493.0,63.5L491.7,67.7L487.9,66.7L487.7,65.3L482.8,64.5L481.1,66.2L482.3,67.6L480.0,69.3Z"/>
    <path class="wtc-county" id="wtc-county-colonial-heights" data-county="Colonial Heights" d="M421.7,91.3L423.0,91.6L423.8,94.9L420.2,93.6L421.1,91.0L421.7,91.3Z"/>
    <path class="wtc-county" id="wtc-county-covington" data-county="Covington" d="M267.4,122.3L268.3,121.5L269.8,124.9L268.7,125.5L267.4,122.3Z"/>
    <path class="wtc-county" id="wtc-county-danville" data-county="Danville" d="M306.8,50.0L307.2,51.8L309.1,51.7L307.4,53.6L305.5,54.0L303.6,56.1L302.1,53.6L297.4,54.6L296.4,53.7L300.0,52.1L299.4,50.0L306.8,50.0Z"/>
    <path class="wtc-county" id="wtc-county-emporia" data-county="Emporia" d="M412.8,60.2L412.8,57.9L415.5,58.4L414.9,60.2L412.8,60.2Z"/>
    <path class="wtc-county" id="wtc-county-fairfax" data-county="Fairfax" d="M426.0,187.2L426.8,186.0L429.8,186.3L428.3,188.2L426.0,187.2Z"/>
    <path class="wtc-county" id="wtc-county-falls-church" data-county="Falls Church" d="M436.8,188.4L436.5,188.2L435.5,188.6L434.5,188.5L434.2,189.0L434.5,189.6L435.5,189.4L436.8,188.4Z"/>
    <path class="wtc-county" id="wtc-county-franklin" data-county="Franklin" d="M450.2,59.9L447.7,59.6L447.9,57.5L451.1,56.4L450.2,58.5L450.2,58.4L450.6,59.1L450.6,59.5L450.6,59.4L450.4,59.4L450.2,59.4L450.0,59.4L450.0,59.5L450.2,59.9Z"/>
    <path class="wtc-county" id="wtc-county-fredericksburg" data-county="Fredericksburg" d="M419.1,153.4L418.1,155.4L416.0,155.8L414.3,154.8L415.3,153.1L419.1,153.4Z"/>
    <path class="wtc-county" id="wtc-county-galax" data-county="Galax" d="M212.6,57.7L213.6,56.5L215.7,59.0L213.4,59.1L212.6,57.7Z"/>
    <path class="wtc-county" id="wtc-county-hampton" data-county="Hampton" d="M479.1,82.8L478.3,79.4L481.9,76.6L486.2,78.1L487.0,77.3L488.9,82.2L487.9,84.2L487.0,83.4L481.5,83.6L479.1,82.8Z"/>
    <path class="wtc-county" id="wtc-county-harrisonburg" data-county="Harrisonburg" d="M332.1,162.4L332.3,159.6L334.3,160.9L337.4,161.4L337.0,163.4L334.9,164.9L332.1,162.4Z"/>
    <path class="wtc-county" id="wtc-county-hopewell" data-county="Hopewell" d="M426.0,95.7L426.4,93.0L427.7,92.7L430.6,94.6L428.9,95.8L426.0,95.7Z"/>
    <path class="wtc-county" id="wtc-county-lexington" data-county="Lexington" d="M299.8,123.8L300.2,122.6L302.6,123.9L299.8,123.8Z"/>
    <path class="wtc-county" id="wtc-county-lynchburg" data-county="Lynchburg" d="M316.2,104.8L314.7,105.0L311.3,102.8L313.4,100.5L311.9,98.3L314.5,97.0L316.6,97.5L322.1,100.6L320.0,100.8L316.2,104.8Z"/>
    <path class="wtc-county" id="wtc-county-manassas" data-county="Manassas" d="M417.4,182.8L414.5,180.0L418.7,180.1L418.5,182.3L417.4,182.8Z"/>
    <path class="wtc-county" id="wtc-county-manassas-park" data-county="Manassas Park" d="M420.0,182.7L417.4,182.8L418.5,182.3L420.0,182.7Z"/>
    <path class="wtc-county" id="wtc-county-martinsville" data-county="Martinsville" d="M273.6,58.5L276.2,56.5L277.9,56.3L277.4,59.7L274.9,60.1L273.6,58.5Z"/>
    <path class="wtc-county" id="wtc-county-newport-news" data-county="Newport News" d="M468.7,87.1L468.3,84.3L471.3,82.0L477.4,78.9L479.6,75.4L481.9,76.6L478.3,79.4L479.1,82.8L477.7,83.3L474.5,87.8L471.5,90.3L470.0,89.9L470.6,88.0L468.7,87.1Z"/>
    <path class="wtc-county" id="wtc-county-norfolk" data-county="Norfolk" d="M485.3,70.6L487.9,66.7L491.7,67.7L493.4,67.0L494.0,73.1L489.1,75.1L485.5,74.8L486.2,70.4L485.3,70.6Z"/>
    <path class="wtc-county" id="wtc-county-norton" data-county="Norton" d="M110.0,72.5L113.0,71.6L113.8,74.7L111.7,74.4L110.0,72.5Z"/>
    <path class="wtc-county" id="wtc-county-petersburg" data-county="Petersburg" d="M419.1,90.4L418.7,88.3L422.1,87.3L425.3,87.5L426.2,88.9L423.4,91.7L421.7,91.3L421.1,91.0L419.1,90.4Z"/>
    <path class="wtc-county" id="wtc-county-poquoson" data-county="Poquoson" d="M481.5,87.0L480.4,86.5L481.5,83.6L487.0,83.4L487.9,84.2L485.1,85.7L484.3,87.3L481.5,87.0Z"/>
    <path class="wtc-county" id="wtc-county-portsmouth" data-county="Portsmouth" d="M480.9,71.1L480.0,69.3L482.3,67.6L481.1,66.2L482.8,64.5L487.7,65.3L487.9,66.7L485.3,70.6L484.0,72.7L482.1,72.7L480.9,71.1Z"/>
    <path class="wtc-county" id="wtc-county-radford" data-county="Radford" d="M236.4,85.1L235.1,85.9L232.8,84.8L233.4,82.5L236.4,85.1Z"/>
    <path class="wtc-county" id="wtc-county-richmond" data-county="Richmond" d="M449.4,141.1L451.3,136.4L454.5,134.9L455.3,132.6L457.7,132.0L462.1,126.8L464.7,126.2L467.0,124.2L470.2,125.3L471.5,126.8L474.9,126.9L472.6,128.7L472.1,132.4L467.4,134.5L466.2,135.4L459.6,136.6L460.0,138.4L456.2,140.3L453.0,143.9L449.4,141.1Z"/>
    <path class="wtc-county" id="wtc-county-roanoke" data-county="Roanoke" d="M266.0,92.8L268.1,92.2L270.6,89.8L273.8,92.5L274.7,95.6L272.8,96.7L269.4,97.1L266.6,95.5L266.0,92.8Z"/>
    <path class="wtc-county" id="wtc-county-salem" data-county="Salem" d="M266.6,95.5L266.0,96.4L260.9,94.3L263.4,92.5L266.0,92.8L266.6,95.5Z"/>
    <path class="wtc-county" id="wtc-county-staunton" data-county="Staunton" d="M320.4,145.6L322.1,144.0L324.3,143.7L326.0,145.0L326.6,147.3L325.1,148.3L321.7,147.5L320.4,145.6Z"/>
    <path class="wtc-county" id="wtc-county-suffolk" data-county="Suffolk" d="M451.7,56.1L450.6,50.7L473.0,50.6L476.0,50.6L477.9,66.3L480.0,69.3L480.9,71.1L476.4,71.1L476.4,73.0L473.6,72.3L460.6,62.5L451.7,56.1Z"/>
    <path class="wtc-county" id="wtc-county-virginia-beach" data-county="Virginia Beach" d="M491.7,67.7L493.0,63.5L496.6,62.8L500.2,60.2L500.9,58.1L497.9,57.4L497.7,50.6L513.0,50.6L511.5,55.3L509.6,59.0L507.0,66.1L505.3,72.6L503.0,73.2L499.4,71.8L494.0,73.1L493.4,67.0L491.7,67.7Z"/>
    <path class="wtc-county" id="wtc-county-waynesboro" data-county="Waynesboro" d="M330.2,140.6L331.7,138.4L334.7,138.9L335.1,142.2L332.8,142.4L330.2,140.6Z"/>
    <path class="wtc-county" id="wtc-county-williamsburg" data-county="Williamsburg" d="M461.9,95.4L461.9,92.1L465.7,92.1L464.7,94.6L463.0,93.6L461.9,95.4Z"/>
    <path class="wtc-county" id="wtc-county-winchester" data-county="Winchester" d="M375.3,206.1L375.5,203.5L378.3,206.7L375.3,207.9L375.3,206.1Z"/>
  </g>
</svg>