<?xml version="1.0" encoding="UTF-8"?>
<svg xmlns="http://www.w3.org/2000/svg" viewBox="0 0 526 600" id="wtc-state-map-NV" role="img" aria-label="nv county map">
  <title>nv Counties</title>
  <g class="wtc-counties">
    <path class="wtc-county" id="wtc-county-churchill" data-county="Churchill" d="M105.9,407.0L105.6,399.9L106.9,399.9L106.9,393.4L109.7,391.9L109.7,384.2L108.5,382.1L110.2,382.4L116.4,387.2L116.4,381.1L115.6,381.1L115.4,372.6L113.6,372.6L113.3,363.4L114.9,363.3L120.0,358.1L124.3,356.0L126.9,352.9L129.7,351.9L134.1,346.7L136.6,345.7L136.6,343.6L139.5,343.6L139.5,340.9L203.0,340.8L209.5,342.2L207.1,346.0L213.3,350.8L213.0,353.5L210.2,360.8L211.5,363.2L215.1,363.2L216.6,365.9L218.7,366.1L217.9,369.0L222.8,371.5L222.5,372.6L230.0,374.6L230.2,378.3L231.8,380.8L230.0,381.6L231.5,383.8L229.5,389.1L230.0,394.6L231.8,398.9L231.2,401.5L226.1,407.1L175.9,407.2L105.9,407.0Z"/>
    <path class="wtc-county" id="wtc-county-clark" data-county="Clark" d="M343.5,181.5L343.5,133.6L347.1,133.5L347.1,118.8L361.2,107.7L378.1,94.5L396.1,80.2L433.8,50.0L435.3,55.8L432.7,57.2L438.1,59.8L438.1,64.2L435.8,75.2L434.3,79.1L431.5,82.0L430.4,85.6L432.0,87.8L432.0,94.1L429.7,96.4L430.4,98.8L428.6,100.7L429.4,103.9L428.1,107.5L429.2,110.9L431.5,112.4L428.9,114.3L425.8,120.3L426.9,122.9L425.1,127.8L431.5,129.7L433.8,131.5L435.1,130.6L438.1,132.2L442.5,132.1L443.0,130.6L449.2,131.7L452.5,131.5L457.1,127.2L456.6,125.5L462.0,122.3L468.1,123.0L474.3,134.2L475.6,135.2L475.8,149.3L475.3,166.0L475.3,181.5L424.5,181.6L424.5,182.3L354.6,182.2L354.6,181.4L343.5,181.5Z"/>
    <path class="wtc-county" id="wtc-county-douglas" data-county="Douglas" d="M50.3,343.7L50.3,340.4L50.5,335.6L57.2,330.8L80.0,315.1L98.5,302.4L98.5,310.5L97.2,310.5L96.9,316.2L92.8,316.5L93.1,321.9L91.8,323.0L91.8,332.4L93.3,334.4L99.7,334.9L99.7,341.6L82.6,341.7L68.2,341.6L67.4,343.7L50.3,343.7Z"/>
    <path class="wtc-county" id="wtc-county-elko" data-county="Elko" d="M263.5,549.8L263.5,478.5L294.3,478.5L324.8,478.5L324.8,454.6L336.1,416.1L347.9,416.1L371.7,416.2L441.2,415.5L475.6,415.4L475.8,423.6L475.8,462.1L476.1,478.5L476.1,549.4L458.9,549.4L436.3,549.4L421.5,550.0L404.8,549.6L385.1,549.6L309.9,549.6L263.5,549.8Z"/>
    <path class="wtc-county" id="wtc-county-esmeralda" data-county="Esmeralda" d="M215.4,298.0L168.2,256.6L162.8,256.8L189.5,237.4L205.4,226.0L252.8,190.7L253.0,219.1L253.0,264.3L215.4,298.0Z"/>
    <path class="wtc-county" id="wtc-county-eureka" data-county="Eureka" d="M294.3,478.5L293.5,474.6L293.8,429.9L293.3,412.3L293.8,364.0L293.3,347.2L342.8,347.2L342.8,368.3L345.6,369.3L347.4,371.9L348.1,376.3L349.4,377.6L348.1,387.6L349.7,390.2L349.4,393.8L350.7,396.6L350.2,400.7L348.1,407.2L348.7,410.8L347.9,416.1L336.1,416.1L324.8,454.6L324.8,478.5L294.3,478.5Z"/>
    <path class="wtc-county" id="wtc-county-humboldt" data-county="Humboldt" d="M98.7,549.4L98.5,520.6L98.7,508.0L100.2,508.0L100.0,495.2L98.2,495.2L98.5,475.6L99.7,475.6L137.2,475.6L137.2,468.1L162.0,468.1L218.7,468.3L218.7,455.9L243.3,455.3L243.3,444.6L247.1,452.9L263.3,452.9L263.5,478.5L263.5,549.8L262.8,549.9L220.2,549.8L179.2,549.6L143.6,549.3L98.7,549.4Z"/>
    <path class="wtc-county" id="wtc-county-lander" data-county="Lander" d="M226.1,407.1L231.2,401.5L231.8,398.9L230.0,394.6L229.5,389.1L231.5,383.8L230.0,381.6L231.8,380.8L230.2,378.3L230.0,374.6L222.5,372.6L222.8,371.5L217.9,369.0L218.7,366.1L216.6,365.9L215.1,363.2L211.5,363.2L210.2,360.8L213.0,353.5L213.3,350.8L207.1,346.0L209.5,342.2L241.0,347.3L293.3,347.2L293.8,364.0L293.3,412.3L293.8,429.9L293.5,474.6L294.3,478.5L263.5,478.5L263.3,452.9L247.1,452.9L243.3,444.6L226.1,407.1Z"/>
    <path class="wtc-county" id="wtc-county-lincoln" data-county="Lincoln" d="M407.6,312.5L407.6,267.8L343.8,267.8L343.8,182.8L343.5,181.5L354.6,181.4L354.6,182.2L424.5,182.3L424.5,181.6L475.3,181.5L475.3,192.8L475.3,235.9L475.6,247.4L475.3,264.1L475.6,274.8L475.3,305.1L475.6,312.5L407.6,312.5Z"/>
    <path class="wtc-county" id="wtc-county-lyon" data-county="Lyon" d="M71.0,353.5L73.1,350.5L75.6,349.5L81.8,349.5L81.0,345.9L82.6,341.7L99.7,341.6L99.7,334.9L93.3,334.4L91.8,332.4L91.8,323.0L93.1,321.9L92.8,316.5L96.9,316.2L97.2,310.5L98.5,310.5L98.5,302.4L110.8,293.8L128.4,293.8L128.4,318.8L129.0,325.0L120.8,324.9L120.8,331.6L126.9,340.8L139.5,340.9L139.5,343.6L136.6,343.6L136.6,345.7L134.1,346.7L129.7,351.9L126.9,352.9L124.3,356.0L120.0,358.1L114.9,363.3L113.3,363.4L113.6,372.6L115.4,372.6L115.6,381.1L116.4,381.1L116.4,387.2L110.2,382.4L108.5,382.1L103.3,381.9L101.5,380.0L87.7,359.7L75.6,354.6L71.0,353.5Z"/>
    <path class="wtc-county" id="wtc-county-mineral" data-county="Mineral" d="M110.8,293.8L115.9,290.0L132.0,278.8L162.8,256.8L168.2,256.6L215.4,298.0L179.2,329.8L179.2,335.6L203.0,340.8L139.5,340.9L126.9,340.8L120.8,331.6L120.8,324.9L129.0,325.0L128.4,318.8L128.4,293.8L110.8,293.8Z"/>
    <path class="wtc-county" id="wtc-county-nye" data-county="Nye" d="M203.0,340.8L179.2,335.6L179.2,329.8L215.4,298.0L253.0,264.3L253.0,219.1L252.8,190.7L318.2,141.1L347.1,118.8L347.1,133.5L343.5,133.6L343.5,181.5L343.8,182.8L343.8,267.8L407.6,267.8L407.6,312.5L342.8,347.2L293.3,347.2L241.0,347.3L209.5,342.2L203.0,340.8Z"/>
    <path class="wtc-county" id="wtc-county-pershing" data-county="Pershing" d="M99.7,475.6L99.5,444.0L97.7,444.0L97.7,406.9L105.9,407.0L175.9,407.2L226.1,407.1L243.3,444.6L243.3,455.3L218.7,455.9L218.7,468.3L162.0,468.1L137.2,468.1L137.2,475.6L99.7,475.6Z"/>
    <path class="wtc-county" id="wtc-county-storey" data-county="Storey" d="M101.5,380.0L95.4,377.5L88.5,377.3L88.2,376.0L83.8,376.0L80.3,374.7L77.4,372.1L72.3,372.5L72.0,367.5L75.1,367.5L74.9,364.5L72.8,363.4L74.9,359.3L73.6,359.3L73.6,355.7L71.0,353.5L75.6,354.6L87.7,359.7L101.5,380.0Z"/>
    <path class="wtc-county" id="wtc-county-washoe" data-county="Washoe" d="M50.0,358.2L50.3,347.4L59.0,347.4L62.8,350.5L66.9,351.0L68.2,353.0L71.0,353.5L73.6,355.7L73.6,359.3L74.9,359.3L72.8,363.4L74.9,364.5L75.1,367.5L72.0,367.5L72.3,372.5L77.4,372.1L80.3,374.7L83.8,376.0L88.2,376.0L88.5,377.3L95.4,377.5L101.5,380.0L103.3,381.9L108.5,382.1L109.7,384.2L109.7,391.9L106.9,393.4L106.9,399.9L105.6,399.9L105.9,407.0L97.7,406.9L97.7,444.0L99.5,444.0L99.7,475.6L98.5,475.6L98.2,495.2L100.0,495.2L100.2,508.0L98.7,508.0L98.5,520.6L98.7,549.4L96.1,549.4L58.5,549.7L50.5,549.5L50.5,549.4L50.5,491.6L50.5,460.6L50.8,458.5L50.8,412.1L50.5,388.0L50.3,387.2L50.3,367.4L50.0,358.2Z"/>
    <path class="wtc-county" id="wtc-county-white-pine" data-county="White Pine" d="M347.9,416.1L348.7,410.8L348.1,407.2L350.2,400.7L350.7,396.6L349.4,393.8L349.7,390.2L348.1,387.6L349.4,377.6L348.1,376.3L347.4,371.9L345.6,369.3L342.8,368.3L342.8,347.2L407.6,312.5L475.6,312.5L475.6,374.3L475.6,400.3L475.6,415.4L441.2,415.5L371.7,416.2L347.9,416.1Z"/>
    <path class="wtc-county" id="wtc-county-carson-city" data-county="Carson City" d="M50.3,347.4L50.3,343.7L67.4,343.7L68.2,341.6L82.6,341.7L81.0,345.9L81.8,349.5L75.6,349.5L73.1,350.5L71.0,353.5L68.2,353.0L66.9,351.0L62.8,350.5L59.0,347.4L50.3,347.4Z"/>
  </g>
</svg>