<?xml version="1.0" encoding="UTF-8"?>
<svg xmlns="http://www.w3.org/2000/svg" viewBox="0 0 600 478" id="wtc-state-map-WI" role="img" aria-label="wi county map">
  <title>wi Counties</title>
  <g class="wtc-counties">
    <path class="wtc-county" id="wtc-county-adams" data-county="Adams" d="M296.0,283.2L294.2,286.2L296.0,288.0L294.2,291.3L290.4,290.0L289.8,293.7L285.9,296.4L287.4,303.1L290.1,304.1L291.9,310.0L289.5,310.7L291.3,315.0L299.3,321.6L302.8,329.2L305.8,333.4L321.2,333.3L321.2,305.3L321.2,283.5L310.8,283.4L296.0,283.2Z"/>
    <path class="wtc-county" id="wtc-county-ashland" data-county="Ashland" d="M249.5,56.2L254.0,55.3L255.4,50.0L251.9,50.3L249.5,56.2ZM244.8,66.6L246.9,67.6L251.0,64.2L244.8,66.6ZM234.1,62.5L235.6,64.1L242.7,63.3L246.0,59.9L244.5,59.0L235.6,61.1L234.1,62.5ZM225.3,69.6L232.4,66.2L232.1,64.8L226.1,67.7L225.3,69.6ZM227.0,59.4L225.0,60.8L227.3,63.4L231.2,63.2L227.0,59.4ZM224.1,54.4L224.7,56.2L229.4,57.6L232.7,60.6L237.7,57.1L242.4,56.4L241.8,53.3L237.7,55.7L234.4,51.8L224.1,54.4ZM222.6,74.1L222.9,76.7L228.8,74.1L233.8,73.8L232.4,71.3L241.2,69.0L237.1,66.7L227.6,72.8L222.6,74.1ZM211.6,90.6L211.6,126.1L211.6,140.4L232.1,140.3L263.1,140.4L263.1,126.1L252.8,126.2L252.8,119.0L242.4,119.0L242.7,90.7L230.6,84.1L227.3,81.7L225.8,85.6L222.6,87.3L211.6,90.6Z"/>
    <path class="wtc-county" id="wtc-county-barron" data-county="Barron" d="M110.4,168.5L110.1,204.0L150.7,204.2L160.7,204.3L161.0,197.2L161.0,168.7L120.5,168.5L110.4,168.5Z"/>
    <path class="wtc-county" id="wtc-county-bayfield" data-county="Bayfield" d="M206.9,57.5L211.0,59.4L211.3,56.3L206.9,57.5ZM160.1,76.5L160.1,125.9L185.9,125.8L211.6,126.1L211.6,90.6L209.6,89.6L212.8,84.2L217.6,81.7L214.9,76.5L222.0,71.0L226.1,65.6L219.0,59.8L216.1,59.6L211.9,62.0L207.8,61.2L201.3,66.2L193.9,66.9L191.8,69.2L186.8,67.6L185.0,69.5L177.6,71.4L163.4,76.4L160.1,76.5Z"/>
    <path class="wtc-county" id="wtc-county-brown" data-county="Brown" d="M433.1,247.7L432.8,255.5L437.2,255.4L437.2,283.8L449.3,284.0L462.1,284.0L462.4,276.8L472.1,276.8L472.4,250.7L468.6,251.3L460.9,255.8L458.8,259.6L455.3,260.1L449.3,257.1L453.2,253.6L453.8,247.9L434.0,248.3L433.1,247.7Z"/>
    <path class="wtc-county" id="wtc-county-buffalo" data-county="Buffalo" d="M151.8,254.6L123.1,254.6L121.0,255.1L119.3,261.7L116.0,270.2L125.2,273.5L129.3,276.3L129.3,280.1L131.7,281.1L132.0,284.7L134.7,287.9L138.2,290.3L146.2,293.2L147.1,295.2L156.6,301.2L159.5,301.7L158.3,300.7L161.6,295.9L158.9,291.5L155.1,289.6L156.0,286.4L161.9,283.5L161.9,254.6L151.8,254.6Z"/>
    <path class="wtc-county" id="wtc-county-burnett" data-county="Burnett" d="M53.6,161.1L51.8,161.7L50.0,168.2L79.3,168.4L79.6,161.2L110.4,161.5L110.4,168.5L120.5,168.5L120.2,140.2L119.0,140.2L119.0,125.9L98.8,125.9L98.8,132.7L95.9,133.4L94.1,137.6L87.0,137.1L84.0,141.0L79.9,140.1L77.5,142.8L70.1,144.4L64.2,147.8L58.3,158.3L53.6,161.1Z"/>
    <path class="wtc-county" id="wtc-county-calumet" data-county="Calumet" d="M419.7,283.7L419.7,308.9L439.6,309.0L439.6,312.7L449.6,312.7L449.3,305.5L449.3,284.0L437.2,283.8L419.7,283.7Z"/>
    <path class="wtc-county" id="wtc-county-chippewa" data-county="Chippewa" d="M150.7,204.2L150.7,211.3L151.8,211.3L151.8,233.2L211.9,233.1L211.9,218.8L211.6,197.2L161.0,197.2L160.7,204.3L150.7,204.2Z"/>
    <path class="wtc-county" id="wtc-county-clark" data-county="Clark" d="M211.9,218.8L211.9,233.1L211.9,254.6L211.9,261.8L222.0,261.8L222.0,268.9L241.8,269.0L262.0,268.8L262.0,247.3L262.0,218.6L252.2,218.8L211.9,218.8Z"/>
    <path class="wtc-county" id="wtc-county-columbia" data-county="Columbia" d="M305.8,333.4L306.7,335.7L311.4,337.0L310.2,339.1L321.2,340.3L320.9,354.9L314.7,356.5L311.1,359.9L311.1,362.1L340.4,362.0L340.4,363.1L369.7,362.8L370.0,355.7L370.0,334.0L359.9,334.2L359.9,333.2L350.2,333.3L321.2,333.3L305.8,333.4Z"/>
    <path class="wtc-county" id="wtc-county-crawford" data-county="Crawford" d="M188.5,351.4L188.8,357.5L196.8,360.4L200.7,365.8L195.4,370.0L193.6,373.7L190.9,375.4L190.9,379.7L192.7,387.3L194.2,386.3L200.4,386.9L209.3,382.7L210.4,381.2L218.1,379.9L222.3,377.3L226.7,376.1L231.2,372.0L232.9,372.1L232.9,351.4L188.5,351.4Z"/>
    <path class="wtc-county" id="wtc-county-dane" data-county="Dane" d="M301.3,369.3L301.3,398.0L340.1,398.1L340.1,399.1L369.4,398.9L369.7,370.0L369.7,362.8L340.4,363.1L340.4,362.0L311.1,362.1L310.2,365.5L304.0,366.6L301.3,369.3Z"/>
    <path class="wtc-county" id="wtc-county-dodge" data-county="Dodge" d="M370.0,334.0L370.0,355.7L369.7,362.8L369.7,370.0L408.8,370.1L418.6,370.3L418.6,355.7L419.7,355.7L420.0,341.4L419.7,334.3L379.8,334.0L370.0,334.0Z"/>
    <path class="wtc-county" id="wtc-county-door" data-county="Door" d="M539.0,192.3L543.2,196.9L550.0,187.8L540.8,186.6L539.0,192.3ZM504.4,204.9L504.4,206.7L508.6,208.4L508.0,203.9L504.4,204.9ZM504.7,248.1L509.4,238.3L513.3,233.9L518.6,231.6L517.4,229.8L521.3,227.0L519.8,223.9L523.9,220.3L525.4,216.5L527.8,216.8L531.3,214.0L531.9,203.9L536.7,203.5L537.3,197.4L530.8,197.2L525.7,201.4L525.4,205.6L519.2,207.9L515.7,207.5L513.6,214.6L505.6,222.3L502.0,229.2L503.8,232.4L499.4,230.2L496.1,232.6L492.9,232.1L485.2,234.6L476.0,244.1L474.8,248.0L504.7,248.1Z"/>
    <path class="wtc-county" id="wtc-county-douglas" data-county="Douglas" d="M98.8,104.4L98.8,125.9L119.0,125.9L160.1,125.9L160.1,76.5L137.9,82.0L127.9,82.7L121.9,80.6L115.7,77.1L111.6,77.8L110.7,79.9L106.0,80.9L108.6,82.2L105.4,85.3L98.8,84.2L98.8,104.4Z"/>
    <path class="wtc-county" id="wtc-county-dunn" data-county="Dunn" d="M110.1,204.0L110.1,211.3L111.9,211.3L111.9,233.1L111.9,247.3L151.8,247.4L151.8,233.2L151.8,211.3L150.7,211.3L150.7,204.2L110.1,204.0Z"/>
    <path class="wtc-county" id="wtc-county-eau-claire" data-county="Eau Claire" d="M151.8,233.2L151.8,247.4L151.8,254.6L161.9,254.6L191.8,254.6L211.9,254.6L211.9,233.1L151.8,233.2Z"/>
    <path class="wtc-county" id="wtc-county-florence" data-county="Florence" d="M396.7,137.6L397.2,140.3L397.2,161.7L418.0,161.7L448.2,162.5L448.2,156.9L444.3,156.1L441.7,153.8L446.7,150.1L443.4,145.3L432.8,141.9L428.6,142.9L421.5,139.6L418.0,140.6L411.8,139.1L411.2,137.4L403.2,137.5L402.3,139.8L398.1,139.4L396.7,137.6Z"/>
    <path class="wtc-county" id="wtc-county-fond-du-lac" data-county="Fond du Lac" d="M379.8,312.4L379.8,334.0L419.7,334.3L420.0,341.4L439.6,341.5L439.6,312.7L439.6,309.0L419.7,308.9L419.7,312.6L379.8,312.4Z"/>
    <path class="wtc-county" id="wtc-county-forest" data-county="Forest" d="M375.9,132.8L375.9,140.3L366.5,140.3L366.5,147.5L366.8,183.0L376.8,183.0L376.5,190.1L397.0,190.1L417.7,190.2L418.0,161.7L397.2,161.7L397.2,140.3L396.7,137.6L391.9,136.6L386.0,137.1L375.9,132.8Z"/>
    <path class="wtc-county" id="wtc-county-grant" data-county="Grant" d="M192.7,387.3L193.6,394.1L197.1,395.9L200.1,406.8L207.2,411.1L214.0,413.0L229.7,416.4L235.0,424.2L235.0,426.8L252.8,426.9L252.8,401.7L252.5,369.7L243.0,368.8L232.9,372.1L231.2,372.0L226.7,376.1L222.3,377.3L218.1,379.9L210.4,381.2L209.3,382.7L200.4,386.9L194.2,386.3L192.7,387.3Z"/>
    <path class="wtc-county" id="wtc-county-green" data-county="Green" d="M301.3,398.0L301.3,401.6L301.3,427.1L337.4,427.5L340.4,427.5L340.1,399.1L340.1,398.1L301.3,398.0Z"/>
    <path class="wtc-county" id="wtc-county-green-lake" data-county="Green Lake" d="M356.7,305.2L356.7,314.0L354.0,314.0L354.0,319.3L356.7,319.5L356.7,323.1L350.2,323.6L350.2,333.3L359.9,333.2L359.9,334.2L370.0,334.0L379.8,334.0L379.8,312.4L379.8,305.2L356.7,305.2Z"/>
    <path class="wtc-county" id="wtc-county-iowa" data-county="Iowa" d="M252.5,369.7L252.8,401.7L301.3,401.6L301.3,398.0L301.3,369.3L296.0,370.7L288.3,370.2L281.2,373.0L272.0,372.7L266.4,370.0L259.0,369.0L252.5,369.7Z"/>
    <path class="wtc-county" id="wtc-county-iron" data-county="Iron" d="M242.7,90.7L242.4,119.0L252.8,119.0L252.8,126.2L263.1,126.1L263.1,140.4L284.5,140.3L293.9,140.3L293.9,114.1L277.9,111.1L278.2,109.2L270.0,97.3L262.0,96.2L259.0,94.5L255.4,94.9L253.7,92.2L246.3,90.2L242.7,90.7Z"/>
    <path class="wtc-county" id="wtc-county-jackson" data-county="Jackson" d="M191.8,254.6L191.8,283.4L193.0,283.4L193.0,297.2L193.0,297.9L207.8,298.0L207.5,293.1L214.3,290.8L252.2,290.5L262.3,291.0L262.3,283.3L261.7,282.8L262.0,268.8L241.8,269.0L222.0,268.9L222.0,261.8L211.9,261.8L211.9,254.6L191.8,254.6Z"/>
    <path class="wtc-county" id="wtc-county-jefferson" data-county="Jefferson" d="M369.7,370.0L369.4,398.9L389.0,399.2L408.2,399.2L408.2,384.7L408.8,370.1L369.7,370.0Z"/>
    <path class="wtc-county" id="wtc-county-juneau" data-county="Juneau" d="M262.3,291.0L262.3,326.0L262.3,333.4L305.8,333.4L302.8,329.2L299.3,321.6L291.3,315.0L289.5,310.7L291.9,310.0L290.1,304.1L287.4,303.1L285.9,296.4L289.8,293.7L290.4,290.0L294.2,291.3L296.0,288.0L294.2,286.2L296.0,283.2L262.3,283.3L262.3,291.0Z"/>
    <path class="wtc-county" id="wtc-county-kenosha" data-county="Kenosha" d="M427.7,418.4L427.7,427.9L436.6,427.9L469.5,428.2L467.7,417.9L468.9,413.7L437.5,413.5L437.5,418.3L427.7,418.4Z"/>
    <path class="wtc-county" id="wtc-county-kewaunee" data-county="Kewaunee" d="M472.4,250.7L472.1,276.8L490.8,276.8L496.7,258.3L499.4,253.9L504.7,248.1L474.8,248.0L472.4,250.7Z"/>
    <path class="wtc-county" id="wtc-county-la-crosse" data-county="La Crosse" d="M170.5,305.1L173.7,307.5L182.0,316.4L185.3,322.5L184.4,326.4L212.8,326.5L212.8,297.9L207.8,298.0L193.0,297.9L193.0,297.2L189.1,296.6L187.4,299.4L183.5,297.8L177.6,300.7L179.1,305.1L170.5,305.1Z"/>
    <path class="wtc-county" id="wtc-county-lafayette" data-county="Lafayette" d="M252.8,401.7L252.8,426.9L293.9,427.0L301.3,427.1L301.3,401.6L252.8,401.7Z"/>
    <path class="wtc-county" id="wtc-county-langlade" data-county="Langlade" d="M335.4,182.8L335.4,211.5L352.0,211.5L352.0,218.9L372.1,218.9L372.1,211.6L400.2,211.6L400.2,204.5L397.0,204.4L397.0,190.1L376.5,190.1L376.8,183.0L366.8,183.0L340.4,182.6L335.4,182.8Z"/>
    <path class="wtc-county" id="wtc-county-lincoln" data-county="Lincoln" d="M284.5,189.9L284.2,193.3L284.5,211.4L335.4,211.5L335.4,182.8L335.1,175.6L284.5,175.6L284.5,189.9Z"/>
    <path class="wtc-county" id="wtc-county-manitowoc" data-county="Manitowoc" d="M449.3,284.0L449.3,305.5L449.6,312.7L475.1,312.7L479.0,302.2L481.3,299.5L482.2,295.1L489.0,291.9L492.6,289.0L493.2,284.0L490.8,279.6L490.8,276.8L472.1,276.8L462.4,276.8L462.1,284.0L449.3,284.0Z"/>
    <path class="wtc-county" id="wtc-county-marathon" data-county="Marathon" d="M262.0,218.6L262.0,247.3L300.7,247.3L330.0,247.3L352.0,247.6L352.0,218.9L352.0,211.5L335.4,211.5L284.5,211.4L271.7,211.4L271.7,218.6L262.0,218.6Z"/>
    <path class="wtc-county" id="wtc-county-marinette" data-county="Marinette" d="M418.0,161.7L417.7,190.2L427.7,190.4L427.4,204.7L437.5,205.0L437.2,212.1L443.1,212.3L442.8,219.4L457.6,219.6L457.6,221.9L472.7,222.1L472.4,224.2L483.4,223.2L483.7,217.6L486.6,213.5L481.0,212.5L478.7,209.1L474.8,207.2L474.2,205.1L478.7,196.7L481.9,193.3L481.3,190.9L478.1,189.2L473.3,192.5L465.3,193.2L463.3,189.9L465.3,188.2L464.4,185.5L468.3,183.1L470.1,180.2L469.2,176.9L471.6,172.0L467.4,166.7L471.0,165.8L468.6,162.7L465.6,161.7L463.0,159.0L455.9,158.8L453.2,155.7L448.2,156.9L448.2,162.5L418.0,161.7Z"/>
    <path class="wtc-county" id="wtc-county-marquette" data-county="Marquette" d="M321.2,305.3L321.2,333.3L350.2,333.3L350.2,323.6L356.7,323.1L356.7,319.5L354.0,319.3L354.0,314.0L356.7,314.0L356.7,305.2L321.2,305.3Z"/>
    <path class="wtc-county" id="wtc-county-menominee" data-county="Menominee" d="M400.2,211.6L372.1,211.6L372.1,218.9L372.1,226.1L392.2,226.0L392.2,233.2L412.6,233.2L412.9,211.7L400.2,211.6Z"/>
    <path class="wtc-county" id="wtc-county-milwaukee" data-county="Milwaukee" d="M447.9,370.5L447.3,384.9L447.3,399.2L467.1,399.3L465.6,395.4L465.6,389.4L461.5,385.0L463.6,381.0L461.2,374.9L461.8,370.5L447.9,370.5Z"/>
    <path class="wtc-county" id="wtc-county-monroe" data-county="Monroe" d="M262.3,291.0L252.2,290.5L214.3,290.8L207.5,293.1L207.8,298.0L212.8,297.9L212.8,326.5L252.2,326.4L262.3,326.0L262.3,291.0Z"/>
    <path class="wtc-county" id="wtc-county-oconto" data-county="Oconto" d="M397.0,190.1L397.0,204.4L400.2,204.5L400.2,211.6L412.9,211.7L412.6,233.2L432.5,233.4L432.2,240.6L433.1,247.7L434.0,248.3L453.8,247.9L454.4,244.4L457.9,241.4L461.2,235.6L463.9,234.5L467.1,230.3L466.2,227.0L472.4,224.2L472.7,222.1L457.6,221.9L457.6,219.6L442.8,219.4L443.1,212.3L437.2,212.1L437.5,205.0L427.4,204.7L427.7,190.4L417.7,190.2L397.0,190.1Z"/>
    <path class="wtc-county" id="wtc-county-oneida" data-county="Oneida" d="M284.5,147.4L284.5,175.6L335.1,175.6L335.4,182.8L340.4,182.6L366.8,183.0L366.5,147.5L355.8,147.1L356.1,150.7L345.7,150.3L345.7,147.0L335.4,147.2L284.5,147.4Z"/>
    <path class="wtc-county" id="wtc-county-outagamie" data-county="Outagamie" d="M402.9,255.1L392.2,255.1L391.9,283.7L419.7,283.7L437.2,283.8L437.2,255.4L432.8,255.5L402.9,255.1Z"/>
    <path class="wtc-county" id="wtc-county-ozaukee" data-county="Ozaukee" d="M449.6,341.6L449.6,356.0L447.9,356.0L447.9,370.5L461.8,370.5L460.3,365.6L463.0,355.8L468.9,348.2L470.1,341.5L449.6,341.6Z"/>
    <path class="wtc-county" id="wtc-county-pepin" data-county="Pepin" d="M97.1,259.2L98.0,262.3L103.0,266.3L105.4,267.7L116.0,270.2L119.3,261.7L121.0,255.1L123.1,254.6L151.8,254.6L151.8,247.4L111.9,247.3L111.9,259.3L97.1,259.2Z"/>
    <path class="wtc-county" id="wtc-county-pierce" data-county="Pierce" d="M59.8,232.7L60.1,234.8L56.5,240.5L56.8,242.3L62.7,244.9L71.9,251.1L71.6,252.8L75.8,253.9L78.4,257.0L87.3,257.2L95.3,258.1L97.1,259.2L111.9,259.3L111.9,247.3L111.9,233.1L92.0,232.7L59.8,232.7Z"/>
    <path class="wtc-county" id="wtc-county-polk" data-county="Polk" d="M50.0,168.2L50.0,173.6L56.2,175.1L59.2,174.4L63.3,176.7L63.0,178.9L69.8,184.9L69.5,188.4L65.1,191.8L65.4,193.8L61.5,196.9L60.4,197.3L60.7,204.0L110.1,204.0L110.4,168.5L110.4,161.5L79.6,161.2L79.3,168.4L50.0,168.2Z"/>
    <path class="wtc-county" id="wtc-county-portage" data-county="Portage" d="M300.7,247.3L300.7,261.6L310.5,261.6L310.8,283.4L321.2,283.5L352.0,283.7L352.0,247.6L330.0,247.3L300.7,247.3Z"/>
    <path class="wtc-county" id="wtc-county-price" data-county="Price" d="M232.1,168.7L232.1,190.1L250.1,190.2L284.5,189.9L284.5,175.6L284.5,147.4L284.5,140.3L263.1,140.4L232.1,140.3L232.1,168.7Z"/>
    <path class="wtc-county" id="wtc-county-racine" data-county="Racine" d="M427.7,399.3L427.7,418.4L437.5,418.3L437.5,413.5L468.9,413.7L471.0,410.4L472.1,404.0L467.1,399.3L447.3,399.2L427.7,399.3Z"/>
    <path class="wtc-county" id="wtc-county-richland" data-county="Richland" d="M262.3,340.6L232.7,340.7L232.9,351.4L232.9,372.1L243.0,368.8L252.5,369.7L259.0,369.0L266.4,370.0L272.0,372.7L272.3,340.5L262.3,340.6Z"/>
    <path class="wtc-county" id="wtc-county-rock" data-county="Rock" d="M340.1,399.1L340.4,427.5L375.3,427.9L389.0,428.1L388.7,406.5L389.0,399.2L369.4,398.9L340.1,399.1Z"/>
    <path class="wtc-county" id="wtc-county-rusk" data-county="Rusk" d="M161.0,168.7L161.0,197.2L211.6,197.2L211.6,190.0L232.1,190.1L232.1,168.7L161.0,168.7Z"/>
    <path class="wtc-county" id="wtc-county-st-croix" data-county="St. Croix" d="M60.7,204.0L59.8,206.0L61.5,212.5L56.8,216.6L60.1,219.0L59.5,223.6L61.2,226.5L59.2,229.5L59.8,232.7L92.0,232.7L111.9,233.1L111.9,211.3L110.1,211.3L110.1,204.0L60.7,204.0Z"/>
    <path class="wtc-county" id="wtc-county-sauk" data-county="Sauk" d="M262.3,333.4L262.3,340.6L272.3,340.5L272.0,372.7L281.2,373.0L288.3,370.2L296.0,370.7L301.3,369.3L304.0,366.6L310.2,365.5L311.1,362.1L311.1,359.9L314.7,356.5L320.9,354.9L321.2,340.3L310.2,339.1L311.4,337.0L306.7,335.7L305.8,333.4L262.3,333.4Z"/>
    <path class="wtc-county" id="wtc-county-sawyer" data-county="Sawyer" d="M160.1,125.9L160.1,140.2L160.7,140.3L161.0,168.7L232.1,168.7L232.1,140.3L211.6,140.4L211.6,126.1L185.9,125.8L160.1,125.9Z"/>
    <path class="wtc-county" id="wtc-county-shawano" data-county="Shawano" d="M352.0,218.9L352.0,247.6L403.2,247.8L402.9,255.1L432.8,255.5L433.1,247.7L432.2,240.6L432.5,233.4L412.6,233.2L392.2,233.2L392.2,226.0L372.1,226.1L372.1,218.9L352.0,218.9Z"/>
    <path class="wtc-county" id="wtc-county-sheboygan" data-county="Sheboygan" d="M439.6,312.7L439.6,341.5L449.6,341.6L470.1,341.5L471.0,338.6L477.2,330.2L477.8,323.0L475.4,319.5L475.1,312.7L449.6,312.7L439.6,312.7Z"/>
    <path class="wtc-county" id="wtc-county-taylor" data-county="Taylor" d="M211.6,197.2L211.9,218.8L252.2,218.8L262.0,218.6L271.7,218.6L271.7,211.4L284.5,211.4L284.2,193.3L284.5,189.9L250.1,190.2L232.1,190.1L211.6,190.0L211.6,197.2Z"/>
    <path class="wtc-county" id="wtc-county-trempealeau" data-county="Trempealeau" d="M161.9,254.6L161.9,283.5L156.0,286.4L155.1,289.6L158.9,291.5L161.6,295.9L158.3,300.7L159.5,301.7L169.3,303.7L170.5,305.1L179.1,305.1L177.6,300.7L183.5,297.8L187.4,299.4L189.1,296.6L193.0,297.2L193.0,283.4L191.8,283.4L191.8,254.6L161.9,254.6Z"/>
    <path class="wtc-county" id="wtc-county-vernon" data-county="Vernon" d="M184.4,326.4L182.9,330.5L183.5,335.5L186.5,338.2L185.3,341.3L187.7,345.0L186.2,348.7L188.5,351.4L232.9,351.4L232.7,340.7L262.3,340.6L262.3,333.4L262.3,326.0L252.2,326.4L212.8,326.5L184.4,326.4Z"/>
    <path class="wtc-county" id="wtc-county-vilas" data-county="Vilas" d="M284.5,140.3L284.5,147.4L335.4,147.2L345.7,147.0L345.7,150.3L356.1,150.7L355.8,147.1L366.5,147.5L366.5,140.3L375.9,140.3L375.9,132.8L371.2,130.8L362.9,127.4L293.9,114.1L293.9,140.3L284.5,140.3Z"/>
    <path class="wtc-county" id="wtc-county-walworth" data-county="Walworth" d="M389.0,399.2L388.7,406.5L389.0,428.1L394.6,428.1L427.7,427.9L427.7,418.4L427.7,399.3L408.2,399.2L389.0,399.2Z"/>
    <path class="wtc-county" id="wtc-county-washburn" data-county="Washburn" d="M119.0,125.9L119.0,140.2L120.2,140.2L120.5,168.5L161.0,168.7L160.7,140.3L160.1,140.2L160.1,125.9L119.0,125.9Z"/>
    <path class="wtc-county" id="wtc-county-washington" data-county="Washington" d="M420.0,341.4L419.7,355.7L418.6,355.7L418.6,370.3L447.9,370.5L447.9,356.0L449.6,356.0L449.6,341.6L439.6,341.5L420.0,341.4Z"/>
    <path class="wtc-county" id="wtc-county-waukesha" data-county="Waukesha" d="M408.8,370.1L408.2,384.7L408.2,399.2L427.7,399.3L447.3,399.2L447.3,384.9L447.9,370.5L418.6,370.3L408.8,370.1Z"/>
    <path class="wtc-county" id="wtc-county-waupaca" data-county="Waupaca" d="M352.0,247.6L352.0,283.7L379.8,283.8L391.9,283.7L392.2,255.1L402.9,255.1L403.2,247.8L352.0,247.6Z"/>
    <path class="wtc-county" id="wtc-county-waushara" data-county="Waushara" d="M321.2,283.5L321.2,305.3L356.7,305.2L379.8,305.2L379.8,283.8L352.0,283.7L321.2,283.5Z"/>
    <path class="wtc-county" id="wtc-county-winnebago" data-county="Winnebago" d="M379.8,283.8L379.8,305.2L379.8,312.4L419.7,312.6L419.7,308.9L419.7,283.7L391.9,283.7L379.8,283.8Z"/>
    <path class="wtc-county" id="wtc-county-wood" data-county="Wood" d="M262.0,268.8L261.7,282.8L262.3,283.3L296.0,283.2L310.8,283.4L310.5,261.6L300.7,261.6L300.7,247.3L262.0,247.3L262.0,268.8Z"/>
  </g>
</svg>