<?xml version="1.0" encoding="UTF-8"?>
<svg xmlns="http://www.w3.org/2000/svg" viewBox="0 0 600 478" id="wtc-state-map-WI" role="img" aria-label="wi county map">
  <title>wi Counties</title>
  <g class="wtc-counties">
    <path class="wtc-county" id="wtc-county-adams" data-county="Adams" d="M296.0,195.0L294.2,192.0L296.0,190.2L294.2,187.0L290.4,188.2L289.8,184.5L285.9,181.8L287.4,175.1L290.1,174.1L291.9,168.2L289.5,167.5L291.3,163.2L299.3,156.6L302.8,149.1L305.8,144.8L321.2,144.9L321.2,172.9L321.2,194.7L310.8,194.8L296.0,195.0Z"/>
    <path class="wtc-county" id="wtc-county-ashland" data-county="Ashland" d="M249.5,422.0L254.0,422.9L255.4,428.2L251.9,427.9L249.5,422.0ZM244.8,411.6L246.9,410.6L251.0,414.0L244.8,411.6ZM234.1,415.7L235.6,414.1L242.7,414.9L246.0,418.3L244.5,419.2L235.6,417.2L234.1,415.7ZM225.3,408.6L232.4,412.1L232.1,413.4L226.1,410.5L225.3,408.6ZM227.0,418.9L225.0,417.4L227.3,414.8L231.2,415.0L227.0,418.9ZM224.1,423.8L224.7,422.0L229.4,420.6L232.7,417.7L237.7,421.1L242.4,421.8L241.8,424.9L237.7,422.5L234.4,426.4L224.1,423.8ZM222.6,404.1L222.9,401.5L228.8,404.1L233.8,404.4L232.4,406.9L241.2,409.2L237.1,411.5L227.6,405.4L222.6,404.1ZM211.6,387.6L211.6,352.1L211.6,337.8L232.1,337.9L263.1,337.8L263.1,352.1L252.8,352.0L252.8,359.2L242.4,359.2L242.7,387.5L230.6,394.1L227.3,396.5L225.8,392.6L222.6,390.9L211.6,387.6Z"/>
    <path class="wtc-county" id="wtc-county-barron" data-county="Barron" d="M110.4,309.7L110.1,274.2L150.7,274.0L160.7,273.9L161.0,281.0L161.0,309.5L120.5,309.7L110.4,309.7Z"/>
    <path class="wtc-county" id="wtc-county-bayfield" data-county="Bayfield" d="M206.9,420.7L211.0,418.8L211.3,421.9L206.9,420.7ZM160.1,401.7L160.1,352.3L185.9,352.4L211.6,352.1L211.6,387.6L209.6,388.6L212.8,394.1L217.6,396.5L214.9,401.7L222.0,407.2L226.1,412.6L219.0,418.4L216.1,418.6L211.9,416.2L207.8,417.0L201.3,412.1L193.9,411.3L191.8,409.0L186.8,410.6L185.0,408.7L177.6,406.8L163.4,401.9L160.1,401.7Z"/>
    <path class="wtc-county" id="wtc-county-brown" data-county="Brown" d="M433.1,230.5L432.8,222.7L437.2,222.8L437.2,194.4L449.3,194.3L462.1,194.3L462.4,201.4L472.1,201.4L472.4,227.6L468.6,226.9L460.9,222.4L458.8,218.6L455.3,218.1L449.3,221.1L453.2,224.7L453.8,230.3L434.0,229.9L433.1,230.5Z"/>
    <path class="wtc-county" id="wtc-county-buffalo" data-county="Buffalo" d="M151.8,223.6L123.1,223.6L121.0,223.1L119.3,216.5L116.0,208.0L125.2,204.7L129.3,201.9L129.3,198.2L131.7,197.1L132.0,193.5L134.7,190.4L138.2,187.9L146.2,185.0L147.1,183.0L156.6,177.0L159.5,176.5L158.3,177.5L161.6,182.4L158.9,186.7L155.1,188.6L156.0,191.8L161.9,194.8L161.9,223.6L151.8,223.6Z"/>
    <path class="wtc-county" id="wtc-county-burnett" data-county="Burnett" d="M53.6,317.1L51.8,316.5L50.0,310.0L79.3,309.8L79.6,317.0L110.4,316.8L110.4,309.7L120.5,309.7L120.2,338.0L119.0,338.0L119.0,352.3L98.8,352.3L98.8,345.5L95.9,344.8L94.1,340.6L87.0,341.1L84.0,337.2L79.9,338.1L77.5,335.4L70.1,333.8L64.2,330.4L58.3,319.9L53.6,317.1Z"/>
    <path class="wtc-county" id="wtc-county-calumet" data-county="Calumet" d="M419.7,194.5L419.7,169.3L439.6,169.2L439.6,165.5L449.6,165.5L449.3,172.7L449.3,194.3L437.2,194.4L419.7,194.5Z"/>
    <path class="wtc-county" id="wtc-county-chippewa" data-county="Chippewa" d="M150.7,274.0L150.7,266.9L151.8,266.9L151.8,245.0L211.9,245.1L211.9,259.4L211.6,281.0L161.0,281.0L160.7,273.9L150.7,274.0Z"/>
    <path class="wtc-county" id="wtc-county-clark" data-county="Clark" d="M211.9,259.4L211.9,245.1L211.9,223.6L211.9,216.4L222.0,216.4L222.0,209.3L241.8,209.2L262.0,209.4L262.0,230.9L262.0,259.7L252.2,259.4L211.9,259.4Z"/>
    <path class="wtc-county" id="wtc-county-columbia" data-county="Columbia" d="M305.8,144.8L306.7,142.5L311.4,141.2L310.2,139.1L321.2,137.9L320.9,123.3L314.7,121.7L311.1,118.3L311.1,116.1L340.4,116.2L340.4,115.1L369.7,115.4L370.0,122.6L370.0,144.2L359.9,144.0L359.9,145.0L350.2,144.9L321.2,144.9L305.8,144.8Z"/>
    <path class="wtc-county" id="wtc-county-crawford" data-county="Crawford" d="M188.5,126.8L188.8,120.7L196.8,117.8L200.7,112.4L195.4,108.2L193.6,104.5L190.9,102.8L190.9,98.5L192.7,91.0L194.2,91.9L200.4,91.3L209.3,95.6L210.4,97.0L218.1,98.3L222.3,100.9L226.7,102.1L231.2,106.2L232.9,106.1L232.9,126.8L188.5,126.8Z"/>
    <path class="wtc-county" id="wtc-county-dane" data-county="Dane" d="M301.3,108.9L301.3,80.2L340.1,80.1L340.1,79.1L369.4,79.3L369.7,108.2L369.7,115.4L340.4,115.1L340.4,116.2L311.1,116.1L310.2,112.7L304.0,111.6L301.3,108.9Z"/>
    <path class="wtc-county" id="wtc-county-dodge" data-county="Dodge" d="M370.0,144.2L370.0,122.6L369.7,115.4L369.7,108.2L408.8,108.1L418.6,108.0L418.6,122.5L419.7,122.5L420.0,136.8L419.7,144.0L379.8,144.2L370.0,144.2Z"/>
    <path class="wtc-county" id="wtc-county-door" data-county="Door" d="M539.0,285.9L543.2,281.3L550.0,290.4L540.8,291.6L539.0,285.9ZM504.4,273.3L504.4,271.5L508.6,269.9L508.0,274.3L504.4,273.3ZM504.7,230.1L509.4,239.9L513.3,244.3L518.6,246.6L517.4,248.5L521.3,251.2L519.8,254.3L523.9,258.0L525.4,261.7L527.8,261.4L531.3,264.3L531.9,274.3L536.7,274.7L537.3,280.8L530.8,281.0L525.7,276.8L525.4,272.6L519.2,270.4L515.7,270.7L513.6,263.6L505.6,255.9L502.0,249.0L503.8,245.8L499.4,248.0L496.1,245.6L492.9,246.1L485.2,243.6L476.0,234.1L474.8,230.2L504.7,230.1Z"/>
    <path class="wtc-county" id="wtc-county-douglas" data-county="Douglas" d="M98.8,373.8L98.8,352.3L119.0,352.3L160.1,352.3L160.1,401.7L137.9,396.3L127.9,395.5L121.9,397.6L115.7,401.1L111.6,400.4L110.7,398.3L106.0,397.3L108.6,396.0L105.4,392.9L98.8,394.1L98.8,373.8Z"/>
    <path class="wtc-county" id="wtc-county-dunn" data-county="Dunn" d="M110.1,274.2L110.1,267.0L111.9,266.9L111.9,245.1L111.9,230.9L151.8,230.8L151.8,245.0L151.8,266.9L150.7,266.9L150.7,274.0L110.1,274.2Z"/>
    <path class="wtc-county" id="wtc-county-eau-claire" data-county="Eau Claire" d="M151.8,245.0L151.8,230.8L151.8,223.6L161.9,223.6L191.8,223.7L211.9,223.6L211.9,245.1L151.8,245.0Z"/>
    <path class="wtc-county" id="wtc-county-florence" data-county="Florence" d="M396.7,340.6L397.2,337.9L397.2,316.5L418.0,316.5L448.2,315.7L448.2,321.3L444.3,322.1L441.7,324.4L446.7,328.1L443.4,332.9L432.8,336.3L428.6,335.3L421.5,338.7L418.0,337.6L411.8,339.1L411.2,340.8L403.2,340.7L402.3,338.4L398.1,338.8L396.7,340.6Z"/>
    <path class="wtc-county" id="wtc-county-fond-du-lac" data-county="Fond du Lac" d="M379.8,165.8L379.8,144.2L419.7,144.0L420.0,136.8L439.6,136.7L439.6,165.5L439.6,169.2L419.7,169.3L419.7,165.6L379.8,165.8Z"/>
    <path class="wtc-county" id="wtc-county-forest" data-county="Forest" d="M375.9,345.5L375.9,337.9L366.5,337.9L366.5,330.7L366.8,295.2L376.8,295.2L376.5,288.1L397.0,288.1L417.7,288.0L418.0,316.5L397.2,316.5L397.2,337.9L396.7,340.6L391.9,341.6L386.0,341.1L375.9,345.5Z"/>
    <path class="wtc-county" id="wtc-county-grant" data-county="Grant" d="M192.7,91.0L193.6,84.1L197.1,82.3L200.1,71.4L207.2,67.1L214.0,65.2L229.7,61.8L235.0,54.0L235.0,51.4L252.8,51.3L252.8,76.5L252.5,108.5L243.0,109.4L232.9,106.1L231.2,106.2L226.7,102.1L222.3,100.9L218.1,98.3L210.4,97.0L209.3,95.6L200.4,91.3L194.2,91.9L192.7,91.0Z"/>
    <path class="wtc-county" id="wtc-county-green" data-county="Green" d="M301.3,80.2L301.3,76.6L301.3,51.1L337.4,50.7L340.4,50.7L340.1,79.1L340.1,80.1L301.3,80.2Z"/>
    <path class="wtc-county" id="wtc-county-green-lake" data-county="Green Lake" d="M356.7,173.0L356.7,164.2L354.0,164.2L354.0,158.9L356.7,158.8L356.7,155.1L350.2,154.6L350.2,144.9L359.9,145.0L359.9,144.0L370.0,144.2L379.8,144.2L379.8,165.8L379.8,173.0L356.7,173.0Z"/>
    <path class="wtc-county" id="wtc-county-iowa" data-county="Iowa" d="M252.5,108.5L252.8,76.5L301.3,76.6L301.3,80.2L301.3,108.9L296.0,107.5L288.3,108.0L281.2,105.2L272.0,105.5L266.4,108.2L259.0,109.2L252.5,108.5Z"/>
    <path class="wtc-county" id="wtc-county-iron" data-county="Iron" d="M242.7,387.5L242.4,359.2L252.8,359.2L252.8,352.0L263.1,352.1L263.1,337.8L284.5,337.9L293.9,337.9L293.9,364.1L277.9,367.1L278.2,369.0L270.0,380.9L262.0,382.0L259.0,383.7L255.4,383.3L253.7,386.1L246.3,388.0L242.7,387.5Z"/>
    <path class="wtc-county" id="wtc-county-jackson" data-county="Jackson" d="M191.8,223.7L191.8,194.8L193.0,194.8L193.0,181.0L193.0,180.3L207.8,180.2L207.5,185.1L214.3,187.5L252.2,187.7L262.3,187.2L262.3,194.9L261.7,195.4L262.0,209.4L241.8,209.2L222.0,209.3L222.0,216.4L211.9,216.4L211.9,223.6L191.8,223.7Z"/>
    <path class="wtc-county" id="wtc-county-jefferson" data-county="Jefferson" d="M369.7,108.2L369.4,79.3L389.0,79.0L408.2,79.0L408.2,93.5L408.8,108.1L369.7,108.2Z"/>
    <path class="wtc-county" id="wtc-county-juneau" data-county="Juneau" d="M262.3,187.2L262.3,152.2L262.3,144.8L305.8,144.8L302.8,149.1L299.3,156.6L291.3,163.2L289.5,167.5L291.9,168.2L290.1,174.1L287.4,175.1L285.9,181.8L289.8,184.5L290.4,188.2L294.2,187.0L296.0,190.2L294.2,192.0L296.0,195.0L262.3,194.9L262.3,187.2Z"/>
    <path class="wtc-county" id="wtc-county-kenosha" data-county="Kenosha" d="M427.7,59.8L427.7,50.3L436.6,50.4L469.5,50.0L467.7,60.3L468.9,64.5L437.5,64.7L437.5,59.9L427.7,59.8Z"/>
    <path class="wtc-county" id="wtc-county-kewaunee" data-county="Kewaunee" d="M472.4,227.6L472.1,201.4L490.8,201.4L496.7,219.9L499.4,224.3L504.7,230.1L474.8,230.2L472.4,227.6Z"/>
    <path class="wtc-county" id="wtc-county-la-crosse" data-county="La Crosse" d="M170.5,173.1L173.7,170.7L182.0,161.8L185.3,155.7L184.4,151.8L212.8,151.7L212.8,180.3L207.8,180.2L193.0,180.3L193.0,181.0L189.1,181.6L187.4,178.8L183.5,180.4L177.6,177.5L179.1,173.1L170.5,173.1Z"/>
    <path class="wtc-county" id="wtc-county-lafayette" data-county="Lafayette" d="M252.8,76.5L252.8,51.3L293.9,51.2L301.3,51.1L301.3,76.6L252.8,76.5Z"/>
    <path class="wtc-county" id="wtc-county-langlade" data-county="Langlade" d="M335.4,295.4L335.4,266.7L352.0,266.7L352.0,259.3L372.1,259.3L372.1,266.6L400.2,266.6L400.2,273.8L397.0,273.8L397.0,288.1L376.5,288.1L376.8,295.2L366.8,295.2L340.4,295.6L335.4,295.4Z"/>
    <path class="wtc-county" id="wtc-county-lincoln" data-county="Lincoln" d="M284.5,288.3L284.2,284.9L284.5,266.8L335.4,266.7L335.4,295.4L335.1,302.7L284.5,302.7L284.5,288.3Z"/>
    <path class="wtc-county" id="wtc-county-manitowoc" data-county="Manitowoc" d="M449.3,194.3L449.3,172.7L449.6,165.5L475.1,165.5L479.0,176.0L481.3,178.7L482.2,183.1L489.0,186.3L492.6,189.2L493.2,194.3L490.8,198.6L490.8,201.4L472.1,201.4L462.4,201.4L462.1,194.3L449.3,194.3Z"/>
    <path class="wtc-county" id="wtc-county-marathon" data-county="Marathon" d="M262.0,259.7L262.0,230.9L300.7,230.9L330.0,231.0L352.0,230.6L352.0,259.3L352.0,266.7L335.4,266.7L284.5,266.8L271.7,266.8L271.7,259.7L262.0,259.7Z"/>
    <path class="wtc-county" id="wtc-county-marinette" data-county="Marinette" d="M418.0,316.5L417.7,288.0L427.7,287.8L427.4,273.5L437.5,273.2L437.2,266.1L443.1,266.0L442.8,258.8L457.6,258.6L457.6,256.3L472.7,256.1L472.4,254.1L483.4,255.0L483.7,260.6L486.6,264.8L481.0,265.7L478.7,269.1L474.8,271.1L474.2,273.1L478.7,281.5L481.9,284.9L481.3,287.3L478.1,289.1L473.3,285.7L465.3,285.0L463.3,288.3L465.3,290.0L464.4,292.7L468.3,295.1L470.1,298.0L469.2,301.3L471.6,306.2L467.4,311.5L471.0,312.4L468.6,315.6L465.6,316.5L463.0,319.2L455.9,319.5L453.2,322.5L448.2,321.3L448.2,315.7L418.0,316.5Z"/>
    <path class="wtc-county" id="wtc-county-marquette" data-county="Marquette" d="M321.2,172.9L321.2,144.9L350.2,144.9L350.2,154.6L356.7,155.1L356.7,158.8L354.0,158.9L354.0,164.2L356.7,164.2L356.7,173.0L321.2,172.9Z"/>
    <path class="wtc-county" id="wtc-county-menominee" data-county="Menominee" d="M400.2,266.6L372.1,266.6L372.1,259.3L372.1,252.1L392.2,252.2L392.2,245.1L412.6,245.0L412.9,266.5L400.2,266.6Z"/>
    <path class="wtc-county" id="wtc-county-milwaukee" data-county="Milwaukee" d="M447.9,107.7L447.3,93.3L447.3,79.0L467.1,78.9L465.6,82.8L465.6,88.8L461.5,93.2L463.6,97.3L461.2,103.3L461.8,107.7L447.9,107.7Z"/>
    <path class="wtc-county" id="wtc-county-monroe" data-county="Monroe" d="M262.3,187.2L252.2,187.7L214.3,187.5L207.5,185.1L207.8,180.2L212.8,180.3L212.8,151.7L252.2,151.8L262.3,152.2L262.3,187.2Z"/>
    <path class="wtc-county" id="wtc-county-oconto" data-county="Oconto" d="M397.0,288.1L397.0,273.8L400.2,273.8L400.2,266.6L412.9,266.5L412.6,245.0L432.5,244.8L432.2,237.6L433.1,230.5L434.0,229.9L453.8,230.3L454.4,233.8L457.9,236.8L461.2,242.6L463.9,243.7L467.1,247.9L466.2,251.2L472.4,254.1L472.7,256.1L457.6,256.3L457.6,258.6L442.8,258.8L443.1,266.0L437.2,266.1L437.5,273.2L427.4,273.5L427.7,287.8L417.7,288.0L397.0,288.1Z"/>
    <path class="wtc-county" id="wtc-county-oneida" data-county="Oneida" d="M284.5,330.9L284.5,302.7L335.1,302.7L335.4,295.4L340.4,295.6L366.8,295.2L366.5,330.7L355.8,331.1L356.1,327.5L345.7,327.9L345.7,331.2L335.4,331.0L284.5,330.9Z"/>
    <path class="wtc-county" id="wtc-county-outagamie" data-county="Outagamie" d="M402.9,223.1L392.2,223.1L391.9,194.5L419.7,194.5L437.2,194.4L437.2,222.8L432.8,222.7L402.9,223.1Z"/>
    <path class="wtc-county" id="wtc-county-ozaukee" data-county="Ozaukee" d="M449.6,136.7L449.6,122.2L447.9,122.2L447.9,107.7L461.8,107.7L460.3,112.6L463.0,122.4L468.9,130.0L470.1,136.7L449.6,136.7Z"/>
    <path class="wtc-county" id="wtc-county-pepin" data-county="Pepin" d="M97.1,219.1L98.0,215.9L103.0,211.9L105.4,210.6L116.0,208.0L119.3,216.5L121.0,223.1L123.1,223.6L151.8,223.6L151.8,230.8L111.9,230.9L111.9,218.9L97.1,219.1Z"/>
    <path class="wtc-county" id="wtc-county-pierce" data-county="Pierce" d="M59.8,245.5L60.1,243.4L56.5,237.8L56.8,235.9L62.7,233.3L71.9,227.1L71.6,225.4L75.8,224.3L78.4,221.2L87.3,221.0L95.3,220.1L97.1,219.1L111.9,218.9L111.9,230.9L111.9,245.1L92.0,245.6L59.8,245.5Z"/>
    <path class="wtc-county" id="wtc-county-polk" data-county="Polk" d="M50.0,310.0L50.0,304.6L56.2,303.2L59.2,303.8L63.3,301.5L63.0,299.3L69.8,293.3L69.5,289.8L65.1,286.4L65.4,284.4L61.5,281.3L60.4,280.9L60.7,274.2L110.1,274.2L110.4,309.7L110.4,316.8L79.6,317.0L79.3,309.8L50.0,310.0Z"/>
    <path class="wtc-county" id="wtc-county-portage" data-county="Portage" d="M300.7,230.9L300.7,216.6L310.5,216.6L310.8,194.8L321.2,194.7L352.0,194.5L352.0,230.6L330.0,231.0L300.7,230.9Z"/>
    <path class="wtc-county" id="wtc-county-price" data-county="Price" d="M232.1,309.5L232.1,288.1L250.1,288.0L284.5,288.3L284.5,302.7L284.5,330.9L284.5,337.9L263.1,337.8L232.1,337.9L232.1,309.5Z"/>
    <path class="wtc-county" id="wtc-county-racine" data-county="Racine" d="M427.7,78.9L427.7,59.8L437.5,59.9L437.5,64.7L468.9,64.5L471.0,67.9L472.1,74.2L467.1,78.9L447.3,79.0L427.7,78.9Z"/>
    <path class="wtc-county" id="wtc-county-richland" data-county="Richland" d="M262.3,137.6L232.7,137.5L232.9,126.8L232.9,106.1L243.0,109.4L252.5,108.5L259.0,109.2L266.4,108.2L272.0,105.5L272.3,137.7L262.3,137.6Z"/>
    <path class="wtc-county" id="wtc-county-rock" data-county="Rock" d="M340.1,79.1L340.4,50.7L375.3,50.3L389.0,50.1L388.7,71.7L389.0,79.0L369.4,79.3L340.1,79.1Z"/>
    <path class="wtc-county" id="wtc-county-rusk" data-county="Rusk" d="M161.0,309.5L161.0,281.0L211.6,281.0L211.6,288.2L232.1,288.1L232.1,309.5L161.0,309.5Z"/>
    <path class="wtc-county" id="wtc-county-st-croix" data-county="St. Croix" d="M60.7,274.2L59.8,272.2L61.5,265.7L56.8,261.6L60.1,259.2L59.5,254.6L61.2,251.7L59.2,248.7L59.8,245.5L92.0,245.6L111.9,245.1L111.9,266.9L110.1,267.0L110.1,274.2L60.7,274.2Z"/>
    <path class="wtc-county" id="wtc-county-sauk" data-county="Sauk" d="M262.3,144.8L262.3,137.6L272.3,137.7L272.0,105.5L281.2,105.2L288.3,108.0L296.0,107.5L301.3,108.9L304.0,111.6L310.2,112.7L311.1,116.1L311.1,118.3L314.7,121.7L320.9,123.3L321.2,137.9L310.2,139.1L311.4,141.2L306.7,142.5L305.8,144.8L262.3,144.8Z"/>
    <path class="wtc-county" id="wtc-county-sawyer" data-county="Sawyer" d="M160.1,352.3L160.1,338.0L160.7,337.9L161.0,309.5L232.1,309.5L232.1,337.9L211.6,337.8L211.6,352.1L185.9,352.4L160.1,352.3Z"/>
    <path class="wtc-county" id="wtc-county-shawano" data-county="Shawano" d="M352.0,259.3L352.0,230.6L403.2,230.4L402.9,223.1L432.8,222.7L433.1,230.5L432.2,237.6L432.5,244.8L412.6,245.0L392.2,245.1L392.2,252.2L372.1,252.1L372.1,259.3L352.0,259.3Z"/>
    <path class="wtc-county" id="wtc-county-sheboygan" data-county="Sheboygan" d="M439.6,165.5L439.6,136.7L449.6,136.7L470.1,136.7L471.0,139.6L477.2,148.0L477.8,155.2L475.4,158.8L475.1,165.5L449.6,165.5L439.6,165.5Z"/>
    <path class="wtc-county" id="wtc-county-taylor" data-county="Taylor" d="M211.6,281.0L211.9,259.4L252.2,259.4L262.0,259.7L271.7,259.7L271.7,266.8L284.5,266.8L284.2,284.9L284.5,288.3L250.1,288.0L232.1,288.1L211.6,288.2L211.6,281.0Z"/>
    <path class="wtc-county" id="wtc-county-trempealeau" data-county="Trempealeau" d="M161.9,223.6L161.9,194.8L156.0,191.8L155.1,188.6L158.9,186.7L161.6,182.4L158.3,177.5L159.5,176.5L169.3,174.6L170.5,173.1L179.1,173.1L177.6,177.5L183.5,180.4L187.4,178.8L189.1,181.6L193.0,181.0L193.0,194.8L191.8,194.8L191.8,223.7L161.9,223.6Z"/>
    <path class="wtc-county" id="wtc-county-vernon" data-county="Vernon" d="M184.4,151.8L182.9,147.7L183.5,142.7L186.5,140.1L185.3,136.9L187.7,133.2L186.2,129.5L188.5,126.8L232.9,126.8L232.7,137.5L262.3,137.6L262.3,144.8L262.3,152.2L252.2,151.8L212.8,151.7L184.4,151.8Z"/>
    <path class="wtc-county" id="wtc-county-vilas" data-county="Vilas" d="M284.5,337.9L284.5,330.9L335.4,331.0L345.7,331.2L345.7,327.9L356.1,327.5L355.8,331.1L366.5,330.7L366.5,337.9L375.9,337.9L375.9,345.5L371.2,347.4L362.9,350.8L293.9,364.1L293.9,337.9L284.5,337.9Z"/>
    <path class="wtc-county" id="wtc-county-walworth" data-county="Walworth" d="M389.0,79.0L388.7,71.7L389.0,50.1L394.6,50.1L427.7,50.3L427.7,59.8L427.7,78.9L408.2,79.0L389.0,79.0Z"/>
    <path class="wtc-county" id="wtc-county-washburn" data-county="Washburn" d="M119.0,352.3L119.0,338.0L120.2,338.0L120.5,309.7L161.0,309.5L160.7,337.9L160.1,338.0L160.1,352.3L119.0,352.3Z"/>
    <path class="wtc-county" id="wtc-county-washington" data-county="Washington" d="M420.0,136.8L419.7,122.5L418.6,122.5L418.6,108.0L447.9,107.7L447.9,122.2L449.6,122.2L449.6,136.7L439.6,136.7L420.0,136.8Z"/>
    <path class="wtc-county" id="wtc-county-waukesha" data-county="Waukesha" d="M408.8,108.1L408.2,93.5L408.2,79.0L427.7,78.9L447.3,79.0L447.3,93.3L447.9,107.7L418.6,108.0L408.8,108.1Z"/>
    <path class="wtc-county" id="wtc-county-waupaca" data-county="Waupaca" d="M352.0,230.6L352.0,194.5L379.8,194.4L391.9,194.5L392.2,223.1L402.9,223.1L403.2,230.4L352.0,230.6Z"/>
    <path class="wtc-county" id="wtc-county-waushara" data-county="Waushara" d="M321.2,194.7L321.2,172.9L356.7,173.0L379.8,173.0L379.8,194.4L352.0,194.5L321.2,194.7Z"/>
    <path class="wtc-county" id="wtc-county-winnebago" data-county="Winnebago" d="M379.8,194.4L379.8,173.0L379.8,165.8L419.7,165.6L419.7,169.3L419.7,194.5L391.9,194.5L379.8,194.4Z"/>
    <path class="wtc-county" id="wtc-county-wood" data-county="Wood" d="M262.0,209.4L261.7,195.4L262.3,194.9L296.0,195.0L310.8,194.8L310.5,216.6L300.7,216.6L300.7,230.9L262.0,230.9L262.0,209.4Z"/>
  </g>
</svg>