<?xml version="1.0" encoding="UTF-8"?>
<svg xmlns="http://www.w3.org/2000/svg" viewBox="0 0 600 430" id="wtc-state-map-SC" role="img" aria-label="sc county map">
  <title>sc Counties</title>
  <g class="wtc-counties">
    <path class="wtc-county" id="wtc-county-abbeville" data-county="Abbeville" d="M113.4,154.6L116.0,160.7L120.5,162.8L123.5,168.8L128.7,173.1L128.7,174.8L135.4,168.8L140.2,167.8L143.6,170.0L156.6,169.6L162.6,165.0L165.6,159.3L164.8,153.4L158.5,147.4L158.1,143.0L155.9,140.7L164.8,133.7L157.8,127.4L157.8,125.9L149.9,131.3L113.4,154.6Z"/>
    <path class="wtc-county" id="wtc-county-aiken" data-county="Aiken" d="M189.1,224.8L192.4,229.8L198.0,232.1L199.5,234.3L196.9,238.1L198.4,241.6L196.9,244.5L207.3,251.8L205.9,254.4L210.7,258.2L213.3,257.1L215.9,259.5L255.8,229.2L274.8,212.3L265.5,207.8L257.3,205.0L251.3,204.1L246.5,197.3L241.3,195.6L234.9,189.0L226.7,195.5L189.1,224.8Z"/>
    <path class="wtc-county" id="wtc-county-allendale" data-county="Allendale" d="M230.5,270.3L237.9,275.4L243.5,279.3L241.6,285.2L246.1,290.9L246.9,295.3L250.2,296.7L250.2,304.2L251.7,306.7L259.2,304.2L260.3,302.1L267.4,296.8L265.5,291.3L269.6,289.8L269.6,286.3L286.0,277.4L281.5,274.6L274.5,267.8L256.6,268.9L237.9,263.7L230.5,270.3Z"/>
    <path class="wtc-county" id="wtc-county-anderson" data-county="Anderson" d="M87.3,126.5L96.6,125.8L99.6,126.8L102.6,132.5L103.7,138.3L108.2,140.9L110.0,146.3L113.4,150.0L113.4,154.6L149.9,131.3L157.8,125.9L147.3,118.8L146.2,114.3L143.2,111.3L142.1,103.0L143.6,95.6L139.9,91.1L108.5,106.4L103.3,111.5L102.6,111.9L101.8,113.0L87.3,126.5Z"/>
    <path class="wtc-county" id="wtc-county-bamberg" data-county="Bamberg" d="M271.1,234.5L272.2,238.8L271.5,258.7L270.7,263.5L274.5,267.8L281.5,274.6L286.0,277.4L300.9,269.4L304.3,273.9L306.5,271.1L305.4,267.1L315.5,261.8L311.4,259.0L310.3,255.3L300.6,248.6L286.0,241.2L274.8,237.4L271.1,234.5Z"/>
    <path class="wtc-county" id="wtc-county-barnwell" data-county="Barnwell" d="M215.9,259.5L214.1,261.4L217.0,265.4L227.1,270.3L230.5,270.3L237.9,263.7L256.6,268.9L274.5,267.8L270.7,263.5L271.5,258.7L272.2,238.8L271.1,234.5L262.9,230.2L255.8,229.2L215.9,259.5Z"/>
    <path class="wtc-county" id="wtc-county-beaufort" data-county="Beaufort" d="M308.0,315.4L311.7,322.1L311.0,329.9L313.2,333.1L310.3,339.5L311.0,344.0L307.3,348.1L302.4,347.4L301.3,352.8L293.8,352.2L295.3,356.2L293.1,359.5L295.0,363.6L299.8,366.6L300.6,369.7L304.7,372.4L303.9,375.9L306.9,375.7L310.6,372.6L314.0,372.6L323.3,367.3L328.9,361.5L323.7,356.3L319.2,354.9L319.9,352.2L324.0,350.2L331.1,353.8L331.9,357.4L339.0,355.6L350.9,350.1L353.5,343.5L348.3,337.5L348.7,333.6L345.7,332.4L340.8,325.2L333.7,323.6L329.6,320.4L328.9,314.7L321.4,313.2L318.8,313.9L312.5,310.8L308.0,315.4Z"/>
    <path class="wtc-county" id="wtc-county-berkeley" data-county="Berkeley" d="M375.1,234.0L371.8,249.0L365.8,252.7L362.5,251.2L360.6,253.4L363.9,259.5L367.3,261.2L363.9,264.7L369.2,267.7L382.6,277.9L388.2,281.4L392.7,280.1L397.1,290.5L403.5,289.4L402.0,292.8L405.3,295.5L405.7,298.4L409.1,297.7L409.1,294.8L412.4,293.6L416.5,288.4L422.9,284.5L422.9,281.3L426.6,278.6L435.2,267.7L444.1,263.9L447.8,264.9L450.8,260.2L455.7,257.9L431.8,248.5L423.6,245.9L421.0,241.9L413.5,238.3L409.4,233.0L401.2,228.1L389.7,227.6L387.8,228.5L382.6,230.4L382.6,233.6L375.1,234.0Z"/>
    <path class="wtc-county" id="wtc-county-calhoun" data-county="Calhoun" d="M293.1,188.7L290.5,189.7L288.3,202.5L290.5,202.7L293.1,198.9L297.9,199.4L302.1,201.5L290.1,206.7L297.9,215.2L300.2,213.3L300.6,216.9L306.2,215.9L314.4,217.4L326.3,225.9L329.6,231.2L334.9,231.2L333.4,228.3L337.1,224.2L334.9,222.9L340.8,221.4L345.3,224.2L346.8,222.1L346.0,218.7L341.9,214.8L342.7,213.2L334.5,206.2L333.7,203.0L329.6,199.8L327.0,201.6L319.2,199.7L312.1,199.3L306.9,195.4L303.2,195.6L295.7,192.0L293.1,188.7Z"/>
    <path class="wtc-county" id="wtc-county-charleston" data-county="Charleston" d="M356.5,294.9L356.1,299.8L353.1,302.2L351.3,307.2L354.3,309.8L354.6,314.4L358.0,316.2L358.0,324.3L355.0,327.3L361.7,332.1L368.8,328.9L369.5,330.3L377.0,326.3L379.2,327.9L385.6,322.6L394.5,320.7L398.2,321.1L400.9,317.5L410.2,312.9L412.0,307.6L405.7,305.7L406.1,302.8L410.2,302.2L413.9,305.6L426.6,300.3L429.9,295.7L436.7,291.7L442.2,289.9L442.2,286.9L439.3,287.8L438.1,285.1L441.9,279.4L447.8,276.5L451.9,280.0L458.3,278.5L464.6,279.4L468.0,270.8L472.1,268.7L474.3,266.1L465.7,264.2L455.7,257.9L450.8,260.2L447.8,264.9L444.1,263.9L435.2,267.7L426.6,278.6L422.9,281.3L422.9,284.5L416.5,288.4L412.4,293.6L409.1,294.8L409.1,297.7L405.7,298.4L405.3,295.5L402.0,292.8L403.5,289.4L397.1,290.5L392.7,280.1L388.2,281.4L382.6,277.9L380.7,279.9L386.7,281.7L383.7,282.3L390.0,287.6L388.2,291.9L381.5,293.2L381.8,299.0L366.9,295.5L356.5,294.9Z"/>
    <path class="wtc-county" id="wtc-county-cherokee" data-county="Cherokee" d="M203.6,53.2L211.8,68.7L215.9,79.4L220.4,81.4L227.1,82.8L227.9,84.7L233.4,84.1L237.9,85.9L244.3,86.2L246.9,89.1L243.1,77.9L245.0,74.2L243.5,69.5L247.2,67.3L251.7,67.3L252.8,58.2L256.2,55.3L214.4,53.7L203.6,53.2Z"/>
    <path class="wtc-county" id="wtc-county-chester" data-county="Chester" d="M244.6,90.9L247.2,97.2L244.3,98.9L246.9,101.0L247.2,106.1L251.3,110.4L250.6,116.8L268.9,117.6L294.2,119.3L307.3,119.8L305.0,110.6L308.8,104.0L305.0,91.0L244.6,90.9Z"/>
    <path class="wtc-county" id="wtc-county-chesterfield" data-county="Chesterfield" d="M340.1,91.3L344.6,97.0L347.5,103.1L353.5,107.7L355.7,112.4L358.7,115.6L359.5,119.4L364.3,124.5L365.1,131.9L368.8,135.3L368.4,138.2L393.4,125.1L400.1,124.2L402.0,125.6L410.2,125.2L415.8,121.0L418.8,113.0L421.4,112.6L419.5,108.9L415.8,108.0L411.3,104.0L409.4,99.2L406.1,96.8L405.7,92.5L365.1,91.7L340.1,91.3Z"/>
    <path class="wtc-county" id="wtc-county-clarendon" data-county="Clarendon" d="M342.7,213.2L341.9,214.8L346.0,218.7L346.8,222.1L351.6,225.6L353.1,230.5L361.3,235.4L369.5,233.7L375.1,234.0L382.6,233.6L382.6,230.4L387.8,228.5L399.0,207.0L400.9,205.2L398.6,200.4L407.2,195.1L411.3,188.1L403.8,188.1L400.9,181.8L385.6,189.8L384.1,189.9L371.8,196.6L369.9,198.5L356.9,200.4L357.6,205.8L353.1,206.2L353.5,203.4L348.7,205.9L346.4,210.1L342.7,213.2Z"/>
    <path class="wtc-county" id="wtc-county-colleton" data-county="Colleton" d="M286.0,277.4L294.6,287.3L295.7,290.4L304.7,297.5L312.5,310.8L318.8,313.9L321.4,313.2L328.9,314.7L329.6,320.4L333.7,323.6L340.8,325.2L345.7,332.4L348.7,333.6L354.3,332.3L355.0,334.9L360.6,332.4L363.6,334.3L369.5,330.3L368.8,328.9L361.7,332.1L355.0,327.3L358.0,324.3L358.0,316.2L354.6,314.4L354.3,309.8L351.3,307.2L353.1,302.2L356.1,299.8L356.5,294.9L358.4,291.9L356.1,289.0L355.0,282.6L358.0,276.8L349.0,273.5L343.1,272.9L336.7,274.2L328.5,269.3L324.4,263.9L316.2,261.3L315.5,261.8L305.4,267.1L306.5,271.1L304.3,273.9L300.9,269.4L286.0,277.4Z"/>
    <path class="wtc-county" id="wtc-county-darlington" data-county="Darlington" d="M368.4,138.2L368.4,138.4L372.9,142.6L380.0,138.2L380.0,142.4L384.1,146.7L386.7,155.7L381.8,159.5L384.5,162.9L390.8,167.3L418.8,149.8L424.0,150.2L426.2,145.6L431.1,146.6L433.7,144.5L430.3,139.1L431.1,134.8L427.7,135.3L424.3,130.9L424.3,127.6L427.3,125.6L423.6,123.7L418.0,125.8L415.8,121.0L410.2,125.2L402.0,125.6L400.1,124.2L393.4,125.1L368.4,138.2Z"/>
    <path class="wtc-county" id="wtc-county-dillon" data-county="Dillon" d="M436.3,145.3L439.6,146.1L445.2,152.3L452.3,146.3L463.1,145.2L470.6,148.3L479.9,149.7L484.0,146.4L488.9,149.9L494.8,145.1L476.5,130.0L465.0,119.6L455.3,111.8L436.3,145.3Z"/>
    <path class="wtc-county" id="wtc-county-dorchester" data-county="Dorchester" d="M316.2,261.3L324.4,263.9L328.5,269.3L336.7,274.2L343.1,272.9L349.0,273.5L358.0,276.8L355.0,282.6L356.1,289.0L358.4,291.9L356.5,294.9L366.9,295.5L381.8,299.0L381.5,293.2L388.2,291.9L390.0,287.6L383.7,282.3L386.7,281.7L380.7,279.9L382.6,277.9L369.2,267.7L363.9,264.7L367.3,261.2L363.9,259.5L360.6,253.4L353.9,253.4L347.9,251.1L346.0,245.3L316.2,261.3Z"/>
    <path class="wtc-county" id="wtc-county-edgefield" data-county="Edgefield" d="M185.7,181.1L174.2,183.6L174.2,188.0L178.6,193.9L172.7,200.5L171.6,204.9L173.4,208.4L180.5,214.3L178.6,218.1L187.6,223.5L189.1,224.8L226.7,195.5L207.7,190.2L204.0,187.4L201.4,178.8L189.8,180.2L185.7,181.1Z"/>
    <path class="wtc-county" id="wtc-county-fairfield" data-county="Fairfield" d="M250.6,116.8L250.6,124.9L250.6,129.1L256.2,142.4L261.4,151.4L265.5,152.4L276.0,158.2L275.6,153.3L284.5,154.1L298.3,150.0L312.5,148.3L318.5,137.1L315.8,133.3L311.0,132.7L306.9,128.7L305.0,125.7L307.3,119.8L294.2,119.3L268.9,117.6L250.6,116.8Z"/>
    <path class="wtc-county" id="wtc-county-florence" data-county="Florence" d="M390.8,167.3L395.6,168.6L398.2,171.3L408.3,176.0L409.4,177.5L400.9,181.8L403.8,188.1L411.3,188.1L415.4,188.4L419.1,193.3L425.1,193.4L427.0,195.5L431.8,195.5L450.4,199.6L456.4,198.7L465.7,195.5L468.3,197.2L469.5,194.3L463.9,192.6L450.8,181.4L448.6,176.9L448.6,166.2L442.6,157.0L445.2,152.3L439.6,146.1L436.3,145.3L433.7,144.5L431.1,146.6L426.2,145.6L424.0,150.2L418.8,149.8L390.8,167.3Z"/>
    <path class="wtc-county" id="wtc-county-georgetown" data-county="Georgetown" d="M469.1,199.1L461.3,206.2L456.0,218.2L457.2,220.2L450.4,226.5L446.3,228.5L440.8,234.1L436.3,241.5L431.8,245.2L431.8,248.5L455.7,257.9L465.7,264.2L474.3,266.1L472.1,268.7L476.5,267.1L481.8,262.9L484.4,258.6L483.3,253.7L488.1,238.2L493.3,229.9L499.3,224.7L501.9,220.7L491.8,220.7L487.7,211.2L482.5,206.8L476.5,207.9L472.8,205.7L469.1,199.1Z"/>
    <path class="wtc-county" id="wtc-county-greenville" data-county="Greenville" d="M130.9,57.4L122.3,60.0L111.1,65.3L112.6,67.4L120.1,65.6L123.8,66.2L131.3,64.6L128.3,68.1L128.7,71.5L134.6,70.7L136.9,80.1L139.1,83.3L139.9,91.1L143.6,95.6L142.1,103.0L143.2,111.3L146.2,114.3L147.3,118.8L157.8,125.9L166.0,120.6L166.0,115.2L175.3,94.6L167.1,87.9L168.2,52.0L153.7,52.4L149.9,50.0L145.5,54.6L142.8,53.8L130.9,57.4Z"/>
    <path class="wtc-county" id="wtc-county-greenwood" data-county="Greenwood" d="M164.8,133.7L155.9,140.7L158.1,143.0L158.5,147.4L164.8,153.4L165.6,159.3L162.6,165.0L156.6,169.6L158.9,179.2L166.0,174.8L169.7,178.5L174.9,177.6L185.7,178.0L185.7,181.1L189.8,180.2L191.7,176.5L196.2,172.2L198.0,168.2L204.0,162.2L196.2,155.1L192.8,151.6L189.8,151.2L182.0,145.1L177.9,144.7L173.0,141.9L171.9,139.1L164.8,133.7Z"/>
    <path class="wtc-county" id="wtc-county-hampton" data-county="Hampton" d="M251.7,306.7L249.9,311.1L252.1,311.8L253.6,316.1L251.0,318.6L254.0,322.2L261.0,325.9L265.1,326.2L292.7,305.8L300.2,312.6L298.7,317.3L304.7,319.4L308.0,315.4L312.5,310.8L304.7,297.5L295.7,290.4L294.6,287.3L286.0,277.4L269.6,286.3L269.6,289.8L265.5,291.3L267.4,296.8L260.3,302.1L259.2,304.2L251.7,306.7Z"/>
    <path class="wtc-county" id="wtc-county-horry" data-county="Horry" d="M488.9,149.9L488.5,153.2L482.1,157.9L480.6,162.4L476.2,166.9L476.9,169.2L471.0,173.2L466.9,179.3L471.3,186.5L474.7,187.4L475.1,195.5L482.5,206.8L487.7,211.2L491.8,220.7L501.9,220.7L508.6,213.7L521.7,202.9L531.7,197.0L545.2,192.4L550.0,191.7L538.4,182.1L494.8,145.1L488.9,149.9Z"/>
    <path class="wtc-county" id="wtc-county-jasper" data-county="Jasper" d="M265.1,326.2L265.5,328.4L274.1,335.7L272.6,338.7L278.2,348.1L279.7,347.7L281.9,354.5L278.2,358.9L279.3,360.5L282.3,364.4L280.8,366.7L282.7,372.2L290.5,375.3L294.6,373.8L302.8,380.1L306.2,380.5L304.3,378.6L306.9,375.7L303.9,375.9L304.7,372.4L300.6,369.7L299.8,366.6L295.0,363.6L293.1,359.5L295.3,356.2L293.8,352.2L301.3,352.8L302.4,347.4L307.3,348.1L311.0,344.0L310.3,339.5L313.2,333.1L311.0,329.9L311.7,322.1L308.0,315.4L304.7,319.4L298.7,317.3L300.2,312.6L292.7,305.8L265.1,326.2Z"/>
    <path class="wtc-county" id="wtc-county-kershaw" data-county="Kershaw" d="M306.9,128.7L311.0,132.7L315.8,133.3L318.5,137.1L312.5,148.3L308.0,157.4L309.9,158.2L323.7,169.0L334.1,165.9L337.8,165.8L348.3,158.7L353.5,152.7L352.8,146.7L361.7,144.8L360.6,140.9L364.3,141.0L368.4,138.4L368.4,138.2L368.8,135.3L365.1,131.9L364.3,124.5L359.5,119.4L358.7,115.6L355.7,112.4L341.2,118.1L343.4,123.9L341.2,125.1L334.5,124.3L330.0,126.6L326.7,122.7L321.4,126.4L321.1,120.1L306.9,128.7Z"/>
    <path class="wtc-county" id="wtc-county-lancaster" data-county="Lancaster" d="M304.3,64.5L303.9,70.6L306.2,74.0L306.5,75.8L306.5,75.9L308.0,79.7L306.9,86.7L308.4,88.2L305.0,91.0L308.8,104.0L305.0,110.6L307.3,119.8L305.0,125.7L306.9,128.7L321.1,120.1L321.4,126.4L326.7,122.7L330.0,126.6L334.5,124.3L341.2,125.1L343.4,123.9L341.2,118.1L355.7,112.4L353.5,107.7L347.5,103.1L344.6,97.0L340.1,91.3L315.5,91.1L317.0,79.0L311.0,72.2L304.3,64.5Z"/>
    <path class="wtc-county" id="wtc-county-laurens" data-county="Laurens" d="M157.8,125.9L157.8,127.4L164.8,133.7L171.9,139.1L173.0,141.9L177.9,144.7L182.0,145.1L189.8,151.2L192.8,151.6L196.2,155.1L200.6,149.0L201.8,144.8L207.3,140.7L212.9,138.3L219.3,129.5L221.5,129.2L227.5,120.9L224.1,118.3L220.0,118.7L205.9,114.5L204.7,115.9L199.9,113.5L193.5,108.0L190.2,107.6L183.1,103.1L181.6,98.9L178.6,98.4L175.3,94.6L166.0,115.2L166.0,120.6L157.8,125.9Z"/>
    <path class="wtc-county" id="wtc-county-lee" data-county="Lee" d="M348.3,158.7L348.3,164.6L356.1,167.8L364.7,167.9L367.7,172.2L370.3,172.6L372.1,177.1L378.9,175.7L379.6,181.3L390.8,175.5L395.6,175.4L398.2,171.3L395.6,168.6L390.8,167.3L384.5,162.9L381.8,159.5L386.7,155.7L384.1,146.7L380.0,142.4L380.0,138.2L372.9,142.6L368.4,138.4L364.3,141.0L360.6,140.9L361.7,144.8L352.8,146.7L353.5,152.7L348.3,158.7Z"/>
    <path class="wtc-county" id="wtc-county-lexington" data-county="Lexington" d="M245.4,168.3L234.9,189.0L241.3,195.6L246.5,197.3L251.3,204.1L257.3,205.0L265.5,207.8L274.8,212.3L285.3,207.9L290.1,206.7L302.1,201.5L297.9,199.4L293.1,198.9L290.5,202.7L288.3,202.5L290.5,189.7L293.1,188.7L292.7,183.3L288.6,176.1L283.8,173.9L280.1,169.1L276.3,166.9L265.9,166.1L262.2,161.5L263.3,159.1L259.2,155.7L252.5,157.8L249.1,162.7L254.0,167.9L245.7,167.2L245.4,168.3Z"/>
    <path class="wtc-county" id="wtc-county-mccormick" data-county="McCormick" d="M128.7,174.8L132.0,180.8L136.1,182.2L143.2,188.6L154.0,193.2L164.8,202.0L167.8,208.8L170.1,214.6L174.9,218.0L178.6,218.1L180.5,214.3L173.4,208.4L171.6,204.9L172.7,200.5L178.6,193.9L174.2,188.0L174.2,183.6L185.7,181.1L185.7,178.0L174.9,177.6L169.7,178.5L166.0,174.8L158.9,179.2L156.6,169.6L143.6,170.0L140.2,167.8L135.4,168.8L128.7,174.8Z"/>
    <path class="wtc-county" id="wtc-county-marion" data-county="Marion" d="M445.2,152.3L442.6,157.0L448.6,166.2L448.6,176.9L450.8,181.4L463.9,192.6L469.5,194.3L468.3,197.2L469.1,199.1L472.8,205.7L476.5,207.9L482.5,206.8L475.1,195.5L474.7,187.4L471.3,186.5L466.9,179.3L471.0,173.2L476.9,169.2L476.2,166.9L480.6,162.4L482.1,157.9L488.5,153.2L488.9,149.9L484.0,146.4L479.9,149.7L470.6,148.3L463.1,145.2L452.3,146.3L445.2,152.3Z"/>
    <path class="wtc-county" id="wtc-county-marlboro" data-county="Marlboro" d="M405.7,92.5L406.1,96.8L409.4,99.2L411.3,104.0L415.8,108.0L419.5,108.9L421.4,112.6L418.8,113.0L415.8,121.0L418.0,125.8L423.6,123.7L427.3,125.6L424.3,127.6L424.3,130.9L427.7,135.3L431.1,134.8L430.3,139.1L433.7,144.5L436.3,145.3L455.3,111.8L454.2,110.8L432.2,92.7L430.3,92.7L405.7,92.5Z"/>
    <path class="wtc-county" id="wtc-county-newberry" data-county="Newberry" d="M196.2,155.1L204.0,162.2L205.1,157.6L212.9,159.0L218.5,156.7L228.2,161.1L238.3,167.8L245.4,168.3L245.7,167.2L254.0,167.9L249.1,162.7L252.5,157.8L259.2,155.7L261.4,151.4L256.2,142.4L250.6,129.1L250.6,124.9L243.9,125.3L238.3,130.0L236.8,126.7L227.5,120.9L221.5,129.2L219.3,129.5L212.9,138.3L207.3,140.7L201.8,144.8L200.6,149.0L196.2,155.1Z"/>
    <path class="wtc-county" id="wtc-county-oconee" data-county="Oconee" d="M75.4,72.3L74.2,78.7L62.7,84.8L53.0,94.2L53.4,97.4L50.0,101.8L51.5,104.9L62.7,112.7L69.0,113.4L75.7,120.5L81.3,124.8L87.3,126.5L101.8,113.0L102.6,111.9L103.3,111.5L101.8,101.0L97.0,99.2L98.8,94.0L97.4,92.8L95.5,75.3L92.5,73.6L97.4,66.5L85.8,69.5L75.4,72.3Z"/>
    <path class="wtc-county" id="wtc-county-orangeburg" data-county="Orangeburg" d="M255.8,229.2L262.9,230.2L271.1,234.5L274.8,237.4L286.0,241.2L300.6,248.6L310.3,255.3L311.4,259.0L315.5,261.8L316.2,261.3L346.0,245.3L347.9,251.1L353.9,253.4L360.6,253.4L362.5,251.2L365.8,252.7L371.8,249.0L375.1,234.0L369.5,233.7L361.3,235.4L353.1,230.5L351.6,225.6L346.8,222.1L345.3,224.2L340.8,221.4L334.9,222.9L337.1,224.2L333.4,228.3L334.9,231.2L329.6,231.2L326.3,225.9L314.4,217.4L306.2,215.9L300.6,216.9L300.2,213.3L297.9,215.2L290.1,206.7L285.3,207.9L274.8,212.3L255.8,229.2Z"/>
    <path class="wtc-county" id="wtc-county-pickens" data-county="Pickens" d="M97.4,66.5L92.5,73.6L95.5,75.3L97.4,92.8L98.8,94.0L97.0,99.2L101.8,101.0L103.3,111.5L108.5,106.4L139.9,91.1L139.1,83.3L136.9,80.1L134.6,70.7L128.7,71.5L128.3,68.1L131.3,64.6L123.8,66.2L120.1,65.6L112.6,67.4L111.1,65.3L109.3,63.5L97.4,66.5Z"/>
    <path class="wtc-county" id="wtc-county-richland" data-county="Richland" d="M261.4,151.4L259.2,155.7L263.3,159.1L262.2,161.5L265.9,166.1L276.3,166.9L280.1,169.1L283.8,173.9L288.6,176.1L292.7,183.3L293.1,188.7L295.7,192.0L303.2,195.6L306.9,195.4L312.1,199.3L319.2,199.7L327.0,201.6L329.6,199.8L333.7,203.0L336.4,198.4L332.6,191.5L333.7,183.1L331.1,176.3L336.0,172.2L332.3,167.6L334.1,165.9L323.7,169.0L309.9,158.2L308.0,157.4L312.5,148.3L298.3,150.0L284.5,154.1L275.6,153.3L276.0,158.2L265.5,152.4L261.4,151.4Z"/>
    <path class="wtc-county" id="wtc-county-saluda" data-county="Saluda" d="M204.0,162.2L198.0,168.2L196.2,172.2L191.7,176.5L189.8,180.2L201.4,178.8L204.0,187.4L207.7,190.2L226.7,195.5L234.9,189.0L245.4,168.3L238.3,167.8L228.2,161.1L218.5,156.7L212.9,159.0L205.1,157.6L204.0,162.2Z"/>
    <path class="wtc-county" id="wtc-county-spartanburg" data-county="Spartanburg" d="M168.2,52.0L167.1,87.9L175.3,94.6L178.6,98.4L181.6,98.9L183.1,103.1L190.2,107.6L193.5,108.0L199.9,113.5L204.7,115.9L205.9,114.5L208.8,105.6L212.9,89.3L220.4,81.4L215.9,79.4L211.8,68.7L203.6,53.2L193.5,52.9L168.2,52.0Z"/>
    <path class="wtc-county" id="wtc-county-sumter" data-county="Sumter" d="M334.1,165.9L332.3,167.6L336.0,172.2L331.1,176.3L333.7,183.1L332.6,191.5L336.4,198.4L333.7,203.0L334.5,206.2L342.7,213.2L346.4,210.1L348.7,205.9L353.5,203.4L353.1,206.2L357.6,205.8L356.9,200.4L369.9,198.5L371.8,196.6L384.1,189.9L385.6,189.8L400.9,181.8L409.4,177.5L408.3,176.0L398.2,171.3L395.6,175.4L390.8,175.5L379.6,181.3L378.9,175.7L372.1,177.1L370.3,172.6L367.7,172.2L364.7,167.9L356.1,167.8L348.3,164.6L348.3,158.7L337.8,165.8L334.1,165.9Z"/>
    <path class="wtc-county" id="wtc-county-union" data-county="Union" d="M205.9,114.5L220.0,118.7L224.1,118.3L227.5,120.9L236.8,126.7L238.3,130.0L243.9,125.3L250.6,124.9L250.6,116.8L251.3,110.4L247.2,106.1L246.9,101.0L244.3,98.9L247.2,97.2L244.6,90.9L246.9,89.1L244.3,86.2L237.9,85.9L233.4,84.1L227.9,84.7L227.1,82.8L220.4,81.4L212.9,89.3L208.8,105.6L205.9,114.5Z"/>
    <path class="wtc-county" id="wtc-county-williamsburg" data-county="Williamsburg" d="M387.8,228.5L389.7,227.6L401.2,228.1L409.4,233.0L413.5,238.3L421.0,241.9L423.6,245.9L431.8,248.5L431.8,245.2L436.3,241.5L440.8,234.1L446.3,228.5L450.4,226.5L457.2,220.2L456.0,218.2L461.3,206.2L469.1,199.1L468.3,197.2L465.7,195.5L456.4,198.7L450.4,199.6L431.8,195.5L427.0,195.5L425.1,193.4L419.1,193.3L415.4,188.4L411.3,188.1L407.2,195.1L398.6,200.4L400.9,205.2L399.0,207.0L387.8,228.5Z"/>
    <path class="wtc-county" id="wtc-county-york" data-county="York" d="M256.2,55.3L252.8,58.2L251.7,67.3L247.2,67.3L243.5,69.5L245.0,74.2L243.1,77.9L246.9,89.1L244.6,90.9L305.0,91.0L308.4,88.2L306.9,86.7L308.0,79.7L306.5,75.9L306.5,75.8L306.2,74.0L303.9,70.6L304.3,64.5L301.3,61.2L290.1,67.8L288.3,65.9L290.9,61.6L290.1,56.9L260.3,55.4L256.2,55.3Z"/>
  </g>
</svg>