<?xml version="1.0" encoding="UTF-8"?>
<svg xmlns="http://www.w3.org/2000/svg" viewBox="0 0 600 327" id="wtc-state-map-SD" role="img" aria-label="sd county map">
  <title>sd Counties</title>
  <g class="wtc-counties">
    <path class="wtc-county" id="wtc-county-aurora" data-county="Aurora" d="M394.4,145.1L394.4,139.5L395.1,139.5L395.3,116.5L401.2,116.5L426.4,116.5L426.2,121.8L426.2,139.6L425.7,145.3L394.4,145.1Z"/>
    <path class="wtc-county" id="wtc-county-beadle" data-county="Beadle" d="M401.2,191.0L401.5,162.3L425.7,162.3L457.0,162.2L457.0,185.1L456.8,190.8L448.8,190.8L401.2,191.0Z"/>
    <path class="wtc-county" id="wtc-county-bennett" data-county="Bennett" d="M177.8,109.4L177.8,92.3L179.7,92.3L179.7,83.7L209.6,83.5L235.7,83.6L235.7,109.3L177.8,109.4Z"/>
    <path class="wtc-county" id="wtc-county-bon-homme" data-county="Bon Homme" d="M442.4,94.8L440.3,89.6L440.1,83.9L441.2,82.1L439.4,77.9L439.8,75.2L437.5,73.2L446.2,68.2L450.7,68.7L453.5,70.3L455.6,74.5L457.5,75.1L462.2,73.9L468.1,73.4L471.4,74.1L471.1,94.8L442.4,94.8Z"/>
    <path class="wtc-county" id="wtc-county-brookings" data-county="Brookings" d="M504.6,185.0L504.6,162.2L520.3,162.2L548.8,162.3L548.8,185.1L520.6,185.1L504.6,185.0Z"/>
    <path class="wtc-county" id="wtc-county-brown" data-county="Brown" d="M399.8,276.5L399.8,253.7L400.0,253.3L400.0,231.0L400.3,231.0L448.5,230.7L448.8,253.6L448.8,276.3L446.9,276.4L420.3,276.4L399.8,276.5Z"/>
    <path class="wtc-county" id="wtc-county-brule" data-county="Brule" d="M358.4,145.0L358.6,142.3L361.7,140.2L357.9,135.8L354.8,134.6L355.1,130.1L351.8,128.8L351.8,126.8L357.2,126.9L359.3,124.2L359.6,121.9L363.3,118.6L362.4,116.6L395.3,116.5L395.1,139.5L394.4,139.5L394.4,145.1L386.6,145.1L358.4,145.0Z"/>
    <path class="wtc-county" id="wtc-county-buffalo" data-county="Buffalo" d="M344.0,162.0L346.4,159.2L345.2,155.4L348.3,153.0L353.0,152.4L358.6,149.0L358.4,145.0L386.6,145.1L386.6,162.3L362.1,162.2L344.0,162.0Z"/>
    <path class="wtc-county" id="wtc-county-butte" data-county="Butte" d="M50.0,214.8L50.2,206.7L50.2,186.9L58.2,187.4L61.3,188.6L64.1,187.9L65.5,189.1L82.3,189.0L121.8,189.0L122.3,217.6L122.3,228.9L82.5,228.9L51.2,228.9L51.2,215.0L50.0,214.8Z"/>
    <path class="wtc-county" id="wtc-county-campbell" data-county="Campbell" d="M283.5,276.8L290.8,272.0L291.5,268.5L296.0,261.4L294.1,258.5L289.6,257.6L288.0,254.0L334.8,253.9L334.6,276.7L324.0,276.7L283.5,276.8Z"/>
    <path class="wtc-county" id="wtc-county-charles-mix" data-county="Charles Mix" d="M362.4,116.5L361.4,114.5L365.0,112.5L370.9,112.3L377.2,104.8L383.1,100.8L388.5,100.0L389.9,98.7L389.9,95.6L391.3,93.9L396.8,93.4L402.2,88.8L406.9,88.7L413.0,86.4L414.6,83.7L416.8,80.4L424.8,77.4L427.1,76.1L430.4,75.6L436.1,73.1L437.5,73.2L439.8,75.2L439.4,77.9L441.2,82.1L440.1,83.9L440.3,89.6L442.4,94.8L440.3,96.7L402.9,108.3L401.0,108.1L401.2,116.5L395.3,116.5L362.4,116.6L362.4,116.5Z"/>
    <path class="wtc-county" id="wtc-county-clark" data-county="Clark" d="M448.5,225.0L448.5,207.9L449.0,207.9L448.8,190.8L456.8,190.8L457.0,185.1L480.8,185.1L480.8,202.1L480.6,224.9L448.5,225.0Z"/>
    <path class="wtc-county" id="wtc-county-clay" data-county="Clay" d="M502.4,89.3L502.4,70.7L504.3,68.8L511.9,68.1L514.5,68.1L516.3,65.4L519.2,66.3L525.8,64.4L525.8,89.3L518.0,89.3L502.4,89.3Z"/>
    <path class="wtc-county" id="wtc-county-codington" data-county="Codington" d="M480.6,224.9L480.8,202.1L520.6,202.1L520.8,213.4L520.6,224.8L498.2,224.9L480.6,224.9Z"/>
    <path class="wtc-county" id="wtc-county-corson" data-county="Corson" d="M185.1,276.9L185.1,246.0L219.7,246.0L276.2,246.0L293.9,246.0L290.6,248.5L287.1,248.4L284.2,250.1L288.0,254.0L289.6,257.6L294.1,258.5L296.0,261.4L291.5,268.5L290.8,272.0L283.5,276.8L282.6,276.8L232.9,276.9L185.1,276.9Z"/>
    <path class="wtc-county" id="wtc-county-custer" data-county="Custer" d="M50.2,139.8L50.2,116.8L50.2,115.1L119.4,115.1L119.4,123.5L123.9,124.4L125.8,128.0L130.5,126.9L131.9,128.9L136.6,134.3L139.5,136.1L139.9,139.9L50.2,139.8Z"/>
    <path class="wtc-county" id="wtc-county-davison" data-county="Davison" d="M426.2,139.6L426.2,121.8L426.4,116.5L439.8,116.5L449.7,116.5L449.5,139.6L426.2,139.6Z"/>
    <path class="wtc-county" id="wtc-county-day" data-county="Day" d="M448.5,230.7L448.5,225.0L480.6,224.9L498.2,224.9L498.2,234.5L498.0,251.6L489.0,251.6L488.6,253.5L448.8,253.6L448.5,230.7Z"/>
    <path class="wtc-county" id="wtc-county-deuel" data-county="Deuel" d="M520.6,202.1L520.6,185.1L548.8,185.1L549.1,190.8L549.1,202.2L548.8,213.5L520.8,213.4L520.6,202.1Z"/>
    <path class="wtc-county" id="wtc-county-dewey" data-county="Dewey" d="M219.7,246.0L219.7,240.3L218.8,240.3L218.8,217.5L217.8,214.6L241.6,214.6L241.6,198.4L247.0,197.9L249.2,196.9L256.0,199.9L261.9,200.8L263.7,199.5L269.2,199.9L269.4,203.2L272.0,203.4L276.2,199.9L280.7,199.3L285.2,202.9L289.9,205.6L289.6,208.3L288.5,214.3L290.6,216.8L297.9,216.3L295.5,218.9L294.8,221.5L297.9,225.4L299.1,231.1L295.5,235.8L298.4,240.0L294.6,244.1L293.9,246.0L276.2,246.0L219.7,246.0Z"/>
    <path class="wtc-county" id="wtc-county-douglas" data-county="Douglas" d="M401.2,116.5L401.0,108.1L402.9,108.3L440.3,96.7L440.1,115.6L439.8,116.5L426.4,116.5L401.2,116.5Z"/>
    <path class="wtc-county" id="wtc-county-edmunds" data-county="Edmunds" d="M335.3,253.9L335.3,231.1L344.3,231.1L400.0,231.0L400.0,253.3L399.8,253.7L335.3,253.9Z"/>
    <path class="wtc-county" id="wtc-county-fall-river" data-county="Fall River" d="M50.2,115.1L50.5,103.3L50.5,83.9L86.3,83.9L119.4,83.8L119.4,115.1L50.2,115.1Z"/>
    <path class="wtc-county" id="wtc-county-faulk" data-county="Faulk" d="M344.3,231.1L344.3,208.2L361.4,208.2L400.5,208.2L400.3,231.0L400.0,231.0L344.3,231.1Z"/>
    <path class="wtc-county" id="wtc-county-grant" data-county="Grant" d="M498.2,234.5L498.2,224.9L520.6,224.8L520.8,213.4L548.8,213.5L548.8,232.6L547.6,236.4L513.5,236.4L512.6,234.5L498.2,234.5Z"/>
    <path class="wtc-county" id="wtc-county-gregory" data-county="Gregory" d="M346.8,116.6L346.8,83.7L365.2,83.7L414.6,83.7L413.0,86.4L406.9,88.7L402.2,88.8L396.8,93.4L391.3,93.9L389.9,95.6L389.9,98.7L388.5,100.0L383.1,100.8L377.2,104.8L370.9,112.3L365.0,112.5L361.4,114.5L362.4,116.5L346.8,116.6Z"/>
    <path class="wtc-county" id="wtc-county-haakon" data-county="Haakon" d="M184.9,182.9L184.7,171.9L184.7,149.0L187.2,149.0L246.3,149.0L247.5,149.0L247.5,160.4L239.7,160.4L239.7,171.9L240.4,171.9L240.4,194.6L241.6,194.6L241.6,198.4L236.0,194.9L227.5,194.5L226.6,193.0L221.4,191.2L217.8,187.5L209.6,187.0L207.3,187.8L201.8,186.6L197.8,184.0L188.9,184.4L185.1,182.9L184.9,182.9Z"/>
    <path class="wtc-county" id="wtc-county-hamlin" data-county="Hamlin" d="M480.8,202.1L480.8,185.1L504.6,185.0L520.6,185.1L520.6,202.1L480.8,202.1Z"/>
    <path class="wtc-county" id="wtc-county-hand" data-county="Hand" d="M361.4,208.2L361.2,185.3L362.1,185.3L362.1,162.2L386.6,162.3L401.5,162.3L401.2,191.0L401.2,208.2L400.5,208.2L361.4,208.2Z"/>
    <path class="wtc-county" id="wtc-county-hanson" data-county="Hanson" d="M449.5,139.6L449.7,116.5L473.3,116.6L473.0,139.5L457.3,139.5L449.5,139.6Z"/>
    <path class="wtc-county" id="wtc-county-harding" data-county="Harding" d="M50.9,276.9L50.9,272.8L51.2,264.2L51.2,228.9L82.5,228.9L122.3,228.9L122.7,240.3L123.2,263.0L123.2,276.9L119.7,276.9L91.0,276.9L50.9,276.9Z"/>
    <path class="wtc-county" id="wtc-county-hughes" data-county="Hughes" d="M281.6,185.3L281.4,183.2L278.6,181.6L278.1,179.6L281.2,178.5L285.2,179.6L289.4,179.4L290.8,178.2L292.2,172.7L300.9,170.7L305.4,170.7L310.6,169.6L317.2,167.0L321.2,166.9L323.3,165.2L320.2,162.2L323.8,157.9L331.3,158.3L338.8,156.0L342.6,157.5L340.3,160.0L336.3,160.7L335.3,162.1L338.4,163.6L338.4,185.3L337.4,185.3L281.6,185.3Z"/>
    <path class="wtc-county" id="wtc-county-hutchinson" data-county="Hutchinson" d="M439.8,116.5L440.1,115.6L440.3,96.7L442.4,94.8L471.1,94.8L486.9,94.9L486.7,116.6L473.3,116.6L449.7,116.5L439.8,116.5Z"/>
    <path class="wtc-county" id="wtc-county-hyde" data-county="Hyde" d="M337.7,208.3L337.4,185.3L338.4,185.3L338.4,163.6L344.0,162.0L362.1,162.2L362.1,185.3L361.2,185.3L361.4,208.2L344.3,208.2L337.7,208.3Z"/>
    <path class="wtc-county" id="wtc-county-jackson" data-county="Jackson" d="M175.9,129.8L175.9,115.1L177.8,115.1L177.8,109.4L235.7,109.3L235.7,135.5L240.0,138.2L244.9,139.5L246.3,139.0L246.3,149.0L187.2,149.0L184.7,149.0L183.7,149.0L183.7,130.3L182.8,129.0L175.9,129.8Z"/>
    <path class="wtc-county" id="wtc-county-jerauld" data-county="Jerauld" d="M386.6,162.3L386.6,145.1L394.4,145.1L425.7,145.3L425.7,162.3L401.5,162.3L386.6,162.3Z"/>
    <path class="wtc-county" id="wtc-county-jones" data-county="Jones" d="M246.3,149.0L246.3,139.0L250.8,139.5L253.6,136.9L254.8,138.3L259.0,136.1L261.4,133.8L262.8,134.1L265.2,131.3L267.3,132.1L267.0,131.1L271.5,130.5L277.9,134.2L285.4,131.1L291.8,132.1L294.1,130.8L293.9,139.4L292.2,139.4L292.2,160.4L247.5,160.4L247.5,149.0L246.3,149.0Z"/>
    <path class="wtc-county" id="wtc-county-kingsbury" data-county="Kingsbury" d="M457.0,185.1L457.0,162.2L457.3,162.2L488.8,162.2L504.6,162.2L504.6,185.0L480.8,185.1L457.0,185.1Z"/>
    <path class="wtc-county" id="wtc-county-lake" data-county="Lake" d="M488.8,162.2L488.8,139.5L504.6,139.4L520.3,139.4L520.3,162.2L504.6,162.2L488.8,162.2Z"/>
    <path class="wtc-county" id="wtc-county-lawrence" data-county="Lawrence" d="M50.2,186.9L50.2,161.2L50.2,158.6L89.8,158.6L89.8,166.2L81.8,166.2L82.3,189.0L65.5,189.1L64.1,187.9L61.3,188.6L58.2,187.4L50.2,186.9Z"/>
    <path class="wtc-county" id="wtc-county-lincoln" data-county="Lincoln" d="M518.0,116.6L518.0,89.3L525.8,89.3L548.8,89.3L550.0,91.7L547.9,93.7L547.4,98.3L541.8,98.5L542.2,100.8L540.6,103.2L543.9,103.5L544.1,109.7L538.9,113.3L540.6,115.4L539.4,116.6L518.0,116.6Z"/>
    <path class="wtc-county" id="wtc-county-lyman" data-county="Lyman" d="M320.2,162.2L292.2,162.1L292.2,160.4L292.2,139.4L293.9,139.4L294.1,130.8L297.9,129.5L301.2,130.6L302.4,128.8L303.8,130.1L308.7,128.8L315.5,130.2L316.0,129.2L322.6,129.6L325.0,128.1L329.4,130.3L332.5,130.3L336.3,133.7L337.0,131.5L338.1,133.9L341.0,132.4L341.0,117.6L341.4,116.6L346.8,116.6L362.4,116.5L362.4,116.6L363.3,118.6L359.6,121.9L359.3,124.2L357.2,126.9L351.8,126.8L351.8,128.8L355.1,130.1L354.8,134.6L357.9,135.8L361.7,140.2L358.6,142.3L358.4,145.0L358.6,149.0L353.0,152.4L348.3,153.0L345.2,155.4L346.4,159.2L344.0,162.0L338.4,163.6L335.3,162.1L336.3,160.7L340.3,160.0L342.6,157.5L338.8,156.0L331.3,158.3L323.8,157.9L320.2,162.2Z"/>
    <path class="wtc-county" id="wtc-county-mccook" data-county="McCook" d="M473.0,139.5L473.3,116.6L486.7,116.6L504.6,116.5L504.6,139.4L488.8,139.5L473.0,139.5Z"/>
    <path class="wtc-county" id="wtc-county-mcpherson" data-county="McPherson" d="M334.6,276.7L334.8,253.9L335.3,253.9L399.8,253.7L399.8,276.5L381.5,276.6L334.6,276.7Z"/>
    <path class="wtc-county" id="wtc-county-marshall" data-county="Marshall" d="M448.8,276.3L448.8,253.6L488.6,253.5L489.0,251.6L498.0,251.6L498.0,276.3L448.8,276.3Z"/>
    <path class="wtc-county" id="wtc-county-meade" data-county="Meade" d="M82.3,189.0L81.8,166.2L89.8,166.2L89.8,158.6L159.7,158.6L158.5,159.8L159.2,162.7L161.6,164.5L160.9,166.6L162.8,172.3L165.3,174.0L164.9,177.8L170.5,179.0L174.3,177.4L177.6,178.0L182.5,182.4L184.9,182.9L185.1,182.9L185.1,217.4L122.3,217.6L121.8,189.0L82.3,189.0Z"/>
    <path class="wtc-county" id="wtc-county-mellette" data-county="Mellette" d="M246.3,139.0L244.9,139.5L240.0,138.2L235.7,135.5L235.7,109.3L302.1,109.4L302.1,115.1L301.2,115.1L301.2,130.6L297.9,129.5L294.1,130.8L291.8,132.1L285.4,131.1L277.9,134.2L271.5,130.5L267.0,131.1L267.3,132.1L265.2,131.3L262.8,134.1L261.4,133.8L259.0,136.1L254.8,138.3L253.6,136.9L250.8,139.5L246.3,139.0Z"/>
    <path class="wtc-county" id="wtc-county-miner" data-county="Miner" d="M457.3,162.2L457.3,139.5L473.0,139.5L488.8,139.5L488.8,162.2L457.3,162.2Z"/>
    <path class="wtc-county" id="wtc-county-minnehaha" data-county="Minnehaha" d="M504.6,139.4L504.6,116.5L518.0,116.6L539.4,116.6L548.8,116.6L548.8,139.5L520.3,139.4L504.6,139.4Z"/>
    <path class="wtc-county" id="wtc-county-moody" data-county="Moody" d="M520.3,162.2L520.3,139.4L548.8,139.5L548.8,162.3L520.3,162.2Z"/>
    <path class="wtc-county" id="wtc-county-oglala-lakota" data-county="Oglala Lakota" d="M131.9,128.9L130.5,126.9L125.8,128.0L123.9,124.4L119.4,123.5L119.4,115.1L119.4,83.8L133.1,83.8L179.7,83.7L179.7,92.3L177.8,92.3L177.8,109.4L177.8,115.1L175.9,115.1L175.9,129.8L173.6,128.9L131.9,128.9Z"/>
    <path class="wtc-county" id="wtc-county-pennington" data-county="Pennington" d="M50.2,139.8L139.9,139.9L139.5,136.1L136.6,134.3L131.9,128.9L173.6,128.9L175.9,129.8L182.8,129.0L183.7,130.3L183.7,149.0L184.7,149.0L184.7,171.9L184.9,182.9L182.5,182.4L177.6,178.0L174.3,177.4L170.5,179.0L164.9,177.8L165.3,174.0L162.8,172.3L160.9,166.6L161.6,164.5L159.2,162.7L158.5,159.8L159.7,158.6L89.8,158.6L50.2,158.6L50.2,139.8Z"/>
    <path class="wtc-county" id="wtc-county-perkins" data-county="Perkins" d="M122.3,228.9L122.3,217.6L185.1,217.4L185.1,246.0L185.1,276.9L123.2,276.9L123.2,263.0L122.7,240.3L122.3,228.9Z"/>
    <path class="wtc-county" id="wtc-county-potter" data-county="Potter" d="M299.1,231.1L297.9,225.4L294.8,221.5L295.5,218.9L297.9,216.3L290.6,216.8L288.5,214.3L289.6,208.3L337.7,208.3L344.3,208.2L344.3,231.1L335.3,231.1L299.1,231.1Z"/>
    <path class="wtc-county" id="wtc-county-roberts" data-county="Roberts" d="M498.0,276.3L498.0,251.6L498.2,234.5L512.6,234.5L513.5,236.4L547.6,236.4L544.4,239.6L538.0,241.7L533.8,242.0L530.5,245.1L528.3,249.2L523.9,253.4L522.2,254.7L523.4,257.3L529.3,260.8L534.5,263.0L537.3,266.5L540.6,269.1L541.5,276.3L498.0,276.3Z"/>
    <path class="wtc-county" id="wtc-county-sanborn" data-county="Sanborn" d="M425.7,162.3L425.7,145.3L426.2,139.6L449.5,139.6L457.3,139.5L457.3,162.2L457.0,162.2L425.7,162.3Z"/>
    <path class="wtc-county" id="wtc-county-spink" data-county="Spink" d="M400.3,231.0L400.5,208.2L401.2,208.2L401.2,191.0L448.8,190.8L449.0,207.9L448.5,207.9L448.5,225.0L448.5,230.7L400.3,231.0Z"/>
    <path class="wtc-county" id="wtc-county-stanley" data-county="Stanley" d="M241.6,198.4L241.6,194.6L240.4,194.6L240.4,171.9L239.7,171.9L239.7,160.4L247.5,160.4L292.2,160.4L292.2,162.1L320.2,162.2L323.3,165.2L321.2,166.9L317.2,167.0L310.6,169.6L305.4,170.7L300.9,170.7L292.2,172.7L290.8,178.2L289.4,179.4L285.2,179.6L281.2,178.5L278.1,179.6L278.6,181.6L281.4,183.2L281.6,185.3L275.5,186.6L273.9,188.6L276.0,195.8L274.8,197.7L269.2,199.9L263.7,199.5L261.9,200.8L256.0,199.9L249.2,196.9L247.0,197.9L241.6,198.4Z"/>
    <path class="wtc-county" id="wtc-county-sully" data-county="Sully" d="M289.6,208.3L289.9,205.6L285.2,202.9L280.7,199.3L276.2,199.9L272.0,203.4L269.4,203.2L269.2,199.9L274.8,197.7L276.0,195.8L273.9,188.6L275.5,186.6L281.6,185.3L337.4,185.3L337.7,208.3L289.6,208.3Z"/>
    <path class="wtc-county" id="wtc-county-todd" data-county="Todd" d="M235.7,109.3L235.7,83.6L258.1,83.6L303.3,83.7L303.3,92.2L302.1,92.2L302.1,109.4L235.7,109.3Z"/>
    <path class="wtc-county" id="wtc-county-tripp" data-county="Tripp" d="M301.2,130.6L301.2,115.1L302.1,115.1L302.1,109.4L302.1,92.2L303.3,92.2L303.3,83.7L346.8,83.7L346.8,116.6L341.4,116.6L341.0,117.6L341.0,132.4L338.1,133.9L337.0,131.5L336.3,133.7L332.5,130.3L329.4,130.3L325.0,128.1L322.6,129.6L316.0,129.2L315.5,130.2L308.7,128.8L303.8,130.1L302.4,128.8L301.2,130.6Z"/>
    <path class="wtc-county" id="wtc-county-turner" data-county="Turner" d="M486.7,116.6L486.9,94.9L502.4,95.0L502.4,89.3L518.0,89.3L518.0,116.6L504.6,116.5L486.7,116.6Z"/>
    <path class="wtc-county" id="wtc-county-union" data-county="Union" d="M525.8,89.3L525.8,64.4L526.0,62.1L530.9,61.9L533.5,61.0L531.9,58.1L536.8,54.4L537.1,52.6L538.5,51.4L544.1,51.7L545.3,50.0L549.3,50.4L546.2,52.1L547.2,54.7L545.8,55.0L544.8,59.6L540.8,63.0L537.3,64.5L537.1,68.8L539.6,70.2L540.3,73.2L542.9,74.1L543.4,77.8L545.8,81.2L544.4,82.3L546.2,83.9L545.1,87.1L548.8,89.3L525.8,89.3Z"/>
    <path class="wtc-county" id="wtc-county-walworth" data-county="Walworth" d="M288.0,254.0L284.2,250.1L287.1,248.4L290.6,248.5L293.9,246.0L294.6,244.1L298.4,240.0L295.5,235.8L299.1,231.1L335.3,231.1L335.3,253.9L334.8,253.9L288.0,254.0Z"/>
    <path class="wtc-county" id="wtc-county-yankton" data-county="Yankton" d="M471.1,94.8L471.4,74.1L481.3,74.0L484.1,73.7L485.7,75.0L489.3,74.3L492.8,75.1L498.7,73.7L498.9,71.5L502.4,70.7L502.4,89.3L502.4,95.0L486.9,94.9L471.1,94.8Z"/>
    <path class="wtc-county" id="wtc-county-ziebach" data-county="Ziebach" d="M185.1,217.4L185.1,182.9L188.9,184.4L197.8,184.0L201.8,186.6L207.3,187.8L209.6,187.0L217.8,187.5L221.4,191.2L226.6,193.0L227.5,194.5L236.0,194.9L241.6,198.4L241.6,214.6L217.8,214.6L218.8,217.5L218.8,240.3L219.7,240.3L219.7,246.0L185.1,246.0L185.1,217.4Z"/>
  </g>
</svg>