<?xml version="1.0" encoding="UTF-8"?>
<svg xmlns="http://www.w3.org/2000/svg" viewBox="0 0 600 327" id="wtc-state-map-SD" role="img" aria-label="sd county map">
  <title>sd Counties</title>
  <g class="wtc-counties">
    <path class="wtc-county" id="wtc-county-aurora" data-county="Aurora" d="M394.4,181.8L394.4,187.5L395.1,187.5L395.3,210.4L401.2,210.4L426.4,210.5L426.2,205.2L426.2,187.3L425.7,181.7L394.4,181.8Z"/>
    <path class="wtc-county" id="wtc-county-beadle" data-county="Beadle" d="M401.2,136.0L401.5,164.7L425.7,164.7L457.0,164.8L457.0,141.8L456.8,136.1L448.8,136.1L401.2,136.0Z"/>
    <path class="wtc-county" id="wtc-county-bennett" data-county="Bennett" d="M177.8,217.6L177.8,234.7L179.7,234.7L179.7,243.2L209.6,243.4L235.7,243.3L235.7,217.6L177.8,217.6Z"/>
    <path class="wtc-county" id="wtc-county-bon-homme" data-county="Bon Homme" d="M442.4,232.1L440.3,237.4L440.1,243.1L441.2,244.9L439.4,249.1L439.8,251.7L437.5,253.7L446.2,258.7L450.7,258.2L453.5,256.6L455.6,252.4L457.5,251.8L462.2,253.0L468.1,253.5L471.4,252.9L471.1,232.1L442.4,232.1Z"/>
    <path class="wtc-county" id="wtc-county-brookings" data-county="Brookings" d="M504.6,141.9L504.6,164.7L520.3,164.7L548.8,164.7L548.8,141.9L520.6,141.9L504.6,141.9Z"/>
    <path class="wtc-county" id="wtc-county-brown" data-county="Brown" d="M399.8,50.4L399.8,73.2L400.0,73.6L400.0,96.0L400.3,96.0L448.5,96.2L448.8,73.4L448.8,50.6L446.9,50.6L420.3,50.6L399.8,50.4Z"/>
    <path class="wtc-county" id="wtc-county-brule" data-county="Brule" d="M358.4,181.9L358.6,184.6L361.7,186.7L357.9,191.2L354.8,192.3L355.1,196.9L351.8,198.1L351.8,200.2L357.2,200.1L359.3,202.7L359.6,205.1L363.3,208.3L362.4,210.3L395.3,210.4L395.1,187.5L394.4,187.5L394.4,181.8L386.6,181.8L358.4,181.9Z"/>
    <path class="wtc-county" id="wtc-county-buffalo" data-county="Buffalo" d="M344.0,164.9L346.4,167.7L345.2,171.5L348.3,174.0L353.0,174.5L358.6,177.9L358.4,181.9L386.6,181.8L386.6,164.7L362.1,164.8L344.0,164.9Z"/>
    <path class="wtc-county" id="wtc-county-butte" data-county="Butte" d="M50.0,112.1L50.2,120.2L50.2,140.1L58.2,139.6L61.3,138.3L64.1,139.0L65.5,137.9L82.3,137.9L121.8,137.9L122.3,109.4L122.3,98.0L82.5,98.0L51.2,98.0L51.2,111.9L50.0,112.1Z"/>
    <path class="wtc-county" id="wtc-county-campbell" data-county="Campbell" d="M283.5,50.1L290.8,55.0L291.5,58.5L296.0,65.6L294.1,68.5L289.6,69.3L288.0,73.0L334.8,73.0L334.6,50.3L324.0,50.2L283.5,50.1Z"/>
    <path class="wtc-county" id="wtc-county-charles-mix" data-county="Charles Mix" d="M362.4,210.4L361.4,212.4L365.0,214.5L370.9,214.6L377.2,222.1L383.1,226.2L388.5,227.0L389.9,228.3L389.9,231.4L391.3,233.0L396.8,233.6L402.2,238.1L406.9,238.3L413.0,240.5L414.6,243.3L416.8,246.6L424.8,249.5L427.1,250.9L430.4,251.4L436.1,253.8L437.5,253.7L439.8,251.7L439.4,249.1L441.2,244.9L440.1,243.1L440.3,237.4L442.4,232.1L440.3,230.2L402.9,218.7L401.0,218.9L401.2,210.4L395.3,210.4L362.4,210.3L362.4,210.4Z"/>
    <path class="wtc-county" id="wtc-county-clark" data-county="Clark" d="M448.5,101.9L448.5,119.0L449.0,119.0L448.8,136.1L456.8,136.1L457.0,141.8L480.8,141.9L480.8,124.8L480.6,102.1L448.5,101.9Z"/>
    <path class="wtc-county" id="wtc-county-clay" data-county="Clay" d="M502.4,237.7L502.4,256.3L504.3,258.1L511.9,258.8L514.5,258.9L516.3,261.6L519.2,260.6L525.8,262.6L525.8,237.7L518.0,237.7L502.4,237.7Z"/>
    <path class="wtc-county" id="wtc-county-codington" data-county="Codington" d="M480.6,102.1L480.8,124.8L520.6,124.8L520.8,113.5L520.6,102.1L498.2,102.0L480.6,102.1Z"/>
    <path class="wtc-county" id="wtc-county-corson" data-county="Corson" d="M185.1,50.1L185.1,81.0L219.7,81.0L276.2,81.0L293.9,81.0L290.6,78.4L287.1,78.6L284.2,76.8L288.0,73.0L289.6,69.3L294.1,68.5L296.0,65.6L291.5,58.5L290.8,55.0L283.5,50.1L282.6,50.1L232.9,50.1L185.1,50.1Z"/>
    <path class="wtc-county" id="wtc-county-custer" data-county="Custer" d="M50.2,187.2L50.2,210.1L50.2,211.8L119.4,211.9L119.4,203.4L123.9,202.6L125.8,198.9L130.5,200.0L131.9,198.1L136.6,192.7L139.5,190.8L139.9,187.0L50.2,187.2Z"/>
    <path class="wtc-county" id="wtc-county-davison" data-county="Davison" d="M426.2,187.3L426.2,205.2L426.4,210.5L439.8,210.5L449.7,210.4L449.5,187.4L426.2,187.3Z"/>
    <path class="wtc-county" id="wtc-county-day" data-county="Day" d="M448.5,96.2L448.5,101.9L480.6,102.1L498.2,102.0L498.2,92.5L498.0,75.4L489.0,75.4L488.6,73.4L448.8,73.4L448.5,96.2Z"/>
    <path class="wtc-county" id="wtc-county-deuel" data-county="Deuel" d="M520.6,124.8L520.6,141.9L548.8,141.9L549.1,136.1L549.1,124.7L548.8,113.4L520.8,113.5L520.6,124.8Z"/>
    <path class="wtc-county" id="wtc-county-dewey" data-county="Dewey" d="M219.7,81.0L219.7,86.7L218.8,86.7L218.8,109.4L217.8,112.4L241.6,112.4L241.6,128.5L247.0,129.0L249.2,130.1L256.0,127.1L261.9,126.2L263.7,127.5L269.2,127.0L269.4,123.7L272.0,123.6L276.2,127.1L280.7,127.6L285.2,124.0L289.9,121.4L289.6,118.7L288.5,112.7L290.6,110.2L297.9,110.7L295.5,108.1L294.8,105.4L297.9,101.6L299.1,95.8L295.5,91.1L298.4,87.0L294.6,82.8L293.9,81.0L276.2,81.0L219.7,81.0Z"/>
    <path class="wtc-county" id="wtc-county-douglas" data-county="Douglas" d="M401.2,210.4L401.0,218.9L402.9,218.7L440.3,230.2L440.1,211.4L439.8,210.5L426.4,210.5L401.2,210.4Z"/>
    <path class="wtc-county" id="wtc-county-edmunds" data-county="Edmunds" d="M335.3,73.0L335.3,95.9L344.3,95.9L400.0,96.0L400.0,73.6L399.8,73.2L335.3,73.0Z"/>
    <path class="wtc-county" id="wtc-county-fall-river" data-county="Fall River" d="M50.2,211.8L50.5,223.6L50.5,243.1L86.3,243.1L119.4,243.1L119.4,211.9L50.2,211.8Z"/>
    <path class="wtc-county" id="wtc-county-faulk" data-county="Faulk" d="M344.3,95.9L344.3,118.7L361.4,118.7L400.5,118.7L400.3,96.0L400.0,96.0L344.3,95.9Z"/>
    <path class="wtc-county" id="wtc-county-grant" data-county="Grant" d="M498.2,92.5L498.2,102.0L520.6,102.1L520.8,113.5L548.8,113.4L548.8,94.3L547.6,90.6L513.5,90.6L512.6,92.5L498.2,92.5Z"/>
    <path class="wtc-county" id="wtc-county-gregory" data-county="Gregory" d="M346.8,210.3L346.8,243.3L365.2,243.3L414.6,243.3L413.0,240.5L406.9,238.3L402.2,238.1L396.8,233.6L391.3,233.0L389.9,231.4L389.9,228.3L388.5,227.0L383.1,226.2L377.2,222.1L370.9,214.6L365.0,214.5L361.4,212.4L362.4,210.4L346.8,210.3Z"/>
    <path class="wtc-county" id="wtc-county-haakon" data-county="Haakon" d="M184.9,144.0L184.7,155.0L184.7,177.9L187.2,178.0L246.3,177.9L247.5,177.9L247.5,166.5L239.7,166.5L239.7,155.1L240.4,155.1L240.4,132.3L241.6,132.3L241.6,128.5L236.0,132.0L227.5,132.4L226.6,133.9L221.4,135.7L217.8,139.4L209.6,140.0L207.3,139.1L201.8,140.3L197.8,142.9L188.9,142.6L185.1,144.0L184.9,144.0Z"/>
    <path class="wtc-county" id="wtc-county-hamlin" data-county="Hamlin" d="M480.8,124.8L480.8,141.9L504.6,141.9L520.6,141.9L520.6,124.8L480.8,124.8Z"/>
    <path class="wtc-county" id="wtc-county-hand" data-county="Hand" d="M361.4,118.7L361.2,141.7L362.1,141.7L362.1,164.8L386.6,164.7L401.5,164.7L401.2,136.0L401.2,118.7L400.5,118.7L361.4,118.7Z"/>
    <path class="wtc-county" id="wtc-county-hanson" data-county="Hanson" d="M449.5,187.4L449.7,210.4L473.3,210.3L473.0,187.5L457.3,187.4L449.5,187.4Z"/>
    <path class="wtc-county" id="wtc-county-harding" data-county="Harding" d="M50.9,50.0L50.9,54.1L51.2,62.8L51.2,98.0L82.5,98.0L122.3,98.0L122.7,86.6L123.2,63.9L123.2,50.0L119.7,50.0L91.0,50.0L50.9,50.0Z"/>
    <path class="wtc-county" id="wtc-county-hughes" data-county="Hughes" d="M281.6,141.7L281.4,143.8L278.6,145.3L278.1,147.3L281.2,148.4L285.2,147.4L289.4,147.5L290.8,148.7L292.2,154.2L300.9,156.2L305.4,156.3L310.6,157.3L317.2,160.0L321.2,160.1L323.3,161.7L320.2,164.8L323.8,169.0L331.3,168.7L338.8,170.9L342.6,169.4L340.3,166.9L336.3,166.2L335.3,164.9L338.4,163.3L338.4,141.6L337.4,141.6L281.6,141.7Z"/>
    <path class="wtc-county" id="wtc-county-hutchinson" data-county="Hutchinson" d="M439.8,210.5L440.1,211.4L440.3,230.2L442.4,232.1L471.1,232.1L486.9,232.0L486.7,210.3L473.3,210.3L449.7,210.4L439.8,210.5Z"/>
    <path class="wtc-county" id="wtc-county-hyde" data-county="Hyde" d="M337.7,118.7L337.4,141.6L338.4,141.6L338.4,163.3L344.0,164.9L362.1,164.8L362.1,141.7L361.2,141.7L361.4,118.7L344.3,118.7L337.7,118.7Z"/>
    <path class="wtc-county" id="wtc-county-jackson" data-county="Jackson" d="M175.9,197.2L175.9,211.9L177.8,211.9L177.8,217.6L235.7,217.6L235.7,191.4L240.0,188.7L244.9,187.4L246.3,188.0L246.3,177.9L187.2,178.0L184.7,177.9L183.7,178.0L183.7,196.7L182.8,198.0L175.9,197.2Z"/>
    <path class="wtc-county" id="wtc-county-jerauld" data-county="Jerauld" d="M386.6,164.7L386.6,181.8L394.4,181.8L425.7,181.7L425.7,164.7L401.5,164.7L386.6,164.7Z"/>
    <path class="wtc-county" id="wtc-county-jones" data-county="Jones" d="M246.3,177.9L246.3,188.0L250.8,187.4L253.6,190.0L254.8,188.6L259.0,190.8L261.4,193.2L262.8,192.9L265.2,195.6L267.3,194.9L267.0,195.9L271.5,196.4L277.9,192.7L285.4,195.8L291.8,194.9L294.1,196.2L293.9,187.6L292.2,187.6L292.2,166.5L247.5,166.5L247.5,177.9L246.3,177.9Z"/>
    <path class="wtc-county" id="wtc-county-kingsbury" data-county="Kingsbury" d="M457.0,141.8L457.0,164.8L457.3,164.8L488.8,164.8L504.6,164.7L504.6,141.9L480.8,141.9L457.0,141.8Z"/>
    <path class="wtc-county" id="wtc-county-lake" data-county="Lake" d="M488.8,164.8L488.8,187.5L504.6,187.5L520.3,187.5L520.3,164.7L504.6,164.7L488.8,164.8Z"/>
    <path class="wtc-county" id="wtc-county-lawrence" data-county="Lawrence" d="M50.2,140.1L50.2,165.7L50.2,168.3L89.8,168.3L89.8,160.7L81.8,160.8L82.3,137.9L65.5,137.9L64.1,139.0L61.3,138.3L58.2,139.6L50.2,140.1Z"/>
    <path class="wtc-county" id="wtc-county-lincoln" data-county="Lincoln" d="M518.0,210.3L518.0,237.7L525.8,237.7L548.8,237.7L550.0,235.3L547.9,233.3L547.4,228.6L541.8,228.4L542.2,226.1L540.6,223.8L543.9,223.5L544.1,217.3L538.9,213.7L540.6,211.6L539.4,210.3L518.0,210.3Z"/>
    <path class="wtc-county" id="wtc-county-lyman" data-county="Lyman" d="M320.2,164.8L292.2,164.8L292.2,166.5L292.2,187.6L293.9,187.6L294.1,196.2L297.9,197.4L301.2,196.3L302.4,198.1L303.8,196.8L308.7,198.2L315.5,196.7L316.0,197.7L322.6,197.3L325.0,198.9L329.4,196.6L332.5,196.6L336.3,193.3L337.0,195.4L338.1,193.0L341.0,194.5L341.0,209.4L341.4,210.3L346.8,210.3L362.4,210.4L362.4,210.3L363.3,208.3L359.6,205.1L359.3,202.7L357.2,200.1L351.8,200.2L351.8,198.1L355.1,196.9L354.8,192.3L357.9,191.2L361.7,186.7L358.6,184.6L358.4,181.9L358.6,177.9L353.0,174.5L348.3,174.0L345.2,171.5L346.4,167.7L344.0,164.9L338.4,163.3L335.3,164.9L336.3,166.2L340.3,166.9L342.6,169.4L338.8,170.9L331.3,168.7L323.8,169.0L320.2,164.8Z"/>
    <path class="wtc-county" id="wtc-county-mccook" data-county="McCook" d="M473.0,187.5L473.3,210.3L486.7,210.3L504.6,210.4L504.6,187.5L488.8,187.5L473.0,187.5Z"/>
    <path class="wtc-county" id="wtc-county-mcpherson" data-county="McPherson" d="M334.6,50.3L334.8,73.0L335.3,73.0L399.8,73.2L399.8,50.4L381.5,50.3L334.6,50.3Z"/>
    <path class="wtc-county" id="wtc-county-marshall" data-county="Marshall" d="M448.8,50.6L448.8,73.4L488.6,73.4L489.0,75.4L498.0,75.4L498.0,50.6L448.8,50.6Z"/>
    <path class="wtc-county" id="wtc-county-meade" data-county="Meade" d="M82.3,137.9L81.8,160.8L89.8,160.7L89.8,168.3L159.7,168.4L158.5,167.2L159.2,164.3L161.6,162.5L160.9,160.3L162.8,154.7L165.3,153.0L164.9,149.1L170.5,147.9L174.3,149.6L177.6,149.0L182.5,144.5L184.9,144.0L185.1,144.0L185.1,109.5L122.3,109.4L121.8,137.9L82.3,137.9Z"/>
    <path class="wtc-county" id="wtc-county-mellette" data-county="Mellette" d="M246.3,188.0L244.9,187.4L240.0,188.7L235.7,191.4L235.7,217.6L302.1,217.6L302.1,211.9L301.2,211.8L301.2,196.3L297.9,197.4L294.1,196.2L291.8,194.9L285.4,195.8L277.9,192.7L271.5,196.4L267.0,195.9L267.3,194.9L265.2,195.6L262.8,192.9L261.4,193.2L259.0,190.8L254.8,188.6L253.6,190.0L250.8,187.4L246.3,188.0Z"/>
    <path class="wtc-county" id="wtc-county-miner" data-county="Miner" d="M457.3,164.8L457.3,187.4L473.0,187.5L488.8,187.5L488.8,164.8L457.3,164.8Z"/>
    <path class="wtc-county" id="wtc-county-minnehaha" data-county="Minnehaha" d="M504.6,187.5L504.6,210.4L518.0,210.3L539.4,210.3L548.8,210.3L548.8,187.4L520.3,187.5L504.6,187.5Z"/>
    <path class="wtc-county" id="wtc-county-moody" data-county="Moody" d="M520.3,164.7L520.3,187.5L548.8,187.4L548.8,164.7L520.3,164.7Z"/>
    <path class="wtc-county" id="wtc-county-oglala-lakota" data-county="Oglala Lakota" d="M131.9,198.1L130.5,200.0L125.8,198.9L123.9,202.6L119.4,203.4L119.4,211.9L119.4,243.1L133.1,243.1L179.7,243.2L179.7,234.7L177.8,234.7L177.8,217.6L177.8,211.9L175.9,211.9L175.9,197.2L173.6,198.1L131.9,198.1Z"/>
    <path class="wtc-county" id="wtc-county-pennington" data-county="Pennington" d="M50.2,187.2L139.9,187.0L139.5,190.8L136.6,192.7L131.9,198.1L173.6,198.1L175.9,197.2L182.8,198.0L183.7,196.7L183.7,178.0L184.7,177.9L184.7,155.0L184.9,144.0L182.5,144.5L177.6,149.0L174.3,149.6L170.5,147.9L164.9,149.1L165.3,153.0L162.8,154.7L160.9,160.3L161.6,162.5L159.2,164.3L158.5,167.2L159.7,168.4L89.8,168.3L50.2,168.3L50.2,187.2Z"/>
    <path class="wtc-county" id="wtc-county-perkins" data-county="Perkins" d="M122.3,98.0L122.3,109.4L185.1,109.5L185.1,81.0L185.1,50.1L123.2,50.0L123.2,63.9L122.7,86.6L122.3,98.0Z"/>
    <path class="wtc-county" id="wtc-county-potter" data-county="Potter" d="M299.1,95.8L297.9,101.6L294.8,105.4L295.5,108.1L297.9,110.7L290.6,110.2L288.5,112.7L289.6,118.7L337.7,118.7L344.3,118.7L344.3,95.9L335.3,95.9L299.1,95.8Z"/>
    <path class="wtc-county" id="wtc-county-roberts" data-county="Roberts" d="M498.0,50.6L498.0,75.4L498.2,92.5L512.6,92.5L513.5,90.6L547.6,90.6L544.4,87.4L538.0,85.2L533.8,85.0L530.5,81.9L528.3,77.8L523.9,73.6L522.2,72.3L523.4,69.7L529.3,66.2L534.5,64.0L537.3,60.4L540.6,57.8L541.5,50.6L498.0,50.6Z"/>
    <path class="wtc-county" id="wtc-county-sanborn" data-county="Sanborn" d="M425.7,164.7L425.7,181.7L426.2,187.3L449.5,187.4L457.3,187.4L457.3,164.8L457.0,164.8L425.7,164.7Z"/>
    <path class="wtc-county" id="wtc-county-spink" data-county="Spink" d="M400.3,96.0L400.5,118.7L401.2,118.7L401.2,136.0L448.8,136.1L449.0,119.0L448.5,119.0L448.5,101.9L448.5,96.2L400.3,96.0Z"/>
    <path class="wtc-county" id="wtc-county-stanley" data-county="Stanley" d="M241.6,128.5L241.6,132.3L240.4,132.3L240.4,155.1L239.7,155.1L239.7,166.5L247.5,166.5L292.2,166.5L292.2,164.8L320.2,164.8L323.3,161.7L321.2,160.1L317.2,160.0L310.6,157.3L305.4,156.3L300.9,156.2L292.2,154.2L290.8,148.7L289.4,147.5L285.2,147.4L281.2,148.4L278.1,147.3L278.6,145.3L281.4,143.8L281.6,141.7L275.5,140.4L273.9,138.3L276.0,131.2L274.8,129.2L269.2,127.0L263.7,127.5L261.9,126.2L256.0,127.1L249.2,130.1L247.0,129.0L241.6,128.5Z"/>
    <path class="wtc-county" id="wtc-county-sully" data-county="Sully" d="M289.6,118.7L289.9,121.4L285.2,124.0L280.7,127.6L276.2,127.1L272.0,123.6L269.4,123.7L269.2,127.0L274.8,129.2L276.0,131.2L273.9,138.3L275.5,140.4L281.6,141.7L337.4,141.6L337.7,118.7L289.6,118.7Z"/>
    <path class="wtc-county" id="wtc-county-todd" data-county="Todd" d="M235.7,217.6L235.7,243.3L258.1,243.3L303.3,243.3L303.3,234.7L302.1,234.7L302.1,217.6L235.7,217.6Z"/>
    <path class="wtc-county" id="wtc-county-tripp" data-county="Tripp" d="M301.2,196.3L301.2,211.8L302.1,211.9L302.1,217.6L302.1,234.7L303.3,234.7L303.3,243.3L346.8,243.3L346.8,210.3L341.4,210.3L341.0,209.4L341.0,194.5L338.1,193.0L337.0,195.4L336.3,193.3L332.5,196.6L329.4,196.6L325.0,198.9L322.6,197.3L316.0,197.7L315.5,196.7L308.7,198.2L303.8,196.8L302.4,198.1L301.2,196.3Z"/>
    <path class="wtc-county" id="wtc-county-turner" data-county="Turner" d="M486.7,210.3L486.9,232.0L502.4,232.0L502.4,237.7L518.0,237.7L518.0,210.3L504.6,210.4L486.7,210.3Z"/>
    <path class="wtc-county" id="wtc-county-union" data-county="Union" d="M525.8,237.7L525.8,262.6L526.0,264.8L530.9,265.0L533.5,265.9L531.9,268.8L536.8,272.5L537.1,274.4L538.5,275.5L544.1,275.3L545.3,276.9L549.3,276.5L546.2,274.8L547.2,272.3L545.8,271.9L544.8,267.4L540.8,264.0L537.3,262.5L537.1,258.2L539.6,256.7L540.3,253.8L542.9,252.9L543.4,249.1L545.8,245.8L544.4,244.6L546.2,243.0L545.1,239.9L548.8,237.7L525.8,237.7Z"/>
    <path class="wtc-county" id="wtc-county-walworth" data-county="Walworth" d="M288.0,73.0L284.2,76.8L287.1,78.6L290.6,78.4L293.9,81.0L294.6,82.8L298.4,87.0L295.5,91.1L299.1,95.8L335.3,95.9L335.3,73.0L334.8,73.0L288.0,73.0Z"/>
    <path class="wtc-county" id="wtc-county-yankton" data-county="Yankton" d="M471.1,232.1L471.4,252.9L481.3,252.9L484.1,253.2L485.7,251.9L489.3,252.7L492.8,251.9L498.7,253.3L498.9,255.4L502.4,256.3L502.4,237.7L502.4,232.0L486.9,232.0L471.1,232.1Z"/>
    <path class="wtc-county" id="wtc-county-ziebach" data-county="Ziebach" d="M185.1,109.5L185.1,144.0L188.9,142.6L197.8,142.9L201.8,140.3L207.3,139.1L209.6,140.0L217.8,139.4L221.4,135.7L226.6,133.9L227.5,132.4L236.0,132.0L241.6,128.5L241.6,112.4L217.8,112.4L218.8,109.4L218.8,86.7L219.7,86.7L219.7,81.0L185.1,81.0L185.1,109.5Z"/>
  </g>
</svg>