<?xml version="1.0" encoding="UTF-8"?>
<svg xmlns="http://www.w3.org/2000/svg" viewBox="0 0 600 330" id="wtc-state-map-MA" role="img" aria-label="ma county map">
  <title>ma Counties</title>
  <g class="wtc-counties">
    <path class="wtc-county" id="wtc-county-barnstable" data-county="Barnstable" d="M443.2,240.1L446.7,241.9L454.7,237.7L471.3,236.5L478.8,229.1L487.3,228.2L490.8,224.9L505.9,225.8L527.4,221.0L540.5,220.4L544.0,223.2L538.0,236.6L541.5,237.7L542.5,232.4L550.0,217.0L549.0,200.5L544.5,186.2L535.5,171.5L523.9,164.5L513.4,162.3L506.9,163.7L512.4,170.7L514.9,166.1L519.4,165.2L526.9,169.3L529.4,175.9L529.4,187.6L536.0,183.8L539.0,191.2L539.5,200.6L536.5,203.6L522.9,207.6L513.4,208.6L503.9,213.8L499.3,211.1L482.3,209.6L470.8,205.4L464.7,200.3L461.2,203.8L451.7,207.0L450.2,213.2L450.7,232.9L448.2,237.7L443.2,240.1Z"/>
    <path class="wtc-county" id="wtc-county-berkshire" data-county="Berkshire" d="M71.6,102.7L50.0,161.9L51.5,166.9L53.0,166.9L60.5,166.8L113.2,168.3L110.7,160.8L111.2,153.2L116.2,153.8L120.2,138.9L120.7,130.2L112.2,127.9L111.7,119.5L119.2,120.8L125.2,98.5L124.2,96.2L127.7,84.3L127.2,81.0L121.7,79.8L128.2,75.4L117.7,75.7L117.7,70.4L84.1,69.7L71.6,102.7Z"/>
    <path class="wtc-county" id="wtc-county-bristol" data-county="Bristol" d="M346.9,176.0L346.9,188.9L352.9,188.2L351.9,197.9L355.9,205.2L363.9,208.6L369.0,214.3L373.0,219.2L382.0,221.4L383.5,244.1L388.5,242.4L394.5,244.4L407.1,241.7L410.1,238.2L409.1,232.9L412.6,227.0L418.6,226.2L420.6,232.3L422.1,225.8L416.1,207.4L411.1,203.0L396.5,204.8L395.0,199.6L404.1,193.3L400.6,183.7L393.5,179.0L389.0,160.5L349.4,175.9L346.9,176.0Z"/>
    <path class="wtc-county" id="wtc-county-dukes" data-county="Dukes" d="M423.6,264.3L431.6,271.6L440.7,265.9L456.2,264.9L476.8,265.0L477.3,254.9L472.3,259.7L464.7,256.5L461.2,248.0L455.7,246.2L442.2,253.5L432.6,264.3L423.6,264.3ZM443.2,240.1L428.1,249.2L410.6,253.3L407.6,256.5L419.1,254.7L429.6,251.3L437.7,245.6L446.7,241.9L443.2,240.1Z"/>
    <path class="wtc-county" id="wtc-county-essex" data-county="Essex" d="M364.4,71.0L367.0,80.4L364.4,82.2L381.5,90.2L392.0,88.8L396.5,93.7L392.5,93.7L390.0,99.7L395.0,100.7L393.0,107.4L396.5,111.8L405.6,111.9L409.1,115.5L411.6,108.5L415.1,109.5L424.1,103.5L418.1,97.5L437.2,93.3L448.7,92.5L456.7,81.7L449.7,77.6L443.7,82.6L431.1,77.0L426.6,60.7L425.6,52.0L421.6,53.6L414.1,50.0L396.0,53.8L391.5,61.3L382.0,59.1L374.5,63.4L375.0,70.9L365.9,70.2L364.4,71.0Z"/>
    <path class="wtc-county" id="wtc-county-franklin" data-county="Franklin" d="M117.7,70.4L117.7,75.7L128.2,75.4L121.7,79.8L127.2,81.0L127.7,84.3L124.2,96.2L138.3,98.3L138.8,106.3L152.3,108.7L154.8,111.6L162.8,110.6L162.3,117.2L191.9,113.3L192.9,117.0L208.0,115.1L211.0,122.7L211.0,131.5L216.5,125.9L218.0,115.2L221.0,112.3L220.0,106.9L226.5,102.2L223.0,99.3L223.5,90.0L228.5,87.8L228.5,81.3L222.5,79.6L221.0,73.0L196.4,72.3L130.7,70.6L117.7,70.4Z"/>
    <path class="wtc-county" id="wtc-county-hampden" data-county="Hampden" d="M120.7,130.2L120.2,138.9L116.2,153.8L111.2,153.2L110.7,160.8L113.2,168.3L119.7,168.5L146.8,168.8L146.3,174.2L153.3,173.5L154.8,168.8L175.9,169.5L189.4,169.1L241.6,169.7L241.6,151.3L232.5,151.3L223.5,148.2L229.5,139.7L209.5,144.9L205.5,147.9L204.0,141.5L177.9,144.3L173.4,141.2L176.9,136.4L171.9,135.6L168.9,142.1L164.3,144.1L164.8,148.3L151.3,146.0L149.8,140.9L140.8,140.3L138.8,143.6L133.2,140.5L137.8,136.8L136.8,127.4L127.2,125.9L120.7,130.2Z"/>
    <path class="wtc-county" id="wtc-county-hampshire" data-county="Hampshire" d="M124.2,96.2L125.2,98.5L119.2,120.8L111.7,119.5L112.2,127.9L120.7,130.2L127.2,125.9L136.8,127.4L137.8,136.8L133.2,140.5L138.8,143.6L140.8,140.3L149.8,140.9L151.3,146.0L164.8,148.3L164.3,144.1L168.9,142.1L171.9,135.6L176.9,136.4L173.4,141.2L177.9,144.3L204.0,141.5L205.5,147.9L209.5,144.9L229.5,139.7L231.0,130.4L222.0,131.7L220.0,124.7L216.5,125.9L211.0,131.5L211.0,122.7L208.0,115.1L192.9,117.0L191.9,113.3L162.3,117.2L162.8,110.6L154.8,111.6L152.3,108.7L138.8,106.3L138.3,98.3L124.2,96.2Z"/>
    <path class="wtc-county" id="wtc-county-middlesex" data-county="Middlesex" d="M274.7,74.5L280.7,79.6L280.2,85.3L291.7,83.8L307.3,88.4L305.3,99.8L311.3,100.7L313.8,96.7L324.8,98.0L326.3,101.3L321.8,107.6L324.3,108.7L322.3,116.4L312.8,124.9L318.8,130.4L332.3,127.8L329.3,137.0L322.3,136.4L316.3,143.4L322.8,148.4L329.8,147.1L333.4,152.0L340.4,148.8L352.4,145.9L353.9,139.1L357.9,139.2L354.4,130.1L362.4,128.0L368.5,129.3L373.5,134.4L377.5,131.5L378.5,127.8L376.0,124.9L382.0,121.7L386.0,124.7L390.5,122.5L396.5,111.8L393.0,107.4L395.0,100.7L390.0,99.7L392.5,93.7L396.5,93.7L392.0,88.8L381.5,90.2L364.4,82.2L367.0,80.4L364.4,71.0L359.4,76.5L274.7,74.5Z"/>
    <path class="wtc-county" id="wtc-county-nantucket" data-county="Nantucket" d="M501.4,270.3L502.9,272.5L523.4,279.7L540.0,280.2L545.0,278.3L545.5,274.7L537.5,262.1L531.4,270.5L522.4,272.5L507.9,273.1L501.4,270.3Z"/>
    <path class="wtc-county" id="wtc-county-norfolk" data-county="Norfolk" d="M424.6,136.8L420.6,140.4L424.6,145.9L431.1,138.7L424.6,136.8ZM378.5,127.8L377.5,131.5L379.0,132.7L385.5,125.1L378.5,127.8ZM333.4,152.0L331.3,159.9L330.8,171.5L346.9,171.2L346.9,176.0L349.4,175.9L389.0,160.5L410.6,151.9L412.1,142.4L410.1,139.4L414.1,136.5L412.1,133.5L406.6,134.1L402.1,136.5L401.6,130.2L394.5,131.5L392.0,136.5L384.5,137.7L382.0,142.1L373.5,134.4L368.5,129.3L362.4,128.0L354.4,130.1L357.9,139.2L353.9,139.1L352.4,145.9L340.4,148.8L333.4,152.0Z"/>
    <path class="wtc-county" id="wtc-county-plymouth" data-county="Plymouth" d="M389.0,160.5L393.5,179.0L400.6,183.7L404.1,193.3L395.0,199.6L396.5,204.8L411.1,203.0L416.1,207.4L422.1,225.8L428.1,225.7L427.1,221.9L434.2,222.2L436.2,216.2L439.7,217.9L439.7,210.8L450.2,213.2L451.7,207.0L461.2,203.8L464.7,200.3L466.8,193.7L462.7,183.7L458.7,180.8L452.7,181.8L442.2,175.7L440.7,172.8L446.7,172.2L450.2,167.5L450.7,161.5L440.2,150.3L439.2,144.8L431.1,138.7L424.6,145.9L420.6,140.4L424.6,136.8L419.6,135.3L416.6,130.8L406.6,134.1L412.1,133.5L414.1,136.5L410.1,139.4L412.1,142.4L410.6,151.9L389.0,160.5Z"/>
    <path class="wtc-county" id="wtc-county-suffolk" data-county="Suffolk" d="M373.5,134.4L382.0,142.1L384.5,137.7L392.0,136.5L394.5,131.5L401.6,130.2L400.6,124.7L407.1,125.9L401.6,117.0L405.6,111.9L396.5,111.8L390.5,122.5L386.0,124.7L382.0,121.7L376.0,124.9L378.5,127.8L385.5,125.1L379.0,132.7L377.5,131.5L373.5,134.4Z"/>
    <path class="wtc-county" id="wtc-county-worcester" data-county="Worcester" d="M221.0,73.0L222.5,79.6L228.5,81.3L228.5,87.8L223.5,90.0L223.0,99.3L226.5,102.2L220.0,106.9L221.0,112.3L218.0,115.2L216.5,125.9L220.0,124.7L222.0,131.7L231.0,130.4L229.5,139.7L223.5,148.2L232.5,151.3L241.6,151.3L241.6,169.7L246.1,169.9L288.2,170.6L288.7,172.8L330.8,171.5L331.3,159.9L333.4,152.0L329.8,147.1L322.8,148.4L316.3,143.4L322.3,136.4L329.3,137.0L332.3,127.8L318.8,130.4L312.8,124.9L322.3,116.4L324.3,108.7L321.8,107.6L326.3,101.3L324.8,98.0L313.8,96.7L311.3,100.7L305.3,99.8L307.3,88.4L291.7,83.8L280.2,85.3L280.7,79.6L274.7,74.5L270.7,74.4L221.0,73.0Z"/>
  </g>
</svg>