<?xml version="1.0" encoding="UTF-8"?>
<svg xmlns="http://www.w3.org/2000/svg" viewBox="0 0 600 561" id="wtc-state-map-CA" role="img" aria-label="ca county map">
  <title>ca Counties</title>
  <g class="wtc-counties">
    <path class="wtc-county" id="wtc-county-alameda" data-county="Alameda" d="M152.0,310.9L152.7,308.5L151.1,305.5L151.3,305.4L155.0,304.3L155.3,302.4L159.0,300.2L160.2,295.6L161.9,292.0L164.0,291.2L165.1,289.6L169.8,290.1L170.9,289.4L173.6,290.8L193.0,290.8L193.0,290.7L191.5,292.9L188.8,293.7L188.8,307.0L169.5,302.3L166.7,303.6L167.4,304.4L165.1,306.1L160.5,306.4L158.6,307.0L156.4,310.0L154.1,311.4L152.0,310.9Z"/>
    <path class="wtc-county" id="wtc-county-alpine" data-county="Alpine" d="M261.1,340.8L261.1,337.7L263.6,337.0L270.2,333.3L274.2,335.5L276.7,336.2L279.3,335.9L279.1,333.7L282.1,331.8L283.7,333.8L283.0,335.1L285.9,335.9L286.8,340.3L283.1,345.3L283.3,348.4L284.7,350.7L269.2,361.4L270.6,358.3L266.4,353.7L261.1,350.2L261.1,340.8Z"/>
    <path class="wtc-county" id="wtc-county-amador" data-county="Amador" d="M214.7,340.7L214.7,330.6L216.1,326.9L221.0,326.7L225.3,329.9L233.9,332.8L234.8,334.9L239.0,336.5L240.4,337.7L242.3,337.7L244.4,339.0L245.9,338.4L251.0,339.1L254.9,340.3L257.1,340.0L261.1,340.8L261.1,350.2L258.7,349.9L258.0,347.3L254.3,346.6L253.3,344.9L249.4,342.5L246.3,342.5L239.0,340.8L234.1,340.5L227.4,342.9L223.6,343.0L219.6,341.0L218.9,341.7L214.7,340.7Z"/>
    <path class="wtc-county" id="wtc-county-butte" data-county="Butte" d="M194.6,420.6L193.9,419.2L191.1,418.2L187.4,418.2L186.9,416.1L185.0,414.5L184.5,412.4L181.7,412.5L179.6,410.3L179.4,408.7L176.8,407.6L165.1,407.6L163.9,405.5L165.1,403.4L168.1,400.4L169.3,400.4L170.2,398.6L167.5,397.3L167.9,395.9L167.2,391.7L167.5,390.6L174.3,390.7L173.3,389.4L173.6,386.5L172.6,383.3L171.7,379.4L185.3,379.5L185.5,379.0L186.2,380.1L188.5,379.5L192.3,380.0L192.9,380.8L196.2,381.1L197.7,382.3L199.7,385.3L199.5,387.0L200.7,387.8L201.1,389.9L204.2,389.6L204.2,390.2L208.2,389.9L208.6,391.6L210.7,392.2L212.2,393.7L209.3,395.2L207.7,398.0L205.8,398.7L202.1,402.6L198.8,404.8L198.4,406.2L195.8,407.0L196.0,411.2L195.5,414.0L198.1,417.5L196.2,418.9L196.3,420.6L194.6,420.6Z"/>
    <path class="wtc-county" id="wtc-county-calaveras" data-county="Calaveras" d="M261.1,340.8L257.1,340.0L254.9,340.3L251.0,339.1L245.9,338.4L244.4,339.0L242.3,337.7L240.4,337.7L239.0,336.5L234.8,334.9L233.9,332.8L225.3,329.9L221.0,326.7L216.1,326.9L218.9,320.2L219.6,319.7L222.0,317.3L232.9,307.8L233.9,309.2L238.4,312.3L239.5,314.0L238.3,314.7L239.5,316.1L241.9,316.6L242.5,318.0L248.0,324.4L252.1,329.8L254.5,331.8L257.1,334.8L263.6,337.0L261.1,337.7L261.1,340.8Z"/>
    <path class="wtc-county" id="wtc-county-colusa" data-county="Colusa" d="M131.4,383.3L129.6,379.8L130.5,378.5L134.2,376.2L139.4,374.5L142.2,374.8L144.1,373.1L142.9,370.5L143.3,367.3L147.1,365.6L147.5,362.8L150.8,360.9L175.2,360.9L176.1,364.0L175.9,366.2L174.7,368.0L172.8,368.1L170.0,373.4L170.9,374.3L169.8,376.3L171.7,379.4L172.6,383.3L166.8,383.3L166.8,384.7L160.7,384.8L160.7,383.3L131.4,383.3Z"/>
    <path class="wtc-county" id="wtc-county-contra-costa" data-county="Contra Costa" d="M154.3,318.8L152.7,316.5L149.4,316.6L149.4,314.9L147.8,313.8L146.4,314.2L148.8,311.3L152.0,310.9L154.1,311.4L156.4,310.0L158.6,307.0L160.5,306.4L165.1,306.1L167.4,304.4L166.7,303.6L169.5,302.3L188.8,307.0L189.9,308.7L187.8,309.2L188.8,312.7L187.6,315.2L188.8,316.8L187.4,317.7L187.8,320.5L183.8,320.6L182.7,318.9L180.1,317.3L177.5,316.8L175.4,317.5L174.0,319.1L170.9,318.2L168.1,319.2L164.4,319.0L160.4,317.5L158.3,318.6L154.3,318.8Z"/>
    <path class="wtc-county" id="wtc-county-del-norte" data-county="Del Norte" d="M59.6,510.5L60.1,507.7L59.3,503.1L57.5,500.0L60.5,497.7L62.1,497.9L63.4,493.9L66.1,488.6L66.8,484.5L81.1,484.5L81.1,480.4L86.5,480.5L88.8,483.6L86.8,488.1L84.9,489.1L85.5,490.7L83.7,490.9L85.3,493.3L86.5,497.2L85.6,498.2L85.8,500.7L84.4,502.1L87.0,503.8L87.4,505.1L89.3,504.9L91.2,505.9L93.5,510.6L86.7,510.3L78.6,510.4L59.6,510.5Z"/>
    <path class="wtc-county" id="wtc-county-el-dorado" data-county="El Dorado" d="M264.5,367.9L257.6,367.9L255.7,366.1L252.9,365.7L243.5,366.0L241.8,362.9L239.7,361.2L236.7,360.4L233.4,361.9L229.2,364.8L225.2,364.6L222.9,362.3L218.9,362.8L218.9,361.5L214.0,360.5L212.9,357.1L211.0,355.6L211.0,354.2L209.1,350.6L210.1,350.8L214.7,340.7L218.9,341.7L219.6,341.0L223.6,343.0L227.4,342.9L234.1,340.5L239.0,340.8L246.3,342.5L249.4,342.5L253.3,344.9L254.3,346.6L258.0,347.3L258.7,349.9L261.1,350.2L266.4,353.7L270.6,358.3L269.2,361.4L264.6,364.6L264.5,367.9Z"/>
    <path class="wtc-county" id="wtc-county-fresno" data-county="Fresno" d="M238.3,269.4L235.5,267.2L235.8,265.0L232.7,265.0L219.9,254.6L235.3,242.4L235.6,234.6L232.5,234.0L231.6,231.7L231.5,230.9L234.1,228.5L232.0,226.6L233.0,223.9L235.3,223.6L235.8,222.1L238.3,220.4L241.2,219.1L243.5,217.1L247.2,216.9L249.3,214.1L266.6,227.5L266.6,238.1L276.5,238.2L276.9,238.9L280.5,239.6L280.9,239.0L285.4,242.4L290.7,246.6L298.3,246.5L298.5,250.8L314.1,250.6L314.1,254.7L344.4,254.9L342.9,259.2L344.1,259.5L344.1,262.2L341.5,266.9L340.6,269.9L336.1,272.7L332.9,274.0L330.5,274.1L328.6,278.5L329.4,279.8L328.2,281.9L324.0,283.6L323.7,286.1L324.9,288.5L324.2,289.8L323.1,291.1L320.5,290.4L317.4,294.1L314.4,294.4L312.1,295.8L298.0,284.4L296.9,282.5L297.3,277.5L294.5,274.6L292.4,275.3L289.8,272.7L289.4,274.0L287.7,273.5L286.5,274.3L285.8,272.9L287.2,272.4L285.9,270.5L283.8,270.7L283.1,268.6L281.6,269.3L280.7,267.7L279.1,267.5L277.2,265.8L277.6,264.7L274.8,262.2L273.7,260.0L270.2,260.4L267.4,259.2L265.3,259.5L263.2,258.3L260.8,258.8L253.5,256.1L246.6,256.8L246.6,258.1L242.5,260.6L242.6,263.0L239.8,267.6L238.3,269.4Z"/>
    <path class="wtc-county" id="wtc-county-glenn" data-county="Glenn" d="M121.6,403.4L121.6,401.0L122.8,401.0L123.9,399.1L124.2,392.8L131.6,392.9L131.7,386.5L131.4,383.3L160.7,383.3L160.7,384.8L166.8,384.7L166.8,383.3L172.6,383.3L173.6,386.5L173.3,389.4L174.3,390.7L167.5,390.6L167.2,391.7L167.9,395.9L167.5,397.3L170.2,398.6L169.3,400.4L168.1,400.4L165.1,403.4L121.6,403.4Z"/>
    <path class="wtc-county" id="wtc-county-humboldt" data-county="Humboldt" d="M66.8,484.5L66.4,480.2L64.8,473.1L62.9,468.9L62.2,468.9L62.4,464.8L64.5,463.3L63.3,458.3L61.4,454.3L54.0,443.2L51.6,438.7L50.0,434.6L52.3,431.5L53.0,428.6L52.3,425.9L60.8,419.6L64.7,418.3L66.1,416.5L66.1,414.7L68.9,413.3L92.1,413.4L92.1,447.0L92.3,449.0L90.7,454.9L88.4,458.4L91.2,459.4L94.5,457.8L96.8,459.1L96.8,460.3L98.7,462.8L97.9,464.9L96.5,465.3L97.7,469.2L98.7,470.7L97.3,473.0L95.6,479.7L94.2,480.5L86.5,480.5L81.1,480.4L81.1,484.5L66.8,484.5Z"/>
    <path class="wtc-county" id="wtc-county-imperial" data-county="Imperial" d="M455.2,93.4L455.3,76.3L454.1,76.3L454.1,54.1L485.2,56.5L521.5,59.0L522.4,60.3L526.6,59.7L531.0,60.8L530.6,62.5L533.8,65.1L533.9,68.4L533.1,69.5L531.5,74.0L528.5,74.5L527.3,73.9L525.0,75.0L524.5,74.2L522.1,77.1L523.3,79.9L523.6,85.8L521.0,87.5L522.6,90.3L521.2,92.4L525.2,92.9L526.1,93.8L486.4,93.5L485.0,93.4L455.2,93.4Z"/>
    <path class="wtc-county" id="wtc-county-inyo" data-county="Inyo" d="M324.2,289.8L324.9,288.5L323.7,286.1L324.0,283.6L328.2,281.9L329.4,279.8L328.6,278.5L330.5,274.1L332.9,274.0L336.1,272.7L340.6,269.9L341.5,266.9L344.1,262.2L344.1,259.5L342.9,259.2L344.4,254.9L345.7,253.0L344.1,252.3L346.4,249.2L347.9,248.0L347.8,245.8L349.9,244.6L350.0,242.0L351.6,239.7L354.9,239.1L354.2,237.5L357.0,235.1L355.8,233.3L357.0,228.8L359.1,226.3L358.6,223.4L359.5,222.5L360.3,219.1L361.6,218.2L361.0,216.7L362.3,215.9L362.8,212.2L361.7,212.0L361.6,208.4L365.6,208.2L365.6,208.8L379.7,208.8L427.6,208.7L472.1,208.6L472.1,209.3L476.3,209.4L466.7,216.9L447.0,232.1L402.4,265.9L370.1,289.9L324.2,289.8Z"/>
    <path class="wtc-county" id="wtc-county-kern" data-county="Kern" d="M255.2,208.4L255.2,199.8L260.4,199.9L260.4,195.6L263.1,194.2L264.8,191.4L270.4,191.3L270.4,187.1L273.9,187.1L273.9,182.8L280.9,182.8L280.9,178.5L286.3,178.7L285.9,174.2L289.4,174.4L290.3,173.7L290.3,165.2L291.7,165.2L294.7,165.2L294.7,164.1L299.7,164.1L299.7,163.0L301.5,163.1L301.5,160.9L314.4,160.9L314.4,159.8L318.9,159.8L320.3,161.1L346.0,161.2L378.2,161.4L379.9,161.3L379.9,191.9L379.7,201.7L380.6,203.1L378.9,203.1L379.7,204.5L379.7,208.8L365.6,208.8L365.6,208.2L361.6,208.4L358.6,208.5L343.6,208.4L322.8,208.4L287.2,208.4L255.2,208.4Z"/>
    <path class="wtc-county" id="wtc-county-kings" data-county="Kings" d="M249.3,214.1L251.2,214.1L252.9,212.1L252.1,211.1L253.8,209.8L254.2,208.4L255.2,208.4L287.2,208.4L287.2,225.3L287.5,231.7L290.1,231.7L290.1,238.1L287.5,238.2L287.7,242.4L285.4,242.4L280.9,239.0L280.5,239.6L276.9,238.9L276.5,238.2L266.6,238.1L266.6,227.5L249.3,214.1Z"/>
    <path class="wtc-county" id="wtc-county-lake" data-county="Lake" d="M124.2,392.8L124.0,390.3L121.8,389.7L117.4,389.8L115.5,389.1L115.0,384.4L116.7,381.0L117.8,380.3L117.8,378.1L118.8,376.1L116.4,373.1L114.8,373.1L114.1,368.1L115.5,367.8L115.8,365.6L117.2,364.5L119.3,364.5L120.0,361.3L121.1,359.7L123.9,359.5L123.7,358.8L127.4,357.3L130.9,355.1L133.7,350.5L135.7,350.3L136.8,348.4L144.7,350.2L148.0,355.0L149.2,355.7L148.1,358.0L146.8,359.9L147.6,361.0L150.8,360.9L147.5,362.8L147.1,365.6L143.3,367.3L142.9,370.5L144.1,373.1L142.2,374.8L139.4,374.5L134.2,376.2L130.5,378.5L129.6,379.8L131.4,383.3L131.7,386.5L131.6,392.9L124.2,392.8Z"/>
    <path class="wtc-county" id="wtc-county-lassen" data-county="Lassen" d="M199.8,470.9L199.8,457.3L200.4,457.3L200.0,434.9L212.9,435.0L212.9,425.7L215.7,424.0L218.5,424.0L219.4,422.6L222.2,423.0L222.2,425.0L225.9,426.8L227.4,428.6L232.9,428.2L234.2,427.1L236.5,427.1L236.5,426.1L239.8,425.4L241.1,423.3L242.5,423.3L244.7,420.4L248.0,418.9L252.6,418.5L254.3,417.5L254.9,413.9L256.6,411.7L259.4,410.3L259.4,403.2L257.5,399.0L263.8,399.1L264.5,399.8L264.6,400.3L264.8,416.7L264.8,448.3L264.6,449.8L264.6,470.9L222.0,470.9L199.8,470.9Z"/>
    <path class="wtc-county" id="wtc-county-los-angeles" data-county="Los Angeles" d="M332.6,95.9L334.7,93.8L338.2,93.1L338.2,90.0L339.2,88.5L343.7,88.2L346.0,87.2L346.9,89.0L344.1,91.5L343.9,92.6L340.3,93.5L335.4,95.7L332.6,95.9ZM332.4,74.2L333.4,73.1L335.9,68.1L338.2,65.1L341.1,63.3L343.0,64.2L344.8,64.0L337.8,69.4L334.0,74.3L332.4,74.2ZM318.9,159.8L330.1,137.1L331.2,133.1L329.4,132.8L329.4,129.5L323.5,129.5L316.2,125.0L316.0,123.5L320.3,123.0L322.8,121.4L325.6,122.9L329.4,123.2L335.5,123.2L338.5,121.1L340.4,118.4L342.9,113.6L342.7,111.8L341.1,110.4L341.8,108.8L344.4,108.5L346.2,107.5L349.3,106.9L353.0,107.8L353.4,109.8L356.3,108.8L357.4,109.6L357.7,111.7L360.5,115.2L363.1,116.8L363.1,118.7L372.4,118.7L371.5,120.1L373.3,122.4L375.0,122.4L377.6,129.4L379.2,135.4L378.9,137.8L378.2,148.5L378.2,161.4L346.0,161.2L320.3,161.1L318.9,159.8Z"/>
    <path class="wtc-county" id="wtc-county-madera" data-county="Madera" d="M238.3,269.4L239.8,267.6L242.6,263.0L242.5,260.6L246.6,258.1L246.6,256.8L253.5,256.1L260.8,258.8L263.2,258.3L265.3,259.5L267.4,259.2L270.2,260.4L273.7,260.0L274.8,262.2L277.6,264.7L277.2,265.8L279.1,267.5L280.7,267.7L281.6,269.3L283.1,268.6L283.8,270.7L285.9,270.5L287.2,272.4L285.8,272.9L286.5,274.3L287.7,273.5L289.4,274.0L289.8,272.7L292.4,275.3L294.5,274.6L297.3,277.5L296.9,282.5L298.0,284.4L312.1,295.8L311.6,297.9L310.0,300.6L307.2,303.0L303.6,303.1L302.7,302.0L300.1,303.3L298.2,305.1L284.9,294.6L284.9,291.3L283.3,291.3L283.3,289.8L281.6,289.7L281.6,287.6L276.2,287.6L262.0,276.2L259.4,275.4L253.5,275.3L241.4,272.0L238.3,269.4Z"/>
    <path class="wtc-county" id="wtc-county-marin" data-county="Marin" d="M118.5,330.3L120.2,328.1L119.0,327.3L121.1,323.4L120.6,321.4L118.1,316.1L121.6,317.5L124.4,317.2L127.4,315.8L129.1,313.6L133.1,310.8L135.4,311.3L139.9,308.7L141.5,307.1L144.1,307.8L142.9,310.8L144.8,309.6L146.1,310.2L142.7,312.5L143.4,314.3L145.5,315.4L142.9,317.5L143.8,319.4L143.4,321.3L139.6,325.0L135.7,324.7L131.2,326.0L123.0,331.6L120.2,331.3L118.5,330.3Z"/>
    <path class="wtc-county" id="wtc-county-mariposa" data-county="Mariposa" d="M298.2,305.1L294.8,308.1L292.4,309.4L289.3,309.3L287.5,310.7L285.2,310.9L283.8,309.0L281.6,308.1L281.6,307.2L276.9,305.0L273.7,304.1L271.1,304.9L267.6,304.4L263.4,306.8L260.6,307.6L258.3,305.3L255.7,306.0L255.6,304.8L252.9,304.5L251.9,303.0L247.9,302.6L249.6,299.6L248.6,298.9L245.6,300.5L245.8,298.1L251.0,289.6L251.7,286.8L255.7,281.5L255.9,280.0L260.4,277.9L262.0,276.2L276.2,287.6L281.6,287.6L281.6,289.7L283.3,289.8L283.3,291.3L284.9,291.3L284.9,294.6L298.2,305.1Z"/>
    <path class="wtc-county" id="wtc-county-mendocino" data-county="Mendocino" d="M68.9,413.3L73.4,408.9L74.4,406.6L77.2,405.1L77.9,400.6L80.4,396.7L80.4,394.0L81.3,391.8L79.0,386.3L78.5,382.2L79.7,377.8L82.5,372.6L84.9,367.4L85.1,365.6L82.7,362.4L86.8,357.5L92.6,353.3L94.4,353.8L100.6,353.8L100.6,355.2L112.0,355.3L112.0,356.8L114.6,357.4L127.4,357.3L123.7,358.8L123.9,359.5L121.1,359.7L120.0,361.3L119.3,364.5L117.2,364.5L115.8,365.6L115.5,367.8L114.1,368.1L114.8,373.1L116.4,373.1L118.8,376.1L117.8,378.1L117.8,380.3L116.7,381.0L115.0,384.4L115.5,389.1L117.4,389.8L121.8,389.7L124.0,390.3L124.2,392.8L123.9,399.1L122.8,401.0L121.6,401.0L121.6,403.4L120.6,405.7L121.1,408.8L122.5,409.2L121.8,412.2L92.1,412.1L92.1,413.4L68.9,413.3Z"/>
    <path class="wtc-county" id="wtc-county-merced" data-county="Merced" d="M204.9,273.8L204.0,271.7L205.8,270.6L204.0,268.5L204.0,266.5L205.4,265.4L204.6,263.7L206.3,263.1L208.6,260.7L209.1,259.3L219.2,255.2L219.9,254.6L232.7,265.0L235.8,265.0L235.5,267.2L238.3,269.4L241.4,272.0L253.5,275.3L259.4,275.4L262.0,276.2L260.4,277.9L255.9,280.0L255.7,281.5L251.7,286.8L251.0,289.6L245.8,298.1L216.8,286.7L217.7,284.1L204.9,273.8Z"/>
    <path class="wtc-county" id="wtc-county-modoc" data-county="Modoc" d="M194.3,510.4L193.7,508.1L193.7,499.7L194.1,499.7L194.1,482.8L194.3,470.8L199.8,470.9L222.0,470.9L264.6,470.9L264.6,510.3L264.6,510.3L248.6,510.2L221.8,510.3L214.2,510.2L194.3,510.4Z"/>
    <path class="wtc-county" id="wtc-county-mono" data-county="Mono" d="M282.1,331.8L281.7,329.7L283.8,327.5L282.6,325.5L288.2,322.6L289.1,323.4L291.5,320.6L292.4,321.4L296.1,320.1L298.3,317.4L297.6,314.4L298.5,313.2L302.9,311.0L302.7,308.9L303.4,305.9L300.1,303.3L302.7,302.0L303.6,303.1L307.2,303.0L310.0,300.6L311.6,297.9L312.1,295.8L314.4,294.4L317.4,294.1L320.5,290.4L323.1,291.1L324.2,289.8L370.1,289.9L359.3,297.7L341.1,310.9L320.2,325.9L309.2,333.5L305.7,336.1L297.3,342.0L284.7,350.7L283.3,348.4L283.1,345.3L286.8,340.3L285.9,335.9L283.0,335.1L283.7,333.8L282.1,331.8Z"/>
    <path class="wtc-county" id="wtc-county-monterey" data-county="Monterey" d="M176.4,260.0L177.7,257.7L176.3,251.8L175.0,249.3L173.5,248.0L170.3,249.6L168.6,246.5L170.5,245.9L170.2,242.0L172.1,237.8L171.9,236.0L173.3,232.7L175.2,230.8L181.0,228.1L185.3,224.2L188.0,219.9L191.5,218.7L192.3,217.2L193.4,213.1L195.8,211.6L199.1,208.7L210.3,208.6L254.2,208.4L253.8,209.8L252.1,211.1L252.9,212.1L251.2,214.1L249.3,214.1L247.2,216.9L243.5,217.1L241.2,219.1L238.3,220.4L235.8,222.1L235.3,223.6L233.0,223.9L232.0,226.6L234.1,228.5L231.5,230.9L231.6,231.7L228.3,233.7L229.7,231.3L230.2,228.6L227.6,228.5L222.5,232.9L219.6,233.7L218.2,232.0L216.6,232.9L215.4,231.6L214.2,232.0L214.0,233.7L212.2,235.8L204.7,241.9L204.2,243.2L200.7,243.1L201.6,244.4L200.0,245.6L200.4,248.3L198.3,250.6L193.2,252.0L192.3,253.3L193.9,253.8L192.7,255.7L190.6,256.2L186.9,259.4L185.7,259.8L184.6,262.1L181.9,263.4L177.7,261.7L176.4,260.0Z"/>
    <path class="wtc-county" id="wtc-county-napa" data-county="Napa" d="M136.8,348.4L135.9,345.1L137.1,343.2L140.8,341.3L141.5,338.8L143.8,338.0L143.1,336.6L145.5,334.4L145.0,333.8L148.1,330.8L147.6,329.6L149.4,328.0L150.2,325.4L149.2,323.6L147.5,323.5L157.8,323.5L156.9,324.7L157.9,326.3L156.7,328.7L158.1,329.2L157.2,331.3L164.2,331.3L163.0,334.6L161.1,336.8L162.3,340.9L161.1,344.3L159.2,347.8L156.4,350.0L153.2,356.8L150.2,356.6L148.1,358.0L149.2,355.7L148.0,355.0L144.7,350.2L136.8,348.4Z"/>
    <path class="wtc-county" id="wtc-county-nevada" data-county="Nevada" d="M214.9,383.6L211.9,383.8L209.8,383.1L206.0,380.0L205.3,378.3L203.0,377.9L202.3,375.8L202.3,366.3L206.8,365.2L209.3,366.5L210.8,365.2L214.0,365.3L216.4,368.3L217.0,370.0L220.5,372.9L222.4,373.4L222.9,374.7L225.5,375.9L229.2,378.6L233.2,379.9L264.3,380.0L264.5,386.3L240.2,386.3L238.6,387.1L237.6,389.6L236.0,390.1L231.6,389.8L228.5,387.1L225.7,385.9L222.9,385.7L221.8,385.5L216.1,384.7L214.9,383.6Z"/>
    <path class="wtc-county" id="wtc-county-orange" data-county="Orange" d="M356.3,108.8L358.8,107.3L361.9,104.5L365.4,102.1L367.8,101.5L372.4,99.0L375.7,95.1L377.3,95.1L379.9,93.6L381.6,91.5L382.3,94.8L385.8,95.5L385.8,97.2L385.7,98.7L390.6,104.7L387.4,106.9L384.6,107.2L384.4,109.5L382.3,110.1L377.8,115.0L372.4,118.7L363.1,118.7L363.1,116.8L360.5,115.2L357.7,111.7L357.4,109.6L356.3,108.8Z"/>
    <path class="wtc-county" id="wtc-county-placer" data-county="Placer" d="M195.8,364.4L195.8,361.0L193.0,361.0L193.0,352.5L192.3,351.7L209.1,350.6L211.0,354.2L211.0,355.6L212.9,357.1L214.0,360.5L218.9,361.5L218.9,362.8L222.9,362.3L225.2,364.6L229.2,364.8L233.4,361.9L236.7,360.4L239.7,361.2L241.8,362.9L243.5,366.0L252.9,365.7L255.7,366.1L257.6,367.9L264.5,367.9L264.5,370.1L264.5,372.6L264.3,380.0L233.2,379.9L229.2,378.6L225.5,375.9L222.9,374.7L222.4,373.4L220.5,372.9L217.0,370.0L216.4,368.3L214.0,365.3L210.8,365.2L209.3,366.5L206.8,365.2L202.3,366.3L201.1,367.2L198.1,366.2L195.8,364.4Z"/>
    <path class="wtc-county" id="wtc-county-plumas" data-county="Plumas" d="M191.8,434.9L193.0,430.4L197.4,429.8L199.3,428.3L197.6,427.8L199.0,426.7L198.1,423.6L196.2,422.6L194.6,422.8L194.6,420.6L196.3,420.6L196.2,418.9L198.1,417.5L195.5,414.0L196.0,411.2L195.8,407.0L198.4,406.2L198.8,404.8L202.1,402.6L205.8,398.7L207.7,398.0L209.3,395.2L212.2,393.7L215.6,395.7L218.4,397.3L219.2,400.6L222.2,402.4L225.0,400.8L226.2,399.1L228.0,399.6L231.5,397.6L233.5,399.0L257.5,399.0L259.4,403.2L259.4,410.3L256.6,411.7L254.9,413.9L254.3,417.5L252.6,418.5L248.0,418.9L244.7,420.4L242.5,423.3L241.1,423.3L239.8,425.4L236.5,426.1L236.5,427.1L234.2,427.1L232.9,428.2L227.4,428.6L225.9,426.8L222.2,425.0L222.2,423.0L219.4,422.6L218.5,424.0L215.7,424.0L212.9,425.7L212.9,435.0L200.0,434.9L191.8,434.9Z"/>
    <path class="wtc-county" id="wtc-county-riverside" data-county="Riverside" d="M535.3,125.2L492.5,125.1L492.5,123.0L434.4,122.9L414.0,123.0L414.0,121.6L400.2,121.5L399.6,122.2L392.5,122.3L392.3,123.0L383.4,122.9L383.4,120.8L380.9,119.9L380.8,117.7L378.7,117.6L377.8,115.0L382.3,110.1L384.4,109.5L384.6,107.2L387.4,106.9L390.6,104.7L385.7,98.7L385.8,97.2L392.8,97.2L392.5,96.5L398.8,94.5L398.9,93.7L409.1,93.4L455.2,93.4L485.0,93.4L486.4,93.5L526.1,93.8L526.2,94.9L529.4,98.5L531.0,99.5L530.3,101.5L531.0,106.1L532.4,106.6L532.0,109.6L530.8,112.3L531.0,114.5L532.0,114.7L531.7,117.0L530.4,117.8L535.3,122.7L535.3,125.2Z"/>
    <path class="wtc-county" id="wtc-county-sacramento" data-county="Sacramento" d="M187.1,331.2L186.0,325.5L182.6,323.7L181.3,320.1L179.8,320.2L177.1,318.9L174.0,319.1L175.4,317.5L177.5,316.8L180.1,317.3L182.7,318.9L183.8,320.6L187.8,320.5L187.4,321.8L189.9,323.3L190.2,325.4L192.5,328.3L195.1,328.3L196.0,327.2L199.1,327.0L202.8,328.2L205.1,327.8L207.5,328.4L212.8,330.5L214.7,330.6L214.7,340.7L210.1,350.8L209.1,350.6L192.3,351.7L186.6,351.7L185.2,349.3L187.1,347.3L188.5,347.2L189.0,345.3L191.1,345.2L190.4,341.2L189.0,341.0L189.5,339.2L191.3,338.8L191.5,337.4L190.1,336.8L190.6,333.5L187.6,332.1L187.1,331.2Z"/>
    <path class="wtc-county" id="wtc-county-san-benito" data-county="San Benito" d="M184.6,262.1L185.7,259.8L186.9,259.4L190.6,256.2L192.7,255.7L193.9,253.8L192.3,253.3L193.2,252.0L198.3,250.6L200.4,248.3L200.0,245.6L201.6,244.4L200.7,243.1L204.2,243.2L204.7,241.9L212.2,235.8L214.0,233.7L214.2,232.0L215.4,231.6L216.6,232.9L218.2,232.0L219.6,233.7L222.5,232.9L227.6,228.5L230.2,228.6L229.7,231.3L228.3,233.7L231.6,231.7L232.5,234.0L235.6,234.6L235.3,242.4L219.9,254.6L219.2,255.2L209.1,259.3L208.6,260.7L206.3,263.1L204.6,263.7L205.4,265.4L195.7,265.4L193.9,266.7L192.2,266.5L188.7,262.3L187.6,262.4L185.3,263.0L184.6,262.1Z"/>
    <path class="wtc-county" id="wtc-county-san-bernardino" data-county="San Bernardino" d="M378.2,161.4L378.2,148.5L378.9,137.8L379.2,135.4L377.6,129.4L375.0,122.4L373.3,122.4L371.5,120.1L372.4,118.7L377.8,115.0L378.7,117.6L380.8,117.7L380.9,119.9L383.4,120.8L383.4,122.9L392.3,123.0L392.5,122.3L399.6,122.2L400.2,121.5L414.0,121.6L414.0,123.0L434.4,122.9L492.5,123.0L492.5,125.1L535.3,125.2L536.0,126.4L540.7,128.0L542.5,129.6L545.5,130.5L545.6,131.3L550.0,134.0L549.8,136.1L547.9,138.3L545.5,139.1L540.0,143.3L537.8,143.6L538.1,146.0L533.6,156.0L529.6,158.6L528.3,161.5L525.6,163.9L525.7,170.0L500.1,190.6L487.8,200.4L476.3,209.4L472.1,209.3L472.1,208.6L427.6,208.7L379.7,208.8L379.7,204.5L378.9,203.1L380.6,203.1L379.7,201.7L379.9,191.9L379.9,161.3L378.2,161.4Z"/>
    <path class="wtc-county" id="wtc-county-san-diego" data-county="San Diego" d="M381.6,91.5L386.0,88.9L393.0,80.8L394.6,78.6L396.8,73.3L398.4,66.6L396.8,64.0L398.2,62.3L398.1,59.3L398.6,56.6L401.0,57.5L402.4,56.7L404.0,54.1L404.5,50.0L454.1,54.1L454.1,76.3L455.3,76.3L455.2,93.4L409.1,93.4L398.9,93.7L398.8,94.5L392.5,96.5L392.8,97.2L385.8,97.2L385.8,95.5L382.3,94.8L381.6,91.5Z"/>
    <path class="wtc-county" id="wtc-county-san-francisco" data-county="San Francisco" d="M148.3,301.8L149.7,302.1L148.5,305.8L147.5,306.8L144.7,306.4L142.2,305.3L142.9,301.8L148.3,301.8Z"/>
    <path class="wtc-county" id="wtc-county-san-joaquin" data-county="San Joaquin" d="M187.8,320.5L187.4,317.7L188.8,316.8L187.6,315.2L188.8,312.7L187.8,309.2L189.9,308.7L188.8,307.0L188.8,293.7L191.5,292.9L193.0,290.7L204.2,299.6L208.9,302.2L213.1,303.8L214.5,303.3L216.1,304.3L219.8,303.2L219.6,319.7L218.9,320.2L216.1,326.9L214.7,330.6L212.8,330.5L207.5,328.4L205.1,327.8L202.8,328.2L199.1,327.0L196.0,327.2L195.1,328.3L192.5,328.3L190.2,325.4L189.9,323.3L187.4,321.8L187.8,320.5Z"/>
    <path class="wtc-county" id="wtc-county-san-luis-obispo" data-county="San Luis Obispo" d="M199.1,208.7L200.5,206.6L200.7,204.7L203.7,201.9L207.9,200.9L211.0,196.7L215.7,192.4L220.5,191.8L222.4,189.6L222.7,187.5L221.0,182.0L222.9,180.0L227.6,177.7L228.1,178.6L230.6,178.3L233.7,176.0L233.9,173.0L233.0,168.8L234.2,168.2L240.2,169.6L243.5,169.3L250.1,165.6L250.3,167.4L248.2,170.1L251.9,171.2L254.3,171.0L255.7,171.8L256.4,173.6L258.3,174.6L260.4,175.5L266.0,172.7L268.1,172.8L271.6,171.5L272.8,170.3L276.9,168.8L280.5,168.7L283.3,167.6L287.2,165.0L290.3,165.2L290.3,173.7L289.4,174.4L285.9,174.2L286.3,178.7L280.9,178.5L280.9,182.8L273.9,182.8L273.9,187.1L270.4,187.1L270.4,191.3L264.8,191.4L263.1,194.2L260.4,195.6L260.4,199.9L255.2,199.8L255.2,208.4L254.2,208.4L210.3,208.6L199.1,208.7Z"/>
    <path class="wtc-county" id="wtc-county-san-mateo" data-county="San Mateo" d="M142.9,301.8L143.3,298.6L142.0,295.3L142.2,292.6L143.3,291.3L145.4,290.7L145.7,288.5L147.8,284.8L146.9,279.4L147.6,276.8L150.6,274.3L150.9,273.0L153.0,272.5L151.8,276.4L155.5,276.5L155.5,277.8L159.8,277.8L159.8,281.2L157.9,282.8L158.8,283.2L157.4,284.8L158.1,288.3L159.3,289.3L161.9,290.0L160.5,292.0L159.2,291.8L154.4,295.1L149.7,296.1L150.1,297.2L148.3,301.8L142.9,301.8Z"/>
    <path class="wtc-county" id="wtc-county-santa-barbara" data-county="Santa Barbara" d="M310.4,96.6L310.0,95.4L312.0,95.1L311.8,96.9L310.4,96.6ZM268.5,125.1L270.6,122.9L270.7,120.3L278.1,119.3L281.1,120.6L285.9,121.1L287.9,122.9L284.4,123.7L283.1,122.1L279.8,122.3L276.5,124.1L273.9,123.9L271.6,124.8L268.5,125.1ZM252.6,121.4L255.9,117.8L258.7,116.3L265.9,118.5L265.7,120.5L262.5,121.1L262.5,123.1L260.3,122.3L258.0,122.6L256.4,121.7L252.6,121.4ZM242.8,123.1L246.3,122.2L250.0,122.5L247.7,123.6L246.6,125.0L245.6,123.9L242.8,123.1ZM233.0,168.8L232.0,165.3L234.9,163.1L233.5,158.1L235.5,155.6L233.2,149.6L234.2,148.3L236.3,148.4L239.1,147.2L241.4,144.4L241.6,143.1L250.0,144.0L257.6,144.3L260.3,143.7L264.3,143.7L270.7,141.2L274.6,141.6L277.7,140.6L280.5,141.6L286.1,141.4L290.0,139.7L291.5,141.0L291.7,143.9L291.7,165.2L290.3,165.2L287.2,165.0L283.3,167.6L280.5,168.7L276.9,168.8L272.8,170.3L271.6,171.5L268.1,172.8L266.0,172.7L260.4,175.5L258.3,174.6L256.4,173.6L255.7,171.8L254.3,171.0L251.9,171.2L248.2,170.1L250.3,167.4L250.1,165.6L243.5,169.3L240.2,169.6L234.2,168.2L233.0,168.8Z"/>
    <path class="wtc-county" id="wtc-county-santa-clara" data-county="Santa Clara" d="M161.9,290.0L159.3,289.3L158.1,288.3L157.4,284.8L158.8,283.2L157.9,282.8L159.8,281.2L163.0,278.1L165.8,276.5L167.7,274.3L172.6,272.4L174.0,272.4L179.1,269.7L184.5,264.0L187.6,263.3L187.6,262.4L188.7,262.3L192.2,266.5L193.9,266.7L195.7,265.4L205.4,265.4L204.0,266.5L204.0,268.5L205.8,270.6L204.0,271.7L204.9,273.8L202.3,276.2L200.0,275.4L198.6,276.3L196.9,274.5L195.7,277.6L193.7,279.4L193.6,281.1L196.2,282.4L195.3,284.7L196.0,285.9L193.7,286.5L193.0,287.9L193.0,290.8L173.6,290.8L170.9,289.4L169.8,290.1L165.1,289.6L161.9,290.0Z"/>
    <path class="wtc-county" id="wtc-county-santa-cruz" data-county="Santa Cruz" d="M159.8,281.2L159.8,277.8L155.5,277.8L155.5,276.5L151.8,276.4L153.0,272.5L157.2,268.0L162.1,265.1L168.6,265.1L170.2,266.2L171.9,265.8L174.0,264.0L176.4,260.0L177.7,261.7L181.9,263.4L184.6,262.1L185.3,263.0L187.6,262.4L187.6,263.3L184.5,264.0L179.1,269.7L174.0,272.4L172.6,272.4L167.7,274.3L165.8,276.5L163.0,278.1L159.8,281.2Z"/>
    <path class="wtc-county" id="wtc-county-shasta" data-county="Shasta" d="M143.1,470.8L145.5,469.7L144.8,466.6L142.4,466.1L141.7,462.9L138.0,460.5L137.8,456.6L134.9,453.5L135.2,451.5L132.3,449.3L133.0,448.5L130.7,446.7L132.8,443.8L133.3,441.1L130.0,440.3L128.4,438.2L126.3,437.9L123.5,435.0L119.0,433.6L117.6,431.2L115.3,429.6L115.5,427.2L119.3,428.4L121.8,428.4L122.7,428.2L124.7,430.2L125.6,430.0L130.7,431.0L135.4,429.2L141.9,432.2L144.8,431.5L150.4,431.3L160.7,432.6L162.8,433.3L166.8,434.0L170.2,433.5L174.5,434.8L180.3,434.5L182.6,435.3L184.5,434.4L191.8,434.9L200.0,434.9L200.4,457.3L199.8,457.3L199.8,470.9L194.3,470.8L143.1,470.8Z"/>
    <path class="wtc-county" id="wtc-county-sierra" data-county="Sierra" d="M215.6,395.7L214.7,391.8L213.1,390.7L214.3,389.6L214.9,383.6L216.1,384.7L221.8,385.5L222.9,385.7L225.7,385.9L228.5,387.1L231.6,389.8L236.0,390.1L237.6,389.6L238.6,387.1L240.2,386.3L264.5,386.3L264.5,399.8L263.8,399.1L257.5,399.0L233.5,399.0L231.5,397.6L228.0,399.6L226.2,399.1L225.0,400.8L222.2,402.4L219.2,400.6L218.4,397.3L215.6,395.7Z"/>
    <path class="wtc-county" id="wtc-county-siskiyou" data-county="Siskiyou" d="M93.5,510.6L91.2,505.9L89.3,504.9L87.4,505.1L87.0,503.8L84.4,502.1L85.8,500.7L85.6,498.2L86.5,497.2L85.3,493.3L83.7,490.9L85.5,490.7L84.9,489.1L86.8,488.1L88.8,483.6L86.5,480.5L94.2,480.5L95.6,479.7L97.3,473.0L98.7,470.7L104.1,468.8L106.8,465.7L112.5,465.6L116.2,463.8L117.1,462.1L120.0,462.5L121.8,461.6L123.5,463.2L122.5,465.1L120.2,466.1L120.9,469.3L123.9,471.8L128.4,472.0L132.1,474.7L135.1,476.1L135.7,477.4L138.7,478.1L140.5,479.5L143.6,477.7L142.4,475.4L142.2,471.9L143.1,470.8L194.3,470.8L194.1,482.8L194.1,499.7L193.7,499.7L193.7,508.1L194.3,510.4L167.4,510.7L153.2,511.0L142.9,511.0L136.4,510.8L116.4,510.7L111.5,511.0L107.5,510.7L101.7,510.5L93.5,510.6Z"/>
    <path class="wtc-county" id="wtc-county-solano" data-county="Solano" d="M147.5,323.5L148.0,322.9L152.7,321.1L154.3,318.8L158.3,318.6L160.4,317.5L164.4,319.0L168.1,319.2L170.9,318.2L174.0,319.1L177.1,318.9L179.8,320.2L181.3,320.1L182.6,323.7L186.0,325.5L187.1,331.2L182.2,331.3L182.2,341.6L179.9,342.1L177.7,341.4L174.2,342.1L170.2,341.9L166.7,339.7L164.6,341.1L162.3,340.9L161.1,336.8L163.0,334.6L164.2,331.3L157.2,331.3L158.1,329.2L156.7,328.7L157.9,326.3L156.9,324.7L157.8,323.5L147.5,323.5Z"/>
    <path class="wtc-county" id="wtc-county-sonoma" data-county="Sonoma" d="M92.6,353.3L96.1,350.8L102.6,343.5L106.4,340.8L108.9,340.0L112.3,337.9L115.3,333.4L115.5,330.6L118.5,330.3L120.2,331.3L123.0,331.6L131.2,326.0L135.7,324.7L139.6,325.0L143.4,321.3L145.9,321.6L148.0,322.9L147.5,323.5L149.2,323.6L150.2,325.4L149.4,328.0L147.6,329.6L148.1,330.8L145.0,333.8L145.5,334.4L143.1,336.6L143.8,338.0L141.5,338.8L140.8,341.3L137.1,343.2L135.9,345.1L136.8,348.4L135.7,350.3L133.7,350.5L130.9,355.1L127.4,357.3L114.6,357.4L112.0,356.8L112.0,355.3L100.6,355.2L100.6,353.8L94.4,353.8L92.6,353.3Z"/>
    <path class="wtc-county" id="wtc-county-stanislaus" data-county="Stanislaus" d="M193.0,290.8L193.0,287.9L193.7,286.5L196.0,285.9L195.3,284.7L196.2,282.4L193.6,281.1L193.7,279.4L195.7,277.6L196.9,274.5L198.6,276.3L200.0,275.4L202.3,276.2L204.9,273.8L217.7,284.1L216.8,286.7L245.8,298.1L232.9,307.8L222.0,317.3L219.6,319.7L219.8,303.2L216.1,304.3L214.5,303.3L213.1,303.8L208.9,302.2L204.2,299.6L193.0,290.7L193.0,290.8Z"/>
    <path class="wtc-county" id="wtc-county-sutter" data-county="Sutter" d="M171.7,379.4L169.8,376.3L170.9,374.3L170.0,373.4L172.8,368.1L174.7,368.0L175.9,366.2L176.1,364.0L175.2,360.9L176.8,360.5L176.3,358.6L177.8,357.6L179.4,358.3L180.8,357.3L180.8,355.0L182.6,353.1L187.1,353.1L186.6,351.7L192.3,351.7L193.0,352.5L193.0,361.0L195.8,361.0L195.8,364.4L192.2,364.2L189.5,363.2L188.0,360.6L186.2,367.4L187.4,369.0L185.9,373.5L186.0,375.7L185.0,377.3L185.5,379.0L185.3,379.5L171.7,379.4Z"/>
    <path class="wtc-county" id="wtc-county-tehama" data-county="Tehama" d="M119.3,428.4L115.5,427.2L116.2,426.3L119.7,425.0L120.0,422.3L119.2,420.3L120.6,418.1L120.9,413.2L121.8,412.2L122.5,409.2L121.1,408.8L120.6,405.7L121.6,403.4L165.1,403.4L163.9,405.5L165.1,407.6L176.8,407.6L179.4,408.7L179.6,410.3L181.7,412.5L184.5,412.4L185.0,414.5L186.9,416.1L187.4,418.2L191.1,418.2L193.9,419.2L194.6,420.6L194.6,422.8L196.2,422.6L198.1,423.6L199.0,426.7L197.6,427.8L199.3,428.3L197.4,429.8L193.0,430.4L191.8,434.9L184.5,434.4L182.6,435.3L180.3,434.5L174.5,434.8L170.2,433.5L166.8,434.0L162.8,433.3L160.7,432.6L150.4,431.3L144.8,431.5L141.9,432.2L135.4,429.2L130.7,431.0L125.6,430.0L124.7,430.2L122.7,428.2L121.8,428.4L119.3,428.4Z"/>
    <path class="wtc-county" id="wtc-county-trinity" data-county="Trinity" d="M98.7,470.7L97.7,469.2L96.5,465.3L97.9,464.9L98.7,462.8L96.8,460.3L96.8,459.1L94.5,457.8L91.2,459.4L88.4,458.4L90.7,454.9L92.3,449.0L92.1,447.0L92.1,413.4L92.1,412.1L121.8,412.2L120.9,413.2L120.6,418.1L119.2,420.3L120.0,422.3L119.7,425.0L116.2,426.3L115.5,427.2L115.3,429.6L117.6,431.2L119.0,433.6L123.5,435.0L126.3,437.9L128.4,438.2L130.0,440.3L133.3,441.1L132.8,443.8L130.7,446.7L133.0,448.5L132.3,449.3L135.2,451.5L134.9,453.5L137.8,456.6L138.0,460.5L141.7,462.9L142.4,466.1L144.8,466.6L145.5,469.7L143.1,470.8L142.2,471.9L142.4,475.4L143.6,477.7L140.5,479.5L138.7,478.1L135.7,477.4L135.1,476.1L132.1,474.7L128.4,472.0L123.9,471.8L120.9,469.3L120.2,466.1L122.5,465.1L123.5,463.2L121.8,461.6L120.0,462.5L117.1,462.1L116.2,463.8L112.5,465.6L106.8,465.7L104.1,468.8L98.7,470.7Z"/>
    <path class="wtc-county" id="wtc-county-tulare" data-county="Tulare" d="M344.4,254.9L314.1,254.7L314.1,250.6L298.5,250.8L298.3,246.5L290.7,246.6L285.4,242.4L287.7,242.4L287.5,238.2L290.1,238.1L290.1,231.7L287.5,231.7L287.2,225.3L287.2,208.4L322.8,208.4L343.6,208.4L358.6,208.5L361.6,208.4L361.7,212.0L362.8,212.2L362.3,215.9L361.0,216.7L361.6,218.2L360.3,219.1L359.5,222.5L358.6,223.4L359.1,226.3L357.0,228.8L355.8,233.3L357.0,235.1L354.2,237.5L354.9,239.1L351.6,239.7L350.0,242.0L349.9,244.6L347.8,245.8L347.9,248.0L346.4,249.2L344.1,252.3L345.7,253.0L344.4,254.9Z"/>
    <path class="wtc-county" id="wtc-county-tuolumne" data-county="Tuolumne" d="M263.6,337.0L257.1,334.8L254.5,331.8L252.1,329.8L248.0,324.4L242.5,318.0L241.9,316.6L239.5,316.1L238.3,314.7L239.5,314.0L238.4,312.3L233.9,309.2L232.9,307.8L245.8,298.1L245.6,300.5L248.6,298.9L249.6,299.6L247.9,302.6L251.9,303.0L252.9,304.5L255.6,304.8L255.7,306.0L258.3,305.3L260.6,307.6L263.4,306.8L267.6,304.4L271.1,304.9L273.7,304.1L276.9,305.0L281.6,307.2L281.6,308.1L283.8,309.0L285.2,310.9L287.5,310.7L289.3,309.3L292.4,309.4L294.8,308.1L298.2,305.1L300.1,303.3L303.4,305.9L302.7,308.9L302.9,311.0L298.5,313.2L297.6,314.4L298.3,317.4L296.1,320.1L292.4,321.4L291.5,320.6L289.1,323.4L288.2,322.6L282.6,325.5L283.8,327.5L281.7,329.7L282.1,331.8L279.1,333.7L279.3,335.9L276.7,336.2L274.2,335.5L270.2,333.3L263.6,337.0Z"/>
    <path class="wtc-county" id="wtc-county-ventura" data-county="Ventura" d="M292.2,122.7L291.0,122.1L292.6,121.2L295.5,121.4L295.5,122.6L293.6,122.0L292.2,122.7ZM290.0,139.7L290.8,139.5L294.3,136.8L295.0,136.9L298.0,134.7L299.7,134.3L302.7,128.4L306.9,126.2L309.0,126.1L316.0,123.5L316.2,125.0L323.5,129.5L329.4,129.5L329.4,132.8L331.2,133.1L330.1,137.1L318.9,159.8L314.4,159.8L314.4,160.9L301.5,160.9L301.5,163.1L299.7,163.0L299.7,164.1L294.7,164.1L294.7,165.2L291.7,165.2L291.7,143.9L291.5,141.0L290.0,139.7ZM285.1,86.2L286.6,84.0L290.1,83.1L292.4,83.8L291.0,85.1L287.5,86.5L285.1,86.2Z"/>
    <path class="wtc-county" id="wtc-county-yolo" data-county="Yolo" d="M150.8,360.9L147.6,361.0L146.8,359.9L148.1,358.0L150.2,356.6L153.2,356.8L156.4,350.0L159.2,347.8L161.1,344.3L162.3,340.9L164.6,341.1L166.7,339.7L170.2,341.9L174.2,342.1L177.7,341.4L179.9,342.1L182.2,341.6L182.2,331.3L187.1,331.2L187.6,332.1L190.6,333.5L190.1,336.8L191.5,337.4L191.3,338.8L189.5,339.2L189.0,341.0L190.4,341.2L191.1,345.2L189.0,345.3L188.5,347.2L187.1,347.3L185.2,349.3L186.6,351.7L187.1,353.1L182.6,353.1L180.8,355.0L180.8,357.3L179.4,358.3L177.8,357.6L176.3,358.6L176.8,360.5L175.2,360.9L150.8,360.9Z"/>
    <path class="wtc-county" id="wtc-county-yuba" data-county="Yuba" d="M185.5,379.0L185.0,377.3L186.0,375.7L185.9,373.5L187.4,369.0L186.2,367.4L188.0,360.6L189.5,363.2L192.2,364.2L195.8,364.4L198.1,366.2L201.1,367.2L202.3,366.3L202.3,375.8L203.0,377.9L205.3,378.3L206.0,380.0L209.8,383.1L211.9,383.8L214.9,383.6L214.3,389.6L213.1,390.7L214.7,391.8L215.6,395.7L212.2,393.7L210.7,392.2L208.6,391.6L208.2,389.9L204.2,390.2L204.2,389.6L201.1,389.9L200.7,387.8L199.5,387.0L199.7,385.3L197.7,382.3L196.2,381.1L192.9,380.8L192.3,380.0L188.5,379.5L186.2,380.1L185.5,379.0Z"/>
  </g>
</svg>