<?xml version="1.0" encoding="UTF-8"?>
<svg xmlns="http://www.w3.org/2000/svg" viewBox="0 0 600 599" id="wtc-state-map-UT" role="img" aria-label="ut county map">
  <title>ut Counties</title>
  <g class="wtc-counties">
    <path class="wtc-county" id="wtc-county-beaver" data-county="Beaver" d="M50.0,392.2L50.4,434.5L129.5,434.5L206.9,434.6L210.5,434.4L212.2,431.3L219.1,426.9L216.9,425.0L219.8,421.2L221.2,416.1L214.4,407.9L210.5,408.8L209.4,406.5L202.9,401.5L202.9,398.4L203.3,392.2L150.3,392.2L50.0,392.2Z"/>
    <path class="wtc-county" id="wtc-county-box-elder" data-county="Box Elder" d="M51.1,50.9L51.1,150.0L134.9,150.0L175.0,150.0L205.4,142.3L230.9,116.4L251.3,116.4L258.5,113.5L257.4,108.0L263.1,108.8L266.3,107.4L263.1,104.0L267.0,102.6L263.5,96.9L260.2,94.8L256.7,96.7L254.2,90.9L253.1,83.9L249.5,80.1L253.8,70.7L249.5,63.6L242.7,57.4L238.4,50.5L235.5,50.1L154.9,50.3L72.9,51.4L51.1,50.9Z"/>
    <path class="wtc-county" id="wtc-county-cache" data-county="Cache" d="M238.4,50.5L242.7,57.4L249.5,63.6L253.8,70.7L249.5,80.1L253.1,83.9L254.2,90.9L256.7,96.7L260.2,94.8L263.5,96.9L267.0,102.6L263.1,104.0L266.3,107.4L267.8,110.2L274.9,110.9L278.5,113.2L282.1,112.5L285.0,108.4L289.3,109.3L292.8,107.9L303.6,107.8L306.8,99.7L311.5,94.7L311.8,88.3L314.3,84.2L312.2,82.5L312.9,78.9L310.4,76.5L308.6,68.4L303.9,64.9L304.3,58.8L307.5,57.4L303.9,50.3L243.8,50.4L238.4,50.5Z"/>
    <path class="wtc-county" id="wtc-county-carbon" data-county="Carbon" d="M329.7,268.4L329.7,279.3L332.6,280.5L335.8,287.7L338.7,290.1L341.2,288.3L343.0,294.5L346.2,297.5L346.9,302.7L404.6,302.7L451.9,302.7L452.9,300.5L450.4,293.0L455.8,283.3L455.1,279.4L461.5,274.7L462.2,271.1L465.8,269.1L456.5,269.1L402.8,269.0L402.8,268.6L368.8,268.4L329.7,268.4Z"/>
    <path class="wtc-county" id="wtc-county-daggett" data-county="Daggett" d="M454.4,150.2L454.4,168.6L456.5,169.0L467.3,173.5L477.7,171.6L479.1,169.7L486.6,170.4L490.9,168.4L497.0,168.6L501.6,167.3L503.1,174.8L505.9,175.8L514.9,170.9L514.9,164.1L533.9,164.1L533.9,171.4L537.8,171.3L538.2,181.5L541.8,183.6L549.3,183.6L549.3,150.0L500.6,150.1L454.4,150.2Z"/>
    <path class="wtc-county" id="wtc-county-davis" data-county="Davis" d="M269.2,136.1L263.5,136.5L257.7,134.8L236.2,134.7L205.4,142.3L228.7,173.0L239.8,165.3L253.8,157.8L258.8,157.8L257.7,161.3L260.2,167.7L267.8,167.8L280.7,163.8L277.8,162.7L273.1,154.0L277.1,154.1L271.0,147.7L269.6,143.4L269.2,136.1Z"/>
    <path class="wtc-county" id="wtc-county-duchesne" data-county="Duchesne" d="M364.5,182.1L364.1,206.7L364.8,206.7L364.8,241.5L365.2,259.8L368.8,259.8L368.8,268.4L402.8,268.6L402.8,269.0L456.5,269.1L456.5,169.0L454.4,168.6L444.3,169.2L438.3,167.9L425.0,166.6L420.3,167.6L417.1,171.0L406.0,172.0L402.1,173.8L393.8,174.2L392.0,173.0L388.8,175.9L379.5,175.2L374.1,178.7L365.2,177.3L364.5,182.1Z"/>
    <path class="wtc-county" id="wtc-county-emery" data-county="Emery" d="M324.7,346.3L324.7,382.3L324.0,382.3L324.0,398.5L324.0,399.4L399.9,399.4L451.9,399.4L454.4,397.3L455.4,392.9L449.0,391.7L449.7,389.9L454.7,390.0L454.4,387.7L449.0,388.9L450.8,384.1L445.4,382.1L445.8,378.9L442.2,378.3L445.8,374.4L442.9,371.3L444.0,368.8L440.8,366.1L438.3,360.7L440.4,352.9L447.6,351.7L450.1,354.6L454.0,354.6L450.1,350.2L444.7,350.9L438.6,346.3L439.7,341.8L444.3,336.0L442.9,334.3L446.5,327.0L449.0,326.8L446.5,322.0L450.8,314.7L453.3,308.0L451.9,302.7L404.6,302.7L346.9,302.7L346.2,297.5L343.0,294.5L341.2,288.3L338.7,290.1L335.8,287.7L332.6,280.5L329.7,279.3L329.7,303.0L324.4,303.0L324.7,320.2L324.7,346.3Z"/>
    <path class="wtc-county" id="wtc-county-garfield" data-county="Garfield" d="M206.9,434.6L206.9,451.5L208.3,451.6L208.0,460.3L196.1,460.3L197.2,461.1L196.8,468.8L186.1,468.8L186.5,494.9L218.7,494.9L238.4,495.6L270.3,495.7L273.1,495.2L353.4,495.2L389.9,495.2L393.1,492.8L394.2,489.1L398.1,485.8L404.6,483.4L406.0,478.8L411.4,472.2L408.2,472.1L406.7,469.2L411.0,467.9L414.3,461.2L424.3,460.4L426.1,462.7L427.5,459.5L432.5,460.0L434.0,455.4L441.1,448.7L446.8,449.2L447.9,445.2L452.6,438.8L455.4,439.4L461.5,434.2L385.6,434.2L313.3,434.0L291.0,434.4L270.3,434.2L248.8,434.8L210.5,434.4L206.9,434.6Z"/>
    <path class="wtc-county" id="wtc-county-grand" data-county="Grand" d="M451.9,302.7L453.3,308.0L450.8,314.7L446.5,322.0L449.0,326.8L446.5,327.0L442.9,334.3L444.3,336.0L439.7,341.8L438.6,346.3L444.7,350.9L450.1,350.2L454.0,354.6L450.1,354.6L447.6,351.7L440.4,352.9L438.3,360.7L440.8,366.1L444.0,368.8L442.9,371.3L445.8,374.4L442.2,378.3L445.8,378.9L445.4,382.1L450.8,384.1L449.0,388.9L454.4,387.7L454.7,390.0L449.7,389.9L449.0,391.7L455.4,392.9L454.4,397.3L451.9,399.4L506.7,399.5L548.2,399.4L548.2,377.5L548.9,359.0L548.9,313.0L548.9,299.9L545.3,300.4L543.6,303.5L451.9,302.7Z"/>
    <path class="wtc-county" id="wtc-county-iron" data-county="Iron" d="M50.4,434.5L50.0,449.4L50.4,472.7L50.0,488.8L96.2,488.8L96.2,487.4L107.7,487.4L107.7,496.4L129.5,496.4L129.5,501.0L151.4,501.8L151.4,499.3L165.0,499.3L165.0,494.9L186.5,494.9L186.1,468.8L196.8,468.8L197.2,461.1L196.1,460.3L208.0,460.3L208.3,451.6L206.9,451.5L206.9,434.6L129.5,434.5L50.4,434.5Z"/>
    <path class="wtc-county" id="wtc-county-juab" data-county="Juab" d="M50.4,259.2L50.4,295.4L73.6,295.3L73.6,294.4L165.7,294.4L233.7,294.3L235.5,300.7L235.9,316.7L247.7,316.7L253.1,318.1L253.1,315.9L258.8,315.9L258.8,313.0L262.4,311.5L279.9,311.4L279.9,303.7L283.5,303.7L282.8,280.3L296.1,275.7L296.1,271.3L292.5,271.3L290.3,268.4L278.2,268.7L281.0,263.4L272.1,255.0L271.3,257.3L263.8,260.3L257.7,269.0L250.2,272.0L245.9,271.5L248.1,266.8L246.6,263.2L249.5,260.4L244.5,256.9L243.8,252.4L237.0,248.6L232.3,250.8L227.7,255.8L220.8,255.3L220.5,259.3L130.2,259.3L50.4,259.2Z"/>
    <path class="wtc-county" id="wtc-county-kane" data-county="Kane" d="M165.0,499.3L165.0,549.1L201.1,549.1L319.7,549.0L326.1,545.4L324.4,542.5L330.8,546.8L330.4,542.7L333.0,543.4L336.5,539.2L340.1,540.3L356.2,537.8L359.1,534.3L364.1,531.7L365.9,524.0L368.4,523.3L368.1,520.1L370.6,517.3L367.7,514.3L373.8,516.9L378.4,515.9L382.0,512.6L379.2,509.5L384.5,506.3L380.6,504.7L382.7,501.1L388.1,501.4L389.9,495.2L353.4,495.2L273.1,495.2L270.3,495.7L238.4,495.6L218.7,494.9L186.5,494.9L165.0,494.9L165.0,499.3Z"/>
    <path class="wtc-county" id="wtc-county-millard" data-county="Millard" d="M50.4,381.7L50.0,392.2L150.3,392.2L203.3,392.2L206.5,389.4L206.5,385.0L210.1,381.3L223.7,381.8L233.0,376.8L231.9,373.1L232.3,363.1L235.9,363.1L237.7,358.9L239.8,358.9L241.3,353.6L248.4,353.6L248.1,350.7L252.7,349.9L253.4,345.0L253.1,318.1L247.7,316.7L235.9,316.7L235.5,300.7L233.7,294.3L165.7,294.4L73.6,294.4L73.6,295.3L50.4,295.4L50.4,381.7Z"/>
    <path class="wtc-county" id="wtc-county-morgan" data-county="Morgan" d="M312.5,113.9L309.7,118.5L310.7,121.1L305.0,127.3L295.0,126.2L293.6,129.0L288.9,131.4L282.8,131.3L279.9,128.6L274.6,128.3L268.8,130.2L267.0,133.1L269.2,136.1L269.6,143.4L271.0,147.7L277.1,154.1L273.1,154.0L277.8,162.7L280.7,163.8L288.2,165.0L290.7,170.0L293.6,168.8L299.3,171.9L302.9,170.8L302.9,168.0L306.8,164.1L301.8,158.0L302.1,154.6L296.8,154.2L295.3,150.6L303.9,143.7L310.0,141.8L316.5,141.3L317.9,137.0L327.9,135.6L330.4,133.6L332.2,128.5L326.5,127.5L328.3,120.4L321.5,114.3L316.1,112.7L312.5,113.9Z"/>
    <path class="wtc-county" id="wtc-county-piute" data-county="Piute" d="M202.9,398.4L202.9,401.5L209.4,406.5L210.5,408.8L214.4,407.9L221.2,416.1L219.8,421.2L216.9,425.0L219.1,426.9L212.2,431.3L210.5,434.4L248.8,434.8L270.3,434.2L269.9,407.0L278.2,399.2L248.4,399.2L242.3,398.2L202.9,398.4Z"/>
    <path class="wtc-county" id="wtc-county-rich" data-county="Rich" d="M303.9,50.3L307.5,57.4L304.3,58.8L303.9,64.9L308.6,68.4L310.4,76.5L312.9,78.9L312.2,82.5L314.3,84.2L311.8,88.3L311.5,94.7L306.8,99.7L303.6,107.8L306.8,111.6L312.5,113.9L316.1,112.7L321.5,114.3L328.3,120.4L326.5,127.5L332.2,128.5L330.4,133.6L327.9,135.6L331.2,135.7L344.4,129.3L349.8,124.8L350.1,92.1L349.8,50.0L303.9,50.3Z"/>
    <path class="wtc-county" id="wtc-county-salt-lake" data-county="Salt Lake" d="M228.7,173.0L234.1,178.3L235.2,187.0L237.3,189.5L237.7,203.2L240.5,202.8L243.4,205.9L250.9,203.4L256.7,208.4L260.2,207.4L266.3,202.7L271.0,202.3L278.5,196.9L286.4,196.8L291.0,193.1L295.3,192.2L299.3,189.0L294.3,183.2L295.3,180.0L289.6,172.6L290.7,170.0L288.2,165.0L280.7,163.8L267.8,167.8L260.2,167.7L257.7,161.3L258.8,157.8L253.8,157.8L239.8,165.3L228.7,173.0Z"/>
    <path class="wtc-county" id="wtc-county-san-juan" data-county="San Juan" d="M389.9,495.2L388.1,501.4L382.7,501.1L380.6,504.7L384.5,506.3L379.2,509.5L382.0,512.6L378.4,515.9L373.8,516.9L367.7,514.3L370.6,517.3L368.1,520.1L368.4,523.3L365.9,524.0L364.1,531.7L359.1,534.3L356.2,537.8L340.1,540.3L336.5,539.2L333.0,543.4L330.4,542.7L330.8,546.8L324.4,542.5L326.1,545.4L319.7,549.0L379.5,548.8L405.3,548.7L407.4,549.3L454.4,549.3L491.6,549.3L549.6,549.3L549.6,500.7L550.0,496.2L550.0,461.2L550.0,434.0L548.2,421.9L548.2,399.4L506.7,399.5L451.9,399.4L454.0,401.4L454.0,407.8L451.1,410.9L452.9,413.0L456.5,410.6L455.8,413.6L461.2,421.0L461.5,423.4L465.5,426.2L462.2,426.9L465.8,430.6L461.5,434.2L455.4,439.4L452.6,438.8L447.9,445.2L446.8,449.2L441.1,448.7L434.0,455.4L432.5,460.0L427.5,459.5L426.1,462.7L424.3,460.4L414.3,461.2L411.0,467.9L406.7,469.2L408.2,472.1L411.4,472.2L406.0,478.8L404.6,483.4L398.1,485.8L394.2,489.1L393.1,492.8L389.9,495.2Z"/>
    <path class="wtc-county" id="wtc-county-sanpete" data-county="Sanpete" d="M290.3,268.4L292.5,271.3L296.1,271.3L296.1,275.7L282.8,280.3L283.5,303.7L279.9,303.7L279.9,311.4L262.4,311.5L258.8,313.0L258.8,315.9L253.1,315.9L253.1,318.1L253.4,345.0L269.6,345.0L269.6,346.3L324.7,346.3L324.7,320.2L324.4,303.0L329.7,303.0L329.7,279.3L329.7,268.4L290.3,268.4Z"/>
    <path class="wtc-county" id="wtc-county-sevier" data-county="Sevier" d="M203.3,392.2L202.9,398.4L242.3,398.2L248.4,399.2L278.2,399.2L279.2,398.5L324.0,398.5L324.0,382.3L324.7,382.3L324.7,346.3L269.6,346.3L269.6,345.0L253.4,345.0L252.7,349.9L248.1,350.7L248.4,353.6L241.3,353.6L239.8,358.9L237.7,358.9L235.9,363.1L232.3,363.1L231.9,373.1L233.0,376.8L223.7,381.8L210.1,381.3L206.5,385.0L206.5,389.4L203.3,392.2Z"/>
    <path class="wtc-county" id="wtc-county-summit" data-county="Summit" d="M290.7,170.0L289.6,172.6L295.3,180.0L294.3,183.2L299.3,189.0L305.7,190.0L307.2,185.5L315.0,180.8L317.9,187.0L321.8,187.6L327.9,191.2L339.4,195.0L342.6,190.8L346.6,190.4L351.9,192.1L356.9,190.6L361.2,181.8L364.5,182.1L365.2,177.3L374.1,178.7L379.5,175.2L388.8,175.9L392.0,173.0L393.8,174.2L402.1,173.8L406.0,172.0L417.1,171.0L420.3,167.6L425.0,166.6L438.3,167.9L444.3,169.2L454.4,168.6L454.4,150.2L449.4,150.2L430.7,150.5L383.1,150.4L349.8,150.2L349.8,124.8L344.4,129.3L331.2,135.7L327.9,135.6L317.9,137.0L316.5,141.3L310.0,141.8L303.9,143.7L295.3,150.6L296.8,154.2L302.1,154.6L301.8,158.0L306.8,164.1L302.9,168.0L302.9,170.8L299.3,171.9L293.6,168.8L290.7,170.0Z"/>
    <path class="wtc-county" id="wtc-county-tooele" data-county="Tooele" d="M50.4,238.1L50.4,259.2L130.2,259.3L220.5,259.3L220.8,255.3L227.7,255.8L232.3,250.8L237.0,248.6L236.6,243.8L239.8,239.0L237.3,234.4L240.2,232.5L239.8,228.6L235.5,223.4L235.2,217.2L237.3,216.2L234.8,211.6L233.4,204.4L237.7,203.2L237.3,189.5L235.2,187.0L234.1,178.3L228.7,173.0L205.4,142.3L175.0,150.0L134.9,150.0L51.1,150.0L50.7,172.8L50.7,226.6L50.4,238.1Z"/>
    <path class="wtc-county" id="wtc-county-uintah" data-county="Uintah" d="M456.5,269.1L465.8,269.1L462.2,271.1L461.5,274.7L455.1,279.4L455.8,283.3L450.4,293.0L452.9,300.5L451.9,302.7L543.6,303.5L545.3,300.4L548.9,299.9L548.9,283.7L548.9,227.5L548.9,199.8L549.3,183.6L541.8,183.6L538.2,181.5L537.8,171.3L533.9,171.4L533.9,164.1L514.9,164.1L514.9,170.9L505.9,175.8L503.1,174.8L501.6,167.3L497.0,168.6L490.9,168.4L486.6,170.4L479.1,169.7L477.7,171.6L467.3,173.5L456.5,169.0L456.5,269.1Z"/>
    <path class="wtc-county" id="wtc-county-utah" data-county="Utah" d="M237.7,203.2L233.4,204.4L234.8,211.6L237.3,216.2L235.2,217.2L235.5,223.4L239.8,228.6L240.2,232.5L237.3,234.4L239.8,239.0L236.6,243.8L237.0,248.6L243.8,252.4L244.5,256.9L249.5,260.4L246.6,263.2L248.1,266.8L245.9,271.5L250.2,272.0L257.7,269.0L263.8,260.3L271.3,257.3L272.1,255.0L281.0,263.4L278.2,268.7L290.3,268.4L329.7,268.4L368.8,268.4L368.8,259.8L365.2,259.8L346.2,259.8L346.2,255.4L341.5,255.1L342.6,252.9L338.0,250.7L334.0,245.0L329.7,244.2L332.6,237.3L331.9,233.1L327.2,227.6L328.3,225.6L323.3,221.2L317.2,220.2L310.4,220.8L310.7,217.7L306.4,213.6L299.3,213.2L292.5,204.9L297.1,201.2L297.9,195.1L295.3,192.2L291.0,193.1L286.4,196.8L278.5,196.9L271.0,202.3L266.3,202.7L260.2,207.4L256.7,208.4L250.9,203.4L243.4,205.9L240.5,202.8L237.7,203.2Z"/>
    <path class="wtc-county" id="wtc-county-wasatch" data-county="Wasatch" d="M295.3,192.2L297.9,195.1L297.1,201.2L292.5,204.9L299.3,213.2L306.4,213.6L310.7,217.7L310.4,220.8L317.2,220.2L323.3,221.2L328.3,225.6L327.2,227.6L331.9,233.1L332.6,237.3L329.7,244.2L334.0,245.0L338.0,250.7L342.6,252.9L341.5,255.1L346.2,255.4L346.2,259.8L365.2,259.8L364.8,241.5L364.8,206.7L364.1,206.7L364.5,182.1L361.2,181.8L356.9,190.6L351.9,192.1L346.6,190.4L342.6,190.8L339.4,195.0L327.9,191.2L321.8,187.6L317.9,187.0L315.0,180.8L307.2,185.5L305.7,190.0L299.3,189.0L295.3,192.2Z"/>
    <path class="wtc-county" id="wtc-county-washington" data-county="Washington" d="M50.0,488.8L50.0,549.1L121.6,549.1L165.0,549.1L165.0,499.3L151.4,499.3L151.4,501.8L129.5,501.0L129.5,496.4L107.7,496.4L107.7,487.4L96.2,487.4L96.2,488.8L50.0,488.8Z"/>
    <path class="wtc-county" id="wtc-county-wayne" data-county="Wayne" d="M278.2,399.2L269.9,407.0L270.3,434.2L291.0,434.4L313.3,434.0L385.6,434.2L461.5,434.2L465.8,430.6L462.2,426.9L465.5,426.2L461.5,423.4L461.2,421.0L455.8,413.6L456.5,410.6L452.9,413.0L451.1,410.9L454.0,407.8L454.0,401.4L451.9,399.4L399.9,399.4L324.0,399.4L324.0,398.5L279.2,398.5L278.2,399.2Z"/>
    <path class="wtc-county" id="wtc-county-weber" data-county="Weber" d="M205.4,142.3L236.2,134.7L257.7,134.8L263.5,136.5L269.2,136.1L267.0,133.1L268.8,130.2L274.6,128.3L279.9,128.6L282.8,131.3L288.9,131.4L293.6,129.0L295.0,126.2L305.0,127.3L310.7,121.1L309.7,118.5L312.5,113.9L306.8,111.6L303.6,107.8L292.8,107.9L289.3,109.3L285.0,108.4L282.1,112.5L278.5,113.2L274.9,110.9L267.8,110.2L266.3,107.4L263.1,108.8L257.4,108.0L258.5,113.5L251.3,116.4L230.9,116.4L205.4,142.3Z"/>
  </g>
</svg>