<?xml version="1.0" encoding="UTF-8"?>
<svg xmlns="http://www.w3.org/2000/svg" viewBox="0 0 600 599" id="wtc-state-map-UT" role="img" aria-label="ut county map">
  <title>ut Counties</title>
  <g class="wtc-counties">
    <path class="wtc-county" id="wtc-county-beaver" data-county="Beaver" d="M50.0,207.1L50.4,164.9L129.5,164.9L206.9,164.7L210.5,165.0L212.2,168.0L219.1,172.4L216.9,174.4L219.8,178.2L221.2,183.2L214.4,191.4L210.5,190.5L209.4,192.8L202.9,197.9L202.9,201.0L203.3,207.1L150.3,207.1L50.0,207.1Z"/>
    <path class="wtc-county" id="wtc-county-box-elder" data-county="Box Elder" d="M51.1,548.5L51.1,449.4L134.9,449.4L175.0,449.4L205.4,457.0L230.9,482.9L251.3,482.9L258.5,485.8L257.4,491.3L263.1,490.5L266.3,491.9L263.1,495.3L267.0,496.7L263.5,502.4L260.2,504.5L256.7,502.6L254.2,508.4L253.1,515.5L249.5,519.2L253.8,528.7L249.5,535.7L242.7,542.0L238.4,548.8L235.5,549.3L154.9,549.0L72.9,548.0L51.1,548.5Z"/>
    <path class="wtc-county" id="wtc-county-cache" data-county="Cache" d="M238.4,548.8L242.7,542.0L249.5,535.7L253.8,528.7L249.5,519.2L253.1,515.5L254.2,508.4L256.7,502.6L260.2,504.5L263.5,502.4L267.0,496.7L263.1,495.3L266.3,491.9L267.8,489.2L274.9,488.5L278.5,486.2L282.1,486.8L285.0,491.0L289.3,490.0L292.8,491.5L303.6,491.6L306.8,499.6L311.5,504.6L311.8,511.0L314.3,515.1L312.2,516.8L312.9,520.4L310.4,522.8L308.6,530.9L303.9,534.4L304.3,540.5L307.5,542.0L303.9,549.1L243.8,548.9L238.4,548.8Z"/>
    <path class="wtc-county" id="wtc-county-carbon" data-county="Carbon" d="M329.7,330.9L329.7,320.0L332.6,318.8L335.8,311.6L338.7,309.2L341.2,311.0L343.0,304.9L346.2,301.9L346.9,296.6L404.6,296.6L451.9,296.6L452.9,298.9L450.4,306.3L455.8,316.1L455.1,319.9L461.5,324.7L462.2,328.3L465.8,330.2L456.5,330.2L402.8,330.3L402.8,330.7L368.8,330.9L329.7,330.9Z"/>
    <path class="wtc-county" id="wtc-county-daggett" data-county="Daggett" d="M454.4,449.1L454.4,430.8L456.5,430.4L467.3,425.8L477.7,427.7L479.1,429.7L486.6,428.9L490.9,431.0L497.0,430.7L501.6,432.1L503.1,424.5L505.9,423.5L514.9,428.5L514.9,435.2L533.9,435.2L533.9,428.0L537.8,428.0L538.2,417.8L541.8,415.7L549.3,415.7L549.3,449.4L500.6,449.2L454.4,449.1Z"/>
    <path class="wtc-county" id="wtc-county-davis" data-county="Davis" d="M269.2,463.3L263.5,462.8L257.7,464.6L236.2,464.6L205.4,457.0L228.7,426.3L239.8,434.0L253.8,441.5L258.8,441.6L257.7,438.1L260.2,431.6L267.8,431.6L280.7,435.5L277.8,436.6L273.1,445.4L277.1,445.3L271.0,451.6L269.6,456.0L269.2,463.3Z"/>
    <path class="wtc-county" id="wtc-county-duchesne" data-county="Duchesne" d="M364.5,417.2L364.1,392.6L364.8,392.6L364.8,357.8L365.2,339.6L368.8,339.6L368.8,330.9L402.8,330.7L402.8,330.3L456.5,330.2L456.5,430.4L454.4,430.8L444.3,430.2L438.3,431.5L425.0,432.8L420.3,431.7L417.1,428.3L406.0,427.4L402.1,425.6L393.8,425.1L392.0,426.3L388.8,423.4L379.5,424.2L374.1,420.7L365.2,422.0L364.5,417.2Z"/>
    <path class="wtc-county" id="wtc-county-emery" data-county="Emery" d="M324.7,253.0L324.7,217.1L324.0,217.1L324.0,200.9L324.0,199.9L399.9,199.9L451.9,199.9L454.4,202.1L455.4,206.4L449.0,207.6L449.7,209.4L454.7,209.4L454.4,211.6L449.0,210.4L450.8,215.3L445.4,217.2L445.8,220.4L442.2,221.0L445.8,225.0L442.9,228.0L444.0,230.5L440.8,233.3L438.3,238.6L440.4,246.4L447.6,247.7L450.1,244.8L454.0,244.8L450.1,249.1L444.7,248.4L438.6,253.1L439.7,257.5L444.3,263.4L442.9,265.0L446.5,272.4L449.0,272.5L446.5,277.3L450.8,284.6L453.3,291.3L451.9,296.6L404.6,296.6L346.9,296.6L346.2,301.9L343.0,304.9L341.2,311.0L338.7,309.2L335.8,311.6L332.6,318.8L329.7,320.0L329.7,296.4L324.4,296.4L324.7,279.1L324.7,253.0Z"/>
    <path class="wtc-county" id="wtc-county-garfield" data-county="Garfield" d="M206.9,164.7L206.9,147.8L208.3,147.7L208.0,139.1L196.1,139.1L197.2,138.2L196.8,130.5L186.1,130.6L186.5,104.4L218.7,104.4L238.4,103.7L270.3,103.7L273.1,104.1L353.4,104.1L389.9,104.2L393.1,106.6L394.2,110.3L398.1,113.5L404.6,115.9L406.0,120.6L411.4,127.2L408.2,127.2L406.7,130.2L411.0,131.4L414.3,138.1L424.3,139.0L426.1,136.7L427.5,139.8L432.5,139.3L434.0,144.0L441.1,150.6L446.8,150.1L447.9,154.2L452.6,160.6L455.4,160.0L461.5,165.1L385.6,165.1L313.3,165.4L291.0,165.0L270.3,165.1L248.8,164.5L210.5,165.0L206.9,164.7Z"/>
    <path class="wtc-county" id="wtc-county-grand" data-county="Grand" d="M451.9,296.6L453.3,291.3L450.8,284.6L446.5,277.3L449.0,272.5L446.5,272.4L442.9,265.0L444.3,263.4L439.7,257.5L438.6,253.1L444.7,248.4L450.1,249.1L454.0,244.8L450.1,244.8L447.6,247.7L440.4,246.4L438.3,238.6L440.8,233.3L444.0,230.5L442.9,228.0L445.8,225.0L442.2,221.0L445.8,220.4L445.4,217.2L450.8,215.3L449.0,210.4L454.4,211.6L454.7,209.4L449.7,209.4L449.0,207.6L455.4,206.4L454.4,202.1L451.9,199.9L506.7,199.8L548.2,199.9L548.2,221.8L548.9,240.3L548.9,286.3L548.9,299.5L545.3,298.9L543.6,295.9L451.9,296.6Z"/>
    <path class="wtc-county" id="wtc-county-iron" data-county="Iron" d="M50.4,164.9L50.0,150.0L50.4,126.6L50.0,110.5L96.2,110.5L96.2,111.9L107.7,111.9L107.7,103.0L129.5,103.0L129.5,98.3L151.4,97.6L151.4,100.1L165.0,100.1L165.0,104.4L186.5,104.4L186.1,130.6L196.8,130.5L197.2,138.2L196.1,139.1L208.0,139.1L208.3,147.7L206.9,147.8L206.9,164.7L129.5,164.9L50.4,164.9Z"/>
    <path class="wtc-county" id="wtc-county-juab" data-county="Juab" d="M50.4,340.2L50.4,303.9L73.6,304.1L73.6,304.9L165.7,304.9L233.7,305.0L235.5,298.7L235.9,282.7L247.7,282.7L253.1,281.2L253.1,283.4L258.8,283.4L258.8,286.3L262.4,287.9L279.9,288.0L279.9,295.7L283.5,295.7L282.8,319.1L296.1,323.6L296.1,328.0L292.5,328.0L290.3,330.9L278.2,330.7L281.0,336.0L272.1,344.4L271.3,342.1L263.8,339.1L257.7,330.3L250.2,327.3L245.9,327.8L248.1,332.5L246.6,336.1L249.5,339.0L244.5,342.5L243.8,346.9L237.0,350.7L232.3,348.5L227.7,343.5L220.8,344.0L220.5,340.0L130.2,340.1L50.4,340.2Z"/>
    <path class="wtc-county" id="wtc-county-kane" data-county="Kane" d="M165.0,100.1L165.0,50.3L201.1,50.3L319.7,50.3L326.1,53.9L324.4,56.9L330.8,52.6L330.4,56.6L333.0,55.9L336.5,60.1L340.1,59.1L356.2,61.6L359.1,65.1L364.1,67.7L365.9,75.3L368.4,76.1L368.1,79.2L370.6,82.1L367.7,85.1L373.8,82.4L378.4,83.4L382.0,86.8L379.2,89.9L384.5,93.0L380.6,94.7L382.7,98.3L388.1,97.9L389.9,104.2L353.4,104.1L273.1,104.1L270.3,103.7L238.4,103.7L218.7,104.4L186.5,104.4L165.0,104.4L165.0,100.1Z"/>
    <path class="wtc-county" id="wtc-county-millard" data-county="Millard" d="M50.4,217.6L50.0,207.1L150.3,207.1L203.3,207.1L206.5,210.0L206.5,214.3L210.1,218.0L223.7,217.5L233.0,222.6L231.9,226.2L232.3,236.3L235.9,236.3L237.7,240.4L239.8,240.5L241.3,245.7L248.4,245.7L248.1,248.6L252.7,249.4L253.4,254.4L253.1,281.2L247.7,282.7L235.9,282.7L235.5,298.7L233.7,305.0L165.7,304.9L73.6,304.9L73.6,304.1L50.4,303.9L50.4,217.6Z"/>
    <path class="wtc-county" id="wtc-county-morgan" data-county="Morgan" d="M312.5,485.4L309.7,480.8L310.7,478.3L305.0,472.0L295.0,473.1L293.6,470.3L288.9,467.9L282.8,468.1L279.9,470.7L274.6,471.1L268.8,469.1L267.0,466.3L269.2,463.3L269.6,456.0L271.0,451.6L277.1,445.3L273.1,445.4L277.8,436.6L280.7,435.5L288.2,434.4L290.7,429.3L293.6,430.5L299.3,427.4L302.9,428.6L302.9,431.3L306.8,435.2L301.8,441.3L302.1,444.8L296.8,445.2L295.3,448.7L303.9,455.6L310.0,457.5L316.5,458.0L317.9,462.3L327.9,463.7L330.4,465.8L332.2,470.8L326.5,471.8L328.3,479.0L321.5,485.0L316.1,486.7L312.5,485.4Z"/>
    <path class="wtc-county" id="wtc-county-piute" data-county="Piute" d="M202.9,201.0L202.9,197.9L209.4,192.8L210.5,190.5L214.4,191.4L221.2,183.2L219.8,178.2L216.9,174.4L219.1,172.4L212.2,168.0L210.5,165.0L248.8,164.5L270.3,165.1L269.9,192.4L278.2,200.1L248.4,200.1L242.3,201.1L202.9,201.0Z"/>
    <path class="wtc-county" id="wtc-county-rich" data-county="Rich" d="M303.9,549.1L307.5,542.0L304.3,540.5L303.9,534.4L308.6,530.9L310.4,522.8L312.9,520.4L312.2,516.8L314.3,515.1L311.8,511.0L311.5,504.6L306.8,499.6L303.6,491.6L306.8,487.7L312.5,485.4L316.1,486.7L321.5,485.0L328.3,479.0L326.5,471.8L332.2,470.8L330.4,465.8L327.9,463.7L331.2,463.6L344.4,470.0L349.8,474.5L350.1,507.2L349.8,549.3L303.9,549.1Z"/>
    <path class="wtc-county" id="wtc-county-salt-lake" data-county="Salt Lake" d="M228.7,426.3L234.1,421.0L235.2,412.4L237.3,409.9L237.7,396.2L240.5,396.5L243.4,393.4L250.9,395.9L256.7,390.9L260.2,392.0L266.3,396.7L271.0,397.0L278.5,402.4L286.4,402.6L291.0,406.3L295.3,407.1L299.3,410.4L294.3,416.1L295.3,419.3L289.6,426.8L290.7,429.3L288.2,434.4L280.7,435.5L267.8,431.6L260.2,431.6L257.7,438.1L258.8,441.6L253.8,441.5L239.8,434.0L228.7,426.3Z"/>
    <path class="wtc-county" id="wtc-county-san-juan" data-county="San Juan" d="M389.9,104.2L388.1,97.9L382.7,98.3L380.6,94.7L384.5,93.0L379.2,89.9L382.0,86.8L378.4,83.4L373.8,82.4L367.7,85.1L370.6,82.1L368.1,79.2L368.4,76.1L365.9,75.3L364.1,67.7L359.1,65.1L356.2,61.6L340.1,59.1L336.5,60.1L333.0,55.9L330.4,56.6L330.8,52.6L324.4,56.9L326.1,53.9L319.7,50.3L379.5,50.5L405.3,50.6L407.4,50.0L454.4,50.0L491.6,50.0L549.6,50.1L549.6,98.6L550.0,103.1L550.0,138.1L550.0,165.3L548.2,177.5L548.2,199.9L506.7,199.8L451.9,199.9L454.0,198.0L454.0,191.5L451.1,188.4L452.9,186.4L456.5,188.8L455.8,185.7L461.2,178.3L461.5,175.9L465.5,173.1L462.2,172.4L465.8,168.7L461.5,165.1L455.4,160.0L452.6,160.6L447.9,154.2L446.8,150.1L441.1,150.6L434.0,144.0L432.5,139.3L427.5,139.8L426.1,136.7L424.3,139.0L414.3,138.1L411.0,131.4L406.7,130.2L408.2,127.2L411.4,127.2L406.0,120.6L404.6,115.9L398.1,113.5L394.2,110.3L393.1,106.6L389.9,104.2Z"/>
    <path class="wtc-county" id="wtc-county-sanpete" data-county="Sanpete" d="M290.3,330.9L292.5,328.0L296.1,328.0L296.1,323.6L282.8,319.1L283.5,295.7L279.9,295.7L279.9,288.0L262.4,287.9L258.8,286.3L258.8,283.4L253.1,283.4L253.1,281.2L253.4,254.4L269.6,254.4L269.6,253.1L324.7,253.0L324.7,279.1L324.4,296.4L329.7,296.4L329.7,320.0L329.7,330.9L290.3,330.9Z"/>
    <path class="wtc-county" id="wtc-county-sevier" data-county="Sevier" d="M203.3,207.1L202.9,201.0L242.3,201.1L248.4,200.1L278.2,200.1L279.2,200.9L324.0,200.9L324.0,217.1L324.7,217.1L324.7,253.0L269.6,253.1L269.6,254.4L253.4,254.4L252.7,249.4L248.1,248.6L248.4,245.7L241.3,245.7L239.8,240.5L237.7,240.4L235.9,236.3L232.3,236.3L231.9,226.2L233.0,222.6L223.7,217.5L210.1,218.0L206.5,214.3L206.5,210.0L203.3,207.1Z"/>
    <path class="wtc-county" id="wtc-county-summit" data-county="Summit" d="M290.7,429.3L289.6,426.8L295.3,419.3L294.3,416.1L299.3,410.4L305.7,409.4L307.2,413.8L315.0,418.5L317.9,412.4L321.8,411.8L327.9,408.2L339.4,404.3L342.6,408.5L346.6,408.9L351.9,407.2L356.9,408.8L361.2,417.5L364.5,417.2L365.2,422.0L374.1,420.7L379.5,424.2L388.8,423.4L392.0,426.3L393.8,425.1L402.1,425.6L406.0,427.4L417.1,428.3L420.3,431.7L425.0,432.8L438.3,431.5L444.3,430.2L454.4,430.8L454.4,449.1L449.4,449.1L430.7,448.9L383.1,449.0L349.8,449.1L349.8,474.5L344.4,470.0L331.2,463.6L327.9,463.7L317.9,462.3L316.5,458.0L310.0,457.5L303.9,455.6L295.3,448.7L296.8,445.2L302.1,444.8L301.8,441.3L306.8,435.2L302.9,431.3L302.9,428.6L299.3,427.4L293.6,430.5L290.7,429.3Z"/>
    <path class="wtc-county" id="wtc-county-tooele" data-county="Tooele" d="M50.4,361.3L50.4,340.2L130.2,340.1L220.5,340.0L220.8,344.0L227.7,343.5L232.3,348.5L237.0,350.7L236.6,355.5L239.8,360.3L237.3,364.9L240.2,366.8L239.8,370.7L235.5,375.9L235.2,382.1L237.3,383.1L234.8,387.7L233.4,395.0L237.7,396.2L237.3,409.9L235.2,412.4L234.1,421.0L228.7,426.3L205.4,457.0L175.0,449.4L134.9,449.4L51.1,449.4L50.7,426.6L50.7,372.7L50.4,361.3Z"/>
    <path class="wtc-county" id="wtc-county-uintah" data-county="Uintah" d="M456.5,330.2L465.8,330.2L462.2,328.3L461.5,324.7L455.1,319.9L455.8,316.1L450.4,306.3L452.9,298.9L451.9,296.6L543.6,295.9L545.3,298.9L548.9,299.5L548.9,315.7L548.9,371.8L548.9,399.5L549.3,415.7L541.8,415.7L538.2,417.8L537.8,428.0L533.9,428.0L533.9,435.2L514.9,435.2L514.9,428.5L505.9,423.5L503.1,424.5L501.6,432.1L497.0,430.7L490.9,431.0L486.6,428.9L479.1,429.7L477.7,427.7L467.3,425.8L456.5,430.4L456.5,330.2Z"/>
    <path class="wtc-county" id="wtc-county-utah" data-county="Utah" d="M237.7,396.2L233.4,395.0L234.8,387.7L237.3,383.1L235.2,382.1L235.5,375.9L239.8,370.7L240.2,366.8L237.3,364.9L239.8,360.3L236.6,355.5L237.0,350.7L243.8,346.9L244.5,342.5L249.5,339.0L246.6,336.1L248.1,332.5L245.9,327.8L250.2,327.3L257.7,330.3L263.8,339.1L271.3,342.1L272.1,344.4L281.0,336.0L278.2,330.7L290.3,330.9L329.7,330.9L368.8,330.9L368.8,339.6L365.2,339.6L346.2,339.6L346.2,343.9L341.5,344.3L342.6,346.4L338.0,348.7L334.0,354.3L329.7,355.1L332.6,362.0L331.9,366.2L327.2,371.7L328.3,373.8L323.3,378.1L317.2,379.2L310.4,378.5L310.7,381.7L306.4,385.7L299.3,386.1L292.5,394.4L297.1,398.1L297.9,404.2L295.3,407.1L291.0,406.3L286.4,402.6L278.5,402.4L271.0,397.0L266.3,396.7L260.2,392.0L256.7,390.9L250.9,395.9L243.4,393.4L240.5,396.5L237.7,396.2Z"/>
    <path class="wtc-county" id="wtc-county-wasatch" data-county="Wasatch" d="M295.3,407.1L297.9,404.2L297.1,398.1L292.5,394.4L299.3,386.1L306.4,385.7L310.7,381.7L310.4,378.5L317.2,379.2L323.3,378.1L328.3,373.8L327.2,371.7L331.9,366.2L332.6,362.0L329.7,355.1L334.0,354.3L338.0,348.7L342.6,346.4L341.5,344.3L346.2,343.9L346.2,339.6L365.2,339.6L364.8,357.8L364.8,392.6L364.1,392.6L364.5,417.2L361.2,417.5L356.9,408.8L351.9,407.2L346.6,408.9L342.6,408.5L339.4,404.3L327.9,408.2L321.8,411.8L317.9,412.4L315.0,418.5L307.2,413.8L305.7,409.4L299.3,410.4L295.3,407.1Z"/>
    <path class="wtc-county" id="wtc-county-washington" data-county="Washington" d="M50.0,110.5L50.0,50.3L121.6,50.3L165.0,50.3L165.0,100.1L151.4,100.1L151.4,97.6L129.5,98.3L129.5,103.0L107.7,103.0L107.7,111.9L96.2,111.9L96.2,110.5L50.0,110.5Z"/>
    <path class="wtc-county" id="wtc-county-wayne" data-county="Wayne" d="M278.2,200.1L269.9,192.4L270.3,165.1L291.0,165.0L313.3,165.4L385.6,165.1L461.5,165.1L465.8,168.7L462.2,172.4L465.5,173.1L461.5,175.9L461.2,178.3L455.8,185.7L456.5,188.8L452.9,186.4L451.1,188.4L454.0,191.5L454.0,198.0L451.9,199.9L399.9,199.9L324.0,199.9L324.0,200.9L279.2,200.9L278.2,200.1Z"/>
    <path class="wtc-county" id="wtc-county-weber" data-county="Weber" d="M205.4,457.0L236.2,464.6L257.7,464.6L263.5,462.8L269.2,463.3L267.0,466.3L268.8,469.1L274.6,471.1L279.9,470.7L282.8,468.1L288.9,467.9L293.6,470.3L295.0,473.1L305.0,472.0L310.7,478.3L309.7,480.8L312.5,485.4L306.8,487.7L303.6,491.6L292.8,491.5L289.3,490.0L285.0,491.0L282.1,486.8L278.5,486.2L274.9,488.5L267.8,489.2L266.3,491.9L263.1,490.5L257.4,491.3L258.5,485.8L251.3,482.9L230.9,482.9L205.4,457.0Z"/>
  </g>
</svg>