<?xml version="1.0" encoding="UTF-8"?>
<svg xmlns="http://www.w3.org/2000/svg" viewBox="0 0 600 321" id="wtc-state-map-WA" role="img" aria-label="wa county map">
  <title>wa Counties</title>
  <g class="wtc-counties">
    <path class="wtc-county" id="wtc-county-adams" data-county="Adams" d="M418.0,159.6L417.8,137.2L393.2,137.3L393.2,126.1L452.2,126.0L467.1,126.2L470.3,126.7L474.5,128.7L477.7,128.0L479.8,129.1L480.4,133.2L482.5,134.4L483.2,159.5L418.0,159.6Z"/>
    <path class="wtc-county" id="wtc-county-asotin" data-county="Asotin" d="M530.0,108.5L530.0,105.2L521.8,105.3L522.0,104.3L517.9,103.4L517.9,86.7L514.0,86.7L514.0,78.8L550.0,78.6L547.5,83.7L545.9,84.3L549.8,89.5L547.0,91.6L547.0,95.1L545.2,98.1L541.3,100.9L542.2,106.2L539.2,105.6L534.8,106.4L531.4,106.0L530.0,108.5Z"/>
    <path class="wtc-county" id="wtc-county-benton" data-county="Benton" d="M360.8,119.1L360.8,92.6L361.3,92.6L361.3,81.5L361.3,68.4L373.9,69.7L376.9,72.9L380.1,74.1L385.6,72.9L389.1,73.7L400.3,75.1L404.2,74.3L408.6,74.6L415.0,76.9L417.5,78.9L420.5,80.7L420.5,83.1L418.2,87.8L414.1,91.2L408.8,93.2L403.8,94.0L399.6,97.1L400.8,99.1L399.4,102.6L400.1,106.8L399.4,112.1L390.9,118.1L390.2,120.7L387.7,122.4L384.0,125.4L377.1,120.3L371.4,120.4L368.6,119.6L360.8,119.1Z"/>
    <path class="wtc-county" id="wtc-county-chelan" data-county="Chelan" d="M288.8,225.8L288.1,224.6L293.8,218.8L294.5,217.1L291.3,216.2L292.0,214.3L288.1,211.8L281.2,210.4L279.1,209.2L281.2,206.8L279.3,205.5L277.5,199.7L280.9,196.3L283.9,195.5L281.2,192.7L284.6,188.5L280.9,186.7L280.3,184.2L281.6,181.0L281.9,180.8L281.9,180.7L284.8,177.5L289.0,176.0L293.1,172.3L293.6,170.5L297.7,169.7L298.9,169.2L301.4,169.9L302.8,168.4L306.0,168.0L306.4,166.6L310.1,164.8L315.4,164.5L316.3,162.7L319.7,163.4L327.8,159.6L346.8,159.6L347.3,164.6L344.5,166.3L334.4,168.0L332.4,172.1L334.0,177.3L337.9,181.1L337.6,183.3L339.9,186.5L338.6,189.1L340.4,191.4L344.3,192.5L346.8,191.7L353.0,192.9L355.3,197.0L357.9,198.0L358.1,200.5L361.8,203.1L361.1,204.3L349.6,204.3L347.1,208.0L343.8,209.1L343.6,210.9L338.3,212.2L329.6,217.3L330.3,220.1L323.0,224.1L320.4,226.2L315.6,227.2L315.8,231.0L311.9,232.3L310.3,235.7L311.9,238.6L311.2,240.9L307.8,240.8L303.9,239.3L300.5,240.1L297.9,241.9L294.9,240.3L292.0,240.7L292.0,238.8L286.5,238.5L284.8,236.3L286.5,234.4L284.6,231.9L286.0,230.1L284.2,227.1L288.8,225.8Z"/>
    <path class="wtc-county" id="wtc-county-clallam" data-county="Clallam" d="M165.5,211.0L166.2,212.7L162.3,213.0L158.4,212.0L156.7,214.5L151.7,216.8L152.4,218.1L145.0,214.2L135.6,214.1L132.9,215.9L127.4,215.5L125.1,216.5L123.0,215.4L115.9,217.5L111.1,216.8L98.2,217.4L90.2,219.6L90.4,220.7L81.0,223.7L79.6,223.1L73.9,225.2L71.6,225.3L64.2,228.8L55.1,231.8L51.1,231.8L50.5,230.5L54.8,228.0L52.8,220.4L50.0,217.3L52.5,214.2L52.3,211.3L54.1,205.7L57.8,199.2L128.5,199.2L128.5,198.3L164.1,198.3L164.1,211.0L165.5,211.0Z"/>
    <path class="wtc-county" id="wtc-county-clark" data-county="Clark" d="M174.7,69.3L174.0,66.8L175.6,64.9L176.0,61.5L176.0,56.9L183.6,54.0L194.2,52.0L196.7,51.0L200.6,51.8L203.6,50.0L208.9,50.0L208.9,67.3L209.1,82.4L207.5,82.7L203.8,79.6L203.6,76.6L201.1,76.4L194.4,78.1L190.7,77.6L189.1,75.9L182.7,74.3L178.8,74.6L177.6,73.5L178.8,70.4L174.7,69.3Z"/>
    <path class="wtc-county" id="wtc-county-columbia" data-county="Columbia" d="M466.0,116.9L465.1,114.7L465.3,97.7L473.3,97.8L473.3,92.2L481.1,92.2L480.9,79.0L482.0,79.0L506.2,78.8L506.2,86.6L505.5,86.6L505.5,100.5L501.6,100.5L501.6,103.4L498.8,104.3L497.4,109.1L489.4,109.0L490.1,118.8L488.2,116.8L483.7,116.8L474.7,115.7L470.1,114.4L466.9,116.6L466.0,116.9Z"/>
    <path class="wtc-county" id="wtc-county-cowlitz" data-county="Cowlitz" d="M146.9,103.6L147.3,89.9L150.3,91.0L153.5,90.8L167.1,84.2L168.7,80.9L172.8,76.4L173.0,73.3L174.7,69.3L178.8,70.4L177.6,73.5L178.8,74.6L182.7,74.3L189.1,75.9L190.7,77.6L194.4,78.1L201.1,76.4L203.6,76.6L203.8,79.6L207.5,82.7L209.1,82.4L209.6,103.4L209.3,103.6L201.5,103.7L146.9,103.6Z"/>
    <path class="wtc-county" id="wtc-county-douglas" data-county="Douglas" d="M361.1,204.3L361.8,203.1L358.1,200.5L357.9,198.0L355.3,197.0L353.0,192.9L346.8,191.7L344.3,192.5L340.4,191.4L338.6,189.1L339.9,186.5L337.6,183.3L337.9,181.1L334.0,177.3L332.4,172.1L334.4,168.0L344.5,166.3L347.3,164.6L346.8,159.6L348.0,157.3L352.3,156.9L352.6,163.4L357.9,166.2L357.9,168.0L360.6,169.0L360.6,170.8L382.6,171.1L382.6,176.6L390.9,182.0L396.2,183.0L397.6,185.7L397.6,189.4L400.3,190.3L400.3,192.2L403.1,194.1L403.1,199.6L408.6,201.5L410.0,204.4L417.8,204.4L419.8,208.0L416.6,209.6L414.8,214.1L413.2,215.6L407.0,216.2L400.3,213.4L397.6,214.2L395.7,213.0L394.8,210.0L390.9,210.1L388.8,211.7L384.7,212.1L377.4,206.8L375.1,206.8L372.3,208.8L373.9,211.2L373.0,212.8L362.7,211.8L359.5,210.0L361.1,208.0L361.1,204.3Z"/>
    <path class="wtc-county" id="wtc-county-ferry" data-county="Ferry" d="M427.2,270.8L427.2,248.6L425.1,248.6L425.1,237.6L426.7,237.6L426.5,204.5L426.3,204.1L428.8,201.7L434.1,200.4L436.6,203.1L438.9,202.1L444.2,202.5L446.5,201.4L445.8,199.4L450.8,199.3L452.2,196.9L455.6,196.0L457.9,196.7L458.9,200.1L458.2,205.2L455.0,208.7L457.9,210.0L462.5,209.4L465.7,210.9L464.6,215.3L467.8,215.8L468.5,220.6L471.7,224.1L469.7,227.1L467.8,232.7L467.6,237.1L469.2,239.8L471.0,240.1L474.0,248.5L472.2,255.2L467.1,263.7L466.4,266.8L468.0,270.8L427.2,270.8Z"/>
    <path class="wtc-county" id="wtc-county-franklin" data-county="Franklin" d="M387.7,122.4L390.2,120.7L390.9,118.1L399.4,112.1L400.1,106.8L399.4,102.6L400.8,99.1L399.6,97.1L403.8,94.0L408.8,93.2L414.1,91.2L418.5,94.2L425.3,95.0L427.6,96.9L431.5,98.0L432.9,101.9L435.7,101.9L440.0,105.4L441.4,111.2L445.5,114.5L450.6,117.1L455.6,116.0L461.2,117.6L466.0,116.9L466.9,116.6L467.8,118.8L466.0,120.9L466.7,122.4L464.8,125.9L467.1,126.2L452.2,126.0L393.2,126.1L393.2,122.3L387.7,122.4Z"/>
    <path class="wtc-county" id="wtc-county-garfield" data-county="Garfield" d="M490.1,118.8L489.4,109.0L497.4,109.1L498.8,104.3L501.6,103.4L501.6,100.5L505.5,100.5L505.5,86.6L506.2,86.6L506.2,78.8L514.0,78.8L514.0,86.7L517.9,86.7L517.9,103.4L522.0,104.3L521.8,105.3L530.0,105.2L530.0,108.5L528.4,113.8L523.1,116.1L519.7,118.9L519.5,120.7L517.2,120.9L514.9,123.6L511.7,122.2L506.4,121.9L503.2,123.7L497.2,123.4L493.5,118.9L490.1,118.8Z"/>
    <path class="wtc-county" id="wtc-county-grant" data-county="Grant" d="M352.3,156.9L352.6,150.9L350.0,147.4L352.1,145.4L354.9,139.3L355.1,133.8L357.4,131.2L354.4,126.0L356.2,122.1L360.8,119.1L368.6,119.6L371.4,120.4L377.1,120.3L384.0,125.4L387.7,122.4L393.2,122.3L393.2,126.1L393.2,137.3L417.8,137.2L418.0,159.6L418.5,203.2L417.8,204.4L410.0,204.4L408.6,201.5L403.1,199.6L403.1,194.1L400.3,192.2L400.3,190.3L397.6,189.4L397.6,185.7L396.2,183.0L390.9,182.0L382.6,176.6L382.6,171.1L360.6,170.8L360.6,169.0L357.9,168.0L357.9,166.2L352.6,163.4L352.3,156.9Z"/>
    <path class="wtc-county" id="wtc-county-grays-harbor" data-county="Grays Harbor" d="M74.3,177.0L76.4,165.6L81.9,161.2L85.1,151.5L86.0,140.2L85.4,138.1L89.0,139.3L87.2,144.2L89.0,145.5L95.2,144.8L95.7,142.3L103.5,141.0L105.8,139.6L93.8,136.1L91.3,134.4L89.9,137.3L88.1,136.8L90.6,129.7L107.2,129.6L137.2,129.6L150.6,129.7L150.8,142.6L147.8,142.7L148.0,148.3L129.7,148.1L129.4,159.4L128.5,159.4L128.5,176.0L93.8,176.0L93.8,177.0L74.3,177.0Z"/>
    <path class="wtc-county" id="wtc-county-island" data-county="Island" d="M199.0,223.0L195.1,224.1L191.0,222.8L190.5,218.6L192.1,215.4L194.9,215.2L200.8,210.5L200.6,212.4L196.5,215.2L194.2,218.8L196.7,220.4L196.0,221.7L199.4,221.4L199.0,223.0ZM175.6,221.4L180.6,218.4L181.3,216.8L185.4,217.0L186.6,213.9L185.9,208.8L190.3,206.4L189.8,204.7L194.6,206.1L197.4,201.4L200.6,200.7L202.4,203.8L200.8,209.0L197.2,209.7L193.5,212.9L191.2,213.0L192.3,209.3L190.5,207.9L188.2,213.4L189.1,214.1L187.3,218.7L184.8,221.0L179.5,220.5L178.8,221.8L182.0,222.2L185.0,224.1L185.2,225.7L189.1,224.8L192.6,225.9L191.9,227.3L187.5,229.4L187.5,232.1L185.9,233.1L182.2,232.5L181.8,229.5L178.6,226.3L175.6,221.4Z"/>
    <path class="wtc-county" id="wtc-county-jefferson" data-county="Jefferson" d="M57.8,199.2L61.2,198.1L62.4,196.4L65.6,195.1L66.5,192.1L69.7,190.1L73.2,181.2L74.3,177.0L93.8,177.0L93.8,176.0L128.5,176.0L128.5,181.5L137.5,181.7L162.3,181.6L167.5,186.0L168.5,189.0L172.8,194.5L174.2,193.6L171.7,187.4L174.9,187.9L177.0,194.1L180.9,196.0L180.4,198.4L184.1,198.2L185.9,199.6L182.9,200.8L181.1,205.1L178.6,207.4L182.0,207.9L180.2,213.4L177.9,212.6L177.4,210.0L175.8,209.7L173.5,212.4L177.0,214.3L176.3,216.0L171.4,215.4L168.7,213.9L168.7,211.7L171.9,209.8L171.2,206.9L168.9,206.6L168.7,209.8L165.5,211.0L164.1,211.0L164.1,198.3L128.5,198.3L128.5,199.2L57.8,199.2Z"/>
    <path class="wtc-county" id="wtc-county-king" data-county="King" d="M199.4,192.6L201.1,189.5L197.4,185.0L202.9,181.8L197.8,179.7L199.4,175.8L201.7,173.6L200.4,171.7L202.2,171.1L204.0,167.9L204.0,165.2L198.1,163.4L203.4,159.3L215.7,159.3L217.8,156.2L221.9,153.8L224.9,153.9L228.8,151.7L230.9,152.7L234.8,152.0L238.0,154.0L244.9,152.4L246.5,153.1L251.1,150.5L257.5,150.3L260.3,148.3L264.4,148.5L263.5,151.4L269.5,151.8L268.5,156.4L265.3,157.2L267.2,158.7L266.9,160.8L261.4,161.4L261.2,164.3L258.9,166.4L260.7,166.6L261.4,169.8L269.5,174.0L275.0,179.3L281.6,181.0L280.3,184.2L280.9,186.7L284.6,188.5L281.2,192.7L259.6,192.8L251.3,192.6L225.4,192.5L199.4,192.6ZM191.2,165.8L191.6,164.2L195.8,164.8L196.9,166.3L201.1,167.7L196.7,169.5L197.2,172.7L194.4,175.5L192.1,171.6L191.2,165.8Z"/>
    <path class="wtc-county" id="wtc-county-kitsap" data-county="Kitsap" d="M189.8,168.7L191.0,172.9L193.3,175.5L189.8,176.4L190.0,178.5L193.3,180.5L193.3,183.5L191.6,184.5L192.6,187.6L190.0,188.4L189.3,190.5L194.4,190.5L191.2,200.8L186.1,203.0L188.2,197.7L181.1,194.0L177.4,189.9L176.7,185.9L170.1,184.4L162.9,180.3L159.7,176.2L173.5,176.2L173.5,168.7L189.8,168.7Z"/>
    <path class="wtc-county" id="wtc-county-kittitas" data-county="Kittitas" d="M281.6,181.0L275.0,179.3L269.5,174.0L261.4,169.8L260.7,166.6L258.9,166.4L261.2,164.3L261.4,161.4L266.9,160.8L267.2,158.7L265.3,157.2L268.5,156.4L269.5,151.8L263.5,151.4L264.4,148.5L265.8,147.4L270.8,148.5L274.5,147.1L283.0,142.3L283.0,140.9L287.1,137.2L312.2,137.3L312.2,131.7L320.2,131.6L320.2,126.1L354.4,126.0L357.4,131.2L355.1,133.8L354.9,139.3L352.1,145.4L350.0,147.4L352.6,150.9L352.3,156.9L348.0,157.3L346.8,159.6L327.8,159.6L319.7,163.4L316.3,162.7L315.4,164.5L310.1,164.8L306.4,166.6L306.0,168.0L302.8,168.4L301.4,169.9L298.9,169.2L297.7,169.7L293.6,170.5L293.1,172.3L289.0,176.0L284.8,177.5L281.9,180.7L281.9,180.8L281.6,181.0Z"/>
    <path class="wtc-county" id="wtc-county-klickitat" data-county="Klickitat" d="M255.5,81.7L249.7,81.7L249.7,65.0L255.7,64.9L254.3,64.2L255.2,61.3L260.5,59.6L267.2,60.1L275.0,57.9L277.0,53.7L280.3,54.0L284.6,56.7L292.4,56.9L294.3,55.9L297.9,57.9L308.7,60.7L311.0,62.1L314.9,62.7L321.8,59.3L326.9,59.7L334.7,61.1L339.3,61.4L341.8,63.7L348.2,65.2L352.8,66.9L361.3,68.4L361.3,81.5L316.1,81.5L284.4,81.6L280.3,81.8L255.5,81.7Z"/>
    <path class="wtc-county" id="wtc-county-lewis" data-county="Lewis" d="M137.2,129.6L137.5,114.9L137.9,114.8L137.9,103.5L146.9,103.6L201.5,103.7L209.3,103.6L255.5,103.7L263.5,103.7L264.2,105.2L261.0,109.3L259.8,113.0L262.4,114.6L264.0,118.6L262.4,120.4L262.6,122.6L264.6,122.8L265.1,125.3L261.2,126.4L259.6,129.0L240.3,129.0L235.5,125.6L229.3,126.3L227.7,127.2L222.2,126.4L211.8,127.7L185.4,127.6L150.6,127.8L150.6,129.7L137.2,129.6Z"/>
    <path class="wtc-county" id="wtc-county-lincoln" data-county="Lincoln" d="M418.5,203.2L418.0,159.6L483.2,159.5L491.9,159.5L492.1,195.7L488.2,197.1L484.8,195.5L481.4,196.2L477.7,193.5L473.1,196.1L471.5,199.4L467.1,203.4L464.8,203.2L458.9,200.1L457.9,196.7L455.6,196.0L452.2,196.9L450.8,199.3L445.8,199.4L446.5,201.4L444.2,202.5L438.9,202.1L436.6,203.1L434.1,200.4L428.8,201.7L426.3,204.1L418.5,203.2Z"/>
    <path class="wtc-county" id="wtc-county-mason" data-county="Mason" d="M162.3,181.6L137.5,181.7L128.5,181.5L128.5,176.0L128.5,159.4L129.4,159.4L129.7,148.1L148.0,148.3L156.1,148.3L156.1,149.7L160.0,150.8L160.7,152.5L165.0,155.0L167.1,152.9L169.8,153.6L171.2,156.2L169.6,160.2L173.5,165.4L173.5,168.7L173.5,176.2L159.7,176.2L153.3,167.9L157.2,166.4L167.3,169.8L166.6,167.7L161.8,166.8L159.0,165.3L153.8,166.0L151.0,165.6L154.0,172.1L162.3,181.6Z"/>
    <path class="wtc-county" id="wtc-county-okanogan" data-county="Okanogan" d="M298.4,270.8L296.1,269.2L299.3,266.9L302.1,268.2L303.7,262.9L305.7,262.1L305.7,257.1L309.4,253.8L304.6,248.8L302.3,246.8L304.1,244.1L306.7,244.9L308.7,243.6L307.8,240.8L311.2,240.9L311.9,238.6L310.3,235.7L311.9,232.3L315.8,231.0L315.6,227.2L320.4,226.2L323.0,224.1L330.3,220.1L329.6,217.3L338.3,212.2L343.6,210.9L343.8,209.1L347.1,208.0L349.6,204.3L361.1,204.3L361.1,208.0L359.5,210.0L362.7,211.8L373.0,212.8L373.9,211.2L372.3,208.8L375.1,206.8L377.4,206.8L384.7,212.1L388.8,211.7L390.9,210.1L394.8,210.0L395.7,213.0L397.6,214.2L400.3,213.4L407.0,216.2L413.2,215.6L414.8,214.1L416.6,209.6L419.8,208.0L417.8,204.4L418.5,203.2L426.3,204.1L426.5,204.5L426.7,237.6L425.1,237.6L425.1,248.6L427.2,248.6L427.2,270.8L389.3,270.8L350.5,270.8L298.4,270.8Z"/>
    <path class="wtc-county" id="wtc-county-pacific" data-county="Pacific" d="M90.6,129.7L90.9,126.6L95.5,124.2L99.1,124.0L98.2,125.3L102.3,125.4L103.7,126.9L107.6,124.8L101.9,121.9L99.4,119.6L103.7,113.2L100.5,108.7L97.8,110.7L97.8,107.4L100.0,105.2L99.8,103.1L95.9,103.1L95.0,110.7L95.5,116.2L92.5,119.5L93.4,110.4L93.2,103.6L91.8,96.0L94.1,96.5L95.7,99.1L98.0,98.7L102.8,94.6L104.9,94.2L109.2,97.0L112.2,96.5L114.3,97.4L114.5,103.5L137.9,103.5L137.9,114.8L137.5,114.9L137.2,129.6L107.2,129.6L90.6,129.7Z"/>
    <path class="wtc-county" id="wtc-county-pend-oreille" data-county="Pend Oreille" d="M517.2,270.8L517.2,265.9L512.8,265.9L512.8,260.3L508.7,260.3L508.7,254.3L504.3,254.3L504.3,248.8L512.6,248.8L512.6,215.4L516.7,215.4L516.7,209.8L542.0,209.7L542.4,230.5L542.4,254.8L542.7,261.0L542.7,270.7L517.2,270.8Z"/>
    <path class="wtc-county" id="wtc-county-pierce" data-county="Pierce" d="M180.4,149.5L179.5,148.3L181.8,143.8L184.1,141.5L188.7,140.7L188.9,138.6L193.3,136.8L193.5,134.4L196.0,133.4L205.4,131.9L205.2,129.4L207.5,128.0L211.8,127.7L222.2,126.4L227.7,127.2L229.3,126.3L235.5,125.6L240.3,129.0L259.6,129.0L257.1,134.1L255.2,134.7L259.6,138.0L260.3,141.6L262.8,142.8L264.9,146.5L264.4,148.5L260.3,148.3L257.5,150.3L251.1,150.5L246.5,153.1L244.9,152.4L238.0,154.0L234.8,152.0L230.9,152.7L228.8,151.7L224.9,153.9L221.9,153.8L217.8,156.2L215.7,159.3L203.4,159.3L198.1,163.4L196.5,162.1L198.8,161.3L196.5,159.9L190.7,163.1L191.2,161.5L188.9,158.6L187.1,154.2L184.1,153.4L184.1,151.5L180.4,149.5ZM173.5,165.4L173.7,161.4L171.0,159.3L175.6,153.6L179.2,151.0L181.8,152.5L181.5,155.1L183.8,156.0L177.0,160.5L178.3,164.0L182.0,166.3L180.2,161.0L186.4,156.8L189.8,161.1L188.2,163.8L190.5,166.9L189.8,168.7L173.5,168.7L173.5,165.4Z"/>
    <path class="wtc-county" id="wtc-county-san-juan" data-county="San Juan" d="M162.3,257.6L165.7,255.1L170.8,254.0L172.6,254.4L164.8,257.4L162.3,257.6ZM156.3,251.6L160.7,251.2L160.2,253.0L156.3,251.6ZM147.8,244.9L149.9,243.8L151.2,239.7L158.4,236.3L163.4,235.7L165.5,236.3L168.9,233.6L173.5,234.2L172.6,238.0L175.1,239.4L175.6,242.8L173.0,246.4L177.4,249.2L168.9,252.4L166.2,252.5L157.7,246.5L161.8,242.7L157.9,243.2L154.5,245.1L154.0,246.6L149.4,246.6L147.8,244.9ZM145.7,250.9L147.1,249.6L154.0,247.4L149.9,250.3L145.7,250.9Z"/>
    <path class="wtc-county" id="wtc-county-skagit" data-county="Skagit" d="M183.1,241.9L183.8,240.4L187.7,241.9L183.1,244.1L183.1,241.9ZM193.5,248.1L197.6,245.2L196.5,243.3L192.6,243.0L194.9,237.0L190.5,236.6L188.4,239.3L185.4,240.2L179.9,238.6L179.2,236.5L182.2,237.4L181.3,234.9L182.9,233.1L189.6,234.9L189.3,232.8L192.3,230.2L198.8,227.7L200.6,225.9L227.0,225.8L288.8,225.8L284.2,227.1L286.0,230.1L284.6,231.9L286.5,234.4L284.8,236.3L286.5,238.5L292.0,238.8L292.0,240.7L294.9,240.3L297.9,241.9L300.5,240.1L303.9,239.3L307.8,240.8L308.7,243.6L306.7,244.9L304.1,244.1L302.3,246.8L304.6,248.8L294.7,248.8L294.7,247.8L252.7,247.9L193.5,248.1ZM177.4,244.2L178.6,241.4L182.0,243.2L179.2,245.8L177.4,244.2Z"/>
    <path class="wtc-county" id="wtc-county-skamania" data-county="Skamania" d="M209.1,82.4L208.9,67.3L208.9,50.0L213.0,51.9L218.3,52.3L229.8,56.5L233.4,59.3L236.9,60.2L241.7,59.3L248.3,60.0L255.2,61.3L254.3,64.2L255.7,64.9L249.7,65.0L249.7,81.7L255.5,81.7L255.5,103.7L209.3,103.6L209.6,103.4L209.1,82.4Z"/>
    <path class="wtc-county" id="wtc-county-snohomish" data-county="Snohomish" d="M199.0,223.0L199.4,221.4L201.7,218.8L201.5,214.7L206.8,210.0L210.0,208.7L210.2,204.9L205.2,203.6L203.1,197.0L199.7,194.5L199.4,192.6L225.4,192.5L251.3,192.6L259.6,192.8L281.2,192.7L283.9,195.5L280.9,196.3L277.5,199.7L279.3,205.5L281.2,206.8L279.1,209.2L281.2,210.4L288.1,211.8L292.0,214.3L291.3,216.2L294.5,217.1L293.8,218.8L288.1,224.6L288.8,225.8L227.0,225.8L200.6,225.9L199.0,223.0Z"/>
    <path class="wtc-county" id="wtc-county-spokane" data-county="Spokane" d="M492.1,195.7L491.9,159.5L542.0,159.5L542.0,166.3L542.0,205.4L542.0,209.7L516.7,209.8L510.5,209.9L510.5,193.7L506.2,194.2L502.5,196.8L502.0,199.2L494.0,194.8L492.1,195.7Z"/>
    <path class="wtc-county" id="wtc-county-stevens" data-county="Stevens" d="M468.0,270.8L466.4,266.8L467.1,263.7L472.2,255.2L474.0,248.5L471.0,240.1L469.2,239.8L467.6,237.1L467.8,232.7L469.7,227.1L471.7,224.1L468.5,220.6L467.8,215.8L464.6,215.3L465.7,210.9L462.5,209.4L457.9,210.0L455.0,208.7L458.2,205.2L458.9,200.1L464.8,203.2L467.1,203.4L471.5,199.4L473.1,196.1L477.7,193.5L481.4,196.2L484.8,195.5L488.2,197.1L492.1,195.7L494.0,194.8L502.0,199.2L502.5,196.8L506.2,194.2L510.5,193.7L510.5,209.9L516.7,209.8L516.7,215.4L512.6,215.4L512.6,248.8L504.3,248.8L504.3,254.3L508.7,254.3L508.7,260.3L512.8,260.3L512.8,265.9L517.2,265.9L517.2,270.8L468.0,270.8Z"/>
    <path class="wtc-county" id="wtc-county-thurston" data-county="Thurston" d="M148.0,148.3L147.8,142.7L150.8,142.6L150.6,129.7L150.6,127.8L185.4,127.6L211.8,127.7L207.5,128.0L205.2,129.4L205.4,131.9L196.0,133.4L193.5,134.4L193.3,136.8L188.9,138.6L188.7,140.7L184.1,141.5L181.8,143.8L179.5,148.3L180.4,149.5L175.3,150.7L172.8,154.3L169.8,153.6L167.1,152.9L165.0,155.0L160.7,152.5L160.0,150.8L156.1,149.7L156.1,148.3L148.0,148.3Z"/>
    <path class="wtc-county" id="wtc-county-wahkiakum" data-county="Wahkiakum" d="M137.9,103.5L114.5,103.5L114.3,97.4L117.3,97.9L118.0,96.0L125.8,95.5L130.6,96.0L133.6,93.6L133.3,90.5L137.7,88.2L143.0,88.2L147.3,89.9L146.9,103.6L137.9,103.5Z"/>
    <path class="wtc-county" id="wtc-county-walla-walla" data-county="Walla Walla" d="M466.0,116.9L461.2,117.6L455.6,116.0L450.6,117.1L445.5,114.5L441.4,111.2L440.0,105.4L435.7,101.9L432.9,101.9L431.5,98.0L427.6,96.9L425.3,95.0L418.5,94.2L414.1,91.2L418.2,87.8L420.5,83.1L420.5,80.7L417.5,78.9L480.9,79.0L481.1,92.2L473.3,92.2L473.3,97.8L465.3,97.7L465.1,114.7L466.0,116.9Z"/>
    <path class="wtc-county" id="wtc-county-whatcom" data-county="Whatcom" d="M178.6,253.6L181.8,250.4L185.9,248.1L179.9,254.4L178.6,253.6ZM298.4,270.8L274.1,270.9L240.8,270.6L218.5,270.9L176.3,270.9L172.6,268.0L175.6,267.1L176.7,265.1L174.2,264.0L179.0,261.0L179.2,257.4L181.3,258.2L183.6,256.8L181.8,253.7L186.1,251.5L184.1,253.9L186.6,256.2L190.5,256.5L193.5,254.8L191.6,252.4L193.5,248.1L252.7,247.9L294.7,247.8L294.7,248.8L304.6,248.8L309.4,253.8L305.7,257.1L305.7,262.1L303.7,262.9L302.1,268.2L299.3,266.9L296.1,269.2L298.4,270.8ZM155.1,270.9L155.6,269.2L159.5,269.3L158.6,270.9L155.1,270.9Z"/>
    <path class="wtc-county" id="wtc-county-whitman" data-county="Whitman" d="M467.1,126.2L464.8,125.9L466.7,122.4L466.0,120.9L467.8,118.8L466.9,116.6L470.1,114.4L474.7,115.7L483.7,116.8L488.2,116.8L490.1,118.8L493.5,118.9L497.2,123.4L503.2,123.7L506.4,121.9L511.7,122.2L514.9,123.6L517.2,120.9L519.5,120.7L519.7,118.9L523.1,116.1L528.4,113.8L530.0,108.5L531.4,106.0L534.8,106.4L539.2,105.6L542.2,106.2L542.2,113.6L542.2,151.0L542.0,159.5L491.9,159.5L483.2,159.5L482.5,134.4L480.4,133.2L479.8,129.1L477.7,128.0L474.5,128.7L470.3,126.7L467.1,126.2Z"/>
    <path class="wtc-county" id="wtc-county-yakima" data-county="Yakima" d="M264.4,148.5L264.9,146.5L262.8,142.8L260.3,141.6L259.6,138.0L255.2,134.7L257.1,134.1L259.6,129.0L261.2,126.4L265.1,125.3L264.6,122.8L262.6,122.6L262.4,120.4L264.0,118.6L262.4,114.6L259.8,113.0L261.0,109.3L264.2,105.2L263.5,103.7L255.5,103.7L255.5,81.7L280.3,81.8L284.4,81.6L316.1,81.5L361.3,81.5L361.3,92.6L360.8,92.6L360.8,119.1L356.2,122.1L354.4,126.0L320.2,126.1L320.2,131.6L312.2,131.7L312.2,137.3L287.1,137.2L283.0,140.9L283.0,142.3L274.5,147.1L270.8,148.5L265.8,147.4L264.4,148.5Z"/>
  </g>
</svg>