<?xml version="1.0" encoding="UTF-8"?>
<svg xmlns="http://www.w3.org/2000/svg" viewBox="0 0 463 600" id="wtc-state-map-IL" role="img" aria-label="il county map">
  <title>il Counties</title>
  <g class="wtc-counties">
    <path class="wtc-county" id="wtc-county-adams" data-county="Adams" d="M51.0,258.4L50.0,260.4L51.9,273.2L57.1,281.4L58.7,283.1L56.2,288.2L57.8,291.1L62.6,293.8L63.6,298.3L104.1,298.4L104.1,290.5L104.1,267.1L104.4,259.1L51.0,258.4Z"/>
    <path class="wtc-county" id="wtc-county-alexander" data-county="Alexander" d="M233.1,517.1L230.2,521.5L232.8,524.6L235.7,525.6L235.4,529.3L239.6,536.0L243.1,539.6L242.8,543.7L249.0,546.5L252.8,547.9L253.8,546.0L249.0,542.5L253.5,541.5L259.0,545.9L261.6,550.0L265.2,548.9L260.6,544.9L261.6,541.2L253.5,537.7L252.8,531.0L255.4,522.9L258.7,521.2L258.4,518.3L254.5,517.0L233.1,517.1Z"/>
    <path class="wtc-county" id="wtc-county-bond" data-county="Bond" d="M219.5,366.8L219.5,378.1L223.0,378.1L223.0,389.9L254.1,390.1L253.8,366.8L254.5,364.3L224.0,364.3L224.0,366.8L219.5,366.8Z"/>
    <path class="wtc-county" id="wtc-county-boone" data-county="Boone" d="M282.3,51.2L282.3,82.2L303.7,82.0L303.4,51.4L297.2,51.5L282.3,51.2Z"/>
    <path class="wtc-county" id="wtc-county-brown" data-county="Brown" d="M104.1,267.1L104.1,290.5L106.1,290.9L135.2,291.0L133.9,287.6L136.8,285.4L140.7,279.4L140.4,277.5L132.0,278.2L132.3,276.2L125.5,271.7L123.9,267.2L104.1,267.1Z"/>
    <path class="wtc-county" id="wtc-county-bureau" data-county="Bureau" d="M199.1,133.4L199.7,139.4L199.7,165.0L219.5,165.1L219.5,172.8L235.0,172.8L235.0,165.1L244.7,165.2L246.7,159.0L252.8,157.1L262.2,158.2L261.9,133.4L220.1,133.4L199.1,133.4Z"/>
    <path class="wtc-county" id="wtc-county-calhoun" data-county="Calhoun" d="M102.2,330.7L115.1,338.8L121.6,346.6L122.6,352.8L125.2,358.8L122.3,361.6L125.8,368.2L126.8,372.7L130.0,376.6L133.9,378.6L137.5,378.1L141.1,375.6L144.0,370.5L145.9,369.7L138.5,370.5L135.2,367.4L134.3,360.8L132.3,356.2L131.3,352.1L133.3,348.8L131.7,343.3L132.3,340.4L130.7,333.8L131.3,331.1L102.2,330.7Z"/>
    <path class="wtc-county" id="wtc-county-carroll" data-county="Carroll" d="M157.9,78.5L168.0,82.2L172.2,85.4L171.5,89.1L172.8,93.0L174.1,95.1L171.8,99.9L173.1,102.3L215.3,102.2L214.9,77.9L193.9,78.2L157.9,78.5Z"/>
    <path class="wtc-county" id="wtc-county-cass" data-county="Cass" d="M140.4,277.5L140.7,279.4L136.8,285.4L133.9,287.6L187.4,287.9L187.4,285.4L187.1,266.7L180.9,267.4L174.8,270.9L168.9,271.7L160.8,271.5L158.2,266.0L154.7,265.3L148.2,271.0L147.5,274.6L140.4,277.5Z"/>
    <path class="wtc-county" id="wtc-county-champaign" data-county="Champaign" d="M325.8,251.0L325.4,256.3L325.4,287.4L373.1,287.3L372.4,256.1L373.7,256.1L373.4,240.4L325.8,240.5L325.8,251.0Z"/>
    <path class="wtc-county" id="wtc-county-christian" data-county="Christian" d="M257.4,293.4L254.8,292.2L249.6,296.7L245.1,297.1L241.2,299.8L238.6,297.9L238.6,305.1L233.7,305.0L233.7,308.9L228.9,308.9L228.9,319.4L229.2,335.2L264.5,335.2L274.9,335.6L274.6,307.7L264.5,307.6L264.2,294.5L257.4,293.4Z"/>
    <path class="wtc-county" id="wtc-county-clark" data-county="Clark" d="M370.8,323.3L365.9,323.4L366.3,332.5L366.6,351.1L371.8,351.0L390.2,350.6L398.3,351.2L399.6,352.5L405.8,347.0L403.2,343.3L402.6,341.3L405.5,336.0L409.7,335.3L409.7,323.7L395.4,323.7L395.4,322.8L370.8,323.3Z"/>
    <path class="wtc-county" id="wtc-county-clay" data-county="Clay" d="M304.7,382.5L304.4,402.3L316.4,402.3L344.6,403.0L340.3,399.8L342.6,397.2L341.6,391.0L343.9,391.0L343.9,380.5L334.5,380.2L334.5,374.8L304.7,374.5L304.7,382.5Z"/>
    <path class="wtc-county" id="wtc-county-clinton" data-county="Clinton" d="M213.3,397.9L213.3,419.6L221.4,414.4L228.2,413.7L233.4,414.7L238.3,412.0L246.0,410.9L264.2,411.6L264.5,390.5L254.1,390.1L223.0,389.9L223.4,397.8L213.3,397.9Z"/>
    <path class="wtc-county" id="wtc-county-coles" data-county="Coles" d="M324.8,307.9L324.8,326.4L324.8,332.9L366.3,332.5L365.9,323.4L370.8,323.3L370.5,304.8L361.7,305.2L361.7,307.9L324.8,307.9Z"/>
    <path class="wtc-county" id="wtc-county-cook" data-county="Cook" d="M345.8,82.0L345.8,89.9L343.6,89.9L343.6,97.2L374.4,96.5L374.4,108.4L375.0,121.5L370.2,124.2L364.6,124.3L365.0,128.3L375.3,128.1L375.3,135.9L386.0,135.8L386.4,143.8L410.0,143.8L410.3,122.3L409.7,118.6L407.1,117.1L402.6,109.9L401.3,104.1L397.0,93.3L396.1,89.1L388.9,82.2L349.4,82.0L345.8,82.0Z"/>
    <path class="wtc-county" id="wtc-county-crawford" data-county="Crawford" d="M371.8,351.0L372.1,380.3L375.7,380.3L409.4,380.1L407.7,379.5L410.0,375.1L411.3,370.8L405.5,367.7L405.8,361.6L400.6,357.4L399.6,352.5L398.3,351.2L390.2,350.6L371.8,351.0Z"/>
    <path class="wtc-county" id="wtc-county-cumberland" data-county="Cumberland" d="M324.8,347.3L324.8,351.3L334.8,351.3L366.6,351.1L366.3,332.5L324.8,332.9L324.8,347.3Z"/>
    <path class="wtc-county" id="wtc-county-dekalb" data-county="DeKalb" d="M282.3,82.2L282.7,90.1L282.3,105.7L282.7,129.5L312.8,129.2L313.1,121.3L313.1,89.9L314.1,89.9L314.1,82.0L303.7,82.0L282.3,82.2Z"/>
    <path class="wtc-county" id="wtc-county-de-witt" data-county="De Witt" d="M263.5,251.0L263.9,272.1L300.2,271.5L300.2,267.5L305.3,267.5L305.3,263.7L315.4,251.1L263.5,251.0Z"/>
    <path class="wtc-county" id="wtc-county-douglas" data-county="Douglas" d="M324.5,295.3L324.8,307.9L361.7,307.9L361.7,305.2L370.5,304.8L370.2,295.2L373.1,295.2L373.1,287.3L325.4,287.4L325.4,295.3L324.5,295.3Z"/>
    <path class="wtc-county" id="wtc-county-dupage" data-county="DuPage" d="M343.6,97.2L343.6,120.8L364.6,120.4L364.6,124.3L370.2,124.2L375.0,121.5L374.4,108.4L374.4,96.5L343.6,97.2Z"/>
    <path class="wtc-county" id="wtc-county-edgar" data-county="Edgar" d="M373.1,287.3L373.1,295.2L370.2,295.2L370.5,304.8L370.8,323.3L395.4,322.8L395.4,323.7L409.7,323.7L409.7,311.9L409.4,287.1L407.4,288.3L401.9,287.2L373.1,287.3Z"/>
    <path class="wtc-county" id="wtc-county-edwards" data-county="Edwards" d="M353.9,405.7L353.6,433.9L368.2,433.6L371.8,430.8L369.5,420.9L372.4,415.9L371.4,405.6L353.9,405.7Z"/>
    <path class="wtc-county" id="wtc-county-effingham" data-county="Effingham" d="M294.6,347.3L294.3,374.7L304.7,374.5L334.5,374.8L334.8,351.3L324.8,351.3L324.8,347.3L294.6,347.3Z"/>
    <path class="wtc-county" id="wtc-county-fayette" data-county="Fayette" d="M254.5,364.3L253.8,366.8L254.1,390.1L264.5,390.5L264.5,382.6L274.2,382.8L304.7,382.5L304.7,374.5L294.3,374.7L294.6,347.3L264.5,347.1L254.5,347.1L254.5,364.3Z"/>
    <path class="wtc-county" id="wtc-county-ford" data-county="Ford" d="M325.8,220.8L325.8,240.5L373.4,240.4L373.1,232.6L356.5,232.4L355.2,186.4L344.9,186.7L346.2,220.7L325.8,220.8Z"/>
    <path class="wtc-county" id="wtc-county-franklin" data-county="Franklin" d="M265.5,445.8L266.1,451.7L263.9,458.3L260.9,461.5L263.5,461.5L263.5,469.5L303.4,469.4L303.4,465.5L303.7,445.8L265.5,445.8Z"/>
    <path class="wtc-county" id="wtc-county-fulton" data-county="Fulton" d="M146.2,251.6L145.9,259.4L168.6,259.9L176.1,255.3L180.3,250.0L183.2,242.6L188.4,241.0L193.5,237.1L198.4,230.2L198.1,220.1L187.7,220.0L188.0,212.2L146.6,211.9L146.6,219.8L146.2,251.6Z"/>
    <path class="wtc-county" id="wtc-county-gallatin" data-county="Gallatin" d="M333.5,465.4L333.5,493.2L351.0,493.2L355.2,495.5L353.0,487.3L356.5,483.0L362.1,480.3L364.6,475.2L361.1,475.0L359.8,472.4L363.7,473.1L359.1,466.9L354.9,465.4L333.5,465.3L333.5,465.4Z"/>
    <path class="wtc-county" id="wtc-county-greene" data-county="Greene" d="M131.3,331.1L130.7,333.8L132.3,340.4L131.7,343.3L133.3,348.8L131.3,352.1L132.3,356.2L134.9,350.7L138.5,349.4L142.7,351.0L158.6,351.1L158.6,346.4L168.6,346.4L168.3,343.5L173.5,343.2L172.8,319.8L159.5,319.8L134.3,319.7L131.7,325.5L131.3,331.1Z"/>
    <path class="wtc-county" id="wtc-county-grundy" data-county="Grundy" d="M313.4,144.9L314.4,176.4L344.6,175.9L345.5,175.9L345.2,168.0L344.6,144.4L313.4,144.9Z"/>
    <path class="wtc-county" id="wtc-county-hamilton" data-county="Hamilton" d="M303.7,445.8L303.4,465.5L333.5,465.4L333.5,465.3L333.9,434.0L304.0,433.9L303.7,445.8Z"/>
    <path class="wtc-county" id="wtc-county-hancock" data-county="Hancock" d="M51.6,254.0L51.0,258.4L104.4,259.1L104.8,250.8L105.1,218.8L94.4,219.1L79.8,218.9L74.0,218.8L63.9,222.2L59.7,227.5L63.3,230.2L62.0,237.2L62.6,241.1L58.7,242.3L56.2,243.7L51.9,251.4L51.6,254.0Z"/>
    <path class="wtc-county" id="wtc-county-hardin" data-county="Hardin" d="M330.0,509.0L334.8,510.8L340.3,507.0L344.2,506.1L359.8,504.6L361.7,501.7L360.8,499.6L355.2,495.5L351.0,493.2L333.5,493.2L330.0,493.2L330.0,509.0Z"/>
    <path class="wtc-county" id="wtc-county-henderson" data-county="Henderson" d="M86.3,213.6L85.6,215.7L79.8,218.9L94.4,219.1L105.1,218.8L115.5,219.1L115.8,180.0L101.2,179.9L101.5,185.1L99.6,193.3L96.0,194.8L91.5,199.9L88.2,202.0L86.3,213.6Z"/>
    <path class="wtc-county" id="wtc-county-henry" data-county="Henry" d="M147.5,156.7L147.2,172.5L188.0,172.7L198.7,172.8L198.7,165.0L199.7,165.0L199.7,139.4L199.1,133.4L169.9,133.4L169.2,137.2L165.0,138.8L156.6,139.8L152.7,143.0L147.9,145.0L147.5,156.7Z"/>
    <path class="wtc-county" id="wtc-county-iroquois" data-county="Iroquois" d="M355.2,186.4L356.5,232.4L373.1,232.6L410.0,232.2L410.0,210.0L410.0,185.3L355.2,186.4Z"/>
    <path class="wtc-county" id="wtc-county-jackson" data-county="Jackson" d="M223.4,461.1L217.9,469.8L216.2,474.8L216.9,479.4L221.4,479.7L224.3,482.9L230.5,484.8L231.1,490.9L234.1,493.5L229.8,495.8L234.4,496.6L236.3,493.2L263.2,493.2L263.5,469.5L263.5,461.5L260.9,461.5L223.4,461.1Z"/>
    <path class="wtc-county" id="wtc-county-jasper" data-county="Jasper" d="M334.5,374.8L334.5,380.2L343.9,380.5L372.1,380.3L371.8,351.0L366.6,351.1L334.8,351.3L334.5,374.8Z"/>
    <path class="wtc-county" id="wtc-county-jefferson" data-county="Jefferson" d="M263.9,437.9L263.5,445.8L265.5,445.8L303.7,445.8L304.0,433.9L304.0,414.2L284.0,414.0L263.9,414.3L263.9,437.9Z"/>
    <path class="wtc-county" id="wtc-county-jersey" data-county="Jersey" d="M173.5,343.2L168.3,343.5L168.6,346.4L158.6,346.4L158.6,351.1L142.7,351.0L138.5,349.4L134.9,350.7L132.3,356.2L134.3,360.8L135.2,367.4L138.5,370.5L145.9,369.7L150.1,370.1L158.9,373.6L161.8,373.7L162.1,366.8L173.5,366.7L173.5,343.2Z"/>
    <path class="wtc-county" id="wtc-county-jo-daviess" data-county="Jo Daviess" d="M128.7,50.0L128.7,53.6L135.9,56.4L136.5,58.4L144.0,61.5L148.8,66.1L147.9,70.8L152.7,76.5L157.9,78.5L193.9,78.2L193.2,50.2L148.2,50.2L128.7,50.0Z"/>
    <path class="wtc-county" id="wtc-county-johnson" data-county="Johnson" d="M272.9,517.6L272.9,520.8L276.8,519.2L283.3,520.0L285.3,517.0L303.1,516.9L303.4,493.2L273.3,493.5L272.9,517.6Z"/>
    <path class="wtc-county" id="wtc-county-kane" data-county="Kane" d="M314.1,82.0L314.1,89.9L313.1,89.9L313.1,121.3L343.6,120.8L343.6,97.2L343.6,89.9L345.8,89.9L345.8,82.0L314.1,82.0Z"/>
    <path class="wtc-county" id="wtc-county-kankakee" data-county="Kankakee" d="M344.6,175.9L344.9,186.7L355.2,186.4L410.0,185.3L410.0,171.2L410.0,159.3L365.9,159.8L366.3,167.7L345.2,168.0L345.5,175.9L344.6,175.9Z"/>
    <path class="wtc-county" id="wtc-county-kendall" data-county="Kendall" d="M313.1,121.3L312.8,129.2L313.4,144.9L344.6,144.4L343.6,120.8L313.1,121.3Z"/>
    <path class="wtc-county" id="wtc-county-knox" data-county="Knox" d="M147.2,180.4L146.6,211.9L188.0,212.2L188.0,188.5L188.0,172.7L147.2,172.5L147.2,180.4Z"/>
    <path class="wtc-county" id="wtc-county-lake" data-county="Lake" d="M349.4,51.2L349.4,82.0L388.9,82.2L385.4,77.1L382.1,68.7L384.7,61.2L385.4,51.6L349.4,51.2Z"/>
    <path class="wtc-county" id="wtc-county-lasalle" data-county="LaSalle" d="M282.7,129.5L261.9,129.4L261.9,133.4L262.2,158.2L262.2,176.8L272.6,176.7L272.6,192.9L283.3,192.7L283.3,176.6L314.4,176.4L313.4,144.9L312.8,129.2L282.7,129.5Z"/>
    <path class="wtc-county" id="wtc-county-lawrence" data-county="Lawrence" d="M375.7,380.3L375.3,405.6L398.7,405.7L401.6,399.3L403.9,396.8L408.4,395.9L412.9,390.0L412.6,386.7L409.4,380.1L375.7,380.3Z"/>
    <path class="wtc-county" id="wtc-county-lee" data-county="Lee" d="M220.1,104.8L220.1,133.4L261.9,133.4L261.9,129.4L282.7,129.5L282.3,105.7L244.4,106.1L244.4,104.8L234.4,103.9L233.7,104.8L220.1,104.8Z"/>
    <path class="wtc-county" id="wtc-county-livingston" data-county="Livingston" d="M314.4,176.4L283.3,176.6L283.3,192.7L283.3,208.4L314.4,208.1L315.4,220.9L325.8,220.8L346.2,220.7L344.9,186.7L344.6,175.9L314.4,176.4Z"/>
    <path class="wtc-county" id="wtc-county-logan" data-county="Logan" d="M222.7,247.6L222.7,265.4L224.7,268.2L225.0,278.6L233.4,278.6L233.4,282.5L240.5,282.6L240.5,283.9L257.4,284.0L264.2,283.9L263.9,272.1L263.5,251.0L253.2,251.1L253.2,247.1L222.7,247.6Z"/>
    <path class="wtc-county" id="wtc-county-mcdonough" data-county="McDonough" d="M105.1,218.8L104.8,250.8L146.2,251.6L146.6,219.8L115.5,219.1L105.1,218.8Z"/>
    <path class="wtc-county" id="wtc-county-mchenry" data-county="McHenry" d="M303.4,51.4L303.7,82.0L314.1,82.0L345.8,82.0L349.4,82.0L349.4,51.2L339.7,51.2L303.4,51.4Z"/>
    <path class="wtc-county" id="wtc-county-mclean" data-county="McLean" d="M252.8,222.9L253.2,247.1L253.2,251.1L263.5,251.0L315.4,251.1L325.8,251.0L325.8,240.5L325.8,220.8L315.4,220.9L314.4,208.1L283.3,208.4L278.1,208.6L278.4,216.4L272.9,216.6L272.9,219.8L267.8,220.1L264.8,222.6L252.8,222.9Z"/>
    <path class="wtc-county" id="wtc-county-macon" data-county="Macon" d="M257.4,284.0L257.4,293.4L264.2,294.5L264.5,307.6L274.6,307.7L294.0,307.8L294.0,299.9L298.9,300.0L299.8,295.2L300.2,271.5L263.9,272.1L264.2,283.9L257.4,284.0Z"/>
    <path class="wtc-county" id="wtc-county-macoupin" data-county="Macoupin" d="M172.8,319.8L173.5,343.2L173.5,366.7L214.0,366.9L213.6,319.5L193.5,319.7L172.8,319.8Z"/>
    <path class="wtc-county" id="wtc-county-madison" data-county="Madison" d="M173.5,366.7L162.1,366.8L161.8,373.7L164.1,374.0L176.4,380.4L176.1,384.3L171.8,387.3L167.6,391.9L170.2,397.4L213.3,397.9L223.4,397.8L223.0,389.9L223.0,378.1L219.5,378.1L219.5,366.8L214.0,366.9L173.5,366.7Z"/>
    <path class="wtc-county" id="wtc-county-marion" data-county="Marion" d="M264.2,411.6L263.9,414.3L284.0,414.0L304.0,414.2L304.4,402.3L304.7,382.5L274.2,382.8L264.5,382.6L264.5,390.5L264.2,411.6Z"/>
    <path class="wtc-county" id="wtc-county-marshall" data-county="Marshall" d="M219.5,172.8L219.5,188.6L236.6,188.6L234.4,193.3L264.2,192.8L272.6,192.9L272.6,176.7L262.2,176.8L244.7,176.9L247.3,172.8L235.0,172.8L219.5,172.8Z"/>
    <path class="wtc-county" id="wtc-county-mason" data-county="Mason" d="M168.6,259.9L167.3,262.9L162.4,262.5L154.7,265.3L158.2,266.0L160.8,271.5L168.9,271.7L174.8,270.9L180.9,267.4L187.1,266.7L189.3,263.7L195.8,265.0L209.4,265.1L215.3,262.5L219.8,262.7L222.7,265.4L222.7,247.6L212.3,247.7L212.3,237.1L193.5,237.1L188.4,241.0L183.2,242.6L180.3,250.0L176.1,255.3L168.6,259.9Z"/>
    <path class="wtc-county" id="wtc-county-massac" data-county="Massac" d="M283.3,520.0L283.6,526.9L294.6,530.3L299.2,533.3L310.5,536.4L316.4,540.2L323.2,541.2L323.2,532.9L303.1,516.9L285.3,517.0L283.3,520.0Z"/>
    <path class="wtc-county" id="wtc-county-menard" data-county="Menard" d="M187.1,266.7L187.4,285.4L207.5,285.3L207.5,284.1L213.6,284.0L214.0,278.7L225.0,278.6L224.7,268.2L222.7,265.4L219.8,262.7L215.3,262.5L209.4,265.1L195.8,265.0L189.3,263.7L187.1,266.7Z"/>
    <path class="wtc-county" id="wtc-county-mercer" data-county="Mercer" d="M89.9,156.1L86.3,164.6L92.8,171.2L97.0,171.7L101.2,177.5L101.2,179.7L101.2,179.9L115.8,180.0L147.2,180.4L147.2,172.5L147.5,156.7L89.9,156.1Z"/>
    <path class="wtc-county" id="wtc-county-monroe" data-county="Monroe" d="M156.0,422.0L153.4,426.3L153.0,432.3L154.7,437.8L160.5,441.7L164.1,445.5L168.0,449.1L183.5,444.8L183.5,436.9L195.8,437.2L193.5,432.3L194.5,429.2L183.5,429.2L183.5,427.9L173.5,419.9L173.8,418.5L163.1,410.0L160.2,418.5L156.0,422.0Z"/>
    <path class="wtc-county" id="wtc-county-montgomery" data-county="Montgomery" d="M213.6,319.5L214.0,366.9L219.5,366.8L224.0,366.8L224.0,364.3L254.5,364.3L254.5,347.1L264.5,347.1L264.5,335.2L229.2,335.2L228.9,319.4L213.6,319.5Z"/>
    <path class="wtc-county" id="wtc-county-morgan" data-county="Morgan" d="M135.2,291.0L132.6,295.5L143.0,295.5L143.0,298.7L153.4,298.7L153.0,306.6L156.3,306.7L156.3,309.3L159.5,309.3L159.5,319.8L172.8,319.8L193.5,319.7L193.5,316.3L188.0,302.0L187.4,287.9L133.9,287.6L135.2,291.0Z"/>
    <path class="wtc-county" id="wtc-county-moultrie" data-county="Moultrie" d="M299.8,295.2L298.9,300.0L294.0,299.9L294.0,307.8L294.3,314.4L302.4,314.5L302.4,319.7L309.6,319.7L314.4,326.3L324.8,326.4L324.8,307.9L324.5,295.3L299.8,295.2Z"/>
    <path class="wtc-county" id="wtc-county-ogle" data-county="Ogle" d="M214.9,77.9L215.3,102.2L220.1,102.3L220.1,104.8L233.7,104.8L234.4,103.9L244.4,104.8L244.4,106.1L282.3,105.7L282.7,90.1L282.3,82.2L261.3,82.3L261.3,77.5L241.2,77.7L214.9,77.9Z"/>
    <path class="wtc-county" id="wtc-county-peoria" data-county="Peoria" d="M188.0,212.2L187.7,220.0L198.1,220.1L198.4,230.2L203.6,227.6L217.5,225.3L217.5,222.2L222.1,217.6L221.4,216.5L226.6,213.3L226.9,209.0L226.3,204.9L234.4,193.3L236.6,188.6L219.5,188.6L188.0,188.5L188.0,212.2Z"/>
    <path class="wtc-county" id="wtc-county-perry" data-county="Perry" d="M223.4,437.2L223.7,444.4L223.4,461.1L260.9,461.5L263.9,458.3L266.1,451.7L265.5,445.8L263.5,445.8L263.9,437.9L223.4,437.2Z"/>
    <path class="wtc-county" id="wtc-county-piatt" data-county="Piatt" d="M300.2,271.5L299.8,295.2L324.5,295.3L325.4,295.3L325.4,287.4L325.4,256.3L325.8,251.0L315.4,251.1L305.3,263.7L305.3,267.5L300.2,267.5L300.2,271.5Z"/>
    <path class="wtc-county" id="wtc-county-pike" data-county="Pike" d="M63.6,298.3L63.0,300.7L68.8,304.9L76.2,311.1L80.5,312.8L83.1,317.5L87.3,318.1L90.8,324.0L96.0,328.2L102.2,330.7L131.3,331.1L131.7,325.5L134.3,319.7L135.2,318.1L132.0,309.2L128.4,303.3L132.6,295.5L135.2,291.0L106.1,290.9L104.1,290.5L104.1,298.4L63.6,298.3Z"/>
    <path class="wtc-county" id="wtc-county-pope" data-county="Pope" d="M303.4,493.2L303.1,516.9L323.2,532.9L323.2,541.2L325.8,540.7L329.0,533.8L326.7,528.7L321.2,523.6L320.6,521.7L323.5,516.7L324.1,512.4L330.0,509.1L330.0,509.0L330.0,493.2L303.4,493.2Z"/>
    <path class="wtc-county" id="wtc-county-pulaski" data-county="Pulaski" d="M254.5,517.0L258.4,518.3L258.7,521.2L255.4,522.9L252.8,531.0L253.5,537.7L261.6,541.2L267.1,536.6L270.0,531.5L274.2,528.3L278.4,526.7L283.0,526.7L283.6,526.9L283.3,520.0L276.8,519.2L272.9,520.8L272.9,517.6L254.5,517.0Z"/>
    <path class="wtc-county" id="wtc-county-putnam" data-county="Putnam" d="M262.2,158.2L252.8,157.1L246.7,159.0L244.7,165.2L235.0,165.1L235.0,172.8L247.3,172.8L244.7,176.9L262.2,176.8L262.2,158.2Z"/>
    <path class="wtc-county" id="wtc-county-randolph" data-county="Randolph" d="M168.0,449.1L175.1,451.4L178.6,455.6L181.2,455.6L186.7,460.3L191.9,459.7L192.9,461.8L189.0,463.7L192.3,468.3L195.5,468.8L200.7,465.5L204.9,467.7L205.2,470.0L210.1,470.9L216.2,474.8L217.9,469.8L223.4,461.1L223.7,444.4L223.4,437.2L213.6,437.2L195.8,437.2L183.5,436.9L183.5,444.8L168.0,449.1Z"/>
    <path class="wtc-county" id="wtc-county-richland" data-county="Richland" d="M343.9,380.5L343.9,391.0L341.6,391.0L342.6,397.2L340.3,399.8L344.6,403.0L353.9,403.0L353.9,405.7L371.4,405.6L375.3,405.6L375.7,380.3L372.1,380.3L343.9,380.5Z"/>
    <path class="wtc-county" id="wtc-county-rock-island" data-county="Rock Island" d="M89.9,156.1L147.5,156.7L147.9,145.0L152.7,143.0L156.6,139.8L165.0,138.8L169.2,137.2L169.9,133.4L171.8,132.3L172.2,128.1L165.7,125.2L164.7,115.5L158.2,120.4L158.6,123.2L155.6,127.8L156.0,132.9L150.8,134.5L144.9,139.0L136.5,138.9L133.3,139.9L128.1,144.2L120.3,145.5L115.8,145.3L110.3,145.1L102.8,148.2L98.6,147.0L92.4,148.7L89.9,156.1Z"/>
    <path class="wtc-county" id="wtc-county-st-clair" data-county="St. Clair" d="M163.4,409.0L163.1,410.0L173.8,418.5L173.5,419.9L183.5,427.9L183.5,429.2L194.5,429.2L193.5,432.3L195.8,437.2L213.6,437.2L213.3,419.6L213.3,397.9L170.2,397.4L170.2,401.9L163.4,409.0Z"/>
    <path class="wtc-county" id="wtc-county-saline" data-county="Saline" d="M303.4,469.4L303.4,493.2L330.0,493.2L333.5,493.2L333.5,465.4L303.4,465.5L303.4,469.4Z"/>
    <path class="wtc-county" id="wtc-county-sangamon" data-county="Sangamon" d="M187.4,285.4L187.4,287.9L188.0,302.0L193.5,316.3L193.5,319.7L213.6,319.5L228.9,319.4L228.9,308.9L233.7,308.9L233.7,305.0L238.6,305.1L238.6,297.9L241.2,299.8L245.1,297.1L249.6,296.7L254.8,292.2L257.4,293.4L257.4,284.0L240.5,283.9L240.5,282.6L233.4,282.5L233.4,278.6L225.0,278.6L214.0,278.7L213.6,284.0L207.5,284.1L207.5,285.3L187.4,285.4Z"/>
    <path class="wtc-county" id="wtc-county-schuyler" data-county="Schuyler" d="M104.4,259.1L104.1,267.1L123.9,267.2L125.5,271.7L132.3,276.2L132.0,278.2L140.4,277.5L147.5,274.6L148.2,271.0L154.7,265.3L162.4,262.5L167.3,262.9L168.6,259.9L145.9,259.4L146.2,251.6L104.8,250.8L104.4,259.1Z"/>
    <path class="wtc-county" id="wtc-county-scott" data-county="Scott" d="M132.6,295.5L128.4,303.3L132.0,309.2L135.2,318.1L134.3,319.7L159.5,319.8L159.5,309.3L156.3,309.3L156.3,306.7L153.0,306.6L153.4,298.7L143.0,298.7L143.0,295.5L132.6,295.5Z"/>
    <path class="wtc-county" id="wtc-county-shelby" data-county="Shelby" d="M264.5,335.2L264.5,347.1L294.6,347.3L324.8,347.3L324.8,332.9L324.8,326.4L314.4,326.3L309.6,319.7L302.4,319.7L302.4,314.5L294.3,314.4L294.0,307.8L274.6,307.7L274.9,335.6L264.5,335.2Z"/>
    <path class="wtc-county" id="wtc-county-stark" data-county="Stark" d="M188.0,172.7L188.0,188.5L219.5,188.6L219.5,172.8L219.5,165.1L199.7,165.0L198.7,165.0L198.7,172.8L188.0,172.7Z"/>
    <path class="wtc-county" id="wtc-county-stephenson" data-county="Stephenson" d="M193.2,50.2L193.9,78.2L214.9,77.9L241.2,77.7L240.9,50.8L201.3,50.3L193.2,50.2Z"/>
    <path class="wtc-county" id="wtc-county-tazewell" data-county="Tazewell" d="M198.4,230.2L193.5,237.1L212.3,237.1L212.3,247.7L222.7,247.6L253.2,247.1L252.8,222.9L252.5,220.9L247.3,220.9L247.3,208.9L226.9,209.0L226.6,213.3L221.4,216.5L222.1,217.6L217.5,222.2L217.5,225.3L203.6,227.6L198.4,230.2Z"/>
    <path class="wtc-county" id="wtc-county-union" data-county="Union" d="M229.8,496.2L230.5,499.0L238.9,511.5L237.6,516.3L233.1,517.1L254.5,517.0L272.9,517.6L273.3,493.5L263.2,493.2L236.3,493.2L234.4,496.6L229.8,495.8L229.8,496.2Z"/>
    <path class="wtc-county" id="wtc-county-vermilion" data-county="Vermilion" d="M373.4,240.4L373.7,256.1L372.4,256.1L373.1,287.3L401.9,287.2L407.4,288.3L409.4,287.1L409.7,263.1L410.0,233.4L410.0,232.2L373.1,232.6L373.4,240.4Z"/>
    <path class="wtc-county" id="wtc-county-wabash" data-county="Wabash" d="M371.4,405.6L372.4,415.9L369.5,420.9L371.8,430.8L368.2,433.6L368.5,433.9L371.1,435.4L374.0,430.1L375.7,432.8L377.9,429.6L380.5,432.2L384.7,424.3L387.3,423.6L390.2,419.6L390.9,414.1L398.7,410.9L398.7,405.7L375.3,405.6L371.4,405.6Z"/>
    <path class="wtc-county" id="wtc-county-warren" data-county="Warren" d="M115.8,180.0L115.5,219.1L146.6,219.8L146.6,211.9L147.2,180.4L115.8,180.0Z"/>
    <path class="wtc-county" id="wtc-county-washington" data-county="Washington" d="M213.3,419.6L213.6,437.2L223.4,437.2L263.9,437.9L263.9,414.3L264.2,411.6L246.0,410.9L238.3,412.0L233.4,414.7L228.2,413.7L221.4,414.4L213.3,419.6Z"/>
    <path class="wtc-county" id="wtc-county-wayne" data-county="Wayne" d="M304.0,414.2L304.0,433.9L333.9,434.0L353.6,433.9L353.9,405.7L353.9,403.0L344.6,403.0L316.4,402.3L304.4,402.3L304.0,414.2Z"/>
    <path class="wtc-county" id="wtc-county-white" data-county="White" d="M333.9,434.0L333.5,465.3L354.9,465.4L359.1,466.9L366.3,466.6L361.4,464.3L366.3,459.1L366.6,454.5L364.0,452.4L370.2,451.0L370.8,448.0L366.9,449.5L374.0,443.8L369.5,439.2L368.5,436.3L368.5,433.9L368.2,433.6L353.6,433.9L333.9,434.0Z"/>
    <path class="wtc-county" id="wtc-county-whiteside" data-county="Whiteside" d="M164.7,115.5L165.7,125.2L172.2,128.1L171.8,132.3L169.9,133.4L199.1,133.4L220.1,133.4L220.1,104.8L220.1,102.3L215.3,102.2L173.1,102.3L170.2,110.0L170.5,113.1L164.7,115.5Z"/>
    <path class="wtc-county" id="wtc-county-will" data-county="Will" d="M343.6,120.8L344.6,144.4L345.2,168.0L366.3,167.7L365.9,159.8L410.0,159.3L410.0,143.8L386.4,143.8L386.0,135.8L375.3,135.9L375.3,128.1L365.0,128.3L364.6,124.3L364.6,120.4L343.6,120.8Z"/>
    <path class="wtc-county" id="wtc-county-williamson" data-county="Williamson" d="M263.5,469.5L263.2,493.2L273.3,493.5L303.4,493.2L303.4,469.4L263.5,469.5Z"/>
    <path class="wtc-county" id="wtc-county-winnebago" data-county="Winnebago" d="M240.9,50.8L241.2,77.7L261.3,77.5L261.3,82.3L282.3,82.2L282.3,51.2L244.1,50.8L240.9,50.8Z"/>
    <path class="wtc-county" id="wtc-county-woodford" data-county="Woodford" d="M234.4,193.3L226.3,204.9L226.9,209.0L247.3,208.9L247.3,220.9L252.5,220.9L252.8,222.9L264.8,222.6L267.8,220.1L272.9,219.8L272.9,216.6L278.4,216.4L278.1,208.6L283.3,208.4L283.3,192.7L272.6,192.9L264.2,192.8L234.4,193.3Z"/>
  </g>
</svg>