<?xml version="1.0" encoding="UTF-8"?>
<svg xmlns="http://www.w3.org/2000/svg" viewBox="0 0 600 480" id="wtc-state-map-MN" role="img" aria-label="mn county map">
  <title>mn Counties</title>
  <g class="wtc-counties">
    <path class="wtc-county" id="wtc-county-aitkin" data-county="Aitkin" d="M273.5,216.6L273.3,230.4L271.2,230.7L271.2,252.2L272.1,252.7L295.7,252.5L295.7,258.5L305.2,258.1L320.0,258.2L320.0,241.3L320.0,231.0L319.3,224.7L319.6,218.9L320.0,202.2L273.5,201.9L273.5,216.6Z"/>
    <path class="wtc-county" id="wtc-county-anoka" data-county="Anoka" d="M290.6,306.1L290.4,317.1L296.2,319.3L303.4,323.6L305.7,326.3L305.2,330.6L308.9,330.6L308.9,324.9L322.1,324.9L322.3,313.7L322.3,306.4L317.5,306.2L290.6,306.1Z"/>
    <path class="wtc-county" id="wtc-county-becker" data-county="Becker" d="M117.4,194.1L117.4,205.3L118.8,205.3L118.8,222.0L166.5,222.2L183.9,222.1L184.1,216.5L184.1,205.3L183.6,205.3L183.6,194.0L158.8,194.1L125.7,194.1L117.4,194.1Z"/>
    <path class="wtc-county" id="wtc-county-beltrami" data-county="Beltrami" d="M155.6,104.6L155.6,115.7L156.3,115.7L156.3,128.2L156.3,138.0L157.0,138.0L179.7,138.1L176.7,143.0L178.5,146.9L182.0,147.6L182.0,160.4L182.7,177.2L215.8,177.4L232.3,177.3L232.3,175.2L232.0,149.3L231.3,115.6L180.8,115.7L180.8,104.5L172.5,104.5L155.6,104.6Z"/>
    <path class="wtc-county" id="wtc-county-benton" data-county="Benton" d="M274.2,279.9L236.2,279.9L241.5,282.9L246.2,289.8L245.9,292.9L249.4,296.8L274.6,296.8L274.2,279.9Z"/>
    <path class="wtc-county" id="wtc-county-big-stone" data-county="Big Stone" d="M76.2,295.1L80.6,299.3L82.7,303.3L85.9,306.4L90.1,306.6L96.3,308.7L99.6,311.8L100.7,315.6L111.6,317.0L112.3,318.6L115.5,318.7L118.8,320.5L123.4,321.5L122.3,317.4L122.5,306.3L114.4,306.3L114.4,295.1L113.7,295.1L76.2,295.1Z"/>
    <path class="wtc-county" id="wtc-county-blue-earth" data-county="Blue Earth" d="M235.0,380.4L235.3,390.4L235.3,407.2L243.1,407.2L273.9,407.2L273.9,384.8L273.9,382.0L258.2,382.0L257.5,383.1L258.9,386.5L256.1,387.4L251.7,385.7L245.2,384.5L240.4,382.0L235.0,380.4Z"/>
    <path class="wtc-county" id="wtc-county-brown" data-county="Brown" d="M203.1,365.3L203.1,379.2L187.6,379.2L187.6,384.8L188.0,390.4L203.5,390.4L235.3,390.4L235.0,380.4L232.5,379.8L229.2,376.0L225.3,373.9L216.0,372.0L214.2,369.8L208.6,368.0L206.6,366.2L203.1,365.3Z"/>
    <path class="wtc-county" id="wtc-county-carlton" data-county="Carlton" d="M319.6,218.9L319.3,224.7L320.0,231.0L320.0,241.3L369.1,241.4L369.1,225.6L368.7,219.1L319.6,218.9Z"/>
    <path class="wtc-county" id="wtc-county-carver" data-county="Carver" d="M258.2,334.3L258.4,351.1L266.3,351.1L266.3,354.0L273.9,354.0L273.9,356.1L278.6,354.2L280.4,352.6L283.7,351.8L282.7,349.8L284.8,346.9L289.9,345.5L289.7,339.9L273.9,339.9L273.9,334.3L258.2,334.3Z"/>
    <path class="wtc-county" id="wtc-county-cass" data-county="Cass" d="M208.2,216.5L208.9,242.9L211.9,244.6L212.6,245.7L217.0,245.9L218.8,247.3L224.6,248.9L229.2,247.0L231.6,246.9L236.9,250.5L237.8,249.7L237.6,227.6L236.7,227.6L236.9,216.4L273.5,216.6L273.5,201.9L273.5,190.1L271.2,188.7L273.7,184.2L266.3,183.3L264.7,184.6L256.3,179.8L257.3,177.5L253.8,173.7L251.5,172.8L237.8,177.0L232.3,175.2L232.3,177.3L215.8,177.4L216.5,205.4L216.5,216.5L208.2,216.5Z"/>
    <path class="wtc-county" id="wtc-county-chippewa" data-county="Chippewa" d="M127.6,323.1L131.3,326.6L141.2,333.7L142.6,336.2L147.0,337.1L148.7,339.1L151.2,339.1L154.9,342.6L162.3,346.7L160.5,347.7L163.2,348.9L163.2,339.9L178.5,339.9L178.5,323.1L127.6,323.1Z"/>
    <path class="wtc-county" id="wtc-county-chisago" data-county="Chisago" d="M314.5,285.8L314.5,296.9L322.1,296.9L322.3,306.4L322.3,313.7L339.9,313.8L343.0,311.4L342.7,309.8L346.2,307.2L346.4,304.4L341.1,299.7L341.3,298.0L338.1,296.2L335.8,296.7L330.9,295.5L330.9,291.3L332.3,286.3L333.7,285.8L314.5,285.8Z"/>
    <path class="wtc-county" id="wtc-county-clay" data-county="Clay" d="M76.4,194.2L77.1,196.4L76.9,205.9L79.4,208.7L80.8,208.1L79.4,214.6L78.3,215.5L79.6,221.7L78.5,225.5L78.9,227.5L79.4,227.8L111.8,227.7L118.8,227.7L118.8,222.0L118.8,205.3L117.4,205.3L117.4,194.1L76.4,194.2Z"/>
    <path class="wtc-county" id="wtc-county-clearwater" data-county="Clearwater" d="M157.0,138.0L157.0,143.6L157.2,160.4L158.8,160.4L158.8,171.6L158.8,194.1L183.6,194.0L183.6,182.9L182.7,182.9L182.7,177.2L182.0,160.4L182.0,147.6L178.5,146.9L176.7,143.0L179.7,138.1L157.0,138.0Z"/>
    <path class="wtc-county" id="wtc-county-cook" data-county="Cook" d="M450.6,127.2L450.9,145.6L451.3,146.6L451.1,173.9L461.1,168.0L469.6,163.6L481.4,159.3L482.4,158.5L492.1,156.0L495.6,155.7L506.7,152.7L518.7,150.3L522.0,148.2L530.5,146.3L536.6,143.1L540.5,142.3L541.4,140.4L543.7,141.5L550.0,138.4L544.2,139.6L541.7,138.6L536.3,139.0L533.3,137.9L528.7,138.4L525.2,140.3L517.3,137.4L515.3,133.7L508.5,132.1L497.4,132.6L493.0,133.3L487.0,132.3L481.2,133.1L479.8,131.5L471.7,133.1L468.0,133.0L465.7,130.3L467.1,128.9L463.2,127.9L463.2,124.2L459.9,123.5L454.1,125.2L450.6,127.2Z"/>
    <path class="wtc-county" id="wtc-county-cottonwood" data-county="Cottonwood" d="M164.6,384.8L164.6,407.2L165.3,407.2L203.5,407.2L203.5,390.4L188.0,390.4L187.6,384.8L164.6,384.8Z"/>
    <path class="wtc-county" id="wtc-county-crow-wing" data-county="Crow Wing" d="M236.9,250.5L233.4,254.7L235.5,256.7L234.8,258.2L271.2,258.3L271.2,252.7L272.1,252.7L271.2,252.2L271.2,230.7L273.3,230.4L273.5,216.6L236.9,216.4L236.7,227.6L237.6,227.6L237.8,249.7L236.9,250.5Z"/>
    <path class="wtc-county" id="wtc-county-dakota" data-county="Dakota" d="M302.2,346.4L303.1,351.1L302.9,356.7L305.7,356.7L305.4,362.3L305.4,367.0L321.0,367.0L321.0,364.2L326.5,364.7L328.8,364.1L328.8,362.4L336.9,362.4L336.9,356.8L340.9,356.8L340.9,351.4L336.2,349.3L333.0,349.2L331.1,347.5L328.1,347.0L323.3,347.7L322.3,339.9L320.3,338.1L315.2,338.1L311.9,340.1L309.8,343.3L307.3,345.1L302.2,346.4Z"/>
    <path class="wtc-county" id="wtc-county-dodge" data-county="Dodge" d="M320.5,384.7L320.7,405.3L320.5,407.2L343.7,407.2L344.3,407.2L344.3,384.8L321.0,384.7L320.5,384.7Z"/>
    <path class="wtc-county" id="wtc-county-douglas" data-county="Douglas" d="M145.0,261.5L145.0,272.7L145.6,272.7L145.6,283.9L185.5,284.0L185.5,283.0L185.0,272.7L185.0,261.5L145.0,261.5Z"/>
    <path class="wtc-county" id="wtc-county-faribault" data-county="Faribault" d="M243.1,407.2L243.1,429.7L261.0,429.7L281.8,429.7L281.8,407.2L273.9,407.2L243.1,407.2Z"/>
    <path class="wtc-county" id="wtc-county-fillmore" data-county="Fillmore" d="M359.2,408.1L359.2,429.7L383.0,429.6L405.5,429.6L405.5,407.3L383.0,407.3L359.2,407.2L359.2,408.1Z"/>
    <path class="wtc-county" id="wtc-county-freeborn" data-county="Freeborn" d="M281.8,407.2L281.8,429.7L291.5,429.7L320.3,429.7L320.3,407.2L297.3,407.2L281.8,407.2Z"/>
    <path class="wtc-county" id="wtc-county-goodhue" data-county="Goodhue" d="M321.0,367.0L321.0,384.7L344.3,384.8L352.5,384.8L352.5,373.6L360.3,373.6L360.3,368.0L372.4,368.1L368.4,364.9L367.7,362.5L366.4,361.7L360.1,361.0L353.1,360.8L351.1,358.4L347.8,357.5L348.1,356.2L340.9,351.4L340.9,356.8L336.9,356.8L336.9,362.4L328.8,362.4L328.8,364.1L326.5,364.7L321.0,364.2L321.0,367.0Z"/>
    <path class="wtc-county" id="wtc-county-grant" data-county="Grant" d="M112.8,267.0L112.8,272.6L113.7,272.6L113.7,283.9L145.6,283.9L145.6,272.7L145.0,272.7L145.0,261.5L112.8,261.4L112.8,267.0Z"/>
    <path class="wtc-county" id="wtc-county-hennepin" data-county="Hennepin" d="M289.9,317.0L286.7,318.8L282.3,319.4L282.3,322.2L278.3,324.1L276.0,327.6L274.4,327.6L273.9,334.3L273.9,339.9L289.7,339.9L289.9,345.5L295.3,345.0L299.0,346.8L302.2,346.4L307.3,345.1L309.8,343.3L311.9,340.1L310.5,338.8L310.1,330.6L308.9,330.6L305.2,330.6L305.7,326.3L303.4,323.6L296.2,319.3L290.4,317.1L289.9,317.0Z"/>
    <path class="wtc-county" id="wtc-county-houston" data-county="Houston" d="M405.5,407.3L405.5,429.6L413.1,429.7L438.6,429.7L436.8,426.7L437.7,424.3L435.4,422.3L434.9,418.3L436.1,415.1L436.8,412.1L434.2,407.3L405.5,407.3Z"/>
    <path class="wtc-county" id="wtc-county-hubbard" data-county="Hubbard" d="M182.7,177.2L182.7,182.9L183.6,182.9L183.6,194.0L183.6,205.3L184.1,205.3L184.1,216.5L208.2,216.5L216.5,216.5L216.5,205.4L215.8,177.4L182.7,177.2Z"/>
    <path class="wtc-county" id="wtc-county-isanti" data-county="Isanti" d="M290.4,285.5L290.6,296.9L290.6,306.1L317.5,306.2L322.3,306.4L322.1,296.9L314.5,296.9L314.5,285.8L290.4,285.5Z"/>
    <path class="wtc-county" id="wtc-county-itasca" data-county="Itasca" d="M232.0,149.3L232.3,175.2L237.8,177.0L251.5,172.8L253.8,173.7L257.3,177.5L256.3,179.8L264.7,184.6L266.3,183.3L273.7,184.2L271.2,188.7L273.5,190.1L273.5,201.9L320.0,202.2L319.3,196.8L319.1,178.4L319.6,157.4L318.2,157.4L318.4,146.3L273.5,145.8L273.5,149.3L232.0,149.3Z"/>
    <path class="wtc-county" id="wtc-county-jackson" data-county="Jackson" d="M165.3,407.2L165.1,429.6L169.5,429.7L200.1,429.7L204.0,429.6L204.0,407.2L203.5,407.2L165.3,407.2Z"/>
    <path class="wtc-county" id="wtc-county-kanabec" data-county="Kanabec" d="M295.7,258.5L295.7,269.6L290.2,269.6L290.4,285.5L314.5,285.8L314.2,269.6L320.0,269.6L320.0,258.2L305.2,258.1L295.7,258.5Z"/>
    <path class="wtc-county" id="wtc-county-kandiyohi" data-county="Kandiyohi" d="M178.1,306.3L178.1,317.5L178.5,323.1L178.5,339.9L210.0,339.9L209.8,311.8L209.8,306.2L185.9,306.3L178.1,306.3Z"/>
    <path class="wtc-county" id="wtc-county-kittson" data-county="Kittson" d="M50.7,74.8L50.0,77.0L52.5,82.4L53.9,83.8L55.8,90.6L59.3,95.1L58.6,98.5L56.5,99.8L54.9,104.3L104.9,104.2L104.9,93.1L104.0,93.1L103.7,74.8L69.9,74.8L50.7,74.8Z"/>
    <path class="wtc-county" id="wtc-county-koochiching" data-county="Koochiching" d="M231.3,94.1L231.3,115.6L232.0,149.3L273.5,149.3L273.5,145.8L318.4,146.3L317.7,135.0L317.3,135.0L317.9,98.8L312.2,99.1L310.1,97.9L301.0,98.9L293.4,101.4L293.6,104.1L288.3,105.2L283.2,105.1L282.1,105.9L272.3,106.0L270.9,105.4L271.6,102.7L269.8,99.0L258.7,97.8L244.5,97.4L242.0,94.2L234.3,93.4L231.3,94.1Z"/>
    <path class="wtc-county" id="wtc-county-lac-qui-parle" data-county="Lac qui Parle" d="M100.7,315.6L100.7,334.3L100.9,345.4L139.6,345.5L139.9,339.9L147.0,339.9L147.0,337.1L142.6,336.2L141.2,333.7L131.3,326.6L127.6,323.1L123.4,321.5L118.8,320.5L115.5,318.7L112.3,318.6L111.6,317.0L100.7,315.6Z"/>
    <path class="wtc-county" id="wtc-county-lake" data-county="Lake" d="M401.1,126.3L401.8,168.6L401.3,207.7L407.1,203.5L409.7,202.9L415.7,198.0L421.7,195.8L427.7,191.8L440.5,181.9L444.4,178.1L451.1,173.9L451.3,146.6L450.9,145.6L450.6,127.2L447.2,127.7L436.5,133.9L428.6,134.9L424.2,136.2L421.0,135.0L415.9,136.5L416.6,132.4L411.3,133.1L406.6,131.9L407.6,130.2L406.4,126.5L401.1,126.3Z"/>
    <path class="wtc-county" id="wtc-county-lake-of-the-woods" data-county="Lake of the Woods" d="M173.9,74.9L173.7,79.0L175.1,81.0L179.2,82.5L185.5,81.6L188.5,79.9L188.7,93.3L172.3,93.3L172.5,104.5L180.8,104.5L180.8,115.7L231.3,115.6L231.3,94.1L224.4,94.0L217.7,91.5L214.4,89.1L213.5,86.1L214.9,82.3L210.7,68.4L209.1,67.0L205.9,55.8L204.0,53.9L197.3,50.9L190.8,52.1L184.6,50.0L184.6,74.9L173.9,74.9Z"/>
    <path class="wtc-county" id="wtc-county-le-sueur" data-county="Le Sueur" d="M263.5,367.9L261.4,373.9L263.3,375.3L261.7,377.6L257.5,380.8L258.2,382.0L273.9,382.0L273.9,384.8L289.7,384.8L289.7,362.3L264.9,362.4L266.5,364.0L263.5,367.9Z"/>
    <path class="wtc-county" id="wtc-county-lincoln" data-county="Lincoln" d="M100.7,384.7L124.8,384.7L124.8,362.4L123.9,362.3L123.9,356.7L100.9,356.7L100.7,362.3L100.7,384.7Z"/>
    <path class="wtc-county" id="wtc-county-lyon" data-county="Lyon" d="M123.9,356.7L123.9,362.3L124.8,362.4L124.8,384.7L126.0,384.7L156.3,384.8L156.1,362.4L155.6,356.8L123.9,356.7Z"/>
    <path class="wtc-county" id="wtc-county-mcleod" data-county="McLeod" d="M242.5,334.2L226.7,334.2L226.7,339.8L226.9,351.1L226.9,356.8L242.7,356.7L242.7,351.1L258.4,351.1L258.2,334.3L242.5,334.2Z"/>
    <path class="wtc-county" id="wtc-county-mahnomen" data-county="Mahnomen" d="M125.7,171.7L125.7,194.1L158.8,194.1L158.8,171.6L125.7,171.7Z"/>
    <path class="wtc-county" id="wtc-county-marshall" data-county="Marshall" d="M54.9,104.3L55.1,104.3L56.5,107.3L56.7,113.2L56.0,116.1L57.9,121.3L56.3,124.2L56.3,126.8L56.0,128.2L97.7,128.1L131.1,128.3L156.3,128.2L156.3,115.7L155.6,115.7L155.6,104.6L104.9,104.2L54.9,104.3Z"/>
    <path class="wtc-county" id="wtc-county-martin" data-county="Martin" d="M204.0,407.2L204.0,429.6L230.4,429.6L243.1,429.7L243.1,407.2L235.3,407.2L204.0,407.2Z"/>
    <path class="wtc-county" id="wtc-county-meeker" data-county="Meeker" d="M209.8,311.8L210.0,339.9L226.7,339.8L226.7,334.2L242.5,334.2L242.2,314.6L234.3,314.7L234.3,311.8L209.8,311.8Z"/>
    <path class="wtc-county" id="wtc-county-mille-lacs" data-county="Mille Lacs" d="M272.1,252.7L271.2,252.7L271.2,258.3L271.2,269.5L273.9,269.5L274.2,279.9L274.6,296.8L290.6,296.9L290.4,285.5L290.2,269.6L295.7,269.6L295.7,258.5L295.7,252.5L272.1,252.7Z"/>
    <path class="wtc-county" id="wtc-county-morrison" data-county="Morrison" d="M217.0,245.9L217.4,283.0L241.5,282.9L236.2,279.9L274.2,279.9L273.9,269.5L271.2,269.5L271.2,258.3L234.8,258.2L235.5,256.7L233.4,254.7L236.9,250.5L231.6,246.9L229.2,247.0L224.6,248.9L218.8,247.3L217.0,245.9Z"/>
    <path class="wtc-county" id="wtc-county-mower" data-county="Mower" d="M320.3,407.2L320.3,429.7L321.9,429.7L352.5,429.7L359.2,429.7L359.2,408.1L343.7,408.2L343.7,407.2L320.5,407.2L320.3,407.2Z"/>
    <path class="wtc-county" id="wtc-county-murray" data-county="Murray" d="M126.0,384.7L125.7,407.2L126.7,407.2L164.6,407.2L164.6,384.8L156.3,384.8L126.0,384.7Z"/>
    <path class="wtc-county" id="wtc-county-nicollet" data-county="Nicollet" d="M208.6,368.0L214.2,369.8L216.0,372.0L225.3,373.9L229.2,376.0L232.5,379.8L235.0,380.4L240.4,382.0L245.2,384.5L251.7,385.7L256.1,387.4L258.9,386.5L257.5,383.1L258.2,382.0L257.5,380.8L261.7,377.6L263.3,375.3L261.4,373.9L263.5,367.9L218.8,368.0L208.6,368.0Z"/>
    <path class="wtc-county" id="wtc-county-nobles" data-county="Nobles" d="M126.7,407.2L126.7,429.7L138.9,429.7L165.1,429.6L165.3,407.2L164.6,407.2L126.7,407.2Z"/>
    <path class="wtc-county" id="wtc-county-norman" data-county="Norman" d="M75.0,171.7L74.3,177.2L76.2,182.2L75.5,185.0L76.2,188.5L76.4,194.2L117.4,194.1L125.7,194.1L125.7,171.7L75.0,171.7Z"/>
    <path class="wtc-county" id="wtc-county-olmsted" data-county="Olmsted" d="M343.7,407.2L343.7,408.2L359.2,408.1L359.2,407.2L383.0,407.3L383.0,390.6L367.5,390.5L367.5,384.9L352.5,384.8L344.3,384.8L344.3,407.2L343.7,407.2Z"/>
    <path class="wtc-county" id="wtc-county-otter-tail" data-county="Otter Tail" d="M111.8,227.7L111.8,250.2L113.0,250.2L112.8,261.4L145.0,261.5L185.0,261.5L185.0,250.2L184.6,244.6L184.6,227.8L183.9,222.1L166.5,222.2L118.8,222.0L118.8,227.7L111.8,227.7Z"/>
    <path class="wtc-county" id="wtc-county-pennington" data-county="Pennington" d="M97.7,128.1L97.7,138.0L98.9,138.0L98.9,141.7L148.7,141.6L148.7,143.5L157.0,143.6L157.0,138.0L156.3,138.0L156.3,128.2L131.1,128.3L97.7,128.1Z"/>
    <path class="wtc-county" id="wtc-county-pine" data-county="Pine" d="M320.0,258.2L320.0,269.6L314.2,269.6L314.5,285.8L333.7,285.8L337.4,283.6L342.0,275.4L346.7,272.8L352.5,271.5L354.3,269.4L357.5,270.1L359.9,267.0L365.4,267.4L366.8,264.1L369.1,263.6L369.1,258.2L369.1,241.4L320.0,241.3L320.0,258.2Z"/>
    <path class="wtc-county" id="wtc-county-pipestone" data-county="Pipestone" d="M100.7,384.7L100.7,407.1L125.7,407.2L126.0,384.7L124.8,384.7L100.7,384.7Z"/>
    <path class="wtc-county" id="wtc-county-polk" data-county="Polk" d="M56.0,128.2L58.8,134.7L60.7,135.9L61.8,142.6L64.4,144.5L65.1,147.7L67.6,153.3L69.5,154.3L70.8,158.5L72.5,160.5L73.6,164.3L74.8,164.5L75.0,171.7L125.7,171.7L158.8,171.6L158.8,160.4L157.2,160.4L157.0,143.6L148.7,143.5L148.7,149.1L140.6,149.2L140.6,154.8L107.2,154.8L107.2,149.2L98.9,149.2L98.9,141.7L98.9,138.0L97.7,138.0L97.7,128.1L56.0,128.2Z"/>
    <path class="wtc-county" id="wtc-county-pope" data-county="Pope" d="M145.6,283.9L145.6,295.1L146.3,295.1L146.3,306.3L178.1,306.3L185.9,306.3L185.9,295.2L185.5,295.2L185.5,284.0L145.6,283.9Z"/>
    <path class="wtc-county" id="wtc-county-ramsey" data-county="Ramsey" d="M322.1,324.9L308.9,324.9L308.9,330.6L310.1,330.6L310.5,338.8L311.9,340.1L315.2,338.1L320.3,338.1L322.3,339.9L324.7,339.7L324.4,324.9L322.1,324.9Z"/>
    <path class="wtc-county" id="wtc-county-red-lake" data-county="Red Lake" d="M98.9,141.7L98.9,149.2L107.2,149.2L107.2,154.8L140.6,154.8L140.6,149.2L148.7,149.1L148.7,143.5L148.7,141.6L98.9,141.7Z"/>
    <path class="wtc-county" id="wtc-county-redwood" data-county="Redwood" d="M156.1,362.4L156.3,384.8L164.6,384.8L187.6,384.8L187.6,379.2L203.1,379.2L203.1,365.3L195.2,362.2L193.6,362.4L182.5,357.1L178.8,354.4L175.8,354.7L173.9,352.7L171.4,352.4L171.4,362.4L156.1,362.4Z"/>
    <path class="wtc-county" id="wtc-county-renville" data-county="Renville" d="M178.5,339.9L163.2,339.9L163.2,348.9L166.0,349.5L171.4,352.4L173.9,352.7L175.8,354.7L178.8,354.4L182.5,357.1L193.6,362.4L195.2,362.2L203.1,365.3L206.6,366.2L208.6,368.0L218.8,368.0L218.4,351.2L226.9,351.1L226.7,339.8L210.0,339.9L178.5,339.9Z"/>
    <path class="wtc-county" id="wtc-county-rice" data-county="Rice" d="M289.7,362.3L289.7,384.8L297.3,384.8L320.5,384.7L321.0,384.7L321.0,367.0L305.4,367.0L305.4,362.3L289.7,362.3Z"/>
    <path class="wtc-county" id="wtc-county-rock" data-county="Rock" d="M100.7,407.1L100.7,429.7L126.7,429.7L126.7,407.2L125.7,407.2L100.7,407.1Z"/>
    <path class="wtc-county" id="wtc-county-roseau" data-county="Roseau" d="M103.7,74.8L104.0,93.1L104.9,93.1L104.9,104.2L155.6,104.6L172.5,104.5L172.3,93.3L188.7,93.3L188.5,79.9L185.5,81.6L179.2,82.5L175.1,81.0L173.7,79.0L173.9,74.9L103.7,74.8Z"/>
    <path class="wtc-county" id="wtc-county-st-louis" data-county="St. Louis" d="M317.9,98.8L317.3,135.0L317.7,135.0L318.4,146.3L318.2,157.4L319.6,157.4L319.1,178.4L319.3,196.8L320.0,202.2L319.6,218.9L368.7,219.1L369.1,225.6L374.2,226.5L376.8,224.1L374.7,223.0L378.4,222.3L379.1,220.7L382.3,220.1L387.2,222.8L384.0,220.3L382.1,217.5L384.2,216.1L398.3,208.7L401.3,207.7L401.8,168.6L401.1,126.3L396.9,126.0L394.8,124.0L391.6,124.5L387.7,122.2L388.1,118.6L384.4,116.2L374.7,117.1L371.2,116.5L368.2,119.0L370.1,123.6L364.3,125.1L358.7,118.1L357.3,115.3L358.7,113.5L355.2,110.5L345.7,111.2L342.0,109.5L343.0,107.4L347.4,107.0L347.1,104.3L341.1,104.5L328.1,100.2L326.7,98.7L317.9,98.8Z"/>
    <path class="wtc-county" id="wtc-county-scott" data-county="Scott" d="M273.9,356.1L268.2,357.4L265.4,359.5L264.9,362.4L289.7,362.3L305.4,362.3L305.7,356.7L302.9,356.7L303.1,351.1L302.2,346.4L299.0,346.8L295.3,345.0L289.9,345.5L284.8,346.9L282.7,349.8L283.7,351.8L280.4,352.6L278.6,354.2L273.9,356.1Z"/>
    <path class="wtc-county" id="wtc-county-sherburne" data-county="Sherburne" d="M249.4,296.8L249.9,301.1L255.9,305.6L261.7,308.5L264.2,308.1L267.5,311.0L270.0,311.3L274.6,313.9L286.2,314.1L289.9,317.0L290.4,317.1L290.6,306.1L290.6,296.9L274.6,296.8L249.4,296.8Z"/>
    <path class="wtc-county" id="wtc-county-sibley" data-county="Sibley" d="M226.9,351.1L218.4,351.2L218.8,368.0L263.5,367.9L266.5,364.0L264.9,362.4L265.4,359.5L268.2,357.4L273.9,356.1L273.9,354.0L266.3,354.0L266.3,351.1L258.4,351.1L242.7,351.1L242.7,356.7L226.9,356.8L226.9,351.1Z"/>
    <path class="wtc-county" id="wtc-county-stearns" data-county="Stearns" d="M185.5,284.0L185.5,295.2L185.9,295.2L185.9,306.3L209.8,306.2L209.8,311.8L234.3,311.8L234.3,314.7L242.2,314.6L242.5,313.1L246.9,312.4L248.5,313.5L253.8,309.2L255.9,305.6L249.9,301.1L249.4,296.8L245.9,292.9L246.2,289.8L241.5,282.9L217.4,283.0L185.5,283.0L185.5,284.0Z"/>
    <path class="wtc-county" id="wtc-county-steele" data-county="Steele" d="M297.3,384.8L297.3,407.2L320.3,407.2L320.5,407.2L320.7,405.3L320.5,384.7L297.3,384.8Z"/>
    <path class="wtc-county" id="wtc-county-stevens" data-county="Stevens" d="M113.7,283.9L113.7,295.1L114.4,295.1L114.4,306.3L122.5,306.3L146.3,306.3L146.3,295.1L145.6,295.1L145.6,283.9L113.7,283.9Z"/>
    <path class="wtc-county" id="wtc-county-swift" data-county="Swift" d="M122.5,306.3L122.3,317.4L123.4,321.5L127.6,323.1L178.5,323.1L178.1,317.5L178.1,306.3L146.3,306.3L122.5,306.3Z"/>
    <path class="wtc-county" id="wtc-county-todd" data-county="Todd" d="M184.6,244.6L185.0,250.2L185.0,261.5L185.0,272.7L185.5,283.0L217.4,283.0L217.0,245.9L212.6,245.7L211.9,244.6L184.6,244.6Z"/>
    <path class="wtc-county" id="wtc-county-traverse" data-county="Traverse" d="M93.5,272.5L92.6,279.6L89.4,282.2L86.6,285.7L81.5,287.8L75.7,291.3L74.5,293.8L76.2,295.1L113.7,295.1L113.7,283.9L113.7,272.6L112.8,272.6L112.8,267.0L92.8,267.0L93.5,272.5Z"/>
    <path class="wtc-county" id="wtc-county-wabasha" data-county="Wabasha" d="M372.4,368.1L360.3,368.0L360.3,373.6L352.5,373.6L352.5,384.8L367.5,384.9L367.5,390.5L383.0,390.6L383.0,385.0L397.2,385.0L395.1,382.5L394.8,379.7L393.0,378.9L393.0,375.9L389.7,373.7L382.6,371.2L374.2,369.2L372.4,368.1Z"/>
    <path class="wtc-county" id="wtc-county-wadena" data-county="Wadena" d="M183.9,222.1L184.6,227.8L184.6,244.6L211.9,244.6L208.9,242.9L208.2,216.5L184.1,216.5L183.9,222.1Z"/>
    <path class="wtc-county" id="wtc-county-waseca" data-county="Waseca" d="M273.9,384.8L273.9,407.2L281.8,407.2L297.3,407.2L297.3,384.8L289.7,384.8L273.9,384.8Z"/>
    <path class="wtc-county" id="wtc-county-washington" data-county="Washington" d="M322.3,339.9L323.3,347.7L328.1,347.0L331.1,347.5L333.0,349.2L336.2,349.3L336.0,347.9L338.8,343.4L338.6,341.8L338.1,339.3L339.7,337.0L338.3,334.7L338.8,331.1L336.2,329.2L339.9,326.0L338.6,320.9L339.3,319.4L339.0,314.1L339.9,313.8L322.3,313.7L322.1,324.9L324.4,324.9L324.7,339.7L322.3,339.9Z"/>
    <path class="wtc-county" id="wtc-county-watonwan" data-county="Watonwan" d="M203.5,390.4L203.5,407.2L204.0,407.2L235.3,407.2L235.3,390.4L203.5,390.4Z"/>
    <path class="wtc-county" id="wtc-county-wilkin" data-county="Wilkin" d="M79.4,227.8L81.5,230.8L82.4,237.4L83.6,240.1L88.2,245.6L91.2,247.0L91.5,254.2L94.0,264.6L92.8,267.0L112.8,267.0L112.8,261.4L113.0,250.2L111.8,250.2L111.8,227.7L79.4,227.8Z"/>
    <path class="wtc-county" id="wtc-county-winona" data-county="Winona" d="M397.2,385.0L383.0,385.0L383.0,390.6L383.0,407.3L405.5,407.3L434.2,407.3L427.7,400.4L425.2,398.4L424.2,397.3L416.6,395.8L414.3,395.4L406.9,390.7L406.2,389.1L399.9,386.8L397.2,385.0Z"/>
    <path class="wtc-county" id="wtc-county-wright" data-county="Wright" d="M242.2,314.6L242.5,334.2L258.2,334.3L273.9,334.3L274.4,327.6L276.0,327.6L278.3,324.1L282.3,322.2L282.3,319.4L286.7,318.8L289.9,317.0L286.2,314.1L274.6,313.9L270.0,311.3L267.5,311.0L264.2,308.1L261.7,308.5L255.9,305.6L253.8,309.2L248.5,313.5L246.9,312.4L242.5,313.1L242.2,314.6Z"/>
    <path class="wtc-county" id="wtc-county-yellow-medicine" data-county="Yellow Medicine" d="M100.9,345.4L100.9,356.7L123.9,356.7L155.6,356.8L156.1,362.4L171.4,362.4L171.4,352.4L166.0,349.5L163.2,348.9L160.5,347.7L162.3,346.7L154.9,342.6L151.2,339.1L148.7,339.1L147.0,337.1L147.0,339.9L139.9,339.9L139.6,345.5L100.9,345.4Z"/>
  </g>
</svg>