<?xml version="1.0" encoding="UTF-8"?>
<svg xmlns="http://www.w3.org/2000/svg" viewBox="0 0 600 480" id="wtc-state-map-MN" role="img" aria-label="mn county map">
  <title>mn Counties</title>
  <g class="wtc-counties">
    <path class="wtc-county" id="wtc-county-aitkin" data-county="Aitkin" d="M273.5,263.2L273.3,249.4L271.2,249.0L271.2,227.5L272.1,227.0L295.7,227.3L295.7,221.3L305.2,221.7L320.0,221.6L320.0,238.4L320.0,248.7L319.3,255.1L319.6,260.8L320.0,277.6L273.5,277.8L273.5,263.2Z"/>
    <path class="wtc-county" id="wtc-county-anoka" data-county="Anoka" d="M290.6,173.6L290.4,162.7L296.2,160.5L303.4,156.1L305.7,153.5L305.2,149.1L308.9,149.1L308.9,154.9L322.1,154.8L322.3,166.0L322.3,173.4L317.5,173.5L290.6,173.6Z"/>
    <path class="wtc-county" id="wtc-county-becker" data-county="Becker" d="M117.4,285.6L117.4,274.4L118.8,274.4L118.8,257.7L166.5,257.5L183.9,257.6L184.1,263.3L184.1,274.5L183.6,274.5L183.6,285.7L158.8,285.6L125.7,285.7L117.4,285.6Z"/>
    <path class="wtc-county" id="wtc-county-beltrami" data-county="Beltrami" d="M155.6,375.1L155.6,364.0L156.3,364.0L156.3,351.5L156.3,341.7L157.0,341.7L179.7,341.7L176.7,336.8L178.5,332.9L182.0,332.2L182.0,319.3L182.7,302.5L215.8,302.4L232.3,302.4L232.3,304.6L232.0,330.5L231.3,364.1L180.8,364.0L180.8,375.3L172.5,375.3L155.6,375.1Z"/>
    <path class="wtc-county" id="wtc-county-benton" data-county="Benton" d="M274.2,199.9L236.2,199.9L241.5,196.8L246.2,190.0L245.9,186.8L249.4,182.9L274.6,182.9L274.2,199.9Z"/>
    <path class="wtc-county" id="wtc-county-big-stone" data-county="Big Stone" d="M76.2,184.6L80.6,180.5L82.7,176.4L85.9,173.4L90.1,173.2L96.3,171.1L99.6,167.9L100.7,164.2L111.6,162.7L112.3,161.2L115.5,161.1L118.8,159.2L123.4,158.3L122.3,162.3L122.5,173.4L114.4,173.4L114.4,184.6L113.7,184.6L76.2,184.6Z"/>
    <path class="wtc-county" id="wtc-county-blue-earth" data-county="Blue Earth" d="M235.0,99.4L235.3,89.3L235.3,72.5L243.1,72.5L273.9,72.5L273.9,95.0L273.9,97.8L258.2,97.8L257.5,96.6L258.9,93.2L256.1,92.3L251.7,94.0L245.2,95.3L240.4,97.8L235.0,99.4Z"/>
    <path class="wtc-county" id="wtc-county-brown" data-county="Brown" d="M203.1,114.5L203.1,100.6L187.6,100.5L187.6,94.9L188.0,89.3L203.5,89.3L235.3,89.3L235.0,99.4L232.5,99.9L229.2,103.8L225.3,105.9L216.0,107.8L214.2,109.9L208.6,111.7L206.6,113.6L203.1,114.5Z"/>
    <path class="wtc-county" id="wtc-county-carlton" data-county="Carlton" d="M319.6,260.8L319.3,255.1L320.0,248.7L320.0,238.4L369.1,238.3L369.1,254.1L368.7,260.7L319.6,260.8Z"/>
    <path class="wtc-county" id="wtc-county-carver" data-county="Carver" d="M258.2,145.4L258.4,128.6L266.3,128.6L266.3,125.8L273.9,125.8L273.9,123.6L278.6,125.5L280.4,127.2L283.7,128.0L282.7,129.9L284.8,132.8L289.9,134.2L289.7,139.8L273.9,139.8L273.9,145.4L258.2,145.4Z"/>
    <path class="wtc-county" id="wtc-county-cass" data-county="Cass" d="M208.2,263.2L208.9,236.8L211.9,235.1L212.6,234.0L217.0,233.9L218.8,232.4L224.6,230.9L229.2,232.7L231.6,232.8L236.9,229.3L237.8,230.0L237.6,252.1L236.7,252.1L236.9,263.3L273.5,263.2L273.5,277.8L273.5,289.6L271.2,291.0L273.7,295.5L266.3,296.4L264.7,295.1L256.3,299.9L257.3,302.3L253.8,306.1L251.5,306.9L237.8,302.7L232.3,304.6L232.3,302.4L215.8,302.4L216.5,274.4L216.5,263.2L208.2,263.2Z"/>
    <path class="wtc-county" id="wtc-county-chippewa" data-county="Chippewa" d="M127.6,156.6L131.3,153.1L141.2,146.0L142.6,143.6L147.0,142.7L148.7,140.6L151.2,140.6L154.9,137.2L162.3,133.1L160.5,132.0L163.2,130.9L163.2,139.8L178.5,139.8L178.5,156.6L127.6,156.6Z"/>
    <path class="wtc-county" id="wtc-county-chisago" data-county="Chisago" d="M314.5,193.9L314.5,182.9L322.1,182.8L322.3,173.4L322.3,166.0L339.9,165.9L343.0,168.3L342.7,169.9L346.2,172.6L346.4,175.3L341.1,180.0L341.3,181.8L338.1,183.5L335.8,183.0L330.9,184.2L330.9,188.4L332.3,193.4L333.7,193.9L314.5,193.9Z"/>
    <path class="wtc-county" id="wtc-county-clay" data-county="Clay" d="M76.4,285.6L77.1,283.4L76.9,273.9L79.4,271.0L80.8,271.7L79.4,265.2L78.3,264.2L79.6,258.0L78.5,254.3L78.9,252.2L79.4,252.0L111.8,252.0L118.8,252.0L118.8,257.7L118.8,274.4L117.4,274.4L117.4,285.6L76.4,285.6Z"/>
    <path class="wtc-county" id="wtc-county-clearwater" data-county="Clearwater" d="M157.0,341.7L157.0,336.1L157.2,319.3L158.8,319.3L158.8,308.1L158.8,285.6L183.6,285.7L183.6,296.9L182.7,296.9L182.7,302.5L182.0,319.3L182.0,332.2L178.5,332.9L176.7,336.8L179.7,341.7L157.0,341.7Z"/>
    <path class="wtc-county" id="wtc-county-cook" data-county="Cook" d="M450.6,352.6L450.9,334.1L451.3,333.2L451.1,305.9L461.1,311.8L469.6,316.2L481.4,320.4L482.4,321.2L492.1,323.7L495.6,324.0L506.7,327.0L518.7,329.5L522.0,331.5L530.5,333.4L536.6,336.6L540.5,337.5L541.4,339.3L543.7,338.2L550.0,341.3L544.2,340.1L541.7,341.1L536.3,340.8L533.3,341.9L528.7,341.4L525.2,339.4L517.3,342.4L515.3,346.0L508.5,347.6L497.4,347.2L493.0,346.4L487.0,347.4L481.2,346.6L479.8,348.2L471.7,346.6L468.0,346.8L465.7,349.4L467.1,350.9L463.2,351.8L463.2,355.5L459.9,356.2L454.1,354.6L450.6,352.6Z"/>
    <path class="wtc-county" id="wtc-county-cottonwood" data-county="Cottonwood" d="M164.6,95.0L164.6,72.5L165.3,72.5L203.5,72.5L203.5,89.3L188.0,89.3L187.6,94.9L164.6,95.0Z"/>
    <path class="wtc-county" id="wtc-county-crow-wing" data-county="Crow Wing" d="M236.9,229.3L233.4,225.0L235.5,223.0L234.8,221.5L271.2,221.4L271.2,227.0L272.1,227.0L271.2,227.5L271.2,249.0L273.3,249.4L273.5,263.2L236.9,263.3L236.7,252.1L237.6,252.1L237.8,230.0L236.9,229.3Z"/>
    <path class="wtc-county" id="wtc-county-dakota" data-county="Dakota" d="M302.2,133.4L303.1,128.6L302.9,123.0L305.7,123.0L305.4,117.4L305.4,112.7L321.0,112.7L321.0,115.6L326.5,115.0L328.8,115.7L328.8,117.3L336.9,117.3L336.9,122.9L340.9,122.9L340.9,128.4L336.2,130.4L333.0,130.5L331.1,132.3L328.1,132.8L323.3,132.1L322.3,139.8L320.3,141.6L315.2,141.6L311.9,139.6L309.8,136.5L307.3,134.6L302.2,133.4Z"/>
    <path class="wtc-county" id="wtc-county-dodge" data-county="Dodge" d="M320.5,95.0L320.7,74.4L320.5,72.5L343.7,72.6L344.3,72.6L344.3,94.9L321.0,95.0L320.5,95.0Z"/>
    <path class="wtc-county" id="wtc-county-douglas" data-county="Douglas" d="M145.0,218.3L145.0,207.1L145.6,207.1L145.6,195.9L185.5,195.8L185.5,196.7L185.0,207.0L185.0,218.2L145.0,218.3Z"/>
    <path class="wtc-county" id="wtc-county-faribault" data-county="Faribault" d="M243.1,72.5L243.1,50.1L261.0,50.0L281.8,50.0L281.8,72.5L273.9,72.5L243.1,72.5Z"/>
    <path class="wtc-county" id="wtc-county-fillmore" data-county="Fillmore" d="M359.2,71.6L359.2,50.1L383.0,50.1L405.5,50.1L405.5,72.4L383.0,72.4L359.2,72.5L359.2,71.6Z"/>
    <path class="wtc-county" id="wtc-county-freeborn" data-county="Freeborn" d="M281.8,72.5L281.8,50.0L291.5,50.0L320.3,50.0L320.3,72.5L297.3,72.5L281.8,72.5Z"/>
    <path class="wtc-county" id="wtc-county-goodhue" data-county="Goodhue" d="M321.0,112.7L321.0,95.0L344.3,94.9L352.5,94.9L352.5,106.1L360.3,106.1L360.3,111.7L372.4,111.6L368.4,114.8L367.7,117.2L366.4,118.1L360.1,118.8L353.1,118.9L351.1,121.3L347.8,122.2L348.1,123.6L340.9,128.4L340.9,122.9L336.9,122.9L336.9,117.3L328.8,117.3L328.8,115.7L326.5,115.0L321.0,115.6L321.0,112.7Z"/>
    <path class="wtc-county" id="wtc-county-grant" data-county="Grant" d="M112.8,212.7L112.8,207.1L113.7,207.1L113.7,195.8L145.6,195.9L145.6,207.1L145.0,207.1L145.0,218.3L112.8,218.3L112.8,212.7Z"/>
    <path class="wtc-county" id="wtc-county-hennepin" data-county="Hennepin" d="M289.9,162.7L286.7,160.9L282.3,160.4L282.3,157.5L278.3,155.6L276.0,152.2L274.4,152.1L273.9,145.4L273.9,139.8L289.7,139.8L289.9,134.2L295.3,134.7L299.0,133.0L302.2,133.4L307.3,134.6L309.8,136.5L311.9,139.6L310.5,141.0L310.1,149.2L308.9,149.1L305.2,149.1L305.7,153.5L303.4,156.1L296.2,160.5L290.4,162.7L289.9,162.7Z"/>
    <path class="wtc-county" id="wtc-county-houston" data-county="Houston" d="M405.5,72.4L405.5,50.1L413.1,50.1L438.6,50.1L436.8,53.0L437.7,55.4L435.4,57.5L434.9,61.4L436.1,64.6L436.8,67.7L434.2,72.4L405.5,72.4Z"/>
    <path class="wtc-county" id="wtc-county-hubbard" data-county="Hubbard" d="M182.7,302.5L182.7,296.9L183.6,296.9L183.6,285.7L183.6,274.5L184.1,274.5L184.1,263.3L208.2,263.2L216.5,263.2L216.5,274.4L215.8,302.4L182.7,302.5Z"/>
    <path class="wtc-county" id="wtc-county-isanti" data-county="Isanti" d="M290.4,194.2L290.6,182.9L290.6,173.6L317.5,173.5L322.3,173.4L322.1,182.8L314.5,182.9L314.5,193.9L290.4,194.2Z"/>
    <path class="wtc-county" id="wtc-county-itasca" data-county="Itasca" d="M232.0,330.5L232.3,304.6L237.8,302.7L251.5,306.9L253.8,306.1L257.3,302.3L256.3,299.9L264.7,295.1L266.3,296.4L273.7,295.5L271.2,291.0L273.5,289.6L273.5,277.8L320.0,277.6L319.3,282.9L319.1,301.3L319.6,322.3L318.2,322.4L318.4,333.4L273.5,333.9L273.5,330.5L232.0,330.5Z"/>
    <path class="wtc-county" id="wtc-county-jackson" data-county="Jackson" d="M165.3,72.5L165.1,50.1L169.5,50.1L200.1,50.1L204.0,50.1L204.0,72.5L203.5,72.5L165.3,72.5Z"/>
    <path class="wtc-county" id="wtc-county-kanabec" data-county="Kanabec" d="M295.7,221.3L295.7,210.1L290.2,210.2L290.4,194.2L314.5,193.9L314.2,210.1L320.0,210.1L320.0,221.6L305.2,221.7L295.7,221.3Z"/>
    <path class="wtc-county" id="wtc-county-kandiyohi" data-county="Kandiyohi" d="M178.1,173.4L178.1,162.2L178.5,156.6L178.5,139.8L210.0,139.8L209.8,167.9L209.8,173.5L185.9,173.4L178.1,173.4Z"/>
    <path class="wtc-county" id="wtc-county-kittson" data-county="Kittson" d="M50.7,405.0L50.0,402.7L52.5,397.3L53.9,396.0L55.8,389.1L59.3,384.7L58.6,381.2L56.5,379.9L54.9,375.5L104.9,375.5L104.9,386.7L104.0,386.7L103.7,404.9L69.9,404.9L50.7,405.0Z"/>
    <path class="wtc-county" id="wtc-county-koochiching" data-county="Koochiching" d="M231.3,385.6L231.3,364.1L232.0,330.5L273.5,330.5L273.5,333.9L318.4,333.4L317.7,344.8L317.3,344.8L317.9,380.9L312.2,380.6L310.1,381.8L301.0,380.9L293.4,378.3L293.6,375.6L288.3,374.5L283.2,374.6L282.1,373.8L272.3,373.7L270.9,374.4L271.6,377.1L269.8,380.7L258.7,381.9L244.5,382.3L242.0,385.5L234.3,386.3L231.3,385.6Z"/>
    <path class="wtc-county" id="wtc-county-lac-qui-parle" data-county="Lac qui Parle" d="M100.7,164.2L100.7,145.4L100.9,134.3L139.6,134.3L139.9,139.8L147.0,139.8L147.0,142.7L142.6,143.6L141.2,146.0L131.3,153.1L127.6,156.6L123.4,158.3L118.8,159.2L115.5,161.1L112.3,161.2L111.6,162.7L100.7,164.2Z"/>
    <path class="wtc-county" id="wtc-county-lake" data-county="Lake" d="M401.1,353.5L401.8,311.2L401.3,272.0L407.1,276.2L409.7,276.8L415.7,281.7L421.7,284.0L427.7,288.0L440.5,297.8L444.4,301.6L451.1,305.9L451.3,333.2L450.9,334.1L450.6,352.6L447.2,352.1L436.5,345.8L428.6,344.9L424.2,343.5L421.0,344.8L415.9,343.2L416.6,347.4L411.3,346.7L406.6,347.8L407.6,349.5L406.4,353.2L401.1,353.5Z"/>
    <path class="wtc-county" id="wtc-county-lake-of-the-woods" data-county="Lake of the Woods" d="M173.9,404.9L173.7,400.8L175.1,398.8L179.2,397.3L185.5,398.1L188.5,399.8L188.7,386.4L172.3,386.4L172.5,375.3L180.8,375.3L180.8,364.0L231.3,364.1L231.3,385.6L224.4,385.7L217.7,388.2L214.4,390.6L213.5,393.6L214.9,397.4L210.7,411.3L209.1,412.7L205.9,423.9L204.0,425.9L197.3,428.8L190.8,427.7L184.6,429.7L184.6,404.9L173.9,404.9Z"/>
    <path class="wtc-county" id="wtc-county-le-sueur" data-county="Le Sueur" d="M263.5,111.8L261.4,105.9L263.3,104.5L261.7,102.2L257.5,98.9L258.2,97.8L273.9,97.8L273.9,95.0L289.7,95.0L289.7,117.4L264.9,117.3L266.5,115.7L263.5,111.8Z"/>
    <path class="wtc-county" id="wtc-county-lincoln" data-county="Lincoln" d="M100.7,95.0L124.8,95.0L124.8,117.3L123.9,117.4L123.9,123.0L100.9,123.1L100.7,117.4L100.7,95.0Z"/>
    <path class="wtc-county" id="wtc-county-lyon" data-county="Lyon" d="M123.9,123.0L123.9,117.4L124.8,117.3L124.8,95.0L126.0,95.0L156.3,94.9L156.1,117.3L155.6,122.9L123.9,123.0Z"/>
    <path class="wtc-county" id="wtc-county-mcleod" data-county="McLeod" d="M242.5,145.5L226.7,145.5L226.7,139.9L226.9,128.6L226.9,122.9L242.7,123.0L242.7,128.7L258.4,128.6L258.2,145.4L242.5,145.5Z"/>
    <path class="wtc-county" id="wtc-county-mahnomen" data-county="Mahnomen" d="M125.7,308.1L125.7,285.7L158.8,285.6L158.8,308.1L125.7,308.1Z"/>
    <path class="wtc-county" id="wtc-county-marshall" data-county="Marshall" d="M54.9,375.5L55.1,375.4L56.5,372.4L56.7,366.5L56.0,363.6L57.9,358.5L56.3,355.5L56.3,352.9L56.0,351.6L97.7,351.6L131.1,351.5L156.3,351.5L156.3,364.0L155.6,364.0L155.6,375.1L104.9,375.5L54.9,375.5Z"/>
    <path class="wtc-county" id="wtc-county-martin" data-county="Martin" d="M204.0,72.5L204.0,50.1L230.4,50.1L243.1,50.1L243.1,72.5L235.3,72.5L204.0,72.5Z"/>
    <path class="wtc-county" id="wtc-county-meeker" data-county="Meeker" d="M209.8,167.9L210.0,139.8L226.7,139.9L226.7,145.5L242.5,145.5L242.2,165.1L234.3,165.1L234.3,167.9L209.8,167.9Z"/>
    <path class="wtc-county" id="wtc-county-mille-lacs" data-county="Mille Lacs" d="M272.1,227.0L271.2,227.0L271.2,221.4L271.2,210.2L273.9,210.2L274.2,199.9L274.6,182.9L290.6,182.9L290.4,194.2L290.2,210.2L295.7,210.1L295.7,221.3L295.7,227.3L272.1,227.0Z"/>
    <path class="wtc-county" id="wtc-county-morrison" data-county="Morrison" d="M217.0,233.9L217.4,196.8L241.5,196.8L236.2,199.9L274.2,199.9L273.9,210.2L271.2,210.2L271.2,221.4L234.8,221.5L235.5,223.0L233.4,225.0L236.9,229.3L231.6,232.8L229.2,232.7L224.6,230.9L218.8,232.4L217.0,233.9Z"/>
    <path class="wtc-county" id="wtc-county-mower" data-county="Mower" d="M320.3,72.5L320.3,50.0L321.9,50.0L352.5,50.1L359.2,50.1L359.2,71.6L343.7,71.6L343.7,72.6L320.5,72.5L320.3,72.5Z"/>
    <path class="wtc-county" id="wtc-county-murray" data-county="Murray" d="M126.0,95.0L125.7,72.6L126.7,72.6L164.6,72.5L164.6,95.0L156.3,94.9L126.0,95.0Z"/>
    <path class="wtc-county" id="wtc-county-nicollet" data-county="Nicollet" d="M208.6,111.7L214.2,109.9L216.0,107.8L225.3,105.9L229.2,103.8L232.5,99.9L235.0,99.4L240.4,97.8L245.2,95.3L251.7,94.0L256.1,92.3L258.9,93.2L257.5,96.6L258.2,97.8L257.5,98.9L261.7,102.2L263.3,104.5L261.4,105.9L263.5,111.8L218.8,111.7L208.6,111.7Z"/>
    <path class="wtc-county" id="wtc-county-nobles" data-county="Nobles" d="M126.7,72.6L126.7,50.1L138.9,50.1L165.1,50.1L165.3,72.5L164.6,72.5L126.7,72.6Z"/>
    <path class="wtc-county" id="wtc-county-norman" data-county="Norman" d="M75.0,308.1L74.3,302.6L76.2,297.5L75.5,294.8L76.2,291.2L76.4,285.6L117.4,285.6L125.7,285.7L125.7,308.1L75.0,308.1Z"/>
    <path class="wtc-county" id="wtc-county-olmsted" data-county="Olmsted" d="M343.7,72.6L343.7,71.6L359.2,71.6L359.2,72.5L383.0,72.4L383.0,89.2L367.5,89.2L367.5,94.8L352.5,94.9L344.3,94.9L344.3,72.6L343.7,72.6Z"/>
    <path class="wtc-county" id="wtc-county-otter-tail" data-county="Otter Tail" d="M111.8,252.0L111.8,229.6L113.0,229.6L112.8,218.3L145.0,218.3L185.0,218.2L185.0,229.6L184.6,235.1L184.6,252.0L183.9,257.6L166.5,257.5L118.8,257.7L118.8,252.0L111.8,252.0Z"/>
    <path class="wtc-county" id="wtc-county-pennington" data-county="Pennington" d="M97.7,351.6L97.7,341.8L98.9,341.8L98.9,338.1L148.7,338.1L148.7,336.2L157.0,336.1L157.0,341.7L156.3,341.7L156.3,351.5L131.1,351.5L97.7,351.6Z"/>
    <path class="wtc-county" id="wtc-county-pine" data-county="Pine" d="M320.0,221.6L320.0,210.1L314.2,210.1L314.5,193.9L333.7,193.9L337.4,196.2L342.0,204.4L346.7,207.0L352.5,208.2L354.3,210.4L357.5,209.6L359.9,212.7L365.4,212.3L366.8,215.6L369.1,216.2L369.1,221.5L369.1,238.3L320.0,238.4L320.0,221.6Z"/>
    <path class="wtc-county" id="wtc-county-pipestone" data-county="Pipestone" d="M100.7,95.0L100.7,72.6L125.7,72.6L126.0,95.0L124.8,95.0L100.7,95.0Z"/>
    <path class="wtc-county" id="wtc-county-polk" data-county="Polk" d="M56.0,351.6L58.8,345.0L60.7,343.8L61.8,337.1L64.4,335.2L65.1,332.0L67.6,326.4L69.5,325.5L70.8,321.2L72.5,319.2L73.6,315.4L74.8,315.3L75.0,308.1L125.7,308.1L158.8,308.1L158.8,319.3L157.2,319.3L157.0,336.1L148.7,336.2L148.7,330.6L140.6,330.6L140.6,325.0L107.2,324.9L107.2,330.5L98.9,330.6L98.9,338.1L98.9,341.8L97.7,341.8L97.7,351.6L56.0,351.6Z"/>
    <path class="wtc-county" id="wtc-county-pope" data-county="Pope" d="M145.6,195.9L145.6,184.6L146.3,184.6L146.3,173.4L178.1,173.4L185.9,173.4L185.9,184.6L185.5,184.6L185.5,195.8L145.6,195.9Z"/>
    <path class="wtc-county" id="wtc-county-ramsey" data-county="Ramsey" d="M322.1,154.8L308.9,154.9L308.9,149.1L310.1,149.2L310.5,141.0L311.9,139.6L315.2,141.6L320.3,141.6L322.3,139.8L324.7,140.0L324.4,154.8L322.1,154.8Z"/>
    <path class="wtc-county" id="wtc-county-red-lake" data-county="Red Lake" d="M98.9,338.1L98.9,330.6L107.2,330.5L107.2,324.9L140.6,325.0L140.6,330.6L148.7,330.6L148.7,336.2L148.7,338.1L98.9,338.1Z"/>
    <path class="wtc-county" id="wtc-county-redwood" data-county="Redwood" d="M156.1,117.3L156.3,94.9L164.6,95.0L187.6,94.9L187.6,100.5L203.1,100.6L203.1,114.5L195.2,117.6L193.6,117.3L182.5,122.6L178.8,125.3L175.8,125.0L173.9,127.0L171.4,127.4L171.4,117.3L156.1,117.3Z"/>
    <path class="wtc-county" id="wtc-county-renville" data-county="Renville" d="M178.5,139.8L163.2,139.8L163.2,130.9L166.0,130.3L171.4,127.4L173.9,127.0L175.8,125.0L178.8,125.3L182.5,122.6L193.6,117.3L195.2,117.6L203.1,114.5L206.6,113.6L208.6,111.7L218.8,111.7L218.4,128.5L226.9,128.6L226.7,139.9L210.0,139.8L178.5,139.8Z"/>
    <path class="wtc-county" id="wtc-county-rice" data-county="Rice" d="M289.7,117.4L289.7,95.0L297.3,95.0L320.5,95.0L321.0,95.0L321.0,112.7L305.4,112.7L305.4,117.4L289.7,117.4Z"/>
    <path class="wtc-county" id="wtc-county-rock" data-county="Rock" d="M100.7,72.6L100.7,50.1L126.7,50.1L126.7,72.6L125.7,72.6L100.7,72.6Z"/>
    <path class="wtc-county" id="wtc-county-roseau" data-county="Roseau" d="M103.7,404.9L104.0,386.7L104.9,386.7L104.9,375.5L155.6,375.1L172.5,375.3L172.3,386.4L188.7,386.4L188.5,399.8L185.5,398.1L179.2,397.3L175.1,398.8L173.7,400.8L173.9,404.9L103.7,404.9Z"/>
    <path class="wtc-county" id="wtc-county-st-louis" data-county="St. Louis" d="M317.9,380.9L317.3,344.8L317.7,344.8L318.4,333.4L318.2,322.4L319.6,322.3L319.1,301.3L319.3,282.9L320.0,277.6L319.6,260.8L368.7,260.7L369.1,254.1L374.2,253.3L376.8,255.6L374.7,256.7L378.4,257.5L379.1,259.1L382.3,259.7L387.2,256.9L384.0,259.5L382.1,262.2L384.2,263.6L398.3,271.0L401.3,272.0L401.8,311.2L401.1,353.5L396.9,353.7L394.8,355.7L391.6,355.2L387.7,357.5L388.1,361.1L384.4,363.6L374.7,362.7L371.2,363.3L368.2,360.8L370.1,356.1L364.3,354.6L358.7,361.7L357.3,364.4L358.7,366.3L355.2,369.3L345.7,368.5L342.0,370.3L343.0,372.3L347.4,372.7L347.1,375.4L341.1,375.2L328.1,379.6L326.7,381.1L317.9,380.9Z"/>
    <path class="wtc-county" id="wtc-county-scott" data-county="Scott" d="M273.9,123.6L268.2,122.4L265.4,120.2L264.9,117.3L289.7,117.4L305.4,117.4L305.7,123.0L302.9,123.0L303.1,128.6L302.2,133.4L299.0,133.0L295.3,134.7L289.9,134.2L284.8,132.8L282.7,129.9L283.7,128.0L280.4,127.2L278.6,125.5L273.9,123.6Z"/>
    <path class="wtc-county" id="wtc-county-sherburne" data-county="Sherburne" d="M249.4,182.9L249.9,178.6L255.9,174.1L261.7,171.2L264.2,171.6L267.5,168.7L270.0,168.5L274.6,165.8L286.2,165.7L289.9,162.7L290.4,162.7L290.6,173.6L290.6,182.9L274.6,182.9L249.4,182.9Z"/>
    <path class="wtc-county" id="wtc-county-sibley" data-county="Sibley" d="M226.9,128.6L218.4,128.5L218.8,111.7L263.5,111.8L266.5,115.7L264.9,117.3L265.4,120.2L268.2,122.4L273.9,123.6L273.9,125.8L266.3,125.8L266.3,128.6L258.4,128.6L242.7,128.7L242.7,123.0L226.9,122.9L226.9,128.6Z"/>
    <path class="wtc-county" id="wtc-county-stearns" data-county="Stearns" d="M185.5,195.8L185.5,184.6L185.9,184.6L185.9,173.4L209.8,173.5L209.8,167.9L234.3,167.9L234.3,165.1L242.2,165.1L242.5,166.6L246.9,167.3L248.5,166.3L253.8,170.5L255.9,174.1L249.9,178.6L249.4,182.9L245.9,186.8L246.2,190.0L241.5,196.8L217.4,196.8L185.5,196.7L185.5,195.8Z"/>
    <path class="wtc-county" id="wtc-county-steele" data-county="Steele" d="M297.3,95.0L297.3,72.5L320.3,72.5L320.5,72.5L320.7,74.4L320.5,95.0L297.3,95.0Z"/>
    <path class="wtc-county" id="wtc-county-stevens" data-county="Stevens" d="M113.7,195.8L113.7,184.6L114.4,184.6L114.4,173.4L122.5,173.4L146.3,173.4L146.3,184.6L145.6,184.6L145.6,195.9L113.7,195.8Z"/>
    <path class="wtc-county" id="wtc-county-swift" data-county="Swift" d="M122.5,173.4L122.3,162.3L123.4,158.3L127.6,156.6L178.5,156.6L178.1,162.2L178.1,173.4L146.3,173.4L122.5,173.4Z"/>
    <path class="wtc-county" id="wtc-county-todd" data-county="Todd" d="M184.6,235.1L185.0,229.6L185.0,218.2L185.0,207.0L185.5,196.7L217.4,196.8L217.0,233.9L212.6,234.0L211.9,235.1L184.6,235.1Z"/>
    <path class="wtc-county" id="wtc-county-traverse" data-county="Traverse" d="M93.5,207.2L92.6,200.1L89.4,197.6L86.6,194.1L81.5,191.9L75.7,188.5L74.5,185.9L76.2,184.6L113.7,184.6L113.7,195.8L113.7,207.1L112.8,207.1L112.8,212.7L92.8,212.7L93.5,207.2Z"/>
    <path class="wtc-county" id="wtc-county-wabasha" data-county="Wabasha" d="M372.4,111.6L360.3,111.7L360.3,106.1L352.5,106.1L352.5,94.9L367.5,94.8L367.5,89.2L383.0,89.2L383.0,94.8L397.2,94.8L395.1,97.2L394.8,100.1L393.0,100.9L393.0,103.8L389.7,106.0L382.6,108.6L374.2,110.6L372.4,111.6Z"/>
    <path class="wtc-county" id="wtc-county-wadena" data-county="Wadena" d="M183.9,257.6L184.6,252.0L184.6,235.1L211.9,235.1L208.9,236.8L208.2,263.2L184.1,263.3L183.9,257.6Z"/>
    <path class="wtc-county" id="wtc-county-waseca" data-county="Waseca" d="M273.9,95.0L273.9,72.5L281.8,72.5L297.3,72.5L297.3,95.0L289.7,95.0L273.9,95.0Z"/>
    <path class="wtc-county" id="wtc-county-washington" data-county="Washington" d="M322.3,139.8L323.3,132.1L328.1,132.8L331.1,132.3L333.0,130.5L336.2,130.4L336.0,131.9L338.8,136.3L338.6,137.9L338.1,140.5L339.7,142.8L338.3,145.1L338.8,148.7L336.2,150.5L339.9,153.8L338.6,158.8L339.3,160.4L339.0,165.6L339.9,165.9L322.3,166.0L322.1,154.8L324.4,154.8L324.7,140.0L322.3,139.8Z"/>
    <path class="wtc-county" id="wtc-county-watonwan" data-county="Watonwan" d="M203.5,89.3L203.5,72.5L204.0,72.5L235.3,72.5L235.3,89.3L203.5,89.3Z"/>
    <path class="wtc-county" id="wtc-county-wilkin" data-county="Wilkin" d="M79.4,252.0L81.5,248.9L82.4,242.3L83.6,239.6L88.2,234.2L91.2,232.7L91.5,225.5L94.0,215.1L92.8,212.7L112.8,212.7L112.8,218.3L113.0,229.6L111.8,229.6L111.8,252.0L79.4,252.0Z"/>
    <path class="wtc-county" id="wtc-county-winona" data-county="Winona" d="M397.2,94.8L383.0,94.8L383.0,89.2L383.0,72.4L405.5,72.4L434.2,72.4L427.7,79.4L425.2,81.3L424.2,82.4L416.6,83.9L414.3,84.3L406.9,89.0L406.2,90.6L399.9,92.9L397.2,94.8Z"/>
    <path class="wtc-county" id="wtc-county-wright" data-county="Wright" d="M242.2,165.1L242.5,145.5L258.2,145.4L273.9,145.4L274.4,152.1L276.0,152.2L278.3,155.6L282.3,157.5L282.3,160.4L286.7,160.9L289.9,162.7L286.2,165.7L274.6,165.8L270.0,168.5L267.5,168.7L264.2,171.6L261.7,171.2L255.9,174.1L253.8,170.5L248.5,166.3L246.9,167.3L242.5,166.6L242.2,165.1Z"/>
    <path class="wtc-county" id="wtc-county-yellow-medicine" data-county="Yellow Medicine" d="M100.9,134.3L100.9,123.1L123.9,123.0L155.6,122.9L156.1,117.3L171.4,117.3L171.4,127.4L166.0,130.3L163.2,130.9L160.5,132.0L162.3,133.1L154.9,137.2L151.2,140.6L148.7,140.6L147.0,142.7L147.0,139.8L139.9,139.8L139.6,134.3L100.9,134.3Z"/>
  </g>
</svg>