<?xml version="1.0" encoding="UTF-8"?>
<svg xmlns="http://www.w3.org/2000/svg" viewBox="0 0 600 388" id="wtc-state-map-NY" role="img" aria-label="ny county map">
  <title>ny Counties</title>
  <g class="wtc-counties">
    <path class="wtc-county" id="wtc-county-albany" data-county="Albany" d="M406.2,195.9L407.3,196.6L405.5,202.9L402.3,207.3L403.2,210.9L400.9,215.6L401.6,216.4L431.6,212.8L433.6,206.3L433.2,203.2L436.4,198.1L438.5,192.4L437.5,193.0L434.6,190.1L432.5,192.3L430.0,192.7L429.8,193.0L406.2,195.9Z"/>
    <path class="wtc-county" id="wtc-county-allegany" data-county="Allegany" d="M142.8,209.2L142.8,242.5L149.4,242.5L178.5,242.5L179.0,230.1L180.1,216.6L180.1,212.4L172.8,212.2L172.8,209.4L160.2,209.1L142.8,209.2Z"/>
    <path class="wtc-county" id="wtc-county-bronx" data-county="Bronx" d="M422.0,313.8L423.8,314.3L422.0,316.7L423.3,319.3L431.4,318.9L429.8,316.0L432.7,316.1L432.7,314.1L423.1,311.5L422.0,313.8Z"/>
    <path class="wtc-county" id="wtc-county-broome" data-county="Broome" d="M281.8,216.3L285.0,227.7L284.5,230.5L282.7,230.6L283.4,242.5L306.5,242.6L323.0,242.5L328.3,242.5L327.1,239.7L327.4,230.0L313.4,230.0L313.2,226.6L301.7,226.5L300.1,225.9L298.7,215.9L288.9,216.3L281.8,216.3Z"/>
    <path class="wtc-county" id="wtc-county-cattaraugus" data-county="Cattaraugus" d="M94.9,208.1L94.9,242.5L103.8,242.5L142.8,242.5L142.8,209.2L132.9,209.3L132.9,208.2L126.5,210.0L120.3,211.0L106.1,214.5L101.5,212.3L99.5,209.1L94.9,208.1Z"/>
    <path class="wtc-county" id="wtc-county-cayuga" data-county="Cayuga" d="M244.7,177.1L243.1,181.5L244.5,188.9L242.9,192.0L243.5,196.9L246.5,199.7L247.7,202.7L260.9,202.4L260.9,202.9L273.3,202.6L272.6,193.2L270.6,190.5L267.4,188.2L261.4,188.5L260.7,178.2L258.7,178.3L258.4,172.1L260.0,171.8L259.6,164.1L259.3,162.2L251.6,162.2L250.9,151.9L245.6,156.6L244.0,156.7L245.4,173.5L244.7,177.1Z"/>
    <path class="wtc-county" id="wtc-county-chautauqua" data-county="Chautauqua" d="M50.0,225.2L50.0,242.4L59.6,242.5L94.9,242.5L94.9,208.1L91.9,206.1L90.1,206.1L89.2,207.1L83.2,208.5L76.3,211.2L69.7,216.2L57.6,222.3L50.0,225.2Z"/>
    <path class="wtc-county" id="wtc-county-chemung" data-county="Chemung" d="M228.4,242.4L230.9,242.3L254.5,242.4L255.7,239.1L254.3,232.5L255.9,232.5L255.9,224.4L250.6,224.4L249.3,227.5L243.3,226.6L243.3,223.7L228.7,224.1L228.7,224.7L228.4,242.4Z"/>
    <path class="wtc-county" id="wtc-county-chenango" data-county="Chenango" d="M297.1,196.3L298.3,207.8L298.7,215.9L300.1,225.9L301.7,226.5L313.2,226.6L313.4,230.0L327.4,230.0L327.4,222.4L328.7,219.9L328.1,218.1L330.1,215.9L328.1,211.9L330.6,207.1L333.1,205.6L332.9,199.4L335.2,194.9L326.7,195.3L326.7,194.9L297.1,196.3Z"/>
    <path class="wtc-county" id="wtc-county-clinton" data-county="Clinton" d="M416.0,51.3L418.8,69.6L419.9,69.6L421.3,78.1L422.0,78.0L423.6,87.4L436.9,86.3L438.9,86.6L445.1,85.1L446.2,84.0L449.9,83.8L452.0,80.5L460.0,79.9L458.6,78.8L456.8,74.2L457.7,72.5L458.2,67.5L460.4,64.5L457.5,61.3L458.4,57.9L460.0,56.2L459.8,50.3L438.5,50.8L416.0,51.3Z"/>
    <path class="wtc-county" id="wtc-county-columbia" data-county="Columbia" d="M423.6,234.3L422.2,237.4L423.6,237.4L436.2,242.1L447.8,243.8L448.3,239.2L449.9,239.2L449.2,236.9L459.1,209.9L431.6,212.8L432.0,215.0L430.9,218.5L431.6,224.1L430.4,226.2L427.5,227.7L427.0,230.2L424.7,231.7L423.6,234.3Z"/>
    <path class="wtc-county" id="wtc-county-cortland" data-county="Cortland" d="M272.6,193.2L273.3,202.6L274.0,216.4L281.8,216.3L288.9,216.3L298.7,215.9L298.3,207.8L297.1,196.3L296.7,192.0L272.6,193.2Z"/>
    <path class="wtc-county" id="wtc-county-delaware" data-county="Delaware" d="M327.4,230.0L327.1,239.7L328.3,242.5L331.0,242.5L334.2,245.7L335.4,245.5L337.2,251.0L340.7,250.7L344.5,252.0L367.9,241.4L389.0,231.6L383.5,229.6L390.4,220.2L389.4,219.8L378.2,215.3L372.3,209.4L368.4,210.2L364.0,209.7L356.0,212.5L352.8,215.1L348.0,215.6L341.3,219.6L337.2,219.0L334.2,221.9L327.4,222.4L327.4,230.0Z"/>
    <path class="wtc-county" id="wtc-county-dutchess" data-county="Dutchess" d="M420.8,268.6L417.8,273.1L417.8,277.2L419.0,278.2L422.0,275.1L447.8,272.6L448.5,263.7L450.6,239.2L449.9,239.2L448.3,239.2L447.8,243.8L436.2,242.1L423.6,237.4L422.2,237.4L421.7,242.0L420.1,248.2L421.5,250.5L420.8,257.1L421.5,258.0L420.8,268.6Z"/>
    <path class="wtc-county" id="wtc-county-erie" data-county="Erie" d="M97.4,174.4L98.3,175.6L97.9,179.5L103.1,181.5L104.7,183.5L104.3,185.8L107.3,188.0L108.2,192.4L103.8,195.4L95.6,198.4L94.7,201.3L91.7,203.3L90.1,206.1L91.9,206.1L94.9,208.1L99.5,209.1L101.5,212.3L106.1,214.5L120.3,211.0L126.5,210.0L132.9,208.2L132.9,192.6L131.3,192.6L131.5,187.0L132.9,187.0L132.9,173.0L129.9,172.4L124.0,174.0L116.2,173.1L111.4,174.4L108.9,177.4L105.7,177.2L105.4,175.8L102.2,174.3L97.4,174.4Z"/>
    <path class="wtc-county" id="wtc-county-essex" data-county="Essex" d="M399.7,107.1L401.4,116.7L396.3,119.6L404.1,126.9L408.2,125.7L411.2,127.2L414.9,127.8L414.2,131.1L453.6,127.3L457.5,127.0L457.7,122.7L455.4,119.1L455.6,113.4L453.6,111.9L455.4,107.6L456.6,102.7L461.6,98.0L460.2,91.1L463.0,86.7L462.0,82.9L460.0,79.9L452.0,80.5L449.9,83.8L446.2,84.0L445.1,85.1L438.9,86.6L436.9,86.3L423.6,87.4L408.7,88.8L411.9,106.0L399.7,107.1Z"/>
    <path class="wtc-county" id="wtc-county-franklin" data-county="Franklin" d="M416.0,51.3L408.5,51.5L396.3,51.5L375.5,51.0L371.3,51.3L371.8,54.0L376.8,54.0L378.0,62.8L384.2,103.9L383.0,104.0L383.7,108.5L399.7,107.1L411.9,106.0L408.7,88.8L423.6,87.4L422.0,78.0L421.3,78.1L419.9,69.6L418.8,69.6L416.0,51.3Z"/>
    <path class="wtc-county" id="wtc-county-fulton" data-county="Fulton" d="M372.3,160.4L373.4,167.5L371.3,170.6L369.3,171.0L368.4,173.3L369.3,175.6L383.3,179.5L411.7,179.7L408.9,162.4L403.4,162.8L403.6,164.5L397.2,164.9L397.0,163.2L383.7,164.1L372.3,160.4Z"/>
    <path class="wtc-county" id="wtc-county-genesee" data-county="Genesee" d="M132.9,170.4L132.9,173.0L132.9,187.0L157.9,186.9L165.4,187.4L165.4,184.6L168.2,182.1L168.2,179.4L168.6,176.2L165.7,176.1L168.4,170.1L162.7,170.1L132.9,170.4Z"/>
    <path class="wtc-county" id="wtc-county-greene" data-county="Greene" d="M389.4,219.8L390.4,220.2L383.5,229.6L389.0,231.6L398.1,235.1L413.0,236.3L415.1,231.6L417.6,231.1L423.6,234.3L424.7,231.7L427.0,230.2L427.5,227.7L430.4,226.2L431.6,224.1L430.9,218.5L432.0,215.0L431.6,212.8L401.6,216.4L402.3,218.3L395.6,219.7L393.6,218.6L389.4,219.8Z"/>
    <path class="wtc-county" id="wtc-county-hamilton" data-county="Hamilton" d="M363.3,110.4L368.4,147.6L362.4,157.0L372.3,160.4L383.7,164.1L397.0,163.2L397.2,164.9L403.6,164.5L403.4,162.8L408.9,162.4L407.5,154.9L404.1,132.1L414.2,131.1L414.9,127.8L411.2,127.2L408.2,125.7L404.1,126.9L396.3,119.6L401.4,116.7L399.7,107.1L383.7,108.5L363.3,110.4Z"/>
    <path class="wtc-county" id="wtc-county-herkimer" data-county="Herkimer" d="M346.8,139.4L349.1,157.5L344.5,159.1L343.6,162.1L349.6,164.1L340.0,175.3L341.1,186.2L340.4,186.3L340.4,187.8L345.0,187.5L347.5,184.5L359.9,189.8L361.7,185.1L369.1,187.3L370.4,178.8L369.3,175.6L368.4,173.3L369.3,171.0L371.3,170.6L373.4,167.5L372.3,160.4L362.4,157.0L368.4,147.6L363.3,110.4L350.0,111.6L343.2,108.6L346.8,139.4Z"/>
    <path class="wtc-county" id="wtc-county-jefferson" data-county="Jefferson" d="M266.2,122.8L268.7,122.5L269.9,120.1L266.2,122.8ZM299.0,89.1L292.1,92.9L290.0,92.6L283.9,95.7L279.7,96.9L279.7,99.5L274.5,101.8L270.1,102.1L266.4,108.4L266.2,112.8L269.7,112.8L273.1,115.6L271.9,117.2L277.0,116.4L281.3,119.0L282.0,121.3L277.2,123.6L276.8,121.8L273.5,122.4L271.0,125.1L275.6,127.3L277.4,135.2L288.7,136.0L288.7,133.5L304.5,134.6L303.8,128.3L299.7,128.1L300.3,122.2L305.6,122.5L315.5,116.6L319.4,116.9L318.9,114.3L321.9,114.2L323.0,110.1L319.1,108.2L325.5,100.9L299.0,89.1ZM261.2,121.8L266.0,119.8L263.9,119.6L261.2,121.8Z"/>
    <path class="wtc-county" id="wtc-county-kings" data-county="Kings" d="M416.5,326.6L415.1,329.9L417.6,332.0L416.9,333.4L422.0,333.7L427.5,332.5L428.4,330.0L427.0,329.0L426.1,325.7L424.5,326.5L422.4,323.7L420.1,323.1L419.4,324.8L416.5,326.6Z"/>
    <path class="wtc-county" id="wtc-county-lewis" data-county="Lewis" d="M325.5,100.9L319.1,108.2L323.0,110.1L321.9,114.2L318.9,114.3L319.4,116.9L315.5,116.6L305.6,122.5L300.3,122.2L299.7,128.1L303.8,128.3L304.5,134.6L305.6,148.6L319.8,151.9L346.8,139.4L343.2,108.6L325.5,100.9Z"/>
    <path class="wtc-county" id="wtc-county-livingston" data-county="Livingston" d="M165.4,187.4L165.2,199.8L158.6,208.4L160.2,209.1L172.8,209.4L172.8,212.2L180.1,212.4L180.3,208.3L184.2,208.3L184.2,205.4L195.0,205.6L195.2,199.7L188.1,199.5L187.2,193.7L188.8,193.7L188.8,187.9L191.5,187.2L189.3,182.2L179.6,182.1L179.6,179.4L168.2,179.4L168.2,182.1L165.4,184.6L165.4,187.4Z"/>
    <path class="wtc-county" id="wtc-county-madison" data-county="Madison" d="M290.5,166.9L292.1,168.7L291.6,172.8L295.3,172.9L296.7,192.0L297.1,196.3L326.7,194.9L326.7,195.3L335.2,194.9L337.9,192.4L338.1,186.8L326.0,187.3L324.9,182.9L319.4,183.0L318.7,176.2L315.9,176.4L315.7,174.7L313.2,173.5L312.3,171.3L308.8,169.8L307.7,168.2L297.6,168.7L294.4,167.4L290.5,166.9Z"/>
    <path class="wtc-county" id="wtc-county-monroe" data-county="Monroe" d="M162.9,155.3L162.7,170.1L168.4,170.1L165.7,176.1L168.6,176.2L168.2,179.4L179.6,179.4L179.6,182.1L189.3,182.2L195.4,182.2L195.4,176.4L202.5,176.4L202.3,160.9L194.3,162.7L192.2,163.6L189.5,163.1L184.2,160.6L180.8,158.0L175.5,157.0L162.9,155.3Z"/>
    <path class="wtc-county" id="wtc-county-montgomery" data-county="Montgomery" d="M369.1,187.3L376.4,189.5L381.9,190.6L388.8,193.1L399.3,192.4L400.9,191.6L401.4,190.6L412.3,185.2L411.9,181.5L411.7,179.7L383.3,179.5L369.3,175.6L370.4,178.8L369.1,187.3Z"/>
    <path class="wtc-county" id="wtc-county-nassau" data-county="Nassau" d="M449.9,311.2L445.6,311.6L440.7,313.1L438.5,315.4L435.9,314.6L432.5,319.0L436.9,322.0L435.2,323.8L435.2,328.4L432.5,330.2L433.6,332.4L446.0,332.9L454.5,331.1L454.0,323.9L452.2,314.7L449.9,311.2Z"/>
    <path class="wtc-county" id="wtc-county-new-york" data-county="New York" d="M414.9,326.0L416.5,326.6L419.4,324.8L420.1,323.1L423.3,319.3L422.0,316.7L423.8,314.3L422.0,313.8L418.8,319.1L417.2,321.2L416.2,324.8L414.9,326.0Z"/>
    <path class="wtc-county" id="wtc-county-niagara" data-county="Niagara" d="M132.9,154.9L131.3,154.7L122.1,155.8L109.3,158.4L100.6,160.7L94.2,161.9L94.9,162.6L96.0,169.5L94.0,173.7L97.4,174.4L102.2,174.3L105.4,175.8L105.7,177.2L108.9,177.4L111.4,174.4L116.2,173.1L124.0,174.0L129.9,172.4L132.9,173.0L132.9,170.4L132.9,154.9Z"/>
    <path class="wtc-county" id="wtc-county-oneida" data-county="Oneida" d="M305.6,148.6L301.9,147.7L297.4,157.9L299.0,158.3L297.6,168.7L307.7,168.2L308.8,169.8L312.3,171.3L313.2,173.5L315.7,174.7L315.9,176.4L318.7,176.2L319.4,183.0L324.9,182.9L326.0,187.3L338.1,186.8L340.4,186.3L341.1,186.2L340.0,175.3L349.6,164.1L343.6,162.1L344.5,159.1L349.1,157.5L346.8,139.4L319.8,151.9L305.6,148.6Z"/>
    <path class="wtc-county" id="wtc-county-onondaga" data-county="Onondaga" d="M259.6,164.1L260.0,171.8L258.4,172.1L258.7,178.3L260.7,178.2L261.4,188.5L267.4,188.2L270.6,190.5L272.6,193.2L296.7,192.0L295.3,172.9L291.6,172.8L292.1,168.7L290.5,166.9L277.2,161.3L277.7,164.7L275.8,165.6L273.5,163.5L272.2,165.8L270.6,163.9L259.6,164.1Z"/>
    <path class="wtc-county" id="wtc-county-ontario" data-county="Ontario" d="M189.3,182.2L191.5,187.2L188.8,187.9L188.8,193.7L187.2,193.7L188.1,199.5L195.2,199.7L195.0,205.6L203.0,205.6L203.0,199.8L206.4,193.8L228.2,193.7L227.5,187.8L228.7,186.7L228.7,177.8L217.9,177.8L217.7,176.1L202.5,176.4L195.4,176.4L195.4,182.2L189.3,182.2Z"/>
    <path class="wtc-county" id="wtc-county-orange" data-county="Orange" d="M394.3,268.5L391.7,269.5L387.4,274.1L369.7,274.8L369.5,279.1L373.4,283.4L394.3,293.2L402.7,297.1L419.0,285.5L421.0,281.1L419.0,278.2L417.8,277.2L417.8,273.1L420.8,268.6L414.4,269.2L409.1,267.0L409.6,269.1L401.8,267.6L400.9,265.9L394.3,268.5Z"/>
    <path class="wtc-county" id="wtc-county-orleans" data-county="Orleans" d="M132.9,154.9L132.9,170.4L162.7,170.1L162.9,155.3L155.8,154.6L147.6,155.1L138.9,154.6L132.9,154.9Z"/>
    <path class="wtc-county" id="wtc-county-oswego" data-county="Oswego" d="M277.4,135.2L277.2,141.9L275.1,144.8L271.3,145.9L266.7,145.1L263.5,145.3L259.1,148.3L256.8,148.7L250.9,151.9L251.6,162.2L259.3,162.2L259.6,164.1L270.6,163.9L272.2,165.8L273.5,163.5L275.8,165.6L277.7,164.7L277.2,161.3L290.5,166.9L294.4,167.4L297.6,168.7L299.0,158.3L297.4,157.9L301.9,147.7L305.6,148.6L304.5,134.6L288.7,133.5L288.7,136.0L277.4,135.2Z"/>
    <path class="wtc-county" id="wtc-county-otsego" data-county="Otsego" d="M335.2,194.9L332.9,199.4L333.1,205.6L330.6,207.1L328.1,211.9L330.1,215.9L328.1,218.1L328.7,219.9L327.4,222.4L334.2,221.9L337.2,219.0L341.3,219.6L348.0,215.6L352.8,215.1L356.0,212.5L364.0,209.7L368.4,210.2L372.3,209.4L377.5,202.5L375.2,194.5L376.4,189.5L369.1,187.3L361.7,185.1L359.9,189.8L347.5,184.5L345.0,187.5L340.4,187.8L340.4,186.3L338.1,186.8L337.9,192.4L335.2,194.9Z"/>
    <path class="wtc-county" id="wtc-county-putnam" data-county="Putnam" d="M419.0,285.5L419.0,285.7L446.9,282.9L447.8,272.6L422.0,275.1L419.0,278.2L421.0,281.1L419.0,285.5Z"/>
    <path class="wtc-county" id="wtc-county-queens" data-county="Queens" d="M423.3,319.3L420.1,323.1L422.4,323.7L424.5,326.5L426.1,325.7L427.0,329.0L428.4,330.0L427.5,332.5L422.0,333.7L421.5,335.4L428.4,333.2L433.6,332.4L432.5,330.2L435.2,328.4L435.2,323.8L436.9,322.0L432.5,319.0L431.4,318.9L423.3,319.3Z"/>
    <path class="wtc-county" id="wtc-county-rensselaer" data-county="Rensselaer" d="M438.5,192.4L436.4,198.1L433.2,203.2L433.6,206.3L431.6,212.8L459.1,209.9L464.8,194.8L463.0,191.3L463.9,189.2L464.1,182.2L457.2,182.2L454.0,181.3L452.9,182.2L441.0,182.4L438.2,184.2L439.6,190.2L438.5,192.4Z"/>
    <path class="wtc-county" id="wtc-county-richmond" data-county="Richmond" d="M404.8,332.2L403.9,334.4L401.8,335.3L401.1,338.0L403.6,338.0L412.3,333.7L414.4,331.6L413.3,327.9L407.5,328.9L404.8,329.8L404.8,332.2Z"/>
    <path class="wtc-county" id="wtc-county-rockland" data-county="Rockland" d="M402.7,297.1L404.3,297.7L423.8,306.4L424.5,306.4L424.9,298.0L422.2,293.2L419.7,290.4L421.3,287.7L419.0,285.7L419.0,285.5L402.7,297.1Z"/>
    <path class="wtc-county" id="wtc-county-st-lawrence" data-county="St. Lawrence" d="M371.3,51.3L364.9,50.0L359.9,52.0L355.8,52.0L349.8,55.4L334.2,61.4L334.5,62.1L321.6,69.8L314.5,75.3L305.2,81.9L302.4,84.7L301.5,87.2L299.0,89.1L325.5,100.9L343.2,108.6L350.0,111.6L363.3,110.4L383.7,108.5L383.0,104.0L384.2,103.9L378.0,62.8L376.8,54.0L371.8,54.0L371.3,51.3Z"/>
    <path class="wtc-county" id="wtc-county-saratoga" data-county="Saratoga" d="M407.5,154.9L408.9,162.4L411.7,179.7L411.9,181.5L417.4,182.9L420.6,185.2L423.8,184.3L424.5,188.1L430.0,192.7L432.5,192.3L434.6,190.1L437.5,193.0L438.5,192.4L439.6,190.2L438.2,184.2L441.0,182.4L444.6,175.0L444.9,171.0L444.0,170.1L444.6,165.3L443.3,161.5L443.7,159.1L440.5,159.2L434.6,161.6L432.5,164.4L430.4,162.7L428.4,162.7L428.8,159.1L426.8,157.6L425.2,153.2L407.5,154.9Z"/>
    <path class="wtc-county" id="wtc-county-schenectady" data-county="Schenectady" d="M400.9,191.6L401.4,194.1L398.4,194.7L400.4,196.9L405.9,197.0L406.2,195.9L429.8,193.0L430.0,192.7L424.5,188.1L423.8,184.3L420.6,185.2L417.4,182.9L411.9,181.5L412.3,185.2L401.4,190.6L400.9,191.6Z"/>
    <path class="wtc-county" id="wtc-county-schoharie" data-county="Schoharie" d="M376.4,189.5L375.2,194.5L377.5,202.5L372.3,209.4L378.2,215.3L389.4,219.8L393.6,218.6L395.6,219.7L402.3,218.3L401.6,216.4L400.9,215.6L403.2,210.9L402.3,207.3L405.5,202.9L407.3,196.6L406.2,195.9L405.9,197.0L400.4,196.9L398.4,194.7L401.4,194.1L400.9,191.6L399.3,192.4L388.8,193.1L381.9,190.6L376.4,189.5Z"/>
    <path class="wtc-county" id="wtc-county-schuyler" data-county="Schuyler" d="M219.5,211.6L219.9,225.0L228.7,224.7L228.7,224.1L243.3,223.7L243.3,226.6L249.3,227.5L250.6,224.4L246.1,224.3L246.3,218.5L245.6,207.5L233.0,207.9L233.5,212.9L227.0,212.9L227.0,211.5L219.5,211.6Z"/>
    <path class="wtc-county" id="wtc-county-seneca" data-county="Seneca" d="M228.7,177.8L228.7,186.7L227.5,187.8L228.2,193.7L229.8,193.6L230.5,196.8L233.0,200.1L233.0,207.9L245.6,207.5L252.7,207.3L250.6,206.3L247.7,202.7L246.5,199.7L243.5,196.9L242.9,192.0L244.5,188.9L243.1,181.5L244.7,177.1L228.7,177.8Z"/>
    <path class="wtc-county" id="wtc-county-steuben" data-county="Steuben" d="M180.1,212.4L180.1,216.6L179.0,230.1L178.5,242.5L187.4,242.5L218.3,242.5L228.4,242.4L228.7,224.7L219.9,225.0L219.5,211.6L219.5,210.1L216.7,210.5L217.2,205.6L203.0,205.6L195.0,205.6L184.2,205.4L184.2,208.3L180.3,208.3L180.1,212.4Z"/>
    <path class="wtc-county" id="wtc-county-suffolk" data-county="Suffolk" d="M543.1,289.9L545.2,290.1L550.0,287.7L543.8,289.0L543.1,289.9ZM536.3,300.0L538.5,300.6L539.9,302.5L539.9,299.8L537.4,298.9L536.3,300.0ZM531.7,294.5L532.6,296.0L535.3,293.7L531.7,294.5ZM454.5,331.1L460.7,329.6L462.0,330.5L468.2,329.8L478.1,327.5L490.2,323.3L508.8,318.2L520.2,314.8L538.1,308.0L553.4,302.9L554.6,301.7L551.8,301.1L547.9,301.7L547.5,303.2L542.2,305.8L538.8,306.8L535.1,302.8L532.6,304.2L528.7,303.5L527.6,301.1L524.1,299.4L526.2,299.1L530.3,296.2L527.6,296.1L522.7,297.3L519.8,300.0L517.0,300.7L515.0,302.9L508.1,306.4L504.9,307.4L495.9,308.5L478.8,308.6L476.5,308.0L472.6,308.4L472.1,310.8L466.9,312.3L462.7,311.0L458.2,310.6L456.1,309.1L455.6,311.3L450.6,309.7L449.9,311.2L452.2,314.7L454.0,323.9L454.5,331.1Z"/>
    <path class="wtc-county" id="wtc-county-sullivan" data-county="Sullivan" d="M344.5,252.0L349.1,255.3L347.3,257.1L350.5,258.2L351.2,266.4L349.6,267.9L354.9,273.8L355.1,275.6L357.6,275.4L361.0,277.2L360.6,278.2L366.3,278.0L369.5,279.1L369.7,274.8L387.4,274.1L391.7,269.5L394.3,268.5L392.6,265.2L381.0,258.7L388.8,250.4L367.9,241.4L344.5,252.0Z"/>
    <path class="wtc-county" id="wtc-county-tioga" data-county="Tioga" d="M255.9,224.4L255.9,232.5L254.3,232.5L255.7,239.1L254.5,242.4L280.9,242.5L283.4,242.5L282.7,230.6L284.5,230.5L285.0,227.7L281.8,216.3L274.0,216.4L271.0,217.9L274.7,219.2L274.2,223.5L267.8,222.1L263.7,222.1L263.7,225.6L259.8,225.6L259.8,224.5L255.9,224.4Z"/>
    <path class="wtc-county" id="wtc-county-tompkins" data-county="Tompkins" d="M245.6,207.5L246.3,218.5L246.1,224.3L250.6,224.4L255.9,224.4L259.8,224.5L259.8,225.6L263.7,225.6L263.7,222.1L267.8,222.1L274.2,223.5L274.7,219.2L271.0,217.9L274.0,216.4L273.3,202.6L260.9,202.9L260.9,202.4L247.7,202.7L250.6,206.3L252.7,207.3L245.6,207.5Z"/>
    <path class="wtc-county" id="wtc-county-ulster" data-county="Ulster" d="M367.9,241.4L388.8,250.4L381.0,258.7L392.6,265.2L394.3,268.5L400.9,265.9L401.8,267.6L409.6,269.1L409.1,267.0L414.4,269.2L420.8,268.6L421.5,258.0L420.8,257.1L421.5,250.5L420.1,248.2L421.7,242.0L422.2,237.4L423.6,234.3L417.6,231.1L415.1,231.6L413.0,236.3L398.1,235.1L389.0,231.6L367.9,241.4Z"/>
    <path class="wtc-county" id="wtc-county-warren" data-county="Warren" d="M414.2,131.1L404.1,132.1L407.5,154.9L425.2,153.2L426.8,157.6L428.8,159.1L428.4,162.7L430.4,162.7L432.5,164.4L434.6,161.6L440.5,159.2L443.7,159.1L441.4,147.6L442.8,143.4L448.1,138.0L450.1,136.8L452.2,131.4L451.5,129.4L453.6,127.3L414.2,131.1Z"/>
    <path class="wtc-county" id="wtc-county-washington" data-county="Washington" d="M453.6,127.3L451.5,129.4L452.2,131.4L450.1,136.8L448.1,138.0L442.8,143.4L441.4,147.6L443.7,159.1L443.3,161.5L444.6,165.3L444.0,170.1L444.9,171.0L444.6,175.0L441.0,182.4L452.9,182.2L454.0,181.3L457.2,182.2L464.1,182.2L465.3,158.5L465.7,143.2L462.7,141.7L462.3,138.8L457.9,138.8L456.3,142.4L454.0,140.9L455.6,134.7L458.4,130.5L459.3,129.4L457.5,127.0L453.6,127.3Z"/>
    <path class="wtc-county" id="wtc-county-wayne" data-county="Wayne" d="M202.3,160.9L202.5,176.4L217.7,176.1L217.9,177.8L228.7,177.8L244.7,177.1L245.4,173.5L244.0,156.7L239.4,158.9L232.5,160.0L229.3,161.3L224.1,161.3L219.3,160.2L209.4,160.9L202.3,160.9Z"/>
    <path class="wtc-county" id="wtc-county-westchester" data-county="Westchester" d="M419.0,285.7L421.3,287.7L419.7,290.4L422.2,293.2L424.9,298.0L424.5,306.4L423.1,311.5L432.7,314.1L433.2,311.8L438.0,309.5L439.6,307.2L439.8,305.4L435.2,299.8L450.8,292.7L446.5,287.4L446.9,282.9L419.0,285.7Z"/>
    <path class="wtc-county" id="wtc-county-wyoming" data-county="Wyoming" d="M132.9,187.0L131.5,187.0L131.3,192.6L132.9,192.6L132.9,208.2L132.9,209.3L142.8,209.2L160.2,209.1L158.6,208.4L165.2,199.8L165.4,187.4L157.9,186.9L132.9,187.0Z"/>
    <path class="wtc-county" id="wtc-county-yates" data-county="Yates" d="M228.2,193.7L206.4,193.8L203.0,199.8L203.0,205.6L217.2,205.6L216.7,210.5L219.5,210.1L219.5,211.6L227.0,211.5L227.0,212.9L233.5,212.9L233.0,207.9L233.0,200.1L230.5,196.8L229.8,193.6L228.2,193.7Z"/>
  </g>
</svg>