<?xml version="1.0" encoding="UTF-8"?>
<svg xmlns="http://www.w3.org/2000/svg" viewBox="0 0 600 330" id="wtc-state-map-MA" role="img" aria-label="ma county map">
  <title>ma Counties</title>
  <g class="wtc-counties">
    <path class="wtc-county" id="wtc-county-barnstable" data-county="Barnstable" d="M443.2,90.1L446.7,88.3L454.7,92.5L471.3,93.7L478.8,101.1L487.3,102.0L490.8,105.3L505.9,104.4L527.4,109.2L540.5,109.8L544.0,107.0L538.0,93.6L541.5,92.5L542.5,97.8L550.0,113.3L549.0,129.7L544.5,144.0L535.5,158.7L523.9,165.7L513.4,167.9L506.9,166.5L512.4,159.5L514.9,164.1L519.4,165.0L526.9,160.9L529.4,154.3L529.4,142.7L536.0,146.4L539.0,139.1L539.5,129.6L536.5,126.6L522.9,122.6L513.4,121.7L503.9,116.4L499.3,119.1L482.3,120.6L470.8,124.8L464.7,129.9L461.2,126.5L451.7,123.2L450.2,117.0L450.7,97.3L448.2,92.5L443.2,90.1Z"/>
    <path class="wtc-county" id="wtc-county-berkshire" data-county="Berkshire" d="M71.6,227.5L50.0,168.3L51.5,163.3L53.0,163.3L60.5,163.4L113.2,161.9L110.7,169.4L111.2,177.0L116.2,176.4L120.2,191.3L120.7,200.0L112.2,202.3L111.7,210.7L119.2,209.4L125.2,231.7L124.2,234.0L127.7,245.9L127.2,249.2L121.7,250.4L128.2,254.8L117.7,254.5L117.7,259.8L84.1,260.5L71.6,227.5Z"/>
    <path class="wtc-county" id="wtc-county-bristol" data-county="Bristol" d="M346.9,154.2L346.9,141.3L352.9,142.1L351.9,132.3L355.9,125.0L363.9,121.7L369.0,115.9L373.0,111.0L382.0,108.8L383.5,86.1L388.5,87.8L394.5,85.8L407.1,88.5L410.1,92.0L409.1,97.3L412.6,103.2L418.6,104.0L420.6,97.9L422.1,104.4L416.1,122.9L411.1,127.2L396.5,125.4L395.0,130.7L404.1,136.9L400.6,146.5L393.5,151.2L389.0,169.7L349.4,154.3L346.9,154.2Z"/>
    <path class="wtc-county" id="wtc-county-dukes" data-county="Dukes" d="M423.6,66.0L431.6,58.6L440.7,64.3L456.2,65.4L476.8,65.2L477.3,75.3L472.3,70.5L464.7,73.8L461.2,82.2L455.7,84.0L442.2,76.8L432.6,66.0L423.6,66.0ZM443.2,90.1L428.1,81.0L410.6,76.9L407.6,73.8L419.1,75.6L429.6,78.9L437.7,84.6L446.7,88.3L443.2,90.1Z"/>
    <path class="wtc-county" id="wtc-county-essex" data-county="Essex" d="M364.4,259.2L367.0,249.8L364.4,248.0L381.5,240.0L392.0,241.4L396.5,236.5L392.5,236.5L390.0,230.5L395.0,229.6L393.0,222.8L396.5,218.4L405.6,218.3L409.1,214.7L411.6,221.8L415.1,220.7L424.1,226.7L418.1,232.7L437.2,236.9L448.7,237.7L456.7,248.5L449.7,252.6L443.7,247.6L431.1,253.2L426.6,269.5L425.6,278.2L421.6,276.6L414.1,280.2L396.0,276.4L391.5,268.9L382.0,271.1L374.5,266.8L375.0,259.3L365.9,260.1L364.4,259.2Z"/>
    <path class="wtc-county" id="wtc-county-franklin" data-county="Franklin" d="M117.7,259.8L117.7,254.5L128.2,254.8L121.7,250.4L127.2,249.2L127.7,245.9L124.2,234.0L138.3,232.0L138.8,223.9L152.3,221.5L154.8,218.6L162.8,219.6L162.3,213.0L191.9,217.0L192.9,213.2L208.0,215.2L211.0,207.5L211.0,198.7L216.5,204.4L218.0,215.0L221.0,217.9L220.0,223.3L226.5,228.0L223.0,230.9L223.5,240.2L228.5,242.4L228.5,248.9L222.5,250.6L221.0,257.2L196.4,257.9L130.7,259.6L117.7,259.8Z"/>
    <path class="wtc-county" id="wtc-county-hampden" data-county="Hampden" d="M120.7,200.0L120.2,191.3L116.2,176.4L111.2,177.0L110.7,169.4L113.2,161.9L119.7,161.7L146.8,161.4L146.3,156.0L153.3,156.7L154.8,161.4L175.9,160.7L189.4,161.1L241.6,160.5L241.6,178.9L232.5,178.9L223.5,182.0L229.5,190.6L209.5,185.3L205.5,182.3L204.0,188.8L177.9,185.9L173.4,189.0L176.9,193.8L171.9,194.6L168.9,188.2L164.3,186.1L164.8,181.9L151.3,184.2L149.8,189.4L140.8,190.0L138.8,186.6L133.2,189.7L137.8,193.4L136.8,202.8L127.2,204.4L120.7,200.0Z"/>
    <path class="wtc-county" id="wtc-county-hampshire" data-county="Hampshire" d="M124.2,234.0L125.2,231.7L119.2,209.4L111.7,210.7L112.2,202.3L120.7,200.0L127.2,204.4L136.8,202.8L137.8,193.4L133.2,189.7L138.8,186.6L140.8,190.0L149.8,189.4L151.3,184.2L164.8,181.9L164.3,186.1L168.9,188.2L171.9,194.6L176.9,193.8L173.4,189.0L177.9,185.9L204.0,188.8L205.5,182.3L209.5,185.3L229.5,190.6L231.0,199.8L222.0,198.5L220.0,205.6L216.5,204.4L211.0,198.7L211.0,207.5L208.0,215.2L192.9,213.2L191.9,217.0L162.3,213.0L162.8,219.6L154.8,218.6L152.3,221.5L138.8,223.9L138.3,232.0L124.2,234.0Z"/>
    <path class="wtc-county" id="wtc-county-middlesex" data-county="Middlesex" d="M274.7,255.7L280.7,250.6L280.2,244.9L291.7,246.4L307.3,241.8L305.3,230.4L311.3,229.6L313.8,233.5L324.8,232.2L326.3,229.0L321.8,222.6L324.3,221.5L322.3,213.8L312.8,205.3L318.8,199.8L332.3,202.4L329.3,193.2L322.3,193.8L316.3,186.8L322.8,181.8L329.8,183.1L333.4,178.2L340.4,181.4L352.4,184.3L353.9,191.2L357.9,191.0L354.4,200.2L362.4,202.2L368.5,200.9L373.5,195.8L377.5,198.7L378.5,202.4L376.0,205.3L382.0,208.6L386.0,205.6L390.5,207.7L396.5,218.4L393.0,222.8L395.0,229.6L390.0,230.5L392.5,236.5L396.5,236.5L392.0,241.4L381.5,240.0L364.4,248.0L367.0,249.8L364.4,259.2L359.4,253.7L274.7,255.7Z"/>
    <path class="wtc-county" id="wtc-county-nantucket" data-county="Nantucket" d="M501.4,60.0L502.9,57.7L523.4,50.5L540.0,50.0L545.0,51.9L545.5,55.5L537.5,68.1L531.4,59.7L522.4,57.7L507.9,57.1L501.4,60.0Z"/>
    <path class="wtc-county" id="wtc-county-norfolk" data-county="Norfolk" d="M424.6,193.4L420.6,189.8L424.6,184.3L431.1,191.5L424.6,193.4ZM378.5,202.4L377.5,198.7L379.0,197.5L385.5,205.1L378.5,202.4ZM333.4,178.2L331.3,170.3L330.8,158.7L346.9,159.0L346.9,154.2L349.4,154.3L389.0,169.7L410.6,178.3L412.1,187.8L410.1,190.8L414.1,193.7L412.1,196.7L406.6,196.1L402.1,193.7L401.6,200.0L394.5,198.7L392.0,193.7L384.5,192.5L382.0,188.2L373.5,195.8L368.5,200.9L362.4,202.2L354.4,200.2L357.9,191.0L353.9,191.2L352.4,184.3L340.4,181.4L333.4,178.2Z"/>
    <path class="wtc-county" id="wtc-county-plymouth" data-county="Plymouth" d="M389.0,169.7L393.5,151.2L400.6,146.5L404.1,136.9L395.0,130.7L396.5,125.4L411.1,127.2L416.1,122.9L422.1,104.4L428.1,104.5L427.1,108.3L434.2,108.0L436.2,114.0L439.7,112.3L439.7,119.4L450.2,117.0L451.7,123.2L461.2,126.5L464.7,129.9L466.8,136.5L462.7,146.5L458.7,149.4L452.7,148.4L442.2,154.5L440.7,157.4L446.7,158.0L450.2,162.7L450.7,168.7L440.2,179.9L439.2,185.4L431.1,191.5L424.6,184.3L420.6,189.8L424.6,193.4L419.6,194.9L416.6,199.4L406.6,196.1L412.1,196.7L414.1,193.7L410.1,190.8L412.1,187.8L410.6,178.3L389.0,169.7Z"/>
    <path class="wtc-county" id="wtc-county-suffolk" data-county="Suffolk" d="M373.5,195.8L382.0,188.2L384.5,192.5L392.0,193.7L394.5,198.7L401.6,200.0L400.6,205.6L407.1,204.4L401.6,213.2L405.6,218.3L396.5,218.4L390.5,207.7L386.0,205.6L382.0,208.6L376.0,205.3L378.5,202.4L385.5,205.1L379.0,197.5L377.5,198.7L373.5,195.8Z"/>
    <path class="wtc-county" id="wtc-county-worcester" data-county="Worcester" d="M221.0,257.2L222.5,250.6L228.5,248.9L228.5,242.4L223.5,240.2L223.0,230.9L226.5,228.0L220.0,223.3L221.0,217.9L218.0,215.0L216.5,204.4L220.0,205.6L222.0,198.5L231.0,199.8L229.5,190.6L223.5,182.0L232.5,178.9L241.6,178.9L241.6,160.5L246.1,160.3L288.2,159.6L288.7,157.4L330.8,158.7L331.3,170.3L333.4,178.2L329.8,183.1L322.8,181.8L316.3,186.8L322.3,193.8L329.3,193.2L332.3,202.4L318.8,199.8L312.8,205.3L322.3,213.8L324.3,221.5L321.8,222.6L326.3,229.0L324.8,232.2L313.8,233.5L311.3,229.6L305.3,230.4L307.3,241.8L291.7,246.4L280.2,244.9L280.7,250.6L274.7,255.7L270.7,255.9L221.0,257.2Z"/>
  </g>
</svg>