<?xml version="1.0" encoding="UTF-8"?>
<svg xmlns="http://www.w3.org/2000/svg" viewBox="0 0 600 319" id="wtc-state-map-PA" role="img" aria-label="pa county map">
  <title>pa Counties</title>
  <g class="wtc-counties">
    <path class="wtc-county" id="wtc-county-adams" data-county="Adams" d="M311.9,69.2L312.8,50.0L333.4,50.0L352.2,50.0L352.2,59.5L355.9,61.7L353.5,64.9L355.0,68.4L350.7,75.2L346.4,76.5L340.5,80.0L336.2,76.5L317.4,73.5L311.9,69.2Z"/>
    <path class="wtc-county" id="wtc-county-allegheny" data-county="Allegheny" d="M82.0,131.9L82.3,126.7L79.3,126.3L63.9,115.0L79.0,102.6L102.1,95.7L97.1,93.9L98.1,92.5L105.8,90.9L113.5,93.6L111.3,94.0L115.0,107.7L117.5,108.2L119.9,111.3L120.2,119.1L114.7,121.2L114.1,123.9L118.7,126.2L121.5,129.2L121.2,131.5L82.0,131.9Z"/>
    <path class="wtc-county" id="wtc-county-armstrong" data-county="Armstrong" d="M121.2,131.5L123.0,132.4L130.1,127.9L132.3,122.4L137.8,119.1L141.8,119.5L162.1,140.6L162.1,152.2L162.1,164.1L156.0,160.7L149.2,159.9L148.3,158.5L144.6,160.2L141.8,158.2L127.3,158.9L129.2,162.6L123.3,164.1L121.2,174.5L121.2,131.5Z"/>
    <path class="wtc-county" id="wtc-county-beaver" data-county="Beaver" d="M50.0,128.8L50.0,115.0L63.9,115.0L79.3,126.3L82.3,126.7L82.0,131.9L81.1,147.4L50.0,147.1L50.0,128.8Z"/>
    <path class="wtc-county" id="wtc-county-bedford" data-county="Bedford" d="M209.9,94.8L202.8,80.0L201.0,78.9L201.3,58.8L197.0,50.2L233.6,50.2L240.7,59.1L247.5,73.4L248.7,77.7L250.9,79.1L248.7,81.4L252.7,84.5L254.9,88.2L245.9,93.3L244.4,99.5L241.6,94.8L229.0,100.0L228.1,95.0L222.8,98.7L213.0,102.1L209.9,94.8Z"/>
    <path class="wtc-county" id="wtc-county-berks" data-county="Berks" d="M447.4,132.1L438.5,128.9L436.9,123.6L432.3,123.7L423.4,119.9L416.0,118.4L408.9,118.3L400.3,116.6L424.9,101.1L449.0,85.8L464.0,94.8L478.5,112.4L468.7,118.4L447.4,132.1Z"/>
    <path class="wtc-county" id="wtc-county-blair" data-county="Blair" d="M236.4,136.2L231.1,129.3L228.4,129.0L228.1,124.8L224.7,120.4L220.1,117.5L218.2,111.6L217.9,105.8L213.0,102.1L222.8,98.7L228.1,95.0L229.0,100.0L241.6,94.8L244.4,99.5L254.9,114.7L253.3,115.9L253.6,120.5L249.3,122.0L252.1,127.1L247.2,131.9L248.7,133.8L256.4,137.4L255.2,137.8L235.5,136.9L236.4,136.2Z"/>
    <path class="wtc-county" id="wtc-county-bradford" data-county="Bradford" d="M390.1,245.7L358.4,245.8L360.8,229.3L363.0,211.1L368.2,210.5L419.1,206.3L420.9,215.5L428.0,215.8L427.7,223.2L425.5,245.5L390.1,245.7Z"/>
    <path class="wtc-county" id="wtc-county-bucks" data-county="Bucks" d="M482.2,109.9L514.6,90.5L522.6,85.8L526.9,84.2L526.0,78.2L535.8,81.2L539.5,84.9L542.6,84.4L547.5,86.9L543.5,92.5L537.4,95.5L535.2,99.3L528.7,103.3L526.6,108.3L518.9,109.7L517.7,113.0L518.3,120.0L515.2,122.8L510.0,122.4L507.5,124.8L506.9,126.2L495.2,120.1L488.7,115.9L482.2,109.9Z"/>
    <path class="wtc-county" id="wtc-county-butler" data-county="Butler" d="M86.4,165.8L80.5,159.9L81.1,147.4L82.0,131.9L121.2,131.5L121.2,174.5L120.9,174.7L94.7,174.6L86.4,165.8Z"/>
    <path class="wtc-county" id="wtc-county-cambria" data-county="Cambria" d="M182.8,108.0L175.7,98.4L186.2,98.4L189.6,97.3L190.5,95.0L209.9,94.8L213.0,102.1L217.9,105.8L218.2,111.6L220.1,117.5L224.7,120.4L228.1,124.8L228.4,129.0L231.1,129.3L236.4,136.2L197.6,136.2L192.6,125.9L182.8,108.0Z"/>
    <path class="wtc-county" id="wtc-county-cameron" data-county="Cameron" d="M230.5,211.6L230.2,194.6L244.7,194.6L244.4,187.6L246.2,187.6L245.9,179.6L258.3,178.4L267.2,191.3L267.2,200.6L262.0,200.6L249.0,212.9L230.2,212.8L230.5,211.6Z"/>
    <path class="wtc-county" id="wtc-county-carbon" data-county="Carbon" d="M438.2,152.3L447.7,144.1L458.8,137.2L464.4,140.1L471.4,141.6L483.1,143.9L474.5,155.7L481.3,158.8L474.2,165.6L468.1,170.3L464.4,171.1L457.9,167.8L457.9,164.1L461.0,160.5L450.8,157.4L438.2,152.3Z"/>
    <path class="wtc-county" id="wtc-county-centre" data-county="Centre" d="M263.2,173.1L260.4,170.4L256.7,169.7L259.5,162.5L261.3,160.2L258.9,159.3L259.8,156.3L253.0,154.8L247.5,152.3L245.0,147.4L241.6,147.0L239.5,143.4L233.9,138.8L235.5,136.9L255.2,137.8L256.4,137.4L271.2,133.4L281.4,137.8L286.3,135.8L293.7,136.6L314.6,144.7L320.8,146.7L328.2,152.1L334.7,159.2L339.9,163.6L323.0,158.8L308.5,156.7L302.3,163.8L303.9,164.8L298.9,167.7L288.4,169.1L283.5,175.4L275.5,175.1L275.2,181.5L271.5,177.8L268.7,177.3L268.7,174.7L266.0,172.3L263.2,173.1Z"/>
    <path class="wtc-county" id="wtc-county-chester" data-county="Chester" d="M426.5,50.1L456.0,50.1L462.2,56.2L466.8,58.7L472.7,60.0L472.7,63.2L478.8,69.2L486.5,72.7L485.0,73.4L489.0,76.3L488.1,77.6L493.0,79.6L490.2,79.3L487.8,82.4L484.7,81.6L484.4,84.7L478.5,86.9L476.1,91.8L474.5,90.8L472.4,94.5L471.1,93.1L464.0,94.8L449.0,85.8L443.4,83.5L443.4,77.2L438.5,69.9L438.8,62.8L432.3,53.4L426.5,50.1Z"/>
    <path class="wtc-county" id="wtc-county-clarion" data-county="Clarion" d="M139.6,193.0L139.3,188.6L134.1,188.7L134.1,187.4L128.6,187.4L128.6,183.6L124.6,181.6L124.9,178.5L120.9,174.7L121.2,174.5L123.3,164.1L129.2,162.6L127.3,158.9L141.8,158.2L144.6,160.2L148.3,158.5L149.2,159.9L156.0,160.7L162.1,164.1L162.4,166.6L162.4,188.3L162.8,196.8L146.1,197.2L146.1,193.0L139.6,193.0Z"/>
    <path class="wtc-county" id="wtc-county-clearfield" data-county="Clearfield" d="M197.3,151.8L197.6,136.2L236.4,136.2L235.5,136.9L233.9,138.8L239.5,143.4L241.6,147.0L245.0,147.4L247.5,152.3L253.0,154.8L259.8,156.3L258.9,159.3L261.3,160.2L259.5,162.5L256.7,169.7L260.4,170.4L263.2,173.1L258.3,178.4L245.9,179.6L210.8,181.6L210.8,178.5L205.3,177.2L200.6,177.3L197.3,171.2L197.3,151.8Z"/>
    <path class="wtc-county" id="wtc-county-clinton" data-county="Clinton" d="M258.3,178.4L263.2,173.1L266.0,172.3L268.7,174.7L268.7,177.3L271.5,177.8L275.2,181.5L275.5,175.1L283.5,175.4L288.4,169.1L298.9,167.7L303.9,164.8L302.3,163.8L308.5,156.7L323.0,158.8L339.9,163.6L339.9,165.8L338.0,165.8L324.5,178.7L322.0,178.7L311.6,186.8L311.2,188.8L306.9,190.6L302.0,197.7L300.8,200.9L267.2,200.6L267.2,191.3L258.3,178.4Z"/>
    <path class="wtc-county" id="wtc-county-columbia" data-county="Columbia" d="M383.0,173.2L384.9,165.3L389.2,164.4L389.5,159.8L393.8,156.3L392.6,149.8L394.7,149.8L395.0,144.8L402.7,145.6L405.5,140.5L411.7,142.8L413.5,149.8L420.3,155.5L418.5,164.3L418.5,171.7L414.1,171.1L410.4,178.0L411.4,186.5L403.0,186.3L399.7,183.5L387.0,173.4L383.0,173.2Z"/>
    <path class="wtc-county" id="wtc-county-crawford" data-county="Crawford" d="M50.0,232.8L50.0,202.8L50.0,201.8L83.9,201.1L94.7,201.9L98.4,203.9L103.9,209.1L109.5,211.6L109.5,213.2L127.9,212.8L127.9,213.4L127.9,232.8L122.1,232.9L77.1,232.7L50.0,232.8Z"/>
    <path class="wtc-county" id="wtc-county-cumberland" data-county="Cumberland" d="M299.5,91.1L299.8,87.1L303.9,84.2L306.6,78.2L313.1,71.7L311.9,69.2L317.4,73.5L336.2,76.5L340.5,80.0L349.8,86.7L354.1,88.1L360.2,88.3L358.4,90.9L361.2,93.3L364.2,93.4L358.7,98.9L359.6,102.2L354.4,100.7L331.6,98.4L324.8,97.0L324.5,99.1L316.2,95.9L321.4,100.4L318.3,100.1L300.2,89.9L299.5,91.1Z"/>
    <path class="wtc-county" id="wtc-county-dauphin" data-county="Dauphin" d="M356.5,127.9L355.3,124.4L352.8,122.7L353.5,118.4L356.5,115.6L356.2,113.7L349.8,107.6L351.6,104.8L357.5,104.7L359.6,102.2L358.7,98.9L364.2,93.4L373.2,89.2L375.9,84.3L378.1,87.5L379.9,86.9L386.1,90.3L389.5,90.9L384.3,103.2L379.9,114.7L392.0,121.7L377.8,130.5L373.8,130.1L359.3,125.8L356.5,127.9Z"/>
    <path class="wtc-county" id="wtc-county-delaware" data-county="Delaware" d="M493.0,79.6L488.1,77.6L489.0,76.3L485.0,73.4L486.5,72.7L478.8,69.2L472.7,63.2L472.7,60.0L481.0,59.7L488.1,57.0L493.3,60.2L500.7,61.1L505.6,62.5L501.3,63.4L503.8,68.7L500.1,72.0L493.0,79.6Z"/>
    <path class="wtc-county" id="wtc-county-elk" data-county="Elk" d="M184.3,213.3L184.0,197.3L182.5,198.6L175.1,198.7L172.6,196.1L172.3,189.1L178.8,189.9L183.1,192.2L184.0,190.9L203.1,182.4L205.3,177.2L210.8,178.5L210.8,181.6L245.9,179.6L246.2,187.6L244.4,187.6L244.7,194.6L230.2,194.6L230.5,211.6L225.0,211.6L225.0,213.9L208.7,213.5L184.3,213.4L184.3,213.3Z"/>
    <path class="wtc-county" id="wtc-county-erie" data-county="Erie" d="M50.0,243.8L50.0,232.8L77.1,232.7L122.1,232.9L127.9,232.8L127.9,245.6L115.0,245.7L115.0,268.8L100.5,263.4L89.4,258.1L88.5,260.1L84.5,259.9L81.4,255.5L78.7,253.7L64.8,248.3L50.0,243.8Z"/>
    <path class="wtc-county" id="wtc-county-fayette" data-county="Fayette" d="M95.0,72.6L93.7,70.5L98.4,70.0L101.1,67.5L102.1,63.7L99.9,60.8L102.7,56.3L100.2,55.2L103.0,52.0L101.8,50.1L115.0,50.1L139.6,50.1L146.7,50.1L146.1,53.0L149.8,55.2L149.2,58.6L144.6,61.4L146.4,65.5L155.4,77.5L151.0,77.8L150.1,80.4L139.0,86.4L130.7,83.0L129.5,81.0L125.8,81.1L121.8,83.8L116.5,85.0L105.1,84.9L108.5,81.9L105.1,79.4L105.1,76.8L98.7,73.6L95.3,74.8L95.0,72.6Z"/>
    <path class="wtc-county" id="wtc-county-forest" data-county="Forest" d="M136.6,213.5L136.6,199.8L135.6,197.7L139.3,197.6L139.6,193.0L146.1,193.0L146.1,197.2L162.8,196.8L162.4,188.3L171.4,187.8L172.3,189.1L172.6,196.1L175.1,198.7L182.5,198.6L184.0,197.3L184.3,213.3L136.6,213.5Z"/>
    <path class="wtc-county" id="wtc-county-franklin" data-county="Franklin" d="M257.9,50.2L311.9,50.0L312.8,50.0L311.9,69.2L313.1,71.7L306.6,78.2L303.9,84.2L299.8,87.1L299.5,91.1L300.5,93.6L297.4,92.7L294.6,98.9L291.8,96.6L290.0,95.5L283.8,88.3L278.0,79.3L273.4,74.3L266.3,59.1L257.9,50.2Z"/>
    <path class="wtc-county" id="wtc-county-fulton" data-county="Fulton" d="M233.6,50.2L237.0,50.2L257.9,50.2L266.3,59.1L273.4,74.3L278.0,79.3L272.7,82.7L259.5,85.5L254.9,88.2L252.7,84.5L248.7,81.4L250.9,79.1L248.7,77.7L247.5,73.4L240.7,59.1L233.6,50.2Z"/>
    <path class="wtc-county" id="wtc-county-greene" data-county="Greene" d="M50.0,70.8L50.3,64.7L50.0,50.1L58.6,50.1L101.8,50.1L103.0,52.0L100.2,55.2L102.7,56.3L99.9,60.8L102.1,63.7L101.1,67.5L98.4,70.0L93.7,70.5L95.0,72.6L90.7,72.2L89.4,74.8L83.6,73.0L79.6,74.7L68.2,74.5L62.0,73.5L60.8,72.1L55.9,71.8L54.0,69.9L50.0,70.8Z"/>
    <path class="wtc-county" id="wtc-county-huntingdon" data-county="Huntingdon" d="M256.4,137.4L248.7,133.8L247.2,131.9L252.1,127.1L249.3,122.0L253.6,120.5L253.3,115.9L254.9,114.7L244.4,99.5L245.9,93.3L254.9,88.2L259.5,85.5L272.7,82.7L278.0,79.3L283.8,88.3L290.0,95.5L291.8,96.6L287.5,106.5L286.9,105.7L278.6,105.4L273.7,108.2L281.4,116.3L279.8,121.2L284.4,126.5L293.7,132.6L291.8,132.4L293.7,136.6L286.3,135.8L281.4,137.8L271.2,133.4L256.4,137.4Z"/>
    <path class="wtc-county" id="wtc-county-indiana" data-county="Indiana" d="M141.8,119.5L142.1,115.3L143.7,116.0L146.7,113.3L152.6,112.9L167.1,109.4L170.5,107.9L170.1,105.8L175.4,106.7L179.1,110.1L182.8,108.0L192.6,125.9L197.6,136.2L197.3,151.8L162.1,152.2L162.1,140.6L141.8,119.5Z"/>
    <path class="wtc-county" id="wtc-county-jefferson" data-county="Jefferson" d="M162.1,164.1L162.1,152.2L197.3,151.8L197.3,171.2L200.6,177.3L205.3,177.2L203.1,182.4L184.0,190.9L183.1,192.2L178.8,189.9L172.3,189.1L171.4,187.8L162.4,188.3L162.4,166.6L162.1,164.1Z"/>
    <path class="wtc-county" id="wtc-county-juniata" data-county="Juniata" d="M327.6,133.5L320.5,131.3L309.4,126.3L309.4,124.0L299.5,118.1L299.5,116.1L287.5,106.5L291.8,96.6L294.6,98.9L303.5,105.5L306.6,106.3L305.7,108.2L327.3,118.5L337.7,122.0L336.5,124.0L350.1,125.9L356.5,127.9L357.5,128.8L351.6,129.2L349.1,132.1L344.2,132.1L342.7,133.4L339.3,132.1L327.6,133.5Z"/>
    <path class="wtc-county" id="wtc-county-lackawanna" data-county="Lackawanna" d="M452.3,196.5L452.6,193.7L460.4,189.7L465.0,189.0L465.6,182.6L467.7,182.0L468.7,175.0L472.4,173.7L477.3,179.0L480.4,179.8L485.9,182.1L484.1,214.9L462.2,214.9L457.3,209.1L455.1,204.8L457.6,203.1L452.3,196.5Z"/>
    <path class="wtc-county" id="wtc-county-lancaster" data-county="Lancaster" d="M375.9,84.3L381.2,79.4L388.9,77.9L392.0,78.4L395.3,73.7L396.9,69.7L404.3,66.5L405.2,63.2L408.9,58.7L414.4,54.7L417.5,50.1L418.1,50.1L426.5,50.1L432.3,53.4L438.8,62.8L438.5,69.9L443.4,77.2L443.4,83.5L449.0,85.8L424.9,101.1L411.7,95.9L400.6,94.5L389.5,90.9L386.1,90.3L379.9,86.9L378.1,87.5L375.9,84.3Z"/>
    <path class="wtc-county" id="wtc-county-lawrence" data-county="Lawrence" d="M50.0,170.6L50.0,151.3L50.0,147.1L81.1,147.4L80.5,159.9L86.4,165.8L82.0,169.6L72.5,169.9L72.5,170.8L50.0,170.6Z"/>
    <path class="wtc-county" id="wtc-county-lebanon" data-county="Lebanon" d="M392.0,121.7L379.9,114.7L384.3,103.2L389.5,90.9L400.6,94.5L411.7,95.9L424.9,101.1L400.3,116.6L392.0,121.7Z"/>
    <path class="wtc-county" id="wtc-county-lehigh" data-county="Lehigh" d="M458.8,137.2L447.4,132.1L468.7,118.4L478.5,112.4L482.2,109.9L488.7,115.9L495.2,120.1L489.3,123.9L491.5,126.8L486.8,131.8L482.5,130.3L478.2,137.2L476.1,135.9L473.0,137.1L471.4,141.6L464.4,140.1L458.8,137.2Z"/>
    <path class="wtc-county" id="wtc-county-luzerne" data-county="Luzerne" d="M411.4,186.5L410.4,178.0L414.1,171.1L418.5,171.7L418.5,164.3L420.3,155.5L435.7,151.5L438.2,152.3L450.8,157.4L461.0,160.5L457.9,164.1L457.9,167.8L464.4,171.1L468.1,170.3L472.4,173.7L468.7,175.0L467.7,182.0L465.6,182.6L465.0,189.0L460.4,189.7L452.6,193.7L452.3,196.5L437.6,192.8L413.8,192.2L411.4,186.5Z"/>
    <path class="wtc-county" id="wtc-county-lycoming" data-county="Lycoming" d="M300.8,206.4L300.8,200.9L302.0,197.7L306.9,190.6L311.2,188.8L311.6,186.8L322.0,178.7L324.5,178.7L338.0,165.8L339.9,165.8L347.3,167.2L354.1,167.4L355.6,172.6L361.2,171.8L362.4,173.4L370.4,174.9L375.0,174.6L383.0,173.2L387.0,173.4L399.7,183.5L387.0,186.0L373.8,194.7L368.2,210.5L363.0,211.1L355.6,207.2L300.8,206.4Z"/>
    <path class="wtc-county" id="wtc-county-mckean" data-county="McKean" d="M187.4,245.5L187.7,232.0L184.9,231.1L184.3,213.4L208.7,213.5L225.0,213.9L225.0,211.6L230.5,211.6L230.2,212.8L249.0,212.9L248.7,245.6L239.8,245.6L187.4,245.5Z"/>
    <path class="wtc-county" id="wtc-county-mercer" data-county="Mercer" d="M50.0,201.8L50.3,177.8L50.0,171.3L50.0,170.6L72.5,170.8L72.5,169.9L82.0,169.6L86.4,165.8L94.7,174.6L94.7,201.9L83.9,201.1L50.0,201.8Z"/>
    <path class="wtc-county" id="wtc-county-mifflin" data-county="Mifflin" d="M293.7,136.6L291.8,132.4L293.7,132.6L284.4,126.5L279.8,121.2L281.4,116.3L273.7,108.2L278.6,105.4L286.9,105.7L287.5,106.5L299.5,116.1L299.5,118.1L309.4,124.0L309.4,126.3L320.5,131.3L327.6,133.5L321.7,134.2L321.7,143.3L320.8,146.7L314.6,144.7L293.7,136.6Z"/>
    <path class="wtc-county" id="wtc-county-monroe" data-county="Monroe" d="M468.1,170.3L474.2,165.6L481.3,158.8L474.5,155.7L483.1,143.9L491.5,145.5L499.5,148.4L505.0,153.7L513.6,157.1L512.4,158.9L521.7,163.3L526.6,168.0L524.4,167.8L521.3,166.7L517.3,172.0L510.6,172.8L512.7,181.5L493.0,180.4L480.4,179.8L477.3,179.0L472.4,173.7L468.1,170.3Z"/>
    <path class="wtc-county" id="wtc-county-montgomery" data-county="Montgomery" d="M464.0,94.8L471.1,93.1L472.4,94.5L474.5,90.8L476.1,91.8L478.5,86.9L484.4,84.7L484.7,81.6L487.8,82.4L490.2,79.3L493.0,79.6L500.1,72.0L506.3,75.0L501.0,78.7L504.7,82.0L508.7,81.3L514.3,78.0L522.6,85.8L514.6,90.5L482.2,109.9L478.5,112.4L464.0,94.8Z"/>
    <path class="wtc-county" id="wtc-county-montour" data-county="Montour" d="M375.0,174.6L375.0,167.8L371.3,160.5L370.1,155.3L381.2,157.1L386.4,154.8L390.1,154.6L389.2,152.6L392.6,149.8L393.8,156.3L389.5,159.8L389.2,164.4L384.9,165.3L383.0,173.2L375.0,174.6Z"/>
    <path class="wtc-county" id="wtc-county-northampton" data-county="Northampton" d="M471.4,141.6L473.0,137.1L476.1,135.9L478.2,137.2L482.5,130.3L486.8,131.8L491.5,126.8L489.3,123.9L495.2,120.1L506.9,126.2L506.6,129.6L508.7,131.8L506.3,133.4L509.0,140.8L512.4,140.4L519.5,148.7L515.5,153.3L513.6,157.1L505.0,153.7L499.5,148.4L491.5,145.5L483.1,143.9L471.4,141.6Z"/>
    <path class="wtc-county" id="wtc-county-northumberland" data-county="Northumberland" d="M357.5,128.8L356.5,127.9L359.3,125.8L373.8,130.1L377.8,130.5L377.8,131.0L405.5,140.5L402.7,145.6L395.0,144.8L394.7,149.8L392.6,149.8L389.2,152.6L390.1,154.6L386.4,154.8L381.2,157.1L370.1,155.3L371.3,160.5L375.0,167.8L375.0,174.6L370.4,174.9L362.4,173.4L361.2,171.8L361.8,168.6L364.2,166.1L362.4,157.1L364.8,152.3L369.5,149.7L369.5,149.4L364.2,141.1L364.2,135.1L357.5,128.8Z"/>
    <path class="wtc-county" id="wtc-county-perry" data-county="Perry" d="M294.6,98.9L297.4,92.7L300.5,93.6L299.5,91.1L300.2,89.9L318.3,100.1L321.4,100.4L316.2,95.9L324.5,99.1L324.8,97.0L331.6,98.4L354.4,100.7L359.6,102.2L357.5,104.7L351.6,104.8L349.8,107.6L356.2,113.7L356.5,115.6L353.5,118.4L352.8,122.7L355.3,124.4L356.5,127.9L350.1,125.9L336.5,124.0L337.7,122.0L327.3,118.5L305.7,108.2L306.6,106.3L303.5,105.5L294.6,98.9Z"/>
    <path class="wtc-county" id="wtc-county-philadelphia" data-county="Philadelphia" d="M500.1,72.0L503.8,68.7L501.3,63.4L505.6,62.5L511.8,64.5L512.7,70.5L518.6,73.3L526.0,78.2L526.9,84.2L522.6,85.8L514.3,78.0L508.7,81.3L504.7,82.0L501.0,78.7L506.3,75.0L500.1,72.0Z"/>
    <path class="wtc-county" id="wtc-county-pike" data-county="Pike" d="M518.0,211.5L509.3,200.6L507.8,197.8L502.2,195.3L501.0,191.8L493.6,191.4L497.0,188.3L494.5,181.7L493.0,180.4L512.7,181.5L510.6,172.8L517.3,172.0L521.3,166.7L524.4,167.8L530.6,171.7L534.0,175.3L538.3,184.5L545.1,189.6L550.0,190.5L544.8,196.3L540.4,197.8L532.7,197.6L533.4,198.9L528.7,201.4L525.4,201.0L525.0,203.5L518.0,211.5Z"/>
    <path class="wtc-county" id="wtc-county-potter" data-county="Potter" d="M248.7,245.6L249.0,212.9L262.0,200.6L267.2,200.6L300.8,200.9L300.8,206.4L299.8,245.6L287.8,245.5L248.7,245.6Z"/>
    <path class="wtc-county" id="wtc-county-schuylkill" data-county="Schuylkill" d="M405.5,140.5L377.8,131.0L377.8,130.5L392.0,121.7L400.3,116.6L408.9,118.3L416.0,118.4L423.4,119.9L432.3,123.7L436.9,123.6L438.5,128.9L447.4,132.1L458.8,137.2L447.7,144.1L438.2,152.3L435.7,151.5L420.3,155.5L413.5,149.8L411.7,142.8L405.5,140.5Z"/>
    <path class="wtc-county" id="wtc-county-snyder" data-county="Snyder" d="M321.7,143.3L321.7,134.2L327.6,133.5L339.3,132.1L342.7,133.4L344.2,132.1L349.1,132.1L351.6,129.2L357.5,128.8L364.2,135.1L364.2,141.1L369.5,149.4L367.0,150.2L357.1,150.2L350.1,147.6L347.6,148.7L324.5,144.2L321.7,143.3Z"/>
    <path class="wtc-county" id="wtc-county-somerset" data-county="Somerset" d="M155.4,77.5L146.4,65.5L144.6,61.4L149.2,58.6L149.8,55.2L146.1,53.0L146.7,50.1L186.8,50.2L197.0,50.2L201.3,58.8L201.0,78.9L202.8,80.0L209.9,94.8L190.5,95.0L189.6,97.3L186.2,98.4L175.7,98.4L168.3,88.0L166.8,87.8L164.6,83.4L162.4,84.2L158.4,81.6L155.4,77.5Z"/>
    <path class="wtc-county" id="wtc-county-sullivan" data-county="Sullivan" d="M419.1,206.3L368.2,210.5L373.8,194.7L387.0,186.0L399.7,183.5L403.0,186.3L411.4,186.5L413.8,192.2L419.1,206.3Z"/>
    <path class="wtc-county" id="wtc-county-susquehanna" data-county="Susquehanna" d="M428.9,245.5L425.5,245.5L427.7,223.2L428.0,215.8L430.5,215.2L462.2,214.9L484.1,214.9L482.2,245.6L460.0,245.5L428.9,245.5Z"/>
    <path class="wtc-county" id="wtc-county-tioga" data-county="Tioga" d="M299.8,245.6L300.8,206.4L355.6,207.2L363.0,211.1L360.8,229.3L358.4,245.8L355.0,245.8L341.4,245.6L299.8,245.6Z"/>
    <path class="wtc-county" id="wtc-county-union" data-county="Union" d="M320.8,146.7L321.7,143.3L324.5,144.2L347.6,148.7L350.1,147.6L357.1,150.2L367.0,150.2L369.5,149.4L369.5,149.7L364.8,152.3L362.4,157.1L364.2,166.1L361.8,168.6L361.2,171.8L355.6,172.6L354.1,167.4L347.3,167.2L339.9,165.8L339.9,163.6L334.7,159.2L328.2,152.1L320.8,146.7Z"/>
    <path class="wtc-county" id="wtc-county-venango" data-county="Venango" d="M94.7,201.9L94.7,174.6L120.9,174.7L124.9,178.5L124.6,181.6L128.6,183.6L128.6,187.4L134.1,187.4L134.1,188.7L139.3,188.6L139.6,193.0L139.3,197.6L135.6,197.7L136.6,199.8L136.6,213.5L127.9,213.4L127.9,212.8L109.5,213.2L109.5,211.6L103.9,209.1L98.4,203.9L94.7,201.9Z"/>
    <path class="wtc-county" id="wtc-county-warren" data-county="Warren" d="M127.9,232.8L127.9,213.4L136.6,213.5L184.3,213.3L184.3,213.4L184.9,231.1L187.7,232.0L187.4,245.5L175.4,245.6L127.9,245.6L127.9,232.8Z"/>
    <path class="wtc-county" id="wtc-county-washington" data-county="Washington" d="M50.0,70.8L54.0,69.9L55.9,71.8L60.8,72.1L62.0,73.5L68.2,74.5L79.6,74.7L83.6,73.0L89.4,74.8L90.7,72.2L95.0,72.6L95.3,74.8L98.7,73.6L105.1,76.8L105.1,79.4L108.5,81.9L105.1,84.9L103.0,87.1L107.6,89.0L105.8,90.9L98.1,92.5L97.1,93.9L102.1,95.7L79.0,102.6L63.9,115.0L50.0,115.0L50.3,108.3L50.0,87.7L50.0,75.4L50.0,70.8Z"/>
    <path class="wtc-county" id="wtc-county-wayne" data-county="Wayne" d="M484.1,214.9L485.9,182.1L480.4,179.8L493.0,180.4L494.5,181.7L497.0,188.3L493.6,191.4L501.0,191.8L502.2,195.3L507.8,197.8L509.3,200.6L518.0,211.5L520.1,213.4L519.2,224.5L514.9,226.0L517.3,228.4L511.2,232.9L505.9,234.5L501.3,234.2L498.9,241.6L497.3,241.3L493.0,245.6L489.3,245.6L482.2,245.6L484.1,214.9Z"/>
    <path class="wtc-county" id="wtc-county-westmoreland" data-county="Westmoreland" d="M105.8,90.9L107.6,89.0L103.0,87.1L105.1,84.9L116.5,85.0L121.8,83.8L125.8,81.1L129.5,81.0L130.7,83.0L139.0,86.4L150.1,80.4L151.0,77.8L155.4,77.5L158.4,81.6L162.4,84.2L164.6,83.4L166.8,87.8L168.3,88.0L175.7,98.4L182.8,108.0L179.1,110.1L175.4,106.7L170.1,105.8L170.5,107.9L167.1,109.4L152.6,112.9L146.7,113.3L143.7,116.0L142.1,115.3L141.8,119.5L137.8,119.1L132.3,122.4L130.1,127.9L123.0,132.4L121.2,131.5L121.5,129.2L118.7,126.2L114.1,123.9L114.7,121.2L120.2,119.1L119.9,111.3L117.5,108.2L115.0,107.7L111.3,94.0L113.5,93.6L105.8,90.9Z"/>
    <path class="wtc-county" id="wtc-county-wyoming" data-county="Wyoming" d="M413.8,192.2L437.6,192.8L452.3,196.5L457.6,203.1L455.1,204.8L457.3,209.1L462.2,214.9L430.5,215.2L428.0,215.8L420.9,215.5L419.1,206.3L413.8,192.2Z"/>
    <path class="wtc-county" id="wtc-county-york" data-county="York" d="M340.5,80.0L346.4,76.5L350.7,75.2L355.0,68.4L353.5,64.9L355.9,61.7L352.2,59.5L352.2,50.0L370.4,50.1L389.2,50.1L417.5,50.1L414.4,54.7L408.9,58.7L405.2,63.2L404.3,66.5L396.9,69.7L395.3,73.7L392.0,78.4L388.9,77.9L381.2,79.4L375.9,84.3L373.2,89.2L364.2,93.4L361.2,93.3L358.4,90.9L360.2,88.3L354.1,88.1L349.8,86.7L340.5,80.0Z"/>
  </g>
</svg>