<?xml version="1.0" encoding="UTF-8"?>
<svg xmlns="http://www.w3.org/2000/svg" viewBox="0 0 600 319" id="wtc-state-map-PA" role="img" aria-label="pa county map">
  <title>pa Counties</title>
  <g class="wtc-counties">
    <path class="wtc-county" id="wtc-county-adams" data-county="Adams" d="M311.9,249.6L312.8,268.8L333.4,268.8L352.2,268.8L352.2,259.3L355.9,257.1L353.5,253.9L355.0,250.4L350.7,243.6L346.4,242.4L340.5,238.8L336.2,242.3L317.4,245.3L311.9,249.6Z"/>
    <path class="wtc-county" id="wtc-county-allegheny" data-county="Allegheny" d="M82.0,186.9L82.3,192.2L79.3,192.5L63.9,203.8L79.0,216.3L102.1,223.1L97.1,224.9L98.1,226.3L105.8,227.9L113.5,225.3L111.3,224.8L115.0,211.1L117.5,210.7L119.9,207.6L120.2,199.8L114.7,197.6L114.1,195.0L118.7,192.7L121.5,189.7L121.2,187.4L82.0,186.9Z"/>
    <path class="wtc-county" id="wtc-county-armstrong" data-county="Armstrong" d="M121.2,187.4L123.0,186.5L130.1,191.0L132.3,196.4L137.8,199.8L141.8,199.3L162.1,178.2L162.1,166.6L162.1,154.7L156.0,158.2L149.2,158.9L148.3,160.4L144.6,158.7L141.8,160.6L127.3,159.9L129.2,156.3L123.3,154.8L121.2,144.4L121.2,187.4Z"/>
    <path class="wtc-county" id="wtc-county-beaver" data-county="Beaver" d="M50.0,190.0L50.0,203.9L63.9,203.8L79.3,192.5L82.3,192.2L82.0,186.9L81.1,171.4L50.0,171.7L50.0,190.0Z"/>
    <path class="wtc-county" id="wtc-county-bedford" data-county="Bedford" d="M209.9,224.0L202.8,238.8L201.0,239.9L201.3,260.0L197.0,268.6L233.6,268.6L240.7,259.8L247.5,245.4L248.7,241.2L250.9,239.8L248.7,237.4L252.7,234.3L254.9,230.6L245.9,225.6L244.4,219.3L241.6,224.1L229.0,218.9L228.1,223.9L222.8,220.2L213.0,216.8L209.9,224.0Z"/>
    <path class="wtc-county" id="wtc-county-berks" data-county="Berks" d="M447.4,186.7L438.5,189.9L436.9,195.3L432.3,195.1L423.4,198.9L416.0,200.4L408.9,200.6L400.3,202.3L424.9,217.7L449.0,233.1L464.0,224.1L478.5,206.5L468.7,200.4L447.4,186.7Z"/>
    <path class="wtc-county" id="wtc-county-blair" data-county="Blair" d="M236.4,182.6L231.1,189.5L228.4,189.8L228.1,194.1L224.7,198.4L220.1,201.4L218.2,207.2L217.9,213.0L213.0,216.8L222.8,220.2L228.1,223.9L229.0,218.9L241.6,224.1L244.4,219.3L254.9,204.2L253.3,202.9L253.6,198.4L249.3,196.9L252.1,191.8L247.2,186.9L248.7,185.1L256.4,181.4L255.2,181.0L235.5,182.0L236.4,182.6Z"/>
    <path class="wtc-county" id="wtc-county-bradford" data-county="Bradford" d="M390.1,73.2L358.4,73.0L360.8,89.5L363.0,107.7L368.2,108.3L419.1,112.5L420.9,103.4L428.0,103.1L427.7,95.6L425.5,73.3L390.1,73.2Z"/>
    <path class="wtc-county" id="wtc-county-bucks" data-county="Bucks" d="M482.2,208.9L514.6,228.4L522.6,233.0L526.9,234.6L526.0,240.6L535.8,237.7L539.5,233.9L542.6,234.5L547.5,231.9L543.5,226.4L537.4,223.3L535.2,219.5L528.7,215.5L526.6,210.5L518.9,209.1L517.7,205.8L518.3,198.8L515.2,196.1L510.0,196.4L507.5,194.1L506.9,192.6L495.2,198.7L488.7,202.9L482.2,208.9Z"/>
    <path class="wtc-county" id="wtc-county-butler" data-county="Butler" d="M86.4,153.0L80.5,159.0L81.1,171.4L82.0,186.9L121.2,187.4L121.2,144.4L120.9,144.2L94.7,144.2L86.4,153.0Z"/>
    <path class="wtc-county" id="wtc-county-cambria" data-county="Cambria" d="M182.8,210.8L175.7,220.4L186.2,220.4L189.6,221.5L190.5,223.9L209.9,224.0L213.0,216.8L217.9,213.0L218.2,207.2L220.1,201.4L224.7,198.4L228.1,194.1L228.4,189.8L231.1,189.5L236.4,182.6L197.6,182.6L192.6,193.0L182.8,210.8Z"/>
    <path class="wtc-county" id="wtc-county-cameron" data-county="Cameron" d="M230.5,107.3L230.2,124.2L244.7,124.2L244.4,131.3L246.2,131.3L245.9,139.2L258.3,140.4L267.2,127.5L267.2,118.3L262.0,118.2L249.0,106.0L230.2,106.0L230.5,107.3Z"/>
    <path class="wtc-county" id="wtc-county-carbon" data-county="Carbon" d="M438.2,166.5L447.7,174.8L458.8,181.7L464.4,178.7L471.4,177.3L483.1,174.9L474.5,163.2L481.3,160.1L474.2,153.2L468.1,148.5L464.4,147.7L457.9,151.0L457.9,154.7L461.0,158.3L450.8,161.4L438.2,166.5Z"/>
    <path class="wtc-county" id="wtc-county-centre" data-county="Centre" d="M263.2,145.8L260.4,148.4L256.7,149.2L259.5,156.3L261.3,158.7L258.9,159.6L259.8,162.5L253.0,164.0L247.5,166.5L245.0,171.4L241.6,171.9L239.5,175.4L233.9,180.1L235.5,182.0L255.2,181.0L256.4,181.4L271.2,185.4L281.4,181.0L286.3,183.1L293.7,182.2L314.6,174.1L320.8,172.1L328.2,166.7L334.7,159.6L339.9,155.2L323.0,160.1L308.5,162.1L302.3,155.0L303.9,154.0L298.9,151.2L288.4,149.8L283.5,143.4L275.5,143.7L275.2,137.3L271.5,141.1L268.7,141.5L268.7,144.2L266.0,146.6L263.2,145.8Z"/>
    <path class="wtc-county" id="wtc-county-chester" data-county="Chester" d="M426.5,268.7L456.0,268.7L462.2,262.6L466.8,260.1L472.7,258.8L472.7,255.6L478.8,249.6L486.5,246.1L485.0,245.4L489.0,242.5L488.1,241.3L493.0,239.2L490.2,239.6L487.8,236.5L484.7,237.3L484.4,234.1L478.5,232.0L476.1,227.0L474.5,228.1L472.4,224.4L471.1,225.7L464.0,224.1L449.0,233.1L443.4,235.3L443.4,241.6L438.5,248.9L438.8,256.1L432.3,265.4L426.5,268.7Z"/>
    <path class="wtc-county" id="wtc-county-clarion" data-county="Clarion" d="M139.6,125.8L139.3,130.2L134.1,130.1L134.1,131.5L128.6,131.4L128.6,135.2L124.6,137.2L124.9,140.3L120.9,144.2L121.2,144.4L123.3,154.8L129.2,156.3L127.3,159.9L141.8,160.6L144.6,158.7L148.3,160.4L149.2,158.9L156.0,158.2L162.1,154.7L162.4,152.3L162.4,130.5L162.8,122.0L146.1,121.6L146.1,125.8L139.6,125.8Z"/>
    <path class="wtc-county" id="wtc-county-clearfield" data-county="Clearfield" d="M197.3,167.1L197.6,182.6L236.4,182.6L235.5,182.0L233.9,180.1L239.5,175.4L241.6,171.9L245.0,171.4L247.5,166.5L253.0,164.0L259.8,162.5L258.9,159.6L261.3,158.7L259.5,156.3L256.7,149.2L260.4,148.4L263.2,145.8L258.3,140.4L245.9,139.2L210.8,137.2L210.8,140.3L205.3,141.7L200.6,141.6L197.3,147.6L197.3,167.1Z"/>
    <path class="wtc-county" id="wtc-county-clinton" data-county="Clinton" d="M258.3,140.4L263.2,145.8L266.0,146.6L268.7,144.2L268.7,141.5L271.5,141.1L275.2,137.3L275.5,143.7L283.5,143.4L288.4,149.8L298.9,151.2L303.9,154.0L302.3,155.0L308.5,162.1L323.0,160.1L339.9,155.2L339.9,153.1L338.0,153.1L324.5,140.2L322.0,140.1L311.6,132.0L311.2,130.0L306.9,128.2L302.0,121.2L300.8,117.9L267.2,118.3L267.2,127.5L258.3,140.4Z"/>
    <path class="wtc-county" id="wtc-county-columbia" data-county="Columbia" d="M383.0,145.6L384.9,153.5L389.2,154.4L389.5,159.1L393.8,162.5L392.6,169.1L394.7,169.1L395.0,174.0L402.7,173.3L405.5,178.3L411.7,176.0L413.5,169.0L420.3,163.3L418.5,154.6L418.5,147.1L414.1,147.7L410.4,140.8L411.4,132.4L403.0,132.5L399.7,135.3L387.0,145.5L383.0,145.6Z"/>
    <path class="wtc-county" id="wtc-county-crawford" data-county="Crawford" d="M50.0,86.1L50.0,116.1L50.0,117.0L83.9,117.8L94.7,117.0L98.4,115.0L103.9,109.7L109.5,107.3L109.5,105.6L127.9,106.0L127.9,105.4L127.9,86.1L122.1,85.9L77.1,86.1L50.0,86.1Z"/>
    <path class="wtc-county" id="wtc-county-cumberland" data-county="Cumberland" d="M299.5,227.8L299.8,231.8L303.9,234.6L306.6,240.7L313.1,247.2L311.9,249.6L317.4,245.3L336.2,242.3L340.5,238.8L349.8,232.1L354.1,230.7L360.2,230.6L358.4,227.9L361.2,225.6L364.2,225.4L358.7,220.0L359.6,216.6L354.4,218.2L331.6,220.5L324.8,221.9L324.5,219.7L316.2,222.9L321.4,218.5L318.3,218.8L300.2,229.0L299.5,227.8Z"/>
    <path class="wtc-county" id="wtc-county-dauphin" data-county="Dauphin" d="M356.5,190.9L355.3,194.4L352.8,196.1L353.5,200.5L356.5,203.2L356.2,205.1L349.8,211.3L351.6,214.1L357.5,214.1L359.6,216.6L358.7,220.0L364.2,225.4L373.2,229.6L375.9,234.6L378.1,231.4L379.9,232.0L386.1,228.5L389.5,227.9L384.3,215.7L379.9,204.1L392.0,197.2L377.8,188.3L373.8,188.8L359.3,193.0L356.5,190.9Z"/>
    <path class="wtc-county" id="wtc-county-delaware" data-county="Delaware" d="M493.0,239.2L488.1,241.3L489.0,242.5L485.0,245.4L486.5,246.1L478.8,249.6L472.7,255.6L472.7,258.8L481.0,259.1L488.1,261.8L493.3,258.6L500.7,257.8L505.6,256.4L501.3,255.4L503.8,250.2L500.1,246.8L493.0,239.2Z"/>
    <path class="wtc-county" id="wtc-county-elk" data-county="Elk" d="M184.3,105.5L184.0,121.5L182.5,120.2L175.1,120.1L172.6,122.7L172.3,129.8L178.8,128.9L183.1,126.7L184.0,127.9L203.1,136.4L205.3,141.7L210.8,140.3L210.8,137.2L245.9,139.2L246.2,131.3L244.4,131.3L244.7,124.2L230.2,124.2L230.5,107.3L225.0,107.3L225.0,104.9L208.7,105.4L184.3,105.4L184.3,105.5Z"/>
    <path class="wtc-county" id="wtc-county-erie" data-county="Erie" d="M50.0,75.1L50.0,86.1L77.1,86.1L122.1,85.9L127.9,86.1L127.9,73.2L115.0,73.2L115.0,50.0L100.5,55.5L89.4,60.8L88.5,58.7L84.5,58.9L81.4,63.3L78.7,65.1L64.8,70.6L50.0,75.1Z"/>
    <path class="wtc-county" id="wtc-county-fayette" data-county="Fayette" d="M95.0,246.3L93.7,248.3L98.4,248.9L101.1,251.3L102.1,255.1L99.9,258.0L102.7,262.6L100.2,263.6L103.0,266.9L101.8,268.8L115.0,268.8L139.6,268.8L146.7,268.8L146.1,265.8L149.8,263.6L149.2,260.2L144.6,257.4L146.4,253.4L155.4,241.3L151.0,241.0L150.1,238.5L139.0,232.5L130.7,235.8L129.5,237.8L125.8,237.7L121.8,235.1L116.5,233.8L105.1,234.0L108.5,237.0L105.1,239.4L105.1,242.1L98.7,245.2L95.3,244.1L95.0,246.3Z"/>
    <path class="wtc-county" id="wtc-county-forest" data-county="Forest" d="M136.6,105.4L136.6,119.1L135.6,121.2L139.3,121.2L139.6,125.8L146.1,125.8L146.1,121.6L162.8,122.0L162.4,130.5L171.4,131.0L172.3,129.8L172.6,122.7L175.1,120.1L182.5,120.2L184.0,121.5L184.3,105.5L136.6,105.4Z"/>
    <path class="wtc-county" id="wtc-county-franklin" data-county="Franklin" d="M257.9,268.6L311.9,268.8L312.8,268.8L311.9,249.6L313.1,247.2L306.6,240.7L303.9,234.6L299.8,231.8L299.5,227.8L300.5,225.3L297.4,226.1L294.6,220.0L291.8,222.2L290.0,223.3L283.8,230.5L278.0,239.6L273.4,244.5L266.3,259.7L257.9,268.6Z"/>
    <path class="wtc-county" id="wtc-county-fulton" data-county="Fulton" d="M233.6,268.6L237.0,268.6L257.9,268.6L266.3,259.7L273.4,244.5L278.0,239.6L272.7,236.1L259.5,233.4L254.9,230.6L252.7,234.3L248.7,237.4L250.9,239.8L248.7,241.2L247.5,245.4L240.7,259.8L233.6,268.6Z"/>
    <path class="wtc-county" id="wtc-county-greene" data-county="Greene" d="M50.0,248.0L50.3,254.2L50.0,268.8L58.6,268.8L101.8,268.8L103.0,266.9L100.2,263.6L102.7,262.6L99.9,258.0L102.1,255.1L101.1,251.3L98.4,248.9L93.7,248.3L95.0,246.3L90.7,246.6L89.4,244.0L83.6,245.8L79.6,244.1L68.2,244.4L62.0,245.3L60.8,246.7L55.9,247.1L54.0,248.9L50.0,248.0Z"/>
    <path class="wtc-county" id="wtc-county-huntingdon" data-county="Huntingdon" d="M256.4,181.4L248.7,185.1L247.2,186.9L252.1,191.8L249.3,196.9L253.6,198.4L253.3,202.9L254.9,204.2L244.4,219.3L245.9,225.6L254.9,230.6L259.5,233.4L272.7,236.1L278.0,239.6L283.8,230.5L290.0,223.3L291.8,222.2L287.5,212.4L286.9,213.2L278.6,213.5L273.7,210.6L281.4,202.6L279.8,197.6L284.4,192.3L293.7,186.3L291.8,186.5L293.7,182.2L286.3,183.1L281.4,181.0L271.2,185.4L256.4,181.4Z"/>
    <path class="wtc-county" id="wtc-county-indiana" data-county="Indiana" d="M141.8,199.3L142.1,203.6L143.7,202.8L146.7,205.6L152.6,205.9L167.1,209.5L170.5,211.0L170.1,213.0L175.4,212.1L179.1,208.7L182.8,210.8L192.6,193.0L197.6,182.6L197.3,167.1L162.1,166.6L162.1,178.2L141.8,199.3Z"/>
    <path class="wtc-county" id="wtc-county-jefferson" data-county="Jefferson" d="M162.1,154.7L162.1,166.6L197.3,167.1L197.3,147.6L200.6,141.6L205.3,141.7L203.1,136.4L184.0,127.9L183.1,126.7L178.8,128.9L172.3,129.8L171.4,131.0L162.4,130.5L162.4,152.3L162.1,154.7Z"/>
    <path class="wtc-county" id="wtc-county-juniata" data-county="Juniata" d="M327.6,185.3L320.5,187.5L309.4,192.5L309.4,194.9L299.5,200.7L299.5,202.7L287.5,212.4L291.8,222.2L294.6,220.0L303.5,213.3L306.6,212.6L305.7,210.6L327.3,200.3L337.7,196.8L336.5,194.9L350.1,193.0L356.5,190.9L357.5,190.0L351.6,189.7L349.1,186.7L344.2,186.8L342.7,185.4L339.3,186.7L327.6,185.3Z"/>
    <path class="wtc-county" id="wtc-county-lackawanna" data-county="Lackawanna" d="M452.3,122.3L452.6,125.1L460.4,129.1L465.0,129.9L465.6,136.3L467.7,136.9L468.7,143.9L472.4,145.1L477.3,139.8L480.4,139.1L485.9,136.8L484.1,103.9L462.2,103.9L457.3,109.7L455.1,114.1L457.6,115.8L452.3,122.3Z"/>
    <path class="wtc-county" id="wtc-county-lancaster" data-county="Lancaster" d="M375.9,234.6L381.2,239.4L388.9,240.9L392.0,240.5L395.3,245.1L396.9,249.2L404.3,252.3L405.2,255.6L408.9,260.1L414.4,264.1L417.5,268.7L418.1,268.7L426.5,268.7L432.3,265.4L438.8,256.1L438.5,248.9L443.4,241.6L443.4,235.3L449.0,233.1L424.9,217.7L411.7,222.9L400.6,224.4L389.5,227.9L386.1,228.5L379.9,232.0L378.1,231.4L375.9,234.6Z"/>
    <path class="wtc-county" id="wtc-county-lawrence" data-county="Lawrence" d="M50.0,148.3L50.0,167.5L50.0,171.7L81.1,171.4L80.5,159.0L86.4,153.0L82.0,149.2L72.5,149.0L72.5,148.0L50.0,148.3Z"/>
    <path class="wtc-county" id="wtc-county-lebanon" data-county="Lebanon" d="M392.0,197.2L379.9,204.1L384.3,215.7L389.5,227.9L400.6,224.4L411.7,222.9L424.9,217.7L400.3,202.3L392.0,197.2Z"/>
    <path class="wtc-county" id="wtc-county-lehigh" data-county="Lehigh" d="M458.8,181.7L447.4,186.7L468.7,200.4L478.5,206.5L482.2,208.9L488.7,202.9L495.2,198.7L489.3,195.0L491.5,192.0L486.8,187.0L482.5,188.5L478.2,181.6L476.1,182.9L473.0,181.8L471.4,177.3L464.4,178.7L458.8,181.7Z"/>
    <path class="wtc-county" id="wtc-county-luzerne" data-county="Luzerne" d="M411.4,132.4L410.4,140.8L414.1,147.7L418.5,147.1L418.5,154.6L420.3,163.3L435.7,167.4L438.2,166.5L450.8,161.4L461.0,158.3L457.9,154.7L457.9,151.0L464.4,147.7L468.1,148.5L472.4,145.1L468.7,143.9L467.7,136.9L465.6,136.3L465.0,129.9L460.4,129.1L452.6,125.1L452.3,122.3L437.6,126.0L413.8,126.7L411.4,132.4Z"/>
    <path class="wtc-county" id="wtc-county-lycoming" data-county="Lycoming" d="M300.8,112.5L300.8,117.9L302.0,121.2L306.9,128.2L311.2,130.0L311.6,132.0L322.0,140.1L324.5,140.2L338.0,153.1L339.9,153.1L347.3,151.7L354.1,151.5L355.6,146.2L361.2,147.0L362.4,145.4L370.4,143.9L375.0,144.2L383.0,145.6L387.0,145.5L399.7,135.3L387.0,132.9L373.8,124.2L368.2,108.3L363.0,107.7L355.6,111.6L300.8,112.5Z"/>
    <path class="wtc-county" id="wtc-county-mckean" data-county="McKean" d="M187.4,73.3L187.7,86.8L184.9,87.8L184.3,105.4L208.7,105.4L225.0,104.9L225.0,107.3L230.5,107.3L230.2,106.0L249.0,106.0L248.7,73.2L239.8,73.2L187.4,73.3Z"/>
    <path class="wtc-county" id="wtc-county-mercer" data-county="Mercer" d="M50.0,117.0L50.3,141.1L50.0,147.5L50.0,148.3L72.5,148.0L72.5,149.0L82.0,149.2L86.4,153.0L94.7,144.2L94.7,117.0L83.9,117.8L50.0,117.0Z"/>
    <path class="wtc-county" id="wtc-county-mifflin" data-county="Mifflin" d="M293.7,182.2L291.8,186.5L293.7,186.3L284.4,192.3L279.8,197.6L281.4,202.6L273.7,210.6L278.6,213.5L286.9,213.2L287.5,212.4L299.5,202.7L299.5,200.7L309.4,194.9L309.4,192.5L320.5,187.5L327.6,185.3L321.7,184.6L321.7,175.6L320.8,172.1L314.6,174.1L293.7,182.2Z"/>
    <path class="wtc-county" id="wtc-county-monroe" data-county="Monroe" d="M468.1,148.5L474.2,153.2L481.3,160.1L474.5,163.2L483.1,174.9L491.5,173.4L499.5,170.5L505.0,165.2L513.6,161.7L512.4,159.9L521.7,155.6L526.6,150.9L524.4,151.1L521.3,152.1L517.3,146.9L510.6,146.1L512.7,137.4L493.0,138.5L480.4,139.1L477.3,139.8L472.4,145.1L468.1,148.5Z"/>
    <path class="wtc-county" id="wtc-county-montgomery" data-county="Montgomery" d="M464.0,224.1L471.1,225.7L472.4,224.4L474.5,228.1L476.1,227.0L478.5,232.0L484.4,234.1L484.7,237.3L487.8,236.5L490.2,239.6L493.0,239.2L500.1,246.8L506.3,243.8L501.0,240.2L504.7,236.8L508.7,237.6L514.3,240.8L522.6,233.0L514.6,228.4L482.2,208.9L478.5,206.5L464.0,224.1Z"/>
    <path class="wtc-county" id="wtc-county-montour" data-county="Montour" d="M375.0,144.2L375.0,151.1L371.3,158.3L370.1,163.5L381.2,161.8L386.4,164.0L390.1,164.3L389.2,166.3L392.6,169.1L393.8,162.5L389.5,159.1L389.2,154.4L384.9,153.5L383.0,145.6L375.0,144.2Z"/>
    <path class="wtc-county" id="wtc-county-northampton" data-county="Northampton" d="M471.4,177.3L473.0,181.8L476.1,182.9L478.2,181.6L482.5,188.5L486.8,187.0L491.5,192.0L489.3,195.0L495.2,198.7L506.9,192.6L506.6,189.3L508.7,187.1L506.3,185.4L509.0,178.1L512.4,178.4L519.5,170.1L515.5,165.5L513.6,161.7L505.0,165.2L499.5,170.5L491.5,173.4L483.1,174.9L471.4,177.3Z"/>
    <path class="wtc-county" id="wtc-county-northumberland" data-county="Northumberland" d="M357.5,190.0L356.5,190.9L359.3,193.0L373.8,188.8L377.8,188.3L377.8,187.9L405.5,178.3L402.7,173.3L395.0,174.0L394.7,169.1L392.6,169.1L389.2,166.3L390.1,164.3L386.4,164.0L381.2,161.8L370.1,163.5L371.3,158.3L375.0,151.1L375.0,144.2L370.4,143.9L362.4,145.4L361.2,147.0L361.8,150.3L364.2,152.8L362.4,161.7L364.8,166.5L369.5,169.2L369.5,169.4L364.2,177.8L364.2,183.8L357.5,190.0Z"/>
    <path class="wtc-county" id="wtc-county-perry" data-county="Perry" d="M294.6,220.0L297.4,226.1L300.5,225.3L299.5,227.8L300.2,229.0L318.3,218.8L321.4,218.5L316.2,222.9L324.5,219.7L324.8,221.9L331.6,220.5L354.4,218.2L359.6,216.6L357.5,214.1L351.6,214.1L349.8,211.3L356.2,205.1L356.5,203.2L353.5,200.5L352.8,196.1L355.3,194.4L356.5,190.9L350.1,193.0L336.5,194.9L337.7,196.8L327.3,200.3L305.7,210.6L306.6,212.6L303.5,213.3L294.6,220.0Z"/>
    <path class="wtc-county" id="wtc-county-philadelphia" data-county="Philadelphia" d="M500.1,246.8L503.8,250.2L501.3,255.4L505.6,256.4L511.8,254.4L512.7,248.3L518.6,245.5L526.0,240.6L526.9,234.6L522.6,233.0L514.3,240.8L508.7,237.6L504.7,236.8L501.0,240.2L506.3,243.8L500.1,246.8Z"/>
    <path class="wtc-county" id="wtc-county-pike" data-county="Pike" d="M518.0,107.4L509.3,118.2L507.8,121.0L502.2,123.6L501.0,127.1L493.6,127.4L497.0,130.5L494.5,137.2L493.0,138.5L512.7,137.4L510.6,146.1L517.3,146.9L521.3,152.1L524.4,151.1L530.6,147.1L534.0,143.5L538.3,134.4L545.1,129.3L550.0,128.3L544.8,122.6L540.4,121.0L532.7,121.2L533.4,119.9L528.7,117.5L525.4,117.8L525.0,115.3L518.0,107.4Z"/>
    <path class="wtc-county" id="wtc-county-potter" data-county="Potter" d="M248.7,73.2L249.0,106.0L262.0,118.2L267.2,118.3L300.8,117.9L300.8,112.5L299.8,73.2L287.8,73.3L248.7,73.2Z"/>
    <path class="wtc-county" id="wtc-county-schuylkill" data-county="Schuylkill" d="M405.5,178.3L377.8,187.9L377.8,188.3L392.0,197.2L400.3,202.3L408.9,200.6L416.0,200.4L423.4,198.9L432.3,195.1L436.9,195.3L438.5,189.9L447.4,186.7L458.8,181.7L447.7,174.8L438.2,166.5L435.7,167.4L420.3,163.3L413.5,169.0L411.7,176.0L405.5,178.3Z"/>
    <path class="wtc-county" id="wtc-county-snyder" data-county="Snyder" d="M321.7,175.6L321.7,184.6L327.6,185.3L339.3,186.7L342.7,185.4L344.2,186.8L349.1,186.7L351.6,189.7L357.5,190.0L364.2,183.8L364.2,177.8L369.5,169.4L367.0,168.6L357.1,168.6L350.1,171.2L347.6,170.2L324.5,174.7L321.7,175.6Z"/>
    <path class="wtc-county" id="wtc-county-somerset" data-county="Somerset" d="M155.4,241.3L146.4,253.4L144.6,257.4L149.2,260.2L149.8,263.6L146.1,265.8L146.7,268.8L186.8,268.6L197.0,268.6L201.3,260.0L201.0,239.9L202.8,238.8L209.9,224.0L190.5,223.9L189.6,221.5L186.2,220.4L175.7,220.4L168.3,230.8L166.8,231.0L164.6,235.4L162.4,234.6L158.4,237.2L155.4,241.3Z"/>
    <path class="wtc-county" id="wtc-county-sullivan" data-county="Sullivan" d="M419.1,112.5L368.2,108.3L373.8,124.2L387.0,132.9L399.7,135.3L403.0,132.5L411.4,132.4L413.8,126.7L419.1,112.5Z"/>
    <path class="wtc-county" id="wtc-county-susquehanna" data-county="Susquehanna" d="M428.9,73.3L425.5,73.3L427.7,95.6L428.0,103.1L430.5,103.7L462.2,103.9L484.1,103.9L482.2,73.2L460.0,73.4L428.9,73.3Z"/>
    <path class="wtc-county" id="wtc-county-tioga" data-county="Tioga" d="M299.8,73.2L300.8,112.5L355.6,111.6L363.0,107.7L360.8,89.5L358.4,73.0L355.0,73.1L341.4,73.2L299.8,73.2Z"/>
    <path class="wtc-county" id="wtc-county-union" data-county="Union" d="M320.8,172.1L321.7,175.6L324.5,174.7L347.6,170.2L350.1,171.2L357.1,168.6L367.0,168.6L369.5,169.4L369.5,169.2L364.8,166.5L362.4,161.7L364.2,152.8L361.8,150.3L361.2,147.0L355.6,146.2L354.1,151.5L347.3,151.7L339.9,153.1L339.9,155.2L334.7,159.6L328.2,166.7L320.8,172.1Z"/>
    <path class="wtc-county" id="wtc-county-venango" data-county="Venango" d="M94.7,117.0L94.7,144.2L120.9,144.2L124.9,140.3L124.6,137.2L128.6,135.2L128.6,131.4L134.1,131.5L134.1,130.1L139.3,130.2L139.6,125.8L139.3,121.2L135.6,121.2L136.6,119.1L136.6,105.4L127.9,105.4L127.9,106.0L109.5,105.6L109.5,107.3L103.9,109.7L98.4,115.0L94.7,117.0Z"/>
    <path class="wtc-county" id="wtc-county-warren" data-county="Warren" d="M127.9,86.1L127.9,105.4L136.6,105.4L184.3,105.5L184.3,105.4L184.9,87.8L187.7,86.8L187.4,73.3L175.4,73.2L127.9,73.2L127.9,86.1Z"/>
    <path class="wtc-county" id="wtc-county-washington" data-county="Washington" d="M50.0,248.0L54.0,248.9L55.9,247.1L60.8,246.7L62.0,245.3L68.2,244.4L79.6,244.1L83.6,245.8L89.4,244.0L90.7,246.6L95.0,246.3L95.3,244.1L98.7,245.2L105.1,242.1L105.1,239.4L108.5,237.0L105.1,234.0L103.0,231.8L107.6,229.8L105.8,227.9L98.1,226.3L97.1,224.9L102.1,223.1L79.0,216.3L63.9,203.8L50.0,203.9L50.3,210.5L50.0,231.2L50.0,243.4L50.0,248.0Z"/>
    <path class="wtc-county" id="wtc-county-wayne" data-county="Wayne" d="M484.1,103.9L485.9,136.8L480.4,139.1L493.0,138.5L494.5,137.2L497.0,130.5L493.6,127.4L501.0,127.1L502.2,123.6L507.8,121.0L509.3,118.2L518.0,107.4L520.1,105.4L519.2,94.4L514.9,92.8L517.3,90.5L511.2,86.0L505.9,84.4L501.3,84.7L498.9,77.3L497.3,77.6L493.0,73.2L489.3,73.2L482.2,73.2L484.1,103.9Z"/>
    <path class="wtc-county" id="wtc-county-westmoreland" data-county="Westmoreland" d="M105.8,227.9L107.6,229.8L103.0,231.8L105.1,234.0L116.5,233.8L121.8,235.1L125.8,237.7L129.5,237.8L130.7,235.8L139.0,232.5L150.1,238.5L151.0,241.0L155.4,241.3L158.4,237.2L162.4,234.6L164.6,235.4L166.8,231.0L168.3,230.8L175.7,220.4L182.8,210.8L179.1,208.7L175.4,212.1L170.1,213.0L170.5,211.0L167.1,209.5L152.6,205.9L146.7,205.6L143.7,202.8L142.1,203.6L141.8,199.3L137.8,199.8L132.3,196.4L130.1,191.0L123.0,186.5L121.2,187.4L121.5,189.7L118.7,192.7L114.1,195.0L114.7,197.6L120.2,199.8L119.9,207.6L117.5,210.7L115.0,211.1L111.3,224.8L113.5,225.3L105.8,227.9Z"/>
    <path class="wtc-county" id="wtc-county-wyoming" data-county="Wyoming" d="M413.8,126.7L437.6,126.0L452.3,122.3L457.6,115.8L455.1,114.1L457.3,109.7L462.2,103.9L430.5,103.7L428.0,103.1L420.9,103.4L419.1,112.5L413.8,126.7Z"/>
    <path class="wtc-county" id="wtc-county-york" data-county="York" d="M340.5,238.8L346.4,242.4L350.7,243.6L355.0,250.4L353.5,253.9L355.9,257.1L352.2,259.3L352.2,268.8L370.4,268.8L389.2,268.8L417.5,268.7L414.4,264.1L408.9,260.1L405.2,255.6L404.3,252.3L396.9,249.2L395.3,245.1L392.0,240.5L388.9,240.9L381.2,239.4L375.9,234.6L373.2,229.6L364.2,225.4L361.2,225.6L358.4,227.9L360.2,230.6L354.1,230.7L349.8,232.1L340.5,238.8Z"/>
  </g>
</svg>