<?xml version="1.0" encoding="UTF-8"?>
<svg xmlns="http://www.w3.org/2000/svg" viewBox="0 0 525 600" id="wtc-state-map-VT" role="img" aria-label="vt county map">
  <title>vt Counties</title>
  <g class="wtc-counties">
    <path class="wtc-county" id="wtc-county-addison" data-county="Addison" d="M77.4,214.2L60.2,230.6L56.3,247.3L50.0,262.1L57.1,267.2L56.3,286.5L64.1,299.1L63.3,313.7L69.6,321.8L66.5,325.7L101.0,322.9L97.8,307.5L139.4,305.4L142.5,314.5L155.1,309.8L150.4,297.6L155.9,299.2L173.1,293.1L175.5,302.1L191.2,280.3L202.1,265.5L166.1,256.1L160.6,236.2L156.6,236.6L151.9,207.8L102.5,213.7L77.4,214.2Z"/>
    <path class="wtc-county" id="wtc-county-bennington" data-county="Bennington" d="M86.1,502.7L85.3,526.7L82.2,533.7L88.4,545.9L141.0,547.0L161.4,547.4L162.9,506.3L144.1,505.7L146.5,464.8L174.7,465.5L176.3,445.5L179.4,433.1L185.7,434.6L184.9,425.0L174.7,424.6L90.0,421.6L86.1,502.7Z"/>
    <path class="wtc-county" id="wtc-county-caledonia" data-county="Caledonia" d="M282.9,144.2L269.6,161.3L315.8,179.1L316.6,182.1L305.6,197.5L294.7,206.7L295.5,212.3L283.7,227.4L297.8,231.9L326.0,229.8L355.8,237.3L349.6,230.4L354.3,219.7L349.6,213.3L357.4,201.8L368.4,198.1L399.7,195.8L379.4,175.6L395.8,163.6L384.1,152.3L399.0,138.4L384.1,130.5L399.7,115.3L377.8,103.9L361.3,119.3L339.4,108.2L344.9,122.4L332.3,118.1L307.2,153.4L282.9,144.2Z"/>
    <path class="wtc-county" id="wtc-county-chittenden" data-county="Chittenden" d="M67.3,148.7L72.0,152.5L79.0,162.6L82.2,175.6L72.7,190.6L77.4,214.2L102.5,213.7L151.9,207.8L156.6,236.6L168.4,211.6L165.3,210.3L177.8,192.1L184.1,193.4L188.8,186.6L181.0,183.8L188.8,173.1L181.0,171.6L188.8,161.3L182.5,159.0L183.3,151.2L162.1,133.5L137.8,129.6L96.3,114.0L94.7,130.0L87.6,142.7L67.3,148.7Z"/>
    <path class="wtc-county" id="wtc-county-essex" data-county="Essex" d="M386.4,51.5L380.1,73.6L391.9,80.4L369.9,100.1L377.8,103.9L399.7,115.3L384.1,130.5L399.0,138.4L384.1,152.3L395.8,163.6L379.4,175.6L399.7,195.8L405.2,194.3L409.2,184.6L415.4,183.1L428.0,181.9L439.0,174.6L444.4,166.2L457.0,162.0L452.3,151.0L460.9,148.5L462.5,134.8L454.6,127.7L446.0,108.6L457.8,98.8L460.9,86.8L475.0,72.7L464.8,56.0L473.5,50.4L386.4,51.5Z"/>
    <path class="wtc-county" id="wtc-county-franklin" data-county="Franklin" d="M104.1,50.4L93.1,64.5L104.1,73.3L100.2,92.0L89.2,103.1L96.3,114.0L137.8,129.6L162.1,133.5L170.0,128.3L178.6,116.4L190.4,120.6L193.5,110.1L201.3,100.1L230.4,96.7L238.2,101.1L248.4,89.8L246.8,67.5L242.9,51.5L217.0,50.0L104.1,50.4Z"/>
    <path class="wtc-county" id="wtc-county-grand-isle" data-county="Grand Isle" d="M71.2,50.9L72.0,71.4L66.5,77.0L63.3,88.9L73.5,99.5L65.7,109.9L64.1,127.1L61.0,133.0L67.3,148.7L87.6,142.7L94.7,130.0L96.3,114.0L89.2,103.1L100.2,92.0L104.1,73.3L93.1,64.5L104.1,50.4L71.2,50.9Z"/>
    <path class="wtc-county" id="wtc-county-lamoille" data-county="Lamoille" d="M238.2,101.1L230.4,96.7L201.3,100.1L193.5,110.1L190.4,120.6L178.6,116.4L170.0,128.3L162.1,133.5L183.3,151.2L182.5,159.0L188.8,161.3L181.0,171.6L188.8,173.1L221.7,184.9L234.3,167.1L257.0,179.5L269.6,161.3L282.9,144.2L283.7,142.5L259.4,133.3L273.5,114.0L238.2,101.1Z"/>
    <path class="wtc-county" id="wtc-county-orange" data-county="Orange" d="M191.2,280.3L193.5,287.4L264.1,307.1L319.8,322.0L324.5,313.7L323.7,301.7L338.6,289.1L338.6,273.2L348.0,264.9L357.4,252.0L352.7,247.8L355.8,237.3L326.0,229.8L297.8,231.9L283.7,227.4L272.7,223.6L267.2,243.7L242.1,236.4L235.9,236.9L214.7,269.0L202.1,265.5L191.2,280.3Z"/>
    <path class="wtc-county" id="wtc-county-orleans" data-county="Orleans" d="M242.9,51.5L246.8,67.5L248.4,89.8L238.2,101.1L273.5,114.0L259.4,133.3L283.7,142.5L282.9,144.2L307.2,153.4L332.3,118.1L344.9,122.4L339.4,108.2L361.3,119.3L377.8,103.9L369.9,100.1L391.9,80.4L380.1,73.6L386.4,51.5L297.0,52.6L242.9,51.5Z"/>
    <path class="wtc-county" id="wtc-county-rutland" data-county="Rutland" d="M66.5,325.7L57.1,340.0L51.6,361.4L59.4,366.3L64.9,353.9L79.8,353.9L81.4,363.8L91.6,369.3L90.0,421.6L174.7,424.6L177.8,409.2L184.1,407.2L198.2,413.0L205.3,388.0L191.9,382.2L195.9,361.2L199.0,361.9L211.5,341.1L184.9,333.8L193.5,314.6L191.9,310.3L173.9,306.9L173.1,302.8L155.1,309.8L142.5,314.5L139.4,305.4L97.8,307.5L101.0,322.9L66.5,325.7Z"/>
    <path class="wtc-county" id="wtc-county-washington" data-county="Washington" d="M156.6,236.6L160.6,236.2L166.1,256.1L202.1,265.5L214.7,269.0L235.9,236.9L242.1,236.4L267.2,243.7L272.7,223.6L283.7,227.4L295.5,212.3L294.7,206.7L305.6,197.5L316.6,182.1L315.8,179.1L269.6,161.3L257.0,179.5L234.3,167.1L221.7,184.9L188.8,173.1L181.0,183.8L188.8,186.6L184.1,193.4L177.8,192.1L165.3,210.3L168.4,211.6L156.6,236.6Z"/>
    <path class="wtc-county" id="wtc-county-windham" data-county="Windham" d="M185.7,434.6L179.4,433.1L176.3,445.5L174.7,465.5L146.5,464.8L144.1,505.7L162.9,506.3L161.4,547.4L264.1,550.0L257.0,540.1L252.3,541.9L242.9,522.8L250.0,509.1L250.8,498.4L260.9,496.5L267.2,488.1L262.5,478.3L269.6,472.1L265.7,455.0L269.6,439.5L244.5,438.9L214.7,441.7L185.7,434.6Z"/>
    <path class="wtc-county" id="wtc-county-windsor" data-county="Windsor" d="M191.2,280.3L175.5,302.1L173.1,293.1L155.9,299.2L150.4,297.6L155.1,309.8L173.1,302.8L173.9,306.9L191.9,310.3L193.5,314.6L184.9,333.8L211.5,341.1L199.0,361.9L195.9,361.2L191.9,382.2L205.3,388.0L198.2,413.0L184.1,407.2L177.8,409.2L174.7,424.6L184.9,425.0L185.7,434.6L214.7,441.7L244.5,438.9L269.6,439.5L278.2,422.0L273.5,410.7L281.3,385.4L277.4,378.8L281.3,364.9L292.3,359.3L297.8,338.3L304.9,330.0L319.8,322.0L264.1,307.1L193.5,287.4L191.2,280.3Z"/>
  </g>
</svg>