<?xml version="1.0" encoding="UTF-8"?>
<svg xmlns="http://www.w3.org/2000/svg" viewBox="0 0 600 297" id="wtc-state-map-OK" role="img" aria-label="ok county map">
  <title>ok Counties</title>
  <g class="wtc-counties">
    <path class="wtc-county" id="wtc-county-adair" data-county="Adair" d="M528.6,99.1L528.6,114.2L528.2,114.2L528.2,129.5L547.7,129.5L546.4,122.5L543.1,102.5L542.5,99.0L528.6,99.1Z"/>
    <path class="wtc-county" id="wtc-county-alfalfa" data-county="Alfalfa" d="M310.1,50.2L310.5,53.5L310.9,73.8L310.7,81.4L335.8,81.5L335.8,73.9L335.6,73.8L335.4,50.3L321.6,50.3L310.1,50.2Z"/>
    <path class="wtc-county" id="wtc-county-atoka" data-county="Atoka" d="M434.8,200.7L434.8,216.0L459.1,216.0L471.5,216.0L471.5,195.6L477.8,195.6L477.8,190.5L465.4,190.5L465.4,185.5L453.3,185.5L453.3,195.6L450.1,195.6L450.1,200.7L434.8,200.7Z"/>
    <path class="wtc-county" id="wtc-county-beaver" data-county="Beaver" d="M170.2,50.3L170.2,59.0L169.6,59.0L169.6,79.3L193.4,79.3L225.0,79.3L225.0,73.9L225.0,50.1L220.0,50.0L188.4,50.2L170.2,50.3Z"/>
    <path class="wtc-county" id="wtc-county-beckham" data-county="Beckham" d="M225.3,142.2L225.3,156.1L225.3,165.0L231.7,165.0L237.8,165.1L237.8,160.0L257.9,160.4L259.8,160.1L262.5,160.0L262.3,139.7L262.3,137.1L250.0,137.1L250.0,142.2L225.3,142.2Z"/>
    <path class="wtc-county" id="wtc-county-blaine" data-county="Blaine" d="M304.8,98.9L304.8,114.3L305.0,119.4L305.0,134.6L305.7,134.6L323.7,134.6L323.7,124.5L329.7,124.5L329.9,117.8L329.7,98.9L304.8,98.9Z"/>
    <path class="wtc-county" id="wtc-county-bryan" data-county="Bryan" d="M424.2,231.3L421.9,234.2L425.2,235.7L427.5,235.5L429.2,238.3L433.6,238.0L436.5,241.1L437.4,243.1L439.9,242.9L441.3,238.9L445.3,239.8L448.2,239.1L449.9,234.6L452.8,235.0L452.6,234.0L455.8,234.7L462.1,233.2L462.3,231.7L467.5,234.4L470.2,233.2L471.9,234.3L472.5,232.6L467.9,232.5L465.6,230.1L462.3,228.6L462.3,217.8L459.1,216.0L434.8,216.0L432.1,216.0L432.1,218.5L424.4,218.5L426.7,221.4L424.6,224.7L422.1,224.6L425.0,227.2L423.7,228.4L424.2,231.3Z"/>
    <path class="wtc-county" id="wtc-county-caddo" data-county="Caddo" d="M305.4,139.7L305.4,154.9L305.7,161.1L305.7,175.3L336.4,175.3L336.4,161.7L336.6,154.9L336.2,144.8L324.1,144.8L324.1,136.7L323.7,134.6L305.7,134.6L305.4,139.7Z"/>
    <path class="wtc-county" id="wtc-county-canadian" data-county="Canadian" d="M329.7,124.5L323.7,124.5L323.7,134.6L324.1,136.7L324.1,144.8L336.2,144.8L340.8,144.8L344.6,146.6L345.0,144.9L346.5,146.2L354.0,147.4L355.3,146.6L357.2,147.9L361.1,147.2L361.1,147.1L361.1,144.8L360.9,124.5L329.7,124.5Z"/>
    <path class="wtc-county" id="wtc-county-carter" data-county="Carter" d="M367.4,208.3L367.6,221.0L402.0,221.0L402.2,215.1L404.1,215.1L404.1,205.8L398.6,205.8L397.4,203.2L379.8,203.2L379.8,195.6L367.4,195.6L367.4,208.3Z"/>
    <path class="wtc-county" id="wtc-county-cherokee" data-county="Cherokee" d="M504.8,104.1L503.7,107.9L500.6,110.5L500.6,114.0L503.7,116.5L501.4,119.4L509.6,119.4L509.4,129.5L528.2,129.5L528.2,114.2L528.6,114.2L528.6,99.1L516.3,99.0L510.0,99.0L510.0,104.1L504.8,104.1Z"/>
    <path class="wtc-county" id="wtc-county-choctaw" data-county="Choctaw" d="M459.1,216.0L462.3,217.8L462.3,228.6L465.6,230.1L467.9,232.5L472.5,232.6L472.7,231.4L476.9,231.6L482.0,229.0L484.0,229.1L485.5,232.2L489.9,231.8L489.9,232.6L497.0,232.8L498.9,232.1L502.1,230.8L503.5,227.4L507.9,228.8L507.7,216.0L471.5,216.0L459.1,216.0Z"/>
    <path class="wtc-county" id="wtc-county-cimarron" data-county="Cimarron" d="M50.2,50.1L50.2,73.3L50.0,79.3L99.0,79.3L106.7,79.3L106.7,58.9L107.0,50.6L106.1,50.6L67.8,50.4L63.2,50.2L50.2,50.1Z"/>
    <path class="wtc-county" id="wtc-county-cleveland" data-county="Cleveland" d="M361.1,144.8L361.1,147.1L364.3,149.0L367.6,149.8L367.4,153.1L376.4,158.7L376.8,161.8L379.6,162.3L379.4,164.8L380.4,168.9L384.2,169.0L385.0,170.0L391.9,171.0L391.9,144.8L361.1,144.8Z"/>
    <path class="wtc-county" id="wtc-county-coal" data-county="Coal" d="M428.6,195.6L428.6,200.6L434.8,200.7L450.1,200.7L450.1,195.6L453.3,195.6L453.3,185.5L453.3,180.3L434.8,180.3L434.8,185.5L428.8,185.5L428.6,195.6Z"/>
    <path class="wtc-county" id="wtc-county-comanche" data-county="Comanche" d="M305.7,175.3L293.7,175.2L293.7,190.5L293.7,195.5L303.4,195.5L303.4,201.4L306.3,200.6L312.4,200.6L312.4,198.9L324.7,198.9L327.6,198.1L327.6,195.5L333.7,195.6L333.7,185.4L336.6,185.4L336.4,175.3L305.7,175.3Z"/>
    <path class="wtc-county" id="wtc-county-cotton" data-county="Cotton" d="M303.4,201.4L303.4,205.7L306.3,205.7L306.3,216.0L308.6,216.7L313.6,221.5L317.2,220.2L320.7,216.0L324.7,217.4L327.8,217.4L332.0,218.5L333.7,216.9L333.7,208.2L333.7,195.6L327.6,195.5L327.6,198.1L324.7,198.9L312.4,198.9L312.4,200.6L306.3,200.6L303.4,201.4Z"/>
    <path class="wtc-county" id="wtc-county-craig" data-county="Craig" d="M493.0,50.2L493.0,53.5L491.8,53.5L491.8,73.6L497.7,73.6L497.9,78.7L516.5,78.7L516.9,69.3L516.9,53.5L514.8,50.5L516.5,50.2L512.7,50.2L493.0,50.2Z"/>
    <path class="wtc-county" id="wtc-county-creek" data-county="Creek" d="M422.3,99.1L422.3,111.9L422.3,129.5L447.4,129.5L447.4,116.8L456.6,116.8L456.8,104.1L441.1,104.0L441.1,99.0L422.5,98.9L422.3,99.1Z"/>
    <path class="wtc-county" id="wtc-county-custer" data-county="Custer" d="M261.7,119.4L261.7,134.6L262.3,137.1L262.3,139.7L305.4,139.7L305.7,134.6L305.0,134.6L305.0,119.4L261.7,119.4Z"/>
    <path class="wtc-county" id="wtc-county-delaware" data-county="Delaware" d="M516.5,78.7L516.5,93.9L516.3,99.0L528.6,99.1L542.5,99.0L539.1,79.3L539.1,69.5L516.9,69.3L516.5,78.7Z"/>
    <path class="wtc-county" id="wtc-county-dewey" data-county="Dewey" d="M261.3,98.9L261.3,107.7L261.3,114.3L261.7,119.4L305.0,119.4L304.8,114.3L304.8,98.9L286.2,99.1L261.3,98.9Z"/>
    <path class="wtc-county" id="wtc-county-ellis" data-county="Ellis" d="M225.0,73.9L225.0,79.3L225.3,79.3L225.3,105.2L225.3,115.4L229.6,113.5L230.3,111.1L233.6,108.2L236.3,108.5L236.3,112.6L238.2,115.0L241.8,116.7L247.4,117.7L251.0,116.3L251.4,114.3L253.5,112.8L254.6,109.7L257.1,108.2L261.3,107.7L261.3,98.9L248.7,98.9L248.9,94.0L248.3,94.1L248.3,73.9L225.0,73.9Z"/>
    <path class="wtc-county" id="wtc-county-garfield" data-county="Garfield" d="M335.8,73.9L335.8,81.5L335.8,98.9L360.9,98.9L373.3,98.9L373.3,73.9L335.8,73.9Z"/>
    <path class="wtc-county" id="wtc-county-garvin" data-county="Garvin" d="M361.3,175.2L361.3,185.4L367.4,185.6L367.4,195.6L379.8,195.6L391.9,195.6L391.1,193.0L388.6,188.8L391.9,188.8L391.9,188.0L404.3,188.0L404.3,175.3L361.3,175.2Z"/>
    <path class="wtc-county" id="wtc-county-grady" data-county="Grady" d="M336.2,144.8L336.6,154.9L336.4,161.7L336.4,175.3L336.6,185.4L361.3,185.4L361.3,175.2L361.1,175.1L361.1,147.2L357.2,147.9L355.3,146.6L354.0,147.4L346.5,146.2L345.0,144.9L344.6,146.6L340.8,144.8L336.2,144.8Z"/>
    <path class="wtc-county" id="wtc-county-grant" data-county="Grant" d="M335.4,50.3L335.6,73.8L335.8,73.9L373.3,73.9L373.3,50.2L353.4,50.2L335.4,50.3Z"/>
    <path class="wtc-county" id="wtc-county-greer" data-county="Greer" d="M231.7,165.0L231.7,170.1L241.0,170.1L241.6,175.1L241.6,180.3L244.7,181.1L244.7,182.8L259.0,182.8L258.1,180.2L260.0,180.3L259.8,177.7L269.0,177.7L269.2,177.2L265.7,175.1L266.1,171.2L264.2,170.0L264.4,164.4L262.3,163.3L262.1,161.7L259.8,160.1L257.9,160.4L237.8,160.0L237.8,165.1L231.7,165.0Z"/>
    <path class="wtc-county" id="wtc-county-harmon" data-county="Harmon" d="M225.3,165.0L225.3,181.6L225.5,192.4L229.4,191.5L234.3,195.6L244.7,195.5L244.7,182.8L244.7,181.1L241.6,180.3L241.6,175.1L241.0,170.1L231.7,170.1L231.7,165.0L225.3,165.0Z"/>
    <path class="wtc-county" id="wtc-county-harper" data-county="Harper" d="M225.0,50.1L225.0,73.9L248.3,73.9L266.3,73.8L266.3,60.7L265.2,58.5L261.7,57.2L256.9,50.2L252.1,50.2L225.0,50.1Z"/>
    <path class="wtc-county" id="wtc-county-haskell" data-county="Haskell" d="M490.5,149.5L490.3,157.4L496.6,157.4L496.6,163.4L521.1,163.4L521.1,155.0L527.8,155.0L527.8,147.9L527.0,145.7L521.7,146.5L523.2,144.4L519.8,143.0L516.7,142.7L515.5,140.4L514.0,140.1L509.8,145.1L506.7,146.4L506.7,149.2L502.9,151.5L498.7,149.1L496.8,149.7L494.1,147.7L490.5,149.5Z"/>
    <path class="wtc-county" id="wtc-county-hughes" data-county="Hughes" d="M432.7,149.9L432.7,160.0L430.0,160.0L430.0,172.0L433.8,172.4L434.8,170.8L434.8,180.3L453.3,180.3L453.5,163.9L457.9,158.5L459.5,157.9L459.8,149.9L432.7,149.9Z"/>
    <path class="wtc-county" id="wtc-county-jackson" data-county="Jackson" d="M234.3,195.6L237.2,198.6L242.2,202.5L248.5,203.3L249.7,200.8L253.3,200.9L255.8,202.0L257.9,203.3L260.4,203.1L261.3,198.5L265.0,201.3L268.4,201.6L267.5,202.7L271.3,205.5L272.4,204.4L270.3,202.5L270.7,196.3L274.0,190.8L278.6,190.7L277.6,187.9L278.0,186.1L280.9,185.7L280.5,184.2L274.9,184.2L273.4,181.1L274.9,178.6L275.1,175.6L273.0,175.0L271.1,176.9L269.2,177.2L269.0,177.7L259.8,177.7L260.0,180.3L258.1,180.2L259.0,182.8L244.7,182.8L244.7,195.5L234.3,195.6Z"/>
    <path class="wtc-county" id="wtc-county-jefferson" data-county="Jefferson" d="M333.7,208.2L333.7,216.9L335.6,216.1L336.4,218.6L334.8,220.4L336.9,224.9L340.8,225.5L343.6,224.8L345.0,225.8L343.6,228.8L344.6,228.8L343.1,231.6L349.0,233.9L351.5,233.4L357.6,228.8L360.1,225.9L362.0,225.7L366.0,227.9L365.3,229.9L367.4,231.1L367.6,221.0L367.4,208.3L333.7,208.2Z"/>
    <path class="wtc-county" id="wtc-county-johnston" data-county="Johnston" d="M404.1,205.8L404.1,215.1L419.6,215.1L422.5,215.7L424.4,218.5L432.1,218.5L432.1,216.0L434.8,216.0L434.8,200.7L428.6,200.6L428.6,195.6L410.3,195.6L407.2,195.6L407.2,205.7L404.1,205.8Z"/>
    <path class="wtc-county" id="wtc-county-kay" data-county="Kay" d="M373.3,50.2L373.3,73.9L396.9,73.9L397.6,73.3L396.5,68.5L398.4,67.5L404.3,68.4L406.8,64.6L409.9,65.1L410.6,63.7L414.7,62.8L414.7,50.2L391.7,50.2L373.3,50.2Z"/>
    <path class="wtc-county" id="wtc-county-kingfisher" data-county="Kingfisher" d="M329.7,98.9L329.9,117.8L329.7,124.5L360.9,124.5L360.9,98.9L335.8,98.9L329.7,98.9Z"/>
    <path class="wtc-county" id="wtc-county-kiowa" data-county="Kiowa" d="M262.5,160.0L259.8,160.1L262.1,161.7L262.3,163.3L264.4,164.4L264.2,170.0L266.1,171.2L265.7,175.1L269.2,177.2L271.1,176.9L273.0,175.0L275.1,175.6L274.9,178.6L273.4,181.1L274.9,184.2L280.5,184.2L280.9,185.7L278.0,186.1L277.6,187.9L283.5,187.9L283.5,190.5L293.7,190.5L293.7,175.2L305.7,175.3L305.7,161.1L304.0,159.5L299.0,160.8L298.1,160.0L262.5,160.0Z"/>
    <path class="wtc-county" id="wtc-county-latimer" data-county="Latimer" d="M496.6,163.4L496.6,165.1L487.4,165.1L487.4,175.3L487.0,185.4L513.4,185.4L513.4,175.2L517.1,175.2L517.1,170.2L521.1,170.2L521.1,163.4L496.6,163.4Z"/>
    <path class="wtc-county" id="wtc-county-le-flore" data-county="Le Flore" d="M521.1,163.4L521.1,170.2L517.1,170.2L517.1,175.2L513.4,175.2L513.4,185.4L520.5,185.4L520.5,195.6L548.3,195.5L548.7,182.6L549.2,170.7L550.0,144.3L547.7,144.9L546.4,147.6L547.3,148.7L542.9,148.7L540.6,147.7L539.3,149.1L536.2,149.6L534.9,147.6L531.2,146.0L527.8,147.9L527.8,155.0L521.1,155.0L521.1,163.4Z"/>
    <path class="wtc-county" id="wtc-county-lincoln" data-county="Lincoln" d="M391.9,124.5L391.9,139.8L422.1,139.8L422.3,129.5L422.3,111.9L392.1,111.8L391.9,124.5Z"/>
    <path class="wtc-county" id="wtc-county-logan" data-county="Logan" d="M360.9,98.9L360.9,124.5L391.9,124.5L392.1,111.8L388.4,111.7L387.3,110.5L384.2,110.0L383.1,108.1L381.4,107.8L379.6,109.3L379.6,99.2L373.3,98.9L360.9,98.9Z"/>
    <path class="wtc-county" id="wtc-county-love" data-county="Love" d="M367.6,221.0L367.4,231.1L372.0,230.1L373.5,230.8L373.3,233.9L374.3,235.4L378.5,235.7L380.8,232.5L382.7,232.1L385.4,233.1L385.8,231.0L387.9,230.0L389.8,231.4L390.2,234.7L388.1,236.2L390.7,240.9L393.0,241.6L395.3,240.1L394.6,236.9L397.4,235.8L395.1,233.7L397.8,234.6L401.1,231.8L400.5,228.1L403.4,228.1L404.1,227.8L404.1,224.4L402.0,224.4L402.0,221.0L367.6,221.0Z"/>
    <path class="wtc-county" id="wtc-county-mcclain" data-county="McClain" d="M361.1,147.1L361.1,147.2L361.1,175.1L361.3,175.2L404.3,175.3L404.3,168.9L399.2,172.2L395.7,170.9L391.9,171.0L385.0,170.0L384.2,169.0L380.4,168.9L379.4,164.8L379.6,162.3L376.8,161.8L376.4,158.7L367.4,153.1L367.6,149.8L364.3,149.0L361.1,147.1Z"/>
    <path class="wtc-county" id="wtc-county-mccurtain" data-county="McCurtain" d="M507.7,216.0L507.9,228.8L509.8,229.2L514.0,233.1L518.6,233.2L520.1,236.1L524.5,240.0L527.0,240.2L530.1,239.4L532.2,242.3L533.9,243.4L537.4,243.3L537.6,244.5L541.0,243.8L545.0,247.5L546.9,246.2L547.5,228.6L547.9,214.1L548.3,195.5L520.5,195.6L514.2,195.5L514.2,210.9L508.1,210.9L507.7,216.0Z"/>
    <path class="wtc-county" id="wtc-county-mcintosh" data-county="McIntosh" d="M459.8,149.9L459.5,157.9L463.9,158.4L466.0,155.9L470.6,155.3L472.7,156.4L477.6,154.6L477.8,153.5L481.3,152.2L480.7,153.7L487.0,151.3L487.8,149.2L490.5,149.5L494.1,147.7L496.8,149.7L496.8,134.6L475.3,134.6L469.0,134.6L469.0,139.8L465.8,139.8L465.8,144.8L459.8,144.8L459.8,149.9Z"/>
    <path class="wtc-county" id="wtc-county-major" data-county="Major" d="M286.0,78.9L285.8,94.0L286.2,99.1L304.8,98.9L329.7,98.9L335.8,98.9L335.8,81.5L310.7,81.4L310.9,85.3L305.4,85.6L301.0,84.2L299.6,82.5L294.8,81.6L292.7,78.9L286.0,78.9Z"/>
    <path class="wtc-county" id="wtc-county-marshall" data-county="Marshall" d="M402.0,221.0L402.0,224.4L404.1,224.4L404.1,227.8L405.7,228.1L407.0,232.8L408.9,234.1L410.1,232.4L412.9,233.1L413.7,235.2L417.5,234.8L419.1,230.5L424.2,231.3L423.7,228.4L425.0,227.2L422.1,224.6L424.6,224.7L426.7,221.4L424.4,218.5L422.5,215.7L419.6,215.1L404.1,215.1L402.2,215.1L402.0,221.0Z"/>
    <path class="wtc-county" id="wtc-county-mayes" data-county="Mayes" d="M497.9,78.7L491.6,78.7L491.6,93.9L491.2,93.9L491.2,104.1L504.8,104.1L510.0,104.1L510.0,99.0L516.3,99.0L516.5,93.9L516.5,78.7L497.9,78.7Z"/>
    <path class="wtc-county" id="wtc-county-murray" data-county="Murray" d="M379.8,195.6L379.8,203.2L397.4,203.2L398.6,205.8L404.1,205.8L407.2,205.7L407.2,195.6L410.3,195.6L410.3,190.5L404.3,190.5L404.3,188.0L391.9,188.0L391.9,188.8L388.6,188.8L391.1,193.0L391.9,195.6L379.8,195.6Z"/>
    <path class="wtc-county" id="wtc-county-muskogee" data-county="Muskogee" d="M472.3,116.9L472.1,124.5L475.3,124.5L475.3,134.6L496.8,134.6L496.8,149.7L498.7,149.1L502.9,151.5L506.7,149.2L506.7,146.4L509.8,145.1L514.0,140.1L512.1,140.0L509.2,136.1L509.4,129.5L509.6,119.4L501.4,119.4L495.8,118.8L492.4,120.2L489.1,119.9L484.0,120.9L482.6,122.2L479.6,120.9L479.0,116.8L472.3,116.9Z"/>
    <path class="wtc-county" id="wtc-county-noble" data-county="Noble" d="M373.3,73.9L373.3,98.9L379.6,99.2L392.1,99.2L391.9,94.1L404.7,94.1L404.7,89.0L398.4,89.0L398.4,78.9L399.7,78.9L400.5,77.6L405.9,76.3L406.8,74.9L404.9,73.4L400.1,74.5L396.9,73.9L373.3,73.9Z"/>
    <path class="wtc-county" id="wtc-county-nowata" data-county="Nowata" d="M471.1,50.2L471.1,53.5L469.6,53.5L469.6,73.6L491.8,73.6L491.8,53.5L493.0,53.5L493.0,50.2L486.3,50.2L471.1,50.2Z"/>
    <path class="wtc-county" id="wtc-county-okfuskee" data-county="Okfuskee" d="M422.1,139.8L422.3,143.4L424.4,142.8L427.3,144.0L425.4,141.3L426.3,140.3L429.6,141.8L431.1,139.8L432.7,139.5L432.7,149.9L459.8,149.9L459.8,144.8L453.5,144.8L453.5,134.6L447.4,134.6L447.4,129.5L422.3,129.5L422.1,139.8Z"/>
    <path class="wtc-county" id="wtc-county-oklahoma" data-county="Oklahoma" d="M360.9,124.5L361.1,144.8L391.9,144.8L391.9,139.8L391.9,124.5L360.9,124.5Z"/>
    <path class="wtc-county" id="wtc-county-okmulgee" data-county="Okmulgee" d="M447.4,129.5L447.4,134.6L453.5,134.6L453.5,144.8L459.8,144.8L465.8,144.8L465.8,139.8L469.0,139.8L469.0,134.6L475.3,134.6L475.3,124.5L472.1,124.5L472.3,116.9L469.2,116.9L456.6,116.8L447.4,116.8L447.4,129.5Z"/>
    <path class="wtc-county" id="wtc-county-osage" data-county="Osage" d="M414.7,50.2L414.7,62.8L410.6,63.7L409.9,65.1L406.8,64.6L404.3,68.4L398.4,67.5L396.5,68.5L397.6,73.3L396.9,73.9L400.1,74.5L404.9,73.4L406.8,74.9L405.9,76.3L400.5,77.6L399.7,78.9L399.9,80.1L403.6,81.9L407.6,81.0L409.7,78.1L413.7,75.5L415.6,76.4L417.5,80.6L417.0,82.9L419.1,83.9L421.4,83.6L423.5,86.2L425.0,86.6L427.1,85.1L428.1,87.1L426.0,88.1L425.2,90.0L428.6,91.0L431.9,89.1L433.4,91.8L436.1,92.9L438.8,95.1L443.6,95.3L444.5,96.7L443.0,99.0L458.5,99.1L458.5,83.7L458.5,50.2L427.9,50.2L414.7,50.2Z"/>
    <path class="wtc-county" id="wtc-county-ottawa" data-county="Ottawa" d="M516.5,50.2L514.8,50.5L516.9,53.5L516.9,69.3L539.1,69.5L539.1,63.7L539.1,50.2L516.5,50.2Z"/>
    <path class="wtc-county" id="wtc-county-pawnee" data-county="Pawnee" d="M399.7,78.9L398.4,78.9L398.4,89.0L404.7,89.0L404.7,94.1L410.8,94.1L410.8,99.2L422.3,99.1L422.5,98.9L441.1,99.0L443.0,99.0L444.5,96.7L443.6,95.3L438.8,95.1L436.1,92.9L433.4,91.8L431.9,89.1L428.6,91.0L425.2,90.0L426.0,88.1L428.1,87.1L427.1,85.1L425.0,86.6L423.5,86.2L421.4,83.6L419.1,83.9L417.0,82.9L417.5,80.6L415.6,76.4L413.7,75.5L409.7,78.1L407.6,81.0L403.6,81.9L399.9,80.1L399.7,78.9Z"/>
    <path class="wtc-county" id="wtc-county-payne" data-county="Payne" d="M379.6,99.2L379.6,109.3L381.4,107.8L383.1,108.1L384.2,110.0L387.3,110.5L388.4,111.7L392.1,111.8L422.3,111.9L422.3,99.1L410.8,99.2L410.8,94.1L404.7,94.1L391.9,94.1L392.1,99.2L379.6,99.2Z"/>
    <path class="wtc-county" id="wtc-county-pittsburg" data-county="Pittsburg" d="M453.3,180.3L453.3,185.5L465.4,185.5L465.4,190.5L477.8,190.5L487.0,190.5L487.0,185.4L487.4,175.3L487.4,165.1L496.6,165.1L496.6,163.4L496.6,157.4L490.3,157.4L490.5,149.5L487.8,149.2L487.0,151.3L480.7,153.7L481.3,152.2L477.8,153.5L477.6,154.6L472.7,156.4L470.6,155.3L466.0,155.9L463.9,158.4L459.5,157.9L457.9,158.5L453.5,163.9L453.3,180.3Z"/>
    <path class="wtc-county" id="wtc-county-pontotoc" data-county="Pontotoc" d="M404.3,175.3L404.3,188.0L404.3,190.5L410.3,190.5L410.3,195.6L428.6,195.6L428.8,185.5L434.8,185.5L434.8,180.3L434.8,170.8L433.8,172.4L430.0,172.0L428.8,174.1L426.9,173.8L426.0,171.8L420.8,172.5L419.6,170.9L417.7,170.9L418.1,174.5L416.2,175.1L414.5,172.6L413.3,172.6L411.2,170.0L407.0,171.1L404.3,168.9L404.3,175.3Z"/>
    <path class="wtc-county" id="wtc-county-pottawatomie" data-county="Pottawatomie" d="M391.9,144.8L391.9,171.0L395.7,170.9L399.2,172.2L404.3,168.9L407.0,171.1L411.2,170.0L413.3,172.6L413.3,143.2L416.2,142.0L420.4,143.9L422.3,143.4L422.1,139.8L391.9,139.8L391.9,144.8Z"/>
    <path class="wtc-county" id="wtc-county-pushmataha" data-county="Pushmataha" d="M477.8,190.5L477.8,195.6L471.5,195.6L471.5,216.0L507.7,216.0L508.1,210.9L514.2,210.9L514.2,195.5L520.5,195.6L520.5,185.4L513.4,185.4L487.0,185.4L487.0,190.5L477.8,190.5Z"/>
    <path class="wtc-county" id="wtc-county-roger-mills" data-county="Roger Mills" d="M225.3,115.4L225.3,130.7L225.3,142.2L250.0,142.2L250.0,137.1L262.3,137.1L261.7,134.6L261.7,119.4L261.3,114.3L261.3,107.7L257.1,108.2L254.6,109.7L253.5,112.8L251.4,114.3L251.0,116.3L247.4,117.7L241.8,116.7L238.2,115.0L236.3,112.6L236.3,108.5L233.6,108.2L230.3,111.1L229.6,113.5L225.3,115.4Z"/>
    <path class="wtc-county" id="wtc-county-rogers" data-county="Rogers" d="M469.6,83.8L469.4,99.0L472.5,99.0L480.7,99.0L481.7,100.7L483.8,100.9L484.7,103.1L483.6,104.1L491.2,104.1L491.2,93.9L491.6,93.9L491.6,78.7L497.9,78.7L497.7,73.6L491.8,73.6L469.6,73.6L469.6,83.8Z"/>
    <path class="wtc-county" id="wtc-county-seminole" data-county="Seminole" d="M422.3,143.4L420.4,143.9L416.2,142.0L413.3,143.2L413.3,172.6L414.5,172.6L416.2,175.1L418.1,174.5L417.7,170.9L419.6,170.9L420.8,172.5L426.0,171.8L426.9,173.8L428.8,174.1L430.0,172.0L430.0,160.0L432.7,160.0L432.7,149.9L432.7,139.5L431.1,139.8L429.6,141.8L426.3,140.3L425.4,141.3L427.3,144.0L424.4,142.8L422.3,143.4Z"/>
    <path class="wtc-county" id="wtc-county-sequoyah" data-county="Sequoyah" d="M509.4,129.5L509.2,136.1L512.1,140.0L514.0,140.1L515.5,140.4L516.7,142.7L519.8,143.0L523.2,144.4L521.7,146.5L527.0,145.7L527.8,147.9L531.2,146.0L534.9,147.6L536.2,149.6L539.3,149.1L540.6,147.7L542.9,148.7L547.3,148.7L546.4,147.6L547.7,144.9L550.0,144.3L549.8,141.8L547.7,129.5L528.2,129.5L509.4,129.5Z"/>
    <path class="wtc-county" id="wtc-county-stephens" data-county="Stephens" d="M336.6,185.4L333.7,185.4L333.7,195.6L333.7,208.2L367.4,208.3L367.4,195.6L367.4,185.6L361.3,185.4L336.6,185.4Z"/>
    <path class="wtc-county" id="wtc-county-texas" data-county="Texas" d="M107.0,50.6L106.7,58.9L106.7,79.3L130.6,79.3L162.0,79.3L169.6,79.3L169.6,59.0L170.2,59.0L170.2,50.3L163.1,50.3L134.6,50.4L107.0,50.6Z"/>
    <path class="wtc-county" id="wtc-county-tillman" data-county="Tillman" d="M277.6,187.9L278.6,190.7L274.0,190.8L270.7,196.3L270.3,202.5L272.4,204.4L271.3,205.5L272.4,212.5L276.1,212.4L276.5,213.4L279.1,212.8L280.9,213.6L284.3,212.2L286.4,212.7L288.3,214.5L291.8,215.7L294.6,215.9L297.3,217.2L301.7,217.4L304.2,215.5L306.3,216.0L306.3,205.7L303.4,205.7L303.4,201.4L303.4,195.5L293.7,195.5L293.7,190.5L283.5,190.5L283.5,187.9L277.6,187.9Z"/>
    <path class="wtc-county" id="wtc-county-tulsa" data-county="Tulsa" d="M441.1,99.0L441.1,104.0L456.8,104.1L456.6,116.8L469.2,116.9L469.2,114.2L472.5,114.2L472.5,99.0L469.4,99.0L469.6,83.8L458.5,83.7L458.5,99.1L443.0,99.0L441.1,99.0Z"/>
    <path class="wtc-county" id="wtc-county-wagoner" data-county="Wagoner" d="M472.5,99.0L472.5,114.2L469.2,114.2L469.2,116.9L472.3,116.9L479.0,116.8L479.6,120.9L482.6,122.2L484.0,120.9L489.1,119.9L492.4,120.2L495.8,118.8L501.4,119.4L503.7,116.5L500.6,114.0L500.6,110.5L503.7,107.9L504.8,104.1L491.2,104.1L483.6,104.1L484.7,103.1L483.8,100.9L481.7,100.7L480.7,99.0L472.5,99.0Z"/>
    <path class="wtc-county" id="wtc-county-washington" data-county="Washington" d="M458.5,50.2L458.5,83.7L469.6,83.8L469.6,73.6L469.6,53.5L471.1,53.5L471.1,50.2L460.6,50.2L458.5,50.2Z"/>
    <path class="wtc-county" id="wtc-county-washita" data-county="Washita" d="M262.3,139.7L262.5,160.0L298.1,160.0L299.0,160.8L304.0,159.5L305.7,161.1L305.4,154.9L305.4,139.7L262.3,139.7Z"/>
    <path class="wtc-county" id="wtc-county-woods" data-county="Woods" d="M256.9,50.2L261.7,57.2L265.2,58.5L266.3,60.7L269.0,62.7L275.5,62.8L278.6,66.4L279.9,66.7L282.8,71.1L286.0,73.5L286.0,78.9L292.7,78.9L294.8,81.6L299.6,82.5L301.0,84.2L305.4,85.6L310.9,85.3L310.7,81.4L310.9,73.8L310.5,53.5L310.1,50.2L283.5,50.2L256.9,50.2Z"/>
    <path class="wtc-county" id="wtc-county-woodward" data-county="Woodward" d="M248.3,73.9L248.3,94.1L248.9,94.0L248.7,98.9L261.3,98.9L286.2,99.1L285.8,94.0L286.0,78.9L286.0,73.5L282.8,71.1L279.9,66.7L278.6,66.4L275.5,62.8L269.0,62.7L266.3,60.7L266.3,73.8L248.3,73.9Z"/>
  </g>
</svg>