<?xml version="1.0" encoding="UTF-8"?>
<svg xmlns="http://www.w3.org/2000/svg" viewBox="0 0 600 297" id="wtc-state-map-OK" role="img" aria-label="ok county map">
  <title>ok Counties</title>
  <g class="wtc-counties">
    <path class="wtc-county" id="wtc-county-adair" data-county="Adair" d="M528.6,198.4L528.6,183.3L528.2,183.3L528.2,168.0L547.7,168.0L546.4,175.0L543.1,195.0L542.5,198.5L528.6,198.4Z"/>
    <path class="wtc-county" id="wtc-county-alfalfa" data-county="Alfalfa" d="M310.1,247.3L310.5,244.0L310.9,223.7L310.7,216.1L335.8,216.0L335.8,223.6L335.6,223.7L335.4,247.2L321.6,247.2L310.1,247.3Z"/>
    <path class="wtc-county" id="wtc-county-atoka" data-county="Atoka" d="M434.8,96.8L434.8,81.5L459.1,81.5L471.5,81.5L471.5,101.9L477.8,101.9L477.8,107.0L465.4,107.0L465.4,112.0L453.3,112.0L453.3,101.9L450.1,101.9L450.1,96.8L434.8,96.8Z"/>
    <path class="wtc-county" id="wtc-county-beaver" data-county="Beaver" d="M170.2,247.2L170.2,238.5L169.6,238.5L169.6,218.2L193.4,218.2L225.0,218.2L225.0,223.6L225.0,247.4L220.0,247.5L188.4,247.3L170.2,247.2Z"/>
    <path class="wtc-county" id="wtc-county-beckham" data-county="Beckham" d="M225.3,155.3L225.3,141.4L225.3,132.5L231.7,132.5L237.8,132.4L237.8,137.5L257.9,137.0L259.8,137.4L262.5,137.5L262.3,157.8L262.3,160.4L250.0,160.4L250.0,155.3L225.3,155.3Z"/>
    <path class="wtc-county" id="wtc-county-blaine" data-county="Blaine" d="M304.8,198.6L304.8,183.2L305.0,178.1L305.0,162.9L305.7,162.9L323.7,162.9L323.7,173.0L329.7,173.0L329.9,179.7L329.7,198.6L304.8,198.6Z"/>
    <path class="wtc-county" id="wtc-county-bryan" data-county="Bryan" d="M424.2,66.2L421.9,63.3L425.2,61.8L427.5,62.0L429.2,59.2L433.6,59.5L436.5,56.4L437.4,54.4L439.9,54.6L441.3,58.6L445.3,57.7L448.2,58.4L449.9,62.9L452.8,62.5L452.6,63.5L455.8,62.8L462.1,64.3L462.3,65.8L467.5,63.1L470.2,64.3L471.9,63.2L472.5,64.9L467.9,65.0L465.6,67.4L462.3,68.9L462.3,79.7L459.1,81.5L434.8,81.5L432.1,81.5L432.1,79.0L424.4,79.0L426.7,76.1L424.6,72.8L422.1,72.9L425.0,70.3L423.7,69.1L424.2,66.2Z"/>
    <path class="wtc-county" id="wtc-county-caddo" data-county="Caddo" d="M305.4,157.8L305.4,142.6L305.7,136.4L305.7,122.2L336.4,122.2L336.4,135.8L336.6,142.6L336.2,152.7L324.1,152.7L324.1,160.8L323.7,162.9L305.7,162.9L305.4,157.8Z"/>
    <path class="wtc-county" id="wtc-county-canadian" data-county="Canadian" d="M329.7,173.0L323.7,173.0L323.7,162.9L324.1,160.8L324.1,152.7L336.2,152.7L340.8,152.7L344.6,150.9L345.0,152.6L346.5,151.3L354.0,150.1L355.3,150.9L357.2,149.6L361.1,150.3L361.1,150.4L361.1,152.7L360.9,173.0L329.7,173.0Z"/>
    <path class="wtc-county" id="wtc-county-carter" data-county="Carter" d="M367.4,89.2L367.6,76.5L402.0,76.5L402.2,82.4L404.1,82.4L404.1,91.7L398.6,91.7L397.4,94.2L379.8,94.3L379.8,101.9L367.4,101.9L367.4,89.2Z"/>
    <path class="wtc-county" id="wtc-county-cherokee" data-county="Cherokee" d="M504.8,193.4L503.7,189.6L500.6,187.0L500.6,183.5L503.7,181.0L501.4,178.1L509.6,178.1L509.4,168.0L528.2,168.0L528.2,183.3L528.6,183.3L528.6,198.4L516.3,198.5L510.0,198.5L510.0,193.4L504.8,193.4Z"/>
    <path class="wtc-county" id="wtc-county-choctaw" data-county="Choctaw" d="M459.1,81.5L462.3,79.7L462.3,68.9L465.6,67.4L467.9,65.0L472.5,64.9L472.7,66.1L476.9,65.9L482.0,68.5L484.0,68.4L485.5,65.3L489.9,65.7L489.9,64.9L497.0,64.7L498.9,65.4L502.1,66.7L503.5,70.1L507.9,68.7L507.7,81.5L471.5,81.5L459.1,81.5Z"/>
    <path class="wtc-county" id="wtc-county-cimarron" data-county="Cimarron" d="M50.2,247.4L50.2,224.2L50.0,218.2L99.0,218.2L106.7,218.2L106.7,238.6L107.0,246.9L106.1,246.9L67.8,247.1L63.2,247.3L50.2,247.4Z"/>
    <path class="wtc-county" id="wtc-county-cleveland" data-county="Cleveland" d="M361.1,152.7L361.1,150.4L364.3,148.5L367.6,147.7L367.4,144.4L376.4,138.8L376.8,135.7L379.6,135.2L379.4,132.7L380.4,128.6L384.2,128.5L385.0,127.5L391.9,126.5L391.9,152.7L361.1,152.7Z"/>
    <path class="wtc-county" id="wtc-county-coal" data-county="Coal" d="M428.6,101.9L428.6,96.9L434.8,96.8L450.1,96.8L450.1,101.9L453.3,101.9L453.3,112.0L453.3,117.2L434.8,117.2L434.8,112.0L428.8,112.0L428.6,101.9Z"/>
    <path class="wtc-county" id="wtc-county-comanche" data-county="Comanche" d="M305.7,122.2L293.7,122.3L293.7,107.0L293.7,102.0L303.4,102.0L303.4,96.1L306.3,96.9L312.4,96.9L312.4,98.6L324.7,98.6L327.6,99.4L327.6,102.0L333.7,101.9L333.7,112.1L336.6,112.1L336.4,122.2L305.7,122.2Z"/>
    <path class="wtc-county" id="wtc-county-cotton" data-county="Cotton" d="M303.4,96.1L303.4,91.8L306.3,91.8L306.3,81.5L308.6,80.8L313.6,76.0L317.2,77.3L320.7,81.5L324.7,80.1L327.8,80.1L332.0,79.0L333.7,80.6L333.7,89.3L333.7,101.9L327.6,102.0L327.6,99.4L324.7,98.6L312.4,98.6L312.4,96.9L306.3,96.9L303.4,96.1Z"/>
    <path class="wtc-county" id="wtc-county-craig" data-county="Craig" d="M493.0,247.3L493.0,244.0L491.8,244.0L491.8,223.9L497.7,223.9L497.9,218.8L516.5,218.8L516.9,228.2L516.9,244.0L514.8,247.0L516.5,247.3L512.7,247.3L493.0,247.3Z"/>
    <path class="wtc-county" id="wtc-county-creek" data-county="Creek" d="M422.3,198.4L422.3,185.6L422.3,168.0L447.4,168.0L447.4,180.7L456.6,180.7L456.8,193.4L441.1,193.5L441.1,198.5L422.5,198.6L422.3,198.4Z"/>
    <path class="wtc-county" id="wtc-county-custer" data-county="Custer" d="M261.7,178.1L261.7,162.9L262.3,160.4L262.3,157.8L305.4,157.8L305.7,162.9L305.0,162.9L305.0,178.1L261.7,178.1Z"/>
    <path class="wtc-county" id="wtc-county-delaware" data-county="Delaware" d="M516.5,218.8L516.5,203.6L516.3,198.5L528.6,198.4L542.5,198.5L539.1,218.2L539.1,228.0L516.9,228.2L516.5,218.8Z"/>
    <path class="wtc-county" id="wtc-county-dewey" data-county="Dewey" d="M261.3,198.6L261.3,189.8L261.3,183.2L261.7,178.1L305.0,178.1L304.8,183.2L304.8,198.6L286.2,198.4L261.3,198.6Z"/>
    <path class="wtc-county" id="wtc-county-ellis" data-county="Ellis" d="M225.0,223.6L225.0,218.2L225.3,218.2L225.3,192.3L225.3,182.1L229.6,184.0L230.3,186.4L233.6,189.3L236.3,189.0L236.3,184.9L238.2,182.5L241.8,180.8L247.4,179.8L251.0,181.2L251.4,183.2L253.5,184.7L254.6,187.8L257.1,189.3L261.3,189.8L261.3,198.6L248.7,198.6L248.9,203.4L248.3,203.4L248.3,223.6L225.0,223.6Z"/>
    <path class="wtc-county" id="wtc-county-garfield" data-county="Garfield" d="M335.8,223.6L335.8,216.0L335.8,198.6L360.9,198.6L373.3,198.6L373.3,223.6L335.8,223.6Z"/>
    <path class="wtc-county" id="wtc-county-garvin" data-county="Garvin" d="M361.3,122.3L361.3,112.1L367.4,111.9L367.4,101.9L379.8,101.9L391.9,101.9L391.1,104.5L388.6,108.7L391.9,108.7L391.9,109.5L404.3,109.5L404.3,122.2L361.3,122.3Z"/>
    <path class="wtc-county" id="wtc-county-grady" data-county="Grady" d="M336.2,152.7L336.6,142.6L336.4,135.8L336.4,122.2L336.6,112.1L361.3,112.1L361.3,122.3L361.1,122.4L361.1,150.3L357.2,149.6L355.3,150.9L354.0,150.1L346.5,151.3L345.0,152.6L344.6,150.9L340.8,152.7L336.2,152.7Z"/>
    <path class="wtc-county" id="wtc-county-grant" data-county="Grant" d="M335.4,247.2L335.6,223.7L335.8,223.6L373.3,223.6L373.3,247.3L353.4,247.3L335.4,247.2Z"/>
    <path class="wtc-county" id="wtc-county-greer" data-county="Greer" d="M231.7,132.5L231.7,127.4L241.0,127.4L241.6,122.4L241.6,117.2L244.7,116.3L244.7,114.6L259.0,114.7L258.1,117.3L260.0,117.2L259.8,119.8L269.0,119.8L269.2,120.3L265.7,122.4L266.1,126.3L264.2,127.5L264.4,133.1L262.3,134.2L262.1,135.8L259.8,137.4L257.9,137.0L237.8,137.5L237.8,132.4L231.7,132.5Z"/>
    <path class="wtc-county" id="wtc-county-harmon" data-county="Harmon" d="M225.3,132.5L225.3,115.9L225.5,105.1L229.4,106.0L234.3,101.9L244.7,102.0L244.7,114.6L244.7,116.3L241.6,117.2L241.6,122.4L241.0,127.4L231.7,127.4L231.7,132.5L225.3,132.5Z"/>
    <path class="wtc-county" id="wtc-county-harper" data-county="Harper" d="M225.0,247.4L225.0,223.6L248.3,223.6L266.3,223.7L266.3,236.8L265.2,239.0L261.7,240.3L256.9,247.3L252.1,247.3L225.0,247.4Z"/>
    <path class="wtc-county" id="wtc-county-haskell" data-county="Haskell" d="M490.5,148.0L490.3,140.1L496.6,140.1L496.6,134.1L521.1,134.1L521.1,142.5L527.8,142.5L527.8,149.6L527.0,151.8L521.7,151.0L523.2,153.1L519.8,154.5L516.7,154.8L515.5,157.1L514.0,157.4L509.8,152.4L506.7,151.1L506.7,148.3L502.9,146.0L498.7,148.4L496.8,147.8L494.1,149.8L490.5,148.0Z"/>
    <path class="wtc-county" id="wtc-county-hughes" data-county="Hughes" d="M432.7,147.6L432.7,137.4L430.0,137.4L430.0,125.5L433.8,125.1L434.8,126.7L434.8,117.2L453.3,117.2L453.5,133.6L457.9,139.0L459.5,139.6L459.8,147.6L432.7,147.6Z"/>
    <path class="wtc-county" id="wtc-county-jackson" data-county="Jackson" d="M234.3,101.9L237.2,98.9L242.2,95.0L248.5,94.2L249.7,96.7L253.3,96.6L255.8,95.5L257.9,94.2L260.4,94.4L261.3,99.0L265.0,96.2L268.4,95.9L267.5,94.8L271.3,92.0L272.4,93.0L270.3,95.0L270.7,101.2L274.0,106.7L278.6,106.8L277.6,109.6L278.0,111.4L280.9,111.8L280.5,113.3L274.9,113.3L273.4,116.4L274.9,118.9L275.1,121.9L273.0,122.5L271.1,120.6L269.2,120.3L269.0,119.8L259.8,119.8L260.0,117.2L258.1,117.3L259.0,114.7L244.7,114.6L244.7,102.0L234.3,101.9Z"/>
    <path class="wtc-county" id="wtc-county-jefferson" data-county="Jefferson" d="M333.7,89.3L333.7,80.6L335.6,81.4L336.4,78.9L334.8,77.1L336.9,72.6L340.8,72.0L343.6,72.7L345.0,71.7L343.6,68.7L344.6,68.7L343.1,65.9L349.0,63.6L351.5,64.1L357.6,68.7L360.1,71.6L362.0,71.7L366.0,69.6L365.3,67.6L367.4,66.4L367.6,76.5L367.4,89.2L333.7,89.3Z"/>
    <path class="wtc-county" id="wtc-county-johnston" data-county="Johnston" d="M404.1,91.7L404.1,82.4L419.6,82.4L422.5,81.8L424.4,79.0L432.1,79.0L432.1,81.5L434.8,81.5L434.8,96.8L428.6,96.9L428.6,101.9L410.3,101.9L407.2,101.9L407.2,91.8L404.1,91.7Z"/>
    <path class="wtc-county" id="wtc-county-kay" data-county="Kay" d="M373.3,247.3L373.3,223.6L396.9,223.6L397.6,224.2L396.5,229.0L398.4,230.0L404.3,229.1L406.8,232.9L409.9,232.4L410.6,233.8L414.7,234.7L414.7,247.3L391.7,247.3L373.3,247.3Z"/>
    <path class="wtc-county" id="wtc-county-kingfisher" data-county="Kingfisher" d="M329.7,198.6L329.9,179.7L329.7,173.0L360.9,173.0L360.9,198.6L335.8,198.6L329.7,198.6Z"/>
    <path class="wtc-county" id="wtc-county-kiowa" data-county="Kiowa" d="M262.5,137.5L259.8,137.4L262.1,135.8L262.3,134.2L264.4,133.1L264.2,127.5L266.1,126.3L265.7,122.4L269.2,120.3L271.1,120.6L273.0,122.5L275.1,121.9L274.9,118.9L273.4,116.4L274.9,113.3L280.5,113.3L280.9,111.8L278.0,111.4L277.6,109.6L283.5,109.6L283.5,107.0L293.7,107.0L293.7,122.3L305.7,122.2L305.7,136.4L304.0,137.9L299.0,136.6L298.1,137.5L262.5,137.5Z"/>
    <path class="wtc-county" id="wtc-county-latimer" data-county="Latimer" d="M496.6,134.1L496.6,132.4L487.4,132.4L487.4,122.2L487.0,112.1L513.4,112.1L513.4,122.3L517.1,122.3L517.1,127.3L521.1,127.3L521.1,134.1L496.6,134.1Z"/>
    <path class="wtc-county" id="wtc-county-le-flore" data-county="Le Flore" d="M521.1,134.1L521.1,127.3L517.1,127.3L517.1,122.3L513.4,122.3L513.4,112.1L520.5,112.1L520.5,101.9L548.3,102.0L548.7,114.9L549.2,126.8L550.0,153.2L547.7,152.6L546.4,149.9L547.3,148.8L542.9,148.8L540.6,149.8L539.3,148.4L536.2,147.9L534.9,149.9L531.2,151.5L527.8,149.6L527.8,142.5L521.1,142.5L521.1,134.1Z"/>
    <path class="wtc-county" id="wtc-county-lincoln" data-county="Lincoln" d="M391.9,173.0L391.9,157.7L422.1,157.7L422.3,168.0L422.3,185.6L392.1,185.7L391.9,173.0Z"/>
    <path class="wtc-county" id="wtc-county-logan" data-county="Logan" d="M360.9,198.6L360.9,173.0L391.9,173.0L392.1,185.7L388.4,185.8L387.3,187.0L384.2,187.5L383.1,189.4L381.4,189.7L379.6,188.2L379.6,198.3L373.3,198.6L360.9,198.6Z"/>
    <path class="wtc-county" id="wtc-county-love" data-county="Love" d="M367.6,76.5L367.4,66.4L372.0,67.4L373.5,66.7L373.3,63.6L374.3,62.1L378.5,61.8L380.8,65.0L382.7,65.4L385.4,64.4L385.8,66.5L387.9,67.5L389.8,66.1L390.2,62.8L388.1,61.3L390.7,56.6L393.0,55.9L395.3,57.4L394.6,60.6L397.4,61.7L395.1,63.8L397.8,62.9L401.1,65.7L400.5,69.4L403.4,69.4L404.1,69.7L404.1,73.1L402.0,73.1L402.0,76.5L367.6,76.5Z"/>
    <path class="wtc-county" id="wtc-county-mcclain" data-county="McClain" d="M361.1,150.4L361.1,150.3L361.1,122.4L361.3,122.3L404.3,122.2L404.3,128.6L399.2,125.3L395.7,126.6L391.9,126.5L385.0,127.5L384.2,128.5L380.4,128.6L379.4,132.7L379.6,135.2L376.8,135.7L376.4,138.8L367.4,144.4L367.6,147.7L364.3,148.5L361.1,150.4Z"/>
    <path class="wtc-county" id="wtc-county-mccurtain" data-county="McCurtain" d="M507.7,81.5L507.9,68.7L509.8,68.3L514.0,64.4L518.6,64.3L520.1,61.4L524.5,57.5L527.0,57.3L530.1,58.1L532.2,55.2L533.9,54.1L537.4,54.2L537.6,53.0L541.0,53.7L545.0,50.0L546.9,51.3L547.5,68.9L547.9,83.4L548.3,102.0L520.5,101.9L514.2,102.0L514.2,86.6L508.1,86.6L507.7,81.5Z"/>
    <path class="wtc-county" id="wtc-county-mcintosh" data-county="McIntosh" d="M459.8,147.6L459.5,139.6L463.9,139.1L466.0,141.6L470.6,142.2L472.7,141.1L477.6,142.9L477.8,144.0L481.3,145.3L480.7,143.8L487.0,146.2L487.8,148.3L490.5,148.0L494.1,149.8L496.8,147.8L496.8,162.9L475.3,162.9L469.0,162.9L469.0,157.7L465.8,157.7L465.8,152.7L459.8,152.7L459.8,147.6Z"/>
    <path class="wtc-county" id="wtc-county-major" data-county="Major" d="M286.0,218.6L285.8,203.4L286.2,198.4L304.8,198.6L329.7,198.6L335.8,198.6L335.8,216.0L310.7,216.1L310.9,212.2L305.4,211.9L301.0,213.3L299.6,215.0L294.8,215.9L292.7,218.6L286.0,218.6Z"/>
    <path class="wtc-county" id="wtc-county-marshall" data-county="Marshall" d="M402.0,76.5L402.0,73.1L404.1,73.1L404.1,69.7L405.7,69.4L407.0,64.7L408.9,63.4L410.1,65.1L412.9,64.4L413.7,62.3L417.5,62.7L419.1,67.0L424.2,66.2L423.7,69.1L425.0,70.3L422.1,72.9L424.6,72.8L426.7,76.1L424.4,79.0L422.5,81.8L419.6,82.4L404.1,82.4L402.2,82.4L402.0,76.5Z"/>
    <path class="wtc-county" id="wtc-county-mayes" data-county="Mayes" d="M497.9,218.8L491.6,218.8L491.6,203.6L491.2,203.5L491.2,193.4L504.8,193.4L510.0,193.4L510.0,198.5L516.3,198.5L516.5,203.6L516.5,218.8L497.9,218.8Z"/>
    <path class="wtc-county" id="wtc-county-murray" data-county="Murray" d="M379.8,101.9L379.8,94.3L397.4,94.2L398.6,91.7L404.1,91.7L407.2,91.8L407.2,101.9L410.3,101.9L410.3,107.0L404.3,107.0L404.3,109.5L391.9,109.5L391.9,108.7L388.6,108.7L391.1,104.5L391.9,101.9L379.8,101.9Z"/>
    <path class="wtc-county" id="wtc-county-muskogee" data-county="Muskogee" d="M472.3,180.6L472.1,173.0L475.3,173.0L475.3,162.9L496.8,162.9L496.8,147.8L498.7,148.4L502.9,146.0L506.7,148.3L506.7,151.1L509.8,152.4L514.0,157.4L512.1,157.5L509.2,161.4L509.4,168.0L509.6,178.1L501.4,178.1L495.8,178.7L492.4,177.3L489.1,177.6L484.0,176.6L482.6,175.3L479.6,176.6L479.0,180.7L472.3,180.6Z"/>
    <path class="wtc-county" id="wtc-county-noble" data-county="Noble" d="M373.3,223.6L373.3,198.6L379.6,198.3L392.1,198.3L391.9,203.4L404.7,203.4L404.7,208.5L398.4,208.5L398.4,218.6L399.7,218.6L400.5,219.9L405.9,221.2L406.8,222.6L404.9,224.1L400.1,223.0L396.9,223.6L373.3,223.6Z"/>
    <path class="wtc-county" id="wtc-county-nowata" data-county="Nowata" d="M471.1,247.3L471.1,244.0L469.6,244.0L469.6,223.9L491.8,223.9L491.8,244.0L493.0,244.0L493.0,247.3L486.3,247.3L471.1,247.3Z"/>
    <path class="wtc-county" id="wtc-county-okfuskee" data-county="Okfuskee" d="M422.1,157.7L422.3,154.1L424.4,154.7L427.3,153.5L425.4,156.2L426.3,157.2L429.6,155.7L431.1,157.7L432.7,158.0L432.7,147.6L459.8,147.6L459.8,152.7L453.5,152.7L453.5,162.9L447.4,162.9L447.4,168.0L422.3,168.0L422.1,157.7Z"/>
    <path class="wtc-county" id="wtc-county-oklahoma" data-county="Oklahoma" d="M360.9,173.0L361.1,152.7L391.9,152.7L391.9,157.7L391.9,173.0L360.9,173.0Z"/>
    <path class="wtc-county" id="wtc-county-okmulgee" data-county="Okmulgee" d="M447.4,168.0L447.4,162.9L453.5,162.9L453.5,152.7L459.8,152.7L465.8,152.7L465.8,157.7L469.0,157.7L469.0,162.9L475.3,162.9L475.3,173.0L472.1,173.0L472.3,180.6L469.2,180.6L456.6,180.7L447.4,180.7L447.4,168.0Z"/>
    <path class="wtc-county" id="wtc-county-osage" data-county="Osage" d="M414.7,247.3L414.7,234.7L410.6,233.8L409.9,232.4L406.8,232.9L404.3,229.1L398.4,230.0L396.5,229.0L397.6,224.2L396.9,223.6L400.1,223.0L404.9,224.1L406.8,222.6L405.9,221.2L400.5,219.9L399.7,218.6L399.9,217.4L403.6,215.6L407.6,216.5L409.7,219.4L413.7,222.0L415.6,221.1L417.5,216.9L417.0,214.6L419.1,213.6L421.4,213.9L423.5,211.3L425.0,210.9L427.1,212.4L428.1,210.4L426.0,209.4L425.2,207.5L428.6,206.5L431.9,208.4L433.4,205.7L436.1,204.6L438.8,202.4L443.6,202.2L444.5,200.8L443.0,198.5L458.5,198.4L458.5,213.8L458.5,247.3L427.9,247.3L414.7,247.3Z"/>
    <path class="wtc-county" id="wtc-county-ottawa" data-county="Ottawa" d="M516.5,247.3L514.8,247.0L516.9,244.0L516.9,228.2L539.1,228.0L539.1,233.8L539.1,247.3L516.5,247.3Z"/>
    <path class="wtc-county" id="wtc-county-pawnee" data-county="Pawnee" d="M399.7,218.6L398.4,218.6L398.4,208.5L404.7,208.5L404.7,203.4L410.8,203.4L410.8,198.3L422.3,198.4L422.5,198.6L441.1,198.5L443.0,198.5L444.5,200.8L443.6,202.2L438.8,202.4L436.1,204.6L433.4,205.7L431.9,208.4L428.6,206.5L425.2,207.5L426.0,209.4L428.1,210.4L427.1,212.4L425.0,210.9L423.5,211.3L421.4,213.9L419.1,213.6L417.0,214.6L417.5,216.9L415.6,221.1L413.7,222.0L409.7,219.4L407.6,216.5L403.6,215.6L399.9,217.4L399.7,218.6Z"/>
    <path class="wtc-county" id="wtc-county-payne" data-county="Payne" d="M379.6,198.3L379.6,188.2L381.4,189.7L383.1,189.4L384.2,187.5L387.3,187.0L388.4,185.8L392.1,185.7L422.3,185.6L422.3,198.4L410.8,198.3L410.8,203.4L404.7,203.4L391.9,203.4L392.1,198.3L379.6,198.3Z"/>
    <path class="wtc-county" id="wtc-county-pittsburg" data-county="Pittsburg" d="M453.3,117.2L453.3,112.0L465.4,112.0L465.4,107.0L477.8,107.0L487.0,107.0L487.0,112.1L487.4,122.2L487.4,132.4L496.6,132.4L496.6,134.1L496.6,140.1L490.3,140.1L490.5,148.0L487.8,148.3L487.0,146.2L480.7,143.8L481.3,145.3L477.8,144.0L477.6,142.9L472.7,141.1L470.6,142.2L466.0,141.6L463.9,139.1L459.5,139.6L457.9,139.0L453.5,133.6L453.3,117.2Z"/>
    <path class="wtc-county" id="wtc-county-pontotoc" data-county="Pontotoc" d="M404.3,122.2L404.3,109.5L404.3,107.0L410.3,107.0L410.3,101.9L428.6,101.9L428.8,112.0L434.8,112.0L434.8,117.2L434.8,126.7L433.8,125.1L430.0,125.5L428.8,123.4L426.9,123.7L426.0,125.7L420.8,125.0L419.6,126.6L417.7,126.6L418.1,123.0L416.2,122.4L414.5,124.9L413.3,124.9L411.2,127.5L407.0,126.4L404.3,128.6L404.3,122.2Z"/>
    <path class="wtc-county" id="wtc-county-pottawatomie" data-county="Pottawatomie" d="M391.9,152.7L391.9,126.5L395.7,126.6L399.2,125.3L404.3,128.6L407.0,126.4L411.2,127.5L413.3,124.9L413.3,154.3L416.2,155.5L420.4,153.6L422.3,154.1L422.1,157.7L391.9,157.7L391.9,152.7Z"/>
    <path class="wtc-county" id="wtc-county-pushmataha" data-county="Pushmataha" d="M477.8,107.0L477.8,101.9L471.5,101.9L471.5,81.5L507.7,81.5L508.1,86.6L514.2,86.6L514.2,102.0L520.5,101.9L520.5,112.1L513.4,112.1L487.0,112.1L487.0,107.0L477.8,107.0Z"/>
    <path class="wtc-county" id="wtc-county-roger-mills" data-county="Roger Mills" d="M225.3,182.1L225.3,166.8L225.3,155.3L250.0,155.3L250.0,160.4L262.3,160.4L261.7,162.9L261.7,178.1L261.3,183.2L261.3,189.8L257.1,189.3L254.6,187.8L253.5,184.7L251.4,183.2L251.0,181.2L247.4,179.8L241.8,180.8L238.2,182.5L236.3,184.9L236.3,189.0L233.6,189.3L230.3,186.4L229.6,184.0L225.3,182.1Z"/>
    <path class="wtc-county" id="wtc-county-rogers" data-county="Rogers" d="M469.6,213.7L469.4,198.5L472.5,198.5L480.7,198.5L481.7,196.8L483.8,196.6L484.7,194.4L483.6,193.4L491.2,193.4L491.2,203.5L491.6,203.6L491.6,218.8L497.9,218.8L497.7,223.9L491.8,223.9L469.6,223.9L469.6,213.7Z"/>
    <path class="wtc-county" id="wtc-county-seminole" data-county="Seminole" d="M422.3,154.1L420.4,153.6L416.2,155.5L413.3,154.3L413.3,124.9L414.5,124.9L416.2,122.4L418.1,123.0L417.7,126.6L419.6,126.6L420.8,125.0L426.0,125.7L426.9,123.7L428.8,123.4L430.0,125.5L430.0,137.4L432.7,137.4L432.7,147.6L432.7,158.0L431.1,157.7L429.6,155.7L426.3,157.2L425.4,156.2L427.3,153.5L424.4,154.7L422.3,154.1Z"/>
    <path class="wtc-county" id="wtc-county-sequoyah" data-county="Sequoyah" d="M509.4,168.0L509.2,161.4L512.1,157.5L514.0,157.4L515.5,157.1L516.7,154.8L519.8,154.5L523.2,153.1L521.7,151.0L527.0,151.8L527.8,149.6L531.2,151.5L534.9,149.9L536.2,147.9L539.3,148.4L540.6,149.8L542.9,148.8L547.3,148.8L546.4,149.9L547.7,152.6L550.0,153.2L549.8,155.7L547.7,168.0L528.2,168.0L509.4,168.0Z"/>
    <path class="wtc-county" id="wtc-county-stephens" data-county="Stephens" d="M336.6,112.1L333.7,112.1L333.7,101.9L333.7,89.3L367.4,89.2L367.4,101.9L367.4,111.9L361.3,112.1L336.6,112.1Z"/>
    <path class="wtc-county" id="wtc-county-texas" data-county="Texas" d="M107.0,246.9L106.7,238.6L106.7,218.2L130.6,218.2L162.0,218.2L169.6,218.2L169.6,238.5L170.2,238.5L170.2,247.2L163.1,247.2L134.6,247.1L107.0,246.9Z"/>
    <path class="wtc-county" id="wtc-county-tillman" data-county="Tillman" d="M277.6,109.6L278.6,106.8L274.0,106.7L270.7,101.2L270.3,95.0L272.4,93.0L271.3,92.0L272.4,85.0L276.1,85.1L276.5,84.1L279.1,84.7L280.9,83.9L284.3,85.3L286.4,84.8L288.3,83.0L291.8,81.8L294.6,81.6L297.3,80.3L301.7,80.1L304.2,82.0L306.3,81.5L306.3,91.8L303.4,91.8L303.4,96.1L303.4,102.0L293.7,102.0L293.7,107.0L283.5,107.0L283.5,109.6L277.6,109.6Z"/>
    <path class="wtc-county" id="wtc-county-tulsa" data-county="Tulsa" d="M441.1,198.5L441.1,193.5L456.8,193.4L456.6,180.7L469.2,180.6L469.2,183.3L472.5,183.3L472.5,198.5L469.4,198.5L469.6,213.7L458.5,213.8L458.5,198.4L443.0,198.5L441.1,198.5Z"/>
    <path class="wtc-county" id="wtc-county-wagoner" data-county="Wagoner" d="M472.5,198.5L472.5,183.3L469.2,183.3L469.2,180.6L472.3,180.6L479.0,180.7L479.6,176.6L482.6,175.3L484.0,176.6L489.1,177.6L492.4,177.3L495.8,178.7L501.4,178.1L503.7,181.0L500.6,183.5L500.6,187.0L503.7,189.6L504.8,193.4L491.2,193.4L483.6,193.4L484.7,194.4L483.8,196.6L481.7,196.8L480.7,198.5L472.5,198.5Z"/>
    <path class="wtc-county" id="wtc-county-washington" data-county="Washington" d="M458.5,247.3L458.5,213.8L469.6,213.7L469.6,223.9L469.6,244.0L471.1,244.0L471.1,247.3L460.6,247.3L458.5,247.3Z"/>
    <path class="wtc-county" id="wtc-county-washita" data-county="Washita" d="M262.3,157.8L262.5,137.5L298.1,137.5L299.0,136.6L304.0,137.9L305.7,136.4L305.4,142.6L305.4,157.8L262.3,157.8Z"/>
    <path class="wtc-county" id="wtc-county-woods" data-county="Woods" d="M256.9,247.3L261.7,240.3L265.2,239.0L266.3,236.8L269.0,234.8L275.5,234.7L278.6,231.1L279.9,230.8L282.8,226.4L286.0,224.0L286.0,218.6L292.7,218.6L294.8,215.9L299.6,215.0L301.0,213.3L305.4,211.9L310.9,212.2L310.7,216.1L310.9,223.7L310.5,244.0L310.1,247.3L283.5,247.3L256.9,247.3Z"/>
    <path class="wtc-county" id="wtc-county-woodward" data-county="Woodward" d="M248.3,223.6L248.3,203.4L248.9,203.4L248.7,198.6L261.3,198.6L286.2,198.4L285.8,203.4L286.0,218.6L286.0,224.0L282.8,226.4L279.9,230.8L278.6,231.1L275.5,234.7L269.0,234.8L266.3,236.8L266.3,223.7L248.3,223.6Z"/>
  </g>
</svg>