<?xml version="1.0" encoding="UTF-8"?>
<svg xmlns="http://www.w3.org/2000/svg" viewBox="0 0 600 479" id="wtc-state-map-LA" role="img" aria-label="la county map">
  <title>la Counties</title>
  <g class="wtc-counties">
    <path class="wtc-county" id="wtc-county-acadia" data-county="Acadia" d="M185.0,186.1L188.4,180.3L185.0,176.3L186.0,172.6L185.3,162.1L188.7,157.5L185.3,152.9L185.6,148.9L192.2,151.2L197.0,147.6L204.9,144.8L209.3,146.4L217.9,154.2L221.7,157.8L221.4,159.6L228.6,163.2L228.6,165.9L231.7,168.7L228.6,173.5L228.6,181.9L222.0,181.8L222.0,186.0L198.0,186.0L185.0,186.1Z"/>
    <path class="wtc-county" id="wtc-county-allen" data-county="Allen" d="M151.6,224.1L151.6,197.4L137.2,197.3L137.2,180.6L143.4,180.7L143.4,182.1L171.2,181.9L171.2,186.8L185.0,186.8L189.4,194.3L188.0,196.0L188.0,225.8L166.4,225.2L166.4,223.8L151.6,224.1Z"/>
    <path class="wtc-county" id="wtc-county-ascension" data-county="Ascension" d="M339.1,170.8L334.0,155.5L330.9,150.4L330.9,146.1L340.5,147.6L344.6,146.4L349.1,150.9L375.2,156.0L376.2,161.3L374.5,162.3L370.4,156.8L368.0,158.2L364.9,163.2L363.2,163.0L357.7,168.1L357.3,170.6L351.5,173.1L342.2,173.1L339.1,170.8Z"/>
    <path class="wtc-county" id="wtc-county-assumption" data-county="Assumption" d="M319.6,142.5L316.1,140.1L316.5,137.4L320.6,131.2L323.0,125.6L328.2,124.5L332.3,121.1L331.6,111.3L330.9,105.9L333.0,104.3L340.5,112.8L346.0,120.2L351.9,131.0L351.9,133.9L348.1,133.8L348.1,138.0L345.0,137.9L344.6,146.4L340.5,147.6L330.9,146.1L319.6,142.5Z"/>
    <path class="wtc-county" id="wtc-county-avoyelles" data-county="Avoyelles" d="M218.6,232.4L218.6,229.7L222.4,225.5L222.7,221.2L225.1,221.3L262.9,221.2L263.9,222.7L263.9,233.1L269.1,237.6L271.8,240.0L273.6,245.9L272.2,248.7L276.3,253.8L263.3,258.4L261.2,261.2L254.0,264.2L250.5,261.8L251.6,258.6L246.1,257.4L244.4,262.8L244.7,266.9L243.0,268.5L237.2,267.8L233.4,265.0L229.6,264.8L226.9,267.7L223.1,266.5L223.1,246.8L225.5,232.1L218.6,232.4Z"/>
    <path class="wtc-county" id="wtc-county-beauregard" data-county="Beauregard" d="M96.4,223.2L96.7,219.0L93.6,216.3L90.5,211.1L89.5,205.1L85.4,203.0L84.7,197.5L79.9,195.0L78.8,191.7L81.3,189.7L83.0,182.2L78.8,178.5L103.2,178.6L103.2,187.0L112.8,187.0L112.8,178.6L137.2,178.6L137.2,180.6L137.2,197.3L151.6,197.4L151.6,224.1L136.9,224.1L134.8,224.6L108.0,224.4L103.9,222.3L99.8,224.2L96.4,223.2Z"/>
    <path class="wtc-county" id="wtc-county-bienville" data-county="Bienville" d="M113.9,370.7L109.1,369.5L111.1,366.7L108.7,361.0L110.8,358.6L108.7,354.0L129.3,354.0L129.3,349.8L131.7,345.6L155.4,345.6L167.4,345.5L168.8,351.6L171.2,354.0L170.9,374.8L161.3,374.9L160.9,387.4L132.4,387.4L133.1,381.8L135.5,375.0L126.9,374.9L126.9,370.6L113.9,370.7Z"/>
    <path class="wtc-county" id="wtc-county-bossier" data-county="Bossier" d="M71.6,429.0L71.3,424.8L68.9,422.3L73.0,420.6L70.9,417.7L74.4,413.4L73.4,408.7L74.0,404.1L71.3,401.9L74.7,399.6L77.8,390.8L76.1,388.5L78.8,388.0L77.5,382.8L83.0,378.7L84.7,372.9L84.0,370.4L89.5,369.6L90.2,365.3L96.4,363.1L98.1,359.2L105.6,355.3L104.6,354.1L108.7,354.0L110.8,358.6L108.7,361.0L111.1,366.7L109.1,369.5L113.9,370.7L107.3,370.7L107.0,379.1L107.0,404.2L104.3,406.4L106.3,410.1L103.6,420.1L100.8,420.9L98.8,424.8L99.8,428.9L72.7,429.0L71.6,429.0Z"/>
    <path class="wtc-county" id="wtc-county-caddo" data-county="Caddo" d="M50.0,397.7L50.0,369.0L50.0,350.2L58.6,350.2L67.5,355.7L68.5,359.4L74.0,364.0L77.5,364.3L81.3,361.7L86.1,361.8L90.9,357.2L90.9,354.2L104.6,354.1L105.6,355.3L98.1,359.2L96.4,363.1L90.2,365.3L89.5,369.6L84.0,370.4L84.7,372.9L83.0,378.7L77.5,382.8L78.8,388.0L76.1,388.5L77.8,390.8L74.7,399.6L71.3,401.9L74.0,404.1L73.4,408.7L74.4,413.4L70.9,417.7L73.0,420.6L68.9,422.3L71.3,424.8L71.6,429.0L50.0,429.0L50.0,415.7L50.0,397.7Z"/>
    <path class="wtc-county" id="wtc-county-calcasieu" data-county="Calcasieu" d="M78.8,178.5L77.1,177.4L76.4,172.0L81.9,167.7L82.3,163.4L80.6,160.1L83.7,153.6L79.5,147.9L82.6,146.3L80.6,145.0L137.2,145.1L137.2,143.8L149.9,143.8L149.9,148.0L160.6,148.1L158.5,150.8L159.9,155.0L149.9,155.1L149.9,165.1L146.8,165.0L146.8,176.4L137.2,176.4L137.2,178.6L112.8,178.6L112.8,187.0L103.2,187.0L103.2,178.6L78.8,178.5Z"/>
    <path class="wtc-county" id="wtc-county-caldwell" data-county="Caldwell" d="M215.5,345.4L215.5,324.5L244.7,324.4L254.3,324.5L254.3,328.7L256.0,328.7L254.7,331.0L254.0,339.6L258.1,340.2L255.4,346.0L255.4,347.1L247.1,347.4L247.5,352.1L244.7,353.4L246.1,357.9L242.0,358.0L235.1,357.9L235.1,356.2L230.6,356.2L229.6,357.9L215.5,358.0L215.5,345.4Z"/>
    <path class="wtc-county" id="wtc-county-cameron" data-county="Cameron" d="M67.9,127.2L61.3,122.7L60.6,120.7L63.7,118.2L69.6,110.5L78.5,114.8L84.3,115.9L104.3,118.0L116.6,117.4L121.4,118.5L132.8,118.1L146.8,114.8L154.7,112.2L174.3,103.9L186.3,100.5L186.7,118.5L186.3,143.7L174.7,143.6L149.9,143.8L137.2,143.8L137.2,145.1L80.6,145.0L78.8,142.1L74.0,138.9L71.6,132.5L67.9,127.2Z"/>
    <path class="wtc-county" id="wtc-county-catahoula" data-county="Catahoula" d="M244.7,266.9L244.4,262.8L246.1,257.4L251.6,258.6L250.5,261.8L254.0,264.2L261.2,261.2L262.2,263.8L258.4,264.7L258.4,269.7L260.2,271.8L265.7,271.6L259.1,276.3L259.1,283.2L262.2,282.7L263.9,277.8L270.5,277.0L270.5,280.5L264.6,281.0L266.3,286.5L261.9,290.5L262.9,294.9L267.0,297.8L270.5,294.5L273.6,297.2L272.5,300.4L274.2,305.8L280.1,305.5L283.5,308.7L288.7,304.9L289.0,307.7L285.6,311.9L286.6,314.9L285.9,320.2L283.9,320.2L283.9,328.5L279.1,328.6L277.0,324.3L271.2,320.2L266.3,319.2L260.2,327.0L256.0,328.7L254.3,328.7L254.3,324.5L244.7,324.4L244.4,294.6L244.7,266.9Z"/>
    <path class="wtc-county" id="wtc-county-claiborne" data-county="Claiborne" d="M126.9,428.8L126.9,400.0L131.7,400.0L133.1,392.1L132.4,387.4L160.9,387.4L163.0,390.8L162.3,396.3L166.1,399.8L166.1,404.0L176.0,404.1L176.0,428.5L150.6,428.7L126.9,428.8Z"/>
    <path class="wtc-county" id="wtc-county-concordia" data-county="Concordia" d="M289.0,307.7L288.7,304.9L283.5,308.7L280.1,305.5L274.2,305.8L272.5,300.4L273.6,297.2L270.5,294.5L267.0,297.8L262.9,294.9L261.9,290.5L266.3,286.5L264.6,281.0L270.5,280.5L270.5,277.0L263.9,277.8L262.2,282.7L259.1,283.2L259.1,276.3L265.7,271.6L260.2,271.8L258.4,269.7L258.4,264.7L262.2,263.8L261.2,261.2L263.3,258.4L276.3,253.8L272.2,248.7L273.6,245.9L271.8,240.0L278.0,239.9L278.0,235.2L277.7,233.0L280.1,235.7L284.5,237.4L287.0,242.2L281.5,246.3L281.1,248.6L284.5,254.1L279.4,258.2L279.7,261.3L285.9,260.7L291.8,262.4L292.4,265.9L288.3,269.0L288.0,272.7L285.6,274.0L288.7,277.2L290.0,273.1L292.8,270.7L295.9,271.3L295.9,273.6L291.4,279.8L291.1,285.9L297.9,287.4L302.1,290.2L300.7,292.9L294.5,291.8L291.4,294.3L293.1,297.4L296.6,295.1L302.7,295.1L303.1,303.8L304.8,305.9L302.7,307.8L289.0,307.7Z"/>
    <path class="wtc-county" id="wtc-county-de-soto" data-county="De Soto" d="M50.0,350.2L50.0,330.7L52.7,329.7L56.5,323.8L62.7,321.2L65.5,316.5L107.3,316.6L107.3,323.2L115.6,324.9L110.8,330.3L107.3,330.4L103.6,334.5L103.6,336.9L97.7,341.5L100.8,344.1L99.5,348.8L92.9,351.1L90.9,354.2L90.9,357.2L86.1,361.8L81.3,361.7L77.5,364.3L74.0,364.0L68.5,359.4L67.5,355.7L58.6,350.2L50.0,350.2Z"/>
    <path class="wtc-county" id="wtc-county-east-baton-rouge" data-county="East Baton Rouge" d="M312.4,202.2L311.7,194.9L315.5,194.8L317.5,191.4L313.7,189.4L315.8,188.4L320.9,190.1L322.3,182.2L318.5,176.0L318.5,173.0L324.4,173.0L327.5,171.0L339.1,170.8L342.2,173.1L351.5,173.1L347.0,175.2L341.9,184.3L344.0,188.3L342.6,190.1L343.6,193.9L342.2,196.1L347.4,198.8L349.5,202.2L355.3,208.9L316.8,207.6L312.4,202.2Z"/>
    <path class="wtc-county" id="wtc-county-east-carroll" data-county="East Carroll" d="M298.3,387.1L299.7,385.1L297.3,382.9L328.2,382.9L330.6,385.3L334.3,385.3L336.7,386.6L340.2,389.0L338.5,393.3L336.4,389.5L329.5,387.4L327.5,388.5L326.4,392.8L329.5,395.9L335.0,398.7L335.7,400.9L325.1,403.3L325.4,409.2L327.1,412.2L334.3,416.5L335.0,419.7L331.9,425.6L328.2,425.3L328.5,419.8L323.7,417.6L320.6,419.4L321.6,423.4L325.1,427.5L315.8,427.6L314.1,422.4L311.3,421.0L311.3,416.6L308.6,413.9L307.9,403.8L302.7,397.7L303.1,389.8L298.3,387.1Z"/>
    <path class="wtc-county" id="wtc-county-east-feliciana" data-county="East Feliciana" d="M324.0,235.7L323.0,229.7L318.5,219.0L318.5,216.2L314.4,212.7L313.0,208.5L310.3,207.0L311.3,202.6L312.4,202.2L316.8,207.6L355.3,208.9L356.7,217.9L354.6,222.3L355.6,225.1L354.3,230.2L357.7,235.7L335.4,235.7L324.0,235.7Z"/>
    <path class="wtc-county" id="wtc-county-evangeline" data-county="Evangeline" d="M185.0,186.8L185.0,186.1L198.0,186.0L200.8,187.5L201.4,190.6L205.6,191.6L220.3,191.6L220.3,194.4L225.1,194.4L225.1,198.8L228.9,204.5L228.9,213.6L225.5,215.1L225.1,221.3L222.7,221.2L222.4,225.5L218.6,229.7L218.6,232.4L213.8,232.2L209.0,235.8L199.4,231.1L199.4,227.9L196.6,225.8L188.0,225.8L188.0,196.0L189.4,194.3L185.0,186.8Z"/>
    <path class="wtc-county" id="wtc-county-franklin" data-county="Franklin" d="M255.4,346.0L258.1,340.2L254.0,339.6L254.7,331.0L256.0,328.7L260.2,327.0L266.3,319.2L271.2,320.2L277.0,324.3L279.1,328.6L283.9,328.5L283.9,320.2L285.9,320.2L292.1,324.8L290.4,327.6L293.5,330.5L292.1,333.4L294.2,340.0L292.8,345.4L293.8,350.9L289.7,350.9L291.1,355.7L290.7,360.2L295.9,361.7L294.5,366.5L297.9,366.7L295.5,370.3L280.4,370.2L274.2,366.8L271.8,363.3L268.1,363.5L266.7,354.7L262.6,351.9L261.5,348.8L255.4,346.0Z"/>
    <path class="wtc-county" id="wtc-county-grant" data-county="Grant" d="M152.3,303.6L153.0,300.8L158.9,298.9L158.5,295.4L168.8,292.9L176.4,285.3L179.1,280.9L177.7,278.9L182.2,272.9L185.0,273.1L216.2,279.6L226.5,281.4L222.4,283.8L219.0,283.2L219.0,287.0L214.8,290.5L215.9,292.1L208.7,295.1L211.7,295.5L210.4,297.8L212.1,302.4L209.7,302.9L212.4,308.4L210.7,311.9L186.0,312.0L186.0,303.6L152.3,303.6Z"/>
    <path class="wtc-county" id="wtc-county-iberia" data-county="Iberia" d="M248.8,143.6L246.1,138.6L248.1,124.1L251.2,122.6L256.0,124.4L261.5,123.7L262.2,119.9L259.5,120.2L256.7,116.8L258.8,114.8L272.9,125.4L281.1,134.8L295.9,135.9L316.5,137.4L316.1,140.1L319.6,142.5L315.1,145.8L305.8,145.7L294.5,145.7L292.4,143.3L283.5,143.3L282.5,146.6L277.7,150.6L273.6,151.7L267.7,150.4L268.1,148.8L262.6,144.3L257.1,146.6L249.9,147.1L248.8,143.6ZM243.7,101.0L242.3,99.2L262.6,89.8L267.4,91.3L267.7,94.6L272.9,97.6L270.8,100.0L267.7,99.4L259.8,104.4L252.3,104.9L251.2,102.8L247.1,103.2L243.7,101.0Z"/>
    <path class="wtc-county" id="wtc-county-iberville" data-county="Iberville" d="M273.9,187.7L279.7,182.4L281.5,169.8L287.3,163.3L295.5,162.0L296.6,149.9L303.8,149.9L305.8,145.7L315.1,145.8L319.6,142.5L330.9,146.1L330.9,150.4L334.0,155.5L339.1,170.8L327.5,171.0L311.3,170.9L310.3,173.0L303.1,179.2L299.7,183.5L294.5,187.7L287.6,186.3L285.2,187.7L273.9,187.7Z"/>
    <path class="wtc-county" id="wtc-county-jackson" data-county="Jackson" d="M170.9,374.8L171.2,354.0L168.8,351.6L167.4,345.5L215.5,345.4L215.5,358.0L215.5,362.2L205.6,370.5L205.6,378.8L185.6,378.9L186.0,374.7L170.9,374.8Z"/>
    <path class="wtc-county" id="wtc-county-jefferson" data-county="Jefferson" d="M412.0,155.7L409.9,144.8L409.9,137.0L410.9,131.0L413.7,126.8L420.5,122.7L414.7,110.6L421.9,109.3L421.6,98.9L418.8,98.3L423.6,90.0L431.9,88.5L434.6,85.4L433.2,79.7L433.9,76.1L436.7,72.9L431.2,66.4L428.1,60.1L445.9,72.6L443.2,76.5L440.5,85.6L438.7,87.4L438.7,95.5L437.7,96.9L438.0,103.5L436.3,104.1L435.3,108.9L430.2,115.1L430.2,123.7L433.9,126.0L436.0,130.1L431.2,134.8L430.2,132.5L426.4,131.3L423.3,132.3L424.7,137.5L426.4,155.9L421.6,158.2L412.0,155.7Z"/>
    <path class="wtc-county" id="wtc-county-jefferson-davis" data-county="Jefferson Davis" d="M137.2,180.6L137.2,178.6L137.2,176.4L146.8,176.4L146.8,165.0L149.9,165.1L149.9,155.1L159.9,155.0L158.5,150.8L160.6,148.1L149.9,148.0L149.9,143.8L174.7,143.6L185.6,148.9L185.3,152.9L188.7,157.5L185.3,162.1L186.0,172.6L185.0,176.3L188.4,180.3L185.0,186.1L185.0,186.8L171.2,186.8L171.2,181.9L143.4,182.1L143.4,180.7L137.2,180.6Z"/>
    <path class="wtc-county" id="wtc-county-lafayette" data-county="Lafayette" d="M217.9,154.2L225.8,153.7L233.0,151.2L236.8,152.3L238.9,147.1L248.8,143.6L249.9,147.1L254.3,154.9L253.0,158.1L247.1,157.5L247.5,160.3L250.9,162.7L247.5,165.0L250.2,166.5L248.5,171.2L249.9,174.5L246.4,175.3L242.3,174.6L240.6,176.6L237.5,174.6L236.8,171.6L231.7,168.7L228.6,165.9L228.6,163.2L221.4,159.6L221.7,157.8L217.9,154.2Z"/>
    <path class="wtc-county" id="wtc-county-lafourche" data-county="Lafourche" d="M400.6,54.8L404.7,50.5L407.5,51.6L403.0,57.0L400.6,54.8ZM351.9,131.0L346.0,120.2L340.5,112.8L352.5,113.0L352.2,115.8L356.3,115.8L359.1,118.6L363.2,111.0L369.0,108.0L373.8,102.5L377.3,101.6L381.7,97.9L388.3,90.1L392.0,87.6L396.5,81.7L399.9,79.4L400.6,71.5L403.7,72.1L407.5,69.9L411.6,61.7L409.5,61.4L410.2,58.1L414.4,56.7L413.0,53.4L415.4,52.5L428.1,60.1L431.2,66.4L436.7,72.9L433.9,76.1L433.2,79.7L434.6,85.4L431.9,88.5L423.6,90.0L418.8,98.3L421.6,98.9L421.9,109.3L414.7,110.6L403.7,110.7L402.0,112.1L401.0,117.1L395.5,118.7L391.0,122.2L390.7,125.5L385.9,129.1L376.6,130.1L373.8,129.5L370.7,131.0L361.5,132.6L361.5,131.2L351.9,131.0Z"/>
    <path class="wtc-county" id="wtc-county-lasalle" data-county="LaSalle" d="M210.7,311.9L212.4,308.4L209.7,302.9L212.1,302.4L210.4,297.8L211.7,295.5L208.7,295.1L215.9,292.1L214.8,290.5L219.0,287.0L219.0,283.2L222.4,283.8L226.5,281.4L229.9,280.5L231.0,274.5L237.5,270.7L237.2,267.8L243.0,268.5L244.7,266.9L244.4,294.6L244.7,324.4L215.5,324.5L215.5,321.5L210.7,311.9Z"/>
    <path class="wtc-county" id="wtc-county-lincoln" data-county="Lincoln" d="M176.0,404.1L166.1,404.0L166.1,399.8L162.3,396.3L163.0,390.8L160.9,387.4L161.3,374.9L170.9,374.8L186.0,374.7L185.6,378.9L205.6,378.8L205.6,387.2L205.6,395.5L195.6,395.6L195.6,400.4L193.2,400.1L190.8,403.1L184.3,404.1L176.0,404.1Z"/>
    <path class="wtc-county" id="wtc-county-livingston" data-county="Livingston" d="M349.5,202.2L347.4,198.8L342.2,196.1L343.6,193.9L342.6,190.1L344.0,188.3L341.9,184.3L347.0,175.2L351.5,173.1L357.3,170.6L357.7,168.1L363.2,163.0L364.9,163.2L368.0,158.2L370.4,156.8L374.5,162.3L376.2,161.3L383.8,158.8L387.9,162.1L390.3,166.5L390.0,174.1L386.9,179.7L384.5,181.3L382.4,186.7L382.4,202.3L349.5,202.2Z"/>
    <path class="wtc-county" id="wtc-county-madison" data-county="Madison" d="M338.1,342.9L340.5,346.5L335.4,348.4L336.1,343.3L338.1,342.9ZM295.5,370.3L297.9,366.7L294.5,366.5L295.9,361.7L290.7,360.2L291.1,355.7L289.7,350.9L293.8,350.9L310.3,350.8L315.1,353.5L318.5,351.6L323.4,354.9L328.2,355.3L329.2,351.6L335.0,352.4L337.4,354.6L342.2,352.1L344.0,355.5L343.3,359.9L347.4,359.2L352.9,365.7L351.5,367.2L349.5,363.9L341.6,365.3L341.6,370.1L344.3,371.7L341.6,374.6L338.1,372.9L330.2,377.0L331.3,381.7L333.0,381.8L338.8,377.9L342.2,378.4L340.5,380.6L333.7,383.8L334.3,385.3L330.6,385.3L328.2,382.9L297.3,382.9L294.5,378.8L295.5,370.3Z"/>
    <path class="wtc-county" id="wtc-county-morehouse" data-county="Morehouse" d="M238.9,427.9L237.2,423.8L237.2,415.8L239.9,411.6L239.2,400.6L239.9,398.2L247.8,399.5L252.6,393.1L250.9,387.6L254.7,380.7L253.6,379.8L256.0,383.4L260.9,381.1L260.9,383.4L263.9,386.1L269.4,384.8L273.6,390.1L276.6,389.9L280.1,395.3L279.7,398.7L283.9,403.1L283.2,406.8L287.0,413.3L292.1,415.5L299.3,427.7L296.9,427.7L238.9,427.9Z"/>
    <path class="wtc-county" id="wtc-county-natchitoches" data-county="Natchitoches" d="M107.3,316.6L107.3,304.1L117.3,304.1L117.3,287.2L126.9,287.3L126.9,270.6L150.3,270.3L151.3,269.0L154.7,269.0L162.0,275.9L167.4,278.0L176.4,285.3L168.8,292.9L158.5,295.4L158.9,298.9L153.0,300.8L152.3,303.6L152.7,310.5L155.4,315.1L154.7,317.8L158.5,317.1L160.9,329.6L158.9,339.2L155.4,345.6L131.7,345.6L135.2,341.4L133.8,340.4L136.5,336.8L134.5,332.3L137.9,328.8L126.9,328.8L126.2,322.9L122.8,320.7L116.3,321.7L115.6,324.9L107.3,323.2L107.3,316.6Z"/>
    <path class="wtc-county" id="wtc-county-orleans" data-county="Orleans" d="M426.4,155.9L424.7,137.5L423.3,132.3L426.4,131.3L430.2,132.5L431.2,134.8L436.0,130.1L442.9,129.8L445.3,127.4L443.5,132.5L439.4,132.8L435.6,134.9L437.7,139.1L441.1,138.3L446.6,140.3L450.4,139.8L454.2,144.2L463.8,142.8L462.8,146.1L466.9,147.3L467.6,150.4L472.7,154.6L466.9,156.8L464.1,155.5L461.1,157.1L458.0,155.4L453.8,157.3L445.9,159.1L432.9,155.0L426.4,155.9Z"/>
    <path class="wtc-county" id="wtc-county-ouachita" data-county="Ouachita" d="M205.6,378.8L205.6,370.5L215.5,362.2L215.5,358.0L229.6,357.9L230.6,356.2L235.1,356.2L235.1,357.9L242.0,358.0L244.4,366.2L246.8,371.0L250.5,374.4L253.6,379.8L254.7,380.7L250.9,387.6L252.6,393.1L247.8,399.5L239.9,398.2L239.2,400.6L236.8,397.3L224.1,389.9L223.8,387.9L219.3,387.0L205.6,387.2L205.6,378.8Z"/>
    <path class="wtc-county" id="wtc-county-plaquemines" data-county="Plaquemines" d="M472.4,95.6L475.1,93.0L478.2,96.4L472.4,95.6ZM436.0,130.1L433.9,126.0L430.2,123.7L430.2,115.1L435.3,108.9L436.3,104.1L438.0,103.5L437.7,96.9L438.7,95.5L438.7,87.4L440.5,85.6L443.2,76.5L445.9,72.6L451.8,74.9L471.0,72.2L474.5,68.5L486.1,65.0L490.9,58.6L495.1,56.2L500.5,58.6L501.9,63.7L505.4,61.8L505.7,57.6L502.6,55.7L502.6,51.2L499.5,49.5L497.8,45.6L494.7,43.2L492.3,37.7L497.5,41.0L508.1,52.4L510.9,51.1L511.5,46.5L518.8,43.6L518.1,47.2L522.2,55.1L526.0,53.1L528.7,57.4L523.2,57.6L523.9,60.4L532.1,61.6L529.7,65.0L523.6,62.7L521.5,63.7L521.5,68.6L513.3,77.7L509.5,74.1L502.6,81.6L501.6,79.1L496.1,81.9L488.5,82.1L486.8,83.8L483.7,81.3L481.3,85.1L481.7,87.9L477.5,89.9L477.9,91.7L471.0,92.6L467.2,95.5L466.9,98.3L471.0,99.5L466.9,102.1L466.9,104.2L474.8,100.1L474.8,102.8L468.6,106.0L473.8,105.5L476.5,106.9L481.3,106.5L485.8,103.8L481.3,108.5L477.9,108.0L472.4,109.5L466.9,112.9L463.5,116.9L456.6,117.2L454.2,121.1L450.1,120.3L445.3,127.4L442.9,129.8L436.0,130.1Z"/>
    <path class="wtc-county" id="wtc-county-pointe-coupee" data-county="Pointe Coupee" d="M269.1,237.6L263.9,233.1L263.9,222.7L262.9,221.2L263.6,217.7L267.4,215.2L270.8,207.4L270.8,203.9L268.8,193.9L270.8,188.9L268.8,187.7L273.9,187.7L285.2,187.7L287.6,186.3L294.5,187.7L294.8,189.0L301.4,189.0L303.1,194.5L306.2,196.4L311.3,202.3L309.3,203.1L305.2,212.5L297.9,210.5L288.0,210.0L284.2,213.4L289.4,215.8L291.4,221.5L291.1,225.2L288.3,227.8L282.1,227.9L287.0,224.6L287.6,221.3L281.5,220.5L277.7,222.1L279.4,228.9L277.7,233.0L278.0,235.2L275.3,237.5L269.1,237.6Z"/>
    <path class="wtc-county" id="wtc-county-rapides" data-county="Rapides" d="M151.3,269.0L153.0,267.6L161.3,266.2L161.3,263.4L166.1,259.9L166.1,236.8L166.4,225.2L188.0,225.8L196.6,225.8L199.4,227.9L199.4,231.1L209.0,235.8L213.8,232.2L218.6,232.4L225.5,232.1L223.1,246.8L223.1,266.5L226.9,267.7L229.6,264.8L233.4,265.0L237.2,267.8L237.5,270.7L231.0,274.5L229.9,280.5L226.5,281.4L216.2,279.6L185.0,273.1L182.2,272.9L177.7,278.9L179.1,280.9L176.4,285.3L167.4,278.0L162.0,275.9L154.7,269.0L151.3,269.0Z"/>
    <path class="wtc-county" id="wtc-county-red-river" data-county="Red River" d="M90.9,354.2L92.9,351.1L99.5,348.8L100.8,344.1L97.7,341.5L103.6,336.9L103.6,334.5L107.3,330.4L110.8,330.3L115.6,324.9L116.3,321.7L122.8,320.7L126.2,322.9L126.9,328.8L137.9,328.8L134.5,332.3L136.5,336.8L133.8,340.4L135.2,341.4L131.7,345.6L129.3,349.8L129.3,354.0L108.7,354.0L104.6,354.1L90.9,354.2Z"/>
    <path class="wtc-county" id="wtc-county-richland" data-county="Richland" d="M253.6,379.8L250.5,374.4L246.8,371.0L244.4,366.2L242.0,358.0L246.1,357.9L244.7,353.4L247.5,352.1L247.1,347.4L255.4,347.1L255.4,346.0L261.5,348.8L262.6,351.9L266.7,354.7L268.1,363.5L271.8,363.3L274.2,366.8L280.4,370.2L295.5,370.3L294.5,378.8L297.3,382.9L299.7,385.1L298.3,387.1L283.9,387.1L283.9,395.3L280.1,395.3L276.6,389.9L273.6,390.1L269.4,384.8L263.9,386.1L260.9,383.4L260.9,381.1L256.0,383.4L253.6,379.8Z"/>
    <path class="wtc-county" id="wtc-county-sabine" data-county="Sabine" d="M65.5,316.5L65.8,314.4L70.9,309.9L70.3,307.1L73.0,302.5L70.6,299.0L71.6,295.3L69.9,291.8L74.4,286.2L78.8,285.7L79.9,282.8L77.8,280.6L82.6,277.7L82.3,275.0L85.0,273.8L86.1,269.8L84.0,265.4L88.1,261.6L90.2,261.7L92.2,252.6L96.7,253.5L96.7,258.5L98.4,262.2L107.3,262.2L112.2,270.6L126.9,270.6L126.9,287.3L117.3,287.2L117.3,304.1L107.3,304.1L107.3,316.6L65.5,316.5Z"/>
    <path class="wtc-county" id="wtc-county-st-bernard" data-county="St. Bernard" d="M543.8,145.2L547.9,136.5L548.3,132.7L546.9,124.5L544.2,117.1L545.5,116.8L549.0,125.5L550.0,133.8L548.3,140.0L543.8,145.2ZM499.5,145.8L500.2,143.9L506.0,143.1L509.5,143.9L510.5,140.1L515.7,144.2L511.2,146.9L510.5,149.2L515.0,154.4L514.3,155.5L503.3,148.9L499.5,145.8ZM450.4,139.8L446.6,140.3L441.1,138.3L437.7,139.1L435.6,134.9L439.4,132.8L443.5,132.5L445.3,127.4L450.1,120.3L454.2,121.1L456.6,117.2L463.5,116.9L466.9,112.9L472.4,109.5L477.9,108.0L481.3,108.5L482.0,113.9L485.8,113.9L487.8,106.8L490.9,107.2L491.3,115.3L495.4,119.9L500.2,119.0L503.3,116.8L505.7,121.7L501.9,119.9L497.5,125.3L508.1,127.1L509.1,129.5L501.6,129.3L505.7,132.9L510.2,132.9L511.5,137.5L506.0,139.5L502.3,132.8L497.1,131.6L496.1,136.6L490.9,138.0L490.9,140.8L496.8,143.6L496.8,145.3L492.3,144.8L486.1,147.6L485.1,144.0L476.9,139.6L477.5,138.5L475.8,130.2L473.8,127.8L469.3,126.9L464.1,128.5L461.4,131.3L462.8,136.1L458.3,134.1L454.2,133.8L451.4,135.8L450.4,139.8Z"/>
    <path class="wtc-county" id="wtc-county-st-charles" data-county="St. Charles" d="M412.0,155.7L405.4,154.5L403.4,151.6L397.9,148.1L393.8,143.3L391.0,143.5L385.2,141.4L384.1,137.0L385.9,137.0L385.9,129.1L390.7,125.5L391.0,122.2L395.5,118.7L401.0,117.1L402.0,112.1L403.7,110.7L414.7,110.6L420.5,122.7L413.7,126.8L410.9,131.0L409.9,137.0L409.9,144.8L412.0,155.7Z"/>
    <path class="wtc-county" id="wtc-county-st-helena" data-county="St. Helena" d="M355.3,208.9L349.5,202.2L382.4,202.3L382.4,235.8L357.7,235.7L354.3,230.2L355.6,225.1L354.6,222.3L356.7,217.9L355.3,208.9Z"/>
    <path class="wtc-county" id="wtc-county-st-james" data-county="St. James" d="M344.6,146.4L345.0,137.9L348.1,138.0L348.1,133.8L351.9,133.9L351.9,131.0L361.5,131.2L361.5,132.6L370.7,131.0L373.8,129.5L372.8,138.3L370.7,143.5L373.5,144.9L372.5,149.0L374.2,149.3L375.2,156.0L349.1,150.9L344.6,146.4Z"/>
    <path class="wtc-county" id="wtc-county-st-john-the-baptist" data-county="St. John the Baptist" d="M375.2,156.0L374.2,149.3L372.5,149.0L373.5,144.9L370.7,143.5L372.8,138.3L373.8,129.5L376.6,130.1L385.9,129.1L385.9,137.0L384.1,137.0L385.2,141.4L391.0,143.5L393.8,143.3L397.9,148.1L403.4,151.6L405.4,154.5L412.0,155.7L421.6,158.2L421.2,162.5L407.8,168.3L390.3,166.5L387.9,162.1L383.8,158.8L376.2,161.3L375.2,156.0Z"/>
    <path class="wtc-county" id="wtc-county-st-landry" data-county="St. Landry" d="M225.1,221.3L225.5,215.1L228.9,213.6L228.9,204.5L225.1,198.8L225.1,194.4L220.3,194.4L220.3,191.6L205.6,191.6L201.4,190.6L200.8,187.5L198.0,186.0L222.0,186.0L222.0,181.8L228.6,181.9L228.6,173.5L231.7,168.7L236.8,171.6L237.5,174.6L240.6,176.6L242.3,174.6L246.4,175.3L247.5,179.0L251.2,177.9L257.8,180.0L263.3,177.8L276.0,177.8L268.8,187.7L270.8,188.9L268.8,193.9L270.8,203.9L270.8,207.4L267.4,215.2L263.6,217.7L262.9,221.2L225.1,221.3Z"/>
    <path class="wtc-county" id="wtc-county-st-martin" data-county="St. Martin" d="M295.9,135.9L301.4,131.0L305.2,124.2L304.1,119.4L307.2,117.7L320.3,116.2L323.7,114.1L328.2,113.7L331.6,111.3L332.3,121.1L328.2,124.5L323.0,125.6L320.6,131.2L316.5,137.4L295.9,135.9ZM268.8,187.7L276.0,177.8L263.3,177.8L257.8,180.0L251.2,177.9L247.5,179.0L246.4,175.3L249.9,174.5L248.5,171.2L250.2,166.5L247.5,165.0L250.9,162.7L247.5,160.3L247.1,157.5L253.0,158.1L254.3,154.9L249.9,147.1L257.1,146.6L262.6,144.3L268.1,148.8L267.7,150.4L273.6,151.7L277.7,150.6L282.5,146.6L283.5,143.3L292.4,143.3L294.5,145.7L305.8,145.7L303.8,149.9L296.6,149.9L295.5,162.0L287.3,163.3L281.5,169.8L279.7,182.4L273.9,187.7L268.8,187.7Z"/>
    <path class="wtc-county" id="wtc-county-st-mary" data-county="St. Mary" d="M258.8,114.8L259.1,112.1L266.0,115.3L270.5,116.1L281.5,114.8L281.1,107.8L279.1,105.1L288.0,105.0L290.0,95.3L293.5,95.9L296.9,89.4L306.9,93.5L310.3,90.2L307.2,87.9L306.2,84.7L309.6,85.3L308.9,81.9L313.4,83.0L318.2,86.3L314.8,90.3L315.1,95.8L318.2,96.8L320.9,101.0L324.0,102.8L325.4,101.1L333.0,104.3L330.9,105.9L331.6,111.3L328.2,113.7L323.7,114.1L320.3,116.2L307.2,117.7L304.1,119.4L305.2,124.2L301.4,131.0L295.9,135.9L281.1,134.8L272.9,125.4L258.8,114.8Z"/>
    <path class="wtc-county" id="wtc-county-st-tammany" data-county="St. Tammany" d="M412.3,208.2L413.3,202.0L413.3,174.7L418.5,169.8L421.2,162.5L421.6,158.2L426.4,155.9L432.9,155.0L445.9,159.1L453.8,157.3L458.0,155.4L461.1,157.1L464.1,155.5L466.9,156.8L472.7,154.6L476.2,154.5L482.0,157.3L477.9,157.3L473.4,161.5L472.0,166.9L472.0,172.5L466.9,178.9L466.2,184.1L459.7,188.4L458.3,191.6L454.9,194.4L454.2,200.7L451.1,203.8L436.7,203.9L412.3,208.2Z"/>
    <path class="wtc-county" id="wtc-county-tangipahoa" data-county="Tangipahoa" d="M382.4,235.8L382.4,202.3L382.4,186.7L384.5,181.3L386.9,179.7L390.0,174.1L390.3,166.5L407.8,168.3L421.2,162.5L418.5,169.8L413.3,174.7L413.3,202.0L412.3,208.2L411.6,213.3L406.5,225.3L403.4,226.7L403.4,235.8L384.1,235.8L382.4,235.8Z"/>
    <path class="wtc-county" id="wtc-county-tensas" data-county="Tensas" d="M285.9,320.2L286.6,314.9L285.6,311.9L289.0,307.7L302.7,307.8L304.8,305.9L310.6,307.1L316.1,308.6L306.2,309.5L308.6,317.2L312.7,318.1L313.4,314.6L315.8,313.2L317.5,315.5L315.1,317.9L317.2,319.0L323.7,323.6L323.0,327.7L325.4,329.8L331.9,330.9L331.9,335.0L325.4,337.2L327.1,339.2L331.6,336.0L333.3,339.0L338.1,342.4L338.1,342.9L336.1,343.3L325.1,344.2L325.8,350.7L329.2,351.6L328.2,355.3L323.4,354.9L318.5,351.6L315.1,353.5L310.3,350.8L293.8,350.9L292.8,345.4L294.2,340.0L292.1,333.4L293.5,330.5L290.4,327.6L292.1,324.8L285.9,320.2Z"/>
    <path class="wtc-county" id="wtc-county-terrebonne" data-county="Terrebonne" d="M383.1,53.4L390.0,50.0L396.5,50.7L383.1,53.4ZM364.9,49.8L365.2,48.3L374.2,49.9L373.5,51.3L364.9,49.8ZM318.2,86.3L320.3,85.8L320.3,82.3L328.2,77.0L329.5,68.5L324.4,69.9L324.7,75.5L322.3,73.7L318.2,77.9L315.5,78.9L313.0,74.2L308.9,73.0L314.4,68.1L319.9,66.0L328.5,65.0L331.9,62.3L340.9,60.6L344.6,61.7L350.8,57.0L355.3,51.5L353.6,49.8L359.1,48.4L361.1,54.7L367.7,57.4L370.4,56.4L372.1,61.1L374.9,60.5L376.2,65.0L378.6,67.2L382.8,66.8L379.3,72.0L381.4,74.2L383.8,71.7L386.2,73.5L391.0,72.4L395.5,77.6L398.9,73.0L398.6,69.4L400.3,68.9L400.6,71.5L399.9,79.4L396.5,81.7L392.0,87.6L388.3,90.1L381.7,97.9L377.3,101.6L373.8,102.5L369.0,108.0L363.2,111.0L359.1,118.6L356.3,115.8L352.2,115.8L352.5,113.0L340.5,112.8L333.0,104.3L325.4,101.1L324.0,102.8L320.9,101.0L318.2,96.8L315.1,95.8L314.8,90.3L318.2,86.3Z"/>
    <path class="wtc-county" id="wtc-county-union" data-county="Union" d="M176.0,428.5L176.0,404.1L184.3,404.1L190.8,403.1L193.2,400.1L195.6,400.4L195.6,395.6L205.6,395.5L205.6,387.2L219.3,387.0L223.8,387.9L224.1,389.9L236.8,397.3L239.2,400.6L239.9,411.6L237.2,415.8L237.2,423.8L238.9,427.9L176.0,428.5Z"/>
    <path class="wtc-county" id="wtc-county-vermilion" data-county="Vermilion" d="M185.6,148.9L174.7,143.6L186.3,143.7L186.7,118.5L186.3,100.5L214.5,95.3L221.4,96.0L230.3,100.1L241.3,100.5L239.2,102.2L243.7,103.3L242.0,104.8L235.1,103.1L232.3,108.3L235.4,110.7L229.3,111.4L226.2,113.9L226.2,116.5L232.3,117.8L234.4,115.2L239.2,118.0L247.5,120.9L248.1,124.1L246.1,138.6L248.8,143.6L238.9,147.1L236.8,152.3L233.0,151.2L225.8,153.7L217.9,154.2L209.3,146.4L204.9,144.8L197.0,147.6L192.2,151.2L185.6,148.9Z"/>
    <path class="wtc-county" id="wtc-county-vernon" data-county="Vernon" d="M96.7,253.5L98.8,253.4L96.7,245.0L99.5,242.5L100.1,238.1L95.7,236.3L95.3,233.6L99.5,229.1L96.4,227.3L96.4,223.2L99.8,224.2L103.9,222.3L108.0,224.4L134.8,224.6L136.9,224.1L151.6,224.1L166.4,223.8L166.4,225.2L166.1,236.8L166.1,259.9L161.3,263.4L161.3,266.2L153.0,267.6L151.3,269.0L150.3,270.3L126.9,270.6L112.2,270.6L107.3,262.2L98.4,262.2L96.7,258.5L96.7,253.5Z"/>
    <path class="wtc-county" id="wtc-county-washington" data-county="Washington" d="M403.4,235.8L403.4,226.7L406.5,225.3L411.6,213.3L412.3,208.2L436.7,203.9L451.1,203.8L451.4,207.7L454.2,210.6L452.8,213.6L455.2,215.6L458.3,225.9L460.7,227.4L460.4,231.1L462.8,233.0L462.8,236.0L452.5,235.9L412.0,235.8L403.4,235.8Z"/>
    <path class="wtc-county" id="wtc-county-webster" data-county="Webster" d="M99.8,428.9L98.8,424.8L100.8,420.9L103.6,420.1L106.3,410.1L104.3,406.4L107.0,404.2L107.0,379.1L107.3,370.7L113.9,370.7L126.9,370.6L126.9,374.9L135.5,375.0L133.1,381.8L132.4,387.4L133.1,392.1L131.7,400.0L126.9,400.0L126.9,428.8L102.9,428.9L99.8,428.9Z"/>
    <path class="wtc-county" id="wtc-county-west-baton-rouge" data-county="West Baton Rouge" d="M309.3,203.1L311.3,202.3L306.2,196.4L303.1,194.5L301.4,189.0L294.8,189.0L294.5,187.7L299.7,183.5L303.1,179.2L310.3,173.0L311.3,170.9L327.5,171.0L324.4,173.0L318.5,173.0L318.5,176.0L322.3,182.2L320.9,190.1L315.8,188.4L313.7,189.4L317.5,191.4L315.5,194.8L311.7,194.9L312.4,202.2L311.3,202.6L309.3,203.1Z"/>
    <path class="wtc-county" id="wtc-county-west-carroll" data-county="West Carroll" d="M299.3,427.7L292.1,415.5L287.0,413.3L283.2,406.8L283.9,403.1L279.7,398.7L280.1,395.3L283.9,395.3L283.9,387.1L298.3,387.1L303.1,389.8L302.7,397.7L307.9,403.8L308.6,413.9L311.3,416.6L311.3,421.0L314.1,422.4L315.8,427.6L299.3,427.7Z"/>
    <path class="wtc-county" id="wtc-county-west-feliciana" data-county="West Feliciana" d="M280.1,235.7L277.7,233.0L279.4,228.9L277.7,222.1L281.5,220.5L287.6,221.3L287.0,224.6L282.1,227.9L288.3,227.8L291.1,225.2L291.4,221.5L289.4,215.8L284.2,213.4L288.0,210.0L297.9,210.5L305.2,212.5L309.3,203.1L311.3,202.6L310.3,207.0L313.0,208.5L314.4,212.7L318.5,216.2L318.5,219.0L323.0,229.7L324.0,235.7L280.1,235.7ZM271.8,240.0L269.1,237.6L275.3,237.5L278.0,235.2L278.0,239.9L271.8,240.0Z"/>
    <path class="wtc-county" id="wtc-county-winn" data-county="Winn" d="M155.4,345.6L158.9,339.2L160.9,329.6L158.5,317.1L154.7,317.8L155.4,315.1L152.7,310.5L152.3,303.6L186.0,303.6L186.0,312.0L210.7,311.9L215.5,321.5L215.5,324.5L215.5,345.4L167.4,345.5L155.4,345.6Z"/>
  </g>
</svg>