<?xml version="1.0" encoding="UTF-8"?>
<svg xmlns="http://www.w3.org/2000/svg" viewBox="0 0 600 375" id="wtc-state-map-CT" role="img" aria-label="ct county map">
  <title>ct Counties</title>
  <g class="wtc-counties">
    <path class="wtc-county" id="wtc-county-fairfield" data-county="Fairfield" d="M97.2,226.6L95.4,244.8L113.0,266.3L50.0,295.1L68.5,317.7L67.6,325.0L81.5,317.3L89.8,320.6L110.2,308.6L137.0,306.2L146.3,299.1L141.7,294.2L163.0,288.0L169.4,290.9L191.7,278.0L203.7,283.1L209.3,277.6L205.6,274.9L209.3,261.9L219.4,243.5L207.4,235.5L188.9,215.8L157.4,200.3L140.7,194.9L138.0,188.3L123.1,194.3L122.2,186.3L109.3,156.4L103.7,149.1L100.9,185.2L97.2,226.6Z"/>
    <path class="wtc-county" id="wtc-county-hartford" data-county="Hartford" d="M235.2,53.1L229.6,71.7L266.7,70.2L259.3,89.7L252.8,90.1L249.1,100.7L250.9,113.2L233.3,115.2L241.7,156.2L252.8,154.8L254.6,164.4L250.9,177.4L268.5,175.9L277.8,180.5L288.9,173.2L300.9,171.7L311.1,165.2L311.1,159.3L364.8,154.2L375.0,170.6L389.8,165.7L389.8,158.4L379.6,147.7L372.2,111.4L364.8,112.3L367.6,99.0L362.0,100.1L363.0,77.3L368.5,76.6L363.9,54.2L338.9,55.1L300.0,53.8L297.2,62.4L284.3,63.7L285.2,53.8L235.2,53.1Z"/>
    <path class="wtc-county" id="wtc-county-litchfield" data-county="Litchfield" d="M112.0,50.2L103.7,149.1L109.3,156.4L122.2,186.3L123.1,194.3L138.0,188.3L140.7,194.9L157.4,200.3L154.6,191.2L197.2,188.1L194.4,177.4L213.0,174.1L222.2,164.6L241.7,156.2L233.3,115.2L250.9,113.2L249.1,100.7L252.8,90.1L259.3,89.7L266.7,70.2L229.6,71.7L235.2,53.1L223.1,52.9L125.9,50.0L112.0,50.2Z"/>
    <path class="wtc-county" id="wtc-county-middlesex" data-county="Middlesex" d="M375.0,170.6L364.8,154.2L311.1,159.3L311.1,165.2L300.9,171.7L305.6,195.8L302.8,212.0L326.9,208.0L337.0,221.5L337.0,235.9L354.6,248.8L356.5,255.2L378.7,249.2L392.6,249.2L395.4,253.7L407.4,248.8L405.6,237.5L397.2,230.8L396.3,221.7L386.1,220.4L383.3,211.8L416.7,208.5L412.0,183.2L383.3,183.9L375.0,170.6Z"/>
    <path class="wtc-county" id="wtc-county-new-haven" data-county="New Haven" d="M241.7,156.2L222.2,164.6L213.0,174.1L194.4,177.4L197.2,188.1L154.6,191.2L157.4,200.3L188.9,215.8L207.4,235.5L219.4,243.5L209.3,261.9L205.6,274.9L209.3,277.6L224.1,267.0L235.2,267.0L252.8,248.8L261.1,245.0L263.9,258.3L300.9,252.3L317.6,257.4L324.1,251.7L348.1,251.9L356.5,255.2L354.6,248.8L337.0,235.9L337.0,221.5L326.9,208.0L302.8,212.0L305.6,195.8L300.9,171.7L288.9,173.2L277.8,180.5L268.5,175.9L250.9,177.4L254.6,164.4L252.8,154.8L241.7,156.2Z"/>
    <path class="wtc-county" id="wtc-county-new-london" data-county="New London" d="M375.0,170.6L383.3,183.9L412.0,183.2L416.7,208.5L383.3,211.8L386.1,220.4L396.3,221.7L397.2,230.8L405.6,237.5L407.4,248.8L440.7,245.9L446.3,237.7L461.1,243.9L473.1,238.6L489.8,239.3L509.3,233.9L525.0,234.4L531.5,238.6L538.9,232.2L536.1,215.3L547.2,213.5L550.0,167.2L550.0,155.9L532.4,154.8L508.3,157.5L456.5,148.8L454.6,151.5L433.3,136.9L426.9,146.4L409.3,155.0L411.1,165.0L389.8,165.7L375.0,170.6Z"/>
    <path class="wtc-county" id="wtc-county-tolland" data-county="Tolland" d="M363.9,54.2L368.5,76.6L363.0,77.3L362.0,100.1L367.6,99.0L364.8,112.3L372.2,111.4L379.6,147.7L389.8,158.4L389.8,165.7L411.1,165.0L409.3,155.0L426.9,146.4L433.3,136.9L454.6,126.7L452.8,105.6L438.9,105.6L438.9,73.9L469.4,73.7L468.5,55.8L460.2,55.3L363.9,54.2Z"/>
    <path class="wtc-county" id="wtc-county-windham" data-county="Windham" d="M468.5,55.8L469.4,73.7L438.9,73.9L438.9,105.6L452.8,105.6L454.6,126.7L433.3,136.9L454.6,151.5L456.5,148.8L508.3,157.5L532.4,154.8L550.0,155.9L550.0,134.0L547.2,84.8L547.2,61.1L546.3,57.1L468.5,55.8Z"/>
  </g>
</svg>