<?xml version="1.0" encoding="UTF-8"?>
<svg xmlns="http://www.w3.org/2000/svg" viewBox="0 0 542 600" id="wtc-state-map-ID" role="img" aria-label="id county map">
  <title>id Counties</title>
  <g class="wtc-counties">
    <path class="wtc-county" id="wtc-county-ada" data-county="Ada" d="M102.0,179.7L102.0,167.4L104.8,167.4L104.8,154.9L102.0,154.9L102.2,142.9L108.3,143.1L111.7,138.6L111.2,135.9L114.7,133.7L117.3,130.7L119.6,130.2L140.1,130.2L140.3,164.3L135.7,167.0L118.6,179.7L102.0,179.7Z"/>
    <path class="wtc-county" id="wtc-county-adams" data-county="Adams" d="M82.8,270.3L78.2,266.3L77.4,263.2L79.2,259.7L76.9,255.5L74.3,253.4L94.0,253.2L94.0,240.7L95.6,237.3L100.9,237.3L100.9,228.5L109.6,225.1L117.3,225.1L121.7,226.6L123.4,229.9L127.5,229.0L125.5,235.3L127.3,242.9L123.7,248.6L124.5,254.9L127.0,257.8L127.5,260.6L130.4,263.1L129.1,265.4L132.2,269.2L128.6,270.6L128.3,272.4L116.8,272.5L118.3,273.9L114.2,283.9L89.7,283.9L86.6,274.7L83.3,272.3L82.8,270.3Z"/>
    <path class="wtc-county" id="wtc-county-bannock" data-county="Bannock" d="M419.3,123.7L377.1,123.7L373.5,121.5L370.9,121.4L370.4,118.7L371.2,115.4L373.7,117.6L377.8,118.0L381.9,120.3L386.8,115.9L387.0,107.2L388.3,107.2L388.3,103.1L391.1,103.1L391.1,100.5L394.0,99.0L394.0,96.9L396.8,96.9L396.3,91.6L394.2,91.3L394.0,86.7L396.5,86.7L399.3,82.8L402.7,83.2L402.9,78.4L400.4,75.6L400.6,73.9L404.2,73.6L405.2,75.8L410.3,75.8L412.6,71.9L414.9,71.2L424.9,71.2L424.9,69.1L431.1,69.1L431.3,80.5L432.6,80.5L432.1,85.7L429.8,88.2L429.8,94.8L427.7,96.2L427.7,98.9L425.9,102.1L419.8,102.1L416.2,100.7L413.9,104.4L413.4,107.2L415.2,110.1L413.2,114.7L414.7,118.2L418.0,118.6L417.5,120.3L420.1,121.5L419.3,123.7Z"/>
    <path class="wtc-county" id="wtc-county-bear-lake" data-county="Bear Lake" d="M491.7,87.5L490.7,86.6L483.0,84.6L478.4,85.0L479.2,91.7L477.9,93.9L475.1,90.2L468.9,92.9L452.3,92.9L449.7,91.5L453.8,81.5L452.3,80.4L452.3,78.7L455.6,75.9L453.1,74.1L453.3,71.4L455.1,70.6L451.3,68.4L450.5,65.6L451.8,61.8L453.3,61.0L452.3,57.9L458.4,55.8L459.0,50.8L491.7,51.0L491.7,87.5Z"/>
    <path class="wtc-county" id="wtc-county-benewah" data-county="Benewah" d="M64.3,433.4L64.3,425.8L64.6,416.4L69.7,415.6L68.9,413.7L71.2,412.1L74.8,412.9L79.2,409.7L106.0,410.0L106.0,408.9L115.0,408.9L115.0,436.9L96.8,436.9L93.8,435.9L93.8,433.8L86.1,433.8L86.1,434.8L80.7,434.5L80.7,433.4L64.3,433.4Z"/>
    <path class="wtc-county" id="wtc-county-bingham" data-county="Bingham" d="M352.0,130.1L352.0,112.4L365.6,112.4L367.1,113.4L370.4,118.7L370.9,121.4L373.5,121.5L377.1,123.7L419.3,123.7L453.1,123.6L453.1,142.2L436.4,142.2L436.4,148.2L420.6,148.3L420.8,151.4L416.5,151.4L416.5,152.5L386.8,152.5L386.8,166.8L374.0,166.6L374.0,160.6L365.6,160.4L365.6,154.2L357.1,154.2L356.3,142.4L352.0,142.4L352.0,130.1Z"/>
    <path class="wtc-county" id="wtc-county-blaine" data-county="Blaine" d="M212.0,189.0L210.2,187.3L210.7,183.3L220.7,180.3L220.2,178.6L224.0,179.4L227.1,178.6L230.2,180.2L232.0,175.6L233.8,174.8L232.2,171.0L234.0,169.3L232.5,164.2L239.4,162.0L238.6,160.0L241.2,157.7L245.0,156.2L242.2,153.2L243.7,150.6L243.2,145.9L253.2,145.4L252.9,140.5L254.5,140.5L254.5,136.4L301.6,136.4L323.1,136.4L323.1,111.4L319.0,111.4L319.0,98.6L325.9,99.9L330.7,95.7L335.6,95.4L335.6,99.0L339.7,99.0L339.7,105.2L335.6,105.2L335.1,111.3L335.1,130.1L352.0,130.1L352.0,142.4L326.7,142.4L326.7,148.3L307.2,148.4L307.2,157.6L304.6,157.8L302.6,163.8L300.5,164.2L295.7,162.7L294.4,164.9L290.1,168.5L283.1,172.6L280.8,176.7L279.0,177.3L276.2,174.5L272.9,175.0L271.1,177.3L261.6,181.4L260.4,185.4L255.5,184.4L251.9,186.0L245.0,186.2L243.5,182.4L239.6,182.9L238.1,185.9L232.7,188.3L223.3,188.3L223.3,193.0L218.9,193.0L212.0,189.0Z"/>
    <path class="wtc-county" id="wtc-county-boise" data-county="Boise" d="M123.4,204.2L119.1,204.2L118.6,179.7L135.7,167.0L140.3,164.3L147.5,164.3L150.6,165.3L154.9,168.5L160.3,169.6L165.4,174.1L164.7,175.3L167.7,179.1L170.8,178.7L171.6,182.5L174.1,185.6L183.8,188.1L189.5,188.9L195.9,198.4L193.6,200.5L198.2,198.8L200.2,192.3L205.1,189.2L207.1,190.5L210.5,189.8L212.3,192.2L211.2,194.2L206.4,196.1L210.0,199.6L206.6,202.0L208.7,203.5L204.1,206.0L202.3,205.6L197.9,207.9L198.4,210.5L197.2,214.6L189.5,216.6L189.0,217.6L184.9,218.3L184.9,215.2L174.4,210.1L131.6,210.3L130.4,204.2L123.4,204.2Z"/>
    <path class="wtc-county" id="wtc-county-bonner" data-county="Bonner" d="M64.3,481.9L64.3,477.0L93.5,477.0L93.5,478.0L102.7,478.0L102.7,470.8L115.0,470.9L115.0,479.9L119.1,483.1L121.9,483.5L127.0,480.2L130.1,481.0L135.2,477.0L135.0,494.1L135.2,514.5L82.8,514.4L82.5,539.1L65.1,539.0L64.8,532.1L64.8,505.1L64.3,481.9Z"/>
    <path class="wtc-county" id="wtc-county-bonneville" data-county="Bonneville" d="M386.8,166.8L386.8,152.5L416.5,152.5L416.5,151.4L420.8,151.4L420.6,148.3L436.4,148.2L436.4,142.2L453.1,142.2L453.1,123.6L492.0,123.5L492.0,144.6L492.0,157.9L491.2,159.2L484.8,161.1L480.2,160.9L477.6,166.5L466.6,166.5L450.5,166.8L386.8,166.8Z"/>
    <path class="wtc-county" id="wtc-county-boundary" data-county="Boundary" d="M65.1,549.9L65.1,539.0L82.5,539.1L82.8,514.4L135.2,514.5L135.2,550.0L108.9,549.9L65.1,549.9Z"/>
    <path class="wtc-county" id="wtc-county-butte" data-county="Butte" d="M329.7,210.1L322.8,210.1L322.8,197.7L320.0,197.7L320.8,187.3L320.0,184.7L323.3,183.5L325.6,179.9L321.0,179.8L320.5,177.4L314.9,173.4L298.2,166.6L295.7,162.7L300.5,164.2L302.6,163.8L304.6,157.8L307.2,157.6L307.2,148.4L326.7,148.3L326.7,142.4L352.0,142.4L356.3,142.4L357.1,154.2L365.6,154.2L365.6,160.4L374.0,160.6L374.0,166.6L374.3,191.4L353.0,191.5L352.8,210.1L329.7,210.1Z"/>
    <path class="wtc-county" id="wtc-county-camas" data-county="Camas" d="M210.7,183.3L208.4,180.8L206.9,175.3L209.2,173.2L207.4,170.1L207.4,166.3L204.1,165.2L203.8,136.2L238.9,136.3L254.5,136.4L254.5,140.5L252.9,140.5L253.2,145.4L243.2,145.9L243.7,150.6L242.2,153.2L245.0,156.2L241.2,157.7L238.6,160.0L239.4,162.0L232.5,164.2L234.0,169.3L232.2,171.0L233.8,174.8L232.0,175.6L230.2,180.2L227.1,178.6L224.0,179.4L220.2,178.6L220.7,180.3L210.7,183.3Z"/>
    <path class="wtc-county" id="wtc-county-canyon" data-county="Canyon" d="M68.7,184.9L65.9,183.4L65.4,179.8L65.4,170.7L69.7,169.7L70.5,167.5L73.5,165.2L80.5,163.4L83.0,159.7L83.0,156.3L90.4,150.7L94.3,148.6L97.3,144.0L102.2,142.9L102.0,154.9L104.8,154.9L104.8,167.4L102.0,167.4L102.0,179.7L87.9,179.7L77.9,178.7L74.8,179.7L73.5,181.8L70.5,181.8L70.5,184.9L68.7,184.9Z"/>
    <path class="wtc-county" id="wtc-county-caribou" data-county="Caribou" d="M419.3,123.7L420.1,121.5L417.5,120.3L418.0,118.6L414.7,118.2L413.2,114.7L415.2,110.1L413.4,107.2L413.9,104.4L416.2,100.7L419.8,102.1L425.9,102.1L427.7,98.9L427.7,96.2L429.8,94.8L429.8,88.2L432.1,85.7L432.6,80.5L452.3,80.4L453.8,81.5L449.7,91.5L452.3,92.9L468.9,92.9L475.1,90.2L477.9,93.9L479.2,91.7L478.4,85.0L483.0,84.6L490.7,86.6L491.7,87.5L492.0,102.4L492.0,123.5L453.1,123.6L419.3,123.7Z"/>
    <path class="wtc-county" id="wtc-county-cassia" data-county="Cassia" d="M281.1,88.3L276.5,87.5L276.2,80.6L260.9,80.6L261.1,50.4L278.3,50.4L293.9,50.0L352.5,50.7L352.5,74.2L352.2,92.8L340.0,92.9L340.0,95.6L335.6,95.4L330.7,95.7L325.9,99.9L319.0,98.6L317.4,98.9L311.6,96.9L305.9,89.1L299.8,88.1L297.0,90.5L293.4,89.0L289.0,90.0L286.0,89.0L281.1,88.3Z"/>
    <path class="wtc-county" id="wtc-county-clark" data-county="Clark" d="M352.8,210.1L353.0,191.5L374.3,191.4L374.3,197.6L412.6,197.6L421.3,197.6L421.3,203.7L430.0,203.7L430.0,206.8L433.9,206.8L434.4,216.1L438.7,216.1L438.7,222.1L451.0,222.1L451.0,232.6L444.9,233.4L444.1,232.2L436.4,229.8L433.1,233.6L427.5,233.1L424.2,231.6L421.6,232.4L416.2,230.6L414.2,231.9L410.6,231.4L407.5,233.6L403.4,234.0L401.1,231.9L398.8,231.9L398.3,228.1L396.3,225.4L390.1,227.7L388.1,226.5L385.3,227.9L376.8,228.1L372.5,229.4L368.1,228.0L364.3,223.6L365.8,220.3L365.8,209.9L352.8,210.1Z"/>
    <path class="wtc-county" id="wtc-county-clearwater" data-county="Clearwater" d="M106.0,380.9L106.6,371.6L112.2,371.8L112.2,369.4L116.5,365.5L124.5,365.5L126.5,362.6L129.3,361.3L133.2,361.8L138.5,357.9L141.6,356.6L149.3,356.2L154.4,355.1L157.2,358.8L158.3,362.7L164.7,367.2L164.9,369.8L238.9,381.2L235.3,384.1L236.8,386.5L233.0,388.6L226.6,385.7L225.0,386.8L226.6,390.1L217.9,393.7L213.8,397.3L214.8,401.6L212.5,402.6L150.8,402.6L115.0,402.7L115.0,380.8L106.0,380.9Z"/>
    <path class="wtc-county" id="wtc-county-custer" data-county="Custer" d="M223.3,251.1L216.3,247.4L213.0,244.8L203.6,248.3L199.2,245.5L200.0,244.3L197.9,239.6L195.6,238.0L189.7,236.8L188.2,234.4L189.7,230.5L192.8,230.0L193.8,227.8L192.3,221.0L189.0,217.6L189.5,216.6L197.2,214.6L198.4,210.5L197.9,207.9L202.3,205.6L204.1,206.0L208.7,203.5L206.6,202.0L210.0,199.6L206.4,196.1L211.2,194.2L212.3,192.2L210.5,189.8L212.0,189.0L218.9,193.0L223.3,193.0L223.3,188.3L232.7,188.3L238.1,185.9L239.6,182.9L243.5,182.4L245.0,186.2L251.9,186.0L255.5,184.4L260.4,185.4L261.6,181.4L271.1,177.3L272.9,175.0L276.2,174.5L279.0,177.3L280.8,176.7L283.1,172.6L290.1,168.5L294.4,164.9L295.7,162.7L298.2,166.6L314.9,173.4L320.5,177.4L321.0,179.8L325.6,179.9L323.3,183.5L320.0,184.7L320.8,187.3L320.0,197.7L322.8,197.7L322.8,210.1L329.7,210.1L328.2,216.0L323.6,220.7L320.5,225.7L316.7,223.5L310.5,225.1L305.4,225.5L303.4,226.8L294.1,228.7L283.1,237.6L280.8,238.7L275.2,247.4L271.6,245.5L265.7,246.7L266.8,248.9L267.3,254.9L262.4,254.0L261.4,252.1L256.8,250.0L256.0,247.5L252.4,246.2L254.7,244.0L253.7,241.4L250.1,239.9L249.1,237.1L244.5,236.5L240.7,234.5L238.1,236.0L238.6,237.6L234.0,240.7L230.4,239.8L222.7,246.7L224.3,250.1L223.3,251.1Z"/>
    <path class="wtc-county" id="wtc-county-elmore" data-county="Elmore" d="M119.6,130.2L125.0,128.0L124.2,125.6L128.6,124.6L128.3,123.1L135.0,121.1L137.8,118.5L141.1,118.1L140.6,120.0L143.2,122.3L149.6,119.9L153.4,120.2L154.9,117.7L160.3,117.8L165.4,119.0L166.7,117.7L172.1,118.1L174.1,116.9L178.5,117.3L178.5,111.5L177.4,111.6L177.4,105.6L207.1,105.6L207.1,115.8L203.8,116.0L203.8,136.2L204.1,165.2L207.4,166.3L207.4,170.1L209.2,173.2L206.9,175.3L208.4,180.8L210.7,183.3L210.2,187.3L212.0,189.0L210.5,189.8L207.1,190.5L205.1,189.2L200.2,192.3L198.2,198.8L193.6,200.5L195.9,198.4L189.5,188.9L183.8,188.1L174.1,185.6L171.6,182.5L170.8,178.7L167.7,179.1L164.7,175.3L165.4,174.1L160.3,169.6L154.9,168.5L150.6,165.3L147.5,164.3L140.3,164.3L140.1,130.2L119.6,130.2Z"/>
    <path class="wtc-county" id="wtc-county-franklin" data-county="Franklin" d="M414.9,71.2L418.8,67.8L418.8,62.9L416.0,63.0L416.0,50.7L459.0,50.8L458.4,55.8L452.3,57.9L453.3,61.0L451.8,61.8L450.5,65.6L451.3,68.4L455.1,70.6L453.3,71.4L453.1,74.1L455.6,75.9L452.3,78.7L452.3,80.4L432.6,80.5L431.3,80.5L431.1,69.1L424.9,69.1L424.9,71.2L414.9,71.2Z"/>
    <path class="wtc-county" id="wtc-county-fremont" data-county="Fremont" d="M412.6,197.6L412.6,191.4L425.4,191.4L425.4,188.2L435.4,188.2L435.4,186.2L445.4,186.2L445.4,185.1L455.4,185.1L457.2,187.7L461.0,188.3L464.8,187.1L466.6,187.9L470.0,189.7L473.0,187.7L478.2,189.8L481.7,188.6L487.1,191.2L491.7,192.3L491.5,218.7L491.7,227.3L486.3,228.7L484.8,231.7L478.7,235.3L479.2,237.9L472.0,245.1L468.2,247.0L465.6,244.1L460.8,244.0L461.8,241.9L457.7,235.9L461.5,232.0L453.3,233.6L451.0,232.6L451.0,222.1L438.7,222.1L438.7,216.1L434.4,216.1L433.9,206.8L430.0,206.8L430.0,203.7L421.3,203.7L421.3,197.6L412.6,197.6Z"/>
    <path class="wtc-county" id="wtc-county-gem" data-county="Gem" d="M106.3,204.2L106.3,198.1L100.7,198.2L100.7,194.1L97.9,194.1L97.9,192.0L87.9,192.1L87.9,179.7L102.0,179.7L118.6,179.7L119.1,204.2L123.4,204.2L123.4,216.5L127.8,216.6L127.5,229.0L123.4,229.9L121.7,226.6L117.3,225.1L115.8,223.5L115.3,218.9L113.7,216.4L114.2,213.2L113.0,204.2L106.3,204.2Z"/>
    <path class="wtc-county" id="wtc-county-gooding" data-county="Gooding" d="M203.8,136.2L203.8,116.0L207.1,115.8L212.8,116.1L216.9,112.1L214.3,108.8L214.6,105.6L219.9,104.7L220.7,101.8L223.3,98.2L228.1,98.9L237.3,97.2L237.1,111.5L238.9,111.5L238.9,136.3L203.8,136.2Z"/>
    <path class="wtc-county" id="wtc-county-idaho" data-county="Idaho" d="M82.0,325.8L84.3,322.9L88.9,323.2L91.5,320.4L96.3,320.2L100.4,317.3L100.4,314.1L103.7,311.1L105.5,307.7L99.4,301.1L99.1,297.8L96.6,296.4L90.4,287.2L89.7,283.9L114.2,283.9L118.3,273.9L116.8,272.5L128.3,272.4L129.8,276.1L132.9,275.7L140.3,280.4L140.3,278.7L210.0,278.8L231.7,278.8L233.0,281.4L238.1,285.8L233.5,289.2L229.9,293.0L224.5,295.9L224.5,301.0L230.9,299.8L234.0,298.3L236.1,301.7L241.4,305.1L243.0,308.0L240.9,310.2L245.5,312.5L245.8,315.4L240.9,319.9L245.5,325.4L251.9,325.5L253.7,328.1L250.4,331.5L251.9,334.5L247.1,336.1L246.0,339.4L248.3,343.0L244.0,345.0L244.5,348.0L249.4,348.4L249.1,353.3L247.6,355.1L250.9,356.6L251.2,363.7L254.5,367.7L252.7,371.9L255.8,372.1L258.3,379.6L257.6,383.1L255.5,383.8L248.9,382.4L247.8,381.1L242.2,382.0L238.9,381.2L164.9,369.8L164.7,367.2L158.3,362.7L157.2,358.8L154.4,355.1L149.3,356.2L141.6,356.6L138.5,357.9L133.2,361.8L129.3,361.3L126.5,362.6L131.9,355.2L137.5,352.5L134.7,351.0L128.1,351.1L124.7,346.9L120.4,348.2L108.1,350.4L106.3,349.8L104.3,344.7L102.0,345.2L102.0,338.7L100.7,336.0L95.3,338.6L92.5,338.3L92.5,335.7L88.6,335.8L84.5,331.9L86.6,328.5L82.0,325.8Z"/>
    <path class="wtc-county" id="wtc-county-jefferson" data-county="Jefferson" d="M374.3,191.4L374.0,166.6L386.8,166.8L450.5,166.8L450.5,168.9L443.9,168.9L439.5,170.4L435.9,173.2L428.8,176.9L424.9,175.9L425.4,179.0L425.4,188.2L425.4,191.4L412.6,191.4L412.6,197.6L374.3,197.6L374.3,191.4Z"/>
    <path class="wtc-county" id="wtc-county-jerome" data-county="Jerome" d="M238.9,111.5L237.1,111.5L237.3,97.2L242.7,96.0L248.1,93.6L254.5,93.5L257.6,91.7L263.7,90.7L268.3,88.8L271.9,86.1L278.3,88.5L281.1,88.3L286.0,89.0L286.0,105.4L277.8,105.4L277.8,108.5L256.5,108.6L255.2,111.5L238.9,111.5Z"/>
    <path class="wtc-county" id="wtc-county-kootenai" data-county="Kootenai" d="M64.3,477.0L64.3,433.4L80.7,433.4L80.7,434.5L86.1,434.8L86.1,433.8L93.8,433.8L93.8,435.9L96.8,436.9L115.0,436.9L115.0,470.9L102.7,470.8L102.7,478.0L93.5,478.0L93.5,477.0L64.3,477.0Z"/>
    <path class="wtc-county" id="wtc-county-latah" data-county="Latah" d="M64.6,416.4L64.6,374.7L87.4,374.8L88.9,377.9L94.3,380.9L106.0,380.9L115.0,380.8L115.0,402.7L115.0,408.9L106.0,408.9L106.0,410.0L79.2,409.7L74.8,412.9L71.2,412.1L68.9,413.7L69.7,415.6L64.6,416.4Z"/>
    <path class="wtc-county" id="wtc-county-lemhi" data-county="Lemhi" d="M223.3,251.1L224.3,250.1L222.7,246.7L230.4,239.8L234.0,240.7L238.6,237.6L238.1,236.0L240.7,234.5L244.5,236.5L249.1,237.1L250.1,239.9L253.7,241.4L254.7,244.0L252.4,246.2L256.0,247.5L256.8,250.0L261.4,252.1L262.4,254.0L267.3,254.9L266.8,248.9L265.7,246.7L271.6,245.5L275.2,247.4L280.8,238.7L283.1,237.6L294.1,228.7L303.4,226.8L305.4,225.5L310.5,225.1L316.7,223.5L320.5,225.7L323.6,220.7L328.2,216.0L329.7,210.1L352.8,210.1L365.8,209.9L365.8,220.3L363.5,219.0L360.7,221.7L356.1,223.2L352.2,225.6L350.7,228.9L352.0,230.9L346.6,235.9L348.9,238.8L347.6,241.9L343.0,248.6L334.8,252.1L328.2,249.4L327.2,251.9L320.0,255.1L317.2,261.1L320.8,261.9L321.3,265.2L320.3,269.0L315.4,271.4L315.9,273.0L311.6,273.9L309.8,278.3L303.6,282.8L303.4,285.0L299.8,288.3L300.3,292.6L298.2,293.7L296.7,297.2L298.2,299.1L298.0,301.9L293.1,301.9L294.9,307.7L291.1,309.2L288.0,309.1L288.5,310.7L285.2,313.7L282.1,315.0L279.8,314.2L280.3,311.7L276.5,309.5L271.6,304.5L266.8,302.9L263.4,303.6L262.7,300.1L256.5,297.5L255.2,299.7L251.7,301.1L248.3,304.7L241.4,305.1L236.1,301.7L234.0,298.3L230.9,299.8L224.5,301.0L224.5,295.9L229.9,293.0L233.5,289.2L238.1,285.8L233.0,281.4L231.7,278.8L229.7,277.6L229.7,265.1L228.9,259.4L229.7,257.0L226.8,255.9L226.6,253.5L223.3,251.1Z"/>
    <path class="wtc-county" id="wtc-county-lewis" data-county="Lewis" d="M112.2,369.4L108.9,369.4L112.4,365.8L112.2,360.5L105.3,361.1L103.7,359.3L87.6,359.3L89.9,353.4L88.6,353.0L88.6,335.8L92.5,335.7L92.5,338.3L95.3,338.6L100.7,336.0L102.0,338.7L102.0,345.2L104.3,344.7L106.3,349.8L108.1,350.4L120.4,348.2L124.7,346.9L128.1,351.1L134.7,351.0L137.5,352.5L131.9,355.2L126.5,362.6L124.5,365.5L116.5,365.5L112.2,369.4Z"/>
    <path class="wtc-county" id="wtc-county-lincoln" data-county="Lincoln" d="M238.9,136.3L238.9,111.5L255.2,111.5L256.5,108.6L277.8,108.5L277.8,105.4L286.0,105.4L298.0,105.4L298.0,111.4L301.6,111.4L301.6,136.4L254.5,136.4L238.9,136.3Z"/>
    <path class="wtc-county" id="wtc-county-madison" data-county="Madison" d="M425.4,188.2L425.4,179.0L424.9,175.9L428.8,176.9L435.9,173.2L439.5,170.4L443.9,168.9L450.5,168.9L450.5,166.8L466.6,166.5L466.6,187.9L464.8,187.1L461.0,188.3L457.2,187.7L455.4,185.1L445.4,185.1L445.4,186.2L435.4,186.2L435.4,188.2L425.4,188.2Z"/>
    <path class="wtc-county" id="wtc-county-minidoka" data-county="Minidoka" d="M286.0,105.4L286.0,89.0L289.0,90.0L293.4,89.0L297.0,90.5L299.8,88.1L305.9,89.1L311.6,96.9L317.4,98.9L319.0,98.6L319.0,111.4L323.1,111.4L323.1,136.4L301.6,136.4L301.6,111.4L298.0,111.4L298.0,105.4L286.0,105.4Z"/>
    <path class="wtc-county" id="wtc-county-nez-perce" data-county="Nez Perce" d="M64.6,366.4L63.6,360.5L67.9,357.4L70.0,354.1L70.0,350.3L73.0,347.8L68.7,342.1L70.5,341.4L73.3,335.7L77.4,329.2L82.0,325.8L86.6,328.5L84.5,331.9L88.6,335.8L88.6,353.0L89.9,353.4L87.6,359.3L103.7,359.3L105.3,361.1L112.2,360.5L112.4,365.8L108.9,369.4L112.2,369.4L112.2,371.8L106.6,371.6L106.0,380.9L94.3,380.9L88.9,377.9L87.4,374.8L64.6,374.7L64.6,366.4Z"/>
    <path class="wtc-county" id="wtc-county-oneida" data-county="Oneida" d="M352.5,74.2L352.5,50.7L410.1,50.9L412.1,50.6L416.0,50.7L416.0,63.0L418.8,62.9L418.8,67.8L414.9,71.2L412.6,71.9L410.3,75.8L405.2,75.8L404.2,73.6L400.6,73.9L400.4,75.6L402.9,78.4L402.7,83.2L399.3,82.8L396.5,86.7L394.0,86.7L388.3,86.7L388.3,80.5L377.1,80.5L377.1,74.3L352.5,74.2Z"/>
    <path class="wtc-county" id="wtc-county-owyhee" data-county="Owyhee" d="M65.4,170.7L65.4,50.9L66.1,50.8L112.4,50.6L187.4,50.6L207.1,50.6L207.1,105.6L177.4,105.6L177.4,111.6L178.5,111.5L178.5,117.3L174.1,116.9L172.1,118.1L166.7,117.7L165.4,119.0L160.3,117.8L154.9,117.7L153.4,120.2L149.6,119.9L143.2,122.3L140.6,120.0L141.1,118.1L137.8,118.5L135.0,121.1L128.3,123.1L128.6,124.6L124.2,125.6L125.0,128.0L119.6,130.2L117.3,130.7L114.7,133.7L111.2,135.9L111.7,138.6L108.3,143.1L102.2,142.9L97.3,144.0L94.3,148.6L90.4,150.7L83.0,156.3L83.0,159.7L80.5,163.4L73.5,165.2L70.5,167.5L69.7,169.7L65.4,170.7Z"/>
    <path class="wtc-county" id="wtc-county-payette" data-county="Payette" d="M74.6,204.4L72.0,200.6L68.9,199.5L69.2,196.9L72.0,195.0L71.8,192.3L68.7,187.4L68.7,184.9L70.5,184.9L70.5,181.8L73.5,181.8L74.8,179.7L77.9,178.7L87.9,179.7L87.9,192.1L97.9,192.0L97.9,194.1L100.7,194.1L100.7,198.2L106.3,198.1L106.3,204.2L74.6,204.4Z"/>
    <path class="wtc-county" id="wtc-county-power" data-county="Power" d="M352.0,130.1L335.1,130.1L335.1,111.3L335.6,105.2L339.7,105.2L339.7,99.0L335.6,99.0L335.6,95.4L340.0,95.6L340.0,92.9L352.2,92.8L352.5,74.2L377.1,74.3L377.1,80.5L388.3,80.5L388.3,86.7L394.0,86.7L394.2,91.3L396.3,91.6L396.8,96.9L394.0,96.9L394.0,99.0L391.1,100.5L391.1,103.1L388.3,103.1L388.3,107.2L387.0,107.2L386.8,115.9L381.9,120.3L377.8,118.0L373.7,117.6L371.2,115.4L370.4,118.7L367.1,113.4L365.6,112.4L352.0,112.4L352.0,130.1Z"/>
    <path class="wtc-county" id="wtc-county-shoshone" data-county="Shoshone" d="M135.2,477.0L130.1,481.0L127.0,480.2L121.9,483.5L119.1,483.1L115.0,479.9L115.0,470.9L115.0,436.9L115.0,408.9L115.0,402.7L150.8,402.6L212.5,402.6L209.7,405.3L206.4,405.3L204.8,408.9L200.0,414.0L195.6,417.3L192.5,418.1L191.3,420.3L188.5,420.8L189.0,423.1L186.7,425.6L180.5,426.2L172.3,429.0L170.5,432.3L158.5,437.6L155.7,437.5L158.8,439.7L164.4,440.2L165.2,441.5L161.1,442.0L159.8,445.4L157.0,445.7L157.5,447.8L160.8,449.8L157.7,453.2L158.3,457.0L154.9,458.5L153.1,461.4L151.1,461.0L149.0,466.4L145.2,467.7L135.2,477.0Z"/>
    <path class="wtc-county" id="wtc-county-teton" data-county="Teton" d="M466.6,187.9L466.6,166.5L477.6,166.5L480.2,160.9L484.8,161.1L491.2,159.2L492.0,157.9L491.7,170.7L491.7,192.3L487.1,191.2L481.7,188.6L478.2,189.8L473.0,187.7L470.0,189.7L466.6,187.9Z"/>
    <path class="wtc-county" id="wtc-county-twin-falls" data-county="Twin Falls" d="M207.1,105.6L207.1,50.6L223.8,51.0L238.6,50.4L261.1,50.4L260.9,80.6L276.2,80.6L276.5,87.5L281.1,88.3L278.3,88.5L271.9,86.1L268.3,88.8L263.7,90.7L257.6,91.7L254.5,93.5L248.1,93.6L242.7,96.0L237.3,97.2L228.1,98.9L223.3,98.2L220.7,101.8L219.9,104.7L214.6,105.6L214.3,108.8L216.9,112.1L212.8,116.1L207.1,115.8L207.1,105.6Z"/>
    <path class="wtc-county" id="wtc-county-valley" data-county="Valley" d="M127.5,229.0L127.8,216.6L123.4,216.5L123.4,204.2L130.4,204.2L131.6,210.3L174.4,210.1L184.9,215.2L184.9,218.3L189.0,217.6L192.3,221.0L193.8,227.8L192.8,230.0L189.7,230.5L188.2,234.4L189.7,236.8L195.6,238.0L197.9,239.6L200.0,244.3L199.2,245.5L203.6,248.3L213.0,244.8L216.3,247.4L223.3,251.1L226.6,253.5L226.8,255.9L229.7,257.0L228.9,259.4L229.7,265.1L229.7,277.6L231.7,278.8L210.0,278.8L140.3,278.7L140.3,280.4L132.9,275.7L129.8,276.1L128.3,272.4L128.6,270.6L132.2,269.2L129.1,265.4L130.4,263.1L127.5,260.6L127.0,257.8L124.5,254.9L123.7,248.6L127.3,242.9L125.5,235.3L127.5,229.0Z"/>
    <path class="wtc-county" id="wtc-county-washington" data-county="Washington" d="M74.3,253.4L72.3,249.6L64.1,246.6L60.5,240.9L58.4,234.9L55.9,230.9L51.3,227.9L52.0,223.9L50.0,221.7L53.8,217.5L51.5,215.0L55.1,211.9L60.0,213.4L64.1,209.8L69.2,210.5L69.7,207.3L74.3,206.3L74.6,204.4L106.3,204.2L113.0,204.2L114.2,213.2L113.7,216.4L115.3,218.9L115.8,223.5L117.3,225.1L109.6,225.1L100.9,228.5L100.9,237.3L95.6,237.3L94.0,240.7L94.0,253.2L74.3,253.4Z"/>
  </g>
</svg>