<?xml version="1.0" encoding="UTF-8"?>
<svg xmlns="http://www.w3.org/2000/svg" viewBox="0 0 600 305" id="wtc-state-map-ND" role="img" aria-label="nd county map">
  <title>nd Counties</title>
  <g class="wtc-counties">
    <path class="wtc-county" id="wtc-county-adams" data-county="Adams" d="M120.2,231.5L120.2,254.0L123.8,254.0L186.8,254.0L186.8,246.7L186.8,236.6L153.5,236.5L153.5,231.4L125.0,231.5L120.2,231.5Z"/>
    <path class="wtc-county" id="wtc-county-barnes" data-county="Barnes" d="M422.5,167.5L422.5,184.9L424.5,184.9L424.5,208.1L451.5,208.2L475.0,208.3L475.0,185.0L473.3,185.0L473.3,167.5L456.3,167.5L422.5,167.5Z"/>
    <path class="wtc-county" id="wtc-county-benson" data-county="Benson" d="M354.0,92.0L330.5,92.0L330.3,115.4L332.7,115.4L332.7,127.0L367.2,127.0L417.3,127.0L418.7,127.1L418.7,122.5L412.0,122.4L409.4,119.2L408.9,116.7L403.6,117.9L401.5,116.7L400.0,112.8L392.6,116.5L387.6,117.4L386.8,113.2L382.3,115.3L382.3,109.6L379.7,109.6L377.7,107.2L373.7,106.4L373.7,92.0L354.0,92.0Z"/>
    <path class="wtc-county" id="wtc-county-billings" data-county="Billings" d="M75.4,161.6L75.4,184.9L79.2,184.9L79.2,208.3L104.6,208.3L104.6,184.9L117.8,184.9L117.8,161.6L113.2,161.6L75.4,161.6Z"/>
    <path class="wtc-county" id="wtc-county-bottineau" data-county="Bottineau" d="M220.3,50.1L220.3,68.8L223.5,68.8L223.5,80.3L249.6,80.4L249.6,74.6L293.2,74.6L293.2,80.4L301.8,80.4L310.4,80.4L310.4,68.8L308.0,68.8L308.0,50.1L245.0,50.1L220.3,50.1Z"/>
    <path class="wtc-county" id="wtc-county-bowman" data-county="Bowman" d="M50.2,231.6L50.0,250.3L50.2,254.0L91.0,254.0L120.2,254.0L120.2,231.5L96.0,231.6L50.2,231.6Z"/>
    <path class="wtc-county" id="wtc-county-burke" data-county="Burke" d="M124.0,50.1L124.0,68.7L127.6,68.7L127.6,74.5L127.6,80.3L171.2,80.3L171.2,68.7L176.5,68.7L176.5,62.9L185.4,62.9L185.4,50.1L124.0,50.1Z"/>
    <path class="wtc-county" id="wtc-county-burleigh" data-county="Burleigh" d="M255.8,173.1L257.2,174.3L258.4,178.4L261.3,180.4L261.5,182.1L257.7,184.7L259.6,187.0L259.9,190.4L265.6,196.3L264.4,200.3L268.3,201.1L268.3,204.5L270.2,204.1L271.6,206.5L277.4,205.0L276.2,207.9L314.7,208.0L315.2,184.8L312.6,184.8L312.6,161.7L275.2,161.7L270.2,161.6L270.2,173.1L255.8,173.1Z"/>
    <path class="wtc-county" id="wtc-county-cass" data-county="Cass" d="M473.3,167.5L473.3,185.0L475.0,185.0L475.0,208.3L501.8,208.3L533.9,208.2L534.4,208.0L533.9,205.9L535.1,202.0L533.7,195.6L534.9,194.6L536.3,187.9L534.9,188.5L532.3,185.6L532.5,175.8L531.8,173.5L531.6,167.7L490.3,167.6L473.3,167.5Z"/>
    <path class="wtc-county" id="wtc-county-cavalier" data-county="Cavalier" d="M387.1,50.1L387.1,68.9L389.0,68.9L389.0,80.4L432.6,80.5L458.5,80.6L458.5,68.9L457.0,68.9L457.0,50.0L387.1,50.1Z"/>
    <path class="wtc-county" id="wtc-county-dickey" data-county="Dickey" d="M386.6,254.3L405.3,254.4L426.1,254.5L453.2,254.5L453.2,231.4L451.5,231.4L420.1,231.4L386.8,231.4L386.6,254.3Z"/>
    <path class="wtc-county" id="wtc-county-divide" data-county="Divide" d="M50.0,50.1L50.0,74.5L127.6,74.5L127.6,68.7L124.0,68.7L124.0,50.1L95.0,50.1L50.0,50.1Z"/>
    <path class="wtc-county" id="wtc-county-dunn" data-county="Dunn" d="M143.9,128.6L143.9,138.5L113.2,138.5L113.5,160.2L113.2,161.6L117.8,161.6L117.8,184.9L151.6,184.8L151.6,182.9L177.0,182.9L177.0,161.6L172.9,161.6L173.1,145.2L169.1,141.9L169.1,135.0L167.4,133.3L169.3,131.4L164.3,130.0L160.9,133.0L159.0,133.4L153.5,131.5L149.2,131.5L143.9,128.6Z"/>
    <path class="wtc-county" id="wtc-county-eddy" data-county="Eddy" d="M367.2,127.0L367.2,138.6L369.4,138.6L369.1,144.3L420.4,144.3L420.4,138.6L418.7,138.6L418.7,127.1L417.3,127.0L367.2,127.0Z"/>
    <path class="wtc-county" id="wtc-county-emmons" data-county="Emmons" d="M276.2,207.9L282.4,210.7L281.0,212.0L283.8,214.7L281.7,216.5L280.2,220.2L281.0,221.7L282.9,224.8L283.6,228.3L281.4,231.5L282.9,233.6L281.9,236.3L278.3,240.5L279.3,245.5L282.9,249.7L286.5,252.5L286.0,254.1L286.9,254.1L328.2,254.2L328.4,231.4L325.8,231.4L325.8,208.0L314.7,208.0L276.2,207.9Z"/>
    <path class="wtc-county" id="wtc-county-foster" data-county="Foster" d="M369.1,144.3L369.1,161.7L420.4,161.8L420.4,144.3L369.1,144.3Z"/>
    <path class="wtc-county" id="wtc-county-golden-valley" data-county="Golden Valley" d="M50.2,161.5L50.2,207.5L50.2,214.2L66.5,214.2L66.5,208.3L79.2,208.3L79.2,184.9L75.4,184.9L75.4,161.6L50.2,161.5Z"/>
    <path class="wtc-county" id="wtc-county-grand-forks" data-county="Grand Forks" d="M460.2,103.8L460.2,115.4L461.6,115.4L461.6,138.6L488.9,138.7L527.7,138.7L526.0,136.6L524.6,132.2L522.7,131.3L520.1,125.5L519.3,122.1L516.7,120.2L515.5,113.2L513.6,112.0L510.7,105.2L510.9,103.8L460.2,103.8Z"/>
    <path class="wtc-county" id="wtc-county-grant" data-county="Grant" d="M180.3,202.4L180.3,208.1L183.4,208.2L183.7,231.4L186.8,231.4L186.8,236.6L186.8,246.7L190.9,245.9L193.7,246.5L196.9,245.4L197.3,248.3L203.1,247.5L209.3,249.5L212.0,247.8L213.9,249.7L216.5,249.8L217.7,248.2L220.3,248.7L227.8,245.0L229.2,245.6L233.5,243.3L233.3,241.4L240.7,240.4L240.2,238.0L246.7,234.9L247.7,231.9L251.7,231.3L250.3,231.3L250.3,225.5L233.5,225.5L233.5,208.2L205.5,208.1L205.5,202.4L180.3,202.4Z"/>
    <path class="wtc-county" id="wtc-county-griggs" data-county="Griggs" d="M420.4,138.6L420.4,144.3L420.4,161.8L422.5,161.8L422.5,167.5L456.3,167.5L456.3,161.8L454.6,161.8L454.9,139.1L454.6,138.6L420.4,138.6Z"/>
    <path class="wtc-county" id="wtc-county-hettinger" data-county="Hettinger" d="M124.7,208.3L125.0,231.5L153.5,231.4L153.5,236.5L186.8,236.6L186.8,231.4L183.7,231.4L183.4,208.2L180.3,208.1L124.7,208.3Z"/>
    <path class="wtc-county" id="wtc-county-kidder" data-county="Kidder" d="M312.6,161.7L312.6,184.8L315.2,184.8L314.7,208.0L325.8,208.0L356.9,208.1L357.1,184.8L355.0,184.8L355.0,161.7L318.1,161.7L312.6,161.7Z"/>
    <path class="wtc-county" id="wtc-county-lamoure" data-county="LaMoure" d="M384.5,208.2L384.5,231.4L386.8,231.4L420.1,231.4L451.5,231.4L451.5,208.2L424.5,208.1L384.5,208.2Z"/>
    <path class="wtc-county" id="wtc-county-logan" data-county="Logan" d="M325.8,208.0L325.8,231.4L328.4,231.4L384.5,231.4L384.5,208.2L356.9,208.1L325.8,208.0Z"/>
    <path class="wtc-county" id="wtc-county-mchenry" data-county="McHenry" d="M249.6,86.2L249.6,92.0L252.4,92.0L252.4,115.3L255.6,115.3L255.3,126.9L281.2,127.0L307.1,127.0L307.1,115.3L304.4,115.3L304.4,92.0L301.8,92.0L301.8,80.4L293.2,80.4L293.2,74.6L249.6,74.6L249.6,80.4L249.6,86.2Z"/>
    <path class="wtc-county" id="wtc-county-mcintosh" data-county="McIntosh" d="M328.4,231.4L328.2,254.2L338.9,254.2L386.6,254.3L386.8,231.4L384.5,231.4L328.4,231.4Z"/>
    <path class="wtc-county" id="wtc-county-mckenzie" data-county="McKenzie" d="M50.2,157.1L50.2,161.5L75.4,161.6L113.2,161.6L113.5,160.2L113.2,138.5L143.9,138.5L143.9,128.6L143.4,123.3L148.9,118.9L149.9,116.9L147.0,116.0L146.1,113.7L142.2,113.4L142.5,111.7L136.0,110.4L135.8,108.1L131.5,108.5L129.1,107.6L126.2,108.7L121.9,107.6L114.0,108.5L112.8,107.0L106.5,107.7L103.2,110.6L104.4,112.6L100.8,114.1L94.6,115.1L91.4,114.4L86.7,116.4L81.1,113.0L83.3,111.0L79.5,109.2L74.9,108.6L70.4,110.6L72.5,112.9L70.1,114.0L67.7,112.8L66.5,117.2L62.9,115.8L62.0,118.6L58.6,119.7L55.5,117.8L52.9,119.0L50.2,117.0L50.2,157.1Z"/>
    <path class="wtc-county" id="wtc-county-mclean" data-county="McLean" d="M195.2,127.0L160.9,127.0L160.9,133.0L164.3,130.0L169.3,131.4L167.4,133.3L169.1,135.0L169.1,141.9L173.1,145.2L176.0,145.8L184.4,145.3L184.6,147.5L189.2,147.7L194.0,149.8L199.3,150.4L206.2,147.6L210.8,148.3L220.1,146.4L224.9,146.0L228.7,148.9L225.4,150.5L224.2,152.9L226.6,156.7L229.2,159.0L230.4,164.1L236.4,165.9L240.5,166.9L241.2,164.9L249.6,164.0L255.1,166.9L253.9,169.9L255.8,173.1L270.2,173.1L270.2,161.6L275.2,161.7L275.4,138.5L281.2,138.5L281.2,127.0L255.3,126.9L195.2,127.0Z"/>
    <path class="wtc-county" id="wtc-county-mercer" data-county="Mercer" d="M173.1,145.2L172.9,161.6L177.0,161.6L177.0,182.9L177.0,184.8L180.3,184.8L202.4,184.8L202.4,167.4L236.2,167.4L236.4,165.9L230.4,164.1L229.2,159.0L226.6,156.7L224.2,152.9L225.4,150.5L228.7,148.9L224.9,146.0L220.1,146.4L210.8,148.3L206.2,147.6L199.3,150.4L194.0,149.8L189.2,147.7L184.6,147.5L184.4,145.3L176.0,145.8L173.1,145.2Z"/>
    <path class="wtc-county" id="wtc-county-morton" data-county="Morton" d="M180.3,184.8L180.3,202.4L205.5,202.4L205.5,208.1L233.5,208.2L233.5,225.5L250.3,225.5L250.3,231.3L251.7,231.3L257.5,227.0L258.9,223.9L265.9,224.6L269.0,223.7L272.1,224.9L274.5,222.9L281.0,221.7L280.2,220.2L281.7,216.5L283.8,214.7L281.0,212.0L282.4,210.7L276.2,207.9L277.4,205.0L271.6,206.5L270.2,204.1L268.3,204.5L268.3,201.1L264.4,200.3L265.6,196.3L259.9,190.4L259.6,187.0L257.7,184.7L202.4,184.8L180.3,184.8Z"/>
    <path class="wtc-county" id="wtc-county-mountrail" data-county="Mountrail" d="M127.6,80.3L127.6,91.9L131.5,91.9L131.5,108.5L135.8,108.1L136.0,110.4L142.5,111.7L142.2,113.4L146.1,113.7L147.0,116.0L149.9,116.9L148.9,118.9L143.4,123.3L143.9,128.6L149.2,131.5L153.5,131.5L159.0,133.4L160.9,133.0L160.9,127.0L195.2,127.0L195.4,115.3L191.8,115.3L191.8,91.9L188.5,92.0L188.5,80.3L171.2,80.3L127.6,80.3Z"/>
    <path class="wtc-county" id="wtc-county-nelson" data-county="Nelson" d="M434.3,103.8L425.7,103.8L425.4,115.4L418.7,115.4L418.7,122.5L418.7,127.1L418.7,138.6L420.4,138.6L454.6,138.6L461.6,138.6L461.6,115.4L460.2,115.4L460.2,103.8L434.3,103.8Z"/>
    <path class="wtc-county" id="wtc-county-oliver" data-county="Oliver" d="M236.4,165.9L236.2,167.4L202.4,167.4L202.4,184.8L257.7,184.7L261.5,182.1L261.3,180.4L258.4,178.4L257.2,174.3L255.8,173.1L253.9,169.9L255.1,166.9L249.6,164.0L241.2,164.9L240.5,166.9L236.4,165.9Z"/>
    <path class="wtc-county" id="wtc-county-pembina" data-county="Pembina" d="M457.0,50.0L457.0,68.9L458.5,68.9L458.5,80.6L509.8,80.6L509.5,80.5L511.2,75.9L513.3,74.5L514.1,71.0L510.5,66.4L508.6,59.3L507.1,57.9L504.5,52.3L505.2,50.0L457.0,50.0Z"/>
    <path class="wtc-county" id="wtc-county-pierce" data-county="Pierce" d="M301.8,80.4L301.8,92.0L304.4,92.0L304.4,115.3L307.1,115.3L307.1,127.0L315.7,127.0L332.7,127.0L332.7,115.4L330.3,115.4L330.5,92.0L354.0,92.0L354.0,80.4L310.4,80.4L301.8,80.4Z"/>
    <path class="wtc-county" id="wtc-county-ramsey" data-county="Ramsey" d="M373.7,92.0L373.7,106.4L377.7,107.2L379.7,109.6L382.3,109.6L382.3,115.3L386.8,113.2L387.6,117.4L392.6,116.5L400.0,112.8L401.5,116.7L403.6,117.9L408.9,116.7L409.4,119.2L412.0,122.4L418.7,122.5L418.7,115.4L425.4,115.4L425.7,103.8L434.3,103.8L434.3,92.1L432.4,92.1L432.6,80.5L389.0,80.4L389.0,92.1L373.7,92.0Z"/>
    <path class="wtc-county" id="wtc-county-ransom" data-county="Ransom" d="M451.5,208.2L451.5,231.4L453.2,231.4L501.8,231.4L501.8,208.3L475.0,208.3L451.5,208.2Z"/>
    <path class="wtc-county" id="wtc-county-renville" data-county="Renville" d="M185.4,62.9L185.4,68.7L197.3,68.8L197.3,86.1L249.6,86.2L249.6,80.4L223.5,80.3L223.5,68.8L220.3,68.8L220.3,50.1L185.4,50.1L185.4,62.9Z"/>
    <path class="wtc-county" id="wtc-county-richland" data-county="Richland" d="M501.8,208.3L501.8,231.4L503.3,231.4L503.0,250.5L505.2,250.8L505.2,254.6L549.5,254.6L548.8,248.9L550.0,246.4L547.4,235.6L547.1,228.2L544.0,226.7L539.2,221.0L538.0,218.2L537.1,211.4L534.9,208.3L534.4,208.0L533.9,208.2L501.8,208.3Z"/>
    <path class="wtc-county" id="wtc-county-rolette" data-county="Rolette" d="M308.0,50.1L308.0,68.8L310.4,68.8L310.4,80.4L354.0,80.4L354.0,68.9L351.9,68.9L351.9,50.1L308.0,50.1Z"/>
    <path class="wtc-county" id="wtc-county-sargent" data-county="Sargent" d="M453.2,231.4L453.2,254.5L455.1,254.6L505.2,254.6L505.2,250.8L503.0,250.5L503.3,231.4L501.8,231.4L453.2,231.4Z"/>
    <path class="wtc-county" id="wtc-county-sheridan" data-county="Sheridan" d="M281.2,127.0L281.2,138.5L275.4,138.5L275.2,161.7L312.6,161.7L318.1,161.7L318.1,138.6L315.7,138.6L315.7,127.0L307.1,127.0L281.2,127.0Z"/>
    <path class="wtc-county" id="wtc-county-sioux" data-county="Sioux" d="M186.8,246.7L186.8,254.0L235.4,254.0L286.0,254.1L286.5,252.5L282.9,249.7L279.3,245.5L278.3,240.5L281.9,236.3L282.9,233.6L281.4,231.5L283.6,228.3L282.9,224.8L281.0,221.7L274.5,222.9L272.1,224.9L269.0,223.7L265.9,224.6L258.9,223.9L257.5,227.0L251.7,231.3L247.7,231.9L246.7,234.9L240.2,238.0L240.7,240.4L233.3,241.4L233.5,243.3L229.2,245.6L227.8,245.0L220.3,248.7L217.7,248.2L216.5,249.8L213.9,249.7L212.0,247.8L209.3,249.5L203.1,247.5L197.3,248.3L196.9,245.4L193.7,246.5L190.9,245.9L186.8,246.7Z"/>
    <path class="wtc-county" id="wtc-county-slope" data-county="Slope" d="M50.2,214.2L50.2,231.6L96.0,231.6L120.2,231.5L125.0,231.5L124.7,208.3L104.6,208.3L79.2,208.3L66.5,208.3L66.5,214.2L50.2,214.2Z"/>
    <path class="wtc-county" id="wtc-county-stark" data-county="Stark" d="M117.8,184.9L104.6,184.9L104.6,208.3L124.7,208.3L180.3,208.1L180.3,202.4L180.3,184.8L177.0,184.8L177.0,182.9L151.6,182.9L151.6,184.8L117.8,184.9Z"/>
    <path class="wtc-county" id="wtc-county-steele" data-county="Steele" d="M454.6,138.6L454.9,139.1L454.6,161.8L456.3,161.8L456.3,167.5L473.3,167.5L490.3,167.6L490.3,161.9L488.9,161.9L488.9,138.7L461.6,138.6L454.6,138.6Z"/>
    <path class="wtc-county" id="wtc-county-stutsman" data-county="Stutsman" d="M355.0,161.7L355.0,184.8L357.1,184.8L356.9,208.1L384.5,208.2L424.5,208.1L424.5,184.9L422.5,184.9L422.5,167.5L422.5,161.8L420.4,161.8L369.1,161.7L355.0,161.7Z"/>
    <path class="wtc-county" id="wtc-county-towner" data-county="Towner" d="M351.9,50.1L351.9,68.9L354.0,68.9L354.0,80.4L354.0,92.0L373.7,92.0L389.0,92.1L389.0,80.4L389.0,68.9L387.1,68.9L387.1,50.1L351.9,50.1Z"/>
    <path class="wtc-county" id="wtc-county-traill" data-county="Traill" d="M488.9,138.7L488.9,161.9L490.3,161.9L490.3,167.6L531.6,167.7L530.8,164.0L531.6,161.1L529.6,155.9L530.4,150.2L530.1,142.8L528.9,142.6L527.7,138.7L488.9,138.7Z"/>
    <path class="wtc-county" id="wtc-county-walsh" data-county="Walsh" d="M432.6,80.5L432.4,92.1L434.3,92.1L434.3,103.8L460.2,103.8L510.9,103.8L510.9,101.1L512.6,98.1L510.7,92.8L511.4,89.8L511.2,83.7L509.8,80.6L458.5,80.6L432.6,80.5Z"/>
    <path class="wtc-county" id="wtc-county-ward" data-county="Ward" d="M185.4,62.9L176.5,62.9L176.5,68.7L171.2,68.7L171.2,80.3L188.5,80.3L188.5,92.0L191.8,91.9L191.8,115.3L195.4,115.3L195.2,127.0L255.3,126.9L255.6,115.3L252.4,115.3L252.4,92.0L249.6,92.0L249.6,86.2L197.3,86.1L197.3,68.8L185.4,68.7L185.4,62.9Z"/>
    <path class="wtc-county" id="wtc-county-wells" data-county="Wells" d="M315.7,127.0L315.7,138.6L318.1,138.6L318.1,161.7L355.0,161.7L369.1,161.7L369.1,144.3L369.4,138.6L367.2,138.6L367.2,127.0L332.7,127.0L315.7,127.0Z"/>
    <path class="wtc-county" id="wtc-county-williams" data-county="Williams" d="M50.0,74.5L50.0,90.8L50.2,91.8L50.2,117.0L52.9,119.0L55.5,117.8L58.6,119.7L62.0,118.6L62.9,115.8L66.5,117.2L67.7,112.8L70.1,114.0L72.5,112.9L70.4,110.6L74.9,108.6L79.5,109.2L83.3,111.0L81.1,113.0L86.7,116.4L91.4,114.4L94.6,115.1L100.8,114.1L104.4,112.6L103.2,110.6L106.5,107.7L112.8,107.0L114.0,108.5L121.9,107.6L126.2,108.7L129.1,107.6L131.5,108.5L131.5,91.9L127.6,91.9L127.6,80.3L127.6,74.5L50.0,74.5Z"/>
  </g>
</svg>